<svg xmlns="http://www.w3.org/2000/svg" width="1025" height="1024"><g fill="none" fill-rule="nonzero"><path fill="#597DFB" d="M1024.398 1024H.398V.078l1024-.078z"/><g fill="#FFF"><path d="M613.898 646.02v72.863c1.148.522 1.773.94 2.295.94 55.277-.418 110.66 3.027 165.728-2.61 30.246-3.132 56.425-16.076 76.658-39.46 31.915-36.848 34.523-119.106-23.362-162.01-2.92-2.192-6.57-3.653-8.448-7.724 17.835-11.379 33.166-24.532 42.866-43.217 37.025-70.984-13.454-158.462-93.555-160.758-51.73-1.462-103.462-.73-155.194-1.044-2.19 0-4.38.313-6.675.522v73.907c35.774 0 70.714-.105 105.653 0 8.031 0 16.27 0 24.197 1.148 26.179 3.862 39.216 21.4 38.277 50.524-.834 25.784-13.871 38.937-40.363 41.755-26.178 2.819-52.357.835-78.535 1.566-3.442.105-7.093-1.148-10.326 1.462v71.297c4.172 1.983 8.135 1.044 11.89 1.148 25.866.835 51.731-1.566 77.493 1.67 17 2.088 30.976 8.873 36.608 25.889 6.362 19.416 6.78 38.936-6.884 56.265-4.484 5.741-10.534 9.5-17.521 11.587-8.761 2.61-17.627 4.071-26.7 4.071-34.314.105-68.524.105-102.838.209h-11.264M280.611 303.522v73.8h121.124c11.059 0 22.013.627 32.759 3.236 25.769 6.055 38.08 21.921 37.558 48.748-.418 22.339-15.545 39.04-39.436 43.633-17.631 3.34-35.471 1.357-53.207 1.88-48.617 1.46-82.627 26.722-97.65 72.965-5.425 16.701-7.93 34.03-8.033 51.566-.105 37.265-.105 74.427 0 111.692 0 2.819-.835 5.846 1.46 8.455H558.54v-73.696H362.195c1.043-20.668-1.46-40.397 2.19-59.917 3.13-17.119 13.146-27.558 29.734-32.15 7.199-1.984 14.502-3.132 22.013-3.132 17.84-.104 35.68.626 53.311-.626 39.227-2.819 69.795-19.416 86.383-57.204 16.067-36.43 19.092-73.8 7.72-111.692-12.519-41.858-40.165-67.746-83.983-74.844-10.537-1.67-21.178-2.61-31.82-2.714-53.415-.418-106.726-.418-160.142-.522-2.087 0-4.277.313-6.99.522M230.048 719.497V303.99H142v415.508h88.048"/></g></g></svg>