<svg xmlns="http://www.w3.org/2000/svg" width="1025" height="1024"><g fill="none" fill-rule="evenodd"><path fill="#FFF" d="M.398 0h1024v1024H.398z"/><path fill="#0090FE" fill-rule="nonzero" d="M871.045 339.391c-31.108 8.113-62.217 14.873-93.776 21.183-20.288 4.056-40.576 8.112-61.315 9.915-25.247 2.704-50.044 3.606-75.291 4.958-57.708 2.704-115.416 1.802-173.125 1.352-45.535-.45-91.521 0-136.155 9.464-40.125 8.564-78.447 21.183-112.26 45.07-21.19 14.873-41.929 30.647-66.725 39.21 1.352 4.057 4.959 3.155 7.664 3.155 26.6.902 53.2-1.352 79.349-4.507 17.583-2.253 35.616-4.507 53.2-7.21 22.542-3.607 45.084-4.508 67.626-5.86 12.624-.901 25.248-1.352 37.871.901 9.017 1.352 11.722 6.76 7.665 14.873-2.255 4.958-6.312 9.014-9.919 13.07-10.37 10.817-22.542 19.831-33.813 29.746-28.855 25.69-56.807 53.182-83.858 81.125-14.878 15.324-29.305 31.098-37.87 50.929-20.74 48.224-18.936 94.646 12.172 137.462 23.895 32.9 60.413 45.97 98.735 53.182 19.837 3.605 40.126 2.253 60.414 2.253 61.315 0 122.63-.45 183.944.902 36.519.901 72.587.901 108.654-4.958 36.97-5.859 67.176-24.338 88.366-54.534 30.207-42.816 38.322-90.59 26.149-141.518-8.566-36.056-26.15-66.703-56.807-88.787-49.142-34.704-104.145-45.07-163.206-34.253-22.993 4.056-43.28 14.422-58.61 32-30.657 35.154-33.362 75.716-19.386 117.63 12.173 36.958 57.708 57.239 96.481 45.972 17.583-4.958 31.56-15.324 38.773-32.45 5.86-13.07 1.352-24.789-10.82-29.746-1.804 18.929-10.37 27.041-30.207 27.492h-11.722c-21.26-.687-37.977-18.404-37.42-39.661 0-22.084 18.935-47.774 41.928-55.435 36.519-12.17 69.43-5.86 98.735 19.38 28.855 25.689 38.773 68.956 21.641 99.152-17.132 30.648-45.085 47.774-78.447 54.985-28.854 5.86-58.16 6.31-87.464 7.662-31.108 1.352-62.217.901-93.325-.902-23.444-1.352-47.339-3.154-70.332-8.112-20.288-4.507-40.125-10.366-55.905-24.788a43.44 43.44 0 0 1-15.329-36.507c1.804-24.337 12.173-45.52 27.953-63.998a2669.381 2669.381 0 0 1 134.352-142.42c18.034-18.028 40.125-28.394 65.372-30.647 22.543-1.803 44.634-2.704 67.176-4.056 41.478-2.704 82.505-8.113 123.081-19.38 45.085-12.169 85.21-32.9 114.064-71.21 5.41-6.76 10.82-13.52 13.075-22.535h-2.706l1.353.451M764.645 183c0 5.408-2.705 9.465-4.959 13.52-13.525 25.24-35.166 41.465-59.511 54.535-33.814 18.478-70.332 29.295-108.203 34.703-46.437 6.76-93.325 5.86-140.213 4.958-55.003-1.352-110.006 1.352-164.108 11.718-16.23 3.155-32.46 4.507-48.691 6.76-2.705 0-5.861.902-9.919 1.353 1.353-1.352 2.254-1.803 3.156-2.705 9.468-4.957 17.132-12.168 23.895-20.28 28.403-34.254 64.47-53.183 108.203-59.943 31.559-4.958 63.569-5.409 95.579-6.76 46.437-1.353 92.423-.902 138.86-4.508 55.004-4.056 108.654-15.774 160.952-32.45 1.353 0 2.705-.45 4.509-.901h.45"/></g></svg>