<svg xmlns="http://www.w3.org/2000/svg" width="1025" height="1024"><g fill="none" fill-rule="evenodd"><path fill="#FFF" d="M.398 0h1024v1024H.398z"/><g fill-rule="nonzero"><path fill="none" d="M162.398 107h700v810h-700z"/><path fill="#005EFD" d="M170.33 312.55v398.333l344.168 198.334L857.83 710.883l-.833-397.5-342.5-198.333z"/><path fill="#FFF" d="M181.164 319.217v385L515.331 895.05l331.667-191.667V319.217L513.664 127.55z"/><path fill="#005EFD" d="m217.83 340.05 75.834 45 294.167-172.5-74.167-42.5z"/><path fill="#0854C1" d="M217.83 339.217v344.166l192.5 110 73.334-44.166-190.833-110.834.833-253.333-75.833-45.833m515.474 44.715v254.533l75.36 44.085V339.847l-190.468-110.63-74.532 44.085 189.64 110.63"/><path fill="#005EFD" d="m440.33 808.212 73.834 44.338 294.5-169.825-74.661-45.175L440.33 808.212m-28.332-371.495h39.456v221.666l73.877 44.167v-375l-113.334 64.167v45"/><path fill="#0854C1" d="m525.33 702.55 25-13.333V340.883l-25-13.333z"/></g></g></svg>