<?xml version="1.0" encoding="UTF-8"?>
<svg width="1025px" height="1024px" viewBox="0 0 1025 1024" version="1.1" xmlns="http://www.w3.org/2000/svg" xmlns:xlink="http://www.w3.org/1999/xlink">
    <title>1Panel</title>
    <g id="ICON-新版方图标" stroke="none" stroke-width="1" fill="none" fill-rule="evenodd">
        <g id="1Panel" transform="translate(0.3975, 0)">
            <rect id="蒙版路径" fill="#FFFFFF" x="0" y="0" width="1024" height="1024"></rect>
            <g id="编组" transform="translate(162, 107)" fill-rule="nonzero">
                <polygon id="路径" fill-opacity="0" fill="#E0E0E0" points="0 0 700 0 700 810 0 810"></polygon>
                <polygon id="路径" fill="#005EFD" points="7.9333338 205.55 7.9333338 603.883333 352.1 802.216666 695.433333 603.883333 694.6 206.383333 352.1 8.0499999"></polygon>
                <polygon id="路径" fill="#FFFFFF" points="18.7666669 212.216667 18.7666669 597.216666 352.933334 788.049999 684.6 596.383333 684.6 212.216667 351.266667 20.5499998"></polygon>
                <polygon id="路径" fill="#005EFD" points="55.4333332 233.05 131.266667 278.05 425.433334 105.55 351.266667 63.0499997"></polygon>
                <path d="M55.4333332,232.216667 L55.4333332,576.383333 L247.933333,686.383333 L321.266667,642.216667 L130.433333,531.383333 L131.266667,278.05 L55.4333332,232.216667 Z M570.906667,276.931666 L570.906667,531.465 L646.266667,575.55 L646.266667,232.846667 L455.798333,122.216666 L381.266667,166.301666 L570.906667,276.931666 Z" id="形状" fill="#0854C1"></path>
                <path d="M277.933333,701.211667 L351.766667,745.55 L646.266666,575.724999 L571.605,530.55 L277.933333,701.211667 Z M249.6,329.716667 L289.056666,329.716667 L289.056666,551.383333 L362.933333,595.55 L362.933333,220.55 L249.6,284.716667 L249.6,329.716667 Z" id="形状" fill="#005EFD"></path>
                <polygon id="路径" fill="#0854C1" points="362.933333 595.55 387.933333 582.216666 387.933333 233.883334 362.933333 220.55"></polygon>
            </g>
        </g>
    </g>
</svg>