<svg xmlns="http://www.w3.org/2000/svg" width="1025" height="1024"><g fill="none" fill-rule="evenodd"><path fill="#F4425F" d="M.633 0h1024v1024H.633z"/><path fill="#FFF" d="M350.497 339.742c0-9.3.9-18.9 2.7-28.2 1.5-9.3 4.2-18.299 7.5-27.299 3.3-8.7 7.2-17.1 12-24.9 5.4-9.3 11.7-17.7 18.9-25.499-24 11.1-46.5 24.9-67.199 41.7C272.498 317.842 236.2 376.34 220.6 441.44c-5.4 23.1-8.1 46.8-8.1 70.499 0 50.999 12.6 101.398 37.2 146.097 1.8-14.7 5.4-29.1 11.1-42.599 18.599 44.7 47.998 83.999 85.198 114.298 37.499 30.6 81.898 51.299 129.597 60.299-8.4-10.5-15-22.2-20.1-34.5 25.2 8.4 51.6 12.6 78 13.5h7.199c42 0 83.698-9.6 121.498-28.2-6.3-3.6-12.3-7.5-18-11.999 42-16.2 79.199-42.6 107.998-77.399 13.5-15.9 24.6-33.599 33.9-52.199-14.4 5.1-29.1 8.1-44.4 9-3.3.3-6.6.3-9.9.3h-3c1.8-7.5 3.3-15.6 4.2-23.4.3-5.1.6-10.5.6-15.6 0-5.999-.3-11.999-.9-17.699-15.3 7.5-31.799 12.6-48.599 14.7-4.8.9-9.6 1.2-14.4 1.5 1.5-7.8 2.4-15.6 3-23.4v-7.8c0-11.1-1.2-22.2-3.3-33.299-12 7.2-24.899 12.6-38.399 16.2-4.8 1.2-9.6 2.4-14.7 3.3l-.3-.3c1.5-7.2 2.4-14.7 3-21.9 0-3 .3-5.7.3-8.7 0-9.3-.9-18.9-2.7-28.2-16.5 17.4-36.299 31.2-58.198 40.5-22.2 9.6-45.9 14.4-69.6 14.4-28.499 0-56.098-6.9-81.298-19.8 11.4-4.5 22.2-10.2 32.4-17.1-26.7-12.9-49.5-32.999-65.099-58.198a157.343 157.343 0 0 1-24.3-83.999"/><path fill="#FFF" d="M690.702 521.054c0 8.1-.6 15.9-1.8 23.7 14.1-1.2 27.6-4.5 40.5-9.6 6.9-2.7 13.5-5.7 19.8-9.3.9 5.4 1.5 10.5 2.1 15.9.3 3.9.3 8.1.3 12 0 10.8-1.2 21.899-3.3 32.399 16.199-.6 32.399-3.9 47.698-9.6 10.8-29.1 16.5-60.299 16.5-91.798 0-6.6 0-13.5-.6-20.4-1.5-19.8-5.4-39.6-11.4-58.799-2.4 6.6-5.4 12.9-9 18.6-4.8-31.2-15.9-61.2-32.399-87.899-16.5-27-38.1-50.399-63.899-68.698-18-12.6-37.5-22.8-58.199-30.3-2.7-.9-5.7-1.8-8.4-2.7 19.5 25.2 31.8 55.2 35.7 86.699 0 1.2.3 2.4.3 3.3v.3c0 1.2.3 2.4.3 3.6v.6c0 .9.3 2.1.3 3.3v3.3c0 .9 0 1.8.3 2.7v4.5c0 35.999-11.1 71.398-31.8 100.797 2.4 10.8 3.3 21.9 3.3 32.7 0 7.5-.3 15-1.5 22.2 10.2-2.4 19.8-5.7 29.1-9.9 6.9-3.3 13.8-6.9 20.1-11.1 1.2 4.5 2.4 9.3 3.3 14.1 1.8 9.6 2.7 19.5 2.7 29.399"/></g></svg>