<?xml version="1.0" encoding="UTF-8"?>
<svg width="1025px" height="1024px" viewBox="0 0 1025 1024" version="1.1" xmlns="http://www.w3.org/2000/svg" xmlns:xlink="http://www.w3.org/1999/xlink">
    <title>Apifox</title>
    <g id="ICON-新版方图标" stroke="none" stroke-width="1" fill="none" fill-rule="evenodd">
        <g id="Apifox" transform="translate(0.6332, 0)">
            <rect id="蒙版路径" fill="#F4425F" x="0" y="0" width="1024" height="1024"></rect>
            <path d="M349.864279,339.742108 C349.864279,330.442279 350.764263,320.842455 352.56423,311.542626 C354.064202,302.242797 356.764152,293.242962 360.064092,284.243127 C363.364031,275.543287 367.26396,267.143441 372.063872,259.343584 C377.463773,250.043755 383.763657,241.643909 390.963525,233.844052 C366.963965,244.943849 344.464378,258.743595 323.764758,275.543287 C271.865711,317.84251 235.566377,376.341437 219.966664,441.440242 C214.566763,464.539818 211.866812,488.239383 211.866812,511.938948 C211.866812,562.938011 224.466581,613.337086 249.066129,658.036266 C250.866096,643.336536 254.46603,628.9368 260.165926,615.437048 C278.765584,660.136227 308.165045,699.435506 345.364362,729.73495 C382.863673,760.334388 427.262858,781.034008 474.961983,790.033843 C466.562137,779.534036 459.962258,767.83425 454.862352,755.534476 C480.061889,763.934322 506.461405,768.134245 532.86092,769.034228 C535.260876,769.034228 537.660832,769.034228 540.060788,769.034228 C582.060017,769.034228 623.759251,759.434404 661.558558,740.834746 C655.258673,737.234812 649.258783,733.334884 643.558888,728.834966 C685.558117,712.635264 722.757434,686.235748 751.556906,651.436387 C765.056658,635.536679 776.156454,617.837004 785.456283,599.237345 C771.056548,604.337251 756.356818,607.337196 741.057098,608.23718 C737.757159,608.537174 734.45722,608.537174 731.15728,608.537174 C730.257297,608.537174 729.057319,608.537174 728.157335,608.537174 C729.957302,601.037312 731.457275,592.937461 732.357258,585.137604 C732.657253,580.037698 732.957247,574.637797 732.957247,569.53789 C732.957247,563.538 732.657253,557.538111 732.057264,551.838215 C716.757544,559.338077 700.257847,564.437984 683.458156,566.537945 C678.658244,567.437929 673.858332,567.737923 669.05842,568.037918 C670.558392,560.238061 671.458376,552.438204 672.058365,544.638347 C672.058365,542.238391 672.058365,539.538441 672.058365,536.83849 C672.058365,525.738694 670.858387,514.638898 668.758425,503.539102 C656.758646,510.73897 643.858883,516.13887 630.35913,519.738804 C625.559218,520.938782 620.759307,522.13876 615.6594,523.038744 L615.359406,522.738749 C616.859378,515.538881 617.759362,508.039019 618.359351,500.839151 C618.359351,497.839206 618.659345,495.139256 618.659345,492.139311 C618.659345,482.839482 617.759362,473.239658 615.959395,463.939829 C599.459698,481.339509 579.660061,495.139256 557.760463,504.439085 C535.56087,514.038909 511.861306,518.838821 488.161741,518.838821 C459.662264,518.838821 432.06277,511.938948 406.863233,499.039184 C418.263024,494.539267 429.062825,488.839372 439.262638,481.939498 C412.563128,469.039735 389.763547,448.940104 374.163833,423.740567 C358.264125,398.541029 349.864279,369.441563 349.864279,339.742108 Z" id="路径-2" fill="#FFFFFF"></path>
            <path d="M690.069048,521.053985 C690.069048,529.153836 689.469059,536.953693 688.269081,544.75355 C702.368822,543.553572 715.868574,540.253632 728.768338,535.153726 C735.668211,532.453775 742.26809,529.45383 748.567974,525.853897 C749.467958,531.253797 750.067947,536.353704 750.667936,541.753605 C750.96793,545.653533 750.96793,549.853456 750.96793,553.753384 C750.96793,564.553186 749.767952,575.652982 747.667991,586.15279 C763.867693,585.552801 780.067396,582.252861 795.367115,576.552966 C806.166917,547.4535 811.866812,516.254073 811.866812,484.754651 C811.866812,478.154772 811.866812,471.254899 811.266823,464.355025 C809.766851,444.555389 805.866922,424.755752 799.867032,405.556105 C797.467077,412.155984 794.467132,418.455868 790.867198,424.155763 C786.067286,392.956336 774.96749,362.956887 758.467792,336.257377 C741.968095,309.257872 720.368492,285.858302 694.568965,267.558638 C676.569296,254.958869 657.069654,244.759056 636.370034,237.259194 C633.670083,236.359211 630.670138,235.459227 627.970188,234.559244 C647.46983,259.758781 659.769604,289.75823 663.669533,321.257652 C663.669533,322.45763 663.969527,323.657608 663.969527,324.557592 C663.969527,324.857586 663.969527,324.857586 663.969527,324.857586 C663.969527,326.057564 664.269522,327.257542 664.269522,328.45752 L664.269522,329.057509 C664.269522,329.957492 664.569516,331.15747 664.569516,332.357448 C664.569516,333.557426 664.569516,334.757404 664.569516,335.657388 C664.569516,336.557371 664.569516,337.457355 664.869511,338.357338 C664.869511,338.357338 664.869511,338.357338 664.869511,338.657333 C664.869511,338.957327 664.869511,339.557316 664.869511,340.157305 C664.869511,341.057289 664.869511,341.957272 664.869511,342.857256 C664.869511,378.856595 653.769714,414.255945 633.070094,443.655405 C635.47005,454.455207 636.370034,465.555003 636.370034,476.354805 C636.370034,483.854667 636.070039,491.35453 634.870061,498.554398 C645.069874,496.154442 654.669698,492.854502 663.969527,488.654579 C670.8694,485.35464 677.769274,481.754706 684.069158,477.554783 C685.269136,482.0547 686.469114,486.854612 687.369098,491.654524 C689.169064,501.254348 690.069048,511.154166 690.069048,521.053985 Z" id="路径-1" fill="#FFFFFF"></path>
        </g>
    </g>
</svg>