<svg xmlns="http://www.w3.org/2000/svg" width="1024" height="1024"><g fill="none" fill-rule="evenodd"><path fill="#252F3C" d="M0 0h1024v1024H0z"/><g fill-rule="nonzero"><path fill="#FFF" d="M346.962 465.627c0 26.176 12.52 37.557 12.52 44.386 0 3.414-2.277 5.69-4.553 6.829l-14.795 10.243c-2.277 1.138-4.553 2.276-6.829 2.276 0 0-9.105 2.276-22.762-29.591-17.072 21.624-43.248 34.143-71.701 33.005-18.21 1.138-68.287-10.243-66.01-63.734-2.277-43.248 38.695-70.563 80.805-68.287 7.967 0 25.039 0 53.491 6.829v-18.21c3.415-29.59-17.071-53.491-51.215-50.077-2.276 0-21.624 0-52.353 11.381-7.967 5.69-7.967 4.553-11.38 4.553-7.968 0-4.553-23.9-3.415-27.315 5.69-6.829 40.972-20.486 75.115-20.486 22.762-2.276 45.525 4.552 63.734 19.348 14.796 15.934 21.625 37.558 20.486 59.182l-1.138 79.668"/><path fill="#252F3C" d="M249.085 502.046c36.42 0 52.353-22.762 55.767-34.143 2.276-11.381 2.276-18.21 2.276-30.73-11.38-2.275-27.314-5.69-45.524-5.69-17.072-1.138-48.939 6.829-47.8 36.42 0 19.348 13.657 35.281 35.28 34.143"/><path fill="#FFF" d="M443.702 528.223c-9.105 1.138-13.657-5.69-14.796-11.381l-56.905-187.789c-1.138-3.414-2.276-6.829-2.276-10.243 0-3.414 1.138-5.69 4.552-5.69h25.039c10.243-1.139 13.657 6.828 14.795 11.38l40.972 160.475L492.641 324.5c1.138-3.415 3.414-12.52 14.795-11.381h19.348c2.276 0 12.52 0 14.796 11.38l37.557 162.75 42.11-162.75c0-2.276 3.415-12.519 14.796-11.38h22.762c1.138 0 6.829-1.139 5.69 10.243 0 2.276 3.415-12.52-60.32 193.479-1.137 6.828-5.69 12.519-14.795 11.38h-21.624c-12.52 1.139-14.795-11.38-14.795-12.518l-37.558-155.922-37.558 155.922c0 1.138-2.276 13.657-14.795 12.519h-19.348M754.407 535.051c-6.83 0-38.696 0-64.873-13.657-5.69-2.276-9.105-7.967-9.105-13.657v-12.52c0-9.104 6.829-7.966 10.243-6.828 11.381 4.552 18.21 7.967 33.005 11.381 42.11 9.105 60.32-2.276 64.873-4.552 14.795-9.105 15.933-29.591 5.69-39.834-11.38-10.243-17.071-10.243-60.32-23.9-5.69-1.139-50.076-15.934-50.076-59.183-1.139-31.867 28.452-63.734 79.667-63.734 14.796 0 52.354 4.553 63.735 18.21 1.138 2.276 2.276 5.69 2.276 7.967v11.38c0 4.553-2.276 7.968-5.69 7.968-9.106-1.138-23.901-12.52-55.768-12.52-7.967 0-45.525 1.139-43.248 28.453 0 21.624 30.729 29.591 34.143 30.73 40.972 12.518 55.767 14.795 71.701 34.143 19.348 25.038 9.105 54.629 4.552 62.596-22.762 40.972-79.667 37.557-80.805 37.557"/><path fill="#F99A1A" d="M801.07 654.553c-79.669 59.182-195.756 89.911-293.634 89.911-134.297 1.138-262.904-47.8-361.92-137.711-7.966-6.83-1.138-15.934 7.967-10.243 109.26 62.596 234.451 95.6 360.782 95.6 94.463 0 187.788-19.347 275.423-56.905 12.52-4.552 23.9 9.105 11.381 19.348"/><path fill="#F99A1A" d="M834.074 616.996c-10.243-13.658-67.148-5.691-93.325-3.415-7.967 1.138-9.105-5.69-2.276-10.243 45.524-31.867 120.64-22.762 128.607-12.519 9.105 10.243-2.277 85.358-45.525 121.778-6.829 5.69-12.52 2.276-10.243-4.552 11.381-25.039 33.005-78.53 22.762-91.05"/></g></g></svg>