<?xml version="1.0" encoding="UTF-8"?>
<svg width="1024px" height="1024px" viewBox="0 0 1024 1024" version="1.1" xmlns="http://www.w3.org/2000/svg" xmlns:xlink="http://www.w3.org/1999/xlink">
    <title>Aws</title>
    <g id="ICON-新版方图标" stroke="none" stroke-width="1" fill="none" fill-rule="evenodd">
        <g id="Aws">
            <rect id="蒙版路径" fill="#252F3C" x="0" y="0" width="1024" height="1024"></rect>
            <g id="编组" transform="translate(142, 307)" fill-rule="nonzero">
                <path d="M204.962383,158.626624 C204.962383,184.803202 217.481617,196.184324 217.481617,203.012996 C217.481617,206.427333 215.205392,208.703557 212.929168,209.841669 L198.133711,220.084678 C195.857487,221.22279 193.581262,222.360902 191.305038,222.360902 C191.305038,222.360902 182.200141,224.637126 168.542796,192.769987 C151.471114,214.394117 125.294536,226.91335 96.8417333,225.775238 C78.6319396,226.91335 28.555007,215.532229 30.8312312,162.04096 C28.555007,118.7927 69.5270428,91.4780098 111.637191,93.754234 C119.603975,93.754234 136.675657,93.754234 165.12846,100.582907 L165.12846,82.373113 C168.542796,52.7821982 148.056778,28.881844 113.913415,32.2961803 C111.637191,32.2961803 92.2892849,32.2961803 61.5602581,43.6773014 C53.5934733,49.3678619 53.5934733,48.2297498 50.179137,48.2297498 C42.2123523,48.2297498 45.6266886,24.3293956 46.7648007,20.9150593 C52.4553612,14.0863866 87.7368365,0.429041379 121.8802,0.429041379 C144.642442,-1.84718283 167.404684,4.9814898 185.614478,19.7769472 C200.409935,35.7105167 207.238608,57.3346467 206.100495,78.9587767 L204.962383,158.626624 L204.962383,158.626624 Z" id="路径" fill="#FFFFFF"></path>
                <path d="M107.084742,195.046211 C143.50433,195.046211 159.437899,172.283969 162.852235,160.902848 C165.12846,149.521727 165.12846,142.693055 165.12846,130.173821 C153.747339,127.897597 137.813769,124.483261 119.603975,124.483261 C102.532294,123.345149 70.6651549,131.311934 71.803267,160.902848 C71.803267,180.250754 85.4606123,196.184324 107.084742,195.046211 Z" id="路径" fill="#252F3C"></path>
                <path d="M301.701912,221.22279 C292.597016,222.360902 288.044567,215.532229 286.906455,209.841669 L230.00085,22.0531714 C228.862738,18.6388351 227.724625,15.2244988 227.724625,11.8101624 C227.724625,8.39582612 228.862738,6.11960191 232.277074,6.11960191 L257.31554,6.11960191 C267.558549,4.9814898 270.972886,12.9482745 272.110998,17.500723 L313.083033,177.97453 L350.640733,17.500723 C351.778845,14.0863866 354.055069,4.9814898 365.43619,6.11960191 L384.784096,6.11960191 C387.06032,6.11960191 397.303329,6.11960191 399.579553,17.500723 L437.137253,180.250754 L479.247401,17.500723 C479.247401,15.2244988 482.661737,4.9814898 494.042858,6.11960191 L516.8051,6.11960191 C517.943212,6.11960191 523.633773,4.9814898 522.495661,16.3626109 C522.495661,18.6388351 525.909997,3.8433777 462.175719,209.841669 C461.037607,216.670341 456.485159,222.360902 447.380262,221.22279 L425.756132,221.22279 C413.236899,222.360902 410.960675,209.841669 410.960675,208.703557 L373.402975,52.7821982 L335.845276,208.703557 C335.845276,209.841669 333.569051,222.360902 321.049818,221.22279 L301.701912,221.22279 L301.701912,221.22279 Z" id="路径" fill="#FFFFFF"></path>
                <path d="M612.406517,228.051463 C605.577845,228.051463 573.710706,228.051463 547.534127,214.394117 C541.843567,212.117893 538.42923,206.427333 538.42923,200.736772 L538.42923,188.217539 C538.42923,179.112642 545.257903,180.250754 548.672239,181.388866 C560.05336,185.941315 566.882033,189.355651 581.67749,192.769987 C623.787638,201.874884 641.997432,190.493763 646.54988,188.217539 C661.345338,179.112642 662.48345,158.626624 652.240441,148.383615 C640.85932,138.140606 635.168759,138.140606 591.920499,124.483261 C586.229939,123.345149 541.843567,108.549691 541.843567,65.3014314 C540.705455,33.4342924 570.296369,1.56715348 621.511414,1.56715348 C636.306871,1.56715348 673.864571,6.11960191 685.245692,19.7769472 C686.383804,22.0531714 687.521916,25.4675077 687.521916,27.7437319 L687.521916,39.124853 C687.521916,43.6773014 685.245692,47.0916377 681.831356,47.0916377 C672.726459,45.9535256 657.931001,34.5724045 626.063862,34.5724045 C618.097078,34.5724045 580.539378,35.7105167 582.815602,63.0252072 C582.815602,84.6493372 613.544629,92.6161219 616.958966,93.754234 C657.931001,106.273467 672.726459,108.549691 688.660028,127.897597 C708.007934,152.936064 697.764925,182.526978 693.212477,190.493763 C670.450235,231.465799 613.544629,228.051463 612.406517,228.051463 L612.406517,228.051463 Z" id="路径" fill="#FFFFFF"></path>
                <path d="M659.069114,347.553234 C579.401266,406.735063 463.313831,437.46409 365.43619,437.46409 C231.138962,438.602202 102.532294,389.663382 3.51654067,299.752525 C-4.45024407,292.923853 2.37842857,283.818956 11.4833254,289.509516 C120.742088,352.105682 245.934419,385.110933 372.264863,385.110933 C466.728168,385.110933 560.05336,365.763027 647.687992,328.205328 C660.207226,323.652879 671.588347,337.310225 659.069114,347.553234 L659.069114,347.553234 Z" id="路径" fill="#F99A1A"></path>
                <path d="M692.074365,309.995534 C681.831356,296.338189 624.92575,304.304974 598.749172,306.581198 C590.782387,307.71931 589.644275,300.890637 596.472948,296.338189 C641.997432,264.47105 717.112831,273.575947 725.079616,283.818956 C734.184513,294.061965 722.803391,369.177364 679.555131,405.596951 C672.726459,411.287512 667.035898,407.873175 669.312122,401.044503 C680.693244,376.006036 702.317374,322.514767 692.074365,309.995534 L692.074365,309.995534 Z" id="路径" fill="#F99A1A"></path>
            </g>
        </g>
    </g>
</svg>