<svg xmlns="http://www.w3.org/2000/svg" width="1024" height="1024"><g fill="none" fill-rule="evenodd"><path fill="#FFF" d="M0 0h1024v1024H0z"/><g transform="translate(142.471 142)"><path fill="#FFF" stroke="#047BBD" stroke-width="5" d="M587.44 73.803c3.685 2.69 5.767 5.87 6.869 8.969 1.8 5.06 1.038 9.872.534 11.9-2.135 8.612-10.56 26.19-25.182 52.764l-.013.022-47.044-34.629c20.774-21.632 34.942-34.82 42.555-39.49l.229-.14c1.598-.961 6.058-3.265 11.57-3.103 3.254.095 6.874 1.072 10.482 3.707Z"/><g fill="#FFF" stroke="#047BBD" stroke-width="5"><path d="M371.036 2.5c4.552 0 8.092 1.342 10.793 3.195 4.413 3.029 6.61 7.37 7.388 9.307 3.311 8.233 6.781 27.444 10.495 57.605l-58.308-.229c4.195-30.072 7.978-49.193 11.433-57.332.732-1.723 2.994-6.225 7.551-9.353 2.689-1.845 6.189-3.193 10.648-3.193ZM482.788 20.449c4.33 1.414 7.286 3.79 9.285 6.393 3.268 4.253 4.022 9.065 4.167 11.15.618 8.858-1.99 28.204-7.73 58.037l-55.387-18.325c13.238-27.298 22.715-44.31 28.505-50.978 1.225-1.411 4.76-4.989 10.053-6.547 3.124-.92 6.866-1.115 11.107.27ZM255.236 21.143c4.328-1.413 8.107-1.237 11.245-.313 5.126 1.51 8.548 4.954 9.884 6.554 5.68 6.802 14.889 23.996 27.696 51.53l-55.526 17.89c-5.257-29.899-7.539-49.256-6.755-58.07.165-1.866.933-6.853 4.307-11.244 1.99-2.591 4.906-4.961 9.149-6.347ZM155.442 73.212c3.682-2.688 7.331-3.695 10.6-3.79 5.337-.157 9.65 2.055 11.411 3.161 5.62 3.53 14.926 12.001 27.937 25.385l1.049 1.082a959.28 959.28 0 0 1 13.199 13.94l-47.312 34.259c-14.19-26.798-22.312-44.496-24.276-53.12-.417-1.828-1.22-6.81.639-12.035 1.097-3.084 3.141-6.245 6.753-8.882ZM75.613 151.2c2.677-3.701 5.839-5.793 8.92-6.9 5.027-1.805 9.808-1.041 11.823-.536 8.574 2.147 26.077 10.618 52.539 25.325l-34.465 47.28c-21.733-21.077-34.898-35.385-39.418-42.976-.958-1.609-3.253-6.097-3.092-11.643.095-3.275 1.068-6.918 3.693-10.55ZM24.718 246.75c1.484-4.329 3.9-7.26 6.526-9.225 4.283-3.204 9.078-3.878 11.153-3.987 8.823-.466 28.023 2.491 57.602 8.78l-19.205 55.345c-26.914-13.77-43.665-23.584-50.197-29.515-1.383-1.257-4.882-4.874-6.342-10.223-.862-3.16-.991-6.93.463-11.175ZM4.774 349.153c.318-4.57 1.898-8.03 3.93-10.612 3.312-4.21 7.772-6.11 9.748-6.755 8.402-2.744 27.707-4.881 57.894-6.5l-4.297 58.456c-29.544-6.3-48.253-11.423-56.09-15.454-1.659-.853-5.969-3.436-8.755-8.221-1.646-2.829-2.742-6.437-2.43-10.914ZM19.57 471.644c-1.103-4.445-.664-8.228.475-11.315 1.856-5.036 5.515-8.228 7.198-9.457 7.146-5.218 24.848-13.246 53.056-24.158l13.89 56.928c-30.04 3.183-49.411 4.12-58.104 2.721-1.84-.296-6.73-1.413-10.85-5.098-2.435-2.177-4.585-5.268-5.665-9.621ZM61.692 568.227c-2.415-3.884-3.16-7.618-3.027-10.907.218-5.368 2.717-9.542 3.94-11.234 5.192-7.182 19.559-20.314 43.032-39.453l30.713 49.825c-27.596 12.358-45.734 19.267-54.433 20.635-1.84.29-6.833.746-11.883-1.478-2.984-1.315-5.977-3.585-8.342-7.388ZM135.279 651.573c-3.44-3.004-5.237-6.354-6.066-9.537-1.354-5.199-.178-9.926.5-11.903 2.875-8.395 12.794-25.176 29.675-50.377l43.864 38.62c-22.799 19.929-38.136 31.866-46.057 35.73-1.676.818-6.319 2.722-11.794 2.079-3.235-.38-6.756-1.671-10.122-4.612ZM233.573 712.257c-4.252-1.64-7.08-4.169-8.941-6.873-3.042-4.42-3.545-9.265-3.581-11.355-.155-8.878 3.456-28.06 10.743-57.55l54.356 21.214c-14.641 26.565-24.992 43.055-31.12 49.41-1.297 1.344-5.013 4.73-10.38 6.008-3.167.754-6.914.752-11.077-.854ZM346.212 735.794c-4.545-.24-8.011-1.766-10.612-3.759-4.25-3.257-6.217-7.707-6.894-9.683-2.878-8.396-5.343-27.763-7.48-58.077l58.216 3.295c-5.756 29.81-10.529 48.706-14.404 56.653-.82 1.682-3.314 6.059-8.027 8.942-2.78 1.701-6.346 2.863-10.8 2.629ZM459.894 727.044c-4.434 1.028-8.184.522-11.23-.673-4.976-1.953-8.086-5.684-9.279-7.395-5.069-7.274-12.75-25.21-23.121-53.76l56.865-12.958c2.644 30.246 3.239 49.73 1.694 58.442-.328 1.845-1.525 6.745-5.266 10.824-2.208 2.406-5.317 4.511-9.663 5.52ZM567.63 679.225c-3.682 2.688-7.33 3.695-10.6 3.79-5.337.157-9.649-2.055-11.41-3.161-7.495-4.705-21.54-18.198-42.185-40.406l47.311-34.26c14.19 26.798 22.312 44.496 24.277 53.12.416 1.828 1.219 6.81-.64 12.035-1.097 3.084-3.141 6.245-6.753 8.882ZM670.047 160.053c2.68 3.705 3.682 7.378 3.777 10.668.156 5.37-2.048 9.71-3.15 11.483-4.681 7.53-18.102 21.636-40.19 42.374l-34.096-47.55c26.672-14.262 44.287-22.426 52.87-24.4 1.815-.418 6.765-1.224 11.956.641 3.067 1.102 6.21 3.156 8.833 6.784ZM654.09 601.723c-2.74 3.654-5.938 5.69-9.038 6.743-5.057 1.717-9.824.869-11.83.329-8.535-2.298-25.89-11.074-52.091-26.243l35.28-46.668c21.364 21.454 34.278 35.991 38.666 43.66.93 1.626 3.146 6.154 2.889 11.697-.152 3.272-1.188 6.898-3.876 10.482ZM711.69 501.368c-1.707 4.245-4.272 7.044-6.997 8.868-4.444 2.974-9.267 3.395-11.344 3.395-8.835.001-27.856-3.962-57.067-11.798l22.06-54.258c26.16 15.166 42.377 25.848 48.59 32.115 1.317 1.327 4.624 5.124 5.802 10.543.697 3.201.63 6.973-1.044 11.135ZM736.38 387.994c-.159 4.577-1.618 8.091-3.559 10.743-3.164 4.324-7.555 6.379-9.509 7.093-8.3 3.037-27.52 5.85-57.631 8.527l2.263-58.571c29.746 5.26 48.622 9.724 56.593 13.477 1.688.795 6.085 3.225 9.035 7.909 1.744 2.769 2.964 6.336 2.808 10.822ZM720.04 265.953c1.333 4.38 1.09 8.182.115 11.324-1.592 5.127-5.08 8.508-6.696 9.824-6.865 5.587-24.124 14.534-51.726 26.915l-16.835-56.119c.895-.143 1.78-.283 2.656-.42l1.74-.273c27.341-4.254 45.172-5.974 53.488-5.08 1.852.199 6.794 1.057 11.1 4.52 2.545 2.046 4.852 5.019 6.158 9.31Z"/></g><ellipse cx="370.536" cy="370.817" fill="#FFF" stroke="#047BBD" stroke-width="5" rx="298.506" ry="299.982"/><g font-family="Arial-Black, Arial Black" font-size="124" font-weight="700" letter-spacing="10.333"><text fill="#88D201" transform="translate(85.033 282.305)">
                        <tspan x=".667" y="136.428">BT</tspan>
                    </text><text fill="#FE0000" transform="translate(85.033 282.305)">
                        <tspan x="226.155" y="136.428">Digg</tspan>
                    </text></g></g></g></svg>