<?xml version="1.0" encoding="UTF-8"?>
<svg width="1024px" height="1024px" viewBox="0 0 1024 1024" version="1.1" xmlns="http://www.w3.org/2000/svg" xmlns:xlink="http://www.w3.org/1999/xlink">
    <title>Bt.digg</title>
    <g id="ICON-新版方图标" stroke="none" stroke-width="1" fill="none" fill-rule="evenodd">
        <g id="Bt.digg">
            <rect id="蒙版路径" fill="#FFFFFF" x="0" y="0" width="1024" height="1024"></rect>
            <g id="编组" transform="translate(112.471, 112)">
                <path d="M612.85986,72.1451446 C617.84168,72.1567677 621.71973,73.6312078 624.680661,75.6600434 C629.513614,78.9715927 631.92694,83.7066402 632.783771,85.8199006 C636.400506,94.7401032 640.221778,115.568636 644.332549,148.276666 L580.720967,147.879718 C585.2048,115.275907 589.269596,94.5566707 593.002983,85.7532388 C593.797159,83.880548 596.256154,78.9894722 601.22211,75.5991111 C604.157974,73.594736 607.981931,72.1338128 612.85986,72.1451446 Z" id="矩形" stroke="#047BBD" stroke-width="5" fill="#FFFFFF" transform="translate(612.5124, 110.2198) rotate(36) translate(-612.5124, -110.2198)"></path>
                <g id="编组-19" transform="translate(0, 0)" fill="#FFFFFF" stroke="#047BBD" stroke-width="5">
                    <path d="M401.110256,2.5 C406.079016,2.5 409.943676,3.96612161 412.892242,5.98965123 C417.706541,9.2935887 420.102869,14.0285037 420.952829,16.1420488 C424.543446,25.0706222 428.310627,45.9313286 432.339416,78.6955665 L368.843268,78.4463183 C373.395301,45.777177 377.501807,25.013508 381.249415,16.1862503 C382.047233,14.3070403 384.515222,9.3979155 389.484652,5.9875155 C392.420059,3.97301601 396.240632,2.5 401.110256,2.5 Z" id="矩形"></path>
                    <path d="M510.226604,19.9183977 C515.199756,19.9255716 519.069816,21.3974985 522.023834,23.4251415 C526.847077,26.7358237 529.252498,31.4738117 530.106243,33.5884764 C533.711052,42.5173334 537.50968,63.3711057 541.586972,96.121131 L478.058667,95.7804723 C482.566101,63.1311893 486.644664,42.3820653 490.381448,33.5641303 C491.17658,31.687806 493.637557,26.7867682 498.602157,23.3866653 C501.535658,21.3776001 505.355463,19.9113896 510.226604,19.9183977 Z" id="矩形" transform="translate(509.8057, 58.0274) rotate(18) translate(-509.8057, -58.0274)"></path>
                    <path d="M287.654456,21.0056938 C292.624786,20.9985435 296.488705,22.4577948 299.435364,24.4758719 C304.244889,27.7697692 306.634412,32.4967671 307.481334,34.6070944 C311.060916,43.5265536 314.799858,64.3732364 318.783653,97.1184689 L255.256275,96.9608479 C259.856853,64.3050448 263.994801,43.5477292 267.756524,34.71989 C268.557734,32.8396467 271.035087,27.9274018 276.013693,24.510078 C278.954548,22.4914702 282.780514,21.012725 287.654456,21.0056938 Z" id="矩形" transform="translate(286.9938, 59.0656) rotate(-18) translate(-286.9938, -59.0656)"></path>
                    <path d="M190.395373,72.1582692 C195.372641,72.1467076 199.240761,73.6006434 202.189789,75.6140061 C207.000529,78.8983986 209.388132,83.6156616 210.233923,85.721905 C213.809842,94.6269004 217.534548,115.443958 221.494053,148.144224 L157.883973,148.043461 C162.518499,115.429091 166.679376,94.696596 170.45311,85.8771376 C171.257124,83.9981067 173.742614,79.0888959 178.731249,75.6706725 C181.679007,73.6508619 185.512927,72.1696614 190.395373,72.1582692 Z" id="矩形" transform="translate(189.66, 110.1535) rotate(-36) translate(-189.66, -110.1535)"></path>
                    <path d="M112.570472,148.295733 C117.557394,148.284166 121.433047,149.736359 124.38781,151.747532 C129.205297,155.026577 131.5966,159.736012 132.443596,161.838868 C136.024626,170.729576 139.754533,191.512726 143.719737,224.159245 L80.0070499,224.058848 L80.2849362,222.119442 C84.814471,190.674988 88.8900839,170.623383 92.5935585,161.994172 C93.3987148,160.118133 95.8880087,155.216946 100.883695,151.804199 C103.837175,149.786563 107.678566,148.30713 112.570472,148.295733 Z" id="矩形" transform="translate(111.8343, 186.2297) rotate(-54) translate(-111.8343, -186.2297)"></path>
                    <path d="M62.816745,241.754595 C67.8119425,241.747098 71.6951798,243.201542 74.6564821,245.213732 C79.4831252,248.493412 81.8818317,253.199923 82.7317084,255.301394 C86.3238935,264.183711 90.0748603,284.94261 94.0711517,317.54885 L30.2786544,317.396501 C34.8979619,284.879313 39.0519512,264.209161 42.8280176,255.417629 C43.6323238,253.545024 46.1198941,248.653248 51.1170446,245.249666 C54.0728597,243.236447 57.9182848,241.761968 62.816745,241.754595 Z" id="矩形" transform="translate(62.1483, 279.6551) rotate(-71) translate(-62.1483, -279.6551)"></path>
                    <path d="M43.2984401,342.752259 C48.297925,342.750562 52.1861084,344.209561 55.1522642,346.224899 C59.9866941,349.509626 62.3930552,354.218035 63.2460931,356.320157 C66.8501721,365.201609 70.6270282,385.952291 74.6630689,418.542895 L10.8366008,418.316453 C12.0283539,409.867242 13.1895595,402.218496 14.321761,395.370772 L14.5825241,393.804748 C17.7055197,375.183093 20.6070033,362.704513 23.3197494,356.380834 C24.1219637,354.510793 26.6041415,349.626183 31.59791,346.231377 C34.5526192,344.222741 38.397996,342.753924 43.2984401,342.752259 Z" id="矩形" transform="translate(42.7269, 380.6526) rotate(-86) translate(-42.7269, -380.6526)"></path>
                    <path d="M58.3245712,463.240881 C63.3238269,463.246615 67.213877,464.712479 70.1828435,466.73315 C75.0232192,470.027497 77.4371686,474.742955 78.2935315,476.847909 C81.9097811,485.736709 85.7166276,506.496953 89.8000678,539.099379 L25.9909441,538.778083 C30.5252909,506.27518 34.6253477,485.61779 38.3792185,476.837575 C39.1780857,474.969043 41.6511246,470.088846 46.6363997,466.702001 C49.5863136,464.697918 53.4272106,463.235275 58.3245712,463.240881 Z" id="矩形" transform="translate(57.8773, 501.1773) rotate(-104) translate(-57.8773, -501.1773)"></path>
                    <path d="M99.2946541,556.561402 C104.288,556.57239 108.174878,558.04415 111.14241,560.069903 C115.982937,563.374236 118.40003,568.099332 119.258018,570.208303 C122.879806,579.110812 126.704706,599.898032 130.818188,632.540867 L67.0825587,632.152464 C71.5782852,599.613315 75.6525785,578.934602 79.393514,570.147833 C80.1893401,568.278583 82.6536623,563.396714 87.6287469,560.012209 C90.5718623,558.010034 94.4051374,556.550686 99.2946541,556.561402 Z" id="矩形" transform="translate(98.9355, 594.5598) rotate(-122) translate(-98.9355, -594.5598)"></path>
                    <path d="M171.675649,637.978071 C176.66021,637.990176 180.540534,639.46456 183.503285,641.493113 C188.338556,644.803753 190.753429,649.537016 191.610819,651.649489 C195.229799,660.566079 199.054488,681.385531 203.169937,714.078954 L139.530129,713.675992 C144.012616,681.08716 148.07699,660.377489 151.811008,651.578274 C152.605296,649.706537 155.064789,644.818041 160.03221,641.429758 C162.969403,639.426295 166.79521,637.966272 171.675649,637.978071 Z" id="矩形" transform="translate(171.3359, 676.0375) rotate(-139) translate(-171.3359, -676.0375)"></path>
                    <path d="M266.869437,696.641763 C271.843812,696.649932 275.7151,698.122552 278.670238,700.150625 C283.495151,703.4619 285.902066,708.199814 286.756412,710.314417 C290.363511,719.242401 294.166823,740.09305 298.251189,772.837679 L234.711887,772.484391 C239.213558,739.841284 243.288615,719.096331 247.024241,710.280589 C247.819074,708.404855 250.279324,703.50545 255.243703,700.10712 C258.177306,698.098944 261.997482,696.633787 266.869437,696.641763 Z" id="矩形" transform="translate(266.465, 734.7476) rotate(-159) translate(-266.465, -734.7476)"></path>
                    <path d="M377.295219,719.499901 C382.264315,719.501175 386.129588,720.968409 389.078859,722.99277 C393.894437,726.298152 396.292212,731.033975 397.14279,733.147876 C400.735695,742.077158 404.508229,762.938194 408.545383,795.702382 L345.048243,795.436862 C349.59205,762.768776 353.693325,742.006135 357.438763,733.179884 C358.23605,731.301049 360.702618,726.392992 365.670865,722.984171 C368.605669,720.970539 372.42576,719.498653 377.295219,719.499901 Z" id="矩形" transform="translate(376.776, 757.6071) rotate(-177) translate(-376.776, -757.6071)"></path>
                    <path d="M489.894387,710.854734 C494.863673,710.849399 498.727278,712.310512 501.674038,714.330119 C506.484327,717.626925 508.875333,722.356458 509.722947,724.46783 C513.304993,733.390559 517.050767,754.243069 521.04562,786.996718 L457.533023,786.815781 C462.120835,754.153005 466.250414,733.391819 470.008193,724.563184 C470.808465,722.683003 473.283184,717.771016 478.258987,714.355088 C481.198075,712.337381 485.022172,710.859975 489.894387,710.854734 Z" id="矩形" transform="translate(489.2643, 748.9298) rotate(-193) translate(-489.2643, -748.9298)"></path>
                    <path d="M592.755508,665.276011 C597.732776,665.264449 601.600896,666.718385 604.549924,668.731748 C609.360664,672.01614 611.748267,676.733403 612.594058,678.839647 C616.169977,687.744642 619.894683,708.5617 623.854188,741.261966 L560.244108,741.161202 C564.878634,708.546832 569.039511,687.814338 572.813245,678.994879 C573.617259,677.115848 576.102749,672.206638 581.091384,668.788414 C584.039143,666.768604 587.873062,665.287403 592.755508,665.276011 Z" id="矩形" transform="translate(592.0201, 703.2712) rotate(-216) translate(-592.0201, -703.2712)"></path>
                    <path d="M693.911497,156.955496 C698.902951,156.967124 702.788528,158.439815 705.755188,160.466455 C710.594908,163.772655 713.011934,168.499877 713.869973,170.609749 C717.491813,179.515665 721.318279,200.310297 725.434727,232.964591 L661.720536,232.567978 C666.21078,200.01788 670.281247,179.332455 674.019959,170.543166 C674.815276,168.673465 677.278074,163.790415 682.251063,160.405528 C685.192653,158.403321 689.02409,156.94416 693.911497,156.955496 Z" id="矩形" transform="translate(693.5632, 194.9689) rotate(-306) translate(-693.5632, -194.9689)"></path>
                    <path d="M678.153443,589.25914 C683.139818,589.24745 687.015012,590.699627 689.969401,592.710836 C694.786405,595.990024 697.17737,600.699786 698.024241,602.802788 C701.604776,611.694186 705.333885,632.479106 709.297969,665.128486 L645.590832,665.029658 C650.23221,632.466031 654.398958,611.765445 658.177943,602.959278 C658.98309,601.083044 661.472321,596.181326 666.467748,592.768134 C669.420982,590.750297 673.262024,589.270659 678.153443,589.25914 Z" id="矩形" transform="translate(677.4152, 627.196) rotate(-233) translate(-677.4152, -627.196)"></path>
                    <path d="M735.359884,489.343796 C740.353822,489.335339 744.235812,490.789128 747.195983,492.800922 C752.020952,496.080071 754.418179,500.786711 755.267463,502.888267 C758.857386,511.771539 762.603764,532.533728 766.593141,565.145616 L702.812111,565.00553 C707.436964,532.481936 711.594314,511.807477 715.371464,503.013709 C716.176052,501.140508 718.6643,496.247089 723.66161,492.84174 C726.617283,490.827636 730.462292,489.352117 735.359884,489.343796 Z" id="矩形" transform="translate(734.6754, 527.2478) rotate(-248) translate(-734.6754, -527.2478)"></path>
                    <path d="M758.966267,379.66683 C763.96603,379.665979 767.854664,381.125705 770.821321,383.141581 C775.656643,386.427235 778.063987,391.136201 778.917442,393.238539 C782.523071,402.120378 786.303512,422.871079 790.345138,455.461333 L726.517404,455.224084 C731.095647,422.728139 735.223988,402.073256 738.990282,393.29112 C739.792151,391.421345 742.273406,386.537492 747.266429,383.143768 C750.220772,381.135721 754.065874,379.667664 758.966267,379.66683 Z" id="矩形" transform="translate(758.4089, 417.5693) rotate(-268) translate(-758.4089, -417.5693)"></path>
                    <path d="M742.611531,260.189021 C747.61016,260.195853 751.500021,261.662838 754.469049,263.684432 C759.309884,266.980528 761.724724,271.697507 762.581503,273.803086 C766.199232,282.69385 770.010179,303.457592 774.100256,336.065073 L710.300015,335.729773 C714.826696,303.222684 718.921727,282.562972 722.67323,273.78228 C723.471534,271.913787 725.942991,267.033746 730.92658,263.647736 C733.875435,261.644189 737.715211,260.182346 742.611531,260.189021 Z" id="矩形" transform="translate(742.1826, 298.1345) rotate(-287) translate(-742.1826, -298.1345)"></path>
                </g>
                <ellipse id="椭圆形" stroke="#047BBD" stroke-width="5" fill="#FFFFFF" cx="400.569719" cy="400.873079" rx="322.903638" ry="324.499449"></ellipse>
                <g id="编组-20" transform="translate(105.7728, 338.3391)" fill-rule="nonzero">
                    <g id="Digg" transform="translate(244.0919, 0)" fill="#FE0000">
                        <path d="M0,0 L44.0508211,0 C52.7344401,0 59.7489715,1.17817946 65.0944154,3.53453839 C70.4398592,5.89089732 74.8580322,9.27270874 78.3489343,13.6799727 C81.8398364,18.0872366 84.3707405,23.2144991 85.9416464,29.0617601 C87.5125524,34.9090211 88.2980054,41.1053724 88.2980054,47.6508139 C88.2980054,57.9053388 87.130735,65.8580502 84.7961942,71.508948 C82.4616534,77.1598458 79.2216599,81.8943818 75.0762136,85.712556 C70.9307673,89.5307302 66.4798671,92.0725433 61.723513,93.3379953 C55.2217078,95.0834463 49.3308105,95.9561719 44.0508211,95.9561719 L0,95.9561719 L0,0 Z M29.6508498,21.7308657 L29.6508498,74.1598518 L36.9162899,74.1598518 C43.1126411,74.1598518 47.519905,73.4725804 50.1380816,72.0980377 C52.7562582,70.723495 54.8071632,68.3234998 56.2907966,64.8980521 C57.77443,61.4726044 58.5162467,55.9198882 58.5162467,48.2399036 C58.5162467,38.0726512 56.8580682,31.1126651 53.5417112,27.3599453 C50.2253542,23.6072255 44.7271833,21.7308657 37.0471987,21.7308657 L29.6508498,21.7308657 Z" id="形状"></path>
                        <path d="M114.26159,0 L140.901537,0 L140.901537,18.1308729 L114.26159,18.1308729 L114.26159,0 Z M114.26159,26.4435835 L140.901537,26.4435835 L140.901537,95.9561719 L114.26159,95.9561719 L114.26159,26.4435835 Z" id="形状"></path>
                        <path d="M217.461384,26.4435835 L242.399516,26.4435835 L242.399516,92.0943614 L242.46497,95.1707189 C242.46497,99.5343465 241.537699,103.690702 239.683157,107.639785 C237.828616,111.588868 235.363166,114.785225 232.286809,117.228857 C229.210451,119.672488 225.305004,121.439757 220.570468,122.530664 C215.835932,123.621571 210.414125,124.167025 204.305046,124.167025 C190.341438,124.167025 180.752366,122.072483 175.537831,117.883401 C170.323296,113.694318 167.716028,108.087057 167.716028,101.061616 C167.716028,100.188891 167.759665,99.0107112 167.846937,97.5270778 L193.701431,100.472526 C194.355975,102.872522 195.35961,104.5307 196.712334,105.447062 C198.675967,106.799787 201.141416,107.476149 204.108683,107.476149 C207.948675,107.476149 210.817761,106.450696 212.715939,104.399791 C214.614117,102.348886 215.563206,98.7707117 215.563206,93.6652674 L215.563206,83.1271066 C212.945029,86.2252822 210.326852,88.4725505 207.708676,89.8689113 C203.606866,92.0507251 199.177784,93.141632 194.42143,93.141632 C185.126903,93.141632 177.621463,89.0834583 171.905111,80.9671109 C167.846937,75.2071224 165.81785,67.5925922 165.81785,58.1235202 C165.81785,47.3017237 168.436027,39.0544674 173.67238,33.3817515 C178.908733,27.7090355 185.759629,24.8726776 194.225066,24.8726776 C199.635965,24.8726776 204.097774,25.7890394 207.610494,27.621763 C211.123214,29.4544866 214.406844,32.4872078 217.461384,36.7199266 L217.461384,26.4435835 Z M192.392343,60.1526071 C192.392343,65.1707789 193.461432,68.8907714 195.599609,71.3125848 C197.737787,73.7343981 200.552326,74.9453048 204.043229,74.9453048 C207.359586,74.9453048 210.141398,73.6907618 212.388666,71.1816759 C214.635935,68.67259 215.759569,64.8871431 215.759569,59.825335 C215.759569,54.7635269 214.581389,50.8908074 212.22503,48.2071764 C209.868671,45.5235454 206.988677,44.1817299 203.585048,44.1817299 C200.181418,44.1817299 197.46506,45.4144547 195.435973,47.8799043 C193.406886,50.3453539 192.392343,54.4362548 192.392343,60.1526071 Z" id="形状"></path>
                        <path d="M319.352089,26.4435835 L344.290221,26.4435835 L344.290221,92.0943614 L344.355675,95.1707189 C344.355675,99.5343465 343.428405,103.690702 341.573863,107.639785 C339.719321,111.588868 337.253871,114.785225 334.177514,117.228857 C331.101156,119.672488 327.19571,121.439757 322.461174,122.530664 C317.726638,123.621571 312.30483,124.167025 306.195752,124.167025 C292.232143,124.167025 282.643072,122.072483 277.428536,117.883401 C272.214001,113.694318 269.606734,108.087057 269.606734,101.061616 C269.606734,100.188891 269.65037,99.0107112 269.737643,97.5270778 L295.592137,100.472526 C296.246681,102.872522 297.250315,104.5307 298.60304,105.447062 C300.566672,106.799787 303.032122,107.476149 305.999388,107.476149 C309.839381,107.476149 312.708466,106.450696 314.606644,104.399791 C316.504822,102.348886 317.453911,98.7707117 317.453911,93.6652674 L317.453911,83.1271066 C314.835734,86.2252822 312.217558,88.4725505 309.599381,89.8689113 C305.497571,92.0507251 301.068489,93.141632 296.312135,93.141632 C287.017608,93.141632 279.512169,89.0834583 273.795816,80.9671109 C269.737643,75.2071224 267.708556,67.5925922 267.708556,58.1235202 C267.708556,47.3017237 270.326732,39.0544674 275.563086,33.3817515 C280.799439,27.7090355 287.650334,24.8726776 296.115772,24.8726776 C301.52667,24.8726776 305.988479,25.7890394 309.5012,27.621763 C313.01392,29.4544866 316.29755,32.4872078 319.352089,36.7199266 L319.352089,26.4435835 Z M294.283048,60.1526071 C294.283048,65.1707789 295.352137,68.8907714 297.490315,71.3125848 C299.628492,73.7343981 302.443032,74.9453048 305.933934,74.9453048 C309.250291,74.9453048 312.032104,73.6907618 314.279372,71.1816759 C316.52664,68.67259 317.650274,64.8871431 317.650274,59.825335 C317.650274,54.7635269 316.472095,50.8908074 314.115736,48.2071764 C311.759377,45.5235454 308.879383,44.1817299 305.475753,44.1817299 C302.072124,44.1817299 299.355765,45.4144547 297.326679,47.8799043 C295.297592,50.3453539 294.283048,54.4362548 294.283048,60.1526071 Z" id="形状"></path>
                    </g>
                    <g id="BT" fill="#88D201">
                        <path d="M0,0 L55.5053436,0 C64.7562342,0 71.8580382,2.29090451 76.8107556,6.87271354 C81.763473,11.4545226 84.2398317,17.1272385 84.2398317,23.8908613 C84.2398317,29.5635773 82.4725625,34.4290221 78.9380241,38.4871958 C76.5816651,41.192645 73.1343993,43.3308225 68.5962266,44.9017284 C75.4907582,46.559907 80.5634754,49.407174 83.814378,53.4435296 C87.0652806,57.4798851 88.6907318,62.5526023 88.6907318,68.661681 C88.6907318,73.6362165 87.5343705,78.1089348 85.2216479,82.079836 C82.9089252,86.0507371 79.7452952,89.192549 75.7307577,91.5052717 C73.24349,92.9452688 69.4907702,93.9925394 64.4725984,94.6470836 C57.7962481,95.5198091 53.3671661,95.9561719 51.1853523,95.9561719 L0,95.9561719 L0,0 Z M29.9126675,37.6362884 L42.8071872,37.6362884 C47.4326325,37.6362884 50.6508079,36.8399264 52.4617133,35.2472023 C54.2726188,33.6544782 55.1780715,31.3526646 55.1780715,28.3417615 C55.1780715,25.5490399 54.2726188,23.367226 52.4617133,21.7963201 C50.6508079,20.2254141 47.4980869,19.4399612 43.0035504,19.4399612 L29.9126675,19.4399612 L29.9126675,37.6362884 Z M29.9126675,75.3380313 L45.0326373,75.3380313 C50.1380816,75.3380313 53.7380744,74.4325785 55.8326157,72.6216731 C57.927157,70.8107676 58.9744276,68.3780452 58.9744276,65.3235058 C58.9744276,62.4871479 57.938066,60.2071524 55.8653429,58.4835195 C53.7926198,56.7598866 50.1598998,55.8980701 44.9671829,55.8980701 L29.9126675,55.8980701 L29.9126675,75.3380313 Z" id="形状"></path>
                        <polygon id="路径" points="108.63251 0 198.763239 0 198.763239 23.6944981 168.5233 23.6944981 168.5233 95.9561719 138.87245 95.9561719 138.87245 23.6944981 108.63251 23.6944981"></polygon>
                    </g>
                </g>
            </g>
        </g>
    </g>
</svg>