<?xml version="1.0" encoding="UTF-8"?>
<svg width="1025px" height="1024px" viewBox="0 0 1025 1024" version="1.1" xmlns="http://www.w3.org/2000/svg" xmlns:xlink="http://www.w3.org/1999/xlink">
    <title>Casa.OS</title>
    <g id="ICON-新版方图标" stroke="none" stroke-width="1" fill="none" fill-rule="evenodd">
        <g id="Casa.OS" transform="translate(0.6332, 0)">
            <rect id="蒙版路径" fill="#FFFFFF" x="0" y="0" width="1024" height="1024"></rect>
            <g id="编组" transform="translate(111.7491, 238.9625)" fill-rule="nonzero" opacity="0.95">
                <path d="M200,546.155472 C310.457358,546.155472 400,456.61283 400,346.155472 C400,235.698113 310.457358,146.155472 200,146.155472 C89.5426416,146.155472 0,235.698113 0,346.155472 C0,456.61283 89.5426416,546.155472 200,546.155472 L200,546.155472 Z" id="路径" fill="#4CE7FF"></path>
                <path d="M400,547.01283 C551.052075,547.01283 673.506415,424.561509 673.506415,273.506415 C673.506415,122.454339 551.052075,0 400,0 C248.944906,0 126.490566,122.45434 126.490566,273.506415 C126.490566,424.561509 248.944906,547.01283 400,547.01283 Z" id="路径" fill="#0067C2"></path>
                <path d="M600,546.155472 C710.457358,546.155472 800,456.61283 800,346.155472 C800,235.698113 710.457358,146.155472 600,146.155472 C489.542642,146.155472 400,235.698113 400,346.155472 C400,456.61283 489.542642,546.155472 600,546.155472 Z" id="路径" fill="#4CE7FF"></path>
            </g>
        </g>
    </g>
</svg>