<svg xmlns="http://www.w3.org/2000/svg" width="1025" height="1024"><g fill="none" fill-rule="evenodd"><path fill="#FFF" d="M.633 0h1024v1024H.633z"/><g fill-rule="nonzero"><path fill="#9BD219" d="M462.724 209.49v201.673L328.833 277.272l67.782-67.782h66.109M276.532 328.318l133.054 133.473H210.423v-67.364l66.109-66.109"/><path fill="#9BD219" d="M462.724 427.9v33.89h-36.402l-149.79-150.208-66.11 66.108v-168.2H379.88l-67.783 67.782z"/><path fill="#262670" d="m276.532 696.937-66.11-66.109v-68.2h200.42z"/><path fill="#262670" d="M462.724 596.519 312.096 746.728l67.783 67.782H210.423V647.565l66.109 66.109 150.627-151.046h35.565z"/><path fill="#262670" d="m328.833 746.728 133.891-133.473V814.51h-66.109l-67.782-67.782"/><path fill="#EFA822" d="M815.444 562.628v72.803l-61.088 61.506-134.31-134.31h195.398m-118.41 184.1L629.25 814.51h-65.69V613.255l133.473 133.473"/><path fill="#EFA822" d="M815.444 652.167V814.51H645.988l67.782-67.782-150.21-150.21v-33.89h39.75l151.046 151.046 61.088-61.507"/><path fill="#98267D" d="M697.034 277.272 563.56 411.163V209.49h65.69z"/><path fill="#98267D" d="M815.444 209.49v163.598l-61.088-61.506L604.565 461.79h-41.004V427.9L713.77 277.272l-67.782-67.782h169.456"/><path fill="#98267D" d="m754.356 328.318 61.088 61.506v71.967H621.3z"/><path fill="#9BD219" d="m593.268 488.569-20.502 21.339 21.339-21.339h-.837m-3.347 43.933 3.347 3.347-3.347-3.347"/><path fill="#EFA822" d="M592.431 187.732h-55.648v244.352l-23.85 22.175-23.43-22.175V187.732h-56.068L512.933 112z"/><path fill="#98267D" d="M188.665 432.502 112.933 512l75.732 79.498v-55.649h244.352L455.193 512l-22.176-23.431H188.665z"/><path fill="#9BD219" d="M433.435 836.686 512.933 912l79.498-75.314h-55.648V592.335l-23.85-22.594-23.43 22.594v244.351z"/><path fill="#262670" d="M837.62 535.85H593.267l-3.347-3.348L570.674 512l2.092-2.092 20.502-21.339h244.351v-56.067L912.933 512l-75.314 79.498z"/></g></g></svg>