<?xml version="1.0" encoding="UTF-8"?>
<svg width="1025px" height="1024px" viewBox="0 0 1025 1024" version="1.1" xmlns="http://www.w3.org/2000/svg" xmlns:xlink="http://www.w3.org/1999/xlink">
    <title>Chrome</title>
    <g id="ICON-新版方图标" stroke="none" stroke-width="1" fill="none" fill-rule="evenodd">
        <g id="Chrome" transform="translate(0.3975, 0)">
            <rect id="蒙版路径" fill="#FFFFFF" x="0" y="0" width="1024" height="1024"></rect>
            <g id="编组-2" transform="translate(162.367, 162.5075)" fill-rule="nonzero">
                <path d="M84.5232255,121.904042 C247.212618,-67.4141454 548.9084,-30.0521677 661.665157,191.173906 L390.623113,191.173906 C341.798796,191.173906 310.270069,190.065589 276.11638,208.032004 C235.983608,229.177541 205.709031,268.347828 195.121679,314.343018 L84.5232255,121.933208 L84.5232255,121.904042 Z" id="路径" fill="#EA4335"></path>
                <path d="M233.562809,349.984186 C233.562809,414.149956 285.741246,466.357559 349.877849,466.357559 C414.043619,466.357559 466.19289,414.149956 466.19289,349.984186 C466.19289,285.818416 414.014452,233.610813 349.877849,233.610813 C285.712079,233.610813 233.562809,285.818416 233.562809,349.984186 Z" id="路径" fill="#4285F4"></path>
                <path d="M395.027218,502.319557 C329.723964,521.715119 253.337532,500.190419 211.483951,427.945596 C179.517731,372.821367 95.1105775,225.76509 56.7569467,158.916024 C-77.6120079,364.829813 38.2072061,645.496722 282.12463,693.387719 L394.998052,502.319557 L395.027218,502.319557 Z" id="路径" fill="#34A853"></path>
                <path d="M457.909672,233.610813 C512.052842,284.155417 524.234281,365.340842 487.309261,429.549741 C459.572149,477.382405 370.994221,626.888649 328.061488,699.279303 C579.387141,714.766587 762.638745,468.45753 679.864903,233.581647 L457.909672,233.581647 L457.909672,233.610813 Z" id="路径" fill="#FBBC05"></path>
            </g>
        </g>
    </g>
</svg>