<svg xmlns="http://www.w3.org/2000/svg" width="1025" height="1024"><g fill="none" fill-rule="evenodd"><path fill="#FFF" d="M.398 0h1024v1024H.398z"/><g fill-rule="nonzero"><path fill="#EA4335" d="M247.288 284.412c162.69-189.319 464.385-151.957 577.142 69.27H553.388c-48.825 0-80.353-1.109-114.507 16.858-40.133 21.145-70.407 60.315-80.995 106.31L247.288 284.44v-.028"/><path fill="#4285F4" d="M396.327 512.492c0 64.165 52.179 116.373 116.315 116.373 64.166 0 116.315-52.208 116.315-116.373 0-64.166-52.178-116.374-116.315-116.374-64.165 0-116.315 52.208-116.315 116.374"/><path fill="#34A853" d="M557.792 664.827c-65.304 19.396-141.69-2.13-183.544-74.374-31.966-55.124-116.373-202.18-154.727-269.03-134.369 205.914-18.55 486.581 225.368 534.472l112.874-191.068h.029"/><path fill="#FBBC05" d="M620.674 396.118c54.143 50.545 66.325 131.73 29.4 195.94-27.737 47.832-116.315 197.338-159.248 269.729 251.326 15.487 434.577-230.822 351.803-465.698H620.674v.03"/></g></g></svg>