<?xml version="1.0" encoding="UTF-8"?>
<svg width="1025px" height="1024px" viewBox="0 0 1025 1024" version="1.1" xmlns="http://www.w3.org/2000/svg" xmlns:xlink="http://www.w3.org/1999/xlink">
    <title>Cloudflare</title>
    <g id="ICON-新版方图标" stroke="none" stroke-width="1" fill="none" fill-rule="evenodd">
        <g id="Cloudflare" transform="translate(0.6332, 0)">
            <rect id="蒙版路径" fill="#FFFFFF" x="0" y="0" width="1024" height="1024"></rect>
            <g id="编组" transform="translate(112, 331)" fill-rule="nonzero">
                <path d="M546.188267,356.893949 L550.273407,342.729584 C555.122125,325.892697 553.327718,310.353893 545.157437,298.900229 C537.521661,288.362858 525.075346,282.177879 509.841972,281.45248 L221.476886,277.787308 C219.640468,277.76098 217.933126,276.837785 216.905595,275.315516 C215.878063,273.793247 215.66037,271.864539 216.322737,270.151532 C217.324442,267.262152 219.953415,265.24911 223.004041,265.035562 L514.156186,261.217674 C548.517179,259.65234 586.085197,231.629041 599.180553,197.420764 L615.750187,154.049555 C616.220619,152.832391 616.453884,151.536475 616.438223,150.231667 C616.417676,149.539331 616.34106,148.849789 616.208334,148.170007 C597.631574,65.2712122 526.187799,4.84266282 441.355876,0.276361828 C356.523953,-4.28993916 279.00633,48.1203718 251.638201,128.546063 C222.6675,107.012447 183.281205,106.037879 153.28096,126.112328 C123.280716,146.186778 109.157617,182.966774 118.012119,217.961002 C83.3083784,218.858028 50.6570855,234.600352 28.3425041,261.193842 C6.02792265,287.787332 -3.80539315,322.676207 1.33745891,357.008485 C1.71775258,359.777846 4.07807283,361.845161 6.87339662,361.85756 L539.430605,361.85756 C542.535858,361.888429 545.289043,359.866317 546.188267,356.893949 Z" id="路径" fill="#F4801F"></path>
                <path d="M642.284509,157.332939 C639.739251,157.332939 637.066729,157.409297 634.266945,157.562012 C633.846566,157.573848 633.432147,157.664503 633.045221,157.829264 C631.628512,158.298707 630.539848,159.44467 630.143626,160.883575 L618.689961,200.055107 C613.803065,216.891993 615.597472,232.430798 623.805931,243.884462 C632.212243,254.869455 645.250794,261.318175 659.083217,261.33221 L720.589394,265.150098 C722.333646,265.203653 723.948886,266.082117 724.941786,267.517189 C725.995255,269.051626 726.237311,271.002315 725.590827,272.747696 C724.589122,275.637075 721.96015,277.650116 718.909523,277.863665 L655.036256,281.681554 C620.331653,283.285067 582.954529,311.270186 569.859173,345.440285 L565.239528,357.504811 C564.847843,358.529211 564.968696,359.679047 565.564808,360.599625 C566.16092,361.520203 567.160669,362.100918 568.25566,362.164356 L788.28055,362.164356 C791.042918,362.228932 793.483472,360.374745 794.160097,357.695705 C807.456081,310.180311 797.766442,259.181 767.970581,219.85286 C738.174719,180.524721 691.701441,157.393503 642.360867,157.332939 L642.284509,157.332939 Z" id="路径" fill="#F9AB41"></path>
            </g>
        </g>
    </g>
</svg>