<?xml version="1.0" encoding="UTF-8"?>
<svg width="1025px" height="1024px" viewBox="0 0 1025 1024" version="1.1" xmlns="http://www.w3.org/2000/svg" xmlns:xlink="http://www.w3.org/1999/xlink">
    <title>Debian</title>
    <g id="ICON-新版方图标" stroke="none" stroke-width="1" fill="none" fill-rule="evenodd">
        <g id="Debian" transform="translate(0.6332, 0)">
            <rect id="蒙版路径" fill="#FFFFFF" x="0" y="0" width="1024" height="1024"></rect>
            <g id="编组" transform="translate(211.6657, 139)" fill="#A80030" fill-rule="nonzero">
                <path d="M358.507729,394.603349 C346.059673,394.603349 360.99734,400.827377 377.179812,403.316988 C381.536631,400.204974 385.582249,396.470558 389.316665,393.047343 C379.204351,395.270812 368.792608,395.796658 358.507729,394.603349 M425.104824,378.109676 C432.262456,367.840031 437.55288,356.636781 439.731289,345.12233 C437.864081,353.524767 433.507262,360.682399 429.461643,367.840031 C406.12154,382.466495 427.283234,359.437594 429.461643,350.412754 C404.565533,381.844093 426.038428,369.084837 425.104824,378.109676 M449.378532,314.313393 C450.934539,291.906894 445.021713,298.753325 443.154505,307.466963 C445.332915,308.711769 447.200123,323.027032 449.378532,314.313393 M311.827522,9.64724301 C318.051549,10.8920488 325.831584,11.8256529 324.89798,13.3816596 C332.055611,11.8256529 333.611619,10.2696455 311.516321,9.64724301 M324.89798,13.3816596 L320.229959,14.3152637 L324.586779,14.0040621 L324.586779,13.3816596 M530.913294,322.715831 C531.535696,342.632719 524.689266,352.279961 519.087641,369.396037 L508.195593,374.997662 C499.481954,391.802537 509.129197,385.88971 502.90517,399.27137 C489.212309,411.408224 461.204185,437.237938 452.490546,439.72755 C446.266519,439.72755 456.847365,431.947515 458.403372,429.146702 C440.042491,441.594758 443.465706,447.818785 415.768783,455.59882 L414.835179,453.731612 C345.748473,486.096555 249.898448,421.989071 251.454454,334.230282 C250.52085,339.520705 249.276045,338.2759 247.720038,340.454309 C243.842014,294.746834 268.612723,251.398094 309.960314,231.533827 C348.076952,212.364999 394.016824,218.276833 426.038428,246.471493 C405.859726,220.295096 374.434607,205.275738 341.391653,206.015313 C304.66989,206.326515 270.437739,229.666618 258.923288,254.87393 C240.251205,266.699582 238.072795,300.620533 229.981559,306.533359 C218.77831,387.445718 250.52085,422.300273 304.047488,463.378855 C312.449925,469.291681 306.537099,469.914084 307.781904,474.270903 C289.595675,465.642354 273.386227,453.352838 260.168093,438.171543 C267.325725,448.441188 274.794558,458.710834 285.064203,466.490868 C267.948127,460.889243 245.541628,426.034688 239.006399,424.478682 C267.948127,476.138111 356.640521,515.349485 402.698325,496.055 C378.194031,497.79294 353.583273,494.835424 330.188404,487.341361 C319.918758,482.362138 306.225898,471.47009 308.404307,469.602882 C369.746526,495.402649 440.308735,485.356504 492.013121,443.461966 C505.705981,432.569918 520.954849,414.209036 525.311669,413.897835 C519.087642,423.856279 526.556475,418.877058 521.577252,427.590696 C535.270113,405.184196 515.353225,418.254654 535.892515,389.001724 L543.361348,399.27137 C540.560536,380.599287 566.39025,358.192788 563.900639,328.939859 C569.813466,319.603817 570.124667,338.2759 563.900639,359.126392 C572.925479,336.09749 566.39025,332.674274 568.56866,313.690991 C571.058271,319.915018 574.170285,326.761449 575.726292,333.296678 C570.124668,311.512581 581.95032,295.952512 584.439931,283.504457 C581.639118,281.94845 575.726292,292.840498 574.481487,267.010784 C574.481487,255.496333 577.593501,260.786756 578.838306,258.297145 C576.348695,256.741138 570.74707,248.338701 567.012654,231.533827 C569.502264,227.488208 573.859084,241.803472 577.593501,242.114674 C575.10389,229.044216 571.369473,218.77457 571.369473,208.504925 C560.788625,187.343231 567.635056,211.616939 558.921418,199.168883 C548.340571,165.247933 568.257459,191.388849 569.502264,176.139981 C586.307139,200.102487 595.64318,237.135451 600,252.69552 C596.887986,234.023437 591.286361,215.351355 584.751132,197.924078 C589.730354,200.102487 576.659897,159.335106 591.286361,186.409626 C571.918079,128.130081 531.231396,79.3282957 477.386656,49.792221 C482.988281,55.0826442 490.457114,61.9290748 487.656302,62.8626789 C464.316198,48.8586169 468.361816,47.9250127 464.938601,42.0121863 C445.955316,34.2321515 444.710511,42.6345888 431.951255,42.0121863 C395.851894,22.717701 389.005465,24.8961101 356.018118,12.4480554 L357.574125,19.6056869 C333.611619,11.8256522 329.566001,22.717701 303.736286,19.6056869 C302.18028,18.3608812 312.138724,15.2488678 320.229959,14.0040621 C297.201057,17.1160761 298.445862,9.64724301 275.728162,14.9376662 C281.018585,10.892048 286.931412,8.40243725 292.844238,4.97922232 C274.172155,6.22402808 248.03124,15.8712704 256.122475,7.15763149 C225.313539,21.1616936 170.853297,40.4561796 140.355562,69.0867063 L139.421958,62.2402757 C125.417896,79.0451502 78.4264871,112.343698 74.6920706,134.127794 L70.6464531,135.061399 C63.4888216,147.509454 58.8208009,161.513516 52.9079745,174.272772 C43.5719331,190.455244 38.9039124,180.4968 40.459919,182.986411 C21.7878362,220.952979 12.4517948,253.006722 4.36055922,279.458839 C9.96218406,287.861276 4.36055922,330.807067 6.53896839,365.35042 C-2.797073,535.266373 126.040298,700.514306 266.703322,738.792076 C287.553815,745.949707 318.05155,745.949707 344.192466,746.57211 C313.383529,737.858471 309.337911,741.904089 279.462579,731.323243 C257.678482,721.364799 253.010461,709.539146 237.761594,696.157486 L243.985621,707.049535 C213.799087,696.468688 226.247143,693.979077 201.662233,686.199042 L208.197462,677.796605 C198.550219,676.863001 182.367748,661.302932 178.010929,652.589293 L167.430082,652.900495 C154.670826,637.340426 147.824395,625.825975 148.446798,616.801134 L145.023583,623.025162 C140.977964,616.489933 97.7209731,563.8969 120.127472,576.033754 C116.081854,572.299337 110.480229,569.809727 104.567403,558.917678 L108.924223,553.627255 C98.0321748,539.934394 89.0073343,521.884714 89.6297368,516.283089 C95.8537641,523.751922 99.5881807,525.61913 103.633799,526.552734 C76.2480772,459.022035 74.6920706,522.818318 53.8415786,458.088431 L58.5095993,457.466028 C55.3975853,452.486806 52.9079745,446.885181 50.4183629,441.594758 L52.2855712,422.922675 C32.6798843,399.893773 46.6839464,326.450247 49.4847588,285.994068 C51.6631687,269.189194 65.9784317,251.761917 76.8704805,224.376195 L70.3352515,223.131389 C82.7833069,201.036092 143.156374,133.816594 171.164499,137.239808 C184.546158,120.123732 168.363686,137.239808 165.562874,132.882989 C195.438206,102.074053 204.774248,111.098893 224.691136,105.497268 C246.475233,93.0492123 206.019053,110.47649 216.288699,100.829247 C253.632864,91.4932056 242.740816,79.0451502 291.599432,74.3771295 C296.578655,77.4891435 279.462579,78.7339486 275.41696,82.4683659 C306.537099,67.219498 373.445395,70.9539146 417.32479,90.8708031 C468.050615,114.833309 525.000467,184.542419 527.178877,250.517111 L529.668488,251.139513 C528.423682,277.591631 533.714106,307.778164 524.378065,335.475088 L530.602092,322.40463 M223.44633,411.719425 L221.890324,420.433064 C229.981559,431.325112 236.516788,443.150765 246.786434,451.864403 C239.317601,437.237939 233.715976,431.325112 223.44633,411.408224 M242.740816,410.785821 C238.383997,406.117801 235.894385,400.204974 233.093573,394.603349 C235.583184,404.561793 241.184809,413.275432 246.475232,421.989071 L242.740816,410.785821 M583.195125,336.719893 L581.016716,341.387913 C577.904702,365.039218 570.435868,388.379322 559.54382,410.163419 C571.991876,387.445718 579.77191,362.238406 582.883924,336.719893 M314.005932,3.73441656 C322.408369,0.622402516 334.545223,2.1784099 343.570063,0 C332.055611,0.933604139 320.541161,1.55600666 309.337911,3.11201404 L314.005932,3.73441656 M20.2318296,159.957509 C22.4102395,177.695988 6.85017002,184.85362 23.6550445,173.027967 C32.9910859,152.488676 20.2318296,167.426343 20.5430305,159.957509 M0.626142664,242.737076 C4.36055922,230.600222 5.29416336,223.442591 6.85017002,216.59616 C-4.04187803,230.289021 1.5597468,233.089833 0.626142664,242.425875" id="形状"></path>
            </g>
        </g>
    </g>
</svg>