<svg xmlns="http://www.w3.org/2000/svg" width="1025" height="1024"><g fill="none" fill-rule="evenodd"><path fill="#FFF" d="M.061 0h1024v1024H.061z"/><path fill="#4D6BFE" fill-rule="nonzero" d="M879.179 277.284c-7.942-3.972-11.371 3.599-16.011 7.446-1.581 1.242-2.931 2.855-4.281 4.344-11.605 12.66-25.164 20.975-42.897 19.982-25.908-1.489-48.032 6.827-67.58 27.057-4.157-24.947-17.965-39.84-38.986-49.397-11.015-4.964-22.124-9.929-29.835-20.727-5.367-7.695-6.826-16.259-9.525-24.698-1.707-5.089-3.413-10.301-9.153-11.17-6.252-.993-8.688 4.344-11.14 8.812-9.773 18.244-13.575 38.351-13.187 58.705.839 45.798 19.797 82.287 57.434 108.227 4.282 2.978 5.384 5.957 4.034 10.3-2.56 8.937-5.632 17.625-8.316 26.561-1.707 5.71-4.266 6.95-10.27 4.469-20.65-8.813-38.492-21.845-54.27-37.606-26.76-26.437-50.963-55.604-81.138-78.44a356.826 356.826 0 0 0-21.518-15.018c-30.796-30.532 4.033-55.602 12.101-58.581 8.424-3.103 2.932-13.777-24.326-13.653-27.258.124-52.19 9.433-83.963 21.844-4.653 1.861-9.542 3.227-14.536 4.344-28.857-5.585-58.799-6.826-90.091-3.227-58.907 6.702-105.962 35.124-140.558 83.652-41.547 58.333-51.337 124.61-39.344 193.741 12.566 72.855 49.008 133.174 104.984 180.337 58.054 48.9 124.905 72.855 201.172 68.263 46.325-2.732 97.894-9.061 156.072-59.327 14.676 7.447 30.082 10.426 55.619 12.66 19.687 1.86 38.63-.994 53.291-4.096 22.976-4.965 21.378-26.685 13.078-30.656-67.347-32.022-52.562-18.99-65.997-29.539 34.224-41.33 85.793-84.274 105.962-223.404 1.597-11.046.247-17.996 0-26.932-.125-5.461 1.085-7.572 7.214-8.192 16.864-1.986 33.247-6.702 48.28-15.141 43.625-24.327 61.234-64.292 65.392-112.2.62-7.322-.124-14.893-7.711-18.74M498.943 708.453c-65.253-52.376-96.917-69.628-109.995-68.883-12.225.744-10.023 15.018-7.339 24.326 2.808 9.185 6.485 15.514 11.62 23.582 3.538 5.337 5.99 13.28-3.552 19.237-21.022 13.28-57.558-4.468-59.264-5.336-42.54-25.568-78.114-59.327-103.17-105.497-24.201-44.432-38.242-92.092-40.57-142.978-.62-12.287 2.933-16.632 14.895-18.866a144.281 144.281 0 0 1 47.799-1.24c66.618 9.93 123.338 40.336 170.872 88.493 27.135 27.428 47.66 60.194 68.82 92.216 22.481 34.006 46.684 66.4 77.48 92.96 10.874 9.308 19.547 16.383 27.862 21.596-25.055 2.855-66.865 3.475-95.458-19.61m31.292-205.407c0-5.461 4.282-9.806 9.665-9.806 1.22.021 2.317.228 3.289.621a9.728 9.728 0 0 1 6.237 9.185 9.68 9.68 0 0 1-9.65 9.805 9.572 9.572 0 0 1-9.541-9.805m97.165 50.886c-6.221 2.606-12.458 4.84-18.462 5.088-9.277.497-19.423-3.35-24.915-8.066-8.564-7.324-14.677-11.42-17.237-24.203-1.102-5.461-.497-13.9.481-18.74 2.203-10.426-.248-17.128-7.447-23.21-5.864-4.965-13.327-6.33-21.518-6.33-3.056 0-5.864-1.365-7.943-2.482a8.145 8.145 0 0 1-3.537-11.418c.853-1.738 5.011-5.958 5.989-6.703 11.122-6.454 23.953-4.343 35.805.497 11 4.592 19.3 13.032 31.293 24.947 12.225 14.397 14.428 18.37 21.378 29.167 5.508 8.439 10.52 17.127 13.933 27.055 2.093 6.207-.606 11.295-7.82 14.398"/></g></svg>