<?xml version="1.0" encoding="UTF-8"?>
<svg width="1025px" height="1024px" viewBox="0 0 1025 1024" version="1.1" xmlns="http://www.w3.org/2000/svg" xmlns:xlink="http://www.w3.org/1999/xlink">
    <title>Disney</title>
    <defs>
        <linearGradient x1="50%" y1="0%" x2="50%" y2="88.5831286%" id="linearGradient-1">
            <stop stop-color="#060729" offset="0%"></stop>
            <stop stop-color="#193172" offset="66.7313678%"></stop>
            <stop stop-color="#2B58B5" offset="100%"></stop>
        </linearGradient>
    </defs>
    <g id="ICON-新版方图标" stroke="none" stroke-width="1" fill="none" fill-rule="evenodd">
        <g id="Disney" transform="translate(0.6332, 0)">
            <rect id="蒙版路径" fill="url(#linearGradient-1)" x="0" y="0" width="1024" height="1024"></rect>
            <path d="M677.146173,575.960937 C666.07347,578.499388 636.931051,579.960051 636.931051,579.960051 L633.24015,591.494116 C641.6054,590.809135 650.010482,590.757939 658.383455,591.340967 C658.383455,591.340967 661.844632,590.954264 662.22942,595.261592 C662.299952,598.033486 662.197014,600.807078 661.921207,603.566119 C661.921207,603.566119 661.691483,606.17923 657.998667,606.793743 C654.001468,607.486744 626.627924,608.486044 626.627924,608.486044 L622.167447,623.479371 C622.167447,623.479371 620.553635,626.940548 624.244536,625.941248 C627.703799,625.018523 656.384855,619.635321 660.152331,620.404897 C664.151445,621.404197 668.610007,626.70891 667.302494,631.630749 C665.765257,637.628463 637.162689,655.927903 619.707485,654.622305 C619.707485,654.622305 610.556807,655.234902 602.792132,642.856601 C595.56348,631.092812 605.560308,608.717682 605.560308,608.717682 C605.560308,608.717682 601.023256,598.259491 604.329369,594.800229 C604.329369,594.800229 606.327969,593.031353 612.019384,592.569991 L619.016398,578.038026 C619.016398,578.038026 611.01817,578.574048 606.251394,572.731398 C601.790918,567.118472 601.484619,564.581935 604.867307,563.044698 C608.481633,561.275822 641.776316,555.201533 664.689382,555.969195 C664.689382,555.969195 672.685696,555.201533 679.529561,569.040497 C679.452986,569.040497 682.835674,574.653423 677.146173,575.960937 L677.146173,575.960937 Z M590.951768,631.783898 C588.028528,638.704337 580.263853,646.084225 570.651813,641.470599 C561.118262,636.858887 545.96987,605.871017 545.96987,605.871017 C545.96987,605.871017 540.203795,594.338866 539.126006,594.56859 C539.126006,594.56859 537.896982,592.338352 537.127406,604.948292 C536.35783,617.558232 537.280556,642.087025 532.284056,645.931075 C530.279328,647.662907 527.609178,648.415303 524.995185,647.984937 C522.381192,647.554571 520.093186,645.985868 518.749476,643.702751 C516.05979,639.242275 514.905426,628.630935 516.366089,610.023281 C518.134964,591.415627 522.440377,571.578949 527.976729,565.349597 C533.51308,559.198733 537.973557,563.65921 539.663943,565.273022 C539.663943,565.273022 547.045745,571.963737 559.272812,591.647265 L561.424561,595.261592 C561.424561,595.261592 572.497263,613.869245 573.649713,613.792671 C573.649713,613.792671 574.572438,614.636907 575.342014,614.022395 C576.496378,613.716096 576.035015,607.716468 576.035015,607.716468 C576.035015,607.716468 573.728202,587.495002 563.654799,553.201019 C562.765258,550.523783 562.605996,547.657716 563.193437,544.898407 C564.192736,540.820803 568.266511,542.744743 568.266511,542.744743 C568.266511,542.744743 583.954754,550.587907 591.487791,576.116 C598.948082,601.873818 593.873093,624.863459 590.951768,631.785813 L590.951768,631.783898 Z M513.906126,566.197661 C512.598613,568.810773 511.830952,572.578249 505.216811,573.577549 C505.216811,573.577549 441.937387,577.884876 438.937573,582.343438 C438.937573,582.343438 436.707335,584.958465 440.168512,585.726126 C443.627774,586.419127 457.930015,588.341152 464.850454,588.72594 C472.232256,588.802515 497.145837,589.032239 506.062962,600.181517 C506.062962,600.181517 511.369589,605.488144 511.13795,617.481657 C510.908226,629.785298 508.754563,634.090711 503.987787,638.551188 C498.991288,642.703452 456.084565,661.925617 428.404722,632.39841 C428.404722,632.39841 415.639719,618.174658 432.78671,607.410169 C432.78671,607.410169 445.166926,599.951792 476.614244,608.717682 C476.614244,608.717682 486.147795,612.176944 485.688346,615.638121 C485.148495,619.327108 477.845182,623.249647 467.233842,623.018009 C461.491939,622.893834 455.868282,621.362201 450.856426,618.557532 C452.240514,619.097384 439.783724,612.561732 435.939673,617.020295 C432.093709,621.097898 433.016434,623.634435 436.785824,626.170972 C446.39595,631.630749 483.534683,629.708724 494.607386,617.405083 C494.607386,617.405083 498.991288,612.408583 492.300572,608.33098 C485.609857,604.488844 466.464266,602.182031 459.00589,601.797243 C451.855726,601.412455 425.251759,601.873818 421.407708,594.800229 C421.407708,594.800229 417.561744,590.033453 421.790582,576.498874 C426.251059,562.351697 457.237014,556.89192 470.61653,555.662896 C470.61653,555.662896 507.448964,554.355383 514.214339,561.890334 C514.6726,563.311756 514.562831,564.85539 513.908041,566.197661 L513.906126,566.197661 Z M409.335706,649.160614 C404.875229,652.468641 395.418253,651.006064 392.726652,647.315163 C390.035051,644.00905 389.112326,630.861173 389.650263,610.253005 C390.190115,589.417027 390.649563,563.580721 395.11004,559.506946 C399.876815,555.352768 402.800055,558.969009 404.643591,561.813759 C407.555573,565.31339 409.279239,569.648368 409.56543,574.192061 C410.026793,580.727712 411.56403,615.021695 411.56403,615.021695 C411.56403,615.021695 413.564544,645.931075 409.335706,649.160614 L409.335706,649.160614 Z M418.945832,538.592479 C405.951104,542.899807 397.032065,541.43723 389.497113,538.209606 C386.191001,543.975681 384.268975,545.742643 381.730524,546.127431 C378.039623,546.512219 374.73351,540.591079 374.118998,538.669054 C373.504486,537.208392 371.73561,534.748429 373.889274,528.905779 C367.94251,523.458594 365.386452,515.233135 367.198559,507.374886 C369.044009,500.454446 381.498885,474.158692 419.407194,471.082303 C419.407194,471.082303 437.938273,469.698215 441.091237,479.616554 L441.629174,479.616554 C441.629174,479.616554 459.622316,479.693129 459.237528,495.687671 C459.007804,511.756873 439.245786,531.748615 418.945832,538.592479 Z M383.575974,502.992898 C379.731924,509.143761 379.578775,512.832748 381.34765,515.371199 C387.69318,505.486237 395.891169,496.92226 405.489741,490.15132 C396.523647,490.58725 388.338536,495.383766 383.575974,502.992898 L383.575974,502.992898 Z M435.939673,492.687857 C424.02082,494.456732 405.56823,510.451274 396.802341,523.522577 C410.258431,525.982539 434.017648,525.059814 444.550499,503.60741 C444.473925,503.60741 449.546999,490.304469 435.939673,492.687857 L435.939673,492.687857 Z M759.494613,616.558932 C752.34445,629.015723 732.276133,655.005178 705.519016,648.93089 C695.170243,673.007704 688.28414,698.429052 685.065912,724.43738 C685.065912,724.43738 684.143187,730.743307 678.913134,728.513069 C673.763485,726.667618 665.148831,718.054878 663.458444,706.137939 C661.612994,690.45161 668.610007,663.926132 682.835674,633.552774 C678.681496,626.785484 675.83866,617.098784 678.298622,603.33448 C678.298622,603.33448 681.912948,577.806387 707.517616,554.740171 C707.517616,554.740171 710.592091,552.04857 712.360966,552.89472 C714.361481,553.740871 713.438755,562.045398 711.824943,566.042598 C710.211132,570.039797 698.751727,589.87839 698.751727,589.87839 C698.751727,589.87839 691.601563,603.257905 693.600163,613.790756 C707.056254,593.107928 737.659335,551.355569 756.649863,564.50536 C763.032365,569.042412 765.954062,578.958836 765.954062,589.648666 C765.987088,599.006388 763.772602,608.235275 759.496528,616.558932 L759.494613,616.558932 Z M753.960176,583.804101 C753.960176,583.804101 752.882387,575.576149 744.886073,584.650252 C733.312005,597.127732 723.41249,611.059644 715.437355,626.094398 C725.970206,624.940034 736.120184,619.173958 739.194658,616.252633 C744.194987,611.792157 755.803712,599.796729 753.958262,583.804101 L753.960176,583.804101 Z M380.654649,594.262292 C379.193987,612.869946 372.043823,644.164114 321.372425,659.618804 C287.924593,669.692207 256.322211,664.846943 239.098645,660.464955 C238.715772,667.306905 237.946196,670.22823 236.868407,671.382594 C235.407744,672.843256 224.490105,679.149183 218.490477,670.230144 C215.80079,665.999392 214.416703,658.311291 213.647127,651.469341 C174.894582,633.629349 157.056504,607.948106 156.363503,606.793743 C150.466351,601.016841 150.096133,591.643863 155.519266,585.419827 C163.821879,575.193275 190.965698,564.966723 215.416003,560.814459 C216.262153,539.899993 218.722116,524.137089 221.645355,516.908437 C225.181192,508.527335 229.641669,516.064201 233.485719,521.751787 C236.715257,525.982539 238.637283,544.20732 238.790432,558.737371 C254.784974,557.969709 264.24195,559.122158 282.080028,562.351697 C305.301308,566.582449 320.834488,578.422813 319.448486,591.87699 C318.449186,605.103356 306.300608,610.561218 301.686982,610.946006 C296.843632,611.330794 289.308681,607.871532 289.308681,607.871532 C284.157117,605.411569 288.923893,603.257905 295.151331,600.566304 C301.918621,597.260191 300.381383,593.877504 300.381383,593.877504 C297.842932,586.495702 267.703127,581.344139 237.714557,581.344139 C237.561408,597.874703 238.407558,625.324822 238.790432,641.319364 C250.866074,643.70527 263.16295,644.787985 275.469717,644.548902 C275.469717,644.548902 352.052082,642.395238 354.358895,593.492716 C356.742282,544.513619 278.006254,497.533121 219.79799,482.616368 C161.67013,467.391402 128.760235,478.002742 125.915485,479.463405 C122.839096,481.000642 125.68576,481.462005 125.68576,481.462005 C128.61377,481.996485 131.493518,482.76796 134.296586,483.768818 C140.062662,485.614268 135.604099,488.612168 135.604099,488.612168 C125.68576,491.765132 114.536483,489.766532 112.382819,485.22948 C110.229156,480.692429 113.843482,476.618654 117.995745,470.776004 C122.148009,464.623226 126.68506,464.854865 126.68506,464.854865 C198.577224,439.941284 286.155717,484.999756 286.155717,484.999756 C368.197859,526.598966 382.191886,575.346425 380.654649,594.262292 L380.654649,594.262292 Z M163.66873,591.72384 C155.519266,595.722954 161.132193,601.48903 161.132193,601.48903 C176.433733,617.94302 195.271111,628.248061 213.185764,634.628649 C215.262853,606.25772 214.95464,596.260892 215.186278,581.958651 C187.198223,583.880676 171.050531,588.341152 163.670644,591.72384 L163.66873,591.72384 Z M911.738532,585.88119 L911.738532,596.029253 C911.746242,597.091896 911.327648,598.113281 910.576406,598.864883 C909.825163,599.616485 908.803979,600.035568 907.741332,600.028367 L859.376747,600.028367 C859.376747,602.564904 859.453322,604.795143 859.453322,606.872232 C859.522108,620.561071 858.829313,634.243138 857.378147,647.855015 C857.185597,649.884468 855.49402,651.442304 853.455608,651.46743 L842.999332,651.46743 C841.944092,651.468738 840.937906,651.022008 840.231156,650.238403 C839.509879,649.447165 839.172511,648.379068 839.308431,647.317078 C840.780927,633.88625 841.499941,620.383484 841.462094,606.872232 C841.462094,604.718568 841.462094,602.48833 841.38552,600.028367 L793.558872,600.028367 C792.495894,600.036083 791.474214,599.617227 790.722556,598.865569 C789.970897,598.11391 789.552042,597.092231 789.559653,596.029253 L789.559653,585.88119 C789.552042,584.818212 789.970897,583.796533 790.722556,583.044874 C791.474214,582.293216 792.495894,581.87436 793.558872,581.882076 L840.692518,581.882076 C839.740256,565.559704 837.659472,549.322806 834.46508,533.287767 C834.296167,532.308923 834.547004,531.304185 835.156167,530.519591 C835.77035,529.743668 836.705036,529.290423 837.694619,529.288652 L848.997045,529.288652 C850.764183,529.295573 852.279014,530.552851 852.611372,532.288467 C855.719657,548.671194 857.77416,565.236388 858.762235,581.882076 L907.741332,581.882076 C909.933697,581.920906 911.701616,583.688826 911.740446,585.88119 L911.738532,585.88119 Z" id="形状" fill="#FFFFFF" fill-rule="nonzero"></path>
            <path d="M845.920657,505.376286 C798.835383,389.571891 691.594175,309.28094 567.216897,296.712189 C442.839618,284.143438 321.703204,341.356046 252.401586,445.399146 C251.71701,446.418004 251.546428,447.697722 251.940224,448.860323 C252.306453,450.034956 253.225838,450.955057 254.400186,451.3222 L263.166076,454.3201 C263.665711,454.46598 264.182858,454.543263 264.703313,454.549824 C266.3284,454.527948 267.844301,453.727632 268.779002,452.398074 C328.252539,364.757857 427.292151,312.286824 533.206781,312.304647 C661.689004,312.326166 777.693992,389.207968 827.774365,507.528035 C828.48505,509.240122 830.151428,510.360592 832.005118,510.373006 L842.461394,510.373006 C843.671757,510.386312 844.8041,509.776756 845.459294,508.758973 C846.215637,507.798722 846.392222,506.504011 845.920657,505.376286 L845.920657,505.376286 Z M264.703313,451.936712 C264.466303,451.922519 264.233043,451.870827 264.012226,451.783562 C264.233043,451.870827 264.466303,451.922519 264.703313,451.936712 Z M829.851454,508.990612 C830.064642,509.147036 830.29687,509.275694 830.542541,509.373485 C830.312817,509.220336 830.083093,509.143761 829.851454,508.990612 L829.851454,508.990612 Z" id="形状" fill="#00E7FF" fill-rule="nonzero"></path>
        </g>
    </g>
</svg>