<svg xmlns="http://www.w3.org/2000/svg" width="1025" height="1024"><g fill="none" fill-rule="evenodd"><path fill="#111E63" d="M.633 0h1024v1024H.633z"/><path fill="#0064FF" d="M341.46 445.672c0-26.31-21.362-47.672-47.673-47.672H160.305c-26.31 0-47.672 21.361-47.672 47.672v133.482c0 26.311 21.361 47.672 47.672 47.672h133.482c26.311 0 47.673-21.36 47.673-47.672V445.672"/><g fill="#E6F0FF"><path d="M279.633 547c6.911 1.333 10.367 5 10.367 11s-3.456 10-10.367 12a24123.62 24123.62 0 0 0-48.674 0c-7.729-2.223-10.113-7.77-9.959-11 .154-3.229 1.798-10.275 9.633-12 9.405-.15 25.738-.15 49 0M167 470c2.218-2.247 6.22-3.66 11.423-2.7 1.25.333 1.25.333 3.577 1.7 1.146.686 28.669 26.576 37.957 37.97 1.994 2.445 1.97 4.738 1.973 5.443.008 2.66-1.302 5.523-3.93 8.587l-36 36c-4 2.667-8.333 2.667-13 0-2.372-1.355-7.413-7.82-3.579-15.277.205-1.11 9.63-10.88 28.274-29.31-15.848-14.493-24.746-23.395-26.695-26.707-1.245-2.115-2.153-3.292-2.253-3.676-1.719-5.25-.287-9.49 2.253-12.03"/></g><g fill="#FFF" fill-rule="nonzero"><path d="M526.89 512.012c0-41.833-25.542-74.213-72-77.23-3.017-.2-9.05-.402-15.285-.402-24.939 0-44.85.805-46.458 28.358-.604 10.86-1.207 34.19-1.207 56.313 0 16.894.402 33.184 1.006 43.039 2.01 28.156 30.57 28.357 46.659 28.357 20.916 0 87.285-.2 87.285-78.435m-74.011-55.71c30.77 0 50.28 23.33 50.28 55.71 0 56.916-42.437 56.916-63.554 56.916-16.693 0-22.927-1.61-23.933-10.86-.805-7.643-1.207-22.526-1.207-38.414 0-21.72.604-44.85 1.207-53.296.603-10.056 11.464-10.257 21.117-10.257 7.442 0 16.09.201 16.09.201M551.628 579.587c0 6.034 5.229 9.05 10.66 9.05 5.832 0 11.865-3.419 12.066-10.055 1.006-27.755 3.821-88.894 5.23-106.593.401-4.223 1.206-5.832 2.212-5.832.804 0 1.81 1.408 2.614 3.821 7.441 23.732 25.14 87.486 31.575 102.771 3.218 8.045 8.85 11.263 14.48 11.263 6.638 0 13.074-4.626 15.688-11.464 8.246-21.52 28.961-86.883 33.386-103.575.603-2.414 2.01-4.224 3.016-4.224 1.006 0 1.81 1.408 1.81 4.827 0 0 2.012 79.843 4.023 108.603.402 7.04 6.234 10.458 12.067 10.458 5.832 0 11.665-3.62 11.665-10.458v-.804c-1.61-28.559-6.034-93.922-6.637-119.866-.402-14.078-10.056-21.922-20.112-21.922-8.246 0-16.894 5.23-20.715 16.492-7.844 22.927-23.933 78.838-31.576 97.34-.402 1.207-1.206 1.81-1.81 1.81-.804 0-1.407-.603-2.01-1.81-4.828-9.854-22.526-72.2-30.168-96.335-3.62-11.665-12.067-17.296-20.313-17.296-9.453 0-18.704 7.643-19.509 22.525-1.609 29.162-6.234 85.676-7.642 120.872v.403M768.433 577.374a4752.15 4752.15 0 0 1-.604-76.022c0-19.509.201-38.414.604-55.106v-.403c0-6.636-6.034-9.854-11.866-9.854-3.62 0-12.67 2.212-12.269 10.659.604 16.29 1.006 34.592 1.006 53.698 0 25.944-.603 52.894-1.006 77.028v.201c0 7.04 6.034 10.66 12.067 10.66 6.034 0 12.068-3.62 12.068-10.66v-.2M841.035 578.179c0 6.838 6.034 10.257 12.067 10.257 6.235 0 12.47-3.42 12.067-10.458-.603-14.883-1.005-39.42-1.005-63.553 0-19.71.201-39.218.603-52.894 0-4.023 0-4.023 19.91-4.023 4.828 0 10.66 0 17.498.403h.805c6.435 0 9.653-5.23 9.653-10.66 0-4.424-2.614-11.061-10.458-10.86-11.464.201-28.559.402-45.654.402-20.916 0-42.234-.2-54.301-.402h-.403c-7.44 0-11.061 5.229-11.061 10.66 0 5.43 3.821 10.86 11.464 10.86 9.452 0 18.905-.403 26.547-.403 11.866 0 12.47 0 12.47 4.023.402 10.659.402 27.352.402 45.05 0 26.547-.201 55.71-.604 71.397v.2"/></g></g></svg>