<svg xmlns="http://www.w3.org/2000/svg" width="1025" height="1024"><g fill="none" fill-rule="nonzero"><path fill="#0099D9" d="M184.953 0h839.68v1024H.633V0"/><path fill="#FFF" d="M436.857 413.696h73.216c2.048 0 3.072 1.024 3.072 3.072v67.584c0 2.048-1.024 3.072-3.072 3.072h-73.216c-2.048 0-3.072-1.024-3.072-3.072v-67.584c0-2.048 1.024-3.072 3.072-3.072M527.993 413.696h73.216c2.048 0 3.072 1.024 3.072 3.072v67.584c0 2.048-1.024 3.072-3.072 3.072h-73.216c-2.048 0-3.072-1.024-3.072-3.072v-67.584c0-2.048 1.024-3.072 3.072-3.072M619.13 413.696h73.215c2.048 0 3.072 1.024 3.072 3.072v67.584c0 2.048-1.024 3.072-3.072 3.072H619.13c-2.048 0-3.072-1.024-3.072-3.072v-67.584c0-2.048 1.024-3.072 3.072-3.072M345.721 413.696h73.216c2.048 0 3.072 1.024 3.072 3.072v67.584c0 2.048-1.024 3.072-3.072 3.072h-73.216c-2.048 0-3.072-1.024-3.072-3.072v-67.584c0-2.048 1.024-3.072 3.072-3.072M254.585 413.696h73.216c2.048 0 3.072 1.024 3.072 3.072v67.584c0 2.048-1.024 3.072-3.072 3.072h-73.216c-2.048 0-3.072-1.024-3.072-3.072v-67.584c0-2.048 1.024-3.072 3.072-3.072M436.857 327.68h73.216c2.048 0 3.072 1.024 3.072 3.072v67.584c0 2.048-1.024 3.072-3.072 3.072h-73.216c-2.048 0-3.072-1.024-3.072-3.072v-67.584c0-2.048 1.024-3.072 3.072-3.072M527.993 327.68h73.216c2.048 0 3.072 1.024 3.072 3.072v67.584c0 2.048-1.024 3.072-3.072 3.072h-73.216c-2.048 0-3.072-1.024-3.072-3.072v-67.584c0-2.048 1.024-3.072 3.072-3.072M345.721 327.68h73.216c2.048 0 3.072 1.024 3.072 3.072v67.584c0 2.048-1.024 3.072-3.072 3.072h-73.216c-2.048 0-3.072-1.024-3.072-3.072v-67.584c0-2.048 1.024-3.072 3.072-3.072M529.017 241.664h73.216c2.048 0 3.072 1.024 3.072 3.072v67.584c0 2.048-1.024 3.072-3.072 3.072h-73.216c-2.048 0-3.072-1.024-3.072-3.072v-67.584c0-2.048 1.024-3.072 3.072-3.072"/><path fill="#FFF" d="M206.56 499.825s-20.583 3.46-20.245 13.107c-4.577 26.624-29.41 253.327 218.91 272.64 342.55 28.969 417.977-257.3 417.977-257.3s93.328 2.324 115.763-70.227c-3.471-9.216-35.471-34.734-100.096-25.016.8-35.328-44.81-84.111-59.238-84.111-14.428 0-57.877 58.634-19.958 139.428-1.024 2.97-21.975 9.697-63.775 11.489l-489.338-.01"/></g></svg>