<svg xmlns="http://www.w3.org/2000/svg" width="1024" height="1024"><defs><linearGradient id="a" x1="0%" x2="100%" y1="0%" y2="100%"><stop offset="0%" stop-color="#BEDBF0"/><stop offset="100%" stop-color="#D3D8E0"/></linearGradient></defs><g fill="none" fill-rule="evenodd"><path fill="url(#a)" d="M0 0h1024v1024H0z"/><path fill="#342C2B" d="M657 176c69.43 25.692 117.43 65.025 144 118 26.57 52.975 32.237 120.641 17 203-13.874 48.883-40.207 93.883-79 135-58.19 61.675-131.957 92.09-138 95-54 26-94.333 40.667-121 44 1.602 25.805-4.398 47.805-18 66-7.09 9.484-50.66 46.4-93 50-19.536 1.66-51.89-36.353-56-58-1.352-7.121-1.352-20.788 0-41-25.293-4.24-44.96-9.907-59-17-21.06-10.639-53-38-53-55 0-5.73 2.318-17.201 18-26 10.22-5.735 34.888-14.402 74-26 8-3.333 20.333-5 37-5s39 4.333 67 13c2.684-2.79 4.017-7.123 4-13-.173-60.027-4.552-131.421-5-187-.514-63.742-1.514-162.408-3-296 .667-2 4-5.667 10-11 3-2 17.745-14.115 59-17 18.21-1.273 79.205 2.404 130 11 17.28 2.925 38.947 8.591 65 17"/><path fill="#23A3EB" d="M641 197c53 19 109 64 133 101 13.508 20.825 25.882 53.373 29 92 2.079 25.751-.588 58.085-8 97-14.235 46.582-38.568 88.582-73 126-50 47-54.905 50.905-123 87-40.604 20.084-65 31-103 41-19.333 5.333-32.667 9.333-40 12-.667 26-2.667 43-6 51-8 14-5.073 16.47-32 35-.156.108 8-5-.468.321-8.468 5.322-44.995 23.191-49.532 21.679-6-2-15.667-14.333-29-37-.667-34.667-1.333-52.333-2-53-1-1-14.302-5.736-31-11s-30.515-8.417-38-12c-17.573-8.412-34.986-23.971-39-29-.52-.651-1.273-1.882-1-3 .273-1.116 1.335-1.934 2.06-2.398 13.95-8.928 65.483-28.79 89.94-30.602 27-2 76.299 17 85 17 8.701 0 11.92-9.986 15-17 2.053-4.676 3.72-12.676 5-24l-7-475c5.83-4.743 22.497-8.077 50-10 18.21-1.273 100-2 173 23"/><path fill="#23A1E7" d="m343 148 6 47c-7.484.996-13.15 2.663-17 5-3.85 2.337-7.516 6.337-11 12-2.667 5.333-4 10.333-4 15 0 7 1 13 4 18s6 10 11 12c3.333 1.333 9 1.667 17 1h38v50h-38c-8.667 0-14.333.667-17 2-4 2-9 7-11 11s-4 8.06-4 17 0 9 4 18c5 7 5 7 11 11 2.667 1.333 8.333 2.667 17 4l-6 50c-14 0-27-4.333-39-13s-21-18-27-28c-6.667-14.588-10-28.588-10-42 0-13.412 3.333-26.745 10-40l8-11v-6l-8-13c-6.667-13.667-10-27.333-10-41 0-13.667 3.333-27.333 10-41 5.334-10.04 14.334-18.708 27-26 12.666-7.292 25.666-11.292 39-12"/></g></svg>