<svg xmlns="http://www.w3.org/2000/svg" width="1025" height="1024"><g fill="none" fill-rule="evenodd"><path fill="#EDEDED" d="M.633 0h1024v1024H.633z"/><g fill-rule="nonzero"><path fill="#65B1DD" d="M487.633 799c-42.5 0-75-32.5-75-75V599c0-42.5 32.5-75 75-75h200c42.5 0 75 32.5 75 75v125c0 42.5-32.5 75-75 75h-200"/><path fill="#FFF" d="M687.633 549c27.5 0 50 22.5 50 50v125c0 27.5-22.5 50-50 50h-200c-27.5 0-50-22.5-50-50V599c0-27.5 22.5-50 50-50h200m0-50h-200c-55 0-100 45-100 100v125c0 55 45 100 100 100h200c55 0 100-45 100-100V599c0-55-45-100-100-100"/><path fill="#336697" d="M212.633 849c-42.5 0-75-32.5-75-75V599c0-42.5 32.5-75 75-75h250c42.5 0 75 32.5 75 75v175c0 42.5-32.5 75-75 75h-250"/><path fill="#FFF" d="M462.633 549c27.5 0 50 22.5 50 50v175c0 27.5-22.5 50-50 50h-250c-27.5 0-50-22.5-50-50V599c0-27.5 22.5-50 50-50h250m0-50h-250c-55 0-100 45-100 100v175c0 55 45 100 100 100h250c55 0 100-45 100-100V599c0-55-45-100-100-100"/><path fill="#1D4775" d="M412.633 624c-42.5 0-75-32.5-75-75V249c0-42.5 32.5-75 75-75h400c42.5 0 75 32.5 75 75v300c0 42.5-32.5 75-75 75h-400"/><path fill="#FFF" d="M812.633 199c27.5 0 50 22.5 50 50v300c0 27.5-22.5 50-50 50h-400c-27.5 0-50-22.5-50-50V249c0-27.5 22.5-50 50-50h400m0-50h-400c-55 0-100 45-100 100v300c0 55 45 100 100 100h400c55 0 100-45 100-100V249c0-55-45-100-100-100"/></g></g></svg>