<svg xmlns="http://www.w3.org/2000/svg" width="1025" height="1024"><g fill="none" fill-rule="evenodd"><path fill="#FFF" d="M.633 0h1024v1024H.633z"/><g fill-rule="nonzero"><path fill="#0F5197" d="M794.621 682.391a224.43 224.43 0 0 1-28.71 12.851 279.609 279.609 0 0 1-98.161 17.773c-129.332 0-241.985-88.864-241.985-203.157a85.802 85.802 0 0 1 44.843-74.647c-117.028 4.922-147.105 126.872-147.105 198.237 0 202.064 186.205 222.57 226.4 222.57 21.6 0 54.138-6.288 73.825-12.577l3.555-1.094a349.99 349.99 0 0 0 182.103-144.37c3.216-5.065 1.752-11.774-3.28-15.039a11.511 11.511 0 0 0-11.485-.547"/><path fill="#0C88DA" d="M452.014 821.567a217.321 217.321 0 0 1-62.068-58.24 220.685 220.685 0 0 1 80.662-328.116 90.587 90.587 0 0 1 42.381-10.937 89.11 89.11 0 0 1 70.271 35.546 88.072 88.072 0 0 1 17.5 51.131c0-.547 66.99-217.65-218.743-217.65-120.036 0-218.744 114.02-218.744 213.822a356.606 356.606 0 0 0 33.085 153.12c75.428 160.722 259.197 239.564 427.643 183.471a207.205 207.205 0 0 1-171.987-22.147"/><path fill="#2CC3D5" d="M579.432 568.645c-2.187 2.734-9.023 6.836-9.023 15.585 0 7.11 4.649 13.945 12.851 19.687 39.374 27.343 113.473 23.788 113.747 23.788a163.374 163.374 0 0 0 82.849-22.694c51.438-30.022 83.081-85.086 83.122-144.644.82-61.248-21.874-101.99-30.897-120.035a301.21 301.21 0 0 0-57.256-77.846 337.548 337.548 0 0 0-97.56-66.388 398.41 398.41 0 0 0-164.276-34.594C321.601 161.49 165.691 315.208 163 506.576c1.367-99.801 100.622-180.463 218.743-180.463 9.57 0 64.256.82 114.84 27.617 44.57 23.514 68.084 51.678 84.217 79.84 16.952 29.258 19.96 65.897 19.96 80.662 0 14.766-7.383 36.367-21.328 54.413"/><path fill="#49D668" d="M607.158 171.845s254.809 263.366-33.194 405.659c0 0-18.62 30.925 70.326 46.92 0 0 147.35 32.019 206.822-97.45 11.976-40.604 22.64-103.52-9.024-173.545a292.57 292.57 0 0 0-52.635-77.736 373.613 373.613 0 0 0-77.325-64.748c-46.812-23.925-104.97-39.1-104.97-39.1"/></g></g></svg>