<svg xmlns="http://www.w3.org/2000/svg" width="1025" height="1024"><g fill="none" fill-rule="evenodd"><path fill="#3867E4" d="M.633 0h1024v1024H.633z"/><g fill-rule="nonzero"><path fill="#F5F7FE" d="M231.037 264.533c-1.673 32.58 1.169 66.714 8.533 102.4 18.065 19.883 40.823 29.841 68.267 29.867-18.714 17.28-27.247 38.613-25.6 64-84.839-1.058-117.547-43.725-98.134-128a433.118 433.118 0 0 1 46.934-68.267"/><path fill="#F6F8FE" d="M785.703 264.533c67.217 53.76 75.75 114.919 25.6 183.467a3240.363 3240.363 0 0 1-401.066 12.8v238.933h51.2c-9.925-78.225 24.209-109.516 102.4-93.866a276.796 276.796 0 0 1 4.266-68.267 80.794 80.794 0 0 1 21.334-12.8 573.662 573.662 0 0 1 170.666 4.267c-32.571 40.448-75.238 60.356-128 59.733 11.196 79.718-22.937 108.168-102.4 85.333a349.32 349.32 0 0 1-4.266 76.8 59.52 59.52 0 0 1-29.867 21.334 362.65 362.65 0 0 1-110.933 0 59.52 59.52 0 0 1-29.867-21.334 817.775 817.775 0 0 1-12.8-162.133 817.775 817.775 0 0 1 12.8-162.133 306.688 306.688 0 0 1 38.4-29.867l366.933-8.533c15.642-4.267 25.6-14.225 29.867-29.867 5.786-31.753 4.36-63.044-4.267-93.867"/></g></g></svg>