<?xml version="1.0" encoding="UTF-8"?>
<svg width="1025px" height="1024px" viewBox="0 0 1025 1024" version="1.1" xmlns="http://www.w3.org/2000/svg" xmlns:xlink="http://www.w3.org/1999/xlink">
    <title>Gitlab</title>
    <g id="ICON-新版方图标" stroke="none" stroke-width="1" fill="none" fill-rule="evenodd">
        <g id="Gitlab" transform="translate(0.061, 0)">
            <rect id="蒙版路径" fill="#FFFFFF" x="0" y="0" width="1024" height="1024"></rect>
            <g id="编组" transform="translate(162, 190)" fill-rule="nonzero">
                <polygon id="path50_2_" fill="#E24329" points="349.97512 644.730019 478.933046 248.059844 221.205866 248.059844"></polygon>
                <path d="M40.5789357,248.061918 L1.30833542,368.575244 C-2.24532114,379.518184 1.59237915,391.597299 10.9720421,398.418495 L349.977194,644.730019 L40.5789357,248.061918 Z" id="path66_6_" fill="#FCA326"></path>
                <path d="M40.5789357,248.061918 L221.205866,248.061918 L143.469111,9.16663013 C139.490425,-3.05554338 122.151318,-3.05554338 118.029574,9.16663013 L40.5789357,248.061918 Z" id="path74_2_" fill="#E24329"></path>
                <path d="M659.56205,248.061918 L698.691665,368.575244 C702.245321,379.518184 698.407621,391.597299 689.027958,398.418495 L349.97512,644.730019 L659.56205,248.061918 Z" id="path82_6_" fill="#FCA326"></path>
                <path d="M659.56205,248.061918 L478.935119,248.061918 L556.528816,9.16663013 C560.507501,-3.05554338 577.846609,-3.05554338 581.968353,9.16663013 L659.56205,248.061918 Z" id="path86_2_" fill="#E24329"></path>
                <polygon id="polygon9" fill="#FC6D26" points="659.56205 248.061918 349.97512 644.730019 478.933046 248.061918"></polygon>
                <polygon id="polygon11" fill="#FC6D26" points="221.205866 248.061918 349.97512 644.730019 40.5789357 248.061918"></polygon>
            </g>
        </g>
    </g>
</svg>