<svg xmlns="http://www.w3.org/2000/svg" width="1025" height="1024"><g fill="none" fill-rule="evenodd"><path fill="#FFF" d="M.398 0h1024v1024H.398z"/><g fill-rule="nonzero"><path fill="#4285F4" d="M175.594 804.157h124.058V502.803L122.398 369.774v381.148c0 29.405 23.79 53.195 53.196 53.195v.04"/><path fill="#34A853" d="M725.143 804.157H849.2c29.407 0 53.197-23.79 53.197-53.196V369.852L725.143 502.803v301.354"/><path fill="#FBBC04" d="M725.143 272.352v230.451l177.255-133.029V298.95c0-65.714-75.037-103.233-127.648-63.803l-49.607 37.245v-.04"/><path fill="#EA4335" d="M299.653 502.764V272.392l212.745 159.47 212.745-159.51v230.451L512.398 662.274z"/><path fill="#C5221F" d="M122.398 298.912v70.94l177.255 132.951V272.274l-49.608-37.206c-52.65-39.39-127.647-1.871-127.647 63.844"/></g></g></svg>