<svg xmlns="http://www.w3.org/2000/svg" width="1025" height="1024"><g fill="none" fill-rule="evenodd"><path fill="#FFF" d="M.633 0h1024v1024H.633z"/><g fill-rule="nonzero"><path fill="#286FE2" d="M211.764 363.522V678.77L487.453 812.73V495.724z"/><path fill="#C2D3FF" d="m537.199 499.369-.044 317.18L813.37 682.327V365.235z"/><path fill="#F2F3FD" d="M781.933 325.938 516.212 196.853 246.977 325.938 516.212 454.98z"/><path fill="#4A5E8A" d="M862.501 690.493V330.197c0-.395-.043-.834-.087-1.23.131-1.009.22-2.019.22-3.029 0-9.396-5.313-18.001-13.787-22.085L527.013 147.46c-6.718-3.293-14.577-3.25-21.339-.044l-326.137 156.35c-4.698 2.24-8.43 5.928-10.845 10.319a24.732 24.732 0 0 0-6.059 16.07v363.105c0 10.45 6.542 19.363 15.763 22.92 1.58 1.36 3.336 2.59 5.312 3.512l321.834 156.35a24.403 24.403 0 0 0 10.713 2.46c3.689 0 7.377-.79 10.758-2.46l321.834-156.35c10.01-4.917 15.191-15.718 13.435-26.212.132-1.01.22-2.02.22-3.073v.087m-346.29-493.64L781.89 325.938 516.212 455.023 246.977 325.938l269.235-129.085m-304.447 166.67 275.689 132.201V812.73L211.764 678.77V363.522M537.2 499.368l276.215-134.134v317.092L537.2 816.549v-317.18"/><path fill="#C2D3FF" d="m658.82 325.938-143.399-69.68-145.33 69.68 145.33 69.636z"/></g></g></svg>