<?xml version="1.0" encoding="UTF-8"?>
<svg width="1025px" height="1024px" viewBox="0 0 1025 1024" version="1.1" xmlns="http://www.w3.org/2000/svg" xmlns:xlink="http://www.w3.org/1999/xlink">
    <title>Google</title>
    <g id="ICON-新版方图标" stroke="none" stroke-width="1" fill="none" fill-rule="evenodd">
        <g id="Google" transform="translate(0.3975, 0)">
            <rect id="蒙版路径" fill="#FFFFFF" x="0" y="0" width="1024" height="1024"></rect>
            <g id="编组" transform="translate(142, 142)" fill-rule="nonzero">
                <path d="M154.853204,370 C154.853204,345.97034 158.954848,322.918265 166.211602,301.316799 L38.8082395,206.081139 C13.2108062,256.930469 -0.0819522488,313.077185 0,370 C0,428.907355 13.9459689,484.472002 38.7451375,533.792722 L166.085398,438.399386 C158.660393,416.357906 154.866927,393.25728 154.853204,370" id="路径" fill="#FBBC05"></path>
                <path d="M378.613642,151.367937 C431.93501,151.367937 480.113547,169.847439 517.974873,200.121026 L628.119781,92.492116 C561.010581,35.3191855 474.970717,0 378.613642,0 C228.998301,0 100.395996,83.7253899 38.8082395,206.081139 L166.274705,301.316799 C195.617232,214.091025 279.290763,151.367937 378.613642,151.367937" id="路径" fill="#EA4335"></path>
                <path d="M378.613642,588.632063 C279.259212,588.632063 195.585681,525.908975 166.211602,438.683201 L38.8082395,533.918861 C100.364446,656.27461 228.96675,740 378.613642,740 C470.932176,740 559.085963,707.928918 625.280182,647.791699 L504.313245,556.277167 C470.2065,577.311003 427.233895,588.632063 378.582091,588.632063" id="路径" fill="#34A853"></path>
                <path d="M740,370 C740,348.146254 736.529379,324.589619 731.386548,302.735873 L378.582091,302.735873 L378.582091,445.683968 L581.645003,445.683968 C571.517099,494.437058 543.87833,531.900622 504.344796,556.277167 L625.280182,647.791699 C694.787267,584.658655 740,490.621324 740,370" id="路径" fill="#4285F4"></path>
            </g>
        </g>
    </g>
</svg>