<svg xmlns="http://www.w3.org/2000/svg" width="1025" height="1024"><g fill="none" fill-rule="evenodd"><path fill="#FFF" d="M.398 0h1024v1024H.398z"/><g fill-rule="nonzero"><path fill="#1A73E8" d="M588.19 164.632A250.609 250.609 0 0 0 512.67 153c-73.873-.062-143.978 32.673-191.449 89.395l118.044 99.519 148.924-177.282"/><path fill="#EA4335" d="M320.875 242.402c-37.801 45.08-58.513 102.113-58.478 161.029 0 47.044 9.341 85.326 24.73 119.479l151.741-180.996-118.029-99.547.036.035"/><path fill="#4285F4" d="M512.196 307.364c37.247.055 71.084 21.741 86.75 55.597 15.666 33.856 10.319 73.741-13.708 102.256l148.879-177.396c-30.559-58.991-83.243-103.415-146.477-123.509L438.868 341.708c18.161-21.757 45.019-34.323 73.328-34.308v-.036"/><path fill="#FBBC04" d="M511.75 498.94c-52.863-.02-95.717-42.817-95.757-95.628a94.926 94.926 0 0 1 22.387-61.398L286.153 522.559c26.047 57.599 69.243 103.836 113.731 162.115L584.796 465.14a95.4 95.4 0 0 1-73.046 33.8"/><path fill="#34A853" d="M581.546 744.654c83.608-130.562 180.852-189.889 180.852-341.65 0-41.607-10.191-80.847-28.169-115.389L400.407 684.718c14.138 18.544 28.455 38.236 42.342 60.044 50.703 78.445 36.673 125.433 69.398 125.433 32.726 0 18.695-47.132 69.399-125.54"/></g></g></svg>