<svg xmlns="http://www.w3.org/2000/svg" width="1024" height="1024"><g fill="none" fill-rule="evenodd"><path fill="#FFF" d="M0 0h1024v1024H0z"/><path fill="#4989F3" fill-rule="nonzero" d="m470.295 294.735-32.56-93h-222c-40.816.108-73.871 27.803-74 62v403c.129 34.196 33.184 61.891 74 62h259l37 93h296c40.815-.109 73.87-27.804 74-62v-403c-.13-34.197-33.185-61.892-74-62h-337.44"/><path fill="#FFF" fill-rule="nonzero" d="M328.847 546.217c-48.226.06-91.729-30.626-110.188-77.726-18.46-47.1-8.234-101.318 25.9-137.332 22.346-23.65 52.669-36.937 84.288-36.935 29.759-.344 58.446 11.73 79.837 33.603l2.622 1.232-36.422 36.347-1.748-1.54c-11.972-11.906-27.854-18.423-44.29-18.174-38.572.462-69.553 33.764-69.346 74.542-.207 40.78 30.774 74.081 69.347 74.543 28.04 2.258 53.768-16.474 61.771-44.972h-64.394V402.06h115.094l.291 2.772a90.786 90.786 0 0 1 1.457 18.174c0 72.386-46.329 123.21-114.22 123.21"/><path fill="#5F7987" stroke="#979797" d="M800.735 326.235c12.012-.008 22.89 4.855 30.767 12.722 7.877 7.867 12.752 18.739 12.76 30.75l-.06 377.028c0 12.005-4.864 22.876-12.73 30.747-7.865 7.871-18.732 12.744-30.738 12.753l-250.357.22 73.21-61.337-141.88-402.662Z"/><path fill="#E6E7E8" fill-rule="nonzero" d="m600.165 591.715-19.98 16.43-24.05-69.13c12.277 18.881 27.043 36.58 44.03 52.7M548.735 515.455l-12.21-32.24h147.63c-12.022 31.353-31.676 60.276-57.72 84.94-16.232-16.21-30.255-33.886-41.81-52.7C578.933 511.152 573.058 509 567 509s-12.147 2.152-18.265 6.455"/><path fill="#E6E7E8" fill-rule="nonzero" d="M808 822H512l111-93-30.235-86.135 34.04-28.52 96.645 81.275a10 10 0 0 0 6.088 2.34c7.608.26 13.095-1.06 16.462-3.96 3.015-2.598 4.943-6.99 5.782-13.18a10 10 0 0 0-3.499-9.014l-95.578-79.781c33.413-31.175 57.731-68.422 71.04-108.81l30.203-.19a10 10 0 0 0 7.395-3.34C765.115 475.463 767 471.234 767 467c0-4.22-1.874-8.436-5.621-12.648A10 10 0 0 0 753.91 451l-117.855-.024v-28.576a10 10 0 0 0-2.893-7.032C628.957 411.123 624.237 409 619 409c-6.475 0-11.475 3.333-15 10v32l-78.945-.025L470 294h338c9.536.022 29.837 2.144 45 12 17.295 11.24 28.97 31.888 29 41v413c-.026 8.157-.132 26.516-21 44s-42.324 17.976-53 18"/><path fill="#376AD7" d="M475 729h148l-111.265 92.735z"/></g></svg>