<svg xmlns="http://www.w3.org/2000/svg" width="1025" height="1024"><g fill="none" fill-rule="evenodd"><path fill="#FFF" d="M.398 0h1024v1024H.398z"/><g fill-rule="nonzero"><path fill="#FBBB05" d="M327.398 310.103c102.12 0 185 82.88 185 185V512H159.325c-9.33-.017-16.894-7.567-16.927-16.897 0-102.12 82.88-185 185-185"/><path fill="#E94335" d="M714.325 327c0 102.12-82.88 185-185 185h-16.928V158.928c.017-9.342 7.586-16.911 16.928-16.928 102.12 0 185 82.88 185 185"/><path fill="#4285F4" d="M697.398 713.928c-102.12 0-185-82.88-185-185V512H865.47c9.342.017 16.91 7.586 16.928 16.928 0 102.12-82.88 185-185 185"/><path fill="#0F9D58" d="M310.5 697c0-102.12 82.88-185 185-185h16.898v353.073c-.017 9.33-7.567 16.893-16.897 16.927-102.12 0-185-82.88-185-185"/></g></g></svg>