<svg xmlns="http://www.w3.org/2000/svg" width="1024" height="1024"><g fill="none" fill-rule="evenodd"><path fill="#FFF" d="M0 0h1024v1024H0z"/><path fill="#FF5C40" d="M787 117c16.667 4 28.667 11.333 36 22 11 16 11 16 22.141 62.9 7.359 23.6 6.788 88.804 8.359 199.6.448 31.629.615 86.962.5 166-1.956 93.228-3.79 155.228-5.5 186-3.068 55.184-8.822 87.88-11 97.5-2.752 12.154-37.349 34.279-87.5 45-15.166 3.242-40.666 4.909-76.5 5-38.08-.427-63.414-.427-76 0-29.242.991-41.248 4.03-53.5 4-57.077-.14-89.763.972-96.5 0-3.143-.454-1.382-4.298-5-5-.941-.183-3.5 5-6.5 5-5.5 0-8.5-4-12-6-3-.5-6.51 5.979-9.5 5-1.818-.595-5.732.997-8.5 0-2.582-.93-7.223-7.126-12-9-1.764-.692-7.911 6.018-10.5 5-2.282-.897-4 .5-5.5-21.5-1-5.5-8.5 12-8.5 12s-2.088.553-3.5 0c-.91-.356-.218-24.98-1.5-25.5-1.11-.45-2.5-.5-4 0-.782.26.844 13.046-.5 24-.56 4.57-2.9 15.938-6 17.5-3.51 1.769-8-7-9-10-1.85-5.213-.4-12.99-2.5-14-1.088-.523-5.5 4.5-8 5-7-2-21.5-11.5-29-14-3.667-1-10-1.333-19-1L248 871c-20.588-4.958-36.422-12.292-47.5-22-11.078-9.708-19.526-23.153-25.342-40.335L172 655.5l.66-11.672c-3.099 48.3-3.153 46.024-.16-6.828.03-.522 2.47 7.527 2.5 7 .369-6.51-.495-14.822 0-24.5l.296-5.764c.025-.49 4.176 6.307 4.204 5.764.101-1.963 3.348-2.14 3.5-6 .063-1.602 3.429-2.503 3.5-5 .06-2.115-.045-8.659 0-12.5.02-1.724 2.484-2.347 2.5-5 .007-1.065.01-2.336.008-3.812-.001-.985 2.001-2.222 1.992-3.688-.007-1.08-.023-2.5-.05-4.258 0-.005 5.684-4.752 17.05-14.242v-24l-3-5-1.5-59 1.5-24.5-17.5-33-.979-20.449-1.315-6.016L183 391.5V375l-1.195-4.258L180 365l-1.5-18-6-39-2.5-56c.667-20.333 14.333-37.333 41-51 11.548-6.091 42.593-27.93 101-37.5 23.68-5.92 43.5-14 203-10.5 37.707 3.733 88 3 151.5-16 18.202-4.984 43.015-5.861 71.5-10 12.667-6 29-9.333 49-10"/><path fill="#FFF" d="M603 250.988v-38.011c5.998-3.334 13.18-6.01 21.546-8.025 8.366-2.016 17.034-3.033 26.002-3.052 1.09 6.084 2.418 14.561 3.986 25.43 1.568 10.868 3.01 23.615 4.327 38.239 4.61 14.7 7.006 63.66 7.19 146.88 2.334 82.794 5.374 205.223 9.12 367.286.452 13.168-.646 23.2-3.294 30.097-7.91 9.076-16.313 13.423-25.21 13.04-3.286-.796-5.682-1.402-7.188-1.82-11.601-3.217-19.56-6.957-23.876-11.22-5.155-5.092-9.356-15.125-12.603-30.097V520.522c-39.637 3.964-74.086 6.537-103.348 7.719a1087.967 1087.967 0 0 1-87.808 0l10.084 270.242c-2.635 11.926-8.955 19.45-18.961 22.57-15.009 4.68-38.935-7.792-45.1-17.605-4.11-6.542-6.973-14.447-8.59-23.713 2.663-231.06 4.496-372.215 5.5-423.466a4291.06 4291.06 0 0 1 5.817-154.369l39.2 8.433 12.05 268.714L603 462.652V250.988"/></g></svg>