<svg xmlns="http://www.w3.org/2000/svg" width="1024" height="1024"><defs><filter id="a" width="115%" height="106.8%" x="-7.5%" y="-3.4%" filterUnits="objectBoundingBox"><feGaussianBlur in="SourceGraphic" stdDeviation="8"/></filter><filter id="b" width="115%" height="106.8%" x="-7.5%" y="-3.4%" filterUnits="objectBoundingBox"><feGaussianBlur in="SourceGraphic" stdDeviation="8"/></filter></defs><g fill="none" fill-rule="evenodd"><path fill="#FFF" d="M0 0h1024v1024H0z"/><g fill="#B5B5B5" fill-rule="nonzero"><path d="M537.833 708 632 706.893 599.457 134.21S536.17 82.06 423.862 71.547c-.554.692 3.878-39.977 1.108-46.478C422.616 19.536 379.825-2.874 311 .308v14.524c31.574-.83 64.117 3.32 77.965 10.237 6.509 3.32 7.34 17.706 1.246 22.132-6.37 4.565-55.808 2.352-55.808 2.352l-5.816 614.597s109.816-8.023 154.684-37.21c-.831.414 0-97.523 0-97.523l-61.624 12.726-1.108-23.239 63.978-10.513 3.462-128.923s11.079-9.268 23.265-1.107C510.83 379.468 537.833 708 537.833 708" filter="url(#a)" transform="translate(196 158)"/><path d="M0 706.893 32.557 134.21s63.314-52.15 175.67-62.663c.555.692-3.879-39.977-1.246-46.478C209.336 19.536 252.145-2.874 321 .308v14.524c-31.587-.83-64.145 3.32-77.999 10.237-6.511 3.32-7.342 17.706-1.108 22.132 6.373 4.565 55.832 2.352 55.832 2.352l5.819 614.597s-109.863-8.023-154.75-37.21c.83.414 0-97.523 0-97.523l61.65 12.726 1.108-23.239-64.006-10.513-3.463-128.923S133 370.2 120.808 378.361c.416 1.107-26.6 329.639-26.6 329.639L0 706.893" filter="url(#b)" transform="translate(196 158)"/></g><g fill="#000" fill-rule="nonzero"><path d="M733.833 803 828 801.893 795.457 229.21s-63.286-52.15-175.595-62.663c-.554.692 3.878-39.977 1.108-46.478-2.354-5.533-45.145-27.943-113.97-24.761v14.524c31.574-.83 64.117 3.32 77.965 10.237 6.509 3.32 7.34 17.706 1.246 22.132-6.37 4.565-55.808 2.352-55.808 2.352l-5.816 614.597s109.816-8.023 154.684-37.21c-.831.414 0-97.523 0-97.523l-61.624 12.726-1.108-23.239 63.978-10.513 3.462-128.923s11.079-9.268 23.265-1.107C706.83 474.468 733.833 803 733.833 803"/><path d="M290.208 803 196 801.893l32.557-572.683s63.314-52.15 175.67-62.663c.555.692-3.879-39.977-1.246-46.478 2.355-5.533 45.164-27.943 114.019-24.761v14.524c-31.587-.83-64.145 3.32-77.999 10.237-6.511 3.32-7.342 17.706-1.108 22.132 6.373 4.565 55.832 2.352 55.832 2.352l5.819 614.597s-109.863-8.023-154.75-37.21c.83.414 0-97.523 0-97.523l61.65 12.726 1.108-23.239-64.006-10.513-3.463-128.923S329 465.2 316.808 473.361c.416 1.107-26.6 329.639-26.6 329.639"/></g></g></svg>