<?xml version="1.0" encoding="UTF-8"?>
<svg width="1024px" height="1024px" viewBox="0 0 1024 1024" version="1.1" xmlns="http://www.w3.org/2000/svg" xmlns:xlink="http://www.w3.org/1999/xlink">
    <title>Jav.library</title>
    <g id="ICON-新版方图标" stroke="none" stroke-width="1" fill="none" fill-rule="evenodd">
        <g id="Jav.library">
            <rect id="蒙版路径" fill="#F908BB" x="0" y="0" width="1024" height="1024"></rect>
            <g id="编组" transform="translate(43.4385, 787.5732)" fill-rule="nonzero">
                <g id="library" transform="translate(472.689, 34.1468)" fill="#3C3C3C" stroke="#9F9B9E" stroke-width="4">
                    <path d="M17.39,-2 L17.39,100.28 L-2,100.28 L-2,-2 L17.39,-2 Z" id="路径"></path>
                    <path d="M44.89,26.485 L64.28,26.485 L64.28,100.28 L44.89,100.28 L44.89,26.485 Z M54.585,-2 C58.0982099,-2 61.1191089,-0.858269662 63.5096365,1.37288946 C65.8158615,3.6774344 67.115,6.57605263 67.115,10.125 C67.115,13.6869283 65.7983939,16.7499369 63.3746365,19.0121105 C60.9774629,21.2494726 58.1054915,22.385 54.585,22.385 C51.0645085,22.385 48.1925371,21.2494726 45.7953635,19.0121105 C43.3350918,16.553519 42.19,13.6664286 42.19,10.125 C42.19,6.54726519 43.3642217,3.64195516 45.7953635,1.37288946 C48.1925371,-0.864472555 51.0645085,-2 54.585,-2 Z" id="形状"></path>
                    <path d="M109.955,-2 L109.955,32.6504019 C115.354071,27.2274727 121.681353,24.595 128.745,24.595 C139.406653,24.595 147.745125,28.5113678 153.93456,36.2841464 C159.465827,43.3753501 162.335,52.2805323 162.335,63.045 C162.335,74.232314 159.454344,83.4123823 153.796738,90.4843901 C147.466466,98.2534869 138.862643,102.17 127.935,102.17 C120.109738,102.17 113.768868,100.037208 108.875,95.841673 L108.875,100.28 L90.565,100.28 L90.565,-2 L109.955,-2 Z M125.1,41.015 C120.733183,41.015 117.204851,42.8042487 114.343583,46.3797419 C110.964408,50.3846904 109.415,55.9133536 109.415,62.775 L109.415,63.855 C109.415,70.1341096 110.61411,75.4343443 113.383084,79.4619424 C116.240118,83.628448 120.292987,85.75 125.64,85.75 C131.590899,85.75 136.053943,83.6833088 138.935015,79.3893019 C141.34275,75.5887573 142.54,70.1236609 142.54,63.045 C142.54,56.0171677 141.234076,50.7087066 138.721029,47.0535528 C135.828095,42.9549931 131.204973,41.015 125.1,41.015 Z" id="形状"></path>
                    <path d="M218.025,24.595 C222.279001,24.595 225.936141,25.4132777 228.8,27.1753364 L228.8,46.5603769 C224.467992,44.8544147 220.638844,44.255 216.81,44.255 C213.277241,44.255 210.110187,45.5732398 207.289214,48.3942136 C203.863566,51.6979755 202.34,55.9644638 202.34,61.29 L202.34,100.28 L183.085,100.28 L183.085,26.485 L202.34,26.485 L202.34,31.9636725 C203.398439,30.740498 204.527068,29.6833797 205.734537,28.789202 C209.185149,25.9588433 213.226832,24.595 218.025,24.595 Z" id="路径"></path>
                    <path d="M278.55,24.595 C289.510121,24.595 297.647624,27.4580468 302.817744,32.915201 C307.436091,37.6886535 309.845,44.5949434 309.845,53.73 L309.845,100.28 L291.535,100.28 L291.535,94.1721091 C289.409132,96.0632854 287.02495,97.605885 284.414498,98.8661033 C279.684179,101.016836 274.14597,102.17 267.75,102.17 C259.881887,102.17 253.797072,100.067424 249.287991,96.1401534 C244.513605,91.9625657 242.125,86.7410124 242.125,80.325 C242.125,71.7622343 245.407946,65.1451576 252.187115,60.5757497 C258.117958,56.3574563 266.419541,54.0380039 277.146921,53.7557045 L290.455,53.4023926 L290.455,52.65 C290.455,48.7731138 289.507484,45.8207584 287.381173,43.8860063 C285.182309,41.8852388 281.841999,41.015 277.47,41.015 C273.616019,41.015 270.575989,41.5496072 268.277986,43.0009778 C265.286748,44.7695459 263.46127,47.6166231 263.091764,51.5506775 L243.827243,50.0163351 C245.100607,40.5571459 249.354471,33.7157166 256.476364,29.5947981 C261.8616,26.2137933 269.203397,24.595 278.55,24.595 Z M290.455,68.477959 L278.330474,68.8243741 C272.708435,68.9472598 268.464278,69.9124042 265.655173,71.8953021 C263.120018,73.684823 261.92,76.3371596 261.92,79.785 C261.92,81.5806388 262.633889,83.0666667 264.225,84.26 C266.070246,85.6439344 268.383339,86.425 271.26,86.425 C276.67141,86.425 281.2361,84.85366 284.934771,81.7833927 C288.527146,78.6705494 290.455,74.7230197 290.455,69.93 L290.455,68.477959 Z" id="形状"></path>
                    <path d="M368.235,24.595 C372.489001,24.595 376.146141,25.4132777 379.01,27.1753364 L379.01,46.5603769 C374.677992,44.8544147 370.848844,44.255 367.02,44.255 C363.487241,44.255 360.320187,45.5732398 357.499214,48.3942136 C354.073566,51.6979755 352.55,55.9644638 352.55,61.29 L352.55,100.28 L333.295,100.28 L333.295,26.485 L352.55,26.485 L352.55,31.9636725 C353.608439,30.740498 354.737068,29.6833797 355.944537,28.789202 C359.395149,25.9588433 363.436832,24.595 368.235,24.595 Z" id="路径"></path>
                    <path d="M407.739534,26.485 L424.802925,72.3195115 L441.119015,26.485 L462.201106,26.485 L422.834673,127.01 L401.953629,127.01 L415.11624,96.6347428 L386.639612,26.485 L407.739534,26.485 Z" id="路径"></path>
                </g>
                <g id="JAV" fill="#ED49BA" stroke="#FFC700" stroke-width="10">
                    <path d="M111.501465,-5 L111.501465,71.9946289 C111.501465,87.8258762 110.02074,99.8530124 107.215994,108.109683 C104.207556,116.965981 98.225131,124.532051 89.1141133,130.696383 C80.285072,136.669935 69.005675,139.775391 55.1928711,139.775391 C40.8493625,139.775391 29.7807744,137.712081 21.9120541,133.842219 C13.6440517,129.775988 7.26376486,123.822905 2.75795217,115.997019 C-2.17759863,107.424747 -4.89409622,96.5717161 -5.20629953,83.3756032 L44.1625604,76.6486684 C43.9713121,84.7016137 44.2463534,90.4413947 45.3826636,93.779306 C46.0063435,95.6113657 47.0414086,97.1076792 48.5167904,98.2471153 C49.3909361,98.8615114 50.6749404,98.972168 52.2119141,98.972168 C54.7870122,98.972168 56.8110379,98.1806176 58.0502706,96.2083178 C59.8576537,93.3317784 60.4907227,88.4110115 60.4907227,81.6601562 L60.4907227,-5 L111.501465,-5 Z" id="路径"></path>
                    <path d="M228.900877,-5 L282.432353,137.426758 L228.665204,137.426758 L222.161298,115.566406 L183.02278,115.566406 L176.609205,137.426758 L123.820903,137.426758 L177.352378,-5 L228.900877,-5 Z M202.689768,51.3909076 L194.88715,76.9311523 L210.540849,76.9311523 L202.689768,51.3909076 Z" id="形状"></path>
                    <path d="M326.913034,-5 L353.011237,78.4351633 L378.714012,-5 L431.14687,-5 L378.295468,137.426758 L327.009067,137.426758 L273.186131,-5 L326.913034,-5 Z" id="路径"></path>
                </g>
            </g>
            <g id="编组" transform="translate(296, 91)" fill="#FFFFFF" stroke="#979797">
                <path d="M441.5,464.5 L441.5,493.5 L261.052876,493.5 C255.981277,492.121277 251.24396,488.392434 246.817511,482.352689 C242.481639,476.436532 240.050467,470.487332 239.539333,464.5 L441.5,464.5 Z" id="矩形"></path>
                <path d="M567.5,351.5 L567.5,380.5 L387.052876,380.5 C381.981277,379.121277 377.24396,375.392434 372.817511,369.352689 C368.481639,363.436532 366.050467,357.487332 365.539333,351.5 L567.5,351.5 Z" id="矩形" transform="translate(466.5, 366) scale(-1, 1) rotate(68) translate(-466.5, -366)"></path>
                <path d="M49.2479996,210.542696 C77.9600459,193.138747 111.045353,187.770263 148.5,194.418611 L148.5,475.117035 L187.824053,436.368365 C195.939423,430.486192 203.017555,426.800499 209.065409,425.328365 C214.995841,423.884813 219.920454,424.581795 223.825374,427.473028 C227.714031,430.352218 229.495643,434.762021 229.227432,440.671338 C228.953021,446.717239 226.549691,454.309523 222.039841,463.452696 L179.310727,511.977962 L390.531357,511.977962 C392.98565,539.565648 388.325924,559.980909 376.469168,573.187059 C364.520349,586.49575 345.560813,592.132077 319.636327,590.185428 L291.469943,624.5 L0.5,624.5 L0.499999997,284.346305 C4.23009931,252.577462 20.4832036,227.978618 49.2479996,210.542696 Z" id="矩形"></path>
                <circle id="椭圆形" cx="149" cy="90" r="89.5"></circle>
            </g>
        </g>
    </g>
</svg>