<svg xmlns="http://www.w3.org/2000/svg" width="1025" height="1024"><defs><linearGradient id="a" x1="50.006%" x2="50.114%" y1="49.997%" y2="-9.113%"><stop offset="0%" stop-color="#1B75BC"/><stop offset="100%" stop-color="#00AEEF"/><stop offset="100%"/></linearGradient></defs><g fill="none" fill-rule="evenodd"><path fill="#FFF" d="M.398 0h1024v1024H.398z"/><g fill-rule="nonzero"><path fill="#D1D3D4" d="M884.027 495.832c9.058 203.98-149.191 377.19-353.753 385.805a369.423 369.423 0 0 1-266.052-96.8 369.603 369.603 0 0 1-119.454-256.732c-9.058-203.962 149.208-377.19 353.582-385.77 203.93-8.599 376.654 149.706 385.711 353.839l-.034-.342"/><path fill="#000" d="M501.05 205.65C670.153 198.418 813.5 329.578 821.19 498.72c7.229 169.142-123.9 312.524-293 320.2-169.101 7.23-312.448-123.93-320.122-293.072-7.69-169.604 123.438-312.986 293-320.2h-.016"/><path fill="#ED1C24" d="m779.149 543.934-41.152-5.419a213.38 213.38 0 0 0 0-58.802l41.152-5.419a299.041 299.041 0 0 1 0 69.657v-.017"/><path fill="#EF4136" d="M751.105 385.646c10.852 20.803 18.97 42.974 23.96 65.572l-40.674 9.06c-4.067-18.975-10.852-37.539-19.892-55.18l36.606-19.452"/><path fill="#BE1E2D" d="m751.105 632.582-37.085-18.974c9.058-17.64 15.825-36.188 20.337-55.179l40.673 9.06c-4.956 22.153-13.108 44.324-23.96 64.956l.035.137"/><path fill="#F15A29" d="m739.347 365.92-34.811 22.153c-10.425-16.29-23.071-31.657-37.973-45.23l28.027-30.768a264.767 264.767 0 0 1 44.757 53.828v.017"/><path fill="#F7941D" d="m676.953 296.998-25.344 33.025a213.948 213.948 0 0 0-51.097-29.401l15.825-38.46c21.259 9.059 41.596 20.34 60.582 34.82l.034.016"/><path fill="#D1D3D4" d="M592.394 673.743H623.6v31.214h-31.206v-31.214m-62.377 0h31.36v31.214H530.17l-.154-31.214m-4.067-431.445a255.262 255.262 0 0 1 68.734 12.205l-12.646 39.794c-17.637-5.418-36.179-9.06-54.687-9.948l-2.734-17.64 1.333-24.41"/><path fill="#E6E7E8" d="M514.175 496.448c9.502 0 17.637 7.692 17.637 17.64 0 9.504-7.69 17.64-17.637 17.64-9.501 0-17.636-7.691-17.636-17.64.444-9.948 8.135-17.64 17.636-17.64"/><path fill="url(#a)" d="M409.118 368.499c0 31.213-17.636 56.528-39.34 56.528-21.704 0-39.34-25.332-39.34-56.528l3.161-23.077 35.888-243.756 35.888 243.756 3.743 23.077m-21.704 3.162c0-9.504-7.69-17.64-17.636-17.64-9.502 0-17.637 7.691-17.637 17.64 0 9.504 7.69 17.64 17.637 17.64 9.946 0 17.636-7.692 17.636-17.64" transform="translate(144.398 142)"/><path fill="#D1D3D4" d="M433.684 254.042c22.148-6.787 45.218-10.855 68.734-12.205l.905 24.871-2.255 16.752c-18.543.906-37.085 4.53-54.687 9.948l-12.697-39.366m33.46 419.701h31.206v31.214h-31.205v-31.214m-62.376 0h31.206v31.214h-31.206v-31.214m-53.354-376.745c18.799-14.478 39.34-26.239 60.583-34.82l15.825 38.461a213.948 213.948 0 0 0-51.098 29.401l-25.31-33.042m-17.653 15.384 28.027 30.77-14.014 14.016a218.622 218.622 0 0 0-23.96 31.213l-35.272-22.153c8.135-13.111 17.636-25.333 28.488-37.094 5.435-6.324 10.852-11.76 16.748-16.752h-.017M313.869 613.78l-37.085 18.803a266.532 266.532 0 0 1-23.96-65.572l40.674-9.06c4.529 18.804 11.28 37.983 20.507 55.624l-.136.205m-23.533-75.264-41.151 5.419a256.638 256.638 0 0 1 0-69.657l41.151 5.419a213.38 213.38 0 0 0 0 58.802v.017m-37.05-87.127a264.652 264.652 0 0 1 23.96-65.571l37.084 18.803a244.478 244.478 0 0 0-20.336 55.179l-40.708-8.41"/></g></g></svg>