<svg xmlns="http://www.w3.org/2000/svg" width="1024" height="1024"><g fill="none" fill-rule="evenodd"><path fill="#FFF" d="M0 0h1024v1024H0z"/><path fill="#DB2D2D" d="M343 159.5c10.868 0 40.449 6.771 51.5 31 4.21 9.232 10.293 20.744 10.5 33 .325 19.21-12.713 83.384-12 99.5.43 9.736-1.465 25.315 1.5 43.5.543 3.333 6.5 38.5 24 68.5 2.696 3.64 12.721 24.537 44 53.5 7.12 6.593 21.286 16.76 42.5 30.5-2.734.345-11.567-2.321-26.5-8-8.913-3.39-30.566-10.752-59-28.5-8.387-5.235-38.777-19.37-72.5-54.5-7.753-8.076-37.11-33.277-56-78.5-5.57-13.332-19.5-45-17.5-90.5-.38-29.898 4-49.5 13-67 17.484-29.564 47.026-32.5 56.5-32.5"/><path fill="#EA8F1A" d="M614.348 136.89c8.326 6.987 26.633 31.188 19.525 56.852-2.708 9.778-5.45 22.506-13.168 32.028-12.1 14.925-63.337 55.704-73.15 68.508-5.929 7.736-17.395 18.45-26.813 34.287-1.725 2.903-19.768 33.671-25.645 67.901-.275 4.522-6.028 26.974-.684 69.266 1.217 9.627 5.534 26.521 12.952 50.683-2.316-1.492-7.368-9.213-15.158-23.162-4.648-8.325-16.504-27.884-26.877-59.757-3.06-9.4-17.253-39.764-20.506-88.351-.748-11.17-7.038-49.346 7.56-96.13 4.304-13.794 13.988-47.007 44.767-80.577 18.926-23.147 34.882-35.348 53.025-42.968 32.398-11.41 56.915 5.33 64.172 11.42"/><path fill="#E8DD36" d="M836.172 293.597c1.888 10.704.356 41.01-21.586 56.101-8.36 5.75-18.642 13.739-30.675 16.071-18.862 3.656-84.325 1.96-100.073 5.46-9.513 2.115-25.184 2.953-42.578 9.031-3.188 1.114-36.787 13.087-63.292 35.53-3.117 3.288-21.955 16.79-45.047 52.622-5.256 8.157-12.808 23.874-22.656 47.15-.815-2.631.277-11.793 3.276-27.486 1.79-9.365 5.281-31.968 17.822-63.052 3.7-9.169 12.343-41.552 41.083-80.863 6.607-9.038 26.327-42.324 67.583-68.78 12.163-7.8 40.93-27.018 86.086-32.95 29.378-5.566 49.443-4.656 68.24 1.168 32.151 12.085 40.172 40.668 41.817 49.998"/><path fill="#58BD2C" d="M905.91 556.178c-5.434 9.412-26.089 31.644-52.597 29.1-10.1-.97-23.111-1.458-33.829-7.407-16.798-9.323-65.856-52.701-80.17-60.142-8.647-4.495-21.19-13.926-38.421-20.45-3.158-1.197-36.592-13.622-71.323-13.466-4.5.515-27.61-1.252-68.333 11.355-9.269 2.87-25.157 10.055-47.663 21.556 1.067-2.54 7.793-8.857 20.178-18.95 7.391-6.024 24.594-21.095 54.182-36.845 8.727-4.646 36.164-23.896 83.448-35.537 10.871-2.676 47.373-15.5 95.983-9.247 14.33 1.843 48.721 5.612 87.125 30.094 26.083 14.62 40.869 28.214 51.524 44.758 16.861 29.924 4.633 56.976-.104 65.181"/><path fill="#22AFAF" d="M799.286 792.65c-10.077 4.072-40.04 8.875-59.363-9.45-7.362-6.982-17.314-15.377-22.098-26.663-7.497-17.69-19.448-82.075-26.147-96.75-4.047-8.867-8.124-24.02-17.686-39.771-1.752-2.887-20.449-33.262-47.913-54.522-3.863-2.365-20.986-17.984-60.837-33.121-9.071-3.446-26.015-7.565-50.831-12.359 2.405-1.344 11.594-2.18 27.567-2.51 9.533-.195 32.368-1.48 65.38 4.324 9.737 1.712 43.21 3.434 87.637 23.372 10.214 4.584 46.873 16.953 81.329 51.806 10.158 10.276 34.937 34.419 50.128 77.355 11.552 27.578 14.834 47.394 13.045 66.991-5.136 33.961-31.427 47.75-40.211 51.299"/><path fill="#327AB8" d="M544.039 914.974c-10.213-3.717-35.694-20.198-37.792-46.745-.8-10.115-2.577-23.013 1.42-34.601 6.265-18.162 40.465-74.007 45.307-89.395 2.926-9.297 10.036-23.287 13.469-41.39.629-3.317 7.06-38.401.875-72.577-1.288-4.343-3.561-27.408-23.048-65.323-4.436-8.63-14.27-23.029-29.505-43.196 2.687.61 10.075 6.137 22.165 16.58 7.216 6.234 25.046 20.558 45.695 46.961 6.09 7.788 29.813 31.465 49.487 76.01 4.524 10.241 23.49 43.962 25.775 92.919.673 14.433 2.933 48.956-14.509 91.028-9.868 28.225-20.688 45.146-35.131 58.513-26.542 21.801-55.306 14.456-64.208 11.216"/><path fill="#8556B3" d="M287.834 847.411c-5.597-9.316-15.028-38.159.048-60.11 5.745-8.364 12.48-19.507 22.879-25.997 16.298-10.172 78.022-32.048 91.468-40.96 8.124-5.384 22.454-11.782 36.515-23.69 2.576-2.182 29.653-25.4 46.355-55.852 1.731-4.186 14.48-23.542 23.196-65.27 1.984-9.498 3.403-26.878 4.255-52.138 1.704 2.165 3.968 11.11 6.791 26.835 1.685 9.385 6.527 31.738 5.958 65.251-.168 9.885 3.368 43.215-9.375 90.215-2.93 10.805-9.411 48.948-38.446 88.431-8.56 11.64-28.53 39.892-68.56 61.612-25.432 15.725-44.49 22.066-64.126 23.364-34.347.24-52.078-23.57-56.958-31.69"/><path fill="#E14EC6" d="M128.104 620.5c1.888-10.703 13.693-38.658 39.472-45.334 9.823-2.544 22.216-6.534 34.322-4.61 18.975 3.016 79.91 27 95.905 29.095 9.663 1.267 24.676 5.84 43.1 6.077 3.376.043 39.043.284 71.626-11.74 4.054-2.024 26.374-8.267 60.328-34.042 7.729-5.867 20.201-18.053 37.417-36.558-.135 2.752-4.295 10.988-12.48 24.708-4.886 8.189-15.896 28.235-38.312 53.155-6.612 7.35-25.81 34.824-66.262 61.935-9.3 6.233-39.215 30.767-87.032 41.518-14.097 3.169-47.702 11.39-92.164 1.519-29.51-4.817-48.053-12.535-63.724-24.437-26.08-22.353-23.84-51.955-22.196-61.286"/><path fill="#F30E4F" d="M146.568 363.555c8.077-7.272 34.59-22.033 59.015-11.422 9.307 4.043 21.53 8.528 29.885 17.498 13.095 14.058 46.347 70.473 57.66 81.972 6.836 6.948 15.85 19.793 30.222 31.323 2.634 2.113 30.592 24.262 63.671 34.847 4.44.9 25.872 9.722 68.497 10.316 9.703.135 27.033-1.789 51.992-5.772-1.8 2.086-10.149 6.015-25.046 11.787-8.891 3.445-29.91 12.463-62.916 18.299-9.735 1.721-41.778 11.551-90.345 8.01-11.166-.814-49.845.102-94.143-20.865-13.06-6.182-44.603-20.394-73.562-55.545-20.288-21.963-30.15-39.462-35.17-58.49-6.79-33.67 13.2-55.618 20.24-61.958"/></g></svg>