<svg xmlns="http://www.w3.org/2000/svg" width="1025" height="1024"><g fill="none" fill-rule="nonzero"><path fill="#FFF" d="M.633 0h1024v1024H.633z"/><path fill="#000" d="M552.458 376.925v-6.61l-20.455 1.43c-5.807.357-10.184 1.607-13.131 3.662-2.948 2.144-4.377 5.002-4.377 8.754 0 3.662 1.429 6.52 4.377 8.664 2.858 2.144 6.788 3.216 11.612 3.216 3.126 0 5.985-.447 8.665-1.43 2.68-.982 5.002-2.232 6.967-3.93a18.975 18.975 0 0 0 4.645-5.984c1.161-2.412 1.697-5.003 1.697-7.772M512.172 111.54c-223.224 0-400 176.775-400 400s176.776 400 400 400c223.225 0 400-176.775 400-400s-176.775-400-400-400m77.624 237.07c1.876-5.27 4.556-9.826 8.04-13.667 3.483-3.751 7.592-6.7 12.416-8.754 4.823-2.054 10.272-3.037 16.257-3.037 5.36 0 10.272.804 14.56 2.412 4.377 1.608 8.04 3.752 11.166 6.52 3.126 2.68 5.538 5.896 7.414 9.47a32.671 32.671 0 0 1 3.216 11.522h-16.08c-.446-2.233-1.16-4.287-2.143-6.163-1.072-1.876-2.412-3.573-4.109-5.002-1.697-1.43-3.752-2.501-5.985-3.305-2.322-.804-4.913-1.162-7.771-1.162-3.394 0-6.52.715-9.29 2.055-2.769 1.34-5.18 3.305-7.146 5.806-1.965 2.501-3.484 5.538-4.556 9.2-1.071 3.574-1.607 7.593-1.607 11.97 0 4.556.536 8.665 1.607 12.238 1.072 3.573 2.59 6.61 4.645 9.111 1.966 2.501 4.377 4.377 7.236 5.717 2.769 1.34 5.895 1.965 9.2 1.965 5.539 0 10.005-1.25 13.4-3.84 3.483-2.591 5.716-6.343 6.788-11.345h16.079c-.447 4.377-1.698 8.396-3.663 12.059-1.965 3.662-4.555 6.7-7.593 9.29-3.126 2.59-6.788 4.555-11.076 5.895-4.198 1.43-8.932 2.144-13.935 2.144-5.984 0-11.433-.983-16.346-2.948-4.824-1.965-9.022-4.823-12.506-8.575-3.484-3.752-6.163-8.218-8.04-13.578-1.875-5.36-2.858-11.344-2.858-18.043-.089-6.7.804-12.595 2.68-17.955m-228.495-24.296h16.079v14.292h.268c.983-2.412 2.233-4.556 3.84-6.342 1.609-1.876 3.395-3.484 5.45-4.824 2.054-1.34 4.377-2.322 6.789-3.037 2.5-.715 5.091-1.072 7.86-1.072 5.896 0 10.898 1.43 14.918 4.198 4.109 2.859 6.967 6.878 8.664 12.149h.447c1.072-2.501 2.5-4.824 4.287-6.79 1.787-1.964 3.752-3.75 6.075-5.18 2.233-1.43 4.823-2.501 7.503-3.216 2.68-.714 5.538-1.161 8.575-1.161 4.11 0 7.86.625 11.255 1.965 3.395 1.34 6.253 3.216 8.665 5.628 2.412 2.412 4.287 5.36 5.538 8.754 1.25 3.394 1.965 7.235 1.965 11.433v57.437h-16.793v-53.328c0-5.538-1.43-9.826-4.288-12.863-2.858-3.037-6.878-4.555-12.148-4.555-2.59 0-4.913.446-7.146 1.34-2.144.893-4.02 2.143-5.538 3.84-1.519 1.609-2.77 3.574-3.663 5.896-.893 2.233-1.34 4.734-1.34 7.504v52.344h-16.435V353.88c0-2.411-.358-4.645-1.162-6.61-.714-1.965-1.786-3.662-3.215-5.091-1.43-1.43-3.127-2.501-5.092-3.216a19.48 19.48 0 0 0-6.7-1.161c-2.59 0-5.002.446-7.235 1.429-2.233.983-4.109 2.322-5.627 4.02a16.768 16.768 0 0 0-3.663 6.074c-.803 2.322-2.233 4.823-2.233 7.592v51.72h-15.9v-84.323m36.535 403.662c-73.783 0-119.965-51.273-119.965-133.006s46.182-133.184 119.965-133.184c73.782 0 119.785 51.451 119.785 133.184S471.53 727.975 397.836 727.975m136.489-319.518a32.61 32.61 0 0 1-8.307 1.072c-4.199 0-8.04-.625-11.523-1.786-3.484-1.162-6.521-2.859-9.022-5.092-2.501-2.144-4.466-4.823-5.896-7.86-1.429-3.127-2.143-6.521-2.143-10.273 0-7.414 2.769-13.22 8.307-17.33 5.538-4.197 13.488-6.61 23.94-7.234l22.777-1.34v-6.521c0-4.824-1.518-8.575-4.645-11.076-3.126-2.502-7.414-3.841-13.13-3.841-2.234 0-4.378.267-6.343.803-1.965.536-3.662 1.43-5.18 2.412-1.52 1.072-2.77 2.323-3.752 3.841a13.358 13.358 0 0 0-2.055 4.913h-15.81c.089-3.752.982-7.146 2.769-10.362 1.786-3.215 4.109-5.895 7.056-8.218 2.948-2.322 6.521-4.109 10.54-5.448 4.02-1.251 8.487-1.966 13.22-1.966 5.092 0 9.737.626 13.936 1.966 4.198 1.34 7.771 3.126 10.719 5.538 2.948 2.412 5.18 5.27 6.789 8.664 1.607 3.395 2.411 7.236 2.411 11.345v57.883h-16.078v-14.024h-.447c-1.161 2.233-2.68 4.376-4.556 6.163-1.875 1.876-3.93 3.394-6.163 4.734-2.144 1.34-4.645 2.323-7.414 3.037m106.119 319.518c-56.275 0-94.507-29.477-97.097-75.748h36.623c2.859 26.44 28.406 43.948 63.422 43.948 33.586 0 57.704-17.508 57.704-41.447 0-20.724-14.65-33.23-48.593-41.804l-33.05-8.218c-47.522-11.791-69.139-33.408-69.139-68.96 0-43.77 38.232-74.14 92.63-74.14 53.239 0 90.31 30.55 91.738 74.498h-36.266c-2.501-26.44-24.118-42.698-56.275-42.698-31.979 0-54.131 16.436-54.131 40.196 0 18.759 13.934 29.835 47.878 38.41l27.87 6.968c53.06 12.863 74.855 33.765 74.855 71.282 0 47.878-37.785 77.713-98.17 77.713M397.836 494.567c-50.559 0-82.09 38.768-82.09 100.313 0 61.456 31.62 100.134 82.09 100.134 50.38 0 82.09-38.767 82.09-100.134 0-61.545-31.8-100.313-82.09-100.313"/></g></svg>