<?xml version="1.0" encoding="UTF-8"?>
<svg width="1025px" height="1024px" viewBox="0 0 1025 1024" version="1.1" xmlns="http://www.w3.org/2000/svg" xmlns:xlink="http://www.w3.org/1999/xlink">
    <title>Mdc.x</title>
    <g id="ICON-新版方图标" stroke="none" stroke-width="1" fill="none" fill-rule="evenodd">
        <g id="Mdc.x" transform="translate(0.061, 0)">
            <rect id="蒙版路径" fill="#000000" x="0" y="0" width="1024" height="1024"></rect>
            <path d="M501.75,416.75 C558.189735,367.566943 609.023068,327.400276 654.25,296.25 C699.476932,265.099724 773.310265,219.01639 875.75,158 L835,285.75 L630,522.75 C629.00015,523.832207 628.416817,524.998874 628.25,526.25 C628.083183,527.501126 628.333183,528.83446 629,530.25 L802.25,710.25 L802.25,730.5 L654.25,730.5 L531.75,622 C528.849215,619.610488 526.682548,618.443822 525.25,618.5 C523.817452,618.556178 521.734118,619.889512 519,622.5 L409.25,719.75 L148.75,871.5 L242.5,710.25 L408,511 C409,509.666667 409.416667,508.166667 409.25,506.5 C409.083333,504.833333 408.5,503.333333 407.5,502 L225.25,305.5 L381,305.5 C396.749186,322.855531 414.83252,340.938864 435.25,359.75 C455.66748,378.561136 477.834147,397.561136 501.75,416.75 Z" id="多边形" fill="#E8E6E6"></path>
        </g>
    </g>
</svg>