<svg xmlns="http://www.w3.org/2000/svg" width="1025" height="1024"><g fill="none" fill-rule="evenodd"><path fill="#000" d="M.061 0h1024v1024H.061z"/><path fill="#E8E6E6" d="M501.811 416.75c56.44-49.183 107.273-89.35 152.5-120.5 45.227-31.15 119.06-77.234 221.5-138.25l-40.75 127.75-205 237c-1 1.082-1.583 2.249-1.75 3.5-.167 1.251.083 2.584.75 4l173.25 180v20.25h-148L531.811 622c-2.9-2.39-5.067-3.556-6.5-3.5-1.433.056-3.516 1.39-6.25 4l-109.75 97.25-260.5 151.75 93.75-161.25L408.061 511c1-1.333 1.417-2.833 1.25-4.5a8.827 8.827 0 0 0-1.75-4.5l-182.25-196.5h155.75c15.75 17.356 33.833 35.439 54.25 54.25s42.584 37.811 66.5 57"/></g></svg>