<?xml version="1.0" encoding="UTF-8"?>
<svg width="1025px" height="1024px" viewBox="0 0 1025 1024" version="1.1" xmlns="http://www.w3.org/2000/svg" xmlns:xlink="http://www.w3.org/1999/xlink">
    <title>Musicbrainz</title>
    <g id="ICON-新版方图标" stroke="none" stroke-width="1" fill="none" fill-rule="evenodd">
        <g id="Musicbrainz" transform="translate(0.6332, 0)">
            <rect id="蒙版" fill="#FFFFFF" x="0" y="0" width="1024" height="1024"></rect>
            <polygon id="路径" fill="#EB743B" fill-rule="nonzero" points="892 289.979148 527.281501 80 527.281501 943.914209 892 733.935061"></polygon>
            <polygon id="路径" fill="#771B85" fill-rule="nonzero" points="496.718499 943.914209 496.718499 80 132 289.979148 132 733.935061"></polygon>
            <g id="编组" transform="translate(189.0509, 234.8525)" fill-rule="nonzero">
                <path d="M166.249512,102.482679 L58.4752073,154.645697 L0,468.882915 L102.976339,442.441661 L189.639595,503.838133 L248.114803,189.600915 L166.249512,102.482679 Z M144.898565,213.463997 C131.610941,211.005549 121.113635,200.786177 118.302667,187.57227 C115.491699,174.358363 120.920802,160.752928 132.057802,153.101638 C143.194801,145.450347 157.845822,145.260429 169.177521,152.620462 C180.509221,159.980495 186.289369,173.440627 183.822062,186.722955 C180.454934,204.849319 163.032156,216.819036 144.898565,213.463997 L144.898565,213.463997 Z" id="形状" fill="#591463"></path>
                <path d="M307.669552,84.0757285 L303.951129,83.2363236 C269.345801,75.1420622 205.352933,60.2726041 158.992589,135.998917 C147.154759,133.854239 134.95004,136.51374 125.078839,143.388981 C115.207638,150.264222 108.483747,160.788401 106.39489,172.632945 C102.331764,194.261293 114.373772,215.687524 134.965004,223.467476 C155.556236,231.247428 178.763496,223.139372 190.025092,204.230811 C201.286689,185.322249 197.357685,161.06153 180.703384,146.671351 C217.947593,88.0928805 266.227123,99.3049316 298.553417,106.859576 L307.669552,108.89813 L307.669552,84.0757285 Z M172.067046,184.624443 C169.213645,195.48037 158.456637,202.288909 147.420576,200.224178 C136.384515,198.159446 128.818296,187.922822 130.084846,176.770012 C131.937755,166.634006 140.769133,159.268211 151.075946,159.262424 C152.403538,159.262424 153.728379,159.383159 155.034267,159.622169 C166.619501,161.861357 174.226231,173.027213 172.067046,184.624443 L172.067046,184.624443 Z" id="形状" fill="#591463"></path>
                <path d="M166.249512,88.0928805 L58.2952835,140.016069 L0,454.433159 L102.976339,428.35165 L189.639595,489.748122 L248.114803,175.510904 L166.249512,88.0928805 Z M144.898565,199.014241 C131.610941,196.555793 121.113635,186.336421 118.302667,173.122515 C115.491699,159.908608 120.920802,146.303172 132.057802,138.651882 C143.194801,131.000592 157.845822,130.810673 169.177521,138.170707 C180.509221,145.53074 186.289369,158.990872 183.822062,172.2732 C180.454934,190.399563 163.032156,202.36928 144.898565,199.014241 L144.898565,199.014241 Z" id="形状" fill="#B66BC2"></path>
                <path d="M307.669552,69.6259729 L303.951129,68.786568 C269.345801,60.6923065 205.352933,45.8228484 158.992589,121.549161 C134.454481,117.106896 110.950611,133.361792 106.454865,157.883402 C102.391738,179.51175 114.433747,200.937981 135.024979,208.717933 C155.616211,216.497885 178.82347,208.389829 190.085067,189.481267 C201.346663,170.572706 197.417659,146.311987 180.763359,131.921807 C218.007568,73.3433374 266.287098,84.5553885 298.613392,92.1100325 L307.729527,94.1485873 L307.669552,69.6259729 Z M172.067046,170.11473 C169.213645,180.970657 158.456637,187.779196 147.420576,185.714464 C136.384515,183.649733 128.818296,173.413108 130.084846,162.260299 C131.937755,152.124293 140.769133,144.758498 151.075946,144.752711 C152.403553,144.752711 153.728424,144.873119 155.034267,145.112456 C166.619501,147.351644 174.226231,158.5175 172.067046,170.11473 L172.067046,170.11473 Z" id="形状" fill="#FFFEDB"></path>
                <g opacity="0.07" transform="translate(337.237, 0)" fill="#000000">
                    <path d="M103.995907,397.833286 C107.077919,392.644603 113.396637,390.354419 119.088735,392.362977 C124.780832,394.371535 128.261493,400.119604 127.402608,406.092758 C126.543722,412.065911 121.584424,416.601082 115.556878,416.925421 C109.529331,417.249759 104.111748,413.272963 102.616492,407.426485 C101.77751,404.172843 102.274151,400.718927 103.995907,397.833286 L103.995907,397.833286 Z M179.563867,531.898239 C177.285326,533.877805 174.366059,534.96423 171.347351,534.956071 C166.020382,534.997101 161.238111,531.698643 159.3853,526.705531 C157.532489,521.712419 159.005927,516.093955 163.07086,512.651884 C165.349402,510.672318 168.268668,509.585893 171.287376,509.594006 C174.822111,509.600642 178.194563,511.077974 180.595413,513.671519 C182.996264,516.265064 184.20879,519.740705 183.942011,523.26436 C183.69831,526.612399 182.121109,529.722703 179.563867,531.898239 L179.563867,531.898239 Z" id="形状"></path>
                    <path d="M54.2170127,121.249374 L55.4764787,121.249374 L54.2170127,121.249374 Z" id="路径"></path>
                    <path d="M122.408101,179.108354 C123.426085,177.498541 124.801,176.144533 126.426397,175.151159 C130.992555,172.359216 136.821925,172.741187 140.98449,176.105085 C145.147054,179.468982 146.742448,185.087191 144.968778,190.135831 C143.195107,195.184471 138.436019,198.571518 133.083574,198.594539 C130.702451,198.58306 128.373364,197.897006 126.366422,196.615942 C120.475556,192.847246 118.7112,185.043531 122.408101,179.108354 L122.408101,179.108354 Z M160.671877,58.0541768 C156.865865,63.857899 149.133769,65.5845075 143.219277,61.9514138 L142.619531,61.5916689 C138.034385,58.3040959 136.180398,52.3789431 138.074199,47.0652545 C139.968,41.7515659 145.15198,38.3333193 150.783514,38.6849023 C156.415048,39.0364854 161.133356,43.0729431 162.351165,48.580893 C163.08135,51.8360939 162.476526,55.248059 160.671877,58.0541768 L160.671877,58.0541768 Z" id="形状"></path>
                    <path d="M261.249234,127.604868 C263.670468,123.781264 267.94823,121.539453 272.471128,121.723905 C276.994027,121.908356 281.074925,124.491046 283.17659,128.499102 C285.278254,132.507157 285.08139,137.331658 282.660156,141.155261 C278.854143,146.958983 271.122048,148.685592 265.207555,145.052498 L264.667784,144.692753 C259.132712,140.832439 257.625095,133.296503 261.249234,127.604868 L261.249234,127.604868 Z M261.249234,268.265145 C263.670468,264.441541 267.94823,262.199731 272.471128,262.384182 C276.994026,262.568634 281.074925,265.151324 283.176589,269.159379 C285.278253,273.167434 285.08139,277.991935 282.660156,281.815538 C278.854143,287.619261 271.122048,289.345869 265.207555,285.712775 L264.667784,285.35303 C259.30862,281.514054 257.817819,274.19291 261.249234,268.564933 L261.249234,268.265145 Z M261.249234,425.95335 C263.670468,422.129746 267.94823,419.887936 272.471128,420.072387 C276.994026,420.256839 281.074925,422.839529 283.176589,426.847584 C285.278253,430.855639 285.08139,435.68014 282.660156,439.503743 C278.854143,445.307466 271.122048,447.034074 265.207555,443.40098 L264.667784,443.041235 C259.195615,439.167118 257.696167,431.698312 261.249234,426.013308 L261.249234,425.95335 Z" id="形状"></path>
                    <path d="M199.175552,483.992203 C188.634779,471.69545 171.276999,467.76069 156.461751,474.309597 C141.646502,480.858503 132.877382,496.342352 134.882811,512.412054 C124.648285,516.537724 113.889907,519.221508 102.916365,520.386401 C97.9628455,519.81956 93.309063,517.723859 89.6020099,514.390651 C82.1945681,508.956204 73.7071092,505.173715 64.7125627,503.298515 C87.0042771,481.526208 104.545191,455.375438 116.23072,426.492968 C133.812497,425.868454 148.478451,412.860137 151.192463,395.482818 C153.906474,378.105499 143.905186,361.246815 127.350681,355.29389 C110.796176,349.340965 92.3446639,355.96815 83.3646545,371.092245 C73.6874301,387.301257 77.8902698,408.205728 93.080535,419.417983 C68.7908336,474.698791 37.7839801,497.842383 17.6924986,507.435582 C16.9406849,507.702707 16.2174075,508.044157 15.533414,508.45486 C10.6276672,510.680133 5.4731984,512.310574 0.179923715,513.311417 L0.179923715,537.294413 C9.03027669,536.435059 17.6592307,534.01964 25.6691166,530.159472 C57.7555124,522.005253 66.6917236,528.06096 76.1077313,534.416454 C83.4530916,540.185388 92.3437689,543.648844 101.656899,544.370721 L103.51611,544.370721 C117.955682,543.100297 132.114726,539.622208 145.498311,534.056709 C152.429922,540.747869 161.712118,544.451079 171.347351,544.370721 C185.667599,544.348157 198.667905,536.002775 204.646043,522.993724 C210.62418,509.984674 208.488419,494.687673 199.175552,483.81233 L199.175552,483.992203 Z M103.995907,383.383531 C107.077919,378.194847 113.396637,375.904664 119.088735,377.913222 C124.780832,379.92178 128.261493,385.669849 127.402608,391.643002 C126.543722,397.616156 121.584424,402.151326 115.556878,402.475665 C109.529331,402.800004 104.111748,398.823208 102.616492,392.976729 C101.77751,389.723087 102.274151,386.269171 103.995907,383.383531 L103.995907,383.383531 Z M179.563867,517.448484 C177.285326,519.42805 174.366059,520.514474 171.347351,520.506316 C166.020382,520.547345 161.238111,517.248887 159.3853,512.255775 C157.532489,507.262663 159.005927,501.6442 163.07086,498.202128 C165.349402,496.222562 168.268668,495.136138 171.287376,495.144251 C174.822111,495.150886 178.194563,496.628218 180.595413,499.221763 C182.996264,501.815308 184.20879,505.290949 183.942011,508.814605 C183.69831,512.162643 182.121109,515.272947 179.563867,517.448484 L179.563867,517.448484 Z" id="形状"></path>
                    <path d="M54.2170127,106.679703 L55.4764787,106.679703 L54.2170127,106.679703 Z" id="路径"></path>
                    <path d="M185.801223,28.7349631 C182.584538,14.2648983 170.975172,3.15079473 156.375315,0.564383433 C141.775459,-2.02202786 127.052903,4.42729131 119.058501,16.9112763 C111.0641,29.3952612 111.36816,45.4617336 119.829194,57.6344744 C104.482927,74.2403003 82.8278884,83.583727 60.2144698,83.3562386 C41.2034604,75.209176 20.8971188,70.4994464 0.239898286,69.4461004 L0.239898286,93.4290973 C18.3755174,94.6073717 36.1415817,99.0984268 52.6576738,106.679703 C73.2340497,115.93323 91.0346933,130.401177 104.29578,148.649948 C103.480188,149.688745 102.719472,150.769454 102.016746,151.887652 C91.2167983,169.026871 96.3521037,191.672965 113.489386,202.48065 C130.626669,213.288335 153.28245,208.168782 164.104025,191.043203 C174.9256,173.917623 169.818885,151.265068 152.695259,140.435771 C144.315786,135.308196 134.251245,133.692295 124.687134,135.938959 C115.732638,123.276325 104.938319,112.020288 92.660713,102.542636 C110.847701,97.0816188 127.057314,86.4588056 139.32093,71.9643151 C142.76149,73.0187427 146.337882,73.5641387 149.936429,73.5831674 C161.091782,73.6082935 171.655179,68.5685294 178.652297,59.8829153 C185.649415,51.1973012 188.323338,39.8054075 185.921172,28.9148355 L185.801223,28.7349631 Z M122.408101,164.658598 C123.426085,163.048785 124.801,161.694777 126.426397,160.701404 C130.992555,157.90946 136.821925,158.291432 140.98449,161.655329 C145.147054,165.019226 146.742448,170.637436 144.968778,175.686075 C143.195107,180.734715 138.436019,184.121762 133.083574,184.144783 C130.702451,184.133304 128.373364,183.447251 126.366422,182.166186 C120.475556,178.39749 118.7112,170.593775 122.408101,164.658598 L122.408101,164.658598 Z M160.671877,43.6044212 C156.865865,49.4081433 149.133769,51.1347519 143.219277,47.5016582 L142.619531,47.1419132 C138.034385,43.8543402 136.180398,37.9291874 138.074199,32.6154988 C139.968,27.3018102 145.15198,23.8835636 150.783514,24.2351467 C156.415048,24.5867297 161.133356,28.6231874 162.351165,34.1311374 C163.098163,37.4053058 162.492737,40.8422829 160.671877,43.6643787 L160.671877,43.6044212 Z" id="形状"></path>
                    <path d="M237.9791,274.560682 C240.583238,280.962101 244.976563,286.478212 250.633735,290.449417 L252.313023,291.58861 C265.507036,299.944079 282.545045,299.037301 294.77712,289.328632 C307.009196,279.619963 311.755927,263.236067 306.607474,248.49479 C301.459021,233.753513 287.543141,223.883901 271.924707,223.896601 L269.705648,223.896601 C264.719708,201.668566 264.719708,178.612499 269.705648,156.384464 L271.744784,156.384464 C289.39263,156.409396 304.560033,143.875023 307.85548,126.542511 C311.150927,109.21 301.641426,91.9864552 285.215169,85.5365338 C268.788912,79.0866123 250.096431,85.2363879 240.711933,100.177978 C231.327436,115.119567 233.90782,134.622772 246.855337,146.611393 L247.275159,146.971138 C239.901768,175.31936 239.901768,205.08162 247.275159,233.429842 C246.435515,234.209289 245.535896,234.928779 244.696252,235.828142 C243.302891,237.35965 242.039087,239.004134 240.917854,240.744656 C239.059215,243.686148 237.625647,246.875434 236.659659,250.21794 C221.948533,252.375712 207.988633,258.098053 195.9969,266.886123 C184.001986,274.800512 172.007071,282.295198 138.181413,282.894773 C127.503822,281.774068 116.752105,281.533426 106.035043,282.175283 C97.4586788,282.475071 88.5824422,282.834816 76.9473753,282.175283 C68.9707573,281.755581 64.3527153,276.899024 56.1961735,267.66557 C45.4007507,255.374284 30.8869043,239.785336 0,237.686824 L0,261.669821 C19.731634,263.468546 28.7877943,273.001787 38.1438275,283.674221 C47.4998607,294.346654 57.1557667,305.378833 75.6879093,306.338153 C88.4025185,306.997685 98.2383482,306.63794 106.934661,306.338153 C122.751964,305.158091 138.655815,306.575865 154.0147,310.535177 C169.668063,314.372457 226.583931,368.514072 242.597142,396.394306 C241.937422,397.233711 241.277701,398.073116 240.73793,398.972479 C230.278545,415.415571 234.551411,437.169339 250.453811,448.43741 L252.133099,449.576602 C265.327112,457.932072 282.365121,457.025293 294.597196,447.316624 C306.829272,437.607955 311.576004,421.224059 306.427551,406.482782 C301.279097,391.741505 287.363218,381.871894 271.744784,381.884593 C268.627901,381.894479 265.524712,382.297376 262.5087,383.083743 C247.155209,357.961554 210.630695,320.368206 183.40224,300.402361 C192.356391,297.147143 200.845124,292.732647 208.651534,287.27167 C217.27493,280.75954 227.329957,276.401546 237.9791,274.560682 L237.9791,274.560682 Z M261.249234,113.155112 C263.670468,109.331508 267.94823,107.089698 272.471128,107.274149 C276.994027,107.4586 281.074925,110.041291 283.17659,114.049346 C285.278254,118.057401 285.08139,122.881902 282.660156,126.705506 C278.854143,132.509228 271.122048,134.235836 265.207555,130.602743 L264.667784,130.242998 C259.168348,126.386641 257.664157,118.894207 261.249234,113.21507 L261.249234,113.155112 Z M261.249234,253.815389 C263.670468,249.991785 267.94823,247.749975 272.471128,247.934426 C276.994027,248.118877 281.074925,250.701568 283.17659,254.709623 C285.278254,258.717678 285.08139,263.542179 282.660156,267.365783 C278.854143,273.169505 271.122048,274.896113 265.207555,271.26302 L264.667784,270.903275 C259.168348,267.046918 257.664157,259.554484 261.249234,253.875347 L261.249234,253.815389 Z M261.249234,411.503594 C263.670468,407.679991 267.94823,405.43818 272.471128,405.622632 C276.994026,405.807083 281.074925,408.389773 283.176589,412.397828 C285.278253,416.405883 285.08139,421.230384 282.660156,425.053988 C278.854143,430.85771 271.122048,432.584318 265.207555,428.951225 L264.667784,428.59148 C259.195615,424.717363 257.696167,417.248556 261.249234,411.563552 L261.249234,411.503594 Z" id="形状"></path>
                </g>
                <path d="M536.412568,501.97945 C525.871794,489.682697 508.514015,485.747938 493.698767,492.296844 C478.883518,498.845751 470.114398,514.3296 472.119827,530.399302 C461.885301,534.524972 451.126923,537.208756 440.153381,538.373648 C435.199861,537.806808 430.546079,535.711106 426.839026,532.377899 C419.431584,526.943451 410.944125,523.160963 401.949579,521.285763 C424.233415,499.472777 441.754447,473.280373 453.407761,444.3603 C470.989538,443.735787 485.655492,430.72747 488.369504,413.350151 C491.083515,395.972832 481.082227,379.114148 464.527722,373.161223 C447.973218,367.208298 429.521705,373.835483 420.541696,388.959577 C410.864471,405.16859 415.067311,426.07306 430.257576,437.285316 C405.967875,492.566124 374.961021,515.709716 354.86954,525.302915 C354.117726,525.570039 353.394449,525.91149 352.710455,526.322192 C347.804708,528.547465 342.65024,530.177907 337.356965,531.178749 L337.356965,555.161746 C346.207318,554.302391 354.836272,551.886972 362.846158,548.026805 C394.932554,539.872586 403.868765,545.928292 413.284773,552.283787 C420.632625,558.106782 429.547026,561.613088 438.893915,562.357968 L440.753126,562.357968 C455.192698,561.087545 469.351742,557.609456 482.735326,552.043957 C489.666938,558.735117 498.949134,562.438326 508.584367,562.357968 C522.904615,562.335405 535.904921,553.990022 541.883059,540.980972 C547.861196,527.971922 545.725435,512.67492 536.412568,501.799578 L536.412568,501.97945 Z M441.232923,401.370778 C444.314935,396.182095 450.633653,393.891911 456.32575,395.90047 C462.017848,397.909028 465.498509,403.657096 464.639624,409.63025 C463.780738,415.603403 458.82144,420.138574 452.793893,420.462913 C446.766347,420.787251 441.348763,416.810455 439.853508,410.963977 C439.014525,407.710335 439.511167,404.256419 441.232923,401.370778 L441.232923,401.370778 Z M516.800883,535.435731 C514.522342,537.415297 511.603075,538.501722 508.584367,538.493563 C503.257398,538.534593 498.475127,535.236135 496.622316,530.243023 C494.769505,525.249911 496.242943,519.631447 500.307876,516.189376 C502.586417,514.20981 505.505684,513.123385 508.524392,513.131498 C512.059127,513.138134 515.431579,514.615466 517.832429,517.209011 C520.233279,519.802556 521.445806,523.278197 521.179027,526.801852 C520.935326,530.149891 519.358125,533.260195 516.800883,535.435731 L516.800883,535.435731 Z" id="形状" fill="#D3562C"></path>
                <path d="M391.454029,121.249374 L392.713495,121.249374 L391.454029,121.249374 Z" id="路径" fill="#000000"></path>
                <path d="M523.038238,46.7222108 C519.821554,32.252146 508.212187,21.1380424 493.612331,18.5516311 C479.012475,15.9652199 464.289919,22.414539 456.295517,34.898524 C448.301116,47.382509 448.605176,63.4489813 457.06621,75.6217221 C441.719943,92.2275481 420.064904,101.570975 397.451486,101.343486 C378.440476,93.1964237 358.134135,88.4866941 337.476914,87.4333481 L337.476914,111.416345 C355.612322,112.595962 373.378145,117.086956 389.89469,124.666951 C410.471066,133.920478 428.271709,148.388425 441.532796,166.637196 C440.717204,167.675992 439.956488,168.756702 439.253762,169.8749 C428.453814,187.014119 433.58912,209.660213 450.726402,220.467898 C467.863685,231.275583 490.519466,226.15603 501.341041,209.030451 C512.162615,191.904871 507.055901,169.252316 489.932275,158.423019 C481.552802,153.295443 471.488261,151.679543 461.92415,153.926207 C452.969654,141.263573 442.175335,130.007536 429.897729,120.529884 C448.084717,115.068867 464.29433,104.446053 476.557946,89.9515628 C479.998505,91.0059904 483.574898,91.5513864 487.173445,91.5704151 C498.328798,91.5955412 508.892195,86.5557771 515.889313,77.870163 C522.886431,69.1845489 525.560354,57.7926552 523.158188,46.9020833 L523.038238,46.7222108 Z M459.645116,182.705804 C460.663101,181.095991 462.038016,179.741983 463.663413,178.748609 C468.229571,175.956665 474.058941,176.338637 478.221506,179.702534 C482.38407,183.066431 483.979464,188.684641 482.205793,193.733281 C480.432123,198.781921 475.673035,202.168967 470.32059,202.191989 C467.939467,202.180509 465.61038,201.494456 463.603438,200.213391 C457.712571,196.444695 455.948216,188.64098 459.645116,182.705804 L459.645116,182.705804 Z M497.908893,61.6516264 C494.102881,67.4553485 486.370785,69.1819571 480.456293,65.5488634 L479.856547,65.1891184 C475.271401,61.9015454 473.417414,55.9763927 475.311215,50.662704 C477.205016,45.3490154 482.388995,41.9307688 488.02053,42.2823519 C493.652064,42.633935 498.370372,46.6703926 499.588181,52.1783426 C500.318366,55.4335434 499.713542,58.8455086 497.908893,61.6516264 Z" id="形状" fill="#D3562C"></path>
                <path d="M575.216116,292.54793 C577.820254,298.949349 582.213578,304.46546 587.87075,308.436665 L589.550038,309.575857 C602.744052,317.931327 619.78206,317.024549 632.014136,307.31588 C644.246212,297.607211 648.992943,281.223315 643.84449,266.482038 C638.696037,251.740761 624.780157,241.871149 609.161723,241.883848 L606.942664,241.883848 C601.956724,219.655814 601.956724,196.599747 606.942664,174.371712 L608.9818,174.371712 C626.629646,174.396643 641.797049,161.862271 645.092496,144.529759 C648.387943,127.197247 638.878441,109.973703 622.452184,103.523781 C606.025928,97.0738601 587.333447,103.223636 577.948949,118.165225 C568.564451,133.106815 571.144836,152.61002 584.092352,164.598641 L584.512174,164.958386 C577.138784,193.306608 577.138784,223.068868 584.512174,251.41709 C583.67253,252.196537 582.772912,252.916027 581.933268,253.815389 C580.539907,255.346898 579.276103,256.991381 578.15487,258.731904 C576.296231,261.673396 574.862663,264.862682 573.896675,268.205188 C559.185549,270.36296 545.225649,276.0853 533.233916,284.873371 C521.239001,292.78776 509.244087,300.282446 475.418429,300.882021 C464.740838,299.761315 453.989121,299.520674 443.272058,300.162531 C434.695695,300.462319 425.819458,300.822064 414.184391,300.162531 C406.207773,299.742829 401.589731,294.886272 393.433189,285.652818 C382.637766,273.361532 368.12392,257.772584 337.237016,255.674072 L337.237016,279.657069 C356.96865,281.455793 366.02481,290.989035 375.380843,301.661468 C384.736877,312.333902 394.392783,323.366081 412.924925,324.325401 C425.639534,324.984933 435.475364,324.625188 444.171677,324.325401 C459.98898,323.145339 475.892831,324.563113 491.251716,328.522425 C506.905079,332.359705 563.820947,386.50132 579.834158,414.381554 C579.174437,415.220959 578.514717,416.060364 577.974946,416.959726 C567.515561,433.402819 571.788427,455.156587 587.690827,466.424657 L589.370115,467.56385 C602.564128,475.919319 619.602137,475.012541 631.834212,465.303872 C644.066288,455.595203 648.81302,439.211307 643.664566,424.47003 C638.516113,409.728753 624.600233,399.859141 608.9818,399.871841 C605.864916,399.881727 602.761728,400.284623 599.745716,401.070991 C584.392225,375.948801 547.867711,338.355454 520.639256,318.389609 C529.593407,315.134391 538.082139,310.719894 545.88855,305.258918 C554.511946,298.746787 564.566973,294.388794 575.216116,292.54793 L575.216116,292.54793 Z M598.48625,131.14236 C600.907483,127.318756 605.185246,125.076945 609.708144,125.261397 C614.231042,125.445848 618.311941,128.028538 620.413605,132.036594 C622.51527,136.044649 622.318406,140.86915 619.897172,144.692753 C616.091159,150.496475 608.359064,152.223084 602.444571,148.58999 L601.9048,148.230245 C596.405364,144.373889 594.901172,136.881455 598.48625,131.202318 L598.48625,131.14236 Z M598.48625,271.802637 C600.907483,267.979033 605.185246,265.737223 609.708144,265.921674 C614.231042,266.106125 618.311941,268.688815 620.413605,272.696871 C622.51527,276.704926 622.318406,281.529427 619.897172,285.35303 C616.091159,291.156753 608.359064,292.883361 602.444571,289.250267 L601.9048,288.890523 C596.405364,285.034166 594.901172,277.541732 598.48625,271.862595 L598.48625,271.802637 Z M598.48625,429.490842 C600.907483,425.667238 605.185246,423.425428 609.708144,423.609879 C614.231042,423.79433 618.311941,426.37702 620.413605,430.385076 C622.51527,434.393131 622.318406,439.217632 619.897172,443.041235 C616.091159,448.844958 608.359064,450.571566 602.444571,446.938472 L601.9048,446.578727 C596.432631,442.70461 594.933183,435.235804 598.48625,429.5508 L598.48625,429.490842 Z" id="形状" fill="#D3562C"></path>
                <path d="M536.412568,483.992203 C525.871794,471.69545 508.514015,467.76069 493.698767,474.309597 C478.883518,480.858503 470.114398,496.342352 472.119827,512.412054 C461.885301,516.537724 451.126923,519.221508 440.153381,520.386401 C435.199861,519.81956 430.546079,517.723859 426.839026,514.390651 C419.431584,508.956204 410.944125,505.173715 401.949579,503.298515 C424.241293,481.526208 441.782207,455.375438 453.467735,426.492968 C471.049513,425.868454 485.715467,412.860137 488.429478,395.482818 C491.14349,378.105499 481.142202,361.246815 464.587697,355.29389 C448.033192,349.340965 429.58168,355.96815 420.60167,371.092245 C410.924446,387.301257 415.127286,408.205728 430.317551,419.417983 C406.027849,474.698791 375.020996,497.842383 354.929514,507.435582 C354.177701,507.702707 353.454423,508.044157 352.77043,508.45486 C347.864683,510.680133 342.710214,512.310574 337.41694,513.311417 L337.41694,537.294413 C346.267293,536.435059 354.896246,534.01964 362.906132,530.159472 C394.992528,522.005253 403.928739,528.06096 413.344747,534.416454 C420.690107,540.185388 429.580785,543.648844 438.893915,544.370721 L440.753126,544.370721 C455.192698,543.100297 469.351742,539.622208 482.735326,534.056709 C489.666938,540.747869 498.949134,544.451079 508.584367,544.370721 C522.904615,544.348157 535.904921,536.002775 541.883059,522.993724 C547.861196,509.984674 545.725435,494.687673 536.412568,483.81233 L536.412568,483.992203 Z M441.232923,383.383531 C444.314935,378.194847 450.633653,375.904664 456.32575,377.913222 C462.017848,379.92178 465.498509,385.669849 464.639624,391.643002 C463.780738,397.616156 458.82144,402.151326 452.793893,402.475665 C446.766347,402.800004 441.348763,398.823208 439.853508,392.976729 C439.014525,389.723087 439.511167,386.269171 441.232923,383.383531 L441.232923,383.383531 Z M516.800883,517.448484 C514.522342,519.42805 511.603075,520.514474 508.584367,520.506316 C503.257398,520.547345 498.475127,517.248887 496.622316,512.255775 C494.769505,507.262663 496.242943,501.6442 500.307876,498.202128 C502.586417,496.222562 505.505684,495.136138 508.524392,495.144251 C512.059127,495.150886 515.431579,496.628218 517.832429,499.221763 C520.233279,501.815308 521.445806,505.290949 521.179027,508.814605 C520.935326,512.162643 519.358125,515.272947 516.800883,517.448484 L516.800883,517.448484 Z" id="形状" fill="#FFFEDB"></path>
                <path d="M391.454029,106.679703 L392.713495,106.679703 L391.454029,106.679703 Z" id="路径" fill="#FFFEDB"></path>
                <path d="M523.038238,28.7349631 C519.821554,14.2648983 508.212187,3.15079473 493.612331,0.564383433 C479.012475,-2.02202786 464.289919,4.42729131 456.295517,16.9112763 C448.301116,29.3952612 448.605176,45.4617336 457.06621,57.6344744 C441.719943,74.2403003 420.064904,83.583727 397.451486,83.3562386 C378.440476,75.209176 358.134135,70.4994464 337.476914,69.4461004 L337.476914,93.4290973 C355.612533,94.6073717 373.378598,99.0984268 389.89469,106.679703 C410.471066,115.93323 428.271709,130.401177 441.532796,148.649948 C440.717204,149.688745 439.956488,150.769454 439.253762,151.887652 C428.453814,169.026871 433.58912,191.672965 450.726402,202.48065 C467.863685,213.288335 490.519466,208.168782 501.341041,191.043203 C512.162615,173.917623 507.055901,151.265068 489.932275,140.435771 C481.552802,135.308196 471.488261,133.692295 461.92415,135.938959 C452.969654,123.276325 442.175335,112.020288 429.897729,102.542636 C448.084717,97.0816188 464.29433,86.4588056 476.557946,71.9643151 C479.998505,73.0187427 483.574898,73.5641387 487.173445,73.5831674 C498.328798,73.6082935 508.892195,68.5685294 515.889313,59.8829153 C522.886431,51.1973012 525.560354,39.8054075 523.158188,28.9148355 L523.038238,28.7349631 Z M459.645116,164.658598 C460.663101,163.048785 462.038016,161.694777 463.663413,160.701404 C468.229571,157.90946 474.058941,158.291432 478.221506,161.655329 C482.38407,165.019226 483.979464,170.637436 482.205793,175.686075 C480.432123,180.734715 475.673035,184.121762 470.32059,184.144783 C467.939467,184.133304 465.61038,183.447251 463.603438,182.166186 C457.712571,178.39749 455.948216,170.593775 459.645116,164.658598 L459.645116,164.658598 Z M497.908893,43.6044212 C494.102881,49.4081433 486.370785,51.1347519 480.456293,47.5016582 L479.856547,47.1419132 C475.271401,43.8543402 473.417414,37.9291874 475.311215,32.6154988 C477.205016,27.3018102 482.388995,23.8835636 488.02053,24.2351467 C493.652064,24.5867297 498.370372,28.6231874 499.588181,34.1311374 C500.335179,37.4053058 499.729753,40.8422829 497.908893,43.6643787 L497.908893,43.6044212 Z" id="形状" fill="#FFFEDB"></path>
                <path d="M575.216116,274.560682 C577.820254,280.962101 582.213578,286.478212 587.87075,290.449417 L589.550038,291.58861 C602.744052,299.944079 619.78206,299.037301 632.014136,289.328632 C644.246212,279.619963 648.992943,263.236067 643.84449,248.49479 C638.696037,233.753513 624.780157,223.883901 609.161723,223.896601 L606.942664,223.896601 C601.956724,201.668566 601.956724,178.612499 606.942664,156.384464 L608.9818,156.384464 C626.629646,156.409396 641.797049,143.875023 645.092496,126.542511 C648.387943,109.21 638.878441,91.9864552 622.452184,85.5365338 C606.025928,79.0866123 587.333447,85.2363879 577.948949,100.177978 C568.564451,115.119567 571.144836,134.622772 584.092352,146.611393 L584.512174,146.971138 C577.138784,175.31936 577.138784,205.08162 584.512174,233.429842 C583.67253,234.209289 582.772912,234.928779 581.933268,235.828142 C580.539907,237.35965 579.276103,239.004134 578.15487,240.744656 C576.296231,243.686148 574.862663,246.875434 573.896675,250.21794 C559.185549,252.375712 545.225649,258.098053 533.233916,266.886123 C521.239001,274.800512 509.244087,282.295198 475.418429,282.894773 C464.740838,281.774068 453.989121,281.533426 443.272058,282.175283 C434.695695,282.475071 425.819458,282.834816 414.184391,282.175283 C406.207773,281.755581 401.589731,276.899024 393.433189,267.66557 C382.637766,255.374284 368.12392,239.785336 337.237016,237.686824 L337.237016,261.669821 C356.96865,263.468546 366.02481,273.001787 375.380843,283.674221 C384.736877,294.346654 394.392783,305.378833 412.924925,306.338153 C425.639534,306.997685 435.475364,306.63794 444.171677,306.338153 C459.98898,305.158091 475.892831,306.575865 491.251716,310.535177 C506.905079,314.372457 563.820947,368.514072 579.834158,396.394306 C579.174437,397.233711 578.514717,398.073116 577.974946,398.972479 C567.515561,415.415571 571.788427,437.169339 587.690827,448.43741 L589.370115,449.576602 C602.564128,457.932072 619.602137,457.025293 631.834212,447.316624 C644.066288,437.607955 648.81302,421.224059 643.664566,406.482782 C638.516113,391.741505 624.600233,381.871894 608.9818,381.884593 C605.864916,381.894479 602.761728,382.297376 599.745716,383.083743 C584.392225,357.961554 547.867711,320.368206 520.639256,300.402361 C529.593407,297.147143 538.082139,292.732647 545.88855,287.27167 C554.511946,280.75954 564.566973,276.401546 575.216116,274.560682 L575.216116,274.560682 Z M598.48625,113.155112 C600.907483,109.331508 605.185246,107.089698 609.708144,107.274149 C614.231042,107.4586 618.311941,110.041291 620.413605,114.049346 C622.51527,118.057401 622.318406,122.881902 619.897172,126.705506 C616.091159,132.509228 608.359064,134.235836 602.444571,130.602743 L601.9048,130.242998 C596.405364,126.386641 594.901172,118.894207 598.48625,113.21507 L598.48625,113.155112 Z M598.48625,253.815389 C600.907483,249.991785 605.185246,247.749975 609.708144,247.934426 C614.231042,248.118877 618.311941,250.701568 620.413605,254.709623 C622.51527,258.717678 622.318406,263.542179 619.897172,267.365783 C616.091159,273.169505 608.359064,274.896113 602.444571,271.26302 L601.9048,270.903275 C596.405364,267.046918 594.901172,259.554484 598.48625,253.875347 L598.48625,253.815389 Z M598.48625,411.503594 C600.907484,407.679991 605.185246,405.43818 609.708144,405.622632 C614.231042,405.807083 618.311941,408.389773 620.413605,412.397828 C622.515269,416.405883 622.318406,421.230384 619.897172,425.053988 C616.091159,430.85771 608.359064,432.584318 602.444571,428.951225 L601.9048,428.59148 C596.432631,424.717363 594.933183,417.248556 598.48625,411.563552 L598.48625,411.503594 Z" id="形状" fill="#FFFEDB"></path>
            </g>
        </g>
    </g>
</svg>