<svg xmlns="http://www.w3.org/2000/svg" width="1024" height="1024"><g fill="none" fill-rule="evenodd"><path fill="#184785" d="M0 0h1024v1024H0z"/><g fill="#FFF" fill-rule="nonzero"><path d="M875.828 342.507c-7.56 1.328-73.753 10.316-143.012 19.406-19.409 2.553-71.505 9.396-115.941 15.218-44.334 5.822-108.995 14.4-143.522 18.895-34.527 4.596-77.737 10.213-96.022 12.664-18.285 2.451-80.087 10.52-137.291 18.078-57.307 7.558-103.479 13.788-102.56 13.992.818.102 159.152-16.239 351.808-36.461 249.044-26.249 354.158-37.586 363.556-39.526 39.328-7.762 63.027-1.737 73.548 18.894 3.167 6.23 5.516 16.138 5.619 23.083.102 2.757 3.166 19.814 6.946 37.79l6.946 32.682 6.436 3.473c8.682 4.596 16.752 5.413 20.94 2.042 3.882-3.064 5.721-7.762 5.721-14.707 0-4.8-2.247-11.235-16.753-47.696-12.973-32.99-16.753-43.51-17.161-48.412-1.43-15.422-10.42-25.227-27.07-29.517-7.355-1.94-31.36-1.838-42.188.102M129.92 441.68c1.226.204 3.065.204 4.086 0 .92-.307-.102-.511-2.35-.409-2.247 0-3.064.204-1.736.409Zm-8.172 1.02c.613.205 1.839.205 2.554 0 .613-.306.102-.51-1.328-.51-1.43 0-1.94.204-1.226.51"/><path d="M896.544 465.426c-1.755.826-3.511 2.17-3.924 3.203-.31.93-.62 41.235-.62 89.497 0 86.397 0 87.74 2.066 89.807 1.859 1.86 3.408 2.067 15.905 2.067 12.084 0 14.15-.207 16.215-1.964l2.48-1.963.31-85.983c.102-55.6-.104-87.327-.827-89.807-.62-2.584-1.963-4.34-3.615-5.064-3.718-1.757-23.962-1.55-27.99.207m-385.616 9.225c-3.529 1.343-4.359 6.197-4.359 23.964v17.56l-9.03.31-9.132.31-.312 3.924c-.518 5.991.83 6.92 10.275 6.92h8.2v44.21c0 27.579.414 46.585 1.14 50.407 3.426 18.386 13.493 26.856 34.872 29.335 15.05 1.652 30.617-1.86 33.42-7.644 3.424-7.23-2.284-10.742-12.144-7.437-6.953 2.376-10.274 2.066-13.7-1.24-5.189-5.267-5.707-10.225-5.707-61.149v-45.965l10.793-.31c6.02-.103 11.52-.826 12.247-1.446 1.453-1.136 1.764-6.817.519-8.78-.52-.826-4.67-1.342-12.143-1.549l-11.416-.31-.312-18.18c-.207-17.662-.311-18.282-2.802-20.968-2.49-2.685-2.698-2.685-15.775-2.582-7.265 0-13.907.31-14.634.62m-388.49 39.765c-10.238 2.69-19.44 9.515-24.301 18.099l-3.102 5.274v-7.55c0-7.239-1.034-11.272-3.516-12.824-.62-.413-6.825-.827-13.753-.827-14.27 0-16.132.827-17.373 7.446-.31 1.862-.517 30.096-.31 62.673l.31 59.363 2.482 1.965c2.068 1.655 4.137 1.965 14.58 1.965 10.445 0 12.513-.31 14.581-1.965l2.482-1.965.517-45.401.517-45.298 3.205-6.723c4.033-8.48 8.48-13.755 14.27-16.443 11.375-5.585 27.3.93 31.643 12.824 1.138 3.31 1.551 14.065 1.965 52.537l.62 48.504 2.482 1.965c2.068 1.655 4.136 1.965 14.787 1.965 11.789 0 12.41-.103 14.89-2.586L182 644.83l-.414-45.298c-.413-49.642-.413-49.952-7.031-62.155-5.584-10.55-16.856-19.03-28.954-21.719-6.722-1.448-19.648-2.171-23.163-1.24Zm138.386-.941c-8.2.724-19.827 3.619-26.263 6.72-11.834 5.584-21.488 17.99-22.837 29.364-.83 7.754.103 9.409 6.643 11.373 3.218.93 8.72 1.758 12.353 1.758 9.654.31 11.315-1.344 17.44-16.44 7.059-17.37 11.315-21.195 23.253-20.988 10.38.103 16.505 3.722 20.034 11.58 2.076 4.652 4.153 15.405 4.153 21.505v3.722l-12.146 3.723c-6.747 2.067-18.581 5.273-26.263 7.03-29.585 6.617-42.042 13.545-48.374 26.469-2.491 4.963-2.907 7.134-2.803 14.164 0 5.79.623 10.03 2.076 13.648 6.955 17.784 26.783 27.09 51.073 24.194 12.25-1.55 20.866-5.686 35.087-16.75.934-.723 2.076.724 4.36 5.17 3.114 6.1 8.512 11.89 12.457 13.131 3.84 1.137 19.412-4.343 24.29-8.582 2.492-2.17 2.284-4.135-1.557-15.612l-3.218-9.926-.726-36.187c-.727-39.806-1.142-42.287-7.578-51.903-6.332-9.409-17.959-14.785-36.54-16.853-9.031-.93-16.194-1.034-24.914-.31m35.096 80.493c-.312 19.552-.416 20.28-3.228 26-3.542 7.176-8.332 11.544-17.393 15.808-5.624 2.6-8.02 3.12-14.581 3.224-9.895 0-13.54-1.872-16.768-8.424-2.917-6.032-3.854-17.784-1.98-25.376 1.563-6.656 6.666-12.584 13.54-16.12 2.604-1.352 11.77-4.888 20.413-7.8 8.54-3.016 16.248-5.824 17.081-6.344.833-.416 1.979-.936 2.395-.936.521 0 .73 9.048.521 19.968m106.05-80.347c-18.343 2.803-32.334 11.938-38.138 24.706-2.902 6.332-3.11 18.685-.311 23.876 5.285 9.861 15.546 16.09 43.114 26.47 27.982 10.589 32.646 14.74 32.542 28.858-.207 8.616-3.42 15.987-8.498 18.79-4.353 2.595-14.302 3.425-19.38 1.764-4.872-1.557-11.505-7.474-13.992-12.353-1.036-2.076-2.902-7.162-4.042-11.315-1.243-4.152-3.213-8.512-4.249-9.55-2.487-2.491-9.742-3.53-18.551-2.803-11.193 1.038-13.784 6.229-9.535 18.582 2.59 7.474 6.01 12.872 11.297 17.647 5.078 4.567 8.705 6.54 18.24 9.861 21.35 7.267 54.721 3.841 69.23-6.955C469.752 633.518 474 624.902 474 611.72c0-18.27-11.608-28.132-47.674-40.589-20.313-7.059-26.117-11.003-29.019-19.827-1.865-5.502-.933-16.401 1.658-19.827 3.11-4.256 8.395-6.54 14.924-6.54 10.26 0 16.894 5.606 18.137 15.364 1.97 14.325 4.664 16.816 19.173 16.816 10.572 0 16.168-1.35 17.723-4.36.725-1.35.932-4.67.622-8.304-1.244-13.703-12.437-23.98-31.3-28.858-9.12-2.388-27.671-3.322-36.273-1.973m242.472 1.055c-27.099 4.127-44.646 18.262-53.055 42.714-2.388 6.809-2.908 10.523-3.323 21.356-.208 7.635.104 15.992.727 20.016 5.814 33.221 31.252 53.443 66.553 53.236 20.142-.103 36.131-6.087 47.863-17.642C716.913 620.737 722 606.809 722 583.183c0-16.508-1.973-26.103-7.683-36.936-4.257-8.254-15.99-19.81-24.4-24.246-12.043-6.293-31.666-9.491-45.475-7.325m18.122 11.304c11.884 3.318 20.328 19.286 22.725 43.238 1.46 13.272.626 27.58-2.084 39.401C678.513 628.32 668.923 639 655.58 639c-13.865 0-23.247-11.198-27.834-33.077-1.772-8.398-1.98-12.65-1.563-27.58.52-18.976 1.772-25.404 6.88-36.499 6.463-13.687 16.887-19.286 29.501-15.864m129.799-12.337c-26.124 3.946-44.369 19.315-52.559 44.03-2.488 7.476-2.799 9.968-2.799 23.883-.103 17.757 1.244 24.299 7.153 36.552 11.507 23.469 38.15 36.553 67.901 33.437 39.186-4.05 61.06-31.775 58.779-74.662-1.14-20.25-6.117-32.399-18.35-44.756-8.81-8.93-16.586-13.5-28.507-16.51-9.641-2.493-22.91-3.324-31.618-1.974m20.477 14.318c12.359 5.572 19.732 22.806 20.979 48.605 1.038 22.6-2.39 39.937-10.074 51.186-6.024 9.08-9.97 11.248-19.732 11.248-6.751 0-8.516-.413-11.84-2.58-5.089-3.405-11.528-13.106-14.02-21.258-6.543-20.743-5.193-53.972 2.908-72.031C785.527 533.017 794.977 526 804.013 526c2.596 0 6.542.929 8.827 1.96"/></g></g></svg>