<?xml version="1.0" encoding="UTF-8"?>
<svg width="1025px" height="1024px" viewBox="0 0 1025 1024" version="1.1" xmlns="http://www.w3.org/2000/svg" xmlns:xlink="http://www.w3.org/1999/xlink">
    <title>Netflix</title>
    <g id="ICON-新版方图标" stroke="none" stroke-width="1" fill="none" fill-rule="evenodd">
        <g id="Netflix" transform="translate(0.6332, 0)">
            <rect id="蒙版路径" fill="#000000" x="0" y="0" width="1024" height="1024"></rect>
            <path d="M318.655882,162.096076 L318.655882,511.786002 C318.655882,704.130558 318.848035,861.668079 319.122538,861.942583 C319.397041,862.217087 331.283041,861.022996 345.653295,859.458326 C360.02355,857.893655 379.828973,855.862331 389.683645,855.038821 C404.781334,853.748655 450.074401,850.921269 455.276241,850.797743 C456.840911,850.797743 456.936987,842.974395 457.129139,702.661964 L457.403643,554.85559 L457.307567,554.594812 L457.307567,554.786965 L318.683332,162.096076 L318.655882,162.096076 Z" id="路径" fill="#B1060F" fill-rule="nonzero"></path>
            <polygon id="路径" fill="#9D030F" fill-rule="nonzero" points="457.238941 634.667464 457.389918 554.85559 457.293842 554.594812 457.293842 554.773239 318.669607 162.082351 457.293842 634.667464"></polygon>
            <path d="M566.930513,162.549007 L566.65601,317.231692 L566.381507,471.832026 L703.825376,861.846506 C703.496688,861.968097 703.145052,862.014982 702.795989,861.983758 C703.208307,862.028144 703.625341,861.981286 704.017529,861.846506 C704.470459,861.475927 704.566536,704.007031 704.470459,511.854627 L704.195956,162.521556 L566.930513,162.549007 Z" id="路径" fill="#B1060F" fill-rule="nonzero"></path>
            <polygon id="路径" fill="#9D030F" fill-rule="nonzero" points="566.532484 393.639723 566.381507 471.873202 697.951003 845.197873"></polygon>
            <path d="M318.655882,162.096076 L457.280116,554.786965 L457.280116,554.594812 L468.260254,585.545074 C529.145115,757.809704 561.8522,850.248736 562.030627,850.440888 C562.209053,850.63304 571.336293,851.085971 582.494858,851.648704 C616.20388,853.295724 657.983302,856.89172 689.811976,860.844569 C694.433411,861.645691 699.122978,861.985914 703.811651,861.860232 L566.381507,471.832026 L566.381507,471.914377 L553.671998,436.009328 L482.918738,236.212004 C469.468069,198.193278 458.048727,166.048926 457.58207,164.580332 L456.662484,162 L387.666045,162 L318.655882,162.096076 Z" id="路径" fill="#E50914" fill-rule="nonzero"></path>
        </g>
    </g>
</svg>