<svg xmlns="http://www.w3.org/2000/svg" width="1024" height="1024"><defs><linearGradient id="a" x1="23.067%" x2="81.354%" y1="9.145%" y2="94.515%"><stop offset="0%" stop-color="#67A7EC"/><stop offset="49.534%" stop-color="#528ED8"/><stop offset="100%" stop-color="#3C76C4"/></linearGradient></defs><g fill="none" fill-rule="evenodd"><path fill="#FFF" d="M0 0h1024v1024H0z"/><path fill="#B8CDEB" fill-rule="nonzero" d="M512.011 111.787a400.004 400.004 0 0 1 282.844 117.157 400 400 0 1 1-682.842 282.841c0-220.91 179.085-399.998 399.998-399.998Z"/><path fill="url(#a)" d="M400.022 34.27c-202.038 0-365.82 163.789-365.82 365.825 0 202.037 163.78 365.828 365.82 365.828A365.83 365.83 0 0 0 765.85 400.095c0-202.038-163.784-365.824-365.824-365.824h-.004" transform="translate(112.013 111.787)"/><g fill-rule="nonzero"><path fill="#FFF" d="M551.335 241.959h51.846v150.64c21.888-27.456 49.83-41.186 83.816-41.186 18.822 0 36.58 3.839 53.289 11.52 16.898 7.487 30.721 18.143 41.473 31.97 10.947 13.633 19.493 30.147 25.638 49.539 6.142 19.395 9.213 40.136 9.213 62.218 0 52.42-12.958 92.936-38.883 121.548-25.921 28.612-57.03 42.916-93.32 42.916-36.104 0-64.425-15.071-84.972-45.215v38.306h-48.1V241.959"/><path fill="#4682CE" d="M682.39 394.038c22.467 0 41.571 9.508 57.318 28.52 15.936 19.007 23.909 48.484 23.909 88.422 0 38.98-8.26 68.36-24.77 88.14-16.518 19.585-36.103 29.375-58.764 29.375-27.84 0-49.922-13.342-66.243-40.035-9.988-16.324-14.979-42.82-14.979-79.497 0-37.25 8.256-65.669 24.77-85.258 16.514-19.775 36.1-29.667 58.76-29.667"/></g><g fill-rule="nonzero"><path fill="#C8E8FF" d="M334.447 351.409c37.829 0 67.592 15.94 89.291 47.813v-40.896H470.4v423.117h-51.846V631.667c-8.065 11.326-19.396 20.737-33.99 28.228-14.402 7.488-29.76 11.233-46.085 11.233-36.289 0-67.592-14.502-93.897-43.494-26.115-28.996-39.175-68.744-39.175-119.244 0-30.726 5.282-58.28 15.844-82.665 10.752-24.39 26.212-42.823 46.375-55.305 20.353-12.671 42.63-19.011 66.82-19.011"/><path fill="#5491DA" d="M339.344 392.313c22.66 0 42.338 10.271 59.047 30.818 16.898 20.547 25.347 51.171 25.347 91.881 0 38.213-7.968 66.728-23.909 85.546-15.936 18.627-34.948 27.941-57.03 27.941-23.04 0-42.82-9.795-59.334-29.38-16.514-19.779-24.769-49.353-24.769-88.717 0-40.516 7.778-70.276 23.331-89.287 15.747-19.202 34.85-28.802 57.317-28.802"/></g></g></svg>