<?xml version="1.0" encoding="UTF-8"?>
<svg width="1025px" height="1024px" viewBox="0 0 1025 1024" version="1.1" xmlns="http://www.w3.org/2000/svg" xmlns:xlink="http://www.w3.org/1999/xlink">
    <title>QQ</title>
    <g id="ICON-新版方图标" stroke="none" stroke-width="1" fill="none" fill-rule="evenodd">
        <g id="QQ" transform="translate(0.6332, 0)">
            <rect id="蒙版路径" stroke="#FFFFFF" fill="#FFFFFF" x="0.5" y="0.5" width="1023" height="1023"></rect>
            <path d="M512.018339,871.11042 C445.312224,871.11042 384.077564,849.667022 344.655327,817.635755 C324.6325,823.384053 299.020867,832.626415 282.863246,844.094843 C269.030636,853.900764 270.754197,863.89687 273.247892,867.933374 C284.190764,885.67137 460.97844,879.260903 512.018339,873.738028 L512.018339,871.11042 Z" id="左脚" fill="#FAAB07" fill-rule="nonzero"></path>
            <path d="M512.018339,871.11042 C578.731777,871.11042 639.959096,849.667022 679.388673,817.635755 C699.404179,823.384053 725.015792,832.626415 741.180755,844.094843 C755.006042,853.900764 753.282463,863.89687 750.788786,867.933374 C739.845895,885.67137 563.058219,879.260903 512.018339,873.738028 L512.018339,871.11042 Z" id="右脚" fill="#FAAB07" fill-rule="nonzero"></path>
            <path d="M512.407058,487.1086 C622.5693,486.390058 710.853139,465.911743 740.77003,458.05716 C747.89903,456.183313 751.712902,452.823097 751.712902,452.823097 C751.742193,451.858014 752.167638,435.599338 752.167638,427.209365 C752.167638,285.953377 682.740488,144.007044 511.996334,144 C341.259521,144.007033 271.832352,285.953377 271.832352,427.209365 C271.832352,435.599338 272.257759,451.858014 272.287088,452.823097 C272.287088,452.823097 275.389519,455.964941 281.073669,457.48655 C308.694914,464.869168 398.643639,486.368922 511.59295,487.1086 L512.407058,487.1086 Z" id="脑袋" fill="#000000" fill-rule="nonzero"></path>
            <path d="M811.759399,604.786699 C804.931098,583.681418 795.609119,559.067989 786.169791,535.426713 C786.169791,535.426713 780.742347,534.785662 777.991965,535.546457 C693.294641,559.180683 590.635454,574.241802 512.407058,573.333057 L511.59295,573.333057 C433.797267,574.227699 331.834838,559.342717 247.423566,535.940949 C244.196442,535.046288 237.830218,535.426695 237.830218,535.426695 C228.390871,559.067971 219.068892,583.6814 212.240591,604.786681 C179.675984,705.438258 190.230155,747.092277 198.261284,748.029191 C215.497061,750.029833 265.3561,672.258738 265.3561,672.258738 C265.3561,751.283746 339.638608,872.624978 509.744679,873.73801 C510.500113,873.730797 513.499877,873.730797 514.255311,873.73801 C684.361382,872.624978 758.64389,751.283746 758.64389,672.258738 C758.64389,672.258738 808.502948,750.029833 825.738724,748.029191 C833.769853,747.092277 844.324006,705.438258 811.759399,604.786681" id="身体" fill="#000000" fill-rule="nonzero"></path>
            <path d="M451.245737,352.692807 C428.083789,353.70018 408.295661,328.354125 407.048823,296.139705 C405.794643,263.904149 423.536489,236.958994 446.698437,235.95164 C469.83836,234.95837 489.619166,260.290323 490.873346,292.518845 C492.142189,324.7544 474.393021,351.699538 451.245737,352.692807" id="左眼" fill="#FFFFFF" fill-rule="nonzero"></path>
            <path d="M616.943844,296.139705 C615.704329,328.354125 595.916201,353.70018 572.754253,352.692807 C549.606988,351.692504 531.857801,324.7544 533.126663,292.518845 C534.380824,260.290323 554.16163,234.95837 577.301572,235.95164 C600.46352,236.958994 618.205366,263.904149 616.943844,296.139705" id="右眼" fill="#FFFFFF" fill-rule="nonzero"></path>
            <path d="M658.111666,398.193127 C651.921466,385.02699 589.586646,370.353329 512.4144,370.353329 L511.585609,370.353329 C434.413363,370.353329 372.078543,385.02699 365.888324,398.193127 C365.609632,398.763737 365.433607,399.397736 365.433607,400.066973 C365.433607,401.017972 365.770974,401.870361 366.284385,402.602987 C371.506457,409.901063 440.720913,445.989953 511.585609,445.989953 L512.4144,445.989953 C583.279077,445.989953 652.493533,409.908114 657.708283,402.602987 C658.229016,401.877394 658.55906,401.01092 658.55906,400.059922 C658.55906,399.390703 658.390452,398.763737 658.111666,398.193127" id="嘴巴" fill="#FAAB07" fill-rule="nonzero"></path>
            <path d="M479.71776,296.611687 C480.77391,309.341062 473.505555,320.647455 463.501464,321.880251 C453.482727,323.12008 444.51278,313.80726 443.449308,301.070834 C442.400481,288.334408 449.661513,277.028015 459.643599,275.802288 C469.684341,274.555408 478.668952,283.882295 479.71776,296.611687" id="左眼_眼睛" fill="#000000" fill-rule="nonzero"></path>
            <path d="M543.350772,300.866546 C545.397054,297.344314 559.339691,278.824369 588.200452,285.565938 C595.784187,287.341138 599.290021,289.947611 600.03079,290.96905 C601.123609,292.483625 601.424325,294.639232 600.316823,297.54155 C598.123844,303.2969 593.591207,303.141917 591.082848,302.014799 C589.461954,301.289224 569.358446,288.418951 550.839162,307.622217 C549.562977,308.939538 547.281994,309.390385 545.125685,307.826505 C542.962052,306.255574 542.074586,303.078528 543.350772,300.866546" id="右眼_眼睛" fill="#000000" fill-rule="nonzero"></path>
            <path d="M512.407058,568.697809 L511.59295,568.697809 C458.389419,569.317724 393.883625,562.547969 331.409449,550.720288 C326.062704,580.462101 322.835581,617.847158 325.607969,662.431699 C332.612295,775.115263 402.288809,845.947535 509.832701,846.976025 L514.203977,846.976025 C621.755192,845.947535 691.424383,775.115263 698.436032,662.431699 C701.208439,617.840125 697.973974,580.462101 692.627211,550.713237 C630.145712,562.547969 565.625254,569.317724 512.407058,568.697809" id="肚兜" fill="#FFFFFF" fill-rule="nonzero"></path>
            <path d="M360.85696,559.272295 L360.85696,670.166537 C360.85696,670.166537 413.745092,680.409221 466.735929,673.315433 L466.735929,571.029536 C433.166506,569.205012 396.964051,565.140338 360.85696,559.272295" id="围脖_2" fill="#EB1923" fill-rule="nonzero"></path>
            <path d="M751.712902,452.823097 C751.712902,452.823097 648.833698,484.016078 512.407058,484.903669 L511.59295,484.903669 C375.386346,484.023111 272.639137,452.928776 272.287088,452.823097 L237.830218,535.426713 C324.016403,560.38531 430.826849,576.467868 511.59295,575.530954 L512.407058,575.530954 C593.173141,576.467868 699.976264,560.38531 786.169791,535.426713 L751.712902,452.823097 Z" id="围脖-_1" fill="#EB1923" fill-rule="nonzero"></path>
        </g>
    </g>
</svg>