<?xml version="1.0" encoding="UTF-8"?>
<svg width="1025px" height="1024px" viewBox="0 0 1025 1024" version="1.1" xmlns="http://www.w3.org/2000/svg" xmlns:xlink="http://www.w3.org/1999/xlink">
    <title>Quark.drive</title>
    <defs>
        <linearGradient x1="99.822%" y1="87.452%" x2="30.033%" y2="28.957%" id="linearGradient-1">
            <stop stop-color="#00FF2E" offset="0%"></stop>
            <stop stop-color="#00BDFF" offset="100%"></stop>
        </linearGradient>
    </defs>
    <g id="ICON-新版方图标" stroke="none" stroke-width="1" fill="none" fill-rule="evenodd">
        <g id="Quark.drive" transform="translate(0.061, 0)">
            <rect id="蒙版路径" fill="#FFFFFF" x="0" y="0" width="1024" height="1024"></rect>
            <g id="编组" transform="translate(137, 212.181)" fill-rule="nonzero">
                <path d="M377.126445,0 C503.608513,0 609.461301,95.6900361 623.656013,221.150306 L623.490316,219.852346 L625.009205,220.404669 C698.437087,248.822491 747.664437,318.500469 749.917151,397.203402 L750,399.96502 L750,403.140879 C750,511.120112 663.009058,598.663377 555.637381,598.663377 L500.405037,598.663377 C489.286792,598.634119 478.635549,594.189333 470.794479,586.306831 C462.953408,578.424328 458.564817,567.749808 458.594153,556.631563 C458.594153,533.433979 477.317917,514.59975 500.377421,514.59975 L555.609765,514.59975 C616.834818,514.59975 666.433463,464.697327 666.433463,403.140879 C666.433463,341.556816 616.834818,291.682009 555.637381,291.682009 C548.567641,291.682009 543.044407,292.123868 539.067678,293.007585 C540.807497,284.336107 541.691214,269.865233 541.691214,249.650195 C541.691214,158.185433 468.011267,84.0912438 377.098829,84.0912438 C288.920392,84.0912438 216.510789,154.015391 212.699757,242.33191 L212.368363,250.11967 L204.829148,248.214154 L135.319243,230.677885 L130.541645,229.462773 L130.541645,221.813094 L130.569261,221.095073 C144.598277,97.1813094 248.214154,2.09882907 373.039252,0.027616172 L377.126445,0.027616172 L377.126445,0 Z" id="路径" fill="#0D53FF"></path>
                <path d="M193.672214,208.888725 C300.629649,208.888725 387.344429,296.128213 387.344429,403.720819 C387.340853,420.036949 385.3093,436.289376 381.296487,452.104352 C378.599934,462.868933 371.726621,472.11603 362.196259,477.801081 C352.665897,483.486131 341.263562,485.140821 330.510347,482.399293 C308.116459,476.568343 294.656609,453.723643 300.408719,431.309375 C302.709746,422.285139 303.860342,413.006141 303.833125,403.693203 C303.833125,342.495766 254.510641,292.897121 193.644598,292.897121 C132.833787,292.897121 83.483688,342.495766 83.483688,403.720819 C83.483688,464.918256 132.833787,514.544517 193.672214,514.544517 L377.927314,514.544517 C400.986818,514.544517 419.682966,533.323514 419.682966,556.521099 C419.682966,579.718683 400.986818,598.525296 377.927314,598.525296 L193.672214,598.525296 C86.7147802,598.525296 0,511.313425 0,403.748435 C0,296.155829 86.7147802,208.916341 193.672214,208.916341 L193.672214,208.888725 Z" id="路径" fill="url(#linearGradient-1)"></path>
            </g>
        </g>
    </g>
</svg>