<svg xmlns="http://www.w3.org/2000/svg" width="1024" height="1024"><g fill="none" fill-rule="nonzero"><path fill="#FEFEFE" d="M510.856 1023.771c-167.158 0-334.202-.114-501.36.229-7.894 0-9.496-1.602-9.496-9.496C.229 679.5.229 344.499 0 9.496 0 1.602 1.602 0 9.496 0 344.5.229 679.501.229 1014.504 0c7.894 0 9.496 1.602 9.496 9.496a735655.25 735655.25 0 0 0 0 1005.008c0 7.894-1.602 9.496-9.496 9.496-167.845-.343-335.804-.229-503.648-.229"/><path fill="#987AE9" d="M645.177 650.211c-9.153-1.487-18.42-2.288-27.23-4.805-11.556-3.318-20.823-3.318-25.4 10.068-16.704 0-33.409 1.488-49.655-3.89-.458-1.487-.687-3.318.686-4.233 9.84-7.322 17.963-16.361 27.116-24.37 1.487-1.259 3.318-1.83 5.378-1.602 27.23 5.034 54.69.916 81.92 1.83 3.546.115 6.063-3.203 9.61-3.546 9.725-1.716 18.65 2.288 27.917 4.119 8.581-4.92 17.849-4.348 27.23-5.034 10.298-.801 16.018 1.373 15.332 12.585.114 6.064.343 12.014.458 18.078.915 3.432 1.03 7.78-3.547 3.775-9.039-7.78-18.993-7.322-29.519-5.72-13.844 2.173-27.688-.458-41.646.114-6.408.458-12.7-.687-18.65 2.631"/><path fill="#9D76E8" d="M543.235 649.868c16.018 5.149 33.294-.8 49.198 5.606-5.149 9.497-12.014 17.277-21.51 22.425-13.272 3.433-26.773 1.145-40.045 1.03-20.365-.229-40.731.458-61.097.343-6.636 0-13.043-.572-18.992-3.66-8.124-5.15-14.76-11.785-18.878-20.595 1.601-6.064 6.636-3.318 10.068-3.547 13.615-.687 27.46 1.945 40.617-3.547 13.958.801 27.573 5.263 41.875 3.09 6.178-.916 12.242-4.692 18.764-1.145"/><path fill="#9979E9" d="M483.511 649.868c-14.645 9.382-31.006 3.09-46.452 4.577-1.716.114-3.547-1.259-5.263.457-4.576-13.615-13.615-12.928-25.743-10.297-35.697 7.895-71.737 13.959-107.548 21.624-11.213 2.403-14.302-.686-12.815-11.327 1.144-8.695-1.373-17.734 2.174-26.2 9.039 7.208 20.137 5.492 29.976 5.263 22.311-.572 44.507-.801 66.818.915 23.34 1.83 46.91-.343 70.364-.686 2.746 0 5.378-.115 8.01.228 8.351 2.975 15.903 7.208 20.48 15.446"/><path fill="#987AE9" d="M464.29 636.596c-21.853.687-43.82 1.488-65.674 1.83-21.395.344-42.79-4.347-64.071-1.944-13.043 1.487-25.858-.801-38.672 0-7.094.457-8.695-1.83-8.123-7.78.114-2.174.229-4.348.343-6.407 8.352-7.323 28.832-7.895 39.358-1.259 12.814.572 24.6-4.691 37.185-5.95 6.063-.686 11.899-2.974 18.077-2.402 21.738 9.954 44.278 5.72 66.703 4.119 6.98 5.034 14.645 9.725 14.874 19.793"/><path fill="#4BB9EF" d="M445.755 176.425c5.835-7.894 13.272-14.301 21.166-20.136 26.887.8 53.889.8 80.776.114 3.432-.114 6.98-.572 10.068 1.488 7.895 3.203 13.387 9.267 18.535 15.674.458 5.034-3.546 4.005-6.064 4.005-10.64 0-21.052 3.203-31.692 1.373-4.119-.687-8.009 2.059-12.242 2.059-11.67-7.094-21.167 2.403-31.693 4.004-11.67-3.775-23.683-2.173-35.582-2.86-4.92-.229-11.556 2.174-13.272-5.72"/><path fill="#47BCF0" d="M483.969 160.179c-5.721.229-12.586 2.746-17.048-3.89 12.128-11.9 26.2-21.167 40.617-30.091 2.174-1.373 4.462-3.661 7.322-1.716 15.217 9.954 32.036 17.734 42.905 33.409-24.484 5.263-49.197 1.372-73.796 2.288"/><path fill="#A174E8" d="M450.789 675.497c17.276 0 34.438 0 51.715.114 22.882.229 45.765-1.602 68.533 2.288-33.866 24.6-86.61 23.57-120.248-2.402"/><path fill="#9B79E8" d="M645.177 650.211c4.92-5.148 10.526-5.835 17.963-5.95 14.76-.342 29.633 3.777 44.278-.457 8.467-2.517 16.704 1.03 25.057 1.945 4.233.458 2.173 5.149 4.69 6.636.115.115.687-.343.801-.572.23-.686.344-1.487.573-2.288 2.631 4.233 1.258 9.039 1.601 13.615.23 4.805-2.517 6.064-6.636 5.263-29.518-6.064-58.923-12.128-88.327-18.192"/><path fill="#4EB6EF" d="M445.755 176.425c10.068 5.15 20.823 1.831 31.234 2.289 6.98.343 13.616.8 19.565 4.805-7.208 13.386-18.42 21.853-32.379 27.23-9.267-2.402-18.65-2.974-28.26-3.089-4.348-.114-10.412 1.602-11.327-5.835 5.95-9.496 13.043-17.848 21.167-25.4"/><path fill="#53B2EF" d="M424.703 201.71c4.69 5.035 10.754 2.632 16.132 2.518 9.267-.114 18.192.8 26.544 5.034-5.263 12.814-11.556 24.485-26.2 28.718-8.353-3.204-17.277-1.716-25.858-2.746-4.005-.458-11.098 1.259-8.925-7.437 4.806-9.496 11.099-18.192 18.307-26.086"/><path fill="#63A5ED" d="M652.5 299.534c4.92 9.497 7.55 19.68 9.382 30.091 2.745 6.75-2.632 5.95-5.95 5.835-8.009-.572-15.903.801-23.684 2.288-9.61-8.81-11.326-20.937-13.271-32.836 2.86-4.348 7.322-5.607 12.013-4.92 7.094 1.03 14.302-.343 21.51-.458"/><path fill="#51B5EF" d="M589.572 188.782c7.094 5.606 11.785 13.158 16.133 20.823-1.373 7.323-7.552 6.75-12.586 6.98-7.666.457-15.331.343-22.654 3.089-11.212-2.517-17.505-10.412-21.738-20.366-.801-8.352 4.805-9.382 10.983-9.61 9.954-.23 20.023.228 29.862-.916"/><path fill="#808EEB" d="M348.274 496.897c-.572-16.246-3.546-32.379-1.487-48.625 1.373-.23 2.288.229 2.975 1.373 2.746 7.437 1.602 14.873 1.03 22.882 1.03.801 2.059-1.03 3.432-1.03 13.386.458 23.34-3.432 24.141-18.992 1.373-.458 2.517-.114 3.433 1.03 4.576 13.844 1.487 28.26 2.974 42.333.458 4.576-3.775 7.208-7.894 8.924-7.552-.229-14.874-2.517-22.54-2.746-2.746-.229-6.292-.8-6.064-5.149"/><path fill="#8A86EA" d="M703.757 528.819c7.208 8.352 12.585 17.734 16.132 28.26-.114 5.72-4.805 5.263-8.352 5.606-6.522.687-13.043.687-19.565-.343-11.555-5.492-14.073-16.704-17.276-27.46 7.666-11.555 18.535-8.008 29.06-6.063"/><path fill="#4DB7EF" d="M589.572 188.782c-9.267 8.467-20.48 2.632-30.663 3.89-5.148.572-8.81.801-8.352 7.094-11.67-3.204-20.022-10.526-25.857-20.823 15.102-5.721 31.12-1.717 46.566-4.234 1.716-.229 3.661.801 5.034-1.144 5.492 4.119 9.497 9.61 13.272 15.217"/><path fill="#8987EA" d="M305.713 557.193c4.805-11.899 10.411-23.226 19.221-32.722 9.954-.572 20.137-2.517 28.832 4.805-1.144 12.128-6.865 21.853-15.903 29.748-10.64-.572-21.51.229-32.15-1.83"/><path fill="#848BEA" d="M353.766 529.62c-9.153-4.234-19.679-.572-28.832-5.263 6.293-10.526 14.53-19.336 23.34-27.574 4.12 4.233 9.382 2.288 13.959 2.174 5.263-.115 9.61 1.258 13.386 4.805-2.975 12.357-11.784 19.565-21.853 25.858"/><path fill="#4FB6EF" d="M550.786 741.97c3.09 2.747 5.835 5.722 6.636 10.07-.343 6.406-5.72 5.262-9.382 5.606-7.208.686-14.53.114-21.738 1.373-9.497-.916-18.879-1.488-28.26 1.144-6.98-2.06-14.188-2.174-21.396-2.86-4.119-.344-9.954-.344-7.665-7.666 1.373-3.776 3.318-7.208 6.864-9.497 20.938 1.03 41.761 2.06 62.699-.228 4.233-.344 8.009 1.945 12.242 2.059"/><path fill="#5BACEE" d="M380.539 278.253c3.204-10.64 8.009-20.594 14.187-29.976 6.75 1.373 13.501 1.716 20.366 1.945 5.835.115 11.327 1.487 15.102 6.636.687 10.526-4.118 18.077-12.814 23.455-10.984-.229-21.967-1.83-32.837.8-2.059.458-4.92 1.03-4.004-2.86"/><path fill="#54B2EF" d="M568.52 218.53c5.149-4.577 11.442-4.92 17.963-4.806 6.636.115 13.73 1.488 19.222-4.004 6.407 6.178 10.983 13.73 14.53 21.853-.686 7.78-7.094 5.377-11.212 5.835-7.552.915-15.332 0-22.654 3.089-10.755-3.432-15.56-11.67-17.849-21.967"/><path fill="#57AFEE" d="M429.966 258.002c-7.78-5.377-16.59-4.92-25.4-4.805-3.89 0-8.924 1.487-9.84-4.805 2.746-7.552 6.98-14.188 11.785-20.366 2.06 7.551 8.238 3.547 12.585 4.348 8.352 1.373 17.849-3.204 24.942 4.92-.228 9.839-5.95 16.017-14.072 20.708"/><path fill="#848BEA" d="M703.757 528.819c-9.61 1.716-19.794-.458-28.603 5.377-10.412-6.75-18.764-15.102-21.167-28.031 7.78-7.895 17.162-7.094 26.773-4.805 9.84 7.322 16.246 17.62 22.997 27.459"/><path fill="#7D91EB" d="M677.9 455.137c-.115 6.979-.115 13.958-.23 21.052-2.288 5.034.458 10.526-2.173 16.59-7.437-6.408-15.217-7.895-24.6-3.776-5.949 2.631-5.262-4.233-6.406-7.78.457-12.242-2.403-24.714 2.06-36.727l.8-.8c8.238 9.038 20.709 6.75 30.548 11.44"/><path fill="#5BACEE" d="M632.02 252.396c5.72 6.98 7.78 15.675 11.327 23.798-.687 6.75-6.179 5.377-10.183 5.606-7.094.343-14.302.572-21.167 2.746-10.983-4.004-12.7-13.615-14.073-23.455 1.373-6.178 5.721-8.352 11.556-8.695 7.552-.458 14.988-.114 22.54 0"/><path fill="#947EE9" d="M738.08 631.448c-1.258-8.581-6.177-11.327-14.53-9.382-3.318.8-6.864.114-10.297.114-4.462 0-9.84-2.631-10.984 5.378-.343 2.288-3.775 1.487-5.72-.23 3.547-10.64-1.716-21.738 1.373-32.378 9.382 2.974 19.336-.458 28.832 2.402 3.204.916 1.83-4.92 4.805-5.72 4.462 12.814 6.407 26.2 6.522 39.816"/><path fill="#6D9EED" d="M352.85 378.022c-.228-8.81 1.488-17.277 4.577-25.514 5.721 2.974 11.785 4.69 18.307 4.462 6.636-.229 11.784 1.945 13.73 9.038 1.487 5.035.457 9.84-1.488 14.417-2.06 3.66-1.602 8.237-4.119 11.784-1.03.801-2.174.915-3.432.458-6.064-4.348-13.158-3.661-20.023-4.233-6.293-.573-10.526-2.86-7.551-10.412"/><path fill="#5FAAEE" d="M610.624 283.402c3.547-5.149 8.925-4.348 14.188-4.805 6.178-.458 12.928 2.517 18.42-2.403 5.263 6.865 6.293 15.446 9.153 23.34-4.805 4.577-11.441 5.378-16.819 3.89-5.835-1.601-10.526-.114-15.674.916-6.98-5.263-11.556-11.556-9.268-20.938"/><path fill="#57AFEE" d="M632.02 252.396c-6.064 6.064-13.616 2.86-20.366 2.86-6.178 0-9.954 1.717-12.242 7.208-9.153-5.034-13.272-13.157-14.645-23.111 3.547-4.348 8.123-4.92 13.386-4.92 7.437 0 15.332 1.83 22.196-2.975 5.836 5.95 8.01 13.844 11.67 20.938"/><path fill="#7894EB" d="M677.9 455.137c-4.234 0-8.467-.458-12.586.114-9.496 1.373-16.132-.8-17.162-11.67-4.805-4.92-4.005-10.412-1.602-16.018 2.174-2.517 5.263-3.661 8.238-3.204 11.327 1.717 17.848-3.203 21.052-13.73 3.661 14.646 1.945 29.634 2.06 44.508"/><path fill="#5FA9EE" d="M380.539 278.253c12.585-1.83 25.17-4.004 37.756.572 2.06 9.268-3.203 15.56-9.153 21.51-9.496 0-18.878 2.288-28.374 1.144-3.433-.457-9.496.687-6.98-6.636 1.374-5.95 3.09-11.67 6.751-16.59"/><path fill="#62A7ED" d="M373.903 294.843c4.119 5.835 10.068 4.234 15.79 3.89 6.292-.343 12.813-3.089 18.992.916 1.716 10.068-1.144 18.42-9.497 24.599-7.894-1.259-15.789-.458-23.683-.801-4.233-.23-11.098.8-8.581-7.666.915-7.437 3.203-14.416 6.979-20.938"/><path fill="#8D83EA" d="M305.713 557.193c10.983-4.462 21.967-1.945 32.95.115 2.175 10.526-3.317 18.42-8.924 26.2-8.58 1.373-16.818-1.716-25.285-2.288-4.119-.229-7.322-2.975-5.034-8.123.458-6.064 3.203-11.098 6.293-15.904"/><path fill="#6B9FED" d="M666.458 348.274c3.09 8.01 4.92 16.362 4.691 25.057 1.144 4.233 2.632 9.382-4.69 7.208-8.696-2.632-16.248.229-23.799 3.547-8.352-8.124-7.78-18.535-7.551-28.947 9.038-8.695 20.937-4.462 31.35-6.865"/><path fill="#947EE9" d="M325.85 626.413c-2.975-5.72-7.094-8.009-13.845-6.75-7.78 1.487-16.132-1.716-23.798 2.517-.114-8.81 1.373-17.276 4.348-25.514 8.238-2.288 16.59-.915 24.942-1.03 6.636-.114 10.412 4.005 10.87 10.755.228 6.865.8 13.615-2.518 20.022"/><path fill="#7498EC" d="M675.84 410.515c-.572 16.82-.572 16.82-17.734 16.82h-10.297c-6.407-6.866-6.636-14.76-3.547-22.998 3.661-4.119 8.695-5.492 13.615-5.263 7.78.458 12.014-3.776 15.675-9.382 3.318 6.636 1.945 13.844 2.288 20.823M348.16 424.36c.229-9.382-1.03-18.763 2.288-27.917 5.607 13.158 17.849 6.75 27.116 9.154 3.433.915-.343-10.183 7.094-5.035 3.318 7.552 0 14.645-1.259 21.968-.343 1.487-.915 2.86-1.258 4.462-2.06 12.013-2.174 12.013-12.242 6.75-9.497-5.034-15.904-1.602-20.023 9.268-4.119-7.208-2.631-12.929-1.716-18.65"/><path fill="#709CEC" d="M673.552 389.578c.915 9.038-2.174 13.386-12.128 12.356-5.149-.572-10.526 1.373-15.79 2.06-5.949-6.064-6.978-12.929-3.432-20.595 6.179-10.297 16.133-8.81 24.714-5.95 7.208 2.404 2.975-2.745 4.233-4.232 3.204 5.148 2.174 10.869 2.403 16.36"/><path fill="#8E83EA" d="M689.112 559.71c10.183-1.487 20.823 2.632 30.777-2.631 4.92 7.094 6.98 15.217 8.924 23.34-10.983 2.86-21.853 6.636-33.408 2.86-5.149-7.093-9.611-14.301-6.293-23.569"/><path fill="#69A2ED" d="M387.861 366.924c-2.86-8.238-9.725-6.98-16.132-6.98-5.835 0-13.157 1.946-14.302-7.436.344-7.094 1.831-14.073 4.806-20.595 5.95 2.746 12.013 4.348 18.65 4.12 6.864-.23 11.67 2.63 13.5 9.61 1.602 8.352-1.945 14.988-6.522 21.28"/><path fill="#719BEC" d="M382.942 399.417c-3.09 15.56-15.675 6.98-23.684 8.696-7.094 1.487-9.039-5.263-8.81-11.67.344-6.179-.8-12.586 2.403-18.421-.458 8.58 5.606 7.437 10.984 7.437 7.322.114 15.56-2.174 19.564 7.093 1.717 2.517 1.717 4.806-.457 6.865"/><path fill="#9181E9" d="M325.392 606.505c.229-7.55-4.462-8.695-10.526-8.123-7.552.687-15.103 2.06-22.31-1.716.457-8.467 2.974-16.247 6.864-23.57.572 4.577 3.203 6.522 7.666 5.95 8.009-1.144 15.331 1.488 22.768 3.89 3.432 8.696 3.432 16.82-4.462 23.57"/><path fill="#66A4ED" d="M392.438 346.1c-2.746-8.123-9.61-6.864-16.018-7.093-5.72-.114-13.043 2.403-14.302-7.094.573-5.72 1.717-11.212 4.691-16.246 3.547 8.695 11.327 5.034 16.705 4.233 6.178-.915 11.098 0 16.132 2.86 4.005 9.84-1.83 16.476-7.208 23.34"/><path fill="#828EEB" d="M647.465 482.367c.115 1.144 0 2.403.344 3.432 1.945 4.234 1.945 0 2.86-.686 8.123-5.034 19.908-2.632 23.684 4.92 2.974-4.234-1.145-10.069 3.203-13.959 1.716 8.352-2.975 17.391 3.09 25.286-8.238 4.118-19.222-1.488-26.087 7.322-13.157-4.004-16.475-16.132-7.094-26.315"/><path fill="#69A2ED" d="M666.458 348.274c-3.318 4.577-8.009 4.92-13.157 4.806-5.607-.115-11.556-1.373-16.705 2.174-5.95-5.035-9.038-10.87-4.92-18.535 6.865-6.636 15.332-4.348 23.455-4.577 2.517-.114 6.178 2.746 6.75-2.631 2.86 5.95 4.348 12.242 4.577 18.763"/><path fill="#4ABAEF" d="M550.786 741.97c-16.247 2.404-32.493 2.632-48.854 2.404-8.925-.115-18.078 1.83-26.087-4.12 1.602-3.088 3.89-5.377 6.98-6.864 19.335-1.602 38.557-2.746 58.007-1.373 5.034 1.602 6.522 6.75 9.954 9.954"/><path fill="#9180E9" d="M696.663 582.822c10.87 1.03 21.167-5.378 32.15-2.403 2.174 3.433 2.975 7.094 2.746 11.098.572 5.95-.915 9.153-8.123 7.666-5.149-1.03-10.984-1.259-16.018.114-5.606 1.488-6.178-2.631-8.466-5.034-4.12-2.975-5.836-6.75-2.289-11.441"/><path fill="#7897EC" d="M348.16 424.36v16.36c4.233-5.491-.229-14.416 8.695-13.272 7.552.916 16.934-1.144 20.71 9.154 2.745-4.348-1.26-10.183 3.088-14.073 5.607 10.183 6.293 20.25-.572 30.205h-1.487c-9.268-7.094-20.137-2.975-30.32-4.691h-1.487c-.343-7.895-1.716-15.904 1.373-23.684"/><path fill="#8C85EA" d="M539.002 861.876c-.801 3.433-2.289 6.407-5.035 8.696-14.873 1.716-29.862 4.233-44.392-2.174-2.517-2.403-4.004-5.378-4.805-8.696-.801-3.089 1.144-4.576 3.546-4.576 14.645-.343 29.29-1.373 43.935-.687 4.005.23 7.78 2.174 6.75 7.437"/><path fill="#47BEF0" d="M540.832 732.017c-19.221 5.034-38.557 4.92-58.007 1.373 18.077-15.331 39.129-15.79 58.007-1.373"/><path fill="#8889EA" d="M539.002 861.876c-1.717-4.119-5.035-5.377-9.268-5.263-13.73.458-27.574 2.288-41.303.572-1.03-.114-2.288 1.602-3.547 2.517-2.288-2.06-4.004-4.462-4.233-7.665.229-5.835 5.034-5.035 8.466-5.378 6.522-.686 13.043-.457 19.565.916 3.547 1.144 6.636-1.488 10.068-1.373 8.925 2.173 18.535-1.145 27.002 3.546-1.03 4.691-3.204 8.81-6.75 12.128"/><path fill="#9280E9" d="M489.69 868.398c14.759 1.03 29.747-1.488 44.392 2.174-.916 4.004-4.005 6.521-6.75 9.267-7.323 5.034-23.112 5.149-30.663.115-3.09-3.433-5.835-7.094-6.98-11.556"/><path fill="#7B93EB" d="M557.422 824.234c-.229 6.407-5.148 10.64-7.208 16.132-9.039 1.488-18.077 3.09-26.2-2.974-2.06-7.208.8-12.471 6.75-16.476 8.81.229 18.192-1.945 26.658 3.318"/><path fill="#62A7EE" d="M459.827 794.03c-1.601-8.925-1.487-17.735 1.946-26.316 4.462 3.09 9.267 4.92 14.873 4.805 4.234-.114 8.352.572 11.442 4.005 1.144 1.602 1.487 3.432 1.373 5.263-.687 3.661-1.145 7.322-3.662 10.297-8.695 1.03-17.39.229-25.972 1.945"/><path fill="#9A7CE9" d="M496.554 879.954c10.183 0 20.48-.115 30.663-.115-2.632 9.153-9.954 14.988-15.331 22.997-6.522-7.093-11.442-14.645-15.332-22.882"/><path fill="#5BAEEE" d="M487.63 777.782c-5.492-3.432-11.67-2.402-17.62-2.174-5.835.23-8.237-2.288-8.237-7.894.114-3.09.114-6.178 2.631-8.581 6.178 1.83 12.7-.572 18.878 1.373 3.89 1.258 8.124 1.716 10.183 6.064.687 5.148-.8 9.038-5.835 11.212"/><path fill="#6D9EEC" d="M485.227 791.626c.344-3.089-.686-6.521 1.716-9.267 6.408 8.238 4.463 17.963 4.92 27.23-8.58 7.78-18.65 3.318-28.145 3.204-2.289-5.263-3.662-10.755-3.662-16.476 8.925 1.259 17.734 1.83 25.171-4.69"/><path fill="#7896EC" d="M471.612 833.387c-2.174-3.661-4.348-7.208-4.69-11.555 2.173-5.264 6.978-4.92 11.326-5.264 4.805-.343 9.725-.114 14.302-2.288 6.75 4.348 9.84 9.954 6.407 17.963-8.924 3.433-18.192 2.86-27.345 1.144"/><path fill="#838DEB" d="M524.471 835.103c7.437 6.98 17.963-.457 25.629 5.263 0 3.776-1.831 6.75-4.348 9.382-9.382-.686-19.107 3.204-28.031-2.631-2.289-6.522 1.144-9.84 6.75-12.014"/><path fill="#5BAFEE" d="M559.71 756.616c3.433 4.805 4.806 10.183 4.806 15.903.8 1.03.8 2.174.114 3.204-8.695 1.258-18.192-1.03-25.857 5.263-5.835-1.945-6.064-6.75-6.179-11.67 1.488-6.064 5.149-9.268 11.67-8.81 5.492.458 10.412-1.945 15.446-3.89"/><path fill="#6E9DEC" d="M564.287 801.008c1.373 6.293-3.776 10.64-4.691 16.247-5.835-.572-11.441-2.403-17.505-2.288-4.577.114-7.666-2.517-8.124-7.552-.114-3.432.916-6.407 3.662-8.58 9.267-4.348 18.077-2.06 26.658 2.173"/><path fill="#7599EC" d="M536.256 807.759c1.03 6.521 6.521 5.606 9.954 4.462 6.521-2.288 10.068.229 13.386 5.034.343 2.631 0 5.149-2.174 6.98-8.695-.916-17.848 2.173-26.086-3.204-2.288-5.95-1.945-10.87 4.92-13.272"/><path fill="#7E91EB" d="M471.612 833.387c9.039-4.462 18.65-1.258 27.917-2.288 5.492 1.03 5.263 5.492 5.492 9.61-9.268 6.293-19.107 5.035-29.061 2.06-1.488-3.089-2.86-6.293-4.348-9.382"/><path fill="#55B2EF" d="M559.71 756.616c-2.06 7.322-8.695 7.551-13.73 6.75-5.949-.915-9.038 1.373-12.241 5.149-5.95-1.602-8.81-5.606-9.268-11.556 6.293-3.776 13.386-1.945 20.022-2.517 4.348-.343 9.268 1.716 12.93-2.403a85.293 85.293 0 0 0 2.287 4.577"/><path fill="#57B3EF" d="M492.206 766.112c-6.521-2.06-12.585-5.263-19.907-3.318-2.06.572-7.437 2.06-7.78-3.775.343-3.662 1.944-6.865 4.576-9.382 1.602 7.55 7.78 4.004 12.128 4.805 5.95 1.03 13.157-2.86 17.39 4.691 1.602 5.835-2.402 6.407-6.407 6.98"/><path fill="#65A7EE" d="m564.058 775.38.343-2.746c3.09 5.377 2.06 11.212 1.602 16.933-9.039 8.009-19.793 7.666-28.374-1.144-.687-1.83-.801-3.661 0-5.492 7.436-7.437 18.42-2.517 26.43-7.551"/><path fill="#848EEB" d="M475.96 842.77c9.267-2.29 18.992.457 28.031-2.861 5.835 1.945 9.153 5.492 6.98 12.128-10.184-3.09-20.252-4.12-30.435.114-2.517-2.631-4.004-5.835-4.576-9.382"/><path fill="#69A3ED" d="M539.345 787.05c8.238 8.466 17.505 4.805 26.773 2.403.686 4.004.114 7.894-1.831 11.44-8.695 2.06-17.276-4.118-25.972-.114-3.318-4.805-3.776-9.496 1.03-13.73"/><path fill="#739AEC" d="M492.32 814.738c-.686 5.606-5.033 4.69-8.695 4.805-5.606.23-11.44-1.03-16.704 2.289-2.517-2.403-2.746-5.721-3.203-8.925 8.237-5.606 17.962-.343 26.543-3.318 2.975.801 3.776 2.517 2.06 5.149"/><path fill="#68A2ED" d="M485.227 791.626c-3.089 9.382-16.246 11.9-25.17 4.806-.115-.801-.115-1.602-.23-2.403 7.78-7.78 16.59-5.149 25.4-2.403"/><path fill="#FEFEFE" d="M380.081 452.848c.23-10.068.344-20.136.572-30.205.687-7.78 3.09-15.331 2.174-23.226.23-2.288.344-4.576.572-6.75h-.114c2.517-3.547-.343-8.124 2.06-11.67 1.372-4.577 2.974-9.039 2.516-13.959-1.487-7.665 6.064-13.272 4.577-20.937.686-8.238 7.322-14.645 7.208-23.112 2.975-7.78 5.95-15.56 8.924-23.226 3.204-6.98 6.407-13.844 9.611-20.823 3.89-6.98 7.78-13.959 11.67-20.823 4.691-6.98 9.382-13.844 14.073-20.824l23.34-27.802c9.725-8.581 19.45-17.276 29.176-25.857 8.695-5.378 16.933-14.188 28.145-4.577 8.581 6.98 17.277 13.844 25.858 20.823 5.95 6.293 12.013 12.471 17.963 18.764 5.377 6.98 10.755 13.958 16.247 20.938 4.92 7.665 9.725 15.445 14.644 23.111l11.327 20.938c3.09 6.98 6.293 13.958 9.382 20.937 3.89 10.87 7.78 21.625 11.556 32.494 1.602 6.178 3.318 12.357 4.92 18.535 1.83 9.382 3.775 18.764 5.606 28.146l3.432 20.594c-.686 7.895.801 15.56 2.174 23.226l.344 16.247-.687 38.9c-3.661 10.412-4.119 20.023 7.208 26.315 6.865 8.467 13.615 16.933 20.48 25.4 4.691 8.467 9.268 17.048 13.959 25.514a1804.035 1804.035 0 0 1 7.436 23.112c.801 3.89 1.602 7.78 2.403 11.555.801 8.238 1.602 16.362 2.174 24.6.229 3.66.915 7.894-4.691 8.237-9.153-1.945-18.077-5.263-27.574-5.148-23.226.114-45.307-7.437-67.732-11.556-10.526-1.945-19.107-2.632-23.684 9.153-.572 1.373-2.288 1.945-3.661 2.746-8.696 10.869-18.192 20.709-30.549 27.459-19.907 7.322-39.815 6.98-59.838.114-6.407-4.462-12.7-8.924-19.107-13.272-4.69-6.292-9.496-12.585-14.187-18.878-6.75-13.386-17.849-10.297-29.175-8.123-12.586 2.288-24.714 8.009-37.986 5.606-19.221 2.632-38.328 6.407-57.092 11.213-1.945-6.636.229-13.387-.458-20.023 1.488-7.894 2.975-15.789 4.577-23.683 2.975-8.467 5.835-17.048 8.81-25.514 5.034-9.154 10.068-18.421 15.102-27.574 7.323-8.581 14.645-17.162 21.968-25.858 5.835-4.118 6.979-9.153 5.95-16.59-1.717-11.555-1.145-23.225-1.603-34.667"/><path fill="#967DE9" d="M573.783 622.295c8.81-18.078 8.81-18.192 29.176-14.073 22.081 4.462 44.049 9.267 66.016 13.958-6.178 4.805-13.272 4.92-20.594 4.805a2936.933 2936.933 0 0 0-63.5 0c-4.69 0-8.352-.915-11.098-4.69"/><path fill="#967EE9" d="M382.942 615.2c18.65-4.004 37.184-8.466 55.948-11.67 10.64-1.83 6.865 9.84 11.212 14.188-10.983 8.581-23.798 2.403-35.697 3.89-4.462.572-9.61-1.259-14.416.572-7.665 2.746-11.098-5.148-17.047-6.98"/><path fill="#7B92EB" d="M348.274 448.157c9.268-5.492 27.345-2.746 30.32 4.691-.114 19.794-.114 19.908-19.794 20.824-3.546.114-6.521 1.258-10.526 2.745v-28.26"/><path fill="#FEFEFE" d="m492.32 814.738-2.059-5.149c-2.402-8.924-3.318-17.963-3.318-27.23.23-1.602.458-3.09.687-4.691 1.487-3.89 3.09-7.78 4.576-11.556 1.602-2.746 5.607-3.318 6.293-6.979 8.124-6.865 16.933-5.72 25.972-2.174 3.09 3.89 6.178 7.666 9.268 11.556 1.487 3.89 2.974 7.894 4.462 11.784 1.716.115 1.945.801.8 1.945.115 1.602.344 3.09.458 4.691-.343 4.577-.686 9.268-1.03 13.844-1.945 1.945-2.059 4.463-2.059 6.865-2.746 4.005-4.233 8.467-5.034 13.272l-6.865 14.073c-2.86 3.661-5.606 7.437-6.75 12.013-2.289 1.488-2.86 5.378-6.636 4.806-1.259-4.691-3.89-8.467-6.98-12.128-1.487-2.975-2.974-5.835-4.462-8.81-2.517-5.263-4.92-10.755-7.322-16.132"/><path fill="#719BEC" d="M385.344 380.882c0 4.005.801 8.238-2.06 11.67.344-3.89-1.6-8.237 2.06-11.67"/><path fill="#61ABEE" d="M538.887 782.359a13.957 13.957 0 0 1-.8-1.945c6.864-10.87 16.36-8.123 25.971-5.034-.114 2.974 0 8.009-3.89 6.292-7.551-3.089-14.187 1.602-21.28.687"/><path fill="#9180E9" d="M464.175 420.47c-2.975-1.717-5.263-4.005-6.521-7.209.228-6.178 5.034-6.407 8.924-5.95 10.411 1.26 20.594-.571 30.891-1.372 9.154 1.945 18.307 1.716 27.46-.23 12.7 1.03 25.285 1.603 37.985 1.26 2.86-.115 6.636-.458 6.178 4.462-1.716 2.173-3.432 4.347-5.034 6.521-11.098 7.78-23.912 3.661-35.926 4.577-17.505 1.373-35.239-1.03-52.859-.115-3.89.115-7.665.23-11.098-1.945"/><path fill="#56B1EF" d="M457.31 329.625c1.488-1.716 2.86-3.432 4.348-5.263 5.95-1.945 11.9-2.86 18.192-2.517 21.853 1.258 43.591 1.716 65.444 0 7.208-.572 13.73 1.03 19.45 5.377.687 0 1.145.23 1.717.572.229 4.234-3.09 5.149-5.95 6.408-9.267 2.173-18.992 0-28.26 2.517-13.73-2.975-27.459-1.945-41.303 0-7.551-2.06-15.331-.572-22.997-1.373-4.119-.458-9.61.915-10.64-5.721"/><path fill="#4BBBF0" d="M478.134 310.861c23.34-12.7 46.68-12.814 69.792.687-.687 6.064-5.72 7.437-10.183 7.093-17.162-1.144-34.438-.8-51.6-1.83-3.433-.23-8.124-.344-8.01-5.95"/><path fill="#967CE9" d="M464.175 420.47c31.12-2.403 62.127-1.145 93.247-.802 2.174 0 4.462-1.144 6.636-1.716-3.203 5.606-8.352 8.581-13.844 11.327-21.51-1.144-43.134-.915-64.643-.686-4.234 0-8.467.915-12.586-.916-4.004-1.258-6.75-3.89-8.81-7.208"/><path fill="#9A79E8" d="M472.985 427.563c15.675-4.577 31.807-2.746 47.71-1.945 9.84.458 20.595-4.462 29.52 3.661-5.035 4.462-11.786 5.492-17.85 7.666-15.674-2.632-31.692 0-47.367-2.632-4.805-.8-8.81-3.089-12.013-6.75"/><path fill="#4EB7EF" d="M478.134 310.861c3.318 4.691 8.81 3.204 12.814 3.09 16.018-.573 31.807 1.258 47.71 1.83 3.547.114 6.75-1.487 9.153-4.233 4.348.686 6.408 4.462 9.268 7.093-1.259 5.492-5.835 4.12-9.382 4.12-23.112.686-46.223.686-69.335 0-3.66-.115-9.153 1.83-9.61-5.035 2.288-3.432 5.95-5.034 9.382-6.865"/><path fill="#53B4EF" d="M468.752 317.726c1.716 2.632 4.347 2.86 7.093 2.86 25.4 0 50.686 0 76.085-.114 1.716 0 3.433-1.259 5.263-1.83 5.034.686 5.034 5.834 7.666 8.695-15.103-2.86-30.32-3.547-45.422-.115-9.268 2.174-18.077-2.402-27.345-2.174-10.068.344-20.251-.343-30.32-.572 1.717-2.974 3.89-5.263 6.98-6.75"/><path fill="#7C92EB" d="M446.098 390.15c-2.517-4.348-2.86-9.153-2.403-13.959 9.84-4.233 19.68-2.288 29.633-.343 3.318 2.975 3.318 6.75 2.746 10.64-6.636 8.238-19.908 9.84-29.976 3.662"/><path fill="#858CEB" d="M446.098 390.15c7.551 0 15.102-.115 22.654-.115 3.318 0 4.805-1.945 5.148-4.92 7.208 2.289 9.153 8.238 10.069 14.874-10.87 6.179-22.082 6.293-33.409 1.716-2.86-3.318-4.119-7.208-4.462-11.555"/><path fill="#65A4ED" d="M576.186 343.126c1.487 5.377 2.975 10.755 4.576 16.132.916 1.716.916 3.547.23 5.378-1.145.686-2.289.686-3.548.114-3.775-4.805-9.267-3.89-14.416-4.005-4.462-.228-8.924.344-13.272-1.372-4.462-2.86-6.063-6.75-4.462-11.9 9.382-8.123 20.48-3.89 30.892-4.347"/><path fill="#7F8FEB" d="M580.877 381.225c0 4.806-.343 9.497-3.09 13.616-11.326 4.805-22.424 5.148-33.18-1.717-.8-5.034.687-9.038 5.15-11.67 8.466-2.517 17.276-.686 25.971-1.716 1.259-.229 2.517-.114 3.661.343.573.23 1.03.687 1.488 1.144"/><path fill="#8B87EA" d="M450.56 401.705c10.87-.114 21.853.573 32.493-2.517 6.636.344 11.9 2.403 14.188 9.268-10.526.915-20.938 4.348-31.807 1.03-3.09-.916-5.835 1.144-8.01 3.546-3.317-2.974-5.949-6.636-6.864-11.327"/><path fill="#61A8EE" d="M447.814 347.702c.343-4.233 1.945-8.009 5.034-11.098 10.412.343 21.167-1.945 30.663 4.462 0 6.522-3.09 10.87-9.153 13.158-5.95.229-12.013.114-17.849-.572-3.66-.343-9.038.572-8.695-5.95"/><path fill="#8C87EA" d="M569.092 411.316c-6.865-4.69-14.53-.457-21.853-1.373-7.093-.915-14.988-2.402-22.54-1.258 1.374-6.75 7.438-6.98 12.358-8.696 8.008-1.373 16.132-1.716 24.255-1.373 4.691.23 9.496.23 11.9 5.378.228 3.318-1.717 5.492-4.12 7.322"/><path fill="#9F78E9" d="M484.998 434.313c12.93-.8 25.515-3.775 38.787-1.487 3.89.686 5.72 2.631 8.58 4.119-16.132 6.75-31.92 5.034-47.367-2.632"/><path fill="#5CADEE" d="M530.878 334.888c9.954-5.149 20.709-1.716 31.006-2.746 1.945-1.83 4.806-.572 6.865-1.945 2.746 2.06 4.348 4.92 5.149 8.352.343 6.293-4.691 3.776-7.323 3.776-8.123 0-16.247.114-24.255 1.258-5.263-.915-10.298-2.288-11.442-8.695"/><path fill="#5BADEE" d="M482.825 341.41c-9.84-2.403-20.71.8-30.091-4.691.915-2.746 2.174-5.263 4.576-6.98 4.92 4.691 10.984 1.945 16.59 2.403 6.407.572 13.158-.915 19.107 2.746-.915 5.95-5.148 6.865-10.182 6.522"/><path fill="#868AEA" d="M573.211 403.994c-12.013-5.149-24.599-.572-36.84-1.83 1.372-4.806 2.974-9.612 9.267-9.612 10.526 2.975 21.395 2.06 32.15 2.174-1.488 3.09-2.975 6.179-4.577 9.268"/><path fill="#7399EC" d="M471.498 375.848c-9.268 3.547-18.535.229-27.803.343v-9.267c9.497-5.034 18.878-5.263 28.031 1.03 1.717 2.745 1.946 5.377-.228 7.894"/><path fill="#6AA3ED" d="M447.814 347.702c4.119 5.035 9.725 2.403 14.76 2.86 4.462.458 9.038-.457 13.043 2.403 1.83 2.632.114 4.462-1.373 6.293-8.353 5.95-17.506 2.288-26.201 1.602-3.318-.229-3.776-3.204-2.288-6.064-.23-2.517 0-5.034 2.06-7.094"/><path fill="#6F9EED" d="M445.64 354.796c8.696 7.322 18.192 5.263 27.917 2.86 3.661 4.691 1.83 8.352-2.174 11.556-8.924-4.462-18.42-1.487-27.688-2.288-.229-4.12-.8-8.352 1.945-12.128"/><path fill="#60A9EE" d="M540.146 341.753c10.869-4.806 22.54-1.144 33.752-3.204.8 1.602 1.601 3.09 2.288 4.691-4.691 5.149-10.755 2.288-16.247 2.746-4.92.458-9.954-.343-14.416 2.403-5.034.343-6.293-2.288-5.377-6.636"/><path fill="#7C97EC" d="M580.42 364.636c.114-1.717.228-3.547.342-5.263 2.975 7.208 2.746 14.53.115 21.852l-.572-.457c-3.89-5.492-3.89-10.755.114-16.132"/><path fill="#57B1EF" d="M568.75 330.197c-.802 5.95-4.692.801-6.866 1.945 1.488-1.373 2.975-2.86 4.462-4.233.801.686 1.602 1.487 2.403 2.288"/><path fill="#FEFEFE" d="M540.146 341.753c1.83 2.174 3.66 4.462 5.377 6.636 1.488 3.089 3.09 6.178 4.577 9.267 2.746 2.403 3.318 5.95 4.233 9.268a17.334 17.334 0 0 1 0 6.865c-.915 3.318-1.487 6.864-4.348 9.267-1.487 3.09-2.974 6.293-4.462 9.382l-9.267 9.61-11.67 6.522c-9.154 2.289-18.307 2.403-27.46-.114-4.69-3.09-9.496-6.178-14.187-9.268-3.09-4.69-6.178-9.382-9.153-14.072-.229-3.204-.114-6.522-2.288-9.268 0-2.174-.115-4.462-.23-6.636.687-3.89 1.488-7.78 2.175-11.556.686-1.601 1.373-3.089 2.06-4.69 2.402-3.89 4.804-7.78 7.207-11.556l10.297-6.522c12.586-5.377 25.286-4.119 37.871 0l9.268 6.865"/><path fill="#7299EC" d="M552.388 373.33v-5.834c-1.487-2.975-1.03-5.72 2.517-5.835 7.895-.229 16.018-2.174 23.226 3.089h2.288c0 5.377 0 10.755-.114 16.132-.687.115-1.488.115-2.174.115-6.522-2.06-13.386-1.144-20.022-1.259-4.005-.229-8.124-.458-5.721-6.407"/><path fill="#6FA1ED" d="M578.13 364.636c-7.093-.115-14.3 0-21.394-.573-3.204-.228-4.005.916-4.348 3.433-2.174-2.975-2.06-6.407-2.288-9.725 6.75 0 13.615.114 20.365-.115 5.149-.229 8.124 1.373 7.666 6.98"/><path fill="#7C97EC" d="M552.388 373.33c1.03 6.98 5.95 1.946 8.924 2.861 5.606 1.716 13.158-3.89 16.819 4.691-9.039 4.806-18.65 1.144-28.031 2.289.228-3.433 0-6.98 2.288-9.84"/></g></svg>