<svg xmlns="http://www.w3.org/2000/svg" width="1025" height="1024"><g fill="none" fill-rule="evenodd"><path fill="#FFF" d="M.633 0h1024v1024H.633z"/><path fill="#D81E06" fill-rule="nonzero" d="M684.324 520.326c-27.06-5.413-13.982-19.845-13.982-19.845s26.159-43.296-5.412-74.867c-39.237-39.237-134.4 4.51-134.4 4.51-36.531 11.275-26.158-4.51-21.648-32.923 0-32.924-11.275-88.397-107.79-55.474C306.38 375.553 223.846 491.01 223.846 491.01c-58.18 77.122-50.512 136.204-50.512 136.204 13.98 131.243 153.793 166.872 261.583 175.441 114.556 9.472 267.447-39.237 314.352-138.91 47.806-98.77-37.885-138.007-64.945-143.42M443.937 766.125c-113.653 4.51-204.756-51.415-204.756-127.635s91.103-136.204 204.756-141.616c112.752-4.51 204.757 42.395 204.757 117.262 0 75.769-92.005 146.126-204.757 151.989"/><path fill="#2C2C2C" fill-rule="nonzero" d="M421.387 547.386c-113.654 13.08-100.574 119.968-100.574 119.968s-.902 33.825 31.12 50.512c66.748 35.63 135.3 13.981 170.028-31.12 33.826-43.747 13.08-152.44-100.574-139.36m-28.864 149.283c-21.649 2.706-38.336-9.471-38.336-27.06 0-18.04 14.883-36.532 36.532-38.336 24.354-1.804 40.14 12.177 40.14 28.865 0 17.589-16.688 34.276-38.336 36.531m66.749-57.278c-7.668 5.412-15.786 4.51-19.845-1.804-3.608-6.765-2.706-15.785 4.51-21.648 8.57-6.765 16.688-4.51 20.747 1.804 4.96 6.314 1.804 15.785-5.412 21.648"/><path fill="#D81E06" fill-rule="nonzero" d="M849.392 460.793c.902-1.804.902-4.51.902-6.765a181.305 181.305 0 0 0 2.706-31.12c0-112.751-92.005-203.404-204.757-203.404-15.785 0-27.962 12.178-27.962 27.963s12.177 27.962 27.962 27.962c81.632 0 147.48 65.847 147.48 147.48 0 9.47-.903 18.04-2.707 27.06v2.706c0 15.785 12.177 27.962 27.963 27.962 14.432.902 25.707-7.667 28.413-19.844"/><path fill="#D81E06" fill-rule="nonzero" d="M761.446 433.732c0-3.608.902-6.765.902-10.373 0-61.788-50.513-112.751-112.752-112.751-13.079 0-23.452 10.373-23.452 23.452 0 13.08 10.373 23.452 23.452 23.452 36.532 0 65.847 28.865 65.847 65.847 0 2.706 0 5.412-.902 8.57h.902c0 .901-.902 1.803-.902 2.705 0 13.08 10.373 23.453 23.452 23.453 12.178 0 21.649-9.471 22.55-20.747v-1.804c.903 0 .903 0 .903-1.804 0 .902 0 .902 0 0"/></g></svg>