<svg xmlns="http://www.w3.org/2000/svg" width="1025" height="1024"><g fill="none" fill-rule="evenodd"><path fill="#FFF" d="M.061 0h1024v1024H.061z"/><g fill="#4FB3BB" fill-rule="nonzero"><path d="M241.31 358.757c-13.939 36.068-16.05 92.688-4.646 130.015 15.206 49.07 40.972 83.88 82.788 111.141 45.618 29.359 64.625 32.714 185.006 32.714h105.597l12.25-12.163c16.05-16.357 16.895-40.682 2.111-57.877l-10.137-11.744-100.95-2.097c-114.046-2.936-126.717-5.452-156.284-31.036-62.936-54.941-48.997-154.34 26.188-189.57l21.119-10.065h195.566l154.393-1.325c27.167-3.167 40.75-17.404 40.75-42.713 0-25.308-13.583-39.82-40.75-43.537l-158.617-.08c-186.696 0-201.48.419-225.978 8.387-55.333 17.196-107.286 65.847-128.406 119.95"/><path d="M401.818 401.536c-16.051 16.357-16.896 40.682-2.112 57.877l10.137 11.744 100.95 2.097c114.046 2.936 126.717 5.452 156.284 31.036 63.359 55.36 48.575 156.437-28.3 190.828-18.162 8.388-27.032 8.807-214.15 8.807A93756711814.253 93756711814.253 0 0 1 265.81 704c-24.5 6.667-36.75 21.32-36.75 43.963 0 22.641 12.25 37.737 36.75 45.287l161.35-1.25c187.118 0 199.367-.42 225.978-8.388 56.177-17.615 108.131-65.427 129.673-120.369 13.939-36.068 16.05-92.688 4.646-130.015-9.715-31.035-34.213-71.718-54.066-89.752-20.697-18.873-53.22-37.327-81.52-45.715-23.654-7.55-39.283-8.388-132.208-8.388H414.067l-12.25 12.163"/></g></g></svg>