<svg xmlns="http://www.w3.org/2000/svg" xmlns:xlink="http://www.w3.org/1999/xlink" width="1025" height="1024"><defs><linearGradient id="a" x1="21.568%" x2="21.568%" y1="2.338%" y2="100%"><stop offset="0%" stop-color="#AFFA23"/><stop offset="100%" stop-color="#64BB02"/></linearGradient><linearGradient id="b" x1="28.899%" x2="31.043%" y1="0%" y2="100%"><stop offset="0%" stop-color="#52C7FF"/><stop offset="100%" stop-color="#0081F5"/></linearGradient><linearGradient id="d" x1="33.719%" x2="33.719%" y1="7.728%" y2="93.403%"><stop offset="0%" stop-color="#FFBB09"/><stop offset="100%" stop-color="#FF7203"/></linearGradient><path id="c" d="M594.858 317.8c0 96.001-439.737 361.495-530.229 311.605-90.491-49.89-81.742-583.17 0-624.895C146.372-37.214 594.858 221.8 594.858 317.8"/><path id="f" d="M594.858 317.8c0 96.001-439.737 361.495-530.229 311.605-90.491-49.89-81.742-583.17 0-624.895C146.372-37.214 594.858 221.8 594.858 317.8"/></defs><g fill="none" fill-rule="evenodd"><path fill="#FFF" d="M.633 0h1024v1024H.633z"/><path fill="url(#a)" fill-rule="nonzero" d="M717.605 508.985c0 74.54-411.028 280.684-495.612 241.946-84.584-38.737-76.406-452.803 0-485.2 76.406-32.398 495.612 168.714 495.612 243.254" transform="translate(.633)"/><path fill="url(#b)" fill-rule="nonzero" d="M594.858 317.8c0 96.001-439.737 361.495-530.229 311.605-90.491-49.89-81.742-583.17 0-624.895C146.372-37.214 594.858 221.8 594.858 317.8" transform="translate(267.358 194.028)"/><g transform="translate(267.358 194.028)"><mask id="e" fill="#fff"><use xlink:href="#c"/></mask><path fill="url(#d)" fill-rule="nonzero" d="M449.15 314.76c0 74.67-411.23 281.17-495.855 242.365-84.626-38.804-76.444-453.589 0-486.042C29.738 38.63 449.15 240.09 449.15 314.76" mask="url(#e)"/></g><g transform="translate(267.358 194.028)"><mask id="g" fill="#fff"><use xlink:href="#f"/></mask><path fill="#FFF" fill-rule="nonzero" d="M327.293 317.511c0 9.259-15.28 22.952-37.715 37.637l-4.914 3.16a412 412 0 0 1-2.533 1.59l-5.21 3.192-5.383 3.203-5.54 3.208-5.68 3.204-5.801 3.193-5.905 3.174-9.012 4.71-6.085 3.096-6.127 3.05-6.15 2.997-6.157 2.938-6.144 2.87-6.115 2.795-6.067 2.713-6.001 2.622-5.92 2.525c-.978.412-1.952.82-2.922 1.224l-5.76 2.364-5.634 2.248-5.488 2.124c-.902.343-1.797.68-2.684 1.013l-5.237 1.924c-.858.308-1.708.611-2.549.908l-4.946 1.707-4.73 1.553c-.769.245-1.528.484-2.278.716l-4.371 1.308-4.111 1.134-3.833.954c-8.604 2.01-14.789 2.486-17.539.995-3.478-1.884-6.34-9.724-8.586-21.421l-.767-4.285c-.371-2.22-.723-4.551-1.055-6.984l-.64-4.996-.588-5.244-.537-5.473c-.085-.93-.168-1.869-.25-2.816l-.46-5.776-.409-5.953a614.232 614.232 0 0 1-.185-3.036l-.332-6.18-.282-6.306-.23-6.41-.179-6.495-.128-6.56-.077-6.602-.025-6.626.025-6.628.077-6.61.128-6.572.288-9.74.256-6.387.306-6.276c.056-1.035.113-2.065.173-3.09l.384-6.072.434-5.91c.077-.97.156-1.934.237-2.889l.511-5.63.563-5.417c.098-.884.198-1.758.3-2.623l.64-5.06c.332-2.465.684-4.832 1.055-7.088l.767-4.361c2.246-11.92 5.108-20.046 8.586-22.277 3.143-2.017 10.772-1.373 21.372 1.265l4.11 1.082 4.372 1.26c.75.225 1.51.457 2.279.696l4.73 1.515 4.945 1.675 5.145 1.828 5.325 1.971 5.488 2.108 5.633 2.237 5.761 2.357 5.87 2.471c.987.42 1.978.846 2.972 1.276l6.001 2.625 6.067 2.72 6.115 2.806 6.144 2.883 6.156 2.954 6.15 3.017 6.128 3.071 6.085 3.119 6.027 3.158c.998.529 1.993 1.06 2.985 1.59l5.905 3.203 5.8 3.221 5.68 3.234 5.54 3.238a499.57 499.57 0 0 1 5.384 3.235l5.21 3.223a398.404 398.404 0 0 1 5.016 3.204l4.807 3.177c21.13 14.225 35.339 27.397 35.339 36.325" mask="url(#g)"/></g></g></svg>