<?xml version="1.0" encoding="UTF-8"?>
<svg width="1025px" height="1024px" viewBox="0 0 1025 1024" version="1.1" xmlns="http://www.w3.org/2000/svg" xmlns:xlink="http://www.w3.org/1999/xlink">
    <title>Tencent.cloud</title>
    <g id="ICON-新版方图标" stroke="none" stroke-width="1" fill="none" fill-rule="evenodd">
        <g id="Tencent.cloud" transform="translate(0.6332, 0)">
            <rect id="蒙版路径" fill="#FFFFFF" x="0" y="0" width="1024" height="1024"></rect>
            <g id="编组" transform="translate(112.0321, 220.0011)" fill-rule="nonzero">
                <path d="M695.376215,475.68964 C672.98594,498.148158 642.25378,510.267067 610.561048,509.135621 L337.152155,509.85575 C421.967322,428.401184 488.219169,357.828564 495.580486,354.307934 C507.129649,342.387662 519.451886,331.241517 532.467083,320.941968 C561.832334,287.576001 587.676955,283.815328 613.681605,283.735314 C644.258387,282.839872 673.79815,294.864908 695.056157,316.861238 C739.464099,357.428493 739.624127,434.962357 695.056157,475.68964 L695.376215,475.68964 Z M750.26603,265.011966 C716.900063,231.886043 668.811464,206.121435 620.802879,206.280722 C572.794294,206.441493 536.227755,225.004812 502.621745,247.408818 C491.579771,258.610822 469.495822,273.413469 454.61316,295.417403 C436.289884,306.459377 163.681135,584.269057 163.681135,584.269057 L566.393149,583.468914 C587.38049,584.404846 608.407955,583.11745 629.124367,579.628227 C672.939332,574.870785 714.201082,556.64405 747.225486,527.458898 C817.238006,453.365648 816.917949,335.424558 750.26603,265.171995 L750.26603,265.011966 Z" id="形状" fill="#00A3FF"></path>
                <path d="M296.184829,247.408818 C263.152028,222.747164 222.817509,209.846877 181.60434,210.762265 C131.590268,210.101781 83.9538177,232.067478 51.9811604,270.532954 C-18.9116917,345.677013 -17.0667597,463.610751 56.1419041,536.500515 C85.7471984,565.999123 119.033151,580.695084 155.999761,580.588975 L229.69294,510.095793 L189.285714,510.095793 C158.1989,508.157839 128.467613,496.673291 104.150489,477.209912 C59.742548,433.042014 59.5825197,362.869465 104.150489,314.700852 C124.813536,292.144704 154.405166,279.89787 184.964941,281.254871 C207.208918,281.254871 229.292867,284.855515 258.978176,314.380795 C270.180179,329.023413 303.386117,351.187377 314.508106,365.910009 L318.188764,365.910009 L362.436677,314.060737 C347.714044,295.417404 310.587405,266.212181 296.184829,247.408818" id="路径" fill="#00C8DC"></path>
                <path d="M631.764839,161.873522 C598.238844,65.9363664 502.061645,-0.635537693 398.603144,0.0045763349 C272.98068,0.324633635 173.522894,92.9812029 151.678988,211.162337 C159.040305,211.162337 170.08228,207.481679 181.204269,207.481678 C192.326258,207.481678 210.729549,211.082322 221.851537,211.002308 C239.031678,131.071143 309.645272,73.9537764 391.401857,73.857783 C461.035193,73.7047191 524.472292,113.844123 554.15096,176.836198 C554.15096,176.836198 557.911632,180.516856 557.831618,176.836198 C583.756254,173.15554 609.600876,161.953537 631.764839,161.873522" id="路径" fill="#006EFF"></path>
            </g>
        </g>
    </g>
</svg>