<svg xmlns="http://www.w3.org/2000/svg" width="1025" height="1024"><g fill="none" fill-rule="evenodd"><path fill="#FFF" d="M.398 0h1024v1024H.398z"/><g fill-rule="nonzero"><path fill="#504B5A" d="M142.398 372.07c0 56.37 45.698 102.069 102.069 102.069s102.07-45.698 102.07-102.07c0-56.371-45.699-102.069-102.07-102.069-56.371 0-102.07 45.698-102.07 102.07"/><path fill="#625D6B" d="M193.433 372.07c0 28.185 22.849 51.033 51.034 51.033S295.5 400.255 295.5 372.07c0-28.185-22.849-51.034-51.034-51.034s-51.034 22.85-51.034 51.034"/><path fill="#504B5A" d="M678.259 372.07c0 56.37 45.698 102.069 102.07 102.069 56.37 0 102.069-45.698 102.069-102.07a102.07 102.07 0 1 0-204.14 0"/><path fill="#625D6B" d="M729.294 372.07c0 28.185 22.849 51.033 51.034 51.033s51.034-22.848 51.034-51.034c0-28.185-22.849-51.034-51.034-51.034s-51.034 22.85-51.034 51.034"/><path fill="#EDEDEE" d="M167.914 563.449c0 147.974 154.23 267.93 344.484 267.93 190.252 0 344.483-119.956 344.483-267.93s-154.23-267.93-344.483-267.93c-190.253 0-344.484 119.956-344.484 267.93Z"/><path fill="#DCDBDE" d="M614.467 805.863a293.237 293.237 0 0 1-56.906-5.556c-6.55-1.295-6.62-10.477-.097-11.898 55.403-12.063 95.28-46.856 95.28-97.374 0-51.034-68.601-127.586-140.345-127.586-58.47 0-114.703 50.804-133.535 97.236-2.38 5.873-10.662 6.029-13.689.461-20.055-36.887-31.398-78.784-31.398-123.214 0-106.8 65.476-198.979 160.188-242.023-181.68 7.452-326.05 124.376-326.05 267.54 0 147.974 154.23 267.93 344.483 267.93 59.111 0 114.734-11.595 163.346-31.999a294.08 294.08 0 0 1-61.277 6.483"/><path fill="#504B5A" d="M410.328 525.173c0 38.276-25.517 140.344-89.31 140.344-38.276 0-76.553-38.276-63.793-89.31 12.759-51.034 63.793-102.07 102.07-102.07 28.184 0 51.033 22.85 51.033 51.036m204.139 0c0 38.276 25.517 140.344 89.31 140.344 38.276 0 76.553-38.276 63.793-89.31-12.759-51.034-63.793-102.07-102.07-102.07-28.184 0-51.033 22.85-51.033 51.036m21.78 156.84a12.755 12.755 0 0 0-18.043 0l-11.985 11.981c-5.657 5.644-13.756 8.347-21.656 7.227l-59.406-8.49v-34.196c1.458-.52 2.957-.876 4.359-1.576l20.87-10.435a23.6 23.6 0 0 0 13.047-21.11v-.087c0-13.037-10.567-23.603-23.603-23.603h-54.863c-13.037 0-23.603 10.566-23.603 23.603v.085c0 8.94 5.05 17.113 13.046 21.11l20.87 10.436c1.401.7 2.901 1.058 4.36 1.575v34.195l-59.395 8.484c-8.012 1.165-16.012-1.576-21.667-7.214l-11.987-11.986a12.755 12.755 0 0 0-18.042 0 12.755 12.755 0 0 0 0 18.042l11.987 11.993c11.314 11.296 27.56 16.702 43.309 14.429l68.553-9.793 68.564 9.8a50.54 50.54 0 0 0 7.114.499c13.43 0 26.576-5.34 36.183-14.939l11.987-11.986a12.755 12.755 0 0 0 0-18.043"/><path fill="#8D8A94" d="M359.294 557.07c-10.565 0-19.137-8.567-19.137-19.138v-12.76c0-10.572 8.572-19.137 19.137-19.137 10.565 0 19.137 8.567 19.137 19.138v12.759c0 10.571-8.572 19.137-19.137 19.137m306.207 0c-10.565 0-19.137-8.567-19.137-19.138v-12.76c0-10.572 8.572-19.137 19.137-19.137 10.565 0 19.137 8.567 19.137 19.138v12.759c0 10.571-8.572 19.137-19.137 19.137"/></g></g></svg>