<svg xmlns="http://www.w3.org/2000/svg" width="1025" height="1024"><g fill="none" fill-rule="evenodd"><path fill="#FFF" d="M.189 0h1024v1024H.189z"/><g fill="#605BEC" fill-rule="nonzero"><path d="m883.795 591.655-93.347-163.328 40.054-76.683c5.53-7.283 6.955-17.998 4.692-26.62L783.83 232.35c-3.939-6.111-10.726-9.878-18.016-10.046H574.846l-42.735-74.673c-3.017-5.86-8.799-9.879-15.335-10.632H415.972c-7.458.167-12.737 5.609-16.424 12.055l-1.592 2.595-95.358 163.327h-91.503c-7.541-.167-14.664 3.6-18.686 10.046l-52.706 93.258a23.917 23.917 0 0 0 0 21.348l94.77 164.666-42.734 74.674c-3.352 6.697-3.352 14.566 0 21.347l48.684 85.39c3.938 6.529 11.061 10.631 18.686 10.631h190.883l46.003 79.948c3.52 6.027 9.72 9.962 16.676 10.715h108.094c7.458-.167 14.329-4.186 18.016-10.632l94.184-164.75h84.13a23.422 23.422 0 0 0 18.016-11.302l48.684-85.975c4.525-6.948 4.525-15.822 0-22.686M765.729 602.37l-48.684-89.993-200.269 352.606-54.717-89.993H261.874l48.098-87.315h102.062l-200.268-351.35h104.742l99.464-177.392 50.025 87.315-51.366 89.993h400.453l-50.696 89.407 100.805 176.638h-99.464v.084"/><path d="M512.482 637.329 637.189 437h-250z"/></g></g></svg>