<svg xmlns="http://www.w3.org/2000/svg" width="1024" height="1024"><g fill="none" fill-rule="evenodd"><path fill="#99E7FF" d="M0 0h1024v1024H0z"/><g transform="translate(160 162)"><path fill="#00A6CC" d="M240 79.113c-61.333-12.017-107.667-2.003-139 30.043s-38 75.441-20 130.186C27 269.385 0 306.438 0 350.5s27 81.116 81 111.159c-22.667 56.08-16 101.812 20 137.196 36 35.383 82.333 41.726 139 19.027C262.667 672.628 299.667 700 351 700s88-27.372 110-82.117c51.333 21.364 96 15.021 134-19.027 38-34.05 46.333-79.781 25-137.196 53.333-24.702 80-61.755 80-111.16 0-49.403-26.667-86.456-80-111.158 24.667-46.734 19.333-90.129-16-130.186s-83-50.072-143-30.043C439.667 26.371 403 0 351 0s-89 26.371-111 79.113"/><g fill="#99E7FF"><path d="M443.082 565.652V450.986c-3.516 1.768-6.83 2.651-9.942 2.651s-6.222-.883-9.33-2.651l-46.025-45.63-.739 65.508c-.22 3.244-1.794 6.341-4.719 9.292-2.924 2.951-6.188 4.734-9.791 5.348l80.546 80.148M261.694 566.69l80.965-81.082c-3.734-1.239-6.7-2.96-8.902-5.164-2.2-2.204-3.776-5.032-4.725-8.483l-.326-64.855-46.777 45.798c-2.447 2.137-5.746 3.213-9.898 3.229-4.151.015-7.718-1.036-10.7-3.152l.363 113.708M134.776 439.712h114.502c-1.765-3.52-2.648-6.84-2.648-9.956 0-3.116.883-6.231 2.648-9.344l45.564-46.09-65.414-.74c-3.24-.222-6.332-1.797-9.279-4.726-2.946-2.928-4.727-6.197-5.34-9.805l-80.033 80.66M569.374 440.034l-79.54-82.483c-1.302 3.717-3.073 6.658-5.312 8.823-2.238 2.165-5.089 3.693-8.55 4.584l-64.76-.807 44.91 47.636c2.09 2.488 3.107 5.81 3.05 9.967-.056 4.157-1.168 7.71-3.333 10.659l113.535 1.621"/></g><g fill="#99E7FF"><path d="M442.082 131.488v114.666c-3.516-1.768-6.83-2.652-9.942-2.652s-6.222.884-9.33 2.652l-46.025 45.629-.739-65.507c-.22-3.244-1.794-6.342-4.719-9.293-2.924-2.95-6.188-4.733-9.791-5.348l80.546-80.147M260.694 130.45l80.965 81.081c-3.734 1.24-6.7 2.961-8.902 5.165-2.2 2.204-3.776 5.031-4.725 8.482l-.326 64.855-46.777-45.797c-2.447-2.137-5.746-3.213-9.898-3.229-4.151-.016-7.718 1.035-10.7 3.152l.363-113.709M133.776 257.428h114.502c-1.765 3.52-2.648 6.839-2.648 9.955 0 3.117.883 6.232 2.648 9.345l45.564 46.09-65.414.74c-3.24.221-6.332 1.796-9.279 4.725-2.946 2.929-4.727 6.198-5.34 9.806l-80.033-80.661M568.374 257.105l-79.54 82.484c-1.302-3.717-3.073-6.658-5.312-8.823-2.238-2.165-5.089-3.693-8.55-4.584l-64.76.806 44.91-47.636c2.09-2.487 3.107-5.81 3.05-9.967-.056-4.157-1.168-7.71-3.333-10.658l113.535-1.622"/></g><g fill="#99E7FF"><path d="M96.48 439.488c-17.259-2.126-34.456-12.074-51.591-29.843-19.684-21.061-18.663-46.104-18.861-59.527.23-13.26 3.008-35.562 24.432-57.233 13.444-13.93 29.187-24.514 47.23-31.753l88.313 91.782-89.522 86.574M111.41 233.61C100.47 220.072 95 200.953 95 176.251c.45-28.844 18.556-46.148 27.724-55.942 9.364-9.377 26.833-23.488 57.276-24.173 19.333-.667 38 2.67 56 10.015l-.139 127.457h-124.45M262.986 95.102c1.822-17.319 11.454-34.711 28.896-52.178 20.685-20.077 45.705-19.492 59.104-19.925 13.242 0 35.558 2.392 57.569 23.465 14.142 13.218 24.984 28.797 32.526 46.736l-90.095 90.028-88-88.126M471.93 107.507c13.707-10.718 32.891-15.861 57.554-15.43 28.79.954 45.75 19.384 55.37 28.736 9.198 9.54 22.982 27.276 23.134 57.77.33 19.37-3.33 38.002-10.975 55.897l-127.254-2.363 2.172-124.61M603.478 264.17c17.323 1.522 34.857 10.863 52.6 28.022 20.406 20.361 20.26 45.424 20.925 58.832.232 13.26-1.767 35.646-22.423 58.052-12.95 14.39-28.315 25.519-46.094 33.384l-91.459-88.64 86.451-89.65M591.646 467.136c11.175 13.343 16.977 32.363 17.408 57.062.052 28.846-17.749 46.464-26.746 56.417-9.198 9.54-26.418 23.954-56.845 25.17-19.319 1.006-38.04-2.006-56.166-9.034l-2.083-127.44 124.432-2.175M438.928 608.388c-2.123 17.285-12.057 34.507-29.8 51.666-21.032 19.712-46.039 18.69-59.443 18.888-13.24-.23-35.511-3.013-57.151-24.467-13.91-13.464-24.479-29.23-31.707-47.297l91.65-88.44 86.451 89.65M233.343 594.439c-13.517 10.956-32.61 16.434-57.276 16.434-28.802-.451-46.081-18.582-55.861-27.764-9.364-9.378-23.455-26.871-24.139-57.358-.666-19.361 2.667-38.054 10-56.08l127.276.139v124.629"/></g><ellipse cx="352" cy="350.751" fill="#99E7FF" rx="35.122" ry="36.052"/></g></g></svg>