<svg xmlns="http://www.w3.org/2000/svg" width="1025" height="1024"><g fill="none" fill-rule="evenodd"><path fill="#1B2F45" d="M.061 0h1024v1024H.061z"/><g fill="#00A0E9" fill-rule="nonzero"><path d="M159.061 295.226v110.107c0 8.281 3.29 16.224 9.146 22.08l326.197 326.196a31.225 31.225 0 0 0 22.08 9.146H626.59a31.225 31.225 0 0 0 22.08-53.305L212.366 273.147a31.225 31.225 0 0 0-53.305 22.08M805.733 273.17 562.39 516.513a31.239 31.239 0 0 0 22.089 53.328h110.069c8.285 0 16.23-3.292 22.089-9.15L849.91 427.416a31.239 31.239 0 0 0 9.15-22.089V295.258a31.239 31.239 0 0 0-53.328-22.089"/></g></g></svg>