<?xml version="1.0" encoding="UTF-8"?>
<svg width="1025px" height="1024px" viewBox="0 0 1025 1024" version="1.1" xmlns="http://www.w3.org/2000/svg" xmlns:xlink="http://www.w3.org/1999/xlink">
    <title>Wikijs</title>
    <defs>
        <radialGradient cx="2.27496856%" cy="-3.06144907%" fx="2.27496856%" fy="-3.06144907%" r="145.56453%" gradientTransform="translate(0.0227, -0.0306), scale(0.9463, 1), rotate(180), translate(-0.0227, 0.0306)" id="radialGradient-1">
            <stop stop-color="#3D4EAD" offset="0%"></stop>
            <stop stop-color="#00C0F3" offset="100%"></stop>
        </radialGradient>
        <linearGradient x1="100.000491%" y1="50.2646248%" x2="-0.647073249%" y2="50.2646248%" id="linearGradient-2">
            <stop stop-color="#3F51B4" offset="0%"></stop>
            <stop stop-color="#00C0F3" offset="100%"></stop>
        </linearGradient>
        <radialGradient cx="-5.51939608%" cy="96.8635699%" fx="-5.51939608%" fy="96.8635699%" r="302.38387%" gradientTransform="translate(-0.0552, 0.9686), scale(0.3694, 1), rotate(180), translate(0.0552, -0.9686)" id="radialGradient-3">
            <stop stop-color="#3D4EAD" offset="0%"></stop>
            <stop stop-color="#00C0F3" offset="100%"></stop>
        </radialGradient>
        <radialGradient cx="85.3205863%" cy="372.598116%" fx="85.3205863%" fy="372.598116%" r="444.350702%" gradientTransform="translate(0.8532, 3.726), scale(0.4831, 1), rotate(-116.0663), translate(-0.8532, -3.726)" id="radialGradient-4">
            <stop stop-color="#0072E9" offset="0%"></stop>
            <stop stop-color="#00FDFE" offset="100%"></stop>
        </radialGradient>
        <radialGradient cx="49.9988999%" cy="50.0008827%" fx="49.9988999%" fy="50.0008827%" r="44.4408964%" gradientTransform="translate(0.5, 0.5), scale(1, 0.4012), rotate(7.4897), translate(-0.5, -0.5)" id="radialGradient-5">
            <stop stop-color="#153E68" stop-opacity="0.34" offset="0%"></stop>
            <stop stop-color="#153E68" stop-opacity="0.01" offset="100%"></stop>
        </radialGradient>
        <radialGradient cx="28.8420537%" cy="30.8377618%" fx="28.8420537%" fy="30.8377618%" r="32.9351017%" gradientTransform="translate(0.2884, 0.3084), scale(0.8495, 1), rotate(133.2776), translate(-0.2884, -0.3084)" id="radialGradient-6">
            <stop stop-color="#00336F" offset="0%"></stop>
            <stop stop-color="#00336F" stop-opacity="0" offset="100%"></stop>
        </radialGradient>
        <radialGradient cx="41.6710215%" cy="34.1823569%" fx="41.6710215%" fy="34.1823569%" r="36.9807499%" gradientTransform="translate(0.4167, 0.3418), scale(0.6546, 1), rotate(119.7527), translate(-0.4167, -0.3418)" id="radialGradient-7">
            <stop stop-color="#00336F" stop-opacity="0.5" offset="0%"></stop>
            <stop stop-color="#00336F" stop-opacity="0" offset="100%"></stop>
        </radialGradient>
        <radialGradient cx="27.0947253%" cy="36.1727578%" fx="27.0947253%" fy="36.1727578%" r="37.474471%" gradientTransform="translate(0.2709, 0.3617), scale(0.7949, 1), rotate(112.1837), translate(-0.2709, -0.3617)" id="radialGradient-8">
            <stop stop-color="#00336F" stop-opacity="0.5" offset="0%"></stop>
            <stop stop-color="#00336F" stop-opacity="0" offset="100%"></stop>
        </radialGradient>
        <radialGradient cx="27.1080327%" cy="36.1963294%" fx="27.1080327%" fy="36.1963294%" r="37.551374%" gradientTransform="translate(0.2711, 0.362), scale(0.7892, 1), rotate(112.3768), translate(-0.2711, -0.362)" id="radialGradient-9">
            <stop stop-color="#00336F" offset="0%"></stop>
            <stop stop-color="#00336F" stop-opacity="0" offset="100%"></stop>
        </radialGradient>
        <radialGradient cx="66.1903586%" cy="27.2417822%" fx="66.1903586%" fy="27.2417822%" r="34.7985727%" gradientTransform="translate(0.6619, 0.2724), scale(0.7075, 1), rotate(-134.2603), translate(-0.6619, -0.2724)" id="radialGradient-10">
            <stop stop-color="#002D68" offset="0%"></stop>
            <stop stop-color="#002D68" stop-opacity="0" offset="100%"></stop>
        </radialGradient>
        <radialGradient cx="65.6610217%" cy="27.9450656%" fx="65.6610217%" fy="27.9450656%" r="35.4106462%" gradientTransform="translate(0.6566, 0.2795), scale(0.8313, 1), rotate(-129.8728), translate(-0.6566, -0.2795)" id="radialGradient-11">
            <stop stop-color="#002D68" offset="0%"></stop>
            <stop stop-color="#002D68" stop-opacity="0" offset="100%"></stop>
        </radialGradient>
        <radialGradient cx="67.5034408%" cy="31.8243431%" fx="67.5034408%" fy="31.8243431%" r="37.9036032%" gradientTransform="translate(0.675, 0.3182), scale(0.6992, 1), rotate(-117.475), translate(-0.675, -0.3182)" id="radialGradient-12">
            <stop stop-color="#002D68" offset="0%"></stop>
            <stop stop-color="#002D68" stop-opacity="0" offset="100%"></stop>
        </radialGradient>
        <radialGradient cx="73.0807647%" cy="62.1267031%" fx="73.0807647%" fy="62.1267031%" r="31.4074708%" gradientTransform="translate(0.7308, 0.6213), scale(1, 0.9989), rotate(-63.5041), translate(-0.7308, -0.6213)" id="radialGradient-13">
            <stop stop-color="#002D68" offset="0%"></stop>
            <stop stop-color="#002D68" stop-opacity="0" offset="100%"></stop>
        </radialGradient>
        <radialGradient cx="0.0862119459%" cy="62.9803299%" fx="0.0862119459%" fy="62.9803299%" r="203.096856%" gradientTransform="translate(0.0009, 0.6298), scale(0.4989, 1), rotate(-7.4376), translate(-0.0009, -0.6298)" id="radialGradient-14">
            <stop stop-color="#00326D" offset="0%"></stop>
            <stop stop-color="#003B79" stop-opacity="0" offset="100%"></stop>
        </radialGradient>
        <radialGradient cx="0.0858057372%" cy="39.9681867%" fx="0.0858057372%" fy="39.9681867%" r="191.651966%" gradientTransform="translate(0.0009, 0.3997), scale(0.5272, 1), rotate(5.9986), translate(-0.0009, -0.3997)" id="radialGradient-15">
            <stop stop-color="#00326D" offset="0%"></stop>
            <stop stop-color="#003B79" stop-opacity="0" offset="100%"></stop>
        </radialGradient>
        <radialGradient cx="0.0910842581%" cy="61.0508005%" fx="0.0910842581%" fy="61.0508005%" r="185.854342%" gradientTransform="translate(0.0009, 0.6105), scale(0.5445, 1), rotate(-6.9241), translate(-0.0009, -0.6105)" id="radialGradient-16">
            <stop stop-color="#00326D" offset="0%"></stop>
            <stop stop-color="#003B79" stop-opacity="0" offset="100%"></stop>
        </radialGradient>
        <linearGradient x1="100.000038%" y1="50.0021116%" x2="0.000410502445%" y2="50.0021116%" id="linearGradient-17">
            <stop stop-color="#F5F7FA" offset="0%"></stop>
            <stop stop-color="#F1F4F2" offset="53%"></stop>
            <stop stop-color="#BAD7E9" offset="100%"></stop>
        </linearGradient>
        <linearGradient x1="99.999648%" y1="49.7366783%" x2="0.000509679984%" y2="49.7366783%" id="linearGradient-18">
            <stop stop-color="#FAFAFA" offset="0%"></stop>
            <stop stop-color="#F1F6F8" offset="26%"></stop>
            <stop stop-color="#DCE5EB" offset="73%"></stop>
            <stop stop-color="#BBCFDA" offset="100%"></stop>
        </linearGradient>
        <linearGradient x1="49.9995131%" y1="100.000625%" x2="49.9995131%" y2="0.000416849038%" id="linearGradient-19">
            <stop stop-color="#FDFDFF" offset="0%"></stop>
            <stop stop-color="#F1F2F2" offset="26%"></stop>
            <stop stop-color="#BFD2E0" offset="73%"></stop>
            <stop stop-color="#AFC0CC" offset="100%"></stop>
        </linearGradient>
        <linearGradient x1="50.7052295%" y1="99.0594162%" x2="50.7052295%" y2="0.000618417901%" id="linearGradient-20">
            <stop stop-color="#F1F6F6" offset="0%"></stop>
            <stop stop-color="#FDFDFD" offset="41%"></stop>
            <stop stop-color="#F5F8FA" offset="55%"></stop>
            <stop stop-color="#D6E1E7" offset="89%"></stop>
            <stop stop-color="#C3D3DD" offset="98%"></stop>
            <stop stop-color="#C3D3DD" offset="100%"></stop>
        </linearGradient>
        <radialGradient cx="49.9993636%" cy="49.9993772%" fx="49.9993636%" fy="49.9993772%" r="73.6287955%" gradientTransform="translate(0.5, 0.5), scale(0.7713, 1), rotate(32.8863), translate(-0.5, -0.5)" id="radialGradient-21">
            <stop stop-color="#153E68" offset="0%"></stop>
            <stop stop-color="#153E68" stop-opacity="0" offset="100%"></stop>
        </radialGradient>
        <radialGradient cx="50%" cy="50.0004159%" fx="50%" fy="50.0004159%" r="72.973254%" gradientTransform="translate(0.5, 0.5), scale(0.8206, 1), rotate(37.082), translate(-0.5, -0.5)" id="radialGradient-22">
            <stop stop-color="#153E68" offset="0%"></stop>
            <stop stop-color="#153E68" stop-opacity="0" offset="100%"></stop>
        </radialGradient>
        <radialGradient cx="50.0000743%" cy="50.0010141%" fx="50.0000743%" fy="50.0010141%" r="84.6002057%" gradientTransform="translate(0.5, 0.5), scale(0.6621, 1), rotate(-29.2076), translate(-0.5, -0.5)" id="radialGradient-23">
            <stop stop-color="#153E68" offset="0%"></stop>
            <stop stop-color="#153E68" stop-opacity="0" offset="100%"></stop>
        </radialGradient>
        <radialGradient cx="50.0003376%" cy="50.0004942%" fx="50.0003376%" fy="50.0004942%" r="81.5728828%" gradientTransform="translate(0.5, 0.5), scale(0.6831, 1), rotate(-29.2076), translate(-0.5, -0.5)" id="radialGradient-24">
            <stop stop-color="#153E68" offset="0%"></stop>
            <stop stop-color="#153E68" stop-opacity="0" offset="100%"></stop>
        </radialGradient>
        <radialGradient cx="50.0003513%" cy="49.9992152%" fx="50.0003513%" fy="49.9992152%" r="73.7383361%" gradientTransform="translate(0.5, 0.5), scale(0.7863, 1), rotate(-34.5762), translate(-0.5, -0.5)" id="radialGradient-25">
            <stop stop-color="#153E68" offset="0%"></stop>
            <stop stop-color="#1A426B" stop-opacity="0" offset="100%"></stop>
        </radialGradient>
        <radialGradient cx="49.999487%" cy="50%" fx="49.999487%" fy="50%" r="87.569235%" gradientTransform="translate(0.5, 0.5), scale(1, 0.6136), rotate(-65.9438), translate(-0.5, -0.5)" id="radialGradient-26">
            <stop stop-color="#153E68" offset="0%"></stop>
            <stop stop-color="#1B436C" stop-opacity="0" offset="100%"></stop>
        </radialGradient>
        <linearGradient x1="45.9509565%" y1="95.3137444%" x2="57.046527%" y2="5.60014462%" id="linearGradient-27">
            <stop stop-color="#FDFDFF" offset="0%"></stop>
            <stop stop-color="#F1F2F2" offset="26%"></stop>
            <stop stop-color="#BFD2E0" offset="73%"></stop>
            <stop stop-color="#AFC0CC" offset="100%"></stop>
        </linearGradient>
        <linearGradient x1="88.7531336%" y1="50.0006893%" x2="11.2464664%" y2="49.9997815%" id="linearGradient-28">
            <stop stop-color="#FAFAFA" offset="0%"></stop>
            <stop stop-color="#F1F6F8" offset="26%"></stop>
            <stop stop-color="#DCE5EB" offset="73%"></stop>
            <stop stop-color="#BBCFDA" offset="100%"></stop>
        </linearGradient>
        <radialGradient cx="50.0002432%" cy="49.9977476%" fx="50.0002432%" fy="49.9977476%" r="44.158883%" gradientTransform="translate(0.5, 0.5), scale(0.6171, 1), rotate(70.9455), translate(-0.5, -0.5)" id="radialGradient-29">
            <stop stop-color="#153E68" offset="0%"></stop>
            <stop stop-color="#153E68" stop-opacity="0" offset="100%"></stop>
        </radialGradient>
        <radialGradient cx="50%" cy="50.002813%" fx="50%" fy="50.002813%" r="49.8920693%" gradientTransform="translate(0.5, 0.5), scale(0.5377, 1), rotate(87.6395), translate(-0.5, -0.5)" id="radialGradient-30">
            <stop stop-color="#153E68" offset="0%"></stop>
            <stop stop-color="#153E68" stop-opacity="0" offset="100%"></stop>
        </radialGradient>
        <radialGradient cx="50.0006077%" cy="50%" fx="50.0006077%" fy="50%" r="39.6377572%" gradientTransform="translate(0.5, 0.5), scale(0.6073, 1), rotate(67.0876), translate(-0.5, -0.5)" id="radialGradient-31">
            <stop stop-color="#153E68" offset="0%"></stop>
            <stop stop-color="#153E68" stop-opacity="0" offset="100%"></stop>
        </radialGradient>
        <linearGradient x1="68.7046431%" y1="58.731646%" x2="27.5699329%" y2="34.3635387%" id="linearGradient-32">
            <stop stop-color="#FDFDFF" offset="0%"></stop>
            <stop stop-color="#F1F2F2" offset="26%"></stop>
            <stop stop-color="#BFD2E0" offset="73%"></stop>
            <stop stop-color="#AFC0CC" offset="100%"></stop>
        </linearGradient>
        <linearGradient x1="72.9439981%" y1="37.3475714%" x2="20.8346446%" y2="56.2719392%" id="linearGradient-33">
            <stop stop-color="#FAFAFA" offset="0%"></stop>
            <stop stop-color="#F1F6F8" offset="26%"></stop>
            <stop stop-color="#DCE5EB" offset="73%"></stop>
            <stop stop-color="#BBCFDA" offset="100%"></stop>
        </linearGradient>
        <radialGradient cx="50.0005247%" cy="49.9987435%" fx="50.0005247%" fy="49.9987435%" r="88.3025109%" gradientTransform="translate(0.5, 0.5), scale(0.4369, 1), rotate(180), translate(-0.5, -0.5)" id="radialGradient-34">
            <stop stop-color="#F9F9FA" offset="0%"></stop>
            <stop stop-color="#F5F7F7" offset="100%"></stop>
        </radialGradient>
        <radialGradient cx="50.0003111%" cy="50.0016023%" fx="50.0003111%" fy="50.0016023%" r="71.9097687%" gradientTransform="translate(0.5, 0.5), scale(0.8082, 1), rotate(35.3664), translate(-0.5, -0.5)" id="radialGradient-35">
            <stop stop-color="#153E68" offset="0%"></stop>
            <stop stop-color="#153E68" stop-opacity="0" offset="100%"></stop>
        </radialGradient>
        <radialGradient cx="50.0005798%" cy="49.9992266%" fx="50.0005798%" fy="49.9992266%" r="65.273486%" gradientTransform="translate(0.5, 0.5), scale(0.8607, 1), rotate(35.3663), translate(-0.5, -0.5)" id="radialGradient-36">
            <stop stop-color="#153E68" offset="0%"></stop>
            <stop stop-color="#153E68" stop-opacity="0" offset="100%"></stop>
        </radialGradient>
        <radialGradient cx="49.9993025%" cy="50.0015469%" fx="49.9993025%" fy="50.0015469%" r="65.273486%" gradientTransform="translate(0.5, 0.5), scale(0.8607, 1), rotate(35.3663), translate(-0.5, -0.5)" id="radialGradient-37">
            <stop stop-color="#153E68" offset="0%"></stop>
            <stop stop-color="#153E68" stop-opacity="0" offset="100%"></stop>
        </radialGradient>
        <linearGradient x1="19.2668626%" y1="55.3246005%" x2="82.8581314%" y2="36.8069705%" id="linearGradient-38">
            <stop stop-color="#FDFDFF" offset="0%"></stop>
            <stop stop-color="#F1F2F2" offset="26%"></stop>
            <stop stop-color="#BFD2E0" offset="73%"></stop>
            <stop stop-color="#AFC0CC" offset="100%"></stop>
        </linearGradient>
        <linearGradient x1="37.582964%" y1="30.804163%" x2="66.0297351%" y2="62.4925782%" id="linearGradient-39">
            <stop stop-color="#FAFAFA" offset="0%"></stop>
            <stop stop-color="#F1F6F8" offset="26%"></stop>
            <stop stop-color="#DCE5EB" offset="73%"></stop>
            <stop stop-color="#BBCFDA" offset="100%"></stop>
        </linearGradient>
        <linearGradient x1="31.565801%" y1="30.8673906%" x2="50.6604598%" y2="66.067279%" id="linearGradient-40">
            <stop stop-color="#AEBCD0" offset="0%"></stop>
            <stop stop-color="#859BB9" offset="22%"></stop>
            <stop stop-color="#A1B1C9" offset="53%"></stop>
            <stop stop-color="#97A9C3" offset="100%"></stop>
        </linearGradient>
        <linearGradient x1="48.9948682%" y1="99.9957285%" x2="48.9948682%" y2="-0.000474608448%" id="linearGradient-41">
            <stop stop-color="#C0CBDA" offset="0%"></stop>
            <stop stop-color="#C0CBDA" offset="2%"></stop>
            <stop stop-color="#D4DBE5" offset="11%"></stop>
            <stop stop-color="#F5F6F9" offset="45%"></stop>
            <stop stop-color="#FDFDFD" offset="59%"></stop>
            <stop stop-color="#FCFDFD" offset="100%"></stop>
        </linearGradient>
        <radialGradient cx="49.9996839%" cy="50.0010698%" fx="49.9996839%" fy="50.0010698%" r="64.9659452%" gradientTransform="translate(0.5, 0.5), scale(0.8942, 1), rotate(180), translate(-0.5, -0.5)" id="radialGradient-42">
            <stop stop-color="#3F51B5" offset="0%"></stop>
            <stop stop-color="#04BBF3" offset="100%"></stop>
        </radialGradient>
        <linearGradient x1="49.9999602%" y1="100.000663%" x2="49.9999602%" y2="0.00132555673%" id="linearGradient-43">
            <stop stop-color="#AFC0CC" offset="0%"></stop>
            <stop stop-color="#AFC0CC" offset="24%"></stop>
            <stop stop-color="#F1F2F2" offset="74%"></stop>
            <stop stop-color="#FDFDFF" offset="100%"></stop>
        </linearGradient>
        <linearGradient x1="49.9999602%" y1="84.8785916%" x2="49.9999602%" y2="0.000912159081%" id="linearGradient-44">
            <stop stop-color="#FAFAFA" offset="0%"></stop>
            <stop stop-color="#F1F6F8" offset="26%"></stop>
            <stop stop-color="#DCE5EB" offset="73%"></stop>
            <stop stop-color="#BBCFDA" offset="100%"></stop>
        </linearGradient>
        <linearGradient x1="50.0246603%" y1="99.8790512%" x2="50.0246603%" y2="0.000749675757%" id="linearGradient-45">
            <stop stop-color="#F1F6F6" offset="0%"></stop>
            <stop stop-color="#FDFDFD" offset="41%"></stop>
            <stop stop-color="#F5F8FA" offset="55%"></stop>
            <stop stop-color="#D6E1E7" offset="89%"></stop>
            <stop stop-color="#C3D3DD" offset="98%"></stop>
            <stop stop-color="#C3D3DD" offset="100%"></stop>
        </linearGradient>
    </defs>
    <g id="ICON-新版方图标" stroke="none" stroke-width="1" fill="none" fill-rule="evenodd">
        <g id="Wikijs" transform="translate(0.061, 0)">
            <rect id="蒙版路径" fill="#FFFFFF" x="0" y="0" width="1024" height="1024"></rect>
            <g id="编组" transform="translate(142, 231)">
                <path d="M374.073373,286.998346 C374.073373,286.998346 496.596646,291.413705 552.895419,339.982656 C609.188305,388.551607 647.825641,481.27415 631.265101,561.857398 C598.149907,554.127576 456.858414,529.8431 399.458744,459.197354 C342.059075,388.551607 344.266755,338.88176 350.889793,309.075142 C357.512832,279.274411 374.073373,286.998346 374.073373,286.998346" id="路径" fill="#1C9CF3" fill-rule="nonzero"></path>
                <path d="M352.597066,309.375386 C349.800672,321.967991 346.780566,341.742913 352.867874,367.970146 C359.490913,396.511028 375.244915,427.241928 401.130694,458.102345 C460.355378,528.706881 627.144099,557.341957 629.16339,557.783493 C635.509733,521.083028 631.229778,482.846017 616.364735,442.889961 C601.682194,403.41665 578.098289,368.305713 549.963621,344.027125 C494.536145,296.211729 371.818596,291.260639 370.588183,291.213542 L369.322446,291.172332 L368.409939,290.695473 C368.398164,290.695473 367.367914,290.295148 365.949112,290.295148 C360.073741,290.295148 355.334588,297.071252 352.597066,309.375386 L352.597066,309.375386 Z" id="路径" fill="url(#radialGradient-1)" fill-rule="nonzero"></path>
                <path d="M342.059075,286.998346 C342.059075,286.998346 357.512832,319.012644 321.089063,367.581595 C284.659406,416.150545 208.497404,494.520227 18.6369595,477.965574 C25.2599982,432.705199 58.375192,386.343927 94.7989616,353.228734 C131.228618,320.11354 212.912763,285.89745 266.997969,284.790666 C321.089063,283.68977 342.059075,286.998346 342.059075,286.998346" id="路径" fill="#04BBF3" fill-rule="nonzero"></path>
                <path d="M267.957574,289.082396 C242.725268,289.58869 208.868294,297.730612 175.040756,311.400564 C142.090402,324.723175 113.049113,341.589847 95.3641276,357.667641 C55.5552493,393.861812 29.9226175,436.655473 22.2869897,475.057324 C37.5700196,476.24064 66.1285627,476.835242 66.1285627,476.835242 C134.119207,476.835242 190.906613,464.372155 237.50337,437.827015 C278.81347,414.301982 303.621902,384.872141 318.687107,364.7852 C347.587105,326.253833 343.112874,299.308367 340.569627,290.872088 C334.21151,290.189179 318.139603,288.84691 289.533962,288.84691 C282.675438,288.84691 275.416587,288.923443 267.957574,289.082396 L267.957574,289.082396 Z" id="路径" fill="url(#linearGradient-2)" fill-rule="nonzero"></path>
                <path d="M728.403003,174.406687 C728.403003,174.406687 706.326207,238.429395 598.149907,269.336909 C489.973607,300.244424 374.073373,280.375307 374.073373,280.375307 C374.073373,280.375307 401.666424,207.521881 481.142889,173.305791 C560.619354,139.083814 700.809951,169.991328 728.403003,174.406687" id="路径" fill="#02BEF3" fill-rule="nonzero"></path>
                <path d="M479.170695,180.435124 C414.48274,208.28721 383.952003,262.189915 374.997655,280.840392 C388.337926,282.65952 418.933422,286.14471 457.317611,286.14471 C508.276743,286.14471 554.844064,280.228129 595.724403,268.548032 C683.001336,243.61597 714.850793,193.946123 723.593205,177.26784 C722.162628,177.014693 622.76995,157.381062 566.064964,157.381062 C525.420111,157.381062 503.702431,169.867698 479.170695,180.435124 L479.170695,180.435124 Z" id="路径" fill="url(#radialGradient-3)" fill-rule="nonzero"></path>
                <path d="M340.098656,290.677812 C340.098656,290.677812 182.676383,283.265896 90.2717467,215.852192 C-2.12700291,148.438488 0.00414378364,126.21416 0.00414378364,126.21416 C0.00414378364,126.21416 103.606131,125.896608 154.753652,144.335148 C205.901173,162.779575 286.243048,214.674763 340.098656,290.677812" id="路径" fill="#02BEF3" fill-rule="nonzero"></path>
                <path d="M95.7114692,214.615891 C131.440556,240.684172 174.575671,259.116825 225.263994,271.515153 C225.275769,271.52104 225.275769,271.52104 225.287543,271.52104 C279.149038,277.985126 323.808924,287.952064 334.547077,288.864571 C310.904301,256.708982 281.47446,227.614709 249.884037,203.400879 C219.31209,179.911168 187.044645,161.348998 160.234585,150.752136 C155.259947,148.774055 149.990951,146.996137 144.563003,145.365398 C97.3598699,131.25391 18.1954236,130.335516 6.02080655,130.158901 C9.01736364,135.704592 19.5553542,159.058899 95.7114692,214.615891 L95.7114692,214.615891 Z" id="路径" fill="url(#radialGradient-4)" fill-rule="nonzero"></path>
                <path d="M341.228988,305.937293 C355.222733,307.726986 362.77594,339.023051 358.077998,375.788275 C353.380056,412.547612 338.202995,440.941315 324.203363,439.151623 C310.209618,437.367818 302.65641,406.065865 307.354352,369.306528 C312.052294,332.541304 327.229355,304.147601 341.228988,305.937293 Z" id="路径" fill="url(#radialGradient-5)"></path>
                <g transform="translate(294.2826, 262.5525)" fill-rule="nonzero" id="路径">
                    <path d="M67.6455828,23.6805607 C20.8015655,32.4936176 87.0201788,242.205517 157.936734,274.054974 C294.259477,335.287175 369.832764,217.473618 369.832764,174.803587 C369.832764,132.127669 182.121128,2.15715653 67.6455828,23.6805607 Z" fill="url(#radialGradient-6)"></path>
                    <path d="M1.45640523,83.6234768 C-15.5868812,114.59575 121.348125,219.999204 182.5921,208.2308 C243.830188,196.456509 325.47901,134.470753 319.12678,100.778619 C312.77455,67.0805978 201.413304,-26.2836437 112.299582,7.09647166 C53.8520007,28.990766 18.4996916,52.651204 1.45640523,83.6234768 Z" fill="url(#radialGradient-7)"></path>
                    <path d="M59.8804378,97.3228645 C47.0582347,130.273218 136.878415,224.096657 196.03834,204.362945 C255.192379,184.629233 327.963385,112.423393 317.231119,79.8615908 C306.492965,47.2939015 183.804852,-30.5871471 99.8659304,14.2434664 C44.8152323,43.6438713 72.6967537,64.3725108 59.8804378,97.3228645 Z" fill="url(#radialGradient-8)"></path>
                    <path d="M50.5610864,82.2694333 C39.6404313,110.062648 115.796546,189.068141 166.043334,172.366309 C216.290121,155.664477 278.152247,94.7030847 269.074268,67.2630993 C259.99629,39.8172267 155.917443,-25.7125906 84.6064491,12.1770783 C37.8271905,37.0267197 61.4817414,54.4762191 50.5610864,82.2694333 L50.5610864,82.2694333 Z" fill="url(#radialGradient-9)"></path>
                </g>
                <g transform="translate(28.4286, 229.7332)" fill-rule="nonzero" id="路径">
                    <path d="M333.052139,112.13339 C323.76811,140.350479 220.177897,256.933622 148.70795,273.288113 C77.2380027,289.64849 6.87483893,214.875854 0.287123045,180.35952 C-6.30059284,145.849073 101.557801,47.4748704 212.077185,38.9502836 C284.565608,33.3574954 348.629526,64.8184012 333.052139,112.13339" fill="url(#radialGradient-10)"></path>
                    <path d="M331.038735,96.4794701 C323.89174,129.335629 228.784904,260.047922 158.209803,273.976909 C87.6288146,287.917669 11.1018094,193.481967 1.8060066,151.901058 C-7.48979624,110.320149 93.3216843,1.60811936 203.758648,0.0185900538 C276.199974,-1.01754756 343.03085,41.3816748 331.038735,96.4794701" fill="url(#radialGradient-11)"></path>
                    <path d="M279.814681,116.731251 C269.706452,134.993176 186.78012,198.168135 139.217871,196.30191 C91.6556221,194.441572 58.5168798,128.146426 59.5589045,102.425487 C60.6009293,76.7045481 143.474277,27.2525254 214.502689,42.0292608 C261.087671,51.7253895 296.769661,86.1122067 279.814681,116.731251" fill="url(#radialGradient-12)"></path>
                </g>
                <path d="M203.664057,315.757052 C182.953079,318.31796 83.0894291,288.411261 56.6208226,248.849643 C30.1463291,209.293912 64.2682247,143.499173 85.6856603,129.211071 C107.097209,114.928856 195.834154,152.865622 225.66432,218.995928 C245.221418,262.372416 238.404103,311.453549 203.664057,315.757052" id="路径" fill="url(#radialGradient-13)" fill-rule="nonzero"></path>
                <g transform="translate(411.6757, 141.1343)" id="路径">
                    <path d="M155.166381,2.91241534 C244.833495,-8.95018297 322.273007,16.4999473 327.989426,59.7174828 C333.705844,102.929131 265.556247,147.647889 175.889133,159.510487 C86.2220189,171.373086 8.78250618,145.922955 3.06608784,102.711307 C-2.6503305,59.4937713 65.5051537,14.7750136 155.166381,2.91241534 L155.166381,2.91241534 Z" fill="url(#radialGradient-14)"></path>
                    <path d="M173.35766,8.75835088 C254.223492,17.1004361 316.3682,57.863032 312.052923,99.7265241 C307.731758,141.590016 238.569572,168.80629 157.70374,160.458318 C76.8320217,152.116232 14.6873132,111.353637 19.008478,69.4901445 C23.3237557,27.6266524 92.4859418,0.410378473 173.35766,8.75835088 L173.35766,8.75835088 Z" fill="url(#radialGradient-15)"></path>
                    <path d="M115.704844,22.3164471 C183.889764,13.9037161 242.878962,36.4926936 247.347306,72.7280745 C251.821536,108.957568 200.091188,145.204724 131.906268,153.617455 C63.7272357,162.030186 4.73803718,139.447095 0.269693698,103.211714 C-4.20453693,66.9822205 47.5258111,30.7350653 115.704844,22.3164471 L115.704844,22.3164471 Z" fill="url(#radialGradient-16)"></path>
                </g>
                <path d="M348.529048,289.241349 C348.658565,291.413705 354.286676,335.431893 316.208619,351.962997 C286.75523,364.74399 250.543397,371.049123 170.254506,334.613579 C89.9656151,298.178035 62.0664323,245.24671 62.0664323,245.24671 C62.0664323,245.24671 106.973579,261.742492 134.872761,263.80888 C162.771944,265.875268 234.895365,276.18366 253.263259,279.615866 C271.63704,283.059846 304.298924,280.304662 316.544186,277.561252 C328.795336,274.806068 347.169117,267.246973 348.529048,289.241349" id="路径" fill="#B3C3CE" fill-rule="nonzero"></path>
                <path d="M170.254506,332.4059 C250.549285,368.835557 286.761117,362.530424 316.208619,349.761205 C354.286676,333.224213 348.658565,289.200139 348.529048,287.033669 C347.16323,265.039293 328.795336,272.598388 316.550073,275.353572 C304.298924,278.102869 272.455353,276.160111 246.027957,274.30566 C214.567051,272.097981 163.79042,265.474942 134.878649,261.6012 C107.150193,257.886411 62.0664323,243.03903 62.0664323,243.03903 C62.0664323,243.03903 89.9715022,295.970356 170.254506,332.4059 Z" id="路径" fill="url(#linearGradient-17)" fill-rule="nonzero"></path>
                <path d="M324.444736,249.167549 C324.444736,249.167549 298.88275,228.956978 278.083464,206.962602 C257.278292,184.974114 190.111848,121.37528 173.468888,104.137718 C156.831814,86.9001556 111.653859,28.0522486 105.707842,3.09075142 C92.0378903,33.4036639 83.124752,88.6839607 99.7677125,142.180452 C116.404786,195.676944 155.048009,234.302506 206.160207,255.708167 C257.278292,277.102054 301.855758,275.912851 314.336507,275.912851 C326.823142,275.912851 344.060705,267.594314 324.444736,249.167549" id="路径" fill="#F5F6F2" fill-rule="nonzero"></path>
                <path d="M101.975392,142.180452 C118.618353,195.671057 157.255689,234.308393 208.373774,255.70228 C259.485972,277.102054 304.063438,277.408186 316.550073,277.408186 C323.596987,277.408186 345.921043,276.51334 347.027826,273.198877 C349.400346,266.075431 335.689184,260.794661 327.15871,252.782256 C304.504974,234.873559 304.928848,233.013221 280.291144,206.968489 C259.485972,184.974114 192.319528,121.37528 175.682454,104.137718 C159.039494,86.9001556 113.855652,28.0581357 107.915522,3.08486427 C94.2455699,33.4036639 85.3265444,88.6839607 101.975392,142.180452 Z" id="路径" fill="url(#linearGradient-18)" fill-rule="nonzero"></path>
                <path d="M607.469258,33.1858395 C585.392463,53.0549558 546.27238,79.4764651 508.741827,103.760941 C471.211274,128.045416 446.926799,168.890432 418.226964,211.93724 C389.52713,254.989936 360.827295,275.959948 360.827295,275.959948 C360.827295,275.959948 406.081783,282.582987 449.134479,282.582987 C515.400189,282.582987 590.425972,227.390997 618.019023,197.590266 C645.617962,167.783648 664.16247,119.226472 664.382073,69.5448505 C664.633442,11.4917081 637.776284,0.123630057 637.776284,0.123630057 C637.776284,0.123630057 629.546054,13.3108361 607.469258,33.1799524 L607.469258,33.1858395 Z" id="路径" fill="url(#linearGradient-19)" fill-rule="nonzero"></path>
                <path d="M610.577671,28.7057218 C588.494988,48.574838 544.064701,79.4764651 506.534148,103.760941 C469.003595,128.045416 444.719119,168.890432 416.019285,211.93724 C393.936602,245.052434 366.308228,263.296698 354.7341,272.745567 C351.260684,275.583171 349.235506,283.136379 349.235506,283.136379 C389.085594,288.964653 398.399058,282.582987 446.926799,282.582987 C513.186622,282.582987 588.218292,227.390997 615.811344,197.590266 C643.410282,167.783648 661.071719,119.214698 662.172615,69.5448505 C663.279398,19.8691163 637.88814,0 637.88814,0 C637.88814,0 632.64858,8.83660549 610.577671,28.7057218 L610.577671,28.7057218 Z" id="路径" fill="url(#linearGradient-20)" fill-rule="nonzero"></path>
                <g transform="translate(131.9289, 133.505)" id="路径">
                    <path d="M118.196479,40.4425192 C166.076634,71.3971306 192.739516,115.415318 177.697859,138.67543 C162.656202,161.941429 111.57344,155.689281 63.6932855,124.734669 C15.8190178,93.7741709 -10.8438644,49.7559835 4.19779247,26.4958714 C19.2394494,3.2357593 70.3222114,9.48202074 118.196479,40.4425192 L118.196479,40.4425192 Z" fill="url(#radialGradient-21)"></path>
                    <path d="M113.586844,37.1692663 C159.070931,71.5501964 184.615255,114.520472 170.597962,133.070867 C156.574781,151.621263 108.264865,138.769624 62.7807779,104.394581 C17.2966913,70.0195385 -8.24763324,27.0433759 5.76966034,8.49298029 C19.7928411,-10.0574154 68.1027575,2.79422339 113.586844,37.1692663 Z" fill="url(#radialGradient-22)"></path>
                </g>
                <g transform="translate(381.5613, 96.5089)" id="路径">
                    <path d="M69.3688009,104.260449 C116.689677,77.8036169 163.309983,71.0039638 173.418212,89.0833878 C183.52644,107.162812 153.313609,143.32166 105.998621,169.772605 C58.6777446,196.229437 12.0515517,203.02909 1.94920994,184.949666 C-8.15901898,166.870242 22.0479249,130.711394 69.3688009,104.260449 L69.3688009,104.260449 Z" fill="url(#radialGradient-23)"></path>
                    <path d="M83.4449659,81.7774402 C130.25366,55.6090782 177.286066,50.5166973 188.412771,70.4152492 C199.533589,90.3138012 170.562946,127.714837 123.754252,153.883199 C76.9455572,180.051561 29.9131514,185.143942 18.7864462,165.24539 C7.66562828,145.346838 36.6362716,107.945802 83.4449659,81.7774402 Z" fill="url(#radialGradient-24)"></path>
                    <path d="M77.5224975,99.9098485 C121.676089,69.4791931 168.667285,60.9310578 182.384334,80.8354969 C196.101383,100.739936 171.393033,141.608501 127.239442,172.039156 C83.0858501,202.475698 36.1005413,211.023834 22.377605,191.119395 C8.66055588,171.214956 33.3689058,130.346391 77.5224975,99.9098485 Z" fill="url(#radialGradient-25)"></path>
                    <path d="M131.578268,56.6452158 C148.521473,18.6849012 175.778957,-6.10586874 192.404256,1.31193466 C209.035442,8.73562521 208.776408,45.5773821 191.827316,83.5376967 C174.884111,121.498011 147.626627,146.288781 131.001328,138.870978 C114.376029,131.447287 114.635063,94.5996432 131.578268,56.6452158 L131.578268,56.6452158 Z" fill="url(#radialGradient-26)"></path>
                </g>
                <path d="M144.533567,95.5542596 C139.794415,130.300193 147.983435,166.064602 164.332038,189.613184 C180.686528,213.167654 227.695385,259.128599 274.015447,265.657443 C304.104648,269.896188 336.395641,269.720619 336.395641,269.720619 C336.395641,269.720619 318.39275,252.234752 302.57399,219.319721 C286.75523,186.40469 273.797622,155.46774 249.96057,134.792085 C226.11763,114.122317 201.368071,91.7982607 187.892394,75.7381276 C174.422605,59.6721074 169.971923,49.6521857 169.971923,49.6521857 C169.971923,49.6521857 150.073371,54.9447295 144.533567,95.5542596 L144.533567,95.5542596 Z" id="路径" fill="url(#linearGradient-27)" fill-rule="nonzero"></path>
                <path d="M146.081887,95.772084 C141.960885,130.600437 149.525867,166.288314 165.880357,189.836896 C182.234847,213.379591 229.237818,259.352311 275.557879,265.869381 C309.479612,270.65563 312.705767,272.510081 341.134793,272.357015 C341.134793,272.357015 319.941069,252.452576 304.116422,219.537545 C288.291775,186.622514 275.345942,155.679677 251.503002,135.009909 C227.660063,114.346028 199.649024,88.3660549 186.173348,72.3059218 C172.697672,56.2457887 169.901278,49.5521042 169.901278,49.5521042 C169.901278,49.5521042 150.197001,60.9378437 146.081887,95.772084 Z" id="路径" fill="url(#linearGradient-28)" fill-rule="nonzero"></path>
                <g transform="translate(196.8382, 276.9479)" id="路径">
                    <path d="M130.267536,17.6153789 C136.50791,35.6771414 113.565704,60.0204883 79.0611439,71.936071 C44.5624709,83.8516536 11.4884872,78.8593541 5.24811288,60.7975916 C-0.986374271,42.7299418 21.955832,18.3924821 56.454505,6.47689947 C90.9531779,-5.43868314 124.027162,-0.44638371 130.267536,17.6153789 Z" fill="url(#radialGradient-29)"></path>
                    <path d="M115.490801,29.7487859 C116.197258,46.8332823 90.8943065,61.7748577 59.0271876,63.0876912 C27.1600687,64.4005246 0.715010796,51.595983 0.0144404741,34.5114866 C-0.692016993,17.4211031 24.6109346,2.48541478 56.4780535,1.16669417 C88.3451725,-0.146139286 114.79023,12.6642895 115.490801,29.7487859 Z" fill="url(#radialGradient-30)"></path>
                    <path d="M143.902165,21.7952522 C148.912126,33.6519634 131.668677,52.2847791 105.412007,63.3820485 C79.1612254,74.4793178 53.7758537,73.8611676 48.7658929,62.0103435 C43.755932,50.1536324 60.9993813,31.5208167 87.2560505,20.4235473 C113.51272,9.32627792 138.892204,9.9444282 143.902165,21.7952522 L143.902165,21.7952522 Z" fill="url(#radialGradient-31)"></path>
                </g>
                <path d="M185.572859,292.37331 C198.324416,310.805963 217.610705,324.152122 235.478192,328.202478 C253.345679,332.258721 295.338688,333.659862 320.005828,316.769641 C336.030638,305.790115 351.178264,291.784595 351.178264,291.784595 C351.178264,291.784595 335.147566,291.301849 313.494645,282.594761 C291.835836,273.89356 272.37882,264.886227 252.227121,265.41607 C232.063647,265.945914 210.763955,266.093092 197.482554,264.326949 C184.195267,262.566692 177.772391,259.752636 177.772391,259.752636 C177.772391,259.752636 170.678381,270.832244 185.572859,292.37331 L185.572859,292.37331 Z" id="路径" fill="url(#linearGradient-32)" fill-rule="nonzero"></path>
                <path d="M186.397059,291.814031 C199.47241,310.011198 218.429018,323.581069 236.296505,327.643199 C254.169879,331.693555 296.168775,333.10647 320.824141,316.210362 C338.885904,303.829695 341.205439,303.317514 354.551598,290.983944 C354.551598,290.983944 335.977654,290.736684 314.312958,282.035482 C292.65415,273.334281 273.208908,264.321061 253.045434,264.856792 C232.887848,265.392522 208.467968,265.215907 195.186568,263.449764 C181.905167,261.68362 177.701745,259.734975 177.701745,259.734975 C177.701745,259.734975 173.315822,273.60509 186.397059,291.814031 L186.397059,291.814031 Z" id="路径" fill="url(#linearGradient-33)" fill-rule="nonzero"></path>
                <path d="M581.501059,286.044628 C561.643717,294.404375 473.330647,289.706433 440.939572,286.044628 C408.54261,282.388711 375.0683,282.94799 368.822039,282.388711 C346.474434,280.375307 350.536565,287.610609 348.964697,310.075957 C345.308779,372.261875 368.822039,384.807382 386.065488,387.421275 C403.314825,390.029281 418.992293,381.675421 418.992293,381.675421 C418.992293,381.675421 589.860806,304.33599 605.538275,295.970356 C608.458299,279.927884 607.751841,274.859052 604.172457,274.859052 C600.051455,274.859052 592.12147,281.570398 581.501059,286.044628 L581.501059,286.044628 Z" id="路径" fill="url(#radialGradient-34)" fill-rule="nonzero"></path>
                <g transform="translate(348.5852, 286.3941)" id="路径">
                    <path d="M73.3741937,20.06131 C102.50379,40.7310781 118.216581,68.6891324 108.44392,82.4532787 C98.6771453,96.217425 67.0984966,90.6128624 37.9689003,69.9372072 C8.84519123,49.2674392 -6.86760027,21.3034978 2.89917421,7.53935143 C12.6718358,-6.22479489 44.2504846,-0.61434517 73.3741937,20.06131 L73.3741937,20.06131 Z" fill="url(#radialGradient-35)"></path>
                    <path d="M65.8386474,20.06131 C88.1980262,35.9330545 98.4239981,59.9938184 88.6513364,73.7579647 C78.884562,87.522111 52.79862,85.8089517 30.433354,69.9372072 C8.07397516,54.0654628 -2.14610953,30.0046989 7.62066495,16.2405526 C17.3933266,2.47640625 43.4792686,4.18956561 65.8386474,20.06131 Z" fill="url(#radialGradient-36)"></path>
                    <path d="M88.068509,21.7862437 C110.433775,37.6579881 120.65386,61.718752 110.887085,75.4828983 C101.114424,89.2470447 75.0284816,87.5338853 52.6691028,71.6621409 C30.3038368,55.7962836 20.0837521,31.7296325 29.8564137,17.9654862 C39.6231882,4.2013399 65.7091302,5.91449926 88.068509,21.7862437 L88.068509,21.7862437 Z" fill="url(#radialGradient-37)"></path>
                </g>
                <path d="M361.180524,313.643567 C376.704927,339.199666 415.5542,355.200927 433.509994,358.868619 C451.465788,362.530424 474.531625,358.297566 493.741381,346.741099 C516.177292,333.247762 514.269857,320.231283 514.269857,320.231283 C514.269857,320.231283 507.258267,320.148863 494.430177,316.292782 C481.596199,312.430815 462.239265,303.535338 444.089195,294.751717 C425.939125,285.968096 404.504028,286.174146 381.179157,285.190992 C357.860174,284.207839 343.054003,278.055772 343.054003,278.055772 C343.054003,278.055772 351.095844,297.059478 361.180524,313.643567 L361.180524,313.643567 Z" id="路径" fill="url(#linearGradient-38)" fill-rule="nonzero"></path>
                <path d="M360.668342,312.801705 C376.180971,338.351917 415.036132,354.359066 432.991925,358.014983 C450.947719,361.676788 473.807506,357.108363 493.217425,345.899237 C512.633231,334.695999 514.340503,320.248944 514.340503,320.248944 C514.340503,320.248944 509.713206,320.296041 496.885116,316.439961 C484.051139,312.577994 461.727083,302.681702 443.571126,293.898081 C425.421056,285.120347 403.985959,285.32051 380.661089,284.343243 C357.342105,283.354203 340.310593,275.930512 340.310593,275.930512 C347.392829,292.667667 349.300264,294.092356 360.668342,312.801705 L360.668342,312.801705 Z" id="路径" fill="url(#linearGradient-39)" fill-rule="nonzero"></path>
                <path d="M599.804195,298.590136 C599.804195,298.590136 606.980625,293.067993 606.427234,282.029595 C605.879729,270.997084 608.634913,254.436544 550.134348,218.560279 C530.818623,253.335648 464.034844,346.05819 434.781618,367.028203 C405.528391,388.004102 400.842224,387.291758 400.842224,387.291758 C400.842224,387.291758 417.744218,385.272467 432.573938,374.204633 C448.598748,362.241953 599.804195,298.590136 599.804195,298.590136" id="路径" fill="#CBD3DD" fill-rule="nonzero"></path>
                <path d="M436.989297,368.134986 C418.827453,381.157352 413.287649,383.765358 409.225519,385.47263 C410.738515,385.01932 422.11248,382.040424 434.781618,375.311417 C452.443054,365.927307 602.011875,299.696919 602.011875,299.696919 C602.011875,299.691032 609.188305,294.174777 608.634913,283.136379 C608.087409,272.097981 610.842593,255.543327 552.342027,219.667062 C533.026303,254.436544 466.242524,347.164974 436.989297,368.134986 L436.989297,368.134986 Z" id="路径" fill="url(#linearGradient-40)" fill-rule="nonzero"></path>
                <path d="M345.950478,302.699363 C342.312222,302.693476 310.498088,360.499358 325.398453,426.735633 C325.398453,426.729746 346.680484,401.191309 349.28849,336.974325 C350.365838,310.48217 348.5055,302.693476 345.950478,302.693476 L345.950478,302.699363 Z" id="路径" fill="url(#linearGradient-41)" fill-rule="nonzero"></path>
                <path d="M263.024146,118.614209 C270.512595,111.314148 295.9745,117.154197 301.967614,125.184263 C307.825324,133.031828 337.98517,163.203449 336.554594,208.858263 C341.193665,209.052539 347.339845,209.859078 354.398532,209.859078 C360.491728,209.859078 366.1375,209.258589 370.770684,208.964232 C369.287123,163.250546 399.48818,133.037715 405.34589,125.184263 C411.333117,117.154197 436.800909,111.314148 444.289358,118.614209 C451.783694,125.914269 432.303129,125.184263 423.319345,122.994245 C394.230959,129.434782 375.651128,193.86959 371.689079,208.911247 C378.476958,208.540357 382.856994,209.017216 382.856994,213.509108 C382.856994,220.314648 373.325705,231.294175 360.061966,232.471604 C360.603584,235.203239 363.753207,250.445059 360.203258,266.481644 C358.760907,272.998714 345.373538,280.375307 345.373538,280.375307 C331.156082,233.796212 345.238134,229.26311 345.43241,228.874558 C333.787636,227.131963 327.429518,219.755369 327.429518,213.509108 C327.429518,209.529398 330.47906,208.69931 335.600876,208.82294 C331.59173,193.62233 313.023673,129.423008 284.000046,122.994245 C275.010374,125.184263 255.535697,125.914269 263.024146,118.614209" id="路径" fill="#00C6F9" fill-rule="nonzero"></path>
                <path d="M405.34589,127.386056 C399.48818,135.245395 369.287123,165.452339 370.770684,211.171911 C366.1375,211.466269 360.491728,212.066757 354.398532,212.066757 C347.339845,212.066757 341.193665,211.260218 336.554594,211.065943 C337.98517,165.411129 307.825324,135.239508 301.973501,127.386056 C295.980387,119.355989 270.512595,113.521828 263.024146,120.821888 C255.535697,128.121949 275.010374,127.386056 284.000046,125.196037 C313.023673,131.630688 331.59173,195.83001 335.600876,211.03062 C330.47906,210.912877 327.435406,211.737077 327.435406,215.716788 C327.435406,221.963049 332.062702,229.787066 343.701589,231.517886 C343.507313,231.906438 333.940701,238.829721 345.373538,282.582987 C345.373538,282.582987 363.635464,280.86394 360.844957,243.49234 C360.527051,239.18295 360.079628,235.733083 359.532123,233.001447 C372.789975,231.818131 382.856994,222.516441 382.856994,215.716788 C382.856994,211.224896 378.476958,210.748037 371.689079,211.118927 C375.657015,196.07727 394.230959,131.642462 423.319345,125.196037 C432.309017,127.386056 451.783694,128.121949 444.289358,120.821888 C441.887402,118.478804 437.636883,117.489764 432.774101,117.489764 C422.471596,117.489764 409.413907,121.934559 405.34589,127.386056 L405.34589,127.386056 Z" id="路径" fill="url(#radialGradient-42)" fill-rule="nonzero"></path>
                <path d="M281.757043,48.0744306 C276.240788,59.2011358 295.697804,60.8554237 302.320843,57.5232993 C323.720617,67.3253966 337.396456,165.187417 340.351803,188.353335 C336.578143,188.170834 334.33514,189.430683 334.33514,195.494443 C334.33514,205.013957 339.474618,218.625038 348.046302,221.28014 C347.905011,221.868855 347.828478,222.222083 347.828478,222.222083 C347.828478,222.222083 333.228357,249.467793 345.373538,309.075142 C345.373538,309.075142 358.955183,279.274411 358.955183,237.846568 C358.955183,231.258852 358.390017,226.013405 357.983804,221.839419 C367.756466,220.04384 375.174269,205.867593 375.174269,195.494443 C375.174269,188.659467 371.954,187.929461 366.949927,188.494627 C369.228252,161.154723 378.541716,68.4851643 404.998548,57.5232993 C411.621587,60.8554237 430.230854,59.6073488 424.708712,48.4806437 C419.192456,37.3539386 399.658907,46.2258669 391.911424,56.6461146 C383.404498,68.0789513 362.876022,119.220585 363.965144,188.906727 C360.556486,189.35415 358.690261,189.93109 354.204256,189.93109 C349.005907,189.93109 344.472805,188.706564 341.052373,188.406319 C342.106172,118.808485 319.405339,72.9829435 315.56692,60.8554237 C311.940438,49.381377 300.65478,42.5993853 291.859385,42.5993853 C287.41459,42.5993853 283.611494,44.3360932 281.757043,48.0744306 Z" id="路径" fill="url(#linearGradient-43)" fill-rule="nonzero"></path>
                <path d="M281.757043,50.2409002 C276.240788,61.273411 295.697804,62.9218118 302.320843,59.6073488 C323.720617,69.3329133 337.396456,166.411944 340.351803,189.401247 C336.578143,189.218745 334.33514,190.46682 334.33514,196.483483 C334.33514,205.926465 339.474618,219.425689 348.046302,222.051356 C347.905011,222.640071 347.828478,222.987412 347.828478,222.987412 C347.828478,222.987412 322.543188,310.323217 339.168487,367.510949 C339.168487,367.510949 361.00391,294.998977 358.955183,238.494154 C358.719697,231.965309 358.390017,226.755186 357.983804,222.616522 C367.756466,220.832717 375.174269,206.774214 375.174269,196.483483 C375.174269,189.695604 371.954,188.971485 366.949927,189.530764 C369.228252,162.408685 378.541716,70.4809066 404.998548,59.6073488 C411.621587,62.9218118 430.230854,61.679624 424.708712,50.6412261 C419.192456,39.6028282 399.658907,48.4041108 391.911424,58.7360513 C383.404498,70.0805808 362.876022,120.816001 363.965144,189.942864 C360.556486,190.3844 358.690261,190.967228 354.204256,190.967228 C349.005907,190.967228 344.472805,189.748589 341.052373,189.448344 C342.106172,120.403901 319.405339,74.9551373 315.56692,62.9218118 C311.940438,51.5360722 300.65478,44.8070649 291.859385,44.8070649 C287.420477,44.812952 283.611494,46.5319985 281.757043,50.2409002 Z" id="路径" fill="url(#linearGradient-44)" fill-rule="nonzero"></path>
                <path d="M377.558563,249.544326 C377.558563,249.544326 399.594149,232.118375 417.538168,213.155879 C435.476301,194.187496 493.394039,139.348735 507.7469,124.477806 C522.099761,109.61865 561.055003,58.8714556 566.182707,37.3421643 C577.974659,63.4869777 585.657384,111.155195 571.304523,157.280981 C556.95755,203.412653 523.636306,236.733897 479.559247,255.184211 C435.476301,273.634526 397.03324,272.610162 386.277425,272.610162 C375.509836,272.610162 360.644794,265.433732 377.558563,249.544326" id="路径" fill="#F5F6F2" fill-rule="nonzero"></path>
                <path d="M505.845352,124.477806 C491.486604,139.342848 433.574753,194.181609 415.63662,213.149992 C394.389912,235.61534 394.754915,237.216643 375.221366,252.658626 C367.862434,259.570135 356.353065,267.423587 357.877835,270.749824 C359.402606,274.070174 378.288569,272.610162 384.36999,272.610162 C395.131692,272.610162 433.574753,273.634526 477.657699,255.184211 C521.734758,236.72801 555.050114,203.412653 569.402975,157.286868 C583.761723,111.155195 576.067224,63.4869777 564.275271,37.3421643 C559.153455,58.8773428 520.198213,109.61865 505.845352,124.477806 L505.845352,124.477806 Z" id="路径" fill="url(#linearGradient-45)" fill-rule="nonzero"></path>
            </g>
        </g>
    </g>
</svg>