<svg xmlns="http://www.w3.org/2000/svg" width="1025" height="1024"><g fill="none" fill-rule="evenodd"><path fill="#FF2442" d="M.398 0h1024v1024H.398z"/><path fill="#FFF" fill-rule="nonzero" d="M727.876 365.714h57.6v20.627c0 1.645.805 2.413 2.378 2.377 34.157-1.024 68.57.073 86.198 35.108 10.496 20.773 8.339 52.37 7.754 77.166-.037 1.463.658 2.267 2.048 2.414 4.022.365 7.936.731 11.739 1.207 67.913 8.155 54.491 72.192 54.71 122.514.11 17.554-1.864 30.39-5.85 38.583-8.412 16.969-23.48 26.697-45.203 29.11H856.9l-21.65-50.249a1.646 1.646 0 0 1 .11-1.536 1.573 1.573 0 0 1 1.316-.731l45.934-.037c2.56 0 4.974-1.097 6.73-2.998a10.167 10.167 0 0 0 2.706-7.059c-.22-15.36-.33-30.683-.256-46.007 0-13.787-6.51-20.845-19.64-21.211-14.847-.366-42.97-.366-84.406.073-1.463 0-2.194.805-2.194 2.377l-.22 127.379h-57.527l-.183-127.927a2.267 2.267 0 0 0-2.23-2.34h-53.76a2.56 2.56 0 0 1-2.487-2.56l.073-55.663c0-1.865.878-2.816 2.633-2.816l53.138.11a2.523 2.523 0 0 0 1.829-.804 2.78 2.78 0 0 0 .731-1.902V452.79a3.182 3.182 0 0 0-3.072-3.255l-32.804.146c-1.72 0-2.56-.914-2.56-2.706l-.11-55.954c0-1.646.731-2.45 2.377-2.45h33.975c1.463 0 2.194-.732 2.194-2.305l.366-20.553h-.037m59.648 137.984 35.73-.073c.586 0 1.134-.256 1.537-.695.407-.435.63-1.012.622-1.609l-.183-44.727c0-3.51-2.56-6.363-5.67-6.363l-28.671.073a5.376 5.376 0 0 0-4.023 1.902 6.839 6.839 0 0 0-1.646 4.571l.183 44.727c0 1.243.988 2.194 2.121 2.194m-369.59 4.023c-13.898.256-39.022 4.133-44.508-13.75-3.328-10.68 4.206-25.564 8.777-35.987a6014.731 6014.731 0 0 0 38.327-89.307c.512-1.207 1.39-1.829 2.633-1.829h54.967c.476 0 .878.256 1.097.658.256.39.31.88.147 1.317l-31.818 74.35c-.731 1.718-.548 3.657.403 5.266a5.193 5.193 0 0 0 4.388 2.487h47.104c.585 0 1.097.292 1.426.768.293.512.366 1.097.11 1.645a33116.945 33116.945 0 0 1-40.704 94.464c-1.353 3.109-1.938 5.413-1.719 6.876.476 3.182 2.268 4.79 5.34 4.827l29.805.183c1.72.037 2.268.878 1.573 2.56l-19.273 45.349a3.803 3.803 0 0 1-3.657 2.523c-30.281.366-51.456.366-63.525-.183-19.968-.914-24.868-18.395-17.115-36.425l27.392-63.927a1.39 1.39 0 0 0-.11-1.243 1.243 1.243 0 0 0-1.097-.622h.036m-228.39 187.1h-21.576l-21.138-49.628a1.61 1.61 0 0 1 .11-1.5c.256-.445.728-.722 1.243-.73l29.842-.074a6.985 6.985 0 0 0 6.839-7.131l.804-263.205a2.56 2.56 0 0 1 2.524-2.633h51.346c2.414 0 3.62 1.28 3.657 3.803.22 89.125.22 176.714 0 262.803-.146 35.328-16.53 59.465-53.65 58.295"/><path fill="#FFF" fill-rule="nonzero" d="M671.19 694.82H476.412l26.112-58.88a3.474 3.474 0 0 1 3.401-2.23l47.69.073c1.682 0 2.56-.841 2.56-2.56V452.57c0-1.536-.732-2.304-2.195-2.304l-31.634-.036c-1.426 0-2.56-1.244-2.56-2.743v-57.307c0-.878.658-1.61 1.5-1.61h128.95c1.61 0 2.377.842 2.377 2.524l.074 56.686c0 1.645-.805 2.486-2.414 2.486h-31.89c-1.463 0-2.195.768-2.195 2.304v178.542c0 1.719.841 2.56 2.45 2.56l50.542.11c1.39 0 2.085.731 2.085 2.194l-.073 58.88v-.036m231.973-300.69c39.79-27.355 67.804 42.387 24.21 54.345-7.094 1.975-18.395 2.085-33.865.366-1.39-.146-2.048-.914-2.048-2.377-.22-16.457-3.474-41.91 11.703-52.297v-.037M353.897 599.186l-26.332 61.33c-2.377 5.486-4.973 5.596-7.862.44-19.383-35.036-25.966-63.635-29.77-107.191-2.925-33.829-5.449-67.658-7.643-101.56-.073-1.535.622-2.303 2.085-2.303l53.357.036c1.5 0 2.34.805 2.45 2.34 2.743 39.425 5.633 78.74 8.631 117.944.769 10.093 2.487 18.468 5.12 25.124a4.754 4.754 0 0 1-.036 3.84M73.54 596.92v-2.524a25.82 25.82 0 0 0 4.755-11.556c3.95-43.52 7.168-87.004 9.691-130.524.11-1.353.768-2.048 2.048-2.048h54.491c.476 0 .951.22 1.317.622.33.366.512.878.475 1.39a7258.322 7258.322 0 0 1-9.618 120.21c-2.56 29.074-11.849 67.986-31.268 91.575-1.244 1.5-2.304 1.353-3.109-.475l-28.782-66.67m371.64 97.902h-78.922l-10.057-3.987c-1.426-.548-1.829-1.536-1.17-2.962l24.758-56.686c.732-1.645 1.902-2.267 3.584-1.828 27.063 7.35 58.405 4.315 86.09 4.425 1.718.036 2.194.878 1.462 2.487l-25.746 58.514v.037"/></g></svg>