<?xml version="1.0" encoding="UTF-8"?>
<svg width="1025px" height="1024px" viewBox="0 0 1025 1024" version="1.1" xmlns="http://www.w3.org/2000/svg" xmlns:xlink="http://www.w3.org/1999/xlink">
    <title>Xiaohongshu</title>
    <g id="ICON-新版方图标" stroke="none" stroke-width="1" fill="none" fill-rule="evenodd">
        <g id="Xiaohongshu" transform="translate(0.3975, 0)">
            <rect id="蒙版路径" fill="#FF2442" x="0" y="0" width="1024" height="1024"></rect>
            <path d="M727.478857,365.714286 L785.078857,365.714286 L785.078857,386.340571 C785.078857,387.986286 785.883429,388.754286 787.456,388.717714 C821.613714,387.693714 856.027429,388.790857 873.654857,423.826286 C884.150857,444.598857 881.993143,476.196571 881.408,500.992 C881.371429,502.454857 882.066286,503.259429 883.456,503.405714 C887.478857,503.771429 891.392,504.137143 895.195429,504.612571 C963.108571,512.768 949.686857,576.804571 949.906286,627.126857 C950.016,644.681143 948.041143,657.517714 944.054857,665.709714 C935.643429,682.678857 920.576,692.406857 898.852571,694.820571 L856.502857,694.820571 L834.852571,644.571429 C834.63257,644.072844 834.673653,643.497682 834.962286,643.035429 C835.248261,642.583654 835.744193,642.308136 836.278857,642.304 L882.212571,642.267429 C884.772571,642.267429 887.186286,641.170286 888.941714,639.268571 C890.71746,637.351088 891.686614,634.82343 891.648,632.210286 C891.428571,616.850286 891.318857,601.526857 891.392,586.203429 C891.392,572.416 884.882286,565.357714 871.753143,564.992 C856.905143,564.626286 828.781714,564.626286 787.346286,565.065143 C785.883429,565.065143 785.152,565.869714 785.152,567.442286 L784.932571,694.820571 L727.405714,694.820571 L727.222857,566.893714 C727.242543,566.286079 727.017389,565.695991 726.597939,565.255911 C726.178488,564.815832 725.59988,564.56263 724.992,564.553143 L671.232,564.553143 C669.846795,564.51355 668.745143,563.378913 668.745143,561.993143 L668.818286,506.331429 C668.818286,504.466286 669.696,503.515429 671.451429,503.515429 L724.589714,503.625143 C725.283966,503.619919 725.945396,503.32889 726.418286,502.820571 C726.894031,502.302108 727.155421,501.622495 727.149714,500.918857 L727.149714,452.790857 C727.190827,451.04733 725.820705,449.595654 724.077714,449.536 L691.273143,449.682286 C689.554286,449.682286 688.713143,448.768 688.713143,446.976 L688.603429,391.021714 C688.603429,389.376 689.334857,388.571429 690.980571,388.571429 L724.955429,388.571429 C726.418286,388.571429 727.149714,387.84 727.149714,386.267429 L727.515429,365.714286 L727.478857,365.714286 Z M787.126857,503.698286 L822.857143,503.625143 C823.442286,503.625143 823.990857,503.369143 824.393143,502.930286 C824.80094,502.494653 825.023817,501.917795 825.015117,501.321143 L824.832,456.594286 C824.832,453.083429 822.272,450.230857 819.163429,450.230857 L790.491429,450.304 C788.938756,450.327158 787.471938,451.020563 786.468571,452.205714 C785.378954,453.476725 784.793399,455.103265 784.822857,456.777143 L785.005714,501.504 C785.005714,502.747429 785.993143,503.698286 787.126857,503.698286 L787.126857,503.698286 Z M417.536,507.721143 C403.638857,507.977143 378.514286,511.853714 373.028571,493.970286 C369.700571,483.291429 377.234286,468.406857 381.805714,457.984 C394.825143,428.324571 407.588571,398.555429 420.132571,368.676571 C420.644571,367.469714 421.522286,366.848 422.765714,366.848 L477.732571,366.848 C478.208,366.848 478.610286,367.104 478.829714,367.506286 C479.085767,367.896658 479.140116,368.3858 478.976,368.822857 L447.158857,443.172571 C446.427429,444.891429 446.610286,446.829714 447.561143,448.438857 C448.496143,449.970304 450.155467,450.910587 451.949714,450.925714 L499.053714,450.925714 C499.638857,450.925714 500.150857,451.218286 500.48,451.693714 C500.772571,452.205714 500.845714,452.790857 500.589714,453.339429 C486.985143,485.046857 473.417143,516.534857 459.885714,547.803429 C458.532571,550.912 457.947429,553.216 458.166857,554.678857 C458.642286,557.860571 460.434286,559.469714 463.506286,559.506286 L493.312,559.689143 C495.030857,559.725714 495.579429,560.566857 494.884571,562.249143 L475.611429,607.597714 C475.061495,609.137496 473.589005,610.153515 471.954286,610.121143 C441.673143,610.486857 420.498286,610.486857 408.429714,609.938286 C388.461714,609.024 383.561143,591.542857 391.314286,573.513143 L418.706286,509.586286 C418.868388,509.177778 418.827701,508.716668 418.596571,508.342857 C418.370866,507.951786 417.950899,507.713805 417.499429,507.721143 L417.536,507.721143 Z M189.147429,694.820571 L167.570286,694.820571 L146.432,645.193143 C146.218482,644.705923 146.25955,644.144665 146.541714,643.693714 C146.798798,643.248278 147.270909,642.970566 147.785143,642.962286 L177.627429,642.889143 C179.480137,642.850749 181.241662,642.077734 182.524282,640.740242 C183.806903,639.402749 184.505492,637.610405 184.466286,635.757714 L185.270857,372.553143 C185.251205,371.867905 185.507201,371.203413 185.981515,370.708476 C186.45583,370.213539 187.108832,369.929511 187.794286,369.92 L239.140571,369.92 C241.554286,369.92 242.761143,371.2 242.797714,373.723429 C243.017143,462.848 243.017143,550.436571 242.797714,636.525714 C242.651429,671.853714 226.267429,695.990857 189.147429,694.820571 L189.147429,694.820571 Z" id="形状" fill="#FFFFFF" fill-rule="nonzero"></path>
            <path d="M670.793143,694.820571 L476.013714,694.820571 L502.125714,635.940571 C502.660166,634.541667 504.030838,633.642623 505.526857,633.709714 L553.216,633.782857 C554.898286,633.782857 555.776,632.941714 555.776,631.222857 L555.776,452.571429 C555.776,451.035429 555.044571,450.267429 553.581714,450.267429 L521.947429,450.230857 C520.521143,450.230857 519.387429,448.987429 519.387429,447.488 L519.387429,390.180571 C519.387429,389.302857 520.045714,388.571429 520.886857,388.571429 L649.837714,388.571429 C651.446857,388.571429 652.214857,389.412571 652.214857,391.094857 L652.288,447.780571 C652.288,449.426286 651.483429,450.267429 649.874286,450.267429 L617.984,450.267429 C616.521143,450.267429 615.789714,451.035429 615.789714,452.571429 L615.789714,631.113143 C615.789714,632.832 616.630857,633.673143 618.24,633.673143 L668.781714,633.782857 C670.171429,633.782857 670.866286,634.514286 670.866286,635.977143 L670.793143,694.857143 L670.793143,694.820571 Z M902.765714,394.130286 C942.555429,366.774857 970.569143,436.516571 926.976,448.475429 C919.881143,450.450286 908.580571,450.56 893.110857,448.841143 C891.721143,448.694857 891.062857,447.926857 891.062857,446.464 C890.843429,430.006857 887.588571,404.553143 902.765714,394.166857 L902.765714,394.130286 Z M353.499429,599.186286 L327.168,660.516571 C324.790857,666.002286 322.194286,666.112 319.305143,660.955429 C299.922286,625.92 293.339429,597.321143 289.536,553.764571 C286.610286,519.936 284.086857,486.107429 281.892571,452.205714 C281.819429,450.669714 282.514286,449.901714 283.977143,449.901714 L337.334857,449.938286 C338.834286,449.938286 339.675429,450.742857 339.785143,452.278857 C342.528,491.702857 345.417143,531.017143 348.416,570.221714 C349.184,580.315429 350.902857,588.690286 353.536,595.346286 C354.064295,596.574487 354.05102,597.968369 353.499429,599.186286 L353.499429,599.186286 Z M73.1428571,596.918857 L73.1428571,594.395429 C75.6499827,590.990638 77.2825579,587.022224 77.8971429,582.838857 C81.8468571,539.318857 85.0651429,495.835429 87.5885714,452.315429 C87.6982857,450.962286 88.3565714,450.267429 89.6365714,450.267429 L144.128,450.267429 C144.603429,450.267429 145.078857,450.486857 145.444571,450.889143 C145.773714,451.254857 145.956571,451.766857 145.92,452.278857 C143.046841,492.374896 139.840635,532.446373 136.301714,572.489143 C133.741714,601.563429 124.452571,640.475429 105.033143,664.064 C103.789714,665.563429 102.729143,665.417143 101.924571,663.588571 L73.1428571,596.918857 Z M444.781714,694.820571 L365.860571,694.820571 L355.803429,690.834286 C354.377143,690.285714 353.974857,689.298286 354.633143,687.872 L379.392,631.186286 C380.123429,629.540571 381.293714,628.918857 382.976,629.357714 C410.038857,636.708571 441.380571,633.673143 469.065143,633.782857 C470.784,633.819429 471.259429,634.660571 470.528,636.269714 L444.781714,694.784 L444.781714,694.820571 Z" id="形状" fill="#FFFFFF" fill-rule="nonzero"></path>
        </g>
    </g>
</svg>