<svg xmlns="http://www.w3.org/2000/svg" width="1024" height="1024"><g fill="none" fill-rule="evenodd"><path fill="#3475ED" d="M0 0h1024v1024H0z"/><path fill="#FCFCFC" fill-rule="nonzero" d="M89.762 230.311c46.653 16.536 174.8 73.818 180.706 162.4 0 33.07-10.039 48.424-8.858 91.534 0 59.054 34.842 121.651 83.267 160.036 51.377 43.7 144.092 73.818 192.516 112.794 56.102 36.614 168.895 152.95 168.895 152.95s-83.857-201.374-128.147-275.783c71.455-39.566 344.286-77.36 344.286-77.36-24.803-24.213-161.809-85.039-244.485-84.448 39.567-60.826 115.747-174.21 115.747-174.21l-26.575 4.134c33.661-72.047 70.865-129.92 105.707-176.573-148.226 38.976-303.538 121.062-444.087 235.627-20.67-31.299-72.637-98.62-135.825-96.85-24.803 0-33.661 1.182-49.606 10.63-46.062-20.078-106.297-40.747-153.54-44.88"/></g></svg>