<svg xmlns="http://www.w3.org/2000/svg" width="1025" height="1024"><g fill="none" fill-rule="evenodd"><path fill="#FFF" d="M.061 0h1024v1024H.061z"/><path fill="red" fill-rule="nonzero" d="M442.228 614.941V409.06l176.5 103.294-176.5 102.588M858 369.853s-6.913-48.97-28.063-70.559c-26.858-28.323-56.951-28.441-70.748-30.088C660.41 262 512.208 262 512.208 262h-.294s-148.201 0-246.982 7.206c-13.826 1.647-43.89 1.765-70.777 30.088-21.15 21.588-28.034 70.588-28.034 70.588s-7.06 57.47-7.06 114.97v53.972c0 57.529 7.06 115.058 7.06 115.058s6.883 48.97 28.034 70.56c26.887 28.323 62.158 27.41 77.866 30.382 56.48 5.5 240.04 7.176 240.04 7.176s148.348-.235 247.13-7.412c13.825-1.676 43.89-1.794 70.746-30.117 21.18-21.589 28.064-70.589 28.064-70.589s7.06-57.5 7.06-115.03v-53.94c0-57.53-7.06-115.06-7.06-115.06"/></g></svg>