<?xml version="1.0" encoding="UTF-8"?>
<svg width="1025px" height="1024px" viewBox="0 0 1025 1024" version="1.1" xmlns="http://www.w3.org/2000/svg" xmlns:xlink="http://www.w3.org/1999/xlink">
    <title>Zashboard</title>
    <g id="ICON-新版方图标" stroke="none" stroke-width="1" fill="none" fill-rule="evenodd">
        <g id="Zashboard" transform="translate(0.6332, 0)">
            <rect id="蒙版" fill="#FFFFFF" x="0" y="0" width="1024" height="1024"></rect>
            <g transform="translate(132, 106)" fill="#000000" fill-rule="nonzero" id="形状">
                <path d="M365.267692,3.95835155 C374.370962,-1.31945052 385.629038,-1.31945052 394.732308,3.95835155 L482.424615,54.8016372 C495.911244,63.0854488 500.291722,80.5416057 492.297872,94.146459 C484.304022,107.751312 466.850949,112.543603 452.96,104.947909 L380,62.6624042 L307.04,104.947909 C298.007286,110.496019 286.656605,110.740475 277.3904,105.586464 C268.124195,100.432452 262.400278,90.6908305 262.438517,80.1399563 C262.477141,69.589082 268.271876,59.888878 277.575385,54.8016372 L365.267692,3.95835155 Z M142.178463,166.904693 C150.292788,180.753734 145.583677,198.515616 131.655386,206.595757 L87.2246174,232.346546 L131.655386,258.097334 C140.958895,263.184575 146.75363,272.884779 146.792254,283.435653 C146.830494,293.986527 141.106576,303.728149 131.840371,308.88216 C122.574166,314.036172 111.223486,313.791716 102.190771,308.243606 L58.4615406,282.91877 L58.4615406,319.473273 C58.4615406,335.51286 45.3744796,348.515515 29.2307716,348.515515 C13.0870636,348.515515 1.28792863e-06,335.51286 1.28792863e-06,319.473273 L1.28792863e-06,232.346546 C-0.00307856116,222.015652 5.51771066,212.460818 14.498464,207.254048 L102.190771,156.449486 C108.888441,152.565426 116.865071,151.484916 124.364807,153.445802 C131.864542,155.406687 138.272621,160.248233 142.178463,166.904693 Z M617.821537,166.904693 C621.727379,160.248233 628.135458,155.406687 635.635193,153.445802 C643.134929,151.484916 651.111559,152.565426 657.809229,156.449486 L745.501536,207.254048 C754.482289,212.460818 760.003079,222.015652 759.999999,232.346546 L759.999999,319.473273 C759.999999,335.51286 746.912936,348.515515 730.769228,348.515515 C714.62552,348.515515 701.538459,335.51286 701.538459,319.473273 L701.538459,282.91877 L657.809229,308.243606 C648.776514,313.791716 637.425834,314.036172 628.159629,308.88216 C618.893424,303.728149 613.169506,293.986527 613.207746,283.435653 C613.24637,272.884779 619.041105,263.184575 628.344614,258.097334 L672.775383,232.346546 L628.344614,206.595757 C614.416323,198.515616 609.707212,180.753734 617.821537,166.904693 Z M267.052308,370.20039 C270.958151,363.543929 277.366229,358.702384 284.865965,356.741498 C292.3657,354.780613 300.342331,355.861123 307.04,359.745182 L380,402.030687 L452.96,359.745182 C461.992714,354.197072 473.343395,353.952616 482.6096,359.106628 C491.875805,364.260639 497.599722,374.002261 497.561483,384.553135 C497.522859,395.104009 491.728124,404.804213 482.424615,409.891454 L409.230769,452.331851 L409.230769,522.76897 C409.230769,538.808557 396.143708,551.811212 380,551.811212 C363.856292,551.811212 350.769231,538.808557 350.769231,522.76897 L350.769231,452.293128 L277.575385,409.891454 C263.647095,401.811312 258.937983,384.04943 267.052308,370.20039 L267.052308,370.20039 Z M29.2307716,464.684485 C45.3744796,464.684485 58.4615406,477.68714 58.4615406,493.726727 L58.4615406,564.202569 L131.655386,606.604243 C140.958895,611.691483 146.75363,621.391687 146.792254,631.942562 C146.830494,642.493436 141.106576,652.235057 131.840371,657.389069 C122.574166,662.543081 111.223486,662.298625 102.190771,656.750514 L14.498464,605.945952 C5.51771066,600.739182 -0.00307856116,591.184348 1.28792863e-06,580.853454 L1.28792863e-06,493.726727 C1.28792863e-06,477.68714 13.0870636,464.684485 29.2307716,464.684485 Z M730.769228,464.684485 C746.912936,464.684485 759.999999,477.68714 759.999999,493.726727 L759.999999,580.853454 C760.003079,591.184348 754.482289,600.739182 745.501536,605.945952 L657.809229,656.750514 C648.776514,662.298625 637.425834,662.543081 628.159629,657.389069 C618.893424,652.235057 613.169506,642.493436 613.207746,631.942562 C613.24637,621.391687 619.041105,611.691483 628.344614,606.604243 L701.538459,564.163846 L701.538459,493.726727 C701.538459,477.68714 714.62552,464.684485 730.769228,464.684485 Z M380,667.980181 C396.143708,667.980181 409.230769,680.982836 409.230769,697.022424 L409.230769,733.576926 L452.96,708.252091 C461.992714,702.703981 473.343395,702.459525 482.6096,707.613536 C491.875805,712.767548 497.599722,722.509169 497.561483,733.060044 C497.522859,743.610918 491.728124,753.311122 482.424615,758.398363 L394.732308,809.241648 C385.629038,814.519451 374.370962,814.519451 365.267692,809.241648 L277.575385,758.398363 C268.271876,753.311122 262.477141,743.610918 262.438517,733.060044 C262.400278,722.509169 268.124195,712.767548 277.3904,707.613536 C286.656605,702.459525 298.007286,702.703981 307.04,708.252091 L350.769231,733.576926 L350.769231,697.022424 C350.769231,680.982836 363.856292,667.980181 380,667.980181 L380,667.980181 Z"></path>
            </g>
        </g>
    </g>
</svg>