<svg xmlns="http://www.w3.org/2000/svg" width="1024" height="1024"><g fill="none" fill-rule="evenodd"><path fill="#1B6D9D" d="M0 0h1024v1024H0z"/><path fill="#FFF" fill-rule="nonzero" d="M506.19 139.803c-.585 1.172-.856 14.063-.856 38.72v38.718H290.508v-8.79l1.758-7.03-10.547-1.759c-8.204 0-19.969-.586-35.204-1.758H221.86l-3.516 19.382a349.33 349.33 0 0 1-8.79 36.962 172.186 172.186 0 0 1-10.592 31.687c-4.733 10.548-6.76 16.137-6.175 16.723.586.586 5.86-1.172 15.866-5.274a447.757 447.757 0 0 0 29.029-13.207c9.375-4.687 18.21-11.719 26.413-21.14l12.306-12.305h501.817l14.108 14.063c9.376 9.42 18.751 16.453 28.172 21.14a2311.201 2311.201 0 0 0 28.172 12.306c8.203 3.516 12.62 5.003 13.207 4.417.586-.586-.902-4.958-4.418-13.207a129.59 129.59 0 0 1-10.547-29.93 386.155 386.155 0 0 1-8.79-35.203c-2.344-14.063-4.147-21.726-5.273-22.898 0-3.516-9.421-4.688-28.172-3.516a418.158 418.158 0 0 1-31.688 1.758 15.596 15.596 0 0 1-7.031 1.758c-2.39 0-3.516 2.39-3.516 7.032l1.758 7.031-102.185 1.758c-66.89 0-100.381-.586-100.381-1.758 0-1.171 1.758-3.786 5.273-7.933 3.516-4.101 6.446-10.277 8.79-18.48a118.096 118.096 0 0 0 3.516-31.688V138h-35.158c-24.656.045-37.277.631-37.863 1.803M271.127 351.068v31.688l158.483 1.758h158.483l-44.038 36.961c-27 21.14-47.554 37.592-61.618 49.312l-17.624 14.108v51.07H162v31.733h302.812v110.929c0 75.14-1.172 116.202-3.516 123.234-1.172 5.905-4.147 13.522-8.79 22.898a157.491 157.491 0 0 1-19.381 22.898 128.012 128.012 0 0 1-28.172 21.14c-10.548 4.688-15.866 8.79-15.866 12.35 0 3.516 1.172 5.274 3.515 5.274 2.344 0 9.962-1.172 22.898-3.516 11.72-2.344 24.025-5.904 36.962-10.547 14.063-3.516 25.828-8.204 35.203-14.063 10.548-4.688 19.382-10.548 26.414-17.625 7.032-5.904 12.891-12.305 17.624-19.382 3.516-5.86 6.446-12.305 8.79-19.382 2.344-7.032 3.516-48.14 3.516-123.234v-111.02h286.99v-31.687H544.054v-51.07l15.866-12.305c10.547-8.204 31.687-25.242 63.375-51.07a2443.368 2443.368 0 0 1 63.375-52.827c12.891-10.548 19.382-16.408 19.382-17.625 0-1.172-72.21-1.758-216.584-1.758-144.374 0-217.17.586-218.342 1.758"/></g></svg>