<svg xmlns="http://www.w3.org/2000/svg" width="1024" height="1024"><g fill="none" fill-rule="evenodd"><path fill="#FFF" d="M0 0h1024v1024H0z"/><path fill="#68BC71" fill-rule="nonzero" d="M514.842 153.6c-112.91 0-249.114 26.547-361.242 84.992 0 126.234-1.536 440.691 361.242 655.552 362.803-214.86 361.254-529.318 361.254-655.552-112.128-58.445-248.32-84.992-361.254-84.992"/><path fill="#67B279" fill-rule="nonzero" d="M514.47 893.926C152.064 679.066 153.6 364.774 153.6 238.592c112-58.368 248.038-84.928 360.87-84.992v740.326"/><path fill="#FFF" fill-rule="nonzero" d="M501.67 647.718 720.115 353.28c-16-12.826-30.041-3.776-37.773 3.238l-.281.026-182.144 189.478-68.634-82.598c-32.73-37.824-77.248-8.96-87.641-1.344L501.67 647.706"/></g></svg>