<svg xmlns="http://www.w3.org/2000/svg" width="1024" height="1024"><g fill="none" fill-rule="evenodd"><path fill="#FFF" d="M0 0h1024v1024H0z"/><path fill="#003DFF" fill-rule="nonzero" d="M511.99 162c-191.278 0-347.198 154.103-349.953 344.608-2.808 193.454 154.27 353.776 347.89 354.876 59.813.359 117.395-14.255 168.534-42.047 4.984-2.697 5.754-9.551 1.515-13.32l-32.743-29.005c-6.664-5.888-16.14-7.565-24.318-4.071-35.689 15.19-74.488 22.92-114.475 22.453-156.443-1.926-282.868-132.002-280.362-288.334 2.45-154.35 128.877-279.173 283.915-279.173h283.972V732.34L634.868 589.303c-5.205-4.625-13.19-3.715-17.405 1.842-25.858 34.205-67.992 55.505-114.777 52.257-64.91-4.486-117.504-56.686-122.35-121.52-5.814-77.327 55.515-142.105 131.685-142.105 68.9 0 125.627 53.004 131.546 120.338.524 6 3.223 11.586 7.74 15.576l41.969 37.176c4.762 4.211 12.308 1.624 13.493-4.623a198.844 198.844 0 0 0 2.892-50.274c-6.748-98.461-86.581-177.687-185.166-183.768-113.016-6.961-207.526 81.4-210.528 192.16-2.92 107.925 85.56 200.966 193.591 203.36 45.108.988 86.884-13.182 120.674-37.727l210.497 186.462C847.762 866.437 862 860.053 862 848V175.264c0-7.329-5.95-13.264-13.278-13.264H511.991"/></g></svg>