<svg xmlns="http://www.w3.org/2000/svg" width="1024" height="1024"><g fill="none" fill-rule="evenodd"><path fill="#FFF" d="M0 0h1024v1024H0z"/><g fill-rule="nonzero"><path fill="#70C6BE" d="M515.538 165.241c8.421-.951 17.19.91 24.228 5.658 10.605 6.756 18.111 17.071 24.448 27.632 28.773 47.577 57.736 95.05 86.494 142.641C689 404.807 727.306 468.435 765.498 532.14c26.426 44.06 52.916 88.092 79.519 132.054 17.523 29.366 35.591 58.424 52.341 88.23 7.216 12.478 11.179 26.884 10.583 41.284-.418 11.134-2.466 22.576-8.392 32.227-8.315 13.61-22.251 23.218-37.364 28.226-8.06 2.86-16.516 4.804-25.114 4.818-93.795-.034-187.59.022-281.377.022-8.067-.203-16.268-1.12-23.838-4-5.537-2.33-10.988-5.197-15.319-9.386-7.393-7.218-12.185-17.456-10.902-27.856.667-7.266 2.467-14.435 5.501-21.093 2.942-6.832 7.081-13.057 10.675-19.56 15.687-27.604 32.118-54.796 49.208-81.581 5.473-8.427 10.236-17.533 17.807-24.387 8.045-7.266 18.146-12.966 29.211-13.707 8.896-.364 17.643 2.671 25.058 7.378 8.364 4.84 14.95 12.896 17.154 22.296 3.183 11.896-.241 24.393-5.352 35.261-5.734 12.344-13.907 23.548-18.295 36.493-.801 2.944-1.886 6.658.34 9.253 2.261 2.098 5.402 2.923 8.343 3.65 8.506 1.868 17.282 1.385 25.937 1.44 31.898-.006 63.796 0 95.694 0 6.316-.104 12.639.21 18.955-.153 4.558-.517 9.527-1.252 13.07-4.392 2.34-2.042 2.63-5.49 1.745-8.287-1.943-6.197-5.288-11.84-8.592-17.407C707.04 599.656 622.46 456.07 536.513 313.275c-2.807-4.588-5.217-9.568-9.237-13.274-1.984-1.882-4.926-2.952-7.634-2.175-2.304.818-3.863 2.818-5.394 4.594-3.785 4.763-7.174 9.834-10.286 15.05-14.807 23.744-28.977 47.865-43.487 71.783-83.573 138.774-167.16 277.541-250.726 416.322-5.182 9.414-10.697 18.652-16.708 27.576-5.28 7.665-11.689 14.848-19.947 19.463-9.732 5.553-21.754 7.756-32.664 4.574-7.96-2.427-15.658-6.378-21.357-12.476-7.216-7.05-10.413-17.366-10.044-27.234.368-10.392 3.891-20.519 9.2-29.443C168.97 703 220.034 618.147 271.291 533.405c26.369-43.92 52.617-87.902 79.135-131.731 26.823-44.41 53.71-88.777 80.412-133.256 14.9-25.051 29.906-50.047 45.565-74.65 4.813-7.798 11.043-14.792 18.543-20.177 6.153-4.14 13.057-7.693 20.592-8.35"/><path fill="#1BA0D8" d="M509.808 493.611c12.672-2.005 26.098.971 36.602 8.229 7.975 6.049 13.511 15.116 15.11 24.902 1.088 7.46.349 15.193-2.445 22.241-2.146 6.098-5.223 11.833-8.649 17.33-48.87 80.736-97.724 161.479-146.6 242.214-6.255 10.108-11.955 20.586-19.161 30.086-5.238 6.363-11.784 11.77-19.34 15.29-15.969 8.362-36.807 3.263-48.953-9.31-6.155-6.07-9.766-14.411-10.235-22.94-.696-8.83 1.287-17.757 5.352-25.63 3.575-7.655 7.804-14.983 12.217-22.191 21.478-35.513 42.764-71.138 64.178-106.686 29.31-48.883 59.104-97.48 88.599-146.25 3.134-5.547 7.043-10.66 11.435-15.298 5.92-5.91 13.433-10.688 21.89-11.987"/></g></g></svg>