<svg xmlns="http://www.w3.org/2000/svg" width="1024" height="1024"><defs><linearGradient id="a" x1="62.102%" x2="108.197%" y1="0%" y2="37.864%"><stop offset="0%" stop-color="#4285EB"/><stop offset="100%" stop-color="#2EC7FF"/></linearGradient><linearGradient id="b" x1="69.644%" x2="54.043%" y1="0%" y2="108.457%"><stop offset="0%" stop-color="#29CDFF"/><stop offset="37.86%" stop-color="#148EFF"/><stop offset="100%" stop-color="#0A60FF"/></linearGradient><linearGradient id="c" x1="69.691%" x2="16.723%" y1="-12.974%" y2="117.391%"><stop offset="0%" stop-color="#FA816E"/><stop offset="41.473%" stop-color="#F74A5C"/><stop offset="100%" stop-color="#F51D2C"/></linearGradient><linearGradient id="d" x1="68.128%" x2="30.44%" y1="-35.691%" y2="114.943%"><stop offset="0%" stop-color="#FA8E7D"/><stop offset="51.264%" stop-color="#F74A5C"/><stop offset="100%" stop-color="#F51D2C"/></linearGradient></defs><g fill="none" fill-rule="evenodd"><path fill="#FFF" d="M0 0h1024v1024H0z"/><g fill-rule="nonzero" transform="translate(162 162)"><path fill="url(#a)" d="M320.138 12.453 12.408 319.931c-16.544 16.53-16.544 43.23 0 59.76l307.73 307.478c16.545 16.53 43.266 16.53 59.81 0l129.027-128.921c14.817-14.805 14.817-38.807 0-53.611-14.816-14.805-38.839-14.805-53.655 0l-97.814 97.734c-4.118 4.114-10.368 4.114-14.486 0L97.276 356.828c-4.118-4.114-4.118-10.359 0-14.473L343.02 96.812c4.118-4.114 10.368-4.114 14.486 0l97.814 97.734c14.816 14.804 38.839 14.804 53.655 0 14.817-14.804 14.817-38.807 0-53.611L379.962 12.028c-16.612-16.173-43.343-16.042-59.824.425"/><path fill="url(#b)" d="M320.138 12.453 12.408 319.931c-16.544 16.53-16.544 43.23 0 59.76l307.73 307.478c16.545 16.53 43.266 16.53 59.81 0l129.027-128.921c14.817-14.805 14.817-38.807 0-53.611-14.816-14.805-38.839-14.805-53.655 0l-97.814 97.734c-4.118 4.114-10.368 4.114-14.486 0L97.276 356.828c-4.118-4.114-4.118-10.359 0-14.473L343.02 96.812c10.254-8.84 26.983-26.743 51.55-30.93 18.257-3.112 38.218 3.737 59.882 20.548a490780.754 490780.754 0 0 0-74.49-74.402c-16.612-16.173-43.343-16.042-59.824.425"/><path fill="url(#c)" d="M538.76 476.041c14.816 14.804 38.839 14.804 53.655 0l95.177-95.098c16.544-16.53 16.544-43.23.002-59.759l-96.007-95.587c-14.851-14.787-38.881-14.765-53.706.048-14.817 14.804-14.817 38.806 0 53.61l64.843 64.79c4.118 4.115 4.118 10.36 0 14.474L538.76 422.43c-14.816 14.804-14.816 38.807 0 53.611"/><ellipse cx="351.582" cy="351.348" fill="url(#d)" rx="83.087" ry="83.019"/></g></g></svg>