<?xml version="1.0" encoding="UTF-8"?>
<svg width="1024px" height="1024px" viewBox="0 0 1024 1024" version="1.1" xmlns="http://www.w3.org/2000/svg" xmlns:xlink="http://www.w3.org/1999/xlink">
    <title>Apple.music</title>
    <g id="ICON-新版方图标" stroke="none" stroke-width="1" fill="none" fill-rule="evenodd">
        <g id="Apple.music" transform="translate(0, -0.0008)">
            <rect id="蒙版路径" fill="#FFFFFF" x="0" y="0" width="1024" height="1024"></rect>
            <path d="M0,1024.00081 L1024,1024.00081 L1024,0.00080758812 L0,0.00080758812 L0,1024.00081 Z M749.694273,431.517067 L749.694273,675.269131 C749.694273,693.064055 747.219612,710.560264 739.28363,726.733589 C726.910325,751.911061 706.857038,767.78567 680.062433,775.381585 C665.129135,779.648954 649.939836,782.081354 634.409206,782.764132 C593.875966,784.684447 558.76138,757.159923 551.508063,717.217358 C545.248266,681.775608 563.353281,646.501578 595.795961,630.931176 C609.577262,624.103387 624.382562,620.262756 639.230527,617.104904 C655.35849,613.605661 671.571786,610.57583 687.614416,606.86322 C699.305056,604.174778 707.113038,597.048274 709.374366,584.843601 C709.953418,582.136831 710.239509,579.37559 710.227697,576.60758 C710.227697,499.15485 710.227697,421.70212 710.142364,344.334737 C710.114545,341.666356 709.741673,339.012788 709.033034,336.440106 C707.326371,330.039054 702.633048,326.070401 696.062397,326.454464 C689.235745,326.881202 682.494428,327.948043 675.795776,329.270927 C643.369184,335.671979 610.942593,342.201053 578.516,348.730126 L479.316229,368.786756 L420.692364,380.650039 C420.009698,380.77806 419.327034,381.076776 418.644369,381.204797 C406.825729,384.49067 402.559073,389.867554 402.004407,402.1149 C401.919074,403.907195 402.004407,405.784836 402.004407,407.662479 C401.919074,518.699396 402.004407,629.736313 401.876407,740.730556 C401.876407,758.653502 399.871079,776.405753 392.703095,793.091162 C380.84179,820.402318 359.849838,837.47179 331.519236,845.70781 C316.585938,849.975179 301.225973,852.5356 285.652675,853.047684 C244.692769,854.583936 210.772847,827.443475 203.732864,787.159521 C197.759544,752.508493 213.546174,715.25437 252.970084,698.611633 C268.202049,692.210581 284.116679,688.711339 300.244641,685.382793 C312.489946,682.822372 324.777918,680.432646 336.937891,677.829551 C353.279186,674.287636 361.812501,664.045953 362.537832,647.360543 L362.537832,640.959491 C362.537832,514.645397 362.537832,388.245955 362.623165,261.931859 C362.623165,256.682997 363.17783,251.263439 364.415161,246.142598 C367.401821,233.980599 376.063134,227.024789 387.711107,224.037631 C398.591082,221.221168 409.684389,219.258178 420.735031,216.996474 C452.009626,210.595422 483.28422,204.365064 514.601482,198.049359 L611.454591,178.419467 C640.041193,172.701194 668.627793,166.897573 697.214394,161.221973 C706.601039,159.387005 716.073017,157.466689 725.502329,156.698563 C738.728965,155.631721 747.816944,163.953088 749.139607,177.267278 C749.480939,180.382457 749.651606,183.582983 749.651606,186.783508 C749.736939,268.290237 749.736939,349.882315 749.651606,431.389046 L749.694273,431.517067 Z" id="形状" fill="#FA243C" fill-rule="nonzero"></path>
        </g>
    </g>
</svg>