<svg xmlns="http://www.w3.org/2000/svg" width="1024" height="1024"><g fill="none" fill-rule="evenodd"><path fill="#FFF" d="M0 0h1024v1024H0z"/><path fill="#FA243C" fill-rule="nonzero" d="M0 1024h1024V0H0v1024m749.694-592.484v243.752c0 17.795-2.474 35.291-10.41 51.465-12.374 25.177-32.427 41.052-59.222 48.648-14.933 4.267-30.122 6.7-45.653 7.382-40.533 1.92-75.648-25.604-82.9-65.546-6.26-35.442 11.844-70.716 44.287-86.287 13.781-6.827 28.587-10.668 43.435-13.826 16.127-3.5 32.34-6.529 48.383-10.242 11.691-2.688 19.499-9.815 21.76-22.02.58-2.706.866-5.467.854-8.235 0-77.453 0-154.906-.086-232.273a30.943 30.943 0 0 0-1.109-7.895c-1.707-6.4-6.4-10.37-12.97-9.985-6.827.426-13.569 1.493-20.267 2.816-32.427 6.401-64.853 12.93-97.28 19.46l-99.2 20.056-58.624 11.863c-.682.128-1.365.427-2.048.555-11.818 3.286-16.085 8.663-16.64 20.91-.085 1.792 0 3.67 0 5.548-.085 111.037 0 222.074-.128 333.068 0 17.923-2.005 35.675-9.173 52.36-11.861 27.312-32.853 44.381-61.184 52.617-14.933 4.267-30.293 6.828-45.866 7.34-40.96 1.536-74.88-25.604-81.92-65.888-5.973-34.651 9.813-71.905 49.237-88.548 15.232-6.401 31.147-9.9 47.275-13.229 12.245-2.56 24.533-4.95 36.693-7.553 16.341-3.542 24.875-13.784 25.6-30.47v-6.4c0-126.314 0-252.714.085-379.028 0-5.249.555-10.668 1.792-15.79 2.987-12.161 11.648-19.117 23.296-22.104 10.88-2.817 21.973-4.78 33.024-7.041 31.275-6.401 62.55-12.632 93.866-18.947l96.854-19.63c28.586-5.719 57.173-11.522 85.76-17.198 9.386-1.835 18.858-3.755 28.287-4.523 13.227-1.067 22.315 7.254 23.638 20.568.34 3.116.512 6.316.512 9.517.085 81.506.085 163.099 0 244.605l.042.128"/></g></svg>