<svg xmlns="http://www.w3.org/2000/svg" width="1025" height="1024"><g fill="none" fill-rule="evenodd" transform="translate(.633)"><path fill="#D1555A" d="M0 0h1024v1024H0z"/><circle cx="512" cy="512" r="408" fill="#E8AAAD"/><circle cx="512" cy="512" r="388" fill="#666B80"/><path fill="#E2E2E2" d="M570 336c8.621-1.242 16.955-2.908 25-5 8.045-2.092 16.379-4.758 25-8 31.333 50 46 110.333 44 181s-20.667 138-56 202H502V412z"/><path fill="#FFF" d="M434.18 336c-8.621-1.242-16.955-2.908-25-5-8.045-2.092-16.379-4.758-25-8-31.333 50-46 110.333-44 181s20.667 138 56 202h106V412l-68-76"/><path fill="#D2545E" d="M501 171c26.823 24.533 50.156 49.533 70 75s36.51 51.8 50 79c-40.201 17-80.201 25.333-120 25-39.799-.333-79.466-9.333-119-27 17.426-31.608 35.426-59.275 54-83 18.574-23.725 40.24-46.725 65-69"/><g fill="#434343"><path d="M503 796c5.184 0 13.195-33.143 18-65s4-54.66 4-85c0-65.446-13.335-91-23-91s-23 25.554-23 91c0 26.37 1.812 55.828 5 85 3.188 29.172 13.23 65 19 65M348 575c5.716 25.257 12.468 48.461 20.255 69.612 7.787 21.15 17.48 41.651 29.078 61.502l-98.362 94.73c-4.174-63.62-2.368-112.992 5.416-148.116C312.17 617.603 326.709 591.694 348 575M656 575c-5.868 25.257-12.695 48.461-20.483 69.612-7.787 21.15-17.48 41.651-29.077 61.502l98.361 94.73c4.174-63.62 2.369-112.992-5.415-148.116C691.6 617.603 677.14 591.694 656 575"/></g><g transform="translate(432 272)"><circle cx="70" cy="70" r="70" fill="#A0A0A0"/><circle cx="70" cy="70" r="53" fill="#74B8CC"/><circle cx="49" cy="48" r="13" fill="#91E6FF"/></g><path fill="#959595" d="M523 706h70v13a8 8 0 0 1-8 8h-64c.35-3.341.683-6.674 1-10 .317-3.326.65-6.992 1-11M482 706h-70v13a8 8 0 0 0 8 8h64c-.35-3.341-.683-6.674-1-10a1415.1 1415.1 0 0 1-1-11"/><path fill="#D1555A" d="M574 727c12.865 37.199 21.865 65.865 27 86 5.135 20.135 9.802 44.801 14 74-38.717 8.998-76.384 13.331-113 13-36.616-.331-74.95-6.998-115-20 4.09-18.648 9.757-41.982 17-70a861.862 861.862 0 0 1 26-83h54l6 29 9 33 3 8 3-8a6470.976 6470.976 0 0 0 8-33c2.446-10.215 4.446-19.881 6-29z"/></g></svg>