<svg xmlns="http://www.w3.org/2000/svg" width="1024" height="1024"><defs><linearGradient id="a" x1="50%" x2="50%" y1="0%" y2="100%"><stop offset="32%" stop-color="#CD9D49"/><stop offset="99%" stop-color="#875D27"/></linearGradient></defs><g fill="none" fill-rule="evenodd"><path fill="#CD9D49" d="M0 0h1024v1024H0z"/><g fill-rule="nonzero" transform="translate(92 92)"><circle cx="420" cy="420" r="420" fill="#FFF"/><circle cx="419.145" cy="420" r="405.946" fill="url(#a)"/><path fill="#FFF" d="M682.701 389.754a211.412 211.412 0 0 0-15.33-11.541v-53.77c0-137.095-111.132-248.234-248.226-248.234-137.095 0-248.234 111.139-248.234 248.233v53.77a211.412 211.412 0 0 0-15.33 11.542 12.308 12.308 0 0 0-4.433 9.45v64.423a12.323 12.323 0 0 0 4.433 9.505c7.665 6.382 25.25 19.757 52.63 33.478v6.26c0 16.89 10.863 30.55 24.333 30.55 13.435 0 24.332-13.686 24.332-30.55V358.353c0-16.885-10.897-30.551-24.332-30.551-12.9 0-23.41 12.567-24.272 28.474h-.061v-31.842c0-116.496 94.438-210.933 210.934-210.933 116.489 0 210.926 94.437 210.926 210.933v31.842h-.054c-.862-15.907-11.4-28.474-24.278-28.474-13.436 0-24.326 13.694-24.326 30.551v154.502c0 16.891 10.863 30.551 24.326 30.551 13.442 0 24.332-13.687 24.332-30.551v-6.26c27.381-13.72 44.972-27.095 52.63-33.477a12.323 12.323 0 0 0 4.434-9.505v-64.41c0-3.65-1.629-7.112-4.434-9.45"/><path fill="#FFF" d="M332.582 658.355c16.234 0 29.394-13.163 29.398-29.397v-329.12c-.004-16.233-13.165-29.39-29.398-29.39h-30.361c-16.233 0-29.393 13.157-29.397 29.39v329.12c.004 16.234 13.163 29.397 29.397 29.397h30.361M283.911 349.38H350.9v7h-66.99v-7M434.325 658.355c16.228-.011 29.377-13.17 29.377-29.397v-329.12c0-16.232-13.158-29.39-29.39-29.39h-30.355c-16.232 0-29.39 13.158-29.39 29.39v329.12c0 16.233 13.157 29.397 29.39 29.397h30.368M385.626 349.38h67.01v7h-67.01v-7M536.068 658.355c16.233 0 29.39-13.164 29.39-29.397v-329.12c0-16.232-13.158-29.39-29.39-29.39H505.7c-16.233 0-29.393 13.157-29.397 29.39v329.12c.004 16.234 13.163 29.397 29.397 29.397h30.368M487.39 349.38h66.989v7h-66.99v-7"/><rect width="438.406" height="44.3" x="199.942" y="668.525" fill="#FFF" rx="22.15"/></g></g></svg>