<svg xmlns="http://www.w3.org/2000/svg" xmlns:xlink="http://www.w3.org/1999/xlink" width="1025" height="1024"><defs><path id="b" d="M85.34 81.26c.227 1.7.34 3.4.34 5.1 0 9.407-4.023 19.55-12.07 30.43-6.46 8.727-14.393 16.547-23.8 23.46-8.613 6.233-14.45 9.123-17.51 8.67-3.4-.453-9.407-2.975-18.02-7.565S1.02 133.62.34 131.92a3.374 3.374 0 0 1-.34-1.53c0-.68.198-1.558.595-2.635.397-1.077.595-1.898.595-2.465V15.13c0-1.813 2.493-2.72 7.48-2.72 2.267 0 4.25.227 5.95.68 5.327-3.4 12.042-6.432 20.145-9.095C42.868 1.332 49.81 0 55.59 0c3.4 0 6.035.482 7.905 1.445 1.87.963 3.598 2.635 5.185 5.015 2.04 3.287 3.457 5.327 4.25 6.12.227.227 2.097 1.757 5.61 4.59 2.04 1.7 3.343 3.513 3.91 5.44.453 1.36.68 2.833.68 4.42 0 8.953-5.95 18.7-17.85 29.24 12.127 9.18 18.813 17.51 20.06 24.99M55.59 26.01c-.227-.453-.85-.68-1.87-.68-2.607 0-6.687 1.36-12.24 4.08-5.553 2.72-9.293 5.327-11.22 7.82v17.68c7.253-5.78 13.515-11.673 18.785-17.68s7.452-9.747 6.545-11.22m6.12 50.32c-2.947.113-7.933 1.53-14.96 4.25-7.593 3.06-13.09 6.063-16.49 9.01v31.62c7.367-2.04 14.62-8.273 21.76-18.7 7.14-10.427 10.37-19.153 9.69-26.18"/><path id="d" d="M171.87 139.91c-.113 1.587-.793 2.947-2.04 4.08-1.247 1.133-2.663 1.587-4.25 1.36-14.053-1.927-21.873-4.59-23.46-7.99a3.018 3.018 0 0 1-.34-1.36c0-.567.255-1.19.765-1.87.51-.68.822-1.275.935-1.785.113-.51.34-.992.68-1.445.227-.907.283-2.89.17-5.95-1.36 1.02-3.4 3.74-6.12 8.16-2.833 4.873-5.327 8.273-7.48 10.2-3.627 3.4-7.763 5.1-12.41 5.1-2.72 0-5.383-1.077-7.99-3.23-1.247-1.02-3.457-3.23-6.63-6.63-5.44-6.12-8.387-9.463-8.84-10.03-2.38-3.173-3.57-6.177-3.57-9.01 0-.907.113-1.813.34-2.72 2.153-9.973 8.84-19.437 20.06-28.39 8.16-6.46 19.72-13.317 34.68-20.57 0-3.627-.907-5.95-2.72-6.97-1.133-.68-5.1.595-11.9 3.825-6.8 3.23-11.56 5.978-14.28 8.245-.907.907-2.38 2.153-4.42 3.74-1.927 1.133-3.683 1.473-5.27 1.02-1.247-.34-3.91-2.38-7.99-6.12s-6.29-6.233-6.63-7.48c-.907-3.06.057-5.44 2.89-7.14.113-.113 2.38-.793 6.8-2.04l12.58-6.8c8.84-4.193 16.32-6.46 22.44-6.8 2.607-.113 5.553 1.247 8.84 4.08a581.68 581.68 0 0 0 8.925 7.735 196.105 196.105 0 0 0 9.265 7.395c3.627 3.173 5.44 6.233 5.44 9.18v64.26c1.133 2.947 1.643 4.93 1.53 5.95m-27.2-49.64c-5.553 2.153-10.313 5.44-14.28 9.86a891.029 891.029 0 0 1-8.84 10.71c-2.38 2.38-4.618 5.468-6.715 9.265-2.097 3.797-3.145 6.602-3.145 8.415 0 .907.34 1.36 1.02 1.36 2.38 0 7.707-5.128 15.98-15.385s13.6-18.332 15.98-24.225"/><path id="f" d="M265.71 132.77c.907 2.153 1.36 4.307 1.36 6.46 0 3.4-1.303 5.723-3.91 6.97-.793.34-2.21.51-4.25.51-3.853 0-8.443-.595-13.77-1.785s-8.557-2.352-9.69-3.485c-.567-.68-.85-1.417-.85-2.21 0-1.247.85-3.258 2.55-6.035 1.7-2.777 2.55-4.788 2.55-6.035.227-44.653-.113-67.15-1.02-67.49-1.587-.567-5.497 4.533-11.73 15.3-6.573 11.333-9.86 19.89-9.86 25.67v31.79c1.473 1.473 2.21 3.287 2.21 5.44 0 4.307-1.927 7.253-5.78 8.84-.453.227-1.133.34-2.04.34-3.06 0-7.537-.708-13.43-2.125s-9.18-2.578-9.86-3.485a4.973 4.973 0 0 1-1.02-3.06c0-1.133.652-2.493 1.955-4.08 1.303-1.587 1.955-2.607 1.955-3.06V52.19c0-.907-.453-2.097-1.36-3.57-.907-1.473-1.19-2.72-.85-3.74.68-2.38 2.437-3.91 5.27-4.59 1.813-.453 6.063.17 12.75 1.87 7.253 1.813 11.22 3.683 11.9 5.61.453 1.247.283 3.117-.51 5.61-1.247 3.967-1.87 6.233-1.87 6.8 0 1.247.227 2.607.68 4.08 1.7-5.667 4.08-10.71 7.14-15.13 3.74-5.327 7.48-7.99 11.22-7.99 3.853 0 8.84 1.332 14.96 3.995 6.12 2.663 9.633 5.072 10.54 7.225 3.173 7.253 4.76 34.057 4.76 80.41"/><path id="h" d="M360.91 12.92c.227 1.133-.198 3.343-1.275 6.63s-1.615 5.157-1.615 5.61V136c0 3.74.283 6.063.85 6.97 1.7 2.947 2.21 4.93 1.53 5.95-.567.907-2.04 1.36-4.42 1.36-2.607 0-6.573-.51-11.9-1.53-6.007-1.247-9.18-1.87-9.52-1.87-2.04-.227-3.513-1.587-4.42-4.08-.113-.227-.17-.963-.17-2.21 0-4.647.623-11.56 1.87-20.74-2.72 5.44-5.383 10.88-7.99 16.32-3.74 6.687-7.083 9.747-10.03 9.18-22.327-4.533-33.49-18.247-33.49-41.14 0-13.033 3.57-26.293 10.71-39.78 6.913-13.033 14.507-21.533 22.78-25.5 1.133-.567 2.21-.85 3.23-.85 2.833 0 7.763 3.513 14.79 10.54V15.64c-.113-.907-.623-2.522-1.53-4.845s-1.36-4.052-1.36-5.185c0-2.38 1.587-3.57 4.76-3.57 2.833 0 6.913.793 12.24 2.38 3.4 1.133 6.743 2.21 10.03 3.23 2.833.793 4.477 2.55 4.93 5.27m-29.58 43.86c-6.347 2.833-12.098 9.067-17.255 18.7-5.157 9.633-7.735 18.587-7.735 26.86 0 9.633 3.74 14.903 11.22 15.81 3.967.453 8.557-20.003 13.77-61.37"/><path id="j" d="M488.58 53.89c-5.327 14.28-10.653 31.903-15.98 52.87-4.873 18.473-7.197 29.013-6.97 31.62v6.29c-.113 2.947-1.133 4.59-3.06 4.93-1.587.227-6.46-.68-14.62-2.72-8.5-2.153-13.033-3.91-13.6-5.27-.227-.567-.34-3.173-.34-7.82-3.06-9.293-5.497-23.403-7.31-42.33-.567 3.173-2.493 11.447-5.78 24.82-2.493 9.973-3.74 16.433-3.74 19.38-.113 2.38-.227 4.703-.34 6.97-.227 3.173-1.303 5.043-3.23 5.61-.453.113-1.19.17-2.21.17-4.08 0-8.613-.793-13.6-2.38-5.893-1.813-9.407-4.023-10.54-6.63-.34-.68-.425-1.643-.255-2.89.17-1.247.085-2.777-.255-4.59-2.38-12.58-4.76-25.103-7.14-37.57A507.986 507.986 0 0 1 374 54.91c-.34-3.627-.51-5.667-.51-6.12 0-4.647 1.473-6.913 4.42-6.8 2.493.113 6.573 1.303 12.24 3.57 6.12 2.493 9.35 4.477 9.69 5.95.227.793.113 3.23-.34 7.31.68 8.727 2.437 24.14 5.27 46.24l11.73-55.93c.907-4.08 2.663-6.403 5.27-6.97.907-.113 4.335 1.275 10.285 4.165s8.925 4.845 8.925 5.865c.567 10.653 3.06 28.277 7.48 52.87 6.687-32.64 11.163-51.567 13.43-56.78.907-4.307 3.173-6.177 6.8-5.61 2.72.34 6.29 1.587 10.71 3.74 5.327 2.493 8.387 4.987 9.18 7.48"/><path id="l" d="M578.68 139.91c-.113 1.587-.793 2.947-2.04 4.08-1.247 1.133-2.663 1.587-4.25 1.36-14.053-1.927-21.873-4.59-23.46-7.99a3.018 3.018 0 0 1-.34-1.36c0-.567.255-1.19.765-1.87.51-.68.822-1.275.935-1.785.113-.51.34-.992.68-1.445.227-.907.283-2.89.17-5.95-1.36 1.02-3.4 3.74-6.12 8.16-2.833 4.873-5.327 8.273-7.48 10.2-3.627 3.4-7.763 5.1-12.41 5.1-2.72 0-5.383-1.077-7.99-3.23-1.247-1.02-3.457-3.23-6.63-6.63-5.44-6.12-8.387-9.463-8.84-10.03-2.38-3.173-3.57-6.177-3.57-9.01 0-.907.113-1.813.34-2.72 2.153-9.973 8.84-19.437 20.06-28.39 8.16-6.46 19.72-13.317 34.68-20.57 0-3.627-.907-5.95-2.72-6.97-1.133-.68-5.1.595-11.9 3.825-6.8 3.23-11.56 5.978-14.28 8.245-.907.907-2.38 2.153-4.42 3.74-1.927 1.133-3.683 1.473-5.27 1.02-1.247-.34-3.91-2.38-7.99-6.12s-6.29-6.233-6.63-7.48c-.907-3.06.057-5.44 2.89-7.14.113-.113 2.38-.793 6.8-2.04l12.58-6.8c8.84-4.193 16.32-6.46 22.44-6.8 2.607-.113 5.553 1.247 8.84 4.08a581.68 581.68 0 0 0 8.925 7.735 196.105 196.105 0 0 0 9.265 7.395c3.627 3.173 5.44 6.233 5.44 9.18v64.26c1.133 2.947 1.643 4.93 1.53 5.95m-27.2-49.64c-5.553 2.153-10.313 5.44-14.28 9.86a891.029 891.029 0 0 1-8.84 10.71c-2.38 2.38-4.618 5.468-6.715 9.265-2.097 3.797-3.145 6.602-3.145 8.415 0 .907.34 1.36 1.02 1.36 2.38 0 7.707-5.128 15.98-15.385s13.6-18.332 15.98-24.225"/><path id="m" d="M664.87 53.72c0 .113-.623 1.247-1.87 3.4-.793 1.587-1.19 2.833-1.19 3.74v74.46c0 18.813-6.97 30.883-20.91 36.21-6.46 2.493-12.353 3.74-17.68 3.74-7.707 0-14.393-2.607-20.06-7.82-1.587-1.36-4.307-4.307-8.16-8.84l-3.23-3.23c-1.133-1.247-1.757-2.55-1.87-3.91-.113-1.7 1.587-3.06 5.1-4.08.453-.113 1.133-.17 2.04-.17 2.493 0 5.468.51 8.925 1.53 3.457 1.02 5.922 2.267 7.395 3.74 1.813 2.267 3.683 4.59 5.61 6.97 1.927 2.38 4.193 3.683 6.8 3.91 4.647.453 7.65-2.72 9.01-9.52.68-3.287 1.02-9.123 1.02-17.51a613.57 613.57 0 0 0-3.23 4.42c-1.36 1.813-2.55 3.117-3.57 3.91-1.247 1.133-2.55 1.7-3.91 1.7-6.007 0-11.05-1.643-15.13-4.93-12.127-10.2-18.19-25.217-18.19-45.05 0-12.58 2.663-23.857 7.99-33.83 5.553-10.653 12.807-17.34 21.76-20.06.68-.227 1.303-.34 1.87-.34 1.813 0 3.853.85 6.12 2.55a204.607 204.607 0 0 1 5.78 4.59c.68-1.927 1.388-3.825 2.125-5.695.737-1.87 1.898-2.918 3.485-3.145 2.38-.34 6.602.425 12.665 2.295 6.063 1.87 9.492 3.485 10.285 4.845 1.36 2.267 1.7 4.307 1.02 6.12m-30.09 41.82c.907-7.82 1.36-14.223 1.36-19.21 0-9.18-1.473-14.337-4.42-15.47-2.38-.907-5.27 3.117-8.67 12.07-3.4 8.953-5.1 17.113-5.1 24.48 0 13.373 1.53 23.97 4.59 31.79 6.8-10.54 10.88-21.76 12.24-33.66"/><path id="o" d="M735.42 46.24c6.233 2.947 11.05 8.897 14.45 17.85 3.06 8.16 4.59 17.793 4.59 28.9 0 15.3-2.607 28.56-7.82 39.78-5.78 12.013-12.977 17.453-21.59 16.32-3.173-.793-7.933-1.757-14.28-2.89-4.647-.567-8.84-1.417-12.58-2.55-6.46-1.7-11.617-7.197-15.47-16.49-3.513-8.613-5.27-18.7-5.27-30.26 0-11.673 1.813-22.27 5.44-31.79 4.08-10.427 9.803-17.737 17.17-21.93 1.247-.68 2.947-1.02 5.1-1.02 2.267 0 6.743.737 13.43 2.21 4.307 0 9.917.623 16.83 1.87m-19.04 15.3c-3.06 0-5.893 3.712-8.5 11.135s-3.91 14.535-3.91 21.335c0 8.16.963 16.207 2.89 24.14 2.153 8.613 4.647 13.26 7.48 13.94 3.627.793 6.857-3.287 9.69-12.24 2.72-8.613 4.08-18.133 4.08-28.56 0-5.78-.737-11.503-2.21-17.17-2.04-8.387-5.213-12.58-9.52-12.58"/><path id="q" d="M845.07 132.77c.907 2.153 1.36 4.307 1.36 6.46 0 3.4-1.303 5.723-3.91 6.97-.793.34-2.21.51-4.25.51-3.853 0-8.443-.595-13.77-1.785s-8.557-2.352-9.69-3.485c-.567-.68-.85-1.417-.85-2.21 0-1.247.85-3.258 2.55-6.035 1.7-2.777 2.55-4.788 2.55-6.035.227-44.653-.113-67.15-1.02-67.49-1.587-.567-5.497 4.533-11.73 15.3-6.573 11.333-9.86 19.89-9.86 25.67v31.79c1.473 1.473 2.21 3.287 2.21 5.44 0 4.307-1.927 7.253-5.78 8.84-.453.227-1.133.34-2.04.34-3.06 0-7.537-.708-13.43-2.125s-9.18-2.578-9.86-3.485a4.973 4.973 0 0 1-1.02-3.06c0-1.133.652-2.493 1.955-4.08 1.303-1.587 1.955-2.607 1.955-3.06V52.19c0-.907-.453-2.097-1.36-3.57-.907-1.473-1.19-2.72-.85-3.74.68-2.38 2.437-3.91 5.27-4.59 1.813-.453 6.063.17 12.75 1.87 7.253 1.813 11.22 3.683 11.9 5.61.453 1.247.283 3.117-.51 5.61-1.247 3.967-1.87 6.233-1.87 6.8 0 1.247.227 2.607.68 4.08 1.7-5.667 4.08-10.71 7.14-15.13 3.74-5.327 7.48-7.99 11.22-7.99 3.853 0 8.84 1.332 14.96 3.995 6.12 2.663 9.633 5.072 10.54 7.225 3.173 7.253 4.76 34.057 4.76 80.41"/><path id="r" d="M124.135 99.978c-.147 2.053-1.87 4.583-5.17 7.59-3.3 3.006-5.683 4.51-7.15 4.51-2.053 0-3.3.073-3.74.22v55.44c0-.44.733 2.273 2.2 8.14 1.32 9.386.22 14.886-3.3 16.5-.733.293-1.833.44-3.3.44-5.133 0-11.733-1.834-19.8-5.5-8.653-3.814-13.933-7.627-15.84-11.44l-.66-5.94c-.293-1.027.22-2.42 1.54-4.18 1.32-1.76 1.98-2.86 1.98-3.3v-44.44c-2.787.293-8.287 1.393-16.5 3.3-8.213 1.906-13.64 3.373-16.28 4.4v44.66c0 1.026.477 2.236 1.43 3.63.953 1.393 1.503 2.456 1.65 3.19-.587 2.346-1.1 4.62-1.54 6.82-.44 1.613-1.247 2.64-2.42 3.08-2.347.88-8.91-.477-19.69-4.07-10.78-3.594-16.463-6.49-17.05-8.69-.44-1.614-.587-3.374-.44-5.28.44-2.934.66-4.987.66-6.16v-140.8c0-2.347.66-6.38 1.98-12.1.293-1.467 2.787-3.52 7.48-6.16.293-.147 1.1-.22 2.42-.22 5.427 0 11.147.88 17.16 2.64 7.773 2.346 11.88 5.426 12.32 9.24.147 1.32-.477 3.813-1.87 7.48-1.393 3.666-2.09 6.16-2.09 7.48v53.68c9.973-2.494 20.9-5.06 32.78-7.7v-61.38c0-.294-.33-1.394-.99-3.3-.66-1.907-.843-3.447-.55-4.62.733-2.64 3.153-4.327 7.26-5.06 3.08-.44 6.16-.807 9.24-1.1 3.227-.44 7.957.513 14.19 2.86 6.233 2.346 9.717 4.84 10.45 7.48.293 1.173 0 2.713-.88 4.62-1.027 2.493-1.54 4.546-1.54 6.16v60.72c.733.88 4.18 4.033 10.34 9.46 3.96 3.52 5.867 6.086 5.72 7.7"/><path id="t" d="M217.855 189.738c-3.08.293-6.527-.11-10.34-1.21a406.324 406.324 0 0 1-11.22-3.41c-4.4-1.174-11.293-3.3-20.68-6.38-11.733-5.134-20.607-15.254-26.62-30.36-5.28-13.347-7.92-29.48-7.92-48.4 0-15.4 2.64-33.367 7.92-53.9 7.187-27.574 16.5-41.36 27.94-41.36 1.027 0 2.457.256 4.29.77 1.833.513 3.263.843 4.29.99 10.853-3.08 17.82-4.62 20.9-4.62 1.467 0 2.933.073 4.4.22 17.6 2.2 31.46 13.2 41.58 33 9.093 17.893 13.64 39.233 13.64 64.02 0 23.466-4.107 43.633-12.32 60.5-8.8 18.333-20.753 28.38-35.86 30.14m-3.96-161.26c-3.227-.88-6.417 3.446-9.57 12.98-3.153 9.533-6.343 14.3-9.57 14.3-.733 0-1.797-.404-3.19-1.21-1.393-.807-2.53-1.284-3.41-1.43-4.987 11-7.48 26.693-7.48 47.08 0 15.986 1.687 29.7 5.06 41.14 3.813 12.76 9.093 19.8 15.84 21.12 7.92 1.466 14.3-6.674 19.14-24.42 4.253-15.547 6.38-34.027 6.38-55.44 0-14.52-1.1-26.694-3.3-36.52-2.347-10.56-5.647-16.427-9.9-17.6"/><path id="v" d="M380.875 153.218c0 10.853-3.593 19.763-10.78 26.73-7.187 6.966-17.16 10.596-29.92 10.89-3.227 0-6.673-.514-10.34-1.54-6.747-1.907-10.267-2.86-10.56-2.86a707.463 707.463 0 0 1-10.67-2.31c-3.593-.807-6.71-2.457-9.35-4.95-3.96-3.52-7.187-9.24-9.68-17.16-3.08-9.24-5.427-15.034-7.04-17.38-1.173-1.174-2.567-3.227-4.18-6.16-.44-2.2-.037-4.364 1.21-6.49 1.247-2.127 2.75-3.484 4.51-4.07.88-.294 2.493-.44 4.84-.44 5.133 0 11.403.623 18.81 1.87 7.407 1.246 11.55 2.383 12.43 3.41.88 1.026 2.053 6.306 3.52 15.84 1.32 8.8 3.3 13.713 5.94 14.74.587.293 1.247.44 1.98.44 2.787 0 5.17-2.31 7.15-6.93 1.98-4.62 2.97-9.864 2.97-15.73 0-12.76-3.96-21.267-11.88-25.52-18.187-9.827-30.947-18.92-38.28-27.28-8.507-9.68-12.32-21.12-11.44-34.32.733-11 4.73-22.11 11.99-33.33 7.26-11.22 14.923-17.784 22.99-19.69 3.373-.734 13.64 2.493 30.8 9.68 4.253 1.613 8.543 3.3 12.87 5.06 4.327 1.76 7.81 4.326 10.45 7.7 4.107 5.133 6.16 14.006 6.16 26.62 0 2.346-.073 5.793-.22 10.34-.147 3.96-.22 6.746-.22 8.36.147 1.026.66 2.713 1.54 5.06.733 1.613 1.027 3.226.88 4.84-.293 6.453-3.007 10.046-8.14 10.78-2.933.44-8.36-.66-16.28-3.3-8.8-2.787-14.373-5.794-16.72-9.02-.293-.44-.44-1.907-.44-4.4 0-2.2.257-7.187.77-14.96.513-7.774.77-13.42.77-16.94 0-6.307-.733-9.387-2.2-9.24-4.547.293-8.323 3.556-11.33 9.79-3.007 6.233-4.51 13.31-4.51 21.23 0 13.2 3.887 22.586 11.66 28.16l26.4 16.72c8.36 5.426 14.153 10.853 17.38 16.28 4.107 7.04 6.16 16.866 6.16 29.48"/><path id="x" d="M502.095 39.918c-1.173 0-2.787-.477-4.84-1.43-2.053-.954-3.74-1.284-5.06-.99l-22.66 6.16v115.72c0 4.253 1.027 8.873 3.08 13.86.587 1.466.44 4.253-.44 8.36-.88 4.546-2.273 7.406-4.18 8.58-.293.146-1.027.22-2.2.22-4.84 0-11.587-.954-20.24-2.86-9.68-2.2-15.4-4.327-17.16-6.38-2.053-2.64-1.98-6.16.22-10.56 1.907-3.814 2.86-6.6 2.86-8.36v-108.9l-15.62 3.96c-.733.146-1.943.77-3.63 1.87-1.687 1.1-3.117 1.503-4.29 1.21-3.373-.88-7.993-5.244-13.86-13.09-5.867-7.847-8.433-13.164-7.7-15.95 1.173-3.374 4.62-5.94 10.34-7.7 1.467-.44 3.373-.514 5.72-.22 2.347.293 4.18.293 5.5 0l76.56-19.58c.733-.147 2.86-1.027 6.38-2.64 2.347-1.027 4.473-1.394 6.38-1.1 4.107.586 6.893 2.2 8.36 4.84 1.027 1.76 2.127 5.06 3.3 9.9 1.467 5.72 2.2 10.706 2.2 14.96 0 3.226-.403 5.683-1.21 7.37-.807 1.686-3.41 2.603-7.81 2.75"/><linearGradient id="a" x1="50%" x2="50%" y1="0%" y2="100%"><stop offset="0%" stop-color="#472B15"/><stop offset="100%" stop-color="#2A1A0C"/></linearGradient><linearGradient id="c" x1="50%" x2="50%" y1="-53.496%" y2="124.831%"><stop offset="0%" stop-color="#FBDB0E"/><stop offset="100%" stop-color="#F3A706"/></linearGradient><linearGradient id="e" x1="50%" x2="50%" y1="-53.496%" y2="124.831%"><stop offset="0%" stop-color="#FBDB0E"/><stop offset="100%" stop-color="#F3A706"/></linearGradient><linearGradient id="g" x1="50%" x2="50%" y1="-53.496%" y2="124.831%"><stop offset="0%" stop-color="#FBDB0E"/><stop offset="100%" stop-color="#F3A706"/></linearGradient><linearGradient id="i" x1="50%" x2="50%" y1="-53.496%" y2="124.831%"><stop offset="0%" stop-color="#FBDB0E"/><stop offset="100%" stop-color="#F3A706"/></linearGradient><linearGradient id="k" x1="50%" x2="50%" y1="-53.496%" y2="124.831%"><stop offset="0%" stop-color="#FBDB0E"/><stop offset="100%" stop-color="#F3A706"/></linearGradient><linearGradient id="n" x1="50%" x2="50%" y1="-53.496%" y2="124.831%"><stop offset="0%" stop-color="#FBDB0E"/><stop offset="100%" stop-color="#F3A706"/></linearGradient><linearGradient id="p" x1="50%" x2="50%" y1="-53.496%" y2="124.831%"><stop offset="0%" stop-color="#FBDB0E"/><stop offset="100%" stop-color="#F3A706"/></linearGradient><radialGradient id="s" cx="50%" cy="32.598%" r="83.651%" fx="50%" fy="32.598%" gradientTransform="matrix(1 0 0 .6468 0 .115)"><stop offset="0%" stop-color="#FFF"/><stop offset="100%" stop-color="#717372"/></radialGradient><radialGradient id="u" cx="50%" cy="32.598%" r="83.651%" fx="50%" fy="32.598%" gradientTransform="matrix(1 0 0 .6648 0 .11)"><stop offset="0%" stop-color="#FFF"/><stop offset="100%" stop-color="#717372"/></radialGradient><radialGradient id="w" cx="50%" cy="32.598%" r="83.651%" fx="50%" fy="32.598%" gradientTransform="matrix(1 0 0 .5406 0 .15)"><stop offset="0%" stop-color="#FFF"/><stop offset="100%" stop-color="#717372"/></radialGradient><radialGradient id="y" cx="50%" cy="32.598%" r="83.651%" fx="50%" fy="32.598%" gradientTransform="matrix(1 0 0 .6558 0 .112)"><stop offset="0%" stop-color="#FFF"/><stop offset="100%" stop-color="#717372"/></radialGradient></defs><g fill="none" fill-rule="evenodd"><path fill="url(#a)" d="M0 0h1024v1024H0z" transform="translate(.633)"/><g fill-rule="nonzero"><g transform="translate(89.843 271.54)"><use xlink:href="#b" fill="#FFF"/><use xlink:href="#b" fill="url(#c)"/></g><g transform="translate(89.843 271.54)"><use xlink:href="#d" fill="#FFF"/><use xlink:href="#d" fill="url(#e)"/></g><g transform="translate(89.843 271.54)"><use xlink:href="#f" fill="#FFF"/><use xlink:href="#f" fill="url(#g)"/></g><g transform="translate(89.843 271.54)"><use xlink:href="#h" fill="#FFF"/><use xlink:href="#h" fill="url(#i)"/></g><g transform="translate(89.843 271.54)"><use xlink:href="#j" fill="#FFF"/><use xlink:href="#j" fill="url(#k)"/></g><g transform="translate(89.843 271.54)"><use xlink:href="#l" fill="#FFF"/><use xlink:href="#l" fill="url(#e)"/></g><g transform="translate(89.843 271.54)"><use xlink:href="#m" fill="#FFF"/><use xlink:href="#m" fill="url(#n)"/></g><g transform="translate(89.843 271.54)"><use xlink:href="#o" fill="#FFF"/><use xlink:href="#o" fill="url(#p)"/></g><g transform="translate(89.843 271.54)"><use xlink:href="#q" fill="#FFF"/><use xlink:href="#q" fill="url(#g)"/></g></g><g fill-rule="nonzero"><g transform="translate(260.018 594.362)"><use xlink:href="#r" fill="#FFF"/><use xlink:href="#r" fill="url(#s)"/></g><g transform="translate(260.018 594.362)"><use xlink:href="#t" fill="#FFF"/><use xlink:href="#t" fill="url(#u)"/></g><g transform="translate(260.018 594.362)"><use xlink:href="#v" fill="#FFF"/><use xlink:href="#v" fill="url(#w)"/></g><g transform="translate(260.018 594.362)"><use xlink:href="#x" fill="#FFF"/><use xlink:href="#x" fill="url(#y)"/></g></g></g></svg>