<svg xmlns="http://www.w3.org/2000/svg" width="1025" height="1024"><g fill="none" fill-rule="evenodd"><path fill="#FF5CA1" d="M.633 0h1024v1024H.633z"/><path fill="#FFF" fill-rule="nonzero" d="M710.516 450.836c3.29 0 16.445-3.173 16.445-3.173l6.579 47.595-13.157 3.174c0-6.347-9.867-44.423-9.867-47.596m26.312-6.346 6.579 50.768h19.734c-3.289-19.038-9.867-50.768-9.867-50.768h-16.446m-13.156 69.806s29.602-6.346 39.47-3.172c6.577 19.037 16.444 126.92 16.444 130.094-6.575 0-29.601 3.173-29.601 3.173-3.29-6.346-26.313-123.748-26.313-130.095m108.542-63.46h16.443c0 3.173 3.291 47.596 0 47.596h-13.159c0-3.174-3.284-44.423-3.284-47.596m23.018 0v50.768h19.735v-50.768c-6.576 0-13.152-3.173-19.735 0m-19.734 66.633s29.602-3.173 39.469 0c3.291 22.212 3.291 126.922 3.291 130.094h-29.601c0-6.345-13.159-126.92-13.159-130.094m-69.07-130.094c16.45 85.672 29.601 234.804 32.893 244.323h29.601c-13.158-92.017-23.026-241.15-23.026-244.323-3.284-6.346-39.468 0-39.468 0M726.96 593.622c-3.289-25.384-92.093-50.769-144.718-44.422 0 0-6.578-53.942-9.868-104.71-3.289-44.423 0-88.845 0-95.19-3.289-3.174-39.468 15.864-59.203 22.21 0 0 23.024 95.191 39.469 295.092 0 0 26.312 3.173 72.36-6.347 52.624-9.518 105.25-34.902 101.96-66.633m-108.539 41.25-9.867-53.942c3.29 0 49.336 15.865 55.914 19.038 0 3.174-46.047 34.903-46.047 34.903m-282.86-184.036c3.29 0 16.446-3.173 16.446-3.173l6.579 47.595c-3.29 0-13.157 3.174-13.157 3.174 0-6.347-9.867-44.423-9.867-47.596m26.313-6.346 6.579 50.768h19.734c-3.29-19.038-6.578-50.768-6.578-50.768h-19.735m-13.156 69.806s29.602-6.346 39.47-3.172c6.577 19.037 16.444 126.92 16.444 130.094-6.578 0-29.601 3.173-29.601 3.173-3.29-6.346-26.313-123.748-26.313-130.095m108.54-63.46h16.445c0 3.173 3.289 47.596 0 47.596h-13.157c0-3.174-3.289-44.423-3.289-47.596m26.312 0v50.768h19.734v-50.768c-6.578 0-13.156-3.173-19.734 0m-23.024 66.633s29.602-3.173 39.469 0c3.29 22.212 3.29 126.922 3.29 130.094h-29.602c0-6.345-13.157-126.92-13.157-130.094m-69.07-130.094c16.445 85.672 29.601 234.804 32.89 244.323h29.602c-9.867-92.017-19.734-241.15-19.734-247.496-6.578-3.172-42.758 3.173-42.758 3.173m-39.469 206.247c-3.289-25.384-92.093-50.769-144.719-44.422 0 0-6.577-53.942-9.867-104.71-3.289-44.423 0-88.845 0-95.19-3.289-3.174-39.468 15.864-59.203 22.21 0 0 23.024 95.191 39.469 295.092 0 0 26.312 3.173 72.36-6.347 46.046-9.518 108.539-34.902 101.96-66.633m-108.54 41.25-6.577-53.942c3.29 0 49.336 15.865 55.914 19.038-3.289 3.174-49.336 34.903-49.336 34.903"/></g></svg>