<svg xmlns="http://www.w3.org/2000/svg" width="1024" height="1024"><g fill="none" fill-rule="evenodd"><path fill="#EAF1EA" d="M0 0h1024v1024H0z"/><g fill-rule="nonzero"><path fill="#20A43A" d="M512.677 886.4c-1.505-3.01-1.505-6.773-2.258-10.535V385.218c0-5.267 0-10.535-.752-15.803 0-.752 0-1.505 1.505-1.505s3.01 0 4.515.753c15.803 4.515 30.853 9.03 46.656 12.793 3.763.752 5.268 3.01 4.516 6.772v36.122c0 4.515 1.505 6.772 6.02 7.525 9.783 2.257 19.565 5.267 29.348 6.773h.753c3.762-1.506 6.02.752 9.03 2.257h.753c6.772 0 .752-3.01 2.257-4.515-.752-10.535 0-20.318 0-30.854 0-2.257 0-5.267 2.258-6.772h1.505c15.803 4.515 30.853 9.03 46.656 13.545 3.01.753 3.01 3.01 3.01 5.268v35.369c0 3.762.753 6.02 4.516 6.772 9.03 2.258 18.813 4.515 27.843 7.525h.753c4.515-1.505 8.277 2.258 12.793 1.506.752 0 1.505-.753 1.505-1.506 1.505-5.267 0-10.535.752-15.803.753-6.772 0-13.545 0-19.565v-1.505c0-2.258.753-1.505 2.258-1.505 15.05 4.515 30.853 9.03 45.904 13.545 3.762 1.505 3.01 3.763 3.01 6.773 0 38.379.752 76.757.752 115.136 0 47.41 0 94.818.753 142.228 0 5.267-1.505 11.287-3.763 15.803-12.793 24.833-30.1 45.151-51.171 63.964-37.627 33.864-81.273 57.192-127.93 76.758-21.823 9.03-43.646 15.05-65.47 23.328-1.504.753-2.257.753-2.257.753h-.753c-1.505.752-3.01 1.505-4.515 1.505"/><path fill="#18842D" d="M509.667 368.663c1.505 0 3.01 1.505 3.01 3.01v516.232l-1.505-.752s-30.101-9.783-45.152-15.05c-51.924-18.814-100.838-42.142-142.98-77.511-24.08-19.566-44.399-41.389-59.45-68.48-4.514-7.525-6.772-16.555-6.772-24.833.753-84.283.753-168.566.753-252.849 0-5.267 1.505-6.772 6.02-8.277 15.05-3.763 29.348-8.278 44.399-12.793 2.257 2.257 1.505 5.267 1.505 7.525v24.833c0 6.02.752 6.773 6.773 5.268 2.257-.753 4.515-.753 6.772 0 9.783-2.258 19.566-5.268 30.101-7.525 3.763-.753 3.763-3.01 3.763-6.02v-36.122c0-2.257 0-4.515 3.01-5.267l47.41-13.546c2.257 2.258 1.504 5.268 1.504 8.278 0 10.535-.752 21.07.753 32.358 3.762 3.01 6.773-.752 10.535-.752 1.505-.753 3.01 0 5.268 0 9.03-2.258 18.06-5.268 27.09-7.525 4.516-.753 6.021-3.01 6.021-7.526-.753-12.04 0-24.08 0-36.873 0-2.258 0-4.515 3.01-5.268 15.803-2.258 32.359-6.773 48.162-10.535"/><path fill="#20A43A" d="M512.677 252.021c7.525.753 12.793 3.763 13.545 12.04.753 6.773 1.505 15.804 6.02 20.319 4.516 4.515 13.546 4.515 20.319 6.773 85.035 24.08 170.07 48.161 255.106 71.49 4.515 1.505 7.525 1.505 11.288-2.258l.752-.753c12.04-12.04 25.586-15.803 42.142-9.03.752 1.505-1.506 2.258-2.258 3.763-13.545 18.06-27.09 35.368-40.636 53.429-2.258 3.763-4.516 4.515-9.03 3.01-97.076-28.596-194.905-56.44-291.98-84.283-3.01-.752-6.02-1.505-9.783-.752 2.257-7.526 1.505-15.803 1.505-23.329v-40.636c.752-4.515.752-7.525 3.01-9.783"/><path fill="#18842D" d="M512.677 252.021v65.47c0 3.763 0 6.02-3.763 7.525-27.09 7.525-53.43 15.803-79.768 23.328-71.49 20.319-142.98 41.39-213.717 61.708-2.257.752-5.267 2.257-7.525-.753-15.05-19.566-30.101-39.131-45.904-59.45l23.328-3.01c1.505 0 2.258 0 3.763.753 1.505.752 2.257 1.505 3.01 2.258 12.04 12.792 25.586 12.792 42.141 8.277 84.283-24.833 169.319-48.161 253.601-71.49 3.763-1.505 6.773-3.01 7.526-7.525.752-5.268 3.01-10.535 3.762-15.803.753-8.278 6.02-11.288 13.546-11.288"/><path fill="#20A43A" d="M512.677 136.132c12.04-.752 12.04-.752 14.298 10.536 3.01 14.298 5.267 29.348 8.278 43.646 0 3.01 2.257 5.268 5.267 6.02 79.015 24.081 158.03 47.41 237.046 71.49 2.257.753 5.267.753 6.772-1.505l.753-.752c12.793-11.288 27.09-17.308 44.399-9.03 0 1.504-2.258 2.257-3.01 3.01-15.05 15.05-30.854 29.348-45.152 44.398-3.762 3.763-6.772 4.516-12.04 3.01-83.53-23.328-167.813-46.656-251.344-69.984-2.257-.753-4.515-.753-6.02-1.505-.752-2.258-1.505-4.515-.752-6.02v-83.53c-.753-3.01-1.505-6.774 1.505-9.784"/><path fill="#18842D" d="M512.677 136.132v92.561c0 2.258 0 5.268-1.505 7.525-41.39 11.288-82.026 23.328-123.414 34.616-43.647 12.04-87.293 24.081-130.94 36.874-6.02 1.505-9.03.753-13.545-3.763-15.05-16.555-30.854-33.11-45.152-48.914 4.515-.752 12.04-1.505 19.566-3.01 3.01-.752 5.268 1.505 6.773 3.01 12.793 12.793 25.585 12.04 42.141 6.773 71.49-22.576 144.485-43.646 215.975-65.47 4.515-1.505 6.773-3.762 7.525-8.277 2.258-15.05 6.02-29.349 8.278-44.4.752-6.772 3.01-9.782 10.535-8.277 1.505.752 2.258.752 3.763.752"/><path fill="#20A43A" d="M323.793 466.491c-3.763 1.505-8.278 3.01-12.793 3.763-3.763.752-3.01-3.01-3.01-4.516v-36.873h.752c15.05 2.257 15.05 2.257 15.05 17.308-.752 6.02 0 12.793 0 20.318"/><path fill="#18852D" d="M716.611 428.112v2.258a352.59 352.59 0 0 1 0 39.884c-5.268-.753-10.535-3.01-15.803-3.763v-28.596c0-4.515 1.505-6.773 6.02-7.525 3.763-.753 6.773-3.01 9.783-2.258m-105.353 12.793-9.03-2.257V407.04c0-4.515 1.504-6.772 6.02-6.772 3.01 0 6.02-2.258 9.782-1.505-2.257 5.267-.752 11.288-1.505 16.555v23.329c.753 3.01.753 3.762-5.267 2.257"/><path fill="#20A53A" d="M420.116 439.4c1.505 0 3.763-.752 5.268-.752-3.763 0-2.258-3.01-2.258-4.516V406.29c0-2.258.753-4.515-2.257-4.515-4.515-.753-8.278-3.01-12.793-2.258v37.626c0 .753 0 6.02 1.505 6.773h2.257c.753 0 1.505 0 2.258-.752"/><path fill="#24A53E" d="M716.611 470.254V430.37c2.258 1.505 1.505 4.515 1.505 6.772.753 10.536-.752 21.824.753 32.36 0 .752-.753.752-.753 1.504 0 0-.752-.752-1.505-.752"/></g></g></svg>