<svg xmlns="http://www.w3.org/2000/svg" width="1024" height="1024"><defs><linearGradient id="a" x1="50%" x2="50%" y1="0%" y2="100%"><stop offset="0%" stop-color="#0055D3"/><stop offset="100%" stop-color="#03BBFB"/></linearGradient></defs><g fill="none" fill-rule="evenodd"><path fill="#FFF" d="M0 0h1024v1024H0z"/><circle cx="512" cy="512" r="377" fill="url(#a)"/><path fill="#FFF" d="M832.704 673.233c-23.08 39.956-53.917 74.828-92.508 104.616-35.892 28.77-72.663 44.17-100.873 57.02-45.448 16.45-81.17 20.78-123.66 21.131-24.415-.682-56.525-2.87-79.306-7.587-34.632-7.173-55.327-17.795-54.76-18.94.537-1.084 23.706 6.378 54.76 11.212 24.605 3.389 51.82 4.738 74.057 5.344 66.168.565 110.718-15.318 124.301-20.416 30.373-12.819 70.379-32.62 108.023-63.98 10.857-9.546 27.266-24.684 45.32-45.25a403.812 403.812 0 0 0 33.043-43.15h11.603M186.585 370c23.081-39.956 53.917-74.828 92.509-104.616 35.891-28.77 72.662-44.17 100.873-57.02 45.447-16.45 81.169-20.78 123.659-21.131 24.416.682 56.526 2.87 79.307 7.587 34.632 7.173 55.326 17.795 54.76 18.94-.538 1.084-23.707-6.378-54.76-11.212-24.605-3.389-51.82-4.738-74.058-5.344-66.167-.565-110.718 15.318-124.301 20.416-30.372 12.819-70.378 32.62-108.023 63.98-10.857 9.546-27.265 24.684-45.32 45.25A403.812 403.812 0 0 0 198.188 370h-11.603"/><g fill="#FFF" fill-rule="nonzero"><path d="M821.84 542.368c-4.213-4.284-9.664-7.677-16.351-10.177-6.688-2.5-13.835-4.004-21.443-4.509-7.608-.505-15.338-.289-23.188.65-23.238 3.08-46.108 1.817-68.613-3.79-1.908-.409-4.21-1.778-6.91-4.109-2.698-2.33-4.426-4.82-5.186-7.468-2.784-9.71-3.948-19.914-3.494-30.612.455-10.698 2.43-19.533 5.923-26.505 5.539-11.5 17.948-23.715 37.226-36.646 19.278-12.931 42.212-23.21 68.803-30.834 15.889-4.556 28.512-6.862 37.87-6.918 9.357-.056 14.763 2.453 16.218 7.529 2.373 8.275 3.077 14.999 2.113 20.171-.965 5.172-2.53 8.875-4.696 11.108-2.166 2.233-6.14 5.552-11.922 9.956-6.255 4.421-11.568 8.69-15.94 12.81-4.371 4.12-8.03 7.915-10.974 11.386-2.945 3.472-4.86 5.334-5.742 5.587-1.103.316-1.781.033-2.035-.85-.537-1.875.606-5.278 3.432-10.208 2.825-4.93 6.695-9.651 11.61-14.165 5.151-4.94 7.6-7.851 7.347-8.734-.411-1.434-3.982-1.187-10.713.743-20.412 5.854-38.757 13.084-55.036 21.693-16.279 8.608-28.557 17.323-36.834 26.144-8.276 8.822-11.53 16.322-9.757 22.5 1.107 3.862 3.959 6 8.555 6.413 4.597.414 14.494.471 29.693.173 15.199-.298 29.066.382 41.602 2.042 17.96 2.253 31.862 5.968 41.705 11.146 9.844 5.178 16.078 12.346 18.704 21.504 1.804 6.289 2.098 13.04.883 20.255-1.215 7.215-3.987 14.308-8.316 21.281-4.33 6.973-9.81 13.261-16.443 18.865-5.719 4.625-13.168 9.567-22.347 14.826-9.179 5.26-19.336 10.231-30.47 14.917-11.135 4.685-21.943 8.53-32.425 11.536-19.309 5.537-35.36 8.17-48.156 7.898-12.794-.272-20.252-4.104-22.372-11.496-.949-3.31-.442-9.038 1.521-17.183 1.963-8.146 5.3-14.207 10.01-18.185 4.207-3.236 8.478-5.625 12.812-7.166 4.334-1.542 6.691-1.65 7.071-.326.095.33.024.71-.212 1.135a4.596 4.596 0 0 1-.921 1.16l-1.134 1.042a179.19 179.19 0 0 1-4.786 3.61c-1.237.893-2.198 1.706-2.883 2.44-.685.733-.901 1.542-.648 2.424.665 2.317 12.417.201 35.256-6.348 19.86-5.695 35.93-11.079 48.207-16.151 12.277-5.073 22.733-10.877 31.367-17.413s15.973-14.253 22.02-23.15M419.032 390.463H654.36v61.865h-78.955V641h-77.417V452.328h-78.955zM180.806 387.463h144.922c24.153 0 42.696 5.981 55.627 17.944 12.931 11.963 19.397 26.774 19.397 44.434 0 14.811-4.614 27.514-13.843 38.11-6.152 7.064-15.153 12.647-27.002 16.748 18.002 4.33 31.246 11.764 39.734 22.302 8.488 10.54 12.732 23.784 12.732 39.734 0 12.989-3.02 24.667-9.058 35.035-6.038 10.367-14.298 18.57-24.78 24.609-6.494 3.76-16.292 6.494-29.394 8.203-17.432 2.279-28.996 3.418-34.693 3.418H180.806V387.463m78.1 98.267h33.667c12.077 0 20.48-2.08 25.208-6.238 4.728-4.159 7.092-10.169 7.092-18.03 0-7.292-2.364-12.988-7.092-17.09-4.728-4.101-12.96-6.152-24.695-6.152h-34.18v47.51m0 98.437h39.478c13.33 0 22.73-2.364 28.198-7.092 5.469-4.728 8.203-11.08 8.203-19.055 0-7.406-2.706-13.359-8.117-17.86-5.412-4.5-14.897-6.75-28.455-6.75h-39.307v50.757"/></g></g></svg>