<svg xmlns="http://www.w3.org/2000/svg" width="1025" height="1024"><g fill="none" fill-rule="nonzero"><path fill="#3A6187" d="M1024.633 0H.633v1024h1024z"/><path fill="#FDBC46" d="M774.817 287.012c10.98 2.68 24.944-4.648 32.44 9.684 0 176.704.044 353.404-.1 530.128 0 10.708 2.292 21.912-3.912 31.948-6.86 4.996-14.848 3.992-22.528 3.992-132.976.084-265.976.084-398.952 0-6.944 0-14.048.78-20.664-2.416-10.056-7.884-9.132-19.456-9.176-30.104-.696-168.348-.736-336.692.024-505.04.04-9.912-.64-20.56 7.76-28.4 2.088-.944 4.056-2.216 6.512-2.236 113.564-.572 227.104-.06 312.956-.244-78.212 0-184.136.02-290.06-.064-8.52 0-17.14 1.044-25.62-1.104-1.984-2.744-2.048-5.488-.184-8.316 6.72-8.376 16.488-8.336 25.64-8.356 115.652-.308 231.324-2.128 346.972.88 13.684.348 28.284-3.052 38.912 9.628l-.02.02"/><path fill="#C58C56" d="M774.817 287.012c-12.676-.04-25.352-.064-38.032-.104-14.456-11.776-10.34-28.384-10.872-43.5-1.188-33.012-5.612-38.172-38.32-38.236-123.064-.224-246.108-.184-369.172-.04-3.112 0-6.224 0-9.34.204-24.596 1.516-40.796 13.188-43.5 31.316-2.62 17.632 7.968 30.82 32.116 39.544 5.12 1.844 10.544 2.928 14.252 7.436 6.288 7.864 6.412 17 6.392 26.56-.412 159.048.652 318.12-.864 477.164-.324 34.88 2.152 63.408 42.54 72.028 2.968 1.58 4.012 3.976 3.132 7.212-20.212.12-40.508 1.596-60.6.12-52.264-3.828-88.6-41.224-88.78-93.368-.616-177.54-.532-355.1-.04-532.64.1-41.168 25.7-71.232 64.776-80.04 162.204.72 324.404-.04 486.604.392 11.164 6.08 8.932 16.896 9.052 26.624.372 33.096.472 66.212.656 99.308v.02"/><path fill="#FEBE42" d="M802.61 858.096c0-176.536-.06-353.076.02-529.612 0-10.752-1.925-21.916 4.607-31.788 6.76 7.212 4.2 16.2 4.22 24.456.144 170.864.144 341.708 0 512.572 0 8.232 2.56 17.264-4.364 24.392-1.492 2.192-2.988 2.172-4.484 0v-.02"/><path fill="#C98D54" d="M765.09 161.08c-9.153 6.04-19.517 4.524-29.533 4.524-142.56.064-285.1.064-427.664 0-10.012 0-20.4 1.476-29.408-4.912 8.624-4.876 18.124-3.872 27.4-3.892 144.836-.064 289.652-.08 434.484.02 8.4 0 17.288-1.824 24.7 4.24l.02.02"/><path fill="#FEBE42" d="M802.61 858.096h4.483c-4.588 9.808-13.616 8.928-22.076 8.908-140.616-.1-281.252-.264-421.868-.408a28.596 28.596 0 0 0-.592-3.44c-1.108-1.232-1.396-2.376-.88-3.464.488-1.044.94-1.556 1.348-1.556l439.584-.06v.02"/><path fill="#F9F6EC" d="M307.525 288.568c-6.184-.572-12.472-.636-18.552-1.8-21.752-4.16-37.192-22.448-37.888-44.3-.68-20.892 12.492-39.816 32.972-45.732 7.312-2.112 15.32-2.52 23.02-2.54 135.432-.144 270.868.184 406.28-.452 17.756-.08 25.292 3.932 23.9 23.144-1.68 23.244-.448 46.672-.492 70.04-112.948.268-225.892.512-338.82.84-11.672.04-23.328.596-35 .9-18.492 14.624-36.968 10.836-55.42-.08v-.02"/><path fill="#F0A54C" d="m307.525 288.568 55.42.08c.06 1.168.144 2.336.224 3.504 2.908 1.6 2.868 3.132-.12 4.568 0 188.416 0 376.832-.024 565.248a362.43 362.43 0 0 1-.468 5.036c-63.12-.84-55.32 8.356-55.38-56.648-.16-173.936.184-347.872.328-521.808l.02.02"/><path fill="#F0A64C" d="M568.053 717.704c-41.984 0-83.948.144-125.932-.144-7.312-.04-18.228 1.7-18.74-8.64-.532-10.712 10.3-9.648 17.652-9.668 84.728-.204 169.452-.204 254.18-.02 7.312 0 18.596-1.616 18.697 8.624.123 12.264-12.125 9.624-19.949 9.704-41.96.372-83.944.188-125.928.164l.02-.02m.08 37.54c27.176 0 54.356-.164 81.532.144 7.332.084 17.816-1.104 17.592 9.768-.184 9.096-9.852 8.46-16.568 8.48-54.356.204-108.708.244-163.064 0-7.308-.02-18.184 1.064-17.528-9.748.632-10.3 11.508-8.46 18.82-8.56 26.4-.348 52.796-.144 79.196-.124l.02.04"/><path fill="#FEBB40" d="M363.07 296.656c-.02-1.516 0-3.032.12-4.544h363.683v4.544H363.07"/></g></svg>