<svg xmlns="http://www.w3.org/2000/svg" width="1025" height="1024"><g fill="none" fill-rule="evenodd"><path fill="#FFF" d="M.633 0h1024v1024H.633z"/><g fill-rule="nonzero" opacity=".95"><path fill="#4CE7FF" d="M312.382 785.118c110.458 0 200-89.543 200-200s-89.542-200-200-200c-110.457 0-200 89.543-200 200s89.543 200 200 200"/><path fill="#0067C2" d="M512.382 785.975c151.052 0 273.507-122.451 273.507-273.506 0-151.052-122.455-273.507-273.507-273.507-151.055 0-273.51 122.455-273.51 273.507 0 151.055 122.455 273.506 273.51 273.506"/><path fill="#4CE7FF" d="M712.382 785.118c110.458 0 200-89.543 200-200s-89.542-200-200-200c-110.457 0-200 89.543-200 200s89.543 200 200 200"/></g></g></svg>