<svg xmlns="http://www.w3.org/2000/svg" width="1025" height="1024"><g fill="none" fill-rule="evenodd"><path fill="#FFF" d="M.633 0h1024v1024H.633z"/><path fill="#0F0F04" fill-rule="nonzero" d="M532.334 855.563c-102.28-25.805-191.424-72.253-256.17-156.705-84.452-111.664-84.452-263.677 1.407-375.34 75.538-96.651 176.41-146.384 295.112-162.805 61.931-7.507 125.27-4.692 186.732-4.692 33.311 0 51.14 19.706 51.14 54.425 0 31.435-18.298 46.917-51.14 48.325-55.832 1.407-111.664-4.692-167.027 6.1-84.451 15.013-159.52 48.324-207.844 125.27-64.747 104.156-33.312 241.156 70.845 312.001 58.647 40.818 125.27 60.055 197.523 61.931H757.07c36.127 0 52.548 16.421 52.548 51.14 0 31.435-21.113 51.14-54.425 52.548C717.658 869.17 691 869 653 869s-38 1-62-2c-40-5-53.512-10.07-58.666-11.437"/><path fill="#F71D11" fill-rule="nonzero" d="M702.645 295.367h59.116c33.311 1.407 49.733 19.705 49.733 55.832 0 31.434-19.706 51.14-49.733 51.14h-99.465c-33.312 0-64.747 6.1-90.551 27.212-61.932 48.325-52.548 129.492 16.42 167.027 25.805 13.606 52.549 19.705 79.76 19.705h98.058c27.213 0 45.041 19.705 46.918 46.918 1.408 34.719-12.199 60.054-40.818 60.054-69.438 1.408-140.284 8.914-207.845-13.606-81.168-25.805-140.284-73.66-161.397-159.52-19.705-78.821 10.791-140.283 68.03-193.3 52.549-48.325 117.295-60.055 185.325-63.339 13.606 1.877 30.028 1.877 46.449 1.877"/></g></svg>