<svg xmlns="http://www.w3.org/2000/svg" width="1024" height="1024"><g fill="none" fill-rule="evenodd"><path fill="#FFF" d="M0 0h1024v1024H0z"/><g fill-rule="nonzero"><path fill="#193762" d="M850.512 854.11C789.79 166.954 741.954 147 741.954 147c-44.995 10.968-93.89 129.304-93.89 129.304-35.15-16.584-98.382-12.95-98.382-12.95s-63.231-3.634-98.382 12.95c0 0-48.894-118.336-93.89-129.304 0 0-46.118 19.293-105.32 671.1l-10.24-.198h-19.888c-1.652-.066-4.757-.396-7.268-.859-2.643-.528-5.352-.99-7.929-1.783-21.408-5.485-38.785-19.426-47.044-39.578-1.387-2.313-1.916-5.154-2.907-7.73-.925-2.643-2.048-5.154-2.51-7.863l-2.049-7.995c-.396-2.643-.529-5.286-.859-7.929-.859-10.637.132-21.54 4.03-31.054 3.833-9.514 10.176-18.302 18.963-25.504 4.361-3.568 9.052-7.004 14.14-9.91 2.577-1.388 5.154-2.842 7.863-4.031 2.576-1.256 5.682-2.445 7.598-3.172l1.784-.727c6.21-2.444 10.043-9.052 8.722-15.857a14.087 14.087 0 0 0-16.585-11.1c-4.625.925-8.06 1.718-11.893 2.907-3.766 1.123-7.334 2.51-10.902 3.964-7.136 2.974-14.14 6.608-20.747 11.1-13.214 8.854-25.173 21.276-32.838 36.539-14.998 30.856-13.214 66.601.529 95.673 6.74 14.866 17.51 28.477 30.327 39.181 12.818 10.836 27.949 18.302 43.608 22.597 3.898 1.19 7.929 1.916 11.96 2.643 4.228.66 8.589 1.982 13.676 2.312 6.74.463 26.76 2.643 26.76 2.643 12.752.86 24.249 3.634 36.736 4.758 37.662 5.351 113.315 10.175 264.622 9.448 326.73 1.586 300.763-22.465 300.763-22.465M415.29 481.857c-18.633 0-33.764-15.131-33.764-33.764 0-18.632 15.131-33.763 33.764-33.763 18.632 0 33.763 15.13 33.763 33.763 0 18.633-15.13 33.764-33.763 33.764m181.237 79.089h-32.772a3.105 3.105 0 0 1-2.313-.991l-11.76-11.761-11.761 11.76a3.37 3.37 0 0 1-2.313.992h-32.772v-6.608h31.384l12.488-12.487c.595-1.124 1.784-1.586 3.04-1.586 1.057 0 2.114.396 2.775 1.321l12.752 12.752h31.384v6.608h-.132m87.546-79.09c-18.632 0-33.763-15.13-33.763-33.763 0-18.632 15.13-33.763 33.763-33.763 18.633 0 33.764 15.13 33.764 33.763 0 18.633-15.131 33.764-33.764 33.764"/><path fill="#FFF" d="M381.527 448.093a33.764 33.764 0 1 0 67.527 0 33.764 33.764 0 0 0-67.527 0M650.311 448.093a33.764 33.764 0 1 0 67.527 0 33.764 33.764 0 0 0-67.527 0M546.643 541.917l-12.488 12.487h-31.384v6.608h32.772c.859 0 1.718-.33 2.312-.991l11.761-11.761v-7.93c-1.189-.065-2.444.463-2.973 1.587M561.443 560.02c.595.595 1.454.992 2.313.992h32.772v-6.608h-31.385l-12.752-12.752c-.594-.925-1.717-1.321-2.775-1.321v7.929l11.827 11.76"/></g></g></svg>