<svg xmlns="http://www.w3.org/2000/svg" xmlns:xlink="http://www.w3.org/1999/xlink" width="1025" height="1025"><defs><filter id="a" width="102.1%" height="104.8%" x="-1.1%" y="-2.4%" filterUnits="objectBoundingBox"><feMorphology in="SourceAlpha" radius="4" result="shadowSpreadInner1"/><feGaussianBlur in="shadowSpreadInner1" result="shadowBlurInner1" stdDeviation="2.5"/><feOffset dy="13" in="shadowBlurInner1" result="shadowOffsetInner1"/><feComposite in="shadowOffsetInner1" in2="SourceAlpha" k2="-1" k3="1" operator="arithmetic" result="shadowInnerInner1"/><feColorMatrix in="shadowInnerInner1" values="0 0 0 0 0 0 0 0 0 0 0 0 0 0 0 0 0 0 0.5 0"/></filter><path id="b" d="M1 769.057c20.927-21.19 49.927-36.19 87-45 37.073-8.81 75.406-9.81 115-3 34.667-100.666 104.667-157.666 210-171 105.333-13.333 190 23 254 109 24-1.333 47.667 3.667 71 15 23.333 11.334 40 26.667 50 46 39.58-11.495 82.246-11.162 128 1 45.754 12.163 82.087 32.83 109 62v223H1v-237"/></defs><g fill="none" fill-rule="evenodd"><path fill="#0051CD" fill-rule="nonzero" d="M666 865.535c-63.333-98.863-137.333-146.59-222-143.181-128 7.67-200 84.374-242 222.442-7.95-2.672-58.767-14.336-117 5.113-30.667 9.375-59 28.125-85 56.25V.056c188.338.122 529.672.122 1024 0v1024c-34.398-33.71-59.398-55.017-75-63.92-43.792-24.99-80.95-25.609-99-25.568-13.333-.852-34.333 2.131-63 8.95-15-29.404-45-61.364-74-70.313-14.34-7.625-42.352-8.401-47-7.67"/><path fill="#056FEE" d="M856 735.056c58.29 0 114.72-8.26 168.26-23.712-.173-124.192-.26-361.288-.26-711.288C768 .056 505.152.037 235.455 0A678.721 678.721 0 0 0 230 86.056c0 358.433 280.27 649 626 649"/><path fill="#02C0FA" d="M856 518.056c60.09 0 117.063-14.527 168.113-40.53-.075-148.98-.113-308.136-.113-477.47H467c-5.151 27.772-8 56.577-8 86 0 238.588 177.743 432 397 432"/><path fill="#0DF" d="M902 324.056c45.006 0 86.911-14.102 122.016-38.374-.01-57.084-.016-152.292-.016-285.626-114 0-224.313.01-330.94.027C683.336 26.749 678 55.741 678 86.056c0 131.444 100.288 238 224 238"/><use xlink:href="#b" fill="#000" filter="url(#a)"/><path fill="#FFF" d="M0 787.056c20.927-21.19 49.927-36.19 87-45 37.073-8.809 75.406-9.809 115-3 34.667-100.666 104.667-157.666 210-171 105.333-13.333 190 23 254 109 24-1.333 47.667 3.667 71 15 23.333 11.334 40 26.667 50 46 39.58-11.495 82.246-11.162 128 1 45.754 12.163 82.087 32.83 109 62v223H0v-237"/></g></svg>