<svg xmlns="http://www.w3.org/2000/svg" width="1025" height="1024"><g fill="none" fill-rule="evenodd"><path fill="#FFF" d="M.633 0h1024v1024H.633z"/><g fill-rule="nonzero"><path fill="#F4801F" d="m658.821 687.894 4.086-14.164c4.848-16.837 3.054-32.376-5.116-43.83-7.636-10.537-20.082-16.722-35.316-17.448l-288.365-3.665a5.612 5.612 0 0 1-5.154-7.635 7.636 7.636 0 0 1 6.681-5.116l291.152-3.818c34.361-1.566 71.93-29.589 85.025-63.797l16.57-43.371c.47-1.218.703-2.514.687-3.818a12.729 12.729 0 0 0-.23-2.062c-18.576-82.899-90.02-143.327-174.852-147.894-84.832-4.566-162.35 47.844-189.718 128.27-28.97-21.534-68.357-22.508-98.357-2.434-30 20.075-44.123 56.855-35.269 91.849a121.142 121.142 0 0 0-116.674 139.047 5.613 5.613 0 0 0 5.536 4.85h532.557a6.987 6.987 0 0 0 6.757-4.964"/><path fill="#F9AB41" d="M754.918 488.333c-2.546 0-5.218.076-8.018.229a3.36 3.36 0 0 0-1.222.267 4.467 4.467 0 0 0-2.901 3.055l-11.454 39.171c-4.887 16.837-3.092 32.376 5.116 43.83a44.478 44.478 0 0 0 35.277 17.447l61.507 3.818a5.498 5.498 0 0 1 4.352 2.367 5.727 5.727 0 0 1 .649 5.23 7.636 7.636 0 0 1-6.681 5.117l-63.874 3.818c-34.704 1.603-72.081 29.588-85.177 63.758l-4.62 12.065a3.436 3.436 0 0 0 3.017 4.66h220.025a5.921 5.921 0 0 0 5.88-4.47 157.831 157.831 0 0 0-151.8-200.362h-.076"/></g></g></svg>