<svg xmlns="http://www.w3.org/2000/svg" width="1025" height="1024"><defs><linearGradient id="a" x1="50%" x2="50%" y1="0%" y2="88.583%"><stop offset="0%" stop-color="#060729"/><stop offset="66.731%" stop-color="#193172"/><stop offset="100%" stop-color="#2B58B5"/></linearGradient></defs><g fill="none" fill-rule="evenodd"><path fill="url(#a)" d="M0 0h1024v1024H0z" transform="translate(.633)"/><path fill="#FFF" fill-rule="nonzero" d="M677.78 575.96c-11.073 2.54-40.216 4-40.216 4l-3.69 11.534a166.43 166.43 0 0 1 25.143-.153s3.46-.387 3.846 3.92a66.486 66.486 0 0 1-.309 8.305s-.23 2.613-3.922 3.228c-3.997.693-31.37 1.692-31.37 1.692l-4.461 14.993s-1.614 3.462 2.077 2.462c3.459-.922 32.14-6.306 35.908-5.536 3.999 1 8.457 6.304 7.15 11.226-1.538 5.997-30.14 24.297-47.595 22.991 0 0-9.151.613-16.916-11.765-7.228-11.764 2.769-34.14 2.769-34.14s-4.538-10.458-1.231-13.917c0 0 1.998-1.769 7.69-2.23l6.997-14.532s-7.999.536-12.765-5.307c-4.46-5.613-4.767-8.15-1.384-9.686 3.614-1.77 36.909-7.843 59.822-7.076 0 0 7.996-.767 14.84 13.071-.077 0 3.306 5.613-2.384 6.92m-86.195 55.824c-2.923 6.92-10.688 14.3-20.3 9.687-9.534-4.612-24.682-35.6-24.682-35.6s-5.766-11.532-6.844-11.302c0 0-1.229-2.23-1.998 10.38-.77 12.61.153 37.138-4.844 40.982a8.93 8.93 0 0 1-13.534-2.228c-2.69-4.46-3.844-15.072-2.384-33.68 1.77-18.607 6.075-38.444 11.61-44.673 5.537-6.151 9.998-1.69 11.688-.077 0 0 7.382 6.69 19.609 26.374l2.152 3.615s11.072 18.607 12.225 18.53c0 0 .923.845 1.692.23 1.155-.306.693-6.306.693-6.306s-2.307-20.221-12.38-54.515a15.859 15.859 0 0 1-.461-8.303c.999-4.077 5.073-2.153 5.073-2.153s15.688 7.843 23.221 33.371c7.46 25.758 2.385 48.747-.536 55.67v-.002m-77.046-65.586c-1.307 2.613-2.075 6.38-8.689 7.38 0 0-63.28 4.307-66.28 8.765 0 0-2.23 2.615 1.232 3.383 3.459.693 17.761 2.615 24.682 3 7.381.077 32.295.306 41.212 11.456 0 0 5.307 5.306 5.075 17.3-.23 12.303-2.383 16.609-7.15 21.07-4.997 4.151-47.903 23.374-75.583-6.154 0 0-12.765-14.223 4.382-24.988 0 0 12.38-7.458 43.827 1.308 0 0 9.534 3.459 9.075 6.92-.54 3.69-7.844 7.612-18.455 7.38a35.09 35.09 0 0 1-16.377-4.46c1.384.54-11.073-5.996-14.917-1.538-3.846 4.078-2.923 6.614.846 9.151 9.61 5.46 46.749 3.538 57.822-8.766 0 0 4.383-4.996-2.307-9.074-6.69-3.842-25.837-6.149-33.295-6.534-7.15-.385-33.754.077-37.598-6.997 0 0-3.846-4.767.383-18.301 4.46-14.147 35.446-19.607 48.826-20.836 0 0 36.832-1.308 43.598 6.227a5.78 5.78 0 0 1-.307 4.308h-.002M409.97 649.16c-4.46 3.308-13.918 1.845-16.61-1.846-2.69-3.306-3.613-16.454-3.076-37.062.54-20.836 1-46.672 5.46-50.746 4.767-4.154 7.69-.538 9.534 2.307a21.462 21.462 0 0 1 4.922 12.378c.461 6.536 1.998 40.83 1.998 40.83s2 30.91-2.228 34.139m9.61-110.569c-12.995 4.308-21.914 2.845-29.449-.382-3.306 5.766-5.228 7.533-7.766 7.917-3.691.385-6.997-5.536-7.612-7.458-.614-1.46-2.383-3.92-.23-9.763a22.379 22.379 0 0 1-6.69-21.531c1.845-6.92 14.3-33.216 52.208-36.293 0 0 18.531-1.384 21.684 8.535h.538s17.994.076 17.609 16.07c-.23 16.07-19.992 36.062-40.292 42.905m-35.37-35.6c-3.844 6.152-3.997 9.84-2.228 12.38a91.066 91.066 0 0 1 24.142-25.22 27.423 27.423 0 0 0-21.914 12.84m52.364-10.304c-11.919 1.769-30.372 17.763-39.137 30.835 13.456 2.46 37.215 1.537 47.748-19.916-.077 0 4.996-13.303-8.611-10.92m323.555 123.87c-7.15 12.458-27.219 38.447-53.976 32.373a277.507 277.507 0 0 0-20.453 75.506s-.923 6.306-6.153 4.076c-5.15-1.845-13.764-10.458-15.454-22.375-1.846-15.686 5.151-42.212 19.377-72.585-4.154-6.768-6.997-16.454-4.537-30.219 0 0 3.614-25.528 29.219-48.594 0 0 3.074-2.691 4.843-1.845 2 .846 1.078 9.15-.536 13.148-1.614 3.997-13.073 23.835-13.073 23.835s-7.15 13.38-5.152 23.913c13.456-20.683 44.06-62.435 63.05-49.286 6.383 4.537 9.304 14.454 9.304 25.144a58.44 58.44 0 0 1-6.457 26.91h-.002m-5.535-32.754s-1.077-8.228-9.074.846a195.985 195.985 0 0 0-29.448 41.444c10.532-1.154 20.682-6.92 23.757-9.841 5-4.46 16.609-16.456 14.763-32.449h.002m-373.305 10.458c-1.46 18.608-8.611 49.902-59.282 65.357-33.448 10.073-65.05 5.228-82.274.846-.383 6.842-1.153 9.763-2.23 10.918-1.461 1.46-12.379 7.766-18.378-1.153-2.69-4.23-4.074-11.919-4.844-18.76-38.752-17.84-56.59-43.522-57.283-44.676-5.897-5.777-6.268-15.15-.845-21.374 8.303-10.227 35.447-20.453 59.897-24.606.846-20.914 3.306-36.677 6.23-43.906 3.535-8.38 7.996-.844 11.84 4.844 3.23 4.23 5.151 22.455 5.305 36.985 15.994-.767 25.451.385 43.29 3.615 23.22 4.23 38.754 16.07 37.368 29.525-1 13.226-13.148 18.684-17.762 19.069-4.843.385-12.378-3.074-12.378-3.074-5.152-2.46-.385-4.614 5.843-7.306 6.767-3.306 5.23-6.688 5.23-6.688-2.539-7.382-32.679-12.534-62.667-12.534-.153 16.53.693 43.98 1.076 59.975a171.996 171.996 0 0 0 36.679 3.23s76.582-2.154 78.89-51.056c2.382-48.98-76.354-95.96-134.562-110.877-58.128-15.225-91.038-4.613-93.882-3.153-3.077 1.538-.23 1.999-.23 1.999a54.954 54.954 0 0 1 8.61 2.307c5.767 1.845 1.308 4.843 1.308 4.843-9.918 3.153-21.067 1.155-23.221-3.383-2.154-4.537 1.46-8.61 5.613-14.453 4.152-6.153 8.69-5.921 8.69-5.921C199.21 439.94 286.788 485 286.788 485c82.042 41.599 96.036 90.346 94.499 109.262m-216.986-2.538c-8.15 3.999-2.537 9.765-2.537 9.765 15.302 16.454 34.14 26.76 52.054 33.14 2.077-28.371 1.769-38.368 2-52.67-27.988 1.922-44.135 6.382-51.515 9.765h-.002m748.07-5.843v10.148a3.97 3.97 0 0 1-3.997 4H860.01c0 2.536.077 4.766.077 6.843a369.1 369.1 0 0 1-2.076 40.983 3.99 3.99 0 0 1-3.922 3.612h-10.456a3.722 3.722 0 0 1-2.769-1.229 3.649 3.649 0 0 1-.922-2.92 361.814 361.814 0 0 0 2.153-40.446c0-2.153 0-4.384-.076-6.844h-47.827a3.97 3.97 0 0 1-4-3.999v-10.148a3.97 3.97 0 0 1 4-3.999h47.134a354.36 354.36 0 0 0-6.228-48.594 3.534 3.534 0 0 1 .691-2.768 3.245 3.245 0 0 1 2.539-1.231h11.302a3.695 3.695 0 0 1 3.615 3 390.043 390.043 0 0 1 6.15 49.593h48.98a4.072 4.072 0 0 1 3.999 4h-.002"/><path fill="#00E7FF" fill-rule="nonzero" d="M846.554 505.376C799.469 389.572 692.227 309.281 567.85 296.712 443.473 284.143 322.336 341.356 253.035 445.4a3.94 3.94 0 0 0-.462 3.461 3.748 3.748 0 0 0 2.46 2.462l8.766 2.998a5.76 5.76 0 0 0 1.538.23 5.065 5.065 0 0 0 4.075-2.152c59.474-87.64 158.513-140.111 264.428-140.093 128.482.021 244.487 76.903 294.568 195.223a4.614 4.614 0 0 0 4.23 2.845h10.457a3.52 3.52 0 0 0 2.997-1.614c.757-.96.933-2.255.462-3.383m565.148 57.055c.213.156.445.285.69.382-.229-.153-.459-.23-.69-.382"/></g></svg>