<svg xmlns="http://www.w3.org/2000/svg" width="1024" height="1024"><defs><linearGradient id="a" x1="73.009%" x2="27.69%" y1="-15.057%" y2="113.087%"><stop offset="0%" stop-color="#00153D"/><stop offset="100%" stop-color="#090C0B"/></linearGradient><linearGradient id="b" x1="22.647%" x2="78.065%" y1="1.019%" y2="124.533%"><stop offset="0%" stop-color="#2099F9"/><stop offset="100%" stop-color="#763FDD"/></linearGradient><linearGradient id="c" x1="35.628%" x2="111.381%" y1="37.959%" y2="103.204%"><stop offset="0%" stop-color="#2099F9"/><stop offset="100%" stop-color="#763FDD"/></linearGradient><linearGradient id="d" x1="27.342%" x2="64.29%" y1="-21.711%" y2="79.978%"><stop offset="0%" stop-color="#2099F9"/><stop offset="100%" stop-color="#763FDD"/></linearGradient><linearGradient id="e" x1="-17.325%" x2="73.991%" y1="-102.474%" y2="93.437%"><stop offset="0%" stop-color="#2099F9"/><stop offset="100%" stop-color="#763FDD"/></linearGradient><linearGradient id="f" x1="23.751%" x2="55.067%" y1="-104.892%" y2="79.259%"><stop offset="0%" stop-color="#2099F9"/><stop offset="100%" stop-color="#763FDD"/></linearGradient><linearGradient id="g" x1="44.652%" x2="56.534%" y1="-7.468%" y2="111.178%"><stop offset="0%" stop-color="#3900F0"/><stop offset="7.91%" stop-color="#3D0BF1" stop-opacity=".888"/><stop offset="21.97%" stop-color="#492AF3" stop-opacity=".688"/><stop offset="40.55%" stop-color="#5B5BF7" stop-opacity=".424"/><stop offset="62.68%" stop-color="#759EFD" stop-opacity=".109"/><stop offset="70.35%" stop-color="#7EB7FF" stop-opacity="0"/></linearGradient><linearGradient id="h" x1="42.221%" x2="68.204%" y1="13.355%" y2="135.661%"><stop offset="9.75%" stop-color="#5436C5"/><stop offset="65.03%" stop-color="#6E47E0" stop-opacity="0"/></linearGradient><linearGradient id="i" x1="46.045%" x2="57.092%" y1="-292.052%" y2="667.02%"><stop offset="0%" stop-color="#2099F9"/><stop offset="100%" stop-color="#763FDD"/></linearGradient><linearGradient id="j" x1="49.524%" x2="50.642%" y1="29.568%" y2="73.485%"><stop offset="0%" stop-color="#2099F9"/><stop offset="100%" stop-color="#763FDD"/></linearGradient><linearGradient id="k" x1="47.485%" x2="58.532%" y1="-166.624%" y2="790.483%"><stop offset="0%" stop-color="#2099F9"/><stop offset="100%" stop-color="#763FDD"/></linearGradient><linearGradient id="l" x1="46.01%" x2="57.057%" y1="-294.867%" y2="668.137%"><stop offset="0%" stop-color="#2099F9"/><stop offset="100%" stop-color="#763FDD"/></linearGradient><linearGradient id="m" x1="46.076%" x2="57.121%" y1="-292.041%" y2="670.963%"><stop offset="0%" stop-color="#2099F9"/><stop offset="100%" stop-color="#763FDD"/></linearGradient><linearGradient id="n" x1="47.584%" x2="58.652%" y1="-165.546%" y2="799.437%"><stop offset="0%" stop-color="#2099F9"/><stop offset="100%" stop-color="#763FDD"/></linearGradient><linearGradient id="o" x1="46.033%" x2="57.08%" y1="-287.801%" y2="671.269%"><stop offset="0%" stop-color="#2099F9"/><stop offset="100%" stop-color="#763FDD"/></linearGradient><linearGradient id="p" x1="48.955%" x2="60.002%" y1="-39.432%" y2="919.637%"><stop offset="0%" stop-color="#2099F9"/><stop offset="100%" stop-color="#763FDD"/></linearGradient><linearGradient id="q" x1="47.505%" x2="58.595%" y1="-166.99%" y2="797.992%"><stop offset="0%" stop-color="#2099F9"/><stop offset="100%" stop-color="#763FDD"/></linearGradient><linearGradient id="r" x1="46.078%" x2="57.125%" y1="-290.6%" y2="672.406%"><stop offset="0%" stop-color="#2099F9"/><stop offset="100%" stop-color="#763FDD"/></linearGradient></defs><g fill="none"><path fill="url(#a)" d="M0 0h1024v1024H0z"/><path fill="url(#b)" d="M.153 359.765c0-39.279-.481-78.513.263-117.792.262-12.903 2.274-26.157 5.948-38.491 4.855-16.228 15.66-20.952 31.843-15.79 8.092 2.58 16.096 5.948 23.445 10.19 42.69 24.67 85.38 49.296 127.633 74.753 76.94 46.408 114.03 116.917 119.848 204.704 2.231 34.073-4.767 67.053-22.526 97.146-22.001 37.31-53.669 59.574-97.365 62.155-22.483 1.356-44.222-4.112-64.123-14.434-25.895-13.428-51.482-27.513-76.327-42.778-27.031-16.621-39.847-43.259-45.62-73.44-2.057-10.76-2.275-22.001-2.363-33.023C.547 435.217.722 397.469.722 359.72c-.175.044-.394.044-.569.044Zm79.476-58.13c-.394 8.441-.962 14.346-.875 20.207.394 41.291 1.006 82.538 1.444 123.829.174 17.627.087 35.254.087 52.838 0 5.117 0 10.104 5.424 13.078 18.108 9.842 35.43 21.564 54.369 29.306 36.435 14.872 70.902-3.28 84.112-40.46 14.872-41.903-1.575-119.104-56.206-150.334-25.326-14.478-50.695-28.956-76.108-43.303-2.974-1.706-6.342-2.712-12.247-5.162" transform="translate(186.923 151.6)"/><path fill="url(#c)" d="M44.637 153.05c3.718-10.498 11.678-13.604 18.327-17.584 43.521-26.244 87.174-52.27 130.914-78.164 22.526-13.297 45.359-26.113 68.016-39.191 41.466-23.882 83.281-24.1 124.922-.919 25.063 13.954 49.82 28.432 74.358 43.26 11.591 6.998 23.051 14.565 33.417 23.27 39.498 33.198 41.772 83.193 4.33 118.535-75.888 71.602-190.969 91.68-285.054 38.841-38.185-21.433-75.933-43.565-113.768-65.566-17.058-9.842-34.204-19.158-55.462-22.483m120.766-4.943c5.73 3.718 82.932 43.04 100.559 53.581 43.39 24.713 136.6 13.122 175.223-19.639 21.345-17.234 34.904-51.22 6.342-69.853-22.307-14.04-91.81-49.689-114.468-63.204-5.074-3.019-9.623-3.237-14.784-.263-36.567 20.995-115.693 65.916-152.216 86.912-3.061 1.837-6.998 8.092-.656 12.466" transform="translate(186.923 151.6)"/><path fill="url(#d)" d="M561.645 117.139c18.065 11.678 37.617 21.564 53.844 35.43 35.298 30.18 39.41 78.644 6.08 111.93-9.885 9.842-21.126 18.59-32.761 26.332-14.216 9.448-29.262 17.802-44.44 25.588-9.317 4.811-12.466 11.11-12.422 21.476.218 75.014-.35 150.029-.132 225 .044 19.245-4.986 36.697-14.259 53.23-7.873 13.998-19.07 24.54-32.98 32.325-9.142 5.117-18.24 10.235-29.7 16.665-2.055-50.782-.48-99.334-.874-147.842-.438-48.682-.088-97.365-.088-148.672-40.416 20.339-76.676 41.946-109.394 70.159-13.56-39.191 3.412-102.002 44.659-123.741 36.916-19.464 72.652-41.16 108.082-63.292 13.865-8.66 27.118-19.64 37.616-32.149 24.057-28.694 36.348-61.367 24.145-99.596.787-.875 1.706-1.837 2.624-2.843" transform="translate(186.923 151.6)"/><path fill="url(#e)" d="M211.637 673.6c9.972-2.799 16.358-4.199 22.482-6.386 45.315-16.227 76.195-47.939 94.216-91.679 7.786-18.896 12.379-39.279 16.621-59.355 7.48-35.561 27.557-60.712 59.268-77.333 1.356-.7 2.669-1.487 4.068-1.968.875-.306 1.925-.219 5.118-.525.35 5.599.962 11.241.962 16.884-.262 58.83-.656 117.617-.962 176.447-.088 16.097-.044 32.193.131 48.246.044 5.773-.612 10.585-6.211 14.172-28.825 18.764-59.05 32.673-94.697 27.643-7.917-1.093-15.966-2.45-23.445-5.117-26.638-9.58-49.82-25.545-77.551-41.029" transform="translate(186.923 151.6)"/><path fill="url(#f)" d="M649.475 291.574c.263 4.55.7 8.53.7 12.51-.175 64.385-.744 128.727-.481 193.113.131 32.76-23.838 79.607-75.364 96.971-.525-4.505-1.356-8.748-1.4-12.947-.481-74.402-.656-148.847-1.443-223.25-.088-9.885 2.974-15.352 11.81-20.032 22.7-11.985 44.658-25.326 61.76-45.096.744-.875 2.537-.788 4.418-1.269" transform="translate(186.923 151.6)"/><path fill="url(#g)" d="M.022 332.209s18.633-63.423 79.607-30.575l.612 196.875-79.432-25.5-.787-140.8Z" transform="translate(186.923 151.6)"/><path fill="url(#h)" d="m453.826 368.688 90.498-52.27s-13.822 5.206-12.422 21.477l-.175 159.564-77.945 25.37v-154.14h.044" transform="translate(186.923 151.6)"/><path fill="url(#i)" d="M91.599 54.15v21.345h21.389V54.15v.044-.044z" transform="translate(418.236 223.25)"/><path fill="url(#j)" d="M178.641 84.812c12.554.569 25.239-2.712 31.187-14.784l1.575-2.712-2.625-1.662c-7.13-4.374-16.927-4.943-25.106-2.712h-.175l.043-.087c-1.18-8.748-6.604-15.878-13.734-21.302l-2.756-2.187-2.23 2.712c-4.374 4.943-6.08 13.69-5.555 20.208.524 4.943 2.1 9.885 4.898 13.69-2.23 1.138-4.986 2.188-7.13 3.325-5.03 1.662-9.884 2.187-14.783 2.187H.838l-.525 3.237c-.612 5.86-.306 11.722.744 17.496 16.315 8.573 31.492 16.665 38.097 20.601 18.371 10.454 49.208 14.435 82.407 10.585 7.917-.918 15.615-2.274 23.05-3.936 14.391-10.76 26.07-25.544 34.03-44.659m-136.119 37.66h-.044c-6.036 0-11.503-4.942-11.503-10.935 0-5.992 4.942-10.935 11.503-10.935 6.605 0 11.548 4.943 11.548 10.935 0 6.036-5.511 10.935-11.504 10.935Z" transform="translate(418.236 223.25)"/><path fill="url(#k)" d="M112.988 27.381h-21.39v21.302h21.39z" transform="translate(418.236 223.25)"/><path fill="url(#l)" d="M117.886 54.15v21.345h21.302V54.15l-.044.044v-.044z" transform="translate(418.236 223.25)"/><path fill="url(#m)" d="M65.398 54.15v21.345H86.7V54.15l-.131.044v-.044z" transform="translate(418.236 223.25)"/><path fill="url(#n)" d="M59.887 27.381H38.629v21.302h21.258z" transform="translate(418.236 223.25)"/><path fill="url(#o)" d="M12.342 54.15v21.345H33.73V54.15l-.262.044-.044-.044z" transform="translate(418.236 223.25)"/><path fill="url(#p)" d="M112.988 0h-21.39v21.345h21.39z" transform="translate(418.236 223.25)"/><path fill="url(#q)" d="M86.7 27.381H65.399v21.302h21.3z" transform="translate(418.236 223.25)"/><path fill="url(#r)" d="M38.63 75.495h21.3V54.15l-.087.044v-.044H38.63z" transform="translate(418.236 223.25)"/></g></svg>