<svg xmlns="http://www.w3.org/2000/svg" width="1024" height="1024"><defs><linearGradient id="a" x1="0%" x2="99.145%" y1="50%" y2="50%"><stop offset="0%" stop-color="#00153C"/><stop offset="100%" stop-color="#0A0B0D"/></linearGradient><linearGradient id="b" x1="0%" x2="100%" y1="50%" y2="50%"><stop offset="0%" stop-color="#2990F7"/><stop offset="100%" stop-color="#6B4AE1"/></linearGradient><linearGradient id="c" x1="0%" x2="100%" y1="50%" y2="50%"><stop offset="0%" stop-color="#2990F7"/><stop offset="100%" stop-color="#6B4AE1"/></linearGradient><linearGradient id="d" x1="0%" x2="99.145%" y1="50%" y2="50%"><stop offset="0%" stop-color="#00153C"/><stop offset="100%" stop-color="#0A0B0D"/></linearGradient></defs><g fill="none" fill-rule="evenodd"><path fill="url(#a)" fill-rule="nonzero" d="M0 0h1024v1024H0z"/><path fill="url(#b)" d="m22.53 297.14 1.064-1.636c4.529-6.961 13.63-9.3 20.954-5.386L294.76 423.857a16 16 0 0 0 15.111-.014l249.15-133.775c7.26-3.897 16.291-1.645 20.87 5.204l1.249 1.867c4.704 7.036 2.813 16.552-4.222 21.256-.383.256-.777.495-1.181.715L309.97 464.026a16 16 0 0 1-15.305.008L28.072 319.028c-7.459-4.057-10.217-13.392-6.16-20.851.193-.354.4-.7.619-1.038" transform="translate(211.428 203.578)"/><path fill="url(#b)" d="m22.53 446.14 1.064-1.636c4.529-6.961 13.63-9.3 20.954-5.386L294.76 572.857a16 16 0 0 0 15.111-.014l249.15-133.775c7.26-3.897 16.291-1.645 20.87 5.204l1.249 1.867c4.704 7.036 2.813 16.552-4.222 21.256-.383.256-.777.495-1.181.715L309.97 613.026a16 16 0 0 1-15.305.008L28.072 468.028c-7.459-4.057-10.217-13.392-6.16-20.851.193-.354.4-.7.619-1.038" transform="translate(211.428 203.578)"/><path fill="url(#c)" d="m309.306 4.316 264.038 141.941c8.27 4.446 11.37 14.754 6.924 23.023a17 17 0 0 1-6.835 6.876L309.51 320.07a17 17 0 0 1-16.24.02L27.758 176.17c-8.254-4.474-11.318-14.792-6.844-23.046a17 17 0 0 1 6.928-6.89L293.24 4.3a17 17 0 0 1 16.066.017" transform="translate(211.428 203.578)"/><path fill="url(#d)" d="M70.953 162.232 301.94 36.727l232.17 125.505-232.038 125.505z" transform="translate(211.428 203.578)"/></g></svg>