<svg xmlns="http://www.w3.org/2000/svg" width="1024" height="1024"><g fill="none" fill-rule="evenodd"><path fill="#FFF" d="M0 0h1024v1024H0z"/><g fill-rule="nonzero"><path fill="#CAE3FD" d="M488.293 899.929c-1.685-.172-7.795-.752-13.577-1.292-34.795-3.229-73.917-13.188-107.325-27.318-28.794-12.185-62.096-31.454-74.47-43.093-2.649-2.493-9.547-8.314-15.332-12.938-76.457-61.13-126.513-156.704-134.543-256.88L142 545.333l.476-24.603.477-24.599 1.394-10.656c15.589-119.276 82.93-220.763 184.495-278.029l10.076-5.682 10.076-10.099c33.887-33.957 73.795-56.941 114.332-65.845l5.255-1.16h65.709l9.834 2.84 9.838 2.834 8.656 4.46c9.404 4.844 19.01 11.672 26.136 18.576l4.526 4.381 2.046-.464c1.127-.251 5.163-1.291 8.974-2.304l6.93-1.845h13.775l5.206 2.12 5.211 2.116 8.587 7.298c10.918 9.28 11.659 9.794 25.262 17.384 16.092 8.983 23.742 14.738 35.337 26.58 5.586 5.708 12.722 12.191 15.855 14.404 80.289 56.8 133.015 134.818 152.882 226.226 29.152 134.123-16.401 270.405-120.604 360.807-5.135 4.456-9.536 8.625-9.785 9.265-.244.639-4.125 3.924-8.622 7.298-53.503 40.145-116.2 64.672-183.398 71.748l-14.017 1.477-22.782.19c-12.527.106-24.156.053-25.84-.123h-.004m64.04-381.238c1.199-9.66-.752-18.113-3.249-14.073-.887 1.434-1.02 10.361-.188 12.759.629 1.82 3.248 2.82 3.437 1.314m79.795-27.95c2.865-2.597 1.467-6.438-2.342-6.438-3.688 0-5.211 3.865-2.565 6.51 1.755 1.756 2.903 1.736 4.907-.073M426.356 474.37c.244-.646.135-1.683-.249-2.305l-.696-1.126-.973.603c-.537.33-.977 1.368-.977 2.302v1.701h1.222c.672 0 1.424-.53 1.673-1.175m109.219-134.564c.496-.934.907-2.51.907-3.507v-1.807h-3.507v7.006h.848c.463 0 1.251-.762 1.75-1.692h.002m25.436-3.563v-1.755h-14.016v3.51h14.013l.003-1.755m-9.79-9.57 1.257-.701-.953-.587c-1.16-.719-.351-3.162 1.046-3.162.557 0 1.517-.811 2.14-1.804l1.125-1.808 2.37.275 2.369.271.275 2.41.278 2.41h3.39v-1.655c0-.907.59-2.781 1.311-4.159 1.666-3.195 1.666-4.702.004-4.702h-1.315v-2.079c0-1.146.593-2.576 1.315-3.176 2.327-1.93-.9-5.264-3.504-3.619-.483.305-2.059.649-3.506.762-1.444.119-4.695.454-7.225.745l-4.603.53v3.335h3.798c4.38 0 4.94.347 4.328 2.681-.527 2.013-2.467 2.251-3.185.384-.276-.722-.9-1.315-1.384-1.315h-.881l.506 2.55.51 2.55-1.788.954c-.984.53-3.072.96-4.649.96h-2.861l1.053 1.05c1.391 1.39 1.341 4.145-.08 4.691-.618.239-1.191 1.26-1.267 2.272l-.137 1.835 4.504-.596c2.484-.331 5.073-.914 5.762-1.301h-.004m-14.74-2.695v-3.507h-7.01v7.01h7.01v-3.503m7.007-8.762v-1.755h-3.503v3.51h3.503v-1.755m29.79-14.02v-1.75h-5.257v3.505h5.256v-1.754"/><path fill="#EEC5B9" d="m483.475 124-11.825 1.52-11.827 1.516-11.12 3.411c-14.49 4.44-28.626 10.48-42.517 18.159-24.172 13.37-53.427 37.533-67.53 55.782-2.235 2.89-6.51 8.142-9.503 11.669-13.319 15.695-35.63 53.636-42.852 72.875-.632 1.688-2.397 6.025-3.92 9.635-13.603 32.278-28.367 85.17-31.55 113.02-4.457 39.048-5.848 90.71-3.043 113.018.215 1.689.619 7.205.901 12.265.28 5.06 1.066 16.689 1.742 25.848.674 9.156 1.648 26.894 2.165 39.424 1.447 35.166 2.633 52.874 3.691 55.2l.971 2.128 6.225 2.55c3.42 1.404 11.15 3.619 17.173 4.926 6.016 1.308 12.026 2.64 18.03 3.998 3.89.894 12.957 2.649 20.148 3.907a1853.56 1853.56 0 0 1 26.216 4.824c7.229 1.395 15.706 2.656 18.838 2.802l5.695.265.438-6.132.436-6.133 14.895.258c8.191.142 18.245.633 22.34 1.093 4.097.464 13.362 1.053 20.59 1.31 7.229.262 15.606.69 18.616.948l5.477.473-.017 6.282c-.078 28.656-9.635 56.556-24.43 71.335l-5.483 5.477-2.338.477c-6.404 1.304-9.149 2.46-13.014 5.47-8.668 6.751-16.609 11.116-56.132 30.874-39.163 19.574-55.365 28.729-56.616 31.987l-.596 1.55 1.996 2.135c1.096 1.173 5.742 4.616 10.318 7.65 56.202 37.238 118.08 57.815 185.737 61.775 14.68.86 40.172.35 47.573-.944 2.794-.49 8.708-1.016 13.142-1.165 14.974-.504 50.848-7.732 70.49-14.206 44.22-14.569 87.104-36.953 115.2-60.133l4.162-3.43v-1.63c0-.893-3.189-6.376-7.086-12.185l-7.093-10.556-6.268-5.765c-10.5-9.646-17.467-12.173-42.087-15.265-22.354-2.814-32.78-4.338-41.721-6.11a1462.548 1462.548 0 0 0-16.65-3.171l-8.32-1.53-7.011-3.272c-3.854-1.798-9.338-3.877-12.186-4.62l-5.172-1.347-3.8-3.728-3.798-3.732-3.578-6.864-3.569-6.867-2.125-8.508c-3.193-12.782-5.057-37.212-2.994-39.272l.89-.886 5.465.674c3.003.371 15.907 1.484 28.675 2.468 12.771.983 28.57 2.218 35.11 2.738l11.894.95 23.59-.97c31.245-1.289 28.89-.364 27.535-10.795-.453-3.49-.84-15.695-.854-27.119l-.026-20.778 2.236-14.272c1.224-7.844 3.307-18.404 4.622-23.463l2.384-9.2 12.245-1.536 12.245-1.533 8.762-2.702c9.827-3.033 13.997-5.175 22.546-11.59l5.897-4.426 3.478-4.954c6.42-9.149 9.655-19.709 9.679-31.556l.013-7.481-1.342-5.15c-.738-2.834-2.609-7.545-4.158-10.472l-2.822-5.321-6.053-6.392-6.056-6.387-6.65-4.338c-10.118-6.6-10.592-6.973-10.592-8.39 0-.73 1.577-3.934 3.504-7.13 4.85-8.046 8.768-18.57 10.188-27.387l1.199-7.45.556-20.15.554-20.149-1.037-9.636c-.57-5.3-1.844-14.172-2.827-19.715-1.59-8.954-2.948-14.553-9.478-39.113-.914-3.444-2.298-11.92-3.072-18.837l-1.415-12.577-3.394-12.702c-4.556-17.043-7.635-24.749-15.159-37.958l-6.338-11.125-5.695-6.779c-16.599-19.768-32.232-32.086-56.07-44.182l-7.443-3.774-8.113-7.72-8.116-7.715-4.835-2.142-4.838-2.136h-17.601l-6.524 2.189c-7.923 2.659-8.41 2.676-10.513.331-.917-1.026-5.613-5.013-10.43-8.864l-8.762-7.003-10.073-5.05-10.076-5.05-10.513-2.818-10.514-2.821-23.655-.463-23.658-.464h.001m-4.02 341.029h.88c1.358 0 3.574 8.503 3.643 13.96.033 2.682.347 5.613.702 6.513l.642 1.633-1.897 3.934c-1.04 2.162-2.444 4.281-3.112 4.701-3.613 2.292-3.894 1.315-1.596-5.513l1.814-5.38.136-6.64c.076-3.65-.165-8.113-.537-9.92l-.675-3.285v-.003m-55.153 4.622c1.378-.348 2.928.252 3.596 2.07l.69 1.867-1.299 1.855c-2.156 3.08-5.58 1.754-5.58-2.16 0-1.983 1.213-3.281 2.593-3.632m253.67 11.742 1.126 1.368c2.41 2.913 3.295 10.212 1.842 15.136-.643 2.171-2.093 5.033-3.226 6.35l-2.052 2.397.632-3.066c.35-1.685.871-7.367 1.16-12.625l.519-9.56m-50.337 2.036h2.109c3.99 0 6.179 4.16 3.765 7.156-2.367 2.94-7.03 2.361-8.1-1.01l-.586-1.854 1.408-2.146 1.404-2.145m-77.644 20.236c2.03-.957 3.392 6.576 2.343 15.026-.19 1.507-2.806.506-3.438-1.314-.828-2.398-.699-11.325.189-12.762.31-.504.615-.814.906-.95m-8.31 372.26c.387 0-1.074 1.775-3.242 3.94-5.106 5.113-5.723 5.18-3.232.358 1.179-2.275 4.225-4.298 6.473-4.298"/><path fill="#DDAFA2" d="M486.981 899.005c-68.063-5.424-128.71-26.275-182.475-62.732-9.015-6.117-10.834-7.951-10.052-10.15 1.013-2.838 18.765-12.781 56.924-31.887 39.351-19.702 47.523-24.183 55.265-30.315 4.427-3.506 8.89-5.394 12.755-5.394h3l4.42-3.974c15.014-13.5 24.04-37.56 26.06-69.45l.607-9.56-1.1-.675c-.603-.375-8.857-.997-18.342-1.384-9.482-.388-21.36-1.127-26.396-1.647-5.033-.516-15.464-1.033-23.173-1.149l-14.017-.212-.436 6.134-.44 6.135-5.697-.258c-3.128-.14-11.605-1.44-18.834-2.895-7.576-1.517-15.17-2.95-22.778-4.298-5.298-.913-19.547-3.834-31.66-6.489l-22.02-4.835-4.774-2.106-4.768-2.109-1.454-5.172c-2.007-7.163-2.242-9.808-3.262-36.672-1.228-32.385-2.185-49.958-4.334-79.726l-1.834-25.408-.018-20.149c-.022-28.669 2.978-66.345 6.25-78.497.466-1.742 1.265-8.245 1.767-14.44.504-6.202 1.468-13.65 2.14-16.554.675-2.903 2.466-10.798 3.98-17.546 6.887-30.685 16.04-57.706 29.828-88.047 34.808-76.603 100.278-134.57 169.461-150.048l7.884-1.764 28.997-.397 28.997-.391 11.54 2.788 11.543 2.79 9.4 4.637c10.123 4.994 16.57 9.414 27.037 18.543l6.659 5.808 7.563-2.53 7.566-2.53 8.762.07 8.758.073 5.259 2.702 5.255 2.702 6.162 6.424 6.162 6.427 11.799 6.205c51.987 27.335 80.927 68.954 84.93 122.143l.825 10.954 3.486 10.95a326.071 326.071 0 0 1 10.733 43.809l2.02 11.824v24.093l.006 24.093-1.173 8.245c-1.466 10.354-6.78 24.726-11.96 32.348-1.191 1.748-2.162 4.04-2.162 5.085v1.908l7.443 5.003c6.839 4.597 17.961 15.156 17.961 17.047 0 .44-2.569-.404-5.711-1.874l-5.712-2.672-2.047.513-2.05.513-1.506 4.179c-.828 2.295-1.848 4.964-2.266 5.927-.413.964-.992 2.984-1.29 4.49-.292 1.504-1.497 3.643-2.68 4.752-1.178 1.11-2.142 2.802-2.142 3.765 0 .96-.517 2.371-1.146 3.133-1.754 2.125-7.228 15.51-9.344 22.847-1.04 3.613-2.48 7.655-3.199 8.98-.718 1.325-1.08 2.782-.804 3.23.278.45-.146 2.446-.94 4.436l-1.451 3.616.914 1.917c.503 1.054 1.16 2.66 1.457 3.573l.536 1.655 5.454-.53c15.298-1.49 28.715-7.943 35.662-17.158l2.967-3.94.345 1.033c.189.566-.762 3.059-2.11 5.536l-2.45 4.504-4.983 4.496c-12.1 10.921-25.921 16.418-47.855 19.03-4.944.59-9.328 1.503-9.745 2.03-1.36 1.722-6.12 22.587-7.95 34.878l-1.792 12.02.026 20.834c.014 11.46.398 23.692.851 27.185 1.355 10.431 3.709 9.504-27.536 10.792l-23.59.97-11.89-.95c-11.703-.925-23.406-1.837-35.11-2.738-12.771-.984-25.68-2.097-28.685-2.467-3.007-.375-5.921-.397-6.48-.053l-1.014.629.48 13.444.48 13.45 1.92 9.198 1.922 9.203 3.268 7.02 3.271 7.023 4.825 5.182 4.82 5.182 2.823.2c4.413.303 6.976 1.125 14.532 4.655l7.037 3.288 8.32 1.526c4.58.841 12.071 2.269 16.647 3.179 8.944 1.768 19.37 3.295 41.728 6.103 24.62 3.096 31.584 5.622 42.08 15.268l6.275 5.762 7.087 10.562c3.9 5.806 7.086 11.094 7.086 11.746 0 4.073-33.047 26.586-59.597 40.603-38.715 20.44-100.176 38.668-130.517 38.712-3.613.006-9.66.602-13.437 1.324l-6.867 1.315-20.73-.15c-11.403-.078-22.308-.27-24.238-.423l.006-.003m63.975-7.332 1.602-1.771-1.026-1.03-1.033-1.033-.779.834c-.43.457-1.046 1.722-1.374 2.802l-.596 1.973h.801c.44 0 1.524-.798 2.405-1.775m-8.593-13.556c4.387-2.086 4.735-3.066 1.082-3.066-5.563 0-10.47 4.63-10.47 9.884 0 3.682 1.136 3.388 3.444-.894l2.251-4.172 3.693-1.752m8.364-24.096c17.536-1.706 30.605-6.262 41.377-14.43l5.25-3.98 3.728-5.468 3.728-5.47 2.189-7.037c2.324-7.476 3.695-18.84 2.738-22.662l-.58-2.304-8.96-4.412a1019.5 1019.5 0 0 1-15.092-7.582 252.3 252.3 0 0 0-9.2-4.56 31.457 31.457 0 0 1-5.542-3.354c-1.362-1.083-3.203-1.97-4.09-1.97s-2.732-.554-4.096-1.232a77.815 77.815 0 0 0-4.669-2.112l-3.506-1.41c-.722-.299-2.891-1.488-4.818-2.65a97.847 97.847 0 0 0-6.132-3.394c-1.448-.705-3.987-2.308-5.647-3.562-1.658-1.26-3.51-2.286-4.116-2.286-.606 0-2.161-.986-3.463-2.188-1.298-1.206-3.166-2.192-4.149-2.192-.983 0-2.626-.786-3.65-1.75l-1.86-1.748-2.576-.119c-1.417-.066-3.318-.304-4.225-.536l-1.65-.42 1.213-.835 1.212-.838-3.507.42-12.917 1.547-9.414 1.126-.483 1.516-.48 1.514-2.59.57c-1.424.314-2.59.93-2.59 1.374 0 .443-.295.738-.656.655-1.205-.281-5.874 2.252-9.51 5.162-1.976 1.58-3.797 2.875-4.05 2.875-.25 0-1.973 1.39-3.83 3.09-1.855 1.7-4.848 3.532-6.65 4.072-1.8.54-4.145 1.91-5.21 3.043-1.067 1.132-2.372 2.06-2.899 2.06-.53 0-3.06 1.38-5.619 3.066-2.563 1.689-5.116 3.07-5.675 3.073-1.162.006-8.398 6.754-12.626 11.781l-2.848 3.38v2.097c0 8.477 23.222 34.371 38.557 42.99 2.656 1.49 9.735 4.55 15.735 6.796l10.906 4.079 10.11 2.036c5.564 1.12 11.097 2.212 12.302 2.427 4.2.748 32.04.58 40.53-.248m1.073-183.147 6.123-.887 13.496-6.583c7.427-3.623 15-7.87 16.838-9.44 1.834-1.573 4.404-3.428 5.709-4.124 1.304-.695 4.669-3.433 7.483-6.082 6.612-6.225 9.245-8.172 13.006-9.603 1.686-.642 4.52-2.29 6.299-3.669 1.778-1.374 3.676-2.5 4.212-2.5.54 0 2.632-1.854 4.652-4.115 2.02-2.265 4.577-4.987 5.676-6.047 1.102-1.06 2.155-2.712 2.34-3.668.494-2.554 2.484-5.445 3.753-5.445.606 0 1.102-.595 1.102-1.324 0-1.557 3.98-5.861 6.782-7.331 1.076-.567 2.218-2.053 2.53-3.305.314-1.251 1.598-4.026 2.857-6.172a383.532 383.532 0 0 0 3.344-5.791c.583-1.04 1.606-2.292 2.272-2.782 1.45-1.07 2.443-5.56 1.374-6.222-.417-.255-.762-1.222-.762-2.142v-1.673l-2.649-1.963-2.653-1.96.432-1.133.437-1.13h-1.755c-.96 0-1.974-.578-2.245-1.29-.272-.705-1.802-1.759-3.404-2.338l-2.91-1.053-.928-2.04c-.514-1.122-1.554-2.04-2.308-2.04h-1.378l-1.258-2.847c-1.655-3.765-3.003-5.292-5.735-6.497-1.245-.55-2.312-1.53-2.364-2.178-.056-.65-.676-3.428-1.371-6.173l-1.268-4.993 1.192-1.58c1.93-2.54 1.476-3.62-2.335-5.563-5.43-2.771-11.036-8.39-14.437-14.477l-3.056-5.463-1.272-5.994c-.695-3.301-1.275-8.685-1.284-11.967l-.017-5.963-.808.496c-1.192.736-3.709 8.808-4.338 13.901l-.55 4.417-2.605.695-2.61.696-.854-.854c-.47-.47-1.013-3.517-1.205-6.768-.196-3.249-.705-6.285-1.14-6.742-.43-.457-.78-1.51-.78-2.338 0-.828-.683-2.692-1.514-4.143l-1.513-2.635 1.072-2.974c.593-1.635 1.077-3.662 1.077-4.506 0-.845.592-2.126 1.315-2.848l1.314-1.315v-5.947l1.821-.973c1-.537 2.38-.762 3.066-.497l1.245.48v-3.43l3.285-3.017 3.285-3.02 2.815-.53 2.808-.529 1.798-2.527 1.797-2.526 6.344-1.842c3.488-1.013 7.451-2.201 8.815-2.645 1.359-.444 3.037-.59 3.73-.325.691.266 2.141-.083 3.22-.771l1.964-1.258 5.497.165c3.024.096 5.685-.132 5.914-.506.232-.375 1.208-.474 2.173-.223l1.75.46v-2.834h1.644c.907 0 2.136-.59 2.734-1.314l1.093-1.312h6.732l3.073-2.698c3.033-2.663 5.265-2.838 4.305-.341l-.497 1.285h.92c.507 0 1.17-.404 1.474-.898.305-.496 1.61-.791 2.9-.66l2.341.246.282-1.973.279-1.97h1.691c2.219 0 2.176-1.48-.06-2.192-.962-.305-1.754-.907-1.754-1.338 0-1.301-6.334-2.59-13.888-2.822-3.92-.122-7.132-.553-7.132-.96l-.003-.744-5.477.695c-3.014.387-7.352.629-9.649.54-2.295-.087-5.94.44-8.103 1.175l-3.934 1.334-7.378.186-7.377.182-2.477-1.83c-1.364-1.011-3.364-3.137-4.45-4.73l-1.97-2.897v-6.822l1.698-3.33c3.484-6.829 9.904-10.848 20.643-12.93l6.132-1.19h22.276l12.516 2.682c6.887 1.474 15.232 3.014 18.553 3.414l6.037.735 2.506-.874 2.507-.871v-9.954l-1.755-1.5-1.752-1.5v-5.953l-2.755-6.014c-1.516-3.304-3.835-7.195-5.146-8.642-1.314-1.444-4.536-5.463-7.162-8.927-7.64-10.08-23.967-26.99-34.874-36.126-13.706-11.473-14.749-12.252-33.729-24.987-9.156-6.146-18.113-12.58-19.9-14.295l-3.25-3.122-4.635-.374-4.632-.374-11.391 2.35c-24.583 5.074-48.014 15.557-65.51 29.312-2.782 2.189-6.749 5.161-8.808 6.61-7.113 4.983-19.133 17.817-22.391 23.906-.543 1.014-2.517 3.61-4.378 5.762-1.864 2.153-4.685 6.576-6.268 9.825l-2.878 5.904-.874 7.626c-1.235 10.755-.805 11.33 9.917 13.232 20.418 3.622 34.173 13.172 34.166 23.718l-.003 3.769-1.811 2.97-1.812 2.967-5.87-.49c-3.229-.272-8.398-1.368-11.488-2.438-3.089-1.066-9.526-2.824-14.304-3.9l-8.695-1.96-3.196.374c-4.344.506-6.761 1.83-7.9 4.328l-.954 2.1.54 3.926c.294 2.162 1.076 4.377 1.735 4.924.655.546 1.192 1.613 1.192 2.37 0 1.563 4.225 6.285 5.642 6.309 1.914.033 11.282 6.887 17.185 12.582 5.054 4.868 10.047 8.411 11.868 8.421l1.838.007 1.622 3.603c.895 1.98 2.683 4.734 3.977 6.118 3.871 4.14 6.007 13.67 6.04 26.915l.017 7.284-.957 1.789-.958 1.788-3.585-3.736-3.59-3.73-1.092-4.213c-1.424-5.497-7.213-15.298-11.325-19.173l-3.248-3.066.546 2.63c.298 1.447.98 4.797 1.51 7.45l.97 4.815-.556 5.258-.556 5.254-2.65 6.673-2.648 6.673-4.265 4.787c-2.352 2.636-7.683 7.086-11.858 9.892l-7.59 5.098.382 3.153c.212 1.732.01 4.235-.445 5.563l-.824 2.407h-1.788c-.987 0-4.398 1.65-7.583 3.666l-5.788 3.665-2.41-.175-2.41-.176v1.358c0 .745-.696 1.639-1.548 1.987-1.867.758-9.84 9.215-9.84 10.437 0 1.397-2.55 6.119-3.922 7.255l-1.258 1.043 1.046 1.679 1.05 1.675-1.085 1.742c-1.64 2.626-1.342 4.04 1.539 7.324 1.448 1.646 2.63 3.371 2.63 3.828 0 .464 1.34 2.577 2.98 4.702 1.635 2.13 5.191 8.278 7.9 13.673l4.924 9.8 1.736.554 1.735.55v4.724l6.131 6.548c3.372 3.598 6.134 6.913 6.134 7.36 0 .45.23.587.513.305.655-.656 3.867 2.066 3.867 3.278 0 1.646 7.907 10 13.43 14.188 2.974 2.252 6.557 5.455 7.964 7.11l2.56 3.01 5.44 2.44c2.994 1.345 5.695 2.848 6.003 3.348 1.335 2.159 11.239 6.818 19.338 9.096 4.832 1.358 10.752 3.024 13.163 3.695 8.033 2.242 19.781 2.765 29.775 1.322v.003m-19.16-40.712-6.904-1.209-4.785-2.417c-2.632-1.334-6.291-3.93-8.136-5.775l-3.35-3.35-1.302-3.822-1.302-3.818.968-.966c.53-.531 2.857-.968 5.172-.968h4.205v-.84c0-.464-2.858-1.69-6.351-2.726-11.401-3.384-19.934-7.924-19.934-10.606v-.907l3.725.556c2.047.308 8.255.781 13.799 1.053l10.076.497 10.043-1.838c5.523-1.01 12.732-1.835 16.017-1.835h5.973l3.145-1.314c1.728-.725 4.812-1.315 6.852-1.315h3.705l2.98 2.192c1.636 1.205 5.93 3.663 9.543 5.457l6.573 3.266 7.812.02 7.807.016.351 1.05.351 1.046-3.691 2.675c-2.034 1.47-4.126 2.69-4.656 2.702-.53.017-2.087 1.014-3.454 2.219l-2.49 2.189-.39 2.82-.391 2.822-4.272 4.033c-2.347 2.22-6.573 5.359-9.384 6.974l-5.116 2.94-13.143.192-13.139.192-6.907-1.205m14.785-64.372-7.02-.615-3.934-1.745c-2.162-.96-4.47-2.394-5.126-3.19l-1.192-1.443.523-1.364c1.123-2.93 15.6-6.54 26.236-6.543h5.099l1.278-1.278c2.096-2.096 8.36 3.675 9.676 8.914l.542 2.165-2.168 2.17c-3.633 3.631-8.759 4.261-23.914 2.93m-83.271 93.034c-6.723-5.658-22.733-17-35.782-25.344-2.841-1.818-6.785-4.57-8.762-6.12-7.407-5.794-20.033-14.268-21.258-14.268h-1.275l1.583 2.715c2.46 4.216 17.563 18.295 24.828 23.146 7.606 5.076 37.278 20.351 39.792 20.484l1.708.09-.834-.703M706.685 530.43l3.384-6 .056-2.758c.033-1.52.596-3.824 1.256-5.126.655-1.301 1.198-3.27 1.2-4.38 0-1.11.61-3.18 1.352-4.603.742-1.421 1.246-3.39 1.12-4.378-.13-.987.073-2.284.447-2.887.374-.6.788-6.258.923-12.573l.245-11.483-3.377.543c-1.861.297-5.444 1.224-7.964 2.059l-4.58 1.52-1.98 7.007c-2.586 9.162-8.873 21.867-13.321 26.917-3.95 4.487-4.245 5.497-1.953 6.722.867.464 3.729 3.113 6.351 5.888l7.175 7.565 2.404 2.534 1.938-.282 1.94-.281 3.384-6.004m-29.205-18.62c1.493-1.258 3.755-4.056 5.024-6.225l2.31-3.94.405-6.305.407-6.301-2.384-4.778c-2.053-4.113-5.119-7.756-6.586-7.822-.242-.01-.298 4.914-.13 10.94l.311 10.96-2.284 6.879c-3.258 9.83-2.622 11.261 2.927 6.589v.003m-44.57-19.652 1.693-.908v-5.496l-1.45-1.6c-1.802-1.993-4.484-2.053-6.587-.152l-1.6 1.45v5.776l1.534.894c1.986 1.158 4.292 1.172 6.407.036h.004m-204.809-16.7.874-1.396-.562-2.229c-1.05-4.196-6.127-3.718-7.232.683l-.543 2.175 1.116 1.348 1.12 1.344 2.174-.265c1.199-.143 2.57-.89 3.053-1.655v-.004m264.787-45.804c.95-.666 2.516-1.407 3.48-1.652l1.755-.44-3.196-.1-3.191-.106-.504-1.311c-.278-.725-1.106-1.315-1.844-1.315a1.331 1.331 0 0 0-1.342 1.315c0 .722.394 1.31.875 1.31.483 0 .877.793.877 1.756 0 2.063.732 2.192 3.09.543M781.705 530.3c-.096-4.08-.224-8.159-.384-12.236l-.251-6.102.95 1.698c.522.934 1.126 5.696 1.344 10.583l.397 8.887-.96 1.65-.96 1.655-.136-6.135"/><path fill="#C68878" d="M497.932 899.058c-72.672-3.904-136.279-24.633-192.442-62.716-9.838-6.669-11.066-7.808-10.37-9.616 1.125-2.934 16.685-11.616 56.503-31.533 23.368-11.69 44.266-22.537 46.431-24.107a776.73 776.73 0 0 0 8.192-6.033c2.334-1.75 5.639-3.764 7.341-4.476l3.093-1.292 2.516 1.04 2.516 1.043 6.299-5.944c16.583-15.645 23.708-33.937 26.159-67.176l.97-13.166-.82-.817-.82-.821-19.181-.779c-10.55-.427-23.123-1.169-27.94-1.645-4.819-.477-15.067-.993-22.782-1.143l-14.017-.275-.099 5.256c-.057 2.89-.156 5.794-.219 6.457l-.119 1.191-5.914-.602c-3.252-.331-10.642-1.59-16.424-2.795a1164.784 1164.784 0 0 0-24.533-4.735c-7.709-1.397-22.044-4.315-31.851-6.48l-17.832-3.94-4.575-2.096-4.57-2.093-2.348-8.259-2.34-8.258v-15.801c0-8.692-.58-24.643-1.285-35.448-.777-11.949-1.516-23.9-2.22-35.854-.541-9.318-1.16-18.63-1.857-27.938-1.838-23.417-.884-67.973 1.835-85.516 3.953-25.547 10.715-53.166 20.265-82.792 8.4-26.06 27.195-70.057 43.976-102.944 3.272-6.41 13.385-22.997 15.494-25.408 6.822-7.798 4.795-8.178-3.924-.742l-6.831 5.829-1.407-.915-1.407-.914.138-2.092c.282-4.252 13.093-21.613 27.855-37.742 11.136-12.173 22.377-21.997 37.48-32.755l10.749-7.66 15.93-8.191 15.93-8.196 14.295-4.705 14.295-4.706 9.636-1.609 9.64-1.61 25.407.08 25.407.08 10.95 2.815 10.954 2.814 10.514 5.308c11.596 5.86 12.384 6.39 24.659 16.656l8.543 7.136 7.053-2.55 7.053-2.55h18.397l5.259 3.221c5.364 3.292 9.476 7.17 12.11 11.422l1.47 2.377 12.483 6.096c6.867 3.355 16.808 8.987 22.093 12.517l9.609 6.417 8.788 8.272c19.821 18.649 32.633 38.755 39.57 62.105l2.255 7.597.685 13.145.682 13.14 2.21 6.57c2.028 5.994 4.08 11.98 6.154 17.96 4.047 11.666 9.19 33.265 11.266 47.311l1.165 7.881-.033 23.219-.026 23.218-1.11 7.007c-.609 3.858-1.457 7.997-1.887 9.202-3.01 8.49-7.749 19.454-9.815 22.729-1.357 2.142-2.463 4.934-2.463 6.202v2.301l2.218 2.083 2.216 2.083-2.54 1.986-2.54 1.987-.566 2.874c-.315 1.58-1.606 5.52-2.871 8.752l-2.298 5.877-2.841 3.103c-1.563 1.706-3.477 3.103-4.255 3.103h-1.414v-3.136c0-1.721.877-8.523 1.95-15.113l1.95-11.98-.016-16.204-.017-16.21-2.781-11.08c-13.1-52.192-53.642-103.285-113.054-142.467-8.337-5.497-17.524-11.967-20.414-14.37l-5.254-4.372-4.57-.474-4.57-.473-11.176 1.444c-35.294 4.55-77.848 26.324-97.749 50.013-1.622 1.928-5.169 5.927-7.887 8.89-6.867 7.492-7.93 9.024-15.463 22.286l-6.656 11.712-.169 4.354-.176 4.351 3.507.623c1.927.338 8.63 1.301 14.89 2.136l11.392 1.516 8.199 2.583 8.198 2.583 4.689 3 4.692 3 2.225 3.795 2.222 3.795v6.178l-1.814 2.308-1.819 2.312h-1.936c-1.064 0-6-1.385-10.97-3.073-12.457-4.239-25.547-7.464-33.587-8.279l-6.755-.689-6.785.663-6.778.662-2.09 2.51c-1.149 1.38-2.834 4.087-3.741 6.013l-1.659 3.507-.02 5.34-.02 5.346 2.636 3.636c1.447 2 2.801 3.635 3.007 3.635 9.605 0 30.53 7.07 40.523 13.688l7.176 4.756 5.708 6.252 5.709 6.258 3.586 7.082 3.586 7.087.934 6.325.934 6.328-.593 3.155-.593 3.155-1.308-1.085c-1.897-1.577-2.93-3.782-4.39-9.4-2.146-8.243-14.55-23.81-18.974-23.81h-1.292l2.213 5.911 2.205 5.914.093 7.45.092 7.444-2.43 6.603-2.428 6.602-3.788 4.616c-4.123 5.024-10.224 9.49-16.152 11.822l-3.775 1.483-9.59-.583-9.589-.579-3.576 1.613-3.577 1.612-1.456-.914-1.46-.914-.272-3.179-.272-3.184-1.877-1.315-1.874-1.315-2.076 1.95c-1.143 1.073-3.18 4.318-4.527 7.216-1.347 2.894-3.327 6.046-4.397 7.007-6.238 5.572-12.245 32.556-8.715 39.149.526.983 1.675 4.212 2.55 7.168 2.393 8.08 6.205 19.23 7.085 20.713 3.003 5.076 5.176 9.85 5.176 11.39 0 .993.98 3.749 2.179 6.117l2.185 4.304-.527 1.357c-1.08 2.815-9.417-.817-21.284-9.274-2.606-1.857-5.268-3.378-5.915-3.378h-1.171v4.954l2.6 3.874c9.483 14.14 31.3 31.543 52.466 41.855 5.95 2.9 11.583 5.967 12.516 6.811 2.577 2.33 20.06 9.41 41.057 16.626l18.835 6.473 9.199 1.302c14.536 2.056 34.14.814 41.615-2.64 1.448-.668 6.49-2.6 11.209-4.291 10.607-3.805 30.597-13.434 42.25-20.355 4.814-2.857 9.343-5.436 10.065-5.731 3.212-1.318 28.06-18.662 35.503-24.785 8.755-7.205 21.315-20.771 30.491-32.934 3.073-4.073 6.55-7.848 7.722-8.384 1.175-.533 3.102-2.391 4.288-4.126 2.577-3.768 3.642-4.282 6.599-3.16 1.232.47 3.497.869 5.034.885 3.023.033 7.45 2.053 6.192 2.822-.428.261-3.537.742-6.908 1.072-3.374.328-6.821.788-7.665 1.023l-1.533.428v2.91c0 1.603-1.027 6.799-2.279 11.55-5.576 21.15-8.264 61.08-5.563 82.616l.92 7.348-1.138 1.136-1.143 1.136-23.215.983-23.218.987-10.074-.583c-8.41-.483-44.927-3.314-69.851-5.414l-6.331-.533-.596 1.55c-.96 2.516 1.179 29.093 3.076 38.126l1.745 8.321 3.027 6.573c3.775 8.178 7.457 13.264 12 16.556l3.517 2.547 3.344-.45 3.347-.448 9.636 4.477c5.298 2.46 10.536 4.477 11.64 4.477 1.106 0 6.986 1.006 13.07 2.242 12.784 2.589 33.936 5.811 50.926 7.751 22.17 2.537 28.13 4.735 39.03 14.401l7.567 6.706 3.47 5.695a209.874 209.874 0 0 0 6.49 9.953c4.735 6.676 4.546 6.948-13.464 19.56-45.407 31.799-97.077 53.126-150.236 62.01-20.612 3.444-25.483 3.305-21.91-.629.983-1.082 2.033-3.013 2.334-4.288l.547-2.317-1.69-2.063-1.695-2.06-1.556.95c-.858.523-2.467 2.67-3.576 4.768-1.11 2.097-2.6 4.46-3.315 5.249-.715.788-1.298 1.864-1.298 2.387 0 2.232-26.914 4.162-44.682 3.206m38.55-9.202c0-.954.81-3.325 1.8-5.268l1.805-3.537 3.673-1.669c2.02-.917 4.36-1.675 5.205-1.685 1.785-.023 1.97-.984.48-2.474l-1.049-1.05-3.987.004h-3.987l-2.804 1.712c-1.543.94-3.458 2.976-4.259 4.52l-1.45 2.81.453 3.398c.71 5.275 4.12 7.96 4.12 3.239m15.33-34.96c38.226-4.193 56.193-20.58 59.637-54.382l.586-5.758-1.086-6.45-1.089-6.454-2.302-2.106c-2.956-2.709-12.218-9.464-17.946-13.09a92.736 92.736 0 0 1-8.382-6.132c-2.161-1.822-4.99-3.97-6.285-4.775-1.297-.804-4.52-4.156-7.158-7.447-2.64-3.292-6.438-7.166-8.437-8.61a80.338 80.338 0 0 1-6.239-5.04c-1.427-1.324-3.092-2.416-3.699-2.423-1.01-.017-7.513-3.964-10.046-6.103-.583-.49-1.58-.894-2.216-.894-.635 0-2.062-.63-3.168-1.407-2.897-2.03-11.775-6.45-12.98-6.464-.564-.007-2.143-.576-3.507-1.265-3.788-1.917-17.202-6.784-18.686-6.781-.725 0-3.953-.603-7.175-1.342l-5.86-1.347-3.339 2.053c-4.957 3.047-13.238 11.536-14.725 15.096-.716 1.712-1.831 3.433-2.484 3.821-.649.388-1.54 1.358-1.98 2.159-.437.802-2.013 2.792-3.503 4.421-1.487 1.632-3.815 4.86-5.176 7.182-2.715 4.63-18.884 21.077-25.497 25.927-6.834 5.02-11.566 9.884-13.036 13.405L414.65 784l.98 3.69c2.914 10.98 20.348 33.238 35.43 45.232 7.438 5.916 14.985 9.84 27.598 14.348l10.95 3.913 9.635 1.808c5.305.993 10.43 1.983 11.39 2.195 3.484.766 33.478.554 41.18-.29M427.996 476.72c2.102-1.901 2.036-5.123-.153-7.311-2.268-2.269-3.126-2.21-5.735.397-4.785 4.788.881 11.443 5.887 6.914h.001M534.77 627.84l-5.65-.808-5.297-2.53c-2.918-1.39-6.464-3.742-7.881-5.225l-2.58-2.692 1.017-1.017c.563-.563 2.51-1.543 4.331-2.185l3.315-1.172 10.185.953 10.19.957 6.456-.868c3.553-.476 7.831-.804 9.503-.73l3.047.13.304-1.532.305-1.533h-3.18c-1.75 0-5.82-.387-9.045-.861-3.225-.477-10.987-1.5-17.252-2.272-20.894-2.583-40.533-8.55-38.576-11.718l.463-.752 5.04 1.404 5.036 1.407 12.706.004 12.702.007 4.817-1.272 4.822-1.272 9.745.133 9.745.14 2.765 1.43c1.524.784 6.01 2.267 9.967 3.29l7.202 1.858 8.586-.053 8.583-.053-.314.945c-.504 1.506-5.99 4.023-13.007 5.966-8.536 2.365-12.791 6.338-7.583 7.083l1.963.281.28 1.448.273 1.447-2.615 2.976c-1.434 1.636-4.715 4.04-7.285 5.342l-4.676 2.367-11.377-.11c-6.258-.059-13.921-.47-17.03-.917v.004m124.948-97.978-4.139-2.625-3.951.886-3.95.885-5.881-.904c-3.232-.497-8.444-1.668-11.573-2.6l-5.696-1.695-3.645-3.764c-2.007-2.07-4.901-5.915-6.437-8.544l-2.791-4.784-1.311-6.17-1.315-6.168.556-7.666.553-7.666h-.894c-1.633 0-5.454 6.832-7.417 13.265-1.063 3.484-2.45 6.507-3.08 6.72l-1.142.38.34-6.457.338-6.46 2.683-5.696c6.722-14.274 23.284-27.97 40.208-33.255l6.133-1.914 9.679-.497 9.675-.496 6.077 1.06c3.344.58 6.48 1.38 6.97 1.78.49.398 2.367 1.335 4.168 2.08l3.28 1.358 2.542-2.142c1.4-1.18 3.01-2.143 3.576-2.143h1.033l-.586 4.676-.583 4.679 6.544 4.076c8.245 5.139 13.54 7.553 16.621 7.575l2.408.021v1.689c0 2.526-3.417 4.741-10.976 7.125l-6.782 2.14-1.092 1.75c-.603.962-1.776 4.61-2.607 8.107-.83 3.494-2.192 7.242-3.023 8.321-.834 1.083-2.626 4.04-3.986 6.57-1.362 2.53-2.848 4.602-3.305 4.602h-.832l.547-1.43c.302-.784.99-3.179 1.53-5.324l.98-3.898-.49-5.847c-.269-3.212-1.374-8.213-2.454-11.103l-1.967-5.255-2.563-2.398c-2.547-2.377-8.953-4.923-9.934-3.943-.28.278.55 3.583 1.848 7.337l2.358 6.832-.39 9.229-.388 9.227-1.974 4.928c-1.083 2.715-4.096 7.755-6.689 11.205l-4.722 6.275 1.514.536c.834.299 2.206 1.133 3.05 1.855l1.533 1.318v4.983h-2.02c-1.11 0-3.881-1.179-6.16-2.626m-26.183-37.285 1.948-1.364v-5.963l-1.921-1.79c-2.43-2.267-5.47-2.28-7.715-.032l-1.755 1.752v6.033l1.946 1.364c1.07.748 2.76 1.365 3.75 1.365.989 0 2.675-.617 3.747-1.365m43.874 35.136c-1.737-1.178-3.394-2.755-3.675-3.497l-.52-1.35 1.888-1.759c1.036-.966 2.109-1.754 2.377-1.745 1.63.047 7.536 4.229 7.782 5.507l.298 1.533-2.044 1.702c-2.572 2.145-2.357 2.16-6.106-.39m33.856-102.666c-9.067-5.483-16.431-8.152-31.54-11.438l-6.133-1.33-14.457-.13-14.454-.125-11.053 2.41c-6.08 1.325-12.284 2.408-13.798 2.408h-2.748l-1.752-1.752-1.752-1.752v-7.625l1.98-2.94c2.818-4.18 8.736-8.428 14.047-10.087l4.563-1.425 10.983-.462 10.987-.458 9.166 1.534c5.04.844 13.179 2.659 18.086 4.033l8.924 2.5 6.848 4.043c7.146 4.222 16.215 11.182 21.083 16.182l2.847 2.924v2.285c0 5.298-4.334 5.738-11.827 1.205"/><path fill="#A66A5D" d="M481.67 897.776c-40.894-3.155-83.636-14.285-123.477-32.152-25.202-11.305-62.643-34.232-62.643-38.362v-1.311l6.635-4.33c3.65-2.385 25.713-13.822 49.031-25.419 23.317-11.598 43.493-21.986 44.835-23.086 1.344-1.099 3.847-2.847 5.566-3.887 1.721-1.036 3.887-2.729 4.818-3.758 3.248-3.593 11.771-6.766 11.771-4.384 0 .447-.973 1.967-2.165 3.383-3.043 3.617-3.967 6.524-3.967 12.48v5.167l1.755 4.695c5.778 15.44 27.036 40.785 42.718 50.927 9.504 6.153 28.62 13.311 42.263 15.835 4.093.755 9.685 1.808 12.423 2.334l4.98.96 17.361-.569c54.23-1.775 75.259-16.89 78.733-56.596l.576-6.57-1.036-5.695c-1.779-9.801-6.905-18.64-15.352-26.468l-3.506-3.244 2.729-.04 2.728-.033 8.133 4.04 8.132 4.04 5.784.741c3.182.41 9.706 1.573 14.498 2.583 9.946 2.096 19.337 3.53 39.913 6.093 19.967 2.486 28.544 4.169 34.12 6.689l4.768 2.152 4.9 4.573c2.693 2.513 5.928 5.42 7.186 6.457 1.258 1.039 3.93 4.59 5.935 7.887a211.557 211.557 0 0 0 6.645 10.235l3.006 4.239-.917 1.715c-1.947 3.643-28.357 21.808-47.245 32.5-39.265 22.232-87.931 38.563-130.299 43.729-9.86 1.202-10.791.96-8.682-2.259l1.43-2.185v-4.016c0-4.782-1.582-8.153-5.29-11.276l-2.726-2.294h-3.232c-4.261 0-8.94 2.59-10.993 6.079l-1.65 2.815v7.017l1.706 2.284c.937 1.258 2.175 2.44 2.748 2.633l1.04.344v-2.784c0-4.04 2.39-8.457 5.672-10.487 5.1-3.15 6.963-1.954 4.703 3.013l-1.018 2.228h-1.417c-.778 0-2.297.616-3.374 1.372l-1.954 1.37.226 3.55.231 3.55-3.943 1.198-3.944 1.199-21.027-.11c-11.566-.063-24.993-.416-29.84-.794v.003m43.855-204.902-6.14-.496-3.357-3.063c-1.848-1.689-3.914-3.38-4.593-3.769-4.139-2.34.457-3.026 7-1.042 4.186 1.268 7.706 1.722 20.124 2.595 3.31.232 6.503.825 7.089 1.312.589.49 1.39.595 1.788.238l.714-.65-.595 1.044-.596 1.04 1.788-.133 1.795-.136-.414-1.082-.417-1.08 1.214.464 1.216.467-.705 1.9-.71 1.898-1.648.033c-.907.017-2.14.334-2.742.709l-1.092.674v-.787c0-.43-1.086-.656-2.41-.497a86.722 86.722 0 0 1-17.309.364v-.003m115.212-3.649a2934.865 2934.865 0 0 0-28.036-2.102c-25.02-1.779-44.003-3.835-45.08-4.888l-.841-.818 1.278-1.149c.702-.629 4.825-2.45 9.163-4.046 23.655-8.703 66.1-33.55 87.824-51.414 8.676-7.132 22.418-21.987 31.04-33.54l5.298-7.103 2.093-.523c1.149-.288 2.682-.298 3.404-.02l1.319.503-.018 2.438c-.006 1.34-.8 5.393-1.761 9.006-.96 3.616-2.57 11.5-3.57 17.524l-1.82 10.95-.736 21.467-.735 21.464.788 6.132c.43 3.374.798 8.006.815 10.295l.026 4.162-1.096.12c-3.914.423-48.93 2.556-50.156 2.373-.483-.07-4.622-.443-9.202-.83h.003m-282.107-8.248a261.032 261.032 0 0 1-15.331-3.024c-4.338-1.015-12.315-2.602-17.726-3.526-11.467-1.96-18.278-3.338-37.47-7.587l-14.017-3.102-3.503-1.887-3.507-1.887-2.592-7.447-2.593-7.448-.166-17.52c-.192-19.805-1.715-52.593-3.053-65.709-1.768-17.304-2.771-40.762-2.87-67.02l-.1-26.722 1.57-14.02c2.632-23.527 4.033-31.94 7.29-43.805a1755.845 1755.845 0 0 0 5.624-21.046c1.37-5.311 4.314-15.364 6.54-22.342 1.681-5.242 3.34-10.491 4.976-15.748.507-1.689 2.236-6.222 3.841-10.076a729.04 729.04 0 0 0 6.106-15.331 247.948 247.948 0 0 1 6.566-15.332c1.855-3.858 4.749-10.755 6.43-15.33 12.637-34.395 26.15-57.73 45.868-79.217 7.455-8.122 7.458-7.99-.141-6l-5.898 1.547-1.245-1.702c-2.751-3.761-.046-7.867 15.08-22.884 17.189-17.067 34.812-29.633 57.762-41.19l14.56-7.33 13.705-4.497 13.705-4.494 10.963-1.728 10.968-1.725 25.407.38 25.408.385 9.635 2.715 9.636 2.715 11.39 5.695 11.392 5.703 7.447 6.234a975.734 975.734 0 0 1 10.377 8.789c3.56 3.106 3.288 3.1 9.53.232l5.06-2.325 8.966-.4c11.425-.514 11.977-.352 19.828 5.887l6.556 5.211.285 2.014.285 2.013 16.646 8.322 16.646 8.324 6.136 4.57 9.195 6.844c20.272 15.1 41.61 46.629 46.855 69.23l1.334 5.76.352 11.994.354 11.99 1.755 5.259c.97 2.89 3.791 10.58 6.271 17.086 5.03 13.175 10.563 33.983 12.928 48.622l1.556 9.637-.02 26.284-.02 26.282-1.07 5.162c-1.453 7.01-7.205 22.494-11.053 29.745l-3.155 5.944.08 3.232c.164 6.732-6.22 24.484-10.123 28.152l-2.053 1.928-.59-.954c-.324-.523.464-8.735 1.749-18.245l2.334-17.292-.424-14.454-.43-14.457-2.745-9.463c-15.755-54.266-53.776-101.106-114.481-141.044-7.749-5.1-16.368-11.126-19.16-13.4l-5.072-4.134-4.056-.777-4.06-.779-13.14.977-13.145.977-10.113 2.49-10.112 2.49-12.226 5.249c-14.934 6.41-25.675 12.275-39.063 21.318l-10.189 6.88-9.02 9.411c-7.768 8.102-12.582 13.904-20.47 24.646a78.51 78.51 0 0 1-4.043 4.92c-3.711 4.126-8.818 13.557-10.189 18.819l-1.251 4.8 1.43 1.044c.785.576 4.45 1.268 8.146 1.54 3.692.275 12.43 1.139 19.418 1.927l12.701 1.433 7.01 2.17c15.193 4.701 23.15 11.87 22.19 19.983l-.286 2.43-2.25 1.673-2.253 1.672-6.053-2.282c-3.33-1.251-11.778-3.89-18.775-5.864l-12.722-3.59-15.33-.41-15.332-.41-3.686.993c-2.026.543-4.858 1.977-6.29 3.182l-2.607 2.195-1.364 4.136c-.752 2.272-1.765 6.259-2.251 8.852l-.888 4.718 1.04 3.476 1.042 3.471 1.805 1.132 1.808 1.133 7.447.57c18.341 1.406 29.133 3.966 39.63 9.394l7.241 3.74 8.775 8.793 8.775 8.794 3.378 6.917 3.377 6.921.895 6.365c.49 3.5.625 7.06.297 7.913l-.59 1.544-1.28-1.281c-.706-.703-1.872-3.544-2.594-6.316-2.437-9.354-8.768-17.718-18.202-24.046-4.188-2.811-4.953-2.033-2.655 2.695 1 2.056 2.304 6.093 2.9 8.96l1.087 5.223-.537 6.344-.533 6.344-2.573 5.672c-4.576 10.09-11.927 17.043-21.44 20.289l-4.09 1.39-8.705-1.01-8.702-1.013-3.513 1.054-3.51 1.052-1.345-1.112c-.738-.613-1.342-1.822-1.342-2.689v-1.576l-4.707-4.493-4.71-4.494-2.92-6.308-2.92-6.311.033-9.2c.016-5.059.463-10.674.986-12.483 1.074-3.689.216-4.308-1.768-1.278-2.291 3.494-3.884 13.13-4.046 24.494l-.1 6.791h-.93c-.513 0-2.994-2.069-5.513-4.603l-4.577-4.595-3.47-8.544c-3.652-8.99-4.252-9.761-5.106-6.569-.963 3.593-.576 7.42 1.59 15.692 1.175 4.5 2.586 12.073 3.136 16.828l.997 8.649-1.067 12.692-1.063 12.696.49 9.758.49 9.762 1.848 6.132c4.576 15.189 6.6 24.312 6.258 28.235-.05.59-1.089 1.729-2.312 2.53l-2.217 1.454-3.398-1.533-3.4-1.533-1.054.648-1.053.653.448 3.314.443 3.319 2.885 4.238c11.31 16.609 32.913 34.348 55.686 45.712l10.638 5.311 1.782 2.265 1.78 2.265-.489 5.004c-.271 2.751-.927 5.55-1.457 6.218l-.96 1.215-17.537-.625c-9.642-.341-20.546-.964-24.228-1.384-3.68-.417-14.62-1.037-24.312-1.378l-17.616-.62-.119 1.226c-.066.675-.165 3.583-.222 6.463l-.099 5.235-1.315.166c-.721.09-4.666-.364-8.761-1.016v.003m69.663-203.697 1.595-1.761v-5.484l-1.63-1.192c-.893-.652-2.516-1.189-3.598-1.189h-1.974l-1.364 1.948c-4.043 5.771 2.335 12.801 6.97 7.682v-.004m130.09 129.587c-24.626-1.195-56.63-6.003-54.223-8.145.68-.603 53.087 2.062 60.351 3.066 4.093.566 11.703 1.063 16.912 1.106l9.47.076-1.404 1.026c-1.424 1.04-9.387 2.636-15.775 3.16-1.927.158-8.825.03-15.331-.289m102.474-78.358-1.123-1.35.927-.928.927-.928 1.842.587 1.837.583v3.39h-1.642c-.908 0-2.153-.61-2.768-1.35v-.004m-24.434-2.232a79.421 79.421 0 0 1-8.027-2.139l-4.149-1.378-3.947-4.218a38.278 38.278 0 0 1-9.354-17.53l-1.122-4.755.576-10.1.579-10.095-2.668 2.556c-2.63 2.516-7.875 11.907-7.875 14.096a2.318 2.318 0 0 1-1.014 1.749l-1.013.629.534-4.53.536-4.527 2.636-5.523 2.636-5.523 5.298-5.778c9.148-9.984 21.294-17.891 32.88-21.401l5.256-1.59 12.701-.016 12.706-.013 6.364 2.98 6.365 2.983 2.397-1.202a177.58 177.58 0 0 1 3.185-1.566l.795-.364-.513 3.156-.513 3.155 2.446 2c5.666 4.629 17.848 11.18 20.819 11.192 5.635.023 1.261 4.318-7.176 7.047-3.374 1.093-6.814 2.615-7.649 3.39l-1.513 1.407-1.769 6.911c-1.837 7.186-2.947 9.288-4.894 9.288h-1.152l-.553-4.162c-.948-7.17-3.778-15.51-6.57-19.364l-2.688-3.709-6.646-3.03c-3.656-1.665-6.778-3.03-6.937-3.03-.159 0 1.318 3.345 3.278 7.434l3.566 7.431.934 6.48.934 6.48-1.099 6.152c-1.464 8.18-4.968 15.325-10.471 21.342l-4.52 4.94-3.933 1.851-3.934 1.848-5.921-.096c-3.258-.053-7.669-.437-9.801-.858m-3.633-32.745c4.023-2.08 4.702-5.795 1.752-9.55l-1.818-2.307h-5.937l-1.789 1.917-1.784 1.917v2.294c0 5.153 4.957 8.12 9.576 5.729m44.08 31.809c-2.715-2.716-.467-4.925 3.388-3.329l2.615 1.083-.268 1.411-.265 1.41-2.192.258c-1.201.14-2.679-.23-3.278-.833m-274.78-16.143c-1.496-3.898 1.043-7.593 5.222-7.593h2.301l1.815 1.814 1.814 1.815-1.178 1.417c-2.894 3.487-9.014 5.05-9.974 2.55v-.003m311.803-84.58c-12.086-7.974-30.04-13.259-51.795-15.245l-6.238-.573-6.904 1.013a326.142 326.142 0 0 0-15.663 2.835c-4.82 1.003-10.45 2.003-12.51 2.22l-3.741.399-1.39-1.15-1.385-1.152.407-4.252.411-4.248 3.411-3.523c4.191-4.338 8.265-6.497 15.424-8.186l5.503-1.297 8.894-.014 8.894-.01 9.94 1.72c21.153 3.655 30.988 8.029 45.871 20.41l8.319 6.92.52 2.07c1.06 4.219-3.08 5.288-7.968 2.062"/><path fill="#47332F" d="M499.246 898.16c-56.006-2.837-103.71-14.755-149.815-37.417-19.722-9.702-47.229-26.321-51.666-31.226l-1.51-1.668.63-1.017c2.039-3.305 23.287-14.56 34.807-18.444 2.849-.957 6.802-2.768 8.792-4.023 1.99-1.258 10.533-5.679 18.987-9.828 8.454-4.149 16.646-8.454 18.206-9.563 1.559-1.112 5.734-3.36 9.277-5 3.543-1.635 7-3.649 7.68-4.47.675-.825 3.205-2.761 5.616-4.305 2.41-1.547 6.092-4.242 8.185-5.99 2.092-1.748 4.59-3.178 5.553-3.178h1.745l-2.268 2.695c-2.947 3.506-3.46 5.794-2.938 13.126l.431 6.043 3.493 7.248c15.778 32.762 47.054 56.434 83.617 63.289 4.023.751 9.215 1.754 11.54 2.232 2.324.476 11.588.85 20.589.833l16.358-.025 8.324-1.205c38.458-5.57 56.454-23.392 58.438-57.876l.453-7.884-.977-5.225c-.536-2.874-2.139-7.705-3.56-10.739l-2.578-5.516-4.55-4.811-4.55-4.812h1.358c.744 0 4.718 1.775 8.83 3.942l7.474 3.942 2.905.014c1.595.01 6.648.808 11.225 1.781 12.394 2.63 43.712 7.583 55.199 8.726 20.729 2.066 25.241 3.774 36.013 13.649l7.35 6.738 3.124 5.355c1.715 2.947 4.377 7.086 5.914 9.209 1.532 2.118 2.791 4.555 2.791 5.416v1.563l-3.725 2.987c-45.02 36.123-118.193 66.358-174.56 72.134l-5.975.611.623-2.105c.341-1.16.845-3.54 1.116-5.292l.493-3.182-.993-3.013c-.546-1.656-2.334-4.308-3.97-5.895l-2.974-2.884-3.824-.43-3.828-.43-3.142 1.31c-1.729.723-4.22 2.726-5.533 4.448l-2.392 3.132.034 4.47.036 4.47 1.848 3.133 1.848 3.133-.702.678c-.811.789-25.792 1.61-34.872 1.15v-.004m143.68-209.892c-43.18-2.669-71.944-5.278-73.321-6.655l-.745-.745 7.45-2.831c24.454-9.289 68.454-35.027 88.405-51.713 9.493-7.94 21.374-20.49 30.231-31.927l7.235-9.338h5.14v1.987c0 1.092-.778 4.797-1.729 8.232-.95 3.433-2.692 12.294-3.87 19.695l-2.14 13.45-.248 20.153c-.133 11.083.08 24.192.48 29.13l.725 8.98-1.208.135c-4.226.48-7.487.632-24.424 1.15-10.361.314-19.428.655-20.153.761-.722.099-6.043-.106-11.828-.464m-286.26-8.642c-5.172-.907-12.467-2.407-16.205-3.328a197.696 197.696 0 0 0-13.371-2.725c-8.163-1.298-28.265-5.474-39.735-8.245l-8.633-2.09-2.318-1.724-2.318-1.723-.248-2.106c-.136-1.155-1.083-4.466-2.1-7.357l-1.854-5.259.596-20.788.596-20.791-.904-5.494c-1.324-8.046-2.706-23.652-3.55-40.1-.407-7.947-1.185-16.622-1.727-19.271-.544-2.649-1.16-10.143-1.369-16.649-.25-7.739-.513-15.478-.788-23.216-.668-18.602 2.202-53.327 6.12-74.03 3.81-20.149 4.669-24.046 7.228-32.854a537.907 537.907 0 0 0 4.51-16.646c1.076-4.338 4.262-13.798 7.076-21.026 2.815-7.229 6.312-16.739 7.772-21.136 1.457-4.398 3.652-10.113 4.874-12.703 2.45-5.195 8.272-20.569 11.404-30.119 2.798-8.527 9.2-23.536 15.13-35.48l5-10.076 8.056-11.391 8.056-11.39 11.248-11.027c6.186-6.067 12.232-11.547 13.438-12.183 4.314-2.274 15.768-11.947 15.768-13.318 0-1.543-2.98-.523-9.437 3.225l-6.771 3.931-4.15.566-4.15.57-1.323-1.103c-.729-.607-1.328-2.076-1.328-3.269v-2.168l5.914-6.16c11.993-12.49 26.815-22.857 48.01-33.576l15.811-8.003 14.024-4.543 14.023-4.546 11.245-1.726 11.245-1.728 19.371.026c22.543.034 28.275.643 41.311 4.398l9.6 2.765 10.076 5.146 10.073 5.145 8.325 6.646c4.576 3.655 10.563 8.987 13.294 11.848 2.74 2.86 5.546 5.205 6.245 5.205.7 0 1.762.59 2.361 1.315 1.434 1.722 3.871 1.669 5.355-.116l1.186-1.43-3.789-3.266-3.785-3.261 2.357-1.855c3.103-2.44 6.932-3.082 15.432-2.592l6.996.407 4.808 4.742 4.808 4.741-.493 1.971-.49 1.973 4.616 2.136c2.539 1.172 10.136 4.613 16.88 7.64l12.266 5.506 6.573 4.585a3704.04 3704.04 0 0 0 11.373 7.912c20.478 14.158 40.901 43.543 46.465 66.837l1.149 4.822-.302 5.695a311.724 311.724 0 0 0-.337 12.265l-.034 6.57 4.222 8.762c15.169 31.47 21.739 59.238 22.89 96.808l.554 17.96-1.311 9.699-1.311 9.696-3.544 10.894c-1.953 5.993-4.934 13.652-6.632 17.023-1.699 3.374-3.092 6.92-3.092 7.881-.018 5.927-7.59 27.6-9.646 27.6h-.977l.507-3.722c1.635-12.024 3.072-27.127 3.566-37.454l.563-11.829-1.408-6.711c-11.943-56.967-51.291-108.22-116.577-151.85-9.156-6.118-18.42-12.601-20.59-14.406-2.168-1.809-4.89-3.792-6.052-4.408l-2.11-1.125-17.166.533c-27.148.841-32.797 2.053-58.774 12.6-10.812 4.387-24.183 11.86-32.252 18.026-2.742 2.092-8.732 6.305-13.311 9.354-14.418 9.603-37.484 33.865-44.034 46.302l-3.993 7.58c-.762 1.446-1.55 4.867-1.748 7.605l-.365 4.98 2.95.45c1.623.253 9.7.683 17.947.964l15 .513 9.743 1.636 9.745 1.64 5.576 2.608c5.49 2.57 15.771 8.404 19.626 11.14l1.97 1.4v6.864l-1.708.915-1.71.917-5.801-2.185c-6.774-2.55-25.884-7.928-32.834-9.242-2.65-.5-11.52-.94-19.713-.978l-14.893-.065-8.322 1.523c-4.58.834-9.344 2.036-10.589 2.668-4.719 2.392-10.507 12.14-12.97 21.842-.98 3.854-2.782 9.464-4.007 12.467-1.222 3-2.222 5.712-2.222 6.026 0 1.679 18.285-3.032 18.46-4.758.706-6.963 1.11-7.318 4.315-3.808l2.576 2.825 2-.417c1.1-.232 4.57-.66 7.716-.95l5.722-.531 7.86.93c22.503 2.67 33.603 7.815 47.593 22.06l5.48 5.58 3.908 7.884 3.91 7.888.421 5.695.42 5.695-1.605-4.82c-3.557-10.68-8.954-17.405-19.772-24.637l-5.334-3.566-.272 1.324c-.146.733.692 3.235 1.864 5.564 7.14 14.172 4.802 31.049-5.96 43.016l-4.073 4.527-5.418 2.665-5.417 2.666-13.987-.35-13.983-.352-.371-1.192c-.202-.656-2.629-3.566-5.387-6.467-5.649-5.94-8.024-10.11-9.63-16.93l-1.102-4.686.47-6.705c.596-8.55 1.546-11.573 5.871-18.746 4.305-7.132 4.314-6.794-.225-6.794h-3.742l-3.255 2.212-3.255 2.211-3.47 7.206c-1.908 3.963-4.15 9.768-4.98 12.9-.832 3.133-1.831 6.06-2.219 6.507l-.708.811-2.352-5.192-2.35-5.191-.954-7.447-.954-7.448-3.676-.265-3.668-.268-1.268 2.02c-6.047 9.636-6.868 67.616-1.381 97.514l1.771 9.636-.271 5.695-.269 5.695-1.973.282c-1.086.152-2.41 1.096-2.947 2.096l-.97 1.818.457 3.41.457 3.418 3.725 6.314c5.228 8.865 13.229 18.232 25.632 30.004l10.663 10.119 8.51 5.653c4.679 3.106 13.65 8.254 19.933 11.44l11.431 5.79.556 2.22c.309 1.215.206 4.426-.225 7.135l-.78 4.92-15.332-.273c-8.43-.153-18.683-.663-22.779-1.13-4.096-.47-15.765-1.093-25.934-1.39l-18.483-.53-.788 1.225c-.434.672-.791 3.553-.791 6.4v5.176l-.875.225c-.484.123-5.109-.52-10.285-1.43h-.003m72.96-202.551 1.76-2.848-.527-2.185c-.755-3.162-2.954-5.259-5.503-5.259h-2.22l-2.026 1.904-2.03 1.904v6.606l1.948 1.365c1.073.748 3.05 1.361 4.394 1.361h2.45l1.755-2.848m210.675 48.709c-.965-.202-4.5-1.01-7.855-1.789l-6.103-1.423-4.265-3.99c-9.112-8.523-14.139-26.06-10.374-36.192.414-1.116 1.023-3.507 1.355-5.312l.595-3.288h-1.32c-.73 0-2.775 1.275-4.547 2.831l-3.225 2.831 1.566-3.022c7.572-14.647 30.027-27.762 50.145-29.289l7.213-.546 5.927.936c3.262.517 8.494 2.093 11.622 3.504 3.136 1.411 6.488 2.477 7.451 2.368l1.752-.199.261 1.752.258 1.751 8.504 5.513c4.672 3.03 10.175 5.97 12.222 6.534 5.811 1.592 4.808 2.888-4.6 5.94-7.857 2.55-8.73 3.457-10.88 11.268-2.46 8.95-3.759 9.514-4.868 2.113-.344-2.278-1.41-6.248-2.374-8.824l-1.755-4.683-5.39-6.066-5.398-6.063-5.256-1.722c-5.095-1.669-7.483-2.13-9.943-1.92l-1.182.098 4.249 4.656c5.298 5.796 8.658 12.574 9.963 20.057l1.003 5.768-1.03 6.884-1.033 6.881-3.06 5.854c-3.655 6.987-8.708 12.222-14.658 15.19l-4.365 2.172-4.427-.1c-2.433-.056-5.215-.268-6.178-.473m-5.04-33.239 1.973-2.206v-2.46c0-3.245-2.89-6.804-6.092-7.51l-2.567-.562-2.02 1.08c-5.728 3.046-5.937 11.109-.364 13.576l2.718 1.202 2.192-.457c1.202-.249 3.077-1.448 4.16-2.663"/></g></g></svg>