<svg xmlns="http://www.w3.org/2000/svg" width="1024" height="1025"><g fill="none" fill-rule="nonzero"><path fill="#F08705" d="M0 0h1024v1025L0 1024z"/><path fill="#DF6C0C" d="M543.357 262.116 653.833 145.56 1024 515.419v467.62a40.92 40.92 0 0 1-11.99 28.974A40.94 40.94 0 0 1 983.03 1024H340.514L143.523 826.251l399.834-564.135Z"/><path fill="#FFF" d="M849.72 583.813H729.325l-112.244-194.52h7.31a40.891 40.891 0 0 0 28.956-11.984 40.923 40.923 0 0 0 11.98-28.968V174.296a40.923 40.923 0 0 0-11.98-28.968 40.891 40.891 0 0 0-28.956-11.984H399.427a40.891 40.891 0 0 0-28.957 11.984 40.923 40.923 0 0 0-11.98 28.968V348.34a40.923 40.923 0 0 0 11.98 28.968 40.891 40.891 0 0 0 28.957 11.983h7.492L294.675 583.813H174.28a40.891 40.891 0 0 0-28.957 11.984 40.923 40.923 0 0 0-11.98 28.968V798.81a40.923 40.923 0 0 0 11.98 28.968 40.891 40.891 0 0 0 28.957 11.983h225.147a40.891 40.891 0 0 0 28.956-11.983 40.923 40.923 0 0 0 11.98-28.968V624.765a40.923 40.923 0 0 0-11.98-28.968 40.891 40.891 0 0 0-28.956-11.984h-33.882l112.28-194.52h68.35l112.244 194.52h-33.846a40.891 40.891 0 0 0-28.956 11.984 40.923 40.923 0 0 0-11.98 28.968V798.81a40.923 40.923 0 0 0 11.98 28.968 40.891 40.891 0 0 0 28.956 11.983H849.72a40.891 40.891 0 0 0 28.957-11.983 40.923 40.923 0 0 0 11.98-28.968V624.765a40.923 40.923 0 0 0-11.98-28.968 40.891 40.891 0 0 0-28.957-11.984"/></g></svg>