<svg xmlns="http://www.w3.org/2000/svg" width="1024" height="1024"><g fill="none" fill-rule="evenodd"><path fill="#FFF" d="M0 0h1024v1024H0z"/><path fill="#83B347" d="M807 150c28.486 2.322 61.162 30.035 64 60 2.21 50.84 2 301 0 413-1 25-41.4 52.544-64 55-17.672 1.92-58.006 1.92-121 0 .667 68 .667 111.333 0 130-1 22-31.865 57.707-61 61-127 0-273 1-404 0-34.017-3.161-59.533-26.896-63-61-1-116-1-342 0-401 2.564-31.81 32.805-59.962 63-64h125c-.667-58-.667-102.333 0-133 2.889-26.35 29.193-57.478 58-60 142-1 235-2 403 0"/><path fill="#FFF" d="M751 245c18.802 1.533 28.127 10.222 30 30 1.142 26.263-1 216 0 290-1.232 20.309-23.333 27.276-30 28-11.664 1.267-63.664 1.267-156 0 .667 94 .667 147.667 0 161-2.083 17.18-7.77 26.826-27 29-87 1-286.867 5.33-290 2-9-2-26.712-8.49-29-31-.66-76.565-1.66-247.057-1-286 1.692-20.996 16.23-30.027 32-32 22.667-.667 74-.667 154 0-.44-87.092-.44-140.759 0-161 1.907-17.392 10.986-28.335 30-30 93.726-.66 176.112-1.32 287 0"/><path fill="#F7C440" d="M692.815 319.658c11.311.922 16.921 6.15 18.048 18.049.687 15.8-.465 125.773.137 170.293-.741 12.218-12 21-21 21-7.018.763-61.018.763-162 0 .401 103.312.401 158.978 0 167-1.253 10.335-14.43 23.692-26 25-52.34.602-158.115 2.003-160 0-5.415-1.203-22.623-11.457-24-25-.397-46.063-.397-134.571 0-158 1.018-12.632 14.513-24.813 24-26 13.637-.401 66.97-.401 160 0-.197-104.018-.163-162.116.102-174.293 1.147-10.464 6.61-17.048 18.049-18.049 56.387-.397 105.952-.794 172.664 0"/></g></svg>