<svg xmlns="http://www.w3.org/2000/svg" width="1025" height="1024"><g fill="none" fill-rule="evenodd"><path fill="#32343A" d="M.398 0h1024v1024H.398z"/><path fill="#52B54B" stroke="#52B54B" stroke-width=".885" d="m509.926 158 1.882 1.895 1.997-1.895 151.143 172.61 26.302-20.737 173.148 199.61L691.25 660.588l20.881 28.745L509.926 864 362.528 689.333l-29.984 21.593-172.146-201.443 174.36-149.53a1448.555 1448.555 0 0 1-25.78-29.343L509.925 158Z"/><path fill="#FFEC79" stroke="#FFEB6F" stroke-width=".885" d="m597.285 372.382-58.1 100.405h63.227l-179.76 222.159 55.722-166.669h-48.65l42.328-85.04 35.392-70.855h89.841Z"/><path fill="#FFDD09" stroke="#FFDD09" stroke-width=".885" d="m597.285 372.382-58.1 100.405h38.32L422.847 694.36l55.527-166.083h-27.637l79.16-155.895h67.388Z"/><path fill="#FEC608" stroke="#FEC608" stroke-width=".885" d="m602.412 472.787-173.42 214.322 149.692-214.322h23.728Z"/></g></svg>