<svg xmlns="http://www.w3.org/2000/svg" xmlns:xlink="http://www.w3.org/1999/xlink" width="1024" height="1024"><defs><linearGradient id="a" x1="148.626%" x2="-21.936%" y1="-60.924%" y2="207.988%"><stop offset="0%" stop-color="#1C3B22"/><stop offset="100%" stop-color="#090C0B"/></linearGradient><linearGradient id="c" x1="-20.189%" x2="144.279%" y1="55.27%" y2="55.27%"><stop offset="0%" stop-color="#52B54B"/><stop offset="93.818%" stop-color="#FFDD09"/><stop offset="100%" stop-color="#FEC608"/></linearGradient><linearGradient id="e" x1="-20.189%" x2="144.279%" y1="55.27%" y2="55.27%"><stop offset="0%" stop-color="#52B54B"/><stop offset="93.818%" stop-color="#FFDD09"/><stop offset="100%" stop-color="#FEC608"/></linearGradient><linearGradient id="g" x1="-20.189%" x2="144.279%" y1="55.27%" y2="55.27%"><stop offset="0%" stop-color="#52B54B"/><stop offset="93.818%" stop-color="#FFDD09"/><stop offset="100%" stop-color="#FEC608"/></linearGradient><path id="b" d="M168.095 176.5c-5.334.333-10.709-.083-16.125-1.25-5.417-1.167-10.292-3.25-14.625-6.25-3.334-2.333-6.042-5.292-8.125-8.875A80.38 80.38 0 0 1 123.845 149c-2.5-6.5-4.792-13.042-6.875-19.625a693.993 693.993 0 0 0-6.625-19.875c-1 3.833-2.167 7.5-3.5 11-1.334 3.5-2.75 7.083-4.25 10.75a1448.377 1448.377 0 0 0-5.375 12.875 117.05 117.05 0 0 1-6.125 12.625l-3.5 6a19.32 19.32 0 0 1-4.5 5.25 25.685 25.685 0 0 1-8.375 4.875A41.335 41.335 0 0 1 65.095 175c-6.834.667-13.75-.333-20.75-3s-12.917-6.5-17.75-11.5c-4.334-4.667-7.959-9.917-10.875-15.75a110.763 110.763 0 0 1-7.125-18A165.191 165.191 0 0 1 .97 91.625 177.954 177.954 0 0 1 .845 55.75c.833-8 2.208-15.875 4.125-23.625A91.714 91.714 0 0 1 13.595 10c1.333-2.333 3.208-4.208 5.625-5.625 2.416-1.417 4.875-2.458 7.375-3.125C30.095.417 33.886 0 37.97 0c4.083 0 8 .583 11.75 1.75s7.083 2.833 10 5c2.916 2.167 5.041 5 6.375 8.5.833 2.333 1.25 4.792 1.25 7.375s-.334 5.042-1 7.375a91.454 91.454 0 0 0-3 13 347.26 347.26 0 0 0-1.75 13c-.5 5.5-.875 11-1.125 16.5s-.209 10.917.125 16.25c.166 3.333.375 6.583.625 9.75s.791 6.417 1.625 9.75a27.196 27.196 0 0 0 1.5 5.25c.666 1.667 1.666 3.167 3 4.5.333.333.833.667 1.5 1 .666.333 1.166.5 1.5.5.5-.167 1.041-.708 1.625-1.625a119.62 119.62 0 0 1 1.375-2.125 81.325 81.325 0 0 0 4.75-10.25c1.333-3.5 2.666-7.083 4-10.75.666-1.667 1.708-4.667 3.125-9 1.416-4.333 3-8.875 4.75-13.625s3.5-9.25 5.25-13.5S98.345 51.5 99.345 50a10.091 10.091 0 0 1 3.25-3.25l4-2.5c2-1 4.125-1.792 6.375-2.375a62.71 62.71 0 0 1 6.875-1.375c4.166-.333 8.208.292 12.125 1.875 3.916 1.583 7.208 3.958 9.875 7.125 1 1.333 1.833 2.708 2.5 4.125.666 1.417 1 2.875 1 4.375 0 6.5.666 13.333 2 20.5a294.823 294.823 0 0 0 2.25 12.375 104.203 104.203 0 0 0 3.25 12.125c.166.833.5 1.917 1 3.25a80.492 80.492 0 0 0 1.625 4 80.943 80.943 0 0 0 1.75 3.75c.583 1.167 1.208 2 1.875 2.5 2 1.333 3.916 1.333 5.75 0 1.833-1.333 3.333-3.083 4.5-5.25 1.833-3.5 3.166-7.25 4-11.25.833-4 1.583-7.917 2.25-11.75 2.333-14.333 2.833-28.833 1.5-43.5a296.647 296.647 0 0 0-1.125-8.5 62.142 62.142 0 0 0-1.875-8.5c-.834-2.333-1.125-4.833-.875-7.5s1.041-4.917 2.375-6.75c1.333-1.833 3-3.333 5-4.5 2-1.167 4.083-2.167 6.25-3 6-2 12.166-2.75 18.5-2.25 2.333.167 4.708.583 7.125 1.25 2.416.667 4.541 1.75 6.375 3.25 2.5 2.333 4.416 5.208 5.75 8.625A83.711 83.711 0 0 1 227.845 27a90.777 90.777 0 0 1 2.25 17.75c.166 6 .083 11.917-.25 17.75a239.253 239.253 0 0 1-2.75 24.625 302.58 302.58 0 0 1-5 24.125c-1.834 6.5-3.834 13-6 19.5a110.442 110.442 0 0 1-8.25 18.75 117.75 117.75 0 0 1-6 9.75 36.478 36.478 0 0 1-7.75 8.25c-3.667 2.833-7.75 4.958-12.25 6.375a59.836 59.836 0 0 1-13.75 2.625M41.595 68c0 1.333.375 2.417 1.125 3.25a5.189 5.189 0 0 0 2.75 1.625c1.083.25 2.166.167 3.25-.25 1.083-.417 1.875-1.208 2.375-2.375.5-.833.708-1.792.625-2.875a12.924 12.924 0 0 1 .125-3.125c0-.333.041-1.042.125-2.125l.25-3.25a35.64 35.64 0 0 1 .375-3.125c.166-1 .25-1.667.25-2 .166-.833.5-2.333 1-4.5s1-4.417 1.5-6.75 1-4.542 1.5-6.625.75-3.542.75-4.375c.166-2.333-.042-4.708-.625-7.125-.584-2.417-1.542-4.542-2.875-6.375-2.834-3.667-6.584-6.167-11.25-7.5a57.91 57.91 0 0 1-4.25-1.25c-1.5-.5-2.917-.75-4.25-.75-1.5 0-2.709.458-3.625 1.375-.917.917-1.459 1.917-1.625 3-.167 1.083.041 2.167.625 3.25.583 1.083 1.625 1.792 3.125 2.125 1.833.5 3.708.958 5.625 1.375a17.672 17.672 0 0 1 5.375 2.125c.666.5 1.25 1.083 1.75 1.75s.916 1.417 1.25 2.25c.666 1.333.916 2.792.75 4.375a41.174 41.174 0 0 1-.75 4.625c-1.334 5.5-2.542 11-3.625 16.5A86.466 86.466 0 0 0 41.595 68m172.5-1.25c-.5 1.333-.542 2.583-.125 3.75.416 1.167 1.125 2.083 2.125 2.75 1 .667 2.083.917 3.25.75 1.166-.167 2.25-.833 3.25-2 .333-.333.666-.917 1-1.75.333-.833.5-1.417.5-1.75.166-.667.208-1.25.125-1.75-.084-.5-.042-1 .125-1.5.666-3.667.791-7.333.375-11a491.625 491.625 0 0 1-1.125-11c-.167-2.333-.709-5.042-1.625-8.125a59.146 59.146 0 0 0-3.5-9c-1.417-2.917-3.042-5.583-4.875-8-1.834-2.417-3.834-4.042-6-4.875-2.5-1-5.125-1.5-7.875-1.5s-5.375.333-7.875 1c-1.334.333-2.75.667-4.25 1-1.5.333-2.667 1-3.5 2-1.167 1.5-1.417 3.125-.75 4.875.666 1.75 1.916 2.792 3.75 3.125.333.167 1.083.125 2.25-.125 1.166-.25 2.458-.5 3.875-.75 1.416-.25 2.708-.5 3.875-.75 1.166-.25 2-.375 2.5-.375.333 0 1 .083 2 .25 1 .167 1.666.333 2 .5.666.333 1.625 1.25 2.875 2.75s2.041 2.667 2.375 3.5c.333.333.791 1.417 1.375 3.25.583 1.833 1.041 2.917 1.375 3.25.333.833.708 2.167 1.125 4 .416 1.833.791 3.75 1.125 5.75.333 2 .583 3.917.75 5.75.166 1.833.25 3.25.25 4.25v5.875c0 1.25-.084 2.417-.25 3.5-.167 1.083-.334 1.875-.5 2.375m-81 2.75c1 .833 2.083 1.208 3.25 1.125 1.166-.083 2.166-.458 3-1.125.833-.667 1.416-1.542 1.75-2.625.333-1.083.25-2.208-.25-3.375a3.887 3.887 0 0 1-.625-1.625c-.084-.583-.292-1.208-.625-1.875-.167-.5-.667-1.583-1.5-3.25-.834-1.667-1.417-2.667-1.75-3-1.334-1.833-3-3.25-5-4.25s-4.084-1.833-6.25-2.5a21.28 21.28 0 0 0-4.625-.5h-4.625c-1.334 0-2.459.375-3.375 1.125-.917.75-1.5 1.667-1.75 2.75s-.167 2.167.25 3.25c.416 1.083 1.208 1.875 2.375 2.375 1.333.667 2.625.875 3.875.625a12.03 12.03 0 0 1 3.875-.125c1 .167 2.333.542 4 1.125 1.666.583 2.75 1.292 3.25 2.125a8.6 8.6 0 0 1 1.5 2.875c.333 1.083.666 2.208 1 3.375.333 1.667 1.083 2.833 2.25 3.5"/><path id="d" d="M321.768 175.25c-4.333.333-8.542.458-12.625.375a632.568 632.568 0 0 1-12.375-.375h-11.5c-4.5 0-8.917-.208-13.25-.625-4.333-.417-8.333-1.25-12-2.5s-6.167-3.292-7.5-6.125c-1.833-3.833-2.625-8.042-2.375-12.625s1.542-8.542 3.875-11.875c2.333-2.833 5-4.5 8-5 1.667-.333 3.333-.708 5-1.125 1.667-.417 3.333-.792 5-1.125a546.213 546.213 0 0 1-.75-43.625c.333-14.417.25-28.958-.25-43.625-3 .167-6.125-.042-9.375-.625s-5.958-2.042-8.125-4.375c-2.333-2.333-3.875-4.917-4.625-7.75s-.875-5.625-.375-8.375 1.667-5.333 3.5-7.75 4.167-4.375 7-5.875c3.333-1.833 6.792-3.125 10.375-3.875a95.04 95.04 0 0 1 10.875-1.625 168.594 168.594 0 0 1 23.375-.375c7.75.417 15.625.958 23.625 1.625 3 .167 6.042.542 9.125 1.125s5.792 1.792 8.125 3.625c2.833 2.333 4.833 5.5 6 9.5 1.167 4 1.333 7.833.5 11.5a29.91 29.91 0 0 1-1.375 4.125 9.449 9.449 0 0 1-2.625 3.625 22.939 22.939 0 0 1-9.75 5.125 72.283 72.283 0 0 1-11 1.875 848.398 848.398 0 0 1-.625 43.75 588.889 588.889 0 0 0-.125 43.75c1.833 0 3.75.083 5.75.25 2 .167 3.917.667 5.75 1.5 1.833.833 3.5 2.083 5 3.75a20.98 20.98 0 0 1 3.625 5.625c.917 2.083 1.5 4.25 1.75 6.5s.125 4.375-.375 6.375c-.667 2.5-1.792 4.917-3.375 7.25s-3.542 4-5.875 5c-2.5 1-5.083 1.708-7.75 2.125a86.227 86.227 0 0 1-8.25.875m15.25-142.5c1.833 1.5 3.75 1.583 5.75.25s2.75-3.167 2.25-5.5c-.167-.333-.458-1.083-.875-2.25s-.708-1.917-.875-2.25c-1-2-2.417-3.75-4.25-5.25-1.833-1.5-3.75-2.667-5.75-3.5a31.104 31.104 0 0 0-6.625-1.75c-2.25-.333-4.542-.667-6.875-1l-3.5-.5a24.719 24.719 0 0 0-3.5-.25c-1.167 0-2.292.042-3.375.125a7.874 7.874 0 0 1-3.125-.375c-1.333-.167-2.5 0-3.5.5s-1.75 1.25-2.25 2.25-.625 2.083-.375 3.25c.25 1.167.875 2.167 1.875 3 .5.333 1.333.583 2.5.75 1.167.167 2.417.292 3.75.375 1.333.083 2.625.167 3.875.25 1.25.083 2.208.125 2.875.125.5 0 1.333.083 2.5.25 1.167.167 2.375.333 3.625.5 1.25.167 2.458.333 3.625.5 1.167.167 2 .333 2.5.5.667.167 1.792.667 3.375 1.5s2.542 1.5 2.875 2c.833.833 1.375 1.917 1.625 3.25s.875 2.417 1.875 3.25"/><path id="f" d="M401.691 178.75c-4.667.167-9.417-.333-14.25-1.5s-8.833-3.417-12-6.75c-2-2-3.375-4.417-4.125-7.25a43.022 43.022 0 0 1-1.375-8.5c-.167-6.833.5-13.5 2-20s2.667-13.083 3.5-19.75a244.44 244.44 0 0 0 1.75-18.875c.333-6.25.667-12.542 1-18.875 0-1.667-.125-4.125-.375-7.375a407.52 407.52 0 0 0-1-10.875c-.417-4-.833-8.167-1.25-12.5-.417-4.333-.75-8.5-1-12.5s-.333-7.542-.25-10.625c.083-3.083.458-5.375 1.125-6.875 1.5-3.667 4.042-6.75 7.625-9.25S390.358 3 394.191 2c5.333-1.5 11.083-1.833 17.25-1s11.5 3 16 6.5c3.167 2.667 5.5 6.042 7 10.125s2.417 8.208 2.75 12.375c.333 3.833.083 7.542-.75 11.125a79.44 79.44 0 0 0-1.75 11.125 226.06 226.06 0 0 0 15.875-13.75 511.246 511.246 0 0 1 15.625-14.25 194 194 0 0 1 11.375-8.625c3.917-2.75 8.125-4.792 12.625-6.125 4.333-1.333 8.917-1.708 13.75-1.125s9.167 2.042 13 4.375a27.099 27.099 0 0 1 7.25 6.875c2 2.75 3.5 5.708 4.5 8.875 1 3 1.5 6.375 1.5 10.125s-.417 7.375-1.25 10.875a33.412 33.412 0 0 1-4 9.75c-1.833 3-4.083 5.333-6.75 7-4.167 2.333-8.708 3.708-13.625 4.125a90.777 90.777 0 0 0-14.375 2.375c-2.833.667-5.75 1.583-8.75 2.75s-5.708 2.583-8.125 4.25c-2.417 1.667-4.417 3.667-6 6-1.583 2.333-2.208 4.917-1.875 7.75.333 1.833 1.042 3.625 2.125 5.375a20.784 20.784 0 0 0 3.875 4.625 33.07 33.07 0 0 0 7.75 5.375 74.324 74.324 0 0 0 8.5 3.625c3.833 1.333 7.75 2.5 11.75 3.5s7.833 2.417 11.5 4.25a27.431 27.431 0 0 1 6.25 4.875c1.833 1.917 3.25 4.042 4.25 6.375 2.667 6 3.25 12.25 1.75 18.75s-4.75 11.917-9.75 16.25c-3 2.5-6.458 4.375-10.375 5.625S495.274 174 491.441 174c-4.833 0-9.583-.75-14.25-2.25s-8.917-3.583-12.75-6.25a82.464 82.464 0 0 1-19.625-17.625 190.178 190.178 0 0 1-15.125-21.625c.833 9.167.75 18.083-.25 26.75a176.664 176.664 0 0 1-1.125 6.5 31.835 31.835 0 0 1-1.875 6.25c-1 3.167-2.75 5.75-5.25 7.75a24.069 24.069 0 0 1-9.375 4 71.464 71.464 0 0 1-10.125 1.25M422.441 26c.667 1.333 1.583 2.208 2.75 2.625 1.167.417 2.292.458 3.375.125 1.083-.333 1.958-1 2.625-2s.833-2.25.5-3.75a18.797 18.797 0 0 0-1.25-3.25c-.5-1-1.083-1.917-1.75-2.75-2.167-3-5-5.417-8.5-7.25-3.5-1.833-7.083-2.917-10.75-3.25-2-.167-4.042-.292-6.125-.375-2.083-.083-4.042.042-5.875.375h-1c-1.5-.333-2.75-.125-3.75.625s-1.667 1.667-2 2.75c-.333 1.083-.333 2.25 0 3.5s1.167 2.208 2.5 2.875c.5.167 1.25.25 2.25.25s2.042-.042 3.125-.125c1.083-.083 2.125-.167 3.125-.25 1-.083 1.75-.125 2.25-.125a57.39 57.39 0 0 1 6.75.875 17.08 17.08 0 0 1 6 2.375c1.333.833 2.417 1.833 3.25 3a73.215 73.215 0 0 1 2.5 3.75m92.75 8.25c.167 1.833.75 3.167 1.75 4 1 .833 2.125 1.292 3.375 1.375 1.25.083 2.375-.292 3.375-1.125s1.5-2.167 1.5-4c0-2.333-.625-4.583-1.875-6.75a24.524 24.524 0 0 0-4.75-5.875 27.937 27.937 0 0 0-6.375-4.375c-2.333-1.167-4.667-2-7-2.5-3.5-.5-7.125-.583-10.875-.25-3.75.333-7.208 1.25-10.375 2.75-1.667.833-2.625 1.917-2.875 3.25s-.083 2.542.5 3.625c.583 1.083 1.542 1.917 2.875 2.5s2.75.458 4.25-.375l.5-.25c.167 0 .333-.083.5-.25 1.167-.5 2.625-.875 4.375-1.125s3.542-.333 5.375-.25c1.833.083 3.583.292 5.25.625 1.667.333 3 .833 4 1.5 1 .833 2.333 1.958 4 3.375 1.667 1.417 2.5 2.792 2.5 4.125"/><path id="h" d="M620.364 175.25c-4.333.333-8.542.458-12.625.375a632.568 632.568 0 0 1-12.375-.375h-11.5c-4.5 0-8.917-.208-13.25-.625-4.333-.417-8.333-1.25-12-2.5s-6.167-3.292-7.5-6.125c-1.833-3.833-2.625-8.042-2.375-12.625s1.542-8.542 3.875-11.875c2.333-2.833 5-4.5 8-5 1.667-.333 3.333-.708 5-1.125 1.667-.417 3.333-.792 5-1.125a546.214 546.214 0 0 1-.75-43.625c.333-14.417.25-28.958-.25-43.625-3 .167-6.125-.042-9.375-.625s-5.958-2.042-8.125-4.375c-2.333-2.333-3.875-4.917-4.625-7.75s-.875-5.625-.375-8.375 1.667-5.333 3.5-7.75 4.167-4.375 7-5.875c3.333-1.833 6.792-3.125 10.375-3.875a95.04 95.04 0 0 1 10.875-1.625 168.594 168.594 0 0 1 23.375-.375c7.75.417 15.625.958 23.625 1.625 3 .167 6.042.542 9.125 1.125s5.792 1.792 8.125 3.625c2.833 2.333 4.833 5.5 6 9.5 1.167 4 1.333 7.833.5 11.5a29.91 29.91 0 0 1-1.375 4.125 9.449 9.449 0 0 1-2.625 3.625 22.939 22.939 0 0 1-9.75 5.125 72.283 72.283 0 0 1-11 1.875 848.396 848.396 0 0 1-.625 43.75 588.89 588.89 0 0 0-.125 43.75c1.833 0 3.75.083 5.75.25 2 .167 3.917.667 5.75 1.5 1.833.833 3.5 2.083 5 3.75a20.98 20.98 0 0 1 3.625 5.625c.917 2.083 1.5 4.25 1.75 6.5s.125 4.375-.375 6.375c-.667 2.5-1.792 4.917-3.375 7.25s-3.542 4-5.875 5c-2.5 1-5.083 1.708-7.75 2.125a86.227 86.227 0 0 1-8.25.875m15.25-142.5c1.833 1.5 3.75 1.583 5.75.25s2.75-3.167 2.25-5.5c-.167-.333-.458-1.083-.875-2.25s-.708-1.917-.875-2.25c-1-2-2.417-3.75-4.25-5.25-1.833-1.5-3.75-2.667-5.75-3.5a31.104 31.104 0 0 0-6.625-1.75c-2.25-.333-4.542-.667-6.875-1l-3.5-.5a24.719 24.719 0 0 0-3.5-.25c-1.167 0-2.292.042-3.375.125a7.874 7.874 0 0 1-3.125-.375c-1.333-.167-2.5 0-3.5.5s-1.75 1.25-2.25 2.25-.625 2.083-.375 3.25c.25 1.167.875 2.167 1.875 3 .5.333 1.333.583 2.5.75 1.167.167 2.417.292 3.75.375 1.333.083 2.625.167 3.875.25 1.25.083 2.208.125 2.875.125.5 0 1.333.083 2.5.25 1.167.167 2.375.333 3.625.5 1.25.167 2.458.333 3.625.5 1.167.167 2 .333 2.5.5.667.167 1.792.667 3.375 1.5s2.542 1.5 2.875 2c.833.833 1.375 1.917 1.625 3.25s.875 2.417 1.875 3.25"/></defs><g fill="none" fill-rule="evenodd"><path fill="url(#a)" d="M0 0h1024v1024H0z"/><g fill-rule="nonzero"><g transform="translate(192.184 756.25)"><use xlink:href="#b" fill="#FE042C"/><use xlink:href="#b" fill="url(#c)"/></g><g transform="translate(192.184 756.25)"><use xlink:href="#d" fill="#FE042C"/><use xlink:href="#d" fill="url(#e)"/></g><g transform="translate(192.184 756.25)"><use xlink:href="#f" fill="#FE042C"/><use xlink:href="#f" fill="url(#g)"/></g><g transform="translate(192.184 756.25)"><use xlink:href="#h" fill="#FE042C"/><use xlink:href="#h" fill="url(#e)"/></g></g><g stroke-width=".782"><path fill="#52B54B" stroke="#52B54B" d="m510.816 92 1.663 1.675L514.243 92l133.539 152.562 23.238-18.329L824 402.66 671.02 536.214l18.45 25.406L510.815 716l-130.23-154.38-26.49 19.085L202 402.66l154.051-132.162a1280.164 1280.164 0 0 1-22.777-25.935z"/><path fill="#FFEC79" stroke="#FFEB6F" d="m588 305.482-51.333 88.743h55.864L433.707 590.58l49.232-147.31h-42.983l37.398-75.163 31.27-62.626H588Z"/><path fill="#FFDD09" stroke="#FFDD09" d="m588 305.482-51.333 88.743h33.858L433.88 590.064l49.059-146.793h-24.417l69.94-137.79H588Z"/><path fill="#FEC608" stroke="#FEC608" d="M592.53 394.225 439.309 583.657l132.258-189.432h20.965Z"/></g></g></svg>