<svg xmlns="http://www.w3.org/2000/svg" width="1024" height="1024"><g fill="none" fill-rule="evenodd"><path fill="#ECF3FC" d="M0 0h1024v1024H0z"/><circle cx="512" cy="512" r="98" fill="#0062BE" fill-rule="nonzero"/><g stroke-width="70"><path stroke="#A6C7EA" d="M167 512c0-190.538 154.462-345 345-345s345 154.462 345 345-154.462 345-345 345"/><path stroke="#A6C7EA" d="M291.914 512c0-121.55 98.536-220.086 220.086-220.086 121.55 0 220.086 98.536 220.086 220.086 0 121.55-98.536 220.086-220.086 220.086"/><path stroke="#0062BE" d="M512 167c190.538 0 345 154.462 345 345M512 291.914c121.55 0 220.086 98.536 220.086 220.086"/></g></g></svg>