<svg xmlns="http://www.w3.org/2000/svg" width="1024" height="1024"><g fill="none" fill-rule="nonzero"><path fill="#3DBE71" d="M1024 1024V0H0v1024z"/><g fill="#1D1E1F"><path d="M654.256 311.65c-33.13-53.421-142.05-62.702-206.722-67.908l-16.564-1.585h24.28c93.262-3.622 380.539-14.487 403.004 90.544 6 31.041 2.112 63.177-11.12 91.903H648.81c0-4.301 2.269-9.055 3.63-14.487 7.942-30.333 18.834-71.078 1.816-98.467"/><path d="m161 831.159 251.242-561.281s58.05 2.95 94.783 8.398a210.287 210.287 0 0 1 86.62 27.008L521.084 467.11h111.562l-58.729 134.136H465.076L361.903 831.159H161"/></g></g></svg>