<svg xmlns="http://www.w3.org/2000/svg" width="1025" height="1024"><g fill="none" fill-rule="evenodd"><path fill="#FFF" d="M.633 0h1024v1024H.633z"/><path fill="#609926" fill-rule="nonzero" d="M252.972 267c-61.427-.139-143.703 43.546-139.158 153.066 7.09 171.078 163.803 186.943 226.428 188.34C347.11 640.499 420.822 751.19 475.38 757h239.04c143.352-10.642 250.7-484.971 171.12-486.759-131.616 6.927-209.625 10.418-276.494 11.033v148.035l-20.852-10.306-.124-137.641c-76.783-.028-144.35-4.022-272.649-11.085-16.055-.112-38.429-3.156-62.45-3.24l.001-.037m8.69 60.528h7.317c8.714 87.704 22.897 138.986 51.613 217.334-73.237-9.688-135.562-33.49-147.024-122.34-5.919-46.003 14.057-93.989 88.093-94.994h.001m284.909 86.196c5.129.022 10.198 1.24 14.882 3.578l24.945 12.039-17.878 36.45h-.175c-2.727 0-5.435.5-8.016 1.484l.15-.056c-8.715 3.184-14.807 11.34-14.807 20.92a21.788 21.788 0 0 0 1.373 7.68l-.05-.167a21.838 21.838 0 0 0 3.77 6.508l-.024-.028-30.838 62.79a22.39 22.39 0 0 0-7.542 1.452l.15-.056c-8.715 3.184-14.807 11.34-14.807 20.92a21.788 21.788 0 0 0 1.373 7.681l-.05-.168c3.2 8.659 11.412 14.72 21.05 14.72 2.629.01 5.242-.453 7.74-1.368l-.15.056c8.69-3.184 14.783-11.34 14.783-20.92a22.23 22.23 0 0 0-1.398-7.738l.05.168c-1.164-3.15-2.967-5.951-5.269-8.184l30.04-61.142c.789.092 1.58.138 2.373.14a22.523 22.523 0 0 0 7.541-1.285l-.15.056a22.798 22.798 0 0 0 7.117-4.19l-.025.029c11.587 5.446 21.075 9.862 27.892 13.63 10.263 5.673 13.883 9.413 14.981 13.603 1.099 4.102-.1 11.983-5.892 25.835-4.32 10.307-11.487 24.943-19.951 42.204h-.5a22.384 22.384 0 0 0-8.015 1.484l.15-.056c-8.715 3.184-14.808 11.34-14.808 20.92a21.788 21.788 0 0 0 1.374 7.681l-.05-.167c3.199 8.659 11.411 14.72 21.049 14.72 2.63.008 5.243-.454 7.741-1.369l-.15.056c8.69-3.184 14.783-11.34 14.783-20.92.008-2.638-.46-5.25-1.374-7.681l.05.167c-1.045-2.837-2.6-5.404-4.57-7.541l.026.027c8.363-17.073 15.554-31.736 20.17-42.77 6.267-14.97 9.514-26.116 6.667-36.869-2.848-10.753-11.662-17.764-23.298-24.216-7.666-4.217-17.204-8.687-28.64-14.052.024-.419.05-.922.05-1.396-.001-2.625-.46-5.224-1.349-7.653l.05.167c-1.092-2.958-2.744-5.617-4.844-7.792l17.579-35.864 97.362 47.038c17.58 8.52 24.846 29.413 16.308 46.924l-66.922 137.059c-8.565 17.456-29.565 24.692-47.144 16.2L463.72 617.874c-17.579-8.492-24.87-29.414-16.308-46.925l66.923-137.005c5.867-12.039 17.653-19.189 30.139-19.747l2.098-.473"/></g></svg>