<svg xmlns="http://www.w3.org/2000/svg" width="1024" height="1024"><g fill="none" fill-rule="evenodd"><path fill="#FFF" d="M0 0h1024v1024H0z"/><path fill="#C71D23" fill-rule="nonzero" d="M512 882c-204.345 0-370-165.655-370-370s165.655-370 370-370 370 165.655 370 370-165.655 370-370 370m187.273-411.123H489.166c-10.1 0-18.289 8.188-18.289 18.289v45.668c0 10.096 8.193 18.289 18.236 18.289h127.914c10.149 0 18.289 8.193 18.289 18.236v9.144c0 30.287-24.526 54.813-54.813 54.813H406.92c-10.06-.03-18.207-8.177-18.236-18.236V443.497c0-30.287 24.526-54.813 54.76-54.813h255.829c10.043 0 18.236-8.193 18.236-18.288v-45.669c0-10.08-8.156-18.26-18.236-18.288H443.444A137.006 137.006 0 0 0 306.44 443.497v255.776c0 10.096 8.192 18.288 18.288 18.288h269.466A123.316 123.316 0 0 0 717.56 594.246v-105.08c0-10.1-8.188-18.289-18.288-18.289"/></g></svg>