<svg xmlns="http://www.w3.org/2000/svg" width="1024" height="1024"><g fill="none" fill-rule="evenodd"><path fill="#000" d="M0 0h1024v1024H0z"/><path fill="#FFF" d="M512.365 219.504c-165.749 0-299.998 134.25-299.998 299.999 0 132.75 85.874 244.873 205.124 284.625 15 2.626 20.624-6.378 20.624-14.25 0-7.124-.374-30.752-.374-55.876-75.375 13.875-94.875-18.375-100.875-35.25-3.375-8.625-18-35.25-30.75-42.375-10.5-5.625-25.5-19.5-.375-19.875 23.625-.375 40.5 21.75 46.125 30.75 27 45.375 70.125 32.625 87.374 24.75 2.625-19.5 10.5-32.625 19.125-40.125-66.75-7.5-136.499-33.375-136.499-148.125 0-32.624 11.625-59.624 30.75-80.624-3-7.5-13.5-38.25 3-79.5 0 0 25.124-7.874 82.5 30.75 24-6.75 49.5-10.124 75-10.124 25.499 0 50.999 3.375 74.998 10.124 57.375-39 82.5-30.75 82.5-30.75 16.5 41.25 6 72 3 79.5 19.125 21 30.75 47.625 30.75 80.624 0 115.125-70.125 140.625-136.874 148.125 10.874 9.375 20.25 27.375 20.25 55.5 0 40.124-.375 72.37-.375 82.502 0 7.87 5.625 17.249 20.625 14.25a300.518 300.518 0 0 0 147.968-109.441 300.554 300.554 0 0 0 56.409-175.185c0-165.75-134.253-299.999-300.002-299.999Z"/></g></svg>