<svg xmlns="http://www.w3.org/2000/svg" width="1024" height="1024"><g fill="none" fill-rule="evenodd"><path fill="#FFF" d="M0 0h1024v1024H0z"/><g fill-rule="nonzero"><path fill="#00832D" d="M530.937 298.851v170.217c0 10.497 8.51 19.006 19.007 19.006h170.217c0-52.207-11.633-108.939-45.965-143.27-34.331-34.332-91.063-45.953-143.259-45.953m185.53 563.976c-79.43 13.04-175.605-10.501-267.799-65.536l30.916-68.94 70.072-32.313 109.792 62.698 57.02 104.091M165.544 311.903c-13.052 79.43 10.213 175.594 65.536 267.857l70.891-33.247 30.362-68.086-59.558-97.307-107.23-69.217Z"/><path fill="#34A853" d="M559.315 157c-15.65.05-28.322 12.728-28.366 28.377v113.474c104.392 0 189.258 84.82 189.258 189.258H833.68c15.626-.076 28.268-12.739 28.319-28.366C862 292.608 726.392 157 559.315 157m275.739 640.58c15.025-14.279 15.66-38.024 1.42-53.085L699.733 598.71c-14.826-14.17-38.252-13.92-52.772.566l-97.018 96.74 166.524 166.478c45.11-6.52 78.865-25.815 109.504-56.454l9.082-8.46"/><path fill="#34A853" d="M231.356 579.76c24.962 41.418 58.162 83.089 95.887 120.848 37.725 37.76 80.285 71.549 121.702 96.452l101.276-100.987-217.866-217.646m72.91-70.614 15.568-15.002c18.43-18.622 18.43-48.612 0-67.233L292.357 197.01c-18.623-18.439-48.62-18.439-67.244 0l-4.535 3.115c-29.785 29.785-47.66 68.364-55.035 111.778l166.812 166.524 72.91-70.614"/></g></g></svg>