<svg xmlns="http://www.w3.org/2000/svg" width="1024" height="1024"><g fill="none" fill-rule="nonzero"><path fill="#000" d="M1024 1024V0H0v1024z"/><path fill="#FFF" d="M407.819 251.124c107.94 108.97 109.999 112.002 104.908 149.698-4.062 39.699-4.062 39.699 182.302 229.096 102.85 103.879 187.393 194.488 187.393 201.637 0 28.488-22.422 51.94-47.877 51.94-21.393 0-66.184-38.67-215.882-187.394C456.725 535.192 426.18 509.737 410.906 517.915c-33.579 19.335-61.092 1.03-169.033-106.911-80.482-80.482-103.879-110-98.788-124.243 6.12-15.273 20.365-4.062 87.577 62.121l81.456 80.428 22.423-22.423 22.422-22.422-79.453-80.373c-52.968-53.997-75.336-82.486-67.212-87.577 8.124-5.09 40.728 21.394 90.61 70.246l77.394 77.394 23.397-22.422 22.422-23.397-77.394-77.394c-67.213-68.242-85.519-100.846-57.03-100.846 4.061 0 57.03 49.935 118.122 111.028"/></g></svg>