<svg xmlns="http://www.w3.org/2000/svg" width="1024" height="1024"><g fill="none" fill-rule="evenodd"><path fill="#4E8EF5" fill-rule="nonzero" d="M0 0h1024v1024H0z"/><path fill="#FFF" d="M268 308c18-21 63-72 169-99 79-15 104-18 184-7 57 10 96 34 110 48 15 14 17 38 4 54-9 10-22 16-47 12-21-4-45-17-71-22-35-9-70.29-10.922-94.271-8.3C463 291 403 319 370 373c-45 68-38 166-29 214 11 41 32 103 108 131 51 19 146.402 20.618 195-6 48-23 78-84 44-133-13.542-20.063-55-39-116-40-66-7-70-23-73-28-3.395-5.568-5-18-1-27 2.069-6.483 6.736-12.483 14-18 12-6.667 29.333-11.333 52-14 16-2 16-3 66-3 49 3 49 3 97 16 45 18 58 31 79 58 11 16 36 68 16 147-7 24-22 104-155 143-116 29-227 20-302-12-35.382-15.36-106-51-143-162-10.753-28.863-25.337-111.87-15-188 7.928-58.388 33-112 61-143"/></g></svg>