<svg xmlns="http://www.w3.org/2000/svg" width="1024" height="1024"><g fill="none" fill-rule="evenodd"><path fill="#C32C35" d="M0 0h1024v1024H0z"/><path fill="#FFF" d="M274.75 261h78.5c6.854-.226 11.771 1.607 14.75 5.5 2.979 3.893 4.312 10.226 4 19V460h280.25V279.25c.932-5.433 3.015-9.683 6.25-12.75s7.568-4.9 13-5.5h77.75c6.98.655 11.73 2.488 14.25 5.5 2.52 3.012 4.603 9.345 6.25 19V742c-1.287 7.77-3.37 13.27-6.25 16.5-2.88 3.23-7.63 5.397-14.25 6.5H683c-11.717-.88-19.884-3.047-24.5-6.5s-6.7-8.953-6.25-16.5V562.5H372V742c-.453 8.284-1.786 13.784-4 16.5-2.214 2.716-7.13 4.883-14.75 6.5h-78.5c-7.183-.47-12.35-2.636-15.5-6.5-3.15-3.864-4.233-9.364-3.25-16.5V285.5c-.111-9.69.972-16.024 3.25-19 2.278-2.976 7.445-4.81 15.5-5.5"/></g></svg>