<svg xmlns="http://www.w3.org/2000/svg" width="1024" height="1024"><g fill="none" fill-rule="evenodd"><path fill="#FFF" d="M0 0h1024v1024H0z"/><g fill="#C32C35" fill-rule="nonzero"><path d="M171.36 509.96c-.587 11.733-.44 28.6.44 50.6 0 1.467.513 3.52 1.54 6.16 1.027 2.64 1.54 4.547 1.54 5.72 0 2.933-2.493 5.427-7.48 7.48-1.027.44-2.347.66-3.96.66-4.84 0-9.973-1.32-15.4-3.96-6.453-3.08-9.68-6.747-9.68-11 0-1.907.697-4.4 2.09-7.48 1.393-3.08 2.75-6.087 4.07-9.02v-37.84l-29.48 6.16c0 7.187.073 17.307.22 30.36.147 13.053.22 19.653.22 19.8 0 1.76.477 4.473 1.43 8.14.953 3.667 1.43 6.307 1.43 7.92 0 2.933-.99 5.317-2.97 7.15-1.98 1.833-4.657 2.75-8.03 2.75-3.52 0-7.113-.953-10.78-2.86-3.667-1.907-6.123-3.85-7.37-5.83-1.247-1.98-1.87-3.41-1.87-4.29 0-.293.587-1.833 1.76-4.62 0-6.307-.073-16.573-.22-30.8-.147-14.227-.22-23.32-.22-27.28-.147-.44-1.907-3.593-5.28-9.46-2.053-3.373-2.787-6.527-2.2-9.46.293-1.613 1.173-2.933 2.64-3.96l4.4-3.08c-.44-34.907-.293-58.52.44-70.84-1.32-2.64-1.98-4.767-1.98-6.38 0-3.227 2.273-5.94 6.82-8.14 1.907-.88 4.62-1.32 8.14-1.32 11.44 0 18.407 3.08 20.9 9.24.44 1.173.66 2.273.66 3.3 0 2.053-1.283 5.097-3.85 9.13s-3.85 7.37-3.85 10.01c-.88 23.467-1.027 40.92-.44 52.36 14.373-2.493 23.907-4.4 28.6-5.72-1.32-17.893-1.173-38.867.44-62.92-1.32-3.667-1.98-6.673-1.98-9.02 0-4.4 2.713-7.993 8.14-10.78 1.173-.587 2.86-.88 5.06-.88 5.133 0 10.12 1.247 14.96 3.74 5.573 2.933 8.433 6.673 8.58 11.22.147 2.053-1.137 4.62-3.85 7.7s-4.07 5.793-4.07 8.14c-.293 21.12-.147 38.867.44 53.24 2.347 1.907 4.73 4.693 7.15 8.36s3.63 6.673 3.63 9.02c0 2.347-1.247 4.107-3.74 5.28-2.493 1.173-4.84 2.273-7.04 3.3M289.867 428.56c-3.374 2.787-7.7 4.18-12.98 4.18-2.2 0-4.767-.22-7.7-.66-4.254 1.32-8.067 2.64-11.44 3.96-8.214 3.08-13.64 5.72-16.28 7.92-.88 15.253-.88 32.707 0 52.36.88-.587 3.08-1.173 6.6-1.76 1.76-3.08 4.766-4.62 9.02-4.62 4.253 0 9.203 2.053 14.85 6.16 5.646 4.107 8.47 8.14 8.47 12.1 0 1.027-.22 2.053-.66 3.08-1.76 4.4-4.474 7.187-8.14 8.36-2.2.733-5.427.917-9.68.55-4.254-.367-6.967-.257-8.14.33a713.713 713.713 0 0 1-12.32 5.72c0 13.2.44 21.707 1.32 25.52 6.16-1.467 11.293-3.227 15.4-5.28a48.52 48.52 0 0 1 2.2-2.86c1.466-1.613 4.106-2.273 7.92-1.98 4.106.293 8.36 2.64 12.76 7.04s6.6 8.873 6.6 13.42c0 3.96-1.687 6.893-5.06 8.8-3.374 1.907-9.02 2.567-16.94 1.98l-20.68 10.34c-.88.44-2.787 1.907-5.72 4.4-2.2 1.907-4.18 2.86-5.94 2.86-.587 0-1.247-.073-1.98-.22-7.774-2.347-14.814-8.433-21.12-18.26-.44-.733-.66-1.613-.66-2.64 0-.44.806-3.373 2.42-8.8-1.614-42.68-1.907-88.147-.88-136.4-1.027-1.467-1.54-2.933-1.54-4.4 0-4.84 4.473-7.92 13.42-9.24 1.906-.293 4.326.22 7.26 1.54 1.906 1.027 3.74 1.98 5.5 2.86l26.4-8.36c.586-.147 2.273-1.027 5.06-2.64 1.906-1.173 4.106-1.76 6.6-1.76 1.173 0 2.566.147 4.18.44 3.226.587 6.416 3.117 9.57 7.59 3.153 4.473 4.73 8.69 4.73 12.65 0 2.493-.807 4.4-2.42 5.72M406.393 431.2c-1.613 3.08-5.06 4.62-10.34 4.62-6.893 0-10.926.22-12.1.66-5.426 2.347-11.733 4.987-18.92 7.92-.44 11.147-.66 23.393-.66 36.74 0 27.133.807 54.927 2.42 83.38 0 2.053.77 4.73 2.31 8.03 1.54 3.3 2.31 5.683 2.31 7.15 0 1.907-.66 3.667-1.98 5.28-3.226 4.4-8.066 6.6-14.52 6.6-5.573 0-10.89-1.503-15.95-4.51-5.06-3.007-7.956-6.563-8.69-10.67-.44-2.2.697-4.693 3.41-7.48 2.714-2.787 4.07-5.427 4.07-7.92-1.026-29.187-1.54-54.707-1.54-76.56 0-13.2.22-23.76.66-31.68-.146 0-2.2.733-6.16 2.2-2.64 1.027-4.766 1.54-6.38 1.54-2.346 0-4.473-.807-6.38-2.42-4.693-3.96-7.626-6.6-8.8-7.92-2.346-2.64-3.52-5.427-3.52-8.36 0-1.027.147-2.2.44-3.52.44-2.053 11.147-6.233 32.12-12.54 22.587-6.893 34.76-10.927 36.52-12.1 1.614-.587 3.41-1.907 5.39-3.96 1.98-2.053 4.144-3.227 6.49-3.52 3.227-.293 7.48 1.833 12.76 6.38 5.867 5.133 8.8 10.487 8.8 16.06 0 2.2-.586 4.4-1.76 6.6M542.06 427.24c-1.467 2.2-4.51 3.96-9.13 5.28-4.62 1.32-7.59 3.08-8.91 5.28L452.3 555.28h38.72c2.053 0 4.473-1.21 7.26-3.63s5.5-3.557 8.14-3.41c6.453.44 11.807 2.86 16.06 7.26 4.253 4.4 6.38 9.24 6.38 14.52 0 6.013-2.64 10.707-7.92 14.08-1.32.88-2.787 1.32-4.4 1.32-1.76 0-4.73-.697-8.91-2.09-4.18-1.393-7.517-2.09-10.01-2.09h-58.08c-1.613 0-3.96.623-7.04 1.87s-5.28 1.723-6.6 1.43c-4.547-.88-8.36-3.813-11.44-8.8-2.64-4.547-3.96-9.46-3.96-14.74 0-2.787.477-5.17 1.43-7.15.953-1.98 3.3-3.593 7.04-4.84 3.74-1.247 6.197-2.823 7.37-4.73l66.44-110-36.08 4.84c-1.467.147-3.447.843-5.94 2.09-2.493 1.247-4.547 1.87-6.16 1.87-1.467 0-3.153-.44-5.06-1.32-6.6-3.227-9.9-9.533-9.9-18.92 0-4.547 1.027-7.847 3.08-9.9s4.4-3.08 7.04-3.08c1.027 0 3.007.293 5.94.88 2.933.587 5.28.807 7.04.66l59.4-5.28c1.76-.147 3.887-1.32 6.38-3.52s4.767-3.227 6.82-3.08c3.667.293 7.59 3.08 11.77 8.36 4.18 5.28 6.27 10.193 6.27 14.74 0 1.76-.44 3.3-1.32 4.62M684.107 567.16c-.294 5.28-2.127 9.717-5.5 13.31-3.374 3.593-7.554 5.243-12.54 4.95-12.467-.733-20.974-6.82-25.52-18.26-.734-1.76-1.174-4.62-1.32-8.58-.294-3.52-1.027-6.38-2.2-8.58-5.427-8.36-10.414-16.427-14.96-24.2-11.147-18.773-19.36-34.467-24.64-47.08-.587 14.96.586 43.12 3.52 84.48 0 .88.733 2.86 2.2 5.94 1.466 3.08 2.2 5.647 2.2 7.7 0 2.64-.88 5.06-2.64 7.26-2.494 3.227-6.234 4.84-11.22 4.84-5.28 0-10.45-1.65-15.51-4.95-5.06-3.3-7.884-7.15-8.47-11.55-.44-3.52.513-6.233 2.86-8.14 2.346-1.907 3.446-3.593 3.3-5.06l-6.6-134.64c0-.733-.147-1.833-.44-3.3-.294-1.467-.44-2.567-.44-3.3 0-2.2 1.136-3.96 3.41-5.28 2.273-1.32 5.463-1.98 9.57-1.98 11 0 18.846 2.86 23.54 8.58 1.32 1.467 1.98 3.227 1.98 5.28 0 .88-.147 2.053-.44 3.52-.294 1.467-.44 2.493-.44 3.08 0 .44.073.88.22 1.32 2.933 14.96 18.333 46.347 46.2 94.16l-2.64-107.36c0-1.32-.514-2.787-1.54-4.4-1.027-1.613-1.54-2.86-1.54-3.74 0-1.907 1.466-4.327 4.4-7.26 1.613-1.76 4.106-2.64 7.48-2.64 5.426 0 11 1.907 16.72 5.72 5.72 3.813 8.653 7.92 8.8 12.32.146 2.787-.99 4.987-3.41 6.6-2.42 1.613-3.63 3.227-3.63 4.84l3.08 120.56c0 2.053 1.063 4.657 3.19 7.81 2.126 3.153 3.116 5.83 2.97 8.03M793.153 428.56c-3.373 2.787-7.7 4.18-12.98 4.18-2.2 0-4.766-.22-7.7-.66-4.253 1.32-8.066 2.64-11.44 3.96-8.213 3.08-13.64 5.72-16.28 7.92-.88 15.253-.88 32.707 0 52.36.88-.587 3.08-1.173 6.6-1.76 1.76-3.08 4.767-4.62 9.02-4.62 4.254 0 9.204 2.053 14.85 6.16 5.647 4.107 8.47 8.14 8.47 12.1 0 1.027-.22 2.053-.66 3.08-1.76 4.4-4.473 7.187-8.14 8.36-2.2.733-5.426.917-9.68.55-4.253-.367-6.966-.257-8.14.33a713.713 713.713 0 0 1-12.32 5.72c0 13.2.44 21.707 1.32 25.52 6.16-1.467 11.294-3.227 15.4-5.28a48.52 48.52 0 0 1 2.2-2.86c1.467-1.613 4.107-2.273 7.92-1.98 4.107.293 8.36 2.64 12.76 7.04s6.6 8.873 6.6 13.42c0 3.96-1.686 6.893-5.06 8.8-3.373 1.907-9.02 2.567-16.94 1.98l-20.68 10.34c-.88.44-2.786 1.907-5.72 4.4-2.2 1.907-4.18 2.86-5.94 2.86-.586 0-1.246-.073-1.98-.22-7.773-2.347-14.813-8.433-21.12-18.26-.44-.733-.66-1.613-.66-2.64 0-.44.807-3.373 2.42-8.8-1.613-42.68-1.906-88.147-.88-136.4-1.026-1.467-1.54-2.933-1.54-4.4 0-4.84 4.474-7.92 13.42-9.24 1.907-.293 4.327.22 7.26 1.54 1.907 1.027 3.74 1.98 5.5 2.86l26.4-8.36c.587-.147 2.274-1.027 5.06-2.64 1.907-1.173 4.107-1.76 6.6-1.76 1.174 0 2.567.147 4.18.44 3.227.587 6.417 3.117 9.57 7.59 3.154 4.473 4.73 8.69 4.73 12.65 0 2.493-.806 4.4-2.42 5.72M944.66 568.48c.147.88.22 1.687.22 2.42 0 4.4-2.567 8.103-7.7 11.11-5.133 3.007-10.487 4.51-16.06 4.51-3.373 0-6.087-.66-8.14-1.98-1.467-.88-2.75-2.603-3.85-5.17-1.1-2.567-2.31-4.29-3.63-5.17l-48.62-32.56 1.98 20.24c.147 1.027 1.283 3.153 3.41 6.38 2.127 3.227 3.19 5.94 3.19 8.14 0 3.227-2.053 6.233-6.16 9.02-2.493 1.76-5.647 2.64-9.46 2.64-5.427 0-10.487-1.467-15.18-4.4-5.133-2.933-8.213-6.673-9.24-11.22-.147-.88-.22-1.613-.22-2.2 0-2.053.99-3.85 2.97-5.39 1.98-1.54 2.97-2.97 2.97-4.29l-7.04-125.4c-.147-1.907-.953-4.437-2.42-7.59-1.467-3.153-2.2-5.463-2.2-6.93 0-3.813 2.493-6.893 7.48-9.24 4.107-2.053 8.287-3.08 12.54-3.08 2.787 0 5.207.403 7.26 1.21 2.053.807 3.447 2.053 4.18 3.74.733 1.687 1.613 2.53 2.64 2.53.147.147 4.62-1.467 13.42-4.84 10.267-3.813 19.287-5.72 27.06-5.72 11.293 0 20.387 3.96 27.28 11.88 1.907 2.2 2.86 5.28 2.86 9.24 0 10.707-6.16 25.813-18.48 45.32-11.733 18.333-23.833 33-36.3 44l56.76 39.6c.147.147 3.813 1.907 11 5.28 4.107 1.907 6.6 4.547 7.48 7.92M885.7 431.86c-3.227 0-8.36 3.08-15.4 9.24-1.467 1.173-6.893 6.233-16.28 15.18l-.44 39.38c9.093-9.973 17.307-21.083 24.64-33.33 7.333-12.247 11-21.01 11-26.29 0-2.787-1.173-4.18-3.52-4.18"/></g></g></svg>