<svg xmlns="http://www.w3.org/2000/svg" width="1024" height="1024"><g fill="none" fill-rule="evenodd"><path fill="#FFF" d="M0 0h1024v1024H0z"/><path fill="#0E83CD" d="m511 87 379.554 206.634V719.16L516.211 939.692 141.868 734V293.634z"/><path fill="#FFF" fill-rule="nonzero" d="M554.802 712.8H551.4v-3.03h3.4v3.03m-3.401 7.874h-2.267v-3.029h2.267zm-162.11-31.498h-2.268v-3.029h2.267v3.029M794 326.95c-3.779 6.46-12.092 9.691-24.94 9.691-1.512 0-4.535-1.211-9.07-3.634-4.534-2.423-7.935-4.038-10.202-4.846-.756-4.442-1.89-6.663-3.4-6.663-1.512 0-2.835.202-3.969.606-1.133.404-2.456.605-3.967.605-5.29 0-12.848-2.019-22.673-6.057-.756-2.423 2.267-6.865 9.069-13.326 1.511-2.423 4.534-6.057 9.07-10.903 3.022-1.615 6.045-2.423 9.068-2.423 6.046 0 13.226 1.312 21.54 3.937 8.313 2.625 12.847 6.158 13.603 10.6-1.511 1.212-1.511 2.827 0 4.846 1.512 2.827 2.267 4.442 2.267 4.846 0 .404-1.133 1.615-3.4 3.635-2.268 2.019-3.402 3.432-3.402 4.24v3.028c1.512 0 3.401-.403 5.669-1.211 2.267-.808 3.778-1.212 4.534-1.212 2.268 0 5.668 1.414 10.203 4.24m-147.373-5.452c-7.558 4.442-13.604 6.663-18.139 6.663h-6.801c-.756-3.634-2.268-5.452-4.535-5.452h-4.534c4.534-1.211 7.557-3.23 9.069-6.057l4.534 1.817c-.756 0 2.267-1.211 9.07-3.634h6.801c0 .808 1.512 3.029 4.535 6.663m3.4 9.086-2.267 3.634-5.668-5.451c3.023 0 5.668.605 7.936 1.817m4.535 24.23-10.203 1.816c0-1.615 2.268-2.826 6.802-3.634l3.401 1.817m-45.345-7.875h-2.268v-2.423h2.268v2.423m-88.424-11.51-4.535.606v-1.211l4.535-.606v1.212M665.9 495.948l-1.134.605-2.267-1.212 1.133-.605 2.268 1.211m-331.023-96.312h-3.401v-2.423h3.4v2.423m395.64-58.756c-6.802 8.077-13.226 16.96-19.272 26.652v1.818c1.512-.404 5.29-2.221 11.337-5.452 1.511.808 2.267 1.817 2.267 3.029 0 .404-3.779 8.884-11.336 25.44-4.535 4.846-10.581 11.913-18.139 21.2-3.023 7.27-9.069 17.97-18.138 32.105-2.267 2.019-4.912 4.845-7.935 8.48-10.581 20.19-18.139 36.344-22.673 48.458.755.404 2.267.606 4.534.606 3.023 0 4.913-.606 5.668-1.817 2.268-3.23 13.604-20.191 34.01-50.882 2.267-1.211 3.779-1.615 4.534-1.211-2.267 6.865-4.912 13.124-7.935 18.778-25.696 41.593-41.945 80.562-48.747 116.905l-3.4 1.818c.755-4.846 2.644-11.711 5.668-20.595l-1.134-6.663c-9.825 18.98-18.516 47.045-26.074 84.196 0 1.212-1.89 2.625-5.668 4.24-1.512 2.827-1.512 5.25 0 7.27-1.512-10.096-1.512-22.413 0-36.95.756-6.058.756-9.288 0-9.692 2.267-2.827 2.267-5.048 0-6.663 0-.404 1.511-1.413 4.535-3.029 0-.807-1.512-1.211-4.535-1.211 0-.404.756-.707 2.267-.909 1.512-.202 2.645-.505 3.401-.908-.756-.404-2.267-1.818-4.534-4.24v-3.03c.755 0 1.889.607 3.4 1.818 5.29-2.827 5.29-5.855 0-9.086 0-1.211 1.134-2.625 3.401-4.24.756-1.211 0-2.02-2.267-2.423 1.512-10.095 3.779-20.393 6.802-30.892-.756-.404-1.512-.606-2.267-.606-2.268 6.057-4.535 11.307-6.802 15.75-1.512.403-3.401 1.614-5.668 3.633-.756 4.846-1.89 8.683-3.401 11.51l2.267 1.21 4.535-2.422c-1.512 9.288-4.535 22.21-9.07 38.767 1.512 4.442 1.512 7.874 0 10.297-.755.404-3.023 1.01-6.801 1.817 2.267 2.02 4.912 3.029 7.935 3.029 0 2.019.378 3.23 1.134 3.634h-3.401c-1.512-.404-2.645-.606-3.401-.606-3.023 2.02-3.779 6.462-2.267 13.327-2.268 2.019-3.401 4.24-3.401 6.663 0 4.038 1.511 7.47 4.534 10.297 3.023-1.212 6.424-1.413 10.203-.606v6.663c-3.779-.404-6.802-1.817-9.07-4.24-.755.404-1.133.909-1.133 1.514 0 .606-.378 1.111-1.133 1.515l19.272 62.996c0 1.615-1.512 3.634-4.535 6.057-3.023-2.02-4.912-4.846-5.668-8.48-1.512-.808-3.59-2.02-6.235-3.635-2.645-1.615-4.346-3.836-5.102-6.663l-2.267-1.211v.606c0 .807-.756 1.211-2.267 1.211h-5.668c.755 2.02 1.7 5.048 2.834 9.086 1.133 4.038 2.078 7.067 2.834 9.086-3.023-.808-5.29-2.221-6.802-4.24-.756-1.212-.756-2.221 0-3.029 0-.807-.945-2.322-2.834-4.543-1.89-2.22-2.834-4.139-2.834-5.754 0-1.615-.378-4.24-1.134-7.875-3.023-5.653-6.424-14.133-10.203-25.44-.755-.808-.755-2.423 0-4.846.756-2.827 1.134-4.442 1.134-4.846 0-3.23-.378-7.47-1.134-12.72-3.778-17.365-5.668-28.066-5.668-32.104v-21.806c.756-6.461 1.134-9.894 1.134-10.298-5.29 6.865-7.558 11.913-6.802 15.144 0-2.423-1.134-5.856-3.401-10.298-2.267.404-3.4 1.817-3.4 4.24 1.51 4.038 3.4 6.663 5.667 7.875l-2.267.605c-1.512.404-2.645.606-3.4.606 0-3.23-1.135-8.278-3.402-15.143-3.023 4.442-4.534 9.49-4.534 15.143 0 .404.755 3.534 2.267 9.389 1.511 5.855 2.267 9.995 2.267 12.417 0 7.673-.756 10.096-2.267 7.27.756 1.615 2.645 7.268 5.668 16.96-2.267-.808-3.4-.808-3.4 0 0-1.616 1.889.605 5.667 6.663-2.267-1.212-3.4-.606-3.4 1.817 0 .404 2.078 4.24 6.234 11.509 4.157 7.269 6.235 11.307 6.235 12.114 0 .808-.377 1.818-1.133 3.029-.756 1.211-1.134 2.221-1.134 3.029-2.267 0-5.29-.404-9.069-1.212 3.023 0 5.668-.404 7.936-1.211-3.78-1.616-7.558-5.25-11.337-10.903v9.691c-1.511-1.211-6.802-10.297-15.87-27.258l-9.07-14.537c3.023-.808 4.535-1.413 4.535-1.817-1.512-1.212-2.646-1.817-3.401-1.817-1.512 0-2.268.605-2.268 1.817 0-.404.378-.808 1.134-1.212v-1.817c0-.404-.567-1.413-1.7-3.029-1.134-1.615-1.323-3.028-.567-4.24-6.046-3.634-9.07-7.067-9.07-10.297 0 2.019 2.268-.404 6.803-7.269l-2.268-1.211c-3.023 0-4.534.202-4.534.605 0-3.23 1.133-8.076 3.4-14.537-1.51 2.827-2.267-.606-2.267-10.297 0-6.462.378-16.557 1.134-30.287v-30.286c-1.512.807-2.267 1.817-2.267 3.028-.756-1.615.755-4.442 4.534-8.48-1.511 0-3.779-.404-6.802-1.212 3.78-6.864 4.157-11.306 1.134-13.326 0 .404 1.512-.201 4.535-1.817-.756 0-1.7-.1-2.835-.303-1.133-.202-2.078-.504-2.834-.908 0 .404-.378 1.01-1.133 1.817-.756.808-1.134 1.413-1.134 1.817-3.779-1.211-7.18-1.01-10.203.606 0-1.615-.378-2.423-1.133-2.423 1.511 0 .378.404-3.401 1.211a550.301 550.301 0 0 0-23.807 1.818c-5.29-.404-12.848.403-22.672 2.423 0 .807-1.89 2.019-5.669 3.634-.755 1.615-.378 3.23 1.134 4.846 0 6.057-1.134 14.74-3.401 26.046-1.511 6.461-3.4 15.951-5.668 28.47-1.512 5.25-2.267 24.834-2.267 58.755l3.4 14.538c.756 4.038 1.89 10.297 3.401 18.777 1.512 8.48 1.89 15.547 1.134 21.2 0 8.885 1.89 14.337 5.668 16.356l-2.267-.606c-1.512-.404-3.401.606-5.668 3.029-1.512-.404-2.645-.606-3.401-.606-.756-6.865-2.267-16.759-4.535-29.68 0-.405-.378-.607-1.133-.607.755-4.038-.756-9.49-4.535-16.354l-2.267-1.212c-6.802 12.115-10.203 16.96-10.203 14.538 0 .807 1.134 5.855 3.4 15.143 2.268 9.288 3.402 14.336 3.402 15.143v3.029c-3.023 0-4.913.202-5.668.606-3.78-6.462-6.802-19.99-9.07-40.584-.755-.808-1.889-1.818-3.4-3.029-4.535 1.615-5.669 4.644-3.401 9.086-3.023-2.827-4.535-7.673-4.535-14.538 0-6.864-1.134-12.114-3.4-15.749-2.268 0-3.59.505-3.969 1.515-.377 1.01-.566 1.716-.566 2.12-1.512-3.23-2.268-7.269-2.268-12.115l-3.4-1.211c-1.512 4.442-1.512 9.691 0 15.749.755 5.25 1.133 7.269 1.133 6.057h6.802c3.779 10.903 5.29 20.595 4.534 29.075v10.903c-3.023 0-4.912-.202-5.668-.605-.755-2.02-2.267-14.538-4.534-37.556-2.268 2.02-4.913 3.029-7.936 3.029-1.511 0-4.534-.808-9.069-2.423-.756-9.288-2.645-17.364-5.668-24.23l-2.267-.605c-.756 2.423-.378 4.24 1.133 5.452-2.267 3.634-3.023 12.114-2.267 25.44-3.779-4.442-4.535-10.7-2.267-18.777l-3.401-1.212-3.401-.606c2.267-8.076.378-26.45-5.668-55.121-2.268 1.212-4.157 1.817-5.669 1.817 0-2.019.378-5.048 1.134-9.086-.756-2.423-1.89-6.057-3.4-10.903-1.512.404-2.268 1.212-2.268 2.423.756 15.345 3.4 41.795 7.935 79.35l-2.267 5.452-7.935-49.064c-3.78 4.038-5.669 5.654-5.669 4.846 0 .808.756 1.413 2.268 1.817 0 8.077 1.133 19.182 3.4 33.315-1.51-3.634-5.668-26.248-12.47-67.841.756-6.462.756-16.355 0-29.681L302 533.503l2.267-19.383c.756-15.345 4.913-40.988 12.47-76.928 3.78-11.71 9.447-23.421 17.005-35.132l-19.272 76.928h2.267c1.512-2.02 3.78-5.25 6.802-9.692v3.634c.756 0 1.89-.807 3.401-2.422 1.512-4.039 2.267-7.067 2.267-9.086.756-.808 1.512-2.221 2.268-4.24 5.29-14.538 12.47-36.344 21.539-65.42 5.29-18.575 9.069-32.507 11.336-41.795 0 .808 1.134 1.817 3.401 3.029 1.512-2.827 4.157-6.663 7.936-11.509 0-1.615.378-4.038 1.133-7.269 12.092-15.345 35.521-28.873 70.286-40.584.756.404 1.134 1.212 1.134 2.423 0 1.212-5.29 4.341-15.871 9.39-10.581 5.047-15.871 8.58-15.871 10.6.755-.404 1.511-.606 2.267-.606s1.511-.202 2.267-.606c-1.511.808-3.4 2.019-5.668 3.634a10.64 10.64 0 0 0 2.267.909 8.752 8.752 0 0 0 2.268.303c6.046-2.423 15.493-6.26 28.34-11.51h4.535c1.512 1.616 1.134 4.04-1.133 7.27l2.267 1.211c2.267-.808 4.157-2.423 5.668-4.846.756-.807 3.023-1.211 6.802-1.211 3.023 0 7.18.606 12.47 1.817v2.423c-2.267-1.212-4.913-1.817-7.936-1.817-1.511 0-5.668 1.817-12.47 5.451 2.268.808 6.802.808 13.604 0-3.023.404-7.18 2.423-12.47 6.058h1.134c.755.403 1.89.605 3.4.605 2.268 0 6.047-1.01 11.337-3.028 0-1.212.756-2.423 2.267-3.635 3.023 2.02 8.314 5.654 15.871 10.903 1.512-.403 6.046-.605 13.604-.605 0 6.865 3.023 10.095 9.07 9.691-2.268 2.02-6.047 5.048-11.337 9.086 1.511.808 2.645 1.212 3.4 1.212.756 0 .378.606-1.133 1.817-1.512 1.211-2.267 2.02-2.267 2.423l6.802 3.634c-6.802.404-10.959 2.726-12.47 6.966-1.512 4.24-3.213 7.976-5.102 11.206-1.89 3.23-4.723 12.519-8.502 27.864l-6.802 12.72c-2.267 2.827-3.779 5.25-4.535 7.269 1.512 1.615 2.268 2.22 2.268 1.817-3.023 2.423-4.535 3.23-4.535 2.423 0 2.827 1.134 4.24 3.401 4.24h29.475c-.756.808-5.669 1.413-14.738 1.817-9.069.404-15.493 1.817-19.272 4.24 0 1.212 1.134 1.818 3.401 1.818.756 0 2.834-.202 6.235-.606 3.401-.404 5.48-.606 6.235-.606 1.512 0 1.89.202 1.134.606-.756.404-.378.606 1.134.606h7.935c3.779-.404 6.424-.606 7.936-.606h4.534c2.268-1.615 4.913-2.423 7.936-2.423 1.511 0 2.645.202 3.4.606h3.402v2.423c.755.807 1.133 1.413 1.133 1.817-15.115.404-34.387 2.625-57.815 6.663 0 .807 1.511 2.019 4.534 3.634h39.678c1.511 0 3.211-.202 5.1-.606 1.89-.403 3.59-.605 5.102-.605 5.29 0 11.715-1.01 19.272-3.029 11.337-22.614 21.54-39.978 30.608-52.093 6.802-9.691 17.383-23.017 31.742-39.978 3.023-2.423 7.18-5.855 12.47-10.297-2.267-4.039-1.133-6.865 3.401-8.48.756.403 1.7.807 2.834 1.21 1.134.405 1.7.809 1.7 1.212 1.512 0 2.268-.605 2.268-1.817 4.535 1.212 7.936 1.817 10.203 1.817.756-.403 1.323-1.01 1.7-1.817.378-.807.945-1.413 1.7-1.817 0 .808.379 1.817 1.135 3.029 8.313 3.23 12.47 5.047 12.47 5.451 0 .808-1.134 2.02-3.401 3.635.755 1.211 2.645 3.432 5.668 6.663 8.313-2.423 12.092-3.635 11.336-3.635 3.78 0 6.424.808 7.936 2.423-2.268 2.827-1.89 6.663 1.133 11.509 6.802-5.653 10.203-9.086 10.203-10.297 0-5.25-3.4-7.875-10.203-7.875-1.511 0-2.078.202-1.7.606.378.404-.189.606-1.7.606 2.267 0-2.646-2.423-14.738-7.27 1.512-1.21 1.89-3.634 1.134-7.268 4.534 0 6.424.808 5.668 2.423-.756.404-.756 1.01 0 1.817 2.267-.807 3.4-2.22 3.4-4.24l1.135 3.029c2.267.404 4.912 1.413 7.935 3.028 9.825-5.25 17.383-7.874 22.673-7.874 1.511 0 4.345 1.01 8.502 3.029 4.157 2.019 6.235 3.634 6.235 4.845 0 .808-.378 2.221-1.133 4.24-.756 2.02-1.134 3.433-1.134 4.24l-2.267-.605c-1.512 0-3.023 1.211-4.535 3.634-1.511.404-2.834 1.313-3.968 2.726-1.133 1.413-2.456 3.533-3.967 6.36l1.133 4.846c.756-.404 4.157-4.846 10.203-13.326 1.511-.808 4.157-2.02 7.935-3.634 1.512-1.616 3.78-3.837 6.802-6.663 1.512 0 2.645.201 3.401.605h3.401M555.936 534.11l-5.669 1.817-1.133-1.211 5.668-1.817 1.133 1.211m-239.199-44.824-1.133 1.817h-2.268l1.134-2.423 2.267.606M551.4 627.998c0-.404-.378-1.413-1.134-3.028-.755-1.616-.944-2.726-.567-3.332.378-.606-.566-.908-2.834-.908-2.267 0-3.4.201-3.4.605.755-.404 1.889-1.312 3.4-2.726 1.512-1.413 2.646-2.322 3.401-2.725.756 2.019 1.134 6.057 1.134 12.114m53.281 26.652c-2.267 0-5.29.404-9.07 1.212-1.51-.404-2.266-2.02-2.266-4.846.755.808 2.267 2.221 4.534 4.24 0-.404.378-.908 1.134-1.514l1.133-.909 4.535 1.817m-57.816-24.229H544.6l-2.267-2.423 2.267-.605 2.267 3.028m5.669 6.663h-2.268v-7.874h2.268v7.874m60.083 32.104h-2.268l-2.267-1.817 2.267-.606 2.268 2.423M548 643.14h-2.267v-3.03H548zm-49.88-21.807h-3.401V617.7h3.4v3.634m57.815 30.892h-2.267v-1.817h2.267v1.817m-56.682-18.171h-2.267v-2.423h2.267v2.423m2.268 6.057h-3.401v-2.423h3.4v2.423m38.544 44.824h-2.268v-1.817h2.268v1.817M350.747 584.385c0 7.672-.756 13.528-2.268 17.566 0-.808-.378-2.322-1.133-4.543-.756-2.221-1.134-3.735-1.134-4.543 0-1.212 1.512-4.038 4.535-8.48m-19.272 10.903h-3.401v-2.423h3.4v2.423m0 4.24-2.268 6.057h-2.267l2.267-6.057h2.268m-17.005-4.24h-3.4v-2.423h3.4v2.423m17.005 13.326h-3.401v-1.817h3.4v1.817m45.345 50.275h-2.267v-1.817h2.267zm14.738 14.538h-3.401v-4.846h3.4v4.846M660.23 351.179l-2.267-4.24h-2.267l1.133 4.24h3.401m45.346 86.62-2.267-.607-2.268 2.423 2.268.606 2.267-2.423M502.654 331.794h-2.267l-2.267 1.818 2.267.605zm198.387 109.637c0-.807-1.889 0-5.668 2.423v3.635c3.78-1.616 5.668-3.635 5.668-6.058M646.627 548.04l-2.268-1.212-1.133.606 2.267 1.212zm-23.807-15.143c-3.023 0-4.534.605-4.534 1.817v3.634c.755 0 2.267-1.817 4.534-5.451m-65.75 19.383c-9.07-2.423-12.47-3.634-10.204-3.634-2.267.807-3.4 2.019-3.4 3.634 0-.808.755-1.211 2.267-1.211.755 0 2.078.807 3.967 2.422a206.84 206.84 0 0 0 5.102 4.24c-1.512-2.018-.756-3.836 2.267-5.451m-53.282-17.566v-1.817h-2.267v1.817h2.267m-49.88-9.692v-3.634h-2.267v3.634h2.267m98.627 53.304v-3.634h-2.268v3.634h2.268m6.801 15.75c-.755 2.018-1.133-4.039-1.133-18.172-.756 2.019-2.268 4.643-4.535 7.874-.756-.404-1.511-.606-2.267-.606s-.945-.303-.567-.908c.378-.606-.567-1.515-2.834-2.726-.756 4.038-2.267 9.692-4.535 16.96-.755-.807-1.889-1.211-3.4-1.211v3.634c3.023-.404 6.046-1.211 9.069-2.423-.756 0-1.512-.202-2.268-.605 1.512-7.27 2.646-10.6 3.401-9.995.756.606 1.89.707 3.401.303.756.808 2.267 2.019 4.535 3.634l-2.268 1.817c1.512.808 2.646 1.616 3.401 2.423m-63.483-24.836v-2.422h-2.268v2.422h2.268m-172.314-82.985v-4.24h-2.267v4.24h2.267M613.751 658.89c-3.023 0-4.912-.403-5.668-1.211 0 .404-.756 1.211-2.267 2.423 1.511 0 3.023.808 4.534 2.423 1.512.404 2.645-.808 3.401-3.635m-282.276 16.96-3.401-9.085h-2.268l3.401 9.086h2.268"/></g></svg>