<svg xmlns="http://www.w3.org/2000/svg" width="1025" height="1024"><g fill="none" fill-rule="evenodd"><path fill="#18BCF2" d="M.633 0h1024v1024H.633z"/><path fill="#FFF" fill-rule="nonzero" d="M486.366 273.673c14.62-14.23 37.914-14.23 52.535 0l206.067 202.088a91.83 91.83 0 0 1 27.665 65.586v189.25c0 16.462-13.596 29.822-30.365 29.822H532.885v-65.421l96.993-95.123a44.756 44.756 0 0 0 14.449 2.392c24.254 0 43.913-19.256 43.913-43.037 0-23.78-19.659-43.06-43.913-43.06-24.23 0-43.89 19.28-43.89 43.06 0 4.974.852 9.711 2.44 14.164l-69.969 68.595V464.913c14.022-7.177 23.639-21.554 23.639-38.182 0-23.78-19.66-43.06-43.914-43.06-24.23 0-43.89 19.28-43.89 43.06 0 16.604 9.593 31.005 23.639 38.182v249.933l-69.992-68.594a41.852 41.852 0 0 0 2.463-14.14c0-23.781-19.659-43.061-43.913-43.061-24.231 0-43.89 19.28-43.89 43.06 0 23.781 19.659 43.038 43.89 43.038 5.068 0 9.924-.853 14.448-2.369l89.367 87.64H283.022c-16.617.156-30.22-13.181-30.389-29.799V541.324c0-24.61 9.948-48.178 27.713-65.587l206.02-202.088v.024"/></g></svg>