<svg xmlns="http://www.w3.org/2000/svg" width="1024" height="1024"><defs><linearGradient id="a" x1=".42%" x2="79.639%" y1="-2.273%" y2="89.195%"><stop offset="0%" stop-color="#CBE0F4"/><stop offset="33.133%" stop-color="#69BAE3"/><stop offset="100%" stop-color="#0064A5"/></linearGradient></defs><g fill="none" fill-rule="evenodd"><path fill="#333" d="M0 0h1024v1024H0z"/><path fill="url(#a)" d="M69.32.728h473.515c25.413-2.593 44.568 1.74 57.465 13 12.897 11.26 19.13 29.094 18.7 53.5l.05 180h-100.5v395l-258.75-217-88 72.5v-61.5H90.55v130.75l-90.5 75.25v-567.5c-.605-28.217 4.296-47.884 14.701-59C25.156 4.613 43.346-.387 69.321.728Z" transform="translate(202.95 191.272)"/><path fill="#1A6DA8" d="M722 243c0-9.25 8.5-50.5 50-50.5s50 44.5 50 50.5v195H722V243"/></g></svg>