<svg xmlns="http://www.w3.org/2000/svg" width="1024" height="1024"><defs><linearGradient id="a" x1="50%" x2="50%" y1="0%" y2="100%"><stop offset="0%" stop-color="#226496"/><stop offset="47.782%" stop-color="#5DC3E6"/><stop offset="100%" stop-color="#226496"/></linearGradient></defs><g fill="none" fill-rule="evenodd"><path fill="#FFF" d="M0 0h1024v1024H0z"/><g transform="translate(142 210.5)"><ellipse cx="370" cy="301.036" fill="url(#a)" rx="370" ry="301.036"/><path fill="#EFF7FF" d="M95.552 462.277c-24.773-64.034-34.43-131.042 24.772-229.063 39.468-65.348 109.193-98.022 209.173-98.022l-39.008 122.769h227.742l60.498-205.536c56.93 34.04 93.622 72.737 110.075 116.094 24.68 65.036 29.353 114.113-38.916 205.529-45.512 60.944-112.135 87.982-199.87 81.115l36.377-122.557H268.133l-70.74 234.75c-51.38-27.364-85.326-62.39-101.841-105.08"/></g></g></svg>