<svg xmlns="http://www.w3.org/2000/svg" width="1024" height="1024"><g fill="none" fill-rule="evenodd"><path fill="#FFF" d="M0 0h1024v1024H0z"/><path fill="#EBB951" stroke="#FCD804" d="m838.739 435.792 61.427 35.135A23.489 23.489 0 0 1 912 491.314v77.717c0 7.966-4.34 15.3-11.328 19.144l-66.146 36.38a23.01 23.01 0 0 1-22.553-.212l-58.133-33.415a31.136 31.136 0 0 1-15.63-26.991v-65.854a34.959 34.959 0 0 1 17.057-30.018l53.629-31.998a29.585 29.585 0 0 1 29.843-.275Z"/><path fill="#33BA91" stroke="#00A88A" d="m627.736 435.32 64.19 36.427a22.355 22.355 0 0 1 11.337 19.44v76.094a24.537 24.537 0 0 1-12.64 21.448l-64.195 35.64a24.141 24.141 0 0 1-23.824-.223l-57.903-33.601c-9.428-5.47-15.228-15.526-15.228-26.4v-64.868c0-13.079 6.909-25.19 18.183-31.878l53.657-31.828a26.336 26.336 0 0 1 26.428-.25h-.005Z"/><path fill="#0594CB" stroke="#0083C0" d="m418.205 433.7 64.176 37.719a21.897 21.897 0 0 1 10.801 18.76l.4 75.913a26.278 26.278 0 0 1-13.49 23.102l-63.026 35.096a24.635 24.635 0 0 1-24.377-.23l-57.935-33.722a30.108 30.108 0 0 1-14.962-26.02v-67.361a34.49 34.49 0 0 1 16.352-29.337l54.36-33.613a26.825 26.825 0 0 1 27.701-.306Z"/><path fill="#FF4088" stroke="#C9177E" d="m211.215 435.66 62.603 36.314a24.003 24.003 0 0 1 11.972 20.76v74.456a26.182 26.182 0 0 1-13.379 22.823l-62.132 34.895a26.873 26.873 0 0 1-26.527-.125l-57.219-32.849A28.91 28.91 0 0 1 112 566.868v-70.657a30 30 0 0 1 14.281-25.541l56.25-34.633a27.97 27.97 0 0 1 28.684-.377Z"/><path fill="#FFF" d="M825.487 471.558c32.11 0 58.178 26.128 58.178 58.303 0 32.187-26.069 58.309-58.178 58.309-32.103 0-58.177-26.127-58.177-58.309 0-32.175 26.074-58.303 58.177-58.303m0 21.66c20.181 0 36.56 16.423 36.56 36.643-.009 20.234-16.372 36.634-36.56 36.643-20.18 0-36.56-16.417-36.56-36.643.01-20.23 16.369-36.63 36.555-36.642h.005M670.486 528.97c0 25.826-4.883 33.353-14.643 44.109-9.76 10.756-22.704 15.092-38.832 15.092-14.747 0-26.626-5.244-36.926-14.358-11.404-10.1-19.706-25.75-19.706-43.217 0-17.172 6.401-32.012 17.745-43.064 9.951-9.672 24.763-15.973 40.034-15.973 18.444 0 37.592 8.748 49.395 26.018l-17.33 14.681c-7.346-13.701-17.99-18.316-33.218-18.754-16.838-.481-35.375 15.618-33.998 37.086.764 12.01 6.363 32.652 33.294 36.44 14.146 1.987 30.236-13.148 30.236-21.37h-26.582v-20.527h50.52v3.82l.01.017m-307.272-51.81h23.097v61.4c0 9.744.268 16.055.803 18.946.923 4.642 2.627 7.866 6.1 10.674 3.48 2.808 7.538 3.607 13.567 3.607 6.117 0 8.171-.952 11.284-3.613 3.108-2.654 4.981-5.178 5.615-9.048.628-3.87 1.676-10.291 1.676-19.257v-62.71h23.092v59.546c0 13.608-.584 23.226-1.753 28.842-1.169 5.622-3.32 10.362-6.456 14.232-3.135 3.865-7.33 6.947-12.578 9.24-5.254 2.294-12.103 3.438-20.563 3.438-10.213 0-17.952-1.248-23.223-3.75-5.276-2.502-9.448-5.748-12.507-9.744-3.064-3.995-5.08-8.183-6.051-12.568-1.41-6.492-2.12-16.082-2.12-28.765v-60.47h.017M155.447 586.932V473.502h23.677v41.317h39.28v-41.317h23.747v113.43h-23.747v-49.599h-39.28v49.6h-23.677"/></g></svg>