<svg xmlns="http://www.w3.org/2000/svg" width="1024" height="1024"><g fill="none" fill-rule="evenodd"><path fill="#0188CC" d="M0 0h1024v1024H0z"/><path fill="#FFF" fill-rule="nonzero" d="M137 382.589h48.273v40.62H137zM185.273 605.705V440.28H137v200.746h6.476c17.66 0 37.676-12.363 41.797-35.322M254.74 595.108V382h-48.274v259.027h6.476c17.66 0 37.677-16.484 41.797-45.919"/><path fill="#FFF" fill-rule="nonzero" d="M367.18 641.027h61.225L315.964 506.215 419.574 382H358.35l-72.998 87.716-30.613 36.5 30.613 36.498zM566.749 462.651v148.352h-90.07V462.651h-36.5v144.82c3.532 21.782 18.25 33.556 31.2 33.556h132.458V462.65h-37.088M818.122 559.786v-67.111c0-13.54-12.362-29.435-34.733-32.378H623.852v37.676H788.1v24.137H658.586c-22.96 3.532-34.734 18.838-34.734 32.378v51.217c.59 13.54 12.363 28.846 34.145 31.79h160.125v-77.709m-163.657 40.032v-40.032H787.51v40.032H654.465M838.138 383.177h48.273v40.62h-48.273zM887 605.705V440.28h-48.273v200.746h6.476c17.66 0 37.087-12.363 41.797-35.322M137 382.589h48.273v40.62H137zM185.273 605.705V440.28H137v200.746h6.476c17.66 0 37.676-12.363 41.797-35.322"/><path fill="#FFF" fill-rule="nonzero" d="M254.74 595.108V382h-48.274v259.027h6.476c17.66 0 37.677-16.484 41.797-45.919"/><path fill="#FFF" fill-rule="nonzero" d="M367.18 641.027h61.225L315.964 506.215 419.574 382H358.35l-72.998 87.716-30.613 36.5 30.613 36.498zM566.749 462.651v148.352h-90.07V462.651h-36.5v144.82c3.532 21.782 18.25 33.556 31.2 33.556h132.458V462.65h-37.088M818.122 559.786v-67.111c0-13.54-12.362-29.435-34.733-32.378H623.852v37.676H788.1v24.137H658.586c-22.96 3.532-34.734 18.838-34.734 32.378v51.217c.59 13.54 12.363 28.846 34.145 31.79h160.125v-77.709m-163.657 40.032v-40.032H787.51v40.032H654.465M838.138 383.177h48.273v40.62h-48.273zM887 605.705V440.28h-48.273v200.746h6.476c17.66 0 37.087-12.363 41.797-35.322"/></g></svg>