<svg xmlns="http://www.w3.org/2000/svg" width="1024" height="1024"><g fill="none" fill-rule="evenodd"><path fill="#FFF" d="M0 0h1024v1024H0z"/><g fill-rule="nonzero"><path fill="#FA2921" d="M487.492 366.763c48.513 42.973 87.61 89.024 112.77 132.425 43.216-77.33 72.093-169.218 72.457-227.742v-1.144C672.719 183.702 586.377 150 512 150s-160.719 33.703-160.719 120.302v4.673c41.457 18.44 90.598 51.39 136.211 91.788"/><path fill="#ED79B5" d="M222.945 602.094c30.336-33.662 76.877-70.142 129.397-100.984 55.874-32.797 111.761-55.71 160.814-66.196-60.183-64.842-138.643-120.564-194.203-138.942-.39-.126-.753-.238-1.08-.351-82.367-26.684-141.117 44.861-164.105 115.44-22.988 70.58-17.637 162.909 64.73 189.592l4.447 1.44"/><path fill="#FFB400" d="M870.266 409.906c-22.92-70.58-81.5-142.125-163.628-115.441-1.127.363-2.63.852-4.434 1.44-4.697 45.012-20.792 101.812-45.04 157.547-25.79 59.28-57.416 110.58-90.82 147.825 86.649 17.187 182.692 16.26 238.303-1.428.388-.126.752-.251 1.077-.351 82.128-26.696 87.463-119.024 64.542-189.592"/><path fill="#1E83F7" d="M438.478 671.372c-13.973-63.258-18.547-123.478-13.409-173.34-80.239 37.12-157.433 94.44-192.057 141.554l-.664.916c-50.778 70.025-.827 148.02 59.236 191.72 60.05 43.711 149.538 67.211 200.328-2.813.702-.954 1.629-2.234 2.744-3.778-22.67-39.255-43.045-94.793-56.178-154.26"/><path fill="#18C249" d="M791.23 635.846c-44.26 9.454-103.252 11.699-163.76 5.843-64.353-6.22-122.907-20.464-168.658-40.751 10.436 87.81 41.003 178.967 75.015 226.452l.664.915c50.762 69.942 140.22 46.47 200.265 2.809 60.032-43.66 109.98-121.565 59.218-191.494a590.77 590.77 0 0 1-2.744-3.774"/></g></g></svg>