<svg xmlns="http://www.w3.org/2000/svg" width="1024" height="1024"><defs><radialGradient id="a" cx="26.563%" cy="107.702%" r="99.107%" fx="26.563%" fy="107.702%"><stop offset="0%" stop-color="#FD5"/><stop offset="10%" stop-color="#FD5"/><stop offset="50%" stop-color="#FF543E"/><stop offset="100%" stop-color="#C837AB"/></radialGradient><radialGradient id="b" cx="-16.751%" cy="7.204%" r="44.301%" fx="-16.751%" fy="7.204%"><stop offset="0%" stop-color="#3771C8"/><stop offset="12.8%" stop-color="#3771C8"/><stop offset="100%" stop-color="#60F" stop-opacity="0"/></radialGradient></defs><g fill="none" fill-rule="nonzero"><path fill="url(#a)" d="M0 0v1024h1024V0z"/><path fill="url(#b)" d="M512.167 0H0c.16 148.708.172 263.836.035 345.385-.079 40.774 0 94.437 0 166.414 0 213.64.236 276.11 1.26 288.241 3.544 42.697 10.238 69.56 24.414 98.943 27.091 56.246 78.833 98.47 139.789 114.225 21.106 5.435 44.418 8.429 74.344 9.847 12.68.551 141.916.945 271.23.945 129.315 0 258.63-.158 270.994-.788 34.652-1.63 54.774-4.332 77.022-10.083 61.35-15.834 112.147-57.428 139.79-114.461 13.9-28.675 20.948-56.562 24.138-97.029.693-8.823.984-149.493.984-289.974 0-140.504-.315-280.915-1.008-289.738-3.229-41.12-10.278-68.77-24.627-97.997-11.773-23.924-24.847-41.79-43.826-60.059-33.873-32.36-75.298-52.055-124.66-59.176C805.96 1.237 801.195.213 678.81 0H512.167"/><path fill="#FFF" d="M511.93 133.919c-102.663 0-115.548.449-155.87 2.285-40.243 1.843-67.713 8.216-91.749 17.567-24.863 9.657-45.953 22.577-66.965 43.602-21.027 21.017-33.943 42.114-43.63 66.975-9.371 24.05-15.75 51.535-17.562 91.774-1.803 40.333-2.276 53.23-2.276 155.921 0 102.693.457 115.54 2.284 155.874 1.85 40.255 8.222 67.732 17.562 91.774 9.663 24.87 22.58 45.966 43.599 66.983 21.004 21.033 42.094 33.984 66.941 43.642 24.052 9.35 51.529 15.724 91.765 17.567 40.322 1.836 53.198 2.285 155.855 2.285 102.672 0 115.517-.45 155.839-2.285 40.243-1.843 67.744-8.216 91.796-17.567 24.855-9.658 45.914-22.609 66.918-43.642 21.027-21.017 33.943-42.113 43.63-66.975 9.293-24.05 15.672-51.535 17.562-91.774 1.811-40.333 2.284-53.19 2.284-155.882 0-102.692-.473-115.58-2.284-155.913-1.89-40.254-8.27-67.731-17.562-91.774-9.687-24.87-22.603-45.966-43.63-66.983-21.028-21.033-42.055-33.952-66.942-43.602-24.098-9.351-51.584-15.724-91.827-17.567-40.323-1.836-53.16-2.285-155.855-2.285h.118m-33.91 68.141c10.064-.016 21.294 0 33.91 0 100.933 0 112.895.363 152.753 2.174 36.857 1.686 56.86 7.846 70.186 13.022 17.64 6.854 30.218 15.046 43.44 28.28 13.232 13.235 21.422 25.84 28.29 43.485 5.174 13.313 11.34 33.322 13.018 70.19 1.81 39.86 2.205 51.834 2.205 152.746s-.394 112.886-2.205 152.746c-1.686 36.867-7.844 56.876-13.019 70.19-6.851 17.645-15.057 30.21-28.288 43.436-13.23 13.235-25.792 21.428-43.441 28.281-13.31 5.2-33.329 11.344-70.186 13.03-39.85 1.811-51.82 2.205-152.752 2.205-100.94 0-112.902-.394-152.752-2.205-36.857-1.702-56.86-7.862-70.194-13.038-17.641-6.853-30.242-15.046-43.472-28.28-13.231-13.235-21.422-25.807-28.29-43.461-5.173-13.313-11.34-33.322-13.017-70.19-1.812-39.86-2.174-51.834-2.174-152.809s.362-112.886 2.174-152.746c1.685-36.867 7.844-56.877 13.018-70.205 6.852-17.646 15.058-30.25 28.289-43.485 13.23-13.234 25.831-21.427 43.472-28.296 13.325-5.2 33.337-11.344 70.194-13.037 34.872-1.576 48.387-2.049 118.84-2.127v.094m235.695 62.785c-25.043 0-45.362 20.3-45.362 45.359 0 25.05 20.319 45.375 45.362 45.375 25.044 0 45.363-20.325 45.363-45.375 0-25.051-20.319-45.375-45.363-45.375v.016M511.931 317.86c-107.209 0-194.13 86.945-194.13 194.182 0 107.238 86.921 194.144 194.13 194.144 107.208 0 194.098-86.906 194.098-194.144 0-107.237-86.898-194.182-194.106-194.182h.008m0 68.14c69.587 0 126.007 56.428 126.007 126.042 0 69.607-56.42 126.042-126.007 126.042-69.595 0-126.007-56.435-126.007-126.042 0-69.614 56.412-126.041 126.007-126.041"/></g></svg>