<svg xmlns="http://www.w3.org/2000/svg" width="1024" height="1024"><g fill="none" fill-rule="evenodd"><path fill="#F908BB" d="M0 0h1024v1024H0z"/><g fill-rule="nonzero"><g fill="#3C3C3C" stroke="#9F9B9E" stroke-width="4"><path d="M533.518 819.72V922h-19.39V819.72h19.39ZM561.018 848.205h19.39V922h-19.39v-73.795Zm9.695-28.485c3.513 0 6.534 1.142 8.924 3.373 2.306 2.304 3.606 5.203 3.606 8.752 0 3.562-1.317 6.625-3.74 8.887-2.398 2.237-5.27 3.373-8.79 3.373-3.521 0-6.393-1.136-8.79-3.373-2.46-2.458-3.605-5.346-3.605-8.887 0-3.578 1.174-6.483 3.605-8.752 2.397-2.237 5.269-3.373 8.79-3.373ZM626.083 819.72v34.65c5.399-5.423 11.726-8.055 18.79-8.055 10.661 0 19 3.916 25.19 11.69 5.53 7.09 8.4 15.996 8.4 26.76 0 11.187-2.881 20.367-8.539 27.44-6.33 7.768-14.934 11.685-25.861 11.685-7.826 0-14.167-2.133-19.06-6.328V922h-18.31V819.72h19.39Zm15.145 43.015c-4.367 0-7.896 1.79-10.757 5.365-3.38 4.005-4.928 9.533-4.928 16.395v1.08c0 6.28 1.199 11.58 3.968 15.607 2.857 4.166 6.91 6.288 12.257 6.288 5.95 0 10.413-2.067 13.295-6.36 2.407-3.801 3.605-9.266 3.605-16.345 0-7.028-1.306-12.336-3.82-15.991-2.892-4.099-7.516-6.039-13.62-6.039ZM734.153 846.315c4.254 0 7.91.818 10.774 2.58v19.385c-4.332-1.706-8.16-2.305-11.99-2.305-3.532 0-6.7 1.318-9.52 4.14-3.426 3.303-4.95 7.57-4.95 12.895V922h-19.254v-73.795h19.255v5.479a21.104 21.104 0 0 1 3.394-3.175c3.45-2.83 7.492-4.194 12.29-4.194ZM794.678 846.315c10.96 0 19.097 2.863 24.267 8.32 4.619 4.774 7.028 11.68 7.028 20.815V922h-18.31v-6.108c-2.126 1.891-4.51 3.434-7.121 4.694-4.73 2.15-10.269 3.304-16.664 3.304-7.869 0-13.953-2.103-18.463-6.03-4.774-4.177-7.162-9.399-7.162-15.815 0-8.563 3.282-15.18 10.062-19.75 5.93-4.218 14.232-6.537 24.96-6.82l13.308-.353v-.752c0-3.877-.948-6.83-3.074-8.764-2.2-2-5.54-2.871-9.911-2.871-3.854 0-6.895.535-9.193 1.986-2.99 1.769-4.816 4.616-5.186 8.55l-19.264-1.535c1.273-9.459 5.527-16.3 12.649-20.421 5.385-3.381 12.727-5 22.073-5Zm11.904 43.883-12.124.346c-5.622.123-9.866 1.088-12.675 3.071-2.535 1.79-3.735 4.442-3.735 7.89 0 1.796.713 3.282 2.305 4.475 1.845 1.384 4.158 2.165 7.035 2.165 5.41 0 9.976-1.571 13.674-4.642 3.593-3.112 5.52-7.06 5.52-11.853v-1.452ZM884.363 846.315c4.254 0 7.91.818 10.774 2.58v19.385c-4.332-1.706-8.16-2.305-11.99-2.305-3.532 0-6.7 1.318-9.52 4.14-3.426 3.303-4.95 7.57-4.95 12.895V922h-19.254v-73.795h19.255v5.479a21.104 21.104 0 0 1 3.394-3.175c3.45-2.83 7.492-4.194 12.29-4.194ZM923.867 848.205l17.063 45.835 16.317-45.835h21.082L938.962 948.73h-20.88l13.162-30.375-28.477-70.15h21.1Z"/></g><g fill="#ED49BA" stroke="#FFC700" stroke-width="10"><path d="M154.94 782.573v76.995c0 15.831-1.48 27.858-4.286 36.115-3.008 8.856-8.99 16.422-18.101 22.587-8.83 5.973-20.109 9.079-33.922 9.079-14.343 0-25.412-2.064-33.28-5.934-8.268-4.066-14.649-10.019-19.155-17.845-4.935-8.572-7.652-19.425-7.964-32.621l49.37-6.727c-.192 8.053.083 13.793 1.22 17.13.623 1.833 1.658 3.329 3.133 4.468.874.615 2.158.725 3.695.725 2.576 0 4.6-.791 5.839-2.763 1.807-2.877 2.44-7.798 2.44-14.549v-86.66h51.011ZM272.34 782.573 325.87 925h-53.766l-6.504-21.86H226.46L220.048 925h-52.789l53.532-142.427h51.548Zm-26.212 56.391-7.802 25.54h15.653l-7.85-25.54ZM370.352 782.573l26.098 83.435 25.703-83.435h52.432L421.734 925h-51.286l-53.823-142.427h53.727Z"/></g></g><g fill="#FFF" stroke="#979797" transform="translate(296 91)"><path d="M441.5 464.5v29H261.053c-5.072-1.379-9.809-5.108-14.235-11.147-4.336-5.916-6.768-11.866-7.279-17.853z"/><path d="m415.22 454.214 26.889 10.863 67.597-167.307c.621-5.22-1.062-11.008-5.003-17.375-3.861-6.236-8.467-10.72-13.827-13.436l-75.655 187.255ZM49.248 210.543c28.712-17.404 61.797-22.773 99.252-16.124v280.698l39.324-38.749c8.115-5.882 15.194-9.568 21.241-11.04 5.93-1.443 10.855-.746 14.76 2.145 3.889 2.88 5.67 7.289 5.402 13.198-.274 6.046-2.677 13.639-7.187 22.782l-42.73 48.525h211.221c2.455 27.588-2.205 48.003-14.062 61.21-11.949 13.308-30.908 18.944-56.833 16.997L291.47 624.5H.5V284.346c3.73-31.769 19.983-56.367 48.748-73.803Z"/><circle cx="149" cy="90" r="89.5"/></g></g></svg>