<?xml version="1.0" encoding="UTF-8"?>
<svg width="1024px" height="1024px" viewBox="0 0 1024 1024" version="1.1" xmlns="http://www.w3.org/2000/svg" xmlns:xlink="http://www.w3.org/1999/xlink">
    <title>Jump.server</title>
    <g id="Icon-SVG" stroke="none" stroke-width="1" fill="none" fill-rule="evenodd">
        <g id="Jump.server" transform="translate(0, -0.0008)">
            <rect id="蒙版路径" fill="#FFFFFF" x="0" y="0" width="1024" height="1024"></rect>
            <g id="编组" transform="translate(162, 117.0008)" fill="#2B937C" fill-rule="nonzero">
                <path d="M324.670902,68.3803215 C298.611638,83.3164367 272.21573,96.8703808 245.83917,111.45128 C215.966939,128.106209 186.468499,144.782033 153.119172,163.531114 C223.968209,209.012746 291.676792,252.419573 363.197567,298.256421 C349.308528,306.238343 338.204725,312.145461 328.128652,319.436297 C317.716709,326.72636 309.042928,326.72636 297.919778,319.792287 C240.623912,285.058468 182.300317,252.063583 125.695535,215.966939 C101.729649,200.674834 82.9797937,197.553727 59.034028,214.583994 C35.7600006,230.883707 34.0218392,249.989552 57.9869522,265.261537 C69.7818399,272.57172 81.5968487,279.842436 93.0566412,287.133272 C155.548419,326.72636 219.108167,364.226069 279.861783,405.894735 C317.716709,431.934653 352.429634,430.887577 389.238258,408.660625 C423.574082,388.18789 457.833486,367.587258 492.015756,346.859159 C504.521851,339.233228 517.027945,331.251306 531.944713,321.511101 C464.927989,278.459491 400.361408,237.146815 333.680553,194.431847 C345.139571,186.449925 354.524559,180.542808 362.861698,173.607962 C373.9655,164.222974 383.686357,163.531888 396.884311,171.513036 C452.797233,204.152704 509.381892,235.744523 565.987447,267.336341 C604.177469,288.535564 604.177469,288.180348 633.695257,256.232539 C645.154275,243.745792 642.388385,226.023666 627.432149,218.041744 C537.160745,168.392704 446.890115,118.741342 356.953806,68.3803215 C345.138798,61.4454754 336.1098,62.136561 324.650781,68.3803215 L324.670902,68.3803215 Z" id="路径"></path>
                <path d="M385.760388,468.386513 C354.524559,484.706347 321.529675,486.108639 289.581866,467.003568 C215.630296,422.213795 141.32351,377.759892 67.351819,332.97012 C60.0617566,328.821285 52.7716941,324.632208 42.3589775,318.389221 C42.3589775,346.859159 43.4060534,371.872122 42.0029872,396.864964 C40.9760326,411.801079 46.5279336,420.138991 59.034028,427.073837 C138.893489,472.911459 218.39696,519.439393 298.274995,565.276241 C325.006772,580.548999 354.860429,581.596075 380.900346,568.042131 C432.289095,541.666344 581.239311,449.636658 631.265236,420.47486 C636.125278,417.70897 642.013048,411.781732 642.368264,407.276906 C643.41534,378.115109 642.724255,348.598095 642.724255,317.342145 C634.722211,321.866318 627.432149,326.035274 620.497303,329.84824 C575.35154,355.888157 431.617357,444.440747 385.780509,468.386513 L385.760388,468.386513 Z" id="路径"></path>
                <path d="M439.579931,571.520001 C417.372327,583.670105 395.126028,595.820983 372.207217,606.253047 C346.877733,617.356849 320.838589,617.356849 295.825627,602.775951 C275.000967,590.269856 253.465875,578.810064 232.64199,566.303969 C195.49827,543.741149 158.33443,520.466347 121.170589,497.904301 C96.1777475,482.631542 70.4736993,468.050643 42.6948467,451.730036 C42.6948467,483.342749 42.3589775,511.79334 43.050837,539.927409 C43.050837,544.432234 47.198898,550.340126 51.0327588,552.770146 C132.985598,601.728875 214.919863,651.378689 297.563788,698.973045 C325.006772,714.581673 355.907504,715.964618 384.733433,700.000774 C434.383247,672.55779 588.549494,580.548225 637.508223,552.077513 C641.657058,549.647492 647.584296,544.43146 647.584296,540.262504 C648.612025,511.456697 647.920165,482.274778 647.920165,451.730036 C645.154275,452.421895 640.986093,452.777885 637.844092,454.496699 C606.943359,472.218826 470.835881,554.152317 439.579931,571.519227 L439.579931,571.520001 Z" id="路径"></path>
                <path d="M352.074417,1.38294497 L350.000387,0 L2.07403051,201.722684 L0,202.769759 L0,576.024053 L349.999613,790.292299 L697.925969,577.44724 L700,576.063521 L700,203.105629 L352.074417,1.38294497 Z M691.662862,571.875218 L350.000387,780.907311 L8.31701711,571.875218 L8.31701711,207.629801 L350.000387,9.68138867 L691.662862,207.649148 L691.662862,571.895339 L691.662862,571.875218 Z" id="形状"></path>
            </g>
        </g>
    </g>
</svg>