<svg xmlns="http://www.w3.org/2000/svg" width="1024" height="1024"><g fill="none" fill-rule="evenodd"><path fill="#2C323B" d="M0 0h1024v1024H0z"/><path fill="#FFF" fill-rule="nonzero" d="M584.294 770.067c19.57-1.057 37.025-3.04 52.363-5.95 15.339-2.909 30.942-6.48 46.81-10.71 4.231-3.703 7.669-7.273 10.314-10.711 2.644-3.438 4.76-7.67 6.347-12.694 1.586-5.025 3.04-11.24 4.363-18.645 1.322-7.404 2.777-17.19 4.364-29.354 1.587-12.166.529-20.364-3.174-24.595-3.702-4.232-10.578-5.818-20.628-4.76-3.173.528-8.594 1.322-16.264 2.38a9734.285 9734.285 0 0 1-26.181 3.57c-9.785 1.322-20.496 2.909-32.132 4.76a2174.827 2174.827 0 0 1-34.115 5.157 663.612 663.612 0 0 1 5.95 50.776 651.67 651.67 0 0 1 1.983 50.776M563.667 639.16c34.908-4.231 62.544-8.595 82.908-13.09 20.363-4.496 35.834-9.653 46.412-15.471a79.174 79.174 0 0 1 13.091-5.157c4.496-1.323 9.653-1.587 15.47-.794 5.819.794 12.563 2.645 20.232 5.554 7.67 2.909 17.058 7.008 28.165 12.297 21.686 11.107 33.586 19.967 35.702 26.578 2.116 6.612-2.116 14.678-12.694 24.198-8.463 7.405-16.264 16.661-23.405 27.769-7.14 11.107-14.413 26.446-21.818 46.015 6.876 4.232 12.033 8.86 15.471 13.885 3.438 5.024 4.76 9.785 3.967 14.28-.793 4.496-3.702 8.595-8.727 12.298-5.025 3.702-12.297 5.818-21.818 6.347-6.347.529-15.206 1.19-26.578 1.983a5345.517 5345.517 0 0 0-37.686 2.777 4876.938 4876.938 0 0 1-44.032 3.174 39986.976 39986.976 0 0 0-46.413 3.173c-4.231 19.57-9.652 30.81-16.264 33.719-6.611 2.909-13.09-.926-19.438-11.504-1.586-3.174-3.834-12.694-6.743-28.562-2.91-15.868-5.157-34.38-6.744-55.536-.529-6.876-1.587-14.413-3.174-22.612a313.508 313.508 0 0 0-5.553-23.801c-2.116-7.67-4.496-14.677-7.14-21.024-2.645-6.348-5.29-11.372-7.934-15.075-9.52-12.694-10.05-21.818-1.587-27.371 8.463-5.554 27.24-3.57 56.33 5.95m-190.411-30.942c9.52 3.174 13.752 7.934 12.694 14.281-1.058 6.347-8.463 11.636-22.214 15.868-22.215 6.347-42.578 9.917-61.09 10.71-18.513.794-33.851-.66-46.016-4.363-10.579-3.174-15.604-7.008-15.075-11.504.53-4.496 6.347-8.066 17.455-10.71 11.636-2.645 22.61-4.893 32.925-6.745 10.314-1.85 19.438-3.834 27.371-5.95 11.637-2.644 21.422-4.231 29.355-4.76 7.934-.529 16.132.529 24.595 3.173m-7.934-144.394c-1.058 14.28-1.454 25.917-1.19 34.908.265 8.992 1.058 16 2.38 21.025 1.323 5.025 3.174 8.463 5.554 10.314 2.38 1.85 5.421 2.777 9.124 2.777 6.347 0 11.504 1.983 15.47 5.95 3.968 3.967 5.687 8.33 5.158 13.09-1.058 7.934-5.025 13.62-11.901 17.058-6.876 3.438-16.132 4.628-27.768 3.57-6.876-1.057-12.694-3.305-17.455-6.743-4.76-3.438-8.462-8.992-11.107-16.661-2.644-7.67-4.363-17.983-5.157-30.942-.793-12.958-.396-29.487 1.19-49.586-6.347 1.058-12.43 1.851-18.247 2.38-5.819.529-10.843 1.322-15.075 2.38-2.115 26.975-6.743 49.454-13.884 67.437-7.14 17.984-16 33.058-26.578 45.223-12.694 13.752-19.834 19.57-21.421 17.454-1.587-2.116 1.322-13.223 8.727-33.322 4.231-11.107 7.537-24.594 9.917-40.462 2.38-15.868 4.1-32.528 5.157-49.983-4.231 1.058-8.727 1.72-13.487 1.984a88.32 88.32 0 0 0-14.28 1.983c1.586 26.446 2.115 59.239 1.586 98.379-.53 39.14-2.116 87.007-4.76 143.601a3477.284 3477.284 0 0 0 53.553-7.14c18.776-2.645 35.04-5.554 48.792-8.727 12.165-2.645 23.273-3.174 33.322-1.587 10.05 1.587 17.983 5.554 23.801 11.9 4.232 4.232 7.538 6.083 9.918 5.554 2.38-.529 4.099-4.496 5.157-11.9 2.644-14.281 4.628-31.735 5.95-52.363a979.602 979.602 0 0 0 1.983-62.677c0-21.157-.66-40.86-1.983-59.107-1.322-18.247-3.041-32.396-5.157-42.445-1.587-7.934-3.173-14.017-4.76-18.248-1.587-4.231-3.703-7.537-6.347-9.917-2.645-2.38-5.95-3.835-9.917-4.364-3.967-.529-9.389-.793-16.265-.793m257.848-57.917c.529-33.322.529-60.693 0-82.114-.529-21.422-1.587-38.876-3.174-52.363-1.586-13.488-3.834-24.066-6.743-31.735-2.91-7.67-6.48-14.414-10.71-20.232-11.637-14.81-14.81-25.123-9.521-30.941 5.289-5.818 18.776-5.554 40.462.793 17.983 5.818 31.735 10.975 41.256 15.47 9.52 4.497 16.264 9.125 20.23 13.885 3.968 4.76 5.422 9.653 4.364 14.677-1.058 5.025-3.438 10.976-7.14 17.851-4.76 8.992-8.33 24.86-10.71 47.603-2.38 22.744-4.364 53.95-5.951 93.619 14.81-4.76 26.578-8.595 35.305-11.504 8.727-2.91 16-4.893 21.818-5.95 5.818-1.058 10.71-1.323 14.678-.794 3.966.529 8.33 1.587 13.09 3.174 18.512 6.347 27.372 13.751 26.578 22.214-.793 8.463-12.297 14.81-34.511 19.041-13.223 2.645-25.653 4.76-37.29 6.347-11.635 1.587-25.123 3.703-40.461 6.347l-1.587 82.511c18.512-3.702 34.512-7.008 48-9.917 13.487-2.909 23.14-5.157 28.957-6.743 19.041-5.819 34.909-8.463 47.603-7.934 12.694.529 25.124 5.024 37.289 13.487 22.214 15.339 30.545 26.975 24.991 34.909-5.553 7.934-28.958 10.578-70.214 7.934-20.628-1.587-45.09-1.323-73.387.793-28.297 2.116-59.371 6.083-93.222 11.9a6388.898 6388.898 0 0 1-37.685 7.141c-11.372 2.116-23.405 4.76-36.1 7.934-8.462 2.115-15.602 3.57-21.42 4.363-5.818.794-11.372.926-16.661.397-5.29-.529-10.579-1.851-15.868-3.967s-11.636-5.289-19.04-9.52c-9.521-5.29-13.092-10.446-10.711-15.471 2.38-5.025 11.768-8.066 28.164-9.124 13.752-1.058 32.132-3.174 55.14-6.347 23.008-3.174 47.206-6.876 72.594-11.107l.794-81.718c-19.57 3.173-34.645 4.496-45.223 3.967-10.578-.53-20.628-3.174-30.148-7.934-5.29 8.463-11.504 16.529-18.645 24.198-7.14 7.67-15.206 15.735-24.198 24.198-15.867 14.28-25.784 19.834-29.751 16.66-3.967-3.173-.926-12.429 9.124-27.767 5.289-8.463 10.313-17.587 15.074-27.372 4.76-9.785 8.462-18.38 11.107-25.785 7.405-20.099 12.297-36.627 14.677-49.586 2.38-12.958 1.455-22.082-2.776-27.371-4.232-5.29-6.347-10.05-6.347-14.281s1.719-7.405 5.157-9.52c3.438-2.116 8.462-2.777 15.074-1.984 6.611.793 14.413 3.835 23.404 9.124 11.108 6.347 19.703 11.768 25.785 16.264 6.083 4.496 10.182 8.463 12.298 11.9 2.115 3.439 2.38 6.48.793 9.124-1.587 2.645-4.231 5.29-7.934 7.934a67.928 67.928 0 0 0-15.074 15.074c-4.231 5.819-9.256 14.281-15.074 25.389 19.04 0 40.198-2.38 63.47-7.14m-296.723-75.37a5232.546 5232.546 0 0 0-23.405 3.173 4727.622 4727.622 0 0 0-22.611 3.173c19.57 14.281 27.768 27.24 24.595 38.876-2.645 8.462-4.496 17.719-5.554 27.768-1.058 10.05-1.851 24.33-2.38 42.842a408.39 408.39 0 0 0 17.454-3.57 654.551 654.551 0 0 1 16.661-3.57c1.587-15.339 2.645-28.43 3.174-39.272.528-10.843.528-20.496 0-28.958-.53-8.463-1.455-15.868-2.777-22.215-1.323-6.347-3.042-12.43-5.157-18.248m-80.131 10.313c-18.513 1.587-36.496-.793-53.95-7.14-13.223-4.76-19.702-9.653-19.438-14.678.265-5.024 8.33-8.066 24.198-9.124 11.108-.528 24.33-1.85 39.67-3.966 15.338-2.116 31.338-4.628 47.998-7.538a951.46 951.46 0 0 0 49.19-9.917c16.132-3.702 31.074-7.67 44.826-11.9 14.81-4.232 29.222-6.48 43.239-6.744 14.016-.265 27.9 2.777 41.652 9.124 8.992 4.231 12.694 9.917 11.107 17.057-1.586 7.14-12.43 12.827-32.528 17.058-5.818 1.058-16.397 2.909-31.735 5.554-15.339 2.644-32.793 5.289-52.363 7.933 13.752 8.992 21.818 16.132 24.198 21.422 2.38 5.289 1.454 11.371-2.777 18.247-2.116 3.703-4.231 10.975-6.347 21.818-2.116 10.843-3.967 24.463-5.554 40.86 7.934-2.646 13.223-4.497 15.868-5.555 8.463-4.23 16-5.95 22.611-5.157 6.612.794 17.322 5.422 32.132 13.885 8.992 4.76 15.868 8.991 20.628 12.694 4.76 3.702 7.934 7.404 9.52 11.107 1.587 3.702 1.72 7.934.397 12.694-1.322 4.76-3.835 10.578-7.537 17.454-4.231 7.934-6.612 25.785-7.14 53.553-.53 27.768.793 67.57 3.966 119.404 1.587 23.8 2.38 43.37 2.38 58.71 0 15.338-.793 28.297-2.38 38.875-1.586 10.578-4.099 19.967-7.537 28.165-3.438 8.198-8.066 17.322-13.884 27.371-7.934 13.752-16.264 20.496-24.991 20.232-8.727-.265-14.942-7.273-18.645-21.025-4.76-16.925-8.859-30.016-12.297-39.272-3.438-9.256-7.537-16-12.297-20.231-4.76-4.232-10.446-6.48-17.058-6.744-6.611-.264-15.47.397-26.578 1.983l-36.099 5.554c-10.314 1.587-19.173 2.777-26.578 3.57-7.405.794-14.016 1.323-19.834 1.587a367.52 367.52 0 0 1-16.661.397c-2.645 23.801-8.463 36.495-17.454 38.082-8.992 1.587-17.984-4.76-26.975-19.041-3.703-6.347-6.612-12.033-8.727-17.058-2.116-5.025-3.438-10.05-3.967-15.074-.53-5.025-.397-10.446.396-16.264.794-5.818 2.513-12.694 5.157-20.628a357.63 357.63 0 0 0 5.554-24.198c1.587-8.198 2.909-17.719 3.967-28.562 1.058-10.842 1.719-23.536 1.983-38.082.265-14.545.397-32.66.397-54.346 0-16.926-1.455-33.454-4.364-49.586-2.909-16.132-6.743-27.9-11.504-35.306-8.991-14.81-10.842-24.33-5.553-28.561 5.289-4.231 19.834-1.851 43.636 7.14 17.454-1.058 34.38-2.644 50.776-4.76.529-26.975-.133-48.793-1.984-65.454-1.851-16.66-5.421-31.867-10.71-45.619"/></g></svg>