<?xml version="1.0" encoding="UTF-8"?>
<svg width="1024px" height="1028px" viewBox="0 0 1024 1028" version="1.1" xmlns="http://www.w3.org/2000/svg" xmlns:xlink="http://www.w3.org/1999/xlink">
    <title>Kubernetes</title>
    <g id="ICON-新版方图标" stroke="none" stroke-width="1" fill="none" fill-rule="evenodd">
        <g id="Kubernetes" transform="translate(0, 0.7734)" fill-rule="nonzero">
            <path d="M1024,1027.22664 L0,1027.22664 L0,3.22664421 C673.664303,-1.07554807 1014.99764,-1.07554807 1024,3.22664421 L1024,1027.22664 Z" id="路径" fill="#2088FF"></path>
            <g id="编组" transform="translate(111.7332, 123.2669)">
                <g id="编组-48">
                    <path d="M773.666882,471.452261 C765.755359,469.951834 759.344298,470.315574 751.887459,469.724497 C735.973477,468.0422 722.878542,466.678176 711.193133,462.99531 C706.418938,461.176611 703.008798,455.493177 701.371932,453.174335 L692.232759,450.491755 C697.103668,415.152177 695.485779,379.220443 687.458564,344.4616 C679.418224,309.348874 664.992381,276.012998 644.900027,246.115448 C647.264391,243.978477 651.720305,240.068274 652.947955,238.88612 C653.311703,234.794047 652.993424,230.565572 657.221996,226.064291 C666.179294,217.652809 677.41002,210.696285 691.005109,202.330269 C697.461639,198.511001 703.418015,196.101225 709.874545,191.32714 C711.329537,190.23592 713.330153,188.508157 714.876083,187.280535 C725.788528,178.596247 728.289297,163.637447 720.468711,153.816472 C712.648125,143.995497 697.461639,143.086148 686.594662,151.770435 C685.048731,152.998057 682.95718,154.589419 681.547656,155.771574 C675.454874,161.045801 671.680986,166.229093 666.543043,171.68519 C655.357787,183.05206 646.082208,192.509294 635.942727,199.374883 C631.53228,201.921061 625.075751,201.05718 622.165765,200.87531 L613.526747,207.013419 C563.79449,154.825786 496.808591,122.464554 425.014253,115.942065 L424.468631,105.802817 C421.513177,102.983834 417.966633,100.574057 417.057261,94.4359475 C416.056954,82.2506635 417.739289,69.1105636 419.648967,53.2878819 C420.694743,45.8766829 422.422547,39.7385736 422.740826,31.6908303 C422.786295,29.8721309 422.695357,27.1895501 422.695359,25.2344493 C422.695359,11.3214016 412.51041,0 399.961097,0 C387.457253,0 377.272304,11.3214016 377.272305,25.2344493 L377.317773,25.8709937 C377.317773,27.7351598 377.226836,30.0540011 377.317773,31.6908303 C377.590584,39.7385736 379.318387,45.8766829 380.364164,53.2878819 C382.273842,69.1105636 383.910709,82.2506646 382.910401,94.4814154 C381.620126,99.0122881 379.064989,103.081486 375.5445,106.212024 L374.998878,115.805662 C302.744951,121.607729 235.229681,154.068117 185.577014,206.877017 C182.823433,204.973139 180.095085,203.033024 177.39268,201.05718 C173.300513,201.60279 169.208346,202.87588 163.888529,199.738623 C153.749048,192.918501 144.47347,183.461266 133.288213,172.094397 C128.150271,166.6383 124.421852,161.455008 118.32907,156.226248 C116.682135,154.848482 114.999217,153.514307 113.282064,152.225111 C108.786875,148.581148 103.240139,146.477262 97.4590182,146.223404 C90.4960798,145.853604 83.7741249,148.826058 79.3625467,154.225679 C71.5419605,164.046654 74.0427296,179.050921 84.955175,187.735209 L85.2734539,187.962547 L90.0021809,191.736347 C96.4587114,196.510432 102.369619,198.965676 108.826149,202.739476 C122.421237,211.150959 133.651962,218.107483 142.609261,226.473499 C146.064869,230.201832 146.701428,236.749149 147.156113,239.568132 L154.431076,246.069982 C114.252562,306.313766 97.7368551,379.272652 108.053184,450.94643 L98.5957316,453.674478 C96.0949626,456.948137 92.5484178,462.040494 88.8199986,463.54092 C77.1345888,467.223786 63.9941855,468.542342 48.1256719,470.224639 C40.6688346,470.861183 34.2577729,470.497444 26.3007812,471.997871 C24.6184455,472.316143 22.2086142,472.90722 20.2534674,473.361895 L20.0715929,473.452831 L19.753314,473.543765 C6.34009955,476.771956 -2.25345116,489.093642 0.52012905,501.18799 C3.29370927,513.327807 16.3886437,520.693538 29.8473259,517.78362 L30.1656049,517.738152 L30.6202905,517.60175 L36.4857298,516.283193 C44.2153783,514.191689 49.8534754,511.145369 56.8556282,508.462787 C71.8602405,503.097624 84.318616,498.596344 96.4132426,496.823113 C101.505717,496.413905 106.871002,499.960369 109.508177,501.415328 L119.374846,499.733032 C141.597699,568.393128 188.175545,626.549406 250.32419,663.234076 L246.232023,673.145986 C247.732484,676.965254 249.369351,682.194015 248.232639,685.967815 C243.822191,697.425619 236.274418,709.4745 227.680866,722.932873 C223.54323,729.11645 219.269189,733.936002 215.495302,741.074396 C214.585932,742.756693 213.449219,745.393806 212.585317,747.167037 C206.765346,759.670593 211.039387,774.038316 222.270112,779.448945 C233.546305,784.905042 247.550611,779.130673 253.643392,766.627117 L253.643392,766.536182 C254.552762,764.762951 255.734945,762.444109 256.46244,760.761813 C259.645237,753.396081 260.736482,747.076102 263.009908,739.937709 C269.011752,724.842507 272.330955,709.019825 280.606226,699.153383 C282.879651,696.425334 286.517134,695.425049 290.381959,694.379297 L295.519901,685.058464 C362.925824,711.030787 437.544067,711.225059 505.084321,685.604074 L509.903984,694.33383 C513.814276,695.606919 518.088318,696.243464 521.543926,701.381289 C527.727645,711.929744 531.956218,724.4333 537.09416,739.573969 C539.367586,746.666896 540.458831,752.986875 543.687096,760.352605 C544.414593,762.034902 545.642243,764.444678 546.506144,766.21791 C552.553458,778.766933 566.603232,784.495835 577.879425,779.039738 C589.11015,773.674575 593.384191,759.261386 587.56422,746.75783 C586.65485,744.984599 585.518137,742.392952 584.608766,740.665189 C580.834879,733.572262 576.560838,728.798177 572.423202,722.569132 C563.784183,709.11076 556.691093,697.971227 552.280647,686.513424 C550.461906,680.602652 552.598927,676.965254 554.008451,673.145986 C553.190017,672.145702 551.325808,666.59867 550.234564,663.961556 C612.611429,626.992181 659.217951,568.379354 681.183908,499.278356 C684.093894,499.733032 689.186367,500.642381 690.868703,501.006121 C694.278842,498.732748 697.41617,495.822829 703.599889,496.277503 C715.694515,498.050735 728.152891,502.552015 743.157503,507.917177 C750.159656,510.645226 755.752284,513.737014 763.527401,515.78305 C765.164268,516.237725 767.528632,516.646933 769.43831,517.05614 L769.847526,517.192542 L770.165805,517.23801 C783.669956,520.147929 796.719422,512.782198 799.493002,500.642381 C802.221113,488.548032 793.673032,476.226346 780.259817,472.998155 C778.350139,472.54348 775.576559,471.816001 773.666882,471.452261 Z" id="路径" fill="#FFFFFF"></path>
                    <polygon id="路径" fill="#2088FF" points="367.087355 435.80576 399.961097 451.673909 432.789371 435.896695 440.973705 400.432063 418.239443 372.105826 381.682751 372.105826 358.94849 400.432063 367.087355 435.851227"></polygon>
                </g>
                <g id="编组-50" transform="translate(164.666, 176.0955)" fill="#2088FF">
                    <path d="M153.67909,321.500525 L153.997368,321.955199 L108.574315,431.66822 C64.9861834,403.765031 31.8228135,362.259831 14.2271313,313.589184 L131.444982,293.719896 L131.626856,293.947234 C138.878118,292.614404 146.274776,295.377705 150.875853,301.138424 C155.47693,306.899144 156.536635,314.723526 153.633621,321.500525 L153.67909,321.500525 Z" id="路径"></path>
                    <path d="M115.80381,224.700267 C122.914568,222.753518 128.378387,217.05385 130.022957,209.867341 C131.667527,202.680833 129.226301,195.172247 123.669865,190.326855 L123.760802,189.826713 L34.5970296,110.07676 C7.39663714,154.351012 -4.28198044,206.423649 1.40500801,258.073395 L115.712873,225.109474 L115.80381,224.700267 L115.80381,224.700267 Z" id="路径"></path>
                    <path d="M167.865268,134.674664 C173.826769,139.025339 181.699421,139.740606 188.347424,136.535562 C194.995428,133.330518 199.338899,126.725783 199.647766,119.352125 L200.10245,119.124787 L206.922728,0 C155.283394,6.03641644 107.12736,29.105986 70.062477,65.5641004 L167.683394,134.811066 L167.865268,134.720132 L167.865268,134.674664 Z" id="路径"></path>
                    <path d="M270.624128,118.988385 C270.937699,126.36995 275.294163,132.9778 281.954969,136.174913 C288.615775,139.372027 296.496478,138.637882 302.452094,134.265457 L302.815842,134.401859 L399.845669,65.6095683 C362.908507,29.4378339 315.110761,6.40215055 263.80385,0.0454667659 L270.533191,118.942918 L270.624128,118.988385 L270.624128,118.988385 Z" id="路径"></path>
                    <path d="M435.402053,110.122227 L346.738434,189.50844 L346.738434,189.735779 C341.156501,194.577556 338.697998,202.101854 340.344261,209.305277 C341.990524,216.5087 347.473455,222.218155 354.60449,224.154657 L354.740895,224.609333 L469.594382,257.709655 C472.088394,232.240259 470.429945,206.534883 464.683782,181.5971 C458.90573,156.314365 449.013436,132.152534 435.402053,110.07676 L435.402053,110.122227 Z" id="路径"></path>
                    <path d="M252.936873,352.236538 C249.354809,345.477659 242.210748,341.375224 234.567591,341.688084 C227.444824,341.954236 221.001606,345.989815 217.6533,352.282006 L217.562363,352.282006 L159.908277,456.493462 C208.923193,473.215263 262.091579,473.263219 311.136582,456.629864 L253.391559,352.236538 L252.936873,352.236538 L252.936873,352.236538 Z" id="路径"></path>
                    <path d="M338.781444,293.447091 C334.619153,292.680446 330.320954,293.253526 326.504943,295.08392 C316.793512,299.724297 312.493979,311.216243 316.774679,321.091318 L316.638273,321.273187 L362.56148,432.122895 C406.441695,404.11017 439.735506,362.273884 457.181476,313.225443 L338.963317,293.219754 L338.781444,293.447091 Z" id="路径"></path>
                </g>
            </g>
        </g>
    </g>
</svg>