<svg xmlns="http://www.w3.org/2000/svg" width="1025" height="1024"><g fill="none" fill-rule="evenodd"><path fill="#D31F27" d="M.633 0h1024v1024H.633z"/><path fill="#FFF" fill-rule="nonzero" d="M477.243 641.836 455.21 582.07s-35.742 39.844-89.297 39.844c-47.46 0-81.093-41.25-81.093-107.226 0-84.493 42.656-114.727 84.492-114.727 77.93 0 87.656 62.46 118.242 158.086 22.031 66.68 63.281 120.234 182.11 120.234 85.195 0 142.968-26.133 142.968-94.804 0-85.43-73.476-94.454-134.765-107.93-30.235-6.914-39.141-19.219-39.141-39.844 0-23.32 18.516-37.148 48.75-37.148 33.047 0 50.86 12.422 53.555 41.953l68.672-8.203C804.196 370.43 761.539 345 691.46 345c-61.875 0-122.343 23.32-122.343 98.32 0 46.758 22.734 76.29 79.687 90 52.617 12.422 93.516 16.172 93.516 53.555 0 25.43-24.727 35.742-71.485 35.742-69.375 0-98.32-36.445-114.726-86.601C518.61 422.578 505.016 345 367.086 345c-100.898 0-154.453 63.867-154.453 172.5 0 104.414 53.555 160.781 149.883 160.781 77.578 0 114.727-36.445 114.727-36.445"/></g></svg>