<svg xmlns="http://www.w3.org/2000/svg" width="1025" height="1024"><g fill="none" fill-rule="evenodd"><path fill="#FFF" d="M.26 0h1024v1024H.26z"/><g fill-rule="nonzero"><path fill="#000" d="M162 197h65.253v433.045H485.3v53.389H162zm526.772 117.456c-66.736-.89-133.473 41.525-154.235 105.888-29.66 74.152-16.017 167.286 42.118 223.938 56.355 46.864 141.185 50.423 204.658 17.203 43.601-23.135 71.186-69.11 77.118-117.456 7.712-50.423 3.856-105.592-20.763-151.27-29.067-48.642-86.015-80.083-142.37-78.006l-6.526-.89v.593m5.932 51.61c48.94 0 92.838 37.372 100.846 85.422 14.83 54.279 5.932 120.719-38.558 158.98-41.525 33.814-108.262 29.068-142.371-12.753-41.525-44.491-41.525-112.71-20.17-166.1 14.83-38.558 54.28-66.143 95.804-65.253h5.34l-.89-.297"/><path fill="#3492FF" d="M162 752.543h699.99v74.151H162z"/></g></g></svg>