<svg xmlns="http://www.w3.org/2000/svg" width="1025" height="1024"><defs><linearGradient id="a" x1="107.949%" x2="-12.539%" y1="76.974%" y2="31.05%"><stop offset="0%" stop-color="#F932AF"/><stop offset="0%" stop-color="#FA5991"/><stop offset="45.763%" stop-color="#FA5A8F"/><stop offset="100%" stop-color="#FE8241"/><stop offset="100%" stop-color="#FE8241"/></linearGradient><linearGradient id="b" x1="18.946%" x2="86.699%" y1="-4.62%" y2="185.427%"><stop offset="0%" stop-color="#085EA5"/><stop offset="19.007%" stop-color="#1669AB"/><stop offset="48.885%" stop-color="#A5E7E5"/><stop offset="100%" stop-color="#A5E7E5"/></linearGradient><linearGradient id="c" x1="16.965%" x2="89.04%" y1="-4.62%" y2="185.427%"><stop offset="0%" stop-color="#085EA5"/><stop offset="19.007%" stop-color="#1669AB"/><stop offset="48.885%" stop-color="#A5E7E5"/><stop offset="100%" stop-color="#A5E7E5"/></linearGradient></defs><g fill="none" fill-rule="evenodd"><path fill="#F0FAFF" d="M.633 0h1024v1024H.633z"/><path fill="url(#a)" fill-rule="nonzero" d="M793.827 718.86c14.902-57.964 5.236-119.953-26.886-172.885-38.465-63.499-106.836-109.99-185.075-125.79-24.67-4.93-40.379-6.44-67.868-6.54-36.451-.101-63.639 3.823-97.069 13.987-70.284 21.234-133.42 71.952-166.044 133.337-16.917 31.699-26.886 68.933-26.886 100.028v9.057l10.875-18.114c37.257-62.291 79.75-103.349 137.145-132.632 66.861-34.115 148.121-40.957 209.847-17.812 72.097 27.07 115.596 89.26 111.971 160.105-1.711 34.315-15.406 64.605-39.975 88.052-24.67 23.447-54.878 35.825-88.41 35.926-61.322.402-124.664-67.525-137.452-127.2-.479-2.35 16.854-13.35 52-33-.042 10.53-9.378 39.539-7.58 65.92.504 7.387 1.881 14.569 4.58 21.08 10.968 26.465 48.712 39.724 62.977 43.513 8.358 2.214 11.882 2.617 24.871 2.617 13.191 0 16.313-.302 25.073-2.617 39.27-10.566 67.969-41.46 75.621-81.511 1.813-9.258 2.014-28.378.403-39.548-3.524-25.259-16.413-50.82-35.545-70.644-26.482-27.372-63.135-44.177-106.232-48.605-14.198-1.51-45.01-.604-58.906 1.61-61.02 9.661-114.59 37.838-158.19 83.122-28.295 29.384-50.146 62.794-76.528 117.135-6.746 13.887-12.888 26.667-13.694 28.378-.805 1.812-1.712 3.321-2.014 3.321-1.41 0-10.27-22.038-12.687-31.196-3.827-15.195-5.64-35.724-5.035-57.36.403-10.264.806-19.522 1.007-20.63.302-1.106.806-4.528 1.208-7.547 6.948-53.234 34.337-106.97 76.024-148.934 50.65-51.121 112.979-82.317 185.58-93.084 16.614-2.416 27.287-3.02 53.065-3.02 28.396 0 40.076.806 59.41 4.127 49.239 8.453 89.114 23.85 127.478 49.208 17.823 11.875 29 20.831 44.003 35.624 27.993 27.472 46.32 53.536 61.323 87.147 10.07 22.642 17.621 51.12 20.038 75.775 1.51 14.894.604 49.612-1.51 63.298-12.486 79.297-61.222 144.607-134.628 180.432-36.955 18.013-77.635 26.265-122.746 24.856-44.205-1.409-90.524-12.478-142.986-34.114-8.055-3.321 365.016-137.664 369.447-154.872M398.5 863.88c1.667-93 18.5-160.5 50.5-202.5 1.33-1.745.522 98.3 101 122 7.877 1.858 21.118.668 39-3 24.363-4.998 56.62-17.767 89-63 6.325-8.837 39.897-87.777-20-154-10.532-11.645-106.692-69.05-228-48-15.02 2.606-67.894 13.747-131 73-19.429 18.242-49.095 58.242-89 120l-11-79c18.412-59.786 41.079-104.453 68-134 26.921-29.548 72.588-59.881 137-91 85.214-13.805 153.547-13.805 205 0 51.453 13.804 106.12 46.804 164 99 33.692 68.87 51.692 116.203 54 142 5.968 66.72-31.673 107.805-27 112 14.056 12.618-35.103 78.55-97 116-29.62 17.92-100.525 27.77-254 8-5.302-.683-22.135-6.517-50.5-17.5" transform="matrix(1 0 0 -1 .633 1295.38)"/><g fill-rule="nonzero"><path fill="url(#b)" d="M244.022 562.561c-24.07-2.95-44.11-7.272-61.936-13.175C115.316 527.04 61.939 481.4 33.74 422.479c-11.783-24.77-18.933-49.224-22.961-79.475-1.914-13.808-1.612-49.645.503-65.772 8.56-65.772 37.782-131.842 89.748-186.546 29.71-31.306 63.733-55.884 92.436-69.376 12.89-6.008 29.91-12.859 30.515-12.121.201.105-3.122 5.481-7.251 11.805-26.084 39.738-35.652 57.235-44.514 80.635-11.884 31.305-16.819 54.072-19.437 89.066-1.007 14.335-.705 40.16.705 50.067.89 6.235 2.325 25.239 6.28 42.949 3.197 14.324 8.896 28.064 10.607 31.458 5.54 10.962 8.895 15.081 17.052 25.411 20.444 25.508 56.397 48.591 95.876 61.556 38.974 12.649 83.991 17.497 131.425 14.019 10.91-.783 47.89-.971 81.106-11.848 11.655-3.817 27.256-12.82 46.801-27.011-6.737 19.595-11.838 32.624-15.303 39.087-13.33 24.867-33.252 48.106-44.121 59.43-47.032 49.12-109.572 79.054-180.17 86.432-9.567.949-51.966 1.265-59.015.316" transform="rotate(79 334.243 485.63)"/><path fill="url(#c)" d="M311.262 483.394c58.814-8.538 109.874-33.413 149.352-72.73 11.38-11.277 22.961-24.664 22.257-25.507-.303-.21-3.928.21-7.957 1.054-28.5 6.114-53.778 8.538-89.027 8.538-28.098 0-42.096-.843-57.908-3.69-3.02-.526-8.66-1.475-12.588-2.213-27.998-4.743-63.044-17.18-88.02-31.2-43.91-24.559-73.015-57.55-87.013-98.869-10.373-30.145-14.301-57.129-14.2-96.972 0-30.778 2.719-54.494 9.063-79.58 3.928-15.389 10.474-36.997 12.69-41.424 1.108-2.319 1.813-4.321 1.51-4.532-.604-.632-16.012 14.335-26.99 26.351-42.096 45.956-71 100.556-80.97 152.942-4.23 22.03-4.834 30.145-4.23 52.702.504 17.708 1.108 23.505 3.626 36.47 6.546 32.991 16.214 56.602 34.342 83.374 7.855 11.595 25.48 31.095 36.658 40.581 37.262 31.305 83.69 50.489 136.562 56.18 12.085 1.265 49.75.422 62.843-1.475" transform="rotate(79 304.37 460.115)"/></g></g></svg>