<?xml version="1.0" encoding="UTF-8"?>
<svg width="1024px" height="1024px" viewBox="0 0 1024 1024" version="1.1" xmlns="http://www.w3.org/2000/svg" xmlns:xlink="http://www.w3.org/1999/xlink">
    <title>Mdc.x</title>
    <defs>
        <linearGradient x1="131.858292%" y1="-70.1794387%" x2="50%" y2="55.2750512%" id="linearGradient-1">
            <stop stop-color="#181E26" offset="0%"></stop>
            <stop stop-color="#C5D3F1" offset="100%"></stop>
        </linearGradient>
        <linearGradient x1="50%" y1="0%" x2="46.3103338%" y2="76.1065961%" id="linearGradient-2">
            <stop stop-color="#FC7D0D" offset="0.00546328671%"></stop>
            <stop stop-color="#F8A50A" offset="100%"></stop>
        </linearGradient>
        <linearGradient x1="50%" y1="0%" x2="50%" y2="65.3164911%" id="linearGradient-3">
            <stop stop-color="#F69119" offset="0%"></stop>
            <stop stop-color="#FDA505" offset="100%"></stop>
        </linearGradient>
    </defs>
    <g id="Icon-SVG" stroke="none" stroke-width="1" fill="none" fill-rule="evenodd">
        <g id="Mdc.x" transform="translate(0, -0.0008)">
            <rect id="蒙版路径" fill="url(#linearGradient-1)" x="0" y="0" width="1024" height="1024"></rect>
            <g id="新" transform="translate(166.8311, 166.2484)">
                <path d="M106.168918,110.752438 C131.259739,104.816975 299.426405,68.0669747 610.668918,0.502437775 C620.868994,-0.835227039 629.785661,0.498106294 637.418918,4.50243777 C645.052175,8.50676926 651.385508,15.1734359 656.418918,24.5024378 L664.418918,50.7524378 C666.402621,62.3444774 664.735954,71.5944774 659.418918,78.5024378 C654.101882,85.4103982 645.185215,89.9103982 632.668918,92.0024378 L220.168918,181.752438 L149.168918,197.752438 L160.168918,210.752438 C432.293397,210.752438 575.960064,210.752438 591.168918,210.752438 C638.168918,212.752438 662.168918,205.752438 678.168918,220.752438 C693.168918,235.752438 690.168918,244.752438 690.168918,288.752438 C690.168918,332.752438 690.168918,544.367883 690.168918,573.752438 C690.168918,627.752438 695.168918,643.752438 673.168918,671.752438 C645.168918,697.752438 620.168918,691.752438 597.168918,691.752438 C540.128274,691.752438 368.128215,691.752438 79.1689177,691.752438 C54.0453725,691.752438 40.1689177,690.752438 21.1689177,675.752438 C2.16891769,660.752438 -0.831082314,637.752438 0.168917686,599.752438 C0.168917686,552.673218 0.168917686,417.031018 0.168917686,192.825838 C0.168917686,126.752438 0.168917686,132.752438 106.168918,110.752438 Z" id="矩形" fill="#000000"></path>
                <g id="编组-61" transform="translate(16.1689, 302.7524)">
                    <path d="M0,0 L659,0 L659,325 C659,352.061953 637.061953,374 610,374 L49,374 C21.9380473,374 3.31413338e-15,352.061953 0,325 L0,0 L0,0 Z" id="矩形" fill="#FFFFFF"></path>
                    <path d="M188.705693,139.745824 C190.401898,141.081941 191.5,143.583333 192,147.25 C192.166667,150.916667 192.166667,159.166665 192,171.999995 L165,156.75 L188.705693,139.745824 Z" id="矩形" fill="#FBA60D"></path>
                    <path d="M75,153.5 C75.5,143.5 78,140.5 87,135.5 C93,132.166667 106,124.833333 126,113.5 C129.666667,111.166667 132.5,110 134.5,110 C134.5,117 134.5,128.75 134.5,145.25 L107,161.75 L107,247.25 L83.5800266,234.991108 C78.3054761,232.23021 75,226.769075 75,220.815636 C75,198.377091 75,175.938545 75,153.5 Z" id="矩形" fill="url(#linearGradient-2)"></path>
                    <path d="M136.039117,143.75 C134.940373,142.988993 134.429907,142.152599 134.507719,141.240818 C134.841053,140.407484 136.101518,139.327212 138.289117,138 L181.039117,113.5 C185.039117,111.166667 188.039117,110 190.039117,110 C190.039117,117 190.039117,128.75 190.039117,145.25 L165.039117,159.75 L136.039117,143.75 Z" id="矩形" fill="#FA6C0D" transform="translate(162.2696, 134.875) scale(-1, 1) translate(-162.2696, -134.875)"></path>
                    <path d="M115,215.485132 L134.5,226.838438 L135.144376,261.952248 C134.714792,262.77652 132.761525,262.369943 129.284574,260.732518 C125.807623,259.095092 121.046099,256.32521 115,252.422872 L115,215.485132 Z" id="矩形" fill="url(#linearGradient-3)"></path>
                    <path d="M134.5,226.838438 C145.114901,220.553998 152.047834,216.339677 155.298799,214.195476 C160.175246,210.979173 160.175246,212.022693 160.175246,204.912347 C160.175246,200.172116 160.175246,186.29364 160.175246,163.276917 L191.441156,182.43882 C191.897052,197.647997 192.125,208.663434 192.125,215.485132 C192.125,225.717679 192.125,228.739075 186.250923,233.274827 C182.334871,236.298663 165.299356,245.995802 135.144376,262.366245 L134.5,226.838438 Z" id="矩形" fill="#F56716"></path>
                </g>
                <g id="编组-60" transform="translate(235.665, 444.3892)" fill-rule="nonzero">
                    <g id="MDC" fill="#000000">
                        <polygon id="路径" points="0 1.46484375 34.921875 1.46484375 48.3984375 53.7304688 61.8164062 1.46484375 96.6210938 1.46484375 96.6210938 87.3632812 74.9414062 87.3632812 74.9414062 21.8554688 58.125 87.3632812 38.4960938 87.3632812 21.7382812 21.8554688 21.7382812 87.3632812 0 87.3632812"></polygon>
                        <path d="M118.90625,1.46484375 L158.339844,1.46484375 C166.113281,1.46484375 172.392578,2.51953125 177.177734,4.62890625 C181.962891,6.73828125 185.917969,9.765625 189.042969,13.7109375 C192.167969,17.65625 194.433594,22.2460938 195.839844,27.4804687 C197.246094,32.7148438 197.949219,38.2617188 197.949219,44.1210938 C197.949219,53.3007812 196.904297,60.4199219 194.814453,65.4785156 C192.724609,70.5371094 189.824219,74.7753906 186.113281,78.1933594 C182.402344,81.6113281 178.417969,83.8867188 174.160156,85.0195312 C168.339844,86.5820312 163.066406,87.3632812 158.339844,87.3632812 L118.90625,87.3632812 L118.90625,1.46484375 Z M145.449219,20.9179688 L145.449219,67.8515625 L151.953125,67.8515625 C157.5,67.8515625 161.445312,67.2363281 163.789062,66.0058594 C166.132812,64.7753906 167.96875,62.6269531 169.296875,59.5605469 C170.625,56.4941406 171.289062,51.5234375 171.289062,44.6484375 C171.289062,35.546875 169.804688,29.3164062 166.835938,25.9570312 C163.867188,22.5976562 158.945312,20.9179688 152.070312,20.9179688 L145.449219,20.9179688 Z" id="形状"></path>
                        <path d="M274.082031,52.265625 L297.34375,59.296875 C295.78125,65.8203125 293.320312,71.2695312 289.960938,75.6445312 C286.601562,80.0195312 282.431641,83.3203125 277.451172,85.546875 C272.470703,87.7734375 266.132812,88.8867188 258.4375,88.8867188 C249.101562,88.8867188 241.474609,87.5292969 235.556641,84.8144531 C229.638672,82.0996094 224.53125,77.3242188 220.234375,70.4882812 C215.9375,63.6523438 213.789062,54.9023438 213.789062,44.2382812 C213.789062,30.0195313 217.568359,19.0917969 225.126953,11.4550781 C232.685547,3.81835938 243.378906,0 257.207031,0 C268.027344,0 276.533203,2.1875 282.724609,6.5625 C288.916016,10.9375 293.515625,17.65625 296.523438,26.71875 L273.085938,31.9335938 C272.265625,29.3164063 271.40625,27.4023437 270.507812,26.1914062 C269.023438,24.1601563 267.207031,22.5976562 265.058594,21.5039062 C262.910156,20.4101562 260.507812,19.8632812 257.851562,19.8632812 C251.835938,19.8632812 247.226562,22.2851563 244.023438,27.1289062 C241.601562,30.7226562 240.390625,36.3671875 240.390625,44.0625 C240.390625,53.59375 241.835938,60.1269531 244.726562,63.6621094 C247.617188,67.1972656 251.679688,68.9648438 256.914062,68.9648438 C261.992188,68.9648438 265.830078,67.5390625 268.427734,64.6875 C271.025391,61.8359375 272.910156,57.6953125 274.082031,52.265625 Z" id="路径"></path>
                    </g>
                    <g id="X" transform="translate(296.6797, 1.4648)" fill="#F66610">
                        <polygon id="路径" points="2.6953125 0 31.9335938 0 47.1679688 26.4257812 61.9335938 0 90.8789062 0 64.1601562 41.6015625 93.3984375 85.8984375 63.5742188 85.8984375 46.640625 58.3007812 29.6484375 85.8984375 0 85.8984375 29.6484375 41.1328125"></polygon>
                    </g>
                </g>
                <g id="编组-62" transform="translate(34.1689, 154.7524)" fill="#D4D6D5">
                    <circle id="椭圆形" cx="13.5" cy="96.5" r="13.5"></circle>
                    <circle id="椭圆形" cx="91.5" cy="96.5" r="13.5"></circle>
                    <circle id="椭圆形" cx="13.5" cy="13.5" r="13.5"></circle>
                </g>
                <g id="编组-63" transform="translate(142.1689, 36.7524)" fill="#FFFFFF">
                    <polygon id="矩形" points="-4.4358614e-13 81 75 64 140 117 63 133"></polygon>
                    <polygon id="矩形" points="147 49 222 32 287 85 210 101"></polygon>
                    <polygon id="矩形" points="294 17 369 -4.60970498e-12 434 53 357 69"></polygon>
                    <polygon id="矩形" transform="translate(355.5, 220.5) scale(-1, 1) translate(-355.5, -220.5)" points="287 189 367 189 424 252 342 252"></polygon>
                    <polygon id="矩形" transform="translate(195.5, 220.5) scale(-1, 1) translate(-195.5, -220.5)" points="127 189 207 189 264 252 182 252"></polygon>
                </g>
            </g>
        </g>
    </g>
</svg>