<svg xmlns="http://www.w3.org/2000/svg" width="1025" height="1024"><defs><linearGradient id="a" x1="0%" x2="100%" y1="34.042%" y2="65.958%"><stop offset="0%" stop-color="#AA5CC3"/><stop offset="52.491%" stop-color="#896AC8"/><stop offset="100%" stop-color="#3C8BD4"/></linearGradient></defs><g fill="none" fill-rule="evenodd"><path fill="#000B25" d="M.398 0h1024v1024H.398z"/><g transform="translate(205.398 456)"><rect width="616" height="348" fill="url(#a)" rx="19"/><g fill="#000B25" fill-rule="nonzero"><path d="M50.04 95.92v22h51.48V253h25.74V117.92h51.48v-22zM195.24 139.26v70.84c0 30.58 13.64 45.98 40.92 45.98 14.08 0 25.96-5.94 35.64-17.82V253h25.08V139.26H271.8v69.52c-2.2 8.14-5.94 14.52-11 19.36-5.06 4.62-10.34 7.04-15.84 7.04-8.8 0-14.96-2.2-18.92-6.38-3.96-4.4-5.72-11-5.72-20.24v-69.3h-25.08M323.28 92.84V253h23.32v-12.1c7.92 10.12 19.36 15.18 34.32 15.18 16.72 0 29.92-5.94 39.6-17.82 8.8-11 13.2-25.3 13.2-42.68 0-16.72-4.4-30.58-12.98-41.58-9.46-11.88-22.22-17.82-38.5-17.82-13.2 0-24.64 6.16-33.88 18.7V92.84h-25.08m53.02 63.58c11.22 0 19.58 3.74 24.86 11.22 4.4 6.38 6.82 15.62 6.82 27.94 0 12.32-2.2 21.78-6.38 28.38-5.28 7.92-13.42 11.88-24.42 11.88-9.9 0-17.38-3.96-22.66-11.66-4.84-7.04-7.04-16.28-7.04-27.28v-1.76c0-12.1 2.86-21.78 8.8-28.82 5.28-6.6 11.88-9.9 20.02-9.9M504.12 136.18c-16.94 0-30.36 5.72-40.04 17.38-10.12 11.44-14.96 25.52-14.96 42.46 0 18.92 5.28 33.66 15.84 44.44 9.9 10.34 23.32 15.62 40.26 15.62 15.18 0 27.72-4.4 37.84-12.98 7.92-7.04 13.2-16.06 15.84-26.62h-25.08c-3.08 6.38-6.38 11-10.12 13.86-4.84 3.52-11 5.28-18.7 5.28-9.02 0-16.06-2.86-20.9-8.36s-7.7-13.64-8.58-24.2h85.14c0-20.46-4.62-36.52-13.64-47.96-9.9-12.76-24.2-18.92-42.9-18.92m.66 20.46c17.6 0 27.5 9.02 29.7 27.5h-58.52c1.54-9.02 4.62-15.84 9.24-20.46 4.84-4.84 11.22-7.04 19.58-7.04"/></g></g><g fill="#FFF" fill-rule="nonzero"><path d="M262.074 415.582H227.04V235.65h54.688l32.714 141.48 32.471-141.48h54.077v179.932h-35.034V293.878c0-3.5.04-8.403.122-14.71.082-6.307.122-11.17.122-14.587l-34.057 151h-36.5l-33.813-151c0 3.418.04 8.28.122 14.587.082 6.307.122 11.21.122 14.71v121.704M556.986 376.52c-.895 7.893-5.004 15.91-12.329 24.047-11.393 12.94-27.343 19.41-47.851 19.41-16.927 0-31.86-5.453-44.8-16.358-12.94-10.905-19.41-28.646-19.41-53.223 0-23.03 5.84-40.69 17.518-52.978 11.678-12.289 26.835-18.433 45.471-18.433 11.068 0 21.037 2.075 29.907 6.226 8.87 4.15 16.195 10.701 21.973 19.653 5.208 7.894 8.586 17.05 10.132 27.466.895 6.103 1.261 14.892 1.098 26.367h-91.064c.488 13.346 4.68 22.705 12.573 28.076 4.802 3.337 10.58 5.005 17.334 5.005 7.162 0 12.98-2.034 17.456-6.103 2.442-2.198 4.598-5.25 6.47-9.156h35.522m-34.423-40.772c-.57-9.196-3.357-16.174-8.362-20.935-5.005-4.76-11.21-7.141-18.616-7.141-8.057 0-14.303 2.522-18.738 7.568-4.435 5.046-7.222 11.882-8.362 20.508h54.078M653.046 390.802v26l-16.48.61c-16.438.57-27.669-2.278-33.69-8.544-3.907-3.988-5.86-10.132-5.86-18.433v-81.909H578.46v-24.78h18.555v-37.11h34.424v37.11h21.606v24.78H631.44v70.313c0 5.452.691 8.85 2.075 10.193 1.383 1.342 5.615 2.014 12.695 2.014a97.624 97.624 0 0 0 6.836-.244M690.39 296.93c9.196-11.72 24.983-17.579 47.363-17.579 14.567 0 27.507 2.89 38.818 8.667 11.312 5.778 16.968 16.683 16.968 32.715v61.035c0 4.232.082 9.36.244 15.381.244 4.558.936 7.65 2.075 9.278 1.14 1.627 2.849 2.97 5.127 4.028v5.127h-37.841c-1.058-2.686-1.79-5.208-2.198-7.569-.407-2.36-.732-5.045-.976-8.056-4.802 5.208-10.335 9.643-16.602 13.306-7.487 4.313-15.95 6.47-25.39 6.47-12.045 0-21.993-3.44-29.847-10.316-7.853-6.876-11.78-16.622-11.78-29.236 0-16.357 6.308-28.198 18.922-35.522 6.917-3.988 17.09-6.836 30.517-8.545l11.84-1.465c6.43-.814 11.028-1.83 13.795-3.052 4.964-2.115 7.446-5.411 7.446-9.887 0-5.453-1.892-9.217-5.676-11.292-3.784-2.075-9.338-3.113-16.663-3.113-8.22 0-14.038 2.035-17.456 6.104-2.441 3.011-4.069 7.08-4.883 12.207h-33.569c.733-11.637 3.988-21.2 9.766-28.687m25.879 93.505c3.255 2.686 7.242 4.029 11.963 4.029 7.486 0 14.383-2.198 20.69-6.592 6.307-4.395 9.583-12.41 9.827-24.048v-12.94c-2.197 1.384-4.415 2.503-6.653 3.358-2.238.854-5.31 1.647-9.216 2.38l-7.813 1.465c-7.324 1.302-12.573 2.889-15.747 4.76-5.37 3.174-8.056 8.098-8.056 14.771 0 5.94 1.668 10.213 5.005 12.817"/></g></g></svg>