<svg xmlns="http://www.w3.org/2000/svg" width="1024" height="1024"><defs><linearGradient id="a" x1="0%" x2="90.721%" y1="50%" y2="50%"><stop offset="0%" stop-color="#FC1A4B"/><stop offset="34.625%" stop-color="#FC6F40"/><stop offset="57.143%" stop-color="#FEC929"/><stop offset="79.585%" stop-color="#75D7B3"/><stop offset="100%" stop-color="#45B8DA"/></linearGradient></defs><g fill="none" fill-rule="evenodd"><path fill="#FFF" d="M0 0h1024v1024H0z"/><path fill="url(#a)" fill-rule="nonzero" d="m523.393 708.284-67.448 27.806 1.368-12.763 3.645-33.733 3.19-31.908 22.787-204.672 3.19-23.247c1.215-12.156 1.823-24.008 1.823-35.556 0-29.477-8.963-44.216-26.888-44.216-27.951 0-60.536 28.566-97.754 85.697-37.218 57.132-58.713 111.529-64.486 163.19l-11.849 109.402-67.903 27.806 1.367-12.763 3.646-33.733 3.646-31.908 23.242-211.51 2.734-24.159c2.127-18.841 3.19-34.036 3.19-45.584 0-19.449-4.86-29.173-14.583-29.173-22.787 0-47.396 25.83-73.828 77.492C165.494 418.978 162 413.964 162 409.71c0-18.234 16.634-43.077 49.902-74.53 33.269-31.453 59.625-47.18 79.07-47.18 26.128 0 39.192 16.715 39.192 50.143 0 8.509-.76 19.905-2.279 34.188l-3.645 36.923-3.646 30.997-3.646 32.364 12.76-20.057c68.056-109.705 131.402-164.557 190.04-164.557 28.255 0 42.382 20.36 42.382 61.082 0 6.99-1.215 21.728-3.646 44.216l-4.557 41.938-6.38 56.98c28.255-58.652 61.751-107.35 100.488-146.097C686.772 307.374 721.332 288 751.714 288c30.078 0 45.117 19.45 45.117 58.348 0 16.714-1.671 36.62-5.013 59.715l-24.154 169.116c-5.165 34.948-7.747 61.994-7.747 81.14 0 16.106 4.405 24.159 13.216 24.159 10.33 0 23.318-8.661 38.965-25.983 15.646-17.322 28.179-36.923 37.597-58.803 8.203 5.47 12.305 10.484 12.305 15.042 0 19.146-16.938 44.825-50.814 77.037-33.876 32.213-60.84 48.319-80.892 48.319-25.824 0-38.737-17.322-38.737-51.966 0-21.88 3.342-55.764 10.026-101.652l15.95-109.857c.608-3.95 1.672-12.611 3.191-25.982.608-5.47 1.671-14.74 3.19-27.807 1.52-13.067 2.279-23.095 2.279-30.085 0-25.83-8.507-38.746-25.521-38.746-28.56 0-61.751 28.566-99.577 85.697-37.825 57.132-59.625 111.529-65.397 163.19l-12.305 109.402"/></g></svg>