<?xml version="1.0" encoding="UTF-8"?>
<svg width="1024px" height="1024px" viewBox="0 0 1024 1024" version="1.1" xmlns="http://www.w3.org/2000/svg" xmlns:xlink="http://www.w3.org/1999/xlink">
    <title>Minio</title>
    <g id="ICON-新版方图标" stroke="none" stroke-width="1" fill="none" fill-rule="evenodd">
        <g id="Minio">
            <rect id="蒙版路径" fill="#FFFFFF" x="0" y="0" width="1024" height="1024"></rect>
            <g id="MinIO" transform="translate(310, 124)" fill="#DD113C" fill-rule="nonzero">
                <path d="M301.789934,37 C301.789934,37 378.152079,160.340096 403.606127,204.1362 C403.854917,204.462882 403.992938,204.860834 404,205.271837 C403.992938,205.68284 403.854917,206.080792 403.606127,206.407474 C403.267973,206.786639 402.784039,207.002338 402.276805,207 C401.77088,206.996178 401.28932,206.781537 400.947484,206.407474 L269,68.5015939 L301.789934,37 L301.789934,37 Z" id="路径"></path>
                <path d="M77.3737078,485.470315 C99.6431238,438.287873 129.904688,395.32308 166.817125,358.480252 C180.849389,344.430287 195.764803,331.264586 211.514302,319.179652 L211.514302,416.055631 L77.3737078,485.470315 Z M0,575.22306 L211.514302,467.539416 L211.514302,714.003304 L259.15531,776 L259.15531,442.387032 L288.102988,427.452804 C328.644932,406.983467 357.121018,368.511832 364.884801,323.719381 C372.648585,278.926929 358.784146,233.097972 327.501268,200.14796 L218.628562,86.1762199 C210.663014,76.2815274 211.690933,61.9049935 220.98297,53.2473293 C230.275007,44.5896651 244.670175,44.5960561 253.954541,53.2619675 L269.262466,69.1787105 L301.497422,37.7382305 C262.933228,-12.3700344 215.537539,-6.03281261 188.307096,19.0213198 C160.451676,45.3166375 159.112765,89.2267841 185.314201,117.174568 L295.364439,231.981446 C315.625461,253.712593 324.98202,283.45378 320.817751,312.888507 C316.653482,342.323234 299.415311,368.292441 273.923532,383.534384 L259.008119,391.296253 L259.008119,235.567625 C126.283303,304.024188 31.2354268,428.492381 0.0490638604,574.682677 L0.0490638604,575.173934 L0,575.22306 Z" id="形状"></path>
                <polygon id="路径" points="260 442 260 492.01581 212 516 212 466.374177"></polygon>
            </g>
        </g>
    </g>
</svg>