<svg xmlns="http://www.w3.org/2000/svg" width="1024" height="1024"><g fill="none" fill-rule="evenodd"><path fill="#FFF" d="M0 0h1024v1024H0z"/><g fill="#DD113C" fill-rule="nonzero"><path d="M611.79 161s76.362 123.34 101.816 167.136c.249.327.387.725.394 1.136a1.93 1.93 0 0 1-.394 1.135 1.77 1.77 0 0 1-1.33.593 1.82 1.82 0 0 1-1.329-.593L579 192.502 611.79 161"/><path d="M387.374 609.47a452.006 452.006 0 0 1 89.443-126.99c14.032-14.05 28.948-27.215 44.697-39.3v96.876l-134.14 69.414M310 699.223 521.514 591.54v246.464L569.155 900V566.387l28.948-14.934c40.542-20.47 69.018-58.941 76.782-103.734 7.764-44.792-6.1-90.621-37.384-123.571L528.63 210.176c-7.966-9.894-6.938-24.271 2.354-32.929 9.292-8.657 23.687-8.65 32.972.015l15.307 15.917 32.235-31.44c-38.564-50.109-85.96-43.772-113.19-18.718-27.855 26.296-29.194 70.206-2.993 98.154l110.05 114.806a98.43 98.43 0 0 1 25.454 80.908c-4.165 29.434-21.403 55.403-46.894 70.645l-14.916 7.762V359.568C436.283 428.024 341.235 552.492 310.05 698.683v.49l-.049.05"/><path d="M570 566v50.016L522 640v-49.626z"/></g></g></svg>