<?xml version="1.0" encoding="UTF-8"?>
<svg width="1024px" height="1024px" viewBox="0 0 1024 1024" version="1.1" xmlns="http://www.w3.org/2000/svg" xmlns:xlink="http://www.w3.org/1999/xlink">
    <title>Mojigeci</title>
    <g id="Icon-SVG" stroke="none" stroke-width="1" fill="none" fill-rule="evenodd">
        <g id="Mojigeci" transform="translate(0, -0.0008)">
            <rect id="蒙版路径" fill="#0284C7" x="0" y="0" width="1024" height="1024"></rect>
            <g id="魔" transform="translate(149, 166.0008)" fill="#FFFFFF" fill-rule="nonzero">
                <path d="M303.545882,340.089667 C313.26367,329.29317 320.282072,319.30641 324.601088,310.129387 C328.920105,300.952364 330.809675,293.394816 330.269797,287.456742 C329.72992,279.899194 332.024398,275.310683 337.15323,273.691208 C342.282062,272.071734 352.674696,273.421296 368.331131,277.739895 C383.987566,282.598319 392.085722,288.131524 392.625599,294.33951 C393.165476,300.547496 387.496767,306.350613 375.619471,311.748862 C366.441561,316.06746 359.28819,319.711278 354.159358,322.680315 C349.030526,325.649352 343.766724,329.832995 338.367953,335.231243 C352.944634,333.071944 367.251377,330.777688 381.288181,328.348476 C395.324984,325.919264 408.282034,323.490052 420.15933,321.060841 C432.036625,318.631629 442.15932,316.337373 450.527415,314.178073 C458.895509,312.018774 464.699188,310.129387 467.93845,308.509912 C471.71759,306.350613 475.496729,304.731138 479.275869,303.651489 C483.055008,302.571839 487.104086,302.436883 491.423103,303.24662 C495.742119,304.056357 500.735982,305.945744 506.404691,308.914781 C512.073401,311.883818 519.226772,316.06746 527.864805,321.465709 C549.459888,335.501156 561.067245,346.027741 562.686876,353.045464 C564.306507,360.063187 559.447614,367.080911 548.110195,374.098634 C540.551916,378.957058 534.613268,384.22035 530.294252,389.888511 C525.975235,395.556672 521.116342,402.979264 515.717571,412.156287 C507.619415,426.191734 501.275859,436.31345 496.686904,442.521436 C492.097949,448.729422 487.374025,454.802452 482.515131,460.740525 C479.275869,465.059124 475.766668,467.488336 471.987528,468.028161 C474.686914,469.107811 477.386299,470.052504 480.085684,470.862242 C482.78507,471.671979 486.024332,472.886585 489.803472,474.506059 C507.079538,482.063608 516.257448,488.271594 517.337202,493.130017 C518.416956,497.988441 513.558063,503.656602 502.760521,510.134501 C500.061136,511.753975 493.85255,517.422136 484.134762,527.138984 C474.416975,536.855832 463.889372,547.112504 452.551954,557.909002 C464.429249,556.829352 475.766668,555.47979 486.564209,553.860315 C497.361751,552.24084 508.969108,550.351453 521.38628,548.192154 C513.828001,529.298284 511.398554,517.827005 514.09794,513.778319 C516.797325,509.729632 522.466034,509.324763 531.104067,512.563713 C553.778904,520.661086 568.355585,529.163327 574.83411,538.070438 C581.312635,546.977548 584.01202,557.639089 582.932266,570.055061 C580.232881,587.329457 575.373987,597.316217 568.355585,600.015341 C561.337183,602.714466 553.508966,597.856042 544.870933,585.44007 C542.171547,582.201121 539.87707,579.097128 537.9875,576.128091 C536.09793,573.159054 534.34333,570.324974 532.723699,567.625849 C508.969108,573.024098 491.288134,577.477653 479.680777,580.986515 C468.07342,584.495376 457.950724,588.679019 449.312691,593.537443 C439.055027,598.935692 432.036625,601.229947 428.257486,600.42021 C424.478346,599.610473 419.889391,594.077268 414.49062,583.820595 C409.09185,573.024098 407.20228,565.736462 408.821911,561.957688 C410.441542,558.178914 416.38019,553.590403 426.637854,548.192154 C430.416994,546.032854 434.331103,542.25408 438.380181,536.855832 C442.429259,531.457583 446.073429,525.519509 449.312691,519.041611 C452.551954,512.563713 454.981401,506.355727 456.601032,500.417653 C458.220663,494.479579 458.76054,490.160981 458.220663,487.461856 C454.981401,475.585709 456.061155,468.837898 461.459925,467.218424 C458.76054,465.598949 455.521278,462.629912 451.742138,458.311313 C450.662384,456.691839 449.042753,455.612189 446.883245,455.072364 C444.723736,454.532539 440.944597,454.262627 435.545826,454.262627 C430.147055,454.262627 422.588776,454.667495 412.870989,455.477233 C403.153202,456.28697 390.196152,457.501576 373.99984,459.121051 C385.337259,463.43965 394.110261,467.083467 400.318847,470.052504 C406.527434,473.021541 410.84645,476.125534 413.275897,479.364483 C415.705344,482.603432 416.38019,486.382206 415.300436,490.700805 C414.220682,495.019404 412.061174,500.417653 408.821911,506.895551 C402.883263,517.692049 398.564247,528.893415 395.864861,540.49965 C393.165476,552.105884 392.35566,565.736462 393.435415,581.391383 C393.975292,591.108231 395.459954,599.34056 397.8894,606.088371 C400.318847,612.836182 404.502895,618.234431 410.441542,622.283117 C416.38019,626.331804 425.018223,629.30084 436.355642,631.190227 C447.69306,633.079614 462.53968,634.564133 480.8955,635.643783 C503.570337,636.723432 525.570327,636.048651 546.895472,633.619439 C568.220616,631.190227 589.680729,625.657023 611.275812,617.019825 C615.594829,615.40035 619.508938,612.971138 623.018139,609.732189 C626.52734,606.49324 629.766602,601.769772 632.735926,595.561786 C635.70525,589.3538 638.674574,581.391383 641.643897,571.674536 C644.613221,561.957688 647.717514,549.271804 650.956777,533.616882 C654.196039,519.581436 658.515056,512.428756 663.913827,512.158844 C669.312597,511.888932 672.821798,518.501786 674.441429,531.997408 C676.061061,547.652329 677.680692,560.47317 679.300323,570.45993 C680.919954,580.44669 682.404616,588.544063 683.754309,594.752049 C685.104002,600.960035 686.453694,605.683502 687.803387,608.922452 C689.15308,612.161401 690.637742,614.860525 692.257373,617.019825 C699.815652,626.736672 701.840191,636.048651 698.33099,644.955762 C694.821789,653.862872 684.429155,662.095201 667.153089,669.652749 C652.576408,675.590823 636.380096,680.179334 618.564153,683.418283 C600.748209,686.657233 582.25742,688.951488 563.091784,690.301051 C543.926148,691.650613 524.895481,691.920525 505.999784,691.110788 C487.104086,690.301051 469.018204,688.54662 451.742138,685.847495 C395.594923,677.750122 363.472237,652.648266 355.374081,610.541926 C353.75445,602.444553 352.674696,593.26753 352.134819,583.010858 C351.594942,572.754185 352.674696,560.878038 355.374081,547.382417 C358.073467,533.34697 359.693098,522.550473 360.232975,514.992924 C360.772852,507.435376 360.502913,499.607916 359.423159,491.510543 C358.883282,488.811418 358.613344,486.382206 358.613344,484.222907 L358.613344,477.745009 C353.214573,486.922031 347.545864,496.638879 341.607216,506.895551 C335.668568,517.152224 328.920105,527.408896 321.361826,537.665569 C302.466128,564.116988 279.656322,587.464413 252.932407,607.707846 C226.208492,627.951278 195.840407,643.741156 161.828152,655.077478 C142.932454,661.555376 132.809759,662.635026 131.460066,658.316427 C130.110374,653.997828 137.263745,647.250017 152.92018,638.072995 C169.656369,628.356147 186.12262,616.884868 202.318932,603.659159 C218.515244,590.43345 233.631802,576.263047 247.668606,561.147951 C261.70541,546.032854 274.52749,530.512889 286.134847,514.588056 C297.742204,498.663222 307.594961,482.873345 315.693117,467.218424 C304.355698,468.837898 292.208464,470.457373 279.251414,472.076847 C277.091906,478.014921 274.122582,482.738389 270.343443,486.24725 C266.564303,489.756112 263.325041,491.510543 260.625655,491.510543 C256.846516,491.510543 252.932407,489.081331 248.883329,484.222907 C244.834251,479.364483 241.190081,471.26711 237.950819,459.930788 C233.091925,442.656392 229.042847,428.620946 225.803584,417.824448 C222.564322,407.027951 219.864937,398.255797 217.705428,391.507986 C215.54592,384.760175 213.65635,379.631839 212.036719,376.122977 C210.417088,372.614115 208.797457,369.24021 207.177826,366.001261 C199.079669,352.505639 198.674762,343.733485 205.963102,339.684798 C213.251443,335.636112 228.233031,337.390543 250.907868,344.948091 C258.466147,344.408266 266.834242,343.733485 276.012152,342.923748 C285.190062,342.11401 294.367972,341.169317 303.545882,340.089667 Z M441.214535,107.695061 C433.656256,108.774711 424.613315,109.989317 414.085713,111.338879 C403.55811,112.688441 392.760568,114.038003 381.693088,115.387566 C370.625608,116.737128 359.423159,118.08669 348.085741,119.436252 C336.748322,120.785814 326.490658,122.00042 317.312748,123.08007 C325.410904,129.018144 330.134828,134.416392 331.484521,139.274816 C332.834214,144.13324 331.889429,150.071313 328.650166,157.089037 C327.570412,159.788161 326.490658,165.726235 325.410904,174.903257 C337.288199,170.584658 347.005987,168.02049 354.564266,167.210753 C362.122545,166.401016 369.410885,167.345709 376.429287,170.044834 C381.828058,172.204133 385.742166,174.903257 388.171613,178.142207 C390.60106,181.381156 390.736029,184.620105 388.576521,187.859054 C386.417013,191.098003 381.558119,194.201996 373.99984,197.171033 C366.441561,200.14007 355.64402,202.704238 341.607216,204.863538 C338.367953,205.403362 335.26366,205.943187 332.294336,206.483012 C329.325013,207.022837 326.220719,207.562662 322.981457,208.102487 L322.981457,217.819334 C337.558138,215.660035 348.355679,216.064904 355.374081,219.03394 C362.392483,222.002977 368.061192,227.536182 372.380209,235.633555 C373.99984,238.872504 374.269779,242.111453 373.190025,245.350403 C372.11027,248.589352 369.950762,251.288476 366.7115,253.447776 C363.472237,255.607075 359.558128,256.821681 354.969173,257.091594 C350.380218,257.361506 345.656294,256.1469 340.7974,253.447776 C336.478384,251.288476 333.104152,249.399089 330.674705,247.779615 C328.245258,246.16014 325.680842,244.540665 322.981457,242.921191 C322.981457,259.115937 322.306611,272.20669 320.956918,282.19345 C319.607225,292.18021 318.392502,299.33289 317.312748,303.651489 C310.834223,322.005534 300.576559,322.815271 286.539755,306.0807 C279.521353,297.983327 275.607244,292.045254 274.797429,288.26648 C273.987613,284.487706 275.202336,279.899194 278.441599,274.500946 C282.760615,266.403573 285.729939,257.22655 287.34957,246.969877 C277.091906,262.624798 265.889457,274.905814 253.742223,283.812925 C241.594989,292.720035 227.693154,299.602802 212.036719,304.461226 C200.159424,308.24 193.141022,308.644869 190.981513,305.675832 C188.822005,302.706795 192.871083,297.443503 203.128748,289.885954 C212.306658,282.868231 223.239168,272.20669 235.92628,257.901331 C248.613391,243.595972 259.275963,228.885744 267.913996,213.770648 C247.398667,215.390123 231.742232,213.230823 220.944691,207.292749 C211.766781,202.974151 207.582733,199.06042 208.392549,195.551559 C209.202365,192.042697 214.196227,190.288266 223.374138,190.288266 C234.711556,189.748441 245.779036,189.07366 256.576577,188.263923 C267.374119,187.454186 278.17166,185.969667 288.969202,183.810368 C288.429325,165.456322 287.889447,152.635482 287.34957,145.347846 C286.809693,138.06021 285.460001,131.717268 283.300492,126.319019 C268.183934,127.398669 254.687008,127.803538 242.809712,127.533625 C230.932417,127.263713 218.785183,126.049107 206.36801,123.889807 C203.668625,157.358949 201.239178,185.429842 199.079669,208.102487 C196.920161,230.775131 194.895622,250.613695 193.006052,267.618179 C191.116483,284.622662 188.956974,299.872714 186.527528,313.368336 C184.098081,326.863958 181.533665,341.169317 178.834279,356.284413 C170.736123,396.231453 161.693182,431.994851 151.705457,463.574606 C141.717731,495.154361 130.515282,523.225254 118.098109,547.787285 C105.680936,572.349317 92.1840097,593.672399 77.6073288,611.756532 C63.0306479,629.840665 47.3742129,645.36063 30.6380237,658.316427 C13.3619575,671.812049 3.37423169,676.940385 0.674846337,673.701436 C-2.02453901,670.462487 3.37423169,658.856252 16.8711584,638.882732 C31.4478393,617.289737 44.5398583,595.696742 56.1472153,574.103748 C67.7545723,552.510753 78.1472059,529.568196 87.325116,505.276077 C96.5030262,480.983958 104.601182,454.397583 111.619584,425.516953 C118.637986,396.636322 125.116511,363.841961 131.055159,327.13387 C140.233069,269.912434 144.147178,222.542802 142.797485,185.024974 C141.447792,147.507145 136.993806,121.460595 129.435527,106.885324 C121.877249,91.7702276 123.226941,82.4582487 133.484606,78.949387 C143.74227,75.4405254 164.797476,81.7834676 196.650223,97.9782136 C214.466166,98.5180385 234.576587,97.9782136 256.981485,96.358739 C279.386384,94.7392644 302.331159,92.5799649 325.815812,89.8808406 C349.300464,87.1817163 372.380209,83.8078108 395.055046,79.7591243 C417.729883,75.7104378 437.975273,71.2568826 455.791216,66.3984588 C470.367897,62.6196847 482.920039,59.650648 493.447642,57.4913485 C503.975245,55.332049 512.883216,53.8475306 520.171557,53.0377933 C527.459897,52.228056 533.533514,52.228056 538.392408,53.0377933 C543.251301,53.8475306 547.840257,55.0621366 552.159273,56.6816112 C572.674602,65.858634 582.392389,73.956007 581.312635,80.9737303 C580.232881,87.9914536 568.355585,92.3100525 545.680748,93.9295271 C539.202223,94.469352 533.533514,94.8742206 528.674621,95.1441331 C523.815727,95.4140455 518.821864,95.9538704 513.693032,96.7636077 C508.5642,97.573345 502.490583,98.5180385 495.472181,99.5976882 C488.453779,100.677338 479.815746,102.0269 469.558081,103.646375 C480.8955,111.203923 487.643963,117.411909 489.803472,122.270333 C491.96298,127.128757 491.423103,133.606655 488.18384,141.704028 C487.104086,144.942977 486.564209,150.341226 486.564209,157.898774 C491.423103,156.819124 495.742119,155.874431 499.521259,155.064693 C503.300398,154.254956 506.269722,153.580175 508.42923,153.04035 C526.245174,146.562452 539.202223,143.05359 547.30038,142.513765 C555.398536,141.97394 564.306507,143.593415 574.024294,147.372189 C588.600975,152.230613 595.484408,157.628862 594.674592,163.566935 C593.864777,169.505009 581.852512,174.633345 558.637798,178.951944 C548.380134,181.111243 538.392408,183.00063 528.674621,184.620105 C518.956833,186.23958 508.699169,187.589142 497.901628,188.668792 C528.134744,209.182137 556.883198,224.837058 584.14699,235.633555 C611.410782,246.430052 637.189912,253.987601 661.48438,258.3062 C677.140815,261.005324 685.238971,265.323923 685.778848,271.261996 C686.318725,277.20007 679.570262,281.248756 665.533458,283.408056 C644.478252,286.647005 628.012001,288.941261 616.134706,290.290823 C604.25741,291.640385 594.674592,292.18021 587.386252,291.910298 C580.097912,291.640385 574.564172,290.290823 570.785032,287.861611 C567.005893,285.432399 562.686876,282.058494 557.827982,277.739895 C545.41081,265.863748 534.073391,255.202207 523.815727,245.755271 C513.558063,236.308336 501.14089,224.567145 486.564209,210.531699 L486.564209,238.872504 C486.564209,256.1469 486.294271,268.562872 485.754394,276.12042 C485.214516,283.677968 484.134762,288.806305 482.515131,291.505429 C477.656238,300.682452 472.392436,305.270963 466.723727,305.270963 C461.055018,305.270963 454.441524,299.602802 446.883245,288.26648 C442.564228,282.328406 439.999812,276.525289 439.189996,270.857128 C438.380181,265.188967 440.134781,257.766375 444.453798,248.589352 C446.073429,244.810578 447.423122,239.817198 448.502876,233.609212 C449.58263,227.401226 450.122507,219.438809 450.122507,209.721961 C440.40472,225.916707 430.821902,238.332679 421.374053,246.969877 C411.926204,255.607075 400.453817,263.704448 386.95689,271.261996 C376.159348,277.739895 369.005977,279.224413 365.496776,275.715552 C361.987575,272.20669 364.82193,266.673485 373.99984,259.115937 C387.496767,247.23979 398.159339,236.443292 405.987556,226.726445 C413.815774,217.009597 420.699207,205.673275 426.637854,192.717478 C421.778961,191.637828 417.459944,190.693135 413.680805,189.883397 C409.901665,189.07366 406.392464,187.859054 403.153202,186.23958 C395.055046,182.460806 391.275906,178.951944 391.815783,175.712995 C392.35566,172.474045 396.404739,170.584658 403.963017,170.044834 C409.901665,170.044834 416.920067,169.505009 425.018223,168.425359 C433.116379,167.345709 441.484474,165.996147 450.122507,164.376672 C449.58263,153.580175 448.637845,143.728371 447.288152,134.821261 C445.93846,125.914151 443.913921,116.872084 441.214535,107.695061 Z M417.729883,40.4868651 C419.889391,56.1417863 416.650129,66.8033275 408.012096,72.4714886 C399.374062,78.1396497 388.306582,77.1949562 374.809656,69.637408 C369.950762,66.9382837 363.067329,61.540035 354.159358,53.442662 C345.251386,45.3452889 336.208445,36.4381786 327.030535,26.721331 C316.232994,15.3850088 311.644039,8.09737303 313.26367,4.85842382 C314.883301,1.61947461 324.061211,0 340.7974,0 C366.171623,0 384.932351,3.64381786 397.079585,10.9314536 C409.226819,18.2190893 416.110252,28.0708932 417.729883,40.4868651 Z M394.24523,374.908371 C405.042772,372.209247 413.545835,370.589772 419.754422,370.049947 C425.963008,369.510122 432.306564,370.049947 438.785088,371.669422 C449.58263,374.368546 454.846431,379.361926 454.576493,386.649562 C454.306554,393.937198 448.502876,398.660665 437.165457,400.819965 C427.44767,402.439439 418.404729,403.923958 410.036635,405.27352 C401.66854,406.623082 393.975292,407.837688 386.95689,408.917338 C385.877136,412.696112 384.662412,416.474886 383.31272,420.25366 C381.963027,424.032434 380.478365,428.081121 378.858734,432.39972 C391.815783,430.780245 402.343386,429.565639 410.441542,428.755902 C418.539698,427.946164 425.018223,427.40634 429.877117,427.136427 C434.73601,426.866515 438.245211,426.731559 440.40472,426.731559 C442.564228,426.731559 444.183859,427.001471 445.263613,427.541296 C448.502876,429.16077 450.932323,429.700595 452.551954,429.16077 C454.171585,428.620946 456.331093,425.651909 459.030479,420.25366 C463.889372,408.917338 468.07342,398.12084 471.58262,387.864168 C475.091821,377.607495 477.926176,367.080911 480.085684,356.284413 C482.78507,344.948091 475.766668,340.899404 459.030479,344.138354 C448.772814,345.757828 437.300427,347.377303 424.613315,348.996777 C411.926204,350.616252 398.564247,352.505639 384.527443,354.664939 C391.005968,361.142837 394.24523,367.890648 394.24523,374.908371 Z M336.748322,413.775762 C327.570412,413.775762 320.012133,413.235937 314.073485,412.156287 C308.134838,411.076637 302.466128,409.727075 297.067358,408.107601 C287.889447,404.868651 283.840369,401.089877 284.920124,396.771278 C285.999878,392.452679 291.12871,390.29338 300.30662,390.29338 C306.245268,390.29338 312.723793,389.888511 319.742195,389.078774 C326.760596,388.269037 334.048937,387.324343 341.607216,386.244693 C343.226847,378.14732 343.496786,369.510122 342.417032,360.3331 C329.459982,362.492399 316.232994,364.381786 302.736067,366.001261 C289.23914,367.620735 276.28209,368.970298 263.864918,370.049947 C265.484549,381.38627 267.374119,393.12746 269.533627,405.27352 C271.693135,417.41958 274.122582,430.510333 276.821968,444.545779 L328.650166,438.067881 C330.269797,433.749282 331.754459,429.700595 333.104152,425.921821 C334.453845,422.143047 335.668568,418.094361 336.748322,413.775762 Z" id="形状"></path>
            </g>
        </g>
    </g>
</svg>