<svg xmlns="http://www.w3.org/2000/svg" width="1024" height="1024"><g fill="none" fill-rule="evenodd"><path fill="#0284C7" d="M0 0h1024v1024H0z"/><path fill="#FFF" fill-rule="nonzero" d="M452.546 506.09c9.718-10.797 16.736-20.784 21.055-29.96 4.32-9.178 6.209-16.735 5.669-22.673-.54-7.558 1.754-12.146 6.883-13.766 5.13-1.62 15.522-.27 31.178 4.049 15.657 4.858 23.755 10.392 24.295 16.6.54 6.207-5.13 12.01-17.007 17.409-9.177 4.318-16.33 7.962-21.46 10.931-5.128 2.97-10.392 7.153-15.791 12.551a1789.298 1789.298 0 0 0 42.92-6.883c14.037-2.429 26.994-4.858 38.871-7.287 11.878-2.43 22-4.724 30.368-6.883 8.369-2.16 14.172-4.049 17.411-5.668 3.78-2.16 7.559-3.779 11.338-4.859 3.779-1.08 7.828-1.214 12.147-.404 4.32.81 9.313 2.699 14.982 5.668 5.668 2.969 12.822 7.152 21.46 12.55 21.595 14.036 33.202 24.563 34.822 31.58 1.62 7.018-3.24 14.036-14.577 21.054-7.558 4.858-13.497 10.121-17.816 15.79-4.319 5.668-9.178 13.09-14.576 22.267-8.099 14.036-14.442 24.157-19.031 30.365a468.91 468.91 0 0 1-14.172 18.22c-3.24 4.318-6.748 6.747-10.527 7.287a96.357 96.357 0 0 0 8.098 2.834c2.7.81 5.938 2.025 9.717 3.644 17.277 7.558 26.454 13.766 27.534 18.624 1.08 4.858-3.779 10.527-14.576 17.005-2.7 1.619-8.908 7.287-18.626 17.004-9.718 9.717-20.246 19.974-31.583 30.77 11.877-1.08 23.215-2.43 34.012-4.049 10.798-1.62 22.405-3.509 34.822-5.668-7.558-18.894-9.987-30.365-7.288-34.414 2.7-4.048 8.368-4.453 17.006-1.214 22.675 8.097 37.252 16.6 43.73 25.506 6.479 8.908 9.178 19.57 8.098 31.985-2.7 17.274-7.558 27.261-14.576 29.96-7.019 2.7-14.847-2.159-23.485-14.575-2.7-3.239-4.994-6.343-6.884-9.312a380.943 380.943 0 0 1-5.263-8.502c-23.755 5.398-41.436 9.852-53.043 13.36-11.608 3.51-21.73 7.693-30.368 12.551-10.258 5.399-17.276 7.693-21.056 6.883-3.779-.81-8.368-6.343-13.766-16.6-5.4-10.796-7.289-18.084-5.67-21.862 1.62-3.78 7.56-8.368 17.817-13.766 3.779-2.16 7.693-5.938 11.742-11.336 4.05-5.398 7.693-11.336 10.933-17.814 3.239-6.478 5.668-12.686 7.288-18.624 1.62-5.938 2.16-10.257 1.62-12.956-3.24-11.876-2.16-18.624 3.239-20.244-2.7-1.62-5.939-4.588-9.718-8.907-1.08-1.62-2.7-2.699-4.859-3.239-2.16-.54-5.938-.81-11.337-.81s-12.957.405-22.675 1.215-22.675 2.025-38.871 3.644c11.337 4.319 20.11 7.962 26.319 10.932 6.208 2.969 10.527 6.073 12.957 9.311 2.43 3.24 3.104 7.018 2.024 11.337-1.08 4.318-3.239 9.717-6.478 16.195-5.939 10.796-10.258 21.997-12.957 33.604-2.7 11.606-3.51 25.236-2.43 40.891.54 9.717 2.025 17.95 4.454 24.697 2.43 6.748 6.614 12.146 12.553 16.195 5.938 4.049 14.576 7.018 25.914 8.907 11.337 1.89 26.184 3.374 44.54 4.454 22.674 1.08 44.674.405 66-2.025 21.325-2.429 42.785-7.962 64.38-16.6 4.319-1.619 8.233-4.048 11.742-7.287 3.51-3.239 6.749-7.962 9.718-14.17 2.97-6.208 5.939-14.17 8.908-23.887 2.97-9.717 6.074-22.403 9.313-38.058 3.239-14.036 7.558-21.188 12.957-21.458 5.399-.27 8.908 6.343 10.527 19.838 1.62 15.655 3.24 28.476 4.86 38.463 1.619 9.987 3.104 18.084 4.453 24.292 1.35 6.208 2.7 10.932 4.05 14.17 1.35 3.24 2.834 5.939 4.453 8.098 7.559 9.717 9.583 19.029 6.074 27.936-3.51 8.907-13.902 17.14-31.178 24.697-14.577 5.938-30.773 10.526-48.589 13.765-17.816 3.24-36.307 5.533-55.472 6.883-19.166 1.35-38.197 1.62-57.092.81-18.896-.81-36.982-2.564-54.258-5.264-56.147-8.097-88.27-33.199-96.368-75.305-1.62-8.097-2.7-17.274-3.24-27.531-.54-10.257.54-22.133 3.24-35.629 2.7-14.035 4.32-24.832 4.859-32.39.54-7.557.27-15.384-.81-23.481-.54-2.7-.81-5.129-.81-7.288v-6.478a4881.366 4881.366 0 0 0-17.006 29.15c-5.938 10.257-12.687 20.514-20.245 30.77-18.896 26.452-41.706 49.8-68.43 70.043-26.724 20.243-57.092 36.033-91.104 47.37-18.896 6.477-29.018 7.557-30.368 3.238-1.35-4.318 5.804-11.066 21.46-20.243 16.736-9.717 33.203-21.188 49.399-34.414 16.196-13.226 31.313-27.396 45.35-42.511 14.036-15.115 26.858-30.635 38.466-46.56 11.607-15.925 21.46-31.715 29.558-47.37a2102.727 2102.727 0 0 1-36.442 4.859c-2.16 5.938-5.128 10.661-8.908 14.17-3.779 3.51-7.018 5.264-9.717 5.264-3.78 0-7.694-2.43-11.743-7.288-4.049-4.859-7.693-12.956-10.932-24.292-4.86-17.275-8.908-31.31-12.147-42.107-3.24-10.796-5.94-19.568-8.099-26.316-2.16-6.748-4.049-11.876-5.668-15.385a359.654 359.654 0 0 0-4.86-10.122c-8.097-13.495-8.502-22.268-1.214-26.316 7.288-4.049 22.27-2.294 44.945 5.263a1519.12 1519.12 0 0 0 25.104-2.024 951.207 951.207 0 0 0 27.534-2.834m137.669-232.395c-7.559 1.08-16.602 2.294-27.13 3.644a5292.758 5292.758 0 0 1-32.392 4.049c-11.067 1.35-22.27 2.699-33.607 4.048-11.338 1.35-21.595 2.564-30.773 3.644 8.098 5.938 12.822 11.336 14.172 16.195 1.35 4.858.404 10.796-2.835 17.814-1.08 2.7-2.16 8.637-3.24 17.814 11.878-4.318 21.596-6.883 29.154-7.692 7.559-.81 14.847.135 21.865 2.834 5.4 2.16 9.313 4.858 11.743 8.097 2.43 3.24 2.564 6.478.405 9.717-2.16 3.239-7.019 6.343-14.577 9.312-7.558 2.97-18.356 5.533-32.393 7.693-3.239.54-6.343 1.08-9.313 1.619-2.969.54-6.073 1.08-9.313 1.62v9.716c14.577-2.159 25.375-1.754 32.393 1.215 7.018 2.969 12.687 8.502 17.006 16.6 1.62 3.239 1.89 6.477.81 9.716-1.08 3.24-3.24 5.938-6.479 8.098-3.239 2.16-7.153 3.374-11.742 3.644-4.589.27-9.313-.945-14.172-3.644-4.319-2.16-7.693-4.049-10.122-5.668a191.423 191.423 0 0 0-7.694-4.859c0 16.195-.674 29.286-2.024 39.272-1.35 9.987-2.564 17.14-3.644 21.458-6.479 18.355-16.736 19.164-30.773 2.43-7.019-8.098-10.933-14.036-11.743-17.815-.81-3.778.405-8.367 3.645-13.765 4.319-8.097 7.288-17.274 8.908-27.531-10.258 15.655-21.46 27.936-33.608 36.843-12.147 8.907-26.049 15.79-41.705 20.648-11.878 3.779-18.896 4.184-21.055 1.215-2.16-2.97 1.89-8.232 12.147-15.79 9.178-7.018 20.11-17.68 32.797-31.985 12.687-14.305 23.35-29.015 31.988-44.13-20.515 1.62-36.172-.54-46.97-6.478-9.177-4.319-13.361-8.233-12.551-11.741.81-3.51 5.803-5.264 14.981-5.264a1219.79 1219.79 0 0 0 33.203-2.024 266.795 266.795 0 0 0 32.392-4.454c-.54-18.354-1.08-31.175-1.62-38.462-.54-7.288-1.889-13.63-4.049-19.029-15.116 1.08-28.613 1.485-40.49 1.215-11.878-.27-24.025-1.485-36.442-3.644-2.7 33.469-5.129 61.54-7.288 84.212-2.16 22.673-4.184 42.512-6.074 59.516-1.89 17.005-4.049 32.255-6.478 45.75-2.43 13.496-4.994 27.801-7.694 42.916-8.098 39.947-17.14 75.71-27.129 107.29-9.987 31.58-21.19 59.651-33.607 84.213-12.417 24.562-25.914 45.885-40.49 63.97-14.577 18.084-30.234 33.604-46.97 46.56-17.276 13.495-27.264 18.623-29.963 15.384-2.7-3.239 2.7-14.845 16.196-34.818 14.577-21.593 27.669-43.186 39.276-64.78 11.608-21.592 22-44.535 31.178-68.827s17.276-50.878 24.295-79.759c7.018-28.88 13.497-61.675 19.435-98.383 9.178-57.222 13.092-104.591 11.742-142.109-1.35-37.518-5.803-63.564-13.361-78.14-7.559-15.115-6.21-24.427 4.049-27.936 10.257-3.508 31.312 2.834 63.165 19.03 17.816.539 37.927 0 60.331-1.62 22.405-1.62 45.35-3.779 68.835-6.478 23.484-2.7 46.564-6.073 69.239-10.122 22.675-4.049 42.92-8.502 60.736-13.36 14.577-3.78 27.129-6.748 37.657-8.908 10.527-2.159 19.435-3.643 26.724-4.453 7.288-.81 13.362-.81 18.22 0 4.86.81 9.448 2.024 13.767 3.644 20.516 9.177 30.233 17.274 29.154 24.292-1.08 7.017-12.957 11.336-35.632 12.956-6.479.54-12.147.944-17.006 1.214-4.86.27-9.853.81-14.982 1.62s-11.202 1.754-18.22 2.834c-7.02 1.08-15.657 2.429-25.915 4.048 11.338 7.558 18.086 13.766 20.245 18.624 2.16 4.859 1.62 11.337-1.62 19.434-1.079 3.239-1.619 8.637-1.619 16.195 4.86-1.08 9.178-2.025 12.957-2.834 3.78-.81 6.749-1.485 8.908-2.025 17.816-6.478 30.773-9.986 38.871-10.526 8.099-.54 17.007 1.08 26.724 4.858 14.577 4.859 21.46 10.257 20.65 16.195-.81 5.938-12.821 11.066-36.036 15.385a720.662 720.662 0 0 1-29.963 5.668c-9.718 1.62-19.976 2.97-30.773 4.049 30.233 20.513 58.981 36.168 86.245 46.965 27.264 10.796 53.043 18.354 77.337 22.672 15.657 2.7 23.755 7.018 24.295 12.956.54 5.938-6.209 9.987-20.246 12.146-21.055 3.239-37.521 5.533-49.398 6.883-11.878 1.35-21.46 1.89-28.749 1.62-7.288-.27-12.822-1.62-16.601-4.05-3.78-2.429-8.098-5.803-12.957-10.121-12.417-11.876-23.755-22.538-34.012-31.985-10.258-9.447-22.675-21.188-37.252-35.223v28.34c0 17.275-.27 29.69-.81 37.248-.54 7.558-1.62 12.686-3.239 15.385-4.859 9.177-10.123 13.766-15.791 13.766-5.669 0-12.282-5.668-19.84-17.005-4.32-5.938-6.884-11.74-7.694-17.409-.81-5.668.945-13.09 5.264-22.268 1.62-3.778 2.97-8.772 4.049-14.98 1.08-6.208 1.62-14.17 1.62-23.887-9.718 16.195-19.301 28.61-28.749 37.248-9.448 8.637-20.92 16.734-34.417 24.292-10.798 6.478-17.951 7.962-21.46 4.454-3.51-3.51-.675-9.043 8.503-16.6 13.497-11.876 24.16-22.673 31.988-32.39 7.828-9.716 14.711-21.053 20.65-34.009-4.859-1.08-9.178-2.024-12.957-2.834-3.78-.81-7.289-2.024-10.528-3.643-8.098-3.78-11.877-7.288-11.337-10.527.54-3.239 4.589-5.128 12.147-5.668 5.939 0 12.957-.54 21.055-1.62a482.134 482.134 0 0 0 25.105-4.048c-.54-10.797-1.485-20.649-2.835-29.556-1.35-8.907-3.374-17.949-6.073-27.126m-23.485-67.208c2.16 15.655-1.08 26.316-9.718 31.984-8.638 5.669-19.705 4.724-33.202-2.834-4.86-2.699-11.743-8.097-20.65-16.194-8.909-8.098-17.952-17.005-27.13-26.722-10.797-11.336-15.386-18.624-13.766-21.863 1.62-3.239 10.797-4.858 27.533-4.858 25.375 0 44.135 3.644 56.283 10.931 12.147 7.288 19.03 17.14 20.65 29.556m-23.485 334.421c10.798-2.699 19.3-4.318 25.51-4.858 6.208-.54 12.552 0 19.03 1.62 10.798 2.699 16.061 7.692 15.791 14.98-.27 7.287-6.073 12.01-17.41 14.17a5253.774 5253.774 0 0 1-27.13 4.454 3235.998 3235.998 0 0 1-23.08 3.643 183.96 183.96 0 0 1-3.643 11.337 824.5 824.5 0 0 1-4.454 12.146c12.957-1.62 23.484-2.834 31.583-3.644 8.098-.81 14.576-1.35 19.435-1.62 4.859-.27 8.368-.404 10.528-.404s3.779.27 4.859.81c3.239 1.619 5.668 2.159 7.288 1.619 1.62-.54 3.78-3.51 6.478-8.907 4.86-11.337 9.043-22.133 12.553-32.39a247.233 247.233 0 0 0 8.503-31.58c2.7-11.336-4.32-15.385-21.056-12.146-10.257 1.62-21.73 3.24-34.417 4.859-12.687 1.62-26.049 3.509-40.086 5.668 6.479 6.478 9.718 13.226 9.718 20.243m-57.497 38.868c-9.178 0-16.736-.54-22.675-1.62-5.938-1.08-11.607-2.429-17.006-4.048-9.178-3.24-13.227-7.018-12.147-11.337 1.08-4.318 6.209-6.478 15.387-6.478 5.938 0 12.417-.404 19.435-1.214a816.956 816.956 0 0 0 21.865-2.834c1.62-8.098 1.89-16.735.81-25.912a876.965 876.965 0 0 1-39.68 5.668c-13.498 1.62-26.455 2.97-38.872 4.049 1.62 11.336 3.51 23.077 5.669 35.224a2854.46 2854.46 0 0 0 7.288 39.272l51.828-6.478a824.5 824.5 0 0 0 4.454-12.146c1.35-3.779 2.565-7.828 3.644-12.146"/></g></svg>