<svg xmlns="http://www.w3.org/2000/svg" xmlns:xlink="http://www.w3.org/1999/xlink" width="1024" height="1024"><defs><filter id="a" width="125.6%" height="125.6%" x="-6.4%" y="-6.4%" filterUnits="objectBoundingBox"><feOffset dx="5" dy="5" in="SourceAlpha" result="shadowOffsetOuter1"/><feGaussianBlur in="shadowOffsetOuter1" result="shadowBlurOuter1" stdDeviation="2"/><feColorMatrix in="shadowBlurOuter1" values="0 0 0 0 0 0 0 0 0 0 0 0 0 0 0 0 0 0 0.5 0"/></filter><filter id="c" width="125.6%" height="125.6%" x="-6.4%" y="-6.4%" filterUnits="objectBoundingBox"><feOffset dx="5" dy="5" in="SourceAlpha" result="shadowOffsetOuter1"/><feGaussianBlur in="shadowOffsetOuter1" result="shadowBlurOuter1" stdDeviation="2"/><feColorMatrix in="shadowBlurOuter1" values="0 0 0 0 0 0 0 0 0 0 0 0 0 0 0 0 0 0 0.5 0"/></filter><circle id="b" cx="157.21" cy="101.605" r="35.156"/><circle id="d" cx="157.851" cy="102.332" r="35.156"/></defs><g fill="none" fill-rule="evenodd"><path fill="#FFF" d="M0 0h1024v1024H0z"/><g transform="translate(112 112)"><circle cx="400" cy="400" r="400" fill="#53DB1B"/><path fill="#000" fill-opacity=".201" d="m233.601 562.754-45.538-61.777 376.195-317.614L800 413.316C795.878 505.844 767.414 585 699.225 664.523c-66.08 73.825-141.36 113.37-239.312 130.992L233.601 562.754"/><path fill="#DEDDE2" d="m172.608 203.888 391.65-20.525 15.455 294.907-391.65 20.526z"/><path fill="#BCFCFF" d="m211.918 229.992 315.973-16.56 12.512 238.735-315.973 16.56z"/><g transform="translate(172.608 181.355)"><use xlink:href="#b" fill="#000" filter="url(#a)"/><use xlink:href="#b" fill="#F9A825"/></g><path fill="#87C135" d="M349.113 385.326c9.094 9.154 24.241 27.75 45.44 55.789l-71.292 22.154-99.525 5.561c11.742-37.134 20.934-61.741 27.576-73.822 13.337-24.26 30.817-36.395 38.723-38.896 20.937-6.625 46.715 16.77 59.078 29.214"/><path fill="#FFF" d="m279.798 268.471 387.36 61.352L620.96 621.5l-387.359-61.352z"/><path fill="#2196F3" d="m312.823 302.177 312.51 49.497-37.397 236.12-312.51-49.497z"/><g transform="rotate(12 -1030.075 1476.553)"><use xlink:href="#d" fill="#000" filter="url(#c)"/><use xlink:href="#d" fill="#F9A825"/></g><path fill="#87C135" d="M417.44 487.625c6.61 11.082 16.809 32.79 30.595 65.124l-76.732.982-95.716-15.414c20.377-33.19 35.249-54.843 44.616-64.959 18.81-20.313 38.706-27.858 46.982-28.372 21.918-1.363 41.27 27.574 50.256 42.639"/><path fill="#ADE65C" d="M588.131 490.17c9.27 28.113 9.27 60.747 0 97.903l-216.828-34.342c42.424-48.216 71.988-79.611 88.693-94.185 36.573-31.91 64.807-42.2 75.977-39.883 24.056 4.992 45.761 51.106 52.158 70.506"/></g></g></svg>