<svg xmlns="http://www.w3.org/2000/svg" width="1025" height="1024"><g fill="none" fill-rule="evenodd"><path fill="#FFF" d="M.633 0h1024v1024H.633z"/><g fill-rule="nonzero"><path fill="#0084FF" d="M512.633 128.327C300.563 128.327 128.96 299.93 128.96 512c0 212.07 171.603 383.673 383.673 383.673S896.307 724.07 896.307 512c0-212.069-171.603-383.673-383.674-383.673Z"/><path fill="#FFF" d="M512.633 374.858c-75.804 0-137.142 61.339-137.142 137.142s61.34 137.142 137.142 137.142c75.803 0 137.142-61.339 137.142-137.142s-61.337-137.142-137.142-137.142"/><path fill="#000" d="M795.541 229.094C720.031 153.586 619.561 112 512.633 112c-106.928 0-207.398 41.586-282.908 117.094C154.216 304.602 112.633 405.072 112.633 512s41.585 207.398 117.092 282.908C305.233 870.418 405.705 912 512.633 912c106.928 0 207.399-41.584 282.908-117.092C871.051 719.4 912.633 618.928 912.633 512c0-106.928-41.584-207.397-117.092-282.906M512.633 879.347c-202.554 0-367.347-164.792-367.347-367.347 0-202.555 164.793-367.347 367.347-367.347 202.555 0 367.347 164.792 367.347 367.347 0 202.555-164.792 367.347-367.347 367.347"/><path fill="#000" d="M666.102 512c0-84.622-68.845-153.469-153.469-153.469-84.623 0-153.469 68.847-153.469 153.469s68.847 153.469 153.47 153.469c84.621 0 153.468-68.846 153.468-153.469m-274.284 0c0-66.619 54.196-120.816 120.815-120.816S633.45 445.381 633.45 512s-54.197 120.816-120.816 120.816S391.818 578.619 391.818 512"/><path fill="#000" d="M558.347 512c0-25.206-20.506-45.714-45.714-45.714S466.92 486.794 466.92 512s20.508 45.714 45.714 45.714 45.714-20.506 45.714-45.714m-58.775 0c0-7.202 5.86-13.06 13.061-13.06 7.202 0 13.061 5.858 13.061 13.06 0 7.202-5.86 13.06-13.06 13.06-7.202 0-13.062-5.858-13.062-13.06m13.061 212.245c-9.017 0-16.326 7.31-16.326 16.327 0 9.017 7.309 16.326 16.326 16.326 65.464 0 126.977-25.459 173.208-71.692 46.23-46.23 71.69-107.742 71.69-173.206 0-9.017-7.31-16.327-16.327-16.327-9.018 0-16.327 7.31-16.327 16.327.002 117.031-95.213 212.245-212.244 212.245m302.04-228.572c-9.016 0-16.326 7.31-16.326 16.327 0 2.314-.028 4.622-.081 6.922-.212 9.014 6.922 16.495 15.936 16.706l.394.005c8.837 0 16.104-7.058 16.315-15.94.061-2.559.093-5.124.093-7.696-.004-9.014-7.313-16.324-16.33-16.324"/><path fill="#000" d="M811.93 556.123c-8.837-1.789-17.45 3.938-19.231 12.779-26.73 132.584-144.514 228.812-280.066 228.812-9.017 0-16.326 7.31-16.326 16.327 0 9.017 7.309 16.326 16.326 16.326 73.99 0 146.042-25.895 202.886-72.919 56.094-46.401 94.87-111.068 109.19-182.093 1.78-8.838-3.94-17.449-12.779-19.232M512.633 299.755c9.017 0 16.327-7.31 16.327-16.327 0-9.017-7.31-16.326-16.327-16.326-65.464 0-126.976 25.459-173.208 71.692-46.23 46.23-71.69 107.742-71.69 173.206 0 9.017 7.31 16.327 16.326 16.327 9.018 0 16.327-7.31 16.327-16.327 0-117.031 95.214-212.245 212.245-212.245M211.064 488.369c-8.998-.219-16.495 6.922-16.706 15.936-.061 2.564-.092 5.13-.092 7.695 0 9.017 7.31 16.327 16.327 16.327 9.017 0 16.326-7.31 16.326-16.327 0-2.314.028-4.622.081-6.922.213-9.015-6.921-16.495-15.936-16.71"/><path fill="#000" d="M512.633 226.286c9.017 0 16.327-7.31 16.327-16.327 0-9.017-7.31-16.326-16.327-16.326-73.989 0-146.042 25.895-202.886 72.919-56.093 46.401-94.87 111.068-109.189 182.093-1.781 8.84 3.94 17.45 12.778 19.232 1.09.22 2.175.325 3.244.325 7.613 0 14.425-5.354 15.988-13.104 26.728-132.584 144.514-228.812 280.065-228.812"/></g></g></svg>