<svg xmlns="http://www.w3.org/2000/svg" width="1024" height="1024"><defs><linearGradient id="a" x1="123.775%" x2="-29.433%" y1="50%" y2="52.819%"><stop offset="0%" stop-color="#0E1629"/><stop offset="100%" stop-color="#0E1629"/></linearGradient></defs><g fill="none" fill-rule="evenodd"><path fill="#DE3028" d="M0 0h1024v1024H0z"/><g transform="translate(142 218)"><rect width="578.466" height="587.198" x="76.401" fill="#FFF" rx="54"/><path fill="#C7D3D3" fill-rule="nonzero" d="M703.717 296.583a3.958 3.958 0 0 0-3.02-.538 4.118 4.118 0 0 0-2.552 1.78l-58.299 89.772-35.174 21.58c-2.42-2.398-6.11-2.96-9.194-1.4l-11.891 6.275c-3.887 2.1-5.448 6.918-3.514 10.84l2.715 5.36c2.014 3.881 6.767 5.37 10.694 3.348l12.047-6.368c3.887-2.1 5.448-6.919 3.514-10.842l-.336-.217 35.866-21.91c.429-.426.762-.94.976-1.504l58.965-90.798c1.153-1.757.808-4.085-.797-5.378M589.5 428.031l-2.404-5.205 11.807-6.909.78 1.721 1.606 3.372-11.789 7.02"/><path fill="#000" fill-rule="nonzero" d="M372.962 291.367c0-.813-.296-1.514-.879-2.102-.583-.589-1.278-.887-2.083-.887-.805 0-1.5.298-2.083.887-.583.588-.88 1.29-.88 2.102 0 .812.297 1.513.88 2.102.583.588 1.278.887 2.083.887.805 0 1.5-.299 2.083-.887.583-.598.88-1.299.88-2.102m38.513 43.343v16.44c0 .682-.306 1.15-.926 1.402-.25.065-.435.093-.555.093-.398 0-.76-.14-1.065-.42l-4.305-4.344c-3.675 4.456-8.582 7.977-14.748 10.574-6.156 2.606-12.775 3.905-19.876 3.905-7.1 0-13.72-1.299-19.886-3.905-6.156-2.597-11.072-6.128-14.738-10.574l-4.305 4.344c-.278.28-.63.42-1.065.42-.12 0-.305-.028-.555-.093-.62-.253-.926-.72-.926-1.402v-16.44c0-.44.139-.794.417-1.074.277-.28.63-.42 1.064-.42H346.3c.676 0 1.139.308 1.389.933.25.589.139 1.14-.324 1.635l-4.63 4.67c2.065 2.831 4.99 5.222 8.777 7.165 3.787 1.943 7.971 3.233 12.563 3.849v-30.21h-8.887c-.806 0-1.5-.298-2.083-.887-.584-.588-.88-1.289-.88-2.102v-5.978c0-.813.296-1.513.88-2.102.583-.588 1.277-.887 2.083-.887h8.887v-7.613c-1.787-1.056-3.222-2.494-4.305-4.316-1.083-1.821-1.62-3.82-1.62-6.006 0-3.298 1.157-6.119 3.472-8.454 2.314-2.335 5.11-3.503 8.378-3.503s6.064 1.168 8.378 3.503c2.315 2.335 3.472 5.156 3.472 8.454 0 2.176-.537 4.185-1.62 6.006-1.083 1.822-2.518 3.26-4.305 4.316v7.613h8.887c.806 0 1.5.299 2.083.887.584.589.88 1.29.88 2.102v5.978c0 .813-.296 1.514-.88 2.102-.583.589-1.277.888-2.083.888h-8.887v30.218c4.601-.625 8.786-1.905 12.563-3.848 3.777-1.943 6.702-4.335 8.776-7.165l-4.629-4.67c-.463-.496-.574-1.047-.324-1.635.25-.626.713-.934 1.389-.934h16.294c.435 0 .787.14 1.064.42.278.27.417.626.417 1.065"/><path fill="#0F172A" d="m361.755 297.758-12.98-29.667a9 9 0 0 1 8.246-12.607h25.958a9 9 0 0 1 8.246 12.607l-12.98 29.667a9 9 0 0 1-16.49 0"/><g transform="translate(0 21.829)"><circle cx="174.631" cy="174.631" r="174.631" fill="url(#a)"/><circle cx="174.631" cy="174.631" r="65.487" fill="#E03C34"/></g><g transform="translate(390.738 21.829)"><circle cx="174.631" cy="174.631" r="174.631" fill="url(#a)"/><circle cx="174.631" cy="174.631" r="65.487" fill="#E03C34"/></g></g></g></svg>