<svg xmlns="http://www.w3.org/2000/svg" width="1024" height="1024"><g fill="none" fill-rule="evenodd"><path fill="#0082C9" d="M0 0h1024v1024H0z"/><path fill="#FFF" fill-rule="nonzero" d="M512.555 344.023c-77.076 0-141.826 52.795-161.597 123.791-17.272-37.994-55.292-64.912-99.438-64.912-60.365.288-109.23 49.152-109.52 109.517v.024c.267 60.37 49.127 109.25 109.497 109.543h.023c44.146 0 82.14-26.941 99.414-64.935 19.772 71.037 84.545 123.834 161.621 123.834 76.683 0 141.086-52.193 161.297-122.635 17.552 37.3 54.968 63.733 98.605 63.733 60.384-.254 109.275-49.134 109.543-109.517v-.026c-.28-60.373-49.146-109.25-109.52-109.54h-.023c-43.66 0-81.1 26.454-98.628 63.732C653.664 396.216 589.26 343.977 512.579 344l-.024.023m0 64.288c57.523 0 104.155 46.631 104.155 104.155 0 57.523-46.632 104.155-104.155 104.155h-.462a103.67 103.67 0 0 1-103.671-103.67v-.506A103.671 103.671 0 0 1 512.558 408.29l-.003.022M251.52 467.207c25.345 0 45.232 19.888 45.232 45.256s-19.864 45.232-45.232 45.255h-.463c-24.723-.003-44.764-20.044-44.77-44.767v-.506c0-25.365 19.865-45.232 45.233-45.255v.017Zm520.937 0c25.365 0 45.255 19.888 45.255 45.256s-19.887 45.255-45.255 45.255h-.463c-24.724-.003-44.766-20.045-44.77-44.77v-.505c0-25.366 19.865-45.233 45.233-45.256v.02"/></g></svg>