<svg xmlns="http://www.w3.org/2000/svg" width="1024" height="1024"><defs><linearGradient id="a" x1="50%" x2="50%" y1="0%" y2="100%"><stop offset="0%" stop-color="#A9ED8A"/><stop offset="100%" stop-color="#A0EC7A"/></linearGradient><linearGradient id="b" x1="50%" x2="50%" y1="0%" y2="100%"><stop offset="0%" stop-color="#A9ED8A"/><stop offset="100%" stop-color="#A0EC7A"/></linearGradient><linearGradient id="c" x1="50%" x2="50%" y1="0%" y2="100%"><stop offset="0%" stop-color="#A9ED8A"/><stop offset="100%" stop-color="#A0EC7A"/></linearGradient><linearGradient id="d" x1="50%" x2="50%" y1="0%" y2="100%"><stop offset="0%" stop-color="#39C0E4"/><stop offset="100%" stop-color="#4FBBE7"/></linearGradient><linearGradient id="e" x1="10.51%" x2="100%" y1="35.212%" y2="55.844%"><stop offset="0%" stop-color="#2EADDC"/><stop offset="100%" stop-color="#47CFF2"/></linearGradient><linearGradient id="f" x1="99.303%" x2="0%" y1="20.188%" y2="72.262%"><stop offset="0%" stop-color="#3C8CC5"/><stop offset="100%" stop-color="#141B28"/></linearGradient><linearGradient id="g" x1="100%" x2="3.092%" y1="47.835%" y2="52.165%"><stop offset="0%" stop-color="#70D6FD"/><stop offset="100%" stop-color="#2B96F1"/></linearGradient><linearGradient id="h" x1="69.505%" x2="30.559%" y1="41.699%" y2="70.917%"><stop offset="0%" stop-color="#3CD3E6"/><stop offset="100%" stop-color="#38ACED"/></linearGradient><linearGradient id="i" x1="100%" x2="0%" y1="50%" y2="50%"><stop offset="0%" stop-color="#B7EF82"/><stop offset="55.067%" stop-color="#75E99F"/><stop offset="100%" stop-color="#30D2C5"/></linearGradient></defs><g fill="none" fill-rule="evenodd"><path fill="#151B29" d="M0 0h1024v1024H0z"/><g fill-rule="nonzero"><g fill="#FFF"><path d="M141.7 631.06V781h24.57V671.38h.84L242.08 781h23.94V631.06h-24.78v108.15h-.84l-74.13-108.15zM339.52 669.49c-16.17 0-28.98 5.46-38.22 16.59-9.66 10.92-14.28 24.36-14.28 40.53 0 18.06 5.04 32.13 15.12 42.42 9.45 9.87 22.26 14.91 38.43 14.91 14.49 0 26.46-4.2 36.12-12.39 7.56-6.72 12.6-15.33 15.12-25.41h-23.94c-2.94 6.09-6.09 10.5-9.66 13.23-4.62 3.36-10.5 5.04-17.85 5.04-8.61 0-15.33-2.73-19.95-7.98-4.62-5.25-7.35-13.02-8.19-23.1h81.27c0-19.53-4.41-34.86-13.02-45.78-9.45-12.18-23.1-18.06-40.95-18.06m.63 19.53c16.8 0 26.25 8.61 28.35 26.25h-55.86c1.47-8.61 4.41-15.12 8.82-19.53 4.62-4.62 10.71-6.72 18.69-6.72M405.67 672.43l37.38 50.82L400.84 781h28.14l27.3-40.11L483.37 781h28.14l-42.21-57.75 37.38-50.82h-27.93l-22.47 33.18-22.68-33.18zM559.18 637.36l-23.94 9.87v25.2h-19.53v19.74h19.53v61.32c0 8.82 2.1 15.33 6.3 19.95 4.41 5.04 11.34 7.56 20.79 7.56h18.27v-19.74h-14.28c-2.52 0-4.2-.63-5.46-1.89-1.26-1.47-1.68-3.36-1.68-5.88v-61.32h24.15v-19.74h-24.15v-35.07"/></g><path fill="url(#a)" d="M0 2.94v149.94h54.81c24.36 0 42.63-6.72 55.23-20.16 11.97-12.81 18.06-31.08 18.06-54.81 0-23.94-6.09-42.21-18.06-54.81C97.44 9.66 79.17 2.94 54.81 2.94zm24.57 21h25.62c18.69 0 32.34 4.2 40.95 12.81 8.4 8.4 12.6 22.26 12.6 41.16 0 18.48-4.2 32.13-12.6 40.95-8.61 8.61-22.26 13.02-40.95 13.02H24.57V23.94Z" transform="translate(618.7 632.12)"/><path fill="url(#b)" d="M165.27 0c-4.62 0-8.4 1.47-11.55 4.41-3.15 2.94-4.62 6.72-4.62 11.34s1.47 8.4 4.62 11.55c3.15 2.94 6.93 4.41 11.55 4.41 4.62 0 8.4-1.47 11.55-4.41 3.15-2.94 4.83-6.93 4.83-11.55 0-4.62-1.68-8.4-4.62-11.34C173.88 1.47 169.89 0 165.27 0M153.3 44.31v108.57h23.94V44.31z" transform="translate(618.7 632.12)"/><path fill="url(#c)" d="M258.09 41.37c-6.72 0-12.39 1.89-17.22 5.88-3.99 2.94-7.35 7.14-10.29 12.6V44.31h-23.73v108.57h23.73V95.34c0-9.24 2.73-16.59 8.61-22.26 5.04-5.04 10.71-7.35 17.01-7.35 5.04 0 10.08.63 15.54 2.31V44.1c-3.78-1.89-8.4-2.73-13.65-2.73" transform="translate(618.7 632.12)"/></g><path fill="url(#d)" d="M122.928 261.676c3.807-.298 10.008 4.81 18.603 15.326 8.595 10.516 16.394 15.89 23.397 16.123L144.624 314l-74.211-2.14 52.515-50.184" transform="translate(240.386 228)"/><path fill="url(#e)" d="M156.923 253.586c7.872 6.606 13.59 10.845 17.156 12.715 3.565 1.87 8.303 3.268 14.214 4.19l-12.335 8.291c-5.2 1.008-11.545-1.23-19.035-6.711-7.49-5.482-12.62-11.644-15.392-18.485h15.392" transform="translate(240.386 228)"/><path fill="url(#f)" d="M16.822 149H38.61l-16.55 17.135-12.42 12.86L0 170.28z" transform="translate(240.386 228)"/><path fill="url(#g)" d="M64.588 147.827H194.49l-36.346 34.435H29.017z" transform="translate(240.386 228)"/><path fill="url(#h)" d="M84.667 0h72.942l150.943 149.692-108.61 108.596c-4.347-1.46-11.737-3.04-22.172-4.744-10.434-1.703-19.866-8.316-28.296-19.84l83.85-84.012L84.667 0" transform="translate(240.386 228)"/><path fill="url(#i)" d="m378.609 0 156.293 155.956L376.47 311.86H184.306l52.532-49.687H352.77l77.757-76.728L315.053 183l44.55-42.786h83.88l-90.712-88.988H246.816L196.61 0z" transform="translate(240.386 228)"/></g></svg>