<svg xmlns="http://www.w3.org/2000/svg" width="1024" height="1024"><g fill="none" fill-rule="evenodd"><path fill="#FFF" d="M0 0h1024v1024H0z"/><g transform="translate(142 327)"><path fill="#BFBFBF" d="M694.25 0h-50.5c33.667 71.5 50.5 131.75 50.5 180.75S672.167 292.833 628 370h58.5c35.5-65.77 53.25-128.854 53.25-189.25 0-60.396-15.167-120.646-45.5-180.75"/><path fill="#BFBFBF" d="M570.5 0h-75C559.833 55.745 592 114.912 592 177.5c0 62.588-32.167 126.755-96.5 192.5h75c48.333-67.938 72.5-132.104 72.5-192.5 0-60.396-24.167-119.562-72.5-177.5"/><circle cx="370" cy="185" r="155" fill="#0D0D0D"/><rect width="43" height="90" x="285" y="108" fill="#FFF" rx="21.5"/><rect width="43" height="90" x="404" y="108" fill="#FFF" rx="21.5"/><path fill="#BFBFBF" d="M169 0h75c-64.333 55.745-96.5 114.912-96.5 177.5 0 62.588 32.167 126.755 96.5 192.5h-75c-48.333-67.938-72.5-132.104-72.5-192.5C96.5 117.104 120.667 57.938 169 0"/><path fill="#BFBFBF" d="M45.5 0H96C62.333 71.5 45.5 131.75 45.5 180.75S67.583 292.833 111.75 370h-58.5C17.75 304.23 0 241.146 0 180.75 0 120.354 15.167 60.104 45.5 0"/></g></g></svg>