<svg xmlns="http://www.w3.org/2000/svg" width="1025" height="1024"><g fill="none" fill-rule="evenodd"><path fill="#FFF" d="M.23 0h1024v1024H.23z"/><path fill="#000" fill-rule="nonzero" d="m606.684 185.108-366.368 20.58c-29.536 2.037-40.157 21.105-40.56 44.179l-6.986 400.29c-.314 17.971 5.834 33.459 20.88 54.272l84.066 113.112c13.817 18.217 26.584 22.29 53.592 21.486l425.35-18.253c35.976-1.925 46.552-18.44 47.044-46.662l7.86-450.332c.255-14.584-5.45-18.886-22.243-31.633-.956-.719-1.91-1.44-2.864-2.162l-115.368-84.151c-27.903-20.994-39.395-23.791-84.403-20.726M370.2 308.356c-34.74 1.726-42.617 2.116-62.05-14.22l-49.41-40.643c-5.01-5.236-2.326-11.614 10.508-12.667l352.215-19.507c29.558-2.059 44.784 8.483 56.187 17.659l59.584 44.694c2.548 1.32 8.81 9.11 1.118 8.975l-363.663 15.48-4.489.229M321.82 761.5l6.674-382.297c.291-16.695 5.546-24.305 20.974-25.334l417.636-17.09c14.175-1.028 20.435 8.059 20.144 24.732l-6.628 379.746c-.292 16.695-3.11 30.772-26.272 31.644l-399.638 16.127c-23.12.873-33.248-6.983-32.89-27.528m400.452-354.917c2.348 11.593-.403 23.096-12.007 24.214l-19.317 3.47-4.927 282.257c-16.858 8.683-32.331 13.54-45.165 13.316-20.547-.359-25.6-6.872-40.647-26.365L477.823 503.708l-3.336 191.148 39.663 9.692s-.403 23.096-32.532 22.535l-88.652 3.58c-2.46-5.192.314-17.971 9.368-20.366l23.187-5.998 4.411-252.738-32.04-3.156c-2.347-11.593 4.34-28.154 22.36-29.116l95.113-4.765 127.46 202.453 3.091-177.07-33.336-4.411c-2.303-14.188 8.117-24.26 20.995-25.311l88.696-3.6"/></g></svg>