<svg xmlns="http://www.w3.org/2000/svg" width="1025" height="1024"><g fill="none" fill-rule="evenodd"><path fill="#FFF" d="M.633 0h1024v1024H.633z"/><path fill="#FAA42F" d="M215.477 686.18v-2.305l-2.465-1.152v2.304z"/><path fill="#DDB02A" d="m213.012 598.607 2.465-1.153V554.82l-2.465-1.152z"/><path fill="#C47728" d="M245.16 666.59v-51.85l-29.683-17.285-2.465 1.153v84.116l2.465 1.152z"/><path fill="#F15933" d="m287.564 727.661 2.535-1.152 36.988 21.893v2.305z"/><path fill="#F37132" d="m290.099 691.94-44.94-25.35-29.682 17.285v2.304l72.087 41.482 2.535-1.152z"/><path fill="#D6E042" d="m213.012 469.552 2.465-1.152v-42.634l-2.465-2.305z"/><path fill="#FCEA3B" d="m213.012 553.668 2.465 1.233 25.927-14.75a203.952 203.952 0 0 1-1.66-27.538c0-9.472.818-19.359 1.648-28.807l-25.926-14.75-2.466 1.245.012 83.367"/><path fill="#FAA42F" d="m215.477 597.454 29.729 16.824 44.939-25.466v-34.568l-21.894-12.79a145.186 145.186 0 0 0 2.881 18.552l-23.852 13.942a200.495 200.495 0 0 1-5.761-34.568l-25.926 14.864-.116 43.21"/><path fill="#F15933" d="M290.099 726.509v-34.107l11.983-6.995-.415-.414c5.762 6.994 11.984 13.596 18.091 19.703a277.698 277.698 0 0 0 33.416 28.346l-25.926 15.21-37.15-21.743m44.477-60.033 30.075 17.284v25.12a195.886 195.886 0 0 1-25.926-22.585 149.795 149.795 0 0 1-13.597-14.404z"/><path fill="#E22574" d="M438.857 815.234v-3.457l-36.873-20.74-2.304 1.152z"/><path fill="#EF3839" d="m399.68 792.189 2.062-1.233V760.88a260.414 260.414 0 0 1-48.626-28l-26.041 15.21v2.477l72.605 41.62"/><path fill="#BBD64B" d="m213.012 340.498 2.465-1.153v-1.152l-2.465 1.152z"/><path fill="#D6E042" d="M252.534 403.873v-43.787l-37.057-20.74-2.465 1.152v82.963l2.465 2.305z"/><path fill="#FFCF29" d="m215.477 468.4 25.927 14.749a281.155 281.155 0 0 1 18.897-74.898l-7.824-4.505-37.103 21.432.103 43.222m52.774 12.33 21.894-12.33v-43.21l-6.591-3.71a240.825 240.825 0 0 0-15.326 59.226l.023.023"/><path fill="#FAA42F" d="m268.205 542.145 21.894 12.79 36.988-21.432v-43.095l-36.988-21.432-21.894 12.33a260.414 260.414 0 0 0-2.05 31.226c.055 9.905.74 19.796 2.05 29.613"/><path fill="#F15933" d="m360.502 599.759 41.482 24.198v38.025l-36.872 21.893L334 666.59v-51.852z"/><path fill="#EE438D" d="m401.984 791.036 37.45 21.433 37.448-21.433v-8.642a270.784 270.784 0 0 1-75.013-21.432l.115 30.074m75.013-35.374v-7.398l-37.449-21.778-21.893 12.79a233.911 233.911 0 0 0 59.342 16.478v-.092"/><path fill="#F37132" d="m360.502 551.364-33.415-18.437-36.988 21.893v34.569L334 614.739l26.502-14.98z"/><path fill="#CC3192" d="m513.755 811.777-36.873-20.74-38.025 20.74v3.457l72.593 41.482 2.305-1.152z"/><path fill="#BD2025" d="m416.964 739.184 21.893-12.79v-42.75l-37.449-21.777-37.103 21.777v25.12a231.607 231.607 0 0 0 52.774 30.42h-.115"/><path fill="#9B3995" d="m514.907 856.716-1.152-1.152-2.305 1.152 1.152 1.152z"/><path fill="#F1EB59" d="M290.099 339.345V295.56h-1.268l-73.354 42.634v1.152l37.057 20.741z"/><path fill="#FCEA3B" d="m252.534 403.873 7.824 4.505a271.936 271.936 0 0 1 37.45-64.527l-7.836-4.54-37.449 21.317.011 43.245m30.881 17.63 6.591 3.71 36.988-21.317v-43.21l-6.176-3.308a254.652 254.652 0 0 0-37.449 64.182l.046-.058"/><path fill="#FAA42F" d="m327.087 403.873-36.988 21.893V468.4l36.988 21.893 33.415-19.589v-46.09l1.153-1.153z"/><path fill="#E22574" d="m472.273 664.286-33.416 19.589v42.634l38.025 21.893 36.873-21.893v-39.177h-1.153z"/><path fill="#F7975F" d="m327.087 532.927 33.415 18.437v-80.66l-33.415 19.59z"/><path fill="#CC3192" d="m476.882 791.036 37.103 21.433 37.45-21.433v-9.057a299.591 299.591 0 0 1-38.372 2.455 343.377 343.377 0 0 1-36.296-2.051l.115 8.653m74.552-35.835v-6.995l-37.564-21.778-37.103 21.778v7.398a259.261 259.261 0 0 0 36.296 2.477 240.825 240.825 0 0 0 38.371-2.88"/><path fill="#D31F26" d="m401.984 661.982 36.873 21.893 33.416-19.589-70.289-40.33z"/><path fill="#73206A" d="M588.652 814.082v-2.305l-36.872-20.74-38.025 20.74v43.787l1.152 1.152z"/><path fill="#D6E042" d="M288.831 295.559h1.268l36.988-20.856v-1.268z"/><path fill="#FFCF29" d="m290.099 339.345 7.835 4.54c6.994-8.642 14.403-16.477 21.778-24.313a260.414 260.414 0 0 1 34.568-29.267l-27.193-15.671-37.104 21.432.116 43.28m30.88 18.091 6.13 3.284 37.45-21.432v-23.852a195.886 195.886 0 0 0-25.927 22.584c-6.176 6.165-11.983 12.33-17.745 19.358l.093.058"/><path fill="#FAA42F" d="M401.984 400.416v-40.33l-36.872-20.74-38.025 20.74v43.787l34.568 19.588z"/><path fill="#853A96" d="m626.677 792.189-1.152-1.153-36.873 20.741v2.305z"/><path fill="#CC3192" d="M588.652 726.509v-42.634l-34.568-20.741-40.33 24.198v39.177l38.026 21.893z"/><path fill="#9B3995" d="m551.78 791.036 37.103 21.433 37.449-21.433v-30.88a274.24 274.24 0 0 1-74.552 21.777v9.103m58.074-52.198-20.971-12.329-37.103 21.778v6.994a248.891 248.891 0 0 0 58.074-16.477v.034"/><path fill="#FFCF29" d="m327.087 274.703 27.193 15.67a270.784 270.784 0 0 1 47.359-27.193v-31.687l-.83-.45-73.745 42.404z"/><path fill="#D98A26" d="m365.112 339.345 37.103 21.433 37.449-21.433v-43.21l-20.165-11.523a235.064 235.064 0 0 0-54.387 30.881z"/><path fill="#8F4F9F" d="m625.525 791.036 1.233.807 73.4-42.404v-1.233l-27.194-15.67a285.764 285.764 0 0 1-47.358 27.539l-.08 30.961"/><path fill="#F37132" d="m473.425 358.934-34.568-19.589-36.873 20.741v40.33z"/><path fill="#D24B9B" d="m554.084 663.134 34.568 20.74 36.873-21.892v-39.178z"/><path fill="#B263A7" d="m588.652 726.509 21.087 12.33a232.76 232.76 0 0 0 53.466-31.688V683.76L626.1 661.982l-37.449 21.778v42.749"/><path fill="#FFCF29" d="m400.832 231.032 1.152.46 36.873-21.432v-1.152z"/><path fill="#FAA42F" d="m419.268 284.036 20.165 11.523 30.074-16.823v-9.437l1.66-.404a244.282 244.282 0 0 0-51.853 15.21l-.046-.069m50.24-57.152-30.075-17.285-37.449 21.433v31.687a284.611 284.611 0 0 1 67.523-20.165v-15.67"/><path fill="#6B297A" d="m672.768 732.27 27.194 15.671 37.449-21.778v-34.107l-44.939-25.926-30.074 17.284v23.391c4.955-3.295 9.057-6.994 13.597-10.693l23.967 13.597a280.002 280.002 0 0 1-27.194 22.584v-.023"/><path fill="#782A8F" d="m739.6 727.661-1.152-1.152-38.025 21.893v1.152z"/><path fill="#F37132" d="m468.816 279.197-29.959 16.362v43.786l34.568 19.589 39.177-21.893h1.153v-32.264z"/><path fill="#9B3995" d="m664.702 599.759-39.177 23.045v39.178l36.873 21.893 31.111-17.284v-51.852l-28.807-16.132z"/><path fill="#FAA42F" d="m468.816 227.344 44.939-25.926v-34.095l-1.153-.819-73.745 42.404v1.152z"/><path fill="#F15933" d="M513.755 337.04v-32.263l44.938-25.58 29.96 16.362v43.786l-35.721 20.741z"/><path fill="#782A8F" d="M812.193 685.027v-1.152l-29.959-17.284-43.786 25.35v34.568l1.152 1.152z"/><path fill="#A01664" d="m664.702 553.668 35.721-20.74v-42.635l-35.72-20.74z"/><path fill="#C02026" d="M625.525 401.568v-41.482l-36.873-20.74-35.72 20.74z"/><path fill="#9B3995" d="m693.51 614.739 44.938-25.35V554.82l-38.025-21.893-35.72 20.741v44.939z"/><path fill="#F15933" d="m558.693 227.344 29.614-17.284 37.449 21.433v32.494a247.739 247.739 0 0 0-34.569-12.79v27.539a137.12 137.12 0 0 1 16.939 6.164l-19.82 11.097-29.613-16.823V227.32v.023"/><path fill="#9051A0" d="M743.057 599.759a12.905 12.905 0 0 0 1.636-4.171 12.675 12.675 0 0 1-1.647 4.125l.011.046m2.466-5.761a233.911 233.911 0 0 0 11.984-51.392l-19.359 11.523v34.568l7.836 4.529-.461.772m37.103 20.164 30.074-17.284V554.13l-28-16.017a275.393 275.393 0 0 1-16.016 69.137l.426-.83 13.516 7.743"/><path fill="#B01B4A" d="m700.423 360.086-38.025-20.74-36.873 20.74v41.482l39.177 23.046 35.721-20.741z"/><path fill="#C54627" d="m558.693 227.344 29.96-17.284-74.898-42.737v34.095z"/><path fill="#A41768" d="M664.702 424.614v44.938l35.721 20.741 38.025-21.893v-42.634l-38.025-21.893z"/><path fill="#EF3839" d="m588.652 339.345 37.45 21.433 37.103-21.433v-22.239a226.998 226.998 0 0 0-54.849-32.033l-19.819 11.097z"/><path fill="#9B3995" d="m700.423 532.927 37.449 21.432 19.358-11.522a251.195 251.195 0 0 0 2.051-30.881 284.611 284.611 0 0 0-2.051-32.494l-19.358-11.028-37.449 21.433v43.06"/><path fill="#6B297A" d="m784.539 538.689 28 16.016v-85.96l-28.461 16.017a201.648 201.648 0 0 1 1.66 27.54c0 9.045-.416 17.744-1.245 26.271l.046.116"/><path fill="#E22574" d="m662.398 339.345 37.564 21.433 4.528-2.466a206.257 206.257 0 0 0-17.745-20.165 294.982 294.982 0 0 0-24.312-20.971l-.035 22.17m65.103 5.416 9.887-5.37v-43.21l-37.449-21.432-28 16.477a269.632 269.632 0 0 1 33.416 28.346 323.789 323.789 0 0 1 22.123 25.12l.023.069"/><path fill="#782A8F" d="M812.193 597.454V554.82z"/><path fill="#CC3192" d="m700.423 403.873 37.449 21.432 4.528-2.477a233.911 233.911 0 0 0-37.449-64.528l-4.528 2.432v43.14m65.103 5.346 9.46-5.346v-43.21l-37.103-21.433-9.886 5.416a280.002 280.002 0 0 1 37.449 64.527l.08.046"/><path fill="#EF3839" d="m672.768 290.95 28-16.478-74.667-43.21v32.494a263.87 263.87 0 0 1 46.552 27.194z"/><path fill="#B263A7" d="m738.448 468.4 19.358 11.073a255.804 255.804 0 0 0-14.864-56.807l-4.529 2.478.035 43.256m46.09 16.016L813 468.4v-43.21l-37.449-21.317-9.483 5.346a271.936 271.936 0 0 1 18.552 75.244l-.081-.047"/><path fill="#853A96" fill-rule="nonzero" d="M812.193 425.766h1v43.21h-1z"/><path fill="#D1499A" d="m738.448 339.345 36.873 20.741 36.872-20.74-73.745-43.787z"/><path fill="#9B3995" d="m812.193 339.345-36.872 20.741v43.787l36.872 21.893z"/><path fill="#85459A" d="m812.193 597.454-29.959 17.285v51.852l29.96 17.284z"/><path fill="#341144" fill-rule="nonzero" d="M812.193 683.875h1v1.233h-1z"/><path fill="#F15933" d="m435.4 552.516 3.457 2.304v3.457l-3.457-2.304z"/><path fill="#F15933" d="M476.882 490.293v42.634l-38.025 21.893-3.457-2.304v-81.812l3.457-2.304z"/><path fill="#E22574" d="m517.212 598.607-3.457-1.153-3.457 2.305 2.304 1.152z"/><path fill="#EF3839" d="m513.755 554.82-36.873-21.893-38.025 21.893v3.457l71.44 41.482 3.458-2.305z"/><path fill="#EE3F8A" d="M588.652 557.125v-2.305l-36.872-21.893-38.025 21.893v42.634l3.457 1.153z"/><path fill="#EF3839" d="M551.78 532.927v-42.634L513.755 468.4l-36.873 21.893v42.634l36.873 21.893z"/><path fill="#E22574" d="M589.805 553.668v-84.116l-1.153-1.152-36.872 21.893v42.634l36.872 21.893z"/><path fill="#CC3192" d="m589.805 553.668-1.153 1.152v2.305l1.153-1.152z"/><path fill="#F37132" d="m435.4 470.704 3.457-2.304v-2.305l-3.457 1.153z"/><path fill="#F15933" d="m511.45 423.461 2.305 2.305V468.4l-36.873 21.893-38.025-21.893v-2.305z"/><path fill="#F4805F" d="m514.907 424.614-1.152 1.152-2.305-2.305h1.152z"/><path fill="#EF3839" d="M588.652 468.4v-1.152l-73.745-42.634-1.152 1.152V468.4l38.025 21.893z"/><path fill="#E22574" d="m588.652 468.4 1.153 1.152v-2.304h-1.153z"/><path fill="#F37132" d="M539.105 268.135V238.52l-25.35-14.864-25.35 14.864v29.614l25.35 14.749z"/><path fill="#552263" d="M763.798 655.068V625.11l-25.35-13.827-26.502 13.827v29.96l26.502 14.979z"/><path fill="#F37132" d="M315.564 655.068V625.11l-25.465-13.827-25.58 13.827v29.96l25.58 14.979z"/></g></svg>