<svg xmlns="http://www.w3.org/2000/svg" width="1025" height="1024"><g fill="none" fill-rule="evenodd"><path fill="#FFF" d="M.633 0h1024v1024H.633z"/><path fill="#38BDF8" fill-rule="nonzero" d="M256.261 753.792c-9.24 0-18.582-2.543-26.953-7.859-23.45-14.913-30.376-46.011-15.463-69.46l184.75-290.58c14.914-23.449 46.012-30.375 69.461-15.462 23.45 14.914 30.376 46.012 15.462 69.461l-184.75 290.58c-9.588 15.077-25.874 23.33-42.507 23.33v-.01"/><path fill="#99F6E4" fill-rule="nonzero" d="M499.045 873.72c-32.032 0-61.565-4.428-84.027-12.68a50.321 50.321 0 0 1-30.33-31.135 50.311 50.311 0 0 1 5.234-43.148l159.59-250.478c14.931-23.44 46.039-30.33 69.479-15.398 23.44 14.932 30.33 46.039 15.398 69.48L518.487 772.264c23.23-1.73 49.964-6.789 77.366-17.503 65.224-25.499 116.615-75.261 144.694-140.12 27.933-64.52 29.223-135.207 3.642-199.05-26.012-64.914-75.72-115.994-139.965-143.826-64.255-27.832-135.143-28.902-199.608-2.991-67.21 27.008-115.967 75.462-144.924 144.008-10.814 25.6-40.33 37.585-65.938 26.78-25.6-10.815-37.585-40.33-26.78-65.939 39.214-92.827 108.41-161.373 200.102-198.226 45.326-18.216 92.947-26.899 141.511-25.801 46.762 1.052 92.398 11.089 135.637 29.826 43.13 18.683 81.703 45.078 114.65 78.455 34.098 34.538 60.585 75.005 78.728 120.275 17.97 44.84 26.478 92.17 25.289 140.67-1.153 46.798-11.236 92.48-29.982 135.792-18.793 43.413-45.298 82.142-78.784 115.106-34.905 34.365-75.829 60.87-121.63 78.766-38.884 15.197-81.529 23.861-123.34 25.06-3.395.1-6.77.146-10.11.146v.027"/></g></svg>