<?xml version="1.0" encoding="UTF-8"?>
<svg width="1024px" height="1024px" viewBox="0 0 1024 1024" version="1.1" xmlns="http://www.w3.org/2000/svg" xmlns:xlink="http://www.w3.org/1999/xlink">
    <title>Open.resty</title>
    <g id="Icon-SVG" stroke="none" stroke-width="1" fill="none" fill-rule="evenodd">
        <g id="Open.resty" transform="translate(0, -0.0008)">
            <rect id="蒙版路径" fill="#FFFFFF" x="0" y="0" width="1024" height="1024"></rect>
            <g id="编组" transform="translate(142, 161.0008)" fill="#6DCE3F" fill-rule="nonzero">
                <path d="M427.213684,218.261053 C469.237894,202.643158 514.923157,197.034737 559.089474,205.525263 C608.163158,211.211579 650.61579,255.222106 653.536842,306.243158 C654.043158,327.391579 658.755789,347.916842 666.856842,367.312632 C651.94,355.394737 636.789473,343.866316 621.755789,332.221052 C561.698947,333.934736 508.886316,375.997894 487.776842,432.977895 C452.023158,506.393685 483.06421,612.291579 565.165264,633.401053 C647.266316,654.549474 721.07158,571.669474 740,490.775789 L740,502.304211 C726.563158,591.532632 678.346316,674.529474 578.251579,696.534737 C478.156843,718.54 330.741053,659.067369 299.777895,540.083158 C295.376842,510.405263 271.58,491.282105 252.067368,471.53579 C194.62,415.996842 122.061052,378.918948 45.6463155,360.418947 C100.328421,362.171579 155.010526,365.053684 209.731579,367.195789 C152.478947,298.570526 81.7894738,240.538947 0,206.226316 L0,204.473684 C86.3463159,226.59579 173.198948,246.303158 259.778947,267.490526 C220.208421,156.568421 142.742105,62.8999994 46.1915784,0 C173.393683,72.3252632 299.349473,147.026316 427.174737,218.261053 L427.213684,218.261053 Z M593.830526,294.831579 C603.567369,314.305263 619.224211,302.426315 614.940001,288.677895 C610.65579,274.890526 584.093685,275.357895 593.830526,294.831579 Z" id="形状"></path>
            </g>
        </g>
    </g>
</svg>