<svg xmlns="http://www.w3.org/2000/svg" width="1024" height="1024"><g fill="none" fill-rule="evenodd"><path fill="#FFF" d="M0 0h1024v1024H0z"/><path fill="#6DCE3F" fill-rule="nonzero" d="M569.214 379.261c42.024-15.618 87.71-21.226 131.875-12.736 49.074 5.687 91.527 49.697 94.448 100.718.506 21.149 5.219 41.674 13.32 61.07-14.917-11.918-30.068-23.447-45.101-35.092-60.057 1.714-112.87 43.777-133.98 100.757-35.753 73.416-4.712 179.314 77.39 200.423C789.265 815.55 863.071 732.67 882 651.776v11.528c-13.437 89.229-61.654 172.225-161.748 194.23-100.095 22.006-247.51-37.467-278.474-156.45-4.401-29.679-28.198-48.802-47.71-68.548-57.448-55.54-130.007-92.617-206.422-111.117 54.682 1.753 109.365 4.635 164.086 6.777C294.479 459.57 223.789 401.539 142 367.226v-1.752c86.346 22.122 173.199 41.83 259.779 63.017C362.209 317.568 284.742 223.9 188.192 161c127.202 72.325 253.157 147.026 380.983 218.261h.039m166.617 76.57c9.736 19.474 25.393 7.595 21.109-6.153-4.284-13.787-30.846-13.32-21.11 6.154"/></g></svg>