<?xml version="1.0" encoding="UTF-8"?>
<svg width="1024px" height="1024px" viewBox="0 0 1024 1024" version="1.1" xmlns="http://www.w3.org/2000/svg" xmlns:xlink="http://www.w3.org/1999/xlink">
    <title>Oracle_A</title>
    <g id="ICON-新版方图标" stroke="none" stroke-width="1" fill="none" fill-rule="evenodd">
        <g id="多版本" transform="translate(-7, -6144)">
            <g id="Oracle_A" transform="translate(7, 6144)">
                <rect id="蒙版路径" fill="#FFFFFF" x="0" y="0" width="1024" height="1024"></rect>
                <g id="ORACLE" transform="translate(117.74, 392.72)" fill="#C74634" fill-rule="nonzero">
                    <path d="M115.38,96.48 C116.5,117.92 112.82,140.04 104.34,162.84 C95.86,185.64 86.82,198.48 77.22,201.36 C73.38,202.64 69.62,203.12 65.94,202.8 C62.1,202.32 58.34,201.84 54.66,201.36 C21.7,197.52 3.54,162.56 0.18,96.48 C-0.78,78.56 2.1,59.36 8.82,38.88 C15.06,19.84 21.54,8.08 28.26,3.6 C29.86,2.48 31.62,1.92 33.54,1.92 C34.98,1.92 37.22,2.36 40.26,3.24 C43.3,4.12 45.62,4.56 47.22,4.56 C49.14,4.56 52.62,4.12 57.66,3.24 C62.7,2.36 66.42,1.92 68.82,1.92 C71.06,1.92 72.9,2.24 74.34,2.88 C99.14,12.96 112.82,44.16 115.38,96.48 Z M82.98,96.48 C81.38,76.48 79.22,61.44 76.5,51.36 C72.02,34.4 65.38,25.92 56.58,25.92 C54.18,25.92 51.66,26.56 49.02,27.84 C46.38,29.12 42.9,37.36 38.58,52.56 C34.1,69.2 31.86,83.84 31.86,96.48 C31.86,112.96 34.74,130.28 40.5,148.44 C46.26,166.6 51.78,175.68 57.06,175.68 C62.02,175.68 67.54,167.52 73.62,151.2 C80.02,134.24 83.22,118.16 83.22,102.96 C83.22,100.72 83.14,98.56 82.98,96.48 Z" id="形状"></path>
                    <path d="M274.42,181.44 C274.58,182.4 274.66,183.28 274.66,184.08 C274.66,188.88 271.86,192.92 266.26,196.2 C260.66,199.48 254.82,201.12 248.74,201.12 C245.06,201.12 242.1,200.4 239.86,198.96 C238.26,198 236.86,196.12 235.66,193.32 C234.46,190.52 233.14,188.64 231.7,187.68 L178.66,152.16 L180.82,174.24 C180.98,175.36 182.22,177.68 184.54,181.2 C186.86,184.72 188.02,187.68 188.02,190.08 C188.02,193.6 185.78,196.88 181.3,199.92 C178.58,201.84 175.14,202.8 170.98,202.8 C165.06,202.8 159.54,201.2 154.42,198 C148.82,194.8 145.46,190.72 144.34,185.76 C144.18,184.8 144.1,184 144.1,183.36 C144.1,181.12 145.18,179.16 147.34,177.48 C149.5,175.8 150.58,174.24 150.58,172.8 L142.9,36 C142.74,33.92 141.86,31.16 140.26,27.72 C138.66,24.28 137.86,21.76 137.86,20.16 C137.86,16 140.58,12.64 146.02,10.08 C150.5,7.84 155.06,6.72 159.7,6.72 C162.74,6.72 165.38,7.16 167.62,8.04 C169.86,8.92 171.38,10.28 172.18,12.12 C172.98,13.96 173.94,14.88 175.06,14.88 C175.22,15.04 180.1,13.28 189.7,9.6 C200.9,5.44 210.74,3.36 219.22,3.36 C231.54,3.36 241.46,7.68 248.98,16.32 C251.06,18.72 252.1,22.08 252.1,26.4 C252.1,38.08 245.38,54.56 231.94,75.84 C219.14,95.84 205.94,111.84 192.34,123.84 L254.26,167.04 C254.42,167.2 258.42,169.12 266.26,172.8 C270.74,174.88 273.46,177.76 274.42,181.44 Z M210.1,32.4 C206.58,32.4 200.98,35.76 193.3,42.48 C191.7,43.76 185.78,49.28 175.54,59.04 L175.06,102 C184.98,91.12 193.94,79 201.94,65.64 C209.94,52.28 213.94,42.72 213.94,36.96 C213.94,33.92 212.66,32.4 210.1,32.4 Z" id="形状"></path>
                    <path d="M431.3,148.32 C430.18,150.4 427.7,151.68 423.86,152.16 C423.54,152.16 420.1,152.32 413.54,152.64 C414.66,159.84 418.82,168.8 426.02,179.52 C430.18,182.56 432.26,186.56 432.26,191.52 C432.26,199.36 427.46,203.28 417.86,203.28 C408.74,203.28 402.5,200.96 399.14,196.32 C398.02,194.72 397.3,192.56 396.98,189.84 C396.98,188.08 396.9,186.24 396.74,184.32 C395.3,182.88 390.98,173.6 383.78,156.48 C370.66,158.4 354.5,161.12 335.3,164.64 C333.38,169.28 331.3,176 329.06,184.8 C329.38,186.4 329.54,187.92 329.54,189.36 C329.54,193.68 328.1,197 325.22,199.32 C322.34,201.64 318.9,202.8 314.9,202.8 C310.42,202.8 306.26,201.12 302.42,197.76 C298.58,194.4 296.66,190.48 296.66,186 C296.66,182 298.5,178.4 302.18,175.2 C314.18,114.24 328.74,63.84 345.86,24 C345.54,22.08 345.38,20.16 345.38,18.24 C345.38,10.24 348.1,4.96 353.54,2.4 C355.78,1.44 358.66,0.96 362.18,0.96 C368.9,0.96 374.5,2 378.98,4.08 C384.74,6.96 387.62,11.28 387.62,17.04 C387.62,22.32 386.18,27.04 383.3,31.2 C386.34,58.4 392.9,89.76 402.98,125.28 C403.94,125.12 407.22,124.32 412.82,122.88 C416.18,121.92 418.74,121.44 420.5,121.44 C422.58,121.44 424.26,121.92 425.54,122.88 C431.14,127.2 433.94,132.48 433.94,138.72 C433.94,142.08 433.06,145.28 431.3,148.32 Z M373.7,130.08 C370.98,120 366.66,100.64 360.74,72 C349.38,96.8 342.66,118.08 340.58,135.84 L373.7,130.08 Z" id="形状"></path>
                    <path d="M555.78,146.64 C540.58,184.56 525.38,203.6 510.18,203.761983 C491.78,203.92 478.34,194.4 469.86,175.2 C463.3,160.48 459.94,141.2 459.78,117.36 C459.62,90.48 463.14,66 470.34,43.92 C478.66,18.16 489.94,4.48 504.18,2.88 C506.26,2.72 508.26,2.64 510.18,2.64 C523.46,2.64 533.7,8.56 540.9,20.4 C546.18,29.36 550.66,43.6 554.34,63.12 C557.06,70.96 558.42,75.76 558.42,77.52 C558.42,82.8 555.14,86.88 548.58,89.76 C547.14,90.4 545.46,90.72 543.54,90.72 C538.9,90.72 533.78,89.2 528.18,86.16 C521.62,82.64 518.34,78.8 518.34,74.64 C518.34,74 519.46,70.88 521.7,65.28 C521.38,58.24 520.1,51.56 517.86,45.24 C515.62,38.92 513.06,35.44 510.18,34.8 C505.7,33.68 501.78,42.56 498.42,61.44 C495.54,77.12 493.78,94.4 493.14,113.28 C492.66,127.52 493.46,140.72 495.54,152.88 C497.94,166.8 501.54,174.24 506.34,175.2 C509.22,175.68 512.66,172.08 516.66,164.4 C520.5,157.36 523.7,149.04 526.26,139.44 C525.94,137.84 525.78,136.32 525.78,134.88 C525.78,125.44 531.54,120.72 543.06,120.72 C545.62,120.72 548.18,120.96 550.74,121.44 C558.58,123.04 562.5,126.96 562.5,133.2 C562.5,138.32 560.26,142.8 555.78,146.64 Z" id="路径"></path>
                    <path d="M674.26,160.32 C675.22,162.24 675.7,164.4 675.7,166.8 C675.7,170.8 674.46,174.64 671.98,178.32 C669.5,182 666.62,184.44 663.34,185.64 C660.06,186.84 655.38,187.44 649.3,187.44 C643.22,187.44 638.82,187.84 636.1,188.64 C633.38,189.44 630.26,191.92 626.74,196.08 C623.7,199.44 618.42,201.68 610.9,202.8 C606.26,203.44 601.54,201.84 596.74,198 C591.94,194.16 588.66,189.44 586.9,183.84 C586.58,182.72 586.42,181.68 586.42,180.72 C586.42,178.64 587.58,176.32 589.9,173.76 C592.22,171.2 593.3,168.96 593.14,167.04 L583.06,21.6 C583.06,20.96 582.22,19.48 580.54,17.16 C578.86,14.84 578.02,12.88 578.02,11.28 C578.02,9.04 579.22,6.88 581.62,4.8 C584.98,1.76 589.78,0.24 596.02,0.24 C601.3,0.24 606.38,1.36 611.26,3.6 C616.14,5.84 619.22,8.48 620.5,11.52 C621.3,13.28 621.7,14.8 621.7,16.08 C621.7,17.52 620.98,18.96 619.54,20.4 C618.1,21.84 617.46,23.2 617.62,24.48 L626.26,156.96 L640.66,151.2 C643.7,149.76 646.78,148.36 649.9,147 C653.02,145.64 655.62,144.96 657.7,144.96 C663.46,144.96 668.98,150.08 674.26,160.32 Z" id="路径"></path>
                    <path d="M782.18,28.8 C778.5,31.84 773.78,33.36 768.02,33.36 C765.62,33.36 762.82,33.12 759.62,32.64 C754.98,34.08 750.82,35.52 747.14,36.96 C738.18,40.32 732.26,43.2 729.38,45.6 C728.42,62.24 728.42,81.28 729.38,102.72 C730.34,102.08 732.74,101.44 736.58,100.8 C738.5,97.44 741.78,95.76 746.42,95.76 C751.06,95.76 756.46,98 762.62,102.48 C768.78,106.96 771.86,111.36 771.86,115.68 C771.86,116.8 771.62,117.92 771.14,119.04 C769.22,123.84 766.26,126.88 762.26,128.16 C759.86,128.96 756.34,129.16 751.7,128.76 C747.06,128.36 744.1,128.48 742.82,129.12 C739.14,130.88 734.66,132.96 729.38,135.36 C729.38,149.76 729.86,159.04 730.82,163.2 C737.54,161.6 743.14,159.68 747.62,157.44 C748.42,156.32 749.22,155.28 750.02,154.32 C751.62,152.56 754.5,151.84 758.66,152.16 C763.14,152.48 767.78,155.04 772.58,159.84 C777.38,164.64 779.78,169.52 779.78,174.48 C779.78,178.8 777.94,182 774.26,184.08 C770.58,186.16 764.42,186.88 755.78,186.24 L733.22,197.52 C732.26,198 730.18,199.6 726.98,202.32 C724.58,204.4 722.42,205.44 720.5,205.44 C719.86,205.44 719.14,205.36 718.34,205.2 C709.86,202.64 702.18,196 695.3,185.28 C694.82,184.48 694.58,183.52 694.58,182.4 C694.58,181.92 695.46,178.72 697.22,172.8 C695.46,126.24 695.14,76.64 696.26,24 C695.14,22.4 694.58,20.8 694.58,19.2 C694.58,13.92 699.46,10.56 709.22,9.12 C711.3,8.8 713.94,9.36 717.14,10.8 C719.22,11.92 721.22,12.96 723.14,13.92 L751.94,4.8 C752.58,4.64 754.42,3.68 757.46,1.92 C759.54,0.64 761.94,0 764.66,0 C765.94,0 767.46,0.16 769.22,0.48 C772.74,1.12 776.22,3.88 779.66,8.76 C783.1,13.64 784.82,18.24 784.82,22.56 C784.82,25.28 783.94,27.36 782.18,28.8 Z" id="路径"></path>
                </g>
            </g>
        </g>
    </g>
</svg>