<svg xmlns="http://www.w3.org/2000/svg" xmlns:xlink="http://www.w3.org/1999/xlink" width="1024" height="1024"><defs><linearGradient id="a" x1="50%" x2="50%" y1="0%" y2="100%"><stop offset="0%" stop-color="#114A7A"/><stop offset="99.35%" stop-color="#114A7A"/></linearGradient><filter id="b" width="138.5%" height="125%" x="-11.3%" y="-12.4%" filterUnits="objectBoundingBox"><feMorphology in="SourceAlpha" operator="dilate" radius="1.5" result="shadowSpreadOuter1"/><feOffset dx="3" in="shadowSpreadOuter1" result="shadowOffsetOuter1"/><feGaussianBlur in="shadowOffsetOuter1" result="shadowBlurOuter1" stdDeviation="2"/><feColorMatrix in="shadowBlurOuter1" values="0 0 0 0 0.109803922 0 0 0 0 0.501960784 0 0 0 0 0.615686275 0 0 0 1 0"/></filter><path id="c" d="m194.7 231.722 14.335-18.962 17.574-17.806 5.78-1.62-24.047 23.588-15.724 20.812-20.348 49.256-18.036 27.519-4.394-10.175 28.673-49.95z"/></defs><g fill="none" fill-rule="evenodd"><path fill="url(#a)" d="M0 0h1024v1024H0z"/><path fill="#40BDE2" d="m478.905 431.752 168.337-1.156-98.505 162.105z"/><path fill="#289FD3" d="m548.737 592.7 21.504 112.618-153.306-25.9z"/><path fill="#268FBF" d="m548.737 592.7 130.184 5.782-108.68 106.836z"/><path fill="#31B2CA" d="m618.338 475.227 54.802 123.255-124.403-5.781z"/><path fill="#34AEDC" d="m664.815 532.345-2.08 42.55-20.35-45.556z"/><path fill="#2880BF" d="m359.59 554.082 189.147 38.619-138.97 96.893z"/><path fill="#1B67AF" d="m274.496 591.545 85.093-37.463L478.905 878.06z"/><path fill="#278FBF" d="m570.241 705.318-46.477 83.943L409.767 677.57z"/><path fill="#2B91BA" d="M276.114 592.7a25038.18 25038.18 0 0 1-21.273 49.95 8835.726 8835.726 0 0 1-15.03 34.919l-68.445-21.275c21.26-14.556 39.836-26.658 55.727-36.306a748.97 748.97 0 0 1 49.021-27.287"/><path fill="#2A8BBE" d="m348.028 700.693-130.184 36.075c9.55-27.216 18.953-52.267 28.21-75.155 9.258-22.888 19.278-45.859 30.06-68.912l71.914 107.992"/><path fill="#206C86" d="M243.742 672.481c4.162 4.163 9.326 8.402 15.492 12.719 6.167 4.316 11.793 8.402 16.88 12.256l-7.63 26.593-50.64 12.72c-8.01-10.17-16.103-22.041-24.28-35.613-12.264-20.358-22.275-41.556-23.123-47.406-.674-4.655 19.694-17.15 20.58-18.037 3.546-3.546 12.024-2.39 25.436 3.469l27.285 33.3"/><path fill="#2783AC" d="m239.811 677.569-21.967 59.2c-10.487-14.021-19.428-27.434-26.823-40.238-7.395-12.804-13.947-26.217-19.655-40.237l68.445 21.275"/><path fill="#1A5B95" d="M287.676 806.374c-9.905-7.183-21.158-16.973-33.76-29.369-12.602-12.396-24.626-25.808-36.072-40.237l170.65-47.174-100.818 116.78"/><path fill="#278FBF" d="m570.241 705.318-46.477 83.943L409.767 677.57z"/><path fill="#13578B" d="m523.764 789.261-66.364 88.8-54.57-207.892z"/><path fill="#1665A0" d="M457.4 878.06c-31.756-4.779-62.432-13.566-92.03-26.362-29.598-12.795-55.496-27.904-77.694-45.324L402.83 670.169 457.4 878.06"/><path fill="#0F3D65" d="M647.242 856.554c-30.369 11.871-62.048 19.58-95.037 23.125-32.989 3.546-64.59 3.006-94.805-1.619l66.364-88.799 123.478 67.293"/><path fill="#339DCD" d="m478.905 431.752 69.832 160.949-189.148-38.619z"/><path fill="#135990" d="M732.104 809.38c-5.241 4.933-17.497 12.95-36.766 24.05-19.27 11.1-35.301 18.808-48.096 23.124l-77-151.236L732.103 809.38"/><path fill="#1C78AF" d="m647.242 856.554-123.478-67.293 46.477-83.943z"/><path fill="#114A7A" d="M732.104 809.38 570.24 705.318l108.68-106.836z"/><path fill="#1F77B0" d="M851.65 659.069c-11.098 26.208-26.745 52.493-46.94 78.855-20.194 26.363-44.396 50.181-72.606 71.456l-23.817-91.574 69.832-95.968 73.532 37.23"/><path fill="#000" d="m777.657 622.532.23-44.631 73.764 81.168z" opacity=".637"/><path fill="#2E92C3" d="m529.776 357.984 55.033 37-30.06 36.306-75.844.462z"/><path fill="#1FC2CA" d="m340.628 372.553 138.277 59.2-119.316 122.33z"/><path fill="#2B96C4" d="m340.628 372.553 18.961 181.53-56.883-82.556z"/><path fill="#21B0C2" d="m318.892 429.209-16.186 42.318-6.474-15.031z"/><path fill="#3DB8E0" d="m302.706 471.527 56.883 82.555-83.475 38.619z"/><path fill="#38D6F0" d="m302.706 471.527-26.592 121.174-131.145-33.534z"/><path fill="#2BA8DA" d="M276.114 592.7a831.35 831.35 0 0 0-50.956 28.88c-16.838 10.332-34.79 21.932-53.859 34.8-8.076-19.58-13.873-36.354-17.392-50.32-3.52-13.965-6.498-29.596-8.938-46.893l131.145 33.534"/><path fill="#339DCD" d="m478.905 431.752 69.832 160.949-189.148-38.619z"/><path fill="#33B3D4" d="m407.223 299.247 122.553 58.737-50.871 73.768z"/><path fill="#2BC7DA" d="m288.221 217.319 119.002 81.928-27.894 31.219-137.206-61.433c19.224-25.116 29.706-38.478 31.448-40.085 1.742-1.607 6.625-5.483 14.65-11.63"/><path fill="#3DDDF5" d="m413.004 302.022 157.237-64.055-40.465 120.017z"/><path fill="#43D7EF" d="m288.754 289.731 42.394 18.427-16.88 22.308z"/><path fill="#3AD3ED" d="m220.388 284.216 82.318 187.311-157.469-9.25c4.013-33.9 12.508-66.159 25.485-96.777 12.977-30.618 29.532-57.713 49.666-81.284"/><path fill="#2AC8DF" d="m145.237 462.277 157.47 9.25-157.701 87.643c-2.04-19.19-3.042-36.226-3.006-51.106.035-14.88 1.114-30.142 3.237-45.787"/><path fill="#2AC6D5" d="m413.004 302.022 140.589-157.71 16.648 93.655z"/><path fill="#35ADCC" d="m570.241 237.967-16.648-93.656c16.041 1.806 30.994 4.35 44.859 7.632 13.865 3.282 27.893 7.598 42.084 12.95l2.775 3.93-73.07 69.144"/><path fill="#35A7D8" d="m710.137 272.191-69.601-107.298c30.523 9.712 63.435 27.826 98.736 54.343 35.301 26.516 61.97 55.345 80.006 86.486l-7.79-2.376-101.351-31.155"/><path fill="#25C4D1" d="m618.338 299.941-48.097-61.974 73.07-69.143 48.327 74.462-25.435 40.237z"/><path fill="#46DEF6" d="m413.004 302.022 47.634-156.554c12.882-1.496 27.14-2.575 42.777-3.238 15.637-.663 32.363.031 50.178 2.081l-140.59 157.711"/><path fill="#3AD1EE" d="M413.004 303.386 288.22 217.319c23.565-18.365 49.975-33.682 79.23-45.952 29.255-12.269 60.318-20.902 93.187-25.9l-47.634 157.919"/><path fill="#35D1EE" d="m570.241 237.967 58.965 76.08-99.43 43.937z"/><path fill="#25BFD4" d="m795.924 299.941-63.82 99.668a3357.278 3357.278 0 0 1-51.796-41.625c-17.262-14.153-33.37-27.642-48.328-40.468l163.944-17.575"/><path fill="#2787B9" d="m861.363 389.665-123.94 1.388 59.195-92.268 22.66 6.937c10.462 15.63 18.863 29.968 25.205 43.012 6.341 13.045 11.968 26.688 16.88 40.931"/><path fill="#0B64AC" d="m732.104 399.609 5.318-8.556 123.94-1.388c2.874 7.22 5.803 16.78 8.787 28.675a431.382 431.382 0 0 1 7.4 35.843L732.104 399.61"/><path fill="#176BAE" d="m766.557 456.033-34.453-56.424 145.445 54.574z"/><path fill="#0D4372" d="m879.368 555.503-112.81-99.47 110.99-1.85c2.005 13.104 3.392 29.292 4.163 48.562.77 19.271-.01 36.857-2.343 52.758"/><path fill="#2C8FBF" d="m802.167 521.708-3.468-1.85-2.775-10.638-32.141-56.424 115.585 102.707z"/><path fill="#2699CA" d="m777.888 577.9 20.81-58.042 80.67 35.645z"/><path fill="#2789B7" d="M851.65 659.069 777.584 577.9l101.785-22.398c-.953 13.219-3.95 29.241-8.987 48.066a459.464 459.464 0 0 1-18.73 55.5"/><path fill="#207EB4" d="M777.888 621.838v-43.937l73.763 81.168z"/><path fill="#1253A1" d="m770.95 586.226 6.938-7.631v43.243c.925 2.93-.077 7.708-3.006 14.337-2.93 6.63-9.404 16.265-19.424 28.906l-21.736 25.669-25.435 27.056c-17.19 8.118-29.29 13.36-36.303 15.725-7.014 2.364-8.401 1.362-4.163-3.007l2.313-10.174 31.91-12.257c10.94-14.722 18.107-24.203 21.504-28.443a167.43 167.43 0 0 1 11.1-12.487l29.135-30.988 7.168-49.95"/><path fill="#27C0D2" d="m796.618 298.785-64.514 100.824-100.124-82.093 146.346-15.688 7.192-6.743z"/><path fill="#22C2D6" d="m631.98 311.504 21.736 129.73-123.94-83.25z"/><path fill="#35A7CF" d="m732.104 399.609-67.289 91.112-34.222-173.205z"/><path fill="#73B702" d="m585.965 383.422-13.874-45.556 21.274 15.493z"/><path fill="#2FB0CF" d="m407.223 299.247 71.682 132.505-138.277-59.199z"/><g transform="translate(141.998 141.987)"><use xlink:href="#c" fill="#000" filter="url(#b)"/><use xlink:href="#c" fill="#1B7D94"/></g><path fill="#80CD09" d="m664.122 228.948-11.562 1.156-23.354 7.863 3.237-35.15z"/><path fill="#BFF836" d="m693.026 213.223-28.904 15.725-31.68-26.13z"/><path fill="#6DB005" d="m715.224 206.055-41.853 64.287-9.25-41.394 28.905-15.725z"/><path fill="#C0F840" d="m715.224 206.055-4.393 82.786-46.71-5.318z"/><path fill="#7FCF08" d="m715.224 206.055 74.688 85.793-79.081-3.007z"/><path fill="#7FCF08" d="m715.224 206.055 74.688 85.793-79.081-3.007z"/><path fill="#7FCF08" d="m715.224 206.055 74.688 85.793-79.081-3.007z"/><path fill="#488F05" d="m789.912 291.848-85.556 73.768 6.475-76.775z"/><path fill="#2784B5" d="m710.83 371.166-6.474-5.55 81.162-70.531-24.741 35.38z"/><path fill="#6CB107" d="m710.83 288.841-6.474 76.775-40.234-82.093z"/><path fill="#497B00" d="m664.122 283.523 40.234 82.093-69.37-52.725z"/><path fill="#478202" d="m634.986 312.891 25.898 19.656-43.471 18.5z"/><path fill="#6DB408" d="m589.434 309.885 45.552 3.006-17.573 38.156z"/><path fill="#488204" d="m585.965 383.422 13.874-58.044 17.574 25.669z"/><path fill="#BBF839" d="m664.122 283.523-29.136 29.368-45.552-3.006z"/><path fill="#BAF331" d="m610.938 243.054 17.574-5.087 13.874 34.225-32.141-22.432z"/><path fill="#437B02" d="m652.56 230.104-10.174 42.088-13.874-34.225z"/><path fill="#7DCE04" d="m397.049 623.688-75.382-13.875-12.024-50.643z"/><path fill="#BFF73F" d="m321.667 609.813-49.252 13.875 37.228-64.287z"/><path fill="#71B605" d="m334.616 697.456-62.201-73.768 49.252-13.875z"/><path fill="#4E9203" d="m334.616 697.456-12.949-87.643 75.382 13.875z"/><path fill="#BCF53E" d="m334.616 697.456 62.433-73.768 8.093 58.968z"/><path fill="#7CD002" d="m405.142 682.656-8.093-58.968 65.9 45.325z"/><path fill="#6EB003" d="m334.616 697.456 70.526-14.8L423.64 744.4z"/><path fill="#4F9406" d="m334.616 697.456 89.024 46.943-70.294 8.556z"/><path fill="#519804" d="m353.346 752.955 53.877 24.05-28.21 27.287z"/><path fill="#518D08" d="m405.604 795.043-2.312 30.293c2.842 1.54 6.387 3.236 10.637 5.087a222.38 222.38 0 0 0 12.717 5.088l-21.042-40.468"/><path fill="#6BB506" d="m407.223 777.005-3.931 48.331c-5.112-2.694-9.582-5.7-13.411-9.019-3.83-3.318-7.452-7.327-10.868-12.025l28.21-27.287"/><path fill="#498303" d="m353.346 752.955 70.294-8.556-16.417 32.606z"/><path fill="#4C8F04" d="m405.142 682.656 57.808-13.643-39.31 75.386z"/><path fill="#69AC01" d="m397.049 623.688 52.258 7.631 13.643 37.694z"/><path fill="#4A8E07" d="m397.049 623.688-42.084-30.987 45.552 9.481z"/><path fill="#79CA04" d="m776.5 547.376-55.958 31.912-56.42-46.943z"/><path fill="#4A8D04" d="m776.5 547.376-12.717 88.8-43.472-56.888z"/><path fill="#C2F540" d="m720.542 579.288-61.97 68.45 6.243-115.393z"/><path fill="#70B306" d="m763.783 636.175-105.21 11.563 61.738-68.45z"/><path fill="#7DCD08" d="m724.936 677.569-66.364-29.831 105.21-11.563z"/><path fill="#B9F43A" d="m667.821 689.594-9.249-41.856 66.364 29.83z"/><path fill="#478705" d="m702.969 706.706-35.148-17.112 57.115-12.025z"/><path fill="#427A04" d="m660.884 724.05 6.937-34.456 35.148 17.112z"/><path fill="#70B306" d="m763.783 636.175-105.21 11.563 61.738-68.45z"/><path fill="#BFF842" d="m660.884 394.984 58.27 78.855-79.08 55.5z"/><path fill="#80CE05" d="m660.884 394.984 99.893 8.094-41.622 70.761z"/><path fill="#4B9004" d="M760.777 403.078 776.5 547.376l-57.345-73.537z"/><path fill="#6CB108" d="M795.924 509.22 776.5 547.376l-9.943-89.261z"/><path fill="#468203" d="m805.867 547.376-34.916 38.85 5.55-38.85 19.423-38.156z"/><path fill="#70B307" d="M776.5 547.376 640.074 529.34l79.08-55.5z"/><path fill="#7DCD06" d="m584.81 394.868-41.883 103.124-2.358-51.229z"/><path fill="#82D208" d="m584.81 394.753 76.074.231-50.64 61.05z"/><path fill="#478E07" d="m660.884 394.984-20.81 134.355-29.83-73.306z"/><path fill="#6EB209" d="m610.245 456.033 29.829 73.306-97.35-30.756z"/><path fill="#4C8902" d="m640.074 529.339-51.103 15.494-46.246-46.25z"/><path fill="#C2F844" d="m584.81 394.984 25.435 61.05-67.52 42.549z"/><path fill="#6EB008" d="m653.485 367.697 7.4 27.056h-57.809z"/><path fill="#4F8603" d="m343.172 196.111-34.685 16.187c-.035 3.885.427 8.047 1.387 12.488a75.68 75.68 0 0 0 4.162 13.18l29.136-41.855"/><path fill="#67AB05" d="m308.487 212.298-34.916 16.65c.709 1.51 7.183 5.519 19.423 12.025 12.24 6.506 22.877 11.594 31.91 15.262-6.782-10.174-11.022-17.883-12.717-23.124-1.696-5.242-2.93-12.18-3.7-20.813"/><path fill="#7BCA05" d="m273.57 228.948-3.005 29.369 54.34-2.082z"/><path fill="#6DB706" d="m270.565 258.317-50.178 25.9 93.88 46.249z"/><path fill="#80D205" d="m220.387 284.216 21.736 79.78 72.145-33.53z"/><path fill="#BDF73D" d="m220.387 284.216-41.159 138.518 62.895-58.737z"/><path fill="#6DB004" d="m348.49 319.597-34.222 10.869 5.78 67.524z"/><path fill="#C6F73F" d="m348.49 319.597-11.793-18.73-22.43 29.599z"/><path fill="#7DCE07" d="m348.49 319.597 37.46-17.575-49.253-1.156z"/><path fill="#6EB102" d="M411.385 356.828v-27.056H391.73z"/><path fill="#497A07" d="m320.51 396.372 30.524-41.625 17.573-17.806 23.123-7.169h19.655l-25.435-27.75-37.46 17.575z"/><path fill="#488103" d="m242.123 363.997 10.868 85.793 35.379 2.312 31.678-54.112z"/><path fill="#4C9303" d="m314.268 330.466-72.145 33.53 77.925 33.994z"/><path fill="#6EAF07" d="m242.123 363.997-62.895 58.737 73.763 27.056z"/><path fill="#C0FA44" d="m179.228 422.734 28.673 29.368 45.09-2.312z"/><path fill="#6DB202" d="m179.228 422.734 26.592 80.474 2.081-51.106z"/><path fill="#7CD007" d="m207.901 452.102 22.43 44.4 22.66-46.712z"/><path fill="#77C307" d="m239.811 514.077 48.559 37-19.886-32.607z"/><path fill="#549C0D" d="m239.811 514.077 28.673 4.393-36.535-15.262z"/><path fill="#63A706" d="m205.82 503.208 33.991 10.869-7.862-10.869 13.18 5.55-5.318-6.244-7.862-10.637-1.619 4.625-3.367-6.706z"/><path fill="#539506" d="m207.901 452.102-2.081 51.106 21.143-13.412z"/><path fill="#C2F53C" d="m220.387 284.216 50.178-25.9 3.006-29.368c-6.475 5.088-14.953 12.873-25.436 23.356-10.482 10.483-19.731 21.12-27.748 31.912"/><path fill="#489006" d="m270.565 258.317 20.81 36.306 33.53-38.388z"/><path fill="#457C05" d="m788.293 293.235-13.642 54.112-25.436 5.319z"/><path fill="#C3FB48" d="m813.96 309.885-4.856 30.756-34.453 6.706z"/><path fill="#478A08" d="m813.96 309.885 25.898 41.162c-1.233.462-4.393-.154-9.48-1.85-5.088-1.696-12.179-4.548-21.274-8.556l4.856-30.756"/><path fill="#74C30D" d="M809.104 340.64c7.505 3.306 14.056 5.927 19.655 7.863 5.599 1.937 9.298 2.785 11.099 2.544l17.111 39.08-41.622-29.599.232-5.087-6.475-14.8"/><path fill="#84CC10" d="m809.104 340.64-9.712 13.644-24.741-6.937z"/><path fill="#B7F23C" d="m809.104 340.64 6.475 14.8-.232 5.088-15.955-6.244z"/><path fill="#B8F53D" d="m774.65 347.347-13.873 53.88-11.562-48.561z"/><path fill="#80CE06" d="m795.461 410.246-34.684-9.018 13.874-53.881z"/><path fill="#6BB806" d="m815.347 360.528-19.886 49.718-20.81-62.899 24.741 6.937z"/><path fill="#4A9102" d="m856.97 390.128-11.794.925-49.715 19.193 19.886-49.718z"/><path fill="#6BAE07" d="m864.6 411.865-9.25 8.325-59.889-9.944 50.178-19.193 11.33-.925z"/><path fill="#BDF841" d="m794.999 410.015-12.487 40.7-21.735-49.487z"/><path fill="#73B80B" d="M793.38 453.258c-2.265-.208-4.269-.517-6.012-.925a26.641 26.641 0 0 1-4.856-1.618l12.487-40.7-1.619 43.243"/><path fill="#4C7E08" d="M836.852 452.796c-9.02 1.47-16.882 2.241-23.586 2.312a96.334 96.334 0 0 1-19.886-1.85L795 410.015l41.853 42.78"/><path fill="#73BA07" d="m836.852 452.796-30.985 37.925 1.156-35.844c8.787 0 15.03-.231 18.73-.694l11.099-1.387"/><path fill="#0B4F91" fill-opacity=".5" d="m836.852 446.783 6.012 11.332c-5.087 5.858-9.403 11.562-12.949 17.112-3.546 5.55-7.708 12.873-12.487 21.968l-6.705-5.78-2.313-3.7 28.442-34.92-41.853-42.78 41.853 36.768"/><path fill="#80C80D" d="m795.461 618.6-3.468 17.575-6.475 24.513-15.723-17.344 8.324-5.319z"/><path fill="#95E20A" d="m769.795 643.344 15.723 17.344-26.36 22.43 6.937-36.305z"/><path fill="#66A80D" d="m795.461 618.6-3.468 17.575-6.475 24.513-26.36 22.43 19.886-29.83.925-17.113z"/><path fill="#78C407" d="m454.163 170.905-62.433 20.35 25.436-26.362z"/><path fill="#BFF836" d="m491.623 156.105-17.574 40.006-39.078-18.962 18.73-6.244z"/><path fill="#7ECF0A" d="m515.902 202.817-41.853-6.706 17.574-40.006z"/><path fill="#46840B" d="m515.902 202.817-40.234 31.45-1.619-38.156z"/><path fill="#80CF0A" d="m475.668 234.267-28.673 5.319v-36.769z"/><path fill="#C0F33A" d="m446.995 239.586-17.805.693 17.805-37.462z"/><path fill="#4A8A07" d="m472.2 273.81-25.205-34.224 28.673-5.32z"/><path fill="#6EB60C" d="m472.2 273.81-43.01-33.53 17.805-.694z"/><path fill="#76BC0B" d="m524.458 241.204-14.337-14.106h24.742z"/><path fill="#2882AC" d="m515.902 202.817-21.042-39.774 5.318 2.775 21.274 41.855-36.535 33.531-6.012 38.387c-3.392 1.388-5.627-.77-6.706-6.475-1.079-5.704.077-18.654 3.469-38.85l40.234-31.449"/><path fill="#68B208" d="m474.049 196.111 1.619 38.156-28.673-31.45-12.024-25.668z"/><path fill="#BFF836" d="m491.623 156.105-17.574 40.006-39.078-18.962 18.73-6.244z"/></g></svg>