<svg xmlns="http://www.w3.org/2000/svg" xmlns:xlink="http://www.w3.org/1999/xlink" width="1024" height="1024"><defs><linearGradient id="a" x1="50%" x2="50%" y1="0%" y2="100%"><stop offset="0%" stop-color="#114A7A"/><stop offset="99.35%" stop-color="#114A7A"/></linearGradient><filter id="b" width="135.6%" height="123.2%" x="-10.5%" y="-11.5%" filterUnits="objectBoundingBox"><feMorphology in="SourceAlpha" operator="dilate" radius="1.5" result="shadowSpreadOuter1"/><feOffset dx="3" in="shadowSpreadOuter1" result="shadowOffsetOuter1"/><feGaussianBlur in="shadowOffsetOuter1" result="shadowBlurOuter1" stdDeviation="2"/><feColorMatrix in="shadowBlurOuter1" values="0 0 0 0 0.109803922 0 0 0 0 0.501960784 0 0 0 0 0.615686275 0 0 0 1 0"/></filter><path id="c" d="m210.486 250.51 15.498-20.5 18.999-19.25 6.25-1.75-25.999 25.5-16.998 22.5-21.999 53.25-19.498 29.75-4.75-11 30.998-54z"/></defs><g fill="none" fill-rule="evenodd"><path fill="url(#a)" d="M0 0h1024v1024H0z"/><path fill="#40BDE2" d="m476.222 425.247 181.985-1.25-106.491 175.248z"/><path fill="#289FD3" d="m551.716 599.245 23.248 121.749-165.737-28z"/><path fill="#268FBF" d="m551.716 599.245 140.739 6.25-117.491 115.499z"/><path fill="#31B2CA" d="m626.96 472.246 59.245 133.25-134.49-6.25z"/><path fill="#34AEDC" d="m677.206 533.996-2.25 46-21.998-49.25z"/><path fill="#2880BF" d="m347.232 557.496 204.484 41.75-150.239 104.748z"/><path fill="#1B67AF" d="m255.239 597.995 91.993-40.5 128.99 350.247z"/><path fill="#278FBF" d="m574.964 720.994-50.246 90.749-123.24-120.749z"/><path fill="#2B91BA" d="M256.989 599.245a27068.525 27068.525 0 0 1-22.998 54 9552.107 9552.107 0 0 1-16.25 37.75l-73.993-23c22.984-15.737 43.065-28.82 60.245-39.25a809.698 809.698 0 0 1 52.996-29.5"/><path fill="#2A8BBE" d="m334.733 715.994-140.74 39c10.324-29.423 20.49-56.506 30.498-81.25 10.008-24.743 20.84-49.576 32.498-74.499l77.744 116.749"/><path fill="#206C86" d="M221.991 685.494c4.5 4.5 10.083 9.084 16.75 13.75 6.665 4.667 12.748 9.083 18.248 13.25l-8.25 28.75-54.745 13.75c-8.66-10.995-17.409-23.828-26.248-38.5-13.26-22.008-24.082-44.925-24.998-51.25-.73-5.032 21.29-18.54 22.248-19.5 3.833-3.833 12.999-2.583 27.498 3.75l29.497 36"/><path fill="#2783AC" d="m217.742 690.994-23.748 64c-11.337-15.158-21.003-29.657-28.998-43.5-7.995-13.843-15.078-28.342-21.248-43.5l73.994 23"/><path fill="#1A5B95" d="M269.488 830.243c-10.708-7.766-22.874-18.349-36.497-31.75-13.624-13.401-26.623-27.9-38.997-43.5l184.485-50.999-108.991 126.249"/><path fill="#278FBF" d="m574.964 720.994-50.246 90.749-123.24-120.749z"/><path fill="#13578B" d="m524.718 811.743-71.745 96-58.995-224.749z"/><path fill="#1665A0" d="M452.973 907.742c-34.33-5.167-67.494-14.666-99.492-28.5-31.997-13.833-59.995-30.166-83.993-49l124.49-147.248 58.995 224.748"/><path fill="#0F3D65" d="M658.207 884.492c-32.83 12.833-67.078 21.167-102.742 25-35.663 3.833-69.827 3.25-102.492-1.75l71.745-95.999 133.49 72.75"/><path fill="#339DCD" d="m476.222 425.247 75.494 173.998-204.484-41.75z"/><path fill="#135990" d="M749.95 833.493c-5.666 5.333-18.915 14-39.747 26-20.831 12-38.163 20.333-51.996 25l-83.243-163.5 174.986 112.5"/><path fill="#1C78AF" d="m658.207 884.492-133.49-72.749 50.247-90.75z"/><path fill="#114A7A" d="m749.95 833.493-174.986-112.5 117.49-115.498z"/><path fill="#1F77B0" d="M879.19 670.994c-11.999 28.333-28.914 56.75-50.746 85.25-21.831 28.5-47.996 54.249-78.494 77.249l-25.748-99 75.494-103.748 79.494 40.25"/><path fill="#000" d="m799.196 631.495.25-48.25 79.744 87.75z" opacity=".637"/><path fill="#2E92C3" d="m531.217 345.498 59.496 40-32.498 39.249-81.993.5z"/><path fill="#1FC2CA" d="m326.733 361.247 149.489 64-128.99 132.249z"/><path fill="#2B96C4" d="m326.733 361.247 20.499 196.249-61.496-89.25z"/><path fill="#21B0C2" d="m303.235 422.497-17.499 45.75-6.999-16.25z"/><path fill="#3DB8E0" d="m285.736 468.246 61.496 89.25-90.243 41.75z"/><path fill="#38D6F0" d="m285.736 468.246-28.747 131-141.78-36.253z"/><path fill="#2BA8DA" d="M256.989 599.245a898.756 898.756 0 0 0-55.088 31.22c-18.203 11.17-37.612 23.712-58.226 37.622-8.73-21.168-14.998-39.3-18.803-54.399-3.804-15.098-7.025-31.996-9.662-50.695l141.779 36.252"/><path fill="#339DCD" d="m476.222 425.247 75.494 173.998-204.484-41.75z"/><path fill="#33B3D4" d="m398.728 281.998 132.49 63.5-54.996 79.749z"/><path fill="#2BC7DA" d="m270.077 193.427 128.65 88.571-30.155 33.75-148.33-66.414c20.782-27.153 32.114-41.598 33.997-43.335 1.883-1.737 7.162-5.928 15.838-12.572"/><path fill="#3DDDF5" d="m404.977 284.998 169.987-69.25-43.747 129.75z"/><path fill="#43D7EF" d="m270.653 271.71 45.831 19.921-18.248 24.117z"/><path fill="#3AD3ED" d="m196.743 265.748 88.993 202.498-170.236-10c4.338-36.648 13.522-71.523 27.551-104.623 14.03-33.101 31.927-62.392 53.692-87.875"/><path fill="#2AC8DF" d="m115.5 458.247 170.236 10-170.486 94.748c-2.205-20.746-3.288-39.163-3.25-55.249.038-16.086 1.205-32.586 3.5-49.5"/><path fill="#2AC6D5" d="M404.977 284.998 556.965 114.5l17.999 101.249z"/><path fill="#35ADCC" d="m574.964 215.749-17.999-101.25c17.342 1.953 33.508 4.703 48.497 8.25 14.988 3.549 30.154 8.216 45.496 14l3 4.25-78.994 74.75"/><path fill="#35A7D8" d="m726.202 252.749-75.244-116c32.997 10.5 68.578 30.084 106.742 58.75 38.163 28.667 66.994 59.833 86.493 93.5l-8.423-2.57-109.568-33.68"/><path fill="#25C4D1" d="m626.96 282.748-51.996-67L653.958 141l52.246 80.499-27.498 43.5z"/><path fill="#46DEF6" d="m404.977 284.998 51.496-169.248c13.927-1.617 29.342-2.783 46.247-3.5 16.904-.717 34.986.033 54.245 2.25L404.977 284.998"/><path fill="#3AD1EE" d="m404.977 286.472-134.9-93.045c25.475-19.854 54.027-36.413 85.654-49.677 31.628-13.264 65.208-22.598 100.742-28l-51.496 170.722"/><path fill="#35D1EE" d="m574.964 215.749 63.745 82.25-107.492 47.499z"/><path fill="#25BFD4" d="m818.945 282.748-68.995 107.75a3629.485 3629.485 0 0 1-55.995-45c-18.661-15.3-36.077-29.884-52.246-43.75l177.236-19"/><path fill="#2787B9" d="m889.69 379.747-133.99 1.5 63.995-99.749 24.498 7.5c11.31 16.898 20.392 32.398 27.248 46.5 6.856 14.102 12.938 28.852 18.248 44.25"/><path fill="#0B64AC" d="m749.95 390.497 5.75-9.25 133.99-1.5c3.106 7.806 6.272 18.14 9.499 31a466.36 466.36 0 0 1 7.999 38.75l-157.238-59"/><path fill="#176BAE" d="m787.197 451.497-37.247-61 157.238 59z"/><path fill="#0D4372" d="M909.155 559.031 787.197 451.497l119.991-2c2.167 14.166 3.666 31.666 4.5 52.5.833 20.832-.011 39.844-2.533 57.034"/><path fill="#2C8FBF" d="m825.694 522.496-3.75-2-3-11.5-34.746-61 124.957 111.035z"/><path fill="#2699CA" d="m799.446 583.245 22.499-62.75 87.21 38.536z"/><path fill="#2789B7" d="m879.19 670.994-80.073-87.749 110.038-24.214c-1.03 14.291-4.27 31.612-9.716 51.964a496.718 496.718 0 0 1-20.249 60"/><path fill="#207EB4" d="M799.446 630.745v-47.5l79.744 87.75z"/><path fill="#1253A1" d="m791.947 592.245 7.5-8.25v46.75c1 3.166-.084 8.333-3.25 15.5-3.167 7.166-10.166 17.583-20.999 31.25l-23.498 27.75-27.498 29.249c-18.583 8.777-31.665 14.443-39.247 17-7.581 2.556-9.081 1.473-4.5-3.25l2.5-11 34.498-13.25c11.826-15.916 19.576-26.166 23.248-30.75a181.004 181.004 0 0 1 12-13.5l31.497-33.5 7.749-53.999"/><path fill="#27C0D2" d="m819.695 281.498-69.745 109-108.241-88.75 158.211-16.96 7.776-7.29z"/><path fill="#22C2D6" d="m641.709 295.248 23.498 140.249-133.99-90z"/><path fill="#35A7CF" d="m749.95 390.497-72.744 98.5-36.997-187.249z"/><path fill="#73B702" d="m591.963 372.997-15-49.25 22.999 16.75z"/><path fill="#2FB0CF" d="m398.728 281.998 77.494 143.249-149.489-64z"/><g transform="translate(111.998 111.987)"><use xlink:href="#c" fill="#000" filter="url(#b)"/><use xlink:href="#c" fill="#1B7D94"/></g><path fill="#80CD09" d="m676.456 205.999-12.499 1.25-25.248 8.5 3.5-38z"/><path fill="#BFF836" d="m707.704 189-31.248 16.999-34.247-28.25z"/><path fill="#6DB005" d="m731.702 181.25-45.247 69.499-9.999-44.75 31.248-17z"/><path fill="#C0F840" d="m731.702 181.25-4.75 89.498-50.496-5.75z"/><path fill="#7FCF08" d="m731.702 181.25 80.743 92.748-85.493-3.25z"/><path fill="#7FCF08" d="m731.702 181.25 80.743 92.748-85.493-3.25z"/><path fill="#7FCF08" d="m731.702 181.25 80.743 92.748-85.493-3.25z"/><path fill="#488F05" d="m812.445 273.998-92.492 79.75 7-83z"/><path fill="#2784B5" d="m726.952 359.747-7-6 87.744-76.249-26.748 38.25z"/><path fill="#6CB107" d="m726.952 270.748-7 83-43.496-88.75z"/><path fill="#497B00" d="m676.456 264.998 43.497 88.75-74.995-57z"/><path fill="#478202" d="m644.958 296.748 27.998 21.25-46.996 20z"/><path fill="#6DB408" d="m595.712 293.498 49.246 3.25-18.998 41.25z"/><path fill="#488204" d="m591.963 372.997 14.998-62.749 18.999 27.75z"/><path fill="#BBF839" d="m676.456 264.998-31.498 31.75-49.246-3.25z"/><path fill="#BAF331" d="m618.96 221.249 18.999-5.5 14.999 37-34.747-24.25z"/><path fill="#437B02" d="m663.957 207.249-11 45.5-14.998-37z"/><path fill="#7DCE04" d="m387.728 632.745-81.493-15-13-54.75z"/><path fill="#BFF73F" d="m306.235 617.745-53.246 15 40.247-69.5z"/><path fill="#71B605" d="m320.234 712.494-67.245-79.75 53.246-14.999z"/><path fill="#4E9203" d="m320.234 712.494-14-94.749 81.494 15z"/><path fill="#BCF53E" d="m320.234 712.494 67.494-79.75 8.75 63.75z"/><path fill="#7CD002" d="m396.478 696.494-8.75-63.75 71.245 49z"/><path fill="#6EB003" d="m320.234 712.494 76.244-16 19.998 66.75z"/><path fill="#4F9406" d="m320.234 712.494 96.242 50.75-75.994 9.25z"/><path fill="#519804" d="m340.482 772.493 58.246 26-30.498 29.5z"/><path fill="#518D08" d="m396.978 817.993-2.5 32.75c3.072 1.665 6.905 3.498 11.5 5.5a240.41 240.41 0 0 0 13.748 5.5l-22.748-43.75"/><path fill="#6BB506" d="m398.728 798.493-4.25 52.25c-5.526-2.913-10.36-6.162-14.499-9.75-4.14-3.588-8.056-7.921-11.749-13l30.498-29.5"/><path fill="#498303" d="m340.482 772.493 75.994-9.25-17.748 35.25z"/><path fill="#4C8F04" d="m396.478 696.494 62.495-14.75-42.497 81.5z"/><path fill="#69AC01" d="m387.728 632.745 56.496 8.25 14.749 40.75z"/><path fill="#4A8E07" d="m387.728 632.745-45.496-33.5 49.246 10.25z"/><path fill="#79CA04" d="m797.947 550.246-60.496 34.5-60.995-50.75z"/><path fill="#4A8D04" d="m797.947 550.246-13.75 95.999-46.996-61.5z"/><path fill="#C2F540" d="m737.451 584.745-66.994 74 6.749-124.75z"/><path fill="#70B306" d="m784.198 646.245-113.742 12.5 66.745-74z"/><path fill="#7DCD08" d="m742.2 690.994-71.744-32.25 113.742-12.5z"/><path fill="#B9F43A" d="m680.456 703.994-10-45.25 71.745 32.25z"/><path fill="#478705" d="m718.453 722.494-37.997-18.5 61.745-13z"/><path fill="#427A04" d="m672.956 741.244 7.5-37.25 37.997 18.5z"/><path fill="#70B306" d="m784.198 646.245-113.742 12.5 66.745-74z"/><path fill="#BFF842" d="m672.956 385.497 62.995 85.25-85.493 59.999z"/><path fill="#80CE05" d="m672.956 385.497 107.992 8.75-44.997 76.5z"/><path fill="#4B9004" d="m780.948 394.247 16.998 155.999-61.995-79.5z"/><path fill="#6CB108" d="m818.945 508.996-20.999 41.25-10.749-96.5z"/><path fill="#468203" d="m829.694 550.246-37.747 42 6-42 20.998-41.25z"/><path fill="#70B307" d="m797.946 550.246-147.488-19.5 85.493-60z"/><path fill="#7DCD06" d="m590.713 385.372-45.279 111.485-2.549-55.383z"/><path fill="#82D208" d="m590.713 385.247 82.243.25-54.745 66z"/><path fill="#478E07" d="m672.956 385.497-22.498 145.249-32.247-79.25z"/><path fill="#6EB209" d="m618.21 451.497 32.248 79.249-105.242-33.25z"/><path fill="#4C8902" d="m650.458 530.746-55.246 16.75-49.996-50z"/><path fill="#C2F844" d="m590.713 385.497 27.498 66-72.995 46z"/><path fill="#6EB008" d="m664.957 355.997 8 29.25H610.46z"/><path fill="#4F8603" d="M329.483 170.5 291.986 188c-.038 4.198.462 8.698 1.5 13.5a81.816 81.816 0 0 0 4.5 14.249l31.497-45.25"/><path fill="#67AB05" d="m291.986 188-37.747 17.999c.766 1.633 7.766 5.966 20.998 13 13.233 7.034 24.732 12.534 34.498 16.5-7.333-11-11.916-19.333-13.75-25-1.833-5.667-3.166-13.167-3.999-22.5"/><path fill="#7BCA05" d="m254.239 205.999-3.25 31.75 58.746-2.25z"/><path fill="#6DB706" d="m250.99 237.749-54.247 28 101.493 49.999z"/><path fill="#80D205" d="m196.743 265.748 23.499 86.25 77.994-36.25z"/><path fill="#BDF73D" d="m196.743 265.748-44.496 149.749 67.995-63.5z"/><path fill="#6DB004" d="m335.233 303.998-36.997 11.75 6.249 73z"/><path fill="#C6F73F" d="m335.233 303.998-12.75-20.25-24.247 32z"/><path fill="#7DCE07" d="m335.233 303.998 40.496-19-53.245-1.25z"/><path fill="#6EB102" d="M403.227 344.248v-29.25H381.98z"/><path fill="#497A07" d="m304.985 386.997 32.997-45 18.999-19.25 24.998-7.749h21.248l-27.498-30-40.496 19z"/><path fill="#488103" d="m220.242 351.998 11.749 92.749 38.247 2.5 34.247-58.5z"/><path fill="#4C9303" d="m298.236 315.748-77.994 36.25 84.243 36.75z"/><path fill="#6EAF07" d="m220.242 351.998-67.995 63.499 79.744 29.25z"/><path fill="#C0FA44" d="m152.247 415.497 30.997 31.75 48.747-2.5z"/><path fill="#6DB202" d="m152.247 415.497 28.748 87 2.25-55.25z"/><path fill="#7CD007" d="m183.244 447.247 24.249 48 24.498-50.5z"/><path fill="#77C307" d="m217.742 514.246 52.496 40-21.499-35.25z"/><path fill="#549C0D" d="m217.742 514.246 30.997 4.75-39.497-16.5z"/><path fill="#63A706" d="m180.995 502.496 36.747 11.75-8.5-11.75 14.25 6-5.75-6.75-8.5-11.5-1.75 5-3.64-7.25z"/><path fill="#539506" d="m183.244 447.247-2.25 55.25 22.858-14.5z"/><path fill="#C2F53C" d="m196.743 265.748 54.246-28L254.24 206c-7 5.5-16.165 13.917-27.498 25.25-11.332 11.333-21.332 22.833-29.998 34.5"/><path fill="#489006" d="m250.99 237.749 22.497 39.25 36.248-41.5z"/><path fill="#457C05" d="m810.696 275.498-14.75 58.5-27.497 5.75z"/><path fill="#C3FB48" d="m838.443 293.498-5.25 33.25-37.246 7.25z"/><path fill="#478A08" d="m838.443 293.498 27.998 44.5c-1.333.5-4.75-.167-10.249-2-5.5-1.834-13.166-4.917-22.998-9.25l5.25-33.25"/><path fill="#74C30D" d="M833.194 326.748c8.113 3.573 15.195 6.406 21.248 8.5 6.053 2.093 10.052 3.01 12 2.75l18.498 42.25-44.997-32 .25-5.5-7-16"/><path fill="#84CC10" d="m833.194 326.748-10.5 14.75-26.747-7.5z"/><path fill="#B7F23C" d="m833.194 326.748 7 16-.25 5.5-17.25-6.75z"/><path fill="#B8F53D" d="m795.947 333.998-15 58.25-12.498-52.5z"/><path fill="#80CE06" d="m818.445 401.997-37.497-9.75 14.999-58.25z"/><path fill="#6BB806" d="m839.943 348.248-21.498 53.749-22.498-68 26.748 7.5z"/><path fill="#4A9102" d="m884.94 380.247-12.75 1-53.745 20.75 21.498-53.75z"/><path fill="#6BAE07" d="m893.19 403.747-10 9-64.745-10.75 54.246-20.75 12.249-1z"/><path fill="#BDF841" d="m817.945 401.747-13.499 44-23.498-53.5z"/><path fill="#73B80B" d="M816.195 448.497c-2.448-.226-4.615-.56-6.5-1a28.801 28.801 0 0 1-5.249-1.75l13.499-44-1.75 46.75"/><path fill="#4C7E08" d="M863.191 447.997c-9.751 1.59-18.25 2.422-25.498 2.5-7.247.077-14.413-.59-21.498-2l1.75-46.75 45.246 46.25"/><path fill="#73BA07" d="m863.191 447.997-33.497 41 1.25-38.75c9.5 0 16.249-.25 20.248-.75l12-1.5"/><path fill="#0B4F91" fill-opacity=".5" d="m863.191 441.497 6.5 12.25c-5.5 6.333-10.166 12.5-13.999 18.5s-8.333 13.916-13.499 23.75l-7.25-6.25-2.5-4 30.748-37.75-45.246-46.25 45.246 39.75"/><path fill="#80C80D" d="m818.445 627.245-3.75 19-7 26.5-16.998-18.75 9-5.75z"/><path fill="#95E20A" d="m790.697 653.995 16.999 18.75-28.498 24.25 7.5-39.25z"/><path fill="#66A80D" d="m818.445 627.245-3.75 19-7 26.5-28.497 24.25 21.498-32.25 1-18.5z"/><path fill="#78C407" d="m449.474 143.25-67.495 22 27.498-28.5z"/><path fill="#BFF836" d="m489.97 127.25-18.998 43.25-42.247-20.5 20.249-6.75z"/><path fill="#7ECF0A" d="m516.219 177.75-45.247-7.25 18.999-43.25z"/><path fill="#46840B" d="m516.219 177.75-43.497 33.999-1.75-41.25z"/><path fill="#80CF0A" d="m472.722 211.749-30.998 5.75v-39.75z"/><path fill="#C0F33A" d="m441.724 217.499-19.248.75 19.248-40.5z"/><path fill="#4A8A07" d="m468.972 254.499-27.248-37 30.998-5.75z"/><path fill="#6EB60C" d="m468.972 254.499-46.496-36.25 19.248-.75z"/><path fill="#76BC0B" d="m525.468 219.249-15.499-15.25h26.748z"/><path fill="#2882AC" d="m516.219 177.75-22.749-43 5.75 3L522.218 183l-39.497 36.249-6.5 41.5c-3.666 1.5-6.082-.834-7.249-7-1.166-6.167.084-20.167 3.75-42l43.497-34"/><path fill="#68B208" d="m470.972 170.5 1.75 41.249-30.998-34L428.725 150z"/><path fill="#BFF836" d="m489.97 127.25-18.998 43.25-42.247-20.5 20.249-6.75z"/></g></svg>