<svg xmlns="http://www.w3.org/2000/svg" width="1025" height="1024"><g fill="none" fill-rule="evenodd"><path fill="#FFF" d="M.398 0h1024v1024H.398z"/><g fill-rule="nonzero"><path fill="#0364B8" d="M789.898 173H389.064c-18.5 0-30.833 12.333-30.833 30.833v30.834l246.667 77.083 215.833-77.083v-30.834c0-18.5-12.333-30.833-30.833-30.833"/><path fill="#0A2767" d="M882.398 509.083c0-6.166-3.084-12.333-9.25-15.416L607.98 342.583s-3.083 0-3.083-3.083c-6.167-3.083-9.25-3.083-15.417-3.083s-12.333 0-15.417 3.083c0 0-3.083 0-3.083 3.083L305.814 493.667c-6.166 3.083-9.25 9.25-9.25 15.416 0 6.167 3.084 12.334 9.25 15.417l265.167 151.083s3.083 0 3.083 3.084c6.167 3.083 9.25 3.083 15.417 3.083s12.333 0 15.417-3.083c0 0 3.083 0 3.083-3.084L873.148 524.5c6.166-3.083 9.25-9.25 9.25-15.417"/><path fill="#28A8EA" d="M604.898 234.667H358.23V450.5l246.667 246.667H820.73V450.5z"/><path fill="#35B8F1" d="M870.065 845.167 305.815 524.5"/><path fill="#50D9FF" d="M604.898 234.667H820.73V450.5H604.898z"/><path fill="#0078D4" d="M358.23 450.5h246.668v308.333H358.23z"/><path fill="#0A2767" d="M589.48 743.417 305.815 524.5l15.417-27.75s262.083 151.083 265.167 151.083h6.166c3.084-3.083 262.084-148 262.084-148l15.416 27.75-280.583 215.834" opacity=".5"/><path fill="#1490DF" d="M873.148 524.5 611.064 675.583l-6.166 3.084c-6.167 3.083-9.25 3.083-15.417 3.083s-12.333-3.083-15.417-3.083l86.334 120.25 209.666 49.333c9.25-6.167 12.334-15.417 12.334-24.667v-314.5c0 6.167-3.084 12.334-9.25 15.417"/><path fill="#000" d="M882.398 820.5 620.314 669.417l-9.25 6.166-6.166 3.084c-6.167 3.083-9.25 3.083-15.417 3.083s-9.25-3.083-12.333-3.083l123.333 111 172.667 55.5c3.083-6.167 9.25-15.417 9.25-24.667" opacity=".1"/><path fill="#28A8EA" d="M570.98 675.583 358.23 549.167 305.815 524.5c-6.166-3.083-9.25-9.25-9.25-15.417V820.5c0 18.5 15.417 30.833 30.834 30.833h518c9.25 0 15.416 0 24.666-6.166L570.981 675.583"/><path fill="#000" d="M561.73 758.833c21.584 0 43.168-21.583 43.168-43.166v-351.5c0-21.584-15.417-37-37-37H358.23v138.75l-52.417 30.833c-6.166 3.083-9.25 6.167-9.25 12.333v249.75h265.167" opacity=".5"/><path fill="#0078D4" d="M537.064 728H179.398c-21.584 0-37-15.417-37-37V333.333c0-21.583 15.416-37 37-37h360.75c18.5 0 33.916 15.417 33.916 37v360.75c0 18.5-15.416 33.917-37 33.917"/><path fill="#FFF" d="M256.48 450.5c9.25-18.5 21.584-33.917 40.084-46.25 18.5-9.25 40.084-15.417 64.75-15.417 21.584 0 43.167 6.167 58.584 15.417 18.5 9.25 30.833 24.667 40.083 43.167s12.333 40.083 12.333 61.666c0 24.667-6.166 46.25-15.416 64.75-6.167 21.584-21.584 37-37 46.25-18.5 9.25-40.084 15.417-61.667 15.417-24.667 0-43.167-6.167-61.667-15.417s-30.833-24.666-40.083-43.166c-9.25-18.5-15.417-40.084-15.417-61.667 0-24.667 6.167-46.25 15.417-64.75m43.168 104.833c6.166 12.334 12.333 21.584 21.583 30.834 9.25 6.166 21.583 9.25 37 9.25 15.417 0 27.75-3.084 37-12.334 9.25-6.166 18.5-18.5 21.583-30.833 6.167-9.25 9.25-24.667 9.25-40.083 0-15.417-3.083-27.75-6.166-40.084-3.084-12.333-12.334-21.583-21.584-30.833-12.333-9.25-24.666-12.333-40.083-12.333-15.417 0-27.75 3.083-37 12.333-9.25 6.167-18.5 18.5-24.667 30.833-3.083 9.25-6.166 24.667-6.166 40.084 0 15.416 3.083 30.833 9.25 43.166"/></g></g></svg>