<svg xmlns="http://www.w3.org/2000/svg" xmlns:xlink="http://www.w3.org/1999/xlink" width="1024" height="1024"><defs><linearGradient id="a" x1="50.661%" x2="50%" y1="35.862%" y2="70.327%"><stop offset="0%" stop-color="#FDD8D0"/><stop offset="100%" stop-color="#F8BDB0"/></linearGradient><linearGradient id="d" x1="50%" x2="50%" y1="0%" y2="100%"><stop offset="0%" stop-color="#FEE2D8"/><stop offset="100%" stop-color="#FCB0A9"/></linearGradient><linearGradient id="e" x1="50%" x2="50%" y1="0%" y2="100%"><stop offset="0%" stop-color="#A9DBA1"/><stop offset="18.283%" stop-color="#A7D99F"/><stop offset="100%" stop-color="#4A8A57"/></linearGradient><linearGradient id="f" x1="94.258%" x2="16.021%" y1="36.657%" y2="59.809%"><stop offset="0%" stop-color="#C6EAAE"/><stop offset="100%" stop-color="#66949B"/></linearGradient><linearGradient id="g" x1="94.258%" x2="16.021%" y1="35.137%" y2="60.926%"><stop offset="0%" stop-color="#C6EAAE"/><stop offset="100%" stop-color="#66949B"/></linearGradient><filter id="b" width="106%" height="158.4%" x="-2.1%" y="-20.9%" filterUnits="objectBoundingBox"><feOffset dx="2" dy="2" in="SourceAlpha" result="shadowOffsetOuter1"/><feGaussianBlur in="shadowOffsetOuter1" result="shadowBlurOuter1" stdDeviation="2"/><feColorMatrix in="shadowBlurOuter1" values="0 0 0 0 0.732053895 0 0 0 0 0.321696397 0 0 0 0 0.4110095 0 0 0 0.75237653 0"/></filter><path id="c" d="M5.496 103.547h232.971c-5.065 6.585-9.54 11.45-13.424 14.595-3.884 3.145-9.276 6.27-16.175 9.372H34.854c-6.196-1.414-12.254-4.538-18.175-9.372-5.92-4.834-9.648-9.698-11.183-14.595"/></defs><g fill="none" fill-rule="evenodd"><path fill="#FFF" d="M0 0h1024v1024H0z"/><g transform="translate(112 112)"><circle cx="400" cy="400" r="400" fill="#CE610F"/><path fill="#FFEEEA" d="M400 400c169.793 0 306.165 63.758 303.481 47.421-23.966-145.913-151.335-262.848-304.032-262.848-155.035 0-283.267 114.757-304.388 263.96C93.051 462.738 230.207 400 400 400"/><path fill="url(#a)" d="M314.868 615.427c37.314-.436 113.032-.551 210.242-59.266 15.387-9.528 39.005-25.054 67.59-52.102 14.837-14.9 26.408-27.664 34.713-38.29-4.995-134.684-7.813-202.325-8.456-202.92-43.787-40.631-148.713-47.422-304.507-47.422s-251.03 6.79-303.69 47.421C7.94 268.684 4.353 334.843 0 461.323c16.218 21.269 34.021 40.076 53.41 56.423 17.123 14.835 53.063 44.657 107.717 66.868 56.17 28.088 136.284 31.255 153.741 30.813" transform="translate(84.524 184.573)"/><g transform="translate(64.67 427.548)"><circle cx="585.467" cy="82.645" r="82.645" fill="#FDA9A6"/><circle cx="85.191" cy="82.645" r="82.645" fill="#FDA9A6"/><path fill="#CE610F" d="m.916 23.079 29.698-3.206c-2.09 19.873-3.589 37.123-4.498 51.752-.909 14.63-1.983 36.507-3.222 65.635L0 136.381.916 23.08M668.816 23.079l-30.071-3.629c1.344 19.876 2.289 37.138 2.835 51.785.547 14.648 1.403 37.813 2.57 69.497l25.582-4.35-.916-113.303"/></g><path fill="#FD7C9A" d="M484.849 529.716c-42.019.668-108.671-.338-174.015 0-29.083-7.79-34.854-35.501-34.854-46.074 0-9.83 5.135-37.19 34.854-56.094 13.21-8.403 49.838-25.185 87.396-25.344 19.186-.082 58.268 6.248 86.619 25.344 11.284 7.6 37.122 34.536 36.838 56.094-.34 25.826-28.71 44.083-36.838 46.074"/><g transform="translate(275.98 402.202)"><use xlink:href="#c" fill="#000" filter="url(#b)"/><use xlink:href="#c" fill="#FD5378"/></g><g transform="translate(336.578 423.14)"><ellipse cx="17.141" cy="30.854" fill="#B91B3F" rx="17.141" ry="30.854"/><ellipse cx="17.141" cy="30.854" fill="#FC5478" rx="11.019" ry="19.835"/></g><g transform="translate(429.14 425.344)"><ellipse cx="17.141" cy="30.854" fill="#B91B3F" rx="17.141" ry="30.854"/><ellipse cx="17.141" cy="30.854" fill="#FC5478" rx="11.019" ry="19.835"/></g><path fill="#C81442" d="M457.3 573.733c3.196-13.846 4.306-28.518 3.331-44.017H341.615c-.884 12.391.67 27.063 4.663 44.017 3.993 16.954 10.704 35.91 20.134 56.871 11.6-7.057 23.16-10.634 34.679-10.73 11.52-.097 22.996 3.48 34.428 10.73 11.325-24.068 18.586-43.025 21.781-56.871"/><path fill="#FE7C98" d="M397.428 678.744c.794.816 1.652 1.224 2.572 1.224.92 0 1.863-.408 2.828-1.224 9.364-11.186 15.62-19.055 18.769-23.605 5.28-7.633 9.92-15.811 13.922-24.534-11.402-7.154-22.878-10.732-34.428-10.732-11.55 0-23.11 3.578-34.679 10.732 2.663 7.2 6.99 15.377 12.98 24.534 5.99 9.156 12.001 17.025 18.036 23.605"/><path fill="#FFF" d="M367.803 418.76v-2.816a3 3 0 0 1 3-3h57.912a3 3 0 0 1 3 3v2.816a3 3 0 0 1-3 3h-57.912a3 3 0 0 1-3-3"/><path fill="#572C36" stroke="#190209" stroke-width="4" d="M461.571 279.704c-11.27 0-13.31 1.275-20.608 5.848-.926.58-1.933 1.21-3.045 1.895-6.92 4.256-11.934 9.86-15.023 16.832h-20.664v22.042h21.58c-3.525 37.702-3.794 60.177-.39 67.268 3.262 6.796 16.419 11.944 38.527 16.184 82.679 22.187 135.043 34.424 157.239 36.714 11.014 1.137 19.38-.03 25.575-2.191 8.95-3.124 13.28-8.302 14.243-11.1 3.19-9.257.636-40.32-8.73-67.78-6.791-19.91-19.232-37.853-22.614-41.395-5.33-5.582-14.183-11.103-26.512-16.629-27.28-9.897-49.05-16.463-65.313-19.687-9.031-1.79-19.74-3.35-30.314-4.605l-1.72-.201c-1.26-.146-2.518-.288-3.77-.425l-1.497-.162c-15.446-1.655-29.726-2.608-36.964-2.608Z"/><path fill="#FFF" d="m452.45 344.79 1.279-2.508a3 3 0 0 1 4.035-1.311l37.854 19.288a3 3 0 0 1 1.311 4.035l-1.278 2.508a3 3 0 0 1-4.035 1.311l-37.854-19.287a3 3 0 0 1-1.311-4.035M432.616 369.033l1.278-2.509a3 3 0 0 1 4.035-1.31l37.854 19.287a3 3 0 0 1 1.311 4.035l-1.278 2.509a3 3 0 0 1-4.035 1.31l-37.854-19.287a3 3 0 0 1-1.311-4.035"/><path fill="#572C36" stroke="#190209" stroke-width="4" d="M338.66 279.704c11.27 0 13.31 1.275 20.608 5.848.926.58 1.932 1.21 3.045 1.895 6.92 4.256 11.934 9.86 15.023 16.832H398v22.042h-21.58c3.525 37.702 3.794 60.177.39 67.268-3.262 6.796-16.419 11.944-38.527 16.184-82.679 22.187-135.043 34.424-157.239 36.714-11.014 1.137-19.38-.03-25.575-2.191-8.95-3.124-13.28-8.302-14.244-11.1-3.19-9.257-.635-40.32 8.731-67.78 6.79-19.91 19.232-37.853 22.614-41.395 5.33-5.582 14.183-11.103 26.512-16.629 27.28-9.897 49.05-16.463 65.313-19.687 9.031-1.79 19.74-3.35 30.314-4.605l1.72-.201c1.26-.146 2.518-.288 3.769-.425l1.498-.162c15.446-1.655 29.726-2.608 36.963-2.608Z"/><path fill="#FFF" d="m183.58 342.587 1.278-2.509a3 3 0 0 1 4.035-1.31l37.855 19.287a3 3 0 0 1 1.31 4.035l-1.278 2.508a3 3 0 0 1-4.035 1.312l-37.854-19.288a3 3 0 0 1-1.31-4.035M163.745 366.83l1.278-2.51a3 3 0 0 1 4.035-1.31l37.855 19.287a3 3 0 0 1 1.31 4.035l-1.277 2.509a3 3 0 0 1-4.035 1.31l-37.855-19.287a3 3 0 0 1-1.31-4.035"/><path fill="#572C36" d="M392.287 306.685h15.426v17.226h-15.426z"/><path fill="url(#d)" d="M45.488 0c3.87 0 16.034 6.44 26.942 14.598 21.35 15.967 47.764 48.279 62.036 87.55 14.375 39.559 21.348 87.833 20.918 144.825-17.568-30.407-37.956-55.895-61.163-76.464C71.013 149.939 39.606 129.522 0 109.255 11.643 59.24 20.393 28.821 26.25 18.003 33.135 5.287 44.574 0 45.488 0" transform="translate(511.96 97.6)"/><path fill="#FD725F" d="M569.122 166.928c2.001 0 9.673 4.282 17.173 12.38 7.669 8.278 15.162 20.7 19.221 33.62 5.353 17.04 7.738 36.788 7.156 59.248l-.096 1.81c-8.073-7.69-15.04-13.694-20.903-18.014-19.615-14.453-40.817-27.48-40.809-27.56 2.328-22.844 4.424-37.458 6.288-43.839 3.5-11.983 10.477-17.645 11.97-17.645"/><path fill="url(#d)" d="M45.488 0c3.87 0 16.034 6.44 26.942 14.598 21.35 15.967 47.764 48.279 62.036 87.55 14.375 39.559 21.348 87.833 20.918 144.825-17.568-30.407-37.956-55.895-61.163-76.464C71.013 149.939 39.606 129.522 0 109.255 11.643 59.24 20.393 28.821 26.25 18.003 33.135 5.287 44.574 0 45.488 0" transform="matrix(-1 0 0 1 284.993 97.6)"/><path fill="#FD725F" d="M227.831 166.928c-2.002 0-9.673 4.282-17.174 12.38-7.669 8.278-15.162 20.7-19.22 33.62-5.354 17.04-7.739 36.788-7.157 59.248l.097 1.81c8.072-7.69 15.04-13.694 20.903-18.014 19.615-14.453 40.816-27.48 40.808-27.56-2.328-22.844-4.424-37.458-6.287-43.839-3.5-11.983-10.477-17.645-11.97-17.645"/><path fill="url(#e)" d="M183.66 80.519c-12.347.897-22.74.869-31.865.89-11.749.026-20.7-.604-28.743-1.103-16.083-5.363-17.578-23.866-17.578-27.548 0-3.839.092-21.88 17.578-27.548 7.316-2.371 39.656-7.964 59.999 0 6.928 2.712 16.855 15.007 16.58 27.548-.272 12.418-10.074 25.295-15.972 27.76" transform="translate(246.095 718.592)"/><path fill="url(#f)" d="M191.401 31.822c38.009-16.807 65.532-25.21 82.57-25.21 17.037 0 26.602 8.403 28.695 25.21 1.259 12.21-.028 19.792-3.86 22.748-16.683 6.681-38.13 14.784-71.442 20.795-8.672 1.565-23.24 3.283-43.705 5.154 2.73-1.892 4.564-3.35 5.504-4.371a49.747 49.747 0 0 0 4.998-6.46c4.014-6.377 5.338-13.693 5.476-16.93.13-3.051-.519-6.612-2.42-11.25-.897-2.006-2.836-5.235-5.816-9.686" transform="translate(246.095 718.592)"/><path fill="url(#g)" d="M93.159 0c17.037 0 26.602 8.403 28.695 25.21 2.126 15.26 1.272 24.368-2.56 27.323-14.963 8.412-40.587 16.643-77.456 22.745-6.665 1.102-16.692 2.473-30.357 3.872-3.688.38-7.515.763-11.481 1.15 3.497-1.345 6.778-3.528 9.842-6.55 4.364-4.882 5.686-9.956 6.664-13.276 1.48-5.847 1.403-12.363-.588-18.915-1.174-3.392-3.12-7.378-6.522-10.848C9.156 29.835 67.603 0 93.16 0" transform="matrix(-1 0 0 1 369.086 718.592)"/></g></g></svg>