<svg xmlns="http://www.w3.org/2000/svg" width="1025" height="1024"><g fill="none" fill-rule="evenodd"><path fill="#13BEF9" d="M.633 0h1024v1024H.633z"/><path fill="#FFF" fill-rule="nonzero" d="M336.333 696.395c7.413-31.12 31.655-55.444 62.737-62.947 31.081-7.504 63.742 3.083 84.521 27.397 30.172-20.618 70.148-19.593 99.225 2.545 29.076 22.137 40.723 60.415 28.907 95.009 19.09 25.703 22.055 59.982 7.664 88.586-14.391 28.603-43.677 46.636-75.682 46.602a83.99 83.99 0 0 1-54.044-19.444c-17.154 24.239-45.714 37.753-75.322 35.641-29.608-2.111-55.964-19.542-69.509-45.97a83.839 83.839 0 0 1-17.607 1.827c-46.76 0-85.013-37.979-85.013-84.766a84.887 84.887 0 0 1 24.95-60.01 84.788 84.788 0 0 1 60.063-24.747 30.35 30.35 0 0 1 9.11.306v-.029M405.259 289.3v120.603h64.367V289.3h59.206v345.416c.908 0 17.913-.296 24.9 3.042V289.3h17.607v351.853c9.711 4.858 18.218 10.33 24.9 17.923V289.3h200.394v-24.914h-42l-200.901-116.09V114h-24.9v33.952l-.306-.526-202.44 116.96h-98.453V289.3H405.26m12.14 55.902V289.3h40.079v55.902h-40.08m-41.513-80.816 152.936-88.373v88.373H375.886m328.966 0h-151.12v-87.32l151.12 87.32M292.88 686.668a106.883 106.883 0 0 1 23.992-3.644 85.08 85.08 0 0 1 8.803.613c9.415-39.5 45.88-65.926 88.359-65.926 23.982 0 47.668 6.695 63.755 22.18 7.6-15.8 10.029-33.427 10.029-52.259a120.694 120.694 0 0 0-16.404-61.372H258.909a123.795 123.795 0 0 0-16.403 61.334c0 40.705 20.073 76.56 50.402 99.036l-.028.038m104.484-306.834v64.71h-64.377v-64.71h64.377m-72.568 0v64.71h-64.367v-64.71h64.367m0 71.998v64.71h-64.367v-64.71h64.367m72.568 0v64.71h-64.377v-64.71h64.377m72.262 0v64.71H405.26v-64.71h64.367"/></g></svg>