<svg xmlns="http://www.w3.org/2000/svg" width="1025" height="1024"><g fill="none" fill-rule="evenodd"><path fill="#FFF" d="M.26 0h1024v1024H.26z"/><path fill="#000" d="M369 369h143v48H369z"/><path fill="#000" d="M463.5 275.5v95h-48v-95zM464 179h48v48h-48zM321 179h48v48h-48zM321 418h48v48h-48zM178 702h48v95h-48zM273 750h48v95h-48zM321 797h48v95h-48zM225 797h48v48h-48z"/><path fill="#1BB401" d="M273 654h48v96h-48zM321 702h48v95h-48zM369 749h143v95H369z"/><path fill="#000" d="M369 844h145v48H369zM273 465h48v48h-48zM416 511h48v48h-48zM178 417h48v48h-48zM130 465h48v285h-48zM225 513h48v237h-48zM369 131h95v48h-95zM273.5 227H321v190h-95v-46.545h47.5z"/><path fill="#000" d="M369 131h95v48h-95z"/><path fill="#0DF113" d="M178 465h95v48h-95zM416 559h96v143h-96zM321 465h95v48h-95zM369 417h95v48h-95zM416 465h96v47h-96zM464 512h48v47h-48zM464 417h48v48h-48zM321 654h95v48h-95zM369 702h143v47H369zM226 417h95v48h-95zM273 513h143v141H273zM464 227h48v48h-48zM321 227h48v48h-48zM369 179h95v48h-95z"/><path fill="#000" d="M655 369H512v48h143z"/><path fill="#000" d="M560.5 275.5v95h48v-95zM560 179h-48v48h48zM703 179h-48v48h48zM703 418h-48v48h48zM846 702h-48v95h48zM751 750h-48v95h48zM703 797h-48v95h48zM799 797h-48v48h48z"/><path fill="#1BB401" d="M751 654h-48v96h48zM703 702h-48v95h48zM655 749H512v95h143z"/><path fill="#000" d="M655 844H510v48h145zM751 465h-48v48h48zM608 511h-48v48h48zM846 417h-48v48h48zM894 465h-48v285h48zM799 513h-48v237h48zM655 131h-95v48h95zM750.5 227H703v190h95v-46.545h-47.5z"/><path fill="#000" d="M655 131h-95v48h95z"/><path fill="#0DF113" d="M846 465h-95v48h95zM608 559h-96v143h96zM703 465h-95v48h95zM655 417h-95v48h95zM608 465h-96v47h96zM560 512h-48v47h48zM560 417h-48v48h48zM703 654h-95v48h95zM655 702H512v47h143zM798 417h-95v48h95zM751 513H608v141h143zM560 227h-48v48h48zM703 227h-48v48h48zM655 179h-95v48h95z"/></g></svg>