<svg xmlns="http://www.w3.org/2000/svg" width="1024" height="1024"><g fill="none" fill-rule="evenodd"><path fill="#FFF" d="M0 0h1024v1024H0z"/><g fill-rule="nonzero"><path fill="#27387D" d="M254.308 438.129v-.115h-4.522c-.17 0-.322-.014-.489-.014v.014h-90.712c-31.07 0-46.585 12.515-46.585 37.537v68.911c0 24.863 15.52 37.303 46.585 37.303h90.83v-.044c30.956-.038 46.448-12.457 46.448-37.262v-68.911c-.003-23.66-13.86-36.121-41.555-37.42m-9.941 108.662h-75.335V472.2h75.335v74.59"/><g fill="#27387D"><path d="M709.564 581.764h-54.035v-37.782h-75.652v37.782h-54.01V470.762c0-9.468 3.542-16.992 10.69-22.619 6.969-5.464 16.923-8.186 29.867-8.186h102.824c12.945 0 22.892 2.722 29.86 8.186 6.98 5.458 10.456 13.024 10.456 22.619v111.002m-54.038-63.903v-41.037h-75.652v41.037h75.652M903.304 447.063c-5.452-4.341-13.853-6.664-25.108-7.033l.19-.05h-2.113c-.452-.008-.864-.024-1.347-.024H778.76l-.04.025h-3.143c-12.944 0-22.89 2.703-29.864 8.18-6.972 5.439-10.504 12.785-10.686 21.937h-.017v.339c0 .143-.012.235-.012.356h.012v110.971h54.041v-37.045h87.359c23.724 0 35.59-9.52 35.59-28.661v-45.48c.007-10.923-2.896-18.742-8.696-23.515m-46.276 66.515H788.3v-36.751h68.727v36.751M457.961 439.956h-8.068v82.488c-.356.866-1.129 1.514-2.78 1.221 0 0-1.06-.222-1.81-1.015-9.118-14.133-44.233-62.505-55.473-77.919-.027-.062-.09-.103-.137-.163h.033a5.62 5.62 0 0 0-.558-.484c-.085-.132-.16-.235-.27-.273-2.857-2.578-6.608-3.852-11.594-3.852H333.66c-5.495 0-9.71 1.565-12.665 4.634-2.972 3.109-4.45 7.298-4.514 12.469l-.081.039v124.664h51.045s-.285-65.855-.42-85.261c.216-1.288 1.147-3.156 5.043-2.684 0 0 1.498.113 2.137 1.247 9.85 15.761 74.392 86.698 74.392 86.698h53.017V439.96h-43.654v-.003"/></g><path fill="#EC2727" stroke="#FFF" stroke-width="1.433" d="M199.042 527.976s57.11 32.725 69.006 58.68h44.441c-3.684-8.715-24.865-47.482-113.447-58.68Z"/></g></g></svg>