<?xml version="1.0" encoding="UTF-8"?>
<svg width="1025px" height="1024px" viewBox="0 0 1025 1024" version="1.1" xmlns="http://www.w3.org/2000/svg" xmlns:xlink="http://www.w3.org/1999/xlink">
    <title>QQ.music</title>
    <defs>
        <linearGradient x1="50%" y1="0%" x2="50%" y2="58.1471904%" id="linearGradient-1">
            <stop stop-color="#28D1CB" offset="0%"></stop>
            <stop stop-color="#12BE73" offset="100%"></stop>
        </linearGradient>
    </defs>
    <g id="ICON-新版方图标" stroke="none" stroke-width="1" fill="none" fill-rule="evenodd">
        <g id="QQ.music" transform="translate(0.6332, 0)">
            <rect id="蒙版路径" fill="#FFFFFF" x="0" y="0" width="1024" height="1024"></rect>
            <g id="编组" transform="translate(136.8668, 137.0044)" fill-rule="nonzero">
                <path d="M375,0 C438.362581,0 498.054763,15.7148498 550.391645,43.4596515 L580.346654,2.94171825 L591.512893,68.7810202 C687.406957,136.706617 750,248.543615 750,375 C750,582.106781 582.106781,750 375,750 C167.893219,750 0,582.106781 0,375 C0,167.893219 167.893219,0 375,0 Z" id="2" fill="#FFDC00"></path>
                <path d="M580.346654,2.94171825 C541.912259,108.153986 473.295263,184.586733 374.495667,232.239963 L529.543709,497.244322 C545.68856,519.501734 555,545.70394 555,573.75 C555,654.521648 477.769119,720 382.5,720 C287.230881,720 210,654.521648 210,573.75 C210,492.978356 287.230881,427.5 382.5,427.5 C399.484184,427.5 415.895072,429.581051 431.397278,433.458806 L247.035107,118.354069 C239.756159,105.912947 243.940928,89.9266733 256.38205,82.647726 L256.447113,82.6097858 L256.643117,82.4964968 C263.544353,78.512067 271.506539,78.0165728 278.482145,80.4677093 C361.187867,90.7000433 461.810936,64.856577 580.346654,2.94171825 Z" id="1" fill="url(#linearGradient-1)"></path>
            </g>
        </g>
    </g>
</svg>