<svg xmlns="http://www.w3.org/2000/svg" width="1025" height="1024"><defs><linearGradient id="a" x1="99.822%" x2="30.033%" y1="87.452%" y2="28.957%"><stop offset="0%" stop-color="#00FF2E"/><stop offset="100%" stop-color="#00BDFF"/></linearGradient></defs><g fill="none" fill-rule="evenodd"><path fill="#FFF" d="M.061 0h1024v1024H.061z"/><g fill-rule="nonzero"><path fill="#0D53FF" d="M514.187 212.181c126.483 0 232.335 95.69 246.53 221.15l-.166-1.298 1.52.553c73.427 28.417 122.654 98.095 124.907 176.798l.083 2.762v3.176c0 107.98-86.99 195.522-194.363 195.522h-55.232a41.921 41.921 0 0 1-41.81-42.031c0-23.198 18.723-42.032 41.782-42.032h55.233c61.225 0 110.823-49.903 110.823-111.46 0-61.583-49.598-111.458-110.796-111.458-7.07 0-12.593.442-16.57 1.326 1.74-8.672 2.624-23.143 2.624-43.358 0-91.465-73.68-165.559-164.592-165.559-88.179 0-160.588 69.924-164.4 158.24l-.33 7.789-7.54-1.906-69.51-17.536-4.777-1.215v-7.65l.027-.718C281.66 309.362 385.275 214.28 510.1 212.21h4.087v-.028"/><path fill="url(#a)" d="M193.672 208.889c106.958 0 193.672 87.24 193.672 194.832a196.903 196.903 0 0 1-6.048 48.383A41.728 41.728 0 0 1 330.51 482.4c-22.394-5.83-35.853-28.675-30.101-51.09a110.465 110.465 0 0 0 3.424-27.616c0-61.197-49.322-110.796-110.188-110.796-60.811 0-110.161 49.599-110.161 110.824 0 61.197 49.35 110.824 110.188 110.824h184.255c23.06 0 41.756 18.779 41.756 41.976 0 23.198-18.696 42.004-41.756 42.004H193.672C86.715 598.525 0 511.313 0 403.748c0-107.592 86.715-194.832 193.672-194.832v-.027" transform="translate(137.061 212.181)"/></g></g></svg>