<svg xmlns="http://www.w3.org/2000/svg" width="1024" height="1024"><defs><radialGradient id="a" cx="51.051%" cy="19.995%" r="101.071%" fx="51.051%" fy="19.995%"><stop offset="0%" stop-color="#FEFFFF"/><stop offset="40%" stop-color="#FEFFFF"/><stop offset="51%" stop-color="#F9FCFC"/><stop offset="62%" stop-color="#EDF3F5"/><stop offset="70%" stop-color="#DEE9EC"/><stop offset="72%" stop-color="#D8E4E8"/><stop offset="76%" stop-color="#CCD8DF"/><stop offset="80%" stop-color="#C8D5DD"/><stop offset="83%" stop-color="#CCD6DE"/><stop offset="85%" stop-color="#D8DBE2"/><stop offset="88%" stop-color="#EDE3E9"/><stop offset="90%" stop-color="#FFEBEF"/></radialGradient><radialGradient id="b" cx="51.051%" cy="-162.094%" r="101.071%" fx="51.051%" fy="-162.094%"><stop offset="0%" stop-color="#FEFFFF"/><stop offset="40%" stop-color="#FEFFFF"/><stop offset="51%" stop-color="#F9FCFC"/><stop offset="62%" stop-color="#EDF3F5"/><stop offset="70%" stop-color="#DEE9EC"/><stop offset="72%" stop-color="#D8E4E8"/><stop offset="76%" stop-color="#CCD8DF"/><stop offset="80%" stop-color="#C8D5DD"/><stop offset="83%" stop-color="#CCD6DE"/><stop offset="85%" stop-color="#D8DBE2"/><stop offset="88%" stop-color="#EDE3E9"/><stop offset="90%" stop-color="#FFEBEF"/></radialGradient><radialGradient id="c" cx="51.076%" cy="10.031%" r="142.389%" fx="51.076%" fy="10.031%" gradientTransform="matrix(.75 0 0 1 .128 0)"><stop offset="0%" stop-color="#FEFFFF"/><stop offset="40%" stop-color="#FEFFFF"/><stop offset="51%" stop-color="#F9FCFC"/><stop offset="62%" stop-color="#EDF3F5"/><stop offset="70%" stop-color="#DEE9EC"/><stop offset="72%" stop-color="#D8E4E8"/><stop offset="76%" stop-color="#CCD8DF"/><stop offset="80%" stop-color="#C8D5DD"/><stop offset="83%" stop-color="#CCD6DE"/><stop offset="85%" stop-color="#D8DBE2"/><stop offset="88%" stop-color="#EDE3E9"/><stop offset="90%" stop-color="#FFEBEF"/></radialGradient><radialGradient id="d" cx="52.61%" cy="71.25%" r="53.613%" fx="52.61%" fy="71.25%" gradientTransform="matrix(1 0 0 .8834 0 .083)"><stop offset="0%" stop-color="#F60"/><stop offset="50%" stop-color="#FF4500"/><stop offset="70%" stop-color="#FC4301"/><stop offset="82%" stop-color="#F43F07"/><stop offset="92%" stop-color="#E53812"/><stop offset="100%" stop-color="#D4301F"/></radialGradient><radialGradient id="e" cx="47.733%" cy="71.25%" r="53.613%" fx="47.733%" fy="71.25%" gradientTransform="matrix(-1 0 0 -.8834 .955 1.342)"><stop offset="0%" stop-color="#F60"/><stop offset="50%" stop-color="#FF4500"/><stop offset="70%" stop-color="#FC4301"/><stop offset="82%" stop-color="#F43F07"/><stop offset="92%" stop-color="#E53812"/><stop offset="100%" stop-color="#D4301F"/></radialGradient><radialGradient id="f" cx="49.758%" cy="113.966%" r="209.238%" fx="49.758%" fy="113.966%" gradientTransform="matrix(.405 0 0 1 .296 0)"><stop offset="0%" stop-color="#172E35"/><stop offset="29%" stop-color="#0E1C21"/><stop offset="73%" stop-color="#030708"/><stop offset="100%"/></radialGradient><radialGradient id="g" cx="51.091%" cy="3.529%" r="111.276%" fx="51.091%" fy="3.529%"><stop offset="0%" stop-color="#FEFFFF"/><stop offset="40%" stop-color="#FEFFFF"/><stop offset="51%" stop-color="#F9FCFC"/><stop offset="62%" stop-color="#EDF3F5"/><stop offset="70%" stop-color="#DEE9EC"/><stop offset="72%" stop-color="#D8E4E8"/><stop offset="76%" stop-color="#CCD8DF"/><stop offset="80%" stop-color="#C8D5DD"/><stop offset="83%" stop-color="#CCD6DE"/><stop offset="85%" stop-color="#D8DBE2"/><stop offset="88%" stop-color="#EDE3E9"/><stop offset="90%" stop-color="#FFEBEF"/></radialGradient><radialGradient id="h" cx="83.197%" cy="87.736%" r="104.12%" fx="83.197%" fy="87.736%" gradientTransform="matrix(.9514 0 0 1 .04 0)"><stop offset="48%" stop-color="#7A9299"/><stop offset="67%" stop-color="#172E35"/><stop offset="75%"/><stop offset="82%" stop-color="#172E35"/></radialGradient></defs><g fill="none" fill-rule="evenodd"><path fill="#FFF" d="M0 0h1024v1024H0z"/><g fill-rule="nonzero" transform="translate(142 142)"><path fill="#FF4500" d="M370 0C165.644 0 0 165.644 0 370c0 102.161 41.42 194.661 108.362 261.638l-70.471 70.471C23.913 716.087 33.814 740 53.58 740H370c204.356 0 370-165.644 370-370S574.356 0 370 0"/><circle cx="579.735" cy="366.506" r="86.402" fill="url(#a)"/><circle cx="160.265" cy="366.506" r="86.402" fill="url(#b)"/><ellipse cx="370.206" cy="440.711" fill="url(#c)" rx="246.667" ry="185"/><path fill="url(#d)" d="M297.302 423.033c-1.439 31.108-22.234 42.413-46.456 42.413-24.221 0-42.687-16.89-41.248-47.997s22.234-51.457 46.456-51.457c24.221 0 42.687 25.968 41.248 57.076z"/><path fill="url(#e)" d="M443.144 423.033c1.438 31.108 22.234 42.413 46.455 42.413 24.221 0 42.687-16.89 41.248-47.997s-22.234-51.457-46.455-51.457c-24.222 0-42.687 25.968-41.248 57.076z"/><ellipse cx="272.806" cy="398.675" fill="#FFC49C" rx="9.593" ry="10.449"/><ellipse cx="500.905" cy="398.675" fill="#FFC49C" rx="9.593" ry="10.449"/><path fill="url(#f)" d="M370.206 489.633c-30.012 0-58.79 1.473-85.375 4.18-4.556.445-7.434 5.173-5.652 9.387 14.902 35.595 50.052 60.605 91.027 60.605 40.974 0 76.158-25.01 91.026-60.605 1.782-4.214-1.13-8.942-5.652-9.387-26.62-2.707-55.363-4.18-85.374-4.18"/><circle cx="505.29" cy="169.344" r="61.221" fill="url(#g)"/><path fill="url(#h)" d="M369.315 263.522c-7.332 0-13.259-3.049-13.259-7.777 0-54.849 44.64-99.489 99.49-99.489a13.247 13.247 0 0 1 13.258 13.259 13.247 13.247 0 0 1-13.259 13.258c-40.22 0-72.938 32.718-72.938 72.938 0 4.728-5.926 7.777-13.258 7.777z"/><path fill="#842123" d="M215.217 420.19c1.336-29.326 20.83-48.511 43.475-48.511 21.446 0 38.027 21.891 38.644 49.093.583-30.422-17.575-54.78-41.282-54.78-23.708 0-45.017 20.727-46.456 52.074-1.439 31.347 17.027 47.38 41.248 47.38h1.782c-22.063-.548-38.713-16.41-37.377-45.222zm309.977 0c-1.336-29.326-20.83-48.511-43.475-48.511-21.446 0-38.027 21.891-38.644 49.093-.582-30.422 17.575-54.78 41.282-54.78 24.222 0 45.017 20.727 46.456 52.074 1.439 31.347-17.027 47.38-41.248 47.38h-1.782c22.063-.548 38.713-16.41 37.377-45.222l.034-.034"/></g></g></svg>