<?xml version="1.0" encoding="UTF-8"?>
<svg width="1024px" height="1024px" viewBox="0 0 1024 1024" version="1.1" xmlns="http://www.w3.org/2000/svg" xmlns:xlink="http://www.w3.org/1999/xlink">
    <title>Redis</title>
    <g id="Icon-SVG" stroke="none" stroke-width="1" fill="none" fill-rule="evenodd">
        <g id="Redis" transform="translate(0, -0.0008)">
            <rect id="蒙版路径" fill="#FFFFFF" x="0" y="0" width="1024" height="1024"></rect>
            <g id="编组" transform="translate(142, 196.0008)" fill-rule="nonzero">
                <path d="M711.007031,486.662672 C671.515312,507.246813 466.94,591.36111 423.386953,614.066969 C379.833906,636.775719 355.639375,636.556032 321.232266,620.108375 C286.828047,603.660719 69.1235159,515.722126 29.9064067,496.976422 C10.3079687,487.610797 0,479.702047 0,472.232672 L0,397.43486 C0,397.43486 283.425781,335.734469 329.181484,319.31861 C374.934297,302.90275 390.809609,302.310172 429.746328,316.572516 C468.688828,330.840641 701.517109,372.847203 740,386.941891 L739.982656,460.681735 C739.988437,468.075953 731.108437,476.187047 711.007031,486.662672" id="路径" fill="#912626"></path>
                <path d="M710.992578,412.307125 C671.50375,432.882594 466.934219,516.999781 423.381172,539.70275 C379.831015,562.414391 355.636484,562.191813 321.232266,545.744156 C286.825156,529.308063 69.1292971,441.355016 29.9150782,422.620875 C-9.29914079,403.875172 -10.1200783,390.974312 28.4003906,375.891031 C66.9208595,360.801969 283.42289,275.860954 329.184375,259.445094 C374.937187,243.035016 390.80961,242.436657 429.746328,256.704782 C468.685937,270.967125 672.035624,351.907516 710.512734,365.999313 C749.004296,380.108453 750.481406,391.725876 710.992578,412.307125" id="路径" fill="#C6302B"></path>
                <path d="M711.007031,365.635094 C671.515312,386.222125 466.94,470.333531 423.386953,493.048063 C379.833906,515.748141 355.639375,515.528454 321.232266,499.080797 C286.825156,482.641813 69.1235159,394.694547 29.9064067,375.948844 C10.3079687,366.583219 0,358.686032 0,351.213766 L0,276.407282 C0,276.407282 283.425781,214.709782 329.181484,198.293922 C374.934297,181.878063 390.809609,181.282594 429.746328,195.547829 C468.691718,209.813063 701.52,251.810954 740,265.908532 L739.982656,339.657047 C739.988437,347.048375 731.108437,355.159469 711.007031,365.635094" id="路径" fill="#912626"></path>
                <path d="M710.992578,291.279547 C671.50375,311.860797 466.934219,395.972203 423.381172,418.683844 C379.831015,441.386813 355.636484,441.164235 321.232266,424.716579 C286.825156,408.280485 69.1292971,320.330329 29.9150782,301.593298 C-9.29914079,282.853376 -10.1200783,269.949626 28.4003906,254.860563 C66.9208595,239.780173 283.425781,154.833375 329.184375,138.420407 C374.937187,122.007438 390.80961,121.411969 429.746328,135.677204 C468.685937,149.939547 672.035624,230.874157 710.512734,244.971735 C749.004296,259.077985 750.481406,270.698297 710.992578,291.279547" id="路径" fill="#C6302B"></path>
                <path d="M711.007031,240.121266 C671.515312,260.702516 466.94,344.819703 423.386953,367.534234 C379.833906,390.237203 355.639375,390.014625 321.232266,373.566969 C286.825156,357.127985 69.1235159,269.177829 29.9064067,250.440797 C10.3079687,241.0665 0,233.166423 0,225.702828 L0,150.893454 C0,150.893454 283.425781,89.1988441 329.181484,72.7858754 C374.934297,56.3671256 390.809609,55.7774382 429.746328,70.0397818 C468.691718,84.3050163 701.52,126.302907 740,140.400485 L739.982656,214.14611 C739.988437,221.531657 731.108437,229.64275 711.007031,240.121266" id="路径" fill="#912626"></path>
                <path d="M710.992578,165.765719 C671.50375,186.346969 466.934219,270.464156 423.381172,293.167126 C379.831015,315.870094 355.636484,315.647516 321.232266,299.208532 C286.828047,282.760875 69.1292971,194.8165 29.9179691,176.076579 C-9.29914017,157.339547 -10.1171874,144.432907 28.4003906,129.346735 C66.9208595,114.263454 283.425781,29.3282194 329.184375,12.9094696 C374.937187,-3.50639003 390.80961,-4.09607736 429.746328,10.1691565 C468.685937,24.434391 672.035624,105.369 710.512734,119.466579 C749.004296,133.561267 750.481406,145.184469 710.992578,165.765719" id="路径" fill="#C6302B"></path>
                <path d="M460.427422,93.0000158 L396.804765,99.6050943 L382.562656,133.876344 L359.559062,95.6333753 L286.093828,89.0311883 L340.911641,69.2622035 L324.463984,38.9164224 L375.787031,58.9889226 L424.170312,43.1482977 L411.093125,74.5260315 L460.427422,93.0000158 M378.764375,259.262985 L260.026172,210.015407 L430.168359,183.89861 L378.764375,259.262985 M214.143282,112.049235 C264.367891,112.049235 305.082344,127.832047 305.082344,147.297516 C305.082344,166.768766 264.367891,182.548688 214.143282,182.548688 C163.918672,182.548688 123.204219,166.765876 123.204219,147.297516 C123.204219,127.832047 163.918672,112.049235 214.143282,112.049235" id="形状" fill="#FFFFFF"></path>
                <polyline id="路径" fill="#621B1C" points="535.618359 102.368532 636.316172 142.160875 535.705078 181.915641 535.618359 102.365641"></polyline>
                <polyline id="路径" fill="#9A2928" points="424.213672 146.43611 535.618359 102.368532 535.705078 181.915641 524.781406 186.187985 424.213672 146.43611"></polyline>
            </g>
        </g>
    </g>
</svg>