<svg xmlns="http://www.w3.org/2000/svg" width="1024" height="1024"><g fill="none" fill-rule="evenodd"><path fill="#FFF" d="M0 0h1024v1024H0z"/><g fill="#AD0038" fill-rule="nonzero"><path d="M223.25 758.75c10-2.5 18.917-5.25 26.75-8.25 1-.333 1.875-1.208 2.625-2.625s1.792-4.625 3.125-9.625c.667-2.167 1.208-4.708 1.625-7.625.417-2.917.708-5.458.875-7.625.333-2.5-.083-4.125-1.25-4.875s-3.333-.875-6.5-.375c-6.667 1-12.208 1.958-16.625 2.875A252.156 252.156 0 0 0 221.5 723.5c5 2.667 7.792 4.875 8.375 6.625.583 1.75-.042 3.792-1.875 6.125a12.435 12.435 0 0 0-1.625 2.625c-.417.917-.792 2.167-1.125 3.75-.333 1.583-.667 3.625-1 6.125-.333 2.5-.667 5.833-1 10m-15.5-31.5c-5.833 1.5-10.708 2.542-14.625 3.125-3.917.583-7.625.958-11.125 1.125-.333 4.167-.625 9-.875 14.5s-.542 12-.875 19.5c4.833-.333 9.75-.833 14.75-1.5s9.917-1.417 14.75-2.25c.333-9.833.375-17.25.125-22.25s-.958-9.083-2.125-12.25M211 677c-5.833 6.833-12.333 12.625-19.5 17.375s-15.417 8.792-24.75 12.125c-6 2.167-9.417 2.667-10.25 1.5-.833-1.167 1.25-3.5 6.25-7 9-6.333 16.708-12.75 23.125-19.25 6.417-6.5 12.042-13.333 16.875-20.5 3.833-5.833 6.583-10.708 8.25-14.625 1.667-3.917 2.333-7.542 2-10.875-.333-5.333.458-8.25 2.375-8.75s5.542 1.25 10.875 5.25c4 3 7.042 5.542 9.125 7.625s3.458 3.833 4.125 5.25c.667 1.417.708 2.625.125 3.625s-1.542 1.917-2.875 2.75c-2.833 1.833-5.708 4.083-8.625 6.75s-6.542 6.5-10.875 11.5a153.53 153.53 0 0 0 9.75-1.875c3.333-.75 6.5-1.625 9.5-2.625s5.708-2.042 8.125-3.125c2.417-1.083 4.292-2.125 5.625-3.125 3.667-3 7-4.417 10-4.25 3 .167 7.167 2.167 12.5 6 5.5 3.833 8.25 6.667 8.25 8.5 0 1.833-2.667 3.75-8 5.75-1.833.667-3.833 1.708-6 3.125s-4.75 3.458-7.75 6.125-6.667 6.167-11 10.5-9.5 9.75-15.5 16.25c5.5-1.667 10.375-3.292 14.625-4.875 4.25-1.583 7.375-3.042 9.375-4.375 1.333-1 2.667-1.667 4-2 1.333-.333 2.833-.375 4.5-.125 1.667.25 3.667.875 6 1.875s5.25 2.5 8.75 4.5c4.333 2.333 7.583 4.333 9.75 6 2.167 1.667 3.5 3.125 4 4.375s.25 2.417-.75 3.5c-1 1.083-2.583 2.208-4.75 3.375-4.833 2.833-8.583 6.083-11.25 9.75s-5.167 8.833-7.5 15.5c5 2.833 7.083 5.667 6.25 8.5-.833 2.833-5.25 4.917-13.25 6.25a15136.11 15136.11 0 0 1-17.625 3c-4.917.833-9.208 1.542-12.875 2.125s-6.75 1.125-9.25 1.625-4.75 1-6.75 1.5c-9.667 2-17.167 3.25-22.5 3.75-5.333.5-9.917.333-13.75-.5-.333 8.5-.167 15.417.5 20.75s2.25 9.542 4.75 12.625 6.208 5.458 11.125 7.125c4.917 1.667 11.458 3.167 19.625 4.5 7 1.167 14.583 1.833 22.75 2 8.167.167 16.167-.083 24-.75 7.833-.667 15.333-1.667 22.5-3s13.25-3 18.25-5c2.333-1 4.375-2.25 6.125-3.75s3.333-3.708 4.75-6.625c1.417-2.917 2.75-6.667 4-11.25s2.542-10.458 3.875-17.625c1.333-7.667 2.917-11.5 4.75-11.5 1.833 0 3.083 3.75 3.75 11.25.5 6.667 1.042 12 1.625 16s1.167 7.208 1.75 9.625 1.333 4.292 2.25 5.625c.917 1.333 2.042 2.583 3.375 3.75 1.5 1.333 2.5 2.792 3 4.375.5 1.583.292 3.292-.625 5.125-.917 1.833-2.708 3.667-5.375 5.5-2.667 1.833-6.333 3.667-11 5.5-17.167 6.5-35.917 10.375-56.25 11.625s-41.083-.042-62.25-3.875c-7.333-1.167-13.458-2.708-18.375-4.625-4.917-1.917-9-4.25-12.25-7s-5.75-5.958-7.5-9.625-3.042-7.917-3.875-12.75c-.5-3-.833-8.542-1-16.625-.167-8.083 0-19.208.5-33.375a66.074 66.074 0 0 0 0-8.125 94.584 94.584 0 0 0-.75-7.625c-.333-2.333-.75-4.417-1.25-6.25-.5-1.833-1-3.167-1.5-4-2.333-3.5-2.417-5.917-.25-7.25 2.167-1.333 7.667-.667 16.5 2 5.5-.5 11.75-1.333 18.75-2.5s14-2.5 21-4c3.833-5.167 7.083-9.667 9.75-13.5s5-7.292 7-10.375 3.667-5.917 5-8.5A213.385 213.385 0 0 0 242.5 675c-4.167 1-7.792 1.833-10.875 2.5s-5.833 1.042-8.25 1.125c-2.417.083-4.583 0-6.5-.25A31.438 31.438 0 0 1 211 677M444.417 765c-6.334 6.833-13.209 12.875-20.625 18.125a152.653 152.653 0 0 1-23.375 13.625c-5.834 2.833-9.125 3.458-9.875 1.875-.75-1.583 1.541-4.458 6.875-8.625 4.666-3.667 8.958-7.25 12.875-10.75 3.916-3.5 7.708-7.25 11.375-11.25 3.666-4 7.208-8.375 10.625-13.125 3.416-4.75 7.041-10.125 10.875-16.125 4.333-7 7.125-12.667 8.375-17s1.708-8.25 1.375-11.75c-.5-4.333.333-6.958 2.5-7.875 2.166-.917 5.5.292 10 3.625 4.166 3.333 7.416 6 9.75 8 2.333 2 3.833 3.667 4.5 5 .666 1.333.666 2.5 0 3.5-.667 1-1.834 2.083-3.5 3.25-2.167 1.5-4.125 3.333-5.875 5.5s-3.709 4.833-5.875 8c-1.667 2.5-3.5 5.167-5.5 8s-3.917 5.5-5.75 8c3 2.667 5.083 4.917 6.25 6.75 1.166 1.833 1.916 3.917 2.25 6.25.166 1 .25 3.167.25 6.5s-.042 7.25-.125 11.75c-.084 4.5-.167 9.167-.25 14a501.154 501.154 0 0 1-.375 13c-.334 8.5-.625 14.833-.875 19s-.542 6.917-.875 8.25c-1 5.833-3.042 8.917-6.125 9.25-3.084.333-6.709-2.417-10.875-8.25-1.667-2.333-2.959-4.333-3.875-6-.917-1.667-1.459-3.333-1.625-5-.167-1.667.083-3.417.75-5.25.666-1.833 1.75-4.083 3.25-6.75 1-2 1.875-5.583 2.625-10.75s1.291-10.625 1.625-16.375c.333-5.75.458-11.167.375-16.25-.084-5.083-.459-8.458-1.125-10.125m56 15.25c-4.667 2.333-9.25 4.292-13.75 5.875-4.5 1.583-8.584 2.708-12.25 3.375-4.167.833-6.459.5-6.875-1-.417-1.5 1.208-3.167 4.875-5 2.833-1.333 6.916-3.625 12.25-6.875a346.757 346.757 0 0 0 16-10.375c.166-8.167.25-15.208.25-21.125s-.209-10.917-.625-15c-.417-4.083-1-7.417-1.75-10s-1.709-4.542-2.875-5.875c-3-3.667-3.792-6.333-2.375-8 1.416-1.667 5.625-1.167 12.625 1.5 4.666 1.833 8.375 3.5 11.125 5s4.666 2.917 5.75 4.25c1.083 1.333 1.458 2.75 1.125 4.25-.334 1.5-1.084 3.25-2.25 5.25-1.334 2.333-2.459 5.625-3.375 9.875-.917 4.25-1.542 10.375-1.875 18.375 9.5-7.833 16.541-15.208 21.125-22.125 4.583-6.917 6.708-12.042 6.375-15.375-.667-4.167 0-6.708 2-7.625 2-.917 5.916.208 11.75 3.375 5.166 2.833 9.083 5.125 11.75 6.875 2.666 1.75 4.375 3.333 5.125 4.75.75 1.417.583 2.667-.5 3.75-1.084 1.083-2.792 2.292-5.125 3.625-2.334 1.333-4.959 3.125-7.875 5.375-2.917 2.25-6.625 5.458-11.125 9.625-2.834 2.5-5.417 4.75-7.75 6.75-2.334 2-4.792 3.917-7.375 5.75a207.82 207.82 0 0 1-8.375 5.625c-3 1.917-6.5 4.042-10.5 6.375 0 13.833.958 23.917 2.875 30.25 1.916 6.333 5.458 10.083 10.625 11.25 8.833 2.167 16.541 3.125 23.125 2.875 6.583-.25 13.041-1.542 19.375-3.875 2.666-1 4.916-2.125 6.75-3.375 1.833-1.25 3.5-3.167 5-5.75s2.875-6.042 4.125-10.375 2.541-10.083 3.875-17.25c1.333-6.667 2.791-10 4.375-10 1.583 0 2.541 3.5 2.875 10.5.333 8 1.125 15 2.375 21s2.708 9.833 4.375 11.5c2.5 2.5 3.625 5.208 3.375 8.125s-1.875 5.292-4.875 7.125c-3.834 2.333-8.25 4.292-13.25 5.875a129.72 129.72 0 0 1-15.625 3.875c-5.417 1-11 1.667-16.75 2-5.75.333-11.292.25-16.625-.25-10-.833-17.375-2.292-22.125-4.375s-8.125-4.708-10.125-7.875c-1.834-2.667-3.334-5.417-4.5-8.25-1.167-2.833-2.125-5.875-2.875-9.125s-1.25-6.917-1.5-11-.375-8.792-.375-14.125m24-101.75c-2.667 5.167-5.292 9.5-7.875 13-2.584 3.5-5.292 6.417-8.125 8.75-3.834 3.167-6.375 4.375-7.625 3.625s-.709-3.792 1.625-9.125c1.333-3 2.416-5.583 3.25-7.75a120.048 120.048 0 0 0 2.5-7.25c-5.334.5-10.75 1.042-16.25 1.625s-11.084 1.292-16.75 2.125a98.69 98.69 0 0 1 .375 5.125c.083 1.75.208 3.792.375 6.125.166 2.5-.084 4.875-.75 7.125-.667 2.25-1.584 3.542-2.75 3.875-2 .833-4.292-.583-6.875-4.25-2.584-3.667-4.292-8.917-5.125-15.75-3.334.5-6.25 1-8.75 1.5s-4.667.917-6.5 1.25c-1.834.333-3.542.667-5.125 1-1.584.333-3.125.75-4.625 1.25-4.5 1.167-8.5 1.583-12 1.25-3.5-.333-7.75-1.667-12.75-4-5.167-2.333-7.584-4.5-7.25-6.5.333-2 3.166-2.917 8.5-2.75h4.25c1.833 0 4.416-.125 7.75-.375 3.333-.25 7.75-.667 13.25-1.25s12.416-1.292 20.75-2.125c-1.667-6.167-3.625-11.292-5.875-15.375s-4.375-6.875-6.375-8.375c-4-2.833-5.417-5.375-4.25-7.625 1.166-2.25 5.75-2.958 13.75-2.125 5 .5 8.958 1.083 11.875 1.75 2.916.667 5.083 1.5 6.5 2.5 1.416 1 2.208 2.208 2.375 3.625.166 1.417 0 3.125-.5 5.125-.334 1.833-.625 4.208-.875 7.125s-.292 6.792-.125 11.625c6-.833 12.25-1.708 18.75-2.625s12.833-1.875 19-2.875c2.333-7.833 3.541-13.917 3.625-18.25.083-4.333-.542-7.833-1.875-10.5-1.334-2.333-2.042-4.375-2.125-6.125-.084-1.75.541-3 1.875-3.75 1.333-.75 3.458-.875 6.375-.375 2.916.5 6.708 1.75 11.375 3.75 7 3 11.083 5.625 12.25 7.875 1.166 2.25.416 4.708-2.25 7.375-1.167 1.167-2.625 3.125-4.375 5.875s-3.792 6.458-6.125 11.125a3322 3322 0 0 1 9.25-1.75c2.666-.5 4.666-.917 6-1.25 4-1 7.416-1.75 10.25-2.25 2.833-.5 5.416-.667 7.75-.5 2.333.167 4.458.625 6.375 1.375 1.916.75 3.875 1.792 5.875 3.125 7 4.833 9.833 8.75 8.5 11.75-1.334 3-6.75 4-16.25 3-4.834-.5-11.042-.75-18.625-.75-7.584 0-16.125.333-25.625 1M734.083 757a445.564 445.564 0 0 0 17.625-2.375c5.917-.917 11.459-1.958 16.625-3.125 1.834-.333 3.25-1.083 4.25-2.25s1.667-2.417 2-3.75c.334-1.333.75-3.042 1.25-5.125s.917-3.792 1.25-5.125c.334-2.333.042-3.833-.875-4.5-.916-.667-2.708-.833-5.375-.5-3.833.333-8.708.875-14.625 1.625-5.916.75-14.458 1.875-25.625 3.375a215.207 215.207 0 0 1 2.125 11.125A161.31 161.31 0 0 1 734.083 757m-9.25-29.25c12.5-1.333 22.834-2.958 31-4.875C764 720.958 770.25 719 774.583 717c2.334-1.167 5.167-1.542 8.5-1.125 3.334.417 7.584 2.208 12.75 5.375 3.5 2.167 6.209 3.958 8.125 5.375 1.917 1.417 3.125 2.667 3.625 3.75.5 1.083.375 2-.375 2.75s-1.958 1.542-3.625 2.375c-3.666 1.833-6.458 3.667-8.375 5.5-1.916 1.833-3.958 4.667-6.125 8.5 3.5 1.833 5 4.083 4.5 6.75s-3.166 4.25-8 4.75c-3 .333-7.333.75-13 1.25-5.666.5-11.833 1-18.5 1.5 6.5 2.833 10.292 5.167 11.375 7 1.084 1.833.709 4.25-1.125 7.25-1.166 2-2 5.083-2.5 9.25 1.334-.333 2.75-.708 4.25-1.125 1.5-.417 3-.792 4.5-1.125 2.5-.667 4.75-1.208 6.75-1.625 2-.417 3.834-.667 5.5-.75 1.667-.083 3.292 0 4.875.25 1.584.25 3.292.708 5.125 1.375 4 1.333 5.917 3.25 5.75 5.75-.166 2.5-3.333 4.583-9.5 6.25-3.333.833-7.25 1.667-11.75 2.5s-9.916 1.667-16.25 2.5l-.25 21.75c12-1.167 21.042-2.125 27.125-2.875 6.084-.75 10.209-1.375 12.375-1.875 4.334-1 8-1.667 11-2 3-.333 5.667-.292 8 .125 2.334.417 4.667 1.333 7 2.75 2.334 1.417 5.084 3.375 8.25 5.875 2.5 2 4.209 3.958 5.125 5.875.917 1.917.917 3.5 0 4.75-.916 1.25-2.833 2.042-5.75 2.375-2.916.333-6.875 0-11.875-1-2.333-.5-5.666-.917-10-1.25-4.333-.333-9.416-.625-15.25-.875-5.833-.25-12.208-.375-19.125-.375-6.916 0-14.041.167-21.375.5-6.166.333-12.291.833-18.375 1.5-6.083.667-11.75 1.417-17 2.25s-9.916 1.708-14 2.625c-4.083.917-7.208 1.708-9.375 2.375-1.833.5-3.5.833-5 1-1.5.167-3.083.083-4.75-.25-1.666-.333-3.416-1.042-5.25-2.125-1.833-1.083-4-2.542-6.5-4.375-4.166-3.167-6-5.333-5.5-6.5.5-1.167 3.417-1.667 8.75-1.5 1.667 0 5.084-.125 10.25-.375 5.167-.25 10.917-.625 17.25-1.125 6.334-.5 12.875-1.083 19.625-1.75s12.625-1.333 17.625-2l.25-21.75c-5 .333-9 .583-12 .75-3 .167-5.458.167-7.375 0-1.916-.167-3.541-.458-4.875-.875a39.631 39.631 0 0 1-4.25-1.625c-4.5-2-6.583-3.625-6.25-4.875.334-1.25 2.75-2.042 7.25-2.375 4.334-.333 8.792-.708 13.375-1.125A178.055 178.055 0 0 0 744.333 791c0-6.167-.333-11.292-1-15.375-.666-4.083-1.583-7.625-2.75-10.625-1.166 0-2.291.042-3.375.125a52.203 52.203 0 0 0-3.375.375c-2 5.167-4.416 7.208-7.25 6.125-2.833-1.083-5.166-6.208-7-15.375-.666-3.5-1.791-7.292-3.375-11.375-1.583-4.083-3.541-7.542-5.875-10.375-3.333-4-4.083-6.75-2.25-8.25 1.834-1.5 7.417-1 16.75 1.5m5.75-47c0 3.833-1.291 6.542-3.875 8.125-2.583 1.583-5.291 1.458-8.125-.375-2.5-1.667-4.958-3.917-7.375-6.75-2.416-2.833-5.375-6.917-8.875-12.25-2.5-3.833-3.458-6.25-2.875-7.25.584-1 2.959-1.083 7.125-.25 9.334 1.667 15.667 3.917 19 6.75 3.334 2.833 5 6.833 5 12m15.75 16.5c0-10.833-.083-19.542-.25-26.125-.166-6.583-.541-11.833-1.125-15.75-.583-3.917-1.375-6.875-2.375-8.875s-2.25-3.75-3.75-5.25c-4.5-4.5-5.916-7.75-4.25-9.75 1.667-2 6.917-1.75 15.75.75 4.667 1.333 8.25 2.5 10.75 3.5s4.25 2.125 5.25 3.375 1.417 2.625 1.25 4.125c-.166 1.5-.75 3.417-1.75 5.75-.833 1.833-1.458 3.875-1.875 6.125-.416 2.25-.791 5.083-1.125 8.5-.333 3.417-.583 7.667-.75 12.75-.166 5.083-.333 11.375-.5 18.875 14.667-1.833 26.292-3.292 34.875-4.375 8.584-1.083 15.209-1.958 19.875-2.625 4.667-.667 7.917-1.167 9.75-1.5 1.834-.333 3.25-.667 4.25-1 2-.5 3.792-.833 5.375-1 1.584-.167 3.209 0 4.875.5 1.667.5 3.542 1.417 5.625 2.75 2.084 1.333 4.625 3.25 7.625 5.75 4.667 3.833 8.167 7.083 10.5 9.75 2.334 2.667 3.667 4.833 4 6.5.334 1.667-.25 2.917-1.75 3.75-1.5.833-3.583 1.417-6.25 1.75-6.166.833-11.791 1.958-16.875 3.375-5.083 1.417-10.791 3.625-17.125 6.625-3.833 1.833-6.333 2.25-7.5 1.25-1.166-1-.583-3.25 1.75-6.75 3-4.667 5.209-8.292 6.625-10.875 1.417-2.583 2.125-4.5 2.125-5.75s-.708-2-2.125-2.25c-1.416-.25-3.458-.375-6.125-.375-7.333.167-15.291.542-23.875 1.125a813.333 813.333 0 0 0-26.5 2.25c-9.083.917-18.166 1.917-27.25 3-9.083 1.083-17.708 2.292-25.875 3.625-6 1-10.958 1.667-14.875 2-3.916.333-7.958.333-12.125 0-1 7-2.458 13-4.375 18-1.916 5-4.541 9.667-7.875 14-3.5 4.667-6.666 6.708-9.5 6.125-2.833-.583-5.25-4.375-7.25-11.375-.5-2-.875-3.667-1.125-5-.25-1.333-.208-2.542.125-3.625.334-1.083.917-2.208 1.75-3.375.834-1.167 2-2.583 3.5-4.25 2.5-2.833 4.834-6.583 7-11.25 2.167-4.667 3.584-8.583 4.25-11.75.834-4.333 2.292-6.417 4.375-6.25 2.084.167 4.709 3.417 7.875 9.75 3.167-.167 6.125-.375 8.875-.625s6.125-.583 10.125-1c4-.417 9-1 15-1.75s13.667-1.792 23-3.125m59.75-48.5c4.334 2.833 7.625 5.167 9.875 7 2.25 1.833 3.667 3.333 4.25 4.5.584 1.167.417 2.083-.5 2.75-.916.667-2.375 1.333-4.375 2-2.666.833-5.125 1.833-7.375 3s-5.208 2.917-8.875 5.25c-2.666 1.833-5.75 3.708-9.25 5.625a72.323 72.323 0 0 1-11 4.875c-12.333 4.667-13.75 2.5-4.25-6.5 6.334-5.833 10.834-10.792 13.5-14.875 2.667-4.083 3.917-7.125 3.75-9.125-.333-4.833.584-7.708 2.75-8.625 2.167-.917 6 .458 11.5 4.125"/></g><g transform="translate(645 564)"><rect width="187" height="41" x=".5" y=".5" fill="#EE467A" stroke="#6B1832" rx="20.5"/><g fill="#FFF" fill-rule="nonzero"><path d="M37 7.37h1.26c1.82 1.68 3.7 3.02 5.64 4.02 1.38.8 3.72 1.72 7.02 2.76l-1.62 2.46c-.92-.26-1.82-.56-2.7-.9v10.41h-8.67c.7 1.02 1.44 1.88 2.22 2.58 2.64-.58 5.14-1.52 7.5-2.82l1.86 1.86c-2.06 1.08-4.38 1.94-6.96 2.58.04.04.09.07.15.09 1.42.82 4.2 1.38 8.34 1.68l-.93 2.82c-4.58-.64-7.86-1.62-9.84-2.94-1.9-1.26-3.64-3.21-5.22-5.85h-4.86v5.22c2.04-.34 4.15-.8 6.33-1.38v2.82c-3.42.9-7.21 1.61-11.37 2.13l-.36-2.94c.84-.06 1.7-.14 2.58-.24V15.98c-.96.42-1.97.83-3.03 1.23l-1.29-2.58c3.42-1.14 6.05-2.29 7.89-3.45 1.48-.92 3.07-2.19 4.77-3.81zm-7.05 7.38h6.15c-.34-.84-.71-1.62-1.11-2.34l2.7-.36c.36.8.71 1.7 1.05 2.7h5.61c-2.42-1.18-4.87-2.82-7.35-4.92-1.82 1.58-3.59 2.9-5.31 3.96-.52.32-1.1.64-1.74.96m.24 8.91h13.59v-2.25H30.19zm0-4.47h13.59v-1.98H30.19zM70.16 7.37l3.06.33c-.3.62-.63 1.21-.99 1.77h11.31v1.98c-1.6 1.66-3.24 3.07-4.92 4.23h8.19v9.6H67.37v4.11c0 .8.15 1.37.45 1.71.4.26 1.07.39 2.01.39h13.11c1.02 0 1.71-.15 2.07-.45.5-.38.79-1.75.87-4.11l2.7.81c0 1.12-.13 2.26-.39 3.42-.28.94-.7 1.65-1.26 2.13-.72.52-1.89.78-3.51.78H68.78c-1.5 0-2.57-.31-3.21-.93-.76-.68-1.14-1.93-1.14-3.75V16.52c-.5.28-1.01.55-1.53.81l-1.86-2.37c2.28-1.06 4.19-2.22 5.73-3.48 1.22-.94 2.35-2.31 3.39-4.11m-4.32 8.31h8.49c1.66-1.02 3.37-2.27 5.13-3.75H70.4c-.4.42-.79.8-1.17 1.14-.98.92-2.11 1.79-3.39 2.61m1.53 2.58v4.44h6.54v-4.44zm9.36 0v4.44h7.14v-4.44zM99.63 13.58l2.46.12c-.06 3.04-.41 5.93-1.05 8.67l-2.46-.6c.7-2.78 1.05-5.51 1.05-8.19m3.39-5.88h2.7v5.16l1.77-.57c.64 1.2 1.22 2.58 1.74 4.14.34-.58.62-1.13.84-1.65.62-1.42 1.12-3.31 1.5-5.67l2.7.36c-.32 1.6-.65 2.97-.99 4.11h3.21V7.7h2.82v5.88h6.33v2.58h-6.33v5.73h6.09v2.58h-6.09v6.9h6.93v2.58h-17.82v-2.58h8.07v-6.9h-6.21v-2.58h6.21v-5.73h-4.11c-.68 1.76-1.77 3.59-3.27 5.49l-1.86-2.34c.58-.7 1.07-1.38 1.47-2.04l-1.59.39c-.38-1.34-.85-2.64-1.41-3.9v20.91h-2.7V7.7ZM160.27 11l-.15 11.19c-.02 1.46-.3 2.56-.84 3.3-.48.72-1.95 1.08-4.41 1.08l-1.17-2.82h2.37c.58 0 .94-.14 1.08-.42.12-.26.19-.89.21-1.89v-6.9l-6 1.71v11.73h-2.79V17.06l-5.64 1.62v10.95c0 .8.16 1.37.48 1.71.38.26 1.04.39 1.98.39h14.07c.76 0 1.28-.19 1.56-.57.38-.48.6-2.2.66-5.16l2.58.81c0 1.32-.11 2.67-.33 4.05-.24 1.12-.61 1.96-1.11 2.52-.6.62-1.6.93-3 .93h-15.48c-1.44 0-2.48-.31-3.12-.93-.74-.68-1.11-1.93-1.11-3.75V19.49l-3.87 1.11v-2.7l3.87-1.11V9.83h2.82v6.15l5.64-1.62V7.37h2.79v6.18z"/></g></g><path fill="#EB477D" stroke="#BC3762" d="M454.224 179.113c1.008.527 2.087 1.093 3.254 1.692.883.453 1.906 1.013 3.079 1.655C471.654 188.53 496.28 202 542.75 202c16.053 0 30.991-1.66 43.737-3.074 10.794-1.199 20.021-2.22 27.034-1.926 4.757.2 8.239 1.317 10.798 2.806 3.69 2.148 5.482 5.08 6.392 7.25.784 1.87 1.965 5.849 3.55 11.193 1.847 6.231 4.247 14.327 7.213 23.09 4.673 13.809 11.81 24.039 17.117 31.653.92 1.32 1.785 2.56 2.573 3.728 3.906 5.784 13.144 16.849 27.71 33.197 10.232 13.84 16.161 22.451 17.825 25.864 2.118 4.344 7.15 16.432 3.275 27.88-2.525 7.456-8.23 15.136-17.14 23.022 5.85 3.69 10.19 7.016 13.027 9.97 6.03 6.282 16.01 20.443 18.087 24.625 4.9 9.864 7.77 20.969 8.3 26.424.07.731.141 1.432.209 2.107.942 9.368 1.331 13.634-4.84 20.281-3.716 4.001-12.842 9.585-21.914 13.617-8.827 3.923-14.496 8.386-19.434 12.27-11.47 9.023-17.598 15.537-21.595 19.787-4.301 4.57-16.274 20.54-28.5 40.25-10.558 17.023-21.485 22.257-31.206 25.307l-.646.2c-.86.263-1.709.51-2.547.75l-.66.186-.98.275c-13.125 3.662-32.04 2.912-48.749-.995-15.141-3.54-28.416-9.678-34.853-12.787-8.917-4.306-17.515-9.42-25.797-15.342-9.695 6.352-21.574 10.899-35.64 13.633-21.283 4.136-38.642 3.395-44.67 2.504-25.083-3.712-48.617-14.81-56.192-19.572-7.806-4.906-12.132-7.626-16.015-10.197l-.628-.417-.931-.623a257.49 257.49 0 0 1-.518-.35l-.52-.352c-3.904-2.653-8.06-5.63-15.663-11.078-16.862-12.08-23.894-21.653-27.419-30.208-4.018-8.092 2.546-22.199 6.53-30.619.255-.539.499-1.053.727-1.541 2.867-6.115 3.214-12.09 3.225-15.96v-.552c-.002-.447-.008-.86-.013-1.238A84.52 84.52 0 0 1 303 446c0-3.805-1.24-10.649-2.63-17.814l-.221-1.133-.111-.568-.279-1.42-.278-1.418c-1.535-7.825-2.981-15.357-2.981-19.147 0-8.051.273-28.674 7.567-41.25 4.805-8.285 13.268-14.872 25.413-19.734-19.03-27.546-28.06-46.735-27.229-57.554 1.265-16.443 6.78-21.285 25.273-30.658 3.971-2.013 9.052-4.323 14.63-6.857 8.939-4.064 19.155-8.707 28.105-13.635 9.604-5.288 17.536-11.444 21.912-14.84.68-.527 1.274-.989 1.776-1.37 11.06-8.405 20.435-18.942 28.126-31.611 5.955-7.63 11.157-11.74 15.594-12.484 5.818-.976 9.444.88 16.557 4.606Zm226.475 218.93c-.775 13.036-6.78 27.29-18.045 42.751-11.516 15.805-25.548 30.09-42.099 42.852-10.785 8.58-21.72 16.176-32.799 22.783-11.078 6.607-23.098 12.7-36.074 18.287-9.406 3.671-19.775 6.348-31.109 8.029-10.93 1.62-22.676 1.68-35.236.175 9.792 10.08 20.831 17.873 33.117 23.374 9.252 4.142 26.934 9.832 44.071 10.707 18.13.925 36.24-3.209 45.997-8.196 15.083-7.71 19.685-14.165 26.698-23.993 1.812-2.54 3.784-5.302 6.133-8.366 4.642-6.054 7.781-10.64 10.548-14.68 4.098-5.983 7.383-10.777 13.482-17.356 6.832-7.368 15.116-13.73 24.853-19.085 12.244-7.598 19.698-14.834 22.296-21.75 1.841-4.903 2.19-12.75-2.221-20.836-4.48-8.212-11.113-16.147-14.684-20.156-4.29-4.817-9.179-9.588-14.928-14.54ZM340.63 365.234c-7.434-1.83-9.878.058-11.568 1.406-2.032 1.604-9.202 8.158-10.813 29.896-.623 9.807.703 21.955 1.783 31.879.654 6 1.218 11.194 1.217 14.615-.309 5.04-2.127 11.85-4.124 18.602l-.332 1.119-.334 1.116-.772 2.557c-2.37 7.841-4.556 14.977-4.188 18.35-.495 9.656 7.404 18.307 28.296 33.571 21.108 15.423 38.394 25.94 54.602 30.926 16.194 4.983 28.433 6.83 48.582 5.978 13.246-.56 26.43-3.477 39.555-8.75l-6.102-10.796-25.037-4.215c-12.236-3.182-22.626-7.625-31.172-13.323-12.813-8.542-14.852-10.835-22.61-20.35-3.832-4.7-11.876-16.077-16.833-29.644-5.074-13.888-7.026-29.99-7.529-36.634-.756-10.002.397-20.815 1.3-29.255.28-2.62.535-5.01.7-7.073.455-5.671 1.182-11.138 2.18-16.4-1.232-.498-2.435-.982-3.61-1.453l-1.286-.514c-16.312-6.515-26.947-10.386-31.905-11.608Zm51.367 14.716c-3.176 7.736-4.747 21.589-4.747 41.549 0 20.407 4.892 39.404 14.678 56.99 6.96 11.606 16.319 20.882 28.076 27.83 17.664 10.437 38.32 13.685 43.048 14.183 3.156.332 7.971.497 14.448.497 11.397-.044 22.341-1.95 32.83-5.72 10.489-3.77 20.768-9.49 30.84-17.157 10.211-8.94 17.356-16.163 21.428-21.67 3.85-5.208 6.726-11.288 8.63-18.24-11.188 5.72-23.478 10.063-36.87 13.025-13.792 3.05-28.002 4.221-42.632 3.511-14.03-.499-26.589-3.097-37.671-7.789-16.634-7.042-25.89-15.08-35.44-26.642-9.546-11.554-13.065-19.842-17.084-30.644-2.65-7.124-4.156-14.33-4.517-21.618Zm273.942 27.603c-4.404 2.8-11.234 6.188-20.492 10.156-10.233 4.385-19.913 7.973-29.04 10.765l-19.361 6.862c1.113 9.08.673 17.26-1.314 24.545-2.194 8.046-4.192 11.788-6.42 15.205l-.3.453-.301.453c-.253.376-.509.753-.769 1.136-.414.61-.838 1.234-1.275 1.896-3.807 5.773-8.316 11.1-12.222 15.71l-.384.454c-1.907 2.253-3.652 4.325-5.018 6.16l-.217.292.509-.298c1.247-.736 2.907-1.73 4.895-2.941a625.845 625.845 0 0 0 10.294-6.417 597.715 597.715 0 0 0 18.723-12.403c9.645-6.669 19.55-14.016 27.422-20.957 15.085-13.3 26.84-30.325 35.27-51.07Zm-231.692 10.268c4.508 11.903 12.274 21.742 23.291 29.52 10.862 7.666 24.963 11.39 42.294 11.195-3.349-1.91-7.565-4.873-12.642-8.895-1.805-1.43-4.055-3.463-6.58-5.746-3.506-3.17-7.546-6.823-11.665-10-7.52-5.798-15.262-10.153-19.154-11.942-4.778-2.195-9.96-3.572-15.544-4.132Zm147.46-100.362c3.091 15.64 3.014 29.696-.223 42.166-2.484 9.568-8.931 23.261-18.613 33.96-9.7 10.717-22.642 18.427-30.47 20.89-6.395 2.013-16.584 4.98-29.752 2.264-5.533-1.141-15.045-4.887-28.533-11.25l-24.388-2.301c9.253 6.009 17.1 11.055 23.54 15.139 6.842 4.339 18.023 13.43 33.54 27.276 8.49 6.558 16.952 9.452 25.395 8.648 5.455-.52 17.94-3.316 28.317-8.696 9.285-4.813 16.726-12.07 19.131-14.414 6.116-5.957 11.584-13.5 16.407-22.626 9.113-18.06 12.517-35.878 10.196-53.45-2.26-17.114-10.439-29.652-24.548-37.606ZM462.32 200.986c-8.455-3.998-14.421-6.848-24.457-4.5-3.787.887-6.747 2.975-8.882 6.263l-.222.35c-2.04 3.311-3.287 7.764-3.762 13.35l-.029.331.03.452c.015 3.899.405 7.972 1.171 12.221.524 2.902 1.912 9.31 5.195 17.21.99 2.385 2.941 6.534 5.85 12.449 7.775-5.027 18.423-8.72 31.95-11.062 13.767-2.384 28.065-2.673 42.934-.86 11.6 2.34 21.885 5.557 30.858 9.647 8.978 4.093 17.68 9.534 26.13 16.344 17.168 15.69 28.69 27.956 34.58 36.792 11.098 16.655 18.742 38.835 19.58 46.472 2.263 20.615-3.524 39.97-6.54 46.758-1.88 4.228-5.22 9.63-10.026 16.2 14.9-5.824 25.025-9.875 30.376-12.15l.497-.213a321.892 321.892 0 0 0 15.725-7.238c14.598-7.133 24.722-13.595 30.362-19.4 8.383-8.63 11.12-12.319 11.86-21.94.25-3.25-1.224-13.614-8.92-25.44-2.149-3.301-10.982-14.971-23.959-29.945-13.022-15.025-19.536-22.547-28.296-36.562-5.857-9.37-10.21-19.5-13.065-30.411-1.942-9.138-5.41-15.053-10.49-17.66-6.007-3.08-14.255-2.83-23.348-2.585-2.583.07-5.234.141-7.923.141-4.327 0-11.56.689-19.974 1.489-15.422 1.466-34.792 3.303-47.576 2.008-15.644-1.584-28.012-7.845-37.96-12.888-2.65-1.343-5.126-2.599-7.447-3.654a303.511 303.511 0 0 1-4.222-1.97Zm79.589 92.256c-13.155-2.406-28.24 3.015-45.272 16.164 12.467-2.053 23.491-.834 33.074 3.641 7.158 3.343 15.84 12.035 18.276 22.843 2.732 12.128-1.327 26.49-3.287 30.576-4.014 8.368-9.536 14.1-15.317 17.78-7.422 4.722-15.275 6.06-20.955 5.249-9.586-1.37-16.787-6.028-21.351-13.227-5.589-8.815-6.386-18.011-5.826-23.568.29-2.882 1.355-5.238 2.993-6.876 1.644-1.644 3.869-2.574 6.505-2.574h12.715c-2.786 7.571-4.049 12.634-3.72 15.186.913 7.06 6.68 11.147 8.216 11.86 4.049 1.88 8.138 1.127 11.751-.68 6.457-3.228 11.447-9.821 12.077-11.31 2.275-5.377 2.495-10.407 1.622-14.775-1.198-5.988-4.445-10.733-7.256-13.42-7.391-7.062-17.825-9.328-31.27-6.877-10.973 3.841-18.138 8.987-21.44 15.492-2.572 5.07-6.038 23.022-1.967 36.378 3.791 12.436 14.797 20.371 21.738 23.695 7.42 3.553 24.24 6.703 38.852.985 13.807-5.403 25.453-19.23 31.228-31.744 7.947-17.218 9.44-34.603 4.473-52.154-1.885-6.31-4.978-11.36-9.286-15.135-4.312-3.778-9.839-6.277-16.573-7.51Zm-32.312-31.56c-14.529-2.089-29.388.714-38.4 2.41-18.06 3.397-27.209 11.194-29.608 13.285-5.683 4.952-16.744 17.449-18.594 32.932-1.238 10.363-.913 20.937.974 31.722 4.152 16.127 8.864 27.388 14.165 33.766 2.54 3.057 4.57 5.462 6.088 7.213a65.82 65.82 0 0 0 3.098 3.354c3.617 2.525 6.81 4.248 9.585 5.161 2.56.842 5.547 1.466 8.96 1.873-6.743-12.947-9.944-25.252-9.616-36.912.336-11.918 3.691-23.248 10.121-34.063 11.55-13.391 20.93-22.17 28.128-26.355 10.804-6.282 23.445-10.996 31.91-12.56 11.989-2.214 22.579-.152 26.243 1.016 5.377 1.713 10.726 4.065 16.046 7.057-5.48-6.279-10.297-10.666-14.455-13.152-17.644-10.549-37.1-15.663-44.645-16.748Zm-92.007-8.056c-16.123 16.7-26.252 31.786-30.363 45.27-4.136 13.565-1.626 29.69 7.466 48.375l10.228 18.708c3.225 4.327 7.364 8.794 12.415 13.402 4.464 4.072 9.594 8.03 15.39 11.874-8.508-11.393-14.775-21.875-18.802-31.443-3.089-7.34-7.198-19.189-7.984-31.239-.857-13.133 1.844-26.457 4.085-33.185 2.838-8.522 8.155-17.77 15.96-27.738Zm-8.406-31.153c-6.195 5.723-11.409 10.117-15.642 13.182-1.237.896-3.734 2.46-7.036 4.448l-1.05.63c-5.138 3.074-11.944 7.026-18.942 11.062l-1.466.845-.98.565-2.257 1.299-4.617 2.656c-9.525 5.478-18.152 10.439-21.933 12.766-5.348 3.29-9.869 6.343-12.654 10.278-2.194 3.1-3.292 6.75-2.86 11.5.994 10.93 5.478 20.403 15.664 35.263 9.084 13.252 14.946 17.715 23.373 24.134 1.047.798 2.134 1.625 3.27 2.503 6.58 5.081 15.177 9.639 25.789 13.678-13.236-22.571-19.587-41.59-19.094-57.048.756-23.689 10.086-34.773 15.882-41.073 2.95-3.207 9.738-11.486 22.472-27.967 3.066-3.968 3.723-10.222 2.081-18.72Z"/></g></svg>