<?xml version="1.0" encoding="UTF-8"?>
<svg width="1025px" height="1024px" viewBox="0 0 1025 1024" version="1.1" xmlns="http://www.w3.org/2000/svg" xmlns:xlink="http://www.w3.org/1999/xlink">
    <title>Sina</title>
    <g id="ICON-新版方图标" stroke="none" stroke-width="1" fill="none" fill-rule="evenodd">
        <g id="Sina" transform="translate(0.6332, 0)">
            <rect id="蒙版路径" fill="#FFFFFF" x="0" y="0" width="1024" height="1024"></rect>
            <path d="M683.690477,520.325572 C656.630102,514.913497 669.709284,500.481297 669.709284,500.481297 C669.709284,500.481297 695.867646,457.184698 664.297209,425.614261 C625.059665,386.376718 529.897348,430.124323 529.897348,430.124323 C493.365842,441.399479 503.738986,425.614261 508.249048,397.200867 C508.249048,364.277412 496.973892,308.803644 400.458556,341.727099 C305.747245,375.552568 223.213102,491.010166 223.213102,491.010166 C165.033297,568.132234 172.700403,627.214052 172.700403,627.214052 C186.681597,758.456869 326.493532,794.086362 434.284024,802.65548 C548.83961,812.126612 701.730727,763.417937 748.635376,663.745557 C796.442038,564.97519 710.750852,525.737647 683.690477,520.325572 M443.304149,766.123975 C329.650576,770.634037 238.547315,714.709263 238.547315,638.489208 C238.547315,562.269153 329.650576,502.285322 443.304149,496.873247 C556.05571,492.363185 648.060984,539.267834 648.060984,614.134871 C648.060984,689.90392 556.05571,760.260894 443.304149,766.123975" id="形状" fill="#D81E06" fill-rule="nonzero"></path>
            <path d="M420.753837,547.385947 C307.100264,560.465128 320.179445,667.353607 320.179445,667.353607 C320.179445,667.353607 319.277432,701.179076 351.298876,717.866307 C418.0478,753.4958 486.600749,731.8475 521.328229,686.746876 C555.153698,642.99927 534.40741,534.306766 420.753837,547.385947 M391.889437,696.669013 C370.241138,699.375051 353.553907,687.197882 353.553907,669.608639 C353.553907,651.568389 368.437113,633.077133 390.085412,631.273108 C414.43975,629.469083 430.224968,643.450276 430.224968,660.137507 C430.224968,677.726751 413.537737,694.413982 391.889437,696.669013 M458.638362,639.39122 C450.971255,644.803295 442.853143,643.901283 438.794087,637.587195 C435.186037,630.822102 436.088049,621.801977 443.304149,615.938896 C451.873268,609.173802 459.99138,611.428833 464.050436,617.742921 C469.011505,624.057008 465.854461,633.528139 458.638362,639.39122" id="形状" fill="#2C2C2C" fill-rule="nonzero"></path>
            <path d="M848.758762,460.792748 C849.660775,458.988723 849.660775,456.282685 849.660775,454.027654 C851.4648,443.654511 852.366812,433.281367 852.366812,422.908223 C852.366812,310.156662 760.361539,219.504407 647.609978,219.504407 C631.824759,219.504407 619.647591,231.681576 619.647591,247.466795 C619.647591,263.252013 631.824759,275.429182 647.609978,275.429182 C729.242108,275.429182 795.089019,341.276093 795.089019,422.908223 C795.089019,432.379354 794.187007,440.948473 792.382982,449.968598 L792.382982,449.968598 C792.382982,450.87061 792.382982,451.772623 792.382982,452.674635 C792.382982,468.459854 804.56015,480.637023 820.345369,480.637023 C834.777569,481.539035 846.052725,472.969916 848.758762,460.792748 L848.758762,460.792748 L848.758762,460.792748" id="路径" fill="#D81E06" fill-rule="nonzero"></path>
            <path d="M760.812545,433.732373 C760.812545,430.124323 761.714557,426.96728 761.714557,423.35923 C761.714557,361.571374 711.201858,310.607669 648.962996,310.607669 C635.883815,310.607669 625.510672,320.980812 625.510672,334.059993 C625.510672,347.139174 635.883815,357.512318 648.962996,357.512318 C685.494502,357.512318 714.809908,386.376718 714.809908,423.35923 C714.809908,426.065267 714.809908,428.771304 713.907895,431.928348 L714.809908,431.928348 C714.809908,432.830361 713.907895,433.732373 713.907895,434.634386 C713.907895,447.713567 724.281039,458.08671 737.36022,458.08671 C749.537389,458.08671 759.00852,448.615579 759.910532,437.340423 L759.910532,437.340423 C759.910532,436.438411 759.910532,436.438411 759.910532,435.536398 C760.812545,435.536398 760.812545,435.536398 760.812545,433.732373 C760.812545,434.634386 760.812545,434.634386 760.812545,433.732373" id="路径" fill="#D81E06" fill-rule="nonzero"></path>
        </g>
    </g>
</svg>