<svg xmlns="http://www.w3.org/2000/svg" width="1024" height="1024"><g fill="none" fill-rule="evenodd"><path fill="#FFF" d="M0 0h1024v1024H0z"/><g transform="translate(142 142)"><circle cx="370" cy="370" r="370" fill="#2496FD"/><ellipse cx="373.217" cy="373.217" fill="#1D1E1F" rx="308.87" ry="311.014"/><g fill="#FA9D2D"><path d="m269.788 137.716-57.35 39.403a4.5 4.5 0 0 0-1.203 6.193l11.867 17.921a4.5 4.5 0 0 0 6.645.964c14.562-12.215 23.856-19.705 27.883-22.472 4.003-2.75 13.571-8.232 28.705-16.447a4.5 4.5 0 0 0 1.606-6.438l-11.852-17.9a4.5 4.5 0 0 0-6.3-1.224M355.81 117.7l-58.044 10.425a4.5 4.5 0 0 0-3.639 5.196l3.681 21.264a4.5 4.5 0 0 0 5.714 3.55c15.382-4.57 25.124-7.224 29.224-7.96 4.062-.73 13.325-1.507 27.79-2.331a4.5 4.5 0 0 0 4.178-5.261l-3.674-21.222a4.5 4.5 0 0 0-5.23-3.662M191.138 195.925l-41.664 56.32a4.5 4.5 0 0 0 .878 6.245l16.906 12.976a4.5 4.5 0 0 0 6.598-1.248c9.875-16.393 16.274-26.567 19.198-30.52 2.908-3.93 10.212-12.298 21.91-25.1a4.5 4.5 0 0 0-.582-6.605l-16.886-12.961a4.5 4.5 0 0 0-6.358.893M135.382 279.333l-12.992 62.262a4.5 4.5 0 0 0 3.453 5.317l20.62 4.465a4.5 4.5 0 0 0 5.43-3.935c1.787-17.25 3.138-28.069 4.054-32.456.908-4.352 3.807-13.977 8.7-28.876a4.5 4.5 0 0 0-3.324-5.8l-20.583-4.456a4.5 4.5 0 0 0-5.358 3.479M121.978 366.664l6.532 63.31a4.5 4.5 0 0 0 4.956 4.012l20.964-2.244a4.5 4.5 0 0 0 3.93-5.391c-3.541-17-5.542-27.733-6.003-32.199-.456-4.42-.618-14.47-.486-30.151a4.5 4.5 0 0 0-4.979-4.513l-20.917 2.24a4.5 4.5 0 0 0-3.997 4.936M132.389 453.361l33.573 61.697a4.5 4.5 0 0 0 6.165 1.767l18.512-10.452a4.5 4.5 0 0 0 1.522-6.431c-10.743-15.937-17.295-26.076-19.658-30.418-2.337-4.294-6.852-14.452-13.547-30.473a4.5 4.5 0 0 0-6.363-2.185l-18.464 10.426a4.5 4.5 0 0 0-1.74 6.07"/></g><g fill="#FA9D2D"><path d="m465.922 137.716 57.35 39.403a4.5 4.5 0 0 1 1.203 6.193l-11.866 17.921a4.5 4.5 0 0 1-6.645.964c-14.563-12.215-23.857-19.705-27.884-22.472-4.003-2.75-13.571-8.232-28.705-16.447a4.5 4.5 0 0 1-1.606-6.438l11.853-17.9a4.5 4.5 0 0 1 6.3-1.224M379.9 117.7l58.044 10.425a4.5 4.5 0 0 1 3.639 5.196l-3.681 21.264a4.5 4.5 0 0 1-5.714 3.55c-15.382-4.57-25.124-7.224-29.224-7.96-4.062-.73-13.325-1.507-27.79-2.331a4.5 4.5 0 0 1-4.178-5.261l3.674-21.222a4.5 4.5 0 0 1 5.23-3.662M544.572 195.925l41.664 56.32a4.5 4.5 0 0 1-.878 6.245l-16.905 12.976a4.5 4.5 0 0 1-6.6-1.248c-9.874-16.393-16.273-26.567-19.197-30.52-2.908-3.93-10.212-12.298-21.91-25.1a4.5 4.5 0 0 1 .582-6.605l16.886-12.961a4.5 4.5 0 0 1 6.358.893M600.328 279.333l12.992 62.262a4.5 4.5 0 0 1-3.453 5.317l-20.62 4.465a4.5 4.5 0 0 1-5.43-3.935c-1.787-17.25-3.138-28.069-4.054-32.456-.908-4.352-3.807-13.977-8.7-28.876a4.5 4.5 0 0 1 3.324-5.8l20.583-4.456a4.5 4.5 0 0 1 5.358 3.479M613.732 366.664l-6.532 63.31a4.5 4.5 0 0 1-4.956 4.012l-20.964-2.244a4.5 4.5 0 0 1-3.929-5.391c3.54-17 5.541-27.733 6.002-32.199.456-4.42.618-14.47.486-30.151a4.5 4.5 0 0 1 4.979-4.513l20.917 2.24a4.5 4.5 0 0 1 3.997 4.936M603.321 453.361l-33.573 61.697a4.5 4.5 0 0 1-6.165 1.767l-18.511-10.452a4.5 4.5 0 0 1-1.523-6.431c10.743-15.937 17.296-26.076 19.658-30.418 2.337-4.294 6.852-14.452 13.547-30.473a4.5 4.5 0 0 1 6.363-2.185l18.464 10.426a4.5 4.5 0 0 1 1.74 6.07"/></g><g transform="translate(329.246 203.768)"><path fill="#E677DD" d="M37.48 0c26.912 141.207 39.374 217.43 37.388 228.667-7.525 29.71-29.539 31.942-36.6 31.942-8.022 0-33.372.24-38.118-31.942C-1.532 217.262 10.911 141.04 37.48 0"/><ellipse cx="37.479" cy="221.502" fill="#1D1E1F" rx="17.169" ry="17.305"/></g><g fill="#2094FB" transform="translate(257.391 528.725)"><ellipse cx="17.194" cy="17.159" rx="17.194" ry="17.159"/><ellipse cx="81.815" cy="17.159" rx="17.194" ry="17.159"/><ellipse cx="143.035" cy="17.159" rx="17.194" ry="17.159"/><ellipse cx="214.458" cy="17.159" rx="17.194" ry="17.159"/></g></g></g></svg>