<svg xmlns="http://www.w3.org/2000/svg" width="1024" height="1024"><g fill="none" fill-rule="nonzero"><path fill="#D7191A" d="M0 0v1024h1024V0z"/><path fill="#FFF" d="M730.522 255.59c-146.228 23.962-292.25 48.948-438.272 73.114-46.9 7.782-52.634 14.131-54.068 61.85-.819 23.142 9.421 34.406 32.768 31.13 28.468-4.097 56.73-8.807 89.498-14.132v324.403c0 20.48 1.843 41.165 29.9 37.888 29.697-3.481 58.574-38.707 58.778-69.222.205-57.549 0-115.098 0-172.851V391.987c43.418-7.168 83.764-13.926 129.23-21.299 0 50.38 3.276 96.051-.615 141.312-7.168 81.92 11.673 155.034 55.91 224.46 16.384 25.6 31.13 38.708 62.26 36.865 44.236-2.867 49.561-9.83 29.9-49.562-19.66-40.14-50.176-79.462-54.886-121.241-8.807-80.896-2.458-163.43-2.458-246.375 26.215-4.71 50.176-9.216 74.343-13.312 34.201-5.939 48.742-27.853 41.574-68.198-6.349-35.43-33.382-22.528-53.862-19.047"/></g></svg>