<?xml version="1.0" encoding="UTF-8"?>
<svg width="1025px" height="1024px" viewBox="0 0 1025 1024" version="1.1" xmlns="http://www.w3.org/2000/svg" xmlns:xlink="http://www.w3.org/1999/xlink">
    <title>Stirling.pdf</title>
    <g id="ICON-新版方图标" stroke="none" stroke-width="1" fill="none" fill-rule="evenodd">
        <g id="Stirling.pdf" transform="translate(0.3975, 0)">
            <rect id="蒙版路径" fill="#FFFFFF" x="0" y="0" width="1024" height="1024"></rect>
            <g id="编组" transform="translate(192, 124)" fill-rule="nonzero">
                <path d="M631.075556,171.922963 L631.105186,183.718519 L631.111111,195.558519 L631.111111,361.481481 L631.893333,370.912593 L632.364444,380.382223 L632.305185,389.81926 L631.653333,399.051852 L630.482963,407.940741 L628.965926,416.518519 L628.148148,420.740741 L627.41926,425.034075 L625.952593,433.49037 L625.211852,437.564444 L624.468148,441.552593 L622.977778,449.386667 L621.490371,456.980741 L620.002963,464.438519 L619.25926,468.148149 L618.518518,471.851852 L617.037037,479.259259 L616.296297,482.962963 L615.555555,486.666667 L614.074074,494.074074 L613.333334,497.777778 L612.592592,501.481482 L611.111111,508.888889 L610.370371,512.592593 L609.62963,516.296297 L608.148148,523.703704 L607.407408,527.407407 L606.666667,531.111112 L605.185185,538.518519 L604.444445,542.222222 L603.703704,545.925926 L602.222222,553.333334 L601.481482,557.037037 L600.740741,560.740741 L599.259259,568.148149 L598.518519,571.851852 L597.777778,575.555556 L596.296296,582.962963 L595.555556,586.666667 L594.814815,590.370371 L593.333333,597.777778 L592.592593,601.481482 L591.105185,608.906667 L589.588149,616.367407 L588.011852,623.884444 L586.346667,631.475556 L584.598519,639.125926 L583.703704,642.962963 L582.962963,646.666667 L582.207408,650.370371 L580.654815,657.748148 L578.930371,665.037038 L577.878519,668.560001 L575.428149,675.365926 L572.145186,681.564445 L567.798518,686.927408 L562.325926,691.342223 L555.866667,694.85926 L548.696296,697.680001 L541.105185,700.053334 L533.333333,702.222222 L529.214815,703.38963 L521.001482,705.688889 L516.933333,706.797037 L508.838519,708.962963 L500.823704,711.042963 L496.844445,712.053333 L488.906667,714.062223 L480.992593,716.047407 L473.087407,718.023704 L469.134815,719.013334 L461.235555,720.986667 L453.333334,722.962963 L449.383703,723.94963 L441.481482,725.925926 L437.362963,727.093333 L429.14963,729.392593 L425.081482,730.500741 L416.986667,732.666667 L408.971852,734.746667 L404.992592,735.757037 L397.054815,737.765926 L389.140741,739.751111 L381.235556,741.727408 L377.282963,742.717037 L369.383704,744.690371 L361.481481,746.666667 L357.531852,747.653334 L349.629629,749.62963 L345.68,750.616297 L341.727408,751.605926 L333.828148,753.57926 L325.922963,755.552593 L321.967408,756.530371 L314.05037,758.456297 L306.127407,760.263704 L298.245926,761.834075 L290.494815,763.042963 L282.945185,763.872593 L275.555556,764.444445 L268.139259,765.884445 L260.648889,766.897778 L252.90963,767.244445 L244.708148,766.930371 L235.967407,766.124445 L226.847407,765.034074 L222.222222,764.444445 L217.451852,763.866667 L208.020741,762.696297 L198.918519,761.514075 L190.266667,760.328889 L181.911111,759.128889 L177.777778,758.518519 L173.007407,757.940741 L163.576296,756.770371 L154.474074,755.588149 L145.822222,754.402963 L137.466666,753.202963 L133.333333,752.592593 L128.562963,752.014815 L119.131852,750.844445 L110.029629,749.662223 L101.377777,748.477037 L97.2000002,747.878519 L92.9392593,747.253334 L88.6044443,746.595556 L79.8933332,745.191112 L75.5940739,744.37926 L67.2266665,742.58963 L63.3096292,741.508148 L55.7629626,739.108149 L48.7792593,736.210371 L42.3022221,732.752593 L36.2992593,728.708149 L33.5437038,726.397037 L28.3111113,721.481482 L23.677037,716.008889 L19.677037,709.976297 L16.2992588,703.33926 L13.4607405,696.041482 L11.0933332,688.011853 L9.18518479,679.191112 L7.76296297,669.576297 L6.82962966,659.211852 L6.30222199,648.225185 L6.05629603,636.800001 L5.96148099,625.117038 L5.92592601,613.318519 L5.92592601,601.478519 L5.92592601,263.703704 L5.92592601,257.786667 L5.94666616,245.967407 L5.97629581,240.100741 L6.08296302,228.462222 L6.33185165,217.111111 L6.82074092,206.228148 L7.22666655,201.108148 L7.73036989,196.162963 L8.32888903,191.392593 L9.7214812,182.165926 L11.4962962,173.531852 L12.5837038,169.463704 L13.7718519,165.505186 L16.3762964,157.801482 L17.908148,154.165926 L21.2207408,147.125926 L25.0370369,140.557037 L29.3570371,134.494815 L34.1481483,128.962963 L36.7496294,126.465185 L42.1155554,121.736296 L44.9599998,119.632593 L50.7970369,115.668148 L56.9451853,112.177778 L63.4459261,109.125926 L70.3111107,106.456296 L77.4962962,104.121481 L84.9037034,102.071111 L92.408889,100.248889 L99.9377774,98.5837036 L103.703704,97.7777777 L111.377778,95.9940739 L119.010371,94.2785182 L126.592592,92.6488888 L130.37037,91.8518516 L138.044445,90.0681479 L145.677037,88.352593 L153.259259,86.7229628 L157.037037,85.9259256 L164.711111,84.1422219 L172.343704,82.426667 L179.925926,80.7970368 L183.703703,80.0000004 L191.377778,78.2162966 L199.01037,76.500741 L206.592593,74.8711108 L210.37037,74.0740744 L218.044444,72.2903706 L225.677037,70.574815 L233.259259,68.9451856 L237.037037,68.1481484 L244.711111,66.3644446 L252.343704,64.6488889 L259.925926,63.0192596 L263.703704,62.2222223 L271.377778,60.4385186 L279.010371,58.7229629 L286.592592,57.0933335 L290.370371,56.2962963 L298.044445,54.5125926 L305.677037,52.7970369 L313.259259,51.1674075 L317.037037,50.3703703 L324.711111,48.5866666 L332.343704,46.8711109 L339.925926,45.2414815 L343.703704,44.4444443 L351.377778,42.6607406 L359.01037,40.9451849 L366.592593,39.3155555 L370.37037,38.5185183 L378.044444,36.7348146 L385.68,35.0192596 L393.25926,33.3896295 L397.037037,32.5925923 L404.711111,30.8088886 L412.346667,29.0933336 L419.925926,27.4637035 L423.703704,26.666667 L427.534815,25.786667 L431.357037,24.9274078 L435.17037,24.0977775 L438.974815,23.3155559 L446.571852,21.860741 L450.361481,21.2800001 L457.931852,20.3348146 L465.469629,19.9140742 L469.188148,20.0444442 L476.512593,20.7051853 L483.534815,22.2251848 L490.100741,24.6577775 L496.077037,28.0355556 L501.357037,32.3614812 L505.896296,37.6296295 L509.677037,43.851852 L512.711111,51.0488889 L515.031111,59.2177775 L516.725926,68.2755557 L517.976297,77.9881482 L518.518518,82.9629634 L527.407407,82.9629634 L535.06963,81.1970371 L538.882963,80.3466667 L542.684445,79.5259259 L546.477037,78.7437036 L550.263704,78.002963 L557.848889,76.6518519 L561.650371,76.1362964 L569.277038,75.3570374 L576.921482,75.1792595 L584.506667,75.8014815 L591.905185,77.3777776 L598.939259,79.9851856 L605.434074,83.6237037 L611.241481,88.2518519 L616.263704,93.7777776 L620.471111,100.094815 L623.875556,107.137778 L626.50963,114.921482 L628.426667,123.543704 L629.703704,133.087408 L630.465185,143.496296 L630.856296,154.577778 L631.028148,166.091852 L631.075556,171.922963 Z M0,0 L0,776.296297 L640,776.296297 L640,0 L0,0 Z" id="形状" fill="#FEFEFE"></path>
                <path d="M41.4814813,737.777778 L47.4074073,740.740741 L53.3333333,743.703704 L61.2355551,745.68 L65.1851854,746.666667 L69.9555557,747.244445 L79.3866664,748.414815 L88.4888891,749.597037 L97.1407409,750.782223 L105.496296,751.982223 L109.62963,752.592593 L114.4,753.170371 L123.831111,754.340741 L132.933333,755.522963 L141.585185,756.708149 L149.94074,757.908149 L154.074074,758.518519 L158.844444,759.096297 L168.275556,760.266667 L177.377778,761.448889 L186.02963,762.634075 L194.385185,763.834074 L198.518518,764.444445 L208.056296,765.6 L217.517037,766.797037 L222.222222,767.407408 L226.992593,767.985186 L236.423703,769.155556 L245.525926,770.337778 L254.177778,771.522964 L262.533333,772.722963 L266.666667,773.333334 L269.62963,773.333334 L272.592593,770.370371 L275.555556,767.407408 L278.518519,764.444445 L281.481482,761.481482 L284.444445,758.518519 L287.407408,755.555556 L290.370371,752.592593 L293.333333,749.62963 L296.296296,746.666667 L299.259259,743.703704 L302.222222,740.740741 L305.185185,737.777778 L308.148148,734.814815 L311.111111,731.851852 L314.074074,728.888889 L317.037037,725.925926 L320,722.962963 L322.962963,720 L325.925926,717.037037 L328.888889,714.074074 L331.851852,711.111111 L334.814815,708.148148 L337.777778,705.185185 L340.740741,702.222222 L343.703704,699.259259 L346.666667,696.296296 L349.629629,693.333333 L352.592592,690.370371 L355.555555,687.407408 L358.518518,684.444445 L361.481481,681.481482 L364.444444,678.518519 L367.407407,675.555556 L370.37037,672.592593 L373.333333,669.62963 L376.296296,666.666667 L379.259259,663.703704 L382.222222,660.740741 L385.185185,657.777778 L388.148148,654.814815 L391.111111,651.851852 L394.074074,648.888889 L397.037037,645.925926 L400,642.962963 L402.962963,640 L405.925926,637.037038 L408.888889,634.074075 L411.851852,631.111112 L414.814815,628.148149 L417.777778,625.185186 L420.740741,622.222223 L423.703704,619.25926 L426.666667,616.296297 L429.62963,613.333334 L432.592593,610.370371 L435.555556,607.407408 L438.518519,604.444445 L441.481482,601.481482 L444.444445,598.518519 L447.407408,595.555556 L450.370371,592.592593 L453.333334,589.62963 L456.296297,586.666667 L459.259259,583.703704 L462.222222,580.740741 L465.185185,577.777778 L468.148148,574.814815 L471.111111,571.851852 L474.074074,568.888889 L477.037037,565.925926 L480,562.962963 L482.962963,560 L485.925926,557.037037 L488.888889,554.074074 L491.851852,551.111111 L494.814815,548.148148 L497.777778,545.185185 L500.740741,542.222222 L503.703704,539.259259 L506.666667,536.296296 L509.62963,533.333333 L512.592593,530.37037 L515.555555,527.407407 L518.518518,524.444445 L518.518518,53.3333333 L515.555555,44.4444443 L512.592593,38.5185183 L509.62963,32.5925923 L506.666667,29.6296293 L503.703704,26.666667 L500.740741,23.703704 L494.814815,20.740741 L488.888889,17.777778 L480.986667,15.8014816 L477.037037,14.814815 L465.185185,14.814815 L461.481481,15.5555556 L454.074074,17.0370367 L450.370371,17.777778 L446.666666,18.5185186 L439.259259,19.9999997 L435.555556,20.740741 L427.881482,22.5244448 L420.245926,24.2399997 L412.666667,25.8696298 L408.888889,26.666667 L401.214815,28.45037 L393.579259,30.1659257 L386,31.7955559 L382.222222,32.5925923 L374.548148,34.376296 L366.915555,36.0918517 L359.333333,37.7214819 L355.555555,38.5185183 L347.881481,40.302222 L340.248889,42.0177777 L332.666667,43.6474071 L328.888889,44.4444443 L321.214815,46.2281481 L313.582222,47.9437037 L306,49.5733331 L302.222222,50.3703703 L294.548148,52.1540741 L286.915556,53.8696297 L279.333333,55.4992591 L275.555556,56.2962963 L267.881482,58.0800001 L260.248889,59.7955558 L252.666666,61.4251851 L248.888889,62.2222223 L241.214815,64.0059261 L233.582222,65.7214818 L226,67.3511112 L222.222222,68.1481484 L214.548148,69.9318521 L206.915555,71.6474078 L199.333333,73.2770372 L195.555555,74.0740744 L187.881481,75.8577781 L180.248889,77.573333 L172.666667,79.2029632 L168.888889,80.0000004 L161.214815,81.7837041 L153.582222,83.499259 L146,85.1288892 L142.222222,85.9259256 L134.548148,87.7096294 L126.915556,89.425185 L119.333333,91.0548152 L115.555556,91.8518516 L107.881482,93.6355554 L100.248889,95.3511111 L92.6666663,96.9807404 L88.888889,97.7777777 L84.9392591,98.7644442 L77.0370366,100.740741 L73.0874071,101.727407 L65.1851854,103.703704 L59.2592593,106.666667 L53.3333333,109.62963 L47.4074073,112.592593 L41.4814813,116.542222 L38.5185183,118.518519 L35.5555553,121.481482 L32.5925923,124.444445 L29.6296293,127.407408 L26.6666663,130.370371 L23.7037033,133.333334 L21.7274076,136.296297 L17.7777773,142.222222 L14.814815,148.148148 L11.851852,157.037037 L9.87555554,164.939259 L8.88888902,168.888889 L8.88888902,693.333333 L9.87555554,697.282964 L11.851852,705.185185 L14.814815,711.111111 L17.7777773,717.037037 L20.7407403,720 L23.7037033,722.962963 L26.6666663,725.925926 L29.6296293,728.888889 L32.5925923,731.851852 L35.5555553,734.814815 L41.4814813,737.777778 Z M141.851852,256.734815 L143.659259,253.285926 L147.422222,246.601482 L151.502222,240.281481 L155.896296,234.237037 L158.219259,231.342223 L160.58963,228.518519 L165.425185,223.022222 L170.45037,217.842963 L175.694815,212.983704 L181.176296,208.435556 L184.032593,206.302222 L189.863704,202.186667 L192.894815,200.272592 L199.087407,196.583704 L205.549629,193.173333 L212.266667,190.032593 L219.194074,187.164444 L226.281482,184.595556 L233.531852,182.340741 L241.028148,180.391111 L248.90963,178.714074 L257.309629,177.268149 L266.219259,176.011852 L275.44,174.945185 L280.097778,174.545185 L284.74963,174.248889 L289.383703,174.065185 L298.601481,173.946667 L307.677037,174.290371 L316.521481,175.04 L325.072593,176.094815 L333.339259,177.410371 L341.351111,179.022223 L349.108148,181.048889 L356.485926,183.691852 L359.834074,185.457778 L366.02074,189.6 L371.016297,195.111111 L374.645926,202.18963 L376.971852,210.820741 L378.245926,220.731852 L378.77926,231.457778 L378.808889,242.468148 L378.453333,253.303704 L377.762963,263.691852 L376.817778,273.638519 L376.296296,278.518519 L375.837037,283.330371 L374.651852,292.672593 L372.660741,301.117037 L369.431111,307.931852 L366.797037,310.139259 L360.740741,312.942223 L354.177778,312.468148 L348.4,309.303704 L345.828148,307.007408 L343.17037,304.494815 L340.417778,301.81926 L337.588148,299.028149 L334.705185,296.165926 L328.874074,290.355556 L325.925926,287.407408 L320,282.962963 L314.074074,278.518519 L311.111111,276.542222 L305.185185,272.592593 L299.259259,269.62963 L290.370371,266.666667 L248.888889,266.666667 L242.962963,269.62963 L237.037037,272.592593 L234.074074,275.555556 L231.111111,278.518519 L228.148148,281.481482 L225.185185,284.444445 L222.222222,290.370371 L219.259259,299.25926 L219.259259,317.037037 L222.222222,325.925926 L225.185185,331.851852 L228.148148,334.814815 L231.111111,337.777778 L234.074074,340.740741 L240,343.703704 L245.925926,346.666667 L254.814815,349.62963 L262.755556,351.638519 L266.734815,352.666667 L270.725926,353.715556 L278.72,355.878519 L286.711111,358.177778 L294.64,360.648889 L298.536297,361.967408 L302.376296,363.324444 L306.157037,364.714075 L309.872592,366.13037 L313.517037,367.576296 L317.087408,369.051852 L320.583704,370.562963 L324.008889,372.106667 L330.714074,375.294815 L333.940741,376.995556 L340.284444,380.542222 L343.365926,382.477037 L346.417778,384.500741 L352.456296,388.743704 L355.41037,391.057778 L361.247408,395.872593 L366.877037,401.034074 L372.210371,406.497778 L374.66963,409.365927 L379.351111,415.244445 L381.448889,418.340741 L385.404444,424.722963 L388.915556,431.511111 L392.026666,438.740741 L394.77037,446.379259 L397.122963,454.364445 L399.004444,462.613334 L400.302222,471.051852 L400.918519,479.597037 L400.868148,483.893334 L400.423704,492.494815 L399.362963,501.111112 L397.780741,509.697778 L396.773333,513.928889 L395.671111,518.103704 L394.474074,522.207408 L393.188148,526.237038 L390.429629,534.127408 L387.300741,541.677037 L385.54963,545.274074 L383.700741,548.788149 L379.813333,555.644444 L377.68,558.903704 L375.454815,562.088889 L370.82963,568.293334 L368.346667,571.226667 L363.232593,576.921482 L357.845926,582.225185 L355.034074,584.666667 L349.30963,589.324444 L343.368889,593.540741 L337.17037,597.333333 L330.642963,600.731852 L323.712592,603.754075 L316.337777,606.411852 L308.515555,608.711112 L300.281481,610.654815 L296.005926,611.442964 L291.68,612.124445 L282.939259,613.247407 L278.50963,613.546667 L269.62963,613.854815 L260.743703,613.591111 L256.340741,613.205926 L247.623704,612.254815 L243.374815,611.620741 L235.01037,610.254816 L230.951111,609.478519 L222.906666,607.837038 L218.927407,606.930371 L210.936296,605.013333 L202.847407,602.891852 L194.598518,600.542222 L186.207407,597.961482 L177.762963,595.128889 L169.454815,591.991112 L161.552593,588.423704 L154.394074,584.180741 L148.322963,578.942223 L143.588148,572.391111 L140.254815,564.394075 L138.180741,555.140741 L137.063704,545.09926 L136.545185,534.776297 L136.296296,524.444445 L135.893333,519.703704 L135.285926,510.257778 L135.306667,505.644445 L135.982222,496.805926 L137.256296,493.007408 L140.989629,486.725926 L146.471111,483.881481 L152.257778,485.134815 L157.511111,489.300741 L160,491.851852 L162.962963,494.814815 L165.925926,497.777778 L168.888889,500.740741 L171.851852,503.703704 L174.814815,506.666667 L177.777778,509.62963 L180.740741,512.592593 L183.703703,515.555556 L186.666666,518.518519 L189.629629,520.494815 L195.555555,524.444445 L198.518518,526.420741 L204.444444,530.37037 L210.37037,533.333333 L216.296296,536.296296 L222.222222,539.259259 L231.111111,542.222222 L240,545.185185 L263.703704,545.185185 L267.653333,544.198519 L275.555556,542.222222 L281.481482,539.259259 L287.407408,536.296296 L290.370371,533.333333 L293.333333,530.37037 L295.309629,527.407407 L299.259259,521.481482 L302.222222,512.592593 L302.222222,488.888889 L299.259259,482.962963 L296.296296,480 L293.333333,477.037037 L290.370371,474.074074 L287.407408,471.111112 L284.444445,468.148149 L281.481482,466.171852 L275.555556,462.222223 L269.62963,459.25926 L265.925926,457.777778 L258.518518,454.814815 L254.814815,453.333334 L250.477037,451.851852 L241.866667,448.888889 L233.454815,445.925926 L229.395556,444.444445 L225.425185,442.962964 L221.537778,441.475556 L217.745185,439.985186 L210.337778,436.983704 L206.811852,435.451852 L199.928889,432.331852 L193.354074,429.057778 L190.195555,427.300741 L187.084444,425.463704 L180.936296,421.611852 L174.936296,417.380741 L172.002963,415.063704 L166.225185,410.234074 L160.663704,405.037038 L155.413333,399.531852 L152.983704,396.645926 L148.349629,390.74963 L144.177778,384.571852 L142.328888,381.318519 L140.592593,377.976296 L137.348148,371.12 L134.542222,363.94963 L132.154074,356.512593 L131.155556,352.678519 L129.348148,344.891852 L127.958518,336.826666 L127.063703,328.45926 L126.767408,319.819259 L127.125926,311.004445 L128.115555,302.115556 L129.653333,293.256296 L131.668148,284.536296 L134.139259,276.091852 L137.001482,268.032593 L140.186667,260.420741 L141.851852,256.734815 Z M631.111111,234.074074 L631.111111,177.777778 L628.148148,177.777778 L628.148148,234.074074 L631.111111,234.074074 Z" id="形状" fill="#C02223"></path>
                <path d="M8.88888902,684.444445 L8.88888902,180.740741 L5.92592601,180.740741 L5.92592601,684.444445 L8.88888902,684.444445 Z M154.074074,405.434074 L160,410.426667 L165.925926,415.537778 L171.851852,420.740741 L174.814815,422.717037 L180.740741,426.666667 L186.666666,429.62963 L192.592592,432.592593 L198.518518,435.555556 L204.444445,438.518519 L208.148148,440.000001 L215.555556,442.962964 L219.259259,444.444445 L223.6,445.925926 L227.905185,447.413334 L236.417778,450.394074 L240.551111,451.902222 L244.607408,453.431111 L252.545185,456.548149 L260.124445,459.822222 L263.715556,461.57926 L267.197037,463.422222 L273.928889,467.291852 L277.034074,469.437037 L279.976296,471.70963 L285.490371,476.524445 L287.828148,479.220741 L291.973333,484.90963 L293.463704,488.044445 L295.774815,494.562963 L296.708148,501.472593 L296.471111,504.998519 L295.327408,511.964445 L294.127407,515.28 L291.173333,521.597037 L289.179259,524.394075 L284.722963,529.54963 L282.056297,531.677037 L276.331852,535.46963 L273.105186,536.900741 L266.349629,539.28 L259.072593,540.690371 L255.250371,540.897778 L247.531851,540.823704 L243.638519,540.325926 L239.774815,539.626667 L235.961481,538.755556 L232.216297,537.724445 L228.548148,536.554074 L224.962963,535.262223 L221.460741,533.860741 L214.622222,530.853334 L208.091852,527.475556 L201.807407,523.765926 L195.700741,519.727408 L192.708148,517.534815 L189.745185,515.256297 L183.878519,510.524445 L178.183704,505.457778 L172.72,500.097778 L167.558518,494.50963 L162.749629,488.761482 L158.302222,482.915556 L154.213334,477.022222 L150.444445,471.111112 L146.909629,465.185186 L145.185185,462.222223 L133.333333,462.222223 L133.333333,524.444445 L133.854815,529.315556 L134.802963,539.211852 L135.514074,549.434074 L135.958518,559.890371 L136.180741,570.361482 L136.296296,580.740741 L139.259259,582.506667 L145.185185,586.056297 L151.111111,589.62963 L160,592.592593 L168.888889,595.555556 L177.777778,598.518519 L186.666666,601.481482 L195.555555,604.444445 L203.457778,606.420741 L207.407407,607.407408 L215.30963,609.383704 L219.259259,610.370371 L222.962963,611.111111 L230.37037,612.592593 L234.074074,613.333334 L238.521481,614.074074 L247.41037,615.555556 L251.851852,616.296297 L287.407408,616.296297 L291.848889,615.555556 L300.737777,614.074074 L305.185185,613.333334 L309.134815,612.346667 L317.037037,610.370371 L325.925926,607.407408 L331.851852,604.444445 L337.777778,601.481482 L343.703704,598.518519 L349.629629,594.568889 L352.592592,592.592593 L355.555555,589.62963 L358.518518,586.666667 L361.481481,583.703704 L364.444445,580.740741 L367.407407,577.777778 L370.37037,574.814815 L373.333333,571.851852 L376.296296,568.888889 L380.74074,562.962963 L385.185185,557.037037 L388.148148,551.111111 L389.629629,547.407408 L392.592592,540.000001 L394.074074,536.296296 L397.037037,527.407407 L400,518.518519 L400.740741,514.071112 L402.222222,505.182223 L402.962963,500.740741 L402.962963,462.222223 L401.976296,458.272593 L400,450.370371 L397.037037,441.481482 L394.074074,432.592593 L391.111111,426.666667 L388.148148,420.740741 L385.185185,414.814815 L382.222222,411.851852 L379.259259,408.888889 L376.296296,405.925926 L373.333333,402.962963 L370.37037,400 L367.407407,397.037037 L364.444445,394.074074 L361.481481,391.111111 L358.518518,388.148148 L355.555555,385.185185 L352.592592,383.208889 L346.666667,379.259259 L340.740741,376.296296 L334.814815,373.333333 L328.888889,370.37037 L322.962963,367.407407 L319.259259,365.925926 L311.851852,362.962963 L308.148148,361.481481 L299.259259,358.518519 L290.370371,355.555556 L286.417778,354.539259 L278.53037,352.477037 L274.616296,351.401482 L270.731852,350.284444 L263.057777,347.937778 L259.351111,346.619259 L255.742222,345.197037 L248.767407,342.097778 L245.561482,340.260741 L242.53926,338.245926 L239.724445,336.044445 L234.533333,331.271111 L232.429629,328.515556 L228.785185,322.684445 L227.564444,319.484444 L225.78074,312.903704 L225.336296,306.071111 L225.795555,302.654815 L227.351111,295.952593 L228.743703,292.794074 L230.414815,289.783704 L234.290371,284.112592 L239.194074,279.214815 L245.084445,275.220741 L251.922963,272.219259 L259.617778,270.260741 L267.937778,269.371852 L272.234074,269.460741 L280.758519,270.142223 L288.995555,271.795555 L296.714074,274.308148 L303.854815,277.531852 L310.474074,281.321481 L316.678518,285.543704 L322.545185,290.10963 L328.085926,294.980741 L333.318518,300.115555 L338.29926,305.448889 L340.740741,308.148148 L343.703704,311.111111 L346.666667,314.074074 L349.629629,317.037037 L352.592592,320 L355.555555,322.962963 L358.518518,325.925926 L361.481481,328.888889 L376.296296,328.888889 L376.385185,323.76 L376.631111,313.484444 L377.075555,303.247408 L377.786667,293.185185 L378.734815,283.365926 L379.259259,278.518519 L379.259259,189.62963 L376.296296,186.666667 L370.37037,183.703704 L361.481481,180.740741 L352.592592,177.777778 L348.888889,177.037037 L341.481482,175.555556 L337.777778,174.814815 L329.46074,173.659259 L321.173333,172.462223 L317.037037,171.851852 L275.555556,171.851852 L270.85037,172.462223 L261.38963,173.656297 L251.851852,174.814815 L248.148148,175.555556 L240.740741,177.037037 L237.037037,177.777778 L233.087407,178.764445 L225.185185,180.740741 L217.780741,183.703704 L210.37037,186.666667 L204.444445,189.62963 L198.518518,192.592593 L192.592592,195.555555 L186.666666,199.505186 L183.703703,201.481481 L180.740741,203.703704 L174.814815,208.148148 L171.851852,210.37037 L168.888889,213.333333 L165.925926,216.296296 L162.962963,219.259259 L158.088889,225.185185 L153.149629,231.111111 L148.148148,237.037037 L146.382222,240 L142.832593,245.925926 L139.259259,251.851852 L136.296296,257.777778 L133.333333,266.666667 L130.37037,275.555556 L127.407407,284.444445 L126.666666,288.891852 L125.185185,297.780741 L124.444445,302.222223 L124.444445,337.777778 L125.185185,341.481482 L126.666666,348.888889 L127.407407,352.592593 L128.394074,356.542223 L130.37037,364.444444 L133.333333,373.333333 L136.296296,379.259259 L139.259259,385.185185 L143.208888,391.111111 L145.185185,394.074074 L149.134815,400 L151.111111,402.962963 L154.074074,405.434074 Z M285.925926,757.037038 L281.481482,764.444445 L281.481482,767.407408 L293.333333,767.407408 L297.451852,766.240001 L305.665186,763.940741 L309.733334,762.832593 L317.828148,760.666667 L325.842963,758.586667 L329.822222,757.573334 L337.76,755.567408 L345.674074,753.582223 L353.57926,751.605926 L357.531852,750.616297 L365.431111,748.642963 L373.333333,746.666667 L377.282963,745.68 L385.185185,743.703704 L389.134815,742.717037 L397.037037,740.740741 L400.986667,739.754074 L408.888889,737.777778 L412.838519,736.791112 L420.740741,734.814815 L424.69037,733.828149 L432.592593,731.851852 L436.711111,730.684445 L444.924444,728.385185 L448.992593,727.277037 L457.087408,725.111112 L465.102222,723.031111 L469.081481,722.020741 L477.01926,720.011853 L484.933333,718.026667 L492.838519,716.050371 L496.791112,715.060741 L504.690371,713.087408 L512.592593,711.111111 L516.542223,710.124445 L524.444444,708.148148 L528.562963,706.980741 L536.776296,704.681482 L544.912592,702.465186 L552.965926,700.34963 L560.945185,698.305186 L568.888889,696.296296 L574.814815,693.333333 L577.777778,687.407408 L578.518519,683.703704 L580,676.296297 L580.740741,672.592593 L582.228149,665.167408 L583.745185,657.706667 L585.321482,650.18963 L586.986667,642.598519 L588.734815,634.948149 L589.62963,631.111112 L590.37037,627.407407 L591.851852,620 L592.592593,616.296297 L593.333333,612.592593 L594.814815,605.185185 L595.555556,601.481482 L596.296296,597.777778 L597.777778,590.370371 L598.518519,586.666667 L599.259259,582.962963 L600.740741,575.555556 L601.481482,571.851852 L602.222222,568.148149 L603.703704,560.740741 L604.444445,557.037037 L605.185185,553.333334 L606.666667,545.925926 L607.407408,542.222222 L608.148148,538.518519 L609.62963,531.111112 L610.370371,527.407407 L611.111111,523.703704 L612.592592,516.296297 L613.333334,512.592593 L614.074074,508.888889 L615.555555,501.481482 L616.296297,497.777778 L617.037037,494.074074 L618.518518,486.666667 L619.25926,482.962963 L620,479.259259 L621.481482,471.851852 L622.222223,468.148149 L622.962963,464.444444 L624.444444,457.037037 L625.185185,453.333334 L625.925926,449.62963 L627.407407,442.222222 L628.148148,438.518519 L628.888889,434.071111 L630.37037,425.182222 L631.111111,420.740741 L631.111111,408.888889 L628.148148,408.888889 L625.185185,411.851852 L622.222223,414.814815 L619.641482,417.777778 L617.04,420.740741 L614.411852,423.703704 L611.754074,426.666667 L609.063704,429.62963 L606.337778,432.592593 L603.582222,435.555556 L600.791111,438.518519 L597.976296,441.481482 L595.131852,444.444445 L592.263704,447.407408 L589.377778,450.370371 L586.474074,453.333334 L583.558519,456.296297 L580.634074,459.25926 L577.697778,462.222223 L574.755555,465.185186 L571.810371,468.148149 L568.85926,471.111112 L565.902222,474.074074 L562.948149,477.037037 L559.988148,480 L557.028149,482.962963 L554.068148,485.925926 L551.105185,488.888889 L548.145185,491.851852 L545.182223,494.814815 L542.21926,497.777778 L536.293334,503.703704 L533.330371,506.666667 L530.367408,509.62963 L527.407407,512.592593 L521.481482,518.518519 L518.518518,521.481482 L515.555555,524.444445 L512.592593,527.407407 L506.666667,533.333333 L503.703704,536.296296 L500.740741,539.259259 L497.777778,542.222222 L491.851852,548.148148 L488.888889,551.111111 L485.925926,554.074074 L480,560 L477.037037,562.962963 L474.074074,565.925926 L468.148148,571.851852 L465.185185,574.814815 L462.222222,577.777778 L456.296297,583.703704 L453.333334,586.666667 L450.370371,589.62963 L444.444445,595.555556 L441.481482,598.518519 L435.555556,604.444445 L432.592593,607.407408 L429.62963,610.370371 L423.703704,616.296297 L420.740741,619.25926 L417.777778,622.222223 L414.814815,625.185186 L411.851852,628.148149 L408.888889,631.111112 L405.925926,634.074075 L402.962963,637.037038 L400,640 L397.037037,642.962963 L394.074074,645.925926 L391.111111,648.888889 L388.148148,651.851852 L385.185185,654.814815 L382.222222,657.777778 L379.259259,660.740741 L376.296296,663.703704 L373.333333,666.666667 L370.37037,669.62963 L367.407407,672.592593 L364.444444,675.555556 L361.481482,678.518519 L358.518518,681.481482 L355.555555,684.444445 L352.592592,687.407408 L349.629629,690.370371 L346.666667,693.333333 L343.703704,696.296296 L340.740741,699.259259 L337.777778,702.222222 L334.814815,705.185185 L331.851852,708.148148 L328.888889,711.111111 L325.925926,714.074074 L322.962963,717.037037 L320,720 L317.037037,722.962963 L314.074074,725.925926 L311.111111,728.888889 L308.148148,731.851852 L305.185185,734.814815 L302.222222,737.777778 L299.259259,740.740741 L296.296296,743.703704 L293.333333,746.666667 L290.370371,749.62963 L285.925926,757.037038 Z" id="形状" fill="#CFD6DA"></path>
                <path d="M281.481482,770.370371 L285.925926,764.444445 L290.370371,758.518519 L290.370371,752.592593 L287.407408,752.592593 L284.444445,755.555556 L281.481482,758.518519 L278.518519,761.481482 L278.518519,770.370371 L281.481482,770.370371 Z M631.111111,177.777778 L631.111111,112.592593 L628.148148,112.592593 L628.148148,177.777778 L631.111111,177.777778 Z M634.074074,408.888889 L634.074074,361.481481 L631.111111,361.481481 L631.111111,408.888889 L634.074074,408.888889 Z" id="形状" fill="#CFD6DA"></path>
                <polygon id="路径" fill="#882425" points="622.222223 420.740741 626.666667 414.814815 631.111111 408.888889 631.111111 234.074074 630.58963 229.191112 629.641482 219.238518 628.93037 208.808889 628.488889 197.834074 628.26963 186.420741 628.180741 174.746667 628.157037 162.948148 628.148148 151.108148 628.148148 106.666667 625.185185 97.7777777 622.222223 91.8518516 619.25926 88.8888886 616.296297 85.9259256 613.333334 82.9629634 610.370371 80.0000004 607.407408 77.0370374 601.481482 74.0740744 592.592593 71.1111114 568.888889 71.1111114 565.185185 71.8518519 557.777778 73.333333 554.074074 74.0740744 550.370371 74.8148149 542.962963 76.2962961 539.259259 77.0370374 535.30963 78.0237039 527.407407 80.0000004 518.518518 82.9629634 518.518518 521.481482 521.481481 521.481482 524.444444 518.518519 527.407407 515.555556 530.37037 512.592593 533.333333 509.62963 536.296296 506.666667 539.259259 503.703704 542.222222 500.740741 545.185185 497.777778 548.148148 494.814815 551.111111 491.851852 554.074074 488.888889 557.037037 485.925926 560 482.962963 562.962963 480 565.925926 477.037037 568.888889 474.074074 571.851852 471.111112 574.814815 468.148149 577.777778 465.185186 580.740741 462.222223 583.703704 459.25926 586.666667 456.296297 589.62963 453.333334 592.592593 450.370371 595.555556 447.407408 598.518519 444.444445 601.481482 441.481482 604.444445 438.518519 607.407408 435.555556 610.370371 432.592593 613.333334 429.62963 616.296297 426.666667 619.25926 423.703704"></polygon>
            </g>
        </g>
    </g>
</svg>