<?xml version="1.0" encoding="UTF-8"?>
<svg width="1024px" height="1024px" viewBox="0 0 1024 1024" version="1.1" xmlns="http://www.w3.org/2000/svg" xmlns:xlink="http://www.w3.org/1999/xlink">
    <title>Sun.panel.helper</title>
    <defs>
        <linearGradient x1="0%" y1="0%" x2="100%" y2="100%" id="linearGradient-1">
            <stop stop-color="#60A5FA" offset="0%"></stop>
            <stop stop-color="#3B82F6" offset="100%"></stop>
        </linearGradient>
    </defs>
    <g id="Icon-SVG" stroke="none" stroke-width="1" fill="none" fill-rule="evenodd">
        <g id="Sun.panel.helper" transform="translate(0, -0.0008)">
            <rect id="蒙版路径" fill="url(#linearGradient-1)" x="0" y="0" width="1024" height="1024"></rect>
            <g id="1" transform="translate(192, 200.0008)">
                <path d="M566.194399,98.583196 C566.194399,44.1369292 522.104675,0 467.716639,0 L172.283361,0 C117.895325,0 73.8056013,44.1369292 73.8056013,98.583196 L73.8056013,197.166392 C73.8056013,251.612659 117.895325,295.749588 172.283361,295.749588 L467.716639,295.749588 C522.104675,295.749588 566.194399,339.886517 566.194399,394.332784 L566.194399,492.91598 C566.194399,547.362247 522.104675,591.499176 467.716639,591.499176 L172.283361,591.499176 C117.895325,591.499176 73.8056013,547.362247 73.8056013,492.91598" id="路径" stroke="#FFFFFF" stroke-width="100" stroke-linecap="round" stroke-linejoin="round"></path>
                <line x1="0" y1="689.555189" x2="640" y2="0" id="路径" stroke-opacity="0.3" stroke="#FFFFFF" stroke-width="100" stroke-linecap="round"></line>
                <circle id="椭圆形" fill-opacity="0.6" fill="#FFFFFF" fill-rule="nonzero" cx="73.2784185" cy="492.91598" r="49.0280066"></circle>
                <circle id="椭圆形" fill-opacity="0.6" fill="#FFFFFF" fill-rule="nonzero" cx="565.667216" cy="98.583196" r="49.0280066"></circle>
            </g>
        </g>
    </g>
</svg>