<svg xmlns="http://www.w3.org/2000/svg" xmlns:xlink="http://www.w3.org/1999/xlink" width="1024" height="1024"><defs><filter id="a" width="103.2%" height="102.9%" x="-1.6%" y="-1.1%" filterUnits="objectBoundingBox"><feMorphology in="SourceAlpha" operator="dilate" radius="1.5" result="shadowSpreadOuter1"/><feOffset dy="2" in="shadowSpreadOuter1" result="shadowOffsetOuter1"/><feGaussianBlur in="shadowOffsetOuter1" result="shadowBlurOuter1" stdDeviation="2"/><feComposite in="shadowBlurOuter1" in2="SourceAlpha" operator="out" result="shadowBlurOuter1"/><feColorMatrix in="shadowBlurOuter1" values="0 0 0 0 0 0 0 0 0 0 0 0 0 0 0 0 0 0 0.5 0"/></filter><filter id="d" width="103.2%" height="102.9%" x="-1.6%" y="-1.1%" filterUnits="objectBoundingBox"><feMorphology in="SourceAlpha" operator="dilate" radius="1.5" result="shadowSpreadOuter1"/><feOffset dy="2" in="shadowSpreadOuter1" result="shadowOffsetOuter1"/><feGaussianBlur in="shadowOffsetOuter1" result="shadowBlurOuter1" stdDeviation="2"/><feComposite in="shadowBlurOuter1" in2="SourceAlpha" operator="out" result="shadowBlurOuter1"/><feColorMatrix in="shadowBlurOuter1" values="0 0 0 0 0 0 0 0 0 0 0 0 0 0 0 0 0 0 0.5 0"/></filter><path id="b" d="M416.506 684.034c-96.743-76.868-165.592-130.882-214.301-169.983-14.087-11.825-17.053-20.852-17.053-22.526 0-2.146.654-9.613 10.79-19.224 49.007-38.385 125.147-101.324 156.633-126.103 13.01-9.754 21.435-10.682 23.159-10.682 1.913 0 11.505 2.312 23.058 10.682 35.953 26.05 103.242 83.868 118.05 93.424 7.281 4.7 14.265 7.552 15.76 7.5 1.49-.052 8.246-2.92 13.15-5.895 14.935-9.06 38.584-27.9 52.904-42.092 7.07-7.007 7.055-14.89 6.904-16.127-.068-.562-2.097-7.226-6.904-11.502-17.71-15.756-152.655-126.115-203.077-161.428-10.016-7.015-18.232-8.011-19.845-8.078-1.475-.055-10.778.548-21.408 8.078-59.515 42.16-236.816 188.298-277.269 221.804-3.493 3.93-9.953 9.173-8.953 23.173.721 38.463.78 38.457.111 89.083 2.206 5.72 6.17 11.088 11.89 16.106l295.629 235.3c60.948-48.022 74.539-85.192 40.772-111.51"/><path id="e" d="M348.506 482.034c-96.743-76.868-165.592-130.882-214.301-169.983-14.087-11.825-17.053-20.852-17.053-22.526 0-2.146.654-9.613 10.79-19.224 49.007-38.385 125.147-101.324 156.633-126.103 13.01-9.754 21.435-10.682 23.159-10.682 1.913 0 11.505 2.312 23.058 10.682 35.953 26.05 103.242 83.868 118.05 93.424 7.281 4.7 14.265 7.552 15.76 7.5 1.49-.052 8.246-2.92 13.15-5.895 14.935-9.06 38.584-27.9 52.904-42.092 7.07-7.007 7.055-14.89 6.904-16.127-.068-.562-2.097-7.226-6.904-11.502C512.946 153.75 378.001 43.39 327.58 8.078 317.563 1.063 309.347.067 307.734 0c-1.475-.055-10.778.548-21.408 8.078C226.81 50.238 49.51 196.376 9.057 229.882c-3.493 3.93-9.953 9.173-8.953 23.173.721 38.463.78 38.457.111 89.083 2.206 5.72 6.17 11.088 11.89 16.106l295.629 235.3c60.948-48.022 74.539-85.192 40.772-111.51"/><linearGradient id="c" x1="-.048%" x2="99.953%" y1="50.015%" y2="50.015%"><stop offset="0%" stop-color="#F5DD94"/><stop offset="57.079%" stop-color="#DDAE62"/><stop offset="100%" stop-color="#BE7222"/></linearGradient></defs><g fill="none" fill-rule="evenodd" opacity=".963"><path fill="#090C0B" d="M0 0h1023.939v1024H0"/><g fill-rule="nonzero"><g transform="rotate(180 439.746 553.745)"><use xlink:href="#b" fill="#000" filter="url(#a)"/><use xlink:href="#b" fill="url(#c)" stroke="#E7C276" stroke-width="3"/></g><g transform="translate(205.896 109.945)"><use xlink:href="#e" fill="#000" filter="url(#d)"/><use xlink:href="#e" fill="url(#c)" stroke="#E7C276" stroke-width="3"/></g></g></g></svg>