<?xml version="1.0" encoding="UTF-8"?>
<svg width="1024px" height="1024px" viewBox="0 0 1024 1024" version="1.1" xmlns="http://www.w3.org/2000/svg" xmlns:xlink="http://www.w3.org/1999/xlink">
    <title>Symedia.wiki</title>
    <defs>
        <linearGradient x1="65.2415457%" y1="-4.52037591%" x2="24.7332622%" y2="140.21384%" id="linearGradient-1">
            <stop stop-color="#001F62" offset="0%"></stop>
            <stop stop-color="#090C0B" offset="100%"></stop>
        </linearGradient>
        <linearGradient x1="6.05253311%" y1="50.2895542%" x2="89.9905111%" y2="50.2895542%" id="linearGradient-2">
            <stop stop-color="#02AFEF" offset="0%"></stop>
            <stop stop-color="#01EFC6" offset="100%"></stop>
        </linearGradient>
        <path d="M161.371034,169.44 C156.251034,169.76 151.091034,169.36 145.891034,168.24 C140.691034,167.12 136.011034,165.12 131.851034,162.24 C128.651034,160 126.051034,157.16 124.051034,153.72 C122.051034,150.28 120.331034,146.72 118.891034,143.04 C116.491034,136.8 114.291034,130.52 112.291034,124.2 C110.291034,117.88 108.171034,111.52 105.931034,105.12 C104.971034,108.8 103.851034,112.32 102.571034,115.68 C101.291034,119.04 99.9310345,122.48 98.4910345,126 C96.7310345,130.16 95.0110345,134.28 93.3310345,138.36 C91.6510345,142.44 89.6910345,146.48 87.4510345,150.48 C86.3310345,152.4 85.2110345,154.32 84.0910345,156.24 C82.9710345,158.16 81.5310345,159.84 79.7710345,161.28 C77.3710345,163.36 74.6910345,164.92 71.7310345,165.96 C68.7710345,167 65.6910345,167.68 62.4910345,168 C55.9310345,168.64 49.2910345,167.68 42.5710345,165.12 C35.8510345,162.56 30.1710345,158.88 25.5310345,154.08 C21.3710345,149.6 17.8910345,144.56 15.0910345,138.96 C12.2910345,133.36 10.0110345,127.6 8.25103448,121.68 C4.57103448,110.64 2.13103448,99.4 0.931034483,87.96 C-0.268965517,76.52 -0.308965517,65.04 0.811034483,53.52 C1.61103448,45.84 2.93103448,38.28 4.77103448,30.84 C6.61103448,23.4 9.37103448,16.32 13.0510345,9.6 C14.3310345,7.36 16.1310345,5.56 18.4510345,4.2 C20.7710345,2.84 23.1310345,1.84 25.5310345,1.2 C28.8910345,0.4 32.5310345,0 36.4510345,0 C40.3710345,0 44.1310345,0.56 47.7310345,1.68 C51.3310345,2.8 54.5310345,4.4 57.3310345,6.48 C60.1310345,8.56 62.1710345,11.28 63.4510345,14.64 C64.2510345,16.88 64.6510345,19.24 64.6510345,21.72 C64.6510345,24.2 64.3310345,26.56 63.6910345,28.8 C62.4110345,32.96 61.4510345,37.12 60.8110345,41.28 C60.1710345,45.44 59.6110345,49.6 59.1310345,53.76 C58.6510345,59.04 58.2910345,64.32 58.0510345,69.6 C57.8110345,74.88 57.8510345,80.08 58.1710345,85.2 C58.3310345,88.4 58.5310345,91.52 58.7710345,94.56 C59.0110345,97.6 59.5310345,100.72 60.3310345,103.92 C60.6510345,105.68 61.1310345,107.36 61.7710345,108.96 C62.4110345,110.56 63.3710345,112 64.6510345,113.28 C64.9710345,113.6 65.4510345,113.92 66.0910345,114.24 C66.7310345,114.56 67.2110345,114.72 67.5310345,114.72 C68.0110345,114.56 68.5310345,114.04 69.0910345,113.16 C69.6510345,112.28 70.0910345,111.6 70.4110345,111.12 C72.1710345,107.92 73.6910345,104.64 74.9710345,101.28 C76.2510345,97.92 77.5310345,94.48 78.8110345,90.96 C79.4510345,89.36 80.4510345,86.48 81.8110345,82.32 C83.1710345,78.16 84.6910345,73.8 86.3710345,69.24 C88.0510345,64.68 89.7310345,60.36 91.4110345,56.28 C93.0910345,52.2 94.4110345,49.44 95.3710345,48 C96.1710345,46.72 97.2110345,45.68 98.4910345,44.88 C99.7710345,44.08 101.051034,43.28 102.331034,42.48 C104.251034,41.52 106.291034,40.76 108.451034,40.2 C110.611034,39.64 112.811034,39.2 115.051034,38.88 C119.051034,38.56 122.931034,39.16 126.691034,40.68 C130.451034,42.2 133.611034,44.48 136.171034,47.52 C137.131034,48.8 137.931034,50.12 138.571034,51.48 C139.211034,52.84 139.531034,54.24 139.531034,55.68 C139.531034,61.92 140.171034,68.48 141.451034,75.36 C142.091034,79.36 142.811034,83.32 143.611034,87.24 C144.411034,91.16 145.451034,95.04 146.731034,98.88 C146.891034,99.68 147.211034,100.72 147.691034,102 C148.171034,103.28 148.691034,104.56 149.251034,105.84 C149.811034,107.12 150.371034,108.32 150.931034,109.44 C151.491034,110.56 152.091034,111.36 152.731034,111.84 C154.651034,113.12 156.491034,113.12 158.251034,111.84 C160.011034,110.56 161.451034,108.88 162.571034,106.8 C164.331034,103.44 165.611034,99.84 166.411034,96 C167.211034,92.16 167.931034,88.4 168.571034,84.72 C170.811034,70.96 171.291034,57.04 170.011034,42.96 C169.691034,40.24 169.331034,37.52 168.931034,34.8 C168.531034,32.08 167.931034,29.36 167.131034,26.64 C166.331034,24.4 166.051034,22 166.291034,19.44 C166.531034,16.88 167.291034,14.72 168.571034,12.96 C169.851034,11.2 171.451034,9.76 173.371034,8.64 C175.291034,7.52 177.291034,6.56 179.371034,5.76 C185.131034,3.84 191.051034,3.12 197.131034,3.6 C199.371034,3.76 201.651034,4.16 203.971034,4.8 C206.291034,5.44 208.331034,6.48 210.091034,7.92 C212.491034,10.16 214.331034,12.92 215.611034,16.2 C216.891034,19.48 217.931034,22.72 218.731034,25.92 C220.011034,31.52 220.731034,37.2 220.891034,42.96 C221.051034,48.72 220.971034,54.4 220.651034,60 C220.171034,68 219.291034,75.88 218.011034,83.64 C216.731034,91.4 215.131034,99.12 213.211034,106.8 C211.451034,113.04 209.531034,119.28 207.451034,125.52 C205.371034,131.76 202.731034,137.76 199.531034,143.52 C197.771034,146.72 195.851034,149.84 193.771034,152.88 C191.691034,155.92 189.211034,158.56 186.331034,160.8 C182.811034,163.52 178.891034,165.56 174.571034,166.92 C170.251034,168.28 165.851034,169.12 161.371034,169.44 Z M39.9310345,65.28 C39.9310345,66.56 40.2910345,67.6 41.0110345,68.4 C41.7310345,69.2 42.6110345,69.72 43.6510345,69.96 C44.6910345,70.2 45.7310345,70.12 46.7710345,69.72 C47.8110345,69.32 48.5710345,68.56 49.0510345,67.44 C49.5310345,66.64 49.7310345,65.72 49.6510345,64.68 C49.5710345,63.64 49.6110345,62.64 49.7710345,61.68 C49.7710345,61.36 49.8110345,60.68 49.8910345,59.64 C49.9710345,58.6 50.0510345,57.56 50.1310345,56.52 C50.2110345,55.48 50.3310345,54.48 50.4910345,53.52 C50.6510345,52.56 50.7310345,51.92 50.7310345,51.6 C50.8910345,50.8 51.2110345,49.36 51.6910345,47.28 C52.1710345,45.2 52.6510345,43.04 53.1310345,40.8 C53.6110345,38.56 54.0910345,36.44 54.5710345,34.44 C55.0510345,32.44 55.2910345,31.04 55.2910345,30.24 C55.4510345,28 55.2510345,25.72 54.6910345,23.4 C54.1310345,21.08 53.2110345,19.04 51.9310345,17.28 C49.2110345,13.76 45.6110345,11.36 41.1310345,10.08 C39.8510345,9.76 38.4910345,9.36 37.0510345,8.88 C35.6110345,8.4 34.2510345,8.16 32.9710345,8.16 C31.5310345,8.16 30.3710345,8.6 29.4910345,9.48 C28.6110345,10.36 28.0910345,11.32 27.9310345,12.36 C27.7710345,13.4 27.9710345,14.44 28.5310345,15.48 C29.0910345,16.52 30.0910345,17.2 31.5310345,17.52 C33.2910345,18 35.0910345,18.44 36.9310345,18.84 C38.7710345,19.24 40.4910345,19.92 42.0910345,20.88 C42.7310345,21.36 43.2910345,21.92 43.7710345,22.56 C44.2510345,23.2 44.6510345,23.92 44.9710345,24.72 C45.6110345,26 45.8510345,27.4 45.6910345,28.92 C45.5310345,30.44 45.2910345,31.92 44.9710345,33.36 C43.6910345,38.64 42.5310345,43.92 41.4910345,49.2 C40.4510345,54.48 39.9310345,59.84 39.9310345,65.28 Z M205.531034,64.08 C205.051034,65.36 205.011034,66.56 205.411034,67.68 C205.811034,68.8 206.491034,69.68 207.451034,70.32 C208.411034,70.96 209.451034,71.2 210.571034,71.04 C211.691034,70.88 212.731034,70.24 213.691034,69.12 C214.011034,68.8 214.331034,68.24 214.651034,67.44 C214.971034,66.64 215.131034,66.08 215.131034,65.76 C215.291034,65.12 215.331034,64.56 215.251034,64.08 C215.171034,63.6 215.211034,63.12 215.371034,62.64 C216.011034,59.12 216.131034,55.6 215.731034,52.08 C215.331034,48.56 214.971034,45.04 214.651034,41.52 C214.491034,39.28 213.971034,36.68 213.091034,33.72 C212.211034,30.76 211.091034,27.88 209.731034,25.08 C208.371034,22.28 206.811034,19.72 205.051034,17.4 C203.291034,15.08 201.371034,13.52 199.291034,12.72 C196.891034,11.76 194.371034,11.28 191.731034,11.28 C189.091034,11.28 186.571034,11.6 184.171034,12.24 C182.891034,12.56 181.531034,12.88 180.091034,13.2 C178.651034,13.52 177.531034,14.16 176.731034,15.12 C175.611034,16.56 175.371034,18.12 176.011034,19.8 C176.651034,21.48 177.851034,22.48 179.611034,22.8 C179.931034,22.96 180.651034,22.92 181.771034,22.68 C182.891034,22.44 184.131034,22.2 185.491034,21.96 C186.851034,21.72 188.091034,21.48 189.211034,21.24 C190.331034,21 191.131034,20.88 191.611034,20.88 C191.931034,20.88 192.571034,20.96 193.531034,21.12 C194.491034,21.28 195.131034,21.44 195.451034,21.6 C196.091034,21.92 197.011034,22.8 198.211034,24.24 C199.411034,25.68 200.171034,26.8 200.491034,27.6 C200.811034,27.92 201.251034,28.96 201.811034,30.72 C202.371034,32.48 202.811034,33.52 203.131034,33.84 C203.451034,34.64 203.811034,35.92 204.211034,37.68 C204.611034,39.44 204.971034,41.28 205.291034,43.2 C205.611034,45.12 205.851034,46.96 206.011034,48.72 C206.171034,50.48 206.251034,51.84 206.251034,52.8 C206.251034,53.28 206.251034,54.04 206.251034,55.08 C206.251034,56.12 206.251034,57.24 206.251034,58.44 C206.251034,59.64 206.171034,60.76 206.011034,61.8 C205.851034,62.84 205.691034,63.6 205.531034,64.08 Z M127.771034,66.72 C128.731034,67.52 129.771034,67.88 130.891034,67.8 C132.011034,67.72 132.971034,67.36 133.771034,66.72 C134.571034,66.08 135.131034,65.24 135.451034,64.2 C135.771034,63.16 135.691034,62.08 135.211034,60.96 C134.891034,60.48 134.691034,59.96 134.611034,59.4 C134.531034,58.84 134.331034,58.24 134.011034,57.6 C133.851034,57.12 133.371034,56.08 132.571034,54.48 C131.771034,52.88 131.211034,51.92 130.891034,51.6 C129.611034,49.84 128.011034,48.48 126.091034,47.52 C124.171034,46.56 122.171034,45.76 120.091034,45.12 C118.651034,44.8 117.171034,44.64 115.651034,44.64 C114.131034,44.64 112.651034,44.64 111.211034,44.64 C109.931034,44.64 108.851034,45 107.971034,45.72 C107.091034,46.44 106.531034,47.32 106.291034,48.36 C106.051034,49.4 106.131034,50.44 106.531034,51.48 C106.931034,52.52 107.691034,53.28 108.811034,53.76 C110.091034,54.4 111.331034,54.6 112.531034,54.36 C113.731034,54.12 114.971034,54.08 116.251034,54.24 C117.211034,54.4 118.491034,54.76 120.091034,55.32 C121.691034,55.88 122.731034,56.56 123.211034,57.36 C123.851034,58.16 124.331034,59.08 124.651034,60.12 C124.971034,61.16 125.291034,62.24 125.611034,63.36 C125.931034,64.96 126.651034,66.08 127.771034,66.72 Z" id="path-3"></path>
        <linearGradient x1="6.05253311%" y1="50.2895542%" x2="89.9905111%" y2="50.2895542%" id="linearGradient-4">
            <stop stop-color="#02AFEF" offset="0%"></stop>
            <stop stop-color="#01EFC6" offset="100%"></stop>
        </linearGradient>
        <path d="M316.227505,168.24 C312.067505,168.56 308.027505,168.68 304.107505,168.6 C300.187505,168.52 296.227505,168.4 292.227505,168.24 C289.187505,168.24 285.507505,168.24 281.187505,168.24 C276.867505,168.24 272.627505,168.04 268.467505,167.64 C264.307505,167.24 260.467505,166.44 256.947505,165.24 C253.427505,164.04 251.027505,162.08 249.747505,159.36 C247.987505,155.68 247.227505,151.64 247.467505,147.24 C247.707505,142.84 248.947505,139.04 251.187505,135.84 C253.427505,133.12 255.987505,131.52 258.867505,131.04 C260.467505,130.72 262.067505,130.36 263.667505,129.96 C265.267505,129.56 266.867505,129.2 268.467505,128.88 C267.667505,114.8 267.427505,100.84 267.747505,87 C268.067505,73.16 267.987505,59.2 267.507505,45.12 C264.627505,45.28 261.627505,45.08 258.507505,44.52 C255.387505,43.96 252.787505,42.56 250.707505,40.32 C248.467505,38.08 246.987505,35.6 246.267505,32.88 C245.547505,30.16 245.427505,27.48 245.907505,24.84 C246.387505,22.2 247.507505,19.72 249.267505,17.4 C251.027505,15.08 253.267505,13.2 255.987505,11.76 C259.187505,10 262.507505,8.76 265.947505,8.04 C269.387505,7.32 272.867505,6.8 276.387505,6.48 C283.907505,5.84 291.387505,5.72 298.827505,6.12 C306.267505,6.52 313.827505,7.04 321.507505,7.68 C324.387505,7.84 327.307505,8.2 330.267505,8.76 C333.227505,9.32 335.827505,10.48 338.067505,12.24 C340.787505,14.48 342.707505,17.52 343.827505,21.36 C344.947505,25.2 345.107505,28.88 344.307505,32.4 C343.987505,33.68 343.547505,35 342.987505,36.36 C342.427505,37.72 341.587505,38.88 340.467505,39.84 C337.747505,42.24 334.627505,43.88 331.107505,44.76 C327.587505,45.64 324.067505,46.24 320.547505,46.56 C320.707505,60.64 320.507505,74.64 319.947505,88.56 C319.387505,102.48 319.347505,116.48 319.827505,130.56 C321.587505,130.56 323.427505,130.64 325.347505,130.8 C327.267505,130.96 329.107505,131.44 330.867505,132.24 C332.627505,133.04 334.227505,134.24 335.667505,135.84 C337.107505,137.44 338.267505,139.24 339.147505,141.24 C340.027505,143.24 340.587505,145.32 340.827505,147.48 C341.067505,149.64 340.947505,151.68 340.467505,153.6 C339.827505,156 338.747505,158.32 337.227505,160.56 C335.707505,162.8 333.827505,164.4 331.587505,165.36 C329.187505,166.32 326.707505,167 324.147505,167.4 C321.587505,167.8 318.947505,168.08 316.227505,168.24 Z M330.867505,31.44 C332.627505,32.88 334.467505,32.96 336.387505,31.68 C338.307505,30.4 339.027505,28.64 338.547505,26.4 C338.387505,26.08 338.107505,25.36 337.707505,24.24 C337.307505,23.12 337.027505,22.4 336.867505,22.08 C335.907505,20.16 334.547505,18.48 332.787505,17.04 C331.027505,15.6 329.187505,14.48 327.267505,13.68 C325.187505,12.88 323.067505,12.32 320.907505,12 C318.747505,11.68 316.547505,11.36 314.307505,11.04 C313.187505,10.88 312.067505,10.72 310.947505,10.56 C309.827505,10.4 308.707505,10.32 307.587505,10.32 C306.467505,10.32 305.387505,10.36 304.347505,10.44 C303.307505,10.52 302.307505,10.4 301.347505,10.08 C300.067505,9.92 298.947505,10.08 297.987505,10.56 C297.027505,11.04 296.307505,11.76 295.827505,12.72 C295.347505,13.68 295.227505,14.72 295.467505,15.84 C295.707505,16.96 296.307505,17.92 297.267505,18.72 C297.747505,19.04 298.547505,19.28 299.667505,19.44 C300.787505,19.6 301.987505,19.72 303.267505,19.8 C304.547505,19.88 305.787505,19.96 306.987505,20.04 C308.187505,20.12 309.107505,20.16 309.747505,20.16 C310.227505,20.16 311.027505,20.24 312.147505,20.4 C313.267505,20.56 314.427505,20.72 315.627505,20.88 C316.827505,21.04 317.987505,21.2 319.107505,21.36 C320.227505,21.52 321.027505,21.68 321.507505,21.84 C322.147505,22 323.227505,22.48 324.747505,23.28 C326.267505,24.08 327.187505,24.72 327.507505,25.2 C328.307505,26 328.827505,27.04 329.067505,28.32 C329.307505,29.6 329.907505,30.64 330.867505,31.44 Z" id="path-5"></path>
        <linearGradient x1="6.05253311%" y1="50.2895542%" x2="89.9905111%" y2="50.2895542%" id="linearGradient-6">
            <stop stop-color="#02AFEF" offset="0%"></stop>
            <stop stop-color="#01EFC6" offset="100%"></stop>
        </linearGradient>
        <path d="M400.283976,171.6 C395.803976,171.76 391.243976,171.28 386.603976,170.16 C381.963976,169.04 378.123976,166.88 375.083976,163.68 C373.163976,161.76 371.843976,159.44 371.123976,156.72 C370.403976,154 369.963976,151.28 369.803976,148.56 C369.643976,142 370.283976,135.6 371.723976,129.36 C373.163976,123.12 374.283976,116.8 375.083976,110.4 C375.883976,104.32 376.443976,98.28 376.763976,92.28 C377.083976,86.28 377.403976,80.24 377.723976,74.16 C377.723976,72.56 377.603976,70.2 377.363976,67.08 C377.123976,63.96 376.803976,60.48 376.403976,56.64 C376.003976,52.8 375.603976,48.8 375.203976,44.64 C374.803976,40.48 374.483976,36.48 374.243976,32.64 C374.003976,28.8 373.923976,25.4 374.003976,22.44 C374.083976,19.48 374.443976,17.28 375.083976,15.84 C376.523976,12.32 378.963976,9.36 382.403976,6.96 C385.843976,4.56 389.403976,2.88 393.083976,1.92 C398.203976,0.48 403.723976,0.16 409.643976,0.96 C415.563976,1.76 420.683976,3.84 425.003976,7.2 C428.043976,9.76 430.283976,13 431.723976,16.92 C433.163976,20.84 434.043976,24.8 434.363976,28.8 C434.683976,32.48 434.443976,36.04 433.643976,39.48 C432.843976,42.92 432.283976,46.48 431.963976,50.16 C437.243976,46 442.323976,41.6 447.203976,36.96 C452.083976,32.32 457.083976,27.76 462.203976,23.28 C465.723976,20.4 469.363976,17.64 473.123976,15 C476.883976,12.36 480.923976,10.4 485.243976,9.12 C489.403976,7.84 493.803976,7.48 498.443976,8.04 C503.083976,8.6 507.243976,10 510.923976,12.24 C513.643976,14 515.963976,16.2 517.883976,18.84 C519.803976,21.48 521.243976,24.32 522.203976,27.36 C523.163976,30.24 523.643976,33.48 523.643976,37.08 C523.643976,40.68 523.243976,44.16 522.443976,47.52 C521.643976,50.88 520.363976,54 518.603976,56.88 C516.843976,59.76 514.683976,62 512.123976,63.6 C508.123976,65.84 503.763976,67.16 499.043976,67.56 C494.323976,67.96 489.723976,68.72 485.243976,69.84 C482.523976,70.48 479.723976,71.36 476.843976,72.48 C473.963976,73.6 471.363976,74.96 469.043976,76.56 C466.723976,78.16 464.803976,80.08 463.283976,82.32 C461.763976,84.56 461.163976,87.04 461.483976,89.76 C461.803976,91.52 462.483976,93.24 463.523976,94.92 C464.563976,96.6 465.803976,98.08 467.243976,99.36 C469.483976,101.44 471.963976,103.16 474.683976,104.52 C477.403976,105.88 480.123976,107.04 482.843976,108 C486.523976,109.28 490.283976,110.4 494.123976,111.36 C497.963976,112.32 501.643976,113.68 505.163976,115.44 C507.403976,116.72 509.403976,118.28 511.163976,120.12 C512.923976,121.96 514.283976,124 515.243976,126.24 C517.803976,132 518.363976,138 516.923976,144.24 C515.483976,150.48 512.363976,155.68 507.563976,159.84 C504.683976,162.24 501.363976,164.04 497.603976,165.24 C493.843976,166.44 490.123976,167.04 486.443976,167.04 C481.803976,167.04 477.243976,166.32 472.763976,164.88 C468.283976,163.44 464.203976,161.44 460.523976,158.88 C453.323976,154.24 447.043976,148.6 441.683976,141.96 C436.323976,135.32 431.483976,128.4 427.163976,121.2 C427.963976,130 427.883976,138.56 426.923976,146.88 C426.603976,148.96 426.243976,151.04 425.843976,153.12 C425.443976,155.2 424.843976,157.2 424.043976,159.12 C423.083976,162.16 421.403976,164.64 419.003976,166.56 C416.283976,168.48 413.283976,169.76 410.003976,170.4 C406.723976,171.04 403.483976,171.44 400.283976,171.6 Z M420.203976,24.96 C420.843976,26.24 421.723976,27.08 422.843976,27.48 C423.963976,27.88 425.043976,27.92 426.083976,27.6 C427.123976,27.28 427.963976,26.64 428.603976,25.68 C429.243976,24.72 429.403976,23.52 429.083976,22.08 C428.763976,20.96 428.363976,19.92 427.883976,18.96 C427.403976,18 426.843976,17.12 426.203976,16.32 C424.123976,13.44 421.403976,11.12 418.043976,9.36 C414.683976,7.6 411.243976,6.56 407.723976,6.24 C405.803976,6.08 403.843976,5.96 401.843976,5.88 C399.843976,5.8 397.963976,5.92 396.203976,6.24 C395.563976,6.24 395.243976,6.24 395.243976,6.24 C393.803976,5.92 392.603976,6.12 391.643976,6.84 C390.683976,7.56 390.043976,8.44 389.723976,9.48 C389.403976,10.52 389.403976,11.64 389.723976,12.84 C390.043976,14.04 390.843976,14.96 392.123976,15.6 C392.603976,15.76 393.323976,15.84 394.283976,15.84 C395.243976,15.84 396.243976,15.8 397.283976,15.72 C398.323976,15.64 399.323976,15.56 400.283976,15.48 C401.243976,15.4 401.963976,15.36 402.443976,15.36 C404.683976,15.52 406.843976,15.8 408.923976,16.2 C411.003976,16.6 412.923976,17.36 414.683976,18.48 C415.963976,19.28 417.003976,20.24 417.803976,21.36 C418.603976,22.48 419.403976,23.68 420.203976,24.96 Z M509.243976,32.88 C509.403976,34.64 509.963976,35.92 510.923976,36.72 C511.883976,37.52 512.963976,37.96 514.163976,38.04 C515.363976,38.12 516.443976,37.76 517.403976,36.96 C518.363976,36.16 518.843976,34.88 518.843976,33.12 C518.843976,30.88 518.243976,28.72 517.043976,26.64 C515.843976,24.56 514.323976,22.68 512.483976,21 C510.643976,19.32 508.603976,17.92 506.363976,16.8 C504.123976,15.68 501.883976,14.88 499.643976,14.4 C496.283976,13.92 492.803976,13.84 489.203976,14.16 C485.603976,14.48 482.283976,15.36 479.243976,16.8 C477.643976,17.6 476.723976,18.64 476.483976,19.92 C476.243976,21.2 476.403976,22.36 476.963976,23.4 C477.523976,24.44 478.443976,25.24 479.723976,25.8 C481.003976,26.36 482.363976,26.24 483.803976,25.44 C483.803976,25.44 483.963976,25.36 484.283976,25.2 C484.443976,25.2 484.603976,25.12 484.763976,24.96 C485.883976,24.48 487.283976,24.12 488.963976,23.88 C490.643976,23.64 492.363976,23.56 494.123976,23.64 C495.883976,23.72 497.563976,23.92 499.163976,24.24 C500.763976,24.56 502.043976,25.04 503.003976,25.68 C503.963976,26.48 505.243976,27.56 506.843976,28.92 C508.443976,30.28 509.243976,31.6 509.243976,32.88 Z" id="path-7"></path>
        <path d="M617.540446,168.24 C613.380446,168.56 609.340446,168.68 605.420446,168.6 C601.500446,168.52 597.540446,168.4 593.540446,168.24 C590.500446,168.24 586.820446,168.24 582.500446,168.24 C578.180446,168.24 573.940446,168.04 569.780446,167.64 C565.620446,167.24 561.780446,166.44 558.260446,165.24 C554.740446,164.04 552.340446,162.08 551.060446,159.36 C549.300446,155.68 548.540446,151.64 548.780446,147.24 C549.020446,142.84 550.260446,139.04 552.500446,135.84 C554.740446,133.12 557.300446,131.52 560.180446,131.04 C561.780446,130.72 563.380446,130.36 564.980446,129.96 C566.580446,129.56 568.180446,129.2 569.780446,128.88 C568.980446,114.8 568.740446,100.84 569.060446,87 C569.380446,73.16 569.300446,59.2 568.820446,45.12 C565.940446,45.28 562.940446,45.08 559.820446,44.52 C556.700446,43.96 554.100446,42.56 552.020446,40.32 C549.780446,38.08 548.300446,35.6 547.580446,32.88 C546.860446,30.16 546.740446,27.48 547.220446,24.84 C547.700446,22.2 548.820446,19.72 550.580446,17.4 C552.340446,15.08 554.580446,13.2 557.300446,11.76 C560.500446,10 563.820446,8.76 567.260446,8.04 C570.700446,7.32 574.180446,6.8 577.700446,6.48 C585.220446,5.84 592.700446,5.72 600.140446,6.12 C607.580446,6.52 615.140446,7.04 622.820446,7.68 C625.700446,7.84 628.620446,8.2 631.580446,8.76 C634.540446,9.32 637.140446,10.48 639.380446,12.24 C642.100446,14.48 644.020446,17.52 645.140446,21.36 C646.260446,25.2 646.420446,28.88 645.620446,32.4 C645.300446,33.68 644.860446,35 644.300446,36.36 C643.740446,37.72 642.900446,38.88 641.780446,39.84 C639.060446,42.24 635.940446,43.88 632.420446,44.76 C628.900446,45.64 625.380446,46.24 621.860446,46.56 C622.020446,60.64 621.820446,74.64 621.260446,88.56 C620.700446,102.48 620.660446,116.48 621.140446,130.56 C622.900446,130.56 624.740446,130.64 626.660446,130.8 C628.580446,130.96 630.420446,131.44 632.180446,132.24 C633.940446,133.04 635.540446,134.24 636.980446,135.84 C638.420446,137.44 639.580446,139.24 640.460446,141.24 C641.340446,143.24 641.900446,145.32 642.140446,147.48 C642.380446,149.64 642.260446,151.68 641.780446,153.6 C641.140446,156 640.060446,158.32 638.540446,160.56 C637.020446,162.8 635.140446,164.4 632.900446,165.36 C630.500446,166.32 628.020446,167 625.460446,167.4 C622.900446,167.8 620.260446,168.08 617.540446,168.24 Z M632.180446,31.44 C633.940446,32.88 635.780446,32.96 637.700446,31.68 C639.620446,30.4 640.340446,28.64 639.860446,26.4 C639.700446,26.08 639.420446,25.36 639.020446,24.24 C638.620446,23.12 638.340446,22.4 638.180446,22.08 C637.220446,20.16 635.860446,18.48 634.100446,17.04 C632.340446,15.6 630.500446,14.48 628.580446,13.68 C626.500446,12.88 624.380446,12.32 622.220446,12 C620.060446,11.68 617.860446,11.36 615.620446,11.04 C614.500446,10.88 613.380446,10.72 612.260446,10.56 C611.140446,10.4 610.020446,10.32 608.900446,10.32 C607.780446,10.32 606.700446,10.36 605.660446,10.44 C604.620446,10.52 603.620446,10.4 602.660446,10.08 C601.380446,9.92 600.260446,10.08 599.300446,10.56 C598.340446,11.04 597.620446,11.76 597.140446,12.72 C596.660446,13.68 596.540446,14.72 596.780446,15.84 C597.020446,16.96 597.620446,17.92 598.580446,18.72 C599.060446,19.04 599.860446,19.28 600.980446,19.44 C602.100446,19.6 603.300446,19.72 604.580446,19.8 C605.860446,19.88 607.100446,19.96 608.300446,20.04 C609.500446,20.12 610.420446,20.16 611.060446,20.16 C611.540446,20.16 612.340446,20.24 613.460446,20.4 C614.580446,20.56 615.740446,20.72 616.940446,20.88 C618.140446,21.04 619.300446,21.2 620.420446,21.36 C621.540446,21.52 622.340446,21.68 622.820446,21.84 C623.460446,22 624.540446,22.48 626.060446,23.28 C627.580446,24.08 628.500446,24.72 628.820446,25.2 C629.620446,26 630.140446,27.04 630.380446,28.32 C630.620446,29.6 631.220446,30.64 632.180446,31.44 Z" id="path-8"></path>
        <linearGradient x1="-0.0477425123%" y1="50.015395%" x2="99.9527939%" y2="50.015395%" id="linearGradient-9">
            <stop stop-color="#065FFE" offset="0%"></stop>
            <stop stop-color="#02AFEF" offset="50%"></stop>
            <stop stop-color="#01EFC6" offset="100%"></stop>
        </linearGradient>
        <linearGradient x1="0.00494747219%" y1="49.9793692%" x2="99.9313622%" y2="49.9793692%" id="linearGradient-10">
            <stop stop-color="#065FFE" offset="0%"></stop>
            <stop stop-color="#02AFEF" offset="50%"></stop>
            <stop stop-color="#01EFC6" offset="100%"></stop>
        </linearGradient>
        <linearGradient x1="36.736701%" y1="29.495181%" x2="61.5406832%" y2="67.8588664%" id="linearGradient-11">
            <stop stop-color="#065FFE" offset="0%"></stop>
            <stop stop-color="#02AFEF" offset="50%"></stop>
            <stop stop-color="#01EFC6" offset="100%"></stop>
        </linearGradient>
        <linearGradient x1="72.5984772%" y1="24.6589983%" x2="17.3365482%" y2="98.7193049%" id="linearGradient-12">
            <stop stop-color="#065FFE" offset="0%"></stop>
            <stop stop-color="#02AFEF" offset="50%"></stop>
            <stop stop-color="#01EFC6" offset="100%"></stop>
        </linearGradient>
        <linearGradient x1="100.059866%" y1="49.9140886%" x2="-0.0301565996%" y2="49.9140886%" id="linearGradient-13">
            <stop stop-color="#065FFE" offset="0%"></stop>
            <stop stop-color="#02AFEF" offset="50%"></stop>
            <stop stop-color="#01EFC6" offset="100%"></stop>
        </linearGradient>
        <linearGradient x1="100.012602%" y1="49.973979%" x2="0.0861872785%" y2="49.973979%" id="linearGradient-14">
            <stop stop-color="#065FFE" offset="0%"></stop>
            <stop stop-color="#02AFEF" offset="50%"></stop>
            <stop stop-color="#01EFC6" offset="100%"></stop>
        </linearGradient>
        <linearGradient x1="63.2755617%" y1="70.4876151%" x2="38.4714004%" y2="32.1713499%" id="linearGradient-15">
            <stop stop-color="#065FFE" offset="0%"></stop>
            <stop stop-color="#02AFEF" offset="50%"></stop>
            <stop stop-color="#01EFC6" offset="100%"></stop>
        </linearGradient>
        <linearGradient x1="27.2553299%" y1="75.320229%" x2="82.5172589%" y2="1.35127049%" id="linearGradient-16">
            <stop stop-color="#065FFE" offset="0%"></stop>
            <stop stop-color="#02AFEF" offset="50%"></stop>
            <stop stop-color="#01EFC6" offset="100%"></stop>
        </linearGradient>
    </defs>
    <g id="ICON-新版方图标" stroke="none" stroke-width="1" fill="none" fill-rule="evenodd">
        <g id="Symedia.wiki" transform="translate(-0, -0)" fill-rule="nonzero">
            <polygon id="路径" fill="url(#linearGradient-1)" points="1.00347049e-12 1024 6.95061179e-16 2.0154705e-11 1024 3.55331615e-15 1024 1024"></polygon>
            <g id="WIKI" transform="translate(179.1757, 780.4828)">
                <g id="形状">
                    <use fill="#FE042C" xlink:href="#path-3"></use>
                    <use fill="url(#linearGradient-2)" xlink:href="#path-3"></use>
                </g>
                <g id="形状">
                    <use fill="#FE042C" xlink:href="#path-5"></use>
                    <use fill="url(#linearGradient-4)" xlink:href="#path-5"></use>
                </g>
                <g id="形状">
                    <use fill="#FE042C" xlink:href="#path-7"></use>
                    <use fill="url(#linearGradient-6)" xlink:href="#path-7"></use>
                </g>
                <g id="形状">
                    <use fill="#FE042C" xlink:href="#path-8"></use>
                    <use fill="url(#linearGradient-4)" xlink:href="#path-8"></use>
                </g>
            </g>
            <g id="编组" transform="translate(214, 94)">
                <g id="路径">
                    <path d="M337.961556,307.754785 C326.174341,307.754785 314.018775,310.728346 303.336612,316.303772 C289.339294,323.737673 273.500224,327.826319 257.661153,327.826319 C203.145284,327.826319 159.311578,283.222911 159.311578,228.583736 C159.311578,173.944562 203.513634,129.341154 257.661153,129.341154 C274.236924,129.341154 290.444345,133.4298 304.810013,141.235396 L412,203.680167 L412,75.0736748 C412,17.4609399 350.117121,-18.5934813 300.758158,10.0270386 L37.0192222,163.5371 C-12.3397407,192.529315 -12.3397407,264.638158 37.0192222,293.258678 L300.389808,446.768739 C349.748771,475.760954 411.63165,439.706533 411.63165,381.722103 L411.63165,378.748542 C410.158248,339.348866 377.375056,307.754785 337.961556,307.754785 Z" fill="#000000"></path>
                    <path d="M337.961556,307.754785 C326.174341,307.754785 314.018775,310.728346 303.336612,316.303772 C289.339294,323.737673 273.500224,327.826319 257.661153,327.826319 C203.145284,327.826319 159.311578,283.222911 159.311578,228.583736 C159.311578,173.944562 203.513634,129.341154 257.661153,129.341154 C274.236924,129.341154 290.444345,133.4298 304.810013,141.235396 L412,203.680167 L412,75.0736748 C412,17.4609399 350.117121,-18.5934813 300.758158,10.0270386 L37.0192222,163.5371 C-12.3397407,192.529315 -12.3397407,264.638158 37.0192222,293.258678 L300.389808,446.768739 C349.748771,475.760954 411.63165,439.706533 411.63165,381.722103 L411.63165,378.748542 C410.158248,339.348866 377.375056,307.754785 337.961556,307.754785 Z" fill="#000000"></path>
                    <path d="M337.961556,307.754785 C326.174341,307.754785 314.018775,310.728346 303.336612,316.303772 C289.339294,323.737673 273.500224,327.826319 257.661153,327.826319 C203.145284,327.826319 159.311578,283.222911 159.311578,228.583736 C159.311578,173.944562 203.513634,129.341154 257.661153,129.341154 C274.236924,129.341154 290.444345,133.4298 304.810013,141.235396 L412,203.680167 L412,75.0736748 C412,17.4609399 350.117121,-18.5934813 300.758158,10.0270386 L37.0192222,163.5371 C-12.3397407,192.529315 -12.3397407,264.638158 37.0192222,293.258678 L300.389808,446.768739 C349.748771,475.760954 411.63165,439.706533 411.63165,381.722103 L411.63165,378.748542 C410.158248,339.348866 377.375056,307.754785 337.961556,307.754785 Z" fill="url(#linearGradient-9)"></path>
                    <path d="M136.105498,105.924365 C136.105498,105.924365 101.480554,211.857458 181.412606,291.400202 C181.412606,291.400202 159.311578,262.779682 159.311578,228.583736 C159.311578,173.944562 203.513634,129.341154 257.661153,129.341154 C274.236924,129.341154 290.444345,133.4298 304.810013,141.235396 L412,203.680167 L412,75.0736748 C412,17.4609399 350.117121,-18.5934813 300.758158,10.0270386 L136.105498,105.924365 C132.421994,121.535558 130.580241,137.890141 130.580241,154.616419 C130.580241,137.890141 132.421994,121.535558 136.105498,105.924365 Z" fill="url(#linearGradient-10)"></path>
                    <path d="M312.545373,412.944488 L53.2266428,262.407987 C22.2852034,244.194929 10.4979884,209.255593 18.6016987,178.776598 C-11.2346893,212.600849 -4.97273134,268.726803 37.3875726,293.258678 L300.758158,446.768739 C347.907018,474.274174 406.474743,442.680093 411.63165,389.899394 C390.635673,420.750085 348.275369,434.131107 312.545373,412.944488 Z" fill="url(#linearGradient-11)"></path>
                    <path d="M194.304873,152.757943 C194.304873,152.757943 247.34734,98.862159 411.63165,105.180975 L412,204.051862 L304.810013,141.607091 C304.441663,141.607091 250.662494,107.411145 194.304873,152.757943 Z" fill="url(#linearGradient-12)"></path>
                </g>
                <g transform="translate(181, 157)" id="路径">
                    <path d="M74.4067948,149.063767 C86.1940098,149.063767 98.3495753,146.092042 109.031739,140.520059 C123.029057,133.090747 138.868127,129.004626 154.707197,129.004626 C208.854716,129.004626 253.056772,173.580494 253.056772,228.185933 C253.056772,282.791371 208.854716,327.367239 154.707197,327.367239 C138.131426,327.367239 121.924005,323.281118 107.558337,315.480341 L0.368350469,253.074126 L0.368350469,381.972678 C0.368350469,439.549841 62.2512293,475.582001 111.610192,446.979152 L374.980778,293.563873 C424.339741,264.589558 424.339741,192.525238 374.980778,163.922389 L111.610192,10.5071097 C62.2512293,-18.4672046 0.368350469,17.5649555 0.368350469,75.5135842 L0.368350469,78.4853087 C1.84175235,117.489193 34.6249441,149.063767 74.4067948,149.063767 Z" fill="#000000"></path>
                    <path d="M74.4067948,149.063767 C86.1940098,149.063767 98.3495753,146.092042 109.031739,140.520059 C123.029057,133.090747 138.868127,129.004626 154.707197,129.004626 C208.854716,129.004626 253.056772,173.580494 253.056772,228.185933 C253.056772,282.791371 208.854716,327.367239 154.707197,327.367239 C138.131426,327.367239 121.924005,323.281118 107.558337,315.480341 L0.368350469,253.074126 L0.368350469,381.972678 C0.368350469,439.549841 62.2512293,475.582001 111.610192,446.979152 L374.980778,293.563873 C424.339741,264.589558 424.339741,192.525238 374.980778,163.922389 L111.610192,10.5071097 C62.2512293,-18.4672046 0.368350469,17.5649555 0.368350469,75.5135842 L0.368350469,78.4853087 C1.84175235,117.489193 34.6249441,149.063767 74.4067948,149.063767 Z" fill="#000000"></path>
                    <path d="M74.4067948,149.063767 C86.1940098,149.063767 98.3495753,146.092042 109.031739,140.520059 C123.029057,133.090747 138.868127,129.004626 154.707197,129.004626 C208.854716,129.004626 253.056772,173.580494 253.056772,228.185933 C253.056772,282.791371 208.854716,327.367239 154.707197,327.367239 C138.131426,327.367239 121.924005,323.281118 107.558337,315.480341 L0.368350469,253.074126 L0.368350469,381.972678 C0.368350469,439.549841 62.2512293,475.582001 111.610192,446.979152 L374.980778,293.563873 C424.339741,264.589558 424.339741,192.525238 374.980778,163.922389 L111.610192,10.5071097 C62.2512293,-18.4672046 0.368350469,17.5649555 0.368350469,75.5135842 L0.368350469,78.4853087 C1.84175235,117.489193 34.6249441,149.063767 74.4067948,149.063767 Z" fill="url(#linearGradient-13)"></path>
                    <path d="M281.419759,302.107581 C281.419759,318.823531 279.578006,335.168016 275.894502,350.76957 C275.894502,350.76957 310.519446,244.901883 230.587394,165.408252 C230.587394,165.408252 252.688422,194.0111 252.688422,228.185933 C252.688422,282.791371 208.486366,327.367239 154.338847,327.367239 C137.763076,327.367239 121.555655,323.281118 107.189987,315.480341 L0,253.074126 L0,381.972678 C0,439.549841 61.8828789,475.582001 111.241842,446.979152 L275.526151,351.141036 C279.578006,335.168016 281.419759,318.823531 281.419759,302.107581" fill="url(#linearGradient-14)"></path>
                    <path d="M99.4546267,43.9390109 L358.773357,194.382566 C389.714797,212.584379 401.502012,247.502142 393.398301,277.962319 C423.234689,244.158952 416.972731,188.067651 374.612427,163.550924 L111.241842,10.1356441 C64.0929817,-17.3528079 5.52525704,14.2217654 0.368350469,66.9698761 C21.3643272,36.1382339 63.7246312,23.136939 99.4546267,43.9390109 Z" fill="url(#linearGradient-15)"></path>
                    <path d="M218.063478,303.964909 C218.063478,303.964909 165.02101,357.827416 0.736700939,351.512501 L0.368350469,252.70266 L107.558337,315.108876 C107.558337,315.108876 161.337506,349.283708 218.063478,303.964909 Z" fill="url(#linearGradient-16)"></path>
                </g>
            </g>
        </g>
    </g>
</svg>