<svg xmlns="http://www.w3.org/2000/svg" width="1024" height="1024"><defs><radialGradient id="b" cx="9.486%" cy="50%" r="90.516%" fx="9.486%" fy="50%" gradientTransform="matrix(.99998 -.0058 .02278 2.71089 -.011 -.855)"><stop offset="0%" stop-color="#3CCBFD" stop-opacity=".642"/><stop offset="49.778%" stop-color="#5363E9"/><stop offset="100%" stop-color="#6C49E0"/></radialGradient><linearGradient id="a" x1="98.544%" x2="9.417%" y1="66.593%" y2="59.916%"><stop offset="0%" stop-color="#763FDD"/><stop offset="68.452%" stop-color="#763FDD"/><stop offset="100%" stop-color="#664BE2"/></linearGradient></defs><g fill="none" fill-rule="evenodd"><path fill="#031133" d="M0 0h1024v1024H0z"/><path fill="url(#a)" d="M748.102 219.947c66.52 79.845 100.89 121.186 103.108 124.023 1.643 2.104 2.553 5.946 1.067 8.63-1.522 2.748-5.49 4.316-8.253 4.455-21.38 1.075-185.952 0-222.98 0-4.266 0-6.72-4.145-6.93-4.454-.277-.405-2.797-3.599 0-7.608 8.091-9.673 42.768-51.355 104.029-125.046 4.787-6.283 9.697-9.425 14.73-9.425 5.034 0 10.11 3.142 15.229 9.425" transform="matrix(1 0 0 -1 0 568.055)"/><path fill="url(#a)" d="M748.102 670.947c66.52 79.845 100.89 121.186 103.108 124.023 1.643 2.104 2.553 5.946 1.067 8.63-1.522 2.748-5.49 4.316-8.253 4.455-21.38 1.075-185.952 0-222.98 0-4.266 0-6.72-4.145-6.93-4.454-.277-.405-2.797-3.599 0-7.608 8.091-9.673 42.768-51.355 104.029-125.046 4.787-6.283 9.697-9.425 14.73-9.425 5.034 0 10.11 3.142 15.229 9.425"/><path fill="url(#b)" d="M184 211h223c14.543-.257 27.08 2.193 37.612 7.352 10.532 5.159 20.01 13.492 28.436 25l181.955 223.623c8.202 9.024 12.303 18.553 12.303 28.587 0 10.033-4.1 20.133-12.303 30.298L474.151 751.493c-15.707 19.993-26.813 33.03-33.32 39.11-15.473 14.457-29.045 17.93-33.831 17.93-73.255.113-147.588.27-223 .467-9.259.44-13.888-2.291-13.888-8.193 0-2.979 2.556-7.456 13.61-20.45 42.935-56.834 165.875-219.523 193.633-255.8 10.359-15.613 11.09-26.347 11.09-28.995 0-2.897-.878-12.34-15.937-31.242C338.154 424.833 191.486 246.7 184 237.486c-12.6-14.6-13.153-15.8-12.736-20.854.883-5.085 8.772-5.632 12.736-5.632"/></g></svg>