<svg xmlns="http://www.w3.org/2000/svg" width="1029" height="1024"><g fill="none" fill-rule="nonzero"><path fill="#25A7E7" d="M514.784 1024h512.95l.327-1024H.398v1024h514.386"/><path fill="#C8DAEA" d="m321.573 587.282 70.34 194.48s8.793 18.196 18.21 18.196c9.417 0 149.478-145.551 149.478-145.551l155.753-300.51L324.082 537.08l-2.51 50.202"/><path fill="#A9C6D8" d="m415.347 637.217-13.434 143.235s-5.623 43.888 38.115 0c43.738-43.889 85.603-77.732 85.603-77.732"/><path fill="#FFF" d="m322.93 594.961-144.537-47.086s-17.274-7.007-11.712-22.897c1.145-3.276 3.455-6.064 10.365-10.856 32.025-22.32 592.765-223.835 592.765-223.835s15.833-5.334 25.17-1.786a13.65 13.65 0 0 1 9.304 10.14 46.167 46.167 0 0 1 1.254 12.757c-.045 3.71-.494 7.15-.835 12.544-3.415 55.095-105.616 466.287-105.616 466.287s-6.115 24.062-28.023 24.886a40.128 40.128 0 0 1-29.242-11.31c-42.992-36.976-191.586-136.823-224.42-158.782a6.267 6.267 0 0 1-2.695-4.441c-.46-2.314 2.058-5.181 2.058-5.181s258.74-229.954 265.626-254.094c.533-1.87-1.481-2.793-4.186-1.974-17.185 6.321-315.093 194.424-347.972 215.184a15.845 15.845 0 0 1-7.304.444"/></g></svg>