<svg xmlns="http://www.w3.org/2000/svg" width="1024" height="1024"><g fill="none" fill-rule="evenodd"><path fill="#FFF" d="M0 0h1024v1024H0z"/><g fill-rule="nonzero"><path fill="#2B65F4" d="M701.593 177H281.056c-22.726.333-43.373 9.677-58.396 24.717-13.659 13.675-22.667 32.059-24.36 52.658l-36.028 515.797a71.173 71.173 0 0 0 18.766 54.669 71.148 71.148 0 0 0 53.146 22.706h515.592c43.389-.623 79.2-34.118 82.726-77.375l28.829-412.212L701.593 177"/><path fill="#00DBFE" d="M766.934 357.681H862L702.195 177l-7.232 103.454a71.007 71.007 0 0 0 18.806 54.567 71.273 71.273 0 0 0 53.165 22.66"/><path fill="#FFF" d="M642.255 324.228H246.678c-10.14.012-19.335 5.945-23.504 15.166a25.706 25.706 0 0 0 4.162 27.613l101.87 115.125a25.874 25.874 0 0 0 19.341 8.73h383.938c10.14-.012 19.334-5.945 23.503-15.166a25.706 25.706 0 0 0-4.162-27.613L642.255 324.228"/><path fill="#FFF" d="m493.065 219.284-88.14 628.27h206.076l67.634-482.177-140.743-159.56a25.736 25.736 0 0 0-26.729-7.652 25.762 25.762 0 0 0-18.098 21.119"/></g></g></svg>