<svg xmlns="http://www.w3.org/2000/svg" width="1025" height="1024"><g fill="none" fill-rule="evenodd"><path fill="#FFF" d="M.633 0h1024v1024H.633z"/><g fill-rule="nonzero"><path fill="#00A3FF" d="M808.042 695.69a114.02 114.02 0 0 1-84.816 33.447l-273.409.72c84.816-81.455 151.067-152.027 158.429-155.548a377.748 377.748 0 0 1 36.886-33.366c29.366-33.366 55.21-37.127 81.215-37.207a108.74 108.74 0 0 1 81.374 33.126c44.408 40.568 44.568 118.101 0 158.829h.32m54.89-210.677c-33.367-33.126-81.455-58.89-129.464-58.731-48.008.16-84.575 18.724-118.181 41.128-11.042 11.202-33.126 26.005-48.009 48.009C548.955 526.46 276.346 804.27 276.346 804.27l402.712-.8a297.813 297.813 0 0 0 62.732-3.84 213.078 213.078 0 0 0 118.1-52.17c70.013-74.093 69.693-192.034 3.041-262.287v-.16"/><path fill="#00C8DC" d="M408.85 467.41a184.673 184.673 0 0 0-114.58-36.647 165.71 165.71 0 0 0-129.624 59.771c-70.892 75.144-69.047 193.078 4.161 265.968 29.605 29.498 62.891 44.194 99.858 44.088l73.693-70.493h-40.407a151.307 151.307 0 0 1-85.135-32.886c-44.408-44.168-44.568-114.34 0-162.509a103.378 103.378 0 0 1 80.814-33.446c22.244 0 44.328 3.6 74.013 33.126 11.202 14.643 44.408 36.806 55.53 51.53h3.681l44.248-51.85c-14.723-18.643-51.85-47.849-66.252-66.652"/><path fill="#006EFF" d="M744.43 381.875c-33.526-95.938-129.703-162.51-233.162-161.87-125.622.32-225.08 92.977-246.924 211.158 7.362 0 18.404-3.68 29.526-3.68s29.525 3.6 40.647 3.52c17.18-79.93 87.794-137.048 169.55-137.144 69.633-.153 133.07 39.986 162.75 102.978 0 0 3.76 3.681 3.68 0 25.925-3.68 51.77-14.882 73.933-14.962"/></g></g></svg>