<svg xmlns="http://www.w3.org/2000/svg" width="1025" height="1024"><g fill="none" fill-rule="evenodd"><path fill="#FFF" d="M.633 0h1024v1024H.633z"/><g fill="#1677FF"><path d="M539.133 557c2.824 28.938-10.01 49.604-38.5 62-20.573 8.951-64.284 15.743-99.5 2-37.935-14.804-66.02-51.122-75-67-9.664-17.087-28.868-73.114-23.5-129 4.25-44.253 28.263-88.335 48-113.5 21.012-26.79 75-75.441 138.5-93.5 71.478-20.327 153.255-8.038 180 0 110.41 33.182 165.695 110.868 184 138.5 39.325 59.361 54.864 128.785 57 156.5 1.967 25.521 1.781 83.248-18 137.5-23.561 64.62-71.323 127.793-126.5 174-67.666 56.667-143.166 84-226.5 82 67.667-15.667 136.834-60.833 207.5-135.5 25.566-27.013 60.548-89.856 70.5-152 8.095-50.547-5.695-101.797-11.5-123.5-10.394-38.864-40.188-97.256-77-132.5-44.646-42.744-99.964-58.964-148-61.5-39.02-2.06-125.888 19.125-167.5 77.5-10.229 14.35-30.273 74.928-21 116.5 9.49 42.542 48.575 65.989 62 71.5 17.696 7.265 46.03 3.931 85-10"/><path d="M485.507 467.505c-2.824-28.937 10.01-49.604 38.5-62 20.573-8.95 64.284-15.743 99.5-2 37.935 14.804 66.02 51.122 75 67 9.664 17.087 28.868 73.114 23.5 129-4.25 44.253-28.263 88.336-48 113.5-21.012 26.79-75 75.442-138.5 93.5-71.478 20.327-153.255 8.038-180 0-110.41-33.182-165.695-110.868-184-138.5-39.325-59.361-54.864-128.785-57-156.5-1.967-25.52-1.781-83.248 18-137.5 23.561-64.62 71.323-127.793 126.5-174 67.666-56.666 143.166-84 226.5-82-67.667 15.667-136.834 60.834-207.5 135.5-25.566 27.014-60.548 89.857-70.5 152-8.095 50.547 5.695 101.797 11.5 123.5 10.394 38.865 40.188 97.257 77 132.5 44.646 42.744 99.964 58.964 148 61.5 39.02 2.06 125.888-19.125 167.5-77.5 10.229-14.35 30.273-74.928 21-116.5-9.49-42.541-48.575-65.988-62-71.5-17.696-7.265-46.03-3.931-85 10"/></g></g></svg>