<svg xmlns="http://www.w3.org/2000/svg" xmlns:xlink="http://www.w3.org/1999/xlink" width="1024" height="1024"><defs><path id="a" d="M0 0h1024v1024H0z"/><path id="c" d="M462 394.2V537h52.2c23.2 0 40.6-6.4 52.6-19.2 11.4-12.2 17.2-29.6 17.2-52.2 0-22.8-5.8-40.2-17.2-52.2-12-12.8-29.4-19.2-52.6-19.2zm23.4 20h24.4c17.8 0 30.8 4 39 12.2 8 8 12 21.2 12 39.2 0 17.6-4 30.6-12 39-8.2 8.2-21.2 12.4-39 12.4h-24.4zm150.6-20V537h65.6c15.2 0 27.2-2.8 35.6-8.4 9.8-6.8 14.8-17.4 14.8-31.8 0-9.6-2.4-17.4-7-23-4.8-5.8-11.8-9.6-21.2-11.4 7.2-2.8 12.6-6.6 16.4-11.8 3.8-5.6 5.8-12.4 5.8-20.4 0-10.8-3.8-19.4-11.2-25.8-8-6.8-19.2-10.2-33.4-10.2zm23.4 19.2h36.2c9.6 0 16.4 1.6 20.8 4.8 4 3 6.2 8 6.2 14.8 0 7.4-2.2 12.8-6.2 16.2-4.2 3.2-11.2 5-21.2 5h-35.8zm0 60h39.4c10.4 0 18 1.8 22.8 5.4 4.6 3.6 7 9.4 7 17.6 0 8-3.2 13.6-9.6 17.2-5 2.8-12 4.2-20.8 4.2h-38.8zM372 198.2 422.8 341H451l50.8-142.8h-25.4l-39.2 116.4h-.6l-39.2-116.4zm184.8 0V341h23.4V198.2zm86.4 0V341h106.4v-20h-83v-43.2h74.8v-20h-74.8v-39.6h79.6v-20zm-633.2-2V339h23.4v-98.4h.8l42 98.4h20.2l42-98.4h.8V339h23.4V196.2h-27.4l-48.4 112H86l-48.6-112zM0 .2v20h46.8V143h23.4V20.2H117V.2zm160 0V143h23.4V79.8h72.4V143h23.4V.2h-23.4v59.6h-72.4V.2zm166.2 0V143h106.4v-20h-83V79.8h74.8v-20h-74.8V20.2h79.6V.2zm2.483 395.8C387.424 396 414 443 414 467s-19.582 72-85.316 72H95.12c-47.552-1-81.12-31-81.12-71s27.973-71 81.12-72h233.564M276 344c41.421 0 75-33.579 75-75s-33.579-75-75-75-75 33.579-75 75 33.579 75 75 75M689 0c42 0 61.001 47 61.001 71S736 143 689 143H522c-34-1-58.001-31-58.001-71S484 1 522 0z"/><linearGradient id="d" x1="0%" x2="100%" y1="50%" y2="50%"><stop offset="0%" stop-color="#8DCDA8"/><stop offset="48.232%" stop-color="#8DCDA8"/><stop offset="100%" stop-color="#05B3E1"/></linearGradient></defs><g fill="none" fill-rule="evenodd"><mask id="b" fill="#fff"><use xlink:href="#a"/></mask><use xlink:href="#a" fill="#032541"/><g mask="url(#b)"><g transform="translate(160 249)"><mask id="e" fill="#fff"><use xlink:href="#c"/></mask><use xlink:href="#c" fill="#2F2E2E" fill-rule="nonzero"/><path fill="url(#d)" d="M-158-250H866V774H-158z" mask="url(#e)"/></g></g></g></svg>