<svg xmlns="http://www.w3.org/2000/svg" width="1024" height="1024"><defs><linearGradient id="a" x1="76.72%" x2="18.306%" y1="41.305%" y2="66.065%"><stop offset="0%" stop-color="#797BEB"/><stop offset="100%" stop-color="#373080"/></linearGradient></defs><g fill="none" fill-rule="evenodd"><path fill="#FFF" d="M0 0h1024v1024H0z"/><path fill="url(#a)" fill-rule="nonzero" d="M371.836 0c7.206 0 14.2 3.88 18.014 10.347l41.963 73.288H617.89c7.206 0 14.2 3.88 18.014 10.347l52.772 91.826c3.814 6.467 3.814 14.658 0 21.125l-1.06 1.724c-.848 1.293-1.908 2.587-3.18 3.665l-41.75 72.857 92.403 161.666 2.331 3.45c2.755 6.466 3.391 14.657 1.484 20.477l-48.533 84.497c-3.815 6.467-10.597 10.347-18.014 10.347l-84.138.431-92.826 163.175c-3.815 6.467-10.597 10.347-18.014 10.347l-105.12.431h-1.483c-6.781-.431-13.351-4.311-16.742-10.347l-45.142-78.677H125.146c-1.483.43-2.755.43-4.238.43-7.206 0-14.2-3.88-18.015-10.346l-48.532-84.497c-3.815-6.251-3.815-14.227 0-20.91l41.75-73.719-93.25-162.96c-3.815-6.25-3.815-14.226 0-20.908l51.924-92.258c3.39-6.466 10.384-10.346 18.014-10.346 1.907-.431 3.39 0 4.874.43h86.045l91.979-161.665c.424-1.294.636-2.371 1.271-3.234l.424-.646C261.207 3.88 267.99 0 275.407 0h96.641-.212m-97.913 22.418-99.82 175.246H71.95l198.793 347.69H169.44l-48.956 86.006h199.429l50.863 89.24L569.57 372.048l50.864 88.808 98.125-.43-100.032-175.247 50.44-88.377-396.314.43 50.863-88.808-49.38-86.006h-.212M489.035 303.07 370.14 511.08 251.246 303.07h237.789" transform="translate(142 142)"/></g></svg>