<svg xmlns="http://www.w3.org/2000/svg" width="1025" height="1024"><g fill="none" fill-rule="evenodd"><path fill="#FFF" d="M.398 0h1024v1024H.398z"/><path fill="#000" fill-rule="nonzero" d="M183.457 744.88c-.64 0-1.52-.26-2.64-.78s-2.04-.7-2.76-.54l-12.36 3.36v63.12c0 2.32.56 4.84 1.68 7.56.32.8.24 2.32-.24 4.56-.48 2.48-1.24 4.04-2.28 4.68-.16.08-.56.12-1.2.12-2.64 0-6.32-.52-11.04-1.56-5.28-1.2-8.4-2.36-9.36-3.48-1.12-1.44-1.08-3.36.12-5.76 1.04-2.08 1.56-3.6 1.56-4.56v-59.4l-8.52 2.16c-.4.08-1.06.42-1.98 1.02-.92.6-1.7.82-2.34.66-1.84-.48-4.36-2.86-7.56-7.14-3.2-4.28-4.6-7.18-4.2-8.7.64-1.84 2.52-3.24 5.64-4.2.8-.24 1.84-.28 3.12-.12 1.28.16 2.28.16 3 0l41.76-10.68c.4-.08 1.56-.56 3.48-1.44 1.28-.56 2.44-.76 3.48-.6 2.24.32 3.76 1.2 4.56 2.64.56.96 1.16 2.76 1.8 5.4.8 3.12 1.2 5.84 1.2 8.16 0 1.76-.22 3.1-.66 4.02-.44.92-1.86 1.42-4.26 1.5m83.32-10.8c.08-.88.12 6.76.12 22.92 0 45.6-6.36 69.12-19.08 70.56-2.24.24-4.94-.16-8.1-1.2-3.16-1.04-6.26-2.08-9.3-3.12-2.64-.64-5.3-1.34-7.98-2.1-2.68-.76-4.78-1.98-6.3-3.66-3.28-3.6-5.92-11.44-7.92-23.52-1.76-11.12-2.64-23.44-2.64-36.96 0-10.4.56-19.56 1.68-27.48.32-2.48 1.48-4.08 3.48-4.8.88-.32 3.94.24 9.18 1.68s8.3 2.68 9.18 3.72c.4.48.6 1.12.6 1.92 0 1.04-.4 2.46-1.2 4.26-.8 1.8-1.16 3.22-1.08 4.26-.4 1.52-.6 5.92-.6 13.2 0 14.08.64 26.84 1.92 38.28 1.6 14.72 3.92 21.92 6.96 21.6 3.84-.4 6.72-7.4 8.64-21 1.52-10.48 2.28-22.84 2.28-37.08 0-9.36-.28-15.24-.84-17.64.16-1.36 0-2.68-.48-3.96-.72-1.76-1.08-2.72-1.08-2.88-.48-2.72.4-4.76 2.64-6.12.4-.24 1.08-.36 2.04-.36 2.4 0 5.76.6 10.08 1.8 4.32 1.2 6.84 2.2 7.56 3 .48.56.56 2.12.24 4.68m77.2 1.92c-.16 1.28-.72 2.64-1.68 4.08-1.2 1.68-2.56 2.6-4.08 2.76-.56.08-1.28-.06-2.16-.42-.88-.36-1.56-.54-2.04-.54-1.44 0-4.88 1.16-10.32 3.48-5.92 2.48-10.2 4.76-12.84 6.84v21.96c.4-.16 2.28-1.28 5.64-3.36 2.24-1.36 4.04-2.08 5.4-2.16 1.44-.08 4.12 2.16 8.04 6.72 3.92 4.56 5.8 7.6 5.64 9.12-.16 1.44-.96 2.88-2.4 4.32-1.12 1.12-2.24 1.84-3.36 2.16-.48.16-1.12.06-1.92-.3-.8-.36-1.36-.54-1.68-.54-.24 0-.48.08-.72.24-2.32.96-4.36 1.84-6.12 2.64-4.4 2-7.24 3.64-8.52 4.92v17.52c0 .72.42 1.58 1.26 2.58.84 1 1.26 2.06 1.26 3.18-.16 4.48-2.28 7.16-6.36 8.04-4.48-2.08-8.28-4.36-11.4-6.84-3.44-2.8-5.16-5.24-5.16-7.32v-79.32c0-1.28-.46-2.58-1.38-3.9-.92-1.32-1.3-2.3-1.14-2.94.24-1.28 1-2.5 2.28-3.66 1.28-1.16 2.72-1.82 4.32-1.98.72-.08 2.92 1.06 6.6 3.42 3.68 2.36 6.12 3.66 7.32 3.9l13.2-5.4c1.04-.8 2.84-1.72 5.4-2.76 2-.24 5.36 1.54 10.08 5.34s7 6.54 6.84 8.22m120.08 46.08c-.24 3.2-1.64 5.24-4.2 6.12-.48.08-1.04-.06-1.68-.42-.64-.36-1.16-.54-1.56-.54-.48 0-1 .12-1.56.36-3.12 11.92-5.56 19.92-7.32 24-3.2 7.6-7.36 12.56-12.48 14.88-1.36.64-2.76.96-4.2.96-1.44 0-5-1.04-10.68-3.12-2.16-.56-5.56-1.72-10.2-3.48-4.64-2.24-8.24-7.4-10.8-15.48-2.32-7.36-3.48-16.12-3.48-26.28 0-13.2 1.84-24.96 5.52-35.28 4-11.28 9.28-17.6 15.84-18.96.56-.08 1.2-.12 1.92-.12 4 0 8.88 1.28 14.64 3.84 6.16 2.72 10.32 5.72 12.48 9 1.76 2.64 2.92 6 3.48 10.08.72 4.64 1.16 7.16 1.32 7.56.24 1.36.56 3 .96 4.92.08 1.04-.32 2.26-1.2 3.66-.88 1.4-1.72 2.26-2.52 2.58-1.04.4-4.16-.18-9.36-1.74-5.2-1.56-8.32-2.78-9.36-3.66-1.44-.96-2.04-2.84-1.8-5.64 0-.4.2-.9.6-1.5.4-.6.6-1.14.6-1.62 0-5.68-.64-8.52-1.92-8.52-2.72-.08-5.12 4.48-7.2 13.68-1.92 8.64-2.88 18.08-2.88 28.32 0 15.2 2.12 23.92 6.36 26.16 1.28.64 3.02-1.56 5.22-6.6 2.2-5.04 3.5-9.76 3.9-14.16-1.28-.96-3.72-2.2-7.32-3.72-2.88-1.2-4.44-2.24-4.68-3.12-.32-1.2.08-2.9 1.2-5.1 1.12-2.2 2.3-3.62 3.54-4.26 1.24-.64 2.98-1 5.22-1.08 3.04 0 4.88-.08 5.52-.24 1.36-.24 3.56-.92 6.6-2.04 2.48-.96 4.36-1.44 5.64-1.44.48 0 .92.04 1.32.12 2 .4 4.94 2.2 8.82 5.4s5.78 5.36 5.7 6.48m83.8 36c-.08.72-.24 2.44-.48 5.16-.08 1.44-.4 2.52-.96 3.24-.4.24-1.08.36-2.04.36-2.64 0-5.92-.68-9.84-2.04-4.24-1.28-7.12-2.8-8.64-4.56-.64-.72-1.28-3.12-1.92-7.2-.88-5.36-1.88-9.8-3-13.32-3.04.4-7.48 1.5-13.32 3.3-5.84 1.8-9.64 3.3-11.4 4.5-1.2 3.44-2.8 7.68-4.8 12.72-.24 1.12-.5 2.18-.78 3.18s-.98 1.82-2.1 2.46c-.24.16-.6.24-1.08.24-1.92 0-5.14-1-9.66-3-4.52-2-6.86-3.32-7.02-3.96-.32-1.12.44-3.88 2.28-8.28 2.56-6.4 4.04-10.32 4.44-11.76-1.68-1.68-2.52-3.36-2.52-5.04 0-.4.04-.84.12-1.32.16-.96 2.6-2.68 7.32-5.16l15.48-52.92c.24-.96.28-2.72.12-5.28-.16-2.16.08-3.52.72-4.08.4-.4 1.36-.6 2.88-.6 3.76 0 9.12.96 16.08 2.88 6.96 1.92 11.12 3.64 12.48 5.16.48 8.88 2.28 22.2 5.4 39.96 4 21.92 8.08 37.04 12.24 45.36m-31.32-36.48c-1.04-5.04-1.68-8.36-1.92-9.96-.88-5.36-1.48-10.92-1.8-16.68-1.6 3.92-3.48 9.36-5.64 16.32-2.32 7.28-3.56 11.84-3.72 13.68 1.52-.64 5.88-1.76 13.08-3.36m157.36 39.96c-.56 3.44-1.52 5.32-2.88 5.64-1.92.48-5.6-.04-11.04-1.56-5.76-1.6-9.04-3.2-9.84-4.8a4.52 4.52 0 0 1-.36-1.8c0-.48.1-1.26.3-2.34.2-1.08.3-1.98.3-2.7v-54.48c-3.76 7.36-8.68 23.92-14.76 49.68-.08.32-.12.68-.12 1.08 0 .8.14 2.08.42 3.84.28 1.76.42 2.88.42 3.36-.08 2.48-.2 4.08-.36 4.8-.4 1.6-1.24 2.56-2.52 2.88-.8.24-2.2.36-4.2.36-10.4 0-17.56-1.8-21.48-5.4-.64-.56-.88-1.56-.72-3 .16-1.76.16-2.92 0-3.48-2.96-9.12-5.6-17.12-7.92-24-5.6-16.64-9.24-26.44-10.92-29.4V808c0 1.04.32 2.48.96 4.32.8 2.24 1.24 3.64 1.32 4.2.32 1.6.4 3.52.24 5.76-.16 2.72-.72 4.4-1.68 5.04-.48.32-1.4.48-2.76.48-2.96 0-6.48-.52-10.56-1.56-4.4-1.04-7-2.12-7.8-3.24-.4-.56-.6-1.24-.6-2.04 0-.48.14-1.28.42-2.4.28-1.12.42-2 .42-2.64v-85.08c0-.96.4-2.06 1.2-3.3.8-1.24 1.72-2.06 2.76-2.46 1.36-.56 6.6.4 15.72 2.88 9.52 2.48 14.56 4.64 15.12 6.48.24.72.28 1.68.12 2.88-.24 1.68-.36 2.68-.36 3 0 .72.12 1.36.36 1.92l16.2 43.56c2.24-7.12 6.32-21.56 12.24-43.32 2.96-11.12 5.36-16.92 7.2-17.4.56-.16 1.2-.24 1.92-.24 1.36 0 3.64.36 6.84 1.08 3.52.88 5.96 1.36 7.32 1.44 6.32.56 9.96.92 10.92 1.08 3.76.72 5.88 2.04 6.36 3.96.16.56.24 1.16.24 1.8 0 .8-.2 1.94-.6 3.42-.4 1.48-.6 2.58-.6 3.3v73.44c0 .8.5 2 1.5 3.6s1.42 2.8 1.26 3.6m45.16-91.08c0 .56-.18 1.32-.54 2.28-.36.96-.58 1.56-.66 1.8-.48 1.6-.96 4.08-1.44 7.44v73.68c0 .96.24 1.82.72 2.58s.72 1.38.72 1.86c0 5.12-.96 7.88-2.88 8.28-.72.16-3.52-.36-8.4-1.56-5.12-1.28-8.08-2.28-8.88-3-1.76-1.52-2.64-2.92-2.64-4.2 0-.32.16-.68.48-1.08.32-.4.48-1.08.48-2.04v-84.6c0-.48-.14-.98-.42-1.5-.28-.52-.42-1.02-.42-1.5.16-1.92 1.64-3.2 4.44-3.84.88-.16 2.72-.16 5.52 0 3.44.24 6.32.68 8.64 1.32 3.52.96 5.28 2.32 5.28 4.08m88.24 0c0 .88-.16 1.72-.48 2.52-.56 1.36-.92 2.44-1.08 3.24v79.2c0-.24.2 1.24.6 4.44.48 3.68 0 6.08-1.44 7.2s-4.68 1.44-9.72.96c-2.88-.24-6.2-1-9.96-2.28-4.88-1.52-7.56-3.12-8.04-4.8.08-1.12-.04-2.84-.36-5.16-4.48-11.84-9.68-24.84-15.6-39v35.52c0 .64.28 1.48.84 2.52.72 1.36 1.08 2.08 1.08 2.16.4 1.2.6 2.4.6 3.6 0 3.2-1.44 4.8-4.32 4.8-2.8 0-6.76-.8-11.88-2.4-4.8-1.6-7.52-2.84-8.16-3.72-.96-1.28-.96-2.92 0-4.92s1.44-3.24 1.44-3.72V735.4c0-.48-.12-1.2-.36-2.16-.24-.96-.28-1.72-.12-2.28.8-2.72 2.36-4.56 4.68-5.52.4-.16 1.28-.24 2.64-.24 3.12 0 6.32.4 9.6 1.2 4.24.96 7.2 2.32 8.88 4.08 2.24 2.4 5.16 9.72 8.76 21.96 4.4 15.04 7.84 25.2 10.32 30.48v-47.16c0-.64-.16-1.54-.48-2.7-.32-1.16-.48-2.06-.48-2.7 0-.48.08-.92.24-1.32.4-1.36 1.92-2.36 4.56-3 2.08-.56 4.08-.76 6-.6 1.84.16 4.04.6 6.6 1.32 3.68 1.12 5.56 2.36 5.64 3.72m87.52 51.6c-.24 3.2-1.64 5.24-4.2 6.12-.48.08-1.04-.06-1.68-.42-.64-.36-1.16-.54-1.56-.54-.48 0-1 .12-1.56.36-3.12 11.92-5.56 19.92-7.32 24-3.2 7.6-7.36 12.56-12.48 14.88-1.36.64-2.76.96-4.2.96-1.44 0-5-1.04-10.68-3.12-2.16-.56-5.56-1.72-10.2-3.48-4.64-2.24-8.24-7.4-10.8-15.48-2.32-7.36-3.48-16.12-3.48-26.28 0-13.2 1.84-24.96 5.52-35.28 4-11.28 9.28-17.6 15.84-18.96.56-.08 1.2-.12 1.92-.12 4 0 8.88 1.28 14.64 3.84 6.16 2.72 10.32 5.72 12.48 9 1.76 2.64 2.92 6 3.48 10.08.72 4.64 1.16 7.16 1.32 7.56.24 1.36.56 3 .96 4.92.08 1.04-.32 2.26-1.2 3.66-.88 1.4-1.72 2.26-2.52 2.58-1.04.4-4.16-.18-9.36-1.74-5.2-1.56-8.32-2.78-9.36-3.66-1.44-.96-2.04-2.84-1.8-5.64 0-.4.2-.9.6-1.5.4-.6.6-1.14.6-1.62 0-5.68-.64-8.52-1.92-8.52-2.72-.08-5.12 4.48-7.2 13.68-1.92 8.64-2.88 18.08-2.88 28.32 0 15.2 2.12 23.92 6.36 26.16 1.28.64 3.02-1.56 5.22-6.6 2.2-5.04 3.5-9.76 3.9-14.16-1.28-.96-3.72-2.2-7.32-3.72-2.88-1.2-4.44-2.24-4.68-3.12-.32-1.2.08-2.9 1.2-5.1 1.12-2.2 2.3-3.62 3.54-4.26 1.24-.64 2.98-1 5.22-1.08 3.04 0 4.88-.08 5.52-.24 1.36-.24 3.56-.92 6.6-2.04 2.48-.96 4.36-1.44 5.64-1.44.48 0 .92.04 1.32.12 2 .4 4.94 2.2 8.82 5.4s5.78 5.36 5.7 6.48"/><path fill="#040507" d="m806.398 317.93-134 75.07v107l134-73.627z"/><path fill="#DEDBD8" d="M672.398 393v107l54.02-29.672-.02-107.578z"/><path fill="#040507" d="M806.398 182 673.07 257.211 672.398 364l134-73.556z"/><path fill="#DEDBD8" d="M672.398 257v107l53.903-29.579V227.196z"/><path fill="#040507" d="m646.398 270-129 74.166V665l129-73z"/><path fill="#DEDBD8" d="m562.608 318.134-45.21 26.032V665l46.2-25.987z"/><path fill="#040507" d="m357.398 270 127 75v319.343l-127-74.343z"/><path fill="#DEDBD8" d="m431.398 313.68 54 30.32v321l-54-31.25z"/><path fill="#040507" d="m196.398 180 129 72v249l-129-75z"/></g></svg>