<svg xmlns="http://www.w3.org/2000/svg" width="1024" height="1024"><g fill="none" fill-rule="evenodd"><path fill="#FFF" d="M0 0h1024v1024H0z"/><circle cx="512" cy="512.001" r="370" fill="#2674FD"/><path fill="#FFF" d="M512 822c171.208 0 310.001-138.79 310.001-310C515 513.5 515.5 512.75 202 512c0 171.21 138.792 310 310 310"/><circle cx="512" cy="522.001" r="225" fill="#FFF"/><circle cx="512" cy="512.001" r="155" fill="#FFE41F"/><path fill="#FFF" fill-rule="nonzero" d="M608.705 443.091c-8.959 31.134-57.521 45.252-84.849 36.766L506.29 558c-.88 7.12-3.765 13.775-8.755 19.126-14.37 15.41-40.754 14.162-58.93-2.788-18.177-16.95-21.262-43.182-6.892-58.592 14.37-15.41 40.755-14.163 58.93 2.787a52.56 52.56 0 0 1 8.27 9.836l20.887-92.918a6.808 6.808 0 0 1 8.136-5.15l.019.005.057.013c2.026.468 44.879 7.099 80.693 12.771"/></g></svg>