<svg xmlns="http://www.w3.org/2000/svg" width="1024" height="1024"><g fill="none" fill-rule="evenodd"><path fill="#FFF" d="M0 0h1024v1024H0z"/><g fill-rule="nonzero"><path fill="#3497DA" d="M512.002 900.363c0-73.603 0-147.198.01-220.806 0-.893.176-1.782.276-2.667 1.012-2.032 3.144-2.613 4.886-3.62 41.953-24.111 83.81-48.422 125.831-72.429 4.133-2.354 8.011-5.194 12.53-6.868 4.141.944 7.362 3.67 10.855 5.807 26.584 16.295 53.276 32.403 79.869 48.671 30.012 18.377 60.184 36.477 90.116 54.977 1.193.74 2.58 1.293 3.08 2.803-11.573 6.964-23.095 14.004-34.717 20.886-96.304 57.01-192.621 113.982-288.916 171-1.07.636-2.404.985-3.035 2.237-.263.01-.526.01-.785.01"/><path fill="#1BBB9A" d="M185.96 318.304c35.612-21.258 71.213-42.529 106.847-63.746 71.92-42.833 143.859-85.643 215.77-128.485.948-.567 2.223-.816 2.65-2.073h.775l-.004 219.45c0 1.292-.055 2.58-.091 3.873-.549 1.302-1.774 1.801-2.885 2.45-33.82 19.634-67.756 39.059-101.62 58.62-10.62 6.128-21.326 12.103-31.855 18.395-1.992 1.198-3.979 2.404-6.247 3.021-2.264.381-3.96-.875-5.73-1.95a59350.044 59350.044 0 0 0-148.413-89.622c-8.964-5.39-17.969-10.715-26.81-16.317-1.257-.794-3.398-1.23-2.386-3.616"/><path fill="#19B4FD" d="M839.455 706.24c-16.522-9.998-33.062-19.969-49.57-30.008-29.486-17.919-58.955-35.874-88.428-53.82-15.288-9.309-30.567-18.627-45.85-27.944-1.615-1.897-1.039-4.197-1.039-6.324-.031-49.56-.1-99.116.091-148.663.018-5.117-1.783-7.912-6.101-10.398-38.229-22.01-76.226-44.42-114.332-66.64-5.81-3.388-11.645-6.732-17.429-10.175-1.42-.848-3.03-1.524-3.801-3.18-.685-2.195 1.415-2.177 2.422-2.749 25.268-14.367 50.577-28.666 75.885-42.978 37.009-20.913 74.021-41.817 110.984-62.807 2.173-1.23 3.693-1.329 5.888.032a47450.338 47450.338 0 0 0 130.894 80.966c2.15 1.325 2.949 2.695 2.931 5.221-.418 59.763-.744 119.517-1.094 179.27-.24 41.654-.471 83.303-.766 124.943-.182 25.082-.454 50.168-.685 75.255"/><path fill="#36D6B6" d="M369.15 429.129c-1.025 1.379-.69 2.976-.69 4.495.037 52.106.114 104.22.073 156.316-.004 2.976.903 4.6 3.493 6.097 45.555 26.511 91.046 53.122 136.56 79.696.772.458 1.624.749 2.441 1.116.594 2.178-1.46 2.187-2.49 2.763-37.435 21.235-74.906 42.41-112.363 63.587-24.864 14.058-49.747 28.071-74.552 42.238-2.268 1.293-3.765 1.13-5.879-.186a49243.654 49243.654 0 0 0-130.617-80.734c-2.44-1.497-3.144-3.162-3.126-5.916.413-60.924.73-121.853 1.08-182.772.231-40.615.48-81.23.744-121.844.159-23.925.358-47.855.567-71.78.014-1.47-.499-3.23 1.574-3.901.576 2.785 3.353 3.094 5.185 4.205 43.105 26.103 86.297 52.06 129.452 78.095 14.906 8.99 29.736 18.105 44.593 27.182 1.229.753 2.458 1.429 3.955 1.343"/></g></g></svg>