<svg xmlns="http://www.w3.org/2000/svg" width="1024" height="1024"><g fill="none" fill-rule="evenodd"><path fill="#F3F3F3" d="M0 0h1024v1024H0z"/><g transform="translate(142 142)"><circle cx="370" cy="370" r="370" fill="#8FC144"/><path fill="#FFF" d="M363.431 658.092c-30.842-.992-86.917-4.348-146.798-43.782-17.144-11.29-60.5-44.369-89.28-85.847-11.067-15.948-30.751-51.423-40.349-102.158-2.16-11.418-12.018-97.007 0-102.158 2.862-1.717 8.013 0 15.453 5.151C199.312 403.161 247.1 442.651 245.82 447.767c-1.28 5.115-27.605 21.426-78.98 48.932 39.925 45.365 74.55 75.698 103.875 90.998 21.714 11.329 69.098 23.832 110.743 22.32 42.721-1.55 79.593-17.327 91.856-22.32 32.622-16.31 54.385-35.071 62.668-42.923 11.64-11.035 25.318-34.031 38.631-42.924 12.14-8.108 25.086-2.013 30.047 2.576 3.349 3.097 11.593 14.529 1.717 34.338-2.417 4.848-15.12 23.337-41.207 46.358-2.962 2.614-42.109 34.61-89.28 54.083-37.776 15.594-81.037 19.897-112.46 18.887M377.726 79.838c30.842.99 86.917 4.347 146.798 43.781 17.144 11.29 60.5 44.369 89.281 85.847 11.066 15.948 30.75 51.423 40.348 102.158 2.16 11.419 12.019 97.007 0 102.158-2.861 1.717-8.012 0-15.452-5.15-96.855-73.864-144.644-113.354-143.365-118.47 1.28-5.115 27.606-21.426 78.98-48.932-39.924-45.365-74.55-75.697-103.875-90.998-21.714-11.329-69.098-23.831-110.743-22.32-42.72 1.55-79.593 17.327-91.856 22.32-32.622 16.31-54.385 35.072-62.668 42.923-11.64 11.035-25.318 34.032-38.631 42.924-12.14 8.108-25.086 2.013-30.046-2.576-3.35-3.097-11.593-14.529-1.717-34.338 2.416-4.848 15.119-23.337 41.206-46.358 2.962-2.614 42.11-34.61 89.28-54.083 37.776-15.594 81.037-19.896 112.46-18.886"/></g></g></svg>