<?xml version="1.0" encoding="UTF-8"?>
<svg width="1025px" height="1024px" viewBox="0 0 1025 1024" version="1.1" xmlns="http://www.w3.org/2000/svg" xmlns:xlink="http://www.w3.org/1999/xlink">
    <title>Vultr</title>
    <g id="ICON-新版方图标" stroke="none" stroke-width="1" fill="none" fill-rule="evenodd">
        <g id="Vultr" transform="translate(0.6332, 0)">
            <rect id="蒙版路径" fill="#13214C" x="0" y="0" width="1024" height="1024"></rect>
            <path d="M796.944825,238.279272 C803.509727,243.567419 805.561258,249.988741 806.381871,252.632815 C834.693007,296.826618 862.593838,341.398146 890.904974,385.591949 C892.135893,389.746922 893.366812,395.412794 893.366812,401.834116 C893.366812,406.366813 892.956506,410.521786 892.135893,413.92131 C858.490774,461.892361 824.845656,509.863412 790.79023,557.834463 C789.969618,558.967637 781.763491,566.522134 769.454301,565.388959 C759.60695,564.633509 753.862661,558.967637 752.221436,557.456738 C643.900565,390.880096 565.121751,267.364083 556.095011,248.855567 C554.453786,245.456044 549.940417,236.390648 554.04348,228.458427 C557.736237,221.65938 566.762976,218.637582 572.096958,217.504407 C643.079953,222.41483 713.652641,227.325253 784.225329,232.235675 C787.097474,232.6134 792.021149,234.124299 796.944825,238.279272 Z" id="路径" fill="#FFFFFF" fill-rule="nonzero"></path>
            <path d="M114.797983,264.005092 C205.45507,396.818077 296.52237,529.252678 387.179457,662.065663 C392.512226,668.119816 401.536914,671.146893 410.151388,670.390124 C422.867993,668.876585 428.610976,659.416971 429.021189,658.660202 C469.222069,607.578284 509.833162,556.496367 550.034042,505.41445 C552.085108,501.630604 554.956599,494.062912 555.366812,484.603298 C555.366812,473.630145 551.264682,465.305685 549.213616,461.521839 C497.52677,385.844924 445.839925,310.16801 394.153079,234.11271 C392.102013,232.220787 386.769244,227.301788 378.564982,225.409865 C372.001573,223.896327 366.668804,224.653096 363.797312,225.03148 C355.593051,225.03148 166.074616,224.653096 134.48821,232.977556 C130.38608,234.11271 120.540966,236.761402 115.618409,244.707478 C114.38777,245.464247 109.465214,254.545477 114.797983,264.005092 Z" id="路径" fill="#017BFD" fill-rule="nonzero"></path>
            <path d="M188.985103,374.005092 C279.809459,506.818077 371.044784,639.252678 461.869139,772.065663 C467.211748,778.119816 476.253087,781.146893 484.883456,780.390124 C497.623524,778.876585 503.377103,769.416971 503.788073,768.660202 C544.063126,717.578284 584.74915,666.496367 625.024203,615.41445 C627.079053,611.630604 629.955842,604.062912 630.366812,594.603298 C630.366812,583.630145 626.257113,575.305685 624.202263,571.521839 C572.420052,495.844924 520.63784,420.16801 468.855628,344.11271 C466.800779,342.220787 461.458169,337.301788 453.238771,335.409865 C446.663252,333.896327 441.320643,334.653096 438.443853,335.03148 C430.224454,335.03148 240.356345,334.653096 208.71166,342.977556 C204.601961,344.11271 194.738682,346.761402 189.807043,354.707478 C188.574133,355.085863 183.231524,364.167093 188.985103,374.005092 L188.985103,374.005092 Z" id="路径" fill="#52B8FF" fill-rule="nonzero"></path>
            <path d="M271.797983,494.005092 C362.45507,626.818077 453.52237,759.252678 544.179457,892.065663 C549.512226,898.119816 558.536914,901.146893 567.151388,900.390124 C579.867993,898.876585 585.610976,889.416971 586.021189,888.660202 C626.222069,837.578284 666.833162,786.496367 707.034042,735.41445 C709.085108,731.630604 711.956599,724.062912 712.366812,714.603298 C712.366812,703.630145 708.264682,695.305685 706.213616,691.521839 C654.52677,615.844924 602.839925,540.16801 551.153079,464.11271 C549.102013,462.220787 543.769244,457.301788 535.564982,455.409865 C529.001573,453.896327 523.668804,454.653096 520.797312,455.03148 C512.593051,455.03148 323.074616,454.653096 291.48821,462.977556 C287.38608,464.11271 277.540966,466.761402 272.618409,474.707478 C271.38777,475.464247 266.465214,484.545477 271.797983,494.005092 L271.797983,494.005092 Z" id="路径" fill="#FFFFFF" fill-rule="nonzero"></path>
        </g>
    </g>
</svg>