<svg xmlns="http://www.w3.org/2000/svg" width="1024" height="1024"><g fill="none" fill-rule="evenodd"><path fill="#2F4955" d="M0 0h1024v1024H0z"/><g transform="translate(137 137)"><circle cx="375" cy="375" r="375" fill="#3F616F"/><path fill="#ACBFC6" d="M338 429h84c70.667 14.667 173.514 35.517 308.54 62.55C743.16 454.003 750 413.8 750 372c0-31.524-3.89-62.14-11.216-91.393C610.928 314.202 503.334 342.667 416 366h-73c-9.333-2.667-119.773-31.744-331.32-87.23C4.056 308.576 0 339.814 0 372c0 42.753 7.154 83.835 20.332 122.114C229.444 451.371 335.333 429.667 338 429"/><path fill="#FFF" d="m203 708 350-3c-47.35 30-105.35 45-174 45s-127.316-14-176-42"/><path fill="#013244" d="M207 636h344l7 69-361 3z"/><path fill="#FFF" d="M221 483.189h316v29.784H221zM217 568h324l10 68H207z"/><path fill="#034" d="M137 476h484v38h-8v-29.784h-72v28.757h-4v-28.757H429v28.757h-4v-28.757h-90v28.757h-4v-28.757H221V514h-4v-29.784h-76V514h-4v-29.784z"/><path fill="#000" d="M116 513h525l-100 55H217z" opacity=".606"/><path fill="#013244" d="M378.5 221 558 313H199z"/><path fill="#013246" d="M345 352h69l9 112h-87z"/><path fill="#FFF" d="M218 314h321v152h-6V322h-94v144h-6l-2-144H327v144h-8V322l-91 1-1 143h-9V323zM218 466h321v9H218z"/></g></g></svg>