<svg xmlns="http://www.w3.org/2000/svg" width="1025" height="1024"><g fill="none" fill-rule="evenodd"><path fill="#8ED6FB" d="M.26 0h1024v1024H.26z"/><g fill-rule="nonzero"><path fill="#FFF" d="m512 93 370 209.294v418.729L512 930.317 142 721.023V302.294z"/><path fill="#8ED6FB" d="M815.958 706.502 524.287 871.675V743.223l181.788-100.11 109.883 63.389m19.967-18.011V343.343l-106.672 61.574v222l106.672 61.574m-629 18.01 291.671 165.035V743.083l-181.788-99.97-109.883 63.389m-19.967-18.01V343.343l106.672 61.574v222l-106.672 61.574m12.427-367.487L498.596 151.78v124.264L306.894 381.46l-1.536.838-105.973-61.294m623.973 0L524.287 151.78v124.264L715.849 381.6l1.536.838 105.973-61.434"/><path fill="#1C78C0" d="m498.596 713.902-179.275-98.713V419.857l179.275 103.46v190.585m25.69 0 179.276-98.574V419.857l-179.275 103.46v190.585M331.329 397.238l180.114-98.993 179.973 98.993-179.973 103.879-180.114-103.88"/></g></g></svg>