<svg xmlns="http://www.w3.org/2000/svg" width="1025" height="1024"><defs><linearGradient id="a" x1="50%" x2="50%" y1="0%" y2="100%"><stop offset="0%" stop-color="#07C3F2"/><stop offset="100%" stop-color="#087CFA"/></linearGradient><linearGradient id="b" x1="43.906%" x2="66.103%" y1="1.983%" y2="95.245%"><stop offset="28.5%" stop-color="#07C3F2"/><stop offset="94.1%" stop-color="#087CFA"/></linearGradient><linearGradient id="c" x1="33.095%" x2="70.351%" y1="15.084%" y2="84.721%"><stop offset="14%" stop-color="#FCF84A"/><stop offset="36.6%" stop-color="#07C3F2"/></linearGradient><linearGradient id="d" x1="44.308%" x2="56.25%" y1="24.896%" y2="90.057%"><stop offset="28.5%" stop-color="#07C3F2"/><stop offset="94.1%" stop-color="#087CFA"/></linearGradient></defs><g fill="none" fill-rule="evenodd"><path fill="url(#a)" d="M0 0h1024v1024H0z" transform="translate(.061)"/><path fill="url(#b)" fill-rule="nonzero" d="M167.55 925.77 30 106.782 284.846 0l163.14 97.162L597.28 17.089 908.63 136.671 733.761 1024z" transform="translate(.061)"/><path fill="url(#c)" fill-rule="nonzero" d="M1024 346.817 891.833 20.27 652.027 0l-369.84 355.35L382.374 814.21l185.46 130.192L1024 673.365 912.092 464.204z" transform="translate(.061)"/><path fill="url(#d)" fill-rule="nonzero" d="m818.772 296.96 92.998 165.561L1024 345.777l-82.31-201.643z" transform="translate(.061)"/><path fill="#000" fill-rule="nonzero" d="M820.971 204.37H205.29v615.26H820.97z"/><path fill="#FFF" fill-rule="nonzero" d="M502.617 711.554H271.736v39.236h230.88v-39.236m-3.768-429.947L463.961 415.71l-38.993-134.103h-38.994L346.981 415.71l-34.889-134.103h-53.359l65.673 230.329h43.098l37.967-133.079 36.94 133.079h44.125l65.673-230.329h-53.36m63.621 197.57 29.758-35.828c20.523 17.403 43.098 27.64 68.751 27.64 20.523 0 33.863-8.19 33.863-21.498v-1.024c0-13.307-8.21-19.45-46.176-29.686-46.177-12.284-76.96-24.569-76.96-70.634v-1.024c0-41.971 33.862-69.61 81.064-69.61 33.863 0 62.595 10.236 86.196 29.686l-26.68 37.877c-20.523-14.332-41.045-22.521-60.542-22.521s-29.758 9.213-29.758 20.473v1.024c0 15.355 10.261 20.474 50.28 30.71 47.203 12.285 73.883 28.663 73.883 69.61v1.024c0 46.066-34.889 71.658-85.17 71.658-35.915-1.024-70.803-13.308-98.509-37.876"/></g></svg>