<svg xmlns="http://www.w3.org/2000/svg" xmlns:xlink="http://www.w3.org/1999/xlink" width="1025" height="1024"><defs><path id="b" d="M95.057 402.933a18.282 18.282 0 0 1 7.77 14.99 21.209 21.209 0 0 1-1.006 5.851c-4.57 17.276-12.065 44.973-12.34 46.253a24.408 24.408 0 0 0-1.553 6.673 9.14 9.14 0 0 0 9.14 9.14 10.967 10.967 0 0 0 5.301-1.644l60.234-34.827a29.52 29.52 0 0 1 14.624-4.205 30.16 30.16 0 0 1 8.134 1.188 323.258 323.258 0 0 0 89.848 12.615c152 0 275.208-102.653 275.208-229.347C550.417 102.927 427.3 0 275.3 0S0 102.653 0 229.255C0 298.36 37.109 360.61 95.057 402.933"/><path id="d" d="M0 190.954C0 296.35 102.643 381.817 229.234 381.817a270.25 270.25 0 0 0 74.857-10.42 23.305 23.305 0 0 1 6.764-1.006 24.677 24.677 0 0 1 12.156 3.473l50.18 28.977a8.408 8.408 0 0 0 4.387 1.463 7.77 7.77 0 0 0 7.678-7.679 24.591 24.591 0 0 0-1.371-5.576l-10.329-38.483c-.49-1.57-.767-3.2-.822-4.845a15.357 15.357 0 0 1 6.49-12.523c48.259-34.918 79.152-86.747 79.152-144.244C458.376 85.468 355.733 0 229.143 0 102.552 0 0 85.468 0 190.954"/><linearGradient id="a" x1="50%" x2="50%" y1="0%" y2="100%"><stop offset="0%" stop-color="#67DF7B"/><stop offset="8.624%" stop-color="#64D878"/><stop offset="92.136%" stop-color="#62D576"/><stop offset="100%" stop-color="#5ECB71"/></linearGradient></defs><g fill="none" fill-rule="evenodd" transform="translate(.633)"><rect width="1023" height="1023" x=".5" y=".5" fill="url(#a)" stroke="#00E16F" rx="105"/><g transform="translate(132 206)"><mask id="c" fill="#fff"><use xlink:href="#b"/></mask><path fill="#FFF" fill-rule="nonzero" d="M0 0h550.509v485.475H0z" mask="url(#c)"/></g><g transform="translate(433.624 414.596)"><mask id="e" fill="#fff"><use xlink:href="#d"/></mask><path fill="#FFF" fill-rule="nonzero" d="M-.091 0h458.468v404.304H-.091z" mask="url(#e)"/></g><path fill="#64D878" fill-rule="nonzero" d="M352.002 361.396c0 20.194-16.368 36.564-36.56 36.564-20.192 0-36.56-16.37-36.56-36.564s16.368-36.564 36.56-36.564c20.192 0 36.56 16.37 36.56 36.564M536.084 361.396c0 20.194-16.368 36.564-36.56 36.564-20.192 0-36.56-16.37-36.56-36.564s16.368-36.564 36.56-36.564c20.192 0 36.56 16.37 36.56 36.564M711.026 547.231a30.709 30.709 0 0 0 52.36 22.057 30.716 30.716 0 0 0-21.74-52.496 30.618 30.618 0 0 0-30.62 30.714M557.563 547.231a30.709 30.709 0 0 0 52.328 22.09 30.716 30.716 0 0 0-21.617-52.53c-16.96 0-30.71 13.752-30.71 30.715"/></g></svg>