<svg xmlns="http://www.w3.org/2000/svg" width="1024" height="1024"><g fill="none" fill-rule="evenodd"><path fill="#FFF" d="M0 0h1024v1024H0z"/><g fill="#F16529"><path d="M753 749.826h-56v-55.652h56zM697 694.174h-56v-55.652h56zM641 637.652h-56V582h56z"/><path d="M865 862H585v-55.652h163.497V748.19h58.409v-166H865v224.158z"/></g><g fill="#F16529"><path d="M278 749.826h56v-55.652h-56zM334 694.174h56v-55.652h-56zM390 637.652h56V582h-56z"/><path d="M166 862h280v-55.652H282.503V748.19h-58.409v-166H166v224.158z"/></g><g fill="#F16529"><path d="M753 279.174h-56v55.652h56zM697 334.826h-56v55.652h56zM641 391.348h-56V447h56z"/><path d="M865 167H585v55.652h163.497v58.158h58.409v166H865V222.651z"/></g><g fill="#F16529"><path d="M278 279.174h56v55.652h-56zM334 334.826h56v55.652h-56zM390 391.348h56V447h-56z"/><path d="M166 167h280v55.652H282.503v58.158h-58.409v166H166V222.651z"/></g><g fill="#F16529"><path d="M64 898h898v64H64zM64 64h898v64H64z"/><path d="M897 962V64h64v898zM63 962V64h64v898z"/></g></g></svg>