<svg xmlns="http://www.w3.org/2000/svg" width="1024" height="1024"><g fill="none" fill-rule="evenodd"><path fill="#FFF" d="M0 0h1024v1024H0z"/><g fill-rule="nonzero"><path fill="#91C300" d="M880.696 276.013c-143.394 59.53-212.918 26.071-274.62-15.643L536.55 505.443c62.137 42.15 136.876 76.911 274.621 15.208L882 276.013h-1.304"/><path fill="#00B4F1" d="M415.752 769.201C353.615 727.486 285.394 692.724 142 752.255l70.393-245.943c143.394-59.096 212.919-25.637 275.056 16.512l-71.697 246.377"/><path fill="#F8682C" d="M499.181 478.502a234.21 234.21 0 0 0-134.703-49.101c-37.804-.435-82.995 10.428-139.918 33.893l70.394-245.074c143.828-59.53 212.918-26.071 275.055 16.078l-70.828 244.204"/><path fill="#FFC300" d="M524.384 546.723c62.572 41.715 131.662 75.173 275.056 15.643L728.612 806.57c-143.394 59.53-212.484 26.072-274.621-16.077l70.828-243.77h-.435"/></g></g></svg>