<?xml version="1.0" encoding="UTF-8"?>
<svg width="1024px" height="1024px" viewBox="0 0 1024 1024" version="1.1" xmlns="http://www.w3.org/2000/svg" xmlns:xlink="http://www.w3.org/1999/xlink">
    <title>Youtube.music</title>
    <g id="Icon-SVG" stroke="none" stroke-width="1" fill="none" fill-rule="evenodd">
        <g id="Youtube.music" transform="translate(0, -0.0008)">
            <rect id="蒙版路径" fill="#FFFFFF" x="0" y="0" width="1024" height="1024"></rect>
            <g id="bz" transform="translate(142, 142.0008)" fill="#FF0000" fill-rule="nonzero">
                <path d="M370,0 C165.76,0 0,165.76 0,370 C0,574.24 165.76,740 370,740 C574.24,740 740,574.24 740,370 C740,165.76 574.24,0 370,0 Z M370,589.04 C249.01,589.04 150.96,490.99 150.96,370 C150.96,249.01 249.01,150.96 370,150.96 C490.99,150.96 589.04,249.01 589.04,370 C589.04,490.99 490.99,589.04 370,589.04 Z M370,177.97 C264.18,177.97 177.97,264.18 177.97,370 C177.97,475.82 264.18,562.03 370,562.03 C475.82,562.03 562.03,475.82 562.03,370 C562.03,264.18 475.82,177.97 370,177.97 Z M298.59,479.15 L298.59,260.85 L487.66,370 L298.59,479.15 Z" id="形状"></path>
            </g>
        </g>
    </g>
</svg>