<svg xmlns="http://www.w3.org/2000/svg" width="1024" height="1024"><defs><radialGradient id="b" cx="60.212%" cy="64.196%" r="51.005%" fx="60.212%" fy="64.196%" gradientTransform="matrix(.31361 -.92983 .7924 .368 -.095 .966)"><stop offset="0%" stop-color="#57CB86"/><stop offset="100%" stop-color="#FFF" stop-opacity=".8"/></radialGradient><linearGradient id="a" x1="82.746%" x2="20.277%" y1="0%" y2="79.406%"><stop offset="0%" stop-color="#7BD26A"/><stop offset="100%" stop-color="#07B26A"/></linearGradient></defs><g fill="none" fill-rule="evenodd"><path fill="url(#a)" d="M0 0h1024v1024H0z"/><g fill-rule="nonzero"><path fill="#E5FBEF" d="M570.424 191.46h5.677l2.714.014 2.766.014 2.816.02 2.867.026 2.917.03 2.966.038 2.005.029 2.027.03 3.08.053 3.128.06 3.176.065 2.144.048 3.254.079 3.3.085 3.347.094 2.256.067 3.423.107 3.467.115 2.336.082 2.355.086 2.376.09 2.394.093 2.414.098 2.432.101 3.685.161 2.48.112 3.754.177 2.527.124 2.544.128 3.85.2 2.59.14 2.608.145 2.625.149 2.643.154 2.66.16 2.677.163 2.695.17 2.712.174 2.728.18 2.746.184c98.577 6.712 124.684 77.437 127.462 85.9l.146.454.114.373 42.794 2.321a4.127 4.127 0 0 1 4.135 4.12c0 1.63-.952 3.04-2.331 3.707-43.927 23.68-57.346 71.798-49.457 103.141 2.543 10.102 6.493 18.786 10.891 27.964l2.78 5.777c10.18 21.214 21.61 46.902 23.477 98.6 4.178 115.728-97.93 219.74-218.75 219.74l-1.321.001-2.822.004-4.677.014-3.414.015-5.566.03-4.006.025-4.244.03-6.809.052-7.342.061-7.875.07-11.33.11-9.12.093-16.383.176-17.863.202-19.345.229-12.318.15-17.252.213-22.899.292-24.379.318-20.569.273-32.63.44-22.94.316-42.422.592-45.325.643-41.16.592-21.38.31L461.826 460.14l2.342-2.66 2.335-2.645 2.328-2.633 11.519-13.004 2.276-2.573 2.265-2.566 2.254-2.558 1.122-1.277 2.237-2.55 1.113-1.272 2.218-2.542 2.204-2.538c25.635-29.586 48.457-58.466 64.673-91.585 18-50.648-.324-88.442-19.029-111.341a137.038 137.038 0 0 0-4.323-5.037c-6.376-8.132-2.034-21.68 10.108-21.68.99 0 1.999-.015 3.028-.034l2.35-.047c.53-.01 1.065-.02 1.605-.026l2.242-.027 2.297-.024 1.561-.013 4.01-.028 3.315-.014 2.548-.006"/><path fill="url(#b)" fill-opacity=".3" d="M408.189 0h5.676l2.715.014 2.765.014 2.817.02 2.867.026 2.917.031 2.966.037 2.005.029 2.026.03 3.08.053 3.129.06 3.176.065 2.143.049 3.254.078 3.3.086 3.347.093 2.257.067 3.422.107 3.467.116 2.336.081 2.356.086 2.375.09 2.394.093 2.414.098 2.433.101 3.684.161 2.48.113 3.755.176 2.526.124 2.545.128 3.85.2 2.59.14 2.607.145 2.625.149 2.643.154 2.66.16 2.678.163 2.694.17 2.712.174 2.729.18 2.745.184c98.577 6.712 124.685 77.437 127.463 85.9l.146.454.113.373 42.794 2.321a4.127 4.127 0 0 1 4.135 4.12c0 1.63-.951 3.04-2.33 3.707-43.927 23.68-57.347 71.798-49.457 103.142 2.542 10.101 6.493 18.785 10.891 27.963l2.779 5.777c10.18 21.214 21.61 46.902 23.478 98.6 4.178 115.728-97.93 219.74-218.75 219.74l-1.322.001-2.822.004-4.677.014-3.414.015-5.565.03-4.007.025-4.243.03-6.81.052-7.342.061-7.875.071-11.33.11-9.119.092-16.383.176-17.864.202-19.345.229-12.317.15-17.253.214-22.898.291-24.38.318-20.568.273-32.631.44-22.939.316-42.423.592-45.325.643-41.16.592-21.379.31L299.59 268.68l2.342-2.66 2.335-2.645 2.328-2.633 11.52-13.004 2.275-2.573 2.265-2.565 2.254-2.559c.375-.426.75-.851 1.123-1.277l2.236-2.55 1.114-1.272 2.217-2.542 2.204-2.538c25.636-29.586 48.458-58.466 64.673-91.585 18-50.648-.324-88.441-19.028-111.341a137.038 137.038 0 0 0-4.323-5.037C368.749 13.767 373.09.22 385.233.22c.989 0 1.998-.014 3.028-.034l2.35-.047c.53-.01 1.065-.02 1.604-.026l2.242-.027 2.297-.024 1.562-.013 4.01-.028 3.315-.014L408.189 0" transform="translate(162.236 191.46)"/><path fill="#FAFFFC" d="M461.826 460.14C350 585.512 216.91 738.053 166.39 795.355c-9.732 11.038-.299 21.461 7.24 22.753 376.907 64.556 496.578-112.398 523.235-193.29 36.471-110.674-15.061-164.678-44.225-182.29-98.892-59.717-172.266-3.182-190.813 17.612"/></g></g></svg>