<?xml version="1.0" encoding="UTF-8"?>
<svg width="1024px" height="1024px" viewBox="0 0 1024 1024" version="1.1" xmlns="http://www.w3.org/2000/svg" xmlns:xlink="http://www.w3.org/1999/xlink">
    <title>Yxvm</title>
    <g id="ICON-新版方图标" stroke="none" stroke-width="1" fill="none" fill-rule="evenodd">
        <g id="Yxvm" transform="translate(0, -0.0008)">
            <rect id="蒙版路径" fill="#FFFFFF" x="0" y="0" width="1024" height="1024"></rect>
            <g id="编组-53" transform="translate(114, 409.0008)">
                <g id="YXVM" transform="translate(230.326, 39.9834)" fill="#000000" fill-rule="nonzero">
                    <path d="M63.8674033,128.176796 C63.7200737,131.860037 62.5046041,134.585635 60.2209945,136.353591 C57.9373849,138.121547 55.4696133,139.005525 52.8176796,139.005525 C50.3130755,139.005525 47.9926335,138.158379 45.8563536,136.464088 C43.7200737,134.769797 42.4309392,132.228361 41.9889503,128.839779 L41.9889503,102.320442 C41.9889503,97.9005525 41.9521179,93.480663 41.878453,89.0607735 C41.8047882,84.640884 41.7679558,80.1473297 41.7679558,75.5801105 C32.4861878,66.5930018 24.198895,57.1270718 16.9060773,47.1823204 C9.61325967,37.2375691 4.05156538,26.2983425 0.220994475,14.3646409 C0.220994475,14.2173112 0.184162063,14.0331492 0.110497238,13.8121547 C0.0368324125,13.5911602 0,13.1123389 0,12.3756906 C0,8.98710866 0.994475138,6.37200737 2.98342541,4.53038674 C4.97237569,2.68876611 7.3664825,1.7679558 10.1657459,1.7679558 C14.2909761,1.7679558 17.8268877,3.90423573 20.7734807,8.17679558 C23.7200737,18.1952118 27.9558011,27.1086556 33.480663,34.9171271 C39.0055249,42.7255985 45.2302026,50.1657459 52.1546961,57.2375691 L57.9005525,50.3867403 C63.6464088,43.7569061 69.3922652,36.8324125 75.1381215,29.6132597 C80.8839779,22.3941068 85.8195212,14.8802947 89.9447514,7.0718232 C91.2707182,4.86187845 92.854512,3.27808471 94.6961326,2.32044199 C96.5377532,1.36279926 98.4162063,0.883977901 100.331492,0.883977901 C102.983425,0.883977901 105.377532,1.7679558 107.513812,3.5359116 C109.650092,5.3038674 110.718232,7.6611418 110.718232,10.6077348 C110.718232,11.4917127 110.644567,12.2651934 110.497238,12.9281768 C110.349908,13.5911602 110.128913,14.2909761 109.834254,15.0276243 C104.972376,23.8674033 99.4106814,32.1915285 93.1491713,40 C86.8876611,47.8084715 80.5156538,55.6906077 74.0331492,63.6464088 L63.6464088,76.0220994 C63.6464088,78.6740331 63.6464088,82.3572744 63.6464088,87.0718232 C63.6464088,91.786372 63.6464088,96.7587477 63.6464088,101.98895 C63.6464088,107.219153 63.6832413,112.228361 63.7569061,117.016575 C63.8305709,121.804788 63.8674033,125.524862 63.8674033,128.176796 Z" id="路径"></path>
                    <path d="M246.344383,3.09392265 C248.554328,1.03130755 251.353591,0 254.742173,0 C257.688766,0 260.119705,0.883977901 262.034991,2.6519337 C263.950276,4.4198895 264.907919,6.70349908 264.907919,9.50276243 C264.907919,10.6813996 264.539595,12.228361 263.802947,14.1436464 C257.615101,24.3093923 251.243094,33.664825 244.686924,42.2099448 C238.130755,50.7550645 231.169429,59.5948435 223.802947,68.7292818 C231.316759,78.0110497 238.609576,87.3296501 245.6814,96.6850829 C252.753223,106.040516 259.014733,115.801105 264.46593,125.966851 C264.760589,127.145488 264.907919,128.324125 264.907919,129.502762 C264.907919,132.449355 263.950276,134.80663 262.034991,136.574586 C260.119705,138.342541 257.688766,139.226519 254.742173,139.226519 C251.206262,139.226519 248.038674,137.753223 245.239411,134.80663 C240.524862,126.11418 235.110497,117.679558 228.996317,109.502762 C222.882136,101.325967 216.657459,93.2596685 210.322284,85.3038674 C206.049724,90.4604052 201.519337,95.801105 196.731123,101.325967 C191.94291,106.850829 187.338858,112.117864 182.918969,117.127072 C180.119705,120.368324 177.430939,123.462247 174.85267,126.40884 C172.274401,129.355433 169.585635,132.52302 166.786372,135.911602 C163.839779,137.679558 161.11418,138.563536 158.609576,138.563536 C155.515654,138.563536 153.01105,137.71639 151.095764,136.022099 C149.180479,134.327808 148.222836,132.081031 148.222836,129.281768 C148.222836,127.366483 148.959484,125.230203 150.432781,122.872928 L165.460405,105.19337 C170.616943,99.1528545 175.847145,93.038674 181.151013,86.8508287 C186.45488,80.6629834 191.685083,74.4751381 196.841621,68.2872928 C189.917127,59.1528545 182.918969,50.4972376 175.847145,42.320442 C168.775322,34.1436464 160.966851,26.3720074 152.421731,19.0055249 C149.622468,16.3535912 148.222836,13.6279926 148.222836,10.8287293 C148.222836,8.32412523 149.180479,6.15101289 151.095764,4.30939227 C153.01105,2.46777164 155.515654,1.54696133 158.609576,1.54696133 C161.703499,1.54696133 164.355433,2.43093923 166.565378,4.19889503 C175.110497,11.7127072 182.808471,19.3001842 189.6593,26.961326 C196.510129,34.6224678 203.471455,42.946593 210.543278,51.9337017 L213.637201,47.9558011 C219.235727,40.8839779 224.650092,33.8858195 229.880295,26.961326 C235.110497,20.0368324 240.451197,12.1546961 245.902394,3.31491713 L246.344383,3.09392265 Z" id="路径"></path>
                    <path d="M377.771639,8.39779006 C379.097606,6.33517495 380.570902,4.78821363 382.191529,3.75690608 C383.812155,2.72559853 385.72744,2.20994475 387.937385,2.20994475 C390.736648,2.20994475 393.20442,3.09392265 395.3407,4.86187845 C397.47698,6.62983425 398.54512,8.98710866 398.54512,11.9337017 C398.54512,12.6703499 398.471455,13.4069982 398.324125,14.1436464 C398.176796,14.8802947 397.955801,15.6169429 397.661142,16.3535912 C386.758748,35.359116 377.32965,54.732965 369.373849,74.4751381 C361.418048,94.2173112 353.756906,113.73849 346.390424,133.038674 C345.359116,135.543278 343.88582,137.458564 341.970534,138.78453 C340.055249,140.110497 337.992634,140.773481 335.782689,140.773481 C333.720074,140.773481 331.804788,140.220994 330.036832,139.116022 C328.268877,138.01105 326.79558,136.353591 325.616943,134.143646 C317.808471,114.106814 310.14733,94.1436464 302.633517,74.2541436 C295.119705,54.3646409 287.605893,34.3278085 280.092081,14.1436464 C280.092081,13.9963168 280.055249,13.9594843 279.981584,14.0331492 C279.907919,14.106814 279.871087,13.9963168 279.871087,13.7016575 L279.871087,12.5966851 C279.871087,9.20810313 280.865562,6.62983425 282.854512,4.86187845 C284.843462,3.09392265 287.237569,2.20994475 290.036832,2.20994475 C294.162063,2.20994475 297.550645,4.19889503 300.202578,8.17679558 C304.033149,17.9005525 307.421731,26.6298343 310.368324,34.3646409 C313.314917,42.0994475 316.151013,49.5027624 318.876611,56.5745856 C321.60221,63.6464088 324.290976,70.7918969 326.94291,78.0110497 C329.594843,85.2302026 332.467772,93.1860037 335.561694,101.878453 L340.865562,89.5027624 L340.865562,89.7237569 L344.401473,81.1049724 C344.843462,79.9263352 345.359116,78.747698 345.948435,77.5690608 C346.537753,76.3904236 347.053407,75.2117864 347.495396,74.0331492 C352.209945,62.5414365 356.961326,51.3075506 361.74954,40.3314917 C366.537753,29.3554328 371.878453,18.7108656 377.771639,8.39779006 Z" id="路径"></path>
                    <path d="M565.552486,129.502762 C565.405157,133.333333 564.189687,136.132597 561.906077,137.900552 C559.622468,139.668508 557.154696,140.552486 554.502762,140.552486 C551.998158,140.552486 549.640884,139.705341 547.430939,138.01105 C545.220994,136.316759 543.968692,133.701657 543.674033,130.165746 C542.937385,123.830571 542.090239,117.053407 541.132597,109.834254 C540.174954,102.615101 539.106814,95.2854512 537.928177,87.8453039 C536.74954,80.4051565 535.38674,73.038674 533.839779,65.7458564 C532.292818,58.4530387 530.635359,51.5653775 528.867403,45.0828729 C526.510129,50.6813996 524.263352,56.3904236 522.127072,62.2099448 C519.990792,68.0294659 517.744015,74.0331492 515.38674,80.2209945 C512.440147,88.1767956 509.493554,96.1325967 506.546961,104.088398 C503.600368,112.044199 500.58011,119.631676 497.486188,126.850829 C494.834254,129.797422 491.666667,131.270718 487.983425,131.270718 C485.184162,131.270718 482.163904,129.871087 478.922652,127.071823 L438.922652,48.6187845 C438.333333,54.9539595 437.744015,61.3996317 437.154696,67.9558011 C436.565378,74.5119705 435.976059,81.1786372 435.38674,87.9558011 L431.187845,132.81768 C430.009208,135.764273 428.425414,137.937385 426.436464,139.337017 C424.447514,140.736648 422.421731,141.436464 420.359116,141.436464 C417.707182,141.436464 415.313076,140.552486 413.176796,138.78453 C411.040516,137.016575 409.825046,134.438306 409.530387,131.049724 L420.801105,12.5966851 C421.243094,9.79742173 422.495396,7.62430939 424.558011,6.07734807 C426.620626,4.53038674 428.977901,3.75690608 431.629834,3.75690608 C435.460405,3.75690608 438.627993,5.52486188 441.132597,9.06077348 C445.257827,16.2799263 449.309392,23.8305709 453.287293,31.7127072 C457.265193,39.5948435 461.316759,47.587477 465.441989,55.6906077 C469.27256,63.3517495 472.845304,70.4604052 476.160221,77.0165746 C479.475138,83.572744 483.047882,90.3130755 486.878453,97.2375691 C489.088398,91.6390424 491.298343,85.893186 493.508287,80 C495.718232,74.106814 498.001842,68.0662983 500.359116,61.878453 C503.747698,52.7440147 507.173112,43.6832413 510.635359,34.6961326 C514.097606,25.7090239 517.596685,17.0902394 521.132597,8.83977901 C523.489871,4.86187845 526.878453,2.87292818 531.298343,2.87292818 C533.508287,2.87292818 535.607735,3.57274401 537.596685,4.97237569 C539.585635,6.37200737 541.022099,8.47145488 541.906077,11.2707182 C544.558011,20.2578269 547.099448,29.6869245 549.530387,39.558011 C551.961326,49.4290976 554.244936,59.4475138 556.381215,69.6132597 C558.517495,79.7790055 560.359116,89.9447514 561.906077,100.110497 C563.453039,110.276243 564.668508,120.073665 565.552486,129.502762 Z" id="路径"></path>
                </g>
                <g id="编组">
                    <circle id="椭圆形" stroke="#000000" stroke-width="10" cx="85" cy="85" r="85"></circle>
                    <path d="M115.200159,119.085517 L172.373517,119.069013 L171.609678,137.216357 C170.219467,139.072079 169.871336,140.964182 170.565285,142.892668 C171.259234,144.821153 172.666457,146.078483 174.786952,146.664658 L173.787731,171.394914 L115.200159,172.085517 L111.035178,145.194286 C113.364555,144.215869 114.849833,142.835122 115.491012,141.052047 C116.132192,139.268972 115.815321,137.542295 114.5404,135.872015 L115.200159,119.085517 Z" id="矩形" fill="#FFFFFF" transform="translate(142.9111, 145.5773) rotate(-45) translate(-142.9111, -145.5773)"></path>
                    <path d="M187.324836,205 L151.885578,169.54079 C142.738152,172.978663 132.299986,170.803682 125.327179,163.815678 C117.835269,156.322516 115.871098,144.85826 120.444811,135.274311 L122.268684,131.443537 L137.869814,147.033242 L144.042923,140.859101 L128.455823,125.269397 L132.285956,123.445219 C141.882335,118.870742 153.344676,120.835242 160.822556,128.328403 C167.795364,135.302375 169.984011,145.742285 166.546712,154.891238 L202,190.336417 L187.324836,205 Z M153.204378,162.3844 L187.324836,196.524589 L193.511975,190.336417 L159.377487,156.210259 L160.289424,154.301889 C163.768813,147.005177 162.267625,138.277188 156.571529,132.58014 C151.941697,127.949535 145.305605,126.097293 139.062347,127.430346 L152.502889,140.873133 L137.869814,155.522685 L124.415242,142.079897 C123.082412,148.324198 124.934345,154.947367 129.564176,159.592004 C135.260273,165.289052 144.000834,166.776458 151.282297,163.310521 L153.204378,162.3844 Z" id="工具" fill="#000000" fill-rule="nonzero"></path>
                    <g id="箭头" transform="translate(84.5, 85) rotate(90) translate(-84.5, -85)translate(48.5, 11.5)" fill="#000000" fill-rule="nonzero">
                        <path d="M35.9535095,38 C34.3778557,38 32.8022017,37.5533094 31.6767348,36.436583 L2.41459126,11.8686004 C-0.511623049,9.41180209 -0.73671653,5.16824151 1.51421765,2.48809796 C3.9902452,-0.415390855 8.26701998,-0.638736221 10.9681409,1.59471681 L35.9535095,22.5891746 L60.9388781,1.59471681 C63.8650925,-0.862081481 68.1418673,-0.415390853 70.3928014,2.48809796 C72.868829,5.39158677 72.4186421,9.63514746 69.4924278,11.8686004 L40.2302843,36.436583 C39.1048172,37.5533095 37.5291634,38 35.9535095,38 L35.9535095,38 Z" id="路径" transform="translate(36, 19) rotate(180) translate(-36, -19)"></path>
                        <path d="M35.9535095,147 C34.3778557,147 32.8022017,146.553309 31.6767348,145.436583 L2.41459126,120.8686 C-0.511623049,118.411802 -0.73671653,114.168242 1.51421765,111.488098 C3.9902452,108.584609 8.26701998,108.361264 10.9681409,110.594717 L35.9535095,131.589175 L60.9388781,110.594717 C63.8650925,108.137919 68.1418673,108.584609 70.3928014,111.488098 C72.868829,114.391587 72.4186421,118.635147 69.4924278,120.8686 L40.2302843,145.436583 C39.1048172,146.553309 37.5291634,147 35.9535095,147 L35.9535095,147 Z" id="路径"></path>
                    </g>
                    <g id="..." transform="translate(56, 109)" fill="#000000">
                        <circle id="椭圆形" cx="6" cy="6" r="6"></circle>
                        <circle id="椭圆形" cx="28" cy="6" r="6"></circle>
                        <circle id="椭圆形" cx="50" cy="6" r="6"></circle>
                    </g>
                </g>
            </g>
        </g>
    </g>
</svg>