<svg xmlns="http://www.w3.org/2000/svg" width="1024" height="1024"><g fill="none" fill-rule="evenodd"><path fill="#FFF" d="M0 0h1024v1024H0z"/><path fill="#000" fill-rule="nonzero" d="M408.193 577.16c-.147 3.683-1.362 6.409-3.646 8.177-2.284 1.768-4.751 2.652-7.403 2.652-2.505 0-4.825-.847-6.962-2.542-2.136-1.694-3.425-4.235-3.867-7.624v-26.52c0-4.419-.037-8.839-.11-13.259a809.1 809.1 0 0 1-.111-13.48c-9.282-8.988-17.57-18.454-24.862-28.398-7.293-9.945-12.854-20.884-16.685-32.818 0-.147-.037-.331-.11-.552-.074-.221-.111-.7-.111-1.437 0-3.388.994-6.004 2.983-7.845 1.99-1.842 4.383-2.763 7.183-2.763 4.125 0 7.66 2.137 10.607 6.41 2.947 10.018 7.183 18.931 12.708 26.74 5.525 7.808 11.75 15.248 18.674 22.32l5.746-6.85a645.4 645.4 0 0 0 17.237-20.774c5.746-7.22 10.682-14.733 14.807-22.542 1.326-2.21 2.91-3.794 4.751-4.751 1.842-.958 3.72-1.437 5.635-1.437 2.652 0 5.047.884 7.183 2.652 2.136 1.768 3.204 4.126 3.204 7.072 0 .884-.073 1.658-.22 2.32a13.659 13.659 0 0 1-.664 2.1 173.451 173.451 0 0 1-16.685 24.972 3889.318 3889.318 0 0 1-19.116 23.647l-10.387 12.375v25.967c0 5.23.037 10.24.11 15.028.075 4.788.111 8.508.111 11.16M590.67 452.077c2.21-2.062 5.01-3.094 8.398-3.094 2.947 0 5.378.884 7.293 2.652 1.915 1.768 2.873 4.052 2.873 6.851 0 1.179-.368 2.726-1.105 4.641-6.188 10.166-12.56 19.521-19.116 28.066a1395.719 1395.719 0 0 1-20.884 26.52c7.514 9.281 14.807 18.6 21.878 27.955a224.26 224.26 0 0 1 18.785 29.282 14.53 14.53 0 0 1 .442 3.536c0 2.947-.958 5.304-2.873 7.072-1.915 1.768-4.346 2.652-7.293 2.652-3.536 0-6.703-1.473-9.503-4.42-4.714-8.692-10.129-17.127-16.243-25.304a1004.786 1004.786 0 0 0-18.674-24.199 949.074 949.074 0 0 1-13.59 16.022 2364.682 2364.682 0 0 1-13.813 15.801c-2.8 3.242-5.488 6.336-8.066 9.282a440.244 440.244 0 0 0-8.067 9.503c-2.946 1.768-5.672 2.652-8.176 2.652-3.094 0-5.599-.847-7.514-2.542-1.916-1.694-2.873-3.94-2.873-6.74 0-1.915.736-4.051 2.21-6.409l15.027-17.68a12533.68 12533.68 0 0 1 15.691-18.342 1750.218 1750.218 0 0 0 15.69-18.563c-6.924-9.135-13.922-17.79-20.994-25.967-7.072-8.177-14.88-15.949-23.425-23.315-2.8-2.652-4.2-5.378-4.2-8.177 0-2.504.958-4.678 2.874-6.52 1.915-1.84 4.42-2.762 7.514-2.762 3.093 0 5.745.884 7.955 2.652 8.545 7.514 16.243 15.102 23.094 22.763 6.851 7.66 13.812 15.985 20.884 24.972l3.094-3.978a1167.504 1167.504 0 0 0 16.243-20.994c5.23-6.925 10.571-14.807 16.022-23.647l.442-.22m131.428 5.303c1.326-2.062 2.799-3.61 4.42-4.64 1.62-1.032 3.535-1.548 5.745-1.548 2.8 0 5.267.884 7.404 2.652 2.136 1.768 3.204 4.126 3.204 7.072 0 .737-.074 1.473-.22 2.21a12.599 12.599 0 0 1-.664 2.21c-10.902 19.006-20.331 38.38-28.287 58.122a3407.938 3407.938 0 0 0-22.984 58.563c-1.03 2.505-2.504 4.42-4.42 5.746-1.915 1.326-3.977 1.989-6.187 1.989-2.063 0-3.978-.553-5.746-1.658-1.768-1.105-3.241-2.762-4.42-4.972-7.809-20.037-15.47-40-22.983-59.89a13278.172 13278.172 0 0 1-22.542-60.11c0-.147-.037-.184-.11-.11-.074.073-.11-.037-.11-.332v-1.105c0-3.388.994-5.967 2.983-7.735 1.988-1.768 4.383-2.652 7.182-2.652 4.125 0 7.514 1.99 10.166 5.967 3.83 9.724 7.219 18.453 10.165 26.188a6118.844 6118.844 0 0 0 8.509 22.21 1447.155 1447.155 0 0 1 8.066 21.436c2.652 7.22 5.525 15.175 8.619 23.868l5.304-12.376v.221l3.535-8.619a36.806 36.806 0 0 1 1.547-3.536 36.807 36.807 0 0 0 1.547-3.535 1660.883 1660.883 0 0 1 14.255-33.702 331.373 331.373 0 0 1 16.022-31.934m187.78 121.105c-.147 3.83-1.362 6.63-3.646 8.398-2.284 1.768-4.751 2.652-7.403 2.652-2.505 0-4.862-.847-7.072-2.542-2.21-1.694-3.462-4.309-3.757-7.845a1274.965 1274.965 0 0 0-2.541-20.331 881.023 881.023 0 0 0-3.205-21.99 432.912 432.912 0 0 0-4.088-22.099c-1.547-7.293-3.205-14.18-4.973-20.663a394.09 394.09 0 0 0-6.74 17.127 1582.472 1582.472 0 0 1-6.74 18.011l-8.84 23.868a488.693 488.693 0 0 1-9.06 22.762c-2.653 2.947-5.82 4.42-9.504 4.42-2.799 0-5.82-1.4-9.06-4.199l-40-78.453a6568.35 6568.35 0 0 0-3.536 39.337l-4.2 44.862c-1.178 2.947-2.762 5.12-4.75 6.52-1.99 1.399-4.015 2.099-6.078 2.099-2.652 0-5.046-.884-7.182-2.652-2.136-1.768-3.352-4.346-3.647-7.735l11.271-118.453c.442-2.8 1.694-4.972 3.757-6.52 2.063-1.546 4.42-2.32 7.072-2.32 3.83 0 6.998 1.768 9.503 5.304a496.896 496.896 0 0 1 12.154 22.652c3.978 7.882 8.03 15.875 12.155 23.978 3.83 7.661 7.403 14.77 10.718 21.326a616.526 616.526 0 0 0 10.718 20.221 1073.57 1073.57 0 0 0 6.63-17.238c2.21-5.893 4.494-11.933 6.851-18.121a2326.309 2326.309 0 0 1 10.276-27.182 751.466 751.466 0 0 1 10.498-25.857c2.357-3.978 5.745-5.967 10.165-5.967 2.21 0 4.31.7 6.299 2.1 1.989 1.4 3.425 3.499 4.31 6.298 2.651 8.987 5.192 18.416 7.623 28.287a897.92 897.92 0 0 1 6.851 30.056 552.291 552.291 0 0 1 5.525 30.497c1.547 10.166 2.763 19.963 3.646 29.392"/><g transform="translate(114 409)"><circle cx="85" cy="85" r="85" stroke="#000" stroke-width="10"/><path fill="#FFF" d="M104.584 146.44 145 106l12.292 13.372c.33 2.295 1.42 3.88 3.275 4.753 1.855.872 3.739.766 5.653-.318L183 142l-40.94 41.916-21.96-16.07c.956-2.339 1.03-4.365.222-6.08-.807-1.714-2.252-2.71-4.335-2.99l-11.403-12.337"/><path fill="#000" fill-rule="nonzero" d="m187.325 205-35.44-35.46c-9.147 3.439-19.585 1.264-26.558-5.724-7.492-7.493-9.456-18.958-4.882-28.542l1.824-3.83 15.6 15.59 6.174-6.175-15.587-15.59 3.83-1.824c9.596-4.574 21.059-2.61 28.537 4.883 6.972 6.974 9.161 17.414 5.724 26.563L202 190.336zm-34.12-42.616 34.12 34.14 6.187-6.188-34.135-34.126.912-1.908c3.48-7.297 1.979-16.025-3.717-21.722-4.63-4.63-11.266-6.483-17.51-5.15l13.44 13.443-14.632 14.65-13.455-13.443c-1.333 6.244.52 12.867 5.15 17.512 5.695 5.697 14.436 7.184 21.717 3.719l1.922-.927M158 85.046c0 1.576-.447 3.152-1.563 4.277l-24.568 29.262c-2.457 2.927-6.7 3.152-9.38.9-2.904-2.475-3.128-6.752-.894-9.453l20.994-24.986-20.994-24.985c-2.457-2.926-2.01-7.203.893-9.454 2.904-2.476 7.147-2.026 9.38.9l24.569 29.263c1.116 1.125 1.563 2.7 1.563 4.276m-147-.092c0-1.576.447-3.152 1.563-4.277l24.568-29.262c2.457-2.927 6.7-3.152 9.38-.9 2.904 2.475 3.128 6.752.894 9.453L26.411 84.954l20.994 24.985c2.457 2.926 2.01 7.203-.893 9.454-2.904 2.476-7.147 2.026-9.38-.9L12.562 89.23C11.447 88.105 11 86.53 11 84.954"/><g fill="#000" transform="translate(56 109)"><circle cx="6" cy="6" r="6"/><circle cx="28" cy="6" r="6"/><circle cx="50" cy="6" r="6"/></g></g></g></svg>