<svg xmlns="http://www.w3.org/2000/svg" width="1024" height="1024"><g fill="none" fill-rule="nonzero"><rect width="1024" height="1024" fill="#FFF" rx="4"/><path fill="#C7C6C7" d="m493.726 543.844.062-.023 1.768 5.158c6.729-2.78 14.018-4.46 21.733-4.574 8.26-.136 16.236 1.496 23.6 4.5l1.694-4.698.276.098L678.23 117.711h-8.311L537.301 535.172l82.652-417.461h-8.062l-80.934 407.642L569.71 117.71h-7.962l-39.552 419.18c-.574-.038-1.12-.123-1.694-.149l.847-.012 2.492-419.02h-7.961l-2.482 419.143h.201c-.35.026-.685.088-1.035.113l-34.677-419.255h-7.987l33.843 411.541-88.77-411.541h-8.113l86.464 400.864-131.61-400.864h-8.36l140.37 426.133"/><path fill="#49AFD0" d="M560.53 944.843V692.512h-89.458v252.33l44.723-46.03z"/><path fill="#626062" d="M805.088 89.604 698.65 117.716l-159 430.781h-43.812l-158.34-433.074-107.113-25.819L435.64 647.386l166.277.162z"/></g></svg>