<svg xmlns="http://www.w3.org/2000/svg" width="1025" height="1024"><g fill="none" fill-rule="evenodd"><path fill="#FFF" d="M.633 0h1024v1024H.633z"/><path fill="#000" fill-rule="nonzero" d="M497.9 109.958a29.395 29.395 0 0 1 29.466 0l87.692 50.844c13.486 8.283 17.867 25.74 9.873 39.344-7.994 13.605-25.447 18.398-39.338 10.802l-72.96-42.286-72.96 42.286a29.394 29.394 0 0 1-29.65.638c-9.266-5.154-14.99-14.895-14.951-25.446.038-10.55 5.833-20.251 15.137-25.338l87.692-50.844M274.813 272.905c8.114 13.849 3.405 31.61-10.523 39.69l-44.431 25.752 44.43 25.75c9.304 5.088 15.099 14.788 15.137 25.339.039 10.55-5.685 20.292-14.951 25.446a29.394 29.394 0 0 1-29.65-.638l-43.73-25.325v36.554c0 16.04-13.086 29.043-29.23 29.043s-29.23-13.003-29.23-29.043v-87.126c-.004-10.331 5.517-19.886 14.498-25.093l87.692-50.805a29.396 29.396 0 0 1 22.174-3.003 29.209 29.209 0 0 1 17.814 13.459m475.643 0a29.209 29.209 0 0 1 17.813-13.46 29.4 29.4 0 0 1 22.174 3.004l87.693 50.805c8.98 5.207 14.501 14.762 14.498 25.093v87.126c0 16.04-13.087 29.043-29.23 29.043-16.144 0-29.231-13.003-29.231-29.043V388.92l-43.73 25.325a29.394 29.394 0 0 1-29.65.638c-9.265-5.154-14.99-14.895-14.951-25.446.039-10.551 5.833-20.251 15.137-25.339l44.43-25.75-44.43-25.751c-13.928-8.08-18.638-25.842-10.523-39.691M399.685 476.2a29.209 29.209 0 0 1 17.814-13.459 29.4 29.4 0 0 1 22.174 3.004l72.96 42.286 72.96-42.286a29.394 29.394 0 0 1 29.65-.638c9.266 5.154 14.99 14.895 14.952 25.446-.039 10.551-5.834 20.251-15.137 25.338l-73.194 42.44v70.438c0 16.04-13.087 29.042-29.23 29.042-16.145 0-29.232-13.002-29.232-29.042v-70.476l-73.193-42.402c-13.929-8.08-18.638-25.842-10.523-39.69m-237.821 94.484c16.144 0 29.23 13.003 29.23 29.043v70.476l73.195 42.401c9.303 5.087 15.098 14.788 15.136 25.339.039 10.55-5.685 20.292-14.951 25.446a29.394 29.394 0 0 1-29.65-.638l-87.692-50.805c-8.981-5.207-14.502-14.762-14.499-25.093v-87.126c0-16.04 13.087-29.043 29.231-29.043m701.538 0c16.144 0 29.231 13.003 29.231 29.043v87.126c.003 10.331-5.518 19.886-14.498 25.093l-87.693 50.805a29.394 29.394 0 0 1-29.65.638c-9.265-5.154-14.99-14.896-14.951-25.446.039-10.551 5.833-20.252 15.137-25.339l73.194-42.44v-70.437c0-16.04 13.087-29.043 29.23-29.043M512.633 773.98c16.144 0 29.231 13.003 29.231 29.042v36.555l43.73-25.325a29.394 29.394 0 0 1 29.649-.638c9.266 5.154 14.99 14.895 14.952 25.446-.039 10.55-5.834 20.251-15.137 25.338l-87.692 50.844a29.395 29.395 0 0 1-29.465 0l-87.692-50.844c-9.304-5.087-15.099-14.787-15.137-25.338-.039-10.55 5.685-20.292 14.952-25.446a29.394 29.394 0 0 1 29.65.638l43.728 25.325v-36.555c0-16.04 13.087-29.042 29.231-29.042"/></g></svg>