<svg xmlns="http://www.w3.org/2000/svg" width="1024" height="1024"><g fill="none" fill-rule="evenodd"><path fill="#3DA3F7" d="M0 0h1024v1024H0z"/><path fill="#FFF" fill-rule="nonzero" d="M163.28 690.22c-7.741-1.005-14.812-5.907-18.418-12.768-3.474-6.608-3.807-14.647-.88-21.227.52-1.171 25.27-40.318 55.006-86.993l78.438-123.144c13.41-21.051 24.794-39.296 25.301-40.543 1.874-4.613 1.456-10.313-1.08-14.745-1.358-2.373-4.64-5.583-6.879-6.724-4.016-2.05-1.652-1.974-62.317-1.981-62.804 0-59.073.15-64.963-2.753-10.312-5.083-15.783-17.56-12.538-28.598 1.813-6.175 6.964-12.394 12.525-15.128 5.781-2.842-3.056-2.634 107.763-2.524l99.684.1 2.512.86c7.492 2.563 13.622 8.763 15.964 16.152.688 2.171.856 3.625.856 7.345 0 5.069-.762 8.269-2.806 11.793-.555.956-36.155 56.894-79.108 124.302-42.954 67.408-78.437 123.325-78.85 124.256-.973 2.197-1.307 7.035-.673 9.756 1.204 5.177 4.756 9.563 9.626 11.889l2.945 1.406 63.992.201c71.504.222 65.462-.03 71.534 2.988 3.84 1.905 8.144 6.154 10.17 10.035 5.984 11.467 2.595 25.041-8.03 32.147-3.274 2.19-6.497 3.376-10.647 3.912-3.574.462-205.548.448-209.124-.018l-.002.003m528.592-.162c-3.163-.577-7.714-2.59-10.267-4.54-2.624-2.003-5.57-5.604-7.032-8.594-2.73-5.588-2.513 9.514-2.405-166.091l.1-158.695 1.054-2.89c1.315-3.602 3.989-7.561 6.827-10.107 2.608-2.338 8.23-5.157 11.427-5.73 1.573-.282 28.492-.411 85.68-.411 81.775 0 83.444.018 86.374.764 4.524 1.156 7.313 2.812 11.078 6.567 2.535 2.529 3.637 3.98 4.714 6.2 2.845 5.876 3.304 12.694 1.264 18.773-1.3 3.866-2.535 5.934-5.343 8.935-2.925 3.126-6.231 5.286-10.129 6.615l-3.093 1.054-57.42.198c-54.39.187-57.534.235-59.549.906-8.536 2.853-15.272 9.934-17.192 18.079-.864 3.663-.87 63.113-.007 66.772 2.072 8.786 9.222 15.956 18.208 18.254 2.886.738 4.477.764 49.223.77 51.665 0 49.099-.123 54.928 2.752 5.883 2.899 10.656 8.652 12.628 15.219 1.12 3.723.953 10.353-.359 14.306-2.384 7.19-8.478 13.299-15.736 15.768l-2.512.857-48.333.192-48.334.195-3.333 1.193c-6.53 2.338-11.463 6.598-14.282 12.338-2.79 5.687-2.685 4.162-2.685 38.876 0 29.557.037 31.326.748 34.099 2.251 8.803 8.79 15.316 18.006 17.934 2.142.608 6.434.65 56.453.56 38.65-.07 55.117.028 57.576.34 10.789 1.377 19.147 9.01 21.275 19.43.767 3.755.767 6.141.003 9.84-1.826 8.843-7.897 15.656-16.57 18.597l-3.125 1.058-83.518.065c-68.105.055-84.042-.03-86.344-.45l.002.002Zm-163.637-.076c-2.118-.355-6.127-1.827-8.508-3.126-3.315-1.809-8.704-7.192-10.536-10.525a38.342 38.342 0 0 1-2.286-5.22l-.903-2.707-.202-132.81c-.183-120.894-.255-132.984-.825-134.803-2.756-8.794-8.108-14.482-16.378-17.403l-3.09-1.092-26.292-.21c-24.053-.191-26.473-.269-28.42-.912-8.722-2.888-15.116-9.747-17.025-18.262-.598-2.668-.49-8.853.202-11.547 1.986-7.743 7.775-14.05 15.664-17.063l2.899-1.11 99.178-.11c69.971-.076 99.923.018 101.695.31 3.386.564 8.917 3.302 11.68 5.78 2.9 2.6 5.734 6.899 6.904 10.471.814 2.484.943 3.6.936 8.102-.006 4.466-.137 5.581-.905 7.733-2.586 7.247-8.542 13.073-15.908 15.559-2.46.832-3.058.852-28.807 1.069-29.263.246-27.642.098-33.226 3.015-5.539 2.897-10.049 8.398-12.258 14.96-.433 1.28-.555 24.414-.72 134.354-.188 126.061-.233 132.926-.888 135.129-3.006 10.09-10.39 17.503-19.843 19.923-2.82.72-9.226.98-12.138.494v.001"/></g></svg>