<?xml version="1.0" encoding="UTF-8"?>
<svg width="1025px" height="1024px" viewBox="0 0 1025 1024" version="1.1" xmlns="http://www.w3.org/2000/svg" xmlns:xlink="http://www.w3.org/1999/xlink">
    <title>139.drive</title>
    <g id="ICON-新版方图标" stroke="none" stroke-width="1" fill="none" fill-rule="evenodd">
        <g id="139.drive" transform="translate(0.3975, 0)">
            <rect id="蒙版路径" fill="#FFFFFF" x="0" y="0" width="1024" height="1024"></rect>
            <g id="移动云盘" transform="translate(152, 183)" fill="#0090FE" fill-rule="nonzero">
                <path d="M718.647464,156.39108 C687.539136,164.503586 656.430808,171.264007 624.871634,177.573734 C604.583594,181.629987 584.295554,185.68624 563.556669,187.489019 C538.30933,190.193187 513.512837,191.094577 488.265498,192.446661 C430.557295,195.150829 372.849092,194.24944 315.140889,193.798745 C269.60551,193.34805 223.619286,193.798745 178.985598,203.263335 C138.860363,211.826535 100.53851,224.445989 66.7251096,248.332811 C45.5353788,263.205738 24.7964934,278.980054 0,287.543254 C1.35253601,291.599507 4.95929869,290.698118 7.6643707,290.698118 C34.2642455,291.599507 60.8641202,289.346033 87.0131497,286.19117 C104.596118,283.937696 122.629931,281.684223 140.212899,278.980054 C162.755166,275.374496 185.297433,274.473106 207.839699,273.121022 C220.463369,272.219633 233.087038,271.768938 245.710708,274.022412 C254.727614,275.374496 257.432686,280.782833 253.375078,288.895339 C251.120852,293.852981 247.063244,297.909234 243.456481,301.965487 C233.087038,312.782161 220.914214,321.796056 209.643081,331.711341 C180.788979,357.400942 152.836569,384.893322 125.785848,412.836397 C110.907952,428.160018 96.4809017,443.934335 87.9148403,463.764904 C67.1759549,511.989243 68.9793363,558.410803 100.087664,601.226805 C123.982467,634.127522 160.500939,647.19767 198.822793,654.408786 C218.659987,658.014344 238.948028,656.66226 259.236068,656.66226 C320.551033,656.66226 381.865999,656.211565 443.180964,657.563649 C479.699436,658.465039 515.767063,658.465039 551.83469,652.606007 C588.804008,646.746975 619.010645,628.26849 640.200376,598.071941 C670.407013,555.25594 678.522229,507.482295 666.349405,456.553788 C657.783344,420.498207 640.200376,389.850964 609.542893,367.766921 C560.400751,333.063425 505.397621,322.697445 446.336882,333.51412 C423.34377,337.570372 403.055729,347.936352 387.726988,365.513447 C357.069505,400.667638 354.364433,441.230166 368.340639,483.144779 C380.513463,520.101749 426.048842,540.383013 464.82154,529.115644 C482.404508,524.158001 496.380714,513.792022 503.594239,496.665621 C509.455229,483.595473 504.946775,471.87741 492.773951,466.919767 C490.97057,485.848947 482.404508,493.961453 462.567314,494.412147 L450.845335,494.412147 C429.585228,493.725493 412.868664,476.007826 413.425172,454.751009 C413.425172,432.666966 432.360676,406.977365 455.353788,399.315554 C491.87226,387.146796 524.78397,393.456522 554.088917,418.695428 C582.943018,444.38503 592.861616,487.651726 575.729493,517.848275 C558.59737,548.495518 530.644959,565.621919 497.282405,572.833035 C468.428303,578.692067 439.123356,579.142762 409.81841,580.494846 C378.710081,581.84693 347.601753,581.396235 316.493425,579.593456 C293.049468,578.241372 269.154665,576.438593 246.161553,571.480951 C225.873513,566.974003 206.036318,561.114971 190.256731,546.692739 C179.575404,537.693643 173.872011,524.110686 174.92799,510.186464 C176.731371,485.848947 187.100814,464.666294 202.880401,446.187809 C245.907171,397.088252 290.721276,349.583127 337.232311,303.768266 C355.266124,285.740475 377.357545,275.374496 402.604884,273.121022 C425.147151,271.318243 447.238572,270.416854 469.780839,269.064769 C511.25861,266.360601 552.285535,260.952264 592.861616,249.684895 C637.946149,237.516136 678.071384,216.784178 706.925485,178.475123 C712.335629,171.714702 717.745773,164.954281 720,155.940386 L717.294928,155.940386 L718.647464,156.39108 Z M612.247965,0 C612.247965,5.40833707 609.542893,9.46458988 607.288666,13.5208427 C593.763306,38.759749 572.12273,54.9847602 547.777082,68.0549082 C513.963682,86.5333932 477.44521,97.3500673 439.574202,102.758404 C393.137132,109.518826 346.249217,108.617436 299.361302,107.716047 C244.358172,106.363962 189.355041,109.068131 135.253601,119.43411 C119.023168,122.588974 102.792736,123.941058 86.5623043,126.194532 C83.8572323,126.194532 80.701315,127.095921 76.643707,127.546616 C77.996243,126.194532 78.8979336,125.743837 79.7996243,124.842447 C89.2673763,119.884805 96.931747,112.673689 103.694427,104.561183 C132.097683,70.308382 168.16531,51.3792022 211.897307,44.6187809 C243.456481,39.6611385 275.4665,39.2104438 307.476518,37.8583595 C353.913588,36.5062752 399.899812,36.95697 446.336882,33.351412 C501.340013,29.2951591 554.990607,17.5770955 607.288666,0.901389512 C608.641202,0.901389512 609.993738,0.450694756 611.79712,0 L612.247965,0 Z" id="形状"></path>
            </g>
        </g>
    </g>
</svg>