<?xml version="1.0" encoding="UTF-8"?>
<svg width="1025px" height="1024px" viewBox="0 0 1025 1024" version="1.1" xmlns="http://www.w3.org/2000/svg" xmlns:xlink="http://www.w3.org/1999/xlink">
    <title>163.music</title>
    <g id="ICON-新版方图标" stroke="none" stroke-width="1" fill="none" fill-rule="evenodd">
        <g id="163.music" transform="translate(0.6332, 0)">
            <rect id="蒙版" fill="#FE1816" x="0" y="0" width="1024" height="1024"></rect>
            <path d="M633.428571,191 C671.830159,191 704.113639,217.886602 721.930858,244.356316 C722.441367,245.114741 722.947664,245.875271 723.449747,246.637906 L723.449698,246.637938 C732.426044,260.272474 728.64038,278.595995 714.994181,287.564669 C701.347982,296.533343 683.008786,292.750915 674.032441,279.11638 C673.895972,278.909093 673.762122,278.700096 673.630923,278.489441 C673.630923,278.489441 673.630923,278.489441 673.630923,278.489441 C660.61283,257.587456 648.844521,255.230769 633.428571,255.230769 C614.830389,255.230769 592.836754,266.627429 597.868406,287.577379 C601.222841,301.544013 605.404099,317.12917 610.412181,334.332851 C721.930858,339.251752 812,414.118754 812,551.405983 C812,573.388666 804.989171,604.265706 790.967521,644.037102 C746.949336,754.908487 638.638058,833.307692 512,833.307692 C346.314575,833.307692 212,699.107916 212,533.564103 C212,398.788425 301.026701,284.788275 423.52863,247.067647 C423.52863,247.067647 423.52863,247.067647 423.52863,247.067647 C440.497793,241.842526 458.493439,251.351195 463.72303,268.305854 C468.947147,285.242767 459.455781,303.207138 442.512132,308.451859 C442.430704,308.476932 442.349231,308.502129 442.267675,308.527329 C346.129129,338.233351 276.285714,427.749296 276.285714,533.564103 C276.285714,663.634241 381.818595,769.076923 512,769.076923 C610.654908,769.076923 695.154146,708.521099 730.295195,622.581882 L731.797728,619.507694 C741.986399,598.987813 747.714286,575.865237 747.714286,551.405983 C747.714286,478.468934 698.770016,413.212766 628.512532,401.823229 L651.02648,483.599858 C653.530155,493.897527 654.857143,504.65504 654.857143,515.722222 C654.857143,590.61109 594.095787,651.320513 519.142857,651.320513 C444.189927,651.320513 383.428571,590.61109 383.428571,515.722222 C383.428571,503.047703 387.823549,484.297221 396.613504,459.470774 C422.466894,402.599707 471.986202,362.526699 545.171429,339.251752 C541.192466,325.778295 537.27818,309.665887 533.428571,290.91453 C522.364049,237.019489 578.200096,191 633.428571,191 Z M450.418042,519.584563 C450.418042,558.999432 479.693946,587.089744 519.142857,587.089744 C558.591768,587.089744 590.571429,555.137416 590.571429,515.722222 C590.571429,496.267427 580.994255,458.148742 561.839908,401.366167 C512,401.366167 450.418042,454.025056 450.418042,519.584563 Z" id="形状" fill="#FFFFFF" fill-rule="nonzero"></path>
        </g>
    </g>
</svg>