<?xml version="1.0" encoding="UTF-8"?>
<svg width="1024px" height="1024px" viewBox="0 0 1024 1024" version="1.1" xmlns="http://www.w3.org/2000/svg" xmlns:xlink="http://www.w3.org/1999/xlink">
    <title>Alist</title>
    <g id="ICON-新版方图标" stroke="none" stroke-width="1" fill="none" fill-rule="evenodd">
        <g id="Alist">
            <rect id="蒙版路径" fill="#FFFFFF" x="0" y="0" width="1024" height="1024"></rect>
            <g id="bz" transform="translate(109, 165)" fill-rule="nonzero">
                <path d="M406.53793,0.240960587 C414.959028,-0.710169917 423.727462,1.15012934 430.76631,5.89878547 C441.370656,12.6546065 448.877343,22.9701725 455.214433,33.5305136 C483.986522,81.1079997 512.949998,128.580581 541.707909,176.172055 C579.999808,239.806855 618.305884,303.434661 656.498545,367.139397 C682.924351,411.1991 709.413952,455.230829 736.01697,499.192622 C753.539661,528.558764 771.608163,557.617187 788.358211,587.423925 C795.574271,599.900514 799.536723,614.307338 798.941292,628.707169 C798.523073,639.840986 796.474506,651.282522 790.548547,660.933694 C782.233775,674.543246 768.297849,684.152458 753.185237,689.159878 C745.12565,692.020262 736.669109,693.964484 728.070798,693.978472 C634.2762,693.943504 540.481604,694 446.694096,694 C438.62742,693.796638 430.426063,692.880476 422.85558,689.999111 C417.319488,687.670241 411.868457,684.802864 407.537403,680.613694 C400.144132,673.396295 395.352328,663.15766 396.635341,652.758172 C397.301658,645.491817 399.102128,638.323374 402.135991,631.665462 C405.077705,624.832711 409.21737,618.608404 412.811222,612.104353 C428.498001,584.5006 444.929067,557.309469 462.019361,530.523966 C467.491658,522.096674 472.255108,512.991002 479.825591,506.137271 C487.871001,498.870916 497.972067,493.171129 509.037164,492.429807 C517.93319,492.06614 526.680358,495.101363 534.094895,499.808059 C542.459286,504.647633 549.044472,512.704264 551.248986,522.103667 C554.431708,533.999787 551.007978,546.497356 545.897193,557.365417 C540.162622,569.709127 531.98962,580.91288 527.601859,593.858041 C526.800862,596.802349 525.716327,600.515952 527.942105,603.110578 C530.203326,605.208659 533.343518,606.033905 536.285232,606.76124 C544.791392,608.628532 553.566914,608.145974 562.221933,608.201922 C594.120035,608.194929 626.018137,608.201922 657.916239,608.201922 C664.232063,608.097018 670.554976,608.41173 676.8708,608.048063 C681.428685,607.530536 686.3977,606.796208 689.941934,603.65608 C692.281128,601.613948 692.571755,598.166101 691.685696,595.36866 C689.743457,589.172326 686.3977,583.528488 683.094475,577.96158 C598.039958,434.655647 513.460368,291.06997 427.512704,148.274569 C424.705671,143.686766 422.295592,138.70732 418.276431,135.00071 C416.29166,133.11943 413.349946,132.049409 410.642152,132.825699 C408.3384,133.643951 406.778938,135.644121 405.247829,137.420497 C401.462587,142.183141 398.0743,147.253503 394.962463,152.470732 C380.154655,176.214017 365.984809,200.334956 351.474717,224.25308 C267.901689,363.027158 184.314485,501.794242 100.748546,640.575314 C95.5668769,649.988705 90.0520495,659.227255 84.0410295,668.151093 C78.7601218,675.816083 72.3521477,682.998514 64.0940823,687.614293 C54.3616167,693.167214 42.3395767,695.370199 31.4304264,692.188109 C23.4700776,689.761329 15.7720027,685.809943 10.0728749,679.71152 C2.856815,672.661968 -0.340083722,662.346402 0.0285170733,652.478427 C0.397116881,642.085932 3.92008546,631.959194 9.22934746,623.035356 C59.9685953,538.000129 111.033912,453.146736 162.290617,368.405239 C188.659715,324.485408 214.908309,280.502634 241.426264,236.673721 C268.249024,192.264338 295.13558,147.896916 321.837836,103.417596 C336.737794,78.3665075 351.744079,53.3713677 367.402503,28.7678696 C372.215572,20.9700011 378.446334,13.9763974 385.945932,8.59132343 C392.098721,4.4511103 399.002888,0.898359784 406.53793,0.240960587 Z" id="路径" fill="#70C6BE"></path>
                <path d="M400.808294,328.611045 C413.48044,326.606277 426.905949,329.581996 437.410398,336.839677 C445.384682,342.88891 450.921194,351.955773 452.520315,361.742119 C453.607717,369.202373 452.868568,376.935052 450.075436,383.983176 C447.92906,390.081306 444.85164,395.816201 441.425968,401.313599 C392.556829,482.049199 343.701905,562.791783 294.825659,643.527382 C288.571319,653.635049 282.871341,664.112934 275.664635,673.612884 C270.426625,679.976453 263.880889,685.383043 256.325931,688.903612 C240.356042,697.264964 219.517718,692.165726 207.371505,679.592264 C201.216666,673.522076 197.606206,665.181679 197.137131,656.65268 C196.440625,647.823316 198.423535,638.896157 202.488856,631.023772 C206.063779,623.36793 210.292566,616.040396 214.706141,608.831611 C236.184113,573.318565 257.470192,537.693755 278.884199,502.145782 C308.194311,453.262954 337.987713,404.666521 367.482612,355.895458 C370.616889,350.349164 374.525852,345.235956 378.918104,340.597746 C384.838405,334.688218 392.350721,329.910303 400.808294,328.611045 Z" id="路径" fill="#1BA0D8"></path>
            </g>
        </g>
    </g>
</svg>