<?xml version="1.0" encoding="UTF-8"?>
<svg width="1025px" height="1024px" viewBox="0 0 1025 1024" version="1.1" xmlns="http://www.w3.org/2000/svg" xmlns:xlink="http://www.w3.org/1999/xlink">
    <title>Asus</title>
    <g id="ICON-新版方图标" stroke="none" stroke-width="1" fill="none" fill-rule="evenodd">
        <g id="Asus" transform="translate(0.3975, 0)">
            <rect id="蒙版路径" fill="#FFFFFF" x="0" y="0" width="1024" height="1024"></rect>
            <g id="编组" transform="translate(48, 412)" fill="#00539B" fill-rule="nonzero">
                <path d="M89.1666666,56.2888889 L0,199.622222 L60.9111111,199.622222 L146.766667,62.6666666 L89.1666666,56.2888889 Z M456.277778,53.1 L456.277778,0 L282.888889,0 C259.222222,1.5 248.955555,13.1333334 241.244445,21.3888889 C232.988889,30.2111111 228.4,48.7777777 228.4,48.7777777 L228.4,0.377777734 L136.122222,0.377777734 C129.144445,0.377777734 122.544445,3.37777773 117.588889,10.5111111 C112.455555,17.4444445 91.3555555,53.1 91.3555555,53.1 L456.266667,53.1 L456.277778,53.1 Z M927.777778,53.1 L927.777778,0 L742.3,0 C718.811111,1.5 708.355555,13.1333334 700.644445,21.3888889 C692.388889,30.2111111 687.811111,48.7777777 687.811111,48.7777777 L687.811111,53.1 L927.777778,53.1 Z M517.188889,0.188888867 L465.266667,0.188888867 L465.266667,53.1 L517.188889,53.1 L517.188889,0.188888867 Z M687.255555,0.188888867 L635.522222,0.188888867 L635.522222,53.1 L687.255555,53.1 L687.255555,0.188888867 Z M687.255555,72.2222223 L636.255555,69.0444445 L636.255555,130.388889 C636.255555,130.388889 636.066667,148.033333 619.366667,148.033333 L532.044445,148.033333 C532.044445,148.033333 517.188889,146.711111 517.188889,130.588889 L517.188889,60.7777777 L465.811111,57.0222223 L465.811111,151.022222 C474.066667,196.044445 513.877778,199.611111 513.877778,199.611111 C513.877778,199.611111 517.922222,199.8 518.655555,199.988889 L636.988889,199.988889 C636.988889,199.988889 687.622222,195.855555 687.622222,145.955555 L687.255555,72.2222223 Z" id="形状"></path>
                <path d="M175.577778,199.622222 L418.111111,199.622222 C460.311111,190.988889 464.711111,151.588889 464.711111,151.588889 C466.733333,139.966667 465.633333,130.388889 465.633333,130.388889 C464.344445,122.511111 449.666667,87.6111111 418.111111,84.6111111 C399.222222,82.7444445 230.977778,69.0444445 230.977778,69.0444445 C234.277778,86.3 241.8,95.1222223 246.944445,100 C258.688889,111.444445 277.211111,114.822222 277.211111,114.822222 L406.922222,125.888889 C410.955556,126.077778 418.477778,127.2 418.3,137.333333 C418.3,138.644445 417.188889,147.466667 407.655555,147.466667 L226.222222,147.466667 L226.222222,68.6666666 L175.777778,64.9111111 C175.588889,64.9111111 175.588889,199.622222 175.588889,199.622222 L175.577778,199.622222 Z M687.622222,200 L873.288889,200 C919.888889,197.188889 926.488889,151.966667 926.488889,151.966667 C928.144444,140.144444 926.866667,130.388889 926.866667,130.388889 C925.577778,119.7 910.711111,87.4333334 878.977778,84.2444445 C860.266667,82.3555555 690.922222,72.2222223 690.922222,72.2222223 C695.877778,90.0444445 702.666667,95.4888889 707.811111,100.366667 C719.544445,112 736.977778,114.622222 736.977778,114.622222 L867.977778,125.877778 C872,126.066667 880.266667,126.433333 880.266667,136.577778 C880.266667,139.577778 878.788889,142.766667 876.955555,144.455555 C876.955555,144.455555 872.555555,146.9 868.333333,146.9 L688.177778,146.9 L687.622222,200 Z" id="形状"></path>
            </g>
        </g>
    </g>
</svg>