<?xml version="1.0" encoding="UTF-8"?>
<svg width="1024px" height="1024px" viewBox="0 0 1024 1024" version="1.1" xmlns="http://www.w3.org/2000/svg" xmlns:xlink="http://www.w3.org/1999/xlink">
    <title>Auto.symlink</title>
    <g id="ICON-新版方图标" stroke="none" stroke-width="1" fill="none" fill-rule="evenodd">
        <g id="Auto.symlink">
            <rect id="蒙版路径" fill="#FFFFFF" x="0" y="0" width="1024" height="1024"></rect>
            <g id="编组-37" transform="translate(125, 210.5556)" fill="#2A6ACB">
                <path d="M0,200.444444 L97,200.444444 C113,149.111111 140.333333,106.777778 179,73.4444444 C251.49072,9.40129366 315.925788,3.78791914 339,1.44444444 C424.333333,-7.22222222 512.333333,23.1111111 603,92.4444444 L533,160.444444 C479,129.111111 439.333333,111.111111 414,106.444444 C385,99.4444444 319.719462,96.3010663 268,129.444444 C217,162.444444 193,197.444444 182,240.444444 C178,253.111111 177,276.111111 179,309.444444 L0,309.444444 L0,200.444444 Z" id="矩形"></path>
                <path d="M171,493.444444 L268,493.444444 C284,442.111111 311.333333,399.777778 350,366.444444 C422.49072,302.401294 486.925788,296.787919 510,294.444444 C595.333333,285.777778 683.333333,316.111111 774,385.444444 L704,453.444444 C650,422.111111 610.333333,404.111111 585,399.444444 C556,392.444444 490.719462,389.301066 439,422.444444 C388,455.444444 364,490.444444 353,533.444444 C349,546.111111 348,569.111111 350,602.444444 L171,602.444444 L171,493.444444 Z" id="矩形" transform="translate(472.5, 447.7222) scale(-1, -1) translate(-472.5, -447.7222)"></path>
                <circle id="椭圆形" cx="391" cy="299.444444" r="100"></circle>
            </g>
        </g>
    </g>
</svg>