<?xml version="1.0" encoding="UTF-8"?>
<svg width="1025px" height="1024px" viewBox="0 0 1025 1024" version="1.1" xmlns="http://www.w3.org/2000/svg" xmlns:xlink="http://www.w3.org/1999/xlink">
    <title>Baidu.drive</title>
    <g id="ICON-新版方图标" stroke="none" stroke-width="1" fill="none" fill-rule="evenodd">
        <g id="Baidu.drive" transform="translate(0.061, 0)">
            <rect id="蒙版路径" fill="#FFFFFF" x="0" y="0" width="1024" height="1024"></rect>
            <g id="编组" transform="translate(137, 215)" fill-rule="nonzero">
                <path d="M180.533405,230.040679 C178.703339,219.150987 177.78555,208.127525 177.789601,197.085129 C177.789601,88.2381466 266.027748,0 374.874731,0 C483.721713,0 571.95986,88.2381466 571.95986,197.085129 C571.964133,208.127233 571.046615,219.150422 569.216864,230.039871 C669.154364,230.586207 750,311.769666 750,411.835668 C750,512.24111 668.605603,593.635506 568.20097,593.635506 C517.492726,593.635506 471.633621,572.874731 438.658675,539.389817 L438.661099,539.386584 C421.333513,521.750269 421.428879,493.40625 438.947198,475.887123 C456.5625,458.272629 485.121498,458.272629 502.735991,475.887123 C503.296067,476.448006 503.83917,477.018588 504.363685,477.600485 C520.872575,493.659213 543.412985,503.549838 568.2632,503.549838 C618.880927,503.549838 659.91514,462.516433 659.91514,411.898707 C659.91514,361.280981 618.880927,320.247575 568.2632,320.247575 C545.036638,320.247575 523.828125,328.887123 507.675647,343.128233 L507.59806,343.050647 L506.073815,344.574892 C504.295797,346.217942 502.582435,347.930496 500.939386,349.709321 L497.459321,353.188578 L497.520744,353.250808 L311.737338,539.034213 L311.713093,539.009968 C278.712284,572.717942 232.698815,593.635506 181.79903,593.635506 C81.3943966,593.635506 0,512.24111 0,411.835668 C0,311.853718 80.7106681,230.721983 180.533405,230.041487 L180.533405,230.040679 Z M181.862069,503.549838 C232.478987,503.549838 273.5132,462.516433 273.5132,411.898707 C273.5132,361.280981 232.479795,320.247575 181.862069,320.247575 C131.244343,320.247575 90.2101293,361.280981 90.2101293,411.898707 C90.2101293,462.515625 131.244343,503.549838 181.862069,503.549838 Z M374.874731,303.960129 C433.900054,303.960129 481.749731,256.110453 481.749731,197.085129 C481.749731,138.060614 433.900054,90.2109375 374.874731,90.2109375 C315.849407,90.2109375 267.999731,138.060614 267.999731,197.085937 C267.999731,256.110453 315.849407,303.960129 374.874731,303.960129 Z" id="形状" fill="#06A7FF"></path>
                <path d="M481.156519,208.40625 C480.966681,206.706501 480.871706,204.997494 480.872037,203.287177 C480.872037,178.13389 501.262662,157.743265 526.415948,157.743265 C551.569235,157.743265 571.95986,178.13389 571.95986,203.287177 C571.95986,205.21875 571.838631,207.122037 571.605873,208.990571 C565.4507,312.293373 479.724407,394.16945 374.874731,394.16945 C270.025054,394.16945 184.298761,312.294181 178.143588,208.990571 C177.907489,207.098615 177.789601,205.193808 177.789601,203.287177 C177.789601,178.13389 198.180226,157.743265 223.333513,157.743265 C248.4868,157.743265 268.877425,178.13389 268.877425,203.287177 C268.877425,205.017511 268.780442,206.726024 268.592942,208.40625 C274.247037,262.108836 319.673761,303.958513 374.874731,303.958513 C430.0757,303.958513 475.502425,262.108836 481.156519,208.40625 L481.156519,208.40625 Z" id="路径" fill="#FF436A"></path>
            </g>
        </g>
    </g>
</svg>