<?xml version="1.0" encoding="UTF-8"?>
<svg width="1025px" height="1024px" viewBox="0 0 1025 1024" version="1.1" xmlns="http://www.w3.org/2000/svg" xmlns:xlink="http://www.w3.org/1999/xlink">
    <title>Bilibili</title>
    <g id="ICON-新版方图标" stroke="none" stroke-width="1" fill="none" fill-rule="evenodd">
        <g id="Bilibili" transform="translate(0.6332, 0)">
            <rect id="蒙版路径" fill="#FF5CA1" x="0" y="0" width="1024" height="1024"></rect>
            <path d="M709.882813,450.835571 C713.17211,450.835571 726.32789,447.662728 726.32789,447.662728 L732.906485,495.258082 L719.75,498.431602 C719.75,492.085239 709.882813,454.009091 709.882813,450.835571 Z M736.195078,444.489885 L742.773672,495.258082 L762.508047,495.258082 C759.21875,476.220347 752.64086,444.489885 752.64086,444.489885 L736.195078,444.489885 Z M723.039297,514.296495 C723.039297,514.296495 752.64086,507.950132 762.508047,511.123652 C769.085937,530.161387 778.953125,638.044822 778.953125,641.217665 C772.377349,641.217665 749.351562,644.390508 749.351562,644.390508 C746.062265,638.044822 723.039297,520.642858 723.039297,514.296495 L723.039297,514.296495 Z M831.580474,450.835571 L848.023437,450.835571 C848.023437,454.009091 851.314849,498.431602 848.023437,498.431602 L834.864838,498.431602 C834.864838,495.258082 831.580474,454.009091 831.580474,450.835571 Z M854.599213,450.835571 L854.599213,501.604446 L874.333588,501.604446 L874.333588,450.835571 C867.757812,450.835571 861.182037,447.662728 854.599213,450.835571 Z M834.864838,517.469338 C834.864838,517.469338 864.466401,514.296495 874.333588,517.469338 C877.625,539.680593 877.625,644.390508 877.625,647.563351 L848.023437,647.563351 C848.023437,641.217665 834.864838,520.642181 834.864838,517.469338 L834.864838,517.469338 Z M765.794526,387.375325 C782.244537,473.046827 795.396088,622.179252 798.6875,631.698459 L828.289063,631.698459 C815.130463,539.680593 805.263276,390.548168 805.263276,387.375325 C801.978912,381.028962 765.794526,387.375325 765.794526,387.375325 L765.794526,387.375325 Z M726.32789,593.622311 C723.039297,568.238212 634.23461,542.853437 581.609375,549.1998 C581.609375,549.1998 575.031485,495.258082 571.742188,444.489885 C568.45289,400.067374 571.742188,355.644863 571.742188,349.299177 C568.45289,346.126334 532.273438,365.164069 512.539063,371.510433 C512.539063,371.510433 535.562735,466.701141 552.007813,666.601763 C552.007813,666.601763 578.320078,669.774607 624.367422,660.2554 C676.991953,650.736871 729.617188,625.352772 726.32789,593.622311 L726.32789,593.622311 Z M617.788828,634.871302 L607.92164,580.930261 C611.210937,580.930261 657.257578,596.795154 663.836172,599.967997 C663.836172,603.141517 617.788828,634.871302 617.788828,634.871302 L617.788828,634.871302 Z M334.929687,450.835571 C338.218985,450.835571 351.374765,447.662728 351.374765,447.662728 L357.95336,495.258082 C354.664062,495.258082 344.796875,498.431602 344.796875,498.431602 C344.796875,492.085239 334.929687,454.009091 334.929687,450.835571 L334.929687,450.835571 Z M361.241953,444.489885 L367.820547,495.258082 L387.554922,495.258082 C384.265625,476.220347 380.976328,444.489885 380.976328,444.489885 L361.241953,444.489885 Z M348.086172,514.296495 C348.086172,514.296495 377.687735,507.950132 387.554922,511.123652 C394.132812,530.161387 404,638.044822 404,641.217665 C397.42211,641.217665 374.398437,644.390508 374.398437,644.390508 C371.10914,638.044822 348.086172,520.642858 348.086172,514.296495 L348.086172,514.296495 Z M456.625235,450.835571 L473.070312,450.835571 C473.070312,454.009091 476.35961,498.431602 473.070312,498.431602 L459.913828,498.431602 C459.913828,495.258082 456.625235,454.009091 456.625235,450.835571 Z M482.9375,450.835571 L482.9375,501.604446 L502.671875,501.604446 L502.671875,450.835571 C496.093985,450.835571 489.51539,447.662728 482.9375,450.835571 Z M459.913828,517.469338 C459.913828,517.469338 489.51539,514.296495 499.382578,517.469338 C502.671875,539.680593 502.671875,644.390508 502.671875,647.563351 L473.070312,647.563351 C473.070312,641.217665 459.913828,520.642181 459.913828,517.469338 L459.913828,517.469338 Z M390.843515,387.375325 C407.289297,473.046827 420.445078,622.179252 423.734375,631.698459 L453.335938,631.698459 C443.46875,539.680593 433.601563,390.548168 433.601563,384.202482 C427.023672,381.029639 390.843515,387.375325 390.843515,387.375325 Z M351.374765,593.622311 C348.086172,568.238212 259.281485,542.853437 206.65625,549.1998 C206.65625,549.1998 200.07836,495.258082 196.789062,444.489885 C193.499765,400.067374 196.789062,355.644863 196.789062,349.299177 C193.499765,346.126334 157.320312,365.164069 137.585938,371.510433 C137.585938,371.510433 160.60961,466.701141 177.054687,666.601763 C177.054687,666.601763 203.366953,669.774607 249.414297,660.2554 C295.460937,650.736871 357.95336,625.352772 351.374765,593.622311 Z M242.835703,634.871302 L236.257812,580.930261 C239.54711,580.930261 285.59375,596.795154 292.17164,599.967997 C288.883047,603.141517 242.835703,634.871302 242.835703,634.871302" id="形状" fill="#FFFFFF" fill-rule="nonzero"></path>
        </g>
    </g>
</svg>