<?xml version="1.0" encoding="UTF-8"?>
<svg width="1025px" height="1024px" viewBox="0 0 1025 1024" version="1.1" xmlns="http://www.w3.org/2000/svg" xmlns:xlink="http://www.w3.org/1999/xlink">
    <title>Bitwarden</title>
    <g id="ICON-新版方图标" stroke="none" stroke-width="1" fill="none" fill-rule="evenodd">
        <g id="Bitwarden" transform="translate(0.6332, 0)">
            <rect id="蒙版路径" fill="#FFFFFF" x="0" y="0" width="1024" height="1024"></rect>
            <path d="M512.550236,799.641903 C548.847719,780.304369 581.845431,759.080247 610.60058,736.441182 C682.72415,679.843522 718.550236,624.660804 718.550236,570.421381 L718.550236,275.641903 L512.550236,275.641903 L512.550236,799.641903 Z" id="路径" fill="#185DDC" fill-rule="nonzero"></path>
            <path d="M0,1.09139364e-11 L0,1024 L1024,1024 L1024,1.09139364e-11 M761.827641,609.134646 C752.563953,632.293865 741.194882,652.926622 727.720429,670.611844 C714.245974,688.718142 697.823983,705.982287 679.296608,722.825355 C660.348157,739.668422 643.084012,753.98503 627.083098,765.354101 C611.082184,776.723172 594.239115,787.250089 577.396048,797.35593 C560.131903,807.461771 547.920679,814.198998 540.762375,817.567611 C533.604071,820.936224 527.708997,823.883761 523.498231,825.989145 C520.129617,827.673452 516.761003,828.515605 512.971313,828.515605 C509.181623,828.515605 505.391932,827.673452 502.444395,825.989145 C496.549322,823.462685 490.654248,820.515149 485.180251,817.567611 C478.021947,814.198998 465.810723,807.040693 448.546578,797.35593 C431.703511,787.671166 414.860442,776.723172 398.859528,765.354101 C382.858614,753.98503 365.594469,740.089499 347.067094,722.825355 C328.118643,705.982287 312.117728,688.297065 298.643275,670.611844 C285.168821,652.505546 273.79975,632.293865 264.536062,609.134646 C255.272375,585.975428 250.640531,562.395133 250.640531,539.235915 L250.640531,223.428393 C250.640531,216.270088 253.166991,209.953938 258.640989,204.901017 C263.693909,199.848097 270.01006,196.900561 277.168363,196.900561 L750.879646,196.900561 C758.037951,196.900561 764.354101,199.427021 769.407022,204.901017 C774.459942,209.953938 777.407478,216.270088 777.407478,223.428393 L777.407478,539.235915" id="形状" fill="#185DDC" fill-rule="nonzero"></path>
        </g>
    </g>
</svg>