<?xml version="1.0" encoding="UTF-8"?>
<svg width="1024px" height="1024px" viewBox="0 0 1024 1024" version="1.1" xmlns="http://www.w3.org/2000/svg" xmlns:xlink="http://www.w3.org/1999/xlink">
    <title>Bt.digg</title>
    <g id="ICON-新版方图标" stroke="none" stroke-width="1" fill="none" fill-rule="evenodd">
        <g id="Bt.digg">
            <rect id="蒙版路径" fill="#FFFFFF" x="0" y="0" width="1024" height="1024"></rect>
            <g id="编组" transform="translate(62.471, 62)">
                <path d="M689.468071,80.8507885 C695.147331,80.8640388 699.56727,82.5471268 702.942381,84.8597595 C708.446373,88.6311059 711.195513,94.0232116 712.171343,96.4299681 C716.25772,106.50848 720.581536,130.083517 725.22858,167.125968 L652.953027,166.674954 C658.022665,129.749231 662.622382,106.297198 666.840658,96.3503857 C667.74482,94.2183451 670.545212,88.6506464 676.198672,84.7909125 C679.546152,82.5055189 683.905786,80.8378669 689.468071,80.8507885 Z" id="矩形" stroke="#047BBD" stroke-width="5" fill="#FFFFFF" transform="translate(689.0764, 123.9972) rotate(36) translate(-689.0764, -123.9972)"></path>
                <g id="编组-19" fill="#FFFFFF" stroke="#047BBD" stroke-width="5">
                    <path d="M451.249039,2.5 C456.914059,2.5 461.319209,4.17385709 464.680598,6.48069739 C470.163737,10.243644 472.893789,15.6359473 473.861867,18.0432084 C477.918643,28.1309543 482.181148,51.7416445 486.735245,88.8464019 L414.589862,88.563202 C419.73674,51.5634609 424.383609,28.0611169 428.617942,18.0874098 C429.526162,15.9481543 432.336544,10.3604639 437.993407,6.47829469 C441.340388,4.18134213 445.696216,2.5 451.249039,2.5 Z" id="矩形"></path>
                    <path d="M574.00538,22.0956978 C579.675118,22.1038764 584.08622,23.7842219 587.453661,26.0956391 C592.946717,29.8660813 595.68696,35.2616322 596.659298,37.6700463 C600.732149,47.7582093 605.030278,71.3613987 609.639349,108.450675 L537.457709,108.063615 C542.554057,71.0866058 547.169307,47.6008622 551.391399,37.6377147 C552.296611,35.5016251 555.099169,29.9228315 560.750847,26.0521691 C564.095709,23.7613752 568.450721,22.0877063 574.00538,22.0956978 Z" id="矩形" transform="translate(573.5314, 65.2808) rotate(18) translate(-573.5314, -65.2808)"></path>
                    <path d="M323.610814,23.3189059 C329.27773,23.3107534 333.682095,24.9768652 337.041364,27.2775266 C342.519384,31.029256 345.241844,36.4128548 346.206517,38.816591 C350.250814,48.8940095 354.481368,72.4886805 358.98449,109.571654 L286.803875,109.392563 C292.005789,72.4073237 296.688282,48.9118296 300.938603,38.937372 C301.85064,36.7970451 304.671518,31.2060574 310.338557,27.3161927 C313.691583,25.0146696 318.053354,23.3269231 323.610814,23.3189059 Z" id="矩形" transform="translate(322.868, 66.4488) rotate(-18) translate(-322.868, -66.4488)"></path>
                    <path d="M214.194068,80.8655537 C219.444141,80.8533584 223.611249,82.2716835 226.867688,84.3035346 C231.667932,87.2986419 234.497127,91.5910072 235.958977,94.4719175 C236.256431,95.0759166 236.456563,95.5072323 236.607538,95.8536846 L236.712306,96.098984 C236.744658,96.1763613 236.77469,96.2498069 236.803155,96.3206928 C240.843334,106.381818 245.057819,129.943068 249.53345,166.975311 L177.259557,166.860823 C182.499987,129.921774 187.208499,106.45396 191.472445,96.4888461 C192.387651,94.3499505 195.217689,88.7625199 200.896017,84.8717172 C204.256702,82.5689685 208.627267,80.8785428 214.194068,80.8655537 Z" id="矩形" transform="translate(213.3675, 123.9227) rotate(-36) translate(-213.3675, -123.9227)"></path>
                    <path d="M126.641057,166.5202 C132.326473,166.507014 136.74387,168.16502 140.112124,170.457638 C145.599533,174.192668 148.324105,179.556613 149.288915,181.951972 C153.100646,191.415448 157.064016,212.854086 161.264829,246.23699 L161.541561,248.451003 C161.706547,249.779846 161.871829,251.126913 162.037408,252.492204 L89.6478645,252.378137 C94.8955875,215.499321 99.6105785,192.069441 103.880584,182.120197 C104.7971,179.984685 107.63146,174.406301 113.317882,170.521687 C116.684912,168.221538 121.06376,166.533194 126.641057,166.5202 Z" id="矩形" transform="translate(125.8135, 209.5084) rotate(-54) translate(-125.8135, -209.5084)"></path>
                    <path d="M70.6683691,271.66142 C76.3628795,271.652873 80.7886651,273.313331 84.164175,275.606974 C89.6619013,279.342651 92.3948063,284.703178 93.3628773,287.096906 C97.4215255,297.132636 101.665853,320.628776 106.183238,357.5558 L33.7036298,357.382705 C38.9269015,320.552922 43.6277355,297.155224 47.8943848,287.221505 C48.809968,285.089822 51.6424514,279.521924 57.3307583,275.647593 C60.7003758,273.352531 65.0837154,271.669826 70.6683691,271.66142 Z" id="矩形" transform="translate(69.9168, 314.612) rotate(-71) translate(-69.9168, -314.612)"></path>
                    <path d="M48.7106391,385.283792 C54.409782,385.281857 58.8410234,386.947398 62.2219209,389.24453 C67.7282995,392.985809 70.469789,398.348299 71.4414211,400.742671 C75.5135428,410.77751 79.7872026,434.264656 84.3496454,471.174514 L11.8317363,470.917236 C17.0146265,434.110508 21.6903341,410.729179 25.947528,400.805239 C26.8607717,398.676377 29.6872435,393.116381 35.3719607,389.251862 C38.740348,386.962004 43.1236627,385.28569 48.7106391,385.283792 Z" id="矩形" transform="translate(48.0677, 428.2342) rotate(-86) translate(-48.0677, -428.2342)"></path>
                    <path d="M65.6155011,520.833491 C71.3142317,520.840028 75.747506,522.513295 79.1315264,524.816451 C84.6443564,528.568468 87.3943227,533.938679 88.369685,536.336135 C92.4555767,546.379323 96.7631816,569.87749 101.379332,606.801089 L28.8809933,606.43604 C34.007976,569.623125 38.6477502,546.240262 42.8892805,536.319423 C43.7987618,534.192168 46.6149969,528.636917 52.2903392,524.781261 C55.6534034,522.496496 60.031788,520.8271 65.6155011,520.833491 Z" id="矩形" transform="translate(65.1119, 563.8244) rotate(-104) translate(-65.1119, -563.8244)"></path>
                    <path d="M111.707174,625.819078 C117.399236,625.831604 121.828966,627.511563 125.211399,629.820544 C130.724132,633.58375 133.477567,638.964663 134.454733,641.36658 C138.546869,651.425225 142.874869,674.953872 147.525035,711.923142 L75.1095859,711.481844 C80.1927618,674.628608 84.8033146,651.222021 89.0301772,641.293898 C89.0498739,641.247635 89.0704686,641.19975 89.0919714,641.150298 L89.2319616,640.835192 C90.3144349,638.448143 93.1120442,633.357171 98.406567,629.755355 C101.762088,627.472625 106.132049,625.806859 111.707174,625.819078 Z" id="矩形" transform="translate(111.3024, 668.8798) rotate(-122) translate(-111.3024, -668.8798)"></path>
                    <path d="M193.135864,717.412831 C198.818155,717.42663 203.240613,719.109628 206.617743,721.4219 C212.124375,725.192212 214.875264,730.582292 215.851731,732.988152 C219.940657,743.062615 224.26836,766.627481 228.920716,803.653574 L156.613331,803.19573 C161.681457,766.286838 166.280715,742.845557 170.499715,732.903484 C171.404009,730.772515 174.204978,725.20771 179.860143,721.350315 C183.209096,719.065991 187.570785,717.399377 193.135864,717.412831 Z" id="矩形" transform="translate(192.7529, 760.5422) rotate(-139) translate(-192.7529, -760.5422)"></path>
                    <path d="M300.22863,783.409484 C305.899703,783.418797 310.312162,785.09991 313.680846,787.411795 C319.17577,791.18289 321.917692,796.578327 322.890709,798.986655 C326.966155,809.073853 331.269593,832.673576 335.886685,869.756862 L263.692644,869.355453 C268.782465,832.385435 273.393753,808.904411 277.614538,798.943737 C278.519418,796.808302 281.321168,791.231318 286.972644,787.362642 C290.317618,785.072864 294.673047,783.400388 300.22863,783.409484 Z" id="矩形" transform="translate(299.7732, 826.5911) rotate(-159) translate(-299.7732, -826.5911)"></path>
                    <path d="M424.457201,809.124889 C430.122567,809.126341 434.528391,810.801446 437.890563,813.10922 C443.375108,816.873777 446.106778,822.267065 447.075549,824.674708 C451.134917,834.763267 455.403483,858.374377 459.967058,895.47916 L387.820558,895.177472 C392.958114,858.178997 397.599061,834.677856 401.830938,824.705295 C402.738563,822.566447 405.547354,816.979921 411.202924,813.099514 C414.549235,810.803538 418.904535,809.123466 424.457201,809.124889 Z" id="矩形" transform="translate(423.873, 852.3079) rotate(-177) translate(-423.873, -852.3079)"></path>
                    <path d="M551.13085,799.399076 C556.796569,799.392993 561.200576,801.06121 564.55996,803.363615 C570.038764,807.118597 572.762873,812.504998 573.728319,814.909886 C577.7754,824.990999 582.013679,848.592281 586.529326,885.684815 L514.365384,885.479232 C519.552822,848.486288 524.225828,824.986521 528.47168,815.011196 C529.382659,812.870915 532.200582,807.280161 537.864494,803.391841 C541.21556,801.091308 545.575267,799.405052 551.13085,799.399076 Z" id="矩形" transform="translate(550.4224, 842.546) rotate(-193) translate(-550.4224, -842.546)"></path>
                    <path d="M666.84922,748.123013 C672.523929,748.109832 676.932973,749.769894 680.294866,752.065129 C685.774515,755.806199 688.494881,761.178964 689.458307,763.578152 C693.498486,773.639278 697.712971,797.200528 702.188602,834.232771 L629.914709,834.118283 C635.155139,797.179233 639.863651,773.711419 644.127597,763.746306 C645.042803,761.60741 647.872841,756.019979 653.551169,752.129177 C656.911854,749.826428 661.282419,748.136002 666.84922,748.123013 Z" id="矩形" transform="translate(666.0226, 791.1801) rotate(-216) translate(-666.0226, -791.1801)"></path>
                    <path d="M780.651162,176.262434 C786.341112,176.275689 790.769396,177.956715 794.150862,180.266724 C799.662635,184.032029 802.41598,189.415318 803.393197,191.818243 C807.485386,201.880722 811.815145,225.417711 816.468664,262.399878 L744.077393,261.949252 C749.154345,225.083775 753.76055,201.669681 757.984889,191.738739 C758.113384,191.436663 758.280916,191.064742 758.490229,190.637804 C759.957857,187.738505 762.865452,183.106509 767.862118,179.877569 C771.153095,177.750877 775.358791,176.250158 780.651162,176.262434 Z" id="矩形" transform="translate(780.2586, 219.34) rotate(-306) translate(-780.2586, -219.34)"></path>
                    <path d="M762.92189,662.604033 C768.181375,662.591703 772.355932,664.008291 775.618167,666.037881 C780.424977,669.028423 783.258242,673.31423 784.722109,676.190961 C785.019859,676.793858 785.220196,677.224394 785.371329,677.570226 L785.476205,677.815088 C785.508591,677.892327 785.538655,677.965643 785.56715,678.036403 C789.378338,687.500574 793.340858,708.940896 797.540495,742.326484 L797.817149,744.540672 C797.982103,745.86975 798.147354,747.217057 798.312902,748.582593 L725.929618,748.470307 C731.177863,711.588166 735.893088,688.156153 740.163011,678.205953 C741.079516,676.070222 743.913801,670.491244 749.599919,666.606128 C752.966677,664.305746 757.345137,662.617167 762.92189,662.604033 Z" id="矩形" transform="translate(762.0921, 705.5955) rotate(-233) translate(-762.0921, -705.5955)"></path>
                    <path d="M827.279341,550.199271 C832.972474,550.18963 837.396881,551.849364 840.771136,554.142578 C846.266987,557.877671 848.998229,563.238373 849.965631,565.632212 C854.021715,575.669001 858.26084,599.168795 862.770386,636.102094 L790.303708,635.942931 C795.53326,599.105901 800.237891,575.703333 804.505764,565.767091 C805.42166,563.634748 808.254894,558.065026 813.943336,554.188715 C817.312797,551.892642 821.69567,550.208758 827.279341,550.199271 Z" id="矩形" transform="translate(826.5098, 593.1538) rotate(-248) translate(-826.5098, -593.1538)"></path>
                    <path d="M853.836997,426.812684 C859.536431,426.811714 863.968168,428.47807 867.349622,430.775805 C872.856982,434.518117 875.599572,439.88121 876.571673,442.275812 C880.536932,452.043538 884.693246,474.563621 889.129432,509.803939 L889.412382,512.066207 C889.438904,512.279627 889.465435,512.493497 889.491975,512.707816 L816.972705,512.43826 C822.149451,475.63273 826.821265,452.252425 831.076864,442.32934 C831.98972,440.200769 834.815161,434.641599 840.499065,430.778288 C843.867045,428.489094 848.25006,426.813635 853.836997,426.812684 Z" id="矩形" transform="translate(853.21, 469.7655) rotate(-268) translate(-853.21, -469.7655)"></path>
                    <path d="M835.4384,292.400149 C841.136411,292.407937 845.569471,294.082472 848.95356,296.386679 C854.466861,300.140653 857.217818,305.512544 858.193645,307.910691 C862.281208,317.956097 866.59345,341.458233 871.217118,378.387573 L798.728799,378.006614 C803.847089,341.189073 808.481166,317.803647 812.720013,307.882287 C813.62886,305.75506 816.443319,300.199952 822.116781,296.34522 C825.47867,294.061045 829.855817,292.392539 835.4384,292.400149 Z" id="矩形" transform="translate(834.9554, 335.4013) rotate(-287) translate(-834.9554, -335.4013)"></path>
                </g>
                <ellipse id="椭圆形" stroke="#047BBD" stroke-width="5" fill="#FFFFFF" cx="450.640934" cy="450.982214" rx="363.579093" ry="365.37438"></ellipse>
                <g id="编组-20" transform="translate(118.9944, 380.6315)" fill-rule="nonzero">
                    <g id="Digg" transform="translate(274.6034, 0)" fill="#FE0000">
                        <path d="M0,0 L49.5571737,0 C59.3262451,0 67.2175929,1.3254519 73.2312173,3.97635569 C79.2448416,6.62725948 84.2152862,10.4317973 88.1425511,15.3899692 C92.069816,20.3481412 94.917083,26.1163114 96.6843522,32.6944801 C98.4516214,39.2726488 99.335256,46.2435439 99.335256,53.6071656 C99.335256,65.1435062 98.0220768,74.0903065 95.3957184,80.4475665 C92.7693601,86.8048265 89.1243673,92.1311795 84.4607403,96.4266255 C79.7971133,100.722071 74.7898505,103.581611 69.4389521,105.005245 C62.1244213,106.968877 55.4971618,107.950693 49.5571737,107.950693 L0,107.950693 L0,0 Z M33.3572061,24.4472239 L33.3572061,83.4298333 L41.5308261,83.4298333 C48.5017213,83.4298333 53.4598932,82.656653 56.4053418,81.1102925 C59.3507905,79.5639319 61.6580586,76.8639373 63.3271462,73.0103086 C64.9962337,69.15668 65.8307775,62.9098743 65.8307775,54.2698915 C65.8307775,42.8317326 63.9653267,35.0017482 60.2344251,30.7799385 C56.5035234,26.5581287 50.3180813,24.4472239 41.6780985,24.4472239 L33.3572061,24.4472239 Z" id="形状"></path>
                        <path d="M128.544289,0 L158.514229,0 L158.514229,20.397232 L128.544289,20.397232 L128.544289,0 Z M128.544289,29.7490315 L158.514229,29.7490315 L158.514229,107.950693 L128.544289,107.950693 L128.544289,29.7490315 Z" id="形状"></path>
                        <path d="M244.644057,29.7490315 L272.699455,29.7490315 L272.699455,103.606157 L272.773091,107.067059 C272.773091,111.97614 271.729912,116.65204 269.643552,121.094758 C267.557193,125.537476 264.783562,129.133378 261.32266,131.882464 C257.861757,134.631549 253.46813,136.619727 248.141777,137.846997 C242.815424,139.074268 236.715891,139.687903 229.843177,139.687903 C214.134118,139.687903 203.346412,137.331544 197.48006,132.618826 C191.613708,127.906108 188.680532,121.597939 188.680532,113.694318 C188.680532,112.712502 188.729623,111.38705 188.827804,109.717963 L217.91411,113.031592 C218.650472,115.731587 219.779561,117.597038 221.301376,118.627945 C223.510462,120.14976 226.284093,120.910667 229.622268,120.910667 C233.94226,120.910667 237.169981,119.757033 239.305431,117.449765 C241.440881,115.142497 242.508606,111.117051 242.508606,105.373426 L242.508606,93.5179949 C239.563158,97.0034425 236.617709,99.5316193 233.67226,101.102525 C229.057724,103.557066 224.075007,104.784336 218.724108,104.784336 C208.267766,104.784336 199.824146,100.218891 193.39325,91.0879998 C188.827804,84.6080127 186.545082,76.0416662 186.545082,65.3889602 C186.545082,53.2144391 189.49053,43.9362758 195.381428,37.5544704 C201.272325,31.172665 208.979582,27.9817623 218.5032,27.9817623 C224.59046,27.9817623 229.609996,29.0126693 233.561806,31.0744834 C237.513616,33.1362974 241.2077,36.5481088 244.644057,41.3099174 L244.644057,29.7490315 Z M216.441386,67.6716829 C216.441386,73.3171262 217.644111,77.5021178 220.04956,80.2266579 C222.45501,82.9511979 225.621367,84.3134679 229.548632,84.3134679 C233.279534,84.3134679 236.409073,82.9021071 238.93725,80.0793854 C241.465427,77.2566638 242.729515,72.9980359 242.729515,67.3035019 C242.729515,61.6089678 241.404063,57.2521583 238.753159,54.2330734 C236.102255,51.2139886 232.862262,49.7044461 229.033179,49.7044461 C225.204095,49.7044461 222.148192,51.0912615 219.86547,53.8648924 C217.582747,56.6385232 216.441386,61.2407867 216.441386,67.6716829 Z" id="形状"></path>
                        <path d="M359.2711,29.7490315 L387.326499,29.7490315 L387.326499,103.606157 L387.400135,107.067059 C387.400135,111.97614 386.356955,116.65204 384.270596,121.094758 C382.184236,125.537476 379.410605,129.133378 375.949703,131.882464 C372.488801,134.631549 368.095173,136.619727 362.76882,137.846997 C357.442467,139.074268 351.342934,139.687903 344.470221,139.687903 C328.761161,139.687903 317.973455,137.331544 312.107104,132.618826 C306.240752,127.906108 303.307576,121.597939 303.307576,113.694318 C303.307576,112.712502 303.356666,111.38705 303.454848,109.717963 L332.541154,113.031592 C333.277516,115.731587 334.406604,117.597038 335.92842,118.627945 C338.137506,120.14976 340.911137,120.910667 344.249312,120.910667 C348.569303,120.910667 351.797024,119.757033 353.932475,117.449765 C356.067925,115.142497 357.13565,111.117051 357.13565,105.373426 L357.13565,93.5179949 C354.190201,97.0034425 351.244753,99.5316193 348.299304,101.102525 C343.684768,103.557066 338.70205,104.784336 333.351152,104.784336 C322.894809,104.784336 314.45119,100.218891 308.020294,91.0879998 C303.454848,84.6080127 301.172125,76.0416662 301.172125,65.3889602 C301.172125,53.2144391 304.117574,43.9362758 310.008471,37.5544704 C315.899369,31.172665 323.606626,27.9817623 333.130243,27.9817623 C339.217504,27.9817623 344.237039,29.0126693 348.18885,31.0744834 C352.14066,33.1362974 355.834743,36.5481088 359.2711,41.3099174 L359.2711,29.7490315 Z M331.068429,67.6716829 C331.068429,73.3171262 332.271154,77.5021178 334.676604,80.2266579 C337.082054,82.9511979 340.248411,84.3134679 344.175676,84.3134679 C347.906577,84.3134679 351.036117,82.9021071 353.564293,80.0793854 C356.09247,77.2566638 357.356559,72.9980359 357.356559,67.3035019 C357.356559,61.6089678 356.031107,57.2521583 353.380203,54.2330734 C350.729299,51.2139886 347.489306,49.7044461 343.660222,49.7044461 C339.831139,49.7044461 336.775236,51.0912615 334.492513,53.8648924 C332.209791,56.6385232 331.068429,61.2407867 331.068429,67.6716829 Z" id="形状"></path>
                    </g>
                    <g id="BT" fill="#88D201">
                        <path d="M0,0 L62.4435116,0 C72.8507635,0 80.840293,2.57726758 86.4121,7.73180273 C91.9839071,12.8863379 94.7698106,19.2681433 94.7698106,26.877219 C94.7698106,33.2590244 92.7816328,38.7326499 88.8052771,43.2980953 C86.1543733,46.3417256 82.2761992,48.7471753 77.1707549,50.5144445 C84.927103,52.3798953 90.6339098,55.5830707 94.2911752,60.1239708 C97.9484406,64.6648708 99.7770733,70.3716775 99.7770733,77.2443911 C99.7770733,82.8407435 98.4761668,87.8725517 95.8743539,92.3398155 C93.2725409,96.8070793 89.7134571,100.341618 85.1971025,102.943431 C82.3989262,104.563427 78.1771165,105.741607 72.5316732,106.477969 C65.0207792,107.459785 60.0380618,107.950693 57.5835213,107.950693 L0,107.950693 L0,0 Z M33.6517509,42.3408245 L48.1580856,42.3408245 C53.3617115,42.3408245 56.9821589,41.4449172 59.0194275,39.6531026 C61.0566962,37.861288 62.0753305,35.2717477 62.0753305,31.8844817 C62.0753305,28.7426698 61.0566962,26.2881293 59.0194275,24.5208601 C56.9821589,22.7535909 53.4353478,21.8699563 48.3789942,21.8699563 L33.6517509,21.8699563 L33.6517509,42.3408245 Z M33.6517509,84.7552852 L50.6617169,84.7552852 C56.4053418,84.7552852 60.4553337,83.7366508 62.8116927,81.6993822 C65.1680516,79.6621135 66.346231,76.9253008 66.346231,73.488944 C66.346231,70.2980413 65.1803243,67.7330465 62.8485108,65.7939594 C60.5166972,63.8548724 56.4298872,62.8853289 50.5880807,62.8853289 L33.6517509,62.8853289 L33.6517509,84.7552852 Z" id="形状"></path>
                        <polygon id="路径" points="122.211574 0 223.608644 0 223.608644 26.6563104 189.588712 26.6563104 189.588712 107.950693 156.231506 107.950693 156.231506 26.6563104 122.211574 26.6563104"></polygon>
                    </g>
                </g>
            </g>
            <g id="编组备份" transform="translate(62.471, 62)">
                <path d="M689.468071,80.8507885 C695.147331,80.8640388 699.56727,82.5471268 702.942381,84.8597595 C708.446373,88.6311059 711.195513,94.0232116 712.171343,96.4299681 C716.25772,106.50848 720.581536,130.083517 725.22858,167.125968 L652.953027,166.674954 C658.022665,129.749231 662.622382,106.297198 666.840658,96.3503857 C667.74482,94.2183451 670.545212,88.6506464 676.198672,84.7909125 C679.546152,82.5055189 683.905786,80.8378669 689.468071,80.8507885 Z" id="矩形" stroke="#047BBD" stroke-width="5" fill="#FFFFFF" transform="translate(689.0764, 123.9972) rotate(36) translate(-689.0764, -123.9972)"></path>
                <g id="编组-19" fill="#FFFFFF" stroke="#047BBD" stroke-width="5">
                    <path d="M451.249039,2.5 C456.914059,2.5 461.319209,4.17385709 464.680598,6.48069739 C470.163737,10.243644 472.893789,15.6359473 473.861867,18.0432084 C477.918643,28.1309543 482.181148,51.7416445 486.735245,88.8464019 L414.589862,88.563202 C419.73674,51.5634609 424.383609,28.0611169 428.617942,18.0874098 C429.526162,15.9481543 432.336544,10.3604639 437.993407,6.47829469 C441.340388,4.18134213 445.696216,2.5 451.249039,2.5 Z" id="矩形"></path>
                    <path d="M574.00538,22.0956978 C579.675118,22.1038764 584.08622,23.7842219 587.453661,26.0956391 C592.946717,29.8660813 595.68696,35.2616322 596.659298,37.6700463 C600.732149,47.7582093 605.030278,71.3613987 609.639349,108.450675 L537.457709,108.063615 C542.554057,71.0866058 547.169307,47.6008622 551.391399,37.6377147 C552.296611,35.5016251 555.099169,29.9228315 560.750847,26.0521691 C564.095709,23.7613752 568.450721,22.0877063 574.00538,22.0956978 Z" id="矩形" transform="translate(573.5314, 65.2808) rotate(18) translate(-573.5314, -65.2808)"></path>
                    <path d="M323.610814,23.3189059 C329.27773,23.3107534 333.682095,24.9768652 337.041364,27.2775266 C342.519384,31.029256 345.241844,36.4128548 346.206517,38.816591 C350.250814,48.8940095 354.481368,72.4886805 358.98449,109.571654 L286.803875,109.392563 C292.005789,72.4073237 296.688282,48.9118296 300.938603,38.937372 C301.85064,36.7970451 304.671518,31.2060574 310.338557,27.3161927 C313.691583,25.0146696 318.053354,23.3269231 323.610814,23.3189059 Z" id="矩形" transform="translate(322.868, 66.4488) rotate(-18) translate(-322.868, -66.4488)"></path>
                    <path d="M214.194068,80.8655537 C219.444141,80.8533584 223.611249,82.2716835 226.867688,84.3035346 C231.667932,87.2986419 234.497127,91.5910072 235.958977,94.4719175 C236.256431,95.0759166 236.456563,95.5072323 236.607538,95.8536846 L236.712306,96.098984 C236.744658,96.1763613 236.77469,96.2498069 236.803155,96.3206928 C240.843334,106.381818 245.057819,129.943068 249.53345,166.975311 L177.259557,166.860823 C182.499987,129.921774 187.208499,106.45396 191.472445,96.4888461 C192.387651,94.3499505 195.217689,88.7625199 200.896017,84.8717172 C204.256702,82.5689685 208.627267,80.8785428 214.194068,80.8655537 Z" id="矩形" transform="translate(213.3675, 123.9227) rotate(-36) translate(-213.3675, -123.9227)"></path>
                    <path d="M126.641057,166.5202 C132.326473,166.507014 136.74387,168.16502 140.112124,170.457638 C145.599533,174.192668 148.324105,179.556613 149.288915,181.951972 C153.100646,191.415448 157.064016,212.854086 161.264829,246.23699 L161.541561,248.451003 C161.706547,249.779846 161.871829,251.126913 162.037408,252.492204 L89.6478645,252.378137 C94.8955875,215.499321 99.6105785,192.069441 103.880584,182.120197 C104.7971,179.984685 107.63146,174.406301 113.317882,170.521687 C116.684912,168.221538 121.06376,166.533194 126.641057,166.5202 Z" id="矩形" transform="translate(125.8135, 209.5084) rotate(-54) translate(-125.8135, -209.5084)"></path>
                    <path d="M70.6683691,271.66142 C76.3628795,271.652873 80.7886651,273.313331 84.164175,275.606974 C89.6619013,279.342651 92.3948063,284.703178 93.3628773,287.096906 C97.4215255,297.132636 101.665853,320.628776 106.183238,357.5558 L33.7036298,357.382705 C38.9269015,320.552922 43.6277355,297.155224 47.8943848,287.221505 C48.809968,285.089822 51.6424514,279.521924 57.3307583,275.647593 C60.7003758,273.352531 65.0837154,271.669826 70.6683691,271.66142 Z" id="矩形" transform="translate(69.9168, 314.612) rotate(-71) translate(-69.9168, -314.612)"></path>
                    <path d="M48.7106391,385.283792 C54.409782,385.281857 58.8410234,386.947398 62.2219209,389.24453 C67.7282995,392.985809 70.469789,398.348299 71.4414211,400.742671 C75.5135428,410.77751 79.7872026,434.264656 84.3496454,471.174514 L11.8317363,470.917236 C17.0146265,434.110508 21.6903341,410.729179 25.947528,400.805239 C26.8607717,398.676377 29.6872435,393.116381 35.3719607,389.251862 C38.740348,386.962004 43.1236627,385.28569 48.7106391,385.283792 Z" id="矩形" transform="translate(48.0677, 428.2342) rotate(-86) translate(-48.0677, -428.2342)"></path>
                    <path d="M65.6155011,520.833491 C71.3142317,520.840028 75.747506,522.513295 79.1315264,524.816451 C84.6443564,528.568468 87.3943227,533.938679 88.369685,536.336135 C92.4555767,546.379323 96.7631816,569.87749 101.379332,606.801089 L28.8809933,606.43604 C34.007976,569.623125 38.6477502,546.240262 42.8892805,536.319423 C43.7987618,534.192168 46.6149969,528.636917 52.2903392,524.781261 C55.6534034,522.496496 60.031788,520.8271 65.6155011,520.833491 Z" id="矩形" transform="translate(65.1119, 563.8244) rotate(-104) translate(-65.1119, -563.8244)"></path>
                    <path d="M111.707174,625.819078 C117.399236,625.831604 121.828966,627.511563 125.211399,629.820544 C130.724132,633.58375 133.477567,638.964663 134.454733,641.36658 C138.546869,651.425225 142.874869,674.953872 147.525035,711.923142 L75.1095859,711.481844 C80.1927618,674.628608 84.8033146,651.222021 89.0301772,641.293898 C89.0498739,641.247635 89.0704686,641.19975 89.0919714,641.150298 L89.2319616,640.835192 C90.3144349,638.448143 93.1120442,633.357171 98.406567,629.755355 C101.762088,627.472625 106.132049,625.806859 111.707174,625.819078 Z" id="矩形" transform="translate(111.3024, 668.8798) rotate(-122) translate(-111.3024, -668.8798)"></path>
                    <path d="M193.135864,717.412831 C198.818155,717.42663 203.240613,719.109628 206.617743,721.4219 C212.124375,725.192212 214.875264,730.582292 215.851731,732.988152 C219.940657,743.062615 224.26836,766.627481 228.920716,803.653574 L156.613331,803.19573 C161.681457,766.286838 166.280715,742.845557 170.499715,732.903484 C171.404009,730.772515 174.204978,725.20771 179.860143,721.350315 C183.209096,719.065991 187.570785,717.399377 193.135864,717.412831 Z" id="矩形" transform="translate(192.7529, 760.5422) rotate(-139) translate(-192.7529, -760.5422)"></path>
                    <path d="M300.22863,783.409484 C305.899703,783.418797 310.312162,785.09991 313.680846,787.411795 C319.17577,791.18289 321.917692,796.578327 322.890709,798.986655 C326.966155,809.073853 331.269593,832.673576 335.886685,869.756862 L263.692644,869.355453 C268.782465,832.385435 273.393753,808.904411 277.614538,798.943737 C278.519418,796.808302 281.321168,791.231318 286.972644,787.362642 C290.317618,785.072864 294.673047,783.400388 300.22863,783.409484 Z" id="矩形" transform="translate(299.7732, 826.5911) rotate(-159) translate(-299.7732, -826.5911)"></path>
                    <path d="M424.457201,809.124889 C430.122567,809.126341 434.528391,810.801446 437.890563,813.10922 C443.375108,816.873777 446.106778,822.267065 447.075549,824.674708 C451.134917,834.763267 455.403483,858.374377 459.967058,895.47916 L387.820558,895.177472 C392.958114,858.178997 397.599061,834.677856 401.830938,824.705295 C402.738563,822.566447 405.547354,816.979921 411.202924,813.099514 C414.549235,810.803538 418.904535,809.123466 424.457201,809.124889 Z" id="矩形" transform="translate(423.873, 852.3079) rotate(-177) translate(-423.873, -852.3079)"></path>
                    <path d="M551.13085,799.399076 C556.796569,799.392993 561.200576,801.06121 564.55996,803.363615 C570.038764,807.118597 572.762873,812.504998 573.728319,814.909886 C577.7754,824.990999 582.013679,848.592281 586.529326,885.684815 L514.365384,885.479232 C519.552822,848.486288 524.225828,824.986521 528.47168,815.011196 C529.382659,812.870915 532.200582,807.280161 537.864494,803.391841 C541.21556,801.091308 545.575267,799.405052 551.13085,799.399076 Z" id="矩形" transform="translate(550.4224, 842.546) rotate(-193) translate(-550.4224, -842.546)"></path>
                    <path d="M666.84922,748.123013 C672.523929,748.109832 676.932973,749.769894 680.294866,752.065129 C685.774515,755.806199 688.494881,761.178964 689.458307,763.578152 C693.498486,773.639278 697.712971,797.200528 702.188602,834.232771 L629.914709,834.118283 C635.155139,797.179233 639.863651,773.711419 644.127597,763.746306 C645.042803,761.60741 647.872841,756.019979 653.551169,752.129177 C656.911854,749.826428 661.282419,748.136002 666.84922,748.123013 Z" id="矩形" transform="translate(666.0226, 791.1801) rotate(-216) translate(-666.0226, -791.1801)"></path>
                    <path d="M780.651162,176.262434 C786.341112,176.275689 790.769396,177.956715 794.150862,180.266724 C799.662635,184.032029 802.41598,189.415318 803.393197,191.818243 C807.485386,201.880722 811.815145,225.417711 816.468664,262.399878 L744.077393,261.949252 C749.154345,225.083775 753.76055,201.669681 757.984889,191.738739 C758.113384,191.436663 758.280916,191.064742 758.490229,190.637804 C759.957857,187.738505 762.865452,183.106509 767.862118,179.877569 C771.153095,177.750877 775.358791,176.250158 780.651162,176.262434 Z" id="矩形" transform="translate(780.2586, 219.34) rotate(-306) translate(-780.2586, -219.34)"></path>
                    <path d="M762.92189,662.604033 C768.181375,662.591703 772.355932,664.008291 775.618167,666.037881 C780.424977,669.028423 783.258242,673.31423 784.722109,676.190961 C785.019859,676.793858 785.220196,677.224394 785.371329,677.570226 L785.476205,677.815088 C785.508591,677.892327 785.538655,677.965643 785.56715,678.036403 C789.378338,687.500574 793.340858,708.940896 797.540495,742.326484 L797.817149,744.540672 C797.982103,745.86975 798.147354,747.217057 798.312902,748.582593 L725.929618,748.470307 C731.177863,711.588166 735.893088,688.156153 740.163011,678.205953 C741.079516,676.070222 743.913801,670.491244 749.599919,666.606128 C752.966677,664.305746 757.345137,662.617167 762.92189,662.604033 Z" id="矩形" transform="translate(762.0921, 705.5955) rotate(-233) translate(-762.0921, -705.5955)"></path>
                    <path d="M827.279341,550.199271 C832.972474,550.18963 837.396881,551.849364 840.771136,554.142578 C846.266987,557.877671 848.998229,563.238373 849.965631,565.632212 C854.021715,575.669001 858.26084,599.168795 862.770386,636.102094 L790.303708,635.942931 C795.53326,599.105901 800.237891,575.703333 804.505764,565.767091 C805.42166,563.634748 808.254894,558.065026 813.943336,554.188715 C817.312797,551.892642 821.69567,550.208758 827.279341,550.199271 Z" id="矩形" transform="translate(826.5098, 593.1538) rotate(-248) translate(-826.5098, -593.1538)"></path>
                    <path d="M853.836997,426.812684 C859.536431,426.811714 863.968168,428.47807 867.349622,430.775805 C872.856982,434.518117 875.599572,439.88121 876.571673,442.275812 C880.536932,452.043538 884.693246,474.563621 889.129432,509.803939 L889.412382,512.066207 C889.438904,512.279627 889.465435,512.493497 889.491975,512.707816 L816.972705,512.43826 C822.149451,475.63273 826.821265,452.252425 831.076864,442.32934 C831.98972,440.200769 834.815161,434.641599 840.499065,430.778288 C843.867045,428.489094 848.25006,426.813635 853.836997,426.812684 Z" id="矩形" transform="translate(853.21, 469.7655) rotate(-268) translate(-853.21, -469.7655)"></path>
                    <path d="M835.4384,292.400149 C841.136411,292.407937 845.569471,294.082472 848.95356,296.386679 C854.466861,300.140653 857.217818,305.512544 858.193645,307.910691 C862.281208,317.956097 866.59345,341.458233 871.217118,378.387573 L798.728799,378.006614 C803.847089,341.189073 808.481166,317.803647 812.720013,307.882287 C813.62886,305.75506 816.443319,300.199952 822.116781,296.34522 C825.47867,294.061045 829.855817,292.392539 835.4384,292.400149 Z" id="矩形" transform="translate(834.9554, 335.4013) rotate(-287) translate(-834.9554, -335.4013)"></path>
                </g>
                <ellipse id="椭圆形" stroke="#047BBD" stroke-width="5" fill="#FFFFFF" cx="450.640934" cy="450.982214" rx="363.579093" ry="365.37438"></ellipse>
                <g id="编组-20" transform="translate(118.9944, 380.6315)" fill-rule="nonzero">
                    <g id="Digg" transform="translate(274.6034, 0)" fill="#FE0000">
                        <path d="M0,0 L49.5571737,0 C59.3262451,0 67.2175929,1.3254519 73.2312173,3.97635569 C79.2448416,6.62725948 84.2152862,10.4317973 88.1425511,15.3899692 C92.069816,20.3481412 94.917083,26.1163114 96.6843522,32.6944801 C98.4516214,39.2726488 99.335256,46.2435439 99.335256,53.6071656 C99.335256,65.1435062 98.0220768,74.0903065 95.3957184,80.4475665 C92.7693601,86.8048265 89.1243673,92.1311795 84.4607403,96.4266255 C79.7971133,100.722071 74.7898505,103.581611 69.4389521,105.005245 C62.1244213,106.968877 55.4971618,107.950693 49.5571737,107.950693 L0,107.950693 L0,0 Z M33.3572061,24.4472239 L33.3572061,83.4298333 L41.5308261,83.4298333 C48.5017213,83.4298333 53.4598932,82.656653 56.4053418,81.1102925 C59.3507905,79.5639319 61.6580586,76.8639373 63.3271462,73.0103086 C64.9962337,69.15668 65.8307775,62.9098743 65.8307775,54.2698915 C65.8307775,42.8317326 63.9653267,35.0017482 60.2344251,30.7799385 C56.5035234,26.5581287 50.3180813,24.4472239 41.6780985,24.4472239 L33.3572061,24.4472239 Z" id="形状"></path>
                        <path d="M128.544289,0 L158.514229,0 L158.514229,20.397232 L128.544289,20.397232 L128.544289,0 Z M128.544289,29.7490315 L158.514229,29.7490315 L158.514229,107.950693 L128.544289,107.950693 L128.544289,29.7490315 Z" id="形状"></path>
                        <path d="M244.644057,29.7490315 L272.699455,29.7490315 L272.699455,103.606157 L272.773091,107.067059 C272.773091,111.97614 271.729912,116.65204 269.643552,121.094758 C267.557193,125.537476 264.783562,129.133378 261.32266,131.882464 C257.861757,134.631549 253.46813,136.619727 248.141777,137.846997 C242.815424,139.074268 236.715891,139.687903 229.843177,139.687903 C214.134118,139.687903 203.346412,137.331544 197.48006,132.618826 C191.613708,127.906108 188.680532,121.597939 188.680532,113.694318 C188.680532,112.712502 188.729623,111.38705 188.827804,109.717963 L217.91411,113.031592 C218.650472,115.731587 219.779561,117.597038 221.301376,118.627945 C223.510462,120.14976 226.284093,120.910667 229.622268,120.910667 C233.94226,120.910667 237.169981,119.757033 239.305431,117.449765 C241.440881,115.142497 242.508606,111.117051 242.508606,105.373426 L242.508606,93.5179949 C239.563158,97.0034425 236.617709,99.5316193 233.67226,101.102525 C229.057724,103.557066 224.075007,104.784336 218.724108,104.784336 C208.267766,104.784336 199.824146,100.218891 193.39325,91.0879998 C188.827804,84.6080127 186.545082,76.0416662 186.545082,65.3889602 C186.545082,53.2144391 189.49053,43.9362758 195.381428,37.5544704 C201.272325,31.172665 208.979582,27.9817623 218.5032,27.9817623 C224.59046,27.9817623 229.609996,29.0126693 233.561806,31.0744834 C237.513616,33.1362974 241.2077,36.5481088 244.644057,41.3099174 L244.644057,29.7490315 Z M216.441386,67.6716829 C216.441386,73.3171262 217.644111,77.5021178 220.04956,80.2266579 C222.45501,82.9511979 225.621367,84.3134679 229.548632,84.3134679 C233.279534,84.3134679 236.409073,82.9021071 238.93725,80.0793854 C241.465427,77.2566638 242.729515,72.9980359 242.729515,67.3035019 C242.729515,61.6089678 241.404063,57.2521583 238.753159,54.2330734 C236.102255,51.2139886 232.862262,49.7044461 229.033179,49.7044461 C225.204095,49.7044461 222.148192,51.0912615 219.86547,53.8648924 C217.582747,56.6385232 216.441386,61.2407867 216.441386,67.6716829 Z" id="形状"></path>
                        <path d="M359.2711,29.7490315 L387.326499,29.7490315 L387.326499,103.606157 L387.400135,107.067059 C387.400135,111.97614 386.356955,116.65204 384.270596,121.094758 C382.184236,125.537476 379.410605,129.133378 375.949703,131.882464 C372.488801,134.631549 368.095173,136.619727 362.76882,137.846997 C357.442467,139.074268 351.342934,139.687903 344.470221,139.687903 C328.761161,139.687903 317.973455,137.331544 312.107104,132.618826 C306.240752,127.906108 303.307576,121.597939 303.307576,113.694318 C303.307576,112.712502 303.356666,111.38705 303.454848,109.717963 L332.541154,113.031592 C333.277516,115.731587 334.406604,117.597038 335.92842,118.627945 C338.137506,120.14976 340.911137,120.910667 344.249312,120.910667 C348.569303,120.910667 351.797024,119.757033 353.932475,117.449765 C356.067925,115.142497 357.13565,111.117051 357.13565,105.373426 L357.13565,93.5179949 C354.190201,97.0034425 351.244753,99.5316193 348.299304,101.102525 C343.684768,103.557066 338.70205,104.784336 333.351152,104.784336 C322.894809,104.784336 314.45119,100.218891 308.020294,91.0879998 C303.454848,84.6080127 301.172125,76.0416662 301.172125,65.3889602 C301.172125,53.2144391 304.117574,43.9362758 310.008471,37.5544704 C315.899369,31.172665 323.606626,27.9817623 333.130243,27.9817623 C339.217504,27.9817623 344.237039,29.0126693 348.18885,31.0744834 C352.14066,33.1362974 355.834743,36.5481088 359.2711,41.3099174 L359.2711,29.7490315 Z M331.068429,67.6716829 C331.068429,73.3171262 332.271154,77.5021178 334.676604,80.2266579 C337.082054,82.9511979 340.248411,84.3134679 344.175676,84.3134679 C347.906577,84.3134679 351.036117,82.9021071 353.564293,80.0793854 C356.09247,77.2566638 357.356559,72.9980359 357.356559,67.3035019 C357.356559,61.6089678 356.031107,57.2521583 353.380203,54.2330734 C350.729299,51.2139886 347.489306,49.7044461 343.660222,49.7044461 C339.831139,49.7044461 336.775236,51.0912615 334.492513,53.8648924 C332.209791,56.6385232 331.068429,61.2407867 331.068429,67.6716829 Z" id="形状"></path>
                    </g>
                    <g id="BT" fill="#88D201">
                        <path d="M0,0 L62.4435116,0 C72.8507635,0 80.840293,2.57726758 86.4121,7.73180273 C91.9839071,12.8863379 94.7698106,19.2681433 94.7698106,26.877219 C94.7698106,33.2590244 92.7816328,38.7326499 88.8052771,43.2980953 C86.1543733,46.3417256 82.2761992,48.7471753 77.1707549,50.5144445 C84.927103,52.3798953 90.6339098,55.5830707 94.2911752,60.1239708 C97.9484406,64.6648708 99.7770733,70.3716775 99.7770733,77.2443911 C99.7770733,82.8407435 98.4761668,87.8725517 95.8743539,92.3398155 C93.2725409,96.8070793 89.7134571,100.341618 85.1971025,102.943431 C82.3989262,104.563427 78.1771165,105.741607 72.5316732,106.477969 C65.0207792,107.459785 60.0380618,107.950693 57.5835213,107.950693 L0,107.950693 L0,0 Z M33.6517509,42.3408245 L48.1580856,42.3408245 C53.3617115,42.3408245 56.9821589,41.4449172 59.0194275,39.6531026 C61.0566962,37.861288 62.0753305,35.2717477 62.0753305,31.8844817 C62.0753305,28.7426698 61.0566962,26.2881293 59.0194275,24.5208601 C56.9821589,22.7535909 53.4353478,21.8699563 48.3789942,21.8699563 L33.6517509,21.8699563 L33.6517509,42.3408245 Z M33.6517509,84.7552852 L50.6617169,84.7552852 C56.4053418,84.7552852 60.4553337,83.7366508 62.8116927,81.6993822 C65.1680516,79.6621135 66.346231,76.9253008 66.346231,73.488944 C66.346231,70.2980413 65.1803243,67.7330465 62.8485108,65.7939594 C60.5166972,63.8548724 56.4298872,62.8853289 50.5880807,62.8853289 L33.6517509,62.8853289 L33.6517509,84.7552852 Z" id="形状"></path>
                        <polygon id="路径" points="122.211574 0 223.608644 0 223.608644 26.6563104 189.588712 26.6563104 189.588712 107.950693 156.231506 107.950693 156.231506 26.6563104 122.211574 26.6563104"></polygon>
                    </g>
                </g>
            </g>
        </g>
    </g>
</svg>