<?xml version="1.0" encoding="UTF-8"?>
<svg width="1024px" height="1024px" viewBox="0 0 1024 1024" version="1.1" xmlns="http://www.w3.org/2000/svg" xmlns:xlink="http://www.w3.org/1999/xlink">
    <title>Cnlang</title>
    <g id="ICON-新版方图标" stroke="none" stroke-width="1" fill="none" fill-rule="evenodd">
        <g id="Cnlang">
            <rect id="蒙版" fill="#FFFFFF" x="0" y="0" width="1024" height="1024"></rect>
            <g id="编组" transform="translate(141.7461, 176.0477)" stroke="#979797">
                <path d="M348.108342,17.9440204 C361.721319,13.4228763 496.163121,-22.0079955 590.091367,23.2660408 C632.354106,43.6369604 665.762453,61.2513198 702.128313,135.304679 C726.30092,184.528396 738.758028,232.996448 739.492665,280.710389 L496.175646,280.067446 C506.89016,224.671335 510.783527,182.064793 507.868771,152.247851 C506.399336,137.216051 503.197046,125.42333 498.280523,116.862795 C493.315629,108.218039 486.604005,102.851142 478.161085,100.740412 C448.302292,93.2757136 415.168167,110.557819 370.759238,156.119793 C351.578553,175.798492 311.978323,226.813365 286.907531,281.001783 C272.443749,312.264036 252.209706,369.550212 245.878218,420.14893 C245.685697,421.687486 245.422953,423.511824 245.123836,425.589016 C241.694287,449.405214 233.547752,506.26665 270.954361,547.073861 C283.947098,561.247755 309.187167,568.467449 346.746048,568.618095 L246.159154,669.204989 C183.519015,671.669597 144.432712,670.497995 128.908463,665.655499 C104.967826,658.18767 46.4247576,609.906553 16.944282,546.525128 C2.01485557,514.427671 -16.6586032,420.157265 31.2034394,313.493184 C68.8911314,229.503392 144.29516,148.896121 161.173846,133.453177 C230.108361,70.3823989 309.541527,30.7528375 348.108342,17.9440204 Z" id="矩形" fill="#015EAE"></path>
                <path d="M701.52775,412.926172 C664.017302,489.152083 635.060721,539.16633 614.646125,562.960038 C551.259988,636.838121 489.562583,657.061624 470.533923,661.030207 C440.440642,667.306408 382.698624,669.645878 297.314929,668.058365 C349.736985,621.377479 389.737075,578.361624 417.319074,539.014105 C445.008922,499.51273 462.919376,457.483031 471.053283,412.926171 Z" id="矩形" fill="#F15C23"></path>
            </g>
        </g>
    </g>
</svg>