<?xml version="1.0" encoding="UTF-8"?>
<svg width="1024px" height="1024px" viewBox="0 0 1024 1024" version="1.1" xmlns="http://www.w3.org/2000/svg" xmlns:xlink="http://www.w3.org/1999/xlink">
    <title>Fastemby.wiki</title>
    <defs>
        <linearGradient x1="148.626474%" y1="-60.92412%" x2="-21.9356838%" y2="207.988068%" id="linearGradient-1">
            <stop stop-color="#1C3B22" offset="0%"></stop>
            <stop stop-color="#090C0B" offset="100%"></stop>
        </linearGradient>
        <linearGradient x1="-20.1892137%" y1="55.2704169%" x2="144.278799%" y2="55.2704169%" id="linearGradient-2">
            <stop stop-color="#52B54B" offset="0%"></stop>
            <stop stop-color="#FFDD09" offset="93.8182911%"></stop>
            <stop stop-color="#FEC608" offset="100%"></stop>
        </linearGradient>
        <path d="M168.094828,176.5 C162.761494,176.833333 157.386494,176.416667 151.969828,175.25 C146.553161,174.083333 141.678161,172 137.344828,169 C134.011494,166.666667 131.303161,163.708333 129.219828,160.125 C127.136494,156.541667 125.344828,152.833333 123.844828,149 C121.344828,142.5 119.053161,135.958333 116.969828,129.375 C114.886494,122.791667 112.678161,116.166667 110.344828,109.5 C109.344828,113.333333 108.178161,117 106.844828,120.5 C105.511494,124 104.094828,127.583333 102.594828,131.25 C100.761494,135.583333 98.9698276,139.875 97.2198276,144.125 C95.4698276,148.375 93.4281609,152.583333 91.0948276,156.75 C89.9281609,158.75 88.7614943,160.75 87.5948276,162.75 C86.4281609,164.75 84.9281609,166.5 83.0948276,168 C80.5948276,170.166667 77.8031609,171.791667 74.7198276,172.875 C71.6364943,173.958333 68.4281609,174.666667 65.0948276,175 C58.2614943,175.666667 51.3448276,174.666667 44.3448276,172 C37.3448276,169.333333 31.4281609,165.5 26.5948276,160.5 C22.2614943,155.833333 18.6364943,150.583333 15.7198276,144.75 C12.8031609,138.916667 10.4281609,132.916667 8.59482759,126.75 C4.76149425,115.25 2.21982759,103.541667 0.969827586,91.625 C-0.280172414,79.7083333 -0.32183908,67.75 0.844827586,55.75 C1.67816092,47.75 3.05316092,39.875 4.96982759,32.125 C6.88649425,24.375 9.76149425,17 13.5948276,10 C14.9281609,7.66666667 16.8031609,5.79166667 19.2198276,4.375 C21.6364943,2.95833333 24.0948276,1.91666667 26.5948276,1.25 C30.0948276,0.416666667 33.8864943,0 37.9698276,0 C42.0531609,0 45.9698276,0.583333333 49.7198276,1.75 C53.4698276,2.91666667 56.8031609,4.58333333 59.7198276,6.75 C62.6364943,8.91666667 64.7614943,11.75 66.0948276,15.25 C66.9281609,17.5833333 67.3448276,20.0416667 67.3448276,22.625 C67.3448276,25.2083333 67.0114943,27.6666667 66.3448276,30 C65.0114943,34.3333333 64.0114943,38.6666667 63.3448276,43 C62.6781609,47.3333333 62.0948276,51.6666667 61.5948276,56 C61.0948276,61.5 60.7198276,67 60.4698276,72.5 C60.2198276,78 60.2614943,83.4166667 60.5948276,88.75 C60.7614943,92.0833333 60.9698276,95.3333333 61.2198276,98.5 C61.4698276,101.666667 62.0114943,104.916667 62.8448276,108.25 C63.1781609,110.083333 63.6781609,111.833333 64.3448276,113.5 C65.0114943,115.166667 66.0114943,116.666667 67.3448276,118 C67.6781609,118.333333 68.1781609,118.666667 68.8448276,119 C69.5114943,119.333333 70.0114943,119.5 70.3448276,119.5 C70.8448276,119.333333 71.3864943,118.791667 71.9698276,117.875 C72.5531609,116.958333 73.0114943,116.25 73.3448276,115.75 C75.1781609,112.416667 76.7614943,109 78.0948276,105.5 C79.4281609,102 80.7614943,98.4166667 82.0948276,94.75 C82.7614943,93.0833333 83.8031609,90.0833333 85.2198276,85.75 C86.6364943,81.4166667 88.2198276,76.875 89.9698276,72.125 C91.7198276,67.375 93.4698276,62.875 95.2198276,58.625 C96.9698276,54.375 98.3448276,51.5 99.3448276,50 C100.178161,48.6666667 101.261494,47.5833333 102.594828,46.75 C103.928161,45.9166667 105.261494,45.0833333 106.594828,44.25 C108.594828,43.25 110.719828,42.4583333 112.969828,41.875 C115.219828,41.2916667 117.511494,40.8333333 119.844828,40.5 C124.011494,40.1666667 128.053161,40.7916667 131.969828,42.375 C135.886494,43.9583333 139.178161,46.3333333 141.844828,49.5 C142.844828,50.8333333 143.678161,52.2083333 144.344828,53.625 C145.011494,55.0416667 145.344828,56.5 145.344828,58 C145.344828,64.5 146.011494,71.3333333 147.344828,78.5 C148.011494,82.6666667 148.761494,86.7916667 149.594828,90.875 C150.428161,94.9583333 151.511494,99 152.844828,103 C153.011494,103.833333 153.344828,104.916667 153.844828,106.25 C154.344828,107.583333 154.886494,108.916667 155.469828,110.25 C156.053161,111.583333 156.636494,112.833333 157.219828,114 C157.803161,115.166667 158.428161,116 159.094828,116.5 C161.094828,117.833333 163.011494,117.833333 164.844828,116.5 C166.678161,115.166667 168.178161,113.416667 169.344828,111.25 C171.178161,107.75 172.511494,104 173.344828,100 C174.178161,96 174.928161,92.0833333 175.594828,88.25 C177.928161,73.9166667 178.428161,59.4166667 177.094828,44.75 C176.761494,41.9166667 176.386494,39.0833333 175.969828,36.25 C175.553161,33.4166667 174.928161,30.5833333 174.094828,27.75 C173.261494,25.4166667 172.969828,22.9166667 173.219828,20.25 C173.469828,17.5833333 174.261494,15.3333333 175.594828,13.5 C176.928161,11.6666667 178.594828,10.1666667 180.594828,9 C182.594828,7.83333333 184.678161,6.83333333 186.844828,6 C192.844828,4 199.011494,3.25 205.344828,3.75 C207.678161,3.91666667 210.053161,4.33333333 212.469828,5 C214.886494,5.66666667 217.011494,6.75 218.844828,8.25 C221.344828,10.5833333 223.261494,13.4583333 224.594828,16.875 C225.928161,20.2916667 227.011494,23.6666667 227.844828,27 C229.178161,32.8333333 229.928161,38.75 230.094828,44.75 C230.261494,50.75 230.178161,56.6666667 229.844828,62.5 C229.344828,70.8333333 228.428161,79.0416667 227.094828,87.125 C225.761494,95.2083333 224.094828,103.25 222.094828,111.25 C220.261494,117.75 218.261494,124.25 216.094828,130.75 C213.928161,137.25 211.178161,143.5 207.844828,149.5 C206.011494,152.833333 204.011494,156.083333 201.844828,159.25 C199.678161,162.416667 197.094828,165.166667 194.094828,167.5 C190.428161,170.333333 186.344828,172.458333 181.844828,173.875 C177.344828,175.291667 172.761494,176.166667 168.094828,176.5 Z M41.5948276,68 C41.5948276,69.3333333 41.9698276,70.4166667 42.7198276,71.25 C43.4698276,72.0833333 44.3864943,72.625 45.4698276,72.875 C46.5531609,73.125 47.6364943,73.0416667 48.7198276,72.625 C49.8031609,72.2083333 50.5948276,71.4166667 51.0948276,70.25 C51.5948276,69.4166667 51.8031609,68.4583333 51.7198276,67.375 C51.6364943,66.2916667 51.6781609,65.25 51.8448276,64.25 C51.8448276,63.9166667 51.8864943,63.2083333 51.9698276,62.125 C52.0531609,61.0416667 52.1364943,59.9583333 52.2198276,58.875 C52.3031609,57.7916667 52.4281609,56.75 52.5948276,55.75 C52.7614943,54.75 52.8448276,54.0833333 52.8448276,53.75 C53.0114943,52.9166667 53.3448276,51.4166667 53.8448276,49.25 C54.3448276,47.0833333 54.8448276,44.8333333 55.3448276,42.5 C55.8448276,40.1666667 56.3448276,37.9583333 56.8448276,35.875 C57.3448276,33.7916667 57.5948276,32.3333333 57.5948276,31.5 C57.7614943,29.1666667 57.5531609,26.7916667 56.9698276,24.375 C56.3864943,21.9583333 55.4281609,19.8333333 54.0948276,18 C51.2614943,14.3333333 47.5114943,11.8333333 42.8448276,10.5 C41.5114943,10.1666667 40.0948276,9.75 38.5948276,9.25 C37.0948276,8.75 35.6781609,8.5 34.3448276,8.5 C32.8448276,8.5 31.6364943,8.95833333 30.7198276,9.875 C29.8031609,10.7916667 29.2614943,11.7916667 29.0948276,12.875 C28.9281609,13.9583333 29.1364943,15.0416667 29.7198276,16.125 C30.3031609,17.2083333 31.3448276,17.9166667 32.8448276,18.25 C34.6781609,18.75 36.5531609,19.2083333 38.4698276,19.625 C40.3864943,20.0416667 42.1781609,20.75 43.8448276,21.75 C44.5114943,22.25 45.0948276,22.8333333 45.5948276,23.5 C46.0948276,24.1666667 46.5114943,24.9166667 46.8448276,25.75 C47.5114943,27.0833333 47.7614943,28.5416667 47.5948276,30.125 C47.4281609,31.7083333 47.1781609,33.25 46.8448276,34.75 C45.5114943,40.25 44.3031609,45.75 43.2198276,51.25 C42.1364943,56.75 41.5948276,62.3333333 41.5948276,68 Z M214.094828,66.75 C213.594828,68.0833333 213.553161,69.3333333 213.969828,70.5 C214.386494,71.6666667 215.094828,72.5833333 216.094828,73.25 C217.094828,73.9166667 218.178161,74.1666667 219.344828,74 C220.511494,73.8333333 221.594828,73.1666667 222.594828,72 C222.928161,71.6666667 223.261494,71.0833333 223.594828,70.25 C223.928161,69.4166667 224.094828,68.8333333 224.094828,68.5 C224.261494,67.8333333 224.303161,67.25 224.219828,66.75 C224.136494,66.25 224.178161,65.75 224.344828,65.25 C225.011494,61.5833333 225.136494,57.9166667 224.719828,54.25 C224.303161,50.5833333 223.928161,46.9166667 223.594828,43.25 C223.428161,40.9166667 222.886494,38.2083333 221.969828,35.125 C221.053161,32.0416667 219.886494,29.0416667 218.469828,26.125 C217.053161,23.2083333 215.428161,20.5416667 213.594828,18.125 C211.761494,15.7083333 209.761494,14.0833333 207.594828,13.25 C205.094828,12.25 202.469828,11.75 199.719828,11.75 C196.969828,11.75 194.344828,12.0833333 191.844828,12.75 C190.511494,13.0833333 189.094828,13.4166667 187.594828,13.75 C186.094828,14.0833333 184.928161,14.75 184.094828,15.75 C182.928161,17.25 182.678161,18.875 183.344828,20.625 C184.011494,22.375 185.261494,23.4166667 187.094828,23.75 C187.428161,23.9166667 188.178161,23.875 189.344828,23.625 C190.511494,23.375 191.803161,23.125 193.219828,22.875 C194.636494,22.625 195.928161,22.375 197.094828,22.125 C198.261494,21.875 199.094828,21.75 199.594828,21.75 C199.928161,21.75 200.594828,21.8333333 201.594828,22 C202.594828,22.1666667 203.261494,22.3333333 203.594828,22.5 C204.261494,22.8333333 205.219828,23.75 206.469828,25.25 C207.719828,26.75 208.511494,27.9166667 208.844828,28.75 C209.178161,29.0833333 209.636494,30.1666667 210.219828,32 C210.803161,33.8333333 211.261494,34.9166667 211.594828,35.25 C211.928161,36.0833333 212.303161,37.4166667 212.719828,39.25 C213.136494,41.0833333 213.511494,43 213.844828,45 C214.178161,47 214.428161,48.9166667 214.594828,50.75 C214.761494,52.5833333 214.844828,54 214.844828,55 C214.844828,55.5 214.844828,56.2916667 214.844828,57.375 C214.844828,58.4583333 214.844828,59.625 214.844828,60.875 C214.844828,62.125 214.761494,63.2916667 214.594828,64.375 C214.428161,65.4583333 214.261494,66.25 214.094828,66.75 Z M133.094828,69.5 C134.094828,70.3333333 135.178161,70.7083333 136.344828,70.625 C137.511494,70.5416667 138.511494,70.1666667 139.344828,69.5 C140.178161,68.8333333 140.761494,67.9583333 141.094828,66.875 C141.428161,65.7916667 141.344828,64.6666667 140.844828,63.5 C140.511494,63 140.303161,62.4583333 140.219828,61.875 C140.136494,61.2916667 139.928161,60.6666667 139.594828,60 C139.428161,59.5 138.928161,58.4166667 138.094828,56.75 C137.261494,55.0833333 136.678161,54.0833333 136.344828,53.75 C135.011494,51.9166667 133.344828,50.5 131.344828,49.5 C129.344828,48.5 127.261494,47.6666667 125.094828,47 C123.594828,46.6666667 122.053161,46.5 120.469828,46.5 C118.886494,46.5 117.344828,46.5 115.844828,46.5 C114.511494,46.5 113.386494,46.875 112.469828,47.625 C111.553161,48.375 110.969828,49.2916667 110.719828,50.375 C110.469828,51.4583333 110.553161,52.5416667 110.969828,53.625 C111.386494,54.7083333 112.178161,55.5 113.344828,56 C114.678161,56.6666667 115.969828,56.875 117.219828,56.625 C118.469828,56.375 119.761494,56.3333333 121.094828,56.5 C122.094828,56.6666667 123.428161,57.0416667 125.094828,57.625 C126.761494,58.2083333 127.844828,58.9166667 128.344828,59.75 C129.011494,60.5833333 129.511494,61.5416667 129.844828,62.625 C130.178161,63.7083333 130.511494,64.8333333 130.844828,66 C131.178161,67.6666667 131.928161,68.8333333 133.094828,69.5 Z" id="path-3"></path>
        <linearGradient x1="-20.1892137%" y1="55.2704169%" x2="144.278799%" y2="55.2704169%" id="linearGradient-4">
            <stop stop-color="#52B54B" offset="0%"></stop>
            <stop stop-color="#FFDD09" offset="93.8182911%"></stop>
            <stop stop-color="#FEC608" offset="100%"></stop>
        </linearGradient>
        <path d="M321.767905,175.25 C317.434571,175.583333 313.226238,175.708333 309.142905,175.625 C305.059571,175.541667 300.934571,175.416667 296.767905,175.25 C293.601238,175.25 289.767905,175.25 285.267905,175.25 C280.767905,175.25 276.351238,175.041667 272.017905,174.625 C267.684571,174.208333 263.684571,173.375 260.017905,172.125 C256.351238,170.875 253.851238,168.833333 252.517905,166 C250.684571,162.166667 249.892905,157.958333 250.142905,153.375 C250.392905,148.791667 251.684571,144.833333 254.017905,141.5 C256.351238,138.666667 259.017905,137 262.017905,136.5 C263.684571,136.166667 265.351238,135.791667 267.017905,135.375 C268.684571,134.958333 270.351238,134.583333 272.017905,134.25 C271.184571,119.583333 270.934571,105.041667 271.267905,90.625 C271.601238,76.2083333 271.517905,61.6666667 271.017905,47 C268.017905,47.1666667 264.892905,46.9583333 261.642905,46.375 C258.392905,45.7916667 255.684571,44.3333333 253.517905,42 C251.184571,39.6666667 249.642905,37.0833333 248.892905,34.25 C248.142905,31.4166667 248.017905,28.625 248.517905,25.875 C249.017905,23.125 250.184571,20.5416667 252.017905,18.125 C253.851238,15.7083333 256.184571,13.75 259.017905,12.25 C262.351238,10.4166667 265.809571,9.125 269.392905,8.375 C272.976238,7.625 276.601238,7.08333333 280.267905,6.75 C288.101238,6.08333333 295.892905,5.95833333 303.642905,6.375 C311.392905,6.79166667 319.267905,7.33333333 327.267905,8 C330.267905,8.16666667 333.309571,8.54166667 336.392905,9.125 C339.476238,9.70833333 342.184571,10.9166667 344.517905,12.75 C347.351238,15.0833333 349.351238,18.25 350.517905,22.25 C351.684571,26.25 351.851238,30.0833333 351.017905,33.75 C350.684571,35.0833333 350.226238,36.4583333 349.642905,37.875 C349.059571,39.2916667 348.184571,40.5 347.017905,41.5 C344.184571,44 340.934571,45.7083333 337.267905,46.625 C333.601238,47.5416667 329.934571,48.1666667 326.267905,48.5 C326.434571,63.1666667 326.226238,77.75 325.642905,92.25 C325.059571,106.75 325.017905,121.333333 325.517905,136 C327.351238,136 329.267905,136.083333 331.267905,136.25 C333.267905,136.416667 335.184571,136.916667 337.017905,137.75 C338.851238,138.583333 340.517905,139.833333 342.017905,141.5 C343.517905,143.166667 344.726238,145.041667 345.642905,147.125 C346.559571,149.208333 347.142905,151.375 347.392905,153.625 C347.642905,155.875 347.517905,158 347.017905,160 C346.351238,162.5 345.226238,164.916667 343.642905,167.25 C342.059571,169.583333 340.101238,171.25 337.767905,172.25 C335.267905,173.25 332.684571,173.958333 330.017905,174.375 C327.351238,174.791667 324.601238,175.083333 321.767905,175.25 Z M337.017905,32.75 C338.851238,34.25 340.767905,34.3333333 342.767905,33 C344.767905,31.6666667 345.517905,29.8333333 345.017905,27.5 C344.851238,27.1666667 344.559571,26.4166667 344.142905,25.25 C343.726238,24.0833333 343.434571,23.3333333 343.267905,23 C342.267905,21 340.851238,19.25 339.017905,17.75 C337.184571,16.25 335.267905,15.0833333 333.267905,14.25 C331.101238,13.4166667 328.892905,12.8333333 326.642905,12.5 C324.392905,12.1666667 322.101238,11.8333333 319.767905,11.5 C318.601238,11.3333333 317.434571,11.1666667 316.267905,11 C315.101238,10.8333333 313.934571,10.75 312.767905,10.75 C311.601238,10.75 310.476238,10.7916667 309.392905,10.875 C308.309571,10.9583333 307.267905,10.8333333 306.267905,10.5 C304.934571,10.3333333 303.767905,10.5 302.767905,11 C301.767905,11.5 301.017905,12.25 300.517905,13.25 C300.017905,14.25 299.892905,15.3333333 300.142905,16.5 C300.392905,17.6666667 301.017905,18.6666667 302.017905,19.5 C302.517905,19.8333333 303.351238,20.0833333 304.517905,20.25 C305.684571,20.4166667 306.934571,20.5416667 308.267905,20.625 C309.601238,20.7083333 310.892905,20.7916667 312.142905,20.875 C313.392905,20.9583333 314.351238,21 315.017905,21 C315.517905,21 316.351238,21.0833333 317.517905,21.25 C318.684571,21.4166667 319.892905,21.5833333 321.142905,21.75 C322.392905,21.9166667 323.601238,22.0833333 324.767905,22.25 C325.934571,22.4166667 326.767905,22.5833333 327.267905,22.75 C327.934571,22.9166667 329.059571,23.4166667 330.642905,24.25 C332.226238,25.0833333 333.184571,25.75 333.517905,26.25 C334.351238,27.0833333 334.892905,28.1666667 335.142905,29.5 C335.392905,30.8333333 336.017905,31.9166667 337.017905,32.75 Z" id="path-5"></path>
        <linearGradient x1="-20.1892137%" y1="55.2704169%" x2="144.278799%" y2="55.2704169%" id="linearGradient-6">
            <stop stop-color="#52B54B" offset="0%"></stop>
            <stop stop-color="#FFDD09" offset="93.8182911%"></stop>
            <stop stop-color="#FEC608" offset="100%"></stop>
        </linearGradient>
        <path d="M401.690981,178.75 C397.024315,178.916667 392.274315,178.416667 387.440981,177.25 C382.607648,176.083333 378.607648,173.833333 375.440981,170.5 C373.440981,168.5 372.065981,166.083333 371.315981,163.25 C370.565981,160.416667 370.107648,157.583333 369.940981,154.75 C369.774315,147.916667 370.440981,141.25 371.940981,134.75 C373.440981,128.25 374.607648,121.666667 375.440981,115 C376.274315,108.666667 376.857648,102.375 377.190981,96.125 C377.524315,89.875 377.857648,83.5833333 378.190981,77.25 C378.190981,75.5833333 378.065981,73.125 377.815981,69.875 C377.565981,66.625 377.232648,63 376.815981,59 C376.399315,55 375.982648,50.8333333 375.565981,46.5 C375.149315,42.1666667 374.815981,38 374.565981,34 C374.315981,30 374.232648,26.4583333 374.315981,23.375 C374.399315,20.2916667 374.774315,18 375.440981,16.5 C376.940981,12.8333333 379.482648,9.75 383.065981,7.25 C386.649315,4.75 390.357648,3 394.190981,2 C399.524315,0.5 405.274315,0.166666667 411.440981,1 C417.607648,1.83333333 422.940981,4 427.440981,7.5 C430.607648,10.1666667 432.940981,13.5416667 434.440981,17.625 C435.940981,21.7083333 436.857648,25.8333333 437.190981,30 C437.524315,33.8333333 437.274315,37.5416667 436.440981,41.125 C435.607648,44.7083333 435.024315,48.4166667 434.690981,52.25 C440.190981,47.9166667 445.482648,43.3333333 450.565981,38.5 C455.649315,33.6666667 460.857648,28.9166667 466.190981,24.25 C469.857648,21.25 473.649315,18.375 477.565981,15.625 C481.482648,12.875 485.690981,10.8333333 490.190981,9.5 C494.524315,8.16666667 499.107648,7.79166667 503.940981,8.375 C508.774315,8.95833333 513.107648,10.4166667 516.940981,12.75 C519.774315,14.5833333 522.190981,16.875 524.190981,19.625 C526.190981,22.375 527.690981,25.3333333 528.690981,28.5 C529.690981,31.5 530.190981,34.875 530.190981,38.625 C530.190981,42.375 529.774315,46 528.940981,49.5 C528.107648,53 526.774315,56.25 524.940981,59.25 C523.107648,62.25 520.857648,64.5833333 518.190981,66.25 C514.024315,68.5833333 509.482648,69.9583333 504.565981,70.375 C499.649315,70.7916667 494.857648,71.5833333 490.190981,72.75 C487.357648,73.4166667 484.440981,74.3333333 481.440981,75.5 C478.440981,76.6666667 475.732648,78.0833333 473.315981,79.75 C470.899315,81.4166667 468.899315,83.4166667 467.315981,85.75 C465.732648,88.0833333 465.107648,90.6666667 465.440981,93.5 C465.774315,95.3333333 466.482648,97.125 467.565981,98.875 C468.649315,100.625 469.940981,102.166667 471.440981,103.5 C473.774315,105.666667 476.357648,107.458333 479.190981,108.875 C482.024315,110.291667 484.857648,111.5 487.690981,112.5 C491.524315,113.833333 495.440981,115 499.440981,116 C503.440981,117 507.274315,118.416667 510.940981,120.25 C513.274315,121.583333 515.357648,123.208333 517.190981,125.125 C519.024315,127.041667 520.440981,129.166667 521.440981,131.5 C524.107648,137.5 524.690981,143.75 523.190981,150.25 C521.690981,156.75 518.440981,162.166667 513.440981,166.5 C510.440981,169 506.982648,170.875 503.065981,172.125 C499.149315,173.375 495.274315,174 491.440981,174 C486.607648,174 481.857648,173.25 477.190981,171.75 C472.524315,170.25 468.274315,168.166667 464.440981,165.5 C456.940981,160.666667 450.399315,154.791667 444.815981,147.875 C439.232648,140.958333 434.190981,133.75 429.690981,126.25 C430.524315,135.416667 430.440981,144.333333 429.440981,153 C429.107648,155.166667 428.732648,157.333333 428.315981,159.5 C427.899315,161.666667 427.274315,163.75 426.440981,165.75 C425.440981,168.916667 423.690981,171.5 421.190981,173.5 C418.357648,175.5 415.232648,176.833333 411.815981,177.5 C408.399315,178.166667 405.024315,178.583333 401.690981,178.75 Z M422.440981,26 C423.107648,27.3333333 424.024315,28.2083333 425.190981,28.625 C426.357648,29.0416667 427.482648,29.0833333 428.565981,28.75 C429.649315,28.4166667 430.524315,27.75 431.190981,26.75 C431.857648,25.75 432.024315,24.5 431.690981,23 C431.357648,21.8333333 430.940981,20.75 430.440981,19.75 C429.940981,18.75 429.357648,17.8333333 428.690981,17 C426.524315,14 423.690981,11.5833333 420.190981,9.75 C416.690981,7.91666667 413.107648,6.83333333 409.440981,6.5 C407.440981,6.33333333 405.399315,6.20833333 403.315981,6.125 C401.232648,6.04166667 399.274315,6.16666667 397.440981,6.5 C396.774315,6.5 396.440981,6.5 396.440981,6.5 C394.940981,6.16666667 393.690981,6.375 392.690981,7.125 C391.690981,7.875 391.024315,8.79166667 390.690981,9.875 C390.357648,10.9583333 390.357648,12.125 390.690981,13.375 C391.024315,14.625 391.857648,15.5833333 393.190981,16.25 C393.690981,16.4166667 394.440981,16.5 395.440981,16.5 C396.440981,16.5 397.482648,16.4583333 398.565981,16.375 C399.649315,16.2916667 400.690981,16.2083333 401.690981,16.125 C402.690981,16.0416667 403.440981,16 403.940981,16 C406.274315,16.1666667 408.524315,16.4583333 410.690981,16.875 C412.857648,17.2916667 414.857648,18.0833333 416.690981,19.25 C418.024315,20.0833333 419.107648,21.0833333 419.940981,22.25 C420.774315,23.4166667 421.607648,24.6666667 422.440981,26 Z M515.190981,34.25 C515.357648,36.0833333 515.940981,37.4166667 516.940981,38.25 C517.940981,39.0833333 519.065981,39.5416667 520.315981,39.625 C521.565981,39.7083333 522.690981,39.3333333 523.690981,38.5 C524.690981,37.6666667 525.190981,36.3333333 525.190981,34.5 C525.190981,32.1666667 524.565981,29.9166667 523.315981,27.75 C522.065981,25.5833333 520.482648,23.625 518.565981,21.875 C516.649315,20.125 514.524315,18.6666667 512.190981,17.5 C509.857648,16.3333333 507.524315,15.5 505.190981,15 C501.690981,14.5 498.065981,14.4166667 494.315981,14.75 C490.565981,15.0833333 487.107648,16 483.940981,17.5 C482.274315,18.3333333 481.315981,19.4166667 481.065981,20.75 C480.815981,22.0833333 480.982648,23.2916667 481.565981,24.375 C482.149315,25.4583333 483.107648,26.2916667 484.440981,26.875 C485.774315,27.4583333 487.190981,27.3333333 488.690981,26.5 C488.690981,26.5 488.857648,26.4166667 489.190981,26.25 C489.357648,26.25 489.524315,26.1666667 489.690981,26 C490.857648,25.5 492.315981,25.125 494.065981,24.875 C495.815981,24.625 497.607648,24.5416667 499.440981,24.625 C501.274315,24.7083333 503.024315,24.9166667 504.690981,25.25 C506.357648,25.5833333 507.690981,26.0833333 508.690981,26.75 C509.690981,27.5833333 511.024315,28.7083333 512.690981,30.125 C514.357648,31.5416667 515.190981,32.9166667 515.190981,34.25 Z" id="path-7"></path>
        <path d="M620.364058,175.25 C616.030725,175.583333 611.822392,175.708333 607.739058,175.625 C603.655725,175.541667 599.530725,175.416667 595.364058,175.25 C592.197392,175.25 588.364058,175.25 583.864058,175.25 C579.364058,175.25 574.947392,175.041667 570.614058,174.625 C566.280725,174.208333 562.280725,173.375 558.614058,172.125 C554.947392,170.875 552.447392,168.833333 551.114058,166 C549.280725,162.166667 548.489058,157.958333 548.739058,153.375 C548.989058,148.791667 550.280725,144.833333 552.614058,141.5 C554.947392,138.666667 557.614058,137 560.614058,136.5 C562.280725,136.166667 563.947392,135.791667 565.614058,135.375 C567.280725,134.958333 568.947392,134.583333 570.614058,134.25 C569.780725,119.583333 569.530725,105.041667 569.864058,90.625 C570.197392,76.2083333 570.114058,61.6666667 569.614058,47 C566.614058,47.1666667 563.489058,46.9583333 560.239058,46.375 C556.989058,45.7916667 554.280725,44.3333333 552.114058,42 C549.780725,39.6666667 548.239058,37.0833333 547.489058,34.25 C546.739058,31.4166667 546.614058,28.625 547.114058,25.875 C547.614058,23.125 548.780725,20.5416667 550.614058,18.125 C552.447392,15.7083333 554.780725,13.75 557.614058,12.25 C560.947392,10.4166667 564.405725,9.125 567.989058,8.375 C571.572392,7.625 575.197392,7.08333333 578.864058,6.75 C586.697392,6.08333333 594.489058,5.95833333 602.239058,6.375 C609.989058,6.79166667 617.864058,7.33333333 625.864058,8 C628.864058,8.16666667 631.905725,8.54166667 634.989058,9.125 C638.072392,9.70833333 640.780725,10.9166667 643.114058,12.75 C645.947392,15.0833333 647.947392,18.25 649.114058,22.25 C650.280725,26.25 650.447392,30.0833333 649.614058,33.75 C649.280725,35.0833333 648.822392,36.4583333 648.239058,37.875 C647.655725,39.2916667 646.780725,40.5 645.614058,41.5 C642.780725,44 639.530725,45.7083333 635.864058,46.625 C632.197392,47.5416667 628.530725,48.1666667 624.864058,48.5 C625.030725,63.1666667 624.822392,77.75 624.239058,92.25 C623.655725,106.75 623.614058,121.333333 624.114058,136 C625.947392,136 627.864058,136.083333 629.864058,136.25 C631.864058,136.416667 633.780725,136.916667 635.614058,137.75 C637.447392,138.583333 639.114058,139.833333 640.614058,141.5 C642.114058,143.166667 643.322392,145.041667 644.239058,147.125 C645.155725,149.208333 645.739058,151.375 645.989058,153.625 C646.239058,155.875 646.114058,158 645.614058,160 C644.947392,162.5 643.822392,164.916667 642.239058,167.25 C640.655725,169.583333 638.697392,171.25 636.364058,172.25 C633.864058,173.25 631.280725,173.958333 628.614058,174.375 C625.947392,174.791667 623.197392,175.083333 620.364058,175.25 Z M635.614058,32.75 C637.447392,34.25 639.364058,34.3333333 641.364058,33 C643.364058,31.6666667 644.114058,29.8333333 643.614058,27.5 C643.447392,27.1666667 643.155725,26.4166667 642.739058,25.25 C642.322392,24.0833333 642.030725,23.3333333 641.864058,23 C640.864058,21 639.447392,19.25 637.614058,17.75 C635.780725,16.25 633.864058,15.0833333 631.864058,14.25 C629.697392,13.4166667 627.489058,12.8333333 625.239058,12.5 C622.989058,12.1666667 620.697392,11.8333333 618.364058,11.5 C617.197392,11.3333333 616.030725,11.1666667 614.864058,11 C613.697392,10.8333333 612.530725,10.75 611.364058,10.75 C610.197392,10.75 609.072392,10.7916667 607.989058,10.875 C606.905725,10.9583333 605.864058,10.8333333 604.864058,10.5 C603.530725,10.3333333 602.364058,10.5 601.364058,11 C600.364058,11.5 599.614058,12.25 599.114058,13.25 C598.614058,14.25 598.489058,15.3333333 598.739058,16.5 C598.989058,17.6666667 599.614058,18.6666667 600.614058,19.5 C601.114058,19.8333333 601.947392,20.0833333 603.114058,20.25 C604.280725,20.4166667 605.530725,20.5416667 606.864058,20.625 C608.197392,20.7083333 609.489058,20.7916667 610.739058,20.875 C611.989058,20.9583333 612.947392,21 613.614058,21 C614.114058,21 614.947392,21.0833333 616.114058,21.25 C617.280725,21.4166667 618.489058,21.5833333 619.739058,21.75 C620.989058,21.9166667 622.197392,22.0833333 623.364058,22.25 C624.530725,22.4166667 625.364058,22.5833333 625.864058,22.75 C626.530725,22.9166667 627.655725,23.4166667 629.239058,24.25 C630.822392,25.0833333 631.780725,25.75 632.114058,26.25 C632.947392,27.0833333 633.489058,28.1666667 633.739058,29.5 C633.989058,30.8333333 634.614058,31.9166667 635.614058,32.75 Z" id="path-8"></path>
    </defs>
    <g id="ICON-新版方图标" stroke="none" stroke-width="1" fill="none" fill-rule="evenodd">
        <g id="Fastemby.wiki" transform="translate(-0, 0)">
            <rect id="形状" fill="url(#linearGradient-1)" x="0" y="0" width="1024" height="1024"></rect>
            <g id="WIKI" transform="translate(192.184, 756.25)" fill-rule="nonzero">
                <g id="形状">
                    <use fill="#FE042C" xlink:href="#path-3"></use>
                    <use fill="url(#linearGradient-2)" xlink:href="#path-3"></use>
                </g>
                <g id="形状">
                    <use fill="#FE042C" xlink:href="#path-5"></use>
                    <use fill="url(#linearGradient-4)" xlink:href="#path-5"></use>
                </g>
                <g id="形状">
                    <use fill="#FE042C" xlink:href="#path-7"></use>
                    <use fill="url(#linearGradient-6)" xlink:href="#path-7"></use>
                </g>
                <g id="形状">
                    <use fill="#FE042C" xlink:href="#path-8"></use>
                    <use fill="url(#linearGradient-4)" xlink:href="#path-8"></use>
                </g>
            </g>
            <g id="编组" transform="translate(202, 92)" stroke-width="0.781925455">
                <path d="M308.816133,0 L310.478816,1.67497099 L312.243212,0 L445.781961,152.561776 L469.020206,134.233308 L622,310.65939 L469.020206,444.213564 L487.469428,469.619691 L308.816133,624 L178.586775,469.619691 L152.095262,488.705082 L0,310.65939 L154.051279,178.49742 C146.145858,169.731041 138.553276,161.085826 131.273531,152.561776 L308.816133,0 Z" id="轨迹" stroke="#52B54B" fill="#52B54B"></path>
                <g id="轨迹" transform="translate(230.6505, 213.0909)">
                    <path d="M155.350097,0.390962727 L104.016467,89.1339935 L159.88001,89.1339935 L1.05652951,285.490298 L50.2885152,138.180042 L7.30510902,138.180042 L44.7037075,63.0167554 L75.972827,0.390962727 L155.350097,0.390962727 Z" id="轨迹1" stroke="#FFEB6F" fill="#FFEC79"></path>
                    <path d="M155.350097,0.390962727 L104.016467,89.1339935 L137.874102,89.1339935 L1.22944755,284.972898 L50.2885152,138.180042 L25.8710781,138.180042 L95.8111703,0.390962727 L155.350097,0.390962727 Z" id="轨迹2" stroke="#FFDD09" fill="#FFDD09"></path>
                    <path d="M159.88001,89.1339935 L6.6571773,278.566117 L138.915306,89.1339935 L159.88001,89.1339935 Z" id="轨迹3" stroke="#FEC608" fill="#FEC608"></path>
                </g>
            </g>
        </g>
    </g>
</svg>