<?xml version="1.0" encoding="UTF-8"?>
<svg width="1025px" height="1024px" viewBox="0 0 1025 1024" version="1.1" xmlns="http://www.w3.org/2000/svg" xmlns:xlink="http://www.w3.org/1999/xlink">
    <title>Feishu</title>
    <g id="ICON-新版方图标" stroke="none" stroke-width="1" fill="none" fill-rule="evenodd">
        <g id="Feishu" transform="translate(0.2604, -0.0008)">
            <rect id="蒙版路径" fill="#FFFFFF" x="0" y="0" width="1024" height="1024"></rect>
            <g id="编组" transform="translate(164.7396, 243.0008)" fill-rule="nonzero">
                <path d="M644.12606,166.545443 C647.667537,166.545443 651.156157,166.756874 654.697635,167.12688 C681.79165,170.70608 708.260132,178.016931 733.350153,188.851466 C740.644539,192.128654 742.441707,194.771548 736.204478,201.378782 C718.232801,220.619049 703.32688,242.607925 692.12101,266.393968 C679.963699,291.924321 666.749231,316.873238 654.32763,342.297876 C645.13638,361.304056 632.33616,378.341096 616.639965,392.459999 C577.895143,427.50477 532.70166,442.304975 481.112375,435.169162 C421.911555,426.976191 365.882208,406.995914 312.918618,380.619835 C310.345725,379.402673 307.824032,378.080106 305.359942,376.655494 C304.198285,375.926441 303.510912,374.635566 303.552479,373.264774 C303.597946,371.893982 304.365813,370.649306 305.571373,369.995402 L309.271424,368.039661 C352.086303,345.152202 387.923941,313.226045 422.387276,279.661295 C436.97605,265.548242 450.930528,250.748037 465.677875,236.793558 C498.030542,206.153545 538.003243,184.743509 581.436621,174.791271 C590.951038,172.465525 600.62403,170.615499 610.191305,168.554042 L610.614168,168.554042 L631.017308,166.704017" id="路径" fill="#133C9A"></path>
                <path d="M229.56175,580.634033 C223.060232,580.264027 207.044295,578.043997 205.088554,577.779708 C163.704253,572.643427 123.419808,560.863306 85.7883304,542.89351 C63.9580282,532.691941 42.9734522,520.693203 21.9360182,508.958755 C8.08725471,501.241505 1.85002561,489.242767 1.95574157,472.909684 C2.37860467,412.651707 2.37860467,352.39373 1.95574157,292.135753 C1.74430966,253.390931 0.528579056,214.646109 0,175.848429 C0,172.412667 0.528579056,168.976905 1.58573645,165.805432 C3.96434111,158.775335 8.7744077,158.40533 13.5316156,162.951107 C19.0288345,168.236895 23.4160379,174.685555 28.8603995,179.865627 C77.4896445,227.860577 129.131788,271.785471 186.958303,307.940257 C219.518754,328.819118 253.400651,347.477948 288.445422,363.863889 C344.633342,389.394242 402.301283,411.911697 462.664977,426.183323 C516.051431,438.816356 567.905006,430.834816 611.142746,397.005776 C624.357215,385.694191 630.858734,377.448362 646.504665,356.62236 C639.53345,375.141628 630.471349,392.804743 619.494291,409.268803 C609.451295,425.126165 586.722409,446.269315 569.490741,462.81383 C543.273236,488.18561 508.968475,508.747324 476.778029,526.084706 C441.6804,545.007826 405.208466,560.125178 366.252213,568.371006 C346.271937,573.392503 317.411537,579.101154 307.474257,579.629733 C305.729947,579.524017 299.757007,580.845465 296.744108,580.634033 C271.055181,582.536916 255.197818,583.276926 229.614607,580.634033 L229.56175,580.634033 Z" id="路径" fill="#3370FF"></path>
                <path d="M119.300223,0.0959955741 C121.095112,-0.0319985247 122.896838,-0.0319985247 124.691726,0.0959955741 C235.006111,0.0959955741 344.474769,1.89316321 454.683437,1.89316321 C454.894869,1.89316321 455.106301,1.89316321 455.212017,2.05173714 C465.466444,10.9847181 474.928004,20.6577092 483.596695,31.0707099 C508.492754,55.8081951 527.045868,98.7287893 539.731758,124.84058 C546.074703,142.917973 555.58912,160.14964 560.082039,180.341348 L560.082039,180.658495 C548.823312,184.305689 537.881732,188.74575 527.310157,194.031538 C495.384001,210.206047 480.900943,222.046211 454.472006,248.052286 C440.041806,262.165338 427.725921,274.851228 408.591371,292.928621 C401.65363,299.665981 394.478026,306.153997 387.078216,312.380319 C382.00386,303.39448 296.21553,135.623586 123.846,3.58461561" id="路径" fill="#00D6B9"></path>
            </g>
        </g>
    </g>
</svg>