<?xml version="1.0" encoding="UTF-8"?>
<svg width="1025px" height="1024px" viewBox="0 0 1025 1024" version="1.1" xmlns="http://www.w3.org/2000/svg" xmlns:xlink="http://www.w3.org/1999/xlink">
    <title>Fn.OS</title>
    <g id="ICON-新版方图标" stroke="none" stroke-width="1" fill="none" fill-rule="evenodd">
        <g id="Fn.OS" transform="translate(0.6332, 0)">
            <rect id="蒙版路径" fill="#3867E4" x="0" y="0" width="1024" height="1024"></rect>
            <g id="编组" transform="translate(178.0471, 264.5333)" fill-rule="nonzero">
                <path d="M52.3563297,0 C50.6837967,32.5802668 53.5253966,66.7135999 60.8896637,102.399999 C78.9547305,122.282666 101.713131,132.241066 129.15633,132.266666 C110.44273,149.546667 101.909396,170.88 103.55633,196.266667 C18.7179303,195.208533 -13.9903367,152.541867 5.42299656,68.2666662 C18.8502453,44.0637671 34.5665633,21.2036682 52.3563297,0 L52.3563297,0 Z" id="路径" fill="#F5F7FE"></path>
                <path d="M607.022997,0 C674.240064,53.7599996 682.773397,114.9184 632.622997,183.466667 C499.326924,196.014878 365.381275,200.289739 231.55633,196.266667 L231.55633,435.2 L282.75633,435.2 C272.832064,356.974934 306.965397,325.683201 385.156331,341.333333 C383.750671,318.488894 385.183833,295.558304 389.422997,273.066667 C395.830602,267.724163 403.027012,263.406317 410.75633,260.266667 C467.539599,253.168568 525.065346,254.606711 581.422997,264.533333 C548.851264,304.981333 506.184598,324.8896 453.422997,324.266666 C464.61873,403.985066 430.485397,432.435199 351.022997,409.6 C352.432192,435.279009 351.001298,461.03511 346.756331,486.399999 C339.296637,496.479769 328.84394,503.945981 316.889663,507.733333 C280.13071,513.422493 242.715284,513.422493 205.95633,507.733333 C194.002053,503.945981 183.549357,496.479769 176.089663,486.399999 C166.446107,432.915148 162.158241,378.602174 163.289663,324.266666 C162.158241,269.931158 166.446107,215.618185 176.089663,162.133333 C188.07864,151.1767 200.919024,141.189734 214.489663,132.266666 L581.422997,123.733333 C597.064597,119.466666 607.022997,109.508267 611.289663,93.8666663 C617.075263,62.114133 615.650197,30.8223998 607.022997,0 L607.022997,0 Z" id="路径" fill="#F6F8FE"></path>
            </g>
        </g>
    </g>
</svg>