<?xml version="1.0" encoding="UTF-8"?>
<svg width="1024px" height="1024px" viewBox="0 0 1024 1024" version="1.1" xmlns="http://www.w3.org/2000/svg" xmlns:xlink="http://www.w3.org/1999/xlink">
    <title>Gitee</title>
    <g id="ICON-新版方图标" stroke="none" stroke-width="1" fill="none" fill-rule="evenodd">
        <g id="Gitee">
            <rect id="蒙版路径" fill="#FFFFFF" x="0" y="0" width="1024" height="1024"></rect>
            <g transform="translate(142, 142)" fill="#C71D23" fill-rule="nonzero" id="形状">
                <path d="M370,740 C165.654643,740 7.42709465e-15,574.345357 7.42709465e-15,370 C7.42709465e-15,165.654643 165.654643,7.42709465e-15 370,7.42709465e-15 C574.345357,7.42709465e-15 740,165.654643 740,370 C740,574.345357 574.345357,740 370,740 Z M557.272857,328.877143 L347.165714,328.877143 C337.065215,328.877143 328.877143,337.065215 328.877143,347.165714 L328.877143,392.834286 C328.877143,402.93 337.07,411.122857 347.112857,411.122857 L475.027143,411.122857 C485.175714,411.122857 493.315714,419.315714 493.315714,429.358571 L493.315714,438.502857 C493.315714,468.79 468.79,493.315714 438.502857,493.315714 L264.92,493.315714 C254.860743,493.286683 246.713317,485.139257 246.684286,475.08 L246.684286,301.497143 C246.684286,271.21 271.21,246.684286 301.444286,246.684286 L557.272857,246.684286 C567.315714,246.684286 575.508571,238.491429 575.508571,228.395714 L575.508571,182.727143 C575.508614,172.64725 567.352708,164.467704 557.272857,164.438571 L301.444286,164.438571 C265.098951,164.438571 230.242999,178.880313 204.547923,204.585302 C178.852848,230.290291 164.424549,265.151811 164.438561,301.497143 L164.438561,557.272857 C164.438561,567.368571 172.631429,575.56144 182.727143,575.56144 L452.192857,575.56144 C484.907375,575.575451 516.28679,562.589488 539.424406,539.461785 C562.562022,516.334083 575.561429,484.960235 575.561429,452.245714 L575.561429,347.165714 C575.561429,337.065215 567.373356,328.877143 557.272857,328.877143 Z"></path>
            </g>
        </g>
    </g>
</svg>