<?xml version="1.0" encoding="UTF-8"?>
<svg width="1024px" height="1024px" viewBox="0 0 1024 1024" version="1.1" xmlns="http://www.w3.org/2000/svg" xmlns:xlink="http://www.w3.org/1999/xlink">
    <title>Google.voice</title>
    <g id="ICON-新版方图标" stroke="none" stroke-width="1" fill="none" fill-rule="evenodd">
        <g id="Google.voice">
            <rect id="蒙版路径" fill="#FFFFFF" x="0" y="0" width="1024" height="1024"></rect>
            <g id="编组" transform="translate(162, 157)" fill-rule="nonzero">
                <path d="M368.937475,141.850967 L368.937475,312.067513 C368.937475,322.564542 377.446998,331.074065 387.944027,331.074065 L558.160573,331.074065 C558.160573,278.866632 546.528147,222.135477 512.196335,187.803665 C477.864523,153.471853 421.133368,141.850967 368.937475,141.850967 Z M554.467739,705.827428 C475.037198,718.867746 378.861965,695.325933 286.668067,640.291173 L317.584008,571.350587 L387.655525,539.038293 L497.448081,601.735683 L554.467739,705.827428 Z M3.54313692,154.902826 C-9.50872191,234.333367 13.7561294,330.497061 69.0793921,422.760198 L139.970256,389.513156 L170.332271,321.426538 L110.773791,224.120374 L3.54313692,154.902826 Z" id="形状" fill="#00832D"></path>
                <path d="M397.314592,0 C381.665266,0.0507057521 368.993355,12.7277722 368.949015,28.3771173 L368.949015,141.850967 C473.340802,141.850967 558.206733,226.670738 558.206733,331.108686 L671.680583,331.108686 C687.307392,331.032724 699.949489,318.37002 700,302.743109 C700,135.607771 564.392229,0 397.314592,0 L397.314592,0 Z M673.053856,640.579676 C688.078629,626.301153 688.713547,602.556238 674.473288,587.495194 L537.734587,441.70905 C522.907652,427.538311 499.481572,427.789323 484.961688,442.274515 L387.944027,539.015213 L554.467739,705.492765 C599.578009,698.972606 633.332815,679.67755 663.971793,649.038572 L673.053856,640.579676 Z" id="形状" fill="#34A853"></path>
                <path d="M69.3563547,422.760198 C94.317601,464.177634 127.518483,505.848952 165.243086,543.608175 C202.967688,581.367398 245.527595,615.156825 286.94503,640.060371 L388.22099,539.072914 L170.355351,321.426538 M243.265734,250.812637 L258.833335,235.8105 C277.26395,217.188932 277.26395,187.199419 258.833335,168.57785 L130.357349,40.0095429 C111.734415,21.5713113 81.7360914,21.5713113 63.1131576,40.0095429 L58.577897,43.1253711 C28.7928867,72.9103814 10.9172646,111.488952 3.54313692,154.902826 L170.355351,321.426538 L243.265734,250.812637 Z" id="形状" fill="#34A853"></path>
            </g>
        </g>
    </g>
</svg>