<?xml version="1.0" encoding="UTF-8"?>
<svg width="1025px" height="1024px" viewBox="0 0 1025 1024" version="1.1" xmlns="http://www.w3.org/2000/svg" xmlns:xlink="http://www.w3.org/1999/xlink">
    <title>Iconfont</title>
    <defs>
        <linearGradient x1="26.8797761%" y1="25.1648231%" x2="105.06118%" y2="64.2232262%" id="linearGradient-1">
            <stop stop-color="#00F9E4" offset="0%"></stop>
            <stop stop-color="#4954FF" offset="100%"></stop>
        </linearGradient>
        <linearGradient x1="72.9571112%" y1="25.0881659%" x2="-5.20705852%" y2="64.1413937%" id="linearGradient-2">
            <stop stop-color="#00F9E4" offset="0%"></stop>
            <stop stop-color="#4954FF" offset="100%"></stop>
        </linearGradient>
    </defs>
    <g id="ICON-新版方图标" stroke="none" stroke-width="1" fill="none" fill-rule="evenodd">
        <g id="Iconfont" transform="translate(0.6332, 0)">
            <rect id="蒙版路径" fill="#FFFFFF" x="0" y="0" width="1024" height="1024"></rect>
            <path d="M793.212802,541.557405 C797.551698,546.981025 799.721146,554.574093 799.721146,562.16716 C793.212802,712.943789 667.384824,833.348148 513.354023,833.348148 C359.323222,833.348148 233.495244,712.943789 226.986901,562.16716 C226.986901,554.574093 229.156348,546.981025 233.495244,541.557405 L489.490096,205.292981 C502.506784,187.937398 528.540158,187.937398 541.556846,205.292981 L793.212802,541.557405 Z" id="路径" fill="#00F9E5"></path>
            <path d="M421.152487,653.283972 C363.662118,705.350722 273.63003,701.011826 221.563281,643.521456 C169.496531,586.031087 173.835427,498.168447 231.325796,446.101698 C288.816166,394.034948 378.848253,398.373844 430.915003,455.864213 C482.981753,513.354583 478.642857,601.217222 421.152487,653.283972" id="路径" fill="#FFFFFF"></path>
            <path d="M275.799478,493.829552 C245.427208,520.94765 243.25776,566.506056 269.291135,596.878327 C269.291135,596.878327 270.375859,597.963051 270.375859,597.963051 C298.578681,628.335321 345.221811,630.504769 375.594082,603.38667 C385.356597,594.708879 392.949665,583.861639 396.203837,570.844952 C397.288561,570.844952 275.799478,493.829552 275.799478,493.829552 Z" id="路径" fill="#1E1E1E"></path>
            <g id="编组" transform="translate(220.663, 410.1973)" fill="url(#linearGradient-1)">
                <path d="M12.7455064,34.7111664 C8.40661061,39.0500622 4.06771481,42.304234 0.813542962,46.6431298 C-0.271180987,47.7278538 -0.271180987,48.8125777 0.813542962,49.8973017 C0.813542962,49.8973017 0.813542962,49.8973017 0.813542962,49.8973017 L230.77502,196.335035 C231.859744,197.419759 234.029192,196.335035 235.113916,195.250311 C257.893119,143.183561 247.045879,81.3542962 205.826369,41.2195101 C178.708271,14.1014113 141.827656,0 104.947042,0 C72.4053236,0 38.7788812,11.9319634 12.7455064,34.7111664" id="路径"></path>
            </g>
            <path d="M603.386111,653.283972 C660.87648,705.350722 750.908568,701.011826 802.975318,643.521456 C855.042067,586.031087 850.703171,498.168447 793.212802,446.101698 C734.637709,394.034948 645.690345,398.373844 593.623595,455.864213 C541.556846,513.354583 545.895742,601.217222 603.386111,653.283972" id="路径" fill="#FFFFFF"></path>
            <path d="M748.73912,493.829552 C779.111391,520.94765 781.280839,566.506056 755.247464,596.878327 C755.247464,596.878327 754.16274,597.963051 754.16274,597.963051 C725.959917,628.335321 679.316787,630.504769 648.944517,603.38667 C639.182001,594.708879 631.588934,583.861639 628.334762,570.844952 C627.250038,570.844952 748.73912,493.829552 748.73912,493.829552 Z" id="路径" fill="#1E1E1E"></path>
            <g id="编组" transform="translate(557.3956, 410.1973)" fill="url(#linearGradient-2)">
                <path d="M40.7404248,41.2195101 C0.605638655,81.3542962 -11.3263248,143.183561 11.4528781,195.250311 C12.5376021,196.335035 13.622326,197.419759 14.70705,196.335035 C14.70705,196.335035 14.70705,196.335035 14.70705,196.335035 L245.753251,49.8973017 C246.837975,48.8125777 246.837975,47.7278538 246.837975,46.6431298 C246.837975,46.6431298 246.837975,46.6431298 246.837975,46.6431298 C243.583803,42.304234 239.244907,39.0500622 234.906012,34.7111664 C207.787913,11.9319634 175.246194,0 141.619752,0 C103.654414,0 67.8585235,14.1014113 40.7404248,41.2195101" id="路径"></path>
            </g>
            <g id="编组" transform="translate(172.3668, 176.5044)" fill="#0C6066">
                <path d="M620.466336,457.753507 C597.687133,482.702157 566.230139,497.888293 531.518973,498.973017 C497.89253,501.142464 464.266088,489.210501 439.317437,466.431298 C429.554921,457.753507 420.87713,446.906267 414.368786,436.059028 L629.144128,299.38381 C663.855294,347.111664 661.685846,413.279825 620.466336,457.753507 M527.180077,570.564797 C476.198051,618.292651 410.02989,645.41075 339.522834,645.41075 C269.015777,645.41075 202.847616,619.377375 151.86559,570.564797 C135.594731,555.378662 121.49332,538.023079 109.561356,518.498048 C123.662768,522.836943 138.848903,525.006391 154.035038,525.006391 C190.915653,525.006391 227.796267,511.989704 257.083813,485.956329 C272.269949,471.854918 285.286636,455.584059 293.964428,436.059028 C293.964428,434.974304 295.049152,434.974304 295.049152,433.88958 L295.049152,433.88958 C303.726943,414.364549 308.065839,393.754794 308.065839,373.145038 C308.065839,335.1797 292.879704,296.129638 263.592157,265.757368 C250.57547,252.74068 236.474058,242.978165 220.203199,235.385097 L219.118475,235.385097 C218.033751,235.385097 218.033751,234.300373 216.949027,234.300373 C207.186512,229.961477 196.339272,226.707305 185.492033,224.537857 L325.421422,33.6264424 C328.675594,29.2875466 334.099214,26.0333748 340.607558,26.0333748 L340.607558,26.0333748 C346.031177,26.0333748 352.539521,29.2875466 355.793693,33.6264424 L493.553634,223.453134 C482.706395,225.622581 471.859155,228.876753 461.011916,234.300373 C459.927192,234.300373 459.927192,235.385097 458.842468,235.385097 C458.842468,235.385097 458.842468,235.385097 457.757744,235.385097 C441.486885,242.978165 427.385473,252.74068 414.368786,265.757368 C369.895104,310.231049 357.963141,376.39921 382.911792,433.88958 L382.911792,433.88958 C382.911792,434.974304 383.996515,434.974304 383.996515,436.059028 C392.674307,454.499335 405.690994,471.854918 420.87713,485.956329 C450.164676,511.989704 487.045291,525.006391 523.925905,525.006391 C539.11204,525.006391 553.213452,522.836943 567.314863,518.498048 C557.552347,538.023079 542.366212,555.378662 527.180077,570.564797 M49.9015392,299.38381 L264.676881,436.059028 C258.168537,446.906267 249.490746,457.753507 239.72823,466.431298 C214.779579,489.210501 181.153137,501.142464 147.526695,498.973017 C113.900252,496.803569 82.4432576,482.702157 58.5793308,457.753507 C18.4445446,413.279825 16.2750967,347.111664 49.9015392,299.38381 M69.4265702,278.774055 C93.2904971,258.1643 123.662768,247.31706 154.035038,247.31706 C183.322585,247.31706 211.525408,257.079576 235.389334,275.519883 L235.389334,275.519883 C238.643506,277.689331 241.897678,280.943503 245.15185,284.197675 L245.15185,284.197675 C248.406022,287.451846 250.57547,289.621294 253.829642,292.875466 L254.914366,293.96019 C257.083813,297.214362 259.253261,300.468534 261.422709,303.722706 L262.507433,304.80743 C264.676881,308.061602 266.846329,311.315773 267.931053,314.569945 L269.015777,315.654669 C270.100501,318.908841 272.269949,322.163013 273.354673,325.417185 L274.439397,327.586633 C275.524121,330.840804 276.608845,334.094976 277.693568,337.349148 L278.778292,339.518596 C280.94774,346.02694 282.032464,353.620007 283.117188,361.213075 L283.117188,363.382523 C284.201912,369.890867 284.201912,376.39921 283.117188,382.907554 C283.117188,383.992278 283.117188,385.077002 283.117188,385.077002 C282.032464,393.754794 279.863016,403.517309 277.693568,412.195101 L277.693568,412.195101 L68.3418463,279.858779 C68.3418463,279.858779 68.3418463,278.774055 69.4265702,278.774055 M526.095353,247.31706 C556.467623,247.31706 586.839894,258.1643 610.703821,278.774055 C611.788545,278.774055 611.788545,279.858779 611.788545,279.858779 L403.521547,412.195101 C400.267375,403.517309 399.182651,394.839517 398.097927,385.077002 C398.097927,383.992278 398.097927,382.907554 398.097927,381.82283 C398.097927,378.568658 398.097927,375.314486 398.097927,370.975591 C398.097927,366.636695 398.097927,363.382523 399.182651,359.043627 C401.352099,343.857492 405.690994,328.671357 412.199338,314.569945 L413.284062,313.485221 C415.45351,310.231049 416.538234,306.976878 418.707682,303.722706 L419.792406,302.637982 C421.961854,299.38381 424.131302,296.129638 426.300749,292.875466 C426.300749,292.875466 426.300749,291.790742 427.385473,291.790742 C429.554921,288.53657 432.809093,285.282399 434.978541,283.112951 L434.978541,283.112951 C438.232713,279.858779 441.486885,277.689331 444.741057,274.435159 L444.741057,274.435159 C467.52026,255.994852 496.807806,247.31706 526.095353,247.31706 M642.160815,273.350435 C642.160815,272.265711 641.076091,272.265711 641.076091,271.180987 C636.737196,266.842091 632.3983,262.503196 628.059404,258.1643 C626.97468,257.079576 625.889956,255.994852 623.720508,254.910128 L621.55106,253.825404 C612.873269,247.31706 603.110753,240.808717 593.348238,236.469821 C592.263514,236.469821 592.263514,235.385097 591.17879,235.385097 C586.839894,233.215649 583.585722,232.130925 579.246826,229.961477 L579.246826,229.961477 C561.891243,223.453134 543.450936,220.198962 523.925905,220.198962 L377.488172,18.4403071 C368.81038,7.59306764 355.793693,0 341.692281,0 L341.692281,0 C327.59087,0 314.574183,6.50834369 305.896391,17.3555832 L156.204486,221.283686 C132.340559,221.283686 109.561356,225.622581 87.8668774,235.385097 C86.7821534,235.385097 86.7821534,236.469821 85.6974295,236.469821 C80.2738097,238.639269 75.9349139,241.893441 71.5960181,244.062889 C67.2571224,247.31706 62.9182266,250.571232 58.5793308,253.825404 C57.4946068,254.910128 57.4946068,254.910128 56.4098829,255.994852 C55.3251589,257.079576 54.240435,258.1643 52.0709871,259.249024 C47.7320913,263.58792 43.3931955,267.926815 39.0542997,272.265711 C39.0542997,272.265711 37.9695757,273.350435 37.9695757,274.435159 C-13.0124499,331.925528 -13.0124499,418.703444 40.1390236,477.278538 C48.8168152,487.041053 59.6640547,495.718845 70.5112942,502.227188 C85.6974295,535.853631 107.391908,565.141177 134.510007,590.089828 C189.830929,643.241302 262.507433,671.444124 339.522834,671.444124 C416.538234,671.444124 489.214739,642.156578 544.53566,590.089828 C570.569035,565.141177 592.263514,535.853631 607.449649,502.227188 C619.381612,494.634121 630.228852,485.956329 638.906644,476.193814 C693.142841,417.61872 693.142841,330.840804 642.160815,273.350435" id="形状"></path>
            </g>
        </g>
    </g>
</svg>