<?xml version="1.0" encoding="UTF-8"?>
<svg width="1024px" height="1024px" viewBox="0 0 1024 1024" version="1.1" xmlns="http://www.w3.org/2000/svg" xmlns:xlink="http://www.w3.org/1999/xlink">
    <title>Lskypro</title>
    <g id="ICON-新版方图标" stroke="none" stroke-width="1" fill="none" fill-rule="evenodd">
        <g id="Lskypro">
            <rect id="蒙版路径" fill="#FFFFFF" x="0" y="0" width="1024" height="1024"></rect>
            <path d="M343,159.499805 C353.868349,159.499805 383.448953,166.271291 394.5,190.5 C398.710693,199.731674 404.792736,211.243859 405,223.5 C405.324857,242.709798 392.286817,306.883953 393,323 C393.430866,332.736426 391.534511,348.314745 394.5,366.5 C395.043474,369.832743 401,405 418.5,435 C421.196283,438.640265 431.220989,459.536859 462.5,488.5 C469.619772,495.09263 483.786439,505.259297 505,519 C502.26629,519.345397 493.432957,516.67873 478.5,511 C469.587347,507.610681 447.93396,500.248399 419.5,482.5 C411.113294,477.265041 380.723189,463.129171 347,428 C339.24675,419.923503 309.890235,394.723122 291,349.5 C285.430871,336.167536 271.5,304.5 273.5,259 C273.119244,229.102214 277.5,209.5 286.5,192 C303.984289,162.435564 333.525764,159.499805 343,159.499805 Z" id="矩形" fill="#DB2D2D"></path>
            <path d="M488,124.499805 C498.868349,124.499805 528.448953,131.271291 539.5,155.5 C543.710693,164.731674 549.792736,176.243859 550,188.5 C550.324857,207.709798 537.286817,271.883953 538,288 C538.430866,297.736426 536.534511,313.314745 539.5,331.5 C540.043474,334.832743 546,370 563.5,400 C566.196283,403.640265 576.220989,424.536859 607.5,453.5 C614.619772,460.09263 628.786439,470.259297 650,484 C647.26629,484.345397 638.432957,481.67873 623.5,476 C614.587347,472.610681 592.93396,465.248399 564.5,447.5 C556.113294,442.265041 525.723189,428.129171 492,393 C484.24675,384.923503 454.890235,359.723122 436,314.5 C430.430871,301.167536 416.5,269.5 418.5,224 C418.119244,194.102214 422.5,174.5 431.5,157 C448.984289,127.435564 478.525764,124.499805 488,124.499805 Z" id="矩形" fill="#EA8F1A" transform="translate(534.1526, 304.2648) rotate(40) translate(-534.1526, -304.2648)"></path>
            <path d="M621,190.499805 C631.868349,190.499805 661.448953,197.271291 672.5,221.5 C676.710693,230.731674 682.792736,242.243859 683,254.5 C683.324857,273.709798 670.286817,337.883953 671,354 C671.430866,363.736426 669.534511,379.314745 672.5,397.5 C673.043474,400.832743 679,436 696.5,466 C699.196283,469.640265 709.220989,490.536859 740.5,519.5 C747.619772,526.09263 761.786439,536.259297 783,550 C780.26629,550.345397 771.432957,547.67873 756.5,542 C747.587347,538.610681 725.93396,531.248399 697.5,513.5 C689.113294,508.265041 658.723189,494.129171 625,459 C617.24675,450.923503 587.890235,425.723122 569,380.5 C563.430871,367.167536 549.5,335.5 551.5,290 C551.119244,260.102214 555.5,240.5 564.5,223 C581.984289,193.435564 611.525764,190.499805 621,190.499805 Z" id="矩形" fill="#E8DD36" transform="translate(667.1526, 370.2648) rotate(80) translate(-667.1526, -370.2648)"></path>
            <path d="M681,326.499805 C691.868349,326.499805 721.448953,333.271291 732.5,357.5 C736.710693,366.731674 742.792736,378.243859 743,390.5 C743.324857,409.709798 730.286817,473.883953 731,490 C731.430866,499.736426 729.534511,515.314745 732.5,533.5 C733.043474,536.832743 739,572 756.5,602 C759.196283,605.640265 769.220989,626.536859 800.5,655.5 C807.619772,662.09263 821.786439,672.259297 843,686 C840.26629,686.345397 831.432957,683.67873 816.5,678 C807.587347,674.610681 785.93396,667.248399 757.5,649.5 C749.113294,644.265041 718.723189,630.129171 685,595 C677.24675,586.923503 647.890235,561.723122 629,516.5 C623.430871,503.167536 609.5,471.5 611.5,426 C611.119244,396.102214 615.5,376.5 624.5,359 C641.984289,329.435564 671.525764,326.499805 681,326.499805 Z" id="矩形" fill="#58BD2C" transform="translate(727.1526, 506.2648) rotate(120) translate(-727.1526, -506.2648)"></path>
            <path d="M643,463.499805 C653.868349,463.499805 683.448953,470.271291 694.5,494.5 C698.710693,503.731674 704.792736,515.243859 705,527.5 C705.324857,546.709798 692.286817,610.883953 693,627 C693.430866,636.736426 691.534511,652.314745 694.5,670.5 C695.043474,673.832743 701,709 718.5,739 C721.196283,742.640265 731.220989,763.536859 762.5,792.5 C769.619772,799.09263 783.786439,809.259297 805,823 C802.26629,823.345397 793.432957,820.67873 778.5,815 C769.587347,811.610681 747.93396,804.248399 719.5,786.5 C711.113294,781.265041 680.723189,767.129171 647,732 C639.24675,723.923503 609.890235,698.723122 591,653.5 C585.430871,640.167536 571.5,608.5 573.5,563 C573.119244,533.102214 577.5,513.5 586.5,496 C603.984289,466.435564 633.525764,463.499805 643,463.499805 Z" id="矩形" fill="#22AFAF" transform="translate(689.1526, 643.2648) rotate(158) translate(-689.1526, -643.2648)"></path>
            <path d="M516,550.499805 C526.868349,550.499805 556.448953,557.271291 567.5,581.5 C571.710693,590.731674 577.792736,602.243859 578,614.5 C578.324857,633.709798 565.286817,697.883953 566,714 C566.430866,723.736426 564.534511,739.314745 567.5,757.5 C568.043474,760.832743 574,796 591.5,826 C594.196283,829.640265 604.220989,850.536859 635.5,879.5 C642.619772,886.09263 656.786439,896.259297 678,910 C675.26629,910.345397 666.432957,907.67873 651.5,902 C642.587347,898.610681 620.93396,891.248399 592.5,873.5 C584.113294,868.265041 553.723189,854.129171 520,819 C512.24675,810.923503 482.890235,785.723122 464,740.5 C458.430871,727.167536 444.5,695.5 446.5,650 C446.119244,620.102214 450.5,600.5 459.5,583 C476.984289,553.435564 506.525764,550.499805 516,550.499805 Z" id="矩形" fill="#327AB8" transform="translate(562.1526, 730.2648) rotate(200) translate(-562.1526, -730.2648)"></path>
            <path d="M372,535.499805 C382.868349,535.499805 412.448953,542.271291 423.5,566.5 C427.710693,575.731674 433.792736,587.243859 434,599.5 C434.324857,618.709798 421.286817,682.883953 422,699 C422.430866,708.736426 420.534511,724.314745 423.5,742.5 C424.043474,745.832743 430,781 447.5,811 C450.196283,814.640265 460.220989,835.536859 491.5,864.5 C498.619772,871.09263 512.786439,881.259297 534,895 C531.26629,895.345397 522.432957,892.67873 507.5,887 C498.587347,883.610681 476.93396,876.248399 448.5,858.5 C440.113294,853.265041 409.723189,839.129171 376,804 C368.24675,795.923503 338.890235,770.723122 320,725.5 C314.430871,712.167536 300.5,680.5 302.5,635 C302.119244,605.102214 306.5,585.5 315.5,568 C332.984289,538.435564 362.525764,535.499805 372,535.499805 Z" id="矩形" fill="#8556B3" transform="translate(418.1526, 715.2648) rotate(239) translate(-418.1526, -715.2648)"></path>
            <path d="M267,426.499805 C277.868349,426.499805 307.448953,433.271291 318.5,457.5 C322.710693,466.731674 328.792736,478.243859 329,490.5 C329.324857,509.709798 316.286817,573.883953 317,590 C317.430866,599.736426 315.534511,615.314745 318.5,633.5 C319.043474,636.832743 325,672 342.5,702 C345.196283,705.640265 355.220989,726.536859 386.5,755.5 C393.619772,762.09263 407.786439,772.259297 429,786 C426.26629,786.345397 417.432957,783.67873 402.5,778 C393.587347,774.610681 371.93396,767.248399 343.5,749.5 C335.113294,744.265041 304.723189,730.129171 271,695 C263.24675,686.923503 233.890235,661.723122 215,616.5 C209.430871,603.167536 195.5,571.5 197.5,526 C197.119244,496.102214 201.5,476.5 210.5,459 C227.984289,429.435564 257.525764,426.499805 267,426.499805 Z" id="矩形" fill="#E14EC6" transform="translate(313.1526, 606.2648) rotate(280) translate(-313.1526, -606.2648)"></path>
            <path d="M255,286.499805 C265.868349,286.499805 295.448953,293.271291 306.5,317.5 C310.710693,326.731674 316.792736,338.243859 317,350.5 C317.324857,369.709798 304.286817,433.883953 305,450 C305.430866,459.736426 303.534511,475.314745 306.5,493.5 C307.043474,496.832743 313,532 330.5,562 C333.196283,565.640265 343.220989,586.536859 374.5,615.5 C381.619772,622.09263 395.786439,632.259297 417,646 C414.26629,646.345397 405.432957,643.67873 390.5,638 C381.587347,634.610681 359.93396,627.248399 331.5,609.5 C323.113294,604.265041 292.723189,590.129171 259,555 C251.24675,546.923503 221.890235,521.723122 203,476.5 C197.430871,463.167536 183.5,431.5 185.5,386 C185.119244,356.102214 189.5,336.5 198.5,319 C215.984289,289.435564 245.525764,286.499805 255,286.499805 Z" id="矩形" fill="#F30E4F" transform="translate(301.1526, 466.2648) rotate(318) translate(-301.1526, -466.2648)"></path>
        </g>
    </g>
</svg>