<?xml version="1.0" encoding="UTF-8"?>
<svg width="1024px" height="1024px" viewBox="0 0 1024 1024" version="1.1" xmlns="http://www.w3.org/2000/svg" xmlns:xlink="http://www.w3.org/1999/xlink">
    <title>Magnet</title>
    <g id="ICON-新版方图标" stroke="none" stroke-width="1" fill="none" fill-rule="evenodd">
        <g id="Magnet">
            <rect id="蒙版路径" fill="#FFFFFF" x="0" y="0" width="1024" height="1024"></rect>
            <circle id="椭圆形" fill="#EDEDED" cx="512" cy="512" r="370"></circle>
            <g id="编组" transform="translate(255, 187)" fill-rule="nonzero">
                <path d="M412.978725,252.497037 L236.125488,429.321864 C212.576257,452.90712 174.223908,452.90712 150.674677,429.321864 C127.089184,405.771738 127.089184,367.417932 150.674677,343.866674 L327.490519,167.007849 L233.470377,73 L56.652269,249.840693 C-18.8840897,325.379922 -18.8840897,447.825615 56.652269,523.345578 C132.188628,598.884807 254.646667,598.884807 330.146763,523.345578 L507,346.521885 L412.978725,252.497037 L412.978725,252.497037 Z" id="路径" fill="#DA4453"></path>
                <polygon id="路径" fill="#CCD1D9" points="148 158.235512 241.773961 252 327 166.746406 233.22717 73"></polygon>
                <path d="M528.061764,248.058054 C530.338153,245.785564 531.6138,242.698827 531.605854,239.482358 C531.605854,232.801662 526.1837,227.397896 519.52088,227.397896 C516.304999,227.39356 513.219479,228.668602 510.944839,230.941818 L476.745013,265.140268 C474.469252,267.405754 473.193282,270.486739 473.200926,273.69782 C473.200926,280.378516 478.623078,285.800415 485.285897,285.800415 C488.65303,285.800415 491.665192,284.436151 493.861937,282.23836 L528.061764,248.058054 L528.061764,248.058054 Z M576.437802,299.356864 C574.176452,297.085278 571.102259,295.809687 567.896917,295.812948 L519.52088,295.812948 C516.315539,295.809687 513.241346,297.085278 510.979996,299.356864 C506.230398,304.088126 506.230398,311.742972 510.979996,316.45609 C513.318504,318.830793 516.437271,320 519.52088,320 L567.896917,320 C570.980527,320 574.099293,318.830793 576.437802,316.45609 C581.187399,311.742972 581.187399,304.088126 576.437802,299.356864 L576.437802,299.356864 Z M459.625821,182.548446 C454.912514,177.817185 447.25736,177.817185 442.544053,182.548446 C440.169254,184.905005 439,188.005501 439,191.107132 L439,239.482358 C439,242.565843 440.169254,245.684484 442.544053,248.022898 C444.801564,250.302393 447.876686,251.584871 451.084937,251.584871 C454.293187,251.584871 457.368309,250.302393 459.625821,248.022898 C462.000619,245.684484 463.169873,242.565843 463.169873,239.482358 L463.169873,191.107132 C463.169873,188.005501 462.000619,184.905005 459.625821,182.548446 L459.625821,182.548446 Z" id="形状" fill="#AAB2BD"></path>
                <path d="M349.090472,69.0245069 C351.363147,66.764022 352.639249,63.6897217 352.635411,60.484294 C352.635411,53.7868435 347.212543,48.3821618 340.515052,48.3821618 C337.183316,48.3821618 334.171373,49.7463733 331.974786,51.9259366 L331.974786,51.9077921 L297.777435,86.1412217 C295.502074,88.3998127 294.225829,91.4754444 294.233603,94.6814352 C294.233603,101.361875 299.655364,106.783567 306.317701,106.783567 C309.649437,106.783567 312.696534,105.419355 314.857967,103.239793 L349.090472,69.0245069 L349.090472,69.0245069 Z M397.465276,120.339497 C395.200191,118.073821 392.12875,116.799329 388.925011,116.795722 L340.55134,116.795722 C337.4328,116.795722 334.349413,117.983029 331.97592,120.339497 C327.262955,125.070578 327.262955,132.725131 331.97592,137.456212 C334.25089,139.728599 337.335865,141.003459 340.55134,140.999993 L388.925011,140.999993 C392.008397,140.999993 395.091783,139.812679 397.465276,137.456212 C402.178241,132.725131 402.178241,125.070578 397.465276,120.339497 L397.465276,120.339497 Z M280.660616,3.53555306 C275.94765,-1.17851769 268.29305,-1.17851769 263.543796,3.53555306 C261.205457,5.91016531 260,8.9923989 260,12.1109203 L260,60.4480056 C260,63.566527 261.204324,66.6498946 263.543796,69.0233728 C268.29305,73.7374436 275.94765,73.7374436 280.660616,69.0233728 C282.93692,66.7579839 284.212898,63.6764656 284.204454,60.4650154 L284.204454,12.0939105 C284.204454,8.99353296 283.034109,5.91016531 280.660616,3.53555306 Z" id="形状" fill="#AAB2BD"></path>
                <polygon id="路径" fill="#CCD1D9" points="507 346.772776 413.245575 253 328 338.226094 421.755555 432"></polygon>
            </g>
        </g>
    </g>
</svg>