<?xml version="1.0" encoding="UTF-8"?>
<svg width="1025px" height="1024px" viewBox="0 0 1025 1024" version="1.1" xmlns="http://www.w3.org/2000/svg" xmlns:xlink="http://www.w3.org/1999/xlink">
    <title>Nicept</title>
    <defs>
        <rect id="path-1" x="0" y="0" width="1024" height="1024"></rect>
        <linearGradient x1="50%" y1="0%" x2="47.854377%" y2="109.938137%" id="linearGradient-3">
            <stop stop-color="#5DA6EE" offset="0%"></stop>
            <stop stop-color="#317AE3" offset="100%"></stop>
        </linearGradient>
    </defs>
    <g id="ICON-新版方图标" stroke="none" stroke-width="1" fill="none" fill-rule="evenodd">
        <g id="Nicept" transform="translate(0.1887, 0)">
            <mask id="mask-2" fill="white">
                <use xlink:href="#path-1"></use>
            </mask>
            <use id="蒙版" fill="#FFFFFF" xlink:href="#path-1"></use>
            <rect id="矩形" fill="url(#linearGradient-3)" mask="url(#mask-2)" transform="translate(506.6919, 517.7739) rotate(-11) translate(-506.6919, -517.7739)" x="188.191899" y="194.773905" width="637" height="646" rx="88"></rect>
            <g id="N" mask="url(#mask-2)" fill="#FFFFFF" fill-rule="nonzero">
                <g transform="translate(513.5029, 524.6557) rotate(1) translate(-513.5029, -524.6557)translate(232.6289, 239.978)" id="路径">
                    <path d="M1.85715333e-12,533.320312 C30.4296875,532.519531 50.0488281,526.713867 58.8574219,515.90332 C67.6660156,505.092773 72.0703125,489.14388 72.0703125,468.056641 L72.0703125,79.6777344 C46.9791667,51.6503906 31.4973958,35.1676432 25.625,30.2294922 C19.7526042,25.2913411 11.7447917,22.1549479 1.6015625,20.8203125 L1.6015625,-1.47201387e-12 L175.371094,-1.47201387e-12 L457.246094,345.537109 L461.25,345.537109 L461.25,101.699219 C461.25,73.9388021 456.178385,54.1194661 446.035156,42.2412109 C435.891927,30.3629557 415.605469,23.2226562 385.175781,20.8203125 L385.175781,-1.47201387e-12 L561.748047,-1.47201387e-12 L561.748047,20.8203125 C536.123047,25.0911458 518.972982,30.8300781 510.297852,38.0371094 C501.622721,45.2441406 497.285156,61.3932292 497.285156,86.484375 L497.285156,569.355469 L474.462891,569.355469 L113.710938,130.927734 L108.105469,130.927734 L108.105469,452.841797 C108.105469,477.932943 111.575521,495.683594 118.515625,506.09375 C129.459635,522.910156 151.88151,531.985677 185.78125,533.320312 L185.78125,554.140625 L1.85715333e-12,554.140625 L1.85715333e-12,533.320312 Z"></path>
                </g>
            </g>
        </g>
    </g>
</svg>