<?xml version="1.0" encoding="UTF-8"?>
<svg width="1025px" height="1024px" viewBox="0 0 1025 1024" version="1.1" xmlns="http://www.w3.org/2000/svg" xmlns:xlink="http://www.w3.org/1999/xlink">
    <title>Outlook</title>
    <g id="ICON-新版方图标" stroke="none" stroke-width="1" fill="none" fill-rule="evenodd">
        <g id="Outlook" transform="translate(0.3975, 0)">
            <rect id="蒙版路径" fill="#FFFFFF" x="0" y="0" width="1024" height="1024"></rect>
            <g id="编组" transform="translate(142, 173)" fill-rule="nonzero">
                <path d="M647.5,0 L246.666666,0 C228.166666,0 215.833334,12.3333336 215.833334,30.8333329 L215.833334,61.6666664 L462.5,138.75 L678.333334,61.6666664 L678.333334,30.8333329 C678.333334,12.3333329 666,0 647.5,0 Z" id="路径" fill="#0364B8"></path>
                <path d="M740,336.083333 C740,329.916666 736.916666,323.749999 730.75,320.666666 L465.583334,169.583333 C465.583334,169.583333 462.5,169.583333 462.5,166.5 C456.333334,163.416666 453.25,163.416666 447.083334,163.416666 C440.916667,163.416666 434.75,163.416666 431.666666,166.5 C431.666666,166.5 428.583333,166.5 428.583334,169.583333 L163.416666,320.666666 C157.25,323.75 154.166666,329.916666 154.166666,336.083333 C154.166666,342.249999 157.25,348.416666 163.416666,351.5 L428.583334,502.583333 C428.583334,502.583333 431.666666,502.583333 431.666666,505.666666 C437.833333,508.75 440.916666,508.75 447.083334,508.75 C453.250001,508.75 459.416667,508.75 462.5,505.666666 C462.5,505.666666 465.583334,505.666666 465.583334,502.583333 L730.75,351.5 C736.916666,348.416666 740,342.25 740,336.083333 Z" id="路径" fill="#0A2767"></path>
                <polygon id="路径" fill="#28A8EA" points="462.5 61.6666664 215.833334 61.6666664 215.833334 277.5 462.5 524.166666 678.333334 524.166666 678.333334 277.5"></polygon>
                <line x1="727.666666" y1="672.166666" x2="163.416666" y2="351.5" id="路径" fill="#35B8F1"></line>
                <polygon id="路径" fill="#50D9FF" points="462.5 61.6666664 678.333334 61.6666664 678.333334 277.5 462.5 277.5"></polygon>
                <polygon id="路径" fill="#0078D4" points="215.833334 277.5 462.5 277.5 462.5 585.833333 215.833334 585.833333"></polygon>
                <path d="M447.083334,570.416666 L163.416666,351.5 L178.833334,323.75 C178.833334,323.75 440.916666,474.833334 444,474.833333 L450.166666,474.833333 C453.25,471.75 712.25,326.833333 712.25,326.833333 L727.666666,354.583333 L447.083334,570.416666 L447.083334,570.416666 Z" id="路径" fill="#0A2767" opacity="0.5"></path>
                <path d="M730.75,351.5 L468.666666,502.583333 L462.5,505.666666 C456.333334,508.75 453.25,508.75 447.083334,508.75 C440.916667,508.75 434.75,505.666666 431.666666,505.666666 L518,625.916666 L727.666666,675.25 C736.916666,669.083333 740,659.833334 740,650.583333 L740,336.083333 C740,342.249999 736.916666,348.416666 730.75,351.5 Z" id="路径" fill="#1490DF"></path>
                <path d="M740,647.5 L477.916666,496.416666 L468.666666,502.583333 L462.5,505.666666 C456.333334,508.75 453.25,508.75 447.083334,508.75 C440.916667,508.75 437.833334,505.666666 434.75,505.666666 L558.083334,616.666666 L730.75,672.166666 C733.833334,666 740,656.75 740,647.5 L740,647.5 Z" id="路径" fill="#000000" opacity="0.1"></path>
                <path d="M428.583334,502.583333 L215.833334,376.166666 L163.416666,351.5 C157.25,348.416666 154.166666,342.25 154.166666,336.083333 L154.166666,647.5 C154.166666,666 169.583333,678.333333 185,678.333333 L703,678.333333 C712.25,678.333333 718.416666,678.333333 727.666666,672.166666 L428.583334,502.583333 Z" id="路径" fill="#28A8EA"></path>
                <path d="M419.333334,585.833333 C440.916667,585.833333 462.5,564.249999 462.5,542.666666 L462.5,191.166666 C462.5,169.583333 447.083334,154.166666 425.5,154.166666 L215.833334,154.166666 L215.833334,292.916666 L163.416666,323.75 C157.25,326.833334 154.166666,329.916666 154.166666,336.083333 L154.166666,585.833333 L419.333334,585.833333 Z" id="路径" fill="#000000" opacity="0.5"></path>
                <path d="M394.666666,555 L37,555 C15.4166664,555 0,539.583333 0,518 L0,160.333333 C0,138.75 15.4166664,123.333333 37,123.333333 L397.75,123.333333 C416.25,123.333333 431.666666,138.749999 431.666666,160.333333 L431.666666,521.083333 C431.666666,539.583333 416.25,555 394.666666,555 L394.666666,555 Z" id="路径" fill="#0078D4"></path>
                <path d="M114.083334,277.5 C123.333334,259 135.666666,243.583334 154.166666,231.25 C172.666666,222 194.25,215.833333 218.916666,215.833333 C240.5,215.833333 262.083333,221.999999 277.5,231.25 C296,240.5 308.333334,255.916666 317.583334,274.416666 C326.833334,292.916666 329.916666,314.5 329.916666,336.083333 C329.916666,360.749999 323.75,382.333333 314.5,400.833333 C308.333334,422.416666 292.916666,437.833333 277.5,447.083333 C259,456.333333 237.416666,462.5 215.833334,462.5 C191.166666,462.5 172.666666,456.333333 154.166666,447.083333 C135.666666,437.833333 123.333333,422.416666 114.083334,403.916666 C104.833334,385.416666 98.6666664,363.833333 98.6666664,342.25 C98.6666664,317.583334 104.833333,296 114.083334,277.5 L114.083334,277.5 Z M157.25,382.333333 C163.416666,394.666666 169.583334,403.916666 178.833334,413.166666 C188.083334,419.333333 200.416667,422.416666 215.833334,422.416666 C231.25,422.416666 243.583334,419.333333 252.833334,410.083333 C262.083334,403.916666 271.333334,391.583333 274.416666,379.25 C280.583333,370 283.666666,354.583334 283.666666,339.166666 C283.666666,323.749999 280.583333,311.416666 277.5,299.083333 C274.416667,286.749999 265.166666,277.499999 255.916666,268.25 C243.583333,259 231.25,255.916666 215.833334,255.916666 C200.416667,255.916666 188.083334,259 178.833334,268.25 C169.583334,274.416666 160.333334,286.75 154.166666,299.083333 C151.083333,308.333333 148,323.749999 148,339.166666 C148,354.583334 151.083334,370 157.25,382.333333 L157.25,382.333333 Z" id="形状" fill="#FFFFFF"></path>
            </g>
        </g>
    </g>
</svg>