<?xml version="1.0" encoding="UTF-8"?>
<svg width="1024px" height="1024px" viewBox="0 0 1024 1024" version="1.1" xmlns="http://www.w3.org/2000/svg" xmlns:xlink="http://www.w3.org/1999/xlink">
    <title>Shaoshupai</title>
    <g id="ICON-新版方图标" stroke="none" stroke-width="1" fill="none" fill-rule="evenodd">
        <g id="Shaoshupai" transform="translate(-0, 0)" fill-rule="nonzero">
            <polygon id="路径" fill="#D7191A" points="-1.34952445e-14 0 2.13750901e-12 1024 1024 1024 1024 0"></polygon>
            <path d="M730.5216,255.5904 C584.2944,279.552001 438.272001,304.5376 292.2496,328.703999 C245.3504,336.4864 239.615999,342.835199 238.1824,390.5536 C237.363199,413.696 247.6032,424.960001 270.9504,421.6832 C299.417601,417.587199 327.68,412.8768 360.448,407.552 L360.448,731.9552 C360.448,752.4352 362.2912,773.12 390.3488,769.8432 C420.0448,766.3616 448.9216,731.136 449.1264,700.6208 C449.331201,643.072 449.1264,585.5232 449.1264,527.769599 L449.1264,391.9872 C492.544,384.8192 532.889601,378.0608 578.3552,370.688 C578.3552,421.068801 581.632,466.7392 577.7408,512 C570.5728,593.92 589.4144,667.0336 633.6512,736.4608 C650.0352,762.0608 664.7808,775.168 695.9104,773.3248 C740.1472,770.457599 745.471999,763.4944 725.8112,723.7632 C706.1504,683.6224 675.6352,644.3008 670.9248,602.5216 C662.118401,521.625599 668.4672,439.0912 668.4672,356.1472 C694.6816,351.436801 718.6432,346.9312 742.8096,342.8352 C777.0112,336.896 791.552001,314.9824 784.384,274.6368 C778.035199,239.2064 751.001599,252.1088 730.5216,255.5904 L730.5216,255.5904 Z" id="路径" fill="#FFFFFF"></path>
        </g>
    </g>
</svg>