<?xml version="1.0" encoding="UTF-8"?>
<svg width="1025px" height="1024px" viewBox="0 0 1025 1024" version="1.1" xmlns="http://www.w3.org/2000/svg" xmlns:xlink="http://www.w3.org/1999/xlink">
    <title>Sub.store</title>
    <defs>
        <linearGradient x1="100%" y1="50%" x2="0%" y2="50%" id="linearGradient-1">
            <stop stop-color="#93EEFE" offset="0%"></stop>
            <stop stop-color="#A1FCC6" offset="100%"></stop>
        </linearGradient>
        <linearGradient x1="100%" y1="50%" x2="0%" y2="50%" id="linearGradient-2">
            <stop stop-color="#93EEFE" offset="0%"></stop>
            <stop stop-color="#A1FCC6" offset="100%"></stop>
        </linearGradient>
    </defs>
    <g id="ICON-新版方图标" stroke="none" stroke-width="1" fill="none" fill-rule="evenodd">
        <g id="Sub.store" transform="translate(0.6332, 0)" fill-rule="nonzero">
            <polygon id="蒙版路径" fill="#121212" transform="translate(512, 512) scale(-1, 1) rotate(-180) translate(-512, -512)" points="0 512 0 0 512 0 1024 0 1024 512 1024 1024 512 1024 0 1024"></polygon>
            <path d="M547.255106,371.787138 C579.492143,274.127879 485.625476,176.468619 387.966217,205.861212 C363.314365,213.446397 327.284736,241.890842 276.084736,293.090842 L201.181032,368.942693 L222.040291,389.801953 L242.89955,410.661212 L316.855106,337.653805 C377.536588,276.972323 395.551402,264.646397 421.151402,264.646397 C489.418069,264.646397 513.121773,342.394545 460.973625,392.646397 L432.52918,420.142693 L453.388439,441.950101 L474.247699,463.757508 L505.536588,433.416768 C522.603254,417.298249 541.566217,388.853805 547.255106,371.787138 Z" id="路径" fill="url(#linearGradient-1)" transform="translate(377.4498, 332.1515) scale(-1, 1) translate(-377.4498, -332.1515)"></path>
            <path d="M468.385185,572.606312 L413.392593,516.740741 L440.888889,488.296296 L468.385185,459.851852 L447.525926,438.992593 L426.666667,417.185185 L377.362963,467.437037 L327.111111,516.740741 L374.518519,564.148148 C400.118519,589.748148 423.822222,611.555556 427.614815,611.555556 C429.511111,611.555556 443.101234,598.572475 468.385185,572.606312 Z" id="路径" fill-opacity="0.96" fill="#FFFFFF" transform="translate(397.7481, 514.3704) scale(-1, 1) rotate(-180) translate(-397.7481, -514.3704)"></path>
            <path d="M694.992593,572.606312 L640,516.740741 L667.496296,488.296296 L694.992593,459.851852 L674.133333,438.992593 L653.274074,417.185185 L603.97037,467.437037 L553.718519,516.740741 L601.125926,564.148148 C626.725926,589.748148 650.42963,611.555556 654.222222,611.555556 C656.118519,611.555556 669.708642,598.572475 694.992593,572.606312 Z" id="路径" fill-opacity="0.96" fill="#FFFFFF" transform="translate(624.3556, 514.3704) rotate(-180) translate(-624.3556, -514.3704)"></path>
            <path d="M293.925926,749.614289 C260.740741,711.688363 256.948148,669.969845 284.444444,642.473548 C313.837037,613.080956 360.296296,617.821696 393.481481,651.95503 L420.977778,680.399474 L442.785185,659.540215 L464.592593,638.680956 L434.251852,607.392067 C375.466667,546.710585 298.666667,542.917993 242.725926,599.806882 C185.837037,655.747622 188.681481,728.75503 249.362963,791.332807 L278.755556,822.621696 L300.562963,801.762437 L321.422222,781.851326 L293.925926,749.614289 Z" id="路径" fill="url(#linearGradient-2)" transform="translate(333.2382, 691.0146) scale(-1, 1) rotate(-180) translate(-333.2382, -691.0146)"></path>
            <path d="M651.449439,390.750101 C618.264254,352.824175 614.471661,311.105656 641.967958,283.60936 C671.36055,254.216768 717.81981,258.957508 751.004995,293.090842 L778.501291,321.535286 L800.308699,300.676027 L822.116106,279.816768 L791.775365,248.527879 C732.99018,187.846397 656.19018,184.053805 600.249439,240.942693 C543.36055,296.883434 546.204995,369.890842 606.886476,432.468619 L636.279069,463.757508 L658.086476,442.898249 L678.945736,422.987138 L651.449439,390.750101 Z" id="路径" fill="url(#linearGradient-2)" transform="translate(690.7618, 332.1504) scale(-1, 1) translate(-690.7618, -332.1504)"></path>
            <path d="M816.355556,730.649145 C848.592593,632.989885 754.725926,535.330626 657.066667,564.723219 C632.414815,572.308404 596.385185,600.752848 545.185185,651.952848 L470.281481,727.8047 L491.140741,748.663959 L512,769.523219 L585.955556,696.515811 C646.637037,635.83433 664.651852,623.508404 690.251852,623.508404 C758.518519,623.508404 782.222222,701.256552 730.074074,751.508404 L701.62963,779.0047 L722.488889,800.812108 L743.348148,822.619515 L774.637037,792.278774 C791.703704,776.160256 810.666667,747.715811 816.355556,730.649145 Z" id="路径" fill="url(#linearGradient-1)" transform="translate(646.5502, 691.0135) scale(-1, 1) rotate(-180) translate(-646.5502, -691.0135)"></path>
        </g>
    </g>
</svg>