<?xml version="1.0" encoding="UTF-8"?>
<svg width="1025px" height="1024px" viewBox="0 0 1025 1024" version="1.1" xmlns="http://www.w3.org/2000/svg" xmlns:xlink="http://www.w3.org/1999/xlink">
    <title>Sun.panel</title>
    <g id="ICON-新版方图标" stroke="none" stroke-width="1" fill="none" fill-rule="evenodd">
        <g id="Sun.panel" transform="translate(0.061, 0)">
            <rect id="蒙版路径" fill="#FFFFFF" x="0" y="0" width="1024" height="1024"></rect>
            <g id="Sunpanel" transform="translate(229, 230.4194)" fill="#4FB3BB" fill-rule="nonzero">
                <g id="编组" transform="translate(283, 281.4153) scale(-1, 1) rotate(-180) translate(-283, -281.4153)translate(0, 0)">
                    <path d="M12.2492537,434.493284 C-1.68955224,398.424627 -3.80149254,341.805224 7.60298507,304.478358 C22.8089552,255.408209 48.5746269,220.597761 90.3910448,193.336567 C136.008955,163.978358 155.016418,160.623134 275.397015,160.623134 L380.99403,160.623134 L393.243284,172.785821 C409.29403,189.142537 410.138806,213.46791 395.355224,230.663433 L385.21791,242.406716 L284.267164,244.503731 C170.222388,247.439552 157.550746,249.95597 127.983582,275.539552 C65.0477612,330.481343 78.9865672,429.879851 154.171642,465.109701 L175.291045,475.175373 L370.856716,475.175373 L525.25,476.5 C552.416667,479.666667 566,493.904229 566,519.212687 C566,544.521144 552.416667,559.033582 525.25,562.75 L366.632836,562.830597 C179.937313,562.830597 165.153731,562.411194 140.655224,554.442537 C85.3223881,537.247015 33.3686567,488.596269 12.2492537,434.493284 Z" id="svg_5"></path>
                    <path d="M172.756716,391.714179 C156.70597,375.357463 155.861194,351.03209 170.644776,333.836567 L180.78209,322.093284 L281.732836,319.996269 C395.777612,317.060448 408.449254,314.54403 438.016418,288.960448 C501.374627,233.599254 486.591045,132.523134 409.716418,98.1320896 C391.553731,89.7440299 382.683582,89.3246269 195.565672,89.3246269 C128.970451,89.293334 79.0240358,89.2698644 45.7264255,89.254218 C43.7316643,89.2532807 40.7395224,89.2518747 36.75,89.25 C12.25,82.5833333 -2.92505235e-13,67.9291045 -2.92505235e-13,45.2873134 C-2.92505235e-13,22.6455224 12.25,7.54975124 36.75,0 L198.1,1.25 C385.21791,1.25 397.467164,1.66940299 424.077612,9.6380597 C480.255224,27.2529851 532.208955,75.0649254 553.750746,130.006716 C567.689552,166.075373 569.801493,222.694776 558.397015,260.021642 C548.68209,291.057463 524.183582,331.739552 504.331343,349.773881 C483.634328,368.647015 451.110448,387.100746 422.810448,395.488806 C399.156716,403.03806 383.528358,403.876866 290.602985,403.876866 L185.00597,403.876866 L172.756716,391.714179 Z" id="svg_6"></path>
                </g>
            </g>
        </g>
    </g>
</svg>