<?xml version="1.0" encoding="UTF-8"?>
<svg width="1024px" height="1024px" viewBox="0 0 1024 1024" version="1.1" xmlns="http://www.w3.org/2000/svg" xmlns:xlink="http://www.w3.org/1999/xlink">
    <title>Symedia</title>
    <defs>
        <linearGradient x1="70.2256299%" y1="0%" x2="4.68328833%" y2="145.80841%" id="linearGradient-1">
            <stop stop-color="#001F62" offset="0%"></stop>
            <stop stop-color="#090C0B" offset="100%"></stop>
        </linearGradient>
        <linearGradient x1="-0.0477425123%" y1="50.015395%" x2="99.9527939%" y2="50.015395%" id="linearGradient-2">
            <stop stop-color="#065FFE" offset="0%"></stop>
            <stop stop-color="#02AFEF" offset="50%"></stop>
            <stop stop-color="#01EFC6" offset="100%"></stop>
        </linearGradient>
        <linearGradient x1="0.00494747219%" y1="49.9793692%" x2="99.9313622%" y2="49.9793692%" id="linearGradient-3">
            <stop stop-color="#065FFE" offset="0%"></stop>
            <stop stop-color="#02AFEF" offset="50%"></stop>
            <stop stop-color="#01EFC6" offset="100%"></stop>
        </linearGradient>
        <linearGradient x1="36.736701%" y1="30.1097844%" x2="61.5406832%" y2="67.3235717%" id="linearGradient-4">
            <stop stop-color="#065FFE" offset="0%"></stop>
            <stop stop-color="#02AFEF" offset="50%"></stop>
            <stop stop-color="#01EFC6" offset="100%"></stop>
        </linearGradient>
        <linearGradient x1="72.5984772%" y1="25.4185595%" x2="17.3365482%" y2="97.2590116%" id="linearGradient-5">
            <stop stop-color="#065FFE" offset="0%"></stop>
            <stop stop-color="#02AFEF" offset="50%"></stop>
            <stop stop-color="#01EFC6" offset="100%"></stop>
        </linearGradient>
        <linearGradient x1="100.059866%" y1="49.9140886%" x2="-0.0301565996%" y2="49.9140886%" id="linearGradient-6">
            <stop stop-color="#065FFE" offset="0%"></stop>
            <stop stop-color="#02AFEF" offset="50%"></stop>
            <stop stop-color="#01EFC6" offset="100%"></stop>
        </linearGradient>
        <linearGradient x1="100.012602%" y1="49.973979%" x2="0.0861872785%" y2="49.973979%" id="linearGradient-7">
            <stop stop-color="#065FFE" offset="0%"></stop>
            <stop stop-color="#02AFEF" offset="50%"></stop>
            <stop stop-color="#01EFC6" offset="100%"></stop>
        </linearGradient>
        <linearGradient x1="63.2755617%" y1="69.8735274%" x2="38.4714004%" y2="32.7057389%" id="linearGradient-8">
            <stop stop-color="#065FFE" offset="0%"></stop>
            <stop stop-color="#02AFEF" offset="50%"></stop>
            <stop stop-color="#01EFC6" offset="100%"></stop>
        </linearGradient>
        <linearGradient x1="27.2553299%" y1="74.5612904%" x2="82.5172589%" y2="2.80944842%" id="linearGradient-9">
            <stop stop-color="#065FFE" offset="0%"></stop>
            <stop stop-color="#02AFEF" offset="50%"></stop>
            <stop stop-color="#01EFC6" offset="100%"></stop>
        </linearGradient>
    </defs>
    <g id="ICON-新版方图标" stroke="none" stroke-width="1" fill="none" fill-rule="evenodd">
        <g id="Symedia" transform="translate(0.061, 0)">
            <polyline id="蒙版路径" fill="url(#linearGradient-1)" points="0 0 1023.93898 0 1023.93898 1024 0 1024"></polyline>
            <g id="编组" transform="translate(177, 171)" fill-rule="nonzero">
                <g id="路径">
                    <path d="M381.437193,342.099411 C368.133661,342.099411 354.414394,345.404813 342.358069,351.602442 C326.560125,359.865947 308.683505,364.410875 290.806884,364.410875 C229.278051,364.410875 179.805543,314.829844 179.805543,254.093081 C179.805543,193.356318 229.693786,143.775287 290.806884,143.775287 C309.514975,143.775287 327.807331,148.320215 344.02101,156.996896 L465,226.410339 L465,83.4516998 C465,19.4095349 395.15646,-20.668465 339.447921,11.1460298 L41.7814037,181.787411 C-13.9271346,214.015081 -13.9271346,294.171081 41.7814037,325.985576 L339.032186,496.626957 C394.740724,528.854627 464.584265,488.776627 464.584265,424.321287 L464.584265,421.015885 C462.921323,377.219308 425.920876,342.099411 381.437193,342.099411 Z" fill="#000000"></path>
                    <path d="M381.437193,342.099411 C368.133661,342.099411 354.414394,345.404813 342.358069,351.602442 C326.560125,359.865947 308.683505,364.410875 290.806884,364.410875 C229.278051,364.410875 179.805543,314.829844 179.805543,254.093081 C179.805543,193.356318 229.693786,143.775287 290.806884,143.775287 C309.514975,143.775287 327.807331,148.320215 344.02101,156.996896 L465,226.410339 L465,83.4516998 C465,19.4095349 395.15646,-20.668465 339.447921,11.1460298 L41.7814037,181.787411 C-13.9271346,214.015081 -13.9271346,294.171081 41.7814037,325.985576 L339.032186,496.626957 C394.740724,528.854627 464.584265,488.776627 464.584265,424.321287 L464.584265,421.015885 C462.921323,377.219308 425.920876,342.099411 381.437193,342.099411 Z" fill="#000000"></path>
                    <path d="M381.437193,342.099411 C368.133661,342.099411 354.414394,345.404813 342.358069,351.602442 C326.560125,359.865947 308.683505,364.410875 290.806884,364.410875 C229.278051,364.410875 179.805543,314.829844 179.805543,254.093081 C179.805543,193.356318 229.693786,143.775287 290.806884,143.775287 C309.514975,143.775287 327.807331,148.320215 344.02101,156.996896 L465,226.410339 L465,83.4516998 C465,19.4095349 395.15646,-20.668465 339.447921,11.1460298 L41.7814037,181.787411 C-13.9271346,214.015081 -13.9271346,294.171081 41.7814037,325.985576 L339.032186,496.626957 C394.740724,528.854627 464.584265,488.776627 464.584265,424.321287 L464.584265,421.015885 C462.921323,377.219308 425.920876,342.099411 381.437193,342.099411 Z" fill="url(#linearGradient-2)"></path>
                    <path d="M153.614215,117.745246 C153.614215,117.745246 114.535092,235.500195 204.749665,323.9197 C204.749665,323.9197 179.805543,292.105205 179.805543,254.093081 C179.805543,193.356318 229.693786,143.775287 290.806884,143.775287 C309.514975,143.775287 327.807331,148.320215 344.02101,156.996896 L465,226.410339 L465,83.4516998 C465,19.4095349 395.15646,-20.668465 339.447921,11.1460298 L153.614215,117.745246 C149.456862,135.098607 147.378185,153.278318 147.378185,171.871205 C147.378185,153.278318 149.456862,135.098607 153.614215,117.745246 Z" fill="url(#linearGradient-3)"></path>
                    <path d="M352.751453,459.028009 L60.0737595,291.69203 C25.1519893,271.446442 11.8484578,232.607968 20.9946357,198.727597 C-12.6799285,236.326545 -5.61242736,298.716009 42.197139,325.985576 L339.447921,496.626957 C392.662047,527.201926 458.76397,492.082029 464.584265,433.411143 C440.887349,467.704689 393.077783,482.578998 352.751453,459.028009 Z" fill="url(#linearGradient-4)"></path>
                    <path d="M219.300402,169.805329 C219.300402,169.805329 279.166294,109.894916 464.584265,116.918896 L465,226.823514 L344.02101,157.410071 C343.605275,157.410071 282.907912,119.397947 219.300402,169.805329 Z" fill="url(#linearGradient-5)"></path>
                </g>
                <g transform="translate(205, 174)" id="路径">
                    <path d="M83.9785427,165.698892 C97.2820742,165.698892 111.001341,162.39553 123.057667,156.201728 C138.85561,147.943325 156.732231,143.401203 174.608851,143.401203 C235.721949,143.401203 285.610192,192.951622 285.610192,253.650884 C285.610192,314.350146 235.721949,363.900564 174.608851,363.900564 C155.90076,363.900564 137.608404,359.358442 121.394725,350.687119 L0.41573536,281.316534 L0.41573536,424.599826 C0.41573536,488.602449 70.2592758,528.655704 125.967814,496.860852 L423.218596,326.32483 C478.927135,294.117058 478.927135,214.010549 423.218596,182.215698 L125.967814,11.6796756 C70.2592758,-20.5280962 0.41573536,19.5251584 0.41573536,83.9407019 L0.41573536,87.2440631 C2.0786768,130.600679 39.0791238,165.698892 83.9785427,165.698892 Z" fill="#000000"></path>
                    <path d="M83.9785427,165.698892 C97.2820742,165.698892 111.001341,162.39553 123.057667,156.201728 C138.85561,147.943325 156.732231,143.401203 174.608851,143.401203 C235.721949,143.401203 285.610192,192.951622 285.610192,253.650884 C285.610192,314.350146 235.721949,363.900564 174.608851,363.900564 C155.90076,363.900564 137.608404,359.358442 121.394725,350.687119 L0.41573536,281.316534 L0.41573536,424.599826 C0.41573536,488.602449 70.2592758,528.655704 125.967814,496.860852 L423.218596,326.32483 C478.927135,294.117058 478.927135,214.010549 423.218596,182.215698 L125.967814,11.6796756 C70.2592758,-20.5280962 0.41573536,19.5251584 0.41573536,83.9407019 L0.41573536,87.2440631 C2.0786768,130.600679 39.0791238,165.698892 83.9785427,165.698892 Z" fill="#000000"></path>
                    <path d="M83.9785427,165.698892 C97.2820742,165.698892 111.001341,162.39553 123.057667,156.201728 C138.85561,147.943325 156.732231,143.401203 174.608851,143.401203 C235.721949,143.401203 285.610192,192.951622 285.610192,253.650884 C285.610192,314.350146 235.721949,363.900564 174.608851,363.900564 C155.90076,363.900564 137.608404,359.358442 121.394725,350.687119 L0.41573536,281.316534 L0.41573536,424.599826 C0.41573536,488.602449 70.2592758,528.655704 125.967814,496.860852 L423.218596,326.32483 C478.927135,294.117058 478.927135,214.010549 423.218596,182.215698 L125.967814,11.6796756 C70.2592758,-20.5280962 0.41573536,19.5251584 0.41573536,83.9407019 L0.41573536,87.2440631 C2.0786768,130.600679 39.0791238,165.698892 83.9785427,165.698892 Z" fill="url(#linearGradient-6)"></path>
                    <path d="M317.621815,335.821994 C317.621815,354.4034 315.543138,372.571887 311.385785,389.914533 C311.385785,389.914533 350.464908,272.23229 260.250335,183.867378 C260.250335,183.867378 285.194457,215.66223 285.194457,253.650884 C285.194457,314.350146 235.306214,363.900564 174.193116,363.900564 C155.485025,363.900564 137.192669,359.358442 120.97899,350.687119 L0,281.316534 L0,424.599826 C0,488.602449 69.8435405,528.655704 125.552079,496.860852 L310.970049,390.327453 C315.543138,372.571887 317.621815,354.4034 317.621815,335.821994" fill="url(#linearGradient-7)"></path>
                    <path d="M112.248547,48.8424891 L404.926241,216.07515 C439.848011,236.308237 453.151542,275.122731 444.005364,308.982184 C477.679928,271.40645 470.612427,209.055507 422.802861,181.802777 L125.552079,11.2667554 C72.3379526,-19.2893357 6.2360304,15.8088771 0.41573536,74.4435384 C24.1126509,40.1711659 71.9222173,25.7189607 112.248547,48.8424891 Z" fill="url(#linearGradient-8)"></path>
                    <path d="M246.115333,337.886594 C246.115333,337.886594 186.249441,397.760016 0.83147072,390.740374 L0.41573536,280.903614 L121.394725,350.274199 C121.394725,350.274199 182.092088,388.262853 246.115333,337.886594 Z" fill="url(#linearGradient-9)"></path>
                </g>
            </g>
        </g>
    </g>
</svg>