<?xml version="1.0" encoding="UTF-8"?>
<svg width="1029px" height="1024px" viewBox="0 0 1029 1024" version="1.1" xmlns="http://www.w3.org/2000/svg" xmlns:xlink="http://www.w3.org/1999/xlink">
    <title>Telegram</title>
    <g id="ICON-新版方图标" stroke="none" stroke-width="1" fill="none" fill-rule="evenodd">
        <g id="Telegram" transform="translate(0.3975, 0)" fill-rule="nonzero">
            <path d="M514.386594,1024 C691.601747,1024 862.585116,1024 1027.3367,1024 L1027.66352,0 L0,0 L0,1024 C165.709243,1024 337.171441,1024 514.386594,1024 Z" id="蒙版路径" fill="#25A7E7"></path>
            <g id="编组-7" transform="translate(165.1804, 287.2833)">
                <path d="M155.99473,299.998489 L226.334168,494.478189 C226.334168,494.478189 235.128451,512.674572 244.54525,512.674572 C253.962049,512.674572 394.023349,367.123252 394.023349,367.123252 L549.776021,66.6139657 L158.504559,249.796807 L155.99473,299.998489 Z" id="路径" fill="#C8DAEA"></path>
                <path d="M249.769357,349.934124 L236.335394,493.168555 C236.335394,493.168555 230.712104,537.057092 274.4499,493.168555 C318.187696,449.280019 360.052701,415.436532 360.052701,415.436532" id="路径" fill="#A9C6D8"></path>
                <path d="M157.351928,307.677934 L12.8151018,260.591699 C12.8151018,260.591699 -4.45864303,253.584525 1.1035028,237.695018 C2.24850532,234.418424 4.55825177,231.630358 11.4677497,226.838833 C43.4932726,204.519503 604.233578,3.00403586 604.233578,3.00403586 C604.233578,3.00403586 620.066199,-2.33029869 629.403891,1.21769996 C634.10691,2.67331802 637.661705,6.54813474 638.707037,11.3583637 C639.715988,15.5314203 640.137913,19.8247821 639.960617,24.1143811 C639.916199,27.8252225 639.467082,31.2646593 639.126542,36.6582095 C635.711276,91.7533485 533.509931,502.94616 533.509931,502.94616 C533.509931,502.94616 527.395025,527.007414 505.486981,527.831497 C494.608897,528.182833 484.054747,524.100714 476.244999,516.521326 C433.253116,479.546147 284.659427,379.698853 251.824506,357.739751 C250.326052,356.718785 249.343243,355.09901 249.129802,353.298584 C248.670814,350.984243 251.187845,348.117223 251.187845,348.117223 C251.187845,348.117223 509.928801,118.163486 516.813623,94.0232781 C517.346641,92.1530535 515.333016,91.2302777 512.628441,92.0494263 C495.443533,98.3706867 197.535594,286.473831 164.656254,307.233817 C162.289507,307.949774 159.788003,308.10187 157.351928,307.677934 Z" id="路径" fill="#FFFFFF"></path>
            </g>
        </g>
    </g>
</svg>