<?xml version="1.0" encoding="UTF-8"?>
<svg width="1024px" height="1024px" viewBox="0 0 1024 1024" version="1.1" xmlns="http://www.w3.org/2000/svg" xmlns:xlink="http://www.w3.org/1999/xlink">
    <title>Verysync</title>
    <g id="ICON-新版方图标" stroke="none" stroke-width="1" fill="none" fill-rule="evenodd">
        <g id="Verysync">
            <rect id="蒙版路径" fill="#F3F3F3" x="0" y="0" width="1024" height="1024"></rect>
            <g id="编组-33" transform="translate(142, 142)">
                <circle id="椭圆形" fill="#8FC144" cx="370" cy="370" r="370"></circle>
                <path d="M328.793503,323.642691 C359.635628,324.634045 415.710177,327.990165 475.591647,367.424594 C492.735332,378.714421 536.090868,411.792839 564.87239,453.271462 C575.938289,469.219133 595.622744,504.694555 605.220418,555.429234 C607.380481,566.847641 617.238979,652.436195 605.220418,657.587007 C602.358855,659.303944 597.208043,657.587007 589.767981,652.436195 C492.91285,578.572884 445.12476,539.083325 446.403712,533.967517 C447.682664,528.85171 474.009037,512.540805 525.382831,485.034803 C485.459012,439.670198 450.834109,409.337639 421.508121,394.037123 C399.7943,382.708173 352.410371,370.205662 310.765661,371.716937 C268.044364,373.267281 231.172114,389.043959 218.909513,394.037123 C186.287703,410.348028 164.524624,429.108655 156.241299,436.960557 C144.600841,447.994741 130.923289,470.991654 117.610209,479.883991 C105.47087,487.992339 92.5241435,481.896898 87.5638051,477.308585 C84.2148338,474.210786 75.9709225,462.779351 85.8468677,442.969838 C88.2634716,438.12253 100.966103,419.632866 127.053364,396.612529 C130.015702,393.998456 169.16257,362.001281 216.334107,342.529002 C254.109574,326.935395 297.370251,322.632658 328.793503,323.642691 Z" id="矩形" fill="#FFFFFF" transform="translate(346.1123, 490.8671) scale(-1, -1) translate(-346.1123, -490.8671)"></path>
                <path d="M377.726218,79.837587 C408.568343,80.828941 464.642892,84.1850605 524.524362,123.61949 C541.668047,134.909316 585.023582,167.987734 613.805104,209.466357 C624.871003,225.414029 644.555458,260.88945 654.153132,311.62413 C656.313196,323.042536 666.171694,408.63109 654.153132,413.781903 C651.29157,415.49884 646.140758,413.781903 638.700696,408.63109 C541.845565,334.76778 494.057475,295.278221 495.336427,290.162413 C496.615379,285.046605 522.941752,268.7357 574.315545,241.229698 C534.391727,195.865094 499.766823,165.532534 470.440835,150.232019 C448.727014,138.903068 401.343085,126.400558 359.698376,127.911833 C316.977078,129.462177 280.104829,145.238855 267.842227,150.232019 C235.220418,166.542923 213.457339,185.303551 205.174014,193.155452 C193.533556,204.189637 179.856004,227.18655 166.542923,236.078886 C154.403584,244.187234 141.456858,238.091793 136.49652,233.50348 C133.147548,230.405682 124.903637,218.974247 134.779582,199.164733 C137.196186,194.317425 149.898817,175.827761 175.986079,152.807425 C178.948417,150.193351 218.095284,118.196177 265.266821,98.7238979 C303.042289,83.1302904 346.302966,78.8275539 377.726218,79.837587 Z" id="矩形" fill="#FFFFFF"></path>
            </g>
        </g>
    </g>
</svg>