<?xml version="1.0" encoding="UTF-8"?>
<svg width="1024px" height="1024px" viewBox="0 0 1024 1024" version="1.1" xmlns="http://www.w3.org/2000/svg" xmlns:xlink="http://www.w3.org/1999/xlink">
    <title>Watchtower</title>
    <g id="ICON-新版方图标" stroke="none" stroke-width="1" fill="none" fill-rule="evenodd">
        <g id="Watchtower">
            <rect id="蒙版路径" fill="#2F4955" x="0" y="0" width="1024" height="1024"></rect>
            <g id="编组-47" transform="translate(137, 137)">
                <circle id="椭圆形" fill="#3F616F" cx="375" cy="375" r="375"></circle>
                <path d="M338,429 L422,429 C492.666667,443.666667 595.513588,464.516627 730.540763,491.549881 C743.160946,454.00255 750,413.799948 750,372 C750,340.475912 746.110179,309.86034 738.784328,280.607075 C610.928109,314.202358 503.333333,342.666667 416,366 L343,366 C333.666667,363.333333 223.226961,334.256428 11.6808838,278.769283 C4.0546041,308.577232 0,339.815114 0,372 C0,414.753064 7.15449536,455.835106 20.3315324,494.114172 C229.443844,451.371391 335.333333,429.666667 338,429 Z" id="椭圆形" fill="#ACBFC6"></path>
                <g id="编组-44" transform="translate(116, 476)">
                    <path d="M87,232 L437,229 C389.64918,259 331.64918,274 263,274 C194.35082,274 135.684153,260 87,232 Z" id="矩形" fill="#FFFFFF"></path>
                    <polygon id="矩形" fill="#013244" points="91 160 435 160 442 229 81 232"></polygon>
                    <rect id="矩形" fill="#FFFFFF" x="105" y="7.18918919" width="316" height="29.7837838"></rect>
                    <polygon id="矩形" fill="#FFFFFF" points="101 92 425 92 435 160 91 160"></polygon>
                    <polygon id="矩形" fill="#003344" points="21 0 505 0 505 8.21621622 505 38 497 38 497 8.21621622 425 8.21621622 425 36.972973 421 36.972973 421 8.21621622 313 8.21621622 313 36.972973 309 36.972973 309 8.21621622 219 8.21621622 219 36.972973 215 36.972973 215 8.21621622 105 8.21621622 105 38 101 38 101 8.21621622 25 8.21621622 25 38 21 38 21 8.21621622"></polygon>
                    <polygon id="矩形" fill="#000000" opacity="0.605910528" points="-9.95184837e-14 37 525 37 425 92 101 92"></polygon>
                </g>
                <g id="编组-46" transform="translate(199, 221)">
                    <polygon id="三角形" fill="#013244" points="179.5 0 359 92 0 92"></polygon>
                    <polygon id="矩形" fill="#013246" points="146 131 215 131 224 243 137 243"></polygon>
                    <polygon id="矩形" fill="#FFFFFF" points="19 93 340 93 340 102 340 245 334 245 334 101 240 101 240 245 234 245 232 101 128 101 128 245 120 245 120 101 29 102 28 245 19 245 19 102"></polygon>
                    <rect id="矩形" fill="#FFFFFF" x="19" y="245" width="321" height="9"></rect>
                </g>
            </g>
        </g>
    </g>
</svg>