<?xml version="1.0" encoding="UTF-8"?>
<svg width="1025px" height="1024px" viewBox="0 0 1025 1024" version="1.1" xmlns="http://www.w3.org/2000/svg" xmlns:xlink="http://www.w3.org/1999/xlink">
    <title>Webpack</title>
    <g id="ICON-新版方图标" stroke="none" stroke-width="1" fill="none" fill-rule="evenodd">
        <g id="Webpack" transform="translate(0.2604, -0.0008)">
            <rect id="蒙版路径" fill="#8ED6FB" x="0" y="0" width="1024" height="1024"></rect>
            <g id="编组" transform="translate(141.7396, 93.0008)" fill-rule="nonzero">
                <polygon id="路径" fill="#FFFFFF" points="370 0 740 209.29434 740 628.022642 370 837.316981 0 628.022642 0 209.29434"></polygon>
                <path d="M673.958491,613.501887 L382.286792,778.675472 L382.286792,650.222642 L564.075472,550.113208 L673.958491,613.501887 Z M693.924528,595.490566 L693.924528,250.343396 L587.25283,311.916981 L587.25283,533.916981 L693.924528,595.490566 Z M64.9245283,613.501887 L356.596226,778.535849 L356.596226,650.083019 L174.807547,550.113208 L64.9245283,613.501887 Z M44.9584906,595.490566 L44.9584906,250.343396 L151.630189,311.916981 L151.630189,533.916981 L44.9584906,595.490566 Z M57.3849057,228.003774 L356.596226,58.7811321 L356.596226,183.045283 L164.89434,288.460377 L163.358491,289.298113 L57.3849057,228.003774 Z M681.358491,228.003774 L382.286792,58.7811321 L382.286792,183.045283 L573.849057,288.6 L575.384906,289.437736 L681.358491,228.003774 Z" id="形状" fill="#8ED6FB"></path>
                <path d="M356.596226,620.901887 L177.320755,522.188679 L177.320755,326.856604 L356.596226,430.316981 L356.596226,620.901887 Z M382.286792,620.901887 L561.562264,522.328302 L561.562264,326.856604 L382.286792,430.316981 L382.286792,620.901887 Z M189.328302,304.237736 L369.441509,205.245283 L549.415094,304.237736 L369.441509,408.116981 L189.328302,304.237736 Z" id="形状" fill="#1C78C0"></path>
            </g>
        </g>
    </g>
</svg>