<?xml version="1.0" encoding="UTF-8"?>
<svg width="1024px" height="1024px" viewBox="0 0 1024 1024" version="1.1" xmlns="http://www.w3.org/2000/svg" xmlns:xlink="http://www.w3.org/1999/xlink">
    <title>Wordpress</title>
    <g id="ICON-新版方图标" stroke="none" stroke-width="1" fill="none" fill-rule="evenodd">
        <g id="Wordpress">
            <rect id="蒙版路径" fill="#FFFFFF" x="0" y="0" width="1024" height="1024"></rect>
            <path d="M194.434286,498 C194.434286,452.172857 204.345,408.380714 222.105,368.737857 L373.646428,783.745714 C267.509286,732.130714 194.434286,623.535714 194.434286,497.973572 L194.434286,498 Z M726.309286,481.905 C726.309286,509.152857 715.156428,540.55 701.942143,584.738572 L670.545,690.452857 L555.739286,349.365714 C555.739286,349.365714 574.741428,348.123572 592.078572,346.062143 C609.019286,344.000714 606.931429,318.814286 590.017143,320.056428 C538.402143,323.782857 505.366428,324.179286 505.366428,324.179286 C505.366428,324.179286 474.392143,323.756428 421.957857,320.056428 C404.620714,318.814286 402.559286,344.846428 419.896428,346.062143 C435.991428,347.727143 452.932143,349.365714 452.932143,349.365714 L502.485714,484.812143 L433.110714,692.937143 L317.485714,349.365714 C317.485714,349.365714 336.487857,348.123572 353.825,346.062143 C370.765714,344.000714 368.677857,318.814286 351.763572,320.056428 C300.571429,323.782857 267.112857,324.179286 267.112857,324.179286 C261.325,324.179286 254.321429,323.756428 246.868572,323.756428 C305.335107,234.251346 405.064815,180.345008 511.973572,180.460529 C594.562857,180.460529 669.725714,212.254286 726.282857,263.869286 L722.16,263.869286 C691.185714,263.869286 668.88,290.720714 668.88,320.03 C668.88,346.035714 684.155714,367.945 700.277143,394.347143 C712.672143,415.410714 726.282857,442.658571 726.282857,481.905 L726.309286,481.905 Z M517.365,525.670714 L615.23,792.837143 C615.668597,794.453242 616.364655,795.98814 617.291428,797.382857 C584.255714,808.958572 549.158571,815.565714 512,815.565714 C481.025714,815.565714 450.897143,811.02 422.380714,802.351428 L517.365,525.670714 Z M790.319286,345.612857 C816.007845,392.298836 829.497777,444.713219 829.539286,498 C829.539286,615.29 765.952143,717.277857 671.390714,772.196428 L768.436428,492.212143 C784.531428,445.962143 792.803571,410.442143 792.803572,378.252143 C792.803572,366.676428 791.984286,355.946428 790.319286,345.639286 L790.319286,345.612857 Z M512,128 C716.002143,128 882,293.997857 882,498 C882,702.002143 716.002143,868 512,868 C307.997857,868 142,702.002143 142,498 C142,293.997857 307.997857,128 512,128 Z M512,851.059286 C706.487857,851.059286 865.059286,692.487857 865.059286,498 C865.059286,303.512143 706.487857,144.940714 512,144.940714 C317.512143,144.940714 158.940714,303.512143 158.940714,498 C158.940714,692.487857 317.512143,851.059286 512,851.059286 Z" id="形状" fill="#21759B" fill-rule="nonzero"></path>
        </g>
    </g>
</svg>