<?xml version="1.0" encoding="UTF-8"?>
<svg width="1024px" height="1024px" viewBox="0 0 1024 1024" version="1.1" xmlns="http://www.w3.org/2000/svg" xmlns:xlink="http://www.w3.org/1999/xlink">
    <title>Zimuku</title>
    <g id="ICON-新版方图标" stroke="none" stroke-width="1" fill="none" fill-rule="evenodd">
        <g id="Zimuku">
            <rect id="蒙版路径" fill="#1B6D9D" x="0" y="0" width="1024" height="1024"></rect>
            <g id="编组" transform="translate(162, 138)" fill="#FFFFFF" fill-rule="nonzero">
                <path d="M344.190805,1.80299025 C343.604833,2.97493406 343.334385,15.866313 343.334385,40.5222016 L343.334385,79.2414137 L128.508117,79.2414137 L128.508117,70.4518373 L130.266033,63.420176 L119.718541,61.6622602 C111.514936,61.6622602 99.7504259,61.0762883 84.5151593,59.9043453 L59.85927,59.9043453 L56.3434401,79.2864882 C54.0862131,91.7572385 51.1520158,104.095914 47.553863,116.247785 C45.0585615,127.128704 41.5110093,137.741169 36.9612964,147.935335 C32.2284473,158.482827 30.2000837,164.072096 30.7860556,164.658068 C31.3720275,165.24404 36.6457732,163.486124 46.6523678,159.384322 C56.613888,155.28252 66.2598849,150.865194 75.6805085,146.17742 C85.0560567,141.489646 93.8907083,134.457985 102.094313,125.037362 L114.39972,112.731955 L616.216932,112.731955 L630.32533,126.795277 C639.700878,136.215899 649.076426,143.247561 658.49705,147.935335 C669.044542,152.62311 678.465165,156.724912 686.668769,160.240743 C694.872374,163.756574 699.289699,165.244041 699.875672,164.658068 C700.461644,164.072096 698.974177,159.699846 695.458346,151.451166 C690.729659,141.944396 687.187275,131.892504 684.910854,121.521531 C681.43101,109.931277 678.497915,98.183852 676.121278,86.3181496 C673.777391,72.2548268 671.974401,64.592119 670.847531,63.420176 C670.847531,59.9043453 661.426909,58.7324015 642.675811,59.9043453 C632.139344,60.8910731 621.569217,61.4774669 610.988261,61.6622602 C608.814952,62.7923115 606.406015,63.3945457 603.9566,63.420176 C601.567638,63.420176 600.440769,65.8091381 600.440769,70.4518373 L602.198684,77.4834987 L500.014222,79.2414137 C433.123291,79.2414137 399.63275,78.6554418 399.63275,77.4834987 C399.63275,76.3115549 401.390665,73.6972193 404.906496,69.5503422 C408.422326,65.4485396 411.352185,59.2732988 413.696072,51.0696937 C416.294949,40.7146543 417.477667,30.0550231 417.211903,19.3821429 L417.211903,0 L382.053597,0 C357.397707,0.0450745317 344.776777,0.631046438 344.190805,1.80299025 L344.190805,1.80299025 Z M109.125974,213.068352 L109.125974,244.755902 L267.608802,246.513818 L426.091629,246.513818 L382.053597,283.475115 C355.05382,304.615173 334.499734,321.067457 320.436411,332.786892 L302.812183,346.89529 L302.812183,397.964984 L0,397.964984 L0,429.697609 L302.812183,429.697609 L302.812183,540.626574 C302.812183,615.766185 301.640239,656.829284 299.296352,663.860945 C298.124408,669.765738 295.149475,677.383371 290.506775,686.758919 C284.78939,694.990926 278.299239,702.65836 271.124632,709.656893 C262.752961,717.967956 253.272676,725.081962 242.952912,730.796952 C232.40542,735.484726 227.086599,739.586528 227.0866,743.147433 C227.0866,746.663264 228.258544,748.42118 230.602431,748.42118 C232.946317,748.42118 240.563951,747.249236 253.500404,744.905349 C265.219839,742.561462 277.525247,739.000556 290.461701,734.357857 C304.525023,730.842026 316.289534,726.154252 325.665082,720.294534 C336.212574,715.60676 345.047225,709.747042 352.078886,702.670306 C359.110548,696.765514 364.970265,690.364899 369.703114,683.288163 C373.218945,677.428446 376.148804,670.982756 378.492691,663.90602 C380.836578,656.874358 382.008522,615.766185 382.008522,540.671648 L382.008522,429.652535 L668.999467,429.652535 L668.999467,397.964984 L382.053597,397.964984 L382.053597,346.89529 L397.919909,334.589883 C408.467401,326.386278 429.60746,309.348021 461.29501,283.520189 C482.121211,265.55555 503.249256,247.943836 524.670111,230.69258 C537.56149,220.145088 544.052254,214.28537 544.052255,213.068352 C544.052255,211.896408 471.842502,211.310437 327.468072,211.310437 C183.093642,211.310437 110.297918,211.896409 109.125974,213.068352 L109.125974,213.068352 Z" id="形状"></path>
            </g>
        </g>
    </g>
</svg>