<?xml version="1.0" encoding="UTF-8"?>
<svg width="1024px" height="1024px" viewBox="0 0 1024 1024" version="1.1" xmlns="http://www.w3.org/2000/svg" xmlns:xlink="http://www.w3.org/1999/xlink">
    <title>Zte.wifi</title>
    <g id="ICON-新版方图标" stroke="none" stroke-width="1" fill="none" fill-rule="evenodd">
        <g id="Zte.wifi" transform="translate(0, -0.0008)">
            <rect id="蒙版路径" fill="#3DA3F7" x="0" y="0" width="1024" height="1024"></rect>
            <g id="编组" transform="translate(142, 333.0008)" fill="#FFFFFF" fill-rule="nonzero">
                <path d="M21.2809051,357.219237 C13.5386292,356.214773 6.46790509,351.312692 2.86224319,344.451629 C-0.612068426,337.843995 -0.945069532,329.804583 1.98164024,323.224696 C2.50149182,322.053746 27.2527254,282.907395 56.9878754,236.232188 L135.42629,113.088224 C148.835135,92.0370255 160.220073,73.7920364 160.726975,72.5452431 C162.601031,67.9317377 162.18293,62.2323756 159.646571,57.8001546 C158.288666,55.4268076 155.006756,52.2173324 152.768248,51.0759798 C148.751884,49.0263551 151.116192,49.1021988 90.4507881,49.0947994 C27.6467766,49.0947994 31.3782392,49.2446366 25.4878193,46.342235 C15.1758848,41.2588697 9.70541631,28.7816875 12.9503272,17.7436819 C14.7633334,11.5689101 19.9137508,5.34974234 25.4748694,2.61567607 C31.256139,-0.225680845 22.4186591,-0.0184985331 133.237732,0.092491966 L232.921618,0.192383275 L235.433926,1.05255982 C242.926451,3.61459056 249.055522,9.81526018 251.39763,17.2035281 C252.085832,19.3752421 252.254183,20.8292178 252.254183,24.5492495 C252.254183,29.6178157 251.49198,32.818042 249.447723,36.3419905 C248.892721,37.2983585 213.293052,93.2357229 170.339607,160.643955 C127.386162,228.052188 91.903043,283.969204 91.4904916,284.899674 C90.5173885,287.097286 90.1825373,291.934622 90.8170894,294.65574 C92.0214434,299.833447 95.5734555,304.219422 100.442672,306.544673 L103.387882,307.950552 L167.379597,308.152185 C238.884188,308.374166 232.842068,308.122588 238.913788,311.13968 C242.754401,313.045017 247.057515,317.294103 249.083272,321.175071 C255.068042,332.64224 251.678831,346.216378 241.054245,353.32162 C237.779734,355.511833 234.557023,356.697582 230.407459,357.234036 C226.833247,357.696496 24.8588174,357.681697 21.2827552,357.215537 L21.2809051,357.219237 Z M549.872084,357.058301 C546.708574,356.48115 542.157558,354.468522 539.60455,352.518789 C536.981241,350.51541 534.034181,346.913768 532.572676,343.924424 C529.842067,338.336052 530.060368,353.43816 530.167668,177.832685 L530.267569,19.1384625 L531.322072,16.2471597 C532.637426,12.6455179 535.310685,8.68685665 538.148595,6.14147452 C540.757104,3.80327469 546.379273,0.984115805 549.576084,0.410664777 C551.148589,0.129488682 578.068029,0 635.255422,0 C717.031247,0 718.699953,0.0184985332 721.630362,0.763984381 C726.153628,1.92013535 728.943437,3.57574392 732.7082,7.33092271 C735.242708,9.85965624 736.345312,11.311782 737.422015,13.531592 C740.267325,19.4066894 740.726127,26.2252058 738.68557,32.3037861 C737.386866,36.1699553 736.151061,38.2380783 733.342752,41.2385216 C730.417892,44.3647541 727.111931,46.5253693 723.213968,47.8535555 L720.120758,48.9079652 L662.700264,49.1058986 C608.310081,49.2927325 605.16692,49.3408284 603.152264,50.0123208 C594.616335,52.8647769 587.880462,59.9459708 585.960156,68.0908241 C585.096203,71.7535105 585.090653,131.203724 585.952756,134.862711 C588.024763,143.64946 595.175037,150.819446 604.160517,153.11695 C607.046527,153.855036 608.637532,153.880934 653.383633,153.886484 C705.048757,153.886484 702.482798,153.764394 708.312168,156.639048 C714.195187,159.53775 718.968203,165.290758 720.94031,171.857696 C722.059564,175.581428 721.893063,182.21126 720.581409,186.164372 C718.196751,193.354707 712.10283,199.462884 704.845256,201.932423 L702.332948,202.7889 L653.999685,202.981283 L605.666422,203.175517 L602.332711,204.368664 C595.802189,206.706864 590.870072,210.96705 588.050663,216.707109 C585.260854,222.393522 585.366304,220.869253 585.366304,255.583382 C585.366304,285.140154 585.403304,286.908603 586.113706,289.681515 C588.365164,298.484912 594.904936,304.998205 604.119817,307.615731 C606.262124,308.224329 610.554139,308.266875 660.572757,308.176233 C699.223087,308.105939 715.689993,308.203981 718.148651,308.516604 C728.937887,309.892886 737.296215,317.525333 739.423722,327.945492 C740.191475,331.70067 740.191475,334.086966 739.427422,337.78665 C737.601466,346.628893 731.529746,353.44186 722.856917,356.383108 L719.732256,357.441218 L636.213725,357.505962 C568.109446,357.561458 552.171642,357.476365 549.870235,357.056451 L549.872084,357.058301 Z M386.235334,356.982457 C384.117076,356.627288 380.108113,355.154813 377.727155,353.856225 C374.411944,352.04708 369.022876,346.66404 367.19137,343.330625 C366.300717,341.649666 365.536404,339.904764 364.904762,338.110372 L364.001959,335.404053 L363.800308,202.594666 C363.617157,81.7001097 363.545007,69.6095443 362.975205,67.7911498 C360.218696,58.9970021 354.866628,53.3087389 346.5971,50.3878388 L343.50759,49.2964323 L317.215301,49.0855502 C293.16152,48.8950165 290.741712,48.8173232 288.795506,48.1735782 C280.072726,45.2859753 273.679105,38.426762 271.769898,29.9119406 C271.172346,27.2444687 271.279647,21.0585982 271.971549,18.3652285 C273.958456,10.621791 279.747125,4.31568035 287.635552,1.30228827 L290.534512,0.192383275 L389.713345,0.0813927761 C459.684281,0.00554941998 489.635882,0.0998913092 491.408188,0.392166244 C494.793699,0.956368006 500.325217,3.69413377 503.087277,6.17107189 C505.988086,8.77194928 508.822296,13.0709817 509.9915,16.6430258 C510.805503,19.1273633 510.935003,20.2428177 510.927893,24.7453326 C510.922053,29.2108504 510.790703,30.3263052 510.02295,32.4776712 C507.436641,39.7253512 501.481471,45.5505028 494.114747,48.0366898 C491.654238,48.8691186 491.056686,48.889467 465.3083,49.1058986 C436.044901,49.3519276 437.665507,49.2039403 432.082188,52.1211406 C426.543269,55.0179928 422.032954,60.5194222 419.824047,67.0808104 C419.391145,68.360901 419.269045,91.4950214 419.104394,201.434816 C418.915694,327.49598 418.871293,334.360742 418.216391,336.563904 C415.210131,346.654791 407.826756,354.067107 398.373225,356.486699 C395.553815,357.206288 389.147244,357.467115 386.235334,356.980607 L386.235334,356.982457 Z" id="形状"></path>
            </g>
        </g>
    </g>
</svg>