<svg xmlns="http://www.w3.org/2000/svg" width="1024" height="1024"><g fill="none" fill-rule="evenodd"><path fill="#224888" fill-rule="nonzero" d="M0 0h1024v1024H0z"/><path fill="#FFF" d="M735.997 180.146c-.788 0-1.53.128-2.25.32-.526.193-1.05.407-1.596.6-15.51 5.773-37.99 12.017-62.893 12.017H430.876c-15.246 0-28.66 7.27-36.633 18.326L279.705 434.85s59.29 6.756 60.906 6.992c52.801 7.956 115.453 23.051 158.927 48.756 62.479 36.95 101.516 90.644 97.562 148.296-7.666 111.732-114.819 162.005-199.08 174.085-59.156 8.041-98.435 0-98.435 0s48.28 28.593 117.857 30.686c118.798 3.593 211.183-46.017 260.05-117.737 77.162-113.164 34.037-293.282-168.231-346.911C470.463 368.73 416.589 359 416.589 359l28.817-55.512c6.4-15.696 22.477-26.815 41.33-26.815.876 0 1.749.043 2.622.085H671.181c16.734 0 31.283-8.789 38.818-21.747l.808-1.54 31.81-60.794a7.322 7.322 0 0 0 1.33-2.545 6.95 6.95 0 0 0 .35-2.138c0-4.32-3.715-7.848-8.3-7.848"/></g></svg>