<?xml version="1.0" encoding="UTF-8"?>
<svg width="1025px" height="1024px" viewBox="0 0 1025 1024" version="1.1" xmlns="http://www.w3.org/2000/svg" xmlns:xlink="http://www.w3.org/1999/xlink">
    <title>123.drive</title>
    <g id="ICON-新版方图标" stroke="none" stroke-width="1" fill="none" fill-rule="evenodd">
        <g id="123.drive" transform="translate(0.3975, 0)" fill-rule="nonzero">
            <polygon id="路径" fill="#597DFB" points="1024 1024 2.14989303e-13 1024 2.14989303e-13 0.0780604179 1024 0"></polygon>
            <g id="编组" transform="translate(141.6025, 303)" fill="#FFFFFF">
                <path d="M471.898396,343.019889 L471.898396,415.882908 C473.045664,416.40485 473.671447,416.822403 474.192932,416.822403 C529.470409,416.40485 584.852183,419.849663 639.921065,414.212696 C670.167232,411.081047 696.34581,398.136901 716.579453,374.753926 C748.494373,337.904863 751.101801,255.646898 693.216897,212.743315 C690.296577,210.551161 686.646178,209.089725 684.768829,205.018582 C702.603638,193.64026 717.935315,180.487336 727.634948,161.801834 C764.660428,90.8178038 714.180619,3.34042496 634.080426,1.0438828 C582.349052,-0.41755312 530.617678,0.313164837 478.886303,0 C476.696064,0 474.505824,0.313164837 472.211287,0.521941393 L472.211287,74.4288438 C507.985201,74.4288438 542.924738,74.3244555 577.864275,74.4288438 C585.895154,74.4288438 594.134627,74.4288438 602.061209,75.5771149 C628.239787,79.4394812 641.276928,96.9767123 640.338254,126.101042 C639.503877,151.884948 626.466736,165.037871 599.975266,167.856355 C573.796688,170.674838 547.618109,168.691461 521.43953,169.422179 C517.997725,169.526567 514.347326,168.273908 511.114115,170.883615 L511.114115,242.18081 C515.286,244.164187 519.249291,243.224693 523.003987,243.329081 C548.869675,244.164187 574.735362,241.763257 600.496752,244.999294 C617.497183,247.087059 631.472998,253.872297 637.105043,270.887587 C643.467168,290.303807 643.884356,309.824416 630.221433,327.15287 C625.736656,332.894225 619.687423,336.652204 612.699515,338.739969 C603.938557,341.349676 595.073301,342.811112 585.999451,342.811112 C551.685697,342.9155 517.47624,342.9155 483.162485,343.019889 L471.898396,343.019889 Z" id="路径"></path>
                <path d="M138.611103,0.521926466 L138.611103,74.3223299 L259.735015,74.3223299 C270.793701,74.3223299 281.74806,74.9486417 292.493764,77.558274 C318.26259,83.6126211 330.573202,99.4791859 330.051566,126.306207 C329.634257,148.64466 314.506809,165.346307 290.615874,169.93926 C272.984573,173.279589 255.144616,171.296269 237.408988,171.818195 C188.792499,173.279589 154.781823,198.540831 139.758702,244.783516 C134.333686,261.485163 131.829833,278.813122 131.725506,296.349852 C131.621178,333.615402 131.621178,370.776567 131.725506,408.042117 C131.725506,410.86052 130.890888,413.887694 133.186087,416.497326 L416.538838,416.497326 L416.538838,342.801308 L220.194995,342.801308 C221.238267,322.13302 218.734414,302.404199 222.385867,282.884149 C225.515684,265.764961 235.531098,255.326431 252.119127,250.733478 C259.317706,248.750157 266.620612,247.601919 274.132172,247.601919 C291.972128,247.497534 309.812084,248.228231 327.443386,246.975607 C366.670423,244.157205 397.238301,227.559943 413.826331,189.772466 C429.892724,153.341998 432.918213,115.972063 421.546545,78.0802005 C409.027278,36.2216973 381.380563,10.3341442 337.563127,3.23594414 C327.026077,1.56577942 316.384699,0.626311763 305.743322,0.521926466 C252.327781,0.104385288 199.016568,0.104385288 145.601027,0 C143.514482,0 141.323611,0.313155881 138.611103,0.521926466 Z" id="路径"></path>
                <polygon id="路径" points="88.0481283 416.497326 88.0481283 0.989304813 0 0.989304813 0 416.497326 88.0481283 416.497326"></polygon>
            </g>
        </g>
    </g>
</svg>