<svg xmlns="http://www.w3.org/2000/svg" width="1024" height="1024"><defs><linearGradient id="a" x1="0%" x2="103.686%" y1="50%" y2="50%"><stop offset="0%" stop-color="#22C8FC"/><stop offset="34.512%" stop-color="#269CFB"/><stop offset="100%" stop-color="#2B73FA"/></linearGradient></defs><g fill="none" fill-rule="evenodd"><path fill="#FFF" d="M0 0h1024v1024H0z"/><path fill="#CDDEFC" fill-opacity=".465" fill-rule="nonzero" d="M642.439 356.836c-11.414 0-25.681 2.854-37.095 5.707-31.387-37.095-79.895-59.922-128.404-59.922-65.628 0-122.697 37.095-151.23 94.163h-8.561C131 507 132 506 192 565c0-48.508 73.787-91.174 122.295-96.88 8.56 0 19.974 0 28.535 2.853h2.853l19.974 5.707c5.707-57.069 54.215-102.723 114.137-102.723 39.948 0 77.042 22.827 97.016 57.068 2.854 5.707 2.854 8.56 5.707 14.267l5.707-5.707c14.267-11.413 34.364-15.18 51.484-12.327 28.534 2.853 48.385 23.741 48.385 52.275 0 8.56-2.853 17.12-5.706 25.68 8.56 5.708 14.267 11.415 25.68 14.268 5.707-5.707 11.414-8.56 14.268-14.267 47.11-10.81 97.998 12.12 152.665 68.786-50.415-82-95.597-126.806-135.545-134.415-5.707-48.508-48.508-82.749-97.016-82.749"/><path fill="url(#a)" fill-rule="nonzero" d="M664.09 309.333c-12.913 0-29.053 3.228-41.965 6.456C586.616 273.824 531.739 248 476.863 248c-74.245 0-138.806 41.965-171.087 106.525h-9.684c-100.07 0-180.77 77.474-183.998 177.543-3.228 100.07 77.473 180.77 177.542 183.998h235.647c19.369 0 35.509-16.14 35.509-35.508 0-19.368-16.14-35.509-35.509-35.509H302.548c-58.105 0-106.525-45.192-106.525-103.297 0-54.877 41.964-100.07 96.841-106.525 9.684 0 22.596 0 32.28 3.228h3.229l22.596 6.456c6.456-64.561 61.333-116.21 129.122-116.21 45.192 0 87.157 25.824 109.753 64.561 3.228 6.456 3.228 9.684 6.456 16.14l6.456-6.456C618.896 390.034 641.632 385.772 661 389c32.28 3.228 54.738 26.858 54.738 59.139 0 9.684-3.228 19.368-6.456 29.052 9.684 6.456 16.14 12.912 29.052 16.14 6.456-6.456 12.912-9.684 16.14-16.14 51.65 3.228 90.386 48.42 87.158 100.07-3.228 48.42-45.193 87.157-96.842 87.157-38.736 0-77.473-25.825-90.385-64.561h38.737c6.456 0 9.684-3.228 9.684-9.684 0-3.228 0-3.228-3.228-6.456l-77.473-103.298c-3.228-3.228-9.685-6.456-16.14-3.228l-3.229 3.228-77.473 103.298c-3.228 3.228-3.228 12.912 3.228 16.14 3.228 0 3.228 3.228 6.456 3.228h45.193c16.14 90.385 103.297 151.718 193.683 135.578 90.385-16.14 151.718-103.298 135.578-193.683-12.913-77.473-67.79-129.122-135.578-142.034-6.456-54.877-54.877-93.613-109.754-93.613"/><path fill="#FF5877" fill-rule="nonzero" d="M654.405 599.857h38.737c6.456 0 9.684-3.228 9.684-9.684 0-3.228 0-3.228-3.228-6.456l-77.473-103.298c-3.228-3.228-9.685-6.456-16.14-3.228l-3.229 3.228-77.473 103.298c-3.228 3.228-3.228 12.912 3.228 16.14 3.228 0 3.228 3.228 6.456 3.228h45.193c8.123 54.275 54.201 115.03 117.613 131.313 53.97 14.492 100.9 6.932 140.794-22.68-43.589 17.538-89.13 3.043-136.625-43.485-29.825-30.223-44.108-58.088-47.537-68.376"/></g></svg>