<?xml version="1.0" encoding="UTF-8"?>
<svg width="1025px" height="1024px" viewBox="0 0 1025 1024" version="1.1" xmlns="http://www.w3.org/2000/svg" xmlns:xlink="http://www.w3.org/1999/xlink">
    <title>Acfun</title>
    <g id="ICON-新版方图标" stroke="none" stroke-width="1" fill="none" fill-rule="evenodd">
        <g id="Acfun" transform="translate(0.6332, 0)">
            <rect id="蒙版路径" fill="#FFFFFF" x="0" y="0" width="1024" height="1024"></rect>
            <path d="M114.464084,617.205687 C130.703543,597.808556 146.491905,577.960329 163.182459,558.563198 C169.497804,551.345661 169.497804,546.383604 162.731363,539.617163 C117.170661,494.507557 106.344355,439.473836 119.426141,378.575867 C118.975045,348.352431 137.92108,328.053108 156.867114,308.204881 C166.791228,297.829671 177.166438,288.80775 189.346031,281.139117 C198.819049,275.725964 208.743162,271.666099 218.667276,266.252947 C224.080429,263.54637 229.493581,261.29089 235.35783,260.388698 C266.032363,253.622257 296.706895,252.720065 327.832524,259.486506 C335.501157,260.388698 342.718694,263.095274 350.387327,265.80185 C357.153768,268.057331 363.469113,273.92158 371.588843,270.763907 C373.393227,269.861715 375.197611,268.959523 376.550899,268.057331 C392.790358,256.779929 411.285297,250.91568 428.878043,243.247047 C433.8401,241.442663 439.253253,239.638279 444.215309,238.28499 C449.628462,236.931702 455.492711,235.127318 460.905864,233.77403 C483.009571,233.77403 504.662183,224.752108 526.76589,229.263069 C563.304671,234.225126 598.941261,242.795951 632.32237,259.035409 C651.268405,276.17706 670.665535,264.448562 690.062666,259.035409 C730.661312,252.268968 770.808862,250.013488 809.603124,268.508427 C825.391487,277.079252 841.179849,285.198981 854.261635,297.378575 C857.870403,300.987344 861.930268,305.047208 865.539037,308.655977 C875.012054,318.58009 881.327399,330.759684 889.447128,341.58599 C895.762473,350.607911 899.371242,361.434217 902.98001,371.809426 C907.039875,390.304365 913.806316,407.897112 911.550835,427.294243 C907.490971,443.082605 908.844259,459.77316 902.528914,475.110426 C896.213569,490.447692 890.34932,505.784958 880.425207,518.866744 C875.914246,531.046338 858.3215,536.008395 861.930268,552.698949 C870.952189,563.976351 881.327399,572.998272 891.251512,582.922386 C896.664665,587.884443 899.822338,594.199788 902.077818,600.966229 C916.061796,623.521032 897.566857,629.836377 884.033975,639.309394 C876.365342,647.429124 873.20767,655.548853 875.46315,667.277351 C879.071919,689.381058 872.305478,699.305171 849.750674,703.816132 C836.217792,706.522708 823.136006,714.191342 808.249836,708.778189 C783.890648,716.897918 752.76502,709.680381 737.878849,739.452721 C738.781042,741.257106 738.329946,742.610394 736.074465,743.06149 C716.226238,760.203141 696.829107,776.893695 673.372112,789.524385 C662.545806,795.388634 652.621693,796.741922 642.246483,788.622193 C636.382234,777.795887 628.713601,771.931638 615.631815,778.246983 C609.767566,780.95356 603.001125,781.404656 596.234684,779.600271 C586.761667,779.149175 577.739745,780.051367 569.16892,783.660136 C561.049191,789.975481 552.478366,791.328769 542.103156,789.073289 C520.450545,783.660136 498.797934,791.328769 477.145322,790.426577 C462.710248,786.817808 447.372982,787.268905 434.291196,778.698079 C424.818179,773.736023 413.991873,771.480542 403.165567,770.127254 C395.496934,766.518485 390.985974,768.32287 388.730493,777.344791 C387.377205,782.757944 389.181589,789.524385 382.415148,792.682057 C374.295419,800.350691 365.724594,794.486442 357.604865,794.035346 C331.441293,796.741922 320.614987,775.089311 304.826625,760.654237 C294.902511,749.376835 285.429494,738.550529 275.50538,727.273128 C268.738939,719.153398 260.168114,715.995726 249.792904,717.349014 C233.553446,725.017647 218.667276,720.05559 204.232202,711.935861 C191.601512,709.229285 179.421918,706.522708 166.791228,704.267228 C152.80725,701.560652 146.040809,692.087634 152.356154,679.90804 C163.182459,658.255429 150.100673,652.842276 133.861215,648.331316 C118.072853,644.722547 106.795451,637.053914 114.464084,617.205687 L114.464084,617.205687 Z" id="路径" fill="#FBF7F5" fill-rule="nonzero"></path>
            <path d="M389.181589,287.905558 C472.634362,239.187182 555.184942,244.149239 638.186619,289.709942 C644.501963,293.318711 649.915116,299.182959 658.485942,297.378575 C667.056767,294.671999 668.861151,302.791728 673.823208,306.851593 C701.791164,333.466261 730.661312,359.629833 746.900771,395.717518 C755.471596,411.50588 761.335845,428.196435 769.004478,444.435893 C778.477496,469.697273 784.341744,495.860845 783.890648,523.377705 C783.890648,531.497434 783.890648,540.06826 791.559282,545.481412 C802.385587,554.503334 802.836683,563.976351 791.559282,572.998272 C783.439552,577.058137 783.890648,584.72677 782.53736,591.944307 C778.928592,613.145822 775.319823,633.896242 770.357766,654.646661 C769.90667,659.608717 769.455574,665.02187 769.455574,669.983927 C769.455574,683.065713 762.689133,687.576674 750.058443,685.321193 C731.563505,726.822032 699.98678,755.241084 659.388134,775.540407 C655.779365,761.556429 663.899094,749.376835 659.83923,737.648337 C561.951383,779.149175 464.514633,777.344791 366.17569,735.392857 C362.566921,748.925739 371.137747,762.007525 366.17569,776.442599 C322.870467,760.203141 294.000319,729.528608 271.896612,690.734346 C258.814826,687.576674 252.950577,678.554752 252.950577,665.472966 C252.950577,655.999949 253.852769,646.075835 245.281944,639.309394 C240.770983,633.445146 239.417695,626.227608 238.966599,619.010071 C239.868791,595.553076 234.004542,573.449369 225.433717,552.247853 C226.335909,549.992373 227.689197,548.187989 229.493581,546.834701 C237.613311,543.225932 238.966599,536.910587 236.711118,528.790858 C234.004542,517.964552 234.455638,507.138247 234.004542,495.860845 C231.749062,463.833024 249.341808,437.669452 258.36373,408.799304 C277.309764,380.831348 295.353607,352.412295 320.614987,329.406396 C328.734716,321.737763 336.854445,313.618034 349.034039,313.166938 C355.80048,313.618034 359.860345,317.226802 359.860345,324.444339 C355.349384,339.781606 339.561022,345.645854 330.990197,357.825448 C249.792904,445.789181 231.749062,558.112102 281.369629,666.826255 C294.000319,693.892019 312.495258,715.995726 338.207734,736.295049 C340.463214,723.664359 337.305541,713.740246 335.952253,704.267228 C327.832524,648.331316 325.577044,592.395403 319.712795,536.459491 C317.457315,515.709072 323.321563,510.747015 342.718694,517.513456 C352.191712,520.671129 355.349384,514.355784 359.409249,510.295919 C381.964052,485.936731 401.361183,459.322063 416.698449,429.549723 C420.307218,422.332186 422.111602,411.054784 431.58462,411.50588 C441.959829,411.956976 443.764213,423.234378 446.921886,431.354107 C458.650384,462.02864 474.438746,489.5455 499.24903,511.649207 C510.526431,521.573321 522.706025,530.144146 539.847676,534.204011 C543.005348,518.415648 536.238907,504.43167 536.238907,489.996596 C536.238907,477.817002 530.374658,462.02864 544.358636,455.262199 C556.087134,449.849046 563.304671,463.833024 571.875497,471.050561 C596.68578,491.80098 624.20264,508.942631 653.974981,521.573321 C664.35019,526.084281 670.665535,526.084281 672.921016,513.002495 C674.274304,504.43167 676.98088,493.154269 688.709378,494.507557 C702.24226,495.860845 700.437876,508.491535 700.437876,517.513456 C702.693356,583.824578 693.220339,649.233508 685.551706,714.642438 C685.10061,719.153398 682.845129,723.213263 685.10061,727.724224 C760.884749,689.832154 798.776819,462.02864 677.431976,351.059007 C656.681557,332.112972 635.931138,312.715841 609.767566,300.536248 C545.260829,269.861715 480.754091,267.606235 414.894065,297.378575 C406.32324,301.43844 397.301318,310.009265 386.023917,301.889536 C385.121725,296.927479 386.475013,292.416518 389.181589,287.905558 L389.181589,287.905558 Z" id="路径" fill="#2C0A06" fill-rule="nonzero"></path>
            <path d="M389.181589,287.905558 C389.181589,292.867615 389.632685,297.829671 389.632685,302.791728 C384.670629,318.128994 373.844323,325.346531 358.055961,324.444339 C357.604865,318.128994 353.545,316.32461 348.131847,315.873514 C313.848546,291.514326 276.407572,297.829671 239.417695,305.9494 C215.058507,310.009265 199.721241,328.053108 182.128494,342.939278 C169.9489,352.863391 162.731363,365.945177 159.122595,381.282444 C156.867114,391.657653 154.160538,402.032863 152.80725,412.408072 C150.55177,462.930832 168.595612,503.529478 211.900835,531.94853 C218.667276,536.459491 226.787005,539.617163 228.140293,549.090181 C243.477559,570.291696 246.635232,594.199788 245.281944,619.010071 C230.395773,612.694726 237.162214,596.906364 229.944677,586.080058 C220.922756,608.634862 212.803027,631.189665 203.781105,653.744469 C199.270145,665.02187 202.878913,669.532831 214.607411,672.690503 C243.026463,679.456944 247.537424,676.299272 247.086328,646.978028 C247.086328,643.369259 247.537424,639.76049 250.244,636.602818 C261.070306,640.662683 260.61921,650.586796 259.265922,659.157621 C257.461538,672.690503 261.972498,683.516809 272.798804,691.636538 C268.287843,697.951883 264.679075,703.365036 253.852769,701.109556 C229.493581,696.147499 205.134394,692.989826 180.32411,689.832154 C169.046708,688.478866 167.69342,683.065713 172.655477,674.945984 C186.639455,652.39118 177.166438,643.369259 154.611634,637.50501 C128.448062,630.738569 128.448062,628.934185 145.138617,608.183766 C159.122595,590.591019 172.655477,572.547176 187.541647,555.405526 C193.856992,547.736893 193.405896,543.677028 185.737263,537.361683 C129.350254,494.056461 113.110796,412.859168 152.356154,349.254623 C191.601512,286.101174 272.347708,260.388698 344.071982,289.709942 C361.213633,296.476383 374.746515,297.829671 389.181589,287.905558 Z" id="路径" fill="#2A0C0D" fill-rule="nonzero"></path>
            <path d="M668.861151,311.813649 C663.447998,308.204881 665.703479,299.634056 658.485942,297.378575 C726.150352,258.133217 815.016277,277.079252 861.028076,340.232702 C905.686587,402.032863 895.311377,482.779059 833.962312,535.557299 C823.587102,544.57922 824.038198,549.992373 833.511216,558.112102 C853.359443,575.253753 872.756574,592.846499 894.860281,612.24363 C880.876303,619.010071 875.012054,622.167744 869.147805,624.87432 C840.728753,638.858298 840.277657,638.858298 851.555058,667.277351 C855.163827,676.299272 852.908347,679.005848 844.337521,681.261329 C819.527238,687.125578 794.265858,692.087634 770.357766,699.756267 C755.0205,704.718324 757.27598,689.381058 750.058443,685.772289 C769.90667,681.712425 761.786941,665.472966 764.042421,653.744469 C769.90667,653.744469 771.711055,658.255429 772.613247,662.315294 C774.868727,673.141599 781.635168,674.043792 791.108185,672.239407 C823.587102,666.826255 825.391487,663.668582 810.505316,634.347338 C803.287779,620.36336 796.070242,606.379381 789.303801,592.395403 C785.695033,585.177866 780.28188,577.960329 784.79284,569.389504 C798.325723,563.976351 800.130107,557.661006 785.695033,550.894565 C785.243937,540.06826 795.619146,539.166067 801.934491,535.557299 C825.391487,521.573321 843.886425,503.078382 854.712731,477.365906 C861.028076,464.735216 865.990133,452.104526 865.539037,437.669452 C869.598901,390.755461 849.750674,354.667776 815.467373,324.895435 C805.54326,312.715841 791.559282,307.302689 776.673111,303.69392 C739.683234,291.514326 703.595548,296.025287 668.861151,311.813649 L668.861151,311.813649 Z" id="路径" fill="#280E0E" fill-rule="nonzero"></path>
            <path d="M684.198417,347.450239 C746.449675,409.2504 768.102286,485.936731 762.238037,571.193888 C758.629269,623.972128 747.802963,675.39708 711.715278,717.349014 C703.144452,727.273128 695.024723,738.099433 686.904994,748.925739 L678.334169,743.06149 C681.942937,711.033669 686.002802,679.005848 689.61157,646.526931 C694.573627,602.319517 696.829107,558.112102 696.378011,513.904688 C696.378011,507.138247 699.535684,496.311941 687.807186,496.763037 C678.334169,497.214133 680.138553,507.138247 680.589649,513.002495 C682.845129,534.655107 675.176496,536.459491 656.681557,528.339762 C615.180719,511.198111 579.093034,486.387827 545.260829,453.457815 C538.043292,485.936731 548.869597,514.355784 552.478366,543.225932 C508.270951,537.812779 482.558475,509.393727 432.937908,411.50588 C413.089681,458.419871 383.768436,496.311941 348.131847,529.69305 C339.109926,527.43757 344.523079,510.295919 332.794581,514.355784 C321.968275,517.964552 327.381428,528.339762 327.832524,536.008395 C332.794581,606.379381 338.65883,676.750368 349.485135,747.121355 C229.042485,710.131477 218.21618,461.126448 330.5391,351.510103 C374.295419,346.548047 418.502834,353.314488 461.808056,342.939278 C464.514633,342.037086 461.35696,342.037086 464.063536,342.939278 C526.76589,356.47216 588.566051,336.172837 651.268405,341.134894 C662.545806,341.58599 673.823208,342.939278 684.198417,347.450239 L684.198417,347.450239 Z" id="路径" fill="#FCB746" fill-rule="nonzero"></path>
            <path d="M665.252383,704.267228 C664.801287,722.311071 648.561828,724.115455 637.284426,729.077512 C575.484265,755.69218 511.428624,757.94766 446.47079,745.31697 C416.698449,739.452721 386.926109,731.784088 362.566921,711.033669 C355.80048,692.989826 362.566921,684.419001 381.512956,684.419001 C386.023917,684.419001 390.534877,683.967905 394.594742,682.163521 C399.105703,680.359137 402.714471,677.65256 402.714471,672.690503 C402.714471,667.728447 399.105703,664.570774 395.045838,662.76639 C390.083781,660.51091 384.219533,659.157621 379.708572,660.962006 C358.055961,669.983927 355.349384,656.902141 353.996096,640.662683 C351.28952,615.401303 349.034039,590.139923 346.327463,564.427447 C345.425271,557.20991 347.680751,551.796757 353.093904,546.834701 C383.31734,519.31784 409.029816,488.643308 432.035716,450.751238 C441.508733,471.050561 451.432847,488.192212 463.61244,503.529478 C488.422724,534.204011 519.097257,555.856622 557.891519,565.329639 C571.424401,568.487312 578.190842,568.036216 572.326593,550.894565 C566.011248,532.399626 560.598095,513.904688 561.049191,490.447692 C596.234684,517.06236 631.871274,538.263875 672.018824,550.894565 C678.785265,553.150045 679.687457,557.661006 679.236361,563.074159 C677.883072,596.906364 676.98088,630.287473 669.763343,663.217486 C659.388134,666.375158 649.915116,657.804333 639.088811,660.51091 C630.969081,662.315294 621.044968,663.668582 621.496064,674.043792 C621.94716,683.516809 631.871274,682.614617 639.088811,683.967905 C648.561828,685.772289 660.741422,681.261329 666.605671,693.440923 C667.958959,697.049691 667.056767,701.109556 665.252383,704.267228 Z" id="路径" fill="#FEFEFE" fill-rule="nonzero"></path>
            <path d="M684.198417,347.450239 C635.480042,350.156815 585.859475,341.58599 537.592195,356.47216 C529.472466,358.72764 519.999449,356.021064 510.977527,355.118872 C487.069436,351.961199 463.61244,350.607911 438.802157,353.765584 C403.616663,357.825448 366.626786,363.689697 330.990197,352.412295 C337.756638,341.134894 349.034039,333.917357 358.055961,325.346531 C368.43117,318.128994 379.257476,310.911457 389.632685,303.69392 C435.644484,280.236925 483.911763,263.997466 536.238907,272.117195 C585.859475,279.785829 631.871274,295.574191 667.056767,334.368453 C672.018824,338.879413 681.040745,339.330509 684.198417,347.450239 Z" id="路径" fill="#FCBF57" fill-rule="nonzero"></path>
            <path d="M178.06863,339.781606 C195.21028,323.542147 210.998643,305.047208 236.711118,302.340632 C259.717018,301.889536 266.032363,318.58009 268.287843,336.172837 C271.896612,360.080929 270.99442,383.98902 263.776882,407.446016 C265.581267,420.076706 258.814826,430.451915 253.401673,441.278221 C245.281944,458.419871 240.319887,476.463714 240.319887,495.409749 C239.868791,497.214133 238.966599,498.567421 236.711118,499.018517 C224.531525,511.649207 212.351931,507.589343 200.623433,499.018517 C187.992743,489.996596 194.308088,479.17029 198.819049,468.795081 C200.623433,464.735216 201.976721,460.224256 203.781105,456.164391 C210.547547,442.180413 207.389874,434.51178 191.150416,430.000819 C175.362053,425.940954 160.024787,418.723417 146.943001,408.348208 C149.198481,398.424094 148.296289,387.597789 153.709442,378.124771 C158.671499,374.064907 164.084652,375.418195 169.497804,377.222579 C180.32411,380.380252 190.248223,385.793404 200.623433,390.304365 C214.607411,396.61971 221.373852,392.108749 223.629332,377.222579 C225.433717,365.042985 226.787005,352.412295 215.509603,344.292566 C202.878913,335.270645 195.661376,351.059007 185.286167,352.863391 C178.519726,351.961199 173.106573,348.803527 178.06863,339.781606 Z" id="路径" fill="#F65060" fill-rule="nonzero"></path>
            <path d="M871.403285,437.218356 C873.20767,452.555622 869.147805,465.637408 860.125884,477.817002 C819.978334,485.936731 788.401609,470.599465 762.238037,441.278221 C755.922692,426.843147 749.156251,412.408072 742.840906,397.972998 C736.525561,366.396274 742.840906,338.428317 763.140229,313.166938 C768.553382,306.851593 773.966535,300.987344 782.53736,299.182959 C796.972434,302.340632 810.956412,306.400497 819.527238,319.933379 C820.42943,328.053108 813.211893,331.21078 808.700932,335.721741 C787.499417,357.825448 782.988456,376.320387 793.363666,400.679575 C804.189971,425.038762 825.391487,432.256299 849.750674,433.609588 C856.968211,434.51178 864.636844,431.354107 871.403285,437.218356 L871.403285,437.218356 Z" id="路径" fill="#F74F61" fill-rule="nonzero"></path>
            <path d="M147.845193,408.799304 C171.302189,410.603688 188.894935,427.745339 211.900835,431.354107 C217.313988,432.256299 215.960699,438.571644 214.607411,442.631509 C211.449739,451.65343 206.938778,460.675352 204.683298,470.148369 C202.878913,478.268098 189.346031,486.838924 202.427817,494.958653 C213.254123,501.725094 225.884813,507.589343 237.162214,494.958653 C240.770983,508.040439 237.613311,521.573321 240.319887,535.106203 C241.673175,542.32374 238.064407,548.187989 230.395773,549.992373 L229.493581,549.090181 L228.140293,549.541277 C172.204381,518.866744 142.43204,473.757138 147.845193,408.799304 Z" id="路径" fill="#FAFAF7" fill-rule="nonzero"></path>
            <path d="M263.776882,406.99492 C257.461538,402.483959 260.168114,397.521902 261.521402,391.206557 C266.483459,372.260522 265.130171,352.412295 262.423594,333.466261 C260.168114,318.128994 250.695097,308.204881 236.711118,301.889536 C273.700996,284.296789 309.788681,290.612134 346.327463,303.242824 C354.447192,305.9494 350.387327,310.911457 348.131847,315.422418 C321.517179,332.564068 302.120048,356.47216 284.076206,381.73354 C277.760861,390.755461 275.054284,402.483959 263.776882,406.99492 Z" id="路径" fill="#FCFBF8" fill-rule="nonzero"></path>
            <path d="M782.086264,299.634056 C751.862828,325.797627 744.64529,360.983121 742.38981,398.424094 C723.894871,364.591889 700.437876,334.368453 668.861151,311.813649 C667.056767,304.596112 672.46992,303.69392 677.431976,301.889536 C712.166374,287.905558 746.900771,287.003366 782.086264,299.634056 Z" id="路径" fill="#FAFAF6" fill-rule="nonzero"></path>
            <path d="M761.786941,441.729317 C763.140229,441.278221 765.39571,439.924933 765.846806,440.376029 C791.559282,466.990697 824.038198,476.91481 860.125884,478.719194 C846.141906,513.904688 818.625046,534.655107 786.597225,550.894565 C776.673111,549.090181 779.379688,541.421548 779.379688,535.106203 C778.026399,502.627286 772.162151,471.952753 761.786941,441.729317 L761.786941,441.729317 Z" id="路径" fill="#FBF9F9" fill-rule="nonzero"></path>
            <path d="M785.243937,568.938408 C798.776819,596.455268 811.858605,624.423224 825.391487,651.488988 C830.804639,662.76639 830.804639,669.532831 816.820661,671.337215 C811.407508,672.239407 806.445452,673.592696 801.483395,674.945984 C771.711055,682.163521 771.711055,682.163521 764.042421,653.293372 C769.455574,628.934185 775.770919,604.574997 777.124207,579.313617 C777.575303,573.900465 777.575303,568.487312 785.243937,568.938408 L785.243937,568.938408 Z" id="路径" fill="#59C3E4" fill-rule="nonzero"></path>
            <path d="M249.792904,636.151722 C260.61921,684.870097 261.070306,683.967905 210.998643,678.103656 C192.503704,675.848176 190.248223,670.435023 197.014664,654.646661 C208.743162,626.678705 219.118372,598.259652 232.651254,570.291696 C238.966599,586.531154 238.064407,603.672805 245.281944,619.010071 C245.281944,624.87432 245.281944,631.189665 249.792904,636.151722 L249.792904,636.151722 Z" id="路径" fill="#57C2E5" fill-rule="nonzero"></path>
            <path d="M353.996096,641.113779 C360.762537,645.624739 356.251576,654.195565 360.762537,659.608717 C368.882266,656.451045 376.550899,652.842276 386.023917,654.195565 C398.203511,655.999949 411.736393,656.902141 412.187489,672.690503 C412.187489,688.478866 399.556799,691.185442 386.475013,690.28325 C370.68665,688.929962 359.860345,691.636538 363.018017,711.033669 C354.898288,688.478866 354.898288,664.570774 353.996096,641.113779 Z" id="路径" fill="#F7C0CB" fill-rule="nonzero"></path>
            <path d="M665.252383,704.267228 C665.252383,690.734346 656.681557,689.381058 645.404156,689.832154 C633.675658,690.28325 621.044968,692.53873 612.925239,679.90804 C609.767566,674.494888 610.669758,669.983927 614.729623,665.472966 C625.555929,653.293372 639.539907,651.940084 653.974981,654.646661 C659.388134,655.548853 664.35019,660.059814 669.312247,663.217486 C669.763343,677.201464 670.665535,691.185442 665.252383,704.267228 L665.252383,704.267228 Z" id="路径" fill="#F5C5CC" fill-rule="nonzero"></path>
            <path d="M229.944677,549.992373 C238.966599,532.399626 233.10235,513.453592 236.711118,494.958653 C237.613311,495.409749 238.966599,495.409749 239.868791,494.958653 C241.222079,507.589343 239.868791,520.220033 243.928655,532.850722 C247.98852,543.677028 244.379752,552.247853 229.944677,549.992373 Z" id="路径" fill="#2A0C0D" fill-rule="nonzero"></path>
            <path d="M156.416018,619.912263 C170.851093,600.515133 185.286167,581.569098 199.270145,562.623063 C202.427817,558.563198 207.389874,557.20991 211.449739,559.916487 C216.862891,563.074159 212.351931,567.58512 210.998643,571.644984 C206.938778,582.922386 203.330009,593.748692 199.270145,605.026093 C188.443839,634.798434 188.443839,634.798434 156.416018,619.912263 Z" id="路径" fill="#58BCD8" fill-rule="nonzero"></path>
            <path d="M178.06863,339.781606 C178.06863,345.645854 181.226302,349.254623 186.188359,351.961199 C189.346031,366.84737 176.264245,373.162715 169.9489,383.086828 C164.986844,381.73354 159.573691,379.929156 154.611634,378.575867 C157.318211,362.787505 164.535748,349.705719 178.06863,339.781606 Z" id="路径" fill="#E45362" fill-rule="nonzero"></path>
            <path d="M871.403285,437.218356 C842.984233,443.082605 816.820661,439.924933 796.521338,416.016841 C770.808862,385.793404 779.830784,349.254623 819.527238,319.933379 C857.419307,350.156815 875.46315,388.951077 871.403285,437.218356 Z" id="路径" fill="#FCFBFB" fill-rule="nonzero"></path>
            <path d="M808.249836,555.405526 C810.956412,558.112102 814.565181,560.818679 817.722853,563.976351 C827.646967,573.900465 838.022176,583.824578 847.495194,594.199788 C852.006155,599.161844 862.83246,603.672805 857.419307,611.341438 C853.359443,617.205687 843.886425,619.912263 835.766696,622.167744 C826.293679,624.87432 825.842583,615.401303 823.136006,609.98815 C815.918469,596.004172 809.152028,582.020194 802.385587,568.036216 C799.227915,562.623063 797.874626,556.758814 808.249836,555.405526 L808.249836,555.405526 Z" id="路径" fill="#5ABCDA" fill-rule="nonzero"></path>
            <path d="M421.660506,608.183766 C419.405026,624.87432 419.405026,644.722547 399.105703,644.722547 C380.159668,644.722547 377.904188,625.325416 377.904188,610.890342 C377.904188,595.553076 379.708572,575.253753 400.007895,575.253753 C418.502834,574.802657 418.95393,594.199788 421.660506,608.183766 Z" id="路径" fill="#2E120D" fill-rule="nonzero"></path>
            <path d="M647.20854,609.98815 C646.757444,614.048015 646.757444,619.461167 644.95306,624.423224 C641.795387,634.798434 637.735522,645.173643 624.653737,644.722547 C612.023047,644.271451 607.512086,633.896242 605.256606,623.521032 C603.903317,618.558975 602.550029,613.145822 603.452221,608.183766 C605.256606,593.297596 606.609894,574.351561 625.555929,574.802657 C644.050867,575.253753 645.404156,593.748692 647.20854,609.98815 L647.20854,609.98815 Z" id="路径" fill="#2C110C" fill-rule="nonzero"></path>
            <path d="M169.9489,383.086828 C168.144516,369.10285 181.677398,362.787505 186.188359,351.961199 C194.759184,342.037086 203.781105,332.112972 218.21618,337.977221 C233.10235,343.84147 231.749062,358.276544 230.84687,370.907234 C229.042485,403.386151 224.982621,406.092727 194.759184,393.913134 C186.188359,390.755461 178.06863,386.695597 169.9489,383.086828 Z" id="路径" fill="#FCF7F3" fill-rule="nonzero"></path>
        </g>
    </g>
</svg>