<svg xmlns="http://www.w3.org/2000/svg" width="1025" height="1024"><g fill="none" fill-rule="evenodd"><path fill="#FFF" d="M.398 0h1024v1024H.398z"/><g fill="#00539B" fill-rule="nonzero"><path d="M137.564 468.289 48.398 611.622h60.91l85.856-136.955-57.6-6.378m367.111-3.189V412H331.286c-23.666 1.5-33.933 13.133-41.644 21.389-8.256 8.822-12.844 27.389-12.844 27.389v-48.4H184.52c-6.978 0-13.578 3-18.534 10.133-5.133 6.933-26.233 42.589-26.233 42.589h364.922Zm471.5 0V412H790.698c-23.49 1.5-33.945 13.133-41.656 21.389-8.256 8.822-12.833 27.389-12.833 27.389v4.322h239.966m-410.589-52.911h-51.922V465.1h51.922v-52.911m170.067 0H683.92V465.1h51.733v-52.911m0 72.033-51-3.178v61.345s-.189 17.644-16.889 17.644h-87.322s-14.856-1.322-14.856-17.444v-69.811l-51.377-3.756v94c8.255 45.022 48.066 48.59 48.066 48.59s4.045.188 4.778.377h118.333s50.634-4.133 50.634-54.033l-.367-73.734"/><path d="M223.975 611.622H466.51c42.2-8.633 46.6-48.033 46.6-48.033 2.022-11.622.922-21.2.922-21.2-1.29-7.878-15.967-42.778-47.522-45.778-18.89-1.867-187.134-15.567-187.134-15.567 3.3 17.256 10.822 26.078 15.967 30.956 11.744 11.444 30.267 14.822 30.267 14.822l129.71 11.067c4.034.189 11.556 1.311 11.378 11.444 0 1.311-1.11 10.134-10.644 10.134H274.62v-78.8l-50.445-3.756c-.189 0-.189 134.711-.189 134.711h-.01M736.02 612h185.666c46.6-2.811 53.2-48.033 53.2-48.033 1.656-11.823.378-21.578.378-21.578-1.289-10.689-16.155-42.956-47.889-46.145-18.71-1.888-188.055-12.022-188.055-12.022 4.955 17.822 11.744 23.267 16.889 28.145 11.733 11.633 29.166 14.255 29.166 14.255l131 11.256c4.023.189 12.29.555 12.29 10.7 0 3-1.479 6.189-3.312 7.878 0 0-4.4 2.444-8.622 2.444H736.575l-.555 53.1"/></g></g></svg>