<svg xmlns="http://www.w3.org/2000/svg" width="1025" height="1024"><g fill="none" fill-rule="evenodd"><path fill="#FFF" d="M.633 0h1024v1024H.633z"/><path fill="#185DDC" fill-rule="nonzero" d="M513.183 799.642c36.298-19.338 69.296-40.562 98.05-63.2 72.124-56.598 107.95-111.781 107.95-166.02v-294.78h-206v524"/><path fill="#185DDC" fill-rule="nonzero" d="M.633 0v1024h1024V0M762.461 609.135c-9.264 23.159-20.633 43.792-34.107 61.477-13.475 18.106-29.897 35.37-48.424 52.213-18.949 16.843-36.213 31.16-52.214 42.53-16 11.368-32.844 21.895-49.687 32-17.264 10.107-29.475 16.844-36.633 20.213-7.159 3.368-13.054 6.316-17.265 8.421-3.368 1.684-6.737 2.527-10.526 2.527-3.79 0-7.58-.843-10.527-2.527-5.895-2.526-11.79-5.474-17.265-8.421-7.158-3.369-19.37-10.527-36.633-20.212-16.843-9.685-33.686-20.633-49.687-32.002-16.001-11.369-33.265-25.265-51.793-42.529a369.04 369.04 0 0 1-48.424-52.213c-13.474-18.106-24.843-38.318-34.107-61.477-9.263-23.16-13.895-46.74-13.895-69.9V223.429c0-7.158 2.526-13.474 8-18.527 5.053-5.053 11.37-8 18.528-8h473.71c7.16 0 13.475 2.526 18.528 8 5.053 5.053 8 11.37 8 18.527v315.808"/></g></svg>