<?xml version="1.0" encoding="UTF-8"?>
<svg width="1024px" height="1024px" viewBox="0 0 1024 1024" version="1.1" xmlns="http://www.w3.org/2000/svg" xmlns:xlink="http://www.w3.org/1999/xlink">
    <title>Bt.digg</title>
    <g id="ICON-新版方图标" stroke="none" stroke-width="1" fill="none" fill-rule="evenodd">
        <g id="Bt.digg">
            <rect id="蒙版路径" fill="#FFFFFF" x="0" y="0" width="1024" height="1024"></rect>
            <g id="编组" transform="translate(142.471, 142)">
                <path d="M566.909366,66.9233984 C571.472853,66.9340455 575.025872,68.2833361 577.738373,70.141947 C582.16883,73.1777046 584.380731,77.5186411 585.166184,79.455859 C588.499789,87.6777577 592.016827,106.85106 595.806618,136.943515 L595.809,136.97 L537.39538,136.606117 C541.48647,106.894701 545.196843,87.8972209 548.610923,79.6437633 L548.714289,79.3969472 C549.442495,77.6798173 551.696715,73.1945878 556.250298,70.0857621 C558.939271,68.2499451 562.441921,66.9130201 566.909366,66.9233984 Z" id="矩形" stroke="#047BBD" stroke-width="5" fill="#FFFFFF" transform="translate(566.5884, 101.9559) rotate(36) translate(-566.5884, -101.9559)"></path>
                <g id="编组-19" transform="translate(0.0128, 0)" fill="#FFFFFF" stroke="#047BBD" stroke-width="5">
                    <path d="M371.023594,2.5 C375.574729,2.5 379.115197,3.84151946 381.816146,5.69511605 C386.229266,8.72373451 388.425424,13.0643404 389.204536,15.0017112 C392.515528,23.2349599 395.98563,42.4461822 399.699288,72.6069775 L341.391133,72.3780942 C345.586324,42.306444 349.368736,23.1854769 352.824384,15.0459127 C353.555981,13.3226812 355.8186,8.8205678 360.375698,5.69314045 C363.064239,3.84805959 366.56376,2.5 371.023594,2.5 Z" id="矩形"></path>
                    <path d="M471.958515,18.6124279 C476.513846,18.618999 480.059383,19.9659141 482.765425,21.8233461 C487.186908,24.8582589 489.391498,29.201833 490.174109,31.1403035 C493.498165,39.3737554 496.997209,58.5783835 500.755488,88.7257272 L442.417634,88.4129013 C446.571785,58.3593855 450.328459,39.2517306 453.774133,31.1207471 C454.503237,29.4002331 456.759331,24.9057211 461.311812,21.7878652 C463.998574,19.9477841 467.497356,18.6060097 471.958515,18.6124279 Z" id="矩形" transform="translate(471.5694, 53.6767) rotate(18) translate(-471.5694, -53.6767)"></path>
                    <path d="M266.074577,19.6182024 C270.627086,19.6116531 274.166839,20.9468271 276.86601,22.7954069 C281.274564,25.8146912 283.464387,30.1478522 284.240681,32.0821895 C287.541505,40.3070518 290.985596,59.5054477 294.657845,89.6489039 L236.320861,89.504161 C240.560705,59.4451508 244.372051,40.3302394 247.84069,32.1901953 C248.575425,30.4659532 250.846726,25.9608261 255.412403,22.8269379 C258.106032,20.9780259 261.610617,19.6246421 266.074577,19.6182024 Z" id="矩形" transform="translate(265.4632, 54.6371) rotate(-18) translate(-265.4632, -54.6371)"></path>
                    <path d="M176.1078,66.935539 C180.666736,66.9249491 184.210403,68.2552475 186.911789,70.0995403 C191.321311,73.1100122 193.509319,77.4340977 194.284549,79.3646291 C196.757626,85.5232511 199.305806,97.8466208 201.965122,116.322651 L202.178105,117.813859 C202.995455,123.580469 203.823346,129.925672 204.662819,136.84912 L146.249476,136.756588 C150.520526,106.736158 154.352947,87.6443525 157.83263,79.5121118 C158.569949,77.7889507 160.848775,73.286544 165.423724,70.1517791 C168.123805,68.301678 171.635838,66.9459734 176.1078,66.935539 Z" id="矩形" transform="translate(175.4271, 101.8946) rotate(-36) translate(-175.4271, -101.8946)"></path>
                    <path d="M104.117934,137.364486 C108.685889,137.353891 112.236599,138.682634 114.943345,140.524994 C119.359005,143.530533 121.55041,147.847385 122.326739,149.774795 C125.62886,157.973051 129.064566,177.112678 132.719666,207.164806 L74.2115804,207.07261 C78.4884771,177.101961 82.3260695,158.041485 85.8106307,149.922349 C86.5489919,148.201945 88.831311,143.706948 93.4126867,140.577233 C96.1181141,138.729051 99.6371331,137.374925 104.117934,137.364486 Z" id="矩形" transform="translate(103.4365, 172.2669) rotate(-54) translate(-103.4365, -172.2669)"></path>
                    <path d="M58.0944106,223.816134 C62.6701522,223.809267 66.2279627,225.140141 68.9408185,226.983513 C73.364938,229.989681 75.5631883,234.303904 76.3421708,236.230077 C79.6545499,244.420524 83.1096157,263.537583 86.793302,293.552216 L28.2115175,293.412312 C32.4685128,263.481814 36.2945209,244.447689 39.7763126,236.341296 C40.5138736,234.624088 42.7945609,230.137858 47.3771479,227.016637 C50.0847596,225.172471 53.6075372,223.822888 58.0944106,223.816134 Z" id="矩形" transform="translate(57.4758, 258.6876) rotate(-71) translate(-57.4758, -258.6876)"></path>
                    <path d="M40.0393013,317.241353 C44.6191231,317.239798 48.1815741,318.574911 50.8989629,320.421225 C55.3303502,323.432107 57.5356975,327.74819 58.3176011,329.675018 C61.6409265,337.864615 65.1198163,356.973923 68.840068,386.973839 L10.2269099,386.765893 C14.4511062,356.853921 18.256655,337.832992 21.7307382,329.734561 C22.4663558,328.019763 24.742022,323.540258 29.3213515,320.427192 C32.0279317,318.587236 35.5506471,317.242878 40.0393013,317.241353 Z" id="矩形" transform="translate(39.5105, 352.1126) rotate(-86) translate(-39.5105, -352.1126)"></path>
                    <path d="M53.9385477,428.696165 C58.5182503,428.701418 62.0824682,430.042879 64.8024806,431.894112 C69.2395103,434.913943 71.451913,439.236673 72.2368987,441.166181 C75.5714351,449.362525 79.0779431,468.480519 82.8418107,498.491108 L24.2446616,498.196055 C28.423491,468.278294 32.199842,449.255687 35.6611918,441.159672 C36.3937114,439.446326 38.6608972,434.971035 43.2322621,431.865387 C45.9343636,430.029661 49.4528693,428.69103 53.9385477,428.696165 Z" id="矩形" transform="translate(53.525, 463.6008) rotate(-104) translate(-53.525, -463.6008)"></path>
                    <path d="M91.8366418,515.019845 C96.4108899,515.029911 99.9721588,516.37679 102.690829,518.23266 C107.128158,521.261754 109.34351,525.593485 110.130013,527.526743 C113.469664,535.735748 116.99282,554.878616 120.784347,584.926457 L62.255057,584.569781 C66.3983772,554.618219 70.1510388,535.575729 73.6004925,527.473597 C74.3302066,525.759633 76.589326,521.282893 81.1512462,518.17946 C83.8469959,516.345566 87.3583605,515.01003 91.8366418,515.019845 Z" id="矩形" transform="translate(91.5048, 549.9818) rotate(-122) translate(-91.5048, -549.9818)"></path>
                    <path d="M158.790724,590.332181 C163.356779,590.343269 166.911925,591.692524 169.626126,593.550899 C174.058706,596.585822 176.272033,600.925118 177.058,602.861616 C180.395084,611.083659 183.918081,630.256369 187.711441,660.351057 L129.270628,659.981015 C133.401795,629.983351 137.145362,610.912146 140.588466,602.798471 C141.31677,601.082223 143.571443,596.599385 148.126346,593.49248 C150.816561,591.657481 154.32094,590.321374 158.790724,590.332181 Z" id="矩形" transform="translate(158.4769, 625.3506) rotate(-139) translate(-158.4769, -625.3506)"></path>
                    <path d="M246.847367,644.597478 C251.403854,644.60496 254.950541,645.952524 257.657631,647.810364 C262.080663,650.845834 264.286637,655.189356 265.069802,657.127779 C268.395965,665.360415 271.899317,684.562125 275.664102,714.704428 L217.316094,714.380005 C221.46494,684.332176 225.218382,665.228364 228.662987,657.099404 C229.391812,655.379443 231.647226,650.886456 236.199477,647.770246 C238.886334,645.930978 242.385461,644.590173 246.847367,644.597478 Z" id="矩形" transform="translate(246.4736, 679.6588) rotate(-159) translate(-246.4736, -679.6588)"></path>
                    <path d="M348.994075,665.741794 C353.545541,665.742961 357.086586,667.085511 359.788194,668.939878 C364.202518,671.969842 366.400019,676.31131 367.179702,678.24902 C370.492802,686.482915 373.967832,705.694413 377.689186,735.855112 L319.380114,735.611287 C323.567737,705.540566 327.345333,686.420522 330.798982,678.28188 C331.530088,676.559004 333.791386,672.057901 338.347368,668.931943 C341.035346,667.087665 344.534412,665.740651 348.994075,665.741794 Z" id="矩形" transform="translate(348.5138, 700.8044) rotate(-177) translate(-348.5138, -700.8044)"></path>
                    <path d="M453.151207,657.74481 C457.702765,657.739924 461.242229,659.076814 463.941494,660.926796 C468.3508,663.948781 470.542007,668.284318 471.318944,670.219635 C474.62204,678.447513 478.072426,697.651265 481.754854,727.802453 L423.431516,727.636299 C427.659619,697.570755 431.463265,678.452214 434.928277,670.311417 C435.662144,668.587248 437.931006,664.082392 442.494074,660.94981 C445.186053,659.101745 448.688884,657.749611 453.151207,657.74481 Z" id="矩形" transform="translate(452.5682, 692.7777) rotate(-193) translate(-452.5682, -692.7777)"></path>
                    <path d="M548.3004,615.583418 C552.859336,615.572828 556.403003,616.903127 559.10439,618.747419 C563.513911,621.757891 565.701919,626.081977 566.47715,628.012508 C569.774586,636.224004 573.205538,655.395052 576.855419,685.496999 L518.442077,685.404467 C522.713126,655.384037 526.545548,636.292232 530.025231,628.159991 C530.762549,626.43683 533.041376,621.934423 537.616325,618.799658 C540.316406,616.949557 543.828439,615.593852 548.3004,615.583418 Z" id="矩形" transform="translate(547.6197, 650.5424) rotate(-216) translate(-547.6197, -650.5424)"></path>
                    <path d="M641.871201,145.374971 C646.443689,145.385623 650.003743,146.733352 652.721598,148.590024 C657.158214,151.620847 659.373511,155.954553 660.160065,157.888648 C663.499769,166.100805 667.024374,185.250526 670.818635,215.308964 L612.309141,214.94475 C616.447423,184.983012 620.19657,165.934287 623.643981,157.829814 C624.373227,156.11544 626.630939,151.637622 631.19093,148.533844 C633.885255,146.69994 637.394899,145.364588 641.871201,145.374971 Z" id="矩形" transform="translate(641.5494, 180.3508) rotate(-306) translate(-641.5494, -180.3508)"></path>
                    <path d="M627.295505,545.266022 C631.86295,545.255314 635.413229,546.58404 638.119626,548.426427 C642.534842,551.432098 644.725935,555.74925 645.50215,557.676793 C648.803817,565.875689 652.238788,585.016959 655.89286,615.071744 L597.3899,614.980989 C601.667224,585.007603 605.505012,565.945372 608.989509,557.82545 C609.727862,556.104865 612.010125,551.609376 616.591268,548.479248 C619.296466,546.630886 622.815158,545.276573 627.295505,545.266022 Z" id="矩形" transform="translate(626.6122, 580.1711) rotate(-233) translate(-626.6122, -580.1711)"></path>
                    <path d="M680.212689,452.841976 C684.787241,452.83423 688.343882,454.164491 691.055682,456.007486 C695.478248,459.013153 697.675128,463.327479 698.453564,465.25372 C701.763862,473.445061 705.214707,492.565191 708.892034,522.585097 L650.320839,522.456454 C654.58294,492.520055 658.412046,473.481961 661.894838,465.373502 C662.632662,463.655738 664.913983,459.167973 669.496744,456.045112 C672.204223,454.200137 675.726614,452.849598 680.212689,452.841976 Z" id="矩形" transform="translate(679.5792, 487.7166) rotate(-248) translate(-679.5792, -487.7166)"></path>
                    <path d="M702.048863,351.3882 C706.628956,351.38742 710.191831,352.723207 712.909688,354.570021 C717.341913,357.581766 719.548173,361.898379 720.330463,363.825414 C723.655215,372.015362 727.137404,391.124668 730.862796,421.124228 L672.248467,420.906357 C676.467675,390.995298 680.270057,371.975168 683.742843,363.877426 C684.47814,362.162881 686.752949,357.684091 691.331573,354.572031 C694.037812,352.732618 697.560268,351.388964 702.048863,351.3882 Z" id="矩形" transform="translate(701.5332, 386.2615) rotate(-268) translate(-701.5332, -386.2615)"></path>
                    <path d="M686.92006,240.868413 C691.49919,240.874672 695.063235,242.217165 697.783305,244.069245 C702.220786,247.0907 704.434019,251.414855 705.219392,253.34495 C708.555292,261.543104 712.065579,280.664315 715.835555,310.679546 L657.246607,310.371634 C657.371761,309.473983 657.496554,308.58614 657.62099,307.708105 L657.869385,305.965112 C661.794778,278.574793 665.363073,261.020343 668.649286,253.3287 C669.381285,251.615398 671.647005,247.140271 676.216801,244.035405 C678.917913,242.200183 682.435367,240.862299 686.92006,240.868413 Z" id="矩形" transform="translate(686.5235, 275.7814) rotate(-287) translate(-686.5235, -275.7814)"></path>
                </g>
                <ellipse id="椭圆形" stroke="#047BBD" stroke-width="5" fill="#FFFFFF" cx="370.536423" cy="370.817039" rx="298.506028" ry="299.982191"></ellipse>
                <g id="编组-20" transform="translate(85.0331, 282.3049)" font-family="Arial-Black, Arial Black" font-size="124" font-weight="700" letter-spacing="10.3333333">
                    <text id="Digg" fill="#88D201">
                        <tspan x="0.666666667" y="136.428407">BT</tspan>
                    </text>
                    <text id="Digg" fill="#FE0000">
                        <tspan x="226.154671" y="136.428407">Digg</tspan>
                    </text>
                </g>
            </g>
        </g>
    </g>
</svg>