<?xml version="1.0" encoding="UTF-8"?>
<svg width="1025px" height="1024px" viewBox="0 0 1025 1024" version="1.1" xmlns="http://www.w3.org/2000/svg" xmlns:xlink="http://www.w3.org/1999/xlink">
    <title>Calibreweb</title>
    <g id="ICON-新版方图标" stroke="none" stroke-width="1" fill="none" fill-rule="evenodd">
        <g id="Calibreweb" transform="translate(0.6332, 0)" fill-rule="nonzero">
            <polygon id="蒙版路径" fill="#3A6187" points="1024 0 0 0 0 1024 1024 1024"></polygon>
            <path d="M774.184,287.012 C785.164,289.692 799.128,282.364 806.624,296.696 C806.624,473.4 806.668,650.1 806.524,826.824 C806.524,837.532 808.816,848.736 802.612,858.772 C795.752,863.768 787.764,862.764 780.084,862.764 C647.108,862.847919 514.108,862.847919 381.132,862.764 C374.188,862.764 367.084,863.544 360.468,860.348 C350.412,852.464 351.336,840.892 351.292,830.244 C350.596,661.896 350.556,493.552 351.316,325.204 C351.356,315.292 350.676,304.644 359.076,296.804 C361.164,295.86 363.132,294.588 365.588,294.568 C479.152,293.996 592.692,294.508 678.544,294.324 C600.332,294.324 494.408,294.344 388.484,294.26 C379.964,294.26 371.344,295.304 362.864,293.156 C360.88,290.412 360.816,287.668 362.68,284.84 C369.4,276.464 379.168,276.504 388.32,276.484 C503.972,276.176 619.644,274.356 735.292,277.364 C748.976,277.712 763.576,274.312 774.204,286.992 L774.184,287.012 Z" id="路径" fill="#FDBC46"></path>
            <path d="M774.184,287.012 C761.508,286.972 748.832,286.948 736.152,286.908 C721.696,275.132 725.812,258.524 725.28,243.408 C724.092,210.396 719.668,205.236 686.96,205.172 C563.896,204.948 440.852,204.988 317.788,205.132 C314.676,205.132 311.564,205.132 308.448,205.336 C283.852,206.852 267.652,218.524 264.948,236.652 C262.328,254.284 272.916,267.472 297.064,276.196 C302.184,278.04 307.608,279.124 311.316,283.632 C317.604,291.496 317.728,300.632 317.708,310.192 C317.296,469.24 318.36,628.312 316.844,787.356 C316.52,822.236 318.996,850.764 359.384,859.384 C362.352,860.964 363.396,863.36 362.516,866.596 C342.304,866.716 322.008,868.192 301.916,866.716 C249.652,862.888 213.316,825.492 213.136,773.348 C212.52,595.808 212.604,418.248 213.096,240.708 C213.196,199.54 238.796,169.476 277.872,160.668 C440.076,161.388 602.276,160.628 764.476,161.06 C775.64,167.14 773.408,177.956 773.528,187.684 C773.9,220.78 774,253.896 774.184,286.992 L774.184,287.012 L774.184,287.012 Z" id="路径" fill="#C58C56"></path>
            <path d="M801.976,858.096 C801.976,681.56 801.916,505.02 801.996,328.484 C801.996,317.732 800.072,306.568 806.604,296.696 C813.364,303.908 810.804,312.896 810.824,321.152 C810.968,492.016 810.968,662.86 810.824,833.724 C810.824,841.956 813.384,850.988 806.46,858.116 C804.968,860.308 803.472,860.288 801.976,858.116 L801.976,858.096 L801.976,858.096 Z" id="路径" fill="#FEBE42"></path>
            <path d="M764.456,161.08 C755.304,167.12 744.94,165.604 734.924,165.604 C592.364,165.668 449.824,165.668 307.26,165.604 C297.248,165.604 286.86,167.08 277.852,160.692 C286.476,155.816 295.976,156.82 305.252,156.8 C450.088,156.736 594.904,156.72 739.736,156.82 C748.136,156.82 757.024,154.996 764.436,161.06 L764.456,161.08 L764.456,161.08 Z" id="路径" fill="#C98D54"></path>
            <path d="M801.976,858.096 L806.46,858.096 C801.872,867.904 792.844,867.024 784.384,867.004 C643.768,866.904 503.132,866.74 362.516,866.596 C362.3889,865.438348 362.191198,864.289542 361.924,863.156 C360.816,861.924 360.528,860.78 361.044,859.692 C361.532,858.648 361.984,858.136 362.392,858.136 L801.976,858.076 L801.976,858.096 L801.976,858.096 Z" id="路径" fill="#FEBE42"></path>
            <path d="M306.892,288.568 C300.708,287.996 294.42,287.932 288.34,286.768 C266.588,282.608 251.148,264.32 250.452,242.468 C249.772,221.576 262.944,202.652 283.424,196.736 C290.736,194.624 298.744,194.216 306.444,194.196 C441.876,194.052 577.312,194.38 712.724,193.744 C730.48,193.664 738.016,197.676 736.624,216.888 C734.944,240.132 736.176,263.56 736.132,286.928 C623.184,287.196 510.24,287.44 397.312,287.768 C385.64,287.808 373.984,288.364 362.312,288.668 C343.82,303.292 325.344,299.504 306.892,288.588 L306.892,288.568 Z" id="路径" fill="#F9F6EC"></path>
            <path d="M306.892,288.568 L362.312,288.648 C362.372,289.816 362.456,290.984 362.536,292.152 C365.444,293.752 365.404,295.284 362.416,296.72 C362.416,485.136 362.416,673.552 362.392,861.968 C362.252,863.644 362.088,865.324 361.924,867.004 C298.804,866.164 306.604,875.36 306.544,810.356 C306.384,636.42 306.728,462.484 306.872,288.548 L306.892,288.568 L306.892,288.568 Z" id="路径" fill="#F0A54C"></path>
            <path d="M567.42,717.704 C525.436,717.704 483.472,717.848 441.488,717.56 C434.176,717.52 423.26,719.26 422.748,708.92 C422.216,698.208 433.048,699.272 440.4,699.252 C525.128,699.048 609.852,699.048 694.58,699.232 C701.892,699.232 713.176,697.616 713.276934,707.856 C713.4,720.12 701.152,717.48 693.328,717.56 C651.368,717.932 609.384,717.748 567.4,717.724 L567.42,717.704 Z M567.5,755.244 C594.676,755.244 621.856,755.08 649.032,755.388 C656.364,755.472 666.848,754.284 666.624,765.156 C666.44,774.252 656.772,773.616 650.056,773.636 C595.7,773.84 541.348,773.88 486.992,773.636 C479.684,773.616 468.808,774.7 469.464,763.888 C470.096,753.588 480.972,755.428 488.284,755.328 C514.684,754.98 541.08,755.184 567.48,755.204 L567.5,755.244 Z" id="形状" fill="#F0A64C"></path>
            <path d="M362.436,296.656 C362.416,295.14 362.436,293.624 362.556,292.112 L726.24,292.112 L726.24,296.656 L362.436,296.656 Z" id="路径" fill="#FEBB40"></path>
        </g>
    </g>
</svg>