<svg xmlns="http://www.w3.org/2000/svg" xmlns:xlink="http://www.w3.org/1999/xlink" width="1025" height="1024"><defs><path id="a" d="M0 0h1024v1024H0z"/></defs><g fill="none" fill-rule="evenodd" transform="translate(.061)"><mask id="b" fill="#fff"><use xlink:href="#a"/></mask><use xlink:href="#a" fill="#F1F6FB"/><path fill="red" d="M322.75 192.25H665.5c44.833-3 83.667 8.167 116.5 33.5S833.5 287.5 838 335h-97c-7.547-20.068-15.547-32.902-24-38.5-8.453-5.598-25.62-9.432-51.5-11.5H345.25c-15.557-.69-28.224 3.144-38 11.5s-16.61 21.19-20.5 38.5v354c-3.333 13.167 3.5 25.25 20.5 36.25s29.667 16.5 38 16.5H665.5c25.315-1.366 42.482-5.2 51.5-11.5s17.018-20.05 24-41.25h97c-6 46.167-24.667 82.833-56 110s-70.167 39-116.5 35.5H322.75c-35.5-1.167-66.167-16.917-92-47.25S192 724.167 192 689V335c4.327-39.687 17.244-71.27 38.75-94.75 21.506-23.48 52.173-39.48 92-48" mask="url(#b)"/><path fill="#000" d="M328.25 312h329.5c29.449 1.482 57.365 10.232 83.75 26.25 26.385 16.018 47.885 37.268 64.5 63.75 20.333 29.127 30.5 63.044 30.5 101.75 0 58.06-7.25 75.25-18.5 102.25s-37.974 57.011-76.5 79.75c-25.684 15.16-53.6 24.66-83.75 28.5h-329.5V637H441V528.25h133.5V637h110.75V382H574.5v106.75H441V382H328.25z" mask="url(#b)"/></g></svg>