<svg xmlns="http://www.w3.org/2000/svg" width="1024" height="1024"><g fill="none" fill-rule="evenodd"><path fill="#FFF" d="M0 0h1024v1024H0z"/><g stroke="#979797"><path fill="#015EAE" d="M489.854 193.992c13.613-4.521 148.055-39.952 241.983 5.322 42.263 20.37 75.672 37.985 112.037 112.038 24.173 49.224 36.63 97.692 37.365 145.406l-243.317-.643c10.714-55.396 14.608-98.003 11.693-127.82-1.47-15.031-4.672-26.824-9.588-35.385-4.965-8.644-11.677-14.011-20.12-16.122-29.859-7.465-62.993 9.818-107.402 55.38-19.18 19.678-58.78 70.693-83.851 124.881-14.464 31.263-34.698 88.549-41.03 139.148-.192 1.538-.455 3.363-.754 5.44-3.43 23.816-11.576 80.677 25.83 121.485 12.993 14.173 38.233 21.393 75.792 21.544L387.905 845.253c-62.64 2.464-101.726 1.293-117.25-3.55-23.941-7.468-82.484-55.749-111.965-119.13-14.929-32.098-33.603-126.368 14.26-233.032 37.687-83.99 113.091-164.597 129.97-180.04 68.934-63.07 148.368-102.7 186.934-115.51Z"/><path fill="#F15C23" d="M843.274 588.974c-37.51 76.226-66.467 126.24-86.882 150.034-63.386 73.878-125.083 94.101-144.112 98.07-30.093 6.276-87.835 8.616-173.219 7.028 52.422-46.68 92.422-89.697 120.004-129.044 27.69-39.502 45.6-81.531 53.734-126.088Z"/></g></g></svg>