<svg xmlns="http://www.w3.org/2000/svg" width="1025" height="1024"><g fill="none" fill-rule="evenodd"><path fill="#FFF" d="M.633 0h1024v1024H.633z"/><path fill="#A80030" fill-rule="nonzero" d="M570.807 533.603c-12.448 0 2.49 6.224 18.672 8.714 4.357-3.112 8.402-6.846 12.137-10.27a93.36 93.36 0 0 1-30.81 1.556m66.598-16.493c7.157-10.27 12.448-21.473 14.626-32.988-1.867 8.403-6.224 15.56-10.27 22.718-23.34 14.626-2.178-8.402 0-17.427-24.896 31.431-3.423 18.672-4.356 27.697m24.273-63.797c1.556-22.406-4.356-15.56-6.224-6.846 2.179 1.245 4.046 15.56 6.224 6.846m-137.55-304.666c6.223 1.245 14.003 2.179 13.07 3.735 7.158-1.556 8.714-3.112-13.382-3.735m13.382 3.735-4.668.933 4.357-.31v-.623m206.326 309.334c.623 19.917-6.224 29.564-11.825 46.68l-10.893 5.602c-8.713 16.805.934 10.892-5.29 24.273-13.693 12.137-41.7 37.967-50.415 40.457-6.224 0 4.357-7.78 5.913-10.581-18.36 12.448-14.937 18.672-42.634 26.452l-.934-1.867c-69.087 32.365-164.937-31.743-163.38-119.502-.934 5.29-2.18 4.046-3.735 6.224-3.878-45.707 20.893-89.056 62.24-108.92 38.117-19.169 84.057-13.257 116.078 14.937a103.941 103.941 0 0 0-84.646-40.456c-36.722.312-70.954 23.652-82.469 48.859-18.672 11.826-20.85 45.747-28.942 51.66-11.203 80.912 20.54 115.766 74.066 156.845 8.403 5.913 2.49 6.535 3.735 10.892a146.265 146.265 0 0 1-47.614-36.1c7.158 10.27 14.626 20.54 24.896 28.32-17.116-5.602-39.522-40.456-46.058-42.012 28.942 51.66 117.634 90.87 163.692 71.576a192.945 192.945 0 0 1-72.51-8.714c-10.27-4.979-23.962-15.87-21.784-17.738 61.342 25.8 131.905 15.754 183.609-26.141 13.693-10.892 28.942-29.253 33.299-29.564-6.224 9.958 1.244 4.98-3.735 13.693 13.693-22.407-6.224-9.336 14.315-38.59l7.47 10.27c-2.802-18.672 23.028-41.078 20.539-70.331 5.912-9.336 6.224 9.336 0 30.186 9.024-23.029 2.49-26.452 4.668-45.435 2.49 6.224 5.601 13.07 7.157 19.606-5.601-21.784 6.224-37.344 8.714-49.793-2.801-1.556-8.714 9.336-9.959-16.493 0-11.515 3.112-6.224 4.357-8.714-2.49-1.556-8.091-9.958-11.825-26.763 2.49-4.046 6.846 10.27 10.58 10.58-2.49-13.07-6.224-23.34-6.224-33.61-10.58-21.16-3.734 3.113-12.448-9.335-10.58-33.921 9.336-7.78 10.581-23.029 16.805 23.962 26.141 60.995 30.498 76.556-3.112-18.673-8.714-37.345-15.249-54.772 4.98 2.178-8.091-38.589 6.535-11.514a243.36 243.36 0 0 0-113.9-136.618c5.602 5.29 13.071 12.137 10.27 13.07-23.34-14.003-19.294-14.937-22.717-20.85-18.984-7.78-20.229.623-32.988 0-36.1-19.294-42.946-17.116-75.933-29.564l1.556 7.158c-23.962-7.78-28.008 3.112-53.838 0-1.556-1.245 8.403-4.357 16.494-5.602-23.029 3.112-21.784-4.357-44.502.934 5.29-4.046 11.203-6.536 17.116-9.959-18.672 1.245-44.813 10.892-36.722 2.179-30.809 14.004-85.269 33.298-115.767 61.929l-.933-6.847c-14.004 16.805-60.996 50.104-64.73 71.888l-4.046.933c-7.157 12.448-11.825 26.453-17.738 39.212-9.336 16.182-14.004 6.224-12.448 8.713-18.672 37.967-28.008 70.02-36.1 96.473 5.602 8.402 0 51.348 2.179 85.891-9.336 169.916 119.501 335.164 260.164 373.442 20.85 7.158 51.348 7.158 77.49 7.78-30.81-8.714-34.855-4.668-64.73-15.249-21.785-9.958-26.453-21.784-41.702-35.166l6.225 10.893c-30.187-10.581-17.739-13.07-42.324-20.851l6.535-8.402c-9.647-.934-25.83-16.494-30.186-25.208l-10.581.311c-12.76-15.56-19.606-27.074-18.983-36.099l-3.424 6.224c-4.045-6.535-47.302-59.128-24.896-46.991-4.045-3.735-9.647-6.224-15.56-17.116l4.357-5.29c-10.892-13.694-19.917-31.743-19.294-37.345 6.224 7.469 9.958 9.336 14.004 10.27-27.386-67.531-28.942-3.735-49.793-68.465l4.668-.622c-3.112-4.98-5.601-10.58-8.09-15.871l1.866-18.672c-19.605-23.03-5.601-96.473-2.8-136.929 2.178-16.805 16.493-34.232 27.385-61.618l-6.535-1.245c12.448-22.095 72.821-89.314 100.83-85.891 13.381-17.116-2.801 0-5.602-4.357 29.875-30.809 39.211-21.784 59.128-27.386 21.784-12.448-18.672 4.98-8.402-4.668 37.344-9.336 26.452-21.784 75.31-26.452 4.98 3.112-12.137 4.357-16.182 8.091 31.12-15.249 98.028-11.514 141.908 8.403 50.726 23.962 107.675 93.671 109.854 159.646l2.49.623c-1.245 26.452 4.045 56.638-5.291 84.335l6.224-13.07m-307.156 89.314-1.556 8.714c8.091 10.892 14.627 22.718 24.896 31.431-7.468-14.626-13.07-20.539-23.34-40.456m19.295-.622c-4.357-4.668-6.847-10.581-9.648-16.183 2.49 9.959 8.092 18.672 13.382 27.386l-3.734-11.203m340.454-74.066-2.178 4.668c-3.112 23.651-10.581 46.991-21.473 68.775 12.448-22.717 20.228-47.925 23.34-73.443M526.305 142.734c8.402-3.112 20.54-1.556 29.564-3.734-11.514.934-23.029 1.556-34.232 3.112l4.668.622M232.53 298.958c2.178 17.738-13.382 24.896 3.423 13.07 9.336-20.54-3.423-5.602-3.112-13.07m-19.917 82.78c3.734-12.138 4.668-19.295 6.224-26.142-10.892 13.693-5.29 16.494-6.224 25.83"/></g></svg>