<?xml version="1.0" encoding="UTF-8"?>
<svg width="1024px" height="1024px" viewBox="0 0 1024 1024" version="1.1" xmlns="http://www.w3.org/2000/svg" xmlns:xlink="http://www.w3.org/1999/xlink">
    <title>Douban.movie</title>
    <g id="ICON-新版方图标" stroke="none" stroke-width="1" fill="none" fill-rule="evenodd">
        <g id="Douban.movie">
            <rect id="蒙版路径" fill="#00B51D" x="0" y="0" width="1024" height="1024"></rect>
            <g id="编组" transform="translate(142, 162)" fill-rule="nonzero">
                <path d="M340.493968,18.501755 C162.662579,18.501755 18.501755,162.662579 18.501755,340.493968 C18.501755,518.325356 162.662579,662.48618 340.493968,662.48618 C518.325356,662.48618 662.48618,518.325356 662.48618,340.493968 C662.214491,162.775238 518.212697,18.7734447 340.493968,18.501755 L340.493968,18.501755 Z M340.493968,106.32342 C376.014515,106.32342 408.037481,127.720482 421.630606,160.537189 C435.223732,193.353896 427.710083,231.12756 402.593262,256.24438 C377.476442,281.3612 339.702778,288.874848 306.886071,275.281723 C274.069364,261.688598 252.672303,229.665632 252.672303,194.145084 C252.672303,145.642518 291.991402,106.32342 340.493968,106.32342 Z M362.449384,340.678986 C362.449384,352.804627 352.619609,362.634401 340.493967,362.634401 C328.368326,362.634401 318.538552,352.804626 318.538552,340.678985 C318.538552,328.553343 328.368326,318.723569 340.493968,318.723569 C352.533944,318.756539 362.314527,328.454702 362.449384,340.493968 L362.449384,340.678986 Z M106.323224,340.678986 C106.248552,305.141697 127.59808,273.061991 160.40879,259.410552 C193.2195,245.759112 231.02347,253.227023 256.178668,278.329225 C281.333865,303.431427 288.881487,341.219564 275.299274,374.058991 C261.717061,406.898418 229.682452,428.315633 194.145084,428.315633 C145.642518,428.315633 106.323224,388.996534 106.323224,340.493968 L106.323224,340.678986 Z M340.678986,575.035344 C292.177051,575.238483 252.693065,536.085369 252.488051,487.583435 C252.284628,439.081502 291.437509,399.597284 339.939441,399.391981 C388.441373,399.188273 427.925822,438.340921 428.130615,486.842851 C428.130615,535.273255 388.924264,574.562486 340.493968,574.664516 L340.678986,575.035344 Z M487.027869,428.685668 C438.525302,428.685668 399.206204,389.366569 399.206204,340.864003 C399.206204,292.361437 438.525302,253.042338 487.027869,253.042338 C535.530435,253.042338 574.849533,292.361437 574.849533,340.864003 C574.64558,389.294282 535.273451,428.418093 486.842851,428.315633 L487.027869,428.685668 Z" id="形状" fill="#000000" opacity="0.2"></path>
                <path d="M321.992213,0 C144.160824,0 0,144.160824 0,321.992213 C0,499.823601 144.160824,643.984425 321.992213,643.984425 C499.823601,643.984425 643.984425,499.823601 643.984425,321.992213 C643.712736,144.273483 499.710942,0.271689671 321.992213,0 L321.992213,0 Z M321.992213,87.8216641 C370.494779,87.8216641 409.813878,127.140763 409.813878,175.643329 C409.813878,224.145895 370.494779,263.464994 321.992213,263.464994 C273.489647,263.464994 234.170548,224.145895 234.170548,175.643329 C234.170548,127.140763 273.489647,87.8216641 321.992213,87.8216641 Z M343.947629,322.17723 C343.947629,331.057367 338.598363,339.063108 330.394187,342.461389 C322.19001,345.859671 312.746594,343.981258 306.467389,337.702053 C300.188184,331.422848 298.309772,321.979433 301.708053,313.775256 C305.106334,305.571079 313.112076,300.221814 321.992213,300.221814 C334.032189,300.254784 343.812772,309.952947 343.947629,321.992213 L343.947629,322.17723 Z M87.8214679,322.17723 C87.7467962,286.639941 109.096325,254.560236 141.907035,240.908796 C174.717745,227.257357 212.521715,234.725268 237.676912,259.82747 C262.832109,284.929672 270.379731,322.717808 256.797518,355.557236 C243.215305,388.396663 211.180696,409.813878 175.643329,409.813878 C127.140763,409.813878 87.8214679,370.494779 87.8214679,321.992213 L87.8214679,322.17723 Z M322.17723,556.533589 C273.675295,556.736727 234.19131,517.583612 233.986296,469.081679 C233.782873,420.579745 272.935754,381.095528 321.437687,380.890225 C369.939619,380.686518 409.424067,419.839165 409.62886,468.341096 C409.62886,516.7715 370.422509,556.06073 321.992213,556.162761 L322.17723,556.533589 Z M468.526114,410.183913 C420.023547,410.183913 380.704449,370.864814 380.704449,322.362248 C380.704449,273.859682 420.023547,234.540583 468.526114,234.540583 C517.02868,234.540583 556.347778,273.859682 556.347778,322.362248 C556.143825,370.792527 516.771696,409.916338 468.341096,409.813878 L468.526114,410.183913 Z" id="形状" fill="#FFFFFF"></path>
                <path d="M551.475649,47.7962009 C571.3342,67.2847161 688.94369,186.004312 674.820684,347.40129 C659.217537,523.784689 492.45505,681.172953 268.830503,700.229761 C473.028208,700.229761 649.904987,590.020973 714.044405,425.848732 C766.034337,292.697767 726.378908,168.180954 711.269142,126.243643 L551.475649,47.7962009 Z" id="路径" fill="#000000"></path>
            </g>
        </g>
    </g>
</svg>