<svg xmlns="http://www.w3.org/2000/svg" width="1025" height="1024"><g fill="none" fill-rule="evenodd"><path fill="#1C0B1A" d="M.633 0h1024v1024H.633z"/><path fill="#F91955" fill-rule="nonzero" d="M633.221 250.412v2.353c1.177 70 60.589 131.764 127.647 132.94h1.765v94.119h-3.53c-46.47-.589-90-17.06-125.882-44.118v197.059c-1.764 94.706-78.823 170.588-173.529 170.588-95.882 0-173.53-77.647-173.53-173.53 0-98.235 84.118-171.764 193.53-172.94h3.53V551c-62.354 0-102.942 35.294-102.942 78.824 0 44.117 35.294 79.411 79.412 79.411 43.53 0 78.235-34.706 79.412-77.647V250.412h94.117"/><path fill="#25EDE8" fill-rule="nonzero" d="M609.692 221v2.353c1.176 70 60.588 131.765 127.647 132.941h1.765v94.118h-3.53c-46.47-.588-90-17.06-125.882-44.118v197.059c-1.765 94.706-78.824 170.588-173.53 170.588-95.882 0-173.529-77.647-173.529-173.53 0-98.235 84.118-171.764 193.53-172.94h3.529v94.117c-62.353 0-102.941 35.294-102.941 78.824 0 44.117 35.294 79.412 79.412 79.412 43.529 0 78.235-34.706 79.411-77.648V221h94.118"/><path fill="#FFF" fill-rule="nonzero" d="M633.221 244.53v2.352c1.177 70 60.589 131.765 127.647 132.942h1.765v94.117h-3.53c-46.47-.588-90-17.059-125.882-44.117v197.058c-1.764 94.706-78.823 170.589-173.529 170.589-95.882 0-173.53-77.647-173.53-173.53 0-98.235 84.118-171.765 193.53-172.941h3.53v94.118c-62.354 0-102.942 35.294-102.942 78.823 0 44.118 35.294 79.412 79.412 79.412 43.53 0 78.235-34.706 79.412-77.647V244.529h94.117"/></g></svg>