<?xml version="1.0" encoding="UTF-8"?>
<svg width="1025px" height="1024px" viewBox="0 0 1025 1024" version="1.1" xmlns="http://www.w3.org/2000/svg" xmlns:xlink="http://www.w3.org/1999/xlink">
    <title>Duplicati</title>
    <g id="ICON-新版方图标" stroke="none" stroke-width="1" fill="none" fill-rule="evenodd">
        <g id="Duplicati" transform="translate(0.6332, 0)">
            <rect id="蒙版路径" fill="#EDEDED" x="0" y="0" width="1024" height="1024"></rect>
            <g id="编组" transform="translate(112, 149)" fill-rule="nonzero">
                <path d="M375,650 C332.5,650 300,617.5 300,575 L300,450 C300,407.5 332.5,375 375,375 L575,375 C617.5,375 650,407.5 650,450 L650,575 C650,617.5 617.5,650 575,650 L375,650 Z" id="路径" fill="#65B1DD"></path>
                <path d="M575,400 C602.5,400 625,422.5 625,450 L625,575 C625,602.5 602.5,625 575,625 L375,625 C347.5,625 325,602.5 325,575 L325,450 C325,422.5 347.5,400 375,400 L575,400 M575,350 L375,350 C320,350 275,395 275,450 L275,575 C275,630 320,675 375,675 L575,675 C630,675 675,630 675,575 L675,450 C675,395 630,350 575,350 Z" id="形状" fill="#FFFFFF"></path>
                <path d="M100,700 C57.5,700 25,667.5 25,625 L25,450 C25,407.5 57.5,375 100,375 L350,375 C392.5,375 425,407.5 425,450 L425,625 C425,667.5 392.5,700 350,700 L100,700 Z" id="路径" fill="#336697"></path>
                <path d="M350,400 C377.5,400 400,422.5 400,450 L400,625 C400,652.5 377.5,675 350,675 L100,675 C72.5,675 50,652.5 50,625 L50,450 C50,422.5 72.5,400 100,400 L350,400 M350,350 L100,350 C45,350 0,395 0,450 L0,625 C0,680 45,725 100,725 L350,725 C405,725 450,680 450,625 L450,450 C450,395 405,350 350,350 Z" id="形状" fill="#FFFFFF"></path>
                <path d="M300,475 C257.5,475 225,442.5 225,400 L225,100 C225,57.5 257.5,25 300,25 L700,25 C742.5,25 775,57.5 775,100 L775,400 C775,442.5 742.5,475 700,475 L300,475 Z" id="路径" fill="#1D4775"></path>
                <path d="M700,50 C727.5,50 750,72.5 750,100 L750,400 C750,427.5 727.5,450 700,450 L300,450 C272.5,450 250,427.5 250,400 L250,100 C250,72.5 272.5,50 300,50 L700,50 M700,0 L300,0 C245,0 200,45 200,100 L200,400 C200,455 245,500 300,500 L700,500 C755,500 800,455 800,400 L800,100 C800,45 755,0 700,0 Z" id="形状" fill="#FFFFFF"></path>
            </g>
        </g>
    </g>
</svg>