<?xml version="1.0" encoding="UTF-8"?>
<svg width="1025px" height="1024px" viewBox="0 0 1025 1024" version="1.1" xmlns="http://www.w3.org/2000/svg" xmlns:xlink="http://www.w3.org/1999/xlink">
    <title>Edge</title>
    <g id="ICON-新版方图标" stroke="none" stroke-width="1" fill="none" fill-rule="evenodd">
        <g id="Edge" transform="translate(0.6332, 0)">
            <rect id="蒙版路径" fill="#FFFFFF" x="0" y="0" width="1024" height="1024"></rect>
            <g id="编组" transform="translate(162.3668, 161.5044)" fill-rule="nonzero">
                <path d="M631.621078,520.886901 C622.363402,525.836818 612.769829,530.131084 602.911029,533.738065 C571.52058,545.498536 538.271175,551.518623 504.750005,551.510953 C375.41807,551.510953 262.765306,462.646515 262.765305,348.353177 C263.037847,317.171219 280.206383,288.591888 307.607668,273.70705 C190.58004,278.628773 160.502845,400.578124 160.502845,471.943103 C160.502845,674.007162 346.70802,694.51434 386.902089,694.51434 C408.502982,694.51434 441.041038,688.225472 460.727929,681.936604 L464.282506,680.842888 C539.655116,654.864632 603.899745,603.931953 646.386246,536.472356 C649.601997,531.407967 648.138096,524.69842 643.105097,521.433758 C639.648686,519.216048 635.272582,519.007662 631.621078,520.886901 L631.621078,520.886901 Z" id="路径" fill="#0F5197"></path>
                <path d="M289.014494,660.062281 C264.688459,644.929723 243.594505,625.136718 226.946102,601.821896 C188.507254,549.192832 175.296388,482.26481 190.854563,418.977319 C206.412738,355.689828 249.148784,302.515422 307.607668,273.70705 C320.628439,266.651834 335.180369,262.896497 349.989168,262.769888 C377.661682,263.06399 403.626979,276.198187 420.260432,298.315664 C431.307896,313.104331 437.429334,330.990408 437.75989,349.446894 C437.75989,348.900036 504.750005,131.797379 219.01666,131.797379 C98.9813122,131.797379 0.273429287,245.817288 0.273429287,345.618887 C-0.183887012,398.480325 11.1170603,450.78223 33.3583429,498.739148 C108.785738,659.460336 292.554828,738.302446 461.001358,682.210033 C403.191313,700.324911 340.349054,692.232346 289.014494,660.062281 L289.014494,660.062281 Z" id="路径" fill="#0C88DA"></path>
                <path d="M416.432425,407.140421 C414.244993,409.874711 407.409267,413.976147 407.409267,422.725876 C407.409267,429.835031 412.05756,436.670756 420.260432,442.412766 C459.634213,469.75567 533.733482,466.201092 534.006912,466.201093 C563.153219,466.161899 591.758381,458.326161 616.85591,443.506483 C668.294079,413.484356 699.937296,358.420994 699.978337,298.862521 C700.798625,237.614417 678.104014,196.873491 669.080856,178.827174 C654.3094,149.96643 634.975296,123.679805 611.824815,100.981926 C583.455467,73.2955763 550.431091,50.8227109 514.265335,34.5933565 C462.585576,11.5245376 406.583286,-0.266889848 349.989168,0 C158.601341,-0.0143415626 2.69139024,153.703125 0,345.072029 C1.36714507,245.270431 100.621886,164.608864 218.74323,164.608864 C228.313247,164.608864 282.999055,165.429151 333.583426,192.225197 C378.15236,215.740094 401.667256,243.903285 417.79957,272.066476 C434.75217,301.323383 437.759889,337.962874 437.75989,352.728042 C437.759891,367.493211 430.377306,389.094105 416.432425,407.140421 Z" id="路径" fill="#2CC3D5"></path>
                <path d="M444.158129,10.3402007 C444.158129,10.3402007 698.96665,273.70705 410.963844,415.999521 C410.963844,415.999521 392.343327,446.924346 481.289793,462.919944 C481.289793,462.919944 628.640702,494.938485 688.111517,365.469836 C700.087709,324.865623 710.751442,261.949602 679.088359,191.924425 C665.842117,163.348129 648.068321,137.09831 626.453269,114.188549 C603.722926,89.2101746 577.710741,67.4291094 549.127537,49.4405531 C502.316485,25.5155124 444.158129,10.3402007 444.158129,10.3402007 Z" id="路径" fill="#49D668"></path>
            </g>
        </g>
    </g>
</svg>