<?xml version="1.0" encoding="UTF-8"?>
<svg width="1025px" height="1024px" viewBox="0 0 1025 1024" version="1.1" xmlns="http://www.w3.org/2000/svg" xmlns:xlink="http://www.w3.org/1999/xlink">
    <title>Fastemby</title>
    <g id="ICON-新版方图标" stroke="none" stroke-width="1" fill="none" fill-rule="evenodd">
        <g id="Fastemby" transform="translate(0.3975, 0)">
            <rect id="蒙版路径" fill="#32343A" x="0" y="0" width="1024" height="1024"></rect>
            <path d="M509.528228,158 L511.410107,159.895079 L513.407108,158 L664.550644,330.609958 L690.852452,309.872942 L864,509.483221 L690.852452,660.587783 L711.733887,689.332534 L509.528228,864 L362.130369,689.332534 L332.146405,710.925942 L160,509.483221 L334.36029,359.953811 C325.412676,350.035441 316.819141,340.254156 308.579687,330.609958 L509.528228,158 Z" id="轨迹" stroke="#52B54B" stroke-width="0.885139333" fill="#52B54B"></path>
            <path d="M596.887829,372.381964 L538.786743,472.786739 L602.014836,472.786739 L422.253831,694.94551 L477.976105,528.277481 L429.326137,528.277481 L471.654902,443.237359 L507.046283,372.381964 L596.887829,372.381964 Z" id="轨迹1" stroke="#FFEB6F" stroke-width="0.885139333" fill="#FFEC79"></path>
            <path d="M596.887829,372.381964 L538.786743,472.786739 L577.107875,472.786739 L422.449579,694.360017 L477.976105,528.277481 L450.339714,528.277481 L529.49997,372.381964 L596.887829,372.381964 Z" id="轨迹2" stroke="#FFDD09" stroke-width="0.885139333" fill="#FFDD09"></path>
            <path d="M602.014836,472.786739 L428.594686,687.109123 L578.286634,472.786739 L602.014836,472.786739 Z" id="轨迹3" stroke="#FEC608" stroke-width="0.885139333" fill="#FEC608"></path>
        </g>
    </g>
</svg>