<svg xmlns="http://www.w3.org/2000/svg" width="1025" height="1024"><g fill="none" fill-rule="evenodd"><path fill="#FFF" d="M.633 0h1024v1024H.633z"/><g fill-rule="nonzero"><path fill="#FFD46C" d="M666.843 434.75c.8.5 1.5 1.05 2.2 1.6a190.798 190.798 0 0 0-32.55-42.449c-108.898-108.948-28.549-236.197-14.999-242.647l.15-.25c-87.999 51.5-117.898 146.998-120.648 194.698 4.1-.25 8.15-.6 12.3-.6 63.576.11 122.2 34.338 153.547 89.649"/><path fill="#B15BF4" d="M343.455 516.479c0 95.326 77.278 172.603 172.604 172.603 95.326 0 172.603-77.277 172.603-172.603 0-95.327-77.277-172.604-172.603-172.604-95.326 0-172.604 77.277-172.604 172.604"/><path fill="#FEB202" d="M582.345 414.251a120.998 120.998 0 0 1 84.498 20.5l2.15 1.6a63.273 63.273 0 0 1 5.25 4.3c79.5 73.199 37.85 176.797 34.75 184.097-125.998 102.899-246.297 62.3-270.647 45.65a184.697 184.697 0 0 0 16 6.9c14.6 5.2 30 8.15 45.5 8.8 174.697 8.2 208.497-208.848 82.499-271.847m-329.196 42.25c39.128-23.96 87.882-25.909 128.798-5.15a174.498 174.498 0 0 0 131.598 5.15c-.55 8.75-31.4 38.799-42.149 38.799-99.649 0-115.799 60.25-115.799 60.25 4.4 50.798 39.75 92.598 82.5 114.698-1.65-.75-3.2-1.6-4.85-2.4-73.3-35-103.6-101.849-97.1-159.098-35.559.512-68.085-19.964-82.998-52.25Zm141.348-166.098a162.498 162.498 0 0 0 1 85.598 224.895 224.895 0 0 0-7.25-4.8c-22.2-14.4-63.3-15.65-74.999-15.7h-3.15a259.497 259.497 0 0 1 84.399-65.098"/><path fill="#FFE142" d="M636.494 393.901c12.8 12.55 23.75 26.9 32.55 42.5 1.95 1.5 3.75 2.9 5.25 4.3 79.498 73.249 37.849 176.747 34.749 184.147 64.499-53.2 105.798-131.798 93.399-212.997-39.65-98.799-106.849-138.648-161.698-225.347a425.844 425.844 0 0 1-8.3-13.45 110.648 110.648 0 0 1-3.85-7.2 63.75 63.75 0 0 1-5.2-13.9.9.9 0 0 0-.8-.9 1.25 1.25 0 0 0-.65 0l-.2.1-.25.15c-13.55 6.4-93.899 133.649 15 242.597"/><path fill="#FE5618" d="M297.998 267.903c-.75 12.1-1.75 70.149 12.15 87.749h6.5c14.7.3 51.3 2.35 71.75 15.65l7.249 4.8c3.1 2.15 6.15 4.45 9 6.85 5.35 4.55 11.4 10.6 24.1 23.1 23.8 23.449 84.748 47.698 84.898 50.548a174.498 174.498 0 0 1-131.548-5.15c-40.929-20.777-89.708-18.827-128.848 5.15 14.928 32.266 47.45 52.72 82.999 52.2-6.5 57.299 23.8 124.098 97.098 159.148l2.55 1.3 2.55 1.25c24.4 16.6 144.749 57.199 270.497-45.2C773.642 571.648 814.94 493 802.492 411.851l.05.5-.2-.8a362.845 362.845 0 0 0-35.5-106.699c24.2 12.5 55.1 52.1 70.3 88.7a360.395 360.395 0 0 1 24.349 159.747l-1.6 16.3c-.5 4.55-1 9-1.6 13.55C830.475 744.544 694.6 865.16 531.045 873.645l-11.85.35h-11.95c-186.464-3.075-337.87-151.623-344.495-337.996l-.25-13.9c.25-10.85 1.15-21.65 2.75-32.349l.4-2.05c2.35-20.55 6.45-38.5 6.5-38.9a295.996 295.996 0 0 1 47.05-106.148l10.25-13.7a305.996 305.996 0 0 1 22.649-25.5c10.5-10.8 22-20.6 34.25-29.35 3.65-2.5 7.6-4.55 11.7-6.2h-.05"/></g></g></svg>