<?xml version="1.0" encoding="UTF-8"?>
<svg width="1024px" height="1024px" viewBox="0 0 1024 1024" version="1.1" xmlns="http://www.w3.org/2000/svg" xmlns:xlink="http://www.w3.org/1999/xlink">
    <title>Frpc</title>
    <g id="ICON-新版方图标" stroke="none" stroke-width="1" fill="none" fill-rule="evenodd">
        <g id="Frpc" transform="translate(-0, -0)" fill-rule="nonzero">
            <polygon id="路径" fill="#3DBE71" points="1024 1024 1024 1.40344877e-11 1.14686425e-15 2.07521862e-15 1.64216934e-12 1024"></polygon>
            <g id="编组" transform="translate(161, 240)" fill="#1D1E1F">
                <path d="M493.255511,71.6497521 C460.125678,18.2286656 351.205678,8.94788438 286.534428,3.74159173 L269.969512,2.15706834 L294.249596,2.15706834 C387.512345,-1.46469986 674.788845,-12.3300055 697.253594,92.7012818 C703.254235,123.742194 699.366224,155.878184 686.134677,184.603659 L487.809511,184.603659 C487.809511,180.302809 490.078678,175.549238 491.440178,170.116585 C499.382261,139.784273 510.274261,99.0393765 493.255511,71.6497521 L493.255511,71.6497521 Z" id="路径"></path>
                <path d="M0,591.158537 L251.242378,29.8780488 C251.242378,29.8780488 309.291158,32.8285726 346.025153,38.2756942 C376.516954,40.8672581 406.077136,50.0843391 432.644817,65.2843392 L360.083841,227.109243 L471.646341,227.109243 L412.917302,361.244612 L304.075839,361.244612 L200.903201,591.158537 L0,591.158537 Z" id="路径"></path>
            </g>
        </g>
    </g>
</svg>