<svg xmlns="http://www.w3.org/2000/svg" width="1025" height="1024"><g fill="none" fill-rule="evenodd"><path fill="#FFF" d="M.398 0h1024v1024H.398z"/><g fill-rule="nonzero"><path fill="#FBBC05" d="M297.25 512c0-24.03 4.102-47.082 11.36-68.683L181.205 348.08A363.389 363.389 0 0 0 142.398 512c0 58.907 13.945 114.472 38.745 163.793l127.34-95.394A214.654 214.654 0 0 1 297.25 512"/><path fill="#EA4335" d="M521.011 293.368c53.322 0 101.5 18.48 139.361 48.753l110.145-107.629C703.408 177.32 617.368 142 521.011 142c-149.615 0-278.218 83.725-339.805 206.081l127.466 95.236c29.343-87.226 113.016-149.95 212.34-149.95"/><path fill="#34A853" d="M521.011 730.632c-99.354 0-183.028-62.723-212.402-149.949L181.206 675.92C242.762 798.275 371.364 882 521.01 882c92.319 0 180.472-32.071 246.667-92.208L646.71 698.277c-34.107 21.034-77.08 32.355-125.731 32.355"/><path fill="#4285F4" d="M882.398 512c0-21.854-3.471-45.41-8.614-67.264H520.98v142.948h203.063c-10.128 48.753-37.767 86.217-77.3 110.593l120.935 91.515c69.507-63.133 114.72-157.17 114.72-277.792"/></g></g></svg>