<?xml version="1.0" encoding="UTF-8"?>
<svg width="1024px" height="1024px" viewBox="0 0 1024 1024" version="1.1" xmlns="http://www.w3.org/2000/svg" xmlns:xlink="http://www.w3.org/1999/xlink">
    <title>Google.translate</title>
    <g id="ICON-新版方图标" stroke="none" stroke-width="1" fill="none" fill-rule="evenodd">
        <g id="Google.translate">
            <rect id="蒙版路径" fill="#FFFFFF" x="0" y="0" width="1024" height="1024"></rect>
            <g id="编组-16" transform="translate(141.7346, 201.7346)">
                <path d="M328.56,93 L296,0 L74,0 C33.184586,0.108291587 0.129251249,27.8033018 0,62 L0,465 C0.129251249,499.196698 33.184586,526.891708 74,527 L333,527 L370,620 L666,620 C706.815414,619.891708 739.870749,592.196698 740,558 L740,155 C739.870749,120.803302 706.815414,93.1082916 666,93 L328.56,93 Z" id="路径" fill="#4989F3" fill-rule="nonzero"></path>
                <path d="M187.112268,344.482346 C138.885985,344.542206 95.3838812,313.856256 76.9243103,266.756772 C58.4647395,219.657288 68.6904245,165.438656 102.825296,129.424555 C125.170375,105.774994 155.493068,92.4874137 187.112268,92.4895149 C216.870996,92.1451461 245.557944,104.219276 266.949143,126.092281 L269.571522,127.324382 L233.14959,163.671374 L231.401337,162.131247 C219.429747,150.225196 203.547192,143.707977 187.112268,143.957751 C148.539641,144.41917 117.558494,177.721101 117.76491,218.499888 C117.558494,259.278675 148.539641,292.580605 187.112268,293.042024 C215.151647,295.300087 240.88074,276.568483 248.883865,248.070322 L184.489889,248.070322 L184.489889,200.326392 L299.583194,200.326392 L299.874569,203.09862 C300.960605,209.091113 301.46389,215.167613 301.331446,221.272116 C301.331446,293.658074 255.002749,344.482346 187.112268,344.482346" id="路径" fill="#FFFFFF" fill-rule="nonzero"></path>
                <path d="M659.000297,124.500008 C671.012488,124.492666 681.890463,129.354921 689.767224,137.22206 C697.643986,145.089198 702.519536,155.96122 702.526878,167.973026 L702.466909,545 C702.466909,557.005808 697.602987,567.876292 689.737614,575.747581 C681.872241,583.618869 671.005416,588.490962 658.999546,588.499988 L408.642136,588.721113 L481.852114,527.383024 L339.971498,124.721838 Z" id="矩形" stroke="#979797" fill="#5F7987"></path>
                <path d="M458.43,389.98 L438.45,406.41 L414.4,337.28 C426.677273,356.161818 441.443636,373.86 458.43,389.98 Z" id="路径" fill="#E6E7E8" fill-rule="nonzero"></path>
                <path d="M407,313.72 L394.79,281.48 L542.42,281.48 C530.398516,312.833209 510.744393,341.75596 484.7,366.42 C468.468758,350.209948 454.445451,332.534074 442.89,313.72 C437.198682,309.416907 431.323802,307.265361 425.265361,307.265361 C419.206919,307.265361 413.118466,309.416907 407,313.72 Z" id="路径" fill="#E6E7E8" fill-rule="nonzero"></path>
                <path d="M666.265361,620.265361 L370.265361,620.265361 L481.265361,527.265361 L451.03,441.13 L485.07,412.61 L581.71506,493.885496 C583.426099,495.323754 585.569672,496.147291 587.80356,496.224632 C595.411043,496.485663 600.898311,495.165869 604.265361,492.265361 C607.280796,489.667748 609.208255,485.274657 610.047739,479.086088 L610.048304,479.086164 C610.508985,475.679321 609.187364,472.274686 606.548747,470.070938 L510.97,390.29 L510.97,390.29 C544.383003,359.115889 568.701413,321.868055 582.01,281.48 L612.213427,281.290745 C615.039586,281.272517 617.726063,280.059255 619.608355,277.951059 C623.380124,273.727421 625.265361,269.49847 625.265361,265.265361 C625.265361,261.045289 623.391718,256.829349 619.644433,252.61754 L619.644478,252.6175 C617.747367,250.485188 615.02954,249.265102 612.175457,249.26451 L494.32,249.24 L494.32,249.24 L494.319999,220.663994 C494.319063,218.030825 493.279593,215.504288 491.427233,213.632834 C487.222502,209.388222 482.502252,207.265361 477.265361,207.265361 C470.790773,207.265361 465.790773,210.598694 462.265361,217.265361 L462.265361,249.265361 L383.32,249.24 L328.265361,92.2653608 L666.265361,92.2653608 C675.800935,92.287061 696.101957,94.4098574 711.265361,104.265361 C728.560225,115.506214 740.23582,136.153076 740.265361,145.265361 L740.265361,558.265361 C740.238917,566.422429 740.132916,584.781734 719.265361,602.265361 C698.397806,619.748988 676.941032,620.241066 666.265361,620.265361 Z" id="路径" fill="#E6E7E8" fill-rule="nonzero"></path>
                <polygon id="三角形" fill="#376AD7" points="333.265361 527.265361 481.265361 527.265361 370 620"></polygon>
            </g>
        </g>
    </g>
</svg>