<svg xmlns="http://www.w3.org/2000/svg" width="1025" height="1024"><g fill="none" fill-rule="evenodd"><path fill="#FFF" d="M.398 0h1024v1024H.398z"/><g fill-rule="nonzero"><path fill="#0066DA" d="m215.398 735.87 30.916 53.605c6.427 11.281 15.657 20.134 26.5 26.58 31.057-39.544 52.696-69.885 64.848-91.047 12.362-21.466 27.552-55.03 45.569-100.718-48.56-6.4-85.366-9.623-110.417-9.623-24.023 0-60.828 3.223-110.417 9.623a73.045 73.045 0 0 0 9.628 36.25l43.373 75.352v-.023"/><path fill="#EA4335" d="M752.478 816.056c10.794-6.447 20.006-15.3 26.38-26.581l12.795-22.167 61.183-106.744a73.606 73.606 0 0 0 9.562-36.274c-49.645-6.4-86.215-9.623-109.711-9.623-25.264 0-61.834 3.223-109.734 9.623 17.727 45.944 32.662 79.51 44.782 100.718 12.214 21.395 33.802 51.76 64.743 91.048"/><path fill="#00832D" d="M513.08 399.389c35.937-43.528 60.705-77.085 74.305-100.694 10.935-19.008 22.968-49.342 36.124-91.025a70.412 70.412 0 0 0-36.148-9.668H438.823a74.573 74.573 0 0 0-36.148 9.668c16.73 47.801 30.914 81.825 42.573 102.048 12.875 22.37 35.517 52.261 67.856 89.67h-.024"/><path fill="#2684FC" d="M642.52 624.389H383.687L273.51 816.11c10.796 6.445 23.225 9.668 36.05 9.668h407.066c12.825 0 25.254-3.62 36.05-9.668L642.497 624.389h.023"/><path fill="#00AC47" d="m512.398 399.162-110.25-191.44c-10.827 6.436-20.067 15.297-26.46 26.56L172.01 588.175a73.04 73.04 0 0 0-9.613 36.213h220.5l129.5-225.227"/><path fill="#FFBA00" d="M751.205 411.229 649.263 234.256a72.931 72.931 0 0 0-26.49-26.534l-110.375 191.43 129.646 225.237h220.354c0-12.498-3.224-24.949-9.648-36.21L751.205 411.205v.023"/></g></g></svg>