<svg xmlns="http://www.w3.org/2000/svg" width="1025" height="1024"><g fill="none" fill-rule="evenodd"><path fill="#FFF" d="M.398 0h1024v1024H.398z"/><g fill-rule="nonzero"><path fill="#EA4335" d="m531.218 494.836-323.84 336.541c.018.066-.009-.066 0 0 9.937 36.532 44.065 63.661 84.533 63.661a88.573 88.573 0 0 0 44.377-11.795l1.03-.607 364.515-205.932-170.615-181.868"/><path fill="#FBBC04" d="m858.831 437.528-.303-.198-157.368-89.349-177.298 154.502 177.971 174.234 156.483-88.49c27.446-14.529 46.082-42.846 46.082-75.508 0-32.451-18.372-60.623-45.567-75.19"/><path fill="#4285F4" d="M207.37 192.634a82.588 82.588 0 0 0-2.972 22.03V809.36c.317 8.533.99 15.163 2.984 22.017l334.97-327.93L207.37 192.634Z"/><path fill="#34A853" d="M533.622 512.019 701.16 347.98 337.12 141.243A89.099 89.099 0 0 0 291.924 129c-40.468 0-74.596 26.957-84.528 63.555l-.027.079 326.253 319.385"/></g></g></svg>