<?xml version="1.0" encoding="UTF-8"?>
<svg width="1025px" height="1024px" viewBox="0 0 1025 1024" version="1.1" xmlns="http://www.w3.org/2000/svg" xmlns:xlink="http://www.w3.org/1999/xlink">
    <title>Google.drive</title>
    <g id="ICON-新版方图标" stroke="none" stroke-width="1" fill="none" fill-rule="evenodd">
        <g id="Google.drive" transform="translate(0.3975, 0)">
            <rect id="蒙版路径" fill="#FFFFFF" x="0" y="0" width="1024" height="1024"></rect>
            <g id="Googledrive" transform="translate(162, 198)" fill-rule="nonzero">
                <path d="M53,537.86905 L83.9166664,591.474651 C90.3430334,602.756353 99.5736328,611.608869 110.416667,618.055556 C141.473545,578.511205 163.112875,548.169733 175.264551,527.007783 C187.626543,505.542185 202.816138,471.97737 220.833333,426.289982 C172.273368,419.89001 135.467813,416.666667 110.416667,416.666667 C86.3937392,416.666667 49.5881832,419.89001 0,426.289982 C0,438.786276 3.20149884,451.282572 9.62786585,462.540916 L53,537.892407 L53,537.86905 Z" id="路径" fill="#0066DA"></path>
                <path d="M590.080038,618.055556 C600.874294,611.608869 610.086635,602.756353 616.460829,591.474651 L629.255745,569.308326 L690.438708,462.564274 C696.696585,451.516147 700,439.019853 700,426.289982 C650.355725,419.89001 613.785528,416.666667 590.289409,416.666667 C565.025265,416.666667 528.455069,419.89001 480.555556,426.289982 C498.28233,472.234303 513.217487,505.799118 525.337762,527.007783 C537.551091,548.403309 559.139604,578.768138 590.080038,618.055556 L590.080038,618.055556 Z" id="路径" fill="#EA4335"></path>
                <path d="M350.682761,201.388889 C386.619875,157.860931 411.387978,124.304238 424.987068,100.695458 C435.922419,81.6870043 447.955978,51.3528746 461.111111,9.66971746 C450.155656,3.24631606 437.665004,-0.0943316101 424.963702,0.0020270856 L276.425187,0.0020270856 C263.749514,0.100391472 251.308345,3.42780463 240.277778,9.66971746 C257.00793,57.4710747 271.191173,91.4948062 282.850875,111.717559 C295.725614,134.088687 318.367399,163.979131 350.706128,201.388889 L350.682761,201.388889 Z" id="路径" fill="#00832D"></path>
                <path d="M480.122377,426.388889 L221.28983,426.388889 L111.111111,618.109991 C121.90746,624.555183 134.336085,627.777778 147.161122,627.777778 L554.227767,627.777778 C567.052803,627.777778 579.481429,624.158196 590.277778,618.109991 L480.099059,426.388889 L480.122377,426.388889 Z" id="路径" fill="#2684FC"></path>
                <path d="M350,201.161773 L239.75,9.72222222 C228.923334,16.1579492 219.683333,25.0187322 213.29,36.2812539 L9.61333323,390.176268 C3.31546215,401.207647 0,413.688421 0,426.388889 L220.5,426.388889 L350,201.161773 Z" id="路径" fill="#00AC47"></path>
                <path d="M588.807315,213.229031 L486.865114,36.256451 C480.502653,25.2586011 471.370876,16.1115846 460.375092,9.72222222 L350,201.15106 L479.646934,426.388889 L700,426.388889 C700,413.891221 696.776347,401.440185 690.352399,390.178294 L588.807315,213.205714 L588.807315,213.229031 Z" id="路径" fill="#FFBA00"></path>
            </g>
        </g>
    </g>
</svg>