<svg xmlns="http://www.w3.org/2000/svg" width="1025" height="1024"><g fill="none" fill-rule="evenodd"><path fill="#FFF" d="M.189 0h1024v1024H.189z"/><g fill-rule="nonzero"><path fill="#286FE2" d="M211.32 363.521V678.77l275.688 133.958V495.724z"/><path fill="#C2D3FF" d="m536.754 499.368-.044 317.18 276.216-134.222V365.234z"/><path fill="#F2F3FD" d="M781.489 325.938 515.767 196.853 246.533 325.938l269.234 129.04z"/><path fill="#4A5E8A" d="M862.057 690.493V330.196c0-.395-.044-.834-.088-1.229.132-1.01.22-2.02.22-3.03 0-9.395-5.313-18.001-13.787-22.084L526.568 147.458c-6.718-3.293-14.577-3.25-21.338-.044l-326.137 156.35c-4.698 2.24-8.43 5.928-10.845 10.319a24.732 24.732 0 0 0-6.06 16.07v363.106c0 10.45 6.543 19.362 15.763 22.919 1.58 1.36 3.337 2.59 5.313 3.512l321.834 156.351a24.403 24.403 0 0 0 10.713 2.459c3.688 0 7.376-.79 10.757-2.459l321.834-156.35c10.01-4.918 15.192-15.72 13.435-26.213.132-1.01.22-2.02.22-3.073v.088m-346.29-493.64 265.678 129.085-265.678 129.084-269.234-129.084 269.234-129.085ZM211.32 363.52l275.688 132.203v317.004L211.32 678.77V363.52Zm325.434 135.847L812.97 365.234v317.092L536.754 816.548v-317.18"/><path fill="#C2D3FF" d="m658.375 325.938-143.398-69.68-145.33 69.68 145.33 69.635z"/></g></g></svg>