<svg xmlns="http://www.w3.org/2000/svg" width="1024" height="1024"><defs><linearGradient id="a" x1="102.24%" x2="102.24%" y1="99.786%" y2="-58.236%"><stop offset="0%" stop-color="#0050B5"/><stop offset="100%" stop-color="#0B87FD"/></linearGradient><linearGradient id="b" x1="-55.317%" x2="-55.317%" y1="99.786%" y2="-58.236%"><stop offset="0%" stop-color="#0050B5"/><stop offset="100%" stop-color="#0B87FD"/></linearGradient><linearGradient id="c" x1="99.594%" x2="99.594%" y1="99.784%" y2="-59.447%"><stop offset="0%" stop-color="#0050B5"/><stop offset="100%" stop-color="#0B87FD"/></linearGradient><linearGradient id="d" x1="-63.516%" x2="-63.516%" y1="99.862%" y2="-1.712%"><stop offset="0%" stop-color="#0050B5"/><stop offset="100%" stop-color="#0B87FD"/></linearGradient><linearGradient id="e" x1="50%" x2="50%" y1="-.138%" y2="53.935%"><stop offset="0%" stop-color="#0048AF"/><stop offset="100%" stop-color="#003580"/></linearGradient><linearGradient id="f" x1="100%" x2="100%" y1="-1.401%" y2="101.401%"><stop offset="0%" stop-color="#0B89FF"/><stop offset="100%" stop-color="#004EB2"/></linearGradient></defs><g fill="none" fill-rule="evenodd"><path fill="#FFF" d="M0 0h1024v1024H0z"/><path fill="url(#a)" d="M353.5 117c50.5 0 91.5 41 91.5 91.5S404 300 353.5 300 262 259 262 208.5s41-91.5 91.5-91.5m0 40.588c28.099 0 50.912 22.813 50.912 50.912s-22.813 50.912-50.912 50.912-50.912-22.813-50.912-50.912 22.813-50.912 50.912-50.912" transform="translate(145 362)"/><path fill="url(#b)" d="M643.5 117c50.5 0 91.5 41 91.5 91.5S694 300 643.5 300 552 259 552 208.5s41-91.5 91.5-91.5m0 40.588c28.099 0 50.912 22.813 50.912 50.912s-22.813 50.912-50.912 50.912-50.912-22.813-50.912-50.912 22.813-50.912 50.912-50.912" transform="translate(145 362)"/><path fill="url(#c)" d="M449 128.73c0-3.461-2.494-6.425-5.92-7.038l-25.613-4.58a7.226 7.226 0 0 0-5.888 1.553 7.134 7.134 0 0 0-2.579 5.486V292.85a7.13 7.13 0 0 0 2.107 5.056 7.216 7.216 0 0 0 5.087 2.095h25.612a7.216 7.216 0 0 0 5.087-2.095A7.13 7.13 0 0 0 449 292.85V128.73" transform="translate(145 362)"/><path fill="url(#d)" fill-rule="nonzero" d="M529 24.694c0-2.836-1.128-5.557-3.137-7.562A10.717 10.717 0 0 0 518.29 14h-27.58c-2.84 0-5.565 1.127-7.573 3.132A10.686 10.686 0 0 0 480 24.694v264.612c0 2.836 1.129 5.557 3.137 7.562A10.717 10.717 0 0 0 490.71 300h27.58c2.84 0 5.565-1.127 7.573-3.132a10.685 10.685 0 0 0 3.137-7.562V24.694Z" transform="translate(145 362)"/><g fill-rule="nonzero"><path fill="url(#e)" d="M173.39 281.189a17.79 17.79 0 0 0 5.228 12.596 17.822 17.822 0 0 0 12.616 5.202l19.985-.036c9.825-.017 17.781-7.98 17.781-17.798V17.88a17.79 17.79 0 0 0-5.217-12.585A17.82 17.82 0 0 0 211.187.08h-19.985a17.82 17.82 0 0 0-12.596 5.213 17.79 17.79 0 0 0-5.217 12.585v263.31" transform="translate(145 362)"/><path fill="#0051B0" d="M356.167 472.344a17.84 17.84 0 0 1 12.61 5.22A17.81 17.81 0 0 1 374 490.161v152.94a17.81 17.81 0 0 1-5.223 12.599 17.842 17.842 0 0 1-12.61 5.219h-19.945a17.84 17.84 0 0 1-12.61-5.22 17.81 17.81 0 0 1-5.223-12.598v-87.367c0-4.725-1.879-9.257-5.223-12.598a17.84 17.84 0 0 0-12.61-5.22H145v-65.573h211.167"/><path fill="url(#f)" d="M0 281.202c0 4.727 1.882 9.26 5.23 12.598a17.82 17.82 0 0 0 12.621 5.2c6.394-.014 13.597-.03 19.985-.042 9.823-.022 17.775-7.984 17.775-17.799V17.841C55.611 8.026 47.66.064 37.836.043L17.85 0a17.822 17.822 0 0 0-12.62 5.2A17.792 17.792 0 0 0 0 17.798v263.404" transform="translate(145 362)"/></g></g></svg>