<svg xmlns="http://www.w3.org/2000/svg" width="1025" height="1031"><g fill="none" fill-rule="nonzero"><path fill="#00DC5A" d="m.633 7 1024-7v1031H.633V135"/><path fill="#FFF" d="M115.193 384.728c-20.27 0-36.704 16.433-36.704 36.704s16.433 36.704 36.704 36.704 36.704-16.433 36.704-36.704-16.433-36.704-36.704-36.704M470.201 608.6l-28.544-22.912a3.2 3.2 0 0 1-.832-3.968c14.208-26.56 18.944-57.088 13.568-86.72a134.336 134.336 0 0 0-156.352-108.032c-73.031 13.113-121.619 82.93-108.544 155.968a134.4 134.4 0 0 0 156.352 108.16 134.4 134.4 0 0 0 54.464-23.04 3.2 3.2 0 0 1 3.84.064l30.656 24.64a2.56 2.56 0 0 0 2.688.192 2.56 2.56 0 0 0 .768-.64l32.256-40.256a2.432 2.432 0 0 0-.32-3.456m-134.208-12.16c-42.387 7.184-82.589-21.306-89.856-63.68-8.044-42.25 19.65-83.032 61.888-91.136 42.388-7.184 82.59 21.306 89.856 63.68 8.005 42.228-19.68 82.967-61.888 91.072v.064m173.12 56a2.368 2.368 0 0 1-.768-1.6V392.152a2.304 2.304 0 0 1 2.432-2.24h57.728a2.368 2.368 0 0 1 2.432 2.24V650.84c0 .64-.32 1.152-.768 1.6a2.31 2.31 0 0 1-1.664.641h-57.792a2.31 2.31 0 0 1-1.664-.641h.064m-424.448 0a2.304 2.304 0 0 1-.768-1.6V487.96a2.368 2.368 0 0 1 2.432-2.176h57.728a2.304 2.304 0 0 1 2.432 2.176v162.88a2.304 2.304 0 0 1-2.432 2.176H86.33a2.304 2.304 0 0 1-1.664-.64v.064Zm799.04-262.528h57.792a2.368 2.368 0 0 1 2.432 2.24v258.624a2.304 2.304 0 0 1-2.432 2.24h-57.792a2.304 2.304 0 0 1-2.432-2.24V392.152a2.304 2.304 0 0 1 2.432-2.24m-94.528 0h61.44a2.689 2.689 0 0 1 2.24 4.224l-91.52 153.856a9.728 9.728 0 0 0-1.28 4.928v97.472a2.688 2.688 0 0 1-2.688 2.624h-57.856a2.688 2.688 0 0 1-2.688-2.624V552.92a9.728 9.728 0 0 0-1.28-4.928L603.897 394.2a2.688 2.688 0 0 1 2.24-4.224h61.568a2.944 2.944 0 0 1 2.56 1.408l57.088 101.632s.448.768 1.024.768c.576 0 .96-.768.96-.768l57.152-101.632a2.944 2.944 0 0 1 2.56-1.408l.128-.064"/></g></svg>