<svg xmlns="http://www.w3.org/2000/svg" width="1025" height="1024"><defs><linearGradient id="b" x1="50%" x2="50%" y1="0%" y2="100%"><stop offset="0%" stop-color="#FDECB4"/><stop offset="100%" stop-color="#F0A502"/></linearGradient><linearGradient id="c" x1="50%" x2="50%" y1="0%" y2="100%"><stop offset="0%" stop-color="#FDECB4"/><stop offset="100%" stop-color="#F0A502"/></linearGradient><linearGradient id="d" x1="50%" x2="50%" y1="0%" y2="100%"><stop offset="0%" stop-color="#FDECB4"/><stop offset="100%" stop-color="#F0A502"/></linearGradient><linearGradient id="e" x1="50%" x2="50%" y1="0%" y2="100%"><stop offset="0%" stop-color="#FDECB4"/><stop offset="100%" stop-color="#F0A502"/></linearGradient><linearGradient id="f" x1="50%" x2="50%" y1="0%" y2="100%"><stop offset="0%" stop-color="#FDECB4"/><stop offset="100%" stop-color="#F0A502"/></linearGradient><linearGradient id="g" x1="50%" x2="50%" y1="0%" y2="100%"><stop offset="0%" stop-color="#FDECB4"/><stop offset="100%" stop-color="#F0A502"/></linearGradient><linearGradient id="h" x1="50%" x2="50%" y1="0%" y2="100%"><stop offset="0%" stop-color="#FDECB4"/><stop offset="100%" stop-color="#F0A502"/></linearGradient><linearGradient id="i" x1="50%" x2="50%" y1="0%" y2="100%"><stop offset="0%" stop-color="#FDECB4"/><stop offset="100%" stop-color="#F0A502"/></linearGradient><linearGradient id="j" x1="50%" x2="50%" y1="0%" y2="100%"><stop offset="0%" stop-color="#FDECB4"/><stop offset="100%" stop-color="#F0A502"/></linearGradient><linearGradient id="k" x1="50%" x2="50%" y1="0%" y2="100%"><stop offset="0%" stop-color="#FDECB4"/><stop offset="100%" stop-color="#F0A502"/></linearGradient><linearGradient id="l" x1="50%" x2="50%" y1="0%" y2="100%"><stop offset="0%" stop-color="#FDECB4"/><stop offset="100%" stop-color="#F0A502"/></linearGradient><linearGradient id="m" x1="50%" x2="50%" y1="0%" y2="100%"><stop offset="0%" stop-color="#FDECB4"/><stop offset="100%" stop-color="#F0A502"/></linearGradient><linearGradient id="n" x1="50%" x2="50%" y1="0%" y2="100%"><stop offset="0%" stop-color="#FDECB4"/><stop offset="100%" stop-color="#F0A502"/></linearGradient><linearGradient id="o" x1="50%" x2="50%" y1="0%" y2="100%"><stop offset="0%" stop-color="#FDECB4"/><stop offset="100%" stop-color="#F0A502"/></linearGradient><linearGradient id="p" x1="50%" x2="50%" y1="0%" y2="100%"><stop offset="0%" stop-color="#FDECB4"/><stop offset="100%" stop-color="#F0A502"/></linearGradient><linearGradient id="q" x1="50%" x2="50%" y1="0%" y2="100%"><stop offset="0%" stop-color="#FDECB4"/><stop offset="100%" stop-color="#F0A502"/></linearGradient><linearGradient id="r" x1="50%" x2="50%" y1="0%" y2="100%"><stop offset="0%" stop-color="#FDECB4"/><stop offset="100%" stop-color="#F0A502"/></linearGradient><linearGradient id="s" x1="50%" x2="50%" y1="0%" y2="100%"><stop offset="0%" stop-color="#FDECB4"/><stop offset="100%" stop-color="#F0A502"/></linearGradient><radialGradient id="a" cx="50%" cy="50%" r="57.28%" fx="50%" fy="50%"><stop offset="0%" stop-color="#F0A502"/><stop offset="100%" stop-color="#FDECB4"/></radialGradient></defs><g fill="none" fill-rule="evenodd" transform="translate(.061)"><path fill="#FFF" d="M0 0h1024v1024H0z"/><circle cx="512" cy="546" r="365" fill="url(#a)"/><circle cx="512" cy="546" r="265" fill="#F3B70B"/><circle cx="512" cy="546" r="249" fill="#FFF"/><path fill="#FFF" d="M154.25 615.513c-3.727-12.456-6.056-22.658-6.99-30.606-.934-7.948-1.03-18.399-.29-31.352l101.985 1.78 3.174 35.71-97.88 24.468"/><path fill="url(#b)" d="M67.028-9.603h35l-.02 100.598-34.731.868z" transform="rotate(-89 394.223 231.498)"/><path fill="#FFF" d="M185.725 707.878c-7.015-10.947-12.066-20.111-15.154-27.494-3.089-7.383-6.062-17.402-8.92-30.057l98.524-26.4 12.894 33.452-87.344 50.499"/><path fill="url(#c)" d="M67.362-9.792h35l-.284 102.245-34.467-.78z" transform="rotate(-105 368.395 284.18)"/><path fill="#FFF" d="M753.786 820.151c-8.757 9.61-16.302 16.86-22.634 21.754-6.332 4.894-15.24 10.36-26.724 16.396l-51-88.335 28.974-21.112 71.384 71.297"/><path fill="url(#d)" d="M67.257-9.733h35v102l-34.75-.534z" transform="rotate(150 269.917 509.286)"/><path fill="#FFF" d="M817.215 745.405c-5.77 11.65-11.023 20.7-15.761 27.15-4.738 6.45-11.794 14.158-21.17 23.126l-73.373-70.855 22.033-28.28 88.271 48.859"/><path fill="url(#e)" d="m66.801-8.927 36.88 1.57-1.88 100.43-34.75-.534z" transform="rotate(134 253.106 544.374)"/><path fill="#FFF" d="M857.075 665.392c-2.587 8.496-5.269 16.497-8.045 24.002-2.776 7.506-7.435 16.861-13.975 28.066l-90.06-47.886 13.383-33.258 98.697 29.076"/><path fill="url(#f)" d="M64.843-9.972h35L96.997 93.016l-31.905-.528z" transform="rotate(118 231.694 584.63)"/><path fill="#FFF" d="M877 568.172c-.317 14.129-1.053 25.152-2.208 33.071-1.155 7.919-3.767 18.038-7.835 30.358l-98.048-28.115 6.176-35.314H877"/><path fill="url(#d)" d="M68.245-9.733h35v102l-34.75-.534z" transform="rotate(106 226.211 611.296)"/><path fill="#FFF" d="M787.408 306.024c9.455 8.924 16.573 16.594 21.356 23.01 4.782 6.417 10.091 15.42 15.926 27.007l-89.21 49.45-20.604-29.338 72.532-70.13"/><path fill="url(#g)" d="m66.37-9.54 35.331.72.48 101.917-34.751-.54z" transform="rotate(61 136.177 815.58)"/><path fill="#FFF" d="M839 383.25c6.349 11.12 11.068 20.371 14.156 27.754 3.088 7.383 6.062 17.402 8.92 30.057l-98.524 26.4-12.894-33.452L839 383.25"/><path fill="url(#h)" d="M66.825-9.975h35v103l-34.751-.54z" transform="rotate(75 171.316 733.424)"/><path fill="#FFF" d="M870.5 470.5c2.034 12.33 3.726 22.44 5.074 30.328 1.349 7.889 1.992 18.32 1.93 31.294l-101.938 3.56-5.038-35.495L870.5 470.5"/><path fill="url(#i)" d="m67.172-9.152 37.192 2.33-5.506 101.67-16.13-.57-15.85-.561z" transform="rotate(88 192.327 681.64)"/><path fill="#FFF" d="M713.78 241.971c10.18 6.017 18.495 11.395 24.944 16.132 6.45 4.738 14.159 11.795 23.127 21.17l-70.855 73.373-27.221-23.9 50.005-86.775"/><path fill="url(#j)" d="m65.906-8.555 37.748.342-2.748 101.658-34.75-.534z" transform="rotate(44 57.504 995.296)"/><path fill="#FFF" d="M536.5 181.25c12.69.522 22.994 1.36 30.912 2.515 7.92 1.155 18.074 3.604 30.464 7.347l-28.22 98.536-35.314-6.176L536.5 181.25"/><path fill="url(#k)" d="M66.206-9.784h35l.703 101.414-35.454 2.04z" transform="rotate(16 -378.675 1979.701)"/><path fill="#FFF" d="M628.548 198.873c13.161 4.968 23.444 8.97 30.848 12.007 7.404 3.037 16.591 8.019 27.561 14.946l-50.488 86.098-32.755-14.686 24.834-98.365"/><path fill="url(#l)" d="m66.595-8.877 36.423.167L99.6 92.11l-32.058-.916z" transform="rotate(30 -59.881 1263.191)"/><path fill="#FFF" d="M439.25 188c13.077-2.68 23.58-4.555 31.511-5.627 7.93-1.073 18.477-1.53 31.64-1.373l-1.151 100-36 4.5-26-97.5"/><path fill="url(#m)" d="m66.369-9.44 36.25.252-2.25 102.749-33-2.513z" transform="translate(433.881 189.94)"/><path fill="#FFF" d="M347.253 219.897c11.897-6.575 21.537-11.407 28.92-14.496 7.383-3.088 17.402-6.061 30.057-8.92l26.4 98.525c-7.533 1.532-13.232 2.958-17.099 4.276-3.867 1.319-9.515 3.763-16.944 7.333l-51.334-86.718"/><path fill="url(#n)" d="m67.742-10.082 34.61.377.038 102.623-34.75-.537z" transform="rotate(-15 1019.821 -1190.111)"/><path fill="#FFF" d="M270.23 272.877c9.231-9.369 17.013-16.5 23.345-21.394 6.331-4.894 15.24-10.36 26.724-16.396l51 88.335-28.974 21.112-72.095-71.657"/><path fill="url(#d)" d="M67.023-9.733h35L99.931 91.393l-32.659.874-.022-8.85z" transform="rotate(-30 650.86 -358.295)"/><path fill="#FFF" d="M209.402 338.52c6.569-11.22 12.441-19.881 17.617-25.985 5.176-6.103 12.753-13.3 22.732-21.593l68.251 75.8-23.952 26.676-84.648-54.898"/><path fill="url(#o)" d="m66.957-9.807 34.759-.013.338 102.53-34.751-.535z" transform="rotate(-42 550.546 -96.257)"/><path fill="#FFF" d="M166.65 425.116c3.901-12.56 7.435-22.516 10.6-29.866 3.165-7.35 8.307-16.449 15.425-27.296l87.431 52.534L265 453l-98.35-27.884"/><path fill="url(#d)" d="M67.556-9.733h35v102l-34.75-.534z" transform="rotate(-59 464.766 69.06)"/><path fill="#FFF" d="M147.764 519.517c-.375-12.996.015-23.453 1.17-31.372 1.156-7.919 3.767-18.038 7.835-30.358l98.049 28.115-6.177 35.314-100.877-1.7"/><path fill="url(#p)" d="M67.28-9.657h35l.305 102.226-35.064-.596z" transform="rotate(-74 422.946 165.019)"/><path fill="#FFF" d="M237.319 786.364c-9.455-8.924-16.574-16.594-21.356-23.01-4.783-6.417-10.092-15.419-15.927-27.007l89.211-49.45 20.604 29.338-72.532 70.13"/><path fill="url(#d)" d="M67.257-9.733h35v102l-34.75-.534z" transform="rotate(-119 353.965 324.21)"/><path fill="#FFF" d="M308.922 850.14c-11.442-6.174-20.303-11.74-26.584-16.7-6.28-4.96-13.738-12.281-22.373-21.964l73.372-70.855 27.495 23.006-51.91 86.513"/><path fill="url(#d)" d="M67.257-9.733h35v102l-34.75-.534z" transform="rotate(-134 338.442 359.91)"/><path fill="#FFF" d="M393.42 892.557c-12.65-3.001-22.65-6.084-30-9.25-7.35-3.165-16.45-8.307-27.297-15.425l52.534-87.43 32.512 15.105-27.75 97"/><path fill="url(#d)" d="M67.257-9.733h35v102l-34.75-.534z" transform="rotate(-149 323.886 391.668)"/><path fill="#FFF" d="M486.686 911.793c-12.996.375-23.453-.015-31.372-1.17-7.919-1.155-18.038-3.767-30.358-7.835l27.506-98.516 35.955 5.725-1.731 101.796"/><path fill="url(#q)" d="M67.265-9.718h35v102L67.231 92.2z" transform="rotate(-164 310.703 421.215)"/><path fill="#FFF" d="M590.697 902.948c-16.654 3.97-28.937 6.56-36.847 7.77s-18.351 1.672-31.322 1.383l-1.78-101.984 35.576-4.418 34.373 97.25"/><path fill="url(#r)" d="M70.78-9.832h35l-.305 102.41-34.446-.945z" transform="rotate(179 293.064 452.856)"/><path fill="#FFF" d="M677.322 873.266c-13.258 6.37-23.579 11.1-30.962 14.189-7.382 3.088-17.401 6.062-30.057 8.92l-26.4-98.525 33.452-12.893 53.967 88.309"/><path fill="url(#s)" d="m71.828-10.228 31.9 1.602v102l-34.751-.534z" transform="rotate(163 276.932 483.975)"/><path fill="#DA251D" d="M433.5 115c14.414 24.749 25.83 42.416 34.25 53 8.42 10.584 20.336 22.251 35.75 35 23.102 16.348 39.352 29.015 48.75 38 9.398 8.985 17.815 19.902 25.25 32.75 7.799 18.923 11.132 37.673 10 56.25-1.132 18.577-6.716 36.744-16.75 54.5-7 11-15.25 21.333-24.75 31-14.25 14.5-24.25 30-29 39.25s-25.353 52.751-13.5 97.5c11.853 44.749 26.067 62.176 57.25 71.5 31.183 9.324 54.879-12.443 69-33.75 3.248-4.9 9.633-25.478 3.75-46.5-1.694-6.053-8.102-19.595-18.75-30.75-5.828-6.105-20.622-15.646-30.5-27.5-9.729-11.675-14.58-25.649-15.5-33.5-1.497-12.774 2.79-27.203 6.75-33.75 5.91-9.77 13.994-16.854 24.25-21.25-8.333 30.333-6.833 51.25 4.5 62.75 10.32 10.472 42.048 29.836 62.75 45.25 13.4 9.978 18.401 17.563 22.75 22.5 11.068 12.564 14.526 26.505 16.5 38.25 4.711 28.03-3.022 50.857-7.25 62.25-9 24.25-18.561 34.601-46.75 55-12.647 9.152-39.097 20.308-68 25.25-35.52 6.073-74.191 4.835-88.75 4.25-54.858-2.203-86.75-13.647-94.5-16.25-36.215-12.164-54.14-26.887-58-31-5.696-6.07-9.78-15.32-12.25-27.75 8.167 10.333 23.583 15.5 46.25 15.5 34 0 47.945-6.833 62.25-12s25.284-16.879 23.5-33.25c-1.784-16.371-10.567-22.073-29.25-31.25s-21.794-5.136-40.227-9.098c-18.433-3.963-27.245-7.312-36.523-11.652-19.866-9.294-27.926-18.778-29.75-21.25-3.736-5.063-11.173-12.774-14-23.75-1.216-4.722-1.466-13.138-.75-25.25 9.167 17 21 29.333 35.5 37 21.75 11.5 21.662 11.51 40.5 12 12.558.327 25.142-2.006 37.75-7-21.011-4.465-35.845-11.132-44.5-20-12.983-13.302-17.775-18.487-22-35.5-4.225-17.013.25-40.75 3.25-40s12.422 35.068 18.75 45c6.328 9.932 12.203 10.228 17.25 11.5 22.26 5.609 34.261.815 37.25 0 5.5-1.5 18.5-16.106 18.5-26.25 0-10.144-13.25-28-19.25-32.5s-35-19.25-40.75-52.75c-1.638-9.543.154-33.28 11.75-54 13.291-23.75 36.336-43.713 38.5-43 1.789.59-4.122 10.314-9.5 21.5-6.25 13-2.25 37 9.5 53.5 7.5 10.532 18.93 18.415 23 19.5 11.25 3 22.25 2.75 30.75 0s8.611-2.741 13.5-6c4.889-3.259 5-3.5 9.75-9.5s8.948-25.896 9.75-36c1.712-21.565-4.435-34.271-5.75-37.25-4.169-9.447-11.33-20.129-15.25-26-9.964-14.924-19.122-15.857-34.25-36.25s-35.083-56.165-38.5-72.75c-2.278-11.057-3.694-22.89-4.25-35.5"/><path fill="#FFF" d="m704.157 387.616 83.878-82.43c39.69 36.183 64.595 67.169 74.714 92.958 10.12 25.789 15.121 70.46 15.005 134.015l-116.968 4.066c-7.021-33.042-14.402-60.981-22.144-83.816-7.742-22.835-19.237-44.433-34.485-64.793"/></g></svg>