<svg xmlns="http://www.w3.org/2000/svg" width="1024" height="1024"><g fill="none" fill-rule="evenodd"><path fill="#F908BB" d="M0 0h1024v1024H0z"/><text fill="#3C3C3C" stroke="#9F9B9E" stroke-width="4" font-family="PingFangSC-Semibold, PingFang SC" font-size="135" font-weight="500" letter-spacing="11.25" transform="translate(39.5 716)">
                    <tspan x="467.178" y="204">library</tspan>
                </text><text fill="#ED49BA" stroke="#FFC700" stroke-width="10" font-family="Arial-Black, Arial Black" font-size="185" font-weight="700" letter-spacing="15.417" transform="translate(39.5 716)">
                    <tspan x=".777" y="204">JAV</tspan>
                </text><g fill="#FFF" stroke="#979797" transform="translate(296 91)"><path d="M441.5 464.5v29H261.053c-5.072-1.379-9.809-5.108-14.235-11.147-4.336-5.916-6.768-11.866-7.279-17.853z"/><path d="m415.22 454.214 26.889 10.863 67.597-167.307c.621-5.22-1.062-11.008-5.003-17.375-3.861-6.236-8.467-10.72-13.827-13.436l-75.655 187.255ZM49.248 210.543c28.712-17.404 61.797-22.773 99.252-16.124v280.698l39.324-38.749c8.115-5.882 15.194-9.568 21.241-11.04 5.93-1.443 10.855-.746 14.76 2.145 3.889 2.88 5.67 7.289 5.402 13.198-.274 6.046-2.677 13.639-7.187 22.782l-42.73 48.525h211.221c2.455 27.588-2.205 48.003-14.062 61.21-11.949 13.308-30.908 18.944-56.833 16.997L291.47 624.5H.5V284.346c3.73-31.769 19.983-56.367 48.748-73.803Z"/><circle cx="149" cy="90" r="89.5"/></g></g></svg>