<?xml version="1.0" encoding="UTF-8"?>
<svg width="1025px" height="1024px" viewBox="0 0 1025 1024" version="1.1" xmlns="http://www.w3.org/2000/svg" xmlns:xlink="http://www.w3.org/1999/xlink">
    <title>Last.fm</title>
    <g id="ICON-新版方图标" stroke="none" stroke-width="1" fill="none" fill-rule="evenodd">
        <g id="Last.fm" transform="translate(0.6332, 0)">
            <rect id="蒙版路径" fill="#D31F27" x="0" y="0" width="1024" height="1024"></rect>
            <g id="编组" transform="translate(212, 345)" fill="#FFFFFF" fill-rule="nonzero">
                <path d="M264.609375,296.835937 L242.578125,237.070312 C242.578125,237.070312 206.835938,276.914062 153.28125,276.914062 C105.820313,276.914062 72.1875,235.664062 72.1875,169.6875 C72.1875,85.1953125 114.84375,54.9609375 156.679688,54.9609375 C234.609375,54.9609375 244.335938,117.421875 274.921875,213.046875 C296.953125,279.726562 338.203125,333.28125 457.03125,333.28125 C542.226562,333.28125 600,307.148438 600,238.476563 C600,153.046875 526.523438,144.023438 465.234375,130.546875 C435,123.632812 426.09375,111.328125 426.09375,90.703125 C426.09375,67.3828125 444.609375,53.5546875 474.84375,53.5546875 C507.890625,53.5546875 525.703125,65.9765625 528.398438,95.5078125 L597.070313,87.3046875 C591.5625,25.4296875 548.90625,0 478.828125,0 C416.953125,0 356.484375,23.3203125 356.484375,98.3203125 C356.484375,145.078125 379.21875,174.609375 436.171875,188.320312 C488.789062,200.742188 529.6875,204.492188 529.6875,241.875 C529.6875,267.304688 504.960938,277.617188 458.203125,277.617188 C388.828125,277.617188 359.882812,241.171875 343.476562,191.015625 C305.976562,77.578125 292.382813,0 154.453125,0 C53.5546875,0 0,63.8671875 0,172.5 C0,276.914062 53.5546875,333.28125 149.882812,333.28125 C227.460938,333.28125 264.609375,296.835937 264.609375,296.835937 L264.609375,296.835937 Z" id="路径"></path>
            </g>
        </g>
    </g>
</svg>