<?xml version="1.0" encoding="UTF-8"?>
<svg width="1025px" height="1024px" viewBox="0 0 1025 1024" version="1.1" xmlns="http://www.w3.org/2000/svg" xmlns:xlink="http://www.w3.org/1999/xlink">
    <title>Linux</title>
    <g id="ICON-新版方图标" stroke="none" stroke-width="1" fill="none" fill-rule="evenodd">
        <g id="Linux" transform="translate(0.6332, 0)">
            <rect id="蒙版路径" fill="#FFFFFF" x="0" y="0" width="1024" height="1024"></rect>
            <g id="编组" transform="translate(207, 142)" fill-rule="nonzero">
                <path d="M320.537328,0 C315.755429,0 310.819275,0.246808003 305.759718,0.647870104 C175.352707,10.92124 209.936634,148.948439 207.962172,194.947222 C205.586648,228.667323 198.706883,255.23 175.537812,288.147975 C148.234712,320.572335 109.917818,372.988117 91.7466021,427.625169 C83.1700352,453.293169 79.0977082,479.578187 82.8923764,504.41321 C81.4740432,505.548624 80.3077848,506.967047 79.4679202,508.578091 C71.4466702,516.846148 65.6158386,527.119518 59.0445836,534.462047 C52.9052423,540.601388 44.0818674,542.699253 34.4563683,546.802431 C24.8000177,550.998162 14.1564357,555.10134 7.80113795,567.811935 C5.02455117,573.611916 3.60540696,579.936363 3.72881096,586.353363 C3.72881096,592.492704 4.5617867,598.724598 5.42561399,602.889478 C7.21496948,615.199011 9.0043257,625.379828 6.62880102,632.81491 C-1.02223696,653.793563 -1.97861743,668.170111 3.3894505,678.628586 C8.7575177,688.932807 19.8947149,693.097687 32.3585024,697.170014 C57.3786314,703.340206 91.2838376,701.334894 117.969919,715.64974 C146.537909,730.057138 175.537812,736.350735 198.676033,730.149692 C214.903639,726.601831 228.601466,715.865697 235.943994,700.995533 C254.053508,700.90298 273.890676,692.696624 305.667165,690.691312 C327.231987,688.901957 354.226578,698.928519 385.200943,696.830654 C385.972217,700.995533 387.144553,702.969995 388.717952,707.134875 L388.810505,707.227428 C400.873231,731.229475 423.147624,742.150715 446.933715,740.268807 C470.719806,738.417749 496.048445,723.732691 516.564334,699.977452 C536.03129,676.376467 568.486501,666.53501 589.927919,653.608457 C600.664053,647.469116 609.333173,639.139356 609.950192,627.292587 C610.659764,614.952203 603.810851,602.241607 587.922607,584.810814 L587.922607,581.818271 L587.830054,581.725719 C582.58539,575.555527 580.117313,565.220454 577.402429,553.157729 C574.780097,540.786494 571.787554,528.908873 562.223756,520.887624 L562.131203,520.887624 C560.310996,519.221672 558.336535,518.82061 556.331222,516.722744 C554.606042,515.51819 552.571923,514.833013 550.46954,514.748283 C563.766304,475.320754 558.614194,436.078333 545.132324,400.784833 C528.688762,357.284978 499.935666,319.399998 478.031484,293.330936 C453.474119,262.325721 429.41037,232.955606 429.873134,189.394049 C430.70611,123.002781 437.184812,0.185105641 320.537328,0 L320.537328,0 Z M336.857487,105.04752 L337.258549,105.04752 C343.829804,105.04752 349.475529,106.960281 355.27551,111.156012 C361.168043,115.320892 365.456327,121.398531 368.819082,127.599574 C372.058433,135.589973 373.693534,141.760165 373.940341,149.93567 C373.940341,149.31865 374.125448,148.701631 374.125448,148.115463 L374.125448,151.323963 C374.057528,151.113979 374.016073,150.896342 374.002044,150.676093 L373.87864,149.93567 C373.816502,157.433255 372.242562,164.841263 369.250996,171.716448 C367.810346,175.584555 365.571358,179.105969 362.679741,182.05152 C361.805542,181.557902 360.898442,181.124968 359.964856,180.75578 C356.725505,179.367487 353.825515,178.781318 351.172332,176.652602 C348.983782,175.778488 346.723073,175.097178 344.415972,174.616439 C345.927669,172.796232 348.889361,170.513261 350.030847,168.507948 C351.665948,164.559025 352.560626,160.363294 352.745731,156.105862 L352.745731,155.519694 C352.815522,151.329762 352.179326,147.157985 350.863823,143.17931 C349.475529,139.01443 347.747875,136.978267 345.218097,132.875088 C342.626617,130.838925 340.065987,128.802761 336.98089,128.802762 L336.487275,128.802762 C333.618136,128.802762 331.057506,129.728291 328.404323,132.875088 C325.474483,135.732365 323.301126,139.273347 322.079876,143.17931 C320.441337,147.099233 319.501626,151.275725 319.30329,155.519694 L319.30329,156.105862 C319.364991,158.851598 319.550098,161.628184 319.920309,164.343069 C313.966073,162.276055 306.407588,160.178189 301.193776,158.111174 C300.883679,156.077963 300.698227,154.027688 300.638458,151.971833 L300.638458,151.354814 C300.391487,143.200455 301.972681,135.0942 305.266103,127.630425 C307.795882,120.874064 312.423526,115.104935 318.532016,111.186863 C323.809648,107.200724 330.243661,105.045221 336.857487,105.04752 L336.857487,105.04752 Z M374.125448,225.613077 C385.200943,269.328889 411.054048,332.820166 427.682716,363.609425 C436.506091,380.083838 454.060287,414.791169 461.680474,456.902731 C466.493224,456.748476 471.83044,457.458048 477.507017,458.877192 C497.436738,407.325237 460.662392,351.916911 443.910321,336.522281 C437.092259,330.321238 436.752899,326.18721 440.115653,326.18721 C458.286869,342.661623 482.227215,374.68492 490.896334,411.243308 C494.876108,427.748573 495.801637,445.30277 491.544204,462.764413 C493.611219,463.62824 495.709084,464.646322 497.868651,464.831428 C529.706843,481.305841 541.461059,493.769629 535.815334,512.249355 L535.815334,510.922763 C533.933425,510.83021 532.113219,510.922763 530.231309,510.922763 L529.768545,510.922763 C534.42704,496.515364 524.15367,485.47072 496.912272,473.161187 C468.683642,460.820803 446.13159,462.795264 442.27522,487.506884 C442.059263,488.833475 441.905009,489.543047 441.750754,491.671764 C439.652889,492.381336 437.46247,493.306865 435.302903,493.646225 C422.03699,501.914282 414.879567,514.285518 410.838091,530.266316 C406.827466,546.709878 405.593428,565.930027 404.513644,587.926762 L404.513644,588.019315 C403.910454,597.6129 399.857497,611.752691 395.61642,626.430097 L395.144581,628.062929 L394.672188,629.698963 C348.395746,662.771193 284.225748,677.14774 229.650398,640.003184 C226.227468,634.020184 222.060254,628.494997 217.248311,623.559622 C214.951524,619.719931 212.091693,616.246536 208.764297,613.2554 C214.379172,613.2554 219.191921,612.360722 223.109994,611.188386 C227.546362,609.130459 231.016775,605.439001 232.797196,600.884165 C236.1291,592.646959 232.797196,579.381046 222.153614,565.004498 C211.510033,550.597099 193.431369,534.307792 166.992096,518.080186 C147.555991,505.770653 136.573048,491.23985 131.513491,475.012245 C126.423082,458.537832 127.101803,441.538952 131.050726,424.262414 C138.609212,391.251886 157.983616,359.166887 170.354851,339.021209 C173.655903,337.015897 171.496336,343.186089 157.767659,369.070045 C145.550679,392.239117 122.566713,446.104894 154.003842,487.969648 C155.190851,457.424085 161.955722,427.353345 173.964413,399.242285 C191.364355,359.814756 227.737638,291.140517 230.606778,236.719423 C232.087623,237.830057 237.301436,240.884302 239.522705,242.951317 C246.248215,247.054495 251.24607,253.224687 257.724772,257.297014 C264.234325,263.498057 272.440681,267.632085 284.750214,267.632086 C285.953402,267.724639 287.064036,267.817192 288.17467,267.817192 C300.854415,267.817192 310.66502,263.683163 318.902228,259.549134 C327.849006,255.415106 334.975578,249.244913 341.731938,247.208749 L341.886193,247.208749 C356.293592,243.04387 367.677596,234.806663 374.125448,225.613077 Z M246.587575,106.867729 C250.968412,106.867729 254.917335,108.348575 258.897109,111.032608 C263.401349,115.012382 267.041763,119.917685 269.509839,125.378305 C272.286426,131.517646 273.859825,137.74954 274.230036,145.955896 L274.230036,146.0793 C274.445993,150.213328 274.415142,152.280343 274.168334,154.285655 L274.168334,156.753733 C273.242805,156.969689 272.440681,157.30905 271.607704,157.494155 C266.918358,159.190958 263.15454,161.659035 259.483277,163.664347 C259.853488,160.918612 259.88434,158.142025 259.575829,155.427141 L259.575829,154.964376 C259.205618,150.861199 258.372642,148.825035 257.046051,144.691006 C256.084083,141.54675 254.318941,138.707636 251.924792,136.4538 C250.388743,135.056869 248.350924,134.344189 246.279065,134.479339 L245.631195,134.479339 C243.440777,134.664444 241.620571,135.744228 239.892917,138.551665 C237.924896,140.940263 236.645004,143.820018 236.190801,146.881425 C235.353239,150.216725 235.113005,153.674007 235.481229,157.093093 L235.481229,157.525007 C235.851441,161.689886 236.622715,163.72605 237.980157,167.829227 C239.36845,171.963256 240.9727,173.99942 243.070566,176.097285 C243.409926,176.374943 243.718436,176.652602 244.119498,176.837708 C241.959931,178.596213 240.509935,178.997275 238.689729,181.033438 C237.534641,182.053059 236.146849,182.77344 234.648253,183.131304 C231.441432,179.269571 228.601167,175.117619 226.164239,170.729217 C223.247491,164.246181 221.623202,157.256496 221.38234,150.151627 C220.871432,143.187334 221.709449,136.189888 223.850417,129.543185 C225.549729,123.481514 228.526671,117.853727 232.581239,113.037921 C236.530162,108.934743 240.602489,106.867729 245.476941,106.867729 L246.587575,106.867729 Z" id="形状" fill="#000000"></path>
                <g transform="translate(10.6804, 159.4995)" id="路径">
                    <path d="M277.093166,0 C287.304834,0 299.676069,2.00531268 314.577083,12.3095334 C323.616415,18.4797256 330.712136,20.6084422 347.063145,26.7477828 L347.155698,26.7477828 C355.022693,30.9435138 359.650337,34.9541384 361.902458,39.0573162 L361.902458,35.0158408 C364.142099,39.553886 364.321913,44.8359437 362.396073,49.5157925 C358.601405,59.1104416 346.476977,69.3838115 329.57065,75.5231521 L329.57065,75.5848544 C321.302593,79.7497339 314.114319,85.8582244 305.661156,89.9305514 C297.146291,94.0954308 287.520791,98.9390319 274.439983,98.1677578 C269.740981,98.4110634 265.040972,97.7081603 260.618752,96.1007435 C257.20175,94.2416405 253.885756,92.2026131 250.684744,89.992253 C244.668806,85.8273735 239.485845,79.7497339 231.803955,75.6465561 L231.803955,75.4923013 L231.649701,75.4923013 C219.309316,67.9029649 212.645509,59.6966093 210.485941,53.557268 C208.357225,45.2892107 210.331687,39.0881671 216.440177,35.0466916 C223.350792,30.8818122 228.163542,26.6860812 231.341191,24.6807685 C234.549691,22.3977977 235.752878,21.5339704 236.77096,20.6392931 L236.832662,20.6392931 L236.832662,20.5467399 C242.046474,14.3148461 250.283681,6.07763894 262.716618,2.00531268 C267.004902,0.894678108 271.786801,0 277.093166,0 L277.093166,0 Z" fill="#F9C105"></path>
                    <path d="M430.885206,342.476517 C432.026692,361.017944 441.467086,380.885963 458.095753,384.95829 C476.236119,389.092319 502.336031,374.68492 513.349824,361.357305 L519.859377,361.079647 C529.57743,360.832839 537.660382,361.388156 545.990141,369.316853 L546.082694,369.409405 C552.499694,375.548747 555.492237,385.791266 558.14542,396.434847 C560.767752,408.806082 562.896468,420.498596 570.763462,429.321972 C585.757029,445.580428 590.662332,457.272943 590.384674,464.492067 L590.477226,464.306961 L590.477226,464.862279 L590.384674,464.492067 C589.921909,472.575018 584.677246,476.709047 575.020895,482.848389 C555.58479,495.219624 521.155117,504.814273 499.220084,531.284397 C480.15419,554.021555 456.923417,566.423642 436.407528,568.027892 C415.92249,569.662993 398.244889,561.8577 387.848115,540.323729 L387.693861,540.231176 C381.215159,527.859941 383.991746,508.608941 389.421514,488.093052 C394.851283,467.48461 402.625726,446.59851 403.70551,429.537928 C404.846995,407.510343 406.050183,388.351895 409.721447,373.574286 C413.423562,359.228589 419.223543,348.98607 429.496913,343.21694 L430.885206,342.538219 L430.885206,342.476517 Z" fill="#F9C105"></path>
                    <path d="M97.2320641,343.988214 L97.5405737,343.988214 C99.1756744,343.988214 100.779925,344.142468 102.384174,344.420127 C113.984135,346.11693 124.164953,354.693497 133.944707,367.62005 L162.019082,418.956049 L162.111635,419.048602 C169.608418,435.492164 185.373259,451.874024 198.793427,469.582476 C212.182744,488.031351 222.548667,504.474913 221.283777,518.018484 L221.283777,518.20359 C219.525273,541.156705 206.506167,553.620493 186.576447,558.124733 C166.677577,562.289613 139.682986,558.186435 112.688396,543.809888 C82.8246655,527.273773 47.3460603,529.340787 24.5472004,525.237609 C13.1631959,523.201446 5.69726359,519.036566 2.24195516,512.866374 C-1.18250173,506.727033 -1.24420337,494.324947 6.03662333,474.919692 L6.03662333,474.827139 L6.09832569,474.734586 C9.70788822,464.430365 7.02385462,451.503812 5.26534922,440.212361 C3.56854619,427.841126 2.70471962,418.33903 6.59194097,411.212458 C11.5280945,400.908237 18.8089212,398.902924 27.8482526,394.768896 C36.9492863,390.604016 47.6237184,388.537002 56.1077328,380.299795 L56.1694352,380.299795 L56.1694352,380.207242 C64.0672811,371.939185 69.8981128,361.665815 76.7778767,354.354137 C82.6395591,348.153094 88.5012416,343.988214 97.2320641,343.988214 L97.2320641,343.988214 Z" fill="#F9C105"></path>
                    <path d="M318.094093,64.0465951 C304.673925,70.2476381 288.939934,80.5518588 272.187863,80.5518588 C255.466642,80.5518588 242.262431,72.3146524 232.729484,66.1753111 C227.947586,62.0412824 224.091215,57.9072538 221.191225,55.8402395 C216.131667,51.7062109 216.748687,45.5360187 218.908253,45.536018 C222.271008,46.0296333 222.888027,49.7008975 225.047595,51.7370617 C228.009287,53.7732252 231.680551,57.876403 236.184792,62.0104316 C245.162422,68.1806237 257.163445,76.4178302 272.157013,76.4178302 C287.119729,76.4178302 304.643075,68.1806237 315.286656,62.0412824 C321.302593,57.876403 329.015333,51.7370617 335.278078,47.6338839 C340.090828,43.4073021 339.874871,39.3658259 343.885496,39.3658259 C347.86527,39.8594412 344.934429,43.4998545 339.350405,49.6391958 C332.507307,54.8142705 325.402172,59.6334059 318.063242,64.0774459 L318.063242,64.0465951 L318.094093,64.0465951 Z" fill="#000000"></path>
                    <path d="M284.713353,15.1786727 L284.713353,14.4999517 C284.528248,13.9137833 285.114416,13.2042115 285.608031,12.9574035 C287.891002,11.6308125 291.161204,12.1244278 293.629281,13.0808075 C295.572892,13.0808075 298.565435,15.1478219 298.256925,17.245687 C298.07182,18.7573844 295.634593,19.2818505 294.092045,19.2818505 C292.395242,19.2818505 291.253757,17.9552595 289.74206,17.1839853 C288.13781,16.6286677 285.237819,16.9371773 284.713353,15.1786727 L284.713353,15.1786727 Z" fill="#000000"></path>
                    <path d="M267.714474,15.1786727 C267.097454,16.9680282 264.228315,16.6903701 262.593214,17.2148362 C261.143219,17.9861103 259.940032,19.3127013 258.304931,19.3127013 C256.731532,19.3127013 254.263455,18.7265328 254.078349,17.2148362 C253.80069,15.1786727 256.793233,13.1116584 258.705993,13.1116584 C261.204921,12.1552786 264.38257,11.6616633 266.696392,12.9574035 C267.282561,13.2350624 267.807027,13.8829325 267.621921,14.4999517 L267.621921,15.1478219 L267.714474,15.1478219 L267.714474,15.1786727 Z" fill="#000000"></path>
                </g>
            </g>
        </g>
    </g>
</svg>