<?xml version="1.0" encoding="UTF-8"?>
<svg width="1025px" height="1024px" viewBox="0 0 1025 1024" version="1.1" xmlns="http://www.w3.org/2000/svg" xmlns:xlink="http://www.w3.org/1999/xlink">
    <title>Mac.OS</title>
    <g id="ICON-新版方图标" stroke="none" stroke-width="1" fill="none" fill-rule="evenodd">
        <g id="Mac.OS" transform="translate(0.6332, 0)" fill-rule="nonzero">
            <rect id="蒙版路径" fill="#FFFFFF" x="0" y="0" width="1024" height="1024"></rect>
            <path d="M551.824904,376.925396 L551.824904,370.315302 L531.369344,371.744511 C525.56318,372.101814 521.186226,373.352372 518.238482,375.406861 C515.290737,377.550675 513.861528,380.409094 513.861528,384.160769 C513.861528,387.823118 515.290737,390.681537 518.238482,392.825351 C521.096901,394.969165 525.027227,396.041072 529.850809,396.041072 C532.977205,396.041072 535.835623,395.594444 538.515391,394.611863 C541.195159,393.629281 543.517624,392.378723 545.482787,390.681537 C547.44795,388.984351 548.966485,387.019188 550.127718,384.696722 C551.288951,382.284931 551.824904,379.694489 551.824904,376.925396 L551.824904,376.925396 Z M511.539062,111.539062 C288.314409,111.539062 111.539062,288.314409 111.539062,511.539062 C111.539062,734.763716 288.314409,911.539062 511.539062,911.539062 C734.763716,911.539062 911.539062,734.763716 911.539062,511.539062 C911.539062,288.314409 734.763716,111.539062 511.539062,111.539062 Z M589.163002,348.609183 C591.038839,343.338973 593.718607,338.783368 597.202305,334.942368 C600.686003,331.190693 604.79498,328.242948 609.618562,326.18846 C614.442144,324.133971 619.891005,323.151389 625.87582,323.151389 C631.235355,323.151389 636.148263,323.95532 640.435891,325.56318 C644.812845,327.171041 648.475195,329.314855 651.60159,332.083949 C654.727986,334.763716 657.139777,337.979438 659.015615,341.552461 C660.802126,345.214811 661.874033,349.055811 662.231336,353.075463 L646.152729,353.075463 C645.706101,350.842323 644.991497,348.787834 644.008915,346.911997 C642.937008,345.036159 641.597124,343.338973 639.899938,341.909764 C638.202752,340.480554 636.148263,339.408647 633.915123,338.604717 C631.592658,337.800786 629.002216,337.443484 626.143797,337.443484 C622.749424,337.443484 619.623029,338.158089 616.853935,339.497973 C614.084842,340.837857 611.673051,342.80302 609.707888,345.304136 C607.742725,347.805253 606.22419,350.842323 605.152283,354.504672 C604.080376,358.077696 603.544422,362.097347 603.544422,366.474301 C603.544422,371.029907 604.080376,375.138884 605.152283,378.711908 C606.22419,382.284931 607.742725,385.322001 609.797213,387.823118 C611.762376,390.324234 614.174167,392.200072 617.032586,393.539956 C619.80168,394.87984 622.928075,395.505119 626.233122,395.505119 C631.771309,395.505119 636.237589,394.25456 639.631961,391.664118 C643.115659,389.073676 645.348799,385.322001 646.420706,380.319768 L662.499313,380.319768 C662.052685,384.696722 660.802126,388.716374 658.836963,392.378723 C656.8718,396.041072 654.281358,399.078142 651.244288,401.668585 C648.117892,404.259027 644.455543,406.22419 640.167915,407.564074 C635.969612,408.993283 631.235355,409.707888 626.233122,409.707888 C620.248308,409.707888 614.799447,408.725306 609.886539,406.760143 C605.062957,404.79498 600.864654,401.936561 597.380956,398.184887 C593.897258,394.433212 591.21749,389.966932 589.341653,384.607397 C587.465816,379.247861 586.483234,373.263046 586.483234,366.563627 C586.393908,359.864208 587.287164,353.968719 589.163002,348.609183 L589.163002,348.609183 Z M360.668138,324.312622 L376.746745,324.312622 L376.746745,338.604717 L377.014721,338.604717 C377.997303,336.192926 379.247861,334.049112 380.855722,332.2626 C382.463582,330.386762 384.250094,328.778902 386.304583,327.439018 C388.359071,326.099134 390.681537,325.116552 393.093328,324.401948 C395.594444,323.687343 398.184887,323.330041 400.95398,323.330041 C406.849469,323.330041 411.851702,324.75925 415.871354,327.528343 C419.980331,330.386762 422.83875,334.406414 424.535936,339.676624 L424.982564,339.676624 C426.054471,337.175507 427.483681,334.853042 429.270192,332.887879 C431.056704,330.922716 433.021867,329.136204 435.344333,327.706995 C437.577473,326.277785 440.167915,325.205878 442.847682,324.491273 C445.52745,323.776669 448.385869,323.330041 451.422939,323.330041 C455.531916,323.330041 459.283591,323.95532 462.677964,325.295204 C466.072336,326.635088 468.930755,328.510925 471.342546,330.922716 C473.754337,333.334507 475.630175,336.282251 476.880733,339.676624 C478.131291,343.070996 478.845896,346.911997 478.845896,351.1103 L478.845896,408.546655 L462.052685,408.546655 L462.052685,355.219277 C462.052685,349.68109 460.623475,345.393462 457.765056,342.356392 C454.906637,339.319322 450.886986,337.800786 445.616776,337.800786 C443.026334,337.800786 440.703868,338.247414 438.470728,339.14067 C436.326914,340.033926 434.451077,341.284485 432.932542,342.981671 C431.414007,344.589531 430.163448,346.554694 429.270192,348.87716 C428.376937,351.1103 427.930309,353.611416 427.930309,356.38051 L427.930309,408.725306 L411.4944,408.725306 L411.4944,353.879393 C411.4944,351.467602 411.137097,349.234462 410.333167,347.269299 C409.618562,345.304136 408.546655,343.60695 407.117446,342.17774 C405.688236,340.748531 403.99105,339.676624 402.025887,338.962019 C400.060724,338.247414 397.827584,337.800786 395.326468,337.800786 C392.736025,337.800786 390.324234,338.247414 388.091095,339.229996 C385.857955,340.212577 383.982117,341.552461 382.463582,343.249648 C380.855722,344.946834 379.605163,347.001322 378.801233,349.323788 C377.997303,351.646253 376.568093,354.14737 376.568093,356.916463 L376.568093,408.635981 L360.668138,408.635981 L360.668138,324.312622 L360.668138,324.312622 Z M397.202305,727.974971 C323.419366,727.974971 277.238035,676.702082 277.238035,594.969165 C277.238035,513.236249 323.419366,461.784708 397.202305,461.784708 C470.985244,461.784708 516.987924,513.236249 516.987924,594.969165 C516.987924,676.702082 470.895918,727.974971 397.202305,727.974971 Z M533.691809,408.45733 C531.012042,409.171934 528.153623,409.529237 525.384529,409.529237 C521.186226,409.529237 517.345226,408.903958 513.861528,407.742725 C510.37783,406.581492 507.34076,404.884306 504.839643,402.651166 C502.338527,400.507352 500.373364,397.827584 498.944154,394.790514 C497.514945,391.664118 496.80034,388.269746 496.80034,384.518071 C496.80034,377.104047 499.569433,371.297883 505.10762,367.188906 C510.645807,362.990603 518.595784,360.578812 529.046878,359.953533 L551.824904,358.613649 L551.824904,352.092881 C551.824904,347.269299 550.306369,343.517624 547.179974,341.016508 C544.053578,338.515391 539.76595,337.175507 534.049112,337.175507 C531.815972,337.175507 529.672158,337.443484 527.706995,337.979438 C525.741832,338.515391 524.044645,339.408647 522.52611,340.391229 C521.007575,341.463136 519.757017,342.713694 518.774435,344.232229 C517.791854,345.661439 517.077249,347.358625 516.719947,349.145137 L500.909317,349.145137 C500.998643,345.393462 501.891899,341.999089 503.67841,338.783368 C505.464922,335.567647 507.787388,332.887879 510.735132,330.565414 C513.682877,328.242948 517.2559,326.456436 521.275552,325.116552 C525.295204,323.865994 529.761483,323.151389 534.49574,323.151389 C539.587298,323.151389 544.232229,323.776669 548.430532,325.116552 C552.628835,326.456436 556.201858,328.242948 559.149603,330.654739 C562.097347,333.06653 564.330487,335.924949 565.938348,339.319322 C567.546209,342.713694 568.350139,346.554694 568.350139,350.663672 L568.350139,408.546655 L552.271532,408.546655 L552.271532,394.522537 L551.824904,394.522537 C550.663672,396.755677 549.145137,398.899491 547.269299,400.686003 C545.393462,402.561841 543.338973,404.080376 541.105833,405.420259 C538.962019,406.760143 536.460903,407.742725 533.691809,408.45733 L533.691809,408.45733 Z M639.810612,727.974971 C583.535489,727.974971 545.304136,698.497526 542.713694,652.22687 L579.337187,652.22687 C582.195606,678.667245 607.742725,696.175061 642.758357,696.175061 C676.344779,696.175061 700.462689,678.667245 700.462689,654.727986 C700.462689,634.004449 685.813292,621.498866 651.869567,612.923609 L618.819098,604.705655 C571.297883,592.914677 549.68109,571.297883 549.68109,535.746298 C549.68109,491.976758 587.912443,461.606057 642.311729,461.606057 C695.549782,461.606057 732.619902,492.155409 734.049112,536.1036 L697.782921,536.1036 C695.281805,509.663225 673.665012,493.405967 641.507799,493.405967 C609.529237,493.405967 587.37649,509.841876 587.37649,533.602484 C587.37649,552.360858 601.311282,563.437231 635.255007,572.012488 L663.124592,578.979884 C716.183993,591.84277 737.979438,612.744958 737.979438,650.261707 C737.979438,698.140224 700.194712,727.974971 639.810612,727.974971 L639.810612,727.974971 Z M397.202305,494.5672 C346.64402,494.5672 315.112086,533.334507 315.112086,594.87984 C315.112086,656.335847 346.733346,695.013828 397.202305,695.013828 C447.581939,695.013828 479.292524,656.246521 479.292524,594.87984 C479.292524,533.334507 447.492613,494.5672 397.202305,494.5672 L397.202305,494.5672 Z" id="形状" fill="#000000"></path>
        </g>
    </g>
</svg>