<?xml version="1.0" encoding="UTF-8"?>
<svg width="1025px" height="1024px" viewBox="0 0 1025 1024" version="1.1" xmlns="http://www.w3.org/2000/svg" xmlns:xlink="http://www.w3.org/1999/xlink">
    <title>Migu.video</title>
    <g id="ICON-新版方图标" stroke="none" stroke-width="1" fill="none" fill-rule="evenodd">
        <g id="Migu.video" transform="translate(0.6332, 0)">
            <rect id="蒙版路径" fill="#FFFFFF" x="0" y="0" width="1024" height="1024"></rect>
            <g id="编组" transform="translate(187.2597, 224.5051)">
                <path d="M555.822944,22.8778169 C556.602971,21.7077766 557.773011,20.5377362 556.602971,18.587669 C555.822944,18.9776825 555.042917,19.7577094 554.26289,20.5377362 L535.542245,36.5282873 L345.6057,197.993851 L177.509908,341.128784 L20.3344916,474.903393 C2.78388678,489.723904 -4.23635513,513.904737 2.78388678,535.74549 C9.80412869,557.976256 29.3048007,573.576794 52.3155936,575.526861 C66.7460909,576.696901 81.1765881,572.01674 92.0969644,562.656417 L101.067274,555.246162 L312.454558,375.449966 L523.451829,196.043784 L544.122541,178.883193 L544.122541,178.493179 C544.902568,178.493179 544.902568,179.273206 544.902568,176.933126 L544.902568,60.3191071 C544.512554,47.0586501 548.022675,33.7981932 555.822944,22.8778169 Z" id="路径-1" fill="#1A9DE0"></path>
                <g transform="translate(0, 0.0938)" fill="#D60419">
                    <path d="M538.584716,525.084192 C541.31481,555.115227 567.835724,577.736007 598.646786,575.395926 C629.457847,573.055846 652.078627,546.924945 649.738546,516.503897 L649.738546,74.2286563 C648.178492,75.3986966 648.178492,77.3487638 648.178492,79.298831 C645.448398,91.3892477 638.81817,102.309624 629.067834,110.109893 L594.746651,138.580874 L544.434918,180.702325 C542.094837,181.872366 540.14477,183.822433 538.584716,186.162513 L538.584716,186.94254 L538.584716,186.94254 C538.584716,188.502594 538.974729,190.062648 538.584716,191.622702 L538.584716,515.72387 C538.584716,518.843977 538.584716,521.964085 538.584716,525.084192 Z" id="路径-2"></path>
                    <path d="M44.8515455,1.11825388 C19.1106585,6.1884286 0.39001344,28.8092081 0,55.330122 L0,427.01293 C1.17004032,426.622916 2.34008064,425.84289 3.12010752,425.062863 L107.643709,334.969758 C109.593777,333.409704 110.373803,331.069624 110.373803,329.119557 L110.373803,153.223495 C111.543844,151.663442 111.15383,149.713374 111.543844,147.373294 L111.543844,56.8901757 C111.933857,38.9495575 103.743575,21.7889662 88.9230642,11.2586033 L82.6828492,7.35846892 C71.3724594,0.728240444 57.7219891,-1.61184019 44.8515455,1.11825388 Z" id="路径-3"></path>
                </g>
                <path d="M113.141042,162.911214 L115.481122,164.081254 L199.724025,215.173015 C214.934549,224.923351 234.825235,225.313364 250.425772,216.343055 C266.416323,206.982732 276.946686,189.432128 278.116727,169.931456 C280.456807,147.310676 269.536431,125.07991 250.815786,114.549547 C202.454119,84.9085259 153.702439,55.2675045 104.950759,26.0164965 C101.050625,23.2864024 97.1504907,20.9463218 92.8603428,18.6062412 C93.6403697,18.9962546 93.6403697,20.1662949 93.6403697,20.1662949 C96.7604772,22.5063755 99.1005579,25.2364696 101.440638,28.3565771 C109.240907,38.4969266 113.141042,50.9773566 113.141042,63.8478001 L113.141042,162.911214 L113.141042,162.911214 Z" id="路径-4" fill="#DA1E30"></path>
                <path d="M630.633159,104.172678 C641.163522,94.4223422 647.793751,81.1618852 649.353805,66.7313879 L649.353805,66.7313879 C650.133831,60.8811863 650.133831,55.4209982 649.743818,49.5707966 C647.403737,33.5802456 638.433428,18.7597349 624.782958,9.39941233 C611.912514,0.429103217 595.141936,-2.30099086 579.931412,1.98915698 C569.011036,5.49927793 559.2607,12.1295064 551.460431,20.7098021 C549.900377,24.6099365 547.560297,27.3400305 545.61023,30.8501515 C540.930068,40.6004875 538.589988,51.5208638 538.980001,62.8312535 L538.980001,175.155124 C538.589988,178.665245 538.589988,182.175366 538.980001,185.685487 L540.150041,184.90546 L630.633159,104.172678 Z" id="路径-5" fill="#1684C8"></path>
            </g>
        </g>
    </g>
</svg>