<svg xmlns="http://www.w3.org/2000/svg" width="1025" height="1024"><g fill="none" fill-rule="evenodd"><path fill="#FFF" d="M.398 0h1024v1024H.398z"/><path fill="#8446F1" d="M509.203 866.997c-4.91-2.455-33.91-17.455-87-45a13.621 13.621 0 0 1-5-5c-1.232-2.113-1.899-4.446-2-7l-1-100c1.071-3.105 2.405-4.772 4-5 1.595-.228 4.929.772 10 3l81 45c3.195 2.002 6.593 3.003 10.195 3.003 3.601 0 7.203-1.001 10.805-3.003l193-113 116-78v110c.565 7.244-.101 12.911-2 17-1.898 4.089-5.565 7.756-11 11-190 109.333-287 165-291 167-6 3.003-10.218 3.003-14 3.003-7.274 0-10-2.003-12-3.003"/><path fill="#8E50FB" d="m738.398 751-5-460c.388-10.35 2.054-16.35 5-18 2.945-1.65 9.611-.316 20 4l60.996 33.25c6.82 3.507 11.487 7.84 14 13 2.514 5.16 4.515 13.743 6.004 25.75v320c0 10.667-1 17.667-3 21-2 3.333-10 9.333-24 18M455.398 376l207 117c8.666 5.333 13 10.667 13 16s-4.334 10.667-13 16l-201 119c-10.092 5.348-17.426 6.682-22 4-4.575-2.682-6.909-9.682-7-21V391c.717-7.424 3.05-12.424 7-15 3.949-2.576 9.282-2.576 16 0"/><path fill="#712BDD" d="m453.398 375 134 76c3.333 2.532 5 5.532 5 9s-1.667 6.801-5 10l-155 85V389c2.098-6.992 4.432-11.325 7-13 2.567-1.675 7.234-2.008 14-1"/><path fill="#6900C7" d="M440.632 445.812 518.398 495c2 1.667 3 3.667 3 6s-1 4.667-3 7l-86 47V451.588c.256-2.859 1.092-4.784 2.506-5.776 1.414-.992 3.323-.992 5.728 0"/><path fill="#A577FD" d="M530.398 155c4.91 2.455 33.91 17.455 87 45a13.621 13.621 0 0 1 5 5c1.232 2.113 1.899 4.446 2 7l1 100c-1.072 3.105-2.405 4.772-4 5-1.596.228-4.93-.772-10-3l-81-45c-3.667-2-7.334-3-11-3-3.667 0-7 1-10 3l-193 113-116 85V350c-.566-7.244.101-12.911 2-17 1.898-4.089 5.565-7.756 11-11 190-109.333 287-165 291-167 6-3.003 10.218-3.003 14-3.003 7.274 0 10 2.003 12 3.003"/><path fill="#7F3EEA" d="m313.398 384-7 22-1 324c-1.334 4.667-3.334 8-6 10-2.667 2-7.667 2.667-15 2l-64-36c-6.82-3.507-11.487-7.84-14-13-2.514-5.16-4.18-13.826-5-26l-1-198c-.078-4.577 1.255-9.243 4-14 2.744-4.757 6.744-8.757 12-12l97-59"/></g></svg>