<svg xmlns="http://www.w3.org/2000/svg" width="1025" height="1024"><g fill="none" fill-rule="evenodd" transform="translate(.633)"><path fill="#FFF" d="M0 0h1024v1024H0z"/><path fill="#18D24A" d="M0 380c216.03-.91 403.03 55.09 561 168 157.97 112.91 271.303 271.577 340 476H0z"/><rect width="339" height="304" x="200" y="604" fill="#FFF" rx="27"/><path fill="#A0A0A0" d="M451 633h61v244h-61z"/><path fill="#FFF" d="M467 653h30v48h-30z"/><path fill="#A0A0A0" d="M364 633h61v244h-61z"/><path fill="#FFF" d="M380 653h30v48h-30z"/><path fill="#A0A0A0" d="M275 633h61v244h-61z"/><path fill="#FFF" d="M291 653h30v48h-30z"/><g transform="translate(222 653)"><circle cx="15" cy="62" r="15" fill="#EE5561"/><circle cx="15" cy="15" r="15" fill="#559CFF"/></g><g transform="translate(642 169)"><circle cx="101" cy="101" r="101" fill="#18D24A"/><circle cx="101" cy="101" r="70" fill="#FFF"/></g></g></svg>