<?xml version="1.0" encoding="UTF-8"?>
<svg width="1024px" height="1024px" viewBox="0 0 1024 1024" version="1.1" xmlns="http://www.w3.org/2000/svg" xmlns:xlink="http://www.w3.org/1999/xlink">
    <title>Nastool</title>
    <g id="ICON-新版方图标" stroke="none" stroke-width="1" fill="none" fill-rule="evenodd">
        <g id="Nastool">
            <rect id="蒙版路径" fill="#184785" x="0" y="0" width="1024" height="1024"></rect>
            <g id="编组1" transform="translate(60, 341)" fill="#FFFFFF" fill-rule="nonzero">
                <g id="编组1.1">
                    <path d="M815.827527,1.50748317 C808.268356,2.83522422 742.074532,11.8230106 672.816178,20.9129303 C653.407495,23.4662787 601.310504,30.3092522 556.874835,36.1308868 C512.541317,41.952521 447.879757,50.5317715 413.352731,55.0256643 C378.825706,59.6216913 335.615848,65.2390576 317.330826,67.6902721 C299.045803,70.1414866 237.24447,78.2100675 180.039931,85.7679786 C122.733241,93.3258898 76.5610055,99.5560599 77.4803639,99.7603274 C78.2975715,99.8624612 236.631565,83.521032 429.288282,63.2985131 C678.33233,37.050092 783.445671,25.7132252 792.84356,23.7726808 C832.171681,16.0105017 855.870705,22.0364038 866.392254,42.6674583 C869.558934,48.8976284 871.908406,58.8046199 872.010557,65.7497276 C872.112708,68.5073439 875.177237,85.5637107 878.956823,103.539283 L885.903088,136.222142 L892.338598,139.694696 C901.02143,144.290723 909.091356,145.107794 913.279546,141.737374 C917.161282,138.673356 919,133.975195 919,127.030088 C919,122.229793 916.752679,115.795355 902.247242,79.3335409 C889.27407,46.3442801 885.494484,35.8244851 885.08588,30.922056 C883.655767,15.499832 874.666482,5.69497425 858.015875,1.40534901 C850.661006,-0.535195857 826.655529,-0.433061697 815.827527,1.50748317 Z M69.9211926,100.679533 C71.1470042,100.883801 72.9857214,100.883801 74.007231,100.679533 C74.9265898,100.373131 73.9050802,100.168863 71.657759,100.270997 C69.4104377,100.270997 68.5932301,100.475265 69.9211926,100.679533 Z M61.7491156,101.700872 C62.3620212,101.90514 63.5878329,101.90514 64.3028897,101.700872 C64.9157953,101.394471 64.4050405,101.190203 62.9749272,101.190203 C61.5448136,101.190203 61.0340588,101.394471 61.7491156,101.700872 Z" id="形状"></path>
                    <path d="M836.544421,124.425545 C834.788622,125.252306 833.032823,126.595793 832.619694,127.629245 C832.309847,128.559351 832,168.863963 832,217.126153 C832,303.522706 832,304.866193 834.065646,306.933097 C835.924728,308.79331 837.473962,309 849.971121,309 C862.05515,309 864.120796,308.79331 866.186442,307.036442 L868.665217,305.072884 L868.975064,219.089711 C869.078346,163.490015 868.871782,131.763051 868.148806,129.282767 C867.529112,126.699138 866.186442,124.942271 864.533925,124.218855 C860.815762,122.461987 840.572431,122.668677 836.544421,124.425545 L836.544421,124.425545 Z M450.928089,133.650849 C447.399409,134.993649 446.569131,139.84839 446.569131,157.614673 L446.569131,175.174372 L437.539862,175.484249 L428.406808,175.794126 L428.095454,179.719235 C427.57653,185.710191 428.925732,186.639822 438.37014,186.639822 L446.569131,186.639822 L446.569131,230.848945 C446.569131,258.428001 446.98427,277.433793 447.710763,281.255609 C451.135658,299.641647 461.202775,308.111619 482.582424,310.590635 C497.631206,312.243313 513.198911,308.731373 516.001098,302.947002 C519.425993,295.716538 513.717835,292.204598 503.858288,295.509953 C496.904713,297.885677 493.583602,297.5758 490.158707,294.270445 C484.969472,289.002535 484.450549,284.044503 484.450548,233.121377 L484.450548,187.156284 L495.244157,186.846407 C501.26367,186.743114 506.76426,186.020068 507.490753,185.400314 C508.943739,184.264098 509.255093,178.583019 508.009676,176.620464 C507.490753,175.794126 503.339364,175.277664 495.866866,175.071079 L484.450548,174.761202 L484.139194,156.58175 C483.931625,138.918759 483.82784,138.299004 481.337007,135.613404 C478.846174,132.927802 478.638605,132.927802 465.561732,133.031095 C458.296803,133.031095 451.654582,133.340972 450.928089,133.650849 L450.928089,133.650849 Z M62.4376177,173.416316 C52.2003333,176.105238 42.997118,182.930961 38.136993,191.514825 L35.0347857,196.789247 L35.0347857,189.239584 C35.0347857,182.000181 34.0007165,177.966799 31.5189505,176.415498 C30.8985092,176.001817 24.6940941,175.588137 17.7658313,175.588137 C3.49567712,175.588137 1.63435278,176.415498 0.393469758,183.034381 C0.0832490995,184.895941 -0.123564801,213.129615 0.0832487147,245.70693 L0.393469758,305.070038 L2.87523541,307.035019 C4.94337365,308.68974 7.01151189,309 17.4556102,309 C27.8997086,309 29.9678468,308.68974 32.0359851,307.035019 L34.5177511,305.070038 L35.0347857,259.668637 L35.5518202,214.370656 L38.7574347,207.648353 C42.7903044,199.167909 47.2368016,193.893486 53.0275885,191.204565 C64.4023488,185.619882 80.3270138,192.135345 84.6701042,204.028651 C85.80758,207.338092 86.2212078,218.093777 86.6348356,256.566035 L87.255277,305.070038 L89.737043,307.035019 C91.8051812,308.68974 93.8733195,309 104.524232,309 C116.31262,309 116.933062,308.89658 119.414827,306.414499 L122,303.828997 L121.586372,258.531016 C121.172744,208.889393 121.172744,208.579133 114.554702,196.375567 C108.970729,185.826722 97.6993753,177.346278 85.6007665,174.657357 C78.8793172,173.209476 65.9534529,172.485536 62.4376177,173.416316 L62.4376177,173.416316 Z M200.82427,172.474959 C192.623533,173.198706 180.997173,176.093695 174.561153,179.195468 C162.727179,184.77866 153.073148,197.185754 151.723659,208.558924 C150.893205,216.313357 151.827466,217.967637 158.367294,219.932093 C161.585304,220.862625 167.087064,221.689764 170.720301,221.689764 C180.374333,221.999942 182.035241,220.345663 188.159842,205.250365 C195.218703,187.880434 199.474782,184.054913 211.412562,184.261698 C221.79324,184.365091 227.917841,187.983827 231.447272,195.841652 C233.523408,200.494312 235.599543,211.247127 235.599543,217.347282 L235.599543,221.06941 L223.454149,224.791538 C216.706708,226.859387 204.872734,230.064553 197.191032,231.822225 C167.606098,238.439341 155.149283,245.366635 148.817069,258.290691 C146.325706,263.253529 145.910479,265.42477 146.014286,272.455457 C146.014286,278.245434 146.637126,282.484524 148.090422,286.10326 C155.045476,303.886761 174.872573,313.192081 199.163361,310.297093 C211.412562,308.746206 220.028525,304.610508 234.250055,293.547516 C235.184316,292.823769 236.326191,294.271263 238.60994,298.717138 C241.724144,304.817293 247.122097,310.60727 251.066754,311.84798 C254.907606,312.985296 270.478624,307.505497 275.357543,303.266406 C277.848906,301.095165 277.641292,299.130708 273.800441,287.654147 L270.58243,277.728471 L269.855783,241.541115 C269.129136,201.735022 268.713909,199.253603 262.277888,189.638106 C255.945673,180.229393 244.319313,174.852985 225.737899,172.785136 C216.706708,171.854604 209.54404,171.751212 200.82427,172.474959 L200.82427,172.474959 Z M235.920179,252.968 C235.607731,272.52 235.503581,273.248 232.691545,278.968 C229.150463,286.144 224.359587,290.512 215.298581,294.776 C209.674509,297.376 207.279071,297.896 200.717653,298 C190.823452,298 187.17822,296.128 183.949586,289.576 C181.033401,283.544 180.096055,271.792 181.970746,264.2 C183.532988,257.544 188.636313,251.616 195.510179,248.08 C198.113916,246.728 207.279071,243.192 215.923478,240.28 C224.463736,237.264 232.170798,234.456 233.003994,233.936 C233.837189,233.52 234.982834,233 235.399432,233 C235.920179,233 236.128478,242.048 235.920179,252.968 L235.920179,252.968 Z M341.970914,172.621422 C323.626815,175.424191 309.635554,184.559142 303.831771,197.327312 C300.92988,203.659493 300.722602,216.012438 303.520854,221.202751 C308.806442,231.064345 319.066701,237.292721 346.634667,247.673346 C374.61719,258.261585 379.280944,262.413835 379.177305,276.531486 C378.970027,285.147406 375.757219,292.51765 370.678909,295.320419 C366.326072,297.915575 356.376731,298.746025 351.298421,297.085125 C346.427389,295.528031 339.794495,289.611074 337.307159,284.73218 C336.27077,282.656055 334.405268,277.569549 333.26524,273.417298 C332.021572,269.265048 330.052431,264.905185 329.016042,263.867123 C326.528706,261.375772 319.273978,260.33771 310.464666,261.064354 C299.271656,262.102416 296.680682,267.292729 300.92988,279.645674 C303.520854,287.119724 306.94094,292.51765 312.226528,297.292738 C317.304838,301.860213 320.932202,303.832532 330.466987,307.154332 C351.816616,314.42077 385.188365,310.995163 399.697822,300.199313 C409.750802,292.51765 414,283.90173 414,270.718336 C414,252.448435 402.392435,242.58684 366.326072,230.130089 C346.012834,223.071263 340.209051,219.126625 337.307159,210.303094 C335.441658,204.801362 336.374409,193.901705 338.965383,190.476098 C342.074552,186.220042 347.36014,183.936304 353.889395,183.936304 C364.149654,183.936304 370.782548,189.541842 372.026216,199.29963 C373.995357,213.624894 376.68997,216.116244 391.199426,216.116244 C401.770601,216.116244 407.367106,214.766763 408.921691,211.756381 C409.647163,210.4069 409.854442,207.0851 409.543524,203.451881 C408.299857,189.749455 397.106847,179.472636 378.244554,174.593741 C369.124324,172.206197 350.572948,171.271941 341.970914,172.621422 L341.970914,172.621422 Z M584.441749,173.676233 C557.343084,177.803121 539.796438,191.937713 531.386507,216.389525 C528.998502,223.198891 528.479371,226.91309 528.064066,237.746171 C527.856413,245.380914 528.167892,253.737863 528.79085,257.761579 C534.605123,290.983028 560.042568,311.20478 595.343512,310.998436 C615.485815,310.895264 631.475066,304.911276 643.207439,293.355989 C656.912511,279.737258 662,265.80901 662,242.182576 C662,225.675023 660.0273,216.080009 654.316853,205.246927 C650.059975,196.993151 638.327602,185.437864 629.917671,181.001459 C617.87382,174.707955 598.250648,171.509617 584.441749,173.676233 L584.441749,173.676233 Z M602.564035,184.979879 C614.447944,188.297901 622.891774,204.265881 625.289404,228.217852 C626.748832,241.48994 625.914873,255.798909 623.204508,267.619362 C618.513492,287.320117 608.922969,298 595.579633,298 C581.715073,298 572.33304,286.801676 567.746269,264.923469 C565.974107,256.524726 565.765617,252.273511 566.182596,237.342412 C566.703821,218.367475 567.954758,211.938807 573.062754,200.844171 C579.525932,187.157331 589.950413,181.558169 602.564035,184.979879 L602.564035,184.979879 Z M732.362874,172.643078 C706.239131,176.589077 687.993978,191.957707 679.804391,216.672124 C677.316416,224.148755 677.005419,226.640965 677.005419,240.555805 C676.901754,258.312803 678.249407,264.854855 684.158349,277.108222 C695.665235,300.576534 722.307306,313.660638 752.059347,310.545375 C791.244961,306.495533 813.118412,278.769695 810.837768,235.882911 C809.697446,215.633703 804.721495,203.484179 792.488949,191.12697 C783.677369,182.19655 775.902445,177.627498 763.980896,174.616077 C754.339991,172.123867 741.070789,171.29313 732.362874,172.643078 L732.362874,172.643078 Z M752.840086,186.96073 C765.198675,192.533333 772.572288,209.767123 773.818532,235.56621 C774.857069,258.16621 771.429897,275.503196 763.744724,286.751598 C757.72121,295.832877 753.774769,298 744.012522,298 C737.262032,298 735.49652,297.587214 732.173201,295.420091 C727.08437,292.014612 720.645442,282.314155 718.152953,274.161644 C711.61017,253.419178 712.960268,220.189954 721.060856,202.130594 C725.526565,192.017351 734.977251,185 744.012522,185 C746.608865,185 750.555305,185.928767 752.840086,186.96073 L752.840086,186.96073 Z" id="形状"></path>
                </g>
            </g>
        </g>
    </g>
</svg>