<?xml version="1.0" encoding="UTF-8"?>
<svg width="1025px" height="1024px" viewBox="0 0 1025 1024" version="1.1" xmlns="http://www.w3.org/2000/svg" xmlns:xlink="http://www.w3.org/1999/xlink">
    <title>Navidrome</title>
    <g id="ICON-新版方图标" stroke="none" stroke-width="1" fill="none" fill-rule="evenodd">
        <g id="Navidrome" transform="translate(0.6332, 0)">
            <rect id="蒙版路径" fill="#FFFFFF" x="0" y="0" width="1024" height="1024"></rect>
            <g id="编组" transform="translate(112, 112)" fill-rule="nonzero">
                <path d="M400,16.3265625 C187.929688,16.3265625 16.3265625,187.93125 16.3265625,400 C16.3265625,612.070312 187.929687,783.673437 400,783.673437 C612.070312,783.673437 783.673437,612.070312 783.673437,400 C783.673437,187.93125 612.070312,16.3265625 400,16.3265625 Z" id="路径" fill="#0084FF"></path>
                <path d="M400,262.857812 C324.195312,262.857812 262.857812,324.196875 262.857812,400 C262.857812,475.803125 324.196875,537.142188 400,537.142188 C475.803125,537.142188 537.142188,475.803125 537.142188,400 C537.142188,324.196875 475.804688,262.857812 400,262.857812 Z" id="路径" fill="#FFFFFF"></path>
                <path d="M682.907812,117.09375 C607.398438,41.5859375 506.928125,0 400,0 C293.071875,0 192.601562,41.5859375 117.092187,117.09375 C41.5828125,192.601562 0,293.071875 0,400 C0,506.928125 41.584375,607.398438 117.092187,682.907813 C192.6,758.417188 293.071875,800 400,800 C506.928125,800 607.398438,758.415625 682.907813,682.907813 C758.417188,607.4 800,506.928125 800,400 C800,293.071875 758.415625,192.603125 682.907812,117.09375 Z M400,767.346875 C197.445312,767.346875 32.653125,602.554688 32.653125,400 C32.653125,197.445312 197.445312,32.653125 400,32.653125 C602.554688,32.653125 767.346875,197.445312 767.346875,400 C767.346875,602.554688 602.554688,767.346875 400,767.346875 Z" id="形状" fill="#000000"></path>
                <path d="M553.46875,400 C553.46875,315.378125 484.623438,246.53125 400,246.53125 C315.376562,246.53125 246.53125,315.378125 246.53125,400 C246.53125,484.621875 315.378125,553.46875 400,553.46875 C484.621875,553.46875 553.46875,484.623438 553.46875,400 Z M279.184375,400 C279.184375,333.38125 333.38125,279.184375 400,279.184375 C466.61875,279.184375 520.815625,333.38125 520.815625,400 C520.815625,466.61875 466.61875,520.815625 400,520.815625 C333.38125,520.815625 279.184375,466.61875 279.184375,400 Z" id="形状" fill="#000000"></path>
                <path d="M445.714062,400 C445.714062,374.79375 425.207812,354.285938 400,354.285938 C374.792187,354.285938 354.285937,374.79375 354.285937,400 C354.285937,425.20625 374.79375,445.714063 400,445.714063 C425.20625,445.714063 445.714062,425.207813 445.714062,400 Z M386.939062,400 C386.939062,392.798438 392.798437,386.939063 400,386.939063 C407.201562,386.939063 413.060937,392.798438 413.060937,400 C413.060937,407.201563 407.201562,413.060938 400,413.060938 C392.798437,413.060938 386.939062,407.201563 386.939062,400 L386.939062,400 Z M400,612.245313 C390.982812,612.245313 383.673437,619.554688 383.673437,628.571875 C383.673437,637.589063 390.982812,644.898438 400,644.898438 C465.464062,644.898438 526.976562,619.439063 573.207812,573.20625 C619.4375,526.976563 644.896875,465.464063 644.896875,400 C644.896875,390.982813 637.5875,383.673438 628.570312,383.673438 C619.553125,383.673438 612.24375,390.982813 612.24375,400 C612.245312,517.03125 517.03125,612.245313 400,612.245313 Z M702.040625,383.673438 C693.023438,383.673438 685.714062,390.982813 685.714062,400 C685.714062,402.314063 685.685938,404.621875 685.632812,406.921875 C685.420312,415.935938 692.554688,423.417188 701.56875,423.628125 L701.9625,423.632813 C710.8,423.632813 718.067188,416.575 718.278125,407.692188 C718.339062,405.134375 718.370312,402.56875 718.370312,399.996875 C718.367188,390.982813 711.057812,383.673438 702.040625,383.673438 Z" id="形状" fill="#000000"></path>
                <path d="M699.296875,444.123438 C690.459375,442.334375 681.846875,448.060938 680.065625,456.901563 C653.335938,589.485937 535.551563,685.714062 400,685.714062 C390.982813,685.714062 383.673438,693.023438 383.673438,702.040625 C383.673438,711.057813 390.982813,718.367188 400,718.367188 C473.989063,718.367188 546.042188,692.471875 602.885938,645.448438 C658.979688,599.046875 697.75625,534.379688 712.075,463.354688 C713.85625,454.517188 708.135938,445.90625 699.296875,444.123438 L699.296875,444.123438 Z M400,187.754687 C409.017188,187.754687 416.326563,180.445312 416.326563,171.428125 C416.326563,162.410937 409.017188,155.101562 400,155.101562 C334.535938,155.101562 273.023438,180.560937 226.792188,226.79375 C180.560938,273.023438 155.101563,334.535938 155.101563,400 C155.101563,409.017188 162.410938,416.326563 171.428125,416.326563 C180.445313,416.326563 187.754688,409.017188 187.754688,400 C187.754688,282.96875 282.96875,187.754688 400,187.754687 Z M98.43125,376.36875 C89.4328125,376.15 81.9359375,383.290625 81.725,392.304688 C81.6637233,394.869335 81.6328125,397.434621 81.6328125,400 C81.6328125,409.017188 88.9421875,416.326563 97.959375,416.326563 C106.976563,416.326563 114.285938,409.017188 114.285938,400 C114.285938,397.685938 114.314063,395.378125 114.367188,393.078125 C114.579688,384.0625 107.445313,376.582813 98.43125,376.36875 L98.43125,376.36875 Z" id="形状" fill="#000000"></path>
                <path d="M400,114.285938 C409.017187,114.285938 416.326562,106.976563 416.326562,97.959375 C416.326562,88.9421875 409.017187,81.6328125 400,81.6328125 C326.010937,81.6328125 253.957812,107.528125 197.114062,154.551562 C141.020312,200.953125 102.24375,265.620313 87.925,336.645313 C86.14375,345.484375 91.8640625,354.095313 100.703125,355.876563 C101.792187,356.096875 102.878125,356.201563 103.946875,356.201563 C111.559375,356.201563 118.371875,350.848438 119.934375,343.098438 C146.6625,210.514063 264.448437,114.285938 400,114.285938 Z" id="路径" fill="#000000"></path>
            </g>
        </g>
    </g>
</svg>