<?xml version="1.0" encoding="UTF-8"?>
<svg width="1024px" height="1024px" viewBox="0 0 1024 1024" version="1.1" xmlns="http://www.w3.org/2000/svg" xmlns:xlink="http://www.w3.org/1999/xlink">
    <title>Netcup_B</title>
    <g id="ICON-新版方图标" stroke="none" stroke-width="1" fill="none" fill-rule="evenodd">
        <g id="多版本" transform="translate(-2055, -4096)">
            <g id="Netcup" transform="translate(7, 4096)">
                <g id="Netcup_B" transform="translate(2048, 0)">
                    <rect id="蒙版路径" fill="#056372" x="0" y="0" width="1024" height="1024"></rect>
                    <path d="M311,306 L602.75,306 C624.03391,308.847687 639.617243,314.347687 649.5,322.5 C659.382757,330.652313 665.21609,342.81898 667,359 L667,635.5 L712.25,635.5 L712.25,718.75 L576,718.75 L576,407.25 C576.080528,401.741119 574.080528,397.241119 570,393.75 C565.919472,390.258881 560.419472,388.342215 553.5,388 L452.5,388 L452.5,718.75 L354.25,718.75 L354.25,388 L311,388 L311,306 Z" id="矩形" fill="#FFFFFF"></path>
                </g>
            </g>
        </g>
    </g>
</svg>