<svg xmlns="http://www.w3.org/2000/svg" width="1025" height="1024"><g fill="none" fill-rule="evenodd"><path fill="#000" d="M.633 0h1024v1024H.633z"/><path fill="#B1060F" fill-rule="nonzero" d="M319.29 162.096v349.69c0 192.345.191 349.882.466 350.157.274.274 12.16-.92 26.53-2.485 14.37-1.564 34.176-3.596 44.03-4.42 15.099-1.29 60.392-4.117 65.593-4.24 1.565 0 1.661-7.824 1.853-148.136l.275-147.806-.096-.261v.192l-138.624-392.69h-.028"/><path fill="#9D030F" fill-rule="nonzero" d="m457.872 634.667.151-79.811-.096-.261v.178l-138.624-392.69 138.624 472.584z"/><path fill="#B1060F" fill-rule="nonzero" d="m567.564 162.549-.275 154.683-.274 154.6 137.444 390.015a2.36 2.36 0 0 1-1.03.137c.413.044.83-.003 1.222-.137.453-.371.549-157.84.453-349.992l-.275-349.333-137.265.027"/><path fill="#9D030F" fill-rule="nonzero" d="m567.166 393.64-.151 78.233 131.57 373.325z"/><path fill="#E50914" fill-rule="nonzero" d="m319.29 162.096 138.623 392.691v-.192l10.98 30.95c60.885 172.265 93.592 264.704 93.77 264.896.18.192 9.306.645 20.465 1.208 33.71 1.647 75.489 5.243 107.317 9.196a70.85 70.85 0 0 0 14 1.015l-137.43-390.028v.082l-12.71-35.905-70.753-199.797c-13.45-38.019-24.87-70.163-25.337-71.632l-.92-2.58H388.3l-69.01.096"/></g></svg>