<svg xmlns="http://www.w3.org/2000/svg" width="1025" height="1024"><g fill="none" fill-rule="evenodd"><path fill="#1E262C" d="M.633 0h1024v1014.097H.633z"/><g fill-rule="nonzero"><path fill="#269539" d="M.633 0v1024h1024V0z"/><path fill="#FFF" d="M832.853 754.826c0 37.33-34.54 68.306-81.752 68.306-33.737 0-72.233-13.502-96.294-42.89L334.005 402.127v352.646c0 38.177-30.476 68.306-68.117 68.306h-4.063c-38.55 0-68.972-31.77-68.972-68.306V268.746c0-37.33 33.684-68.305 80.2-68.305 34.54 0 73.784 13.502 97.845 42.89l319.198 378.115v-352.7c0-38.177 32.08-68.305 68.972-68.305h4.01c38.496 0 68.972 31.77 68.972 68.305v486.08h.803"/></g></g></svg>