<svg xmlns="http://www.w3.org/2000/svg" width="1025" height="1024"><g fill="none" fill-rule="evenodd"><path fill="#FFF" d="M.633 0h1024v1024H.633z"/><path fill="#DA4453" fill-rule="nonzero" d="M455.65 503.877c-2.399-4.798-7.617-7.526-12.946-6.775l-123.687 17.669a12.595 12.595 0 0 0-7.067 3.534l-70.66 70.687c-4.89 4.89-4.89 12.798 0 17.669l52.99 53.008c4.889 4.87 12.8 4.87 17.67 0l141.356-141.365a12.506 12.506 0 0 0 2.344-14.427m54.199 201.734 17.67-123.686c.768-5.33-1.979-10.529-6.775-12.946a12.504 12.504 0 0 0-14.429 2.343L364.958 712.68c-4.87 4.87-4.87 12.78 0 17.67l53.009 53.007c4.889 4.87 12.798 4.87 17.67 0l70.678-70.678a12.43 12.43 0 0 0 3.534-7.067"/><path fill="#434A54" fill-rule="nonzero" d="M641.793 321.12a12.454 12.454 0 0 0-8.643-8.88L578.2 296.492a12.474 12.474 0 0 0-12.268 3.187l-51.087 51.067a12.46 12.46 0 0 0-3.315 11.7 12.356 12.356 0 0 0 3.315 5.97 12.498 12.498 0 0 0 4.889 3.021l53.009 17.67c4.488 1.501 9.44.33 12.78-3.021l53.007-53.01a12.452 12.452 0 0 0 3.262-11.955m86.334 125.3-15.728-54.933a12.509 12.509 0 0 0-8.88-8.66 12.532 12.532 0 0 0-11.976 3.259l-53.01 53.008a12.509 12.509 0 0 0-3.02 12.78l17.67 53.008a12.498 12.498 0 0 0 3.02 4.89 12.54 12.54 0 0 0 5.97 3.332 12.513 12.513 0 0 0 11.7-3.333l51.086-51.068a12.533 12.533 0 0 0 3.168-12.284"/><path fill="#E6E9ED" fill-rule="nonzero" d="M796.974 292.977c17.761-36.07 20.435-60.7 7.91-73.223-12.525-12.524-37.17-9.869-73.242 7.91-27.574 13.587-57.183 34.149-75.439 52.404L216.295 720.003a12.473 12.473 0 0 0-3.662 8.826c0 3.314 1.319 6.5 3.662 8.844l70.68 70.66c4.87 4.888 12.78 4.888 17.669 0l439.908-439.917c18.254-18.256 38.835-47.864 52.422-75.44"/><path fill="#ED5564" fill-rule="nonzero" d="M744.55 368.416c18.255-18.256 38.837-47.864 52.423-75.44 17.761-36.07 20.435-60.698 7.91-73.222-12.525-12.524-37.171-9.869-73.242 7.91-27.574 13.587-57.183 34.149-75.439 52.404l88.349 88.348"/><path fill="#FFCE54" fill-rule="nonzero" d="m304.643 808.332 8.825-8.825-88.347-88.348-8.826 8.844a12.473 12.473 0 0 0-3.662 8.826c0 3.314 1.319 6.5 3.662 8.844l70.68 70.66c4.87 4.888 12.779 4.888 17.668 0"/><path fill="#F6BB42" fill-rule="nonzero" d="m260.47 781.853-17.669-17.67 17.67-17.668 17.667 17.669z"/><path fill="#ED5564" fill-rule="nonzero" d="M329.618 695.01c-4.87-4.89-4.87-12.8 0-17.67l141.357-141.357c4.889-4.87 12.8-4.87 17.67 0 4.889 4.89 4.889 12.8 0 17.67L347.287 695.009c-4.87 4.87-12.78 4.87-17.67 0"/><path fill="#656D78" fill-rule="nonzero" d="M673.873 350.746c-4.87-4.87-12.78-4.87-17.67 0l-70.677 70.68c-4.87 4.888-4.87 12.798 0 17.669 4.888 4.889 12.798 4.889 17.668 0l70.679-70.68c4.89-4.87 4.89-12.78 0-17.669"/><path fill="#FFF" fill-rule="nonzero" d="M796.974 292.977c17.761-36.07 20.435-60.7 7.91-73.223a23.864 23.864 0 0 0-5.017-3.845c7.838 13.568 3.92 36.475-11.737 68.242-13.587 27.576-34.168 57.184-52.405 75.44L295.8 799.506c-4.87 4.87-12.781 4.87-17.67 0l-35.34-35.339-26.494-26.512v.018l70.68 70.66c4.87 4.888 12.78 4.888 17.669 0l439.908-439.917c18.254-18.257 38.835-47.865 52.422-75.44" opacity=".2"/></g></svg>