<?xml version="1.0" encoding="UTF-8"?>
<svg width="1025px" height="1024px" viewBox="0 0 1025 1024" version="1.1" xmlns="http://www.w3.org/2000/svg" xmlns:xlink="http://www.w3.org/1999/xlink">
    <title>Nps</title>
    <g id="ICON-新版方图标" stroke="none" stroke-width="1" fill="none" fill-rule="evenodd">
        <g id="Nps" transform="translate(0.6332, 0)">
            <rect id="蒙版路径" fill="#FFFFFF" x="0" y="0" width="1024" height="1024"></rect>
            <path d="M455.01674,503.876772 C452.617885,499.079062 447.399468,496.350907 442.070894,497.102088 L318.383984,514.770642 C315.709956,515.160125 313.232079,516.399268 311.316329,518.305056 L240.656175,588.992162 C235.767059,593.881279 235.767059,601.79035 240.656175,606.660716 L293.646603,659.668722 C298.535719,664.539088 306.445962,664.539088 311.316329,659.668722 L452.672964,518.303884 C456.475513,514.499295 457.419362,508.68943 455.01674,503.876772 Z M509.215384,705.611416 L526.88511,581.924506 C527.653868,576.595932 524.906963,571.396265 520.110426,568.978661 C515.297581,566.574713 509.486586,567.518669 505.682142,571.322436 L364.324334,712.679072 C359.453968,717.549438 359.453968,725.459681 364.324334,730.348798 L417.333512,783.355632 C422.222628,788.225998 430.1317,788.225998 435.003238,783.355632 L505.682142,712.6779 C507.597037,710.76933 508.837465,708.288474 509.215384,705.611416 Z" id="形状" fill="#DA4453" fill-rule="nonzero"></path>
            <path d="M641.159415,321.120852 C640.0603,316.835731 636.770447,313.455322 632.516742,312.240285 L577.56809,296.492456 C573.203457,295.242741 568.504483,296.463155 565.299595,299.678819 L514.212314,350.746178 C511.150389,353.805857 509.895716,358.235367 510.898215,362.446307 C511.4203,364.70795 512.568853,366.776808 514.212314,368.415904 C515.585206,369.789067 517.259166,370.823456 519.10143,371.437031 L572.110608,389.106757 C576.598871,390.608044 581.550192,389.437633 584.891217,386.08563 L637.898051,333.076452 C641.031775,329.953552 642.273269,325.402448 641.159415,321.120852 L641.159415,321.120852 Z M727.49357,446.419107 L711.765662,391.486862 C710.546041,387.232313 707.168934,383.938988 702.885095,382.82661 C698.597823,381.721276 694.045472,382.960154 690.909573,386.08563 L637.900395,439.093636 C634.558113,442.440086 633.389102,447.385484 634.879268,451.874246 L652.548994,504.882251 C653.16257,506.724515 654.196958,508.398475 655.570121,509.771368 C657.212854,511.413827 659.279549,512.567671 661.539718,513.104217 C665.753695,514.091409 670.178615,512.830945 673.239847,509.771368 L724.325957,458.702836 C727.529016,455.484366 728.740799,450.785177 727.49357,446.419107 L727.49357,446.419107 Z" id="形状" fill="#434A54" fill-rule="nonzero"></path>
            <path d="M796.340812,292.976792 C814.101946,256.906082 816.776194,232.277686 804.251056,219.75372 C791.725918,207.229754 767.079943,209.885252 731.009233,227.663963 C703.434711,241.250831 673.825791,261.812777 655.570121,280.068447 L215.66215,720.003371 C213.318374,722.347147 212,725.51476 212,728.828859 C212,732.142958 213.318374,735.329321 215.66215,737.673097 L286.341053,808.332079 C291.21142,813.221195 299.121663,813.221195 304.010779,808.332079 L743.918751,368.415904 C762.173249,350.160234 782.753944,320.552486 796.340812,292.976792 Z" id="路径" fill="#E6E9ED" fill-rule="nonzero"></path>
            <path d="M743.917579,368.415904 C762.172077,350.160234 782.753944,320.552486 796.339641,292.976792 C814.100774,256.906082 816.775022,232.277686 804.249884,219.75372 C791.724746,207.229754 767.078771,209.885252 731.008061,227.663963 C703.433539,241.250831 673.824619,261.812777 655.568949,280.068447 L743.917579,368.415904 Z" id="路径" fill="#ED5564" fill-rule="nonzero"></path>
            <path d="M304.009607,808.332079 L312.835095,799.506591 L224.487638,711.159133 L215.66215,720.003371 C213.318374,722.347147 212,725.51476 212,728.828859 C212,732.142958 213.318374,735.329321 215.66215,737.673097 L286.341053,808.332079 C291.21142,813.221195 299.120491,813.221195 304.009607,808.332079 L304.009607,808.332079 Z" id="路径" fill="#FFCE54" fill-rule="nonzero"></path>
            <polygon id="路径" fill="#F6BB42" fill-rule="nonzero" points="259.837636 781.853271 242.16791 764.183546 259.837636 746.514992 277.505019 764.183546"></polygon>
            <path d="M328.984883,695.009346 C324.114516,690.12023 324.114516,682.209986 328.984883,677.33962 L470.341518,535.982985 C475.230634,531.112619 483.140878,531.112619 488.011244,535.982985 C492.90036,540.872101 492.90036,548.782344 488.011244,553.652711 L346.654608,695.009346 C341.784242,699.879712 333.873999,699.879712 328.984883,695.009346 Z" id="路径" fill="#ED5564" fill-rule="nonzero"></path>
            <path d="M673.239847,350.746178 C668.369481,345.875812 660.459237,345.875812 655.570121,350.746178 L584.892389,421.425082 C580.022023,426.314198 580.022023,434.224442 584.892389,439.094808 C589.780334,443.983924 597.690577,443.983924 602.560943,439.094808 L673.239847,368.415904 C678.128963,363.545538 678.128963,355.635295 673.239847,350.746178 L673.239847,350.746178 Z" id="路径" fill="#656D78" fill-rule="nonzero"></path>
            <path d="M796.340812,292.976792 C814.101946,256.906082 816.776194,232.277686 804.251056,219.75372 C802.756652,218.255291 801.069574,216.962297 799.234204,215.908755 C807.07179,229.476874 803.152997,252.383767 787.496574,284.151304 C773.909706,311.726998 753.329011,341.334747 735.092091,359.590416 L295.165369,799.506591 C290.295003,804.376957 282.38476,804.376957 277.495643,799.506591 L242.156192,764.168311 L215.66215,737.655519 L215.66215,737.674269 L286.341053,808.333251 C291.21142,813.222367 299.121663,813.222367 304.010779,808.333251 L743.918751,368.417076 C762.173249,350.160234 782.753944,320.552486 796.340812,292.976792 Z" id="路径" fill="#FFFFFF" fill-rule="nonzero" opacity="0.2"></path>
        </g>
    </g>
</svg>