<svg xmlns="http://www.w3.org/2000/svg" width="1025" height="1024"><g fill="none" fill-rule="nonzero"><path fill="#067BEF" d="M853.942 1024H.06V0h1024v1024z"/><path fill="#FFF" d="M546.446 507.193c0 144.382-87.722 226.983-206.505 226.983-121.512 0-198.311-92.841-198.311-219.474 0-132.435 83.284-225.618 204.456-225.618 126.291.342 200.36 95.572 200.36 218.109m-321.532 6.485c0 87.722 44.03 157.352 119.465 157.352 76.116 0 118.782-70.313 118.782-160.424 0-81.237-40.276-158.035-118.782-158.035-77.823 0-119.465 72.362-119.465 161.107Zm374.778-5.12c0-35.84-.682-65.876-2.388-92.842h68.948l3.754 46.763h2.048c13.312-24.235 47.445-53.59 98.986-53.59 54.27 0 110.59 35.159 110.59 133.802V727.35h-78.506V551.565c0-44.713-16.724-78.505-59.39-78.505-31.403 0-52.906 22.528-61.44 46.08-2.389 7.167-3.071 16.724-3.071 25.599V727.69h-79.19l-.34-219.133"/></g></svg>