<svg xmlns="http://www.w3.org/2000/svg" width="1025" height="1024"><g fill="none" fill-rule="evenodd"><path fill="#FFF" d="M.398 0h1024v1024H.398z"/><path fill="#353A3C" d="m514.264 488.504 251.5-272c-17.814-19.87-39.48-31.203-65-34-3.34-.366-42-6-76 18-22.666 16-59.333 55.667-110 119-54.056-64.35-91.722-104.017-113-119-31.915-22.474-60.31-19.246-72-18-25.877 2.76-49.21 14.094-70 34l254.5 272M514.264 533.595l251.5 272c-17.814 19.87-39.48 31.203-65 34-3.34.366-42 6-76-18-22.666-16-59.333-55.667-110-119-54.056 64.35-91.722 104.017-113 119-31.915 22.474-60.31 19.246-72 18-25.877-2.76-49.21-14.094-70-34l254.5-272"/><path fill="#E46701" d="M532.764 511.504c103.064 118.655 171.73 191.322 206 218 42.173 32.83 92.505 25.735 100 25 16.632-1.63 35.965-12.297 58-32L701.342 511.778l195.422-211.274c-23.396-18.998-45.729-29.331-67-31-4.463-.35-49.207-7.713-91 26-33.06 26.67-101.727 98.67-206 216M489.53 511.504c-103.063 118.655-171.73 191.322-206 218-42.172 32.83-92.504 25.735-100 25-16.631-1.63-35.965-12.297-58-32l195.423-210.726L125.53 300.504c23.396-18.998 45.73-29.331 67-31 4.464-.35 49.208-7.713 91 26 33.061 26.67 101.728 98.67 206 216"/></g></svg>