<svg xmlns="http://www.w3.org/2000/svg" width="1025" height="1024"><g fill="none" fill-rule="evenodd"><path fill="#FFF" d="M.398 0h1024v1024H.398z"/><g fill-rule="nonzero"><path fill="#FEFEFE" d="m823.473 295.923.03 11.796.006 11.84V485.48l.782 9.432.47 9.47-.058 9.436-.652 9.233-1.17 8.889-1.518 8.578-.817 4.222-.73 4.293-1.466 8.456-.74 4.074-.744 3.989-1.49 7.834-1.488 7.594-1.488 7.458-.743 3.71-.741 3.703-1.481 7.407-.741 3.704-.74 3.704-1.482 7.407-.741 3.704-.74 3.703-1.482 7.408-.741 3.704-.74 3.703-1.482 7.408-.741 3.703-.74 3.704-1.482 7.408-.741 3.703-.74 3.704-1.482 7.407-.741 3.704-.74 3.704-1.482 7.407-.741 3.704-.74 3.704-1.482 7.407-.74 3.704-.742 3.703-1.481 7.408-.74 3.703-1.488 7.426-1.517 7.46-1.577 7.517-1.665 7.592-1.748 7.65-.895 3.837-.74 3.704-.756 3.703-1.553 7.378-1.724 7.289-1.052 3.523-2.45 6.806-3.283 6.198-4.347 5.363-5.473 4.415-6.459 3.517-7.17 2.821-7.591 2.373-7.772 2.17-4.119 1.167-8.213 2.299-4.068 1.108-8.095 2.166-8.015 2.08-3.98 1.01-7.937 2.01-7.914 1.984-7.905 1.977-3.953.99-7.899 1.973-7.902 1.976-3.95.987-7.902 1.976-4.119 1.167-8.213 2.3-4.068 1.108-8.095 2.166-8.015 2.08-3.979 1.01-7.938 2.009-7.914 1.985-7.905 1.976-3.953.99-7.899 1.973-7.902 1.977-3.95.986-7.902 1.977-3.95.986-3.952.99-7.9 1.973-7.905 1.974-3.955.977-7.917 1.926-7.923 1.808-7.882 1.57-7.75 1.209-7.55.83-7.39.571-7.416 1.44-7.49 1.014-7.74.346-8.201-.314-8.741-.806-9.12-1.09-4.625-.59-4.77-.577-9.432-1.17-9.102-1.183-8.652-1.185-8.355-1.2-4.134-.61-4.77-.578-9.431-1.17-9.102-1.183-8.652-1.185-8.356-1.2-4.133-.61-4.77-.578-9.432-1.17-9.102-1.183-8.652-1.185-4.177-.598-4.261-.626-4.335-.657-8.711-1.405-4.3-.812-8.367-1.79-3.917-1.08-7.547-2.4-6.983-2.899-6.477-3.457-6.003-4.045-2.756-2.311-5.232-4.916-4.634-5.472-4-6.033-3.378-6.637-2.839-7.298-2.367-8.03-1.908-8.82-1.423-9.615-.933-10.364-.527-10.987-.246-11.425-.095-11.683-.036-11.798V381.787l.021-11.82.03-5.866.106-11.639.25-11.35.488-10.884.406-5.12.504-4.945.598-4.77 1.393-9.227 1.775-8.634 1.087-4.068 1.188-3.959 2.605-7.704 1.532-3.635 3.312-7.04 3.817-6.569 4.32-6.062 4.79-5.532 2.602-2.498 5.366-4.729 2.844-2.103 5.838-3.965 6.148-3.49 6.5-3.052 6.866-2.67 7.185-2.335 7.407-2.05 7.505-1.822 7.53-1.665 3.765-.806 7.674-1.784 7.633-1.715 7.582-1.63 3.778-.797 7.674-1.784 7.633-1.715 7.582-1.63 3.778-.797 7.674-1.784 7.632-1.715 7.582-1.63 3.778-.797 7.674-1.784 7.633-1.715 7.582-1.63 3.778-.797 7.674-1.784 7.633-1.715 7.582-1.63 3.778-.797 7.674-1.784 7.632-1.715 7.582-1.63 3.778-.797 7.674-1.783 7.633-1.716 7.582-1.63 3.778-.797 7.674-1.783 7.633-1.716 7.582-1.63 3.778-.797 7.674-1.783 7.632-1.716 7.582-1.63 3.778-.797 7.674-1.783 7.633-1.716 7.582-1.63 3.778-.796 7.674-1.784 7.635-1.716 7.58-1.63 3.778-.796 7.674-1.784 7.635-1.716 7.58-1.63 3.777-.796 3.831-.88 3.823-.86 3.813-.83 3.804-.781 7.597-1.455 3.79-.581 7.57-.945 7.538-.42 3.719.13 7.324.66 7.022 1.52 6.566 2.433 5.977 3.378 5.28 4.325 4.539 5.269 3.78 6.222 3.035 7.197 2.32 8.169 1.694 9.058 1.25 9.712.543 4.975h8.889l7.662-1.766 3.813-.85 3.802-.821 3.793-.782 3.786-.741 7.585-1.351 3.802-.516 7.627-.779 7.644-.178 7.585.622 7.399 1.577 7.034 2.607 6.495 3.639 5.807 4.628 5.022 5.526 4.208 6.317 3.404 7.043 2.634 7.783 1.917 8.623 1.277 9.543.762 10.41.39 11.08.173 11.515.047 5.831M192.398 124v776.296h640V124h-640"/><path fill="#C02223" d="m233.879 861.778 5.926 2.963 5.926 2.963 7.902 1.976 3.95.987 4.77.577 9.431 1.17 9.102 1.183 8.652 1.185 8.356 1.2 4.133.61 4.77.578 9.432 1.17 9.102 1.183 8.652 1.185 8.355 1.2 4.134.61 4.77.578 9.431 1.17 9.102 1.183 8.652 1.185 8.356 1.2 4.133.61 9.538 1.156 9.46 1.197 4.706.61 4.77.578 9.431 1.17 9.102 1.183 8.652 1.185 8.356 1.2 4.133.61h2.963l2.963-2.963 2.963-2.963 2.963-2.963 2.963-2.963 2.963-2.962 2.963-2.963 2.963-2.963 2.963-2.963 2.963-2.963 2.963-2.963 2.963-2.963 2.963-2.963 2.963-2.963 2.963-2.963 2.963-2.963 2.963-2.963 2.963-2.963L515.36 844l2.963-2.963 2.963-2.963 2.963-2.963 2.963-2.963 2.963-2.963 2.963-2.963 2.963-2.963 2.963-2.963 2.963-2.963 2.963-2.963 2.963-2.963 2.963-2.963 2.963-2.963 2.963-2.962 2.963-2.963 2.963-2.963 2.963-2.963 2.963-2.963 2.963-2.963 2.963-2.963 2.963-2.963 2.963-2.963 2.963-2.963 2.963-2.963 2.963-2.963 2.963-2.963L595.36 764l2.963-2.963 2.963-2.963 2.963-2.963 2.963-2.963 2.963-2.963 2.963-2.963 2.963-2.963 2.963-2.963 2.963-2.963 2.963-2.963 2.963-2.963 2.963-2.963 2.963-2.963 2.963-2.962 2.963-2.963 2.963-2.963 2.963-2.963 2.963-2.963 2.963-2.963 2.963-2.963 2.963-2.963 2.963-2.963 2.963-2.963 2.963-2.963 2.963-2.963 2.963-2.963L675.36 684l2.963-2.963 2.963-2.963 2.963-2.963 2.963-2.963 2.963-2.963 2.963-2.963 2.963-2.963 2.963-2.963 2.963-2.963 2.963-2.963 2.963-2.963 2.963-2.963v-471.11l-2.963-8.89-2.963-5.925-2.963-5.926-2.963-2.963-2.963-2.963-2.963-2.963-5.926-2.963-5.926-2.963-7.902-1.977-3.95-.986h-11.851l-3.704.74-7.407 1.482-3.704.74-3.704.742-7.407 1.481-3.704.74-7.674 1.784-7.636 1.716-7.579 1.63-3.778.797-7.674 1.783-7.635 1.716-7.58 1.63-3.777.797-7.674 1.783-7.633 1.716-7.582 1.63-3.778.797-7.674 1.783-7.633 1.716-7.582 1.63-3.778.796-7.674 1.784-7.632 1.716-7.582 1.63-3.778.796-7.674 1.784-7.633 1.716-7.582 1.63-3.778.796-7.674 1.784-7.633 1.716-7.582 1.63-3.778.796-7.674 1.784-7.632 1.715-7.582 1.63-3.778.797-7.674 1.784-7.633 1.715-7.582 1.63-3.778.797-7.674 1.784-7.633 1.715-7.582 1.63-3.778.797-7.674 1.784-7.632 1.715-7.582 1.63-3.778.797-7.674 1.784-7.633 1.715-7.582 1.63-3.778.797-7.674 1.784-7.633 1.715-7.582 1.63-3.778.797-3.95.986-7.901 1.977-3.95.986-7.902 1.977-5.926 2.963-5.926 2.963-5.926 2.963-5.926 3.95-2.963 1.976-2.963 2.962-2.963 2.963-2.963 2.963-2.963 2.963-2.963 2.963-1.976 2.963-3.95 5.926-2.963 5.926-2.963 8.889-1.976 7.902-.987 3.95v524.444l.987 3.95 1.976 7.902 2.963 5.926 2.963 5.926 2.963 2.963 2.963 2.963 2.963 2.963 2.963 2.963 2.963 2.963 2.963 2.963 5.926 2.963m100.37-481.043 1.808-3.45 3.763-6.684 4.08-6.32 4.394-6.044 2.323-2.895 2.37-2.823 4.836-5.497 5.025-5.179 5.244-4.86 5.482-4.547 2.856-2.134 5.831-4.115 3.031-1.914 6.193-3.69 6.462-3.41 6.717-3.14 6.928-2.869 7.087-2.568 7.25-2.255 7.497-1.95 7.881-1.677 8.4-1.446 8.91-1.256 9.22-1.067 4.658-.4 4.652-.296 4.634-.184 9.218-.118 9.076.343 8.844.75 8.551 1.055 8.267 1.315 8.012 1.612 7.757 2.027 7.377 2.643 3.349 1.766 6.186 4.142 4.996 5.511 3.63 7.079 2.325 8.63 1.274 9.912.534 10.726.03 11.01-.356 10.836-.69 10.388-.946 9.947-.521 4.88-.46 4.811-1.185 9.343-1.99 8.444-3.23 6.815-2.634 2.207-6.057 2.803-6.563-.474-5.778-3.164-2.571-2.297-2.658-2.512-2.753-2.676-2.83-2.79-2.882-2.863-5.831-5.81-2.949-2.949-5.925-4.444-5.926-4.444-2.963-1.977-5.926-3.95-5.926-2.962-8.89-2.963h-41.48l-5.927 2.963-5.925 2.963-2.963 2.963-2.963 2.963-2.963 2.962-2.963 2.963-2.963 5.926-2.963 8.89v17.777l2.963 8.889 2.963 5.926 2.963 2.963 2.963 2.963 2.963 2.963 5.926 2.963 5.925 2.963 8.89 2.963 7.94 2.009 3.98 1.028 3.99 1.049 7.995 2.163 7.99 2.299 7.93 2.47 3.896 1.32 3.84 1.356 3.78 1.39 3.716 1.416 3.645 1.446 3.57 1.476 3.496 1.511 3.425 1.544 6.706 3.188 3.226 1.7 6.344 3.547 3.081 1.935 3.052 2.024 6.039 4.243 2.954 2.314 5.837 4.815 5.63 5.161 5.333 5.464 2.46 2.868 4.68 5.878 2.098 3.097 3.956 6.382 3.511 6.788 3.111 7.23 2.744 7.638 2.352 7.985 1.882 8.25 1.298 8.438.616 8.545-.05 4.296-.445 8.602-1.06 8.616-1.583 8.587-1.007 4.23-1.102 4.176-1.197 4.103-1.286 4.03-2.759 7.89-3.129 7.55-1.75 3.597-1.85 3.514-3.887 6.856-2.134 3.26-2.225 3.185-4.625 6.204-2.483 2.934-5.114 5.694-5.387 5.304-2.811 2.442-5.725 4.657-5.94 4.217-6.2 3.792-6.527 3.399-6.93 3.022-7.375 2.658-7.822 2.3-8.234 1.943-4.276.788-4.326.681-8.74 1.123-4.43.3-8.88.308-8.886-.264-4.403-.385-8.717-.951-4.249-.634-8.364-1.366-4.06-.776-8.044-1.642-3.98-.907-7.99-1.917-8.09-2.121-8.248-2.35-8.391-2.58-8.445-2.833-8.308-3.138-7.902-3.567-7.158-4.243-6.072-5.239-4.734-6.55-3.334-7.998-2.074-9.253-1.117-10.042-.518-10.323-.25-10.332-.402-4.74-.608-9.446.021-4.614.676-8.838 1.274-3.799 3.733-6.281 5.482-2.845 5.786 1.254 5.254 4.166 2.489 2.55 2.962 2.964 2.963 2.963 2.963 2.963 2.963 2.963 2.963 2.963 2.963 2.963 2.963 2.963 2.963 2.963 2.963 2.963 2.963 1.976 5.926 3.95 2.963 1.976 5.926 3.95 5.926 2.962 5.926 2.963 5.926 2.963 8.889 2.963 8.889 2.963H456.1l3.95-.986 7.902-1.977 5.926-2.963 5.926-2.963 2.963-2.963 2.963-2.963 1.976-2.963 3.95-5.926 2.963-8.888v-23.704l-2.963-5.926-2.963-2.963-2.963-2.963-2.963-2.963-2.963-2.963-2.963-2.963-2.963-1.976-5.926-3.95-5.926-2.963-3.704-1.481-7.407-2.963-3.704-1.482-4.337-1.481-8.61-2.963-8.413-2.963-4.059-1.482-3.97-1.481-3.888-1.487-3.792-1.49-7.408-3.002-3.526-1.532-6.883-3.12-6.574-3.274-3.159-1.757-3.111-1.837-6.148-3.852-6-4.231-2.934-2.317-5.777-4.83-5.562-5.197-5.25-5.505-2.43-2.886-4.634-5.896-4.172-6.178-1.849-3.253-1.736-3.343-3.244-6.856-2.806-7.17-2.388-7.437-.999-3.834-1.807-7.787-1.39-8.065-.895-8.368-.296-8.64.358-8.815.99-8.888 1.538-8.86 2.015-8.72 2.47-8.444 2.863-8.06 3.185-7.611 1.665-3.686m489.26-22.66v-56.297h-2.963v56.296h2.963"/><path fill="#CFD6DA" d="M201.286 808.444V304.741h-2.963v503.703h2.963m145.186-279.01 5.926 4.993 5.925 5.11 5.926 5.204 2.963 1.976 5.926 3.95 5.926 2.963 5.926 2.963 5.926 2.963 5.926 2.963 3.704 1.481 7.407 2.963 3.704 1.481 4.34 1.482 4.306 1.487 8.512 2.981 4.134 1.508 4.056 1.53 7.938 3.116 7.579 3.274 3.591 1.757 3.482 1.843 6.731 3.87 3.106 2.145 2.942 2.273 5.514 4.814 2.338 2.697 4.145 5.689 1.49 3.134 2.311 6.519.934 6.91-.237 3.526-1.144 6.965-1.2 3.316-2.954 6.317-1.994 2.797-4.457 5.156-2.666 2.127-5.725 3.793-3.226 1.43-6.756 2.38-7.277 1.41-3.822.208-7.719-.074-3.893-.498-3.864-.7-3.813-.87-3.745-1.032-3.668-1.17-3.586-1.292-3.502-1.401-6.838-3.008-6.53-3.377-6.285-3.71-6.107-4.039-2.992-2.192-2.963-2.279-5.867-4.732-5.695-5.066-5.464-5.36-5.161-5.588-4.809-5.749-4.447-5.845-4.09-5.894-3.768-5.91-3.535-5.927-1.724-2.963H325.73v62.222l.521 4.872.948 9.896.712 10.222.444 10.456.222 10.471.116 10.38 2.963 1.766 5.926 3.55 5.926 3.573 8.889 2.963 8.888 2.963 8.89 2.963 8.888 2.962 8.89 2.963 7.901 1.977 3.95.986 7.902 1.977 3.95.986 3.703.741 7.408 1.482 3.704.74 4.447.741 8.889 1.482 4.441.74h35.556l4.441-.74 8.89-1.482 4.447-.74 3.95-.987 7.902-1.977 8.888-2.963 5.926-2.963 5.926-2.963 5.926-2.962 5.926-3.95 2.963-1.976 2.963-2.963 2.963-2.963 2.963-2.963 2.963-2.963 2.963-2.963 2.963-2.963 2.963-2.963 2.963-2.963 4.444-5.926 4.445-5.926 2.963-5.926 1.481-3.704L584.99 664l1.482-3.704 2.963-8.889 2.963-8.888.74-4.448 1.482-8.889.74-4.441v-38.519l-.986-3.95-1.976-7.902-2.963-8.889-2.963-8.888-2.963-5.926-2.963-5.926-2.963-5.926-2.963-2.963-2.963-2.963-2.963-2.963-2.963-2.963-2.963-2.963-2.963-2.963-2.963-2.963-2.963-2.963-2.963-2.963-2.963-2.963-2.963-1.976-5.926-3.95-5.926-2.963-5.926-2.963-5.926-2.963-5.926-2.963-3.703-1.481-7.408-2.963-3.703-1.482-8.89-2.962-8.888-2.963-3.953-1.017-7.887-2.062-3.914-1.076-3.885-1.117-7.674-2.346-3.706-1.319-3.61-1.422-6.974-3.1-3.206-1.836-3.022-2.015-2.815-2.202-5.191-4.773-2.104-2.755-3.644-5.832-1.221-3.2-1.784-6.58-.444-6.833.46-3.416 1.555-6.702 1.392-3.159 1.671-3.01 3.876-5.671 4.904-4.898 5.89-3.994 6.838-3.002 7.695-1.958 8.32-.89 4.297.09 8.524.681 8.237 1.654 7.719 2.512 7.14 3.224 6.62 3.79 6.204 4.222 5.867 4.566 5.54 4.87 5.233 5.136 4.98 5.333 2.442 2.7 2.963 2.962 2.963 2.963 2.963 2.963L544.99 444l2.963 2.963 2.963 2.963 2.963 2.963h14.815l.089-5.129.246-10.276.444-10.237.711-10.062.948-9.82.525-4.846v-88.89l-2.963-2.962-5.926-2.963-8.889-2.963-8.889-2.963-3.704-.741-7.407-1.481-3.704-.741-8.317-1.156-8.287-1.197-4.136-.61h-41.482l-4.705.61-9.46 1.194-9.539 1.159-3.703.74-7.408 1.482-3.703.74-3.95.987-7.902 1.977-7.405 2.963-7.41 2.963-5.926 2.963-5.926 2.963-5.926 2.963-5.926 3.95-2.963 1.975-2.963 2.223-5.926 4.444-2.963 2.222-2.963 2.963-2.963 2.963-2.963 2.963-4.874 5.926-4.939 5.926-5.001 5.926L338.78 364l-3.55 5.926-3.573 5.926-2.963 5.926-2.963 8.889-2.963 8.889-2.963 8.888-.74 4.448-1.482 8.889-.741 4.441v35.556l.74 3.703 1.482 7.408.74 3.704.988 3.95 1.976 7.901 2.963 8.89 2.963 5.925 2.963 5.926 3.95 5.926 1.976 2.963 3.95 5.926 1.976 2.963 2.963 2.471m131.851 351.603-4.444 7.407v2.963h11.852l4.118-1.167 8.214-2.3 4.068-1.107 8.095-2.166 8.014-2.08 3.98-1.014 7.938-2.006 7.914-1.985 7.905-1.976 3.952-.99 7.9-1.973 7.902-1.976 3.95-.987 7.902-1.976 3.95-.987 7.902-1.976 3.95-.987 7.901-1.976 3.95-.987 7.902-1.976 3.95-.987 7.902-1.976 4.119-1.168 8.213-2.299 4.068-1.108 8.095-2.166 8.015-2.08 3.979-1.01 7.938-2.01 7.914-1.984 7.905-1.977 3.953-.99 7.899-1.973 7.902-1.976 3.95-.987 7.902-1.976 4.118-1.167 8.214-2.3 8.136-2.216 8.053-2.115 7.98-2.045 7.943-2.009 5.926-2.963 2.963-5.926.741-3.703 1.481-7.408.741-3.703 1.488-7.426 1.517-7.46 1.576-7.517 1.665-7.591 1.748-7.65.895-3.838.74-3.704L784.25 744l.741-3.704.74-3.703 1.482-7.408.741-3.704.74-3.703 1.482-7.408.741-3.703.74-3.704 1.482-7.407.741-3.704.74-3.704 1.482-7.407.74-3.704.742-3.704 1.481-7.407.74-3.704.742-3.703 1.481-7.408.74-3.704.742-3.703 1.481-7.408.74-3.703.742-3.704 1.481-7.408.74-3.703.742-3.704 1.481-7.407.74-3.704.742-3.704 1.481-7.407.74-3.704.741-3.704 1.482-7.407.74-3.704.741-3.703 1.482-7.408.74-3.703.741-4.448 1.482-8.889.74-4.441v-11.852h-2.962l-2.963 2.963-2.963 2.963-2.581 2.963-2.601 2.963-2.629 2.963-2.657 2.963-2.69 2.963-2.727 2.963-2.755 2.963-2.791 2.963-2.815 2.962-2.845 2.963-2.868 2.963-2.886 2.963-2.903 2.963-2.916 2.963-2.924 2.963-2.937 2.963-2.942 2.963-2.945 2.963-2.951 2.963-2.957 2.963-2.954 2.963-2.96 2.963-2.96 2.963-2.96 2.963-2.963 2.963-2.96 2.963-2.963 2.963-2.963 2.963-5.926 5.926-2.963 2.963-2.963 2.963-2.96 2.963-5.926 5.926-2.963 2.962-2.963 2.963-2.963 2.963-5.926 5.926-2.963 2.963-2.963 2.963-2.963 2.963-5.926 5.926-2.963 2.963-2.963 2.963-5.925 5.926-2.963 2.963-2.963 2.963-5.926 5.926-2.963 2.963-2.963 2.963-5.926 5.926-2.963 2.963-2.963 2.963-5.926 5.926-2.963 2.963-5.926 5.925-2.963 2.963-2.963 2.963-5.926 5.926-2.963 2.963-2.963 2.963-2.963 2.963-2.963 2.963-2.963 2.963-2.963 2.963-2.963 2.963-2.962 2.963-2.963 2.963-2.963 2.963-2.963 2.963-2.963 2.963-2.963 2.963-2.963 2.963-2.963 2.963-2.963 2.963-2.963 2.963-2.963 2.963-2.963 2.963-2.963 2.963-2.963 2.963-2.963 2.962-2.963 2.963-2.963 2.963-2.963 2.963-2.963 2.963-2.963 2.963-2.963 2.963-2.963 2.963-2.963 2.963-2.963 2.963-2.963 2.963-2.963 2.963-2.963 2.963-2.962 2.963-2.963 2.963-2.963 2.963-2.963 2.963-2.963 2.963-2.963 2.963-2.963 2.963-2.963 2.963-2.963 2.963-2.963 2.963-2.963 2.963-4.445 7.407"/><path fill="#CFD6DA" d="m473.879 894.37 4.444-5.926 4.445-5.925v-5.926h-2.963l-2.963 2.963-2.963 2.963-2.963 2.962v8.89h2.963m349.63-592.592v-65.185h-2.963v65.185h2.963m2.963 231.11v-47.407h-2.963v47.408h2.963"/><path fill="#882425" d="m814.62 544.74 4.444-5.925 4.445-5.926V358.074l-.522-4.883-.948-9.952-.711-10.43-.442-10.975-.219-11.413-.089-11.674-.023-11.799-.01-11.84v-44.441l-2.962-8.89-2.963-5.925-2.963-2.963-2.963-2.963-2.963-2.963-2.963-2.963-2.963-2.963-5.926-2.963-8.889-2.963h-23.704l-3.703.74-7.408 1.482-3.703.741-3.704.74-7.408 1.482-3.703.741-3.95.987-7.902 1.976-8.889 2.963v438.518h2.963l2.963-2.962 2.963-2.963 2.963-2.963 2.963-2.963 2.963-2.963 2.963-2.963 2.963-2.963 2.963-2.963 2.963-2.963 2.963-2.963 2.963-2.963 2.963-2.963 2.963-2.963L755.36 604l2.963-2.963 2.963-2.963 2.963-2.963 2.963-2.963 2.963-2.963 2.963-2.963 2.963-2.963 2.963-2.963 2.963-2.963 2.963-2.963 2.963-2.963 2.963-2.963 2.963-2.963 2.963-2.962 2.963-2.963 2.963-2.963 2.963-2.963 2.963-2.963 2.963-2.963z"/></g></g></svg>