<svg xmlns="http://www.w3.org/2000/svg" width="1025" height="1024"><defs><linearGradient id="a" x1="100%" x2="0%" y1="50%" y2="50%"><stop offset="0%" stop-color="#93EEFE"/><stop offset="100%" stop-color="#A1FCC6"/></linearGradient><linearGradient id="b" x1="100%" x2="0%" y1="50%" y2="50%"><stop offset="0%" stop-color="#93EEFE"/><stop offset="100%" stop-color="#A1FCC6"/></linearGradient></defs><g fill="none" fill-rule="nonzero"><path fill="#121212" d="M.633 512v512h1024V0H.633z"/><path fill="url(#a)" d="M547.255 371.787c32.237-97.66-61.63-195.318-159.289-165.926-24.652 7.585-60.681 36.03-111.881 87.23l-74.904 75.852 20.86 20.859 20.859 20.86 73.955-73.008c60.682-60.682 78.696-73.008 104.296-73.008 68.267 0 91.97 77.749 39.823 128l-28.445 27.497 20.86 21.807 20.859 21.808 31.289-30.341c17.066-16.119 36.03-44.563 41.718-61.63" transform="matrix(-1 0 0 1 755.533 0)"/><path fill="#FFF" fill-opacity=".96" d="M469.018 456.134 414.026 512l27.496 28.445 27.496 28.444-20.859 20.86-20.86 21.807-49.303-50.252L327.744 512l47.408-47.407c25.6-25.6 49.303-47.408 53.096-47.408 1.896 0 15.486 12.983 40.77 38.95M554.352 456.134 609.344 512l-27.496 28.445-27.496 28.444 20.86 20.86 20.858 21.807 49.304-50.252L695.626 512l-47.408-47.407c-25.6-25.6-49.303-47.408-53.096-47.408-1.896 0-15.486 12.983-40.77 38.95"/><path fill="url(#b)" d="M293.926 749.614c-33.185-37.926-36.978-79.644-9.482-107.14 29.393-29.393 75.852-24.652 109.037 9.481l27.497 28.444 21.807-20.859 21.808-20.859-30.341-31.289c-58.785-60.681-135.585-64.474-191.526-7.585-56.889 55.94-54.045 128.948 6.637 191.526l29.393 31.289 21.807-20.86 20.86-19.91-27.497-32.238" transform="matrix(1 0 0 -1 .633 1382.03)"/><path fill="url(#b)" d="M651.45 390.75c-33.186-37.926-36.978-79.644-9.482-107.14 29.393-29.393 75.852-24.652 109.037 9.48l27.496 28.445 21.808-20.859 21.807-20.86-30.34-31.288c-58.786-60.682-135.586-64.474-191.527-7.585-56.888 55.94-54.044 128.948 6.637 191.526l29.393 31.289 21.807-20.86 20.86-19.91-27.497-32.238" transform="matrix(-1 0 0 1 1382.157 0)"/><path fill="url(#a)" d="M816.356 730.65c32.237-97.66-61.63-195.32-159.29-165.927-24.651 7.585-60.68 36.03-111.88 87.23l-74.905 75.852 20.86 20.859L512 769.524l73.956-73.008c60.681-60.682 78.696-73.008 104.296-73.008 68.267 0 91.97 77.749 39.822 128l-28.444 27.497 20.859 21.807 20.86 21.808 31.288-30.341c17.067-16.119 36.03-44.563 41.719-61.63" transform="matrix(1 0 0 -1 .633 1382.027)"/></g></svg>