<svg xmlns="http://www.w3.org/2000/svg" width="1024" height="1024"><defs><linearGradient id="a" x1="70.226%" x2="4.683%" y1="0%" y2="145.808%"><stop offset="0%" stop-color="#001F62"/><stop offset="100%" stop-color="#090C0B"/></linearGradient><linearGradient id="b" x1="-.048%" x2="99.953%" y1="50.015%" y2="50.015%"><stop offset="0%" stop-color="#065FFE"/><stop offset="50%" stop-color="#02AFEF"/><stop offset="100%" stop-color="#01EFC6"/></linearGradient><linearGradient id="c" x1=".005%" x2="99.931%" y1="49.979%" y2="49.979%"><stop offset="0%" stop-color="#065FFE"/><stop offset="50%" stop-color="#02AFEF"/><stop offset="100%" stop-color="#01EFC6"/></linearGradient><linearGradient id="d" x1="36.737%" x2="61.541%" y1="30.11%" y2="67.324%"><stop offset="0%" stop-color="#065FFE"/><stop offset="50%" stop-color="#02AFEF"/><stop offset="100%" stop-color="#01EFC6"/></linearGradient><linearGradient id="e" x1="72.598%" x2="17.337%" y1="25.419%" y2="97.259%"><stop offset="0%" stop-color="#065FFE"/><stop offset="50%" stop-color="#02AFEF"/><stop offset="100%" stop-color="#01EFC6"/></linearGradient><linearGradient id="f" x1="100.06%" x2="-.03%" y1="49.914%" y2="49.914%"><stop offset="0%" stop-color="#065FFE"/><stop offset="50%" stop-color="#02AFEF"/><stop offset="100%" stop-color="#01EFC6"/></linearGradient><linearGradient id="g" x1="100.013%" x2=".086%" y1="49.974%" y2="49.974%"><stop offset="0%" stop-color="#065FFE"/><stop offset="50%" stop-color="#02AFEF"/><stop offset="100%" stop-color="#01EFC6"/></linearGradient><linearGradient id="h" x1="63.276%" x2="38.471%" y1="69.874%" y2="32.706%"><stop offset="0%" stop-color="#065FFE"/><stop offset="50%" stop-color="#02AFEF"/><stop offset="100%" stop-color="#01EFC6"/></linearGradient><linearGradient id="i" x1="27.255%" x2="82.517%" y1="74.561%" y2="2.809%"><stop offset="0%" stop-color="#065FFE"/><stop offset="50%" stop-color="#02AFEF"/><stop offset="100%" stop-color="#01EFC6"/></linearGradient></defs><g fill="none" fill-rule="evenodd"><path fill="url(#a)" d="M0 0h1023.939v1024H0" transform="translate(.061)"/><g fill-rule="nonzero"><path fill="#000" d="M558.498 513.1c-13.303 0-27.023 3.305-39.079 9.502-15.798 8.264-33.674 12.809-51.551 12.809-61.529 0-111.001-49.581-111.001-110.318 0-60.737 49.888-110.318 111-110.318 18.709 0 37.001 4.545 53.215 13.222l120.979 69.413V254.452c0-64.042-69.844-104.12-125.552-72.306L218.842 352.787c-55.708 32.228-55.708 112.384 0 144.199l297.251 170.641c55.709 32.228 125.552-7.85 125.552-72.306v-3.305c-1.663-43.797-38.663-78.917-83.147-78.917"/><path fill="#000" d="M558.498 513.1c-13.303 0-27.023 3.305-39.079 9.502-15.798 8.264-33.674 12.809-51.551 12.809-61.529 0-111.001-49.581-111.001-110.318 0-60.737 49.888-110.318 111-110.318 18.709 0 37.001 4.545 53.215 13.222l120.979 69.413V254.452c0-64.042-69.844-104.12-125.552-72.306L218.842 352.787c-55.708 32.228-55.708 112.384 0 144.199l297.251 170.641c55.709 32.228 125.552-7.85 125.552-72.306v-3.305c-1.663-43.797-38.663-78.917-83.147-78.917"/><path fill="url(#b)" d="M381.437 342.1c-13.303 0-27.023 3.305-39.079 9.502-15.798 8.264-33.674 12.809-51.551 12.809-61.529 0-111.001-49.581-111.001-110.318 0-60.737 49.888-110.318 111-110.318 18.709 0 37.001 4.545 53.215 13.222L465 226.41V83.452c0-64.042-69.844-104.12-125.552-72.306L41.78 181.787c-55.708 32.228-55.708 112.384 0 144.199l297.251 170.641c55.709 32.228 125.552-7.85 125.552-72.306v-3.305c-1.663-43.797-38.663-78.917-83.147-78.917" transform="translate(177.061 171)"/><path fill="url(#c)" d="M153.614 117.745S114.535 235.5 204.75 323.92c0 0-24.944-31.815-24.944-69.827 0-60.737 49.888-110.318 111-110.318 18.709 0 37.001 4.545 53.215 13.222L465 226.41V83.452c0-64.042-69.844-104.12-125.552-72.306l-185.834 106.6c-4.157 17.353-6.236 35.532-6.236 54.125 0-18.593 2.079-36.772 6.236-54.126" transform="translate(177.061 171)"/><path fill="url(#d)" d="M352.751 459.028 60.074 291.692c-34.922-20.246-48.226-59.084-39.08-92.964-33.674 37.599-26.606 99.988 21.203 127.258l297.25 170.641c53.215 30.575 119.317-4.545 125.137-63.216-23.697 34.294-71.506 49.168-111.833 25.617" transform="translate(177.061 171)"/><path fill="url(#e)" d="M219.3 169.805s59.866-59.91 245.284-52.886L465 226.824 344.021 157.41c-.416 0-61.113-38.012-124.72 12.395" transform="translate(177.061 171)"/><path fill="#000" d="M466.04 510.699c13.303 0 27.022-3.303 39.079-9.497 15.798-8.259 33.674-12.8 51.55-12.8 61.114 0 111.002 49.55 111.002 110.249 0 60.7-49.888 110.25-111.001 110.25-18.708 0-37-4.543-53.214-13.214l-120.98-69.37V769.6c0 64.002 69.844 104.056 125.553 72.26l297.25-170.535c55.71-32.208 55.71-112.314 0-144.11L508.03 356.68c-55.709-32.208-125.552 7.845-125.552 72.26v3.304c1.663 43.357 38.663 78.455 83.563 78.455"/><path fill="#000" d="M466.04 510.699c13.303 0 27.022-3.303 39.079-9.497 15.798-8.259 33.674-12.8 51.55-12.8 61.114 0 111.002 49.55 111.002 110.249 0 60.7-49.888 110.25-111.001 110.25-18.708 0-37-4.543-53.214-13.214l-120.98-69.37V769.6c0 64.002 69.844 104.056 125.553 72.26l297.25-170.535c55.71-32.208 55.71-112.314 0-144.11L508.03 356.68c-55.709-32.208-125.552 7.845-125.552 72.26v3.304c1.663 43.357 38.663 78.455 83.563 78.455"/><path fill="url(#f)" d="M83.979 165.699c13.303 0 27.022-3.303 39.079-9.497 15.798-8.259 33.674-12.8 51.55-12.8 61.114 0 111.002 49.55 111.002 110.249 0 60.7-49.888 110.25-111.001 110.25-18.708 0-37-4.543-53.214-13.214L.415 281.317V424.6c0 64.002 69.844 104.056 125.553 72.26l297.25-170.535c55.71-32.208 55.71-112.314 0-144.11L125.969 11.68C70.259-20.528.416 19.525.416 83.94v3.304C2.079 130.601 39.079 165.7 83.979 165.7" transform="translate(382.061 345)"/><path fill="url(#g)" d="M317.622 335.822c0 18.581-2.079 36.75-6.236 54.093 0 0 39.079-117.683-51.136-206.048 0 0 24.944 31.795 24.944 69.784 0 60.7-49.888 110.25-111 110.25-18.709 0-37.001-4.543-53.215-13.214L0 281.317V424.6c0 64.002 69.844 104.056 125.552 72.26L310.97 390.328c4.573-17.755 6.652-35.924 6.652-54.505" transform="translate(382.061 345)"/><path fill="url(#h)" d="m112.249 48.842 292.677 167.233c34.922 20.233 48.226 59.048 39.08 92.907 33.674-37.576 26.606-99.926-21.203-127.18L125.553 11.268C72.337-19.29 6.235 15.809.415 74.444 24.113 40.17 71.922 25.719 112.249 48.842" transform="translate(382.061 345)"/><path fill="url(#i)" d="M246.115 337.887S186.25 397.76.831 390.74L.416 280.904l120.979 69.37s60.697 37.989 124.72-12.387" transform="translate(382.061 345)"/></g></g></svg>