<?xml version="1.0" encoding="UTF-8"?>
<svg width="1025px" height="1024px" viewBox="0 0 1025 1024" version="1.1" xmlns="http://www.w3.org/2000/svg" xmlns:xlink="http://www.w3.org/1999/xlink">
    <title>Tissue</title>
    <g id="ICON-新版方图标" stroke="none" stroke-width="1" fill="none" fill-rule="evenodd">
        <g id="Tissue" transform="translate(0.6332, 0)">
            <rect id="蒙版路径" fill="#FFFFFF" x="0" y="0" width="1024" height="1024"></rect>
            <g id="编组" transform="translate(113.07, 117.9029)" fill="#1677FF">
                <path d="M425.429973,439.097056 C428.253423,468.034689 415.420089,488.701356 386.929973,501.097056 C366.356758,510.048209 322.645424,516.839845 287.429973,503.097056 C249.495046,488.292994 221.410418,451.974854 212.429973,436.097056 C202.765534,419.009929 183.562016,362.983054 188.929973,307.097056 C193.180521,262.84444 217.192925,218.761792 236.929973,193.597056 C257.941525,166.807326 311.929498,118.155688 375.429973,100.097056 C446.907706,79.7698039 528.684471,92.0590702 555.429973,100.097056 C665.839337,133.279041 721.124721,210.964802 739.429973,238.597056 C778.754448,297.958374 794.29422,367.38194 796.429973,395.097056 C798.396645,420.618056 798.211251,478.345397 778.429973,532.597056 C754.86836,597.216567 707.106349,660.390238 651.929973,706.597056 C584.263306,763.263722 508.763306,790.597056 425.429973,788.597056 C493.096639,772.930389 562.263306,727.763722 632.929973,653.097056 C658.496141,626.083746 693.478162,563.240724 703.429973,501.097056 C711.5247,450.549871 697.734369,399.300449 691.929973,377.597056 C681.536016,338.732696 651.741575,280.340622 614.929973,245.097056 C570.283968,202.352802 514.966109,186.133125 466.929973,183.597056 C427.909128,181.536949 341.041836,202.721962 299.429973,261.097056 C289.201049,275.446674 269.156405,336.025391 278.429973,377.597056 C287.919903,420.138635 327.0047,443.585628 340.429973,449.097056 C358.126279,456.361855 386.459612,453.028522 425.429973,439.097056 Z" id="三角形"></path>
                <path d="M237.429973,350.097056 C240.253423,379.034689 227.420089,399.701356 198.929973,412.097056 C178.356758,421.048209 134.645424,427.839845 99.4299727,414.097056 C61.4950455,399.292994 33.4104183,362.974854 24.4299727,347.097056 C14.7655339,330.009929 -4.43798431,273.983054 0.929972709,218.097056 C5.18052111,173.84444 29.1929245,129.761792 48.9299727,104.597056 C69.9415253,77.807326 123.929498,29.1556884 187.429973,11.0970556 C258.907706,-9.23019615 340.684471,3.05907023 367.429973,11.0970556 C477.839337,44.2790412 533.124721,121.964802 551.429973,149.597056 C590.754448,208.958374 606.29422,278.38194 608.429973,306.097056 C610.396645,331.618056 610.211251,389.345397 590.429973,443.597056 C566.86836,508.216567 519.106349,571.390238 463.929973,617.597056 C396.263306,674.263722 320.763306,701.597056 237.429973,699.597056 C305.096639,683.930389 374.263306,638.763722 444.929973,564.097056 C470.496141,537.083746 505.478162,474.240724 515.429973,412.097056 C523.5247,361.549871 509.734369,310.300449 503.929973,288.597056 C493.536016,249.732696 463.741575,191.340622 426.929973,156.097056 C382.283968,113.352802 326.966109,97.1331249 278.929973,94.5970556 C239.909128,92.5369489 153.041836,113.721962 111.429973,172.097056 C101.201049,186.446674 81.1564051,247.025391 90.4299727,288.597056 C99.9199035,331.138635 139.0047,354.585628 152.429973,360.097056 C170.126279,367.361855 198.459612,364.028522 237.429973,350.097056 Z" id="三角形" transform="translate(304.6168, 349.8497) scale(-1, -1) translate(-304.6168, -349.8497)"></path>
            </g>
        </g>
    </g>
</svg>