<svg xmlns="http://www.w3.org/2000/svg" width="1025" height="1024"><g fill="none" fill-rule="evenodd"><path fill="#FFF" d="M.633 0h1024v1024H.633z"/><g fill-rule="nonzero"><path fill="#ACAEAA" d="M783.473 875.47h-541.68c-29.907-.01-54.15-24.252-54.16-54.16v-27.09l45.27-362.948c5.086-40.663 39.65-71.978 80.62-71.978h398.22c40.97 0 75.534 31.315 80.62 71.978l45.27 362.949v27.09c-.01 29.907-24.253 54.149-54.16 54.16"/><path fill="#F0F2EF" d="M697.883 741.647h-370.5c-31.544 0-56.435-27.663-54.007-59.112l18.754-239.372c2.16-28.217 25.694-45.634 53.988-45.634h333.03c28.313 0 51.828 17.015 54.007 45.233l18.755 242.163c2.408 31.449-22.464 56.722-54.027 56.722"/><path fill="#787B76" d="M797.008 875.47h-568.75c-22.436 0-40.625-18.188-40.625-40.624 0-22.437 18.189-40.625 40.625-40.625h568.75c22.437 0 40.625 18.188 40.625 40.625 0 22.436-18.188 40.625-40.625 40.625"/><path fill="#555958" d="m609.732 607.824-39.746-152.942H455.28l-37.623 152.942h-67.524l162.5 108.34 162.5-108.34z"/><path fill="#3B4040" d="M417.332 626.941h19.461l42.92-191.176h64.98l43.914 191.176h20.475l-96.449 60.641z"/><path fill="#E80000" d="M727.65 264.012H297.616c-30.816-.01-55.794-24.99-55.804-55.805v-3.403A55.785 55.785 0 0 1 297.617 149h430.051c30.816.01 55.794 24.989 55.805 55.804v3.384c0 30.83-24.993 55.824-55.824 55.824"/><path fill="#E58484" d="M295.973 206.506c-14.931 0-27.09-12.905-27.09-28.753 0-15.849 12.159-28.753 27.09-28.753h433.34c14.93 0 27.09 12.904 27.09 28.753 0 15.848-12.16 28.753-27.09 28.753h-433.34"/><path fill="#939692" d="M455.28 149h114.706v401.47H455.28z"/><path fill="#AAAEA8" d="M474.398 149h76.47v401.47h-76.47z"/><path fill="#555958" d="M550.868 626.941h-76.47a19.118 19.118 0 0 1-19.118-19.117v-19.118a19.118 19.118 0 0 1 19.118-19.118h76.47a19.118 19.118 0 0 1 19.118 19.118v19.118a19.118 19.118 0 0 1-19.118 19.117"/></g></g></svg>