<svg xmlns="http://www.w3.org/2000/svg" width="1025" height="1024"><g fill="none" fill-rule="evenodd"><path fill="#FFF" d="M.398 0h1024v1024H.398z"/><text fill="#000" font-family="MarkerFelt-Wide, Marker Felt" font-size="120" font-weight="bold" letter-spacing="10" transform="translate(.398)">
                <tspan x="119.94" y="823">TUF GAMING</tspan>
            </text><path fill="#040507" d="m806.398 317.93-134 75.07v107l134-73.627z"/><path fill="#DEDBD8" d="M672.398 393v107l54.02-29.672-.02-107.578z"/><path fill="#040507" d="M806.398 182 673.07 257.211 672.398 364l134-73.556z"/><path fill="#DEDBD8" d="M672.398 257v107l53.903-29.579V227.196z"/><path fill="#040507" d="m646.398 270-129 74.166V665l129-73z"/><path fill="#DEDBD8" d="m562.608 318.134-45.21 26.032V665l46.2-25.987z"/><path fill="#040507" d="m357.398 270 127 75v319.343l-127-74.343z"/><path fill="#DEDBD8" d="m431.398 313.68 54 30.32v321l-54-31.25z"/><path fill="#040507" d="m196.398 180 129 72v249l-129-75z"/></g></svg>