<?xml version="1.0" encoding="UTF-8"?>
<svg width="1025px" height="1024px" viewBox="0 0 1025 1024" version="1.1" xmlns="http://www.w3.org/2000/svg" xmlns:xlink="http://www.w3.org/1999/xlink">
    <title>Tuf.gaming</title>
    <g id="ICON-新版方图标" stroke="none" stroke-width="1" fill="none" fill-rule="evenodd">
        <g id="Tuf.gaming" transform="translate(0.3975, 0)">
            <rect id="蒙版路径" fill="#FFFFFF" x="0" y="0" width="1024" height="1024"></rect>
            <g id="TUF-GAMING" transform="translate(119.8733, 722.4186)" fill="#000000" fill-rule="nonzero">
                <path d="M63.1866667,22.4613861 C62.5466667,22.4613861 61.6666667,22.2013861 60.5466667,21.6813861 C59.4266667,21.1613861 58.5066667,20.9813861 57.7866667,21.1413861 L45.4266667,24.5013861 L45.4266667,87.6213861 C45.4266667,89.9413861 45.9866667,92.4613861 47.1066667,95.1813861 C47.4266667,95.9813861 47.3466667,97.5013861 46.8666667,99.7413861 C46.3866667,102.221386 45.6266667,103.781386 44.5866667,104.421386 C44.4266667,104.501386 44.0266667,104.541386 43.3866667,104.541386 C40.7466667,104.541386 37.0666667,104.021386 32.3466667,102.981386 C27.0666667,101.781386 23.9466667,100.621386 22.9866667,99.5013861 C21.8666667,98.0613861 21.9066667,96.1413861 23.1066667,93.7413861 C24.1466667,91.6613861 24.6666667,90.1413861 24.6666667,89.1813861 L24.6666667,29.7813861 L16.1466667,31.9413861 C15.7466667,32.0213861 15.0866667,32.3613861 14.1666667,32.9613861 C13.2466667,33.5613861 12.4666667,33.7813861 11.8266667,33.6213861 C9.98666667,33.1413861 7.46666667,30.7613861 4.26666667,26.4813861 C1.06666667,22.2013861 -0.333333333,19.3013861 0.0666666667,17.7813861 C0.706666667,15.9413861 2.58666667,14.5413861 5.70666667,13.5813861 C6.50666667,13.3413861 7.54666667,13.3013861 8.82666667,13.4613861 C10.1066667,13.6213861 11.1066667,13.6213861 11.8266667,13.4613861 L53.5866667,2.78138614 C53.9866667,2.70138614 55.1466667,2.22138614 57.0666667,1.34138614 C58.3466667,0.781386139 59.5066667,0.581386139 60.5466667,0.741386139 C62.7866667,1.06138614 64.3066667,1.94138614 65.1066667,3.38138614 C65.6666667,4.34138614 66.2666667,6.14138614 66.9066667,8.78138614 C67.7066667,11.9013861 68.1066667,14.6213861 68.1066667,16.9413861 C68.1066667,18.7013861 67.8866667,20.0413861 67.4466667,20.9613861 C67.0066667,21.8813861 65.5866667,22.3813861 63.1866667,22.4613861 Z" id="路径"></path>
                <path d="M146.506667,11.6613861 C146.586667,10.7813861 146.626667,18.4213861 146.626667,34.5813861 C146.626667,80.1813861 140.266667,103.701386 127.546667,105.141386 C125.306667,105.381386 122.606667,104.981386 119.446667,103.941386 C116.286667,102.901386 113.186667,101.861386 110.146667,100.821386 C107.506667,100.181386 104.846667,99.4813861 102.166667,98.7213861 C99.4866667,97.9613861 97.3866667,96.7413861 95.8666667,95.0613861 C92.5866667,91.4613861 89.9466667,83.6213861 87.9466667,71.5413861 C86.1866667,60.4213861 85.3066667,48.1013861 85.3066667,34.5813861 C85.3066667,24.1813861 85.8666667,15.0213861 86.9866667,7.10138614 C87.3066667,4.62138614 88.4666667,3.02138614 90.4666667,2.30138614 C91.3466667,1.98138614 94.4066667,2.54138614 99.6466667,3.98138614 C104.886667,5.42138614 107.946667,6.66138614 108.826667,7.70138614 C109.226667,8.18138614 109.426667,8.82138614 109.426667,9.62138614 C109.426667,10.6613861 109.026667,12.0813861 108.226667,13.8813861 C107.426667,15.6813861 107.066667,17.1013861 107.146667,18.1413861 C106.746667,19.6613861 106.546667,24.0613861 106.546667,31.3413861 C106.546667,45.4213861 107.186667,58.1813861 108.466667,69.6213861 C110.066667,84.3413861 112.386667,91.5413861 115.426667,91.2213861 C119.266667,90.8213861 122.146667,83.8213861 124.066667,70.2213861 C125.586667,59.7413861 126.346667,47.3813861 126.346667,33.1413861 C126.346667,23.7813861 126.066667,17.9013861 125.506667,15.5013861 C125.666667,14.1413861 125.506667,12.8213861 125.026667,11.5413861 C124.306667,9.78138614 123.946667,8.82138614 123.946667,8.66138614 C123.466667,5.94138614 124.346667,3.90138614 126.586667,2.54138614 C126.986667,2.30138614 127.666667,2.18138614 128.626667,2.18138614 C131.026667,2.18138614 134.386667,2.78138614 138.706667,3.98138614 C143.026667,5.18138614 145.546667,6.18138614 146.266667,6.98138614 C146.746667,7.54138614 146.826667,9.10138614 146.506667,11.6613861 Z" id="路径"></path>
                <path d="M223.706667,13.5813861 C223.546667,14.8613861 222.986667,16.2213861 222.026667,17.6613861 C220.826667,19.3413861 219.466667,20.2613861 217.946667,20.4213861 C217.386667,20.5013861 216.666667,20.3613861 215.786667,20.0013861 C214.906667,19.6413861 214.226667,19.4613861 213.746667,19.4613861 C212.306667,19.4613861 208.866667,20.6213861 203.426667,22.9413861 C197.506667,25.4213861 193.226667,27.7013861 190.586667,29.7813861 L190.586667,51.7413861 C190.986667,51.5813861 192.866667,50.4613861 196.226667,48.3813861 C198.466667,47.0213861 200.266667,46.3013861 201.626667,46.2213861 C203.066667,46.1413861 205.746667,48.3813861 209.666667,52.9413861 C213.586667,57.5013861 215.466667,60.5413861 215.306667,62.0613861 C215.146667,63.5013861 214.346667,64.9413861 212.906667,66.3813861 C211.786667,67.5013861 210.666667,68.2213861 209.546667,68.5413861 C209.066667,68.7013861 208.426667,68.6013861 207.626667,68.2413861 C206.826667,67.8813861 206.266667,67.7013861 205.946667,67.7013861 C205.706667,67.7013861 205.466667,67.7813861 205.226667,67.9413861 C202.906667,68.9013861 200.866667,69.7813861 199.106667,70.5813861 C194.706667,72.5813861 191.866667,74.2213861 190.586667,75.5013861 L190.586667,93.0213861 C190.586667,93.7413861 191.006667,94.6013861 191.846667,95.6013861 C192.686667,96.6013861 193.106667,97.6613861 193.106667,98.7813861 C192.946667,103.261386 190.826667,105.941386 186.746667,106.821386 C182.266667,104.741386 178.466667,102.461386 175.346667,99.9813861 C171.906667,97.1813861 170.186667,94.7413861 170.186667,92.6613861 L170.186667,13.3413861 C170.186667,12.0613861 169.726667,10.7613861 168.806667,9.44138614 C167.886667,8.12138614 167.506667,7.14138614 167.666667,6.50138614 C167.906667,5.22138614 168.666667,4.00138614 169.946667,2.84138614 C171.226667,1.68138614 172.666667,1.02138614 174.266667,0.861386139 C174.986667,0.781386139 177.186667,1.92138614 180.866667,4.28138614 C184.546667,6.64138614 186.986667,7.94138614 188.186667,8.18138614 L201.386667,2.78138614 C202.426667,1.98138614 204.226667,1.06138614 206.786667,0.0213861386 C208.786667,-0.218613861 212.146667,1.56138614 216.866667,5.36138614 C221.586667,9.16138614 223.866667,11.9013861 223.706667,13.5813861 Z" id="路径"></path>
                <path d="M343.786667,59.6613861 C343.546667,62.8613861 342.146667,64.9013861 339.586667,65.7813861 C339.106667,65.8613861 338.546667,65.7213861 337.906667,65.3613861 C337.266667,65.0013861 336.746667,64.8213861 336.346667,64.8213861 C335.866667,64.8213861 335.346667,64.9413861 334.786667,65.1813861 C331.666667,77.1013861 329.226667,85.1013861 327.466667,89.1813861 C324.266667,96.7813861 320.106667,101.741386 314.986667,104.061386 C313.626667,104.701386 312.226667,105.021386 310.786667,105.021386 C309.346667,105.021386 305.786667,103.981386 300.106667,101.901386 C297.946667,101.341386 294.546667,100.181386 289.906667,98.4213861 C285.266667,96.1813861 281.666667,91.0213861 279.106667,82.9413861 C276.786667,75.5813861 275.626667,66.8213861 275.626667,56.6613861 C275.626667,43.4613861 277.466667,31.7013861 281.146667,21.3813861 C285.146667,10.1013861 290.426667,3.78138614 296.986667,2.42138614 C297.546667,2.34138614 298.186667,2.30138614 298.906667,2.30138614 C302.906667,2.30138614 307.786667,3.58138614 313.546667,6.14138614 C319.706667,8.86138614 323.866667,11.8613861 326.026667,15.1413861 C327.786667,17.7813861 328.946667,21.1413861 329.506667,25.2213861 C330.226667,29.8613861 330.666667,32.3813861 330.826667,32.7813861 C331.066667,34.1413861 331.386667,35.7813861 331.786667,37.7013861 C331.866667,38.7413861 331.466667,39.9613861 330.586667,41.3613861 C329.706667,42.7613861 328.866667,43.6213861 328.066667,43.9413861 C327.026667,44.3413861 323.906667,43.7613861 318.706667,42.2013861 C313.506667,40.6413861 310.386667,39.4213861 309.346667,38.5413861 C307.906667,37.5813861 307.306667,35.7013861 307.546667,32.9013861 C307.546667,32.5013861 307.746667,32.0013861 308.146667,31.4013861 C308.546667,30.8013861 308.746667,30.2613861 308.746667,29.7813861 C308.746667,24.1013861 308.106667,21.2613861 306.826667,21.2613861 C304.106667,21.1813861 301.706667,25.7413861 299.626667,34.9413861 C297.706667,43.5813861 296.746667,53.0213861 296.746667,63.2613861 C296.746667,78.4613861 298.866667,87.1813861 303.106667,89.4213861 C304.386667,90.0613861 306.126667,87.8613861 308.326667,82.8213861 C310.526667,77.7813861 311.826667,73.0613861 312.226667,68.6613861 C310.946667,67.7013861 308.506667,66.4613861 304.906667,64.9413861 C302.026667,63.7413861 300.466667,62.7013861 300.226667,61.8213861 C299.906667,60.6213861 300.306667,58.9213861 301.426667,56.7213861 C302.546667,54.5213861 303.726667,53.1013861 304.966667,52.4613861 C306.206667,51.8213861 307.946667,51.4613861 310.186667,51.3813861 C313.226667,51.3813861 315.066667,51.3013861 315.706667,51.1413861 C317.066667,50.9013861 319.266667,50.2213861 322.306667,49.1013861 C324.786667,48.1413861 326.666667,47.6613861 327.946667,47.6613861 C328.426667,47.6613861 328.866667,47.7013861 329.266667,47.7813861 C331.266667,48.1813861 334.206667,49.9813861 338.086667,53.1813861 C341.966667,56.3813861 343.866667,58.5413861 343.786667,59.6613861 Z" id="路径"></path>
                <path d="M427.586667,95.6613861 C427.506667,96.3813861 427.346667,98.1013861 427.106667,100.821386 C427.026667,102.261386 426.706667,103.341386 426.146667,104.061386 C425.746667,104.301386 425.066667,104.421386 424.106667,104.421386 C421.466667,104.421386 418.186667,103.741386 414.266667,102.381386 C410.026667,101.101386 407.146667,99.5813861 405.626667,97.8213861 C404.986667,97.1013861 404.346667,94.7013861 403.706667,90.6213861 C402.826667,85.2613861 401.826667,80.8213861 400.706667,77.3013861 C397.666667,77.7013861 393.226667,78.8013861 387.386667,80.6013861 C381.546667,82.4013861 377.746667,83.9013861 375.986667,85.1013861 C374.786667,88.5413861 373.186667,92.7813861 371.186667,97.8213861 C370.946667,98.9413861 370.686667,100.001386 370.406667,101.001386 C370.126667,102.001386 369.426667,102.821386 368.306667,103.461386 C368.066667,103.621386 367.706667,103.701386 367.226667,103.701386 C365.306667,103.701386 362.086667,102.701386 357.566667,100.701386 C353.046667,98.7013861 350.706667,97.3813861 350.546667,96.7413861 C350.226667,95.6213861 350.986667,92.8613861 352.826667,88.4613861 C355.386667,82.0613861 356.866667,78.1413861 357.266667,76.7013861 C355.586667,75.0213861 354.746667,73.3413861 354.746667,71.6613861 C354.746667,71.2613861 354.786667,70.8213861 354.866667,70.3413861 C355.026667,69.3813861 357.466667,67.6613861 362.186667,65.1813861 L377.666667,12.2613861 C377.906667,11.3013861 377.946667,9.54138614 377.786667,6.98138614 C377.626667,4.82138614 377.866667,3.46138614 378.506667,2.90138614 C378.906667,2.50138614 379.866667,2.30138614 381.386667,2.30138614 C385.146667,2.30138614 390.506667,3.26138614 397.466667,5.18138614 C404.426667,7.10138614 408.586667,8.82138614 409.946667,10.3413861 C410.426667,19.2213861 412.226667,32.5413861 415.346667,50.3013861 C419.346667,72.2213861 423.426667,87.3413861 427.586667,95.6613861 Z M396.266667,59.1813861 C395.226667,54.1413861 394.586667,50.8213861 394.346667,49.2213861 C393.466667,43.8613861 392.866667,38.3013861 392.546667,32.5413861 C390.946667,36.4613861 389.066667,41.9013861 386.906667,48.8613861 C384.586667,56.1413861 383.346667,60.7013861 383.186667,62.5413861 C384.706667,61.9013861 389.066667,60.7813861 396.266667,59.1813861 Z" id="形状"></path>
                <path d="M553.626667,99.1413861 C553.066667,102.581386 552.106667,104.461386 550.746667,104.781386 C548.826667,105.261386 545.146667,104.741386 539.706667,103.221386 C533.946667,101.621386 530.666667,100.021386 529.866667,98.4213861 C529.626667,97.8613861 529.506667,97.2613861 529.506667,96.6213861 C529.506667,96.1413861 529.606667,95.3613861 529.806667,94.2813861 C530.006667,93.2013861 530.106667,92.3013861 530.106667,91.5813861 L530.106667,37.1013861 C526.346667,44.4613861 521.426667,61.0213861 515.346667,86.7813861 C515.266667,87.1013861 515.226667,87.4613861 515.226667,87.8613861 C515.226667,88.6613861 515.366667,89.9413861 515.646667,91.7013861 C515.926667,93.4613861 516.066667,94.5813861 516.066667,95.0613861 C515.986667,97.5413861 515.866667,99.1413861 515.706667,99.8613861 C515.306667,101.461386 514.466667,102.421386 513.186667,102.741386 C512.386667,102.981386 510.986667,103.101386 508.986667,103.101386 C498.586667,103.101386 491.426667,101.301386 487.506667,97.7013861 C486.866667,97.1413861 486.626667,96.1413861 486.786667,94.7013861 C486.946667,92.9413861 486.946667,91.7813861 486.786667,91.2213861 C483.826667,82.1013861 481.186667,74.1013861 478.866667,67.2213861 C473.266667,50.5813861 469.626667,40.7813861 467.946667,37.8213861 L467.946667,85.5813861 C467.946667,86.6213861 468.266667,88.0613861 468.906667,89.9013861 C469.706667,92.1413861 470.146667,93.5413861 470.226667,94.1013861 C470.546667,95.7013861 470.626667,97.6213861 470.466667,99.8613861 C470.306667,102.581386 469.746667,104.261386 468.786667,104.901386 C468.306667,105.221386 467.386667,105.381386 466.026667,105.381386 C463.066667,105.381386 459.546667,104.861386 455.466667,103.821386 C451.066667,102.781386 448.466667,101.701386 447.666667,100.581386 C447.266667,100.021386 447.066667,99.3413861 447.066667,98.5413861 C447.066667,98.0613861 447.206667,97.2613861 447.486667,96.1413861 C447.766667,95.0213861 447.906667,94.1413861 447.906667,93.5013861 L447.906667,8.42138614 C447.906667,7.46138614 448.306667,6.36138614 449.106667,5.12138614 C449.906667,3.88138614 450.826667,3.06138614 451.866667,2.66138614 C453.226667,2.10138614 458.466667,3.06138614 467.586667,5.54138614 C477.106667,8.02138614 482.146667,10.1813861 482.706667,12.0213861 C482.946667,12.7413861 482.986667,13.7013861 482.826667,14.9013861 C482.586667,16.5813861 482.466667,17.5813861 482.466667,17.9013861 C482.466667,18.6213861 482.586667,19.2613861 482.826667,19.8213861 L499.026667,63.3813861 C501.266667,56.2613861 505.346667,41.8213861 511.266667,20.0613861 C514.226667,8.94138614 516.626667,3.14138614 518.466667,2.66138614 C519.026667,2.50138614 519.666667,2.42138614 520.386667,2.42138614 C521.746667,2.42138614 524.026667,2.78138614 527.226667,3.50138614 C530.746667,4.38138614 533.186667,4.86138614 534.546667,4.94138614 C540.866667,5.50138614 544.506667,5.86138614 545.466667,6.02138614 C549.226667,6.74138614 551.346667,8.06138614 551.826667,9.98138614 C551.986667,10.5413861 552.066667,11.1413861 552.066667,11.7813861 C552.066667,12.5813861 551.866667,13.7213861 551.466667,15.2013861 C551.066667,16.6813861 550.866667,17.7813861 550.866667,18.5013861 L550.866667,91.9413861 C550.866667,92.7413861 551.366667,93.9413861 552.366667,95.5413861 C553.366667,97.1413861 553.786667,98.3413861 553.626667,99.1413861 Z" id="路径"></path>
                <path d="M598.786667,8.06138614 C598.786667,8.62138614 598.606667,9.38138614 598.246667,10.3413861 C597.886667,11.3013861 597.666667,11.9013861 597.586667,12.1413861 C597.106667,13.7413861 596.626667,16.2213861 596.146667,19.5813861 L596.146667,93.2613861 C596.146667,94.2213861 596.386667,95.0813861 596.866667,95.8413861 C597.346667,96.6013861 597.586667,97.2213861 597.586667,97.7013861 C597.586667,102.821386 596.626667,105.581386 594.706667,105.981386 C593.986667,106.141386 591.186667,105.621386 586.306667,104.421386 C581.186667,103.141386 578.226667,102.141386 577.426667,101.421386 C575.666667,99.9013861 574.786667,98.5013861 574.786667,97.2213861 C574.786667,96.9013861 574.946667,96.5413861 575.266667,96.1413861 C575.586667,95.7413861 575.746667,95.0613861 575.746667,94.1013861 L575.746667,9.50138614 C575.746667,9.02138614 575.606667,8.52138614 575.326667,8.00138614 C575.046667,7.48138614 574.906667,6.98138614 574.906667,6.50138614 C575.066667,4.58138614 576.546667,3.30138614 579.346667,2.66138614 C580.226667,2.50138614 582.066667,2.50138614 584.866667,2.66138614 C588.306667,2.90138614 591.186667,3.34138614 593.506667,3.98138614 C597.026667,4.94138614 598.786667,6.30138614 598.786667,8.06138614 Z" id="路径"></path>
                <path d="M687.026667,8.06138614 C687.026667,8.94138614 686.866667,9.78138614 686.546667,10.5813861 C685.986667,11.9413861 685.626667,13.0213861 685.466667,13.8213861 L685.466667,93.0213861 C685.466667,92.7813861 685.666667,94.2613861 686.066667,97.4613861 C686.546667,101.141386 686.066667,103.541386 684.626667,104.661386 C683.186667,105.781386 679.946667,106.101386 674.906667,105.621386 C672.026667,105.381386 668.706667,104.621386 664.946667,103.341386 C660.066667,101.821386 657.386667,100.221386 656.906667,98.5413861 C656.986667,97.4213861 656.866667,95.7013861 656.546667,93.3813861 C652.066667,81.5413861 646.866667,68.5413861 640.946667,54.3813861 L640.946667,89.9013861 C640.946667,90.5413861 641.226667,91.3813861 641.786667,92.4213861 C642.506667,93.7813861 642.866667,94.5013861 642.866667,94.5813861 C643.266667,95.7813861 643.466667,96.9813861 643.466667,98.1813861 C643.466667,101.381386 642.026667,102.981386 639.146667,102.981386 C636.346667,102.981386 632.386667,102.181386 627.266667,100.581386 C622.466667,98.9813861 619.746667,97.7413861 619.106667,96.8613861 C618.146667,95.5813861 618.146667,93.9413861 619.106667,91.9413861 C620.066667,89.9413861 620.546667,88.7013861 620.546667,88.2213861 L620.546667,12.9813861 C620.546667,12.5013861 620.426667,11.7813861 620.186667,10.8213861 C619.946667,9.86138614 619.906667,9.10138614 620.066667,8.54138614 C620.866667,5.82138614 622.426667,3.98138614 624.746667,3.02138614 C625.146667,2.86138614 626.026667,2.78138614 627.386667,2.78138614 C630.506667,2.78138614 633.706667,3.18138614 636.986667,3.98138614 C641.226667,4.94138614 644.186667,6.30138614 645.866667,8.06138614 C648.106667,10.4613861 651.026667,17.7813861 654.626667,30.0213861 C659.026667,45.0613861 662.466667,55.2213861 664.946667,60.5013861 L664.946667,13.3413861 C664.946667,12.7013861 664.786667,11.8013861 664.466667,10.6413861 C664.146667,9.48138614 663.986667,8.58138614 663.986667,7.94138614 C663.986667,7.46138614 664.066667,7.02138614 664.226667,6.62138614 C664.626667,5.26138614 666.146667,4.26138614 668.786667,3.62138614 C670.866667,3.06138614 672.866667,2.86138614 674.786667,3.02138614 C676.626667,3.18138614 678.826667,3.62138614 681.386667,4.34138614 C685.066667,5.46138614 686.946667,6.70138614 687.026667,8.06138614 Z" id="路径"></path>
                <path d="M774.546667,59.6613861 C774.306667,62.8613861 772.906667,64.9013861 770.346667,65.7813861 C769.866667,65.8613861 769.306667,65.7213861 768.666667,65.3613861 C768.026667,65.0013861 767.506667,64.8213861 767.106667,64.8213861 C766.626667,64.8213861 766.106667,64.9413861 765.546667,65.1813861 C762.426667,77.1013861 759.986667,85.1013861 758.226667,89.1813861 C755.026667,96.7813861 750.866667,101.741386 745.746667,104.061386 C744.386667,104.701386 742.986667,105.021386 741.546667,105.021386 C740.106667,105.021386 736.546667,103.981386 730.866667,101.901386 C728.706667,101.341386 725.306667,100.181386 720.666667,98.4213861 C716.026667,96.1813861 712.426667,91.0213861 709.866667,82.9413861 C707.546667,75.5813861 706.386667,66.8213861 706.386667,56.6613861 C706.386667,43.4613861 708.226667,31.7013861 711.906667,21.3813861 C715.906667,10.1013861 721.186667,3.78138614 727.746667,2.42138614 C728.306667,2.34138614 728.946667,2.30138614 729.666667,2.30138614 C733.666667,2.30138614 738.546667,3.58138614 744.306667,6.14138614 C750.466667,8.86138614 754.626667,11.8613861 756.786667,15.1413861 C758.546667,17.7813861 759.706667,21.1413861 760.266667,25.2213861 C760.986667,29.8613861 761.426667,32.3813861 761.586667,32.7813861 C761.826667,34.1413861 762.146667,35.7813861 762.546667,37.7013861 C762.626667,38.7413861 762.226667,39.9613861 761.346667,41.3613861 C760.466667,42.7613861 759.626667,43.6213861 758.826667,43.9413861 C757.786667,44.3413861 754.666667,43.7613861 749.466667,42.2013861 C744.266667,40.6413861 741.146667,39.4213861 740.106667,38.5413861 C738.666667,37.5813861 738.066667,35.7013861 738.306667,32.9013861 C738.306667,32.5013861 738.506667,32.0013861 738.906667,31.4013861 C739.306667,30.8013861 739.506667,30.2613861 739.506667,29.7813861 C739.506667,24.1013861 738.866667,21.2613861 737.586667,21.2613861 C734.866667,21.1813861 732.466667,25.7413861 730.386667,34.9413861 C728.466667,43.5813861 727.506667,53.0213861 727.506667,63.2613861 C727.506667,78.4613861 729.626667,87.1813861 733.866667,89.4213861 C735.146667,90.0613861 736.886667,87.8613861 739.086667,82.8213861 C741.286667,77.7813861 742.586667,73.0613861 742.986667,68.6613861 C741.706667,67.7013861 739.266667,66.4613861 735.666667,64.9413861 C732.786667,63.7413861 731.226667,62.7013861 730.986667,61.8213861 C730.666667,60.6213861 731.066667,58.9213861 732.186667,56.7213861 C733.306667,54.5213861 734.486667,53.1013861 735.726667,52.4613861 C736.966667,51.8213861 738.706667,51.4613861 740.946667,51.3813861 C743.986667,51.3813861 745.826667,51.3013861 746.466667,51.1413861 C747.826667,50.9013861 750.026667,50.2213861 753.066667,49.1013861 C755.546667,48.1413861 757.426667,47.6613861 758.706667,47.6613861 C759.186667,47.6613861 759.626667,47.7013861 760.026667,47.7813861 C762.026667,48.1813861 764.966667,49.9813861 768.846667,53.1813861 C772.726667,56.3813861 774.626667,58.5413861 774.546667,59.6613861 Z" id="路径"></path>
            </g>
            <g id="编组-13" transform="translate(661.5, 423.5) scale(-1, 1) translate(-661.5, -423.5)translate(517, 182)">
                <g id="编组-12" transform="translate(0, 135.9296)">
                    <polygon id="矩形" fill="#040507" points="2.47407307e-16 2.25541511e-12 134 75.070357 134 182.070357 1.53804464e-14 108.44387"></polygon>
                    <polygon id="矩形" fill="#DEDBD8" points="134 75.070357 134 182.070357 79.9798279 152.398497 80 44.820357"></polygon>
                </g>
                <g id="编组-12">
                    <polygon id="矩形" fill="#040507" points="2.47407307e-16 2.25541511e-12 133.326672 75.2110709 134 182 1.53804464e-14 108.44387"></polygon>
                    <polygon id="矩形" fill="#DEDBD8" points="134 75 134 182 80.0964379 152.421107 80.0964379 45.1957846"></polygon>
                </g>
                <polygon id="矩形" fill="#040507" points="160 88 289 162.166063 289 483 160 410"></polygon>
                <polygon id="矩形" fill="#DEDBD8" points="243.789107 136.134206 289 162.166063 289 483 242.800174 457.013451"></polygon>
            </g>
            <g id="编组-13" transform="translate(196, 180)">
                <polygon id="矩形" fill="#040507" points="161 90 288 165 288 484.343039 161 410"></polygon>
                <polygon id="矩形" fill="#DEDBD8" points="235 133.68016 289 164 289 485 235 453.75"></polygon>
                <polygon id="矩形" fill="#040507" points="9.99154438e-12 -2.802802e-11 129 72 129 321 1.01577913e-11 246"></polygon>
            </g>
        </g>
    </g>
</svg>