<svg xmlns="http://www.w3.org/2000/svg" width="1025" height="1024"><g fill="none" fill-rule="evenodd"><path fill="#E65329" d="M.633 0h1024v1024H.633z"/><path fill="#FFF" fill-rule="nonzero" d="M246.093 591.914c54.918 0 99.438-44.52 99.438-99.438s-44.52-99.438-99.438-99.438c-54.93 0-99.46 44.53-99.46 99.46 0 54.93 44.53 99.46 99.46 99.46v-.044m414.158-218.038c54.918 0 99.438-44.52 99.438-99.438S715.169 175 660.251 175s-99.438 44.52-99.438 99.438 44.52 99.438 99.438 99.438M470.387 748.442A242.143 242.143 0 0 1 305.24 622.45a143.186 143.186 0 0 1-85.045 10.499c40.374 99.823 127.74 173.038 233.086 195.333a330.141 330.141 0 0 0 70.609 7.262 142.31 142.31 0 0 1-29.136-83.12 246.692 246.692 0 0 1-24.367-3.982m167.465 99.964a99.438 99.438 0 1 0 0-198.877c-54.918 0-99.438 44.52-99.438 99.438 0 54.919 44.52 99.439 99.438 99.439m138.374-135.968c87.467-110.31 94.053-264.368 16.317-381.74a143.317 143.317 0 0 1-55.909 65.533c40.462 76.423 37.416 168.56-8.006 242.143a142.617 142.617 0 0 1 47.598 74.064M238.437 349.903a143.492 143.492 0 0 1 82.99 21.26c44.468-64.246 117.165-103.135 195.288-104.468 1.619-29.311 12.118-57.44 30.186-80.627-125.824-9.503-245.882 54.264-308.464 163.835Z"/></g></svg>