<?xml version="1.0" encoding="UTF-8"?>
<svg width="1025px" height="1024px" viewBox="0 0 1025 1024" version="1.1" xmlns="http://www.w3.org/2000/svg" xmlns:xlink="http://www.w3.org/1999/xlink">
    <title>Vertex</title>
    <g id="ICON-新版方图标" stroke="none" stroke-width="1" fill="none" fill-rule="evenodd">
        <g id="Vertex" transform="translate(0.061, 0)">
            <rect id="蒙版路径" fill="#1B2F45" x="0" y="0" width="1024" height="1024"></rect>
            <g id="编组" transform="translate(159, 264)" fill="#00A0E9" fill-rule="nonzero">
                <path d="M0,31.2262578 L0,141.33284 C0,149.614355 3.2899841,157.556648 9.1459685,163.412494 L335.342772,489.609297 C341.198653,495.465196 349.140946,498.75499 357.422425,498.75499 L467.529063,498.75499 C480.158415,498.75499 491.544158,491.14711 496.377223,479.479119 C501.210288,467.811128 498.538905,454.380678 489.608717,445.450266 L53.305,9.14660427 C44.3746135,0.21621833 30.9440358,-2.45528951 19.2759239,2.37780061 C7.60781196,7.21089073 0,18.5967845 0,31.2262578 Z" id="路径"></path>
                <path d="M646.672346,9.16931293 L403.327709,252.513951 C394.393543,261.448135 391.720907,274.884411 396.556046,286.557474 C401.391184,298.230538 412.7819,305.841604 425.416732,305.841604 L535.485724,305.841604 C543.770734,305.841604 551.716406,302.550373 557.574803,296.691998 L690.850394,163.416407 C696.708769,157.55801 700,149.612338 700,141.327329 L700,31.2583366 C700,18.6235047 692.388933,7.23278822 680.71587,2.39764998 C669.042806,-2.43748827 655.606531,0.235147144 646.672346,9.16931293 Z" id="路径"></path>
            </g>
        </g>
    </g>
</svg>