<svg xmlns="http://www.w3.org/2000/svg" width="1025" height="1024"><g fill="none" fill-rule="evenodd"><path fill="#13214C" d="M.633 0h1024v1024H.633z"/><path fill="#FFF" fill-rule="nonzero" d="M797.578 238.28c6.565 5.287 8.616 11.709 9.437 14.353 28.311 44.194 56.212 88.765 84.523 132.959 1.231 4.155 2.462 9.82 2.462 16.242 0 4.533-.41 8.688-1.23 12.087-33.646 47.971-67.291 95.942-101.347 143.913-.82 1.134-9.026 8.688-21.335 7.555-9.848-.755-15.592-6.421-17.233-7.932-108.321-166.577-187.1-290.093-196.127-308.601-1.641-3.4-6.154-12.465-2.051-20.398 3.692-6.799 12.72-9.82 18.053-10.954 70.983 4.91 141.556 9.821 212.129 14.732 2.872.377 7.795 1.888 12.719 6.043"/><path fill="#017BFD" fill-rule="nonzero" d="M115.431 264.005c90.657 132.813 181.725 265.248 272.382 398.06 5.332 6.055 14.357 9.082 22.972 8.325 12.716-1.513 18.46-10.973 18.87-11.73 40.2-51.082 80.811-102.164 121.012-153.246 2.051-3.783 4.923-11.351 5.333-20.81 0-10.974-4.102-19.298-6.153-23.082-51.687-75.677-103.374-151.354-155.06-227.41-2.052-1.891-7.385-6.81-15.589-8.702-6.563-1.514-11.896-.757-14.767-.379-8.205 0-197.723-.378-229.31 7.947-4.102 1.135-13.947 3.783-18.87 11.73-1.23.756-6.153 9.837-.82 19.297"/><path fill="#52B8FF" fill-rule="nonzero" d="M189.618 374.005c90.825 132.813 182.06 265.248 272.884 398.06 5.343 6.055 14.384 9.082 23.015 8.325 12.74-1.513 18.493-10.973 18.904-11.73 40.275-51.082 80.961-102.164 121.236-153.246 2.055-3.783 4.932-11.351 5.343-20.81 0-10.974-4.11-19.298-6.165-23.082-51.782-75.677-103.564-151.354-155.346-227.41-2.055-1.891-7.398-6.81-15.617-8.702-6.576-1.514-11.918-.757-14.795-.379-8.22 0-198.087-.378-229.732 7.947-4.11 1.135-13.973 3.783-18.905 11.73-1.233.378-6.575 9.46-.822 19.297"/><path fill="#FFF" fill-rule="nonzero" d="M272.431 494.005c90.657 132.813 181.725 265.248 272.382 398.06 5.332 6.055 14.357 9.082 22.972 8.325 12.716-1.513 18.46-10.973 18.87-11.73 40.2-51.082 80.811-102.164 121.012-153.246 2.051-3.783 4.923-11.351 5.333-20.81 0-10.974-4.102-19.298-6.153-23.082-51.687-75.677-103.374-151.354-155.06-227.41-2.052-1.891-7.385-6.81-15.589-8.702-6.563-1.514-11.896-.757-14.767-.379-8.205 0-197.723-.378-229.31 7.947-4.102 1.135-13.947 3.783-18.87 11.73-1.23.756-6.153 9.837-.82 19.297"/></g></svg>