<svg xmlns="http://www.w3.org/2000/svg" width="1025" height="1024"><defs><radialGradient id="a" cx="2.275%" cy="-3.061%" r="145.565%" fx="2.275%" fy="-3.061%" gradientTransform="matrix(-.9463 0 0 -1 .044 -.061)"><stop offset="0%" stop-color="#3D4EAD"/><stop offset="100%" stop-color="#00C0F3"/></radialGradient><radialGradient id="c" cx="-5.519%" cy="96.864%" r="302.384%" fx="-5.519%" fy="96.864%" gradientTransform="matrix(-.3694 0 0 -1 -.076 1.937)"><stop offset="0%" stop-color="#3D4EAD"/><stop offset="100%" stop-color="#00C0F3"/></radialGradient><radialGradient id="d" cx="85.321%" cy="372.598%" r="444.351%" fx="85.321%" fy="372.598%" gradientTransform="scale(-.4831 -1)rotate(63.934 5.514 -2.099)"><stop offset="0%" stop-color="#0072E9"/><stop offset="100%" stop-color="#00FDFE"/></radialGradient><radialGradient id="e" cx="49.999%" cy="50.001%" r="44.441%" fx="49.999%" fy="50.001%" gradientTransform="scale(1 .4012)rotate(7.49 -5.2 .873)"><stop offset="0%" stop-color="#153E68" stop-opacity=".34"/><stop offset="100%" stop-color="#153E68" stop-opacity=".01"/></radialGradient><radialGradient id="f" cx="28.842%" cy="30.838%" r="32.935%" fx="28.842%" fy="30.838%" gradientTransform="scale(-.8495 -1)rotate(-46.722 -.74 .727)"><stop offset="0%" stop-color="#00336F"/><stop offset="100%" stop-color="#00336F" stop-opacity="0"/></radialGradient><radialGradient id="g" cx="41.671%" cy="34.182%" r="36.981%" fx="41.671%" fy="34.182%" gradientTransform="scale(-.6546 -1)rotate(-60.247 -.699 .908)"><stop offset="0%" stop-color="#00336F" stop-opacity=".5"/><stop offset="100%" stop-color="#00336F" stop-opacity="0"/></radialGradient><radialGradient id="h" cx="27.095%" cy="36.173%" r="37.474%" fx="27.095%" fy="36.173%" gradientTransform="scale(-.7949 -1)rotate(-67.816 -.573 .455)"><stop offset="0%" stop-color="#00336F" stop-opacity=".5"/><stop offset="100%" stop-color="#00336F" stop-opacity="0"/></radialGradient><radialGradient id="i" cx="27.108%" cy="36.196%" r="37.551%" fx="27.108%" fy="36.196%" gradientTransform="scale(-.7892 -1)rotate(-67.623 -.577 .459)"><stop offset="0%" stop-color="#00336F"/><stop offset="100%" stop-color="#00336F" stop-opacity="0"/></radialGradient><radialGradient id="j" cx="66.19%" cy="27.242%" r="34.799%" fx="66.19%" fy="27.242%" gradientTransform="scale(-.7075 -1)rotate(45.74 .509 -1.894)"><stop offset="0%" stop-color="#002D68"/><stop offset="100%" stop-color="#002D68" stop-opacity="0"/></radialGradient><radialGradient id="k" cx="65.661%" cy="27.945%" r="35.411%" fx="65.661%" fy="27.945%" gradientTransform="scale(-.8313 -1)rotate(50.127 .531 -1.546)"><stop offset="0%" stop-color="#002D68"/><stop offset="100%" stop-color="#002D68" stop-opacity="0"/></radialGradient><radialGradient id="l" cx="67.503%" cy="31.824%" r="37.904%" fx="67.503%" fy="31.824%" gradientTransform="scale(-.6992 -1)rotate(62.525 .379 -1.351)"><stop offset="0%" stop-color="#002D68"/><stop offset="100%" stop-color="#002D68" stop-opacity="0"/></radialGradient><radialGradient id="m" cx="73.081%" cy="62.127%" r="31.407%" fx="73.081%" fy="62.127%" gradientTransform="scale(1 .9989)rotate(-63.504 .731 .622)"><stop offset="0%" stop-color="#002D68"/><stop offset="100%" stop-color="#002D68" stop-opacity="0"/></radialGradient><radialGradient id="n" cx=".086%" cy="62.98%" r="203.097%" fx=".086%" fy="62.98%" gradientTransform="scale(.4989 1)rotate(-7.438 .001 .623)"><stop offset="0%" stop-color="#00326D"/><stop offset="100%" stop-color="#003B79" stop-opacity="0"/></radialGradient><radialGradient id="o" cx=".086%" cy="39.968%" r="191.652%" fx=".086%" fy="39.968%" gradientTransform="scale(.5272 1)rotate(5.999 .001 .407)"><stop offset="0%" stop-color="#00326D"/><stop offset="100%" stop-color="#003B79" stop-opacity="0"/></radialGradient><radialGradient id="p" cx=".091%" cy="61.051%" r="185.854%" fx=".091%" fy="61.051%" gradientTransform="scale(.5445 1)rotate(-6.924 .001 .604)"><stop offset="0%" stop-color="#00326D"/><stop offset="100%" stop-color="#003B79" stop-opacity="0"/></radialGradient><radialGradient id="u" cx="49.999%" cy="49.999%" r="73.629%" fx="49.999%" fy="49.999%" gradientTransform="scale(.7713 1)rotate(32.886 .574 .751)"><stop offset="0%" stop-color="#153E68"/><stop offset="100%" stop-color="#153E68" stop-opacity="0"/></radialGradient><radialGradient id="v" cx="50%" cy="50%" r="72.973%" fx="50%" fy="50%" gradientTransform="scale(.8206 1)rotate(37.082 .555 .663)"><stop offset="0%" stop-color="#153E68"/><stop offset="100%" stop-color="#153E68" stop-opacity="0"/></radialGradient><radialGradient id="w" cx="50%" cy="50.001%" r="84.6%" fx="50%" fy="50.001%" gradientTransform="scale(.6621 1)rotate(-29.208 .628 .01)"><stop offset="0%" stop-color="#153E68"/><stop offset="100%" stop-color="#153E68" stop-opacity="0"/></radialGradient><radialGradient id="x" cx="50%" cy="50%" r="81.573%" fx="50%" fy="50%" gradientTransform="scale(.6831 1)rotate(-29.208 .616 .055)"><stop offset="0%" stop-color="#153E68"/><stop offset="100%" stop-color="#153E68" stop-opacity="0"/></radialGradient><radialGradient id="y" cx="50%" cy="49.999%" r="73.738%" fx="50%" fy="49.999%" gradientTransform="scale(.7863 1)rotate(-34.576 .568 .282)"><stop offset="0%" stop-color="#153E68"/><stop offset="100%" stop-color="#1A426B" stop-opacity="0"/></radialGradient><radialGradient id="z" cx="49.999%" cy="50%" r="87.569%" fx="49.999%" fy="50%" gradientTransform="scale(1 .6136)rotate(-65.944 .743 .657)"><stop offset="0%" stop-color="#153E68"/><stop offset="100%" stop-color="#1B436C" stop-opacity="0"/></radialGradient><radialGradient id="C" cx="50%" cy="49.998%" r="44.159%" fx="50%" fy="49.998%" gradientTransform="scale(.6171 1)rotate(70.945 .655 .718)"><stop offset="0%" stop-color="#153E68"/><stop offset="100%" stop-color="#153E68" stop-opacity="0"/></radialGradient><radialGradient id="D" cx="50%" cy="50.003%" r="49.892%" fx="50%" fy="50.003%" gradientTransform="scale(.5377 1)rotate(87.64 .715 .724)"><stop offset="0%" stop-color="#153E68"/><stop offset="100%" stop-color="#153E68" stop-opacity="0"/></radialGradient><radialGradient id="E" cx="50.001%" cy="50%" r="39.638%" fx="50.001%" fy="50%" gradientTransform="matrix(.23644 .9211 -.55938 .38932 .661 -.155)"><stop offset="0%" stop-color="#153E68"/><stop offset="100%" stop-color="#153E68" stop-opacity="0"/></radialGradient><radialGradient id="H" cx="50.001%" cy="49.999%" r="88.303%" fx="50.001%" fy="49.999%" gradientTransform="matrix(-.4369 0 0 -1 .718 1)"><stop offset="0%" stop-color="#F9F9FA"/><stop offset="100%" stop-color="#F5F7F7"/></radialGradient><radialGradient id="I" cx="50%" cy="50.002%" r="71.91%" fx="50%" fy="50.002%" gradientTransform="scale(.8082 1)rotate(35.366 .56 .686)"><stop offset="0%" stop-color="#153E68"/><stop offset="100%" stop-color="#153E68" stop-opacity="0"/></radialGradient><radialGradient id="J" cx="50.001%" cy="49.999%" r="65.273%" fx="50.001%" fy="49.999%" gradientTransform="matrix(.70187 .5788 -.49817 .81547 .398 -.197)"><stop offset="0%" stop-color="#153E68"/><stop offset="100%" stop-color="#153E68" stop-opacity="0"/></radialGradient><radialGradient id="K" cx="49.999%" cy="50.002%" r="65.273%" fx="49.999%" fy="50.002%" gradientTransform="matrix(.70187 .5788 -.49817 .81547 .398 -.197)"><stop offset="0%" stop-color="#153E68"/><stop offset="100%" stop-color="#153E68" stop-opacity="0"/></radialGradient><radialGradient id="P" cx="50%" cy="50.001%" r="64.966%" fx="50%" fy="50.001%" gradientTransform="matrix(-.8942 0 0 -1 .947 1)"><stop offset="0%" stop-color="#3F51B5"/><stop offset="100%" stop-color="#04BBF3"/></radialGradient><linearGradient id="b" x1="100%" x2="-.647%" y1="50.265%" y2="50.265%"><stop offset="0%" stop-color="#3F51B4"/><stop offset="100%" stop-color="#00C0F3"/></linearGradient><linearGradient id="q" x1="100%" x2="0%" y1="50.002%" y2="50.002%"><stop offset="0%" stop-color="#F5F7FA"/><stop offset="53%" stop-color="#F1F4F2"/><stop offset="100%" stop-color="#BAD7E9"/></linearGradient><linearGradient id="r" x1="100%" x2=".001%" y1="49.737%" y2="49.737%"><stop offset="0%" stop-color="#FAFAFA"/><stop offset="26%" stop-color="#F1F6F8"/><stop offset="73%" stop-color="#DCE5EB"/><stop offset="100%" stop-color="#BBCFDA"/></linearGradient><linearGradient id="s" x1="50%" x2="50%" y1="100.001%" y2="0%"><stop offset="0%" stop-color="#FDFDFF"/><stop offset="26%" stop-color="#F1F2F2"/><stop offset="73%" stop-color="#BFD2E0"/><stop offset="100%" stop-color="#AFC0CC"/></linearGradient><linearGradient id="t" x1="50.705%" x2="50.705%" y1="99.059%" y2=".001%"><stop offset="0%" stop-color="#F1F6F6"/><stop offset="41%" stop-color="#FDFDFD"/><stop offset="55%" stop-color="#F5F8FA"/><stop offset="89%" stop-color="#D6E1E7"/><stop offset="98%" stop-color="#C3D3DD"/><stop offset="100%" stop-color="#C3D3DD"/></linearGradient><linearGradient id="A" x1="45.951%" x2="57.047%" y1="95.314%" y2="5.6%"><stop offset="0%" stop-color="#FDFDFF"/><stop offset="26%" stop-color="#F1F2F2"/><stop offset="73%" stop-color="#BFD2E0"/><stop offset="100%" stop-color="#AFC0CC"/></linearGradient><linearGradient id="B" x1="88.753%" x2="11.246%" y1="50.001%" y2="50%"><stop offset="0%" stop-color="#FAFAFA"/><stop offset="26%" stop-color="#F1F6F8"/><stop offset="73%" stop-color="#DCE5EB"/><stop offset="100%" stop-color="#BBCFDA"/></linearGradient><linearGradient id="F" x1="68.705%" x2="27.57%" y1="58.732%" y2="34.364%"><stop offset="0%" stop-color="#FDFDFF"/><stop offset="26%" stop-color="#F1F2F2"/><stop offset="73%" stop-color="#BFD2E0"/><stop offset="100%" stop-color="#AFC0CC"/></linearGradient><linearGradient id="G" x1="72.944%" x2="20.835%" y1="37.348%" y2="56.272%"><stop offset="0%" stop-color="#FAFAFA"/><stop offset="26%" stop-color="#F1F6F8"/><stop offset="73%" stop-color="#DCE5EB"/><stop offset="100%" stop-color="#BBCFDA"/></linearGradient><linearGradient id="L" x1="19.267%" x2="82.858%" y1="55.325%" y2="36.807%"><stop offset="0%" stop-color="#FDFDFF"/><stop offset="26%" stop-color="#F1F2F2"/><stop offset="73%" stop-color="#BFD2E0"/><stop offset="100%" stop-color="#AFC0CC"/></linearGradient><linearGradient id="M" x1="37.583%" x2="66.03%" y1="30.804%" y2="62.493%"><stop offset="0%" stop-color="#FAFAFA"/><stop offset="26%" stop-color="#F1F6F8"/><stop offset="73%" stop-color="#DCE5EB"/><stop offset="100%" stop-color="#BBCFDA"/></linearGradient><linearGradient id="N" x1="31.566%" x2="50.66%" y1="30.867%" y2="66.067%"><stop offset="0%" stop-color="#AEBCD0"/><stop offset="22%" stop-color="#859BB9"/><stop offset="53%" stop-color="#A1B1C9"/><stop offset="100%" stop-color="#97A9C3"/></linearGradient><linearGradient id="O" x1="48.995%" x2="48.995%" y1="99.996%" y2="0%"><stop offset="0%" stop-color="#C0CBDA"/><stop offset="2%" stop-color="#C0CBDA"/><stop offset="11%" stop-color="#D4DBE5"/><stop offset="45%" stop-color="#F5F6F9"/><stop offset="59%" stop-color="#FDFDFD"/><stop offset="100%" stop-color="#FCFDFD"/></linearGradient><linearGradient id="Q" x1="50%" x2="50%" y1="100.001%" y2=".001%"><stop offset="0%" stop-color="#AFC0CC"/><stop offset="24%" stop-color="#AFC0CC"/><stop offset="74%" stop-color="#F1F2F2"/><stop offset="100%" stop-color="#FDFDFF"/></linearGradient><linearGradient id="R" x1="50%" x2="50%" y1="84.879%" y2=".001%"><stop offset="0%" stop-color="#FAFAFA"/><stop offset="26%" stop-color="#F1F6F8"/><stop offset="73%" stop-color="#DCE5EB"/><stop offset="100%" stop-color="#BBCFDA"/></linearGradient><linearGradient id="S" x1="50.025%" x2="50.025%" y1="99.879%" y2=".001%"><stop offset="0%" stop-color="#F1F6F6"/><stop offset="41%" stop-color="#FDFDFD"/><stop offset="55%" stop-color="#F5F8FA"/><stop offset="89%" stop-color="#D6E1E7"/><stop offset="98%" stop-color="#C3D3DD"/><stop offset="100%" stop-color="#C3D3DD"/></linearGradient></defs><g fill="none" fill-rule="evenodd"><path fill="#FFF" d="M.061 0h1024v1024H.061z"/><path fill="#1C9CF3" fill-rule="nonzero" d="M516.134 517.998s122.524 4.416 178.822 52.985c56.293 48.569 94.93 141.291 78.37 221.874-33.115-7.73-174.407-32.014-231.806-102.66-57.4-70.645-55.192-120.315-48.57-150.122 6.624-29.8 23.184-22.077 23.184-22.077"/><path fill="url(#a)" fill-rule="nonzero" d="M352.597 309.375c-2.796 12.593-5.816 32.368.27 58.595 6.624 28.541 22.378 59.272 48.264 90.132 59.224 70.605 226.013 99.24 228.032 99.681 6.347-36.7 2.067-74.937-12.798-114.893-14.683-39.473-38.267-74.584-66.401-98.863-55.428-47.815-178.145-52.766-179.376-52.813l-1.266-.042-.912-.477c-.012 0-1.042-.4-2.46-.4-5.876 0-10.615 6.776-13.353 19.08" transform="translate(142.061 231)"/><path fill="#04BBF3" fill-rule="nonzero" d="M484.12 517.998s15.454 32.015-20.97 80.584C426.72 647.15 350.558 725.52 160.698 708.966c6.623-45.26 39.738-91.622 76.162-124.737 36.43-33.115 118.114-67.332 172.199-68.438 54.091-1.101 75.061 2.207 75.061 2.207"/><path fill="url(#b)" fill-rule="nonzero" d="M267.958 289.082c-25.233.507-59.09 8.649-92.917 22.319-32.95 13.322-61.992 30.189-79.677 46.267-39.809 36.194-65.441 78.987-73.077 117.39 15.283 1.183 43.842 1.777 43.842 1.777 67.99 0 124.778-12.463 171.374-39.008 41.31-23.525 66.119-52.955 81.184-73.042 28.9-38.531 24.426-65.477 21.883-73.913-6.358-.683-22.43-2.025-51.036-2.025-6.859 0-14.117.076-21.576.235" transform="translate(142.061 231)"/><path fill="#02BEF3" fill-rule="nonzero" d="M870.464 405.407s-22.077 64.022-130.253 94.93c-108.176 30.907-224.077 11.038-224.077 11.038s27.593-72.853 107.07-107.07c79.476-34.221 219.667-3.314 247.26 1.102"/><path fill="url(#c)" fill-rule="nonzero" d="M479.17 180.435c-64.687 27.852-95.218 81.755-104.172 100.405 13.34 1.82 43.935 5.305 82.32 5.305 50.959 0 97.526-5.917 138.406-17.597 87.277-24.932 119.127-74.602 127.87-91.28-1.431-.253-100.824-19.887-157.529-19.887-40.645 0-62.363 12.487-86.894 23.054" transform="translate(142.061 231)"/><path fill="#02BEF3" fill-rule="nonzero" d="M482.16 521.678s-157.423-7.412-249.827-74.826c-92.399-67.414-90.268-89.638-90.268-89.638s103.602-.317 154.75 18.121c51.147 18.445 131.489 70.34 185.345 146.343"/><path fill="url(#d)" fill-rule="nonzero" d="M95.711 214.616c35.73 26.068 78.865 44.5 129.553 56.9.012.005.012.005.024.005 53.861 6.464 98.52 16.431 109.26 17.344-23.644-32.156-53.074-61.25-84.664-85.464-30.572-23.49-62.84-42.052-89.65-52.649-4.974-1.978-10.243-3.756-15.671-5.387C97.36 131.254 18.195 130.335 6.021 130.16c2.996 5.546 13.534 28.9 89.69 84.457" transform="translate(142.061 231)"/><path fill="url(#e)" d="M341.229 305.937c13.994 1.79 21.547 33.086 16.849 69.851-4.698 36.76-19.875 65.153-33.875 63.364-13.993-1.784-21.547-33.086-16.849-69.845 4.698-36.766 19.875-65.16 33.875-63.37" transform="translate(142.061 231)"/><g fill-rule="nonzero"><path fill="url(#f)" d="M67.646 23.68c-46.844 8.814 19.374 218.526 90.29 250.375 136.323 61.232 211.897-56.581 211.897-99.251 0-42.676-187.712-172.647-302.187-151.123" transform="translate(436.344 493.553)"/><path fill="url(#g)" d="M1.456 83.623C-15.587 114.596 121.348 220 182.592 208.231c61.238-11.774 142.887-73.76 136.535-107.452C312.775 67.08 201.413-26.284 112.3 7.096 53.852 28.991 18.5 52.651 1.456 83.623Z" transform="translate(436.344 493.553)"/><path fill="url(#h)" d="M59.88 97.323c-12.822 32.95 76.998 126.774 136.158 107.04 59.154-19.734 131.925-91.94 121.193-124.501-10.738-32.568-133.426-110.45-217.365-65.619-55.05 29.4-27.17 50.13-39.986 83.08" transform="translate(436.344 493.553)"/><path fill="url(#i)" d="M50.561 82.27c-10.92 27.793 65.236 106.798 115.482 90.096 50.247-16.702 112.11-77.663 103.031-105.103-9.078-27.446-113.157-92.976-184.468-55.086-46.779 24.85-23.124 42.3-34.045 70.092" transform="translate(436.344 493.553)"/></g><g fill-rule="nonzero"><path fill="url(#j)" d="M333.052 112.133c-9.284 28.217-112.874 144.8-184.344 161.155C77.238 289.648 6.875 214.876.288 180.36c-6.589-34.51 101.27-132.885 211.79-141.41 72.488-5.593 136.552 25.868 120.974 73.183" transform="translate(170.49 460.733)"/><path fill="url(#k)" d="M331.039 96.48c-7.147 32.856-102.254 163.568-172.83 177.497C87.63 287.917 11.103 193.482 1.807 151.9-7.49 110.321 93.322 1.608 203.759.02c72.441-1.037 139.272 41.363 127.28 96.46" transform="translate(170.49 460.733)"/><path fill="url(#l)" d="M279.815 116.731c-10.109 18.262-93.035 81.437-140.597 79.57-47.562-1.86-80.701-68.155-79.66-93.876 1.043-25.72 83.916-75.172 154.945-60.396 46.585 9.696 82.267 44.083 65.312 74.702" transform="translate(170.49 460.733)"/></g><path fill="url(#m)" fill-rule="nonzero" d="M203.664 315.757c-20.71 2.561-120.575-27.346-147.043-66.907-26.475-39.556 7.647-105.35 29.065-119.639 21.411-14.282 110.148 23.655 139.978 89.785 19.557 43.376 12.74 92.458-22 96.761" transform="translate(142.061 231)"/><path fill="url(#n)" d="M155.166 2.912C244.833-8.95 322.273 16.5 327.99 59.717c5.717 43.212-62.433 87.93-152.1 99.793S8.783 145.923 3.066 102.711c-5.716-43.217 62.44-87.936 152.1-99.799" transform="translate(553.737 372.134)"/><path fill="url(#o)" d="M173.358 8.758c80.865 8.342 143.01 49.105 138.695 90.969-4.321 41.863-73.483 69.08-154.35 60.731-80.871-8.342-143.016-49.104-138.695-90.968C23.324 27.627 92.486.41 173.358 8.758" transform="translate(553.737 372.134)"/><path fill="url(#p)" d="M115.705 22.316c68.185-8.412 127.174 14.177 131.642 50.412 4.475 36.23-47.256 72.477-115.44 80.89C63.726 162.03 4.737 139.447.27 103.211c-4.475-36.23 47.256-72.477 115.435-80.896" transform="translate(553.737 372.134)"/><path fill="#B3C3CE" fill-rule="nonzero" d="M490.59 520.241c.13 2.173 5.758 46.19-32.32 62.722-29.454 12.781-65.666 19.086-145.954-17.35-80.29-36.435-108.189-89.366-108.189-89.366s44.908 16.495 72.807 18.562c27.899 2.066 100.022 12.375 118.39 15.807 18.374 3.444 51.036.689 63.281-2.055 12.251-2.755 30.625-10.314 31.985 11.68"/><path fill="url(#q)" fill-rule="nonzero" d="M170.255 332.406c80.294 36.43 116.506 30.124 145.954 17.355 38.078-16.537 32.45-60.56 32.32-62.727-1.366-21.995-19.734-14.436-31.979-11.68-12.251 2.749-44.095.806-70.522-1.048-31.46-2.208-82.238-8.831-111.15-12.705-27.728-3.715-72.812-18.562-72.812-18.562s27.906 52.931 108.189 89.367" transform="translate(142.061 231)"/><path fill="#F5F6F2" fill-rule="nonzero" d="M466.506 480.168s-25.562-20.211-46.362-42.205c-20.805-21.989-87.971-85.588-104.614-102.825-16.637-17.238-61.815-76.086-67.761-101.047-13.67 30.313-22.583 85.593-5.94 139.09 16.637 53.496 55.28 92.122 106.392 113.527 51.118 21.394 95.696 20.205 108.177 20.205 12.486 0 29.724-8.319 10.108-26.745"/><path fill="url(#r)" fill-rule="nonzero" d="M101.975 142.18c16.643 53.491 55.28 92.128 106.399 113.522 51.112 21.4 95.69 21.706 108.176 21.706 7.047 0 29.371-.895 30.478-4.21 2.372-7.123-11.339-12.403-19.87-20.416-22.653-17.908-22.23-19.769-46.867-45.814-20.805-21.994-87.971-85.593-104.609-102.83C159.04 86.9 113.856 28.058 107.916 3.085c-13.67 30.319-22.59 85.599-5.94 139.095" transform="translate(142.061 231)"/><path fill="url(#s)" fill-rule="nonzero" d="M607.47 33.186c-22.078 19.869-61.198 46.29-98.728 70.575-37.53 24.284-61.815 65.13-90.515 108.176-28.7 43.053-57.4 64.023-57.4 64.023s45.255 6.623 88.307 6.623c66.266 0 141.292-55.192 168.885-84.993 27.599-29.806 46.143-78.364 46.363-128.045.251-58.053-26.606-69.421-26.606-69.421s-8.23 13.187-30.307 33.056v.006" transform="translate(142.061 231)"/><path fill="url(#t)" fill-rule="nonzero" d="M610.578 28.706c-22.083 19.869-66.513 50.77-104.044 75.055-37.53 24.284-61.815 65.13-90.515 108.176-22.082 33.115-49.71 51.36-61.285 60.809-3.473 2.837-5.498 10.39-5.498 10.39 39.85 5.829 49.163-.553 97.69-.553 66.26 0 141.292-55.192 168.885-84.993 27.6-29.806 45.26-78.375 46.362-128.045C663.279 19.869 637.888 0 637.888 0s-5.24 8.837-27.31 28.706" transform="translate(142.061 231)"/><path fill="url(#u)" d="M118.196 40.443c47.88 30.954 74.544 74.972 59.502 98.232-15.042 23.266-66.125 17.014-114.005-13.94-47.874-30.96-74.537-74.979-59.495-98.24C19.239 3.236 70.322 9.483 118.196 40.444" transform="translate(273.99 364.505)"/><path fill="url(#v)" d="M113.587 37.17c45.484 34.38 71.028 77.35 57.011 95.9-14.023 18.551-62.333 5.7-107.817-28.675C17.297 70.02-8.248 27.043 5.77 8.493c14.023-18.55 62.333-5.699 107.817 28.676" transform="translate(273.99 364.505)"/><path fill="url(#w)" d="M69.369 104.26c47.32-26.456 93.941-33.256 104.05-15.177 10.107 18.08-20.105 54.239-67.42 80.69-47.321 26.456-93.947 33.256-104.05 15.177-10.108-18.08 20.099-54.239 67.42-80.69" transform="translate(523.622 327.509)"/><path fill="url(#x)" d="M83.445 81.777c46.809-26.168 93.841-31.26 104.968-11.362 11.12 19.899-17.85 57.3-64.659 83.468-46.808 26.169-93.84 31.26-104.968 11.362-11.12-19.898 17.85-57.3 64.659-83.468" transform="translate(523.622 327.509)"/><path fill="url(#y)" d="M77.522 99.91c44.154-30.43 91.145-38.979 104.862-19.075 13.717 19.905-10.991 60.774-55.145 91.204-44.153 30.437-91.138 38.985-104.861 19.08-13.717-19.904 10.99-60.773 55.144-91.21" transform="translate(523.622 327.509)"/><path fill="url(#z)" d="M131.578 56.645c16.943-37.96 44.201-62.75 60.826-55.333 16.631 7.424 16.372 44.265-.577 82.226-16.943 37.96-44.2 62.75-60.826 55.333-16.625-7.424-16.366-44.271.577-82.226" transform="translate(523.622 327.509)"/><path fill="url(#A)" fill-rule="nonzero" d="M144.534 95.554c-4.74 34.746 3.45 70.51 19.798 94.06 16.355 23.554 63.363 69.515 109.683 76.043 30.09 4.24 62.38 4.064 62.38 4.064s-18.002-17.486-33.821-50.401c-15.819-32.915-28.776-63.852-52.613-84.528-23.843-20.67-48.593-42.994-62.069-59.054-13.47-16.066-17.92-26.086-17.92-26.086s-19.899 5.293-25.438 45.902" transform="translate(142.061 231)"/><path fill="url(#B)" fill-rule="nonzero" d="M146.082 95.772c-4.121 34.828 3.444 70.516 19.798 94.065 16.355 23.543 63.358 69.515 109.678 76.032 33.922 4.787 37.148 6.641 65.577 6.488 0 0-21.194-19.904-37.019-52.82-15.824-32.914-28.77-63.857-52.613-84.527-23.843-20.664-51.854-46.644-65.33-62.704-13.475-16.06-16.272-22.754-16.272-22.754s-19.704 11.386-23.82 46.22" transform="translate(142.061 231)"/><path fill="url(#C)" d="M130.268 17.615c6.24 18.062-16.702 42.405-51.207 54.321C44.562 83.852 11.488 78.86 5.248 60.798-.986 42.73 21.956 18.392 56.455 6.477 90.953-5.44 124.027-.446 130.268 17.615" transform="translate(338.9 507.948)"/><path fill="url(#D)" d="M115.49 29.749c.707 17.084-24.596 32.026-56.463 33.339C27.16 64.4.715 51.596.014 34.51-.692 17.421 24.611 2.485 56.478 1.167c31.867-1.313 58.312 11.497 59.013 28.582" transform="translate(338.9 507.948)"/><path fill="url(#E)" d="M143.902 21.795c5.01 11.857-12.233 30.49-38.49 41.587-26.25 11.097-51.636 10.48-56.646-1.372-5.01-11.856 12.233-30.49 38.49-41.586 26.257-11.098 51.636-10.48 56.646 1.371" transform="translate(338.9 507.948)"/><path fill="url(#F)" fill-rule="nonzero" d="M185.573 292.373c12.751 18.433 32.038 31.78 49.905 35.83 17.868 4.056 59.86 5.457 84.528-11.433 16.025-10.98 31.172-24.985 31.172-24.985s-16.03-.483-37.683-9.19c-21.66-8.701-41.116-17.709-61.268-17.179-20.163.53-41.463.677-54.744-1.09-13.288-1.76-19.71-4.573-19.71-4.573s-7.095 11.08 7.8 32.62" transform="translate(142.061 231)"/><path fill="url(#G)" fill-rule="nonzero" d="M186.397 291.814c13.075 18.197 32.032 31.767 49.9 35.83 17.873 4.05 59.872 5.462 84.527-11.434 18.062-12.38 20.381-12.892 33.728-25.226 0 0-18.574-.247-40.239-8.949-21.659-8.7-41.104-17.714-61.268-17.178-20.157.536-44.577.359-57.858-1.407-13.282-1.766-17.485-3.715-17.485-3.715s-4.386 13.87 8.695 32.079" transform="translate(142.061 231)"/><path fill="url(#H)" fill-rule="nonzero" d="M581.501 286.045c-19.857 8.36-108.17 3.661-140.561 0-32.397-3.656-65.872-3.097-72.118-3.656-22.348-2.014-18.285 5.222-19.857 27.687-3.656 62.186 19.857 74.731 37.1 77.345 17.25 2.608 32.927-5.746 32.927-5.746s170.869-77.339 186.546-85.705c2.92-16.042 2.214-21.11-1.366-21.11-4.12 0-12.05 6.71-22.67 11.185" transform="translate(142.061 231)"/><path fill="url(#I)" d="M73.374 20.061c29.13 20.67 44.843 48.628 35.07 62.392-9.767 13.764-41.346 8.16-70.475-12.516C8.845 49.267-6.868 21.303 2.899 7.54 12.672-6.225 44.25-.614 73.374 20.061" transform="translate(490.646 517.394)"/><path fill="url(#J)" d="M65.839 20.061C88.198 35.933 98.424 59.994 88.65 73.758c-9.766 13.764-35.852 12.051-58.218-3.82C8.074 54.064-2.147 30.004 7.621 16.24 17.393 2.476 43.479 4.19 65.839 20.06" transform="translate(490.646 517.394)"/><path fill="url(#K)" d="M88.069 21.786c22.365 15.872 32.585 39.933 22.818 53.697-9.773 13.764-35.859 12.05-58.218-3.82C30.304 55.795 20.084 31.73 29.856 17.964 39.623 4.201 65.71 5.915 88.07 21.786" transform="translate(490.646 517.394)"/><path fill="url(#L)" fill-rule="nonzero" d="M361.18 313.644c15.525 25.556 54.374 41.557 72.33 45.225 17.956 3.661 41.022-.571 60.231-12.128 22.436-13.493 20.529-26.51 20.529-26.51s-7.012-.082-19.84-3.938c-12.834-3.862-32.19-12.758-50.34-21.541-18.15-8.784-39.586-8.578-62.91-9.561-23.32-.983-38.126-7.135-38.126-7.135s8.042 19.003 18.127 35.588" transform="translate(142.061 231)"/><path fill="url(#M)" fill-rule="nonzero" d="M360.668 312.802c15.513 25.55 54.368 41.557 72.324 45.213 17.956 3.662 40.816-.907 60.225-12.116 19.416-11.203 21.124-25.65 21.124-25.65s-4.628.047-17.456-3.809c-12.834-3.862-35.158-13.758-53.314-22.542-18.15-8.778-39.585-8.577-62.91-9.555-23.319-.989-40.35-8.412-40.35-8.412 7.082 16.737 8.99 18.161 20.357 36.87" transform="translate(142.061 231)"/><path fill="#CBD3DD" fill-rule="nonzero" d="M741.865 529.59s7.177-5.522 6.623-16.56c-.547-11.033 2.208-27.593-56.293-63.47-19.315 34.776-86.1 127.498-115.352 148.468-29.254 20.976-33.94 20.264-33.94 20.264s16.902-2.02 31.732-13.087c16.025-11.963 167.23-75.615 167.23-75.615"/><path fill="url(#N)" fill-rule="nonzero" d="M436.99 368.135c-18.163 13.022-23.702 15.63-27.764 17.338 1.513-.454 12.886-3.433 25.556-10.162 17.661-9.384 167.23-75.614 167.23-75.614 0-.006 7.176-5.522 6.623-16.56-.548-11.039 2.208-27.594-56.293-63.47-19.316 34.77-86.1 127.498-115.353 148.468" transform="translate(142.061 231)"/><path fill="url(#O)" fill-rule="nonzero" d="M345.95 302.7c-3.638-.007-35.452 57.8-20.552 124.036 0-.006 21.282-25.545 23.89-89.762 1.078-26.492-.783-34.28-3.338-34.28v.005" transform="translate(142.061 231)"/><path fill="#00C6F9" fill-rule="nonzero" d="M405.085 349.614c7.489-7.3 32.95-1.46 38.944 6.57 5.857 7.848 36.017 38.02 34.587 83.674 4.639.195 10.785 1.001 17.844 1.001 6.093 0 11.738-.6 16.372-.895-1.484-45.713 28.717-75.926 34.575-83.78 5.987-8.03 31.455-13.87 38.943-6.57 7.495 7.3-11.986 6.57-20.97 4.38-29.088 6.44-47.668 70.876-51.63 85.917 6.788-.37 11.168.106 11.168 4.598 0 6.806-9.531 17.785-22.795 18.963.542 2.731 3.691 17.973.141 34.01-1.442 6.517-14.83 13.893-14.83 13.893-14.217-46.579-.135-51.112.06-51.5-11.645-1.743-18.003-9.12-18.003-15.366 0-3.98 3.05-4.81 8.17-4.686-4.008-15.2-22.576-79.4-51.6-85.829-8.99 2.19-28.464 2.92-20.976-4.38"/><path fill="url(#P)" fill-rule="nonzero" d="M405.346 127.386c-5.858 7.86-36.059 38.066-34.575 83.786-4.634.294-10.28.895-16.372.895-7.06 0-13.205-.807-17.844-1.001 1.43-45.655-28.73-75.826-34.581-83.68-5.994-8.03-31.461-13.864-38.95-6.564-7.488 7.3 11.986 6.564 20.976 4.374 29.024 6.435 47.592 70.634 51.6 85.835-5.12-.118-8.165.706-8.165 4.686 0 6.246 4.628 14.07 16.267 15.8-.195.39-9.761 7.313 1.672 51.066 0 0 18.261-1.72 15.471-39.09-.318-4.31-.765-7.76-1.313-10.492 13.258-1.183 23.325-10.485 23.325-17.284 0-4.492-4.38-4.969-11.168-4.598 3.968-15.042 22.542-79.477 51.63-85.923 8.99 2.19 28.465 2.926 20.97-4.374-2.402-2.343-6.652-3.332-11.515-3.332-10.302 0-23.36 4.445-27.428 9.896" transform="translate(142.061 231)"/><path fill="url(#Q)" fill-rule="nonzero" d="M281.757 48.074c-5.516 11.127 13.94 12.781 20.564 9.45 21.4 9.801 35.075 107.663 38.03 130.83-3.773-.183-6.016 1.077-6.016 7.14 0 9.52 5.14 23.131 13.711 25.786-.141.589-.218.942-.218.942s-14.6 27.246-2.454 86.853c0 0 13.581-29.8 13.581-71.228 0-6.588-.565-11.834-.971-16.008 9.772-1.795 17.19-15.971 17.19-26.345 0-6.835-3.22-7.565-8.224-7 2.278-27.34 11.592-120.009 38.049-130.97 6.623 3.331 25.232 2.083 19.71-9.043-5.517-11.127-25.05-2.255-32.798 8.165-8.507 11.433-29.035 62.575-27.946 132.26-3.409.448-5.275 1.025-9.76 1.025-5.2 0-9.732-1.224-13.153-1.525 1.054-69.598-21.647-115.423-25.485-127.55-3.627-11.475-14.912-18.257-23.708-18.257-4.444 0-8.248 1.737-10.102 5.475" transform="translate(142.061 231)"/><path fill="url(#R)" fill-rule="nonzero" d="M281.757 50.24c-5.516 11.033 13.94 12.682 20.564 9.367 21.4 9.726 35.075 106.805 38.03 129.794-3.773-.182-6.016 1.066-6.016 7.082 0 9.443 5.14 22.943 13.711 25.568-.141.59-.218.936-.218.936s-25.285 87.336-8.66 144.524c0 0 21.836-72.512 19.787-129.017-.235-6.529-.565-11.739-.971-15.877 9.772-1.784 17.19-15.843 17.19-26.134 0-6.787-3.22-7.512-8.224-6.952 2.278-27.122 11.592-119.05 38.049-129.924 6.623 3.315 25.232 2.073 19.71-8.966-5.517-11.038-25.05-2.237-32.798 8.095-8.507 11.345-29.035 62.08-27.946 131.207-3.409.441-5.275 1.024-9.76 1.024-5.2 0-9.732-1.218-13.153-1.519 1.054-69.044-21.647-114.493-25.485-126.526-3.627-11.386-14.912-18.115-23.708-18.115-4.439.006-8.248 1.725-10.102 5.434" transform="translate(142.061 231)"/><path fill="#F5F6F2" fill-rule="nonzero" d="M519.62 480.544s22.035-17.426 39.98-36.388c17.937-18.969 75.855-73.807 90.208-88.678 14.353-14.86 53.308-65.607 58.436-87.136 11.792 26.145 19.474 73.813 5.122 119.939-14.347 46.132-47.669 79.453-91.746 97.903-44.083 18.45-82.526 17.426-93.282 17.426-10.767 0-25.632-7.176-8.718-23.066"/><path fill="url(#S)" fill-rule="nonzero" d="M505.845 124.478c-14.358 14.865-72.27 69.704-90.208 88.672-21.247 22.465-20.882 24.067-40.416 39.509-7.359 6.911-18.868 14.765-17.343 18.09 1.525 3.321 20.41 1.861 26.492 1.861 10.762 0 49.205 1.025 93.288-17.426 44.077-18.456 77.392-51.771 91.745-97.897 14.359-46.132 6.664-93.8-5.128-119.945-5.122 21.535-44.077 72.277-58.43 87.136" transform="translate(142.061 231)"/></g></svg>