<svg xmlns="http://www.w3.org/2000/svg" width="1025" height="1024"><defs><linearGradient id="a" x1="50%" x2="50%" y1="-18.246%" y2="100%"><stop offset="0%" stop-color="#64ABDC"/><stop offset="100%" stop-color="#3472B6"/></linearGradient></defs><g fill="none" fill-rule="nonzero"><path fill="#F5F5F5" d="M.633.001h1024v1024H.633z"/><path fill="url(#a)" d="M455.077 372.01c5.82 5.003 9.786 8.2 17.628 8.138l5.266-.695c7.781-.876 21.332-1.388 40.652-1.538 11.673.016 22.974.743 34.544 2.317 5.297.42 5.297.42 10.707-4.912l205.495-188.83c17.623-1.138 81.48 7.189 87.837 9.985.266 66.103 1.228 447.436 0 455.284-7.19 6.206-37.756 12.317-42.172 13.23-4.43.932-32.322 6.95-37.68 8.736-4.68.336-18.655.336-41.922 0-4.376-6.568-4.49-8.457-4.482-16.071l-.257-232.944c-.883-5.058-.883-5.058-5.953-8.207-6.977-3.133-10.018-2.808-17.256-.374-4.588 3.293-95.37 86.688-103.604 94.212-6.516 5.643-6.516 5.643-12.471 5.6-10.175-.893-19.716-2.385-29.594-5.015-14.56-3.428-28.45-3.774-43.357-3.566l-7.914.06c-23.973.317-47.707.869-70.565 8.552-6.532.855-11.778.308-17.967-1.996-5.27-4.294-100.487-94.242-114.068-100.429l-11.699.586c-1.506.254-2.504.627-2.995 1.118-.491.491-.823 1.45-.997 2.875l-.014 3.918c-.08 20.954-.74 103.516-1.983 247.687-8.3 5.535-121.315-13.519-125.767-17.972-.387-5.982-.519-11.781-.479-17.764.26-253.962.42-399.802.48-437.52 2.51-.984 50.079-8.759 54.121-9.032 33.87-2.093 33.87-2.093 43.571 6.909 124.393 114.492 188.69 173.712 192.895 177.659" transform="translate(.633)"/><path fill="#F39B08" d="M705.823 766.98c7.402 3.055 14.905 5.561 22.514 8.047 3.218 1.06 6.437 2.125 9.655 3.19 1.656.549 3.313 1.098 5.022 1.66 8.161 2.723 16.296 5.516 24.431 8.316l4.867 1.673c6.55 2.253 13.1 4.505 19.648 6.763 4.887 1.686 9.774 3.365 14.662 5.043l4.664 1.601c9.468 3.229 18.96 6.256 28.609 8.902 7.394 2.476 14.178 6.03 19.94 11.314 1.498 5.118 1.498 5.118 0 9.985-3.12 4.742-3.12 4.742-7.984 7.987-10.469-.787-19.945-3.672-29.781-7.153l-4.468-1.545a3891.47 3891.47 0 0 1-14.038-4.905l-9.299-3.235c-4.537-1.575-9.077-3.153-13.614-4.732a2318.429 2318.429 0 0 0-36.6-12.377c-4.426-1.473-8.85-2.951-13.272-4.43-3.543-1.176-7.089-2.341-10.638-3.495-10.92-3.577-21.515-7.319-31.987-12.043l-3.805-1.56c-5.018-2.056-10.385-3.807-13.23-7.122a9.754 9.754 0 0 1-.986-1.363c1.384-15.767 4-16.5 11.908-16.54 9.041.128 15.593 2.369 23.782 6.02m-351.052.597c.998 4.868.998 4.868 0 9.984-7.266 6.938-14.281 9.959-23.776 12.996l-3.928 1.278c-4.111 1.332-8.227 2.648-12.348 3.948a4684.605 4684.605 0 0 0-12.367 3.99 2516.528 2516.528 0 0 1-11.205 3.584c-5.06 1.751-39.325 13.427-45.923 16.015-10.259 3.938-20.456 7.554-31.042 10.521-9.062 2.792-17.873 6.348-26.703 9.789-6.616 1.843-9.92 1.895-16.368-.218-3.619-2.496-3.619-2.496-5.988-5.99-.75-4.993-.75-4.993 0-9.985 4.85-6.456 10.913-8.145 18.395-10.663l7.529-2.562 7.887-2.626a4682.756 4682.756 0 0 1 30.07-10.108l6.802-2.268c5.717-1.91 11.434-3.814 17.154-5.717 5.985-1.995 11.968-3.99 17.95-5.991a2003.02 2003.02 0 0 1 12.134-3.994c12.816-4.195 25.303-8.9 37.79-13.978 9.878-3.954 17.412-4.858 27.948-3.993 3.993 2.37 3.993 2.37 5.99 5.988"/><path fill="#F39C0B" d="m693.254 702.903 5.283-.032c5.773-.026 11.544-.01 17.316.012a5748.14 5748.14 0 0 1 37.209.014c10.774.034 21.548.014 32.322-.02a5139.24 5139.24 0 0 1 24.814 0c3.974.004 7.95 0 11.922-.016 5.55-.014 11.097.008 16.645.04l4.999-.036c11.159.126 11.159.126 15.567 3.41 2.501 3.393 2.501 3.393 2.128 10.506-1.623 6.865-1.623 6.865-5.616 10.859-5.681.407-11.167.565-16.85.549l-5.285.03c-5.781.028-11.564.026-17.348.02l-12.023.028c-8.409.014-16.82.014-25.228.004-10.79-.012-21.58.02-32.372.068-8.278.03-16.559.032-24.84.026-3.978 0-7.957.01-11.938.03-5.557.026-11.115.012-16.673-.012l-5.006.046c-11.226-.104-11.226-.104-15.522-3.455-3.96-5.122-3.353-9.046-2.57-15.306 6.19-7.995 13.676-6.835 23.066-6.765"/><path fill="#F39C0A" d="m185.978 702.903 5.214-.032c5.698-.026 11.395-.01 17.093.012 12.25-.036 24.5-.031 36.752.014 10.636.034 21.272.014 31.906-.02 8.171-.024 16.342-.016 24.515 0 3.92.004 7.842 0 11.762-.016 5.482-.011 10.964.002 16.446.04l4.919-.036c6.544.074 11.373.37 17.202 3.482 2.984 3.321 2.984 3.321 3.982 9.312-.998 5.99-.998 5.99-3.982 9.31-7.21 3.853-14.144 3.522-22.121 3.478l-5.227.04c-5.697.04-11.39.03-17.088.02l-11.872.03c-8.293.02-16.583.013-24.874-.007-10.64-.021-21.276.018-31.915.076-8.17.036-16.341.036-24.512.024-3.923 0-7.846.012-11.77.038-5.478.028-10.952.008-16.43-.026l-4.93.058c-10.953-.144-10.953-.144-15.935-4.796-2.458-5.262-2.87-8.495-1.987-14.236 5.153-8.429 14.062-6.831 22.852-6.765"/><path fill="#24519B" d="m510.519 685.18 5.33.15 5.4.084c4.398.07 8.794.168 13.19.292 3.062 6.126 3.258 11.372 1.996 17.972-4.43 10.052-9.359 20.827-17.967 27.956-4.867.998-4.867.998-9.981 0-9.018-8.457-17.077-22.83-18.622-35.195 1.294-9.37 6.716-11.496 15.525-11.318l5.129.06"/></g></svg>