<svg xmlns="http://www.w3.org/2000/svg" width="1025" height="1025"><g fill="none" fill-rule="evenodd"><path fill="#D30808" d="M1 1h1024v1024H1z"/><path fill="#FFF" fill-rule="nonzero" d="M464.197 621.588c-3.22 22.46-6.58 43.12-8.98 63.899-.96 8.3-3.54 11.46-12.44 10.72-30.7-2.56-61.039-6.44-89.198-19.92-23.26-11.12-41.32-27-45.96-54.019-5.06-29.6 8.98-55.279 36.6-67.198 18.8-8.12 38.58-9.78 58.759-9.02 3.96.14 7.94.02 13.16.02 1.2-8.24 2.4-16.62 3.86-26.58-21.98-1.12-42.6.68-62.72 6.74-51.018 15.34-78.558 52.24-92.218 101.578-1.86 6.74-3.26 13.6-4.78 20.42-7.9 35.38-33.419 52.779-70.658 47.479 31.14-59.899 30.34-126.478 43.2-192.916-22.44 17.34-40 37.639-68 37.999-5.84.08-11.74-2.92-20.42-5.26 47.9-32.58 76.08-77.339 104.599-124.598-11 .5-19.84 1.3-28.68 1.26-23.02-.12-35.219-16.44-29.02-39.439 22.76 13.54 47.24 5.96 71.12 5.78 2.44-.02 5.76-3.94 7.12-6.8 8.78-18.26 17.119-36.74 26.219-56.459 16.66 8.26 33.14 16.42 50.539 25.04-6.44 12.08-12.34 23.12-19.74 36.979 58.74-3.22 115.578-6.36 172.717-9.5 3.34 14.68.08 20.86-15.16 25.94-28.6 9.54-58.419 9.18-87.998 10.7-26.96 1.4-53.92 2.62-80.879 3.56-5.94.2-9.7 2.14-12.92 7.22-6.52 10.34-13.739 20.219-20.459 29.959 19.36-4.52 38.54-10.16 58.119-13.3 29.36-4.7 59.019-6.6 88.398.42 40.5 9.68 58.26 36.74 51.64 77.638-2.66 16.44-4.54 33-7.16 49.44-.92 5.78.5 9.16 5.98 11.78 12.899 6.16 25.199 13.679 38.339 19.179 12.2 5.08 19.26 2.7 24.799-5.52 5.9-8.74 5.84-20.66-1.74-28.72-5.12-5.44-11.64-9.94-18.28-13.5-15.5-8.299-15.74-7.979-13.32-25.659 1.7-12.46 3.64-24.88 5.74-38.999 29.7 14.62 56.04 30.28 63.2 64.419 4.82 23-2.06 42.799-19.5 58.719-3.38 3.08-7.08 5.82-11.4 9.32 24.74 15.16 50.099 27.459 77.038 36.279 57.44 18.82 115.778 24.9 175.117 9.82 26.76-6.8 51.379-18.34 73.119-35.64 1.72-1.38 3.6-2.58 5.88-4.22 2.94 9.54.92 16.44-5.46 23.18-59.44 62.999-131.798 81.958-215.156 63.539-65.119-14.4-124.718-42.22-182.017-75.499-3.12-1.82-6.3-3.6-11-6.26M279.56 539.59c38.28-43.36 87.498-56.679 141.697-61.019-6.2-9.64-14.42-13.92-23.64-15.4-37.058-5.94-72.178.02-104.797 18.9-2.54 1.46-5.26 4.58-5.72 7.3-2.76 15.96-4.88 32.02-7.54 50.219m129.758 53.939c-12.1-.88-22.98-2.98-33.62-2.12-16.28 1.32-25.68 14.94-23.32 31.08 2.96 20.259 24.34 37.759 46.98 37.759l9.96-66.72"/><path fill="#FFF" fill-rule="nonzero" d="M688.692 411.732c-21.06 0-42.179-.02-63.299.02-3.66 0-7.34.58-10.98.44-22.499-.92-33.639-16.36-27.839-39.559 22.46 13.94 46.56 5.3 71.719 6.68-5.78-14.04-10.92-26.48-16.7-40.52l51-21.839c2.659 17.58 4.939 34.02 7.779 50.38.58 3.36 3.36 9.1 4.84 9.02 5.12-.32 12.08-1.14 14.84-4.6 13.32-16.62 25.5-34.16 38.099-51.34 1.16-1.58 2.52-3.02 4.34-5.18 16.4 8.18 32.66 16.3 50.499 25.2-10.72 11.44-20.54 21.9-32.62 34.78 28.88-2.68 54.8-5.08 80.699-7.46 1.58 19.579-.64 24.999-18.98 28.199-26.12 4.56-52.679 7.9-79.138 8.9-16.18.62-26.38 8.12-36.98 19.2 14.26 1.4 27.82 1.8 40.96 4.359 9.94 1.94 20.1 5.4 28.84 10.46 14.459 8.36 21.159 22.6 19.759 38.94-2.18 25.519-5.78 50.938-9.16 76.338-2.94 22.12-6.14 44.219-9.88 66.218-.62 3.66-4.16 9.06-7.2 9.72-57.339 12.42-114.338 13.4-170.256-7.52-32.4-12.12-32.02-12.18-26.9-46.519 5.98-40.18 11.46-80.438 16.72-120.717.86-6.6 3.4-10.34 9.62-12.04 15.08-4.1 29.919-9.9 45.279-11.96 14.12-1.92 17.88-12.94 24.94-19.6M637.313 594.69c34.18 13.1 68.059 15.08 102.558 5.56 2.2-.6 5.2-2.7 5.62-4.6 1.66-7.62 2.46-15.44 3.64-23.58-32.3-8.88-62.699-8.5-92.458 3.68-8.3 3.4-16.3 8-19.36 18.94m116.838-63.479c5.48-16.76 4.84-18-11.14-20.84-23.32-4.12-46.439-3.46-69.079 3.88-23.44 7.6-29.179 15.54-30.139 41.42 33.86-21.32 71.599-23.72 110.358-24.46m-100.798-34.28c32.78-20.299 69.459-22.759 106.518-24.139-3.92-11.36-9.16-18.22-20.42-19.46-16.3-1.78-33.18-2.5-49.379-.38-31.3 4.1-35.24 9.56-37.36 40.84-.02.34.12.66.64 3.14"/><path fill="#FFF" fill-rule="nonzero" d="M527.315 387.333c43.5 18.44 67.279 63.899 50.76 96.898-15.36-17.36-34.28-29.24-54.68-39.02-1.72-.82-3.52-4.06-3.28-5.92 2.1-17.079 4.64-34.099 7.2-51.958"/><path fill="#D30808" fill-rule="nonzero" d="M898.828 1024.6H126.843c-2.14-.68-4.24-1.64-6.44-2.02-54.019-9.3-90.818-39.879-110.718-90.618-4.18-10.64-5.96-22.22-8.84-33.38V126.599c.68-2.14 1.64-4.24 2.02-6.44C12.166 66.14 42.746 29.34 93.485 9.44c10.64-4.18 22.22-5.96 33.38-8.84h771.984c2.14.68 4.24 1.64 6.44 2.02 54.019 9.3 90.818 39.88 110.718 90.619 4.18 10.64 5.96 22.22 8.84 33.379v771.985c-.68 2.14-1.64 4.24-2.02 6.44-9.32 54.019-39.88 90.818-90.619 110.718-10.66 4.16-22.24 5.94-33.379 8.84M464.197 621.588c4.7 2.66 7.88 4.44 11.02 6.26 57.298 33.28 116.897 61.119 182.016 75.499 83.378 18.42 155.717-.54 215.156-63.54 6.36-6.739 8.4-13.639 5.46-23.179-2.3 1.64-4.16 2.84-5.88 4.22-21.72 17.3-46.36 28.84-73.119 35.64-59.339 15.08-117.658 9.02-175.117-9.82-26.939-8.82-52.299-21.12-77.038-36.28 4.32-3.52 8.02-6.24 11.4-9.32 17.44-15.919 24.32-35.719 19.5-58.718-7.16-34.14-33.5-49.82-63.2-64.419-2.08 14.12-4.02 26.54-5.74 39-2.42 17.679-2.18 17.359 13.32 25.659 6.64 3.56 13.16 8.06 18.28 13.5 7.58 8.06 7.62 19.98 1.74 28.719-5.54 8.2-12.6 10.6-24.8 5.52-13.16-5.48-25.439-13.02-38.339-19.18-5.48-2.62-6.9-6-5.98-11.78 2.62-16.44 4.5-32.999 7.16-49.439 6.62-40.899-11.14-67.958-51.639-77.638-29.38-7.02-59.059-5.14-88.398-.42-19.58 3.14-38.76 8.78-58.119 13.3 6.7-9.74 13.94-19.62 20.46-29.96 3.22-5.08 6.98-7.02 12.92-7.22 26.959-.94 53.938-2.18 80.878-3.56 29.58-1.52 59.399-1.16 87.998-10.7 15.24-5.08 18.5-11.26 15.16-25.939-57.139 3.14-113.958 6.26-172.717 9.5 7.4-13.84 13.3-24.9 19.74-36.98-17.4-8.62-33.88-16.779-50.54-25.039-9.099 19.74-17.439 38.2-26.219 56.46-1.36 2.86-4.68 6.779-7.12 6.799-23.879.2-48.379 7.78-71.118-5.78-6.2 23 5.98 39.34 29.02 39.44 8.84.04 17.679-.74 28.679-1.26-28.52 47.258-56.7 92.038-104.598 124.597 8.68 2.34 14.56 5.34 20.42 5.26 27.999-.36 45.559-20.66 67.998-38-12.86 66.44-12.06 133.018-43.2 192.917 37.24 5.32 62.76-12.08 70.66-47.48 1.52-6.82 2.9-13.699 4.78-20.419 13.66-49.339 41.199-86.218 92.218-101.578 20.12-6.06 40.739-7.86 62.718-6.74-1.44 9.96-2.66 18.34-3.86 26.58-5.22 0-9.2.12-13.16-.02-20.179-.76-39.958.9-58.758 9.02-27.6 11.92-41.66 37.599-36.6 67.198 4.62 27.02 22.7 42.9 45.96 54.02 28.16 13.479 58.499 17.359 89.198 19.919 8.88.74 11.46-2.42 12.44-10.72 2.4-20.78 5.74-41.44 8.96-63.899m224.495-209.856c-7.04 6.66-10.8 17.68-24.94 19.58-15.339 2.06-30.179 7.88-45.278 11.96-6.24 1.7-8.76 5.44-9.62 12.04-5.26 40.279-10.74 80.538-16.72 120.717-5.1 34.34-5.5 34.4 26.9 46.52 55.898 20.919 112.897 19.939 170.256 7.52 3.04-.66 6.58-6.06 7.2-9.72 3.74-22 6.94-44.1 9.88-66.22 3.38-25.399 6.98-50.818 9.16-76.338 1.38-16.34-5.3-30.56-19.76-38.94-8.74-5.06-18.88-8.519-28.84-10.459-13.14-2.56-26.699-2.96-40.959-4.36 10.6-11.08 20.78-18.58 36.98-19.2 26.48-1 53.019-4.34 79.138-8.9 18.34-3.2 20.56-8.62 18.98-28.199-25.9 2.4-51.84 4.8-80.699 7.46 12.08-12.88 21.88-23.34 32.62-34.78-17.84-8.9-34.1-17.019-50.5-25.199-1.82 2.16-3.18 3.6-4.34 5.18-12.599 17.18-24.779 34.72-38.098 51.34-2.76 3.44-9.72 4.28-14.84 4.6-1.48.1-4.26-5.66-4.84-9.02-2.84-16.34-5.12-32.78-7.78-50.38l-50.999 21.84c5.78 14.02 10.92 26.48 16.7 40.519-25.16-1.38-49.26 7.26-71.719-6.68-5.8 23.2 5.34 38.64 27.84 39.56 3.64.14 7.32-.42 10.98-.44 21.099-.02 42.239 0 63.298 0m-161.377-24.4c-2.54 17.86-5.1 34.88-7.22 51.96-.24 1.86 1.58 5.1 3.28 5.92 20.4 9.78 39.3 21.66 54.68 39.019 16.539-32.98-7.24-78.439-50.74-96.898"/><path fill="#D30808" fill-rule="nonzero" d="M279.56 539.59c2.66-18.2 4.78-34.26 7.54-50.2.48-2.72 3.2-5.819 5.72-7.299 32.62-18.88 67.739-24.84 104.798-18.9 9.22 1.48 17.44 5.76 23.64 15.4-54.2 4.32-103.419 17.64-141.698 60.999m129.758 53.939c-3.62 24.24-6.82 45.539-9.98 66.719-22.62 0-44.02-17.5-46.98-37.76-2.36-16.12 7.06-29.76 23.32-31.08 10.66-.86 21.54 1.24 33.64 2.12m227.995 1.16c3.06-10.94 11.06-15.54 19.34-18.92 29.76-12.18 60.159-12.56 92.458-3.68-1.18 8.14-1.96 15.96-3.64 23.58-.42 1.9-3.42 4-5.62 4.6-34.46 9.5-68.358 7.5-102.538-5.58m116.838-63.479c-38.76.74-76.499 3.14-110.378 24.48.98-25.88 6.72-33.82 30.14-41.42 22.639-7.36 45.759-8.02 69.078-3.88 16 2.82 16.64 4.06 11.16 20.82m-100.798-34.28c-.52-2.48-.66-2.82-.64-3.12 2.12-31.259 6.06-36.719 37.36-40.838 16.199-2.12 33.058-1.4 49.378.38 11.26 1.22 16.5 8.1 20.42 19.46-37.06 1.38-73.739 3.84-106.518 24.119"/></g></svg>