<?xml version="1.0" encoding="UTF-8"?>
<svg width="1025px" height="1024px" viewBox="0 0 1025 1024" version="1.1" xmlns="http://www.w3.org/2000/svg" xmlns:xlink="http://www.w3.org/1999/xlink">
    <title>Youku</title>
    <g id="ICON-新版方图标" stroke="none" stroke-width="1" fill="none" fill-rule="evenodd">
        <g id="Youku" transform="translate(0.6332, 0)">
            <rect id="蒙版路径" fill="#FFFFFF" x="0" y="0" width="1024" height="1024"></rect>
            <path d="M277.733915,598.488199 C213.01075,636.696495 192.299337,717.243712 232.686592,779.719438 C271.520491,839.097194 352.295001,858.71767 416.50038,825.156329 L716.815864,662.51291 L438.765149,511.745042 L277.733915,598.488199 L277.733915,598.488199 Z" id="路径" fill="#FF7500" fill-rule="nonzero"></path>
            <polygon id="路径" fill="#E37630" fill-rule="nonzero" points="718.515581 663.01983 441.483478 511.745042 395.569405 537.130195"></polygon>
            <path d="M720.819093,360.024011 L421.686214,197.428299 C354.006755,163.876803 270.311545,186.588585 233.113674,250.594516 C199.532263,311.503386 220.197747,387.381385 281.677561,424.029942 L442.351698,512.296186 L719.269182,663.01983 C807.614125,614.499205 838.612351,507.650594 786.948641,424.029942 C772.482803,398.221099 748.200859,375.509317 720.819093,360.024011 Z" id="路径" fill="#228BFF" fill-rule="nonzero"></path>
        </g>
    </g>
</svg>