<svg xmlns="http://www.w3.org/2000/svg" width="1025" height="1024"><g fill="none" fill-rule="evenodd"><path fill="#FFF" d="M.633 0h1024v1024H.633z"/><path fill="#FF7500" fill-rule="nonzero" d="M278.367 598.488c-64.723 38.208-85.434 118.756-45.047 181.231 38.834 59.378 119.608 78.999 183.814 45.437l300.315-162.643L439.4 511.745l-161.032 86.743"/><path fill="#E37630" fill-rule="nonzero" d="M719.149 663.02 442.117 511.745l-45.914 25.385z"/><path fill="#228BFF" fill-rule="nonzero" d="M721.452 360.024 422.32 197.428c-67.679-33.551-151.374-10.84-188.572 53.167-33.582 60.908-12.916 136.786 48.564 173.435l160.674 88.266L719.902 663.02c88.345-48.52 119.344-155.37 67.68-238.99-14.466-25.809-38.748-48.52-66.13-64.006"/></g></svg>