<?xml version="1.0" encoding="UTF-8"?>
<svg width="1025px" height="1024px" viewBox="0 0 1025 1024" version="1.1" xmlns="http://www.w3.org/2000/svg" xmlns:xlink="http://www.w3.org/1999/xlink">
    <title>Z.OS</title>
    <g id="ICON-新版方图标" stroke="none" stroke-width="1" fill="none" fill-rule="evenodd">
        <g id="Z.OS" transform="translate(0.6332, 0)">
            <rect id="蒙版路径" fill="#2548EC" x="0" y="0" width="1024" height="1024"></rect>
            <path d="M386.637308,130.43495 C405.618641,138.08295 422.749308,148.200283 440.135975,158.872283 C448.263975,163.76295 456.397308,168.648283 464.530642,173.52295 L477.495976,181.309617 C500.077309,194.717617 522.951975,207.602951 545.805308,220.541617 C588.142595,244.650048 630.144824,269.342181 671.799975,294.61095 C703.957409,313.995913 736.521131,332.69876 769.469309,350.70695 C783.682642,359.592283 794.210642,368.86695 805.469308,381.208283 L795.869308,386.893617 C765.328192,405.103783 735.187698,423.9776 705.469309,443.501617 C693.469308,450.541617 693.469308,450.541617 682.802642,450.541617 L682.802642,461.208284 L695.469308,464.541617 C717.639976,472.952284 736.450642,484.27495 756.551975,496.728283 C767.799975,503.901617 767.799975,503.901617 778.802642,509.208284 L778.802642,823.87495 L693.469308,871.87495 L672.135975,887.87495 L656.135975,887.87495 L656.135975,898.541617 C631.698642,895.661617 617.506642,885.741617 597.469308,871.87495 C590.430226,867.84534 583.347133,863.893102 576.221309,860.01895 C546.567975,843.693617 517.351976,826.637617 488.135975,809.544283 L471.106642,799.592284 C454.557308,789.912284 438.013308,780.232284 421.469308,770.541617 L408.007975,762.65895 C355.416851,731.828359 303.0141,700.677559 250.802641,669.208283 L224.135975,653.208284 C230.407975,634.397617 232.925308,633.848284 249.805309,625.208283 C270.95505,614.014 291.849267,602.343469 312.471975,590.205617 L329.154642,580.43495 L341.469309,573.208283 C328.722642,562.285617 319.271975,556.941617 303.037309,551.93895 C280.061309,543.229617 263.965309,535.858951 250.802641,514.541616 C239.111974,466.440283 243.970641,414.877617 246.039975,365.741617 C246.754642,347.048284 247.069308,328.349617 247.415975,309.645617 C248.162642,273.037616 249.335976,236.461616 250.802641,199.87495 L268.157309,190.125617 L291.138642,177.208284 L302.519975,170.808284 L313.826641,164.461616 L325.106642,158.136283 C332.382933,154.005952 339.618832,149.804864 346.813308,145.533617 C372.135975,130.552284 372.135975,130.552284 386.637308,130.43495 L386.637308,130.43495 Z" id="路径" fill="#FFFFFF" fill-rule="nonzero"></path>
            <path d="M384.135975,285.208283 C402.962642,292.73895 418.717309,299.837617 436.029309,309.79495 L450.354641,317.997617 L465.133309,326.541617 L479.602641,334.83495 C507.656065,350.99053 535.538501,367.441221 563.245309,384.184283 C575.750848,391.620687 588.332853,398.927743 600.989309,406.104283 L612.791975,412.86695 C620.743975,417.41095 628.717309,421.92295 636.706642,426.408283 L648.322642,433.101617 L658.722642,439.005616 C666.802642,445.208283 666.802642,445.208283 672.135975,461.208283 C641.783975,479.032284 611.410642,496.834951 580.802642,514.210951 L569.426642,520.685617 C560.135975,525.208283 560.135975,525.208283 549.469308,525.208283 C564.274642,542.648283 583.746641,552.333616 603.469308,563.208283 C639.575975,583.31495 639.575975,583.31495 645.469308,589.208283 C645.938641,600.264283 646.039974,611.33095 645.991975,622.397617 L645.938642,642.760283 L645.799975,664.21095 C645.735567,688.988021 645.625345,713.764953 645.469308,738.541617 C630.023975,735.23495 617.645308,730.40295 603.869308,722.701617 L592.199976,716.210951 L579.805308,709.20295 C575.538642,706.80295 571.261309,704.413617 566.861309,701.944284 C537.037818,685.151337 507.502858,667.851044 478.269309,650.05095 C460.02856,638.927641 441.608352,628.101324 423.015975,617.576284 L410.301308,610.317617 C402.108505,605.649925 393.887915,601.031176 385.639975,596.461617 C375.986643,590.930951 366.685309,584.781617 357.474642,578.536284 L357.474642,562.536283 L375.202642,552.600283 L398.477308,539.533617 L410.130642,533.005617 C417.634642,528.792284 425.122641,524.562951 432.605308,520.312283 C441.348739,515.37452 450.118643,510.483783 458.914642,505.640283 L469.469308,498.541617 L469.469308,487.87495 L384.135975,439.87495 L384.135975,285.208283 Z" id="路径" fill="#1A3FE0" fill-rule="nonzero"></path>
        </g>
    </g>
</svg>