<?xml version="1.0" encoding="UTF-8"?>
<svg width="1026px" height="1024px" viewBox="0 0 1026 1024" version="1.1" xmlns="http://www.w3.org/2000/svg" xmlns:xlink="http://www.w3.org/1999/xlink">
    <title>Zhihu</title>
    <g id="ICON-新版方图标" stroke="none" stroke-width="1" fill="none" fill-rule="evenodd">
        <g id="Zhihu">
            <rect id="蒙版路径" fill="#0066FF" x="2" y="0" width="1024" height="1024"></rect>
            <g id="编组-8" transform="translate(172.6667, 177.3162)" fill-rule="nonzero">
                <polygon id="路径" fill="#FFFFFF" points="682.666667 596.349983 569.082311 596.349983 470.727111 658.404383 461.3632 596.349983 389.927822 596.349983 389.927822 85.8120277 682.666667 85.8120277"></polygon>
                <path d="M323.180089,658.404383 L210.767644,483.903405 L259.953778,448.774517 L334.8992,557.671228 C334.893511,557.671228 360.6528,599.888472 323.180089,658.404383 Z" id="路径" fill="#FFFFFF"></path>
                <polygon id="路径" fill="#0066FF" points="502.340267 570.56225 555.030756 533.089539 613.575111 533.089539 613.575111 149.015583 454.331733 149.015583 454.331733 534.267139 494.142578 534.267139"></polygon>
                <path d="M366.506667,351.625361 L366.506667,379.728472 L225.9968,379.728472 C169.790578,739.203672 0,662.511761 0,662.511761 C155.739022,540.439583 158.663111,379.728472 158.663111,379.728472 L4.10168889,379.728472 C4.10168889,315.33025 62.0600889,316.490783 62.0600889,316.490783 L166.274844,316.490783 L166.274844,147.872117 L110.068622,147.872117 C88.9969778,242.722961 0,238.041005 0,238.041005 C0,238.041005 36.3008,181.834783 60.8881778,85.8177166 C85.4755556,-10.205039 160.415289,0.342160997 160.415289,0.342160997 C138.171733,40.1530054 127.630222,85.8177166 127.630222,85.8177166 L311.466667,85.8177166 C355.965156,85.8177166 353.621333,113.920828 353.621333,113.920828 L353.621333,146.711583 L229.506844,146.711583 L229.506844,316.496472 L331.377778,316.496472 C368.850489,316.496472 366.506667,351.625361 366.506667,351.625361 L366.506667,351.625361 Z" id="路径" fill="#FFFFFF"></path>
            </g>
        </g>
    </g>
</svg>