<?xml version="1.0" standalone="no"?><!DOCTYPE svg PUBLIC "-//W3C//DTD SVG 1.1//EN" "http://www.w3.org/Graphics/SVG/1.1/DTD/svg11.dtd"><svg t="1733377213302" class="icon" viewBox="0 0 1024 1024" version="1.1" xmlns="http://www.w3.org/2000/svg" p-id="1503" xmlns:xlink="http://www.w3.org/1999/xlink" width="200" height="200"><path d="M126.912 864h141.568V503.808L64 340.096v458.368c0 32.768 23.552 65.536 62.912 65.536z" fill="#4285F4" p-id="1504"></path><path d="M755.52 864h141.568c31.424 0 62.912-24.576 62.912-65.472V340.096l-204.48 163.712V864z" fill="#34A853" p-id="1505"></path><path d="M755.52 225.472v278.4L960 340.032v-81.92c0-49.024-39.36-98.176-94.4-98.176-23.616 0-39.296 8.192-55.04 16.384l-55.04 49.088z" fill="#FBBC04" p-id="1506"></path><path d="M268.416 503.808V225.472l243.776 188.288 243.776-188.288v278.4l-243.84 188.16z" fill="#EA4335" p-id="1507"></path><path d="M64 258.24v81.856l204.48 163.712V225.472l-55.04-49.088c-39.36-24.576-102.272-16.384-133.76 24.512-7.808 16.384-15.68 32.768-15.68 57.344z" fill="#C5221F" p-id="1508"></path></svg>