<?xml version="1.0" standalone="no"?><!DOCTYPE svg PUBLIC "-//W3C//DTD SVG 1.1//EN" "http://www.w3.org/Graphics/SVG/1.1/DTD/svg11.dtd"><svg t="1728055180529" class="icon" viewBox="0 0 1024 1024" version="1.1" xmlns="http://www.w3.org/2000/svg" p-id="1256" xmlns:xlink="http://www.w3.org/1999/xlink" width="300" height="300"><path d="M1024.853333 223.573333c-34.133333 37.546667-65.706667 73.386667-98.133333 108.373334-50.346667 55.466667-99.84 110.933333-150.186667 165.546666-11.946667 12.8-10.24 19.626667 0.853334 31.573334 76.8 83.626667 153.6 168.106667 230.4 253.44 4.266667 5.12 9.386667 10.24 14.506666 17.066666-34.986667 34.133333-76.8 48.64-123.733333 44.373334-41.813333-3.413333-75.946667-23.04-104.106667-53.76-80.213333-88.746667-160.426667-177.493333-241.493333-266.24-8.533333-9.386667-8.533333-15.36 0-23.893334 81.92-89.6 162.133333-179.2 244.053333-267.946666 58.026667-63.146667 153.6-69.12 216.746667-14.506667 3.413333 1.706667 6.826667 3.413333 11.093333 5.973333zM2.56 225.28c38.4-45.226667 118.613333-58.88 173.226667-29.866667 17.92 9.386667 34.986667 21.333333 48.64 35.84C308.053333 322.56 390.826667 413.866667 474.453333 506.026667c1.706667 1.706667 2.56 3.413333 5.12 6.826666-23.04 25.6-45.226667 50.346667-68.266666 75.946667-60.586667 67.413333-121.173333 134.826667-182.613334 201.386667-58.88 64.853333-148.48 73.386667-214.186666 22.186666-4.266667-3.413333-8.533333-7.68-14.506667-12.8 23.893333-26.453333 46.933333-52.906667 70.826667-78.506666 59.733333-64.853333 117.76-129.706667 177.493333-194.56 10.24-11.093333 10.24-17.066667 0-29.013334-79.36-87.04-158.72-174.08-237.226667-261.973333-3.413333-3.413333-5.973333-6.826667-8.533333-10.24z" fill="#E57100" p-id="1257"></path><path d="M172.373333 107.52c54.613333-58.026667 147.626667-58.88 203.093334 0 42.666667 44.373333 83.626667 90.453333 124.586666 136.533333 3.413333 3.413333 6.826667 7.68 11.093334 12.8 20.48-23.04 40.106667-44.373333 59.733333-65.706666 23.893333-26.453333 46.933333-52.906667 71.68-78.506667 58.026667-62.293333 152.746667-64.853333 209.066667-4.266667-112.64 124.586667-226.133333 249.173333-339.626667 375.466667-114.346667-126.293333-226.986667-250.88-339.626667-376.32zM851.626667 915.626667c-51.2 59.733333-150.186667 58.026667-207.36-3.413334-36.693333-39.253333-71.68-79.36-108.373334-118.613333-7.68-8.533333-15.36-17.066667-24.746666-26.453333-43.52 47.786667-85.333333 94.72-127.146667 140.8-52.053333 57.173333-128 67.413333-190.293333 26.453333-7.68-5.12-14.506667-11.093333-22.186667-17.92 114.346667-126.293333 226.986667-250.026667 340.48-376.32 113.493333 126.293333 226.133333 250.88 339.626667 375.466667z" p-id="1258"></path></svg>