<?xml version="1.0" standalone="no"?><!DOCTYPE svg PUBLIC "-//W3C//DTD SVG 1.1//EN" "http://www.w3.org/Graphics/SVG/1.1/DTD/svg11.dtd"><svg t="1724410396336" class="icon" viewBox="0 0 1024 1024" version="1.1" xmlns="http://www.w3.org/2000/svg" p-id="5992" xmlns:xlink="http://www.w3.org/1999/xlink" width="200" height="200"><path d="M93.994667 367.402667H36.565333a36.053333 36.053333 0 0 0-35.882666 35.882666v36.608a567.893333 567.893333 0 0 0-0.682667 25.6c0 282.752 229.248 512 512 512 278.485333 0 505.045333-222.378667 511.829333-499.242666 0-1.066667 0.170667-2.133333 0.170667-3.2V403.285333a36.053333 36.053333 0 0 0-35.882667-35.882666h-57.429333c-49.450667-184.704-218.112-320.896-418.346667-320.896-200.192 0-368.853333 136.192-418.346666 320.896z m786.944 0H143.786667c48.085333-157.952 194.986667-273.024 368.554666-273.024 173.610667 0 320.512 115.072 368.597334 273.024z" p-id="5993"></path></svg>