<?xml version="1.0" encoding="UTF-8"?>
<svg width="1024px" height="1024px" viewBox="0 0 1024 1024" version="1.1" xmlns="http://www.w3.org/2000/svg" xmlns:xlink="http://www.w3.org/1999/xlink">
    <title>Myicon</title>
    <g id="ICON" stroke="none" stroke-width="1" fill="none" fill-rule="evenodd">
        <g id="Myicon">
            <rect id="路径" fill="#FFFFFF" x="0" y="0" width="1024" height="1024"></rect>
            <g id="编组" transform="translate(192, 192)" fill-rule="nonzero">
                <path d="M625.408,145.28 L549.376,35.456 C533.964605,13.2720208 508.675833,0.03007433 481.664,0 L158.336,0 C131.324167,0.03007433 106.035395,13.2720208 90.624,35.456 L14.592,145.28 C5.11004969,159.016804 0.0216890484,175.308485 0,192 L0,557.568 C0,603.093936 36.9060635,640 82.432,640 L557.568,640 C603.093936,640 640,603.093936 640,557.568 L640,192 C639.978311,175.308485 634.88995,159.016804 625.408,145.28 Z M481.664,63.9999895 C487.699104,63.9935604 493.349516,66.962421 496.768,71.936 L544.384,140.8 L352.384,140.8 L352.384,63.9999895 L481.664,63.9999895 Z M143.232,71.936 C146.650484,66.962421 152.300896,63.9935604 158.336,63.9999895 L288,63.9999895 L288,140.8 L96,140.8 L143.232,71.936 Z M576.000451,557.568 C576.03438,562.466929 574.103484,567.175182 570.639333,570.639333 C567.175182,574.103484 562.466929,576.03438 557.568,576.000451 L82.432,576.000451 C77.533071,576.03438 72.8248179,574.103484 69.3606668,570.639333 C65.8965156,567.175182 63.9656203,562.466929 63.9995486,557.568 L63.9995486,220.8 C63.9995486,211.963444 71.163444,204.8 80,204.8 L560,204.8 C568.836556,204.8 576.000451,211.963444 576.000451,220.8 L576.000451,557.568 Z" id="形状" fill="#111111"></path>
                <path d="M224,268.8 L416,268.8 C437.333333,268.8 448,279.466667 448,300.8 L448,300.8 C448,322.133333 437.333333,332.8 416,332.8 L224,332.8 C202.666667,332.8 192,322.133333 192,300.8 L192,300.8 C192,279.466667 202.666667,268.8 224,268.8 L224,268.8 Z" id="路径" fill="#00C569"></path>
            </g>
        </g>
    </g>
</svg>
