<!DOCTYPE svg PUBLIC "-//W3C//DTD SVG 1.1//EN" "http://www.w3.org/Graphics/SVG/1.1/DTD/svg11.dtd">
<!-- Uploaded to: SVG Repo, www.svgrepo.com, Transformed by: SVG Repo Mixer Tools -->
<svg xmlns="http://www.w3.org/2000/svg" aria-label="imgur" role="img" viewBox="-51.2 -51.2 614.40 614.40" width="256px" height="256px" fill="#165ddc" transform="rotate(0)" stroke="#165ddc" stroke-width="0.00512">
<g id="SVGRepo_bgCarrier" stroke-width="0" transform="translate(0,0), scale(1)">
<rect x="-51.2" y="-51.2" width="614.40" height="614.40" rx="0" fill="#fcfcfc" strokewidth="0"/>
</g>
<g id="SVGRepo_tracerCarrier" stroke-linecap="round" stroke-linejoin="round" stroke="#f7f7f7" stroke-width="102.4">
<rect width="512" height="512" rx="15%" fill="#175DDC"/>
<path fill="#ffffff" d="M372 297V131H256v294c47-28 115-74 116-128zm49-198v198c0 106-152 181-165 181S91 403 91 297V99s0-17 17-17h296s17 0 17 17z"/>
</g>
<g id="SVGRepo_iconCarrier">
<rect width="512" height="512" rx="15%" fill="#175DDC"/>
<path fill="#ffffff" d="M372 297V131H256v294c47-28 115-74 116-128zm49-198v198c0 106-152 181-165 181S91 403 91 297V99s0-17 17-17h296s17 0 17 17z"/>
</g>
</svg>