<?xml version="1.0" standalone="no"?><!DOCTYPE svg PUBLIC "-//W3C//DTD SVG 1.1//EN" "http://www.w3.org/Graphics/SVG/1.1/DTD/svg11.dtd"><svg t="1728057481840" class="icon" viewBox="0 0 1024 1024" version="1.1" xmlns="http://www.w3.org/2000/svg" p-id="1076" xmlns:xlink="http://www.w3.org/1999/xlink" width="300" height="300"><path d="M208.979592 1024h606.040816c115.461224 0 208.979592-93.518367 208.979592-208.979592V208.979592C1024 93.518367 930.481633 0 815.020408 0H208.979592C93.518367 0 0 93.518367 0 208.979592v606.040816c0 115.461224 93.518367 208.979592 208.979592 208.979592z" fill="#1F2033" p-id="1077"></path><path d="M870.70302 583.366531a366.236735 366.236735 0 0 1-100.101224 187.245714l-56.946939-56.946939c39.915102-39.810612 67.082449-90.697143 78.158367-145.972245 10.971429-55.379592 5.32898-112.74449-16.300408-164.884898a284.56751 284.56751 0 0 0-105.012245-128 285.330286 285.330286 0 0 0-317.02204 0c-46.915918 31.346939-83.487347 75.859592-105.012245 128a285.466122 285.466122 0 0 0-16.300408 164.884898 285.403429 285.403429 0 0 0 78.158367 145.972245l-56.946939 56.946939a366.236735 366.236735 0 0 1-100.101224-187.245714 366.414367 366.414367 0 0 1 20.793469-211.278368 365.191837 365.191837 0 0 1 134.791837-164.153469c60.081633-40.228571 130.821224-61.64898 203.128163-61.64898 72.306939 0 143.046531 21.420408 203.128163 61.64898a365.191837 365.191837 0 0 1 134.791837 164.153469 366.414367 366.414367 0 0 1 20.793469 211.278368z m-366.445714 2.089796l-59.036735-59.141225 199.471021-184.633469 44.303673 44.303673z" fill="#FFFFFF" p-id="1078"></path></svg>