<svg xmlns="http://www.w3.org/2000/svg" width="1025" height="1024"><g fill="none" fill-rule="evenodd"><path fill="#FE1816" d="M.633 0h1024v1024H.633z"/><path fill="#FFF" fill-rule="nonzero" d="M634.062 191c38.401 0 70.685 26.887 88.502 53.356.51.759 1.017 1.52 1.519 2.282 8.976 13.634 5.19 31.958-8.456 40.927-13.646 8.968-31.985 5.186-40.961-8.449-.137-.207-.27-.416-.402-.627-13.018-20.902-24.786-23.258-40.202-23.258-18.598 0-40.592 11.396-35.56 32.346 3.354 13.967 7.535 29.552 12.543 46.756 111.52 4.919 201.588 79.786 201.588 217.073 0 21.983-7.01 52.86-21.032 92.631-44.018 110.871-152.33 189.27-278.968 189.27-165.685 0-300-134.2-300-299.743 0-134.776 89.027-248.776 211.529-286.496 16.969-5.225 34.965 4.283 40.194 21.238 5.224 16.937-4.267 34.901-21.21 40.146l-.245.075c-96.139 29.706-165.982 119.222-165.982 225.037 0 130.07 105.533 235.513 235.714 235.513 98.655 0 183.154-60.556 218.295-146.495l1.503-3.074c10.189-20.52 15.916-43.643 15.916-68.102 0-72.937-48.944-138.193-119.201-149.583L651.66 483.6a135.825 135.825 0 0 1 3.83 32.122c0 74.89-60.761 135.599-135.714 135.599s-135.714-60.71-135.714-135.599c0-12.674 4.395-31.425 13.185-56.251 25.853-56.871 75.372-96.944 148.558-120.22-3.98-13.473-7.894-29.585-11.743-48.336-11.065-53.896 44.771-99.915 100-99.915m-183.01 328.585c0 39.414 29.275 67.505 68.724 67.505 39.449 0 71.429-31.953 71.429-71.368 0-19.455-9.578-57.573-28.732-114.356-49.84 0-111.422 52.66-111.422 118.219"/></g></svg>