<svg xmlns="http://www.w3.org/2000/svg" width="1025" height="1024"><g fill="none" fill-rule="evenodd"><path fill="#FFF" d="M.633 0h1024v1024H.633z"/><path fill="#FBF7F5" fill-rule="nonzero" d="M115.097 617.206c16.24-19.397 32.028-39.246 48.719-58.643 6.315-7.217 6.315-12.18-.451-18.946-45.561-45.11-56.387-100.143-43.306-161.041-.45-30.224 18.495-50.523 37.441-70.371 9.924-10.375 20.3-19.397 32.48-27.066 9.472-5.413 19.396-9.473 29.32-14.886 5.414-2.707 10.827-4.962 16.691-5.864 30.675-6.767 61.35-7.669 92.475-.902 7.668.902 14.886 3.608 22.555 6.315 6.766 2.255 13.081 8.12 21.201 4.962 1.804-.902 3.609-1.804 4.962-2.707 16.24-11.277 34.734-17.141 52.327-24.81 4.962-1.804 10.375-3.609 15.338-4.962 5.413-1.353 11.277-3.158 16.69-4.511 22.104 0 43.756-9.022 65.86-4.51 36.539 4.961 72.175 13.532 105.557 29.771 18.946 17.142 38.343 5.414 57.74 0 40.599-6.766 80.746-9.022 119.54 9.473 15.789 8.571 31.577 16.691 44.659 28.87l11.277 11.278c9.473 9.924 15.789 22.104 23.908 32.93 6.316 9.022 9.924 19.848 13.533 30.223 4.06 18.495 10.827 36.088 8.571 55.485-4.06 15.789-2.707 32.48-9.022 47.816-6.315 15.338-12.18 30.675-22.104 43.757-4.51 12.18-22.103 17.141-18.495 33.832 9.022 11.277 19.398 20.3 29.322 30.223 5.413 4.962 8.57 11.278 10.826 18.044 13.984 22.555-4.51 28.87-18.044 38.343-7.668 8.12-10.826 16.24-8.57 27.968 3.608 22.104-3.158 32.028-25.713 36.54-13.533 2.706-26.615 10.374-41.501 4.961-24.36 8.12-55.485.902-70.371 30.675.902 1.804.451 3.157-1.804 3.608-19.849 17.142-39.246 33.833-62.703 46.463-10.826 5.865-20.75 7.218-31.125-.902-5.865-10.826-13.533-16.69-26.615-10.375-5.864 2.707-12.63 3.158-19.397 1.353-9.473-.45-18.495.451-27.066 4.06-8.12 6.315-16.69 7.669-27.066 5.413-21.652-5.413-43.305 2.256-64.957 1.354-14.436-3.61-29.773-3.158-42.855-11.729-9.473-4.962-20.299-7.217-31.125-8.57-7.669-3.61-12.18-1.805-14.435 7.217-1.354 5.413.45 12.18-6.316 15.337-8.12 7.669-16.69 1.804-24.81 1.353-26.164 2.707-36.99-18.946-52.778-33.38-9.924-11.278-19.397-22.104-29.321-33.382-6.767-8.12-15.338-11.277-25.713-9.924-16.24 7.669-31.126 2.707-45.56-5.413-12.631-2.707-24.81-5.413-37.442-7.669-13.984-2.706-20.75-12.18-14.435-24.359 10.827-21.653-2.255-27.066-18.495-31.577-15.788-3.608-27.065-11.277-19.397-31.125"/><path fill="#2C0A06" fill-rule="nonzero" d="M389.815 287.906c83.453-48.719 166.003-43.757 249.005 1.804 6.315 3.609 11.728 9.473 20.3 7.669 8.57-2.707 10.374 5.413 15.336 9.473 27.968 26.614 56.839 52.778 73.078 88.866 8.57 15.788 14.435 32.478 22.104 48.718 9.473 25.261 15.337 51.425 14.886 78.942 0 8.12 0 16.69 7.668 22.103 10.827 9.022 11.278 18.495 0 27.517-8.12 4.06-7.668 11.729-9.021 18.946-3.61 21.202-7.218 41.952-12.18 62.703-.451 4.962-.902 10.375-.902 15.337 0 13.082-6.767 17.593-19.397 15.337-18.495 41.501-50.072 69.92-90.67 90.22-3.61-13.985 4.51-26.164.45-37.893-97.887 41.501-195.324 39.697-293.663-2.255-3.609 13.533 4.962 26.615 0 41.05-43.305-16.24-72.175-46.914-94.28-85.709-13.081-3.157-18.945-12.18-18.945-25.261 0-9.473.902-19.397-7.669-26.164-4.51-5.864-5.864-13.081-6.315-20.299.902-23.457-4.962-45.56-13.533-66.762.902-2.256 2.255-4.06 4.06-5.413 8.12-3.61 9.473-9.924 7.217-18.044-2.706-10.826-2.255-21.653-2.706-32.93-2.256-32.028 15.337-58.192 24.359-87.062 18.946-27.968 36.99-56.387 62.251-79.393 8.12-7.668 16.24-15.788 28.42-16.24 6.766.452 10.826 4.06 10.826 11.278-4.511 15.338-20.3 21.202-28.87 33.381-81.198 87.964-99.242 200.287-49.621 309.001 12.63 27.066 31.125 49.17 56.838 69.469 2.255-12.63-.902-22.555-2.256-32.028-8.12-55.936-10.375-111.872-16.239-167.808-2.255-20.75 3.609-25.712 23.006-18.946 9.473 3.158 12.63-3.157 16.69-7.217 22.555-24.36 41.952-50.974 57.29-80.746 3.608-7.218 5.413-18.495 14.886-18.044 10.375.451 12.18 11.728 15.337 19.848 11.729 30.675 27.517 58.192 52.327 80.295 11.278 9.924 23.457 18.495 40.599 22.555 3.158-15.788-3.609-29.772-3.609-44.207 0-12.18-5.864-27.968 8.12-34.735 11.728-5.413 18.946 8.571 27.517 15.789 24.81 20.75 52.327 37.892 82.1 50.522 10.374 4.511 16.69 4.511 18.945-8.57 1.354-8.571 4.06-19.849 15.789-18.495 13.532 1.353 11.728 13.984 11.728 23.005 2.256 66.312-7.217 131.72-14.886 197.13-.451 4.51-2.707 8.57-.451 13.081 75.784-37.892 113.676-265.695-7.669-376.665-20.75-18.946-41.5-38.343-67.664-50.523-64.507-30.674-129.014-32.93-194.874-3.157-8.57 4.06-17.592 12.63-28.87 4.51-.902-4.962.451-9.472 3.158-13.983"/><path fill="#2A0C0D" fill-rule="nonzero" d="M389.815 287.906c0 4.962.45 9.924.45 14.886-4.961 15.337-15.787 22.555-31.576 21.652-.45-6.315-4.51-8.12-9.924-8.57-34.283-24.36-71.724-18.044-108.714-9.925-24.36 4.06-39.697 22.104-57.29 36.99-12.179 9.924-19.396 23.006-23.005 38.343-2.256 10.376-4.962 20.75-6.316 31.126-2.255 50.523 15.789 91.121 59.094 119.54 6.766 4.511 14.886 7.67 16.24 17.142 15.337 21.202 18.494 45.11 17.141 69.92-14.886-6.315-8.12-22.104-15.337-32.93-9.022 22.555-17.142 45.11-26.164 67.664-4.51 11.278-.902 15.789 10.827 18.947 28.419 6.766 32.93 3.608 32.479-25.713 0-3.609.45-7.218 3.157-10.375 10.827 4.06 10.375 13.984 9.022 22.555-1.804 13.533 2.707 24.359 13.533 32.479-4.511 6.315-8.12 11.728-18.946 9.473-24.36-4.963-48.718-8.12-73.529-11.278-11.277-1.353-12.63-6.766-7.668-14.886 13.984-22.555 4.51-31.577-18.044-37.441-26.164-6.766-26.164-8.57-9.473-29.321 13.984-17.593 27.517-35.637 42.403-52.778 6.315-7.67 5.864-11.729-1.805-18.044-56.387-43.306-72.626-124.503-33.38-188.107 39.245-63.154 119.99-88.866 191.715-59.545 17.142 6.766 30.675 8.12 45.11-1.804"/><path fill="#280E0E" fill-rule="nonzero" d="M669.494 311.814c-5.413-3.61-3.157-12.18-10.375-14.435 67.665-39.246 156.53-20.3 202.542 42.854 44.659 61.8 34.284 142.546-27.065 195.324-10.376 9.022-9.925 14.435-.452 22.555 19.849 17.142 39.246 34.734 61.35 54.132-13.984 6.766-19.849 9.924-25.713 12.63-28.419 13.984-28.87 13.984-17.593 42.403 3.609 9.022 1.354 11.729-7.217 13.984-24.81 5.865-50.072 10.827-73.98 18.495-15.337 4.962-13.082-10.375-20.3-13.984 19.849-4.06 11.73-20.299 13.985-32.028 5.864 0 7.668 4.511 8.57 8.571 2.256 10.827 9.022 11.729 18.495 9.924 32.48-5.413 34.284-8.57 19.398-37.892-7.218-13.984-14.436-27.968-21.202-41.952-3.609-7.217-9.022-14.435-4.511-23.005 13.533-5.414 15.337-11.729.902-18.495-.45-10.827 9.924-11.729 16.24-15.338 23.457-13.984 41.952-32.479 52.778-58.191 6.315-12.63 11.277-25.261 10.826-39.697 4.06-46.914-15.788-83.001-50.071-112.774-9.925-12.18-23.909-17.592-38.795-21.201-36.99-12.18-73.077-7.669-107.812 8.12"/><path fill="#FCB746" fill-rule="nonzero" d="M684.832 347.45c62.25 61.8 83.903 138.487 78.04 223.744-3.61 52.778-14.436 104.203-50.524 146.155-8.57 9.924-16.69 20.75-24.81 31.577l-8.57-5.865c3.608-32.027 7.668-64.055 11.277-96.534 4.962-44.207 7.217-88.415 6.766-132.622 0-6.767 3.158-17.593-8.57-17.142-9.474.451-7.67 10.375-7.218 16.24 2.255 21.652-5.413 23.456-23.908 15.337-41.501-17.142-77.589-41.952-111.421-74.882-7.218 32.479 3.609 60.898 7.218 89.768-44.208-5.413-69.92-33.832-119.54-131.72-19.85 46.914-49.17 84.806-84.807 118.187-9.022-2.255-3.609-19.397-15.337-15.337-10.827 3.609-5.413 13.984-4.962 21.652 4.962 70.371 10.826 140.742 21.652 211.113-120.442-36.99-131.269-285.995-18.946-395.61 43.757-4.963 87.964 1.803 131.27-8.572 2.706-.902-.452-.902 2.255 0 62.702 13.533 124.502-6.766 187.205-1.804 11.277.451 22.554 1.804 32.93 6.315"/><path fill="#FEFEFE" fill-rule="nonzero" d="M665.886 704.267c-.452 18.044-16.691 19.848-27.968 24.81-61.8 26.615-125.856 28.87-190.814 16.24-29.772-5.864-59.545-13.533-83.904-34.283-6.766-18.044 0-26.615 18.946-26.615 4.511 0 9.022-.451 13.082-2.255 4.51-1.805 8.12-4.511 8.12-9.473 0-4.963-3.61-8.12-7.669-9.925-4.962-2.255-10.826-3.608-15.337-1.804-21.653 9.022-24.36-4.06-25.713-20.3-2.706-25.26-4.962-50.522-7.668-76.235-.903-7.217 1.353-12.63 6.766-17.592 30.224-27.517 55.936-58.192 78.942-96.084 9.473 20.3 19.397 37.441 31.577 52.778 24.81 30.675 55.484 52.328 94.279 61.8 13.533 3.158 20.299 2.707 14.435-14.434-6.316-18.495-11.729-36.99-11.278-60.447 35.186 26.614 70.822 47.816 110.97 60.447 6.766 2.255 7.669 6.766 7.218 12.18-1.354 33.831-2.256 67.212-9.473 100.142-10.376 3.158-19.849-5.413-30.675-2.706-8.12 1.804-18.044 3.158-17.593 13.533.451 9.473 10.375 8.57 17.593 9.924 9.473 1.804 21.653-2.707 27.517 9.473 1.353 3.609.451 7.669-1.353 10.826"/><path fill="#FCBF57" fill-rule="nonzero" d="M684.832 347.45c-48.719 2.707-98.34-5.864-146.607 9.022-8.12 2.256-17.592-.45-26.614-1.353-23.908-3.158-47.365-4.511-72.176-1.353-35.185 4.06-72.175 9.924-107.812-1.354 6.767-11.277 18.044-18.495 27.066-27.065 10.375-7.218 21.202-14.436 31.577-21.653 46.012-23.457 94.279-39.697 146.606-31.577 49.62 7.669 95.632 23.457 130.818 62.251 4.962 4.511 13.984 4.963 17.142 13.082"/><path fill="#F65060" fill-rule="nonzero" d="M178.702 339.782c17.141-16.24 32.93-34.735 58.642-37.441 23.006-.451 29.322 16.24 31.577 33.832 3.609 23.908 2.707 47.816-4.51 71.273 1.803 12.63-4.963 23.006-10.376 33.832-8.12 17.142-13.082 35.186-13.082 54.132-.451 1.804-1.353 3.157-3.609 3.609-12.18 12.63-24.359 8.57-36.087 0-12.631-9.022-6.316-19.849-1.805-30.224 1.805-4.06 3.158-8.57 4.962-12.63 6.767-13.985 3.61-21.653-12.63-26.164-15.789-4.06-31.126-11.278-44.208-21.653 2.256-9.924 1.353-20.75 6.767-30.223 4.962-4.06 10.375-2.707 15.788-.902 10.826 3.157 20.75 8.57 31.126 13.081 13.984 6.316 20.75 1.805 23.006-13.081 1.804-12.18 3.157-24.81-8.12-32.93-12.63-9.022-19.848 6.766-30.224 8.57-6.766-.902-12.18-4.06-7.217-13.081"/><path fill="#F74F61" fill-rule="nonzero" d="M872.036 437.218c1.805 15.338-2.255 28.42-11.277 40.599-40.147 8.12-71.724-7.218-97.888-36.539-6.315-14.435-13.082-28.87-19.397-43.305-6.315-31.577 0-59.545 20.3-84.806 5.413-6.315 10.826-12.18 19.397-13.984 14.435 3.158 28.419 7.217 36.99 20.75.902 8.12-6.316 11.278-10.827 15.789-21.201 22.103-25.712 40.598-15.337 64.958 10.826 24.359 32.028 31.576 56.387 32.93 7.217.902 14.886-2.256 21.652 3.608"/><path fill="#FAFAF7" fill-rule="nonzero" d="M148.478 408.8c23.457 1.804 41.05 18.945 64.056 22.554 5.413.902 4.06 7.218 2.707 11.278-3.158 9.021-7.669 18.043-9.925 27.516-1.804 8.12-15.337 16.69-2.255 24.81 10.826 6.767 23.457 12.631 34.734 0 3.61 13.082.452 26.615 3.158 40.148 1.353 7.218-2.255 13.082-9.924 14.886l-.902-.902-1.354.451c-55.935-30.674-85.708-75.784-80.295-140.742"/><path fill="#FCFBF8" fill-rule="nonzero" d="M264.41 406.995c-6.315-4.511-3.609-9.473-2.255-15.788 4.962-18.946 3.608-38.795.902-57.74-2.256-15.338-11.729-25.262-25.713-31.577 36.99-17.593 73.078-11.278 109.617 1.353 8.12 2.706 4.06 7.668 1.804 12.18-26.615 17.141-46.012 41.05-64.056 66.31-6.315 9.022-9.022 20.751-20.299 25.262"/><path fill="#FAFAF6" fill-rule="nonzero" d="M782.72 299.634c-30.224 26.164-37.442 61.35-39.697 98.79-18.495-33.832-41.952-64.056-73.529-86.61-1.804-7.218 3.61-8.12 8.571-9.924 34.735-13.984 69.469-14.887 104.654-2.256"/><path fill="#FBF9F9" fill-rule="nonzero" d="M762.42 441.73c1.353-.452 3.609-1.805 4.06-1.354 25.712 26.615 58.191 36.539 94.28 38.343-13.985 35.186-41.502 55.936-73.53 72.176-9.924-1.805-7.217-9.473-7.217-15.789-1.353-32.479-7.218-63.153-17.593-93.377"/><path fill="#59C3E4" fill-rule="nonzero" d="M785.877 568.938c13.533 27.517 26.615 55.485 40.148 82.551 5.413 11.277 5.413 18.044-8.571 19.848-5.413.902-10.375 2.256-15.337 3.609-29.773 7.218-29.773 7.218-37.441-21.653 5.413-24.359 11.728-48.718 13.081-73.98.452-5.413.452-10.826 8.12-10.375"/><path fill="#57C2E5" fill-rule="nonzero" d="M250.426 636.152c10.826 48.718 11.278 47.816-38.794 41.952-18.495-2.256-20.75-7.669-13.984-23.457 11.728-27.968 22.104-56.387 35.636-84.355 6.316 16.24 5.414 33.38 12.631 48.718 0 5.864 0 12.18 4.511 17.142"/><path fill="#F7C0CB" fill-rule="nonzero" d="M354.63 641.114c6.766 4.51 2.255 13.082 6.766 18.495 8.12-3.158 15.788-6.767 25.261-5.413 12.18 1.804 25.713 2.706 26.164 18.495 0 15.788-12.631 18.494-25.713 17.592-15.788-1.353-26.614 1.354-23.457 20.75-8.12-22.554-8.12-46.462-9.022-69.92"/><path fill="#F5C5CC" fill-rule="nonzero" d="M665.886 704.267c0-13.533-8.571-14.886-19.849-14.435-11.728.451-24.359 2.707-32.479-9.924-3.157-5.413-2.255-9.924 1.805-14.435 10.826-12.18 24.81-13.533 39.245-10.826 5.413.902 10.375 5.413 15.337 8.57.452 13.984 1.354 27.968-4.06 41.05"/><path fill="#2A0C0D" fill-rule="nonzero" d="M230.578 549.992c9.022-17.592 3.158-36.538 6.766-55.033.903.45 2.256.45 3.158 0 1.353 12.63 0 25.261 4.06 37.892 4.06 10.826.451 19.397-13.984 17.141"/><path fill="#58BCD8" fill-rule="nonzero" d="M157.05 619.912c14.434-19.397 28.87-38.343 42.853-57.289 3.158-4.06 8.12-5.413 12.18-2.707 5.413 3.158.902 7.67-.451 11.729-4.06 11.277-7.669 22.104-11.729 33.381-10.826 29.772-10.826 29.772-42.854 14.886"/><path fill="#E45362" fill-rule="nonzero" d="M178.702 339.782c0 5.864 3.158 9.473 8.12 12.18 3.157 14.885-9.925 21.2-16.24 31.125-4.962-1.353-10.375-3.158-15.337-4.511 2.706-15.788 9.924-28.87 23.457-38.794"/><path fill="#FCFBFB" fill-rule="nonzero" d="M872.036 437.218c-28.419 5.865-54.582 2.707-74.881-21.201-25.713-30.224-16.691-66.762 23.005-96.084 37.893 30.224 55.936 69.018 51.876 117.285"/><path fill="#5ABCDA" fill-rule="nonzero" d="M808.883 555.406c2.707 2.706 6.315 5.413 9.473 8.57 9.924 9.924 20.3 19.849 29.772 30.224 4.511 4.962 15.338 9.473 9.925 17.141-4.06 5.865-13.533 8.571-21.653 10.827-9.473 2.706-9.924-6.767-12.63-12.18-7.218-13.984-13.985-27.968-20.751-41.952-3.158-5.413-4.511-11.277 5.864-12.63"/><path fill="#2E120D" fill-rule="nonzero" d="M422.294 608.184c-2.256 16.69-2.256 36.539-22.555 36.539-18.946 0-21.202-19.398-21.202-33.833 0-15.337 1.805-35.636 22.104-35.636 18.495-.451 18.946 18.946 21.653 32.93"/><path fill="#2C110C" fill-rule="nonzero" d="M647.842 609.988c-.451 4.06-.451 9.473-2.256 14.435-3.157 10.375-7.217 20.75-20.3 20.3-12.63-.452-17.14-10.827-19.396-21.202-1.353-4.962-2.707-10.375-1.805-15.337 1.805-14.886 3.158-33.832 22.104-33.381 18.495.45 19.848 18.946 21.653 35.185"/><path fill="#FCF7F3" fill-rule="nonzero" d="M170.582 383.087c-1.804-13.984 11.729-20.3 16.24-31.126 8.57-9.924 17.592-19.848 32.027-13.984 14.887 5.864 13.533 20.3 12.631 32.93-1.804 32.48-5.864 35.186-36.088 23.006-8.57-3.158-16.69-7.217-24.81-10.826"/></g></svg>