<?xml version="1.0" encoding="UTF-8"?>
<svg width="1024px" height="1024px" viewBox="0 0 1024 1024" version="1.1" xmlns="http://www.w3.org/2000/svg" xmlns:xlink="http://www.w3.org/1999/xlink">
    <title>Adguard</title>
    <g id="ICON-新版方图标" stroke="none" stroke-width="1" fill="none" fill-rule="evenodd">
        <g id="Adguard">
            <rect id="路径" fill="#FFFFFF" x="0" y="0" width="1024" height="1024"></rect>
            <path d="M514.8416,153.6 C401.9328,153.6 265.728,180.1472 153.599892,238.592 C153.599892,364.8256 152.064,679.2832 514.8416,894.144 C877.6448,679.2832 876.096056,364.8256 876.096056,238.592 C763.968,180.1472 627.776,153.6 514.8416,153.6 Z" id="路径" fill="#68BC71" fill-rule="nonzero"></path>
            <path d="M514.4704,893.9264 C152.064,679.0656 153.599945,364.7744 153.599945,238.592 C265.6,180.224 401.6384,153.664 514.4704,153.6 L514.4704,893.9264 Z" id="路径" fill="#67B279" fill-rule="nonzero"></path>
            <path d="M501.6704,647.7184 L720.1152,353.28 C704.1152,340.4544 690.0736,349.504 682.3424,356.5184 L682.0608,356.544 L499.9168,546.0224 L431.2832,463.424 C398.5536,425.6 354.0352,454.464 343.6416,462.08 L501.6704,647.7056" id="路径" fill="#FFFFFF" fill-rule="nonzero"></path>
        </g>
    </g>
</svg>