<svg xmlns="http://www.w3.org/2000/svg" width="1025" height="1024"><g fill="none" fill-rule="evenodd"><path fill="#F76E05" d="M.633 0h1024v1024H.633z"/><g fill="#FFF" fill-rule="nonzero"><path d="M255.881 644.31c-16.73-3.463-28.787-18.13-28.96-35.227V415.327c.63-16.928 12.484-31.347 28.96-35.228l179.76-38.991 18.88-77.105H245.8a132.28 132.28 0 0 0-94.134 38.477 132.483 132.483 0 0 0-39.066 93.952v228.984c.48 73.436 59.823 132.863 133.2 133.387h208.72l-18.88-76.782-179.76-37.71m523.04-380.304H568.6l19.2 77.102 179.76 38.99c16.714 3.492 28.757 18.142 28.96 35.23v193.755c-.684 16.907-12.515 31.298-28.96 35.228L587.8 683.302l-19.2 77.102h210.32a133.307 133.307 0 0 0 94.591-39.063 133.523 133.523 0 0 0 39.089-94.644V396.432c-.875-73.302-60.432-132.3-133.68-132.426"/><path d="M382.108 487.702h272.703v62.85H382.108z"/></g></g></svg>