<svg xmlns="http://www.w3.org/2000/svg" width="1025" height="1024"><defs><radialGradient id="a" cx="76.254%" cy="30.297%" r="105.968%" fx="76.254%" fy="30.297%"><stop offset="0%" stop-color="#7988FB"/><stop offset="27.433%" stop-color="#6384FE"/><stop offset="52.158%" stop-color="#66AEFD"/><stop offset="87.923%" stop-color="#7988FB"/><stop offset="100%" stop-color="#67AFFD"/></radialGradient></defs><g fill="none" fill-rule="evenodd"><path fill="url(#a)" d="M0 0h1024v1024H0z" transform="translate(.23)"/><path fill="#FFF" fill-rule="nonzero" d="M802.25 568.328c-8.327-2.404-13.382-10.824-11.587-19.296 36.858-176.012-66.441-353.298-236.596-400.43-175.328-48.405-356.205 59.083-403.825 239.817v.86c-28.998 111.503-9.03 230.07 54.893 325.95A386.52 386.52 0 0 0 388.6 862.542c207.875 78.415 431.647-38.964 497.639-248.808a20.217 20.217 0 0 0-1.382-15.754 20.244 20.244 0 0 0-12.304-9.947l-70.304-19.707v.001M456.767 738.796c-63.893-17.571-117.024-59.945-150.058-118.653a261.586 261.586 0 0 1-24.859-193.172c28.31-107.525 135.921-171.292 240.533-142.63 98.988 27.424 160.293 128.506 142.295 230.86-1.821 9.506 3.947 18.82 13.273 21.432l66.442 18.395a15.37 15.37 0 0 1 9.59 7.813 15.35 15.35 0 0 1 .722 12.344c-41.62 125.508-171.467 198.303-297.901 163.61h-.037"/></g></svg>