<?xml version="1.0" encoding="UTF-8"?>
<svg width="1025px" height="1024px" viewBox="0 0 1025 1024" version="1.1" xmlns="http://www.w3.org/2000/svg" xmlns:xlink="http://www.w3.org/1999/xlink">
    <title>Aliyun.drive</title>
    <defs>
        <radialGradient cx="76.2543285%" cy="30.2966034%" fx="76.2543285%" fy="30.2966034%" r="105.967501%" id="radialGradient-1">
            <stop stop-color="#7988FB" offset="0%"></stop>
            <stop stop-color="#6384FE" offset="27.4331834%"></stop>
            <stop stop-color="#66AEFD" offset="52.1578843%"></stop>
            <stop stop-color="#7988FB" offset="87.9234047%"></stop>
            <stop stop-color="#67AFFD" offset="100%"></stop>
        </radialGradient>
    </defs>
    <g id="ICON-新版方图标" stroke="none" stroke-width="1" fill="none" fill-rule="evenodd">
        <g id="Aliyun.drive" transform="translate(0.2293, 0)">
            <rect id="蒙版路径" fill="url(#radialGradient-1)" x="0" y="0" width="1024" height="1024"></rect>
            <path d="M802.020063,568.328375 C793.693866,565.92421 788.638239,557.504261 790.433997,549.032238 C827.291641,373.019854 723.992515,195.734231 553.837994,148.602483 C378.509992,100.197496 197.632384,207.685104 150.012986,388.419005 L150.012986,389.279538 C121.014599,500.782173 140.982628,619.349787 204.906191,715.228399 C249.250522,782.193614 313.378528,833.685698 388.370978,862.542883 C596.245244,940.957643 820.017835,823.579174 886.009372,613.734667 C887.706805,608.513591 887.207962,602.827425 884.627321,597.981061 C882.046679,593.134697 877.605821,589.544261 872.32386,588.033705 L802.020063,568.327497 L802.020063,568.328375 Z M456.538418,738.79559 C392.645449,721.224909 339.515113,678.850679 306.481116,620.143005 C273.637614,561.343844 264.734272,492.15972 281.621694,426.970888 C309.931275,319.445522 417.54266,255.679142 522.154709,284.340162 C621.142455,311.764825 682.447366,412.84673 664.449594,515.201872 C662.628221,524.706578 668.397193,534.020998 677.722951,536.632659 L744.164432,555.027871 C748.315469,556.174973 751.794556,559.009396 753.754848,562.841211 C755.715139,566.673026 755.976837,571.150781 754.476242,575.184541 C712.856394,700.693292 583.009676,773.488245 456.575328,738.79559 L456.538418,738.79559 Z" id="形状" fill="#FFFFFF" fill-rule="nonzero"></path>
        </g>
    </g>
</svg>