<svg xmlns="http://www.w3.org/2000/svg" width="1024" height="1024"><defs><linearGradient id="a" x1="-5.357%" x2="50%" y1="60.171%" y2="48.32%"><stop offset="0%" stop-color="#FF2626"/><stop offset="100%" stop-color="#FC4B4B"/></linearGradient><linearGradient id="b" x1="81.751%" x2="12.444%" y1="36.667%" y2="73.333%"><stop offset="0%" stop-color="#FC4B4B"/><stop offset="100%" stop-color="#FD7878"/></linearGradient></defs><g fill="none" fill-rule="evenodd"><path fill="#000" d="M0 0h1024v1024H0z"/><g fill-rule="nonzero" transform="translate(192 187)"><path fill="url(#a)" d="M538.952 161.388c0-235.792-471.583-235.792-471.583 151.58 101.054-75.79 471.583-151.58 471.583-151.58"/><path fill="url(#b)" d="M353.687 210.163c-25.937-87.108-24.59-95.833-50.526-200.356C144.153 58.6 126.115 204.37 137.635 262.441l216.052-52.278"/><path fill="#FFF" d="M564.216 262.441c-109.475 8.421-244.213 42.106-395.793 101.054-25.264 0-42.106-67.37-33.685-101.054s404.214-134.738 421.056-117.896c16.843 16.843 33.685 117.896 8.422 117.896"/><circle cx="50.527" cy="346.652" r="50.527" fill="#FFF"/></g><path fill="#FFF" d="M747.794 466.283c11.925 0 16.843 45.306 16.843 69.896 0 32.169-1.937 51.032-22.451 90.948 22.45 45.474-15.545 100.632-89.837 90.948-9.802 9.937 5.963 31.024-5.608 42.78-19.941 20.328-55.748 25.431-84.211 25.431-28.464 0-64.27-5.103-84.212-25.431-11.553-11.756 4.21-32.843-5.608-42.78-51.824 9.684-112.287-45.474-89.837-90.948-8.859-18.29-22.45-51.369-14.13-59.79 47.764-33.685 311.885-101.054 379.051-101.054M427.792 593.021c0 31.394 25.128 56.843 56.135 56.843 31.023 0 56.152-25.432 56.152-56.843 0-31.394-25.129-56.842-56.152-56.842-31.007 0-56.135 25.432-56.135 56.842m112.287 102.317c0-12.547 10.055-22.737 22.45-22.737 12.397 0 22.451 10.19 22.451 22.737 0 12.548-44.901 12.548-44.901 0m67.369-90.948c0 25.129 20.093 45.474 44.901 45.474 24.809 0 44.919-20.345 44.919-45.474 0-25.112-20.11-45.474-44.919-45.474-24.808 0-44.901 20.362-44.901 45.474"/><path fill="#FFF" fill-rule="nonzero" d="m387.454 773.436 11.1-13.98c-13.491-9.229-19.554-14.096-29.811-26.139l-18.695 16.994c-8.923-14.348-27.733-18.838-42.174-10.067-14.441 8.772-19.128 27.534-10.509 42.067 8.62 14.532 27.333 19.415 41.954 10.948-5.195 16.975 3.675 35.068 20.275 41.358 16.6 6.29 35.234-1.384 42.59-17.54 7.357-16.156.913-35.248-14.73-43.641m355.709 6.164c-11.85 7.148-17.484 21.319-13.775 34.652 3.71 13.333 15.851 22.56 29.69 22.561a30.821 30.821 0 0 0 28.835-41.735c15.243 7.264 33.494.91 40.93-14.25 7.437-15.16 1.29-33.48-13.784-41.089-15.075-7.608-33.465-1.67-41.243 13.318l-16.304-16.624c-11.082 11.57-17.903 17.196-32.067 24.422l17.718 18.745"/></g></svg>