<?xml version="1.0" encoding="UTF-8"?>
<svg width="1025px" height="1024px" viewBox="0 0 1025 1024" version="1.1" xmlns="http://www.w3.org/2000/svg" xmlns:xlink="http://www.w3.org/1999/xlink">
    <title>Aria2pro</title>
    <g id="ICON-新版方图标" stroke="none" stroke-width="1" fill="none" fill-rule="evenodd">
        <g id="Aria2pro" transform="translate(0.6332, 0)">
            <rect id="蒙版路径" fill="#D1555A" x="0" y="0" width="1024" height="1024"></rect>
            <circle id="圆形1" fill="#E8AAAD" cx="512" cy="512" r="408"></circle>
            <circle id="圆形2" fill="#666B80" cx="512" cy="512" r="388"></circle>
            <path d="M570,336 C578.621484,334.758414 586.954817,333.091748 595,331 C603.045183,328.908252 611.378516,326.241586 620,323 C651.333333,373 666,433.333333 664,504 C662,574.666667 643.333333,642 608,706 L502,706 L502,412 L570,336 Z" id="火箭身右" fill="#E2E2E2"></path>
            <path d="M408,336 C416.621484,334.758414 424.954817,333.091748 433,331 C441.045183,328.908252 449.378516,326.241586 458,323 C489.333333,373 504,433.333333 502,504 C500,574.666667 481.333333,642 446,706 L340,706 L340,412 L408,336 Z" id="火箭身左" fill="#FFFFFF" transform="translate(421.09, 514.5) scale(-1, 1) translate(-421.09, -514.5)"></path>
            <path d="M501,171 C527.822533,195.533362 551.155866,220.533362 571,246 C590.844134,271.466638 607.510801,297.799972 621,325 C580.798872,341.999712 540.798872,350.333045 501,350 C461.201128,349.666955 421.534461,340.666955 382,323 C399.425825,291.391664 417.425825,263.724997 436,240 C454.574175,216.275003 476.240842,193.275003 501,171 Z" id="火箭头" fill="#D2545E"></path>
            <g id="机翼" transform="translate(293.8173, 555)" fill="#434343">
                <path d="M209.182745,241 C214.367033,241 222.377627,207.857458 227.182745,176 C231.987863,144.142542 231.182745,121.340707 231.182745,91 C231.182745,25.5542571 217.847728,0 208.182745,0 C198.517762,0 185.182745,25.5542571 185.182745,91 C185.182745,117.369683 186.995,146.827744 190.182745,176 C193.37049,205.172256 203.412019,241 209.182745,241 Z" id="机翼尾1"></path>
                <path d="M56.1462901,20.0452977 C61.4206475,45.3985545 67.7662642,68.7167874 75.1831401,89.9999966 C82.600016,111.283206 91.9333494,131.949872 103.18314,151.999997 L3.18314014,244.999997 C0.120530564,181.316425 2.78719723,131.983092 11.1831401,96.9999966 C19.579083,62.0169011 34.5667997,36.3653348 56.1462901,20.0452977 Z" id="左翼" transform="translate(52.5692, 132.5226) rotate(-1) translate(-52.5692, -132.5226)"></path>
                <path d="M366.91772,20.0413215 C372.343954,45.3972293 378.765508,68.7167877 386.182384,89.9999969 C393.59926,111.283206 402.932593,131.949873 414.182384,151.999997 L314.182384,244.999997 C311.119775,181.316426 313.786441,131.983092 322.182384,96.9999969 C330.578327,62.0169014 345.490106,36.3640096 366.91772,20.0413215 Z" id="右翼" transform="translate(363.5685, 132.5207) scale(-1, 1) rotate(-1) translate(-363.5685, -132.5207)"></path>
            </g>
            <g id="窗户" transform="translate(432, 272)">
                <circle id="窗户3" fill="#A0A0A0" cx="70" cy="70" r="70"></circle>
                <circle id="窗户2" fill="#74B8CC" cx="70" cy="70" r="53"></circle>
                <circle id="窗户1" fill="#91E6FF" cx="49" cy="48" r="13"></circle>
            </g>
            <path d="M523,706 L593,706 L593,719 C593,723.418278 589.418278,727 585,727 L521,727 L521,727 C521.349935,723.659014 521.683268,720.325681 522,717 C522.316732,713.674319 522.650065,710.007652 523,706 Z" id="矩形" fill="#959595"></path>
            <path d="M414,706 L484,706 L484,719 C484,723.418278 480.418278,727 476,727 L412,727 L412,727 C412.349935,723.659014 412.683268,720.325681 413,717 C413.316732,713.674319 413.650065,710.007652 414,706 Z" id="矩形" fill="#959595" transform="translate(448, 716.5) scale(-1, 1) translate(-448, -716.5)"></path>
            <path d="M574,727 C586.86499,764.198689 595.86499,792.865355 601,813 C606.13501,833.134645 610.801677,857.801311 615,887 C576.282975,895.998036 538.616308,900.331369 502,900 C465.383692,899.668631 427.050359,893.001964 387,880 C391.090523,861.351575 396.757189,838.018241 404,810 C411.242811,781.981759 419.909477,754.315092 430,727 L484,727 L490,756 L499,789 L502,797 L505,789 C507.887585,777.214595 510.554252,766.214595 513,756 C515.445748,745.785405 517.445748,736.118739 519,727 L574,727 Z" id="火箭筒" fill="#D1555A"></path>
        </g>
    </g>
</svg>