<svg xmlns="http://www.w3.org/2000/svg" xmlns:xlink="http://www.w3.org/1999/xlink" width="1024" height="1024"><defs><path id="a" d="M55.352 60.24V2.73H75.22v57.51c0 9.944-1.545 17.688-4.634 23.232-5.755 10.156-16.737 15.234-32.944 15.234-16.208 0-27.21-5.078-33.008-15.234C1.544 77.928 0 70.184 0 60.239V2.73h19.868v57.51c0 6.433.762 11.13 2.285 14.092 2.37 5.247 7.533 7.871 15.489 7.871 7.913 0 13.055-2.624 15.424-7.87 1.524-2.963 2.286-7.66 2.286-14.093"/><path id="b" d="M134.19 96.294H93.881V2.729h40.307c5.798.085 10.622.762 14.473 2.032 6.56 2.158 11.87 6.115 15.933 11.87 3.258 4.655 5.48 9.69 6.665 15.107 1.185 5.417 1.777 10.58 1.777 15.489 0 12.441-2.497 22.978-7.49 31.61-6.771 11.638-17.223 17.457-31.358 17.457m14.536-69.697c-3.005-5.078-8.95-7.618-17.837-7.618H112.86v61.065h18.028c9.225 0 15.657-4.55 19.297-13.648 1.988-4.993 2.983-10.939 2.983-17.836 0-9.522-1.481-16.843-4.443-21.963Z"/><path id="c" d="M186.24 2.73h19.424v93.564H186.24z"/><path id="d" d="M289.009 55.415h-45.45v24.058h51.797v16.82h-70.903V2.73h68.618v16.568H243.56v19.868h45.449z"/><path id="e" d="M386.255 96.294h-19.55l-38.214-66.46v66.46h-18.218V2.729h20.503l37.261 65.318V2.729h18.218z"/><path id="f" d="M470.488 89.312c-6.982 6.39-15.911 9.584-26.787 9.584-13.457 0-24.036-4.316-31.738-12.949-7.702-8.675-11.553-20.566-11.553-35.674 0-16.334 4.38-28.924 13.14-37.768C421.167 4.803 430.858.952 442.622.952c15.742 0 27.253 5.163 34.531 15.488 4.02 5.798 6.179 11.617 6.475 17.456h-19.55c-1.27-4.485-2.9-7.87-4.889-10.156-3.554-4.062-8.823-6.094-15.805-6.094-7.11 0-12.717 2.868-16.822 8.602-4.104 5.734-6.157 13.848-6.157 24.343s2.17 18.355 6.507 23.581c4.337 5.227 9.85 7.84 16.535 7.84 6.856 0 12.082-2.243 15.679-6.729 1.989-2.412 3.64-6.03 4.951-10.854h19.36c-1.692 10.198-6.009 18.493-12.949 24.883"/><path id="g" d="M563.481 55.415h-45.449v24.058h51.797v16.82h-70.903V2.73h68.618v16.568h-49.512v19.868h45.45z"/><path id="h" d="M619.023 82.773c4.613 0 8.358-.507 11.236-1.523 5.459-1.947 8.188-5.565 8.188-10.854 0-3.09-1.354-5.48-4.062-7.173-2.709-1.65-6.961-3.11-12.759-4.38l-9.902-2.222c-9.733-2.2-16.462-4.591-20.186-7.173-6.305-4.316-9.458-11.066-9.458-20.249 0-8.379 3.047-15.34 9.14-20.884C597.315 2.772 606.266 0 618.072 0c9.86 0 18.271 2.613 25.232 7.84 6.961 5.226 10.611 12.811 10.95 22.756h-18.79c-.338-5.629-2.792-9.628-7.362-11.997-3.047-1.566-6.835-2.349-11.363-2.349-5.036 0-9.056 1.016-12.06 3.047-3.005 2.031-4.507 4.866-4.507 8.506 0 3.343 1.481 5.84 4.443 7.49 1.905 1.1 5.967 2.39 12.188 3.872l16.123 3.872c7.067 1.693 12.399 3.957 15.996 6.792 5.586 4.401 8.379 10.77 8.379 19.107 0 8.548-3.27 15.647-9.807 21.296-6.538 5.65-15.774 8.474-27.708 8.474-12.187 0-21.772-2.782-28.755-8.347-6.982-5.565-10.473-13.214-10.473-22.947h18.662c.592 4.274 1.756 7.47 3.491 9.585 3.174 3.851 8.612 5.776 16.313 5.776"/><path id="i" d="M0 0h12.83v14.528h14.018V0h12.885v41.518H26.848V24.724H12.829v16.794H0z"/><path id="j" d="M48.428 0h19.06c3.756 0 6.791.51 9.104 1.53 2.313 1.019 4.225 2.482 5.735 4.389 1.51 1.907 2.606 4.125 3.285 6.655.68 2.53 1.02 5.211 1.02 8.043 0 4.437-.505 7.878-1.515 10.323-1.01 2.445-2.412 4.493-4.206 6.145-1.793 1.652-3.72 2.752-5.777 3.3-2.813.755-5.362 1.133-7.647 1.133h-19.06V0m12.829 9.402v22.685H64.4c2.681 0 4.588-.297 5.721-.892s2.02-1.633 2.662-3.115c.642-1.483.963-3.885.963-7.208 0-4.399-.717-7.41-2.152-9.034-1.435-1.624-3.814-2.436-7.137-2.436h-3.2"/></defs><g fill="none" fill-rule="evenodd"><path fill="#FFF" d="M0 0h1024v1024H0z"/><g fill-rule="nonzero"><g transform="translate(185.516 748.706)"><use xlink:href="#a" fill="#FFF"/><use xlink:href="#a" fill="#666"/></g><g transform="translate(185.516 748.706)"><use xlink:href="#b" fill="#FFF"/><use xlink:href="#b" fill="#666"/></g><g transform="translate(185.516 748.706)"><use xlink:href="#c" fill="#FFF"/><use xlink:href="#c" fill="#666"/></g><g transform="translate(185.516 748.706)"><use xlink:href="#d" fill="#FFF"/><use xlink:href="#d" fill="#666"/></g><g transform="translate(185.516 748.706)"><use xlink:href="#e" fill="#FFF"/><use xlink:href="#e" fill="#666"/></g><g transform="translate(185.516 748.706)"><use xlink:href="#f" fill="#FFF"/><use xlink:href="#f" fill="#666"/></g><g transform="translate(185.516 748.706)"><use xlink:href="#g" fill="#FFF"/><use xlink:href="#g" fill="#666"/></g><g transform="translate(185.516 748.706)"><use xlink:href="#h" fill="#FFF"/><use xlink:href="#h" fill="#666"/></g></g><g transform="translate(713 179)"><rect width="132" height="87" fill="#000" rx="8"/><g fill="#FFF" fill-rule="nonzero"><g transform="translate(24.09 25.482)"><use xlink:href="#i"/><use xlink:href="#i"/></g><g transform="translate(24.09 25.482)"><use xlink:href="#j"/><use xlink:href="#j"/></g></g></g><path fill="#000" d="m509 177 230.5 529h-102L615 652H404l-23 54H278z"/><path fill="#FFF" d="m509 266 174 404h-22.5L509 323 388.5 599l240.565-1 7.867 18.008L380 616.5 356 670h-21z"/><path fill="#000" d="m509 322 120 276H389z"/><path fill="#FFF" d="M509.5 413 576 563H443z"/></g></svg>