<svg xmlns="http://www.w3.org/2000/svg" width="1024" height="1024"><g fill="none" fill-rule="evenodd"><path fill="#FFF" d="M0 0h1024v1024H0z"/><g fill="#2A6ACB" transform="translate(125 210.556)"><path d="M0 200.444h97c16-51.333 43.333-93.666 82-127 72.49-64.043 136.926-69.656 160-72 85.333-8.666 173.333 21.667 264 91l-70 68c-54-31.333-93.667-49.333-119-54-29-7-94.28-10.143-146 23-51 33-75 68-86 111-4 12.667-5 35.667-3 69H0v-109M774 402h-97c-16 51.333-43.333 93.667-82 127-72.49 64.043-136.926 69.656-160 72-85.333 8.667-173.333-21.667-264-91l70-68c54 31.333 93.667 49.333 119 54 29 7 94.28 10.143 146-23 51-33 75-68 86-111 4-12.667 5-35.667 3-69h179v109"/><circle cx="391" cy="299.444" r="100"/></g></g></svg>