<svg xmlns="http://www.w3.org/2000/svg" width="1024" height="1024"><g fill="none" fill-rule="evenodd"><path fill="#FFF" d="M0 0h1024v1024H0z"/><g fill-rule="nonzero"><path fill="#B4CDE6" d="M475.347 749.085a40.959 40.959 0 0 1 73.265 0l107.814 215.607a40.959 40.959 0 0 1-36.638 59.277H404.181a40.959 40.959 0 0 1-36.638-59.278l107.804-215.606"/><path fill="#C9E4FF" d="M116.323 833.03h251.456l-136.536 190.94L0 1024V890z"/><path fill="#EEE" d="M338.657 717.147h113.344l-73.286 99.172H150.923zM0 853.069l283.64-136.536H0z"/><path fill="#CBFFCB" d="M907.636 833.03H656.211l136.515 190.94L1024 1024V890z"/><path fill="#EEE" d="M685.332 717.147H571.99l73.327 99.172h227.75zM1024 853.069 740.36 716.533H1024z"/><path fill="#ADBDCE" d="M481.266 757.737c0 7.317 5.855 14.078 15.36 17.736 9.504 3.658 21.214 3.658 30.718 0 9.505-3.658 15.36-10.42 15.36-17.736 0-11.31-13.754-20.48-30.72-20.48-16.965 0-30.718 9.17-30.718 20.48"/><path fill="#E3423A" d="M511.094 135.645c124.588-.068 225.74 100.686 226.164 225.273 0 174.075-218.106 232.984-218.106 390.675a7.27 7.27 0 1 1-14.335 0c0-157.69-218.107-216.6-218.107-390.675a224.516 224.516 0 0 1 224.384-225.273"/><path fill="#FFF" d="M465.906 255.992h35.839v215.034h-35.839zM522.224 337.91h122.877v133.116h-81.918a40.959 40.959 0 0 1-40.959-40.959V337.91"/><path fill="#FFF" d="M440.307 373.749c-14.138 0-25.6 11.461-25.6 25.599v10.24c0 14.138 11.462 25.599 25.6 25.599h25.599v-61.438h-25.6m0-35.84h61.439v133.117h-61.438c-33.932 0-61.438-27.507-61.438-61.438v-10.24c0-33.931 27.506-61.438 61.438-61.438"/><path fill="#E34040" d="M558.063 327.67h51.199v107.517h-46.079a5.12 5.12 0 0 1-5.12-5.12V327.67"/><path fill="#DB3A42" d="M389.108 962.531h122.877v61.438H389.108c-16.965 0-30.719-13.753-30.719-30.719 0-16.965 13.754-30.719 30.72-30.719"/><path fill="#407CEC" d="M511.985 962.531H634.86c16.966 0 30.719 13.754 30.719 30.72 0 16.965-13.753 30.718-30.719 30.718H511.985v-61.438"/></g></g></svg>