<svg xmlns="http://www.w3.org/2000/svg" width="1025" height="1024"><g fill="none" fill-rule="evenodd"><path fill="#FFF" d="M.061 0h1024v1024H.061z"/><g fill-rule="nonzero"><path fill="#06A7FF" d="M317.594 445.04a198.41 198.41 0 0 1-2.743-32.955C314.85 303.238 403.089 215 511.936 215c108.847 0 197.085 88.238 197.085 197.085a198.41 198.41 0 0 1-2.743 32.955c99.937.546 180.783 81.73 180.783 181.796 0 100.405-81.394 181.8-181.799 181.8-50.708 0-96.567-20.761-129.542-54.246l.002-.003c-17.327-17.637-17.232-45.98.286-63.5 17.615-17.614 46.174-17.614 63.789 0 .56.561 1.103 1.132 1.628 1.713 16.509 16.06 39.049 25.95 63.9 25.95 50.617 0 91.651-41.034 91.651-91.651 0-50.618-41.034-91.651-91.652-91.651-23.226 0-44.435 8.64-60.587 22.88l-.078-.077-1.524 1.524a91.837 91.837 0 0 0-5.135 5.134l-3.48 3.48.062.062-185.784 185.783-.024-.024c-33 33.708-79.014 54.626-129.914 54.626-100.405 0-181.799-81.395-181.799-181.8 0-99.982 80.71-181.114 180.533-181.795m1.33 273.51c50.616 0 91.65-41.034 91.65-91.651 0-50.618-41.033-91.651-91.65-91.651-50.619 0-91.653 41.033-91.653 91.65 0 50.618 41.034 91.652 91.652 91.652m193.012-199.59c59.025 0 106.875-47.85 106.875-106.875 0-59.024-47.85-106.874-106.875-106.874-59.026 0-106.875 47.85-106.875 106.875 0 59.024 47.85 106.874 106.875 106.874"/><path fill="#FF436A" d="M618.218 423.406a46.04 46.04 0 0 1-.285-5.119c0-25.153 20.39-45.544 45.544-45.544 25.153 0 45.544 20.39 45.544 45.544 0 1.932-.121 3.835-.354 5.704-6.155 103.302-91.882 185.178-196.731 185.178-104.85 0-190.576-81.875-196.731-185.178a46.058 46.058 0 0 1-.354-5.704c0-25.153 20.39-45.544 45.544-45.544 25.153 0 45.543 20.39 45.543 45.544 0 1.73-.097 3.439-.284 5.12 5.654 53.702 51.08 95.552 106.282 95.552 55.2 0 100.627-41.85 106.282-95.553"/></g></g></svg>