<?xml version="1.0" encoding="UTF-8"?>
<svg width="1025px" height="1024px" viewBox="0 0 1025 1024" version="1.1" xmlns="http://www.w3.org/2000/svg" xmlns:xlink="http://www.w3.org/1999/xlink">
    <title>Bandwagonhost</title>
    <defs>
        <linearGradient x1="50%" y1="0%" x2="50%" y2="100%" id="linearGradient-1">
            <stop stop-color="#472B15" offset="0%"></stop>
            <stop stop-color="#2A1A0C" offset="100%"></stop>
        </linearGradient>
        <linearGradient x1="50%" y1="-53.4960691%" x2="50%" y2="124.830996%" id="linearGradient-2">
            <stop stop-color="#FBDB0E" offset="0%"></stop>
            <stop stop-color="#F3A706" offset="100%"></stop>
        </linearGradient>
        <path d="M85.34,81.26 C85.5666667,82.96 85.68,84.66 85.68,86.36 C85.68,95.7666667 81.6566667,105.91 73.61,116.79 C67.15,125.516667 59.2166667,133.336667 49.81,140.25 C41.1966667,146.483333 35.36,149.373333 32.3,148.92 C28.9,148.466667 22.8933333,145.945 14.28,141.355 C5.66666667,136.765 1.02,133.62 0.34,131.92 C0.113333333,131.466667 1.8189894e-12,130.956667 1.8189894e-12,130.39 C1.8189894e-12,129.71 0.198333333,128.831667 0.595,127.755 C0.991666667,126.678333 1.19,125.856667 1.19,125.29 L1.19,15.13 C1.19,13.3166667 3.68333333,12.41 8.67,12.41 C10.9366667,12.41 12.92,12.6366667 14.62,13.09 C19.9466667,9.69 26.6616667,6.65833333 34.765,3.995 C42.8683333,1.33166667 49.81,0 55.59,0 C58.99,0 61.625,0.481666667 63.495,1.445 C65.365,2.40833333 67.0933333,4.08 68.68,6.46 C70.72,9.74666667 72.1366667,11.7866667 72.93,12.58 C73.1566667,12.8066667 75.0266667,14.3366667 78.54,17.17 C80.58,18.87 81.8833333,20.6833333 82.45,22.61 C82.9033333,23.97 83.13,25.4433333 83.13,27.03 C83.13,35.9833333 77.18,45.73 65.28,56.27 C77.4066667,65.45 84.0933333,73.78 85.34,81.26 Z M55.59,26.01 C55.3633333,25.5566667 54.74,25.33 53.72,25.33 C51.1133333,25.33 47.0333333,26.69 41.48,29.41 C35.9266667,32.13 32.1866667,34.7366667 30.26,37.23 L30.26,54.91 C37.5133333,49.13 43.775,43.2366667 49.045,37.23 C54.315,31.2233333 56.4966667,27.4833333 55.59,26.01 Z M61.71,76.33 C58.7633333,76.4433333 53.7766667,77.86 46.75,80.58 C39.1566667,83.64 33.66,86.6433333 30.26,89.59 L30.26,121.21 C37.6266667,119.17 44.88,112.936667 52.02,102.51 C59.16,92.0833333 62.39,83.3566667 61.71,76.33 Z" id="path-3"></path>
        <linearGradient x1="50%" y1="-53.4960691%" x2="50%" y2="124.830996%" id="linearGradient-4">
            <stop stop-color="#FBDB0E" offset="0%"></stop>
            <stop stop-color="#F3A706" offset="100%"></stop>
        </linearGradient>
        <path d="M171.87,139.91 C171.756667,141.496667 171.076667,142.856667 169.83,143.99 C168.583333,145.123333 167.166667,145.576667 165.58,145.35 C151.526667,143.423333 143.706667,140.76 142.12,137.36 C141.893333,136.906667 141.78,136.453333 141.78,136 C141.78,135.433333 142.035,134.81 142.545,134.13 C143.055,133.45 143.366667,132.855 143.48,132.345 C143.593333,131.835 143.82,131.353333 144.16,130.9 C144.386667,129.993333 144.443333,128.01 144.33,124.95 C142.97,125.97 140.93,128.69 138.21,133.11 C135.376667,137.983333 132.883333,141.383333 130.73,143.31 C127.103333,146.71 122.966667,148.41 118.32,148.41 C115.6,148.41 112.936667,147.333333 110.33,145.18 C109.083333,144.16 106.873333,141.95 103.7,138.55 C98.26,132.43 95.3133333,129.086667 94.86,128.52 C92.48,125.346667 91.29,122.343333 91.29,119.51 C91.29,118.603333 91.4033333,117.696667 91.63,116.79 C93.7833333,106.816667 100.47,97.3533333 111.69,88.4 C119.85,81.94 131.41,75.0833333 146.37,67.83 C146.37,64.2033333 145.463333,61.88 143.65,60.86 C142.516667,60.18 138.55,61.455 131.75,64.685 C124.95,67.915 120.19,70.6633333 117.47,72.93 C116.563333,73.8366667 115.09,75.0833333 113.05,76.67 C111.123333,77.8033333 109.366667,78.1433333 107.78,77.69 C106.533333,77.35 103.87,75.31 99.79,71.57 C95.71,67.83 93.5,65.3366667 93.16,64.09 C92.2533333,61.03 93.2166667,58.65 96.05,56.95 C96.1633333,56.8366667 98.43,56.1566667 102.85,54.91 C107.043333,52.6433333 111.236667,50.3766667 115.43,48.11 C124.27,43.9166667 131.75,41.65 137.87,41.31 C140.476667,41.1966667 143.423333,42.5566667 146.71,45.39 C149.656667,47.9966667 152.631667,50.575 155.635,53.125 C158.638333,55.675 161.726667,58.14 164.9,60.52 C168.526667,63.6933333 170.34,66.7533333 170.34,69.7 L170.34,133.96 C171.473333,136.906667 171.983333,138.89 171.87,139.91 Z M144.67,90.27 C139.116667,92.4233333 134.356667,95.71 130.39,100.13 C127.443333,103.756667 124.496667,107.326667 121.55,110.84 C119.17,113.22 116.931667,116.308333 114.835,120.105 C112.738333,123.901667 111.69,126.706667 111.69,128.52 C111.69,129.426667 112.03,129.88 112.71,129.88 C115.09,129.88 120.416667,124.751667 128.69,114.495 C136.963333,104.238333 142.29,96.1633333 144.67,90.27 Z" id="path-5"></path>
        <linearGradient x1="50%" y1="-53.4960691%" x2="50%" y2="124.830996%" id="linearGradient-6">
            <stop stop-color="#FBDB0E" offset="0%"></stop>
            <stop stop-color="#F3A706" offset="100%"></stop>
        </linearGradient>
        <path d="M265.71,132.77 C266.616667,134.923333 267.07,137.076667 267.07,139.23 C267.07,142.63 265.766667,144.953333 263.16,146.2 C262.366667,146.54 260.95,146.71 258.91,146.71 C255.056667,146.71 250.466667,146.115 245.14,144.925 C239.813333,143.735 236.583333,142.573333 235.45,141.44 C234.883333,140.76 234.6,140.023333 234.6,139.23 C234.6,137.983333 235.45,135.971667 237.15,133.195 C238.85,130.418333 239.7,128.406667 239.7,127.16 C239.926667,82.5066667 239.586667,60.01 238.68,59.67 C237.093333,59.1033333 233.183333,64.2033333 226.95,74.97 C220.376667,86.3033333 217.09,94.86 217.09,100.64 L217.09,132.43 C218.563333,133.903333 219.3,135.716667 219.3,137.87 C219.3,142.176667 217.373333,145.123333 213.52,146.71 C213.066667,146.936667 212.386667,147.05 211.48,147.05 C208.42,147.05 203.943333,146.341667 198.05,144.925 C192.156667,143.508333 188.87,142.346667 188.19,141.44 C187.51,140.533333 187.17,139.513333 187.17,138.38 C187.17,137.246667 187.821667,135.886667 189.125,134.3 C190.428333,132.713333 191.08,131.693333 191.08,131.24 L191.08,52.19 C191.08,51.2833333 190.626667,50.0933333 189.72,48.62 C188.813333,47.1466667 188.53,45.9 188.87,44.88 C189.55,42.5 191.306667,40.97 194.14,40.29 C195.953333,39.8366667 200.203333,40.46 206.89,42.16 C214.143333,43.9733333 218.11,45.8433333 218.79,47.77 C219.243333,49.0166667 219.073333,50.8866667 218.28,53.38 C217.033333,57.3466667 216.41,59.6133333 216.41,60.18 C216.41,61.4266667 216.636667,62.7866667 217.09,64.26 C218.79,58.5933333 221.17,53.55 224.23,49.13 C227.97,43.8033333 231.71,41.14 235.45,41.14 C239.303333,41.14 244.29,42.4716667 250.41,45.135 C256.53,47.7983333 260.043333,50.2066667 260.95,52.36 C264.123333,59.6133333 265.71,86.4166667 265.71,132.77 Z" id="path-7"></path>
        <linearGradient x1="50%" y1="-53.4960691%" x2="50%" y2="124.830996%" id="linearGradient-8">
            <stop stop-color="#FBDB0E" offset="0%"></stop>
            <stop stop-color="#F3A706" offset="100%"></stop>
        </linearGradient>
        <path d="M360.91,12.92 C361.136667,14.0533333 360.711667,16.2633333 359.635,19.55 C358.558333,22.8366667 358.02,24.7066667 358.02,25.16 L358.02,136 C358.02,139.74 358.303333,142.063333 358.87,142.97 C360.57,145.916667 361.08,147.9 360.4,148.92 C359.833333,149.826667 358.36,150.28 355.98,150.28 C353.373333,150.28 349.406667,149.77 344.08,148.75 C338.073333,147.503333 334.9,146.88 334.56,146.88 C332.52,146.653333 331.046667,145.293333 330.14,142.8 C330.026667,142.573333 329.97,141.836667 329.97,140.59 C329.97,135.943333 330.593333,129.03 331.84,119.85 C329.12,125.29 326.456667,130.73 323.85,136.17 C320.11,142.856667 316.766667,145.916667 313.82,145.35 C291.493333,140.816667 280.33,127.103333 280.33,104.21 C280.33,91.1766667 283.9,77.9166667 291.04,64.43 C297.953333,51.3966667 305.546667,42.8966667 313.82,38.93 C314.953333,38.3633333 316.03,38.08 317.05,38.08 C319.883333,38.08 324.813333,41.5933333 331.84,48.62 L331.84,15.64 C331.726667,14.7333333 331.216667,13.1183333 330.31,10.795 C329.403333,8.47166667 328.95,6.74333333 328.95,5.61 C328.95,3.23 330.536667,2.04 333.71,2.04 C336.543333,2.04 340.623333,2.83333333 345.95,4.42 C349.35,5.55333333 352.693333,6.63 355.98,7.65 C358.813333,8.44333333 360.456667,10.2 360.91,12.92 Z M331.33,56.78 C324.983333,59.6133333 319.231667,65.8466667 314.075,75.48 C308.918333,85.1133333 306.34,94.0666667 306.34,102.34 C306.34,111.973333 310.08,117.243333 317.56,118.15 C321.526667,118.603333 326.116667,98.1466667 331.33,56.78 Z" id="path-9"></path>
        <linearGradient x1="50%" y1="-53.4960691%" x2="50%" y2="124.830996%" id="linearGradient-10">
            <stop stop-color="#FBDB0E" offset="0%"></stop>
            <stop stop-color="#F3A706" offset="100%"></stop>
        </linearGradient>
        <path d="M488.58,53.89 C483.253333,68.17 477.926667,85.7933333 472.6,106.76 C467.726667,125.233333 465.403333,135.773333 465.63,138.38 C465.63,140.533333 465.63,142.63 465.63,144.67 C465.516667,147.616667 464.496667,149.26 462.57,149.6 C460.983333,149.826667 456.11,148.92 447.95,146.88 C439.45,144.726667 434.916667,142.97 434.35,141.61 C434.123333,141.043333 434.01,138.436667 434.01,133.79 C430.95,124.496667 428.513333,110.386667 426.7,91.46 C426.133333,94.6333333 424.206667,102.906667 420.92,116.28 C418.426667,126.253333 417.18,132.713333 417.18,135.66 C417.066667,138.04 416.953333,140.363333 416.84,142.63 C416.613333,145.803333 415.536667,147.673333 413.61,148.24 C413.156667,148.353333 412.42,148.41 411.4,148.41 C407.32,148.41 402.786667,147.616667 397.8,146.03 C391.906667,144.216667 388.393333,142.006667 387.26,139.4 C386.92,138.72 386.835,137.756667 387.005,136.51 C387.175,135.263333 387.09,133.733333 386.75,131.92 C384.37,119.34 381.99,106.816667 379.61,94.35 C377.23,81.3166667 375.36,68.17 374,54.91 C373.66,51.2833333 373.49,49.2433333 373.49,48.79 C373.49,44.1433333 374.963333,41.8766667 377.91,41.99 C380.403333,42.1033333 384.483333,43.2933333 390.15,45.56 C396.27,48.0533333 399.5,50.0366667 399.84,51.51 C400.066667,52.3033333 399.953333,54.74 399.5,58.82 C400.18,67.5466667 401.936667,82.96 404.77,105.06 L416.5,49.13 C417.406667,45.05 419.163333,42.7266667 421.77,42.16 C422.676667,42.0466667 426.105,43.435 432.055,46.325 C438.005,49.215 440.98,51.17 440.98,52.19 C441.546667,62.8433333 444.04,80.4666667 448.46,105.06 C455.146667,72.42 459.623333,53.4933333 461.89,48.28 C462.796667,43.9733333 465.063333,42.1033333 468.69,42.67 C471.41,43.01 474.98,44.2566667 479.4,46.41 C484.726667,48.9033333 487.786667,51.3966667 488.58,53.89 Z" id="path-11"></path>
        <path d="M578.68,139.91 C578.566667,141.496667 577.886667,142.856667 576.64,143.99 C575.393333,145.123333 573.976667,145.576667 572.39,145.35 C558.336667,143.423333 550.516667,140.76 548.93,137.36 C548.703333,136.906667 548.59,136.453333 548.59,136 C548.59,135.433333 548.845,134.81 549.355,134.13 C549.865,133.45 550.176667,132.855 550.29,132.345 C550.403333,131.835 550.63,131.353333 550.97,130.9 C551.196667,129.993333 551.253333,128.01 551.14,124.95 C549.78,125.97 547.74,128.69 545.02,133.11 C542.186667,137.983333 539.693333,141.383333 537.54,143.31 C533.913333,146.71 529.776667,148.41 525.13,148.41 C522.41,148.41 519.746667,147.333333 517.14,145.18 C515.893333,144.16 513.683333,141.95 510.51,138.55 C505.07,132.43 502.123333,129.086667 501.67,128.52 C499.29,125.346667 498.1,122.343333 498.1,119.51 C498.1,118.603333 498.213333,117.696667 498.44,116.79 C500.593333,106.816667 507.28,97.3533333 518.5,88.4 C526.66,81.94 538.22,75.0833333 553.18,67.83 C553.18,64.2033333 552.273333,61.88 550.46,60.86 C549.326667,60.18 545.36,61.455 538.56,64.685 C531.76,67.915 527,70.6633333 524.28,72.93 C523.373333,73.8366667 521.9,75.0833333 519.86,76.67 C517.933333,77.8033333 516.176667,78.1433333 514.59,77.69 C513.343333,77.35 510.68,75.31 506.6,71.57 C502.52,67.83 500.31,65.3366667 499.97,64.09 C499.063333,61.03 500.026667,58.65 502.86,56.95 C502.973333,56.8366667 505.24,56.1566667 509.66,54.91 C513.853333,52.6433333 518.046667,50.3766667 522.24,48.11 C531.08,43.9166667 538.56,41.65 544.68,41.31 C547.286667,41.1966667 550.233333,42.5566667 553.52,45.39 C556.466667,47.9966667 559.441667,50.575 562.445,53.125 C565.448333,55.675 568.536667,58.14 571.71,60.52 C575.336667,63.6933333 577.15,66.7533333 577.15,69.7 L577.15,133.96 C578.283333,136.906667 578.793333,138.89 578.68,139.91 Z M551.48,90.27 C545.926667,92.4233333 541.166667,95.71 537.2,100.13 C534.253333,103.756667 531.306667,107.326667 528.36,110.84 C525.98,113.22 523.741667,116.308333 521.645,120.105 C519.548333,123.901667 518.5,126.706667 518.5,128.52 C518.5,129.426667 518.84,129.88 519.52,129.88 C521.9,129.88 527.226667,124.751667 535.5,114.495 C543.773333,104.238333 549.1,96.1633333 551.48,90.27 Z" id="path-12"></path>
        <linearGradient x1="50%" y1="-53.4960691%" x2="50%" y2="124.830996%" id="linearGradient-13">
            <stop stop-color="#FBDB0E" offset="0%"></stop>
            <stop stop-color="#F3A706" offset="100%"></stop>
        </linearGradient>
        <path d="M664.87,53.72 C664.87,53.8333333 664.246667,54.9666667 663,57.12 C662.206667,58.7066667 661.81,59.9533333 661.81,60.86 L661.81,135.32 C661.81,154.133333 654.84,166.203333 640.9,171.53 C634.44,174.023333 628.546667,175.27 623.22,175.27 C615.513333,175.27 608.826667,172.663333 603.16,167.45 C601.573333,166.09 598.853333,163.143333 595,158.61 C594.773333,158.383333 593.696667,157.306667 591.77,155.38 C590.636667,154.133333 590.013333,152.83 589.9,151.47 C589.786667,149.77 591.486667,148.41 595,147.39 C595.453333,147.276667 596.133333,147.22 597.04,147.22 C599.533333,147.22 602.508333,147.73 605.965,148.75 C609.421667,149.77 611.886667,151.016667 613.36,152.49 C615.173333,154.756667 617.043333,157.08 618.97,159.46 C620.896667,161.84 623.163333,163.143333 625.77,163.37 C630.416667,163.823333 633.42,160.65 634.78,153.85 C635.46,150.563333 635.8,144.726667 635.8,136.34 C635.46,136.793333 634.383333,138.266667 632.57,140.76 C631.21,142.573333 630.02,143.876667 629,144.67 C627.753333,145.803333 626.45,146.37 625.09,146.37 C619.083333,146.37 614.04,144.726667 609.96,141.44 C597.833333,131.24 591.77,116.223333 591.77,96.39 C591.77,83.81 594.433333,72.5333333 599.76,62.56 C605.313333,51.9066667 612.566667,45.22 621.52,42.5 C622.2,42.2733333 622.823333,42.16 623.39,42.16 C625.203333,42.16 627.243333,43.01 629.51,44.71 C631.436667,46.1833333 633.363333,47.7133333 635.29,49.3 C635.97,47.3733333 636.678333,45.475 637.415,43.605 C638.151667,41.735 639.313333,40.6866667 640.9,40.46 C643.28,40.12 647.501667,40.885 653.565,42.755 C659.628333,44.625 663.056667,46.24 663.85,47.6 C665.21,49.8666667 665.55,51.9066667 664.87,53.72 Z M634.78,95.54 C635.686667,87.72 636.14,81.3166667 636.14,76.33 C636.14,67.15 634.666667,61.9933333 631.72,60.86 C629.34,59.9533333 626.45,63.9766667 623.05,72.93 C619.65,81.8833333 617.95,90.0433333 617.95,97.41 C617.95,110.783333 619.48,121.38 622.54,129.2 C629.34,118.66 633.42,107.44 634.78,95.54 Z" id="path-14"></path>
        <linearGradient x1="50%" y1="-53.4960691%" x2="50%" y2="124.830996%" id="linearGradient-15">
            <stop stop-color="#FBDB0E" offset="0%"></stop>
            <stop stop-color="#F3A706" offset="100%"></stop>
        </linearGradient>
        <path d="M735.42,46.24 C741.653333,49.1866667 746.47,55.1366667 749.87,64.09 C752.93,72.25 754.46,81.8833333 754.46,92.99 C754.46,108.29 751.853333,121.55 746.64,132.77 C740.86,144.783333 733.663333,150.223333 725.05,149.09 C721.876667,148.296667 717.116667,147.333333 710.77,146.2 C706.123333,145.633333 701.93,144.783333 698.19,143.65 C691.73,141.95 686.573333,136.453333 682.72,127.16 C679.206667,118.546667 677.45,108.46 677.45,96.9 C677.45,85.2266667 679.263333,74.63 682.89,65.11 C686.97,54.6833333 692.693333,47.3733333 700.06,43.18 C701.306667,42.5 703.006667,42.16 705.16,42.16 C707.426667,42.16 711.903333,42.8966667 718.59,44.37 C722.896667,44.37 728.506667,44.9933333 735.42,46.24 Z M716.38,61.54 C713.32,61.54 710.486667,65.2516667 707.88,72.675 C705.273333,80.0983333 703.97,87.21 703.97,94.01 C703.97,102.17 704.933333,110.216667 706.86,118.15 C709.013333,126.763333 711.506667,131.41 714.34,132.09 C717.966667,132.883333 721.196667,128.803333 724.03,119.85 C726.75,111.236667 728.11,101.716667 728.11,91.29 C728.11,85.51 727.373333,79.7866667 725.9,74.12 C723.86,65.7333333 720.686667,61.54 716.38,61.54 Z" id="path-16"></path>
        <path d="M845.07,132.77 C845.976667,134.923333 846.43,137.076667 846.43,139.23 C846.43,142.63 845.126667,144.953333 842.52,146.2 C841.726667,146.54 840.31,146.71 838.27,146.71 C834.416667,146.71 829.826667,146.115 824.5,144.925 C819.173333,143.735 815.943333,142.573333 814.81,141.44 C814.243333,140.76 813.96,140.023333 813.96,139.23 C813.96,137.983333 814.81,135.971667 816.51,133.195 C818.21,130.418333 819.06,128.406667 819.06,127.16 C819.286667,82.5066667 818.946667,60.01 818.04,59.67 C816.453333,59.1033333 812.543333,64.2033333 806.31,74.97 C799.736667,86.3033333 796.45,94.86 796.45,100.64 L796.45,132.43 C797.923333,133.903333 798.66,135.716667 798.66,137.87 C798.66,142.176667 796.733333,145.123333 792.88,146.71 C792.426667,146.936667 791.746667,147.05 790.84,147.05 C787.78,147.05 783.303333,146.341667 777.41,144.925 C771.516667,143.508333 768.23,142.346667 767.55,141.44 C766.87,140.533333 766.53,139.513333 766.53,138.38 C766.53,137.246667 767.181667,135.886667 768.485,134.3 C769.788333,132.713333 770.44,131.693333 770.44,131.24 L770.44,52.19 C770.44,51.2833333 769.986667,50.0933333 769.08,48.62 C768.173333,47.1466667 767.89,45.9 768.23,44.88 C768.91,42.5 770.666667,40.97 773.5,40.29 C775.313333,39.8366667 779.563333,40.46 786.25,42.16 C793.503333,43.9733333 797.47,45.8433333 798.15,47.77 C798.603333,49.0166667 798.433333,50.8866667 797.64,53.38 C796.393333,57.3466667 795.77,59.6133333 795.77,60.18 C795.77,61.4266667 795.996667,62.7866667 796.45,64.26 C798.15,58.5933333 800.53,53.55 803.59,49.13 C807.33,43.8033333 811.07,41.14 814.81,41.14 C818.663333,41.14 823.65,42.4716667 829.77,45.135 C835.89,47.7983333 839.403333,50.2066667 840.31,52.36 C843.483333,59.6133333 845.07,86.4166667 845.07,132.77 Z" id="path-17"></path>
        <radialGradient cx="50%" cy="32.5981954%" fx="50%" fy="32.5981954%" r="83.6513412%" gradientTransform="translate(0.5, 0.326), scale(1, 0.6468), translate(-0.5, -0.326)" id="radialGradient-18">
            <stop stop-color="#FFFFFF" offset="0%"></stop>
            <stop stop-color="#717372" offset="100%"></stop>
        </radialGradient>
        <path d="M124.135,99.9777778 C123.988333,102.031111 122.265,104.561111 118.965,107.567778 C115.665,110.574444 113.281667,112.077778 111.815,112.077778 C109.761667,112.077778 108.515,112.151111 108.075,112.297778 L108.075,167.737778 C108.075,167.297778 108.808333,170.011111 110.275,175.877778 C111.595,185.264444 110.495,190.764444 106.975,192.377778 C106.241667,192.671111 105.141667,192.817778 103.675,192.817778 C98.5416667,192.817778 91.9416667,190.984444 83.875,187.317778 C75.2216667,183.504444 69.9416667,179.691111 68.035,175.877778 C67.8883333,174.557778 67.6683333,172.577778 67.375,169.937778 C67.0816667,168.911111 67.595,167.517778 68.915,165.757778 C70.235,163.997778 70.895,162.897778 70.895,162.457778 L70.895,118.017778 C68.1083333,118.311111 62.6083333,119.411111 54.395,121.317778 C46.1816667,123.224444 40.755,124.691111 38.115,125.717778 L38.115,170.377778 C38.115,171.404444 38.5916667,172.614444 39.545,174.007778 C40.4983333,175.401111 41.0483333,176.464444 41.195,177.197778 C40.6083333,179.544444 40.095,181.817778 39.655,184.017778 C39.215,185.631111 38.4083333,186.657778 37.235,187.097778 C34.8883333,187.977778 28.325,186.621111 17.545,183.027778 C6.765,179.434444 1.08166667,176.537778 0.495,174.337778 C0.055,172.724444 -0.0916666667,170.964444 0.055,169.057778 C0.495,166.124444 0.715,164.071111 0.715,162.897778 L0.715,22.0977778 C0.715,19.7511111 1.375,15.7177778 2.695,9.99777778 C2.98833333,8.53111111 5.48166667,6.47777778 10.175,3.83777778 C10.4683333,3.69111111 11.275,3.61777778 12.595,3.61777778 C18.0216667,3.61777778 23.7416667,4.49777778 29.755,6.25777778 C37.5283333,8.60444444 41.635,11.6844444 42.075,15.4977778 C42.2216667,16.8177778 41.5983333,19.3111111 40.205,22.9777778 C38.8116667,26.6444444 38.115,29.1377778 38.115,30.4577778 L38.115,84.1377778 C48.0883333,81.6444444 59.015,79.0777778 70.895,76.4377778 C70.895,35.8111111 70.895,15.3511111 70.895,15.0577778 C70.895,14.7644444 70.565,13.6644444 69.905,11.7577778 C69.245,9.85111111 69.0616667,8.31111111 69.355,7.13777778 C70.0883333,4.49777778 72.5083333,2.81111111 76.615,2.07777778 C79.695,1.63777778 82.775,1.27111111 85.855,0.977777778 C89.0816667,0.537777778 93.8116667,1.49111111 100.045,3.83777778 C106.278333,6.18444444 109.761667,8.67777778 110.495,11.3177778 C110.788333,12.4911111 110.495,14.0311111 109.615,15.9377778 C108.588333,18.4311111 108.075,20.4844444 108.075,22.0977778 L108.075,82.8177778 C108.808333,83.6977778 112.255,86.8511111 118.415,92.2777778 C122.375,95.7977778 124.281667,98.3644444 124.135,99.9777778 Z" id="path-19"></path>
        <radialGradient cx="50%" cy="32.5981954%" fx="50%" fy="32.5981954%" r="83.6513412%" gradientTransform="translate(0.5, 0.326), scale(1, 0.6648), translate(-0.5, -0.326)" id="radialGradient-20">
            <stop stop-color="#FFFFFF" offset="0%"></stop>
            <stop stop-color="#717372" offset="100%"></stop>
        </radialGradient>
        <path d="M217.855,189.737778 C214.775,190.031111 211.328333,189.627778 207.515,188.527778 C203.701667,187.427778 199.961667,186.291111 196.295,185.117778 C191.895,183.944444 185.001667,181.817778 175.615,178.737778 C163.881667,173.604444 155.008333,163.484444 148.995,148.377778 C143.715,135.031111 141.075,118.897778 141.075,99.9777778 C141.075,84.5777778 143.715,66.6111111 148.995,46.0777778 C156.181667,18.5044444 165.495,4.71777778 176.935,4.71777778 C177.961667,4.71777778 179.391667,4.97444444 181.225,5.48777778 C183.058333,6.00111111 184.488333,6.33111111 185.515,6.47777778 C196.368333,3.39777778 203.335,1.85777778 206.415,1.85777778 C207.881667,1.85777778 209.348333,1.93111111 210.815,2.07777778 C228.415,4.27777778 242.275,15.2777778 252.395,35.0777778 C261.488333,52.9711111 266.035,74.3111111 266.035,99.0977778 C266.035,122.564444 261.928333,142.731111 253.715,159.597778 C244.915,177.931111 232.961667,187.977778 217.855,189.737778 Z M213.895,28.4777778 C210.668333,27.5977778 207.478333,31.9244444 204.325,41.4577778 C201.171667,50.9911111 197.981667,55.7577778 194.755,55.7577778 C194.021667,55.7577778 192.958333,55.3544444 191.565,54.5477778 C190.171667,53.7411111 189.035,53.2644444 188.155,53.1177778 C183.168333,64.1177778 180.675,79.8111111 180.675,100.197778 C180.675,116.184444 182.361667,129.897778 185.735,141.337778 C189.548333,154.097778 194.828333,161.137778 201.575,162.457778 C209.495,163.924444 215.875,155.784444 220.715,138.037778 C224.968333,122.491111 227.095,104.011111 227.095,82.5977778 C227.095,68.0777778 225.995,55.9044444 223.795,46.0777778 C221.448333,35.5177778 218.148333,29.6511111 213.895,28.4777778 Z" id="path-21"></path>
        <radialGradient cx="50%" cy="32.5981954%" fx="50%" fy="32.5981954%" r="83.6513412%" gradientTransform="translate(0.5, 0.326), scale(1, 0.5406), translate(-0.5, -0.326)" id="radialGradient-22">
            <stop stop-color="#FFFFFF" offset="0%"></stop>
            <stop stop-color="#717372" offset="100%"></stop>
        </radialGradient>
        <path d="M380.875,153.217778 C380.875,164.071111 377.281667,172.981111 370.095,179.947778 C362.908333,186.914444 352.935,190.544444 340.175,190.837778 C336.948333,190.837778 333.501667,190.324444 329.835,189.297778 C323.088333,187.391111 319.568333,186.437778 319.275,186.437778 C315.755,185.704444 312.198333,184.934444 308.605,184.127778 C305.011667,183.321111 301.895,181.671111 299.255,179.177778 C295.295,175.657778 292.068333,169.937778 289.575,162.017778 C286.495,152.777778 284.148333,146.984444 282.535,144.637778 C281.361667,143.464444 279.968333,141.411111 278.355,138.477778 C277.915,136.277778 278.318333,134.114444 279.565,131.987778 C280.811667,129.861111 282.315,128.504444 284.075,127.917778 C284.955,127.624444 286.568333,127.477778 288.915,127.477778 C294.048333,127.477778 300.318333,128.101111 307.725,129.347778 C315.131667,130.594444 319.275,131.731111 320.155,132.757778 C321.035,133.784444 322.208333,139.064444 323.675,148.597778 C324.995,157.397778 326.975,162.311111 329.615,163.337778 C330.201667,163.631111 330.861667,163.777778 331.595,163.777778 C334.381667,163.777778 336.765,161.467778 338.745,156.847778 C340.725,152.227778 341.715,146.984444 341.715,141.117778 C341.715,128.357778 337.755,119.851111 329.835,115.597778 C311.648333,105.771111 298.888333,96.6777778 291.555,88.3177778 C283.048333,78.6377778 279.235,67.1977778 280.115,53.9977778 C280.848333,42.9977778 284.845,31.8877778 292.105,20.6677778 C299.365,9.44777778 307.028333,2.88444444 315.095,0.977777778 C318.468333,0.244444444 328.735,3.47111111 345.895,10.6577778 C350.148333,12.2711111 354.438333,13.9577778 358.765,15.7177778 C363.091667,17.4777778 366.575,20.0444444 369.215,23.4177778 C373.321667,28.5511111 375.375,37.4244444 375.375,50.0377778 C375.375,52.3844444 375.301667,55.8311111 375.155,60.3777778 C375.008333,64.3377778 374.935,67.1244444 374.935,68.7377778 C375.081667,69.7644444 375.595,71.4511111 376.475,73.7977778 C377.208333,75.4111111 377.501667,77.0244444 377.355,78.6377778 C377.061667,85.0911111 374.348333,88.6844444 369.215,89.4177778 C366.281667,89.8577778 360.855,88.7577778 352.935,86.1177778 C344.135,83.3311111 338.561667,80.3244444 336.215,77.0977778 C335.921667,76.6577778 335.775,75.1911111 335.775,72.6977778 C335.775,70.4977778 336.031667,65.5111111 336.545,57.7377778 C337.058333,49.9644444 337.315,44.3177778 337.315,40.7977778 C337.315,34.4911111 336.581667,31.4111111 335.115,31.5577778 C330.568333,31.8511111 326.791667,35.1144444 323.785,41.3477778 C320.778333,47.5811111 319.275,54.6577778 319.275,62.5777778 C319.275,75.7777778 323.161667,85.1644444 330.935,90.7377778 C339.735,96.3111111 348.535,101.884444 357.335,107.457778 C365.695,112.884444 371.488333,118.311111 374.715,123.737778 C378.821667,130.777778 380.875,140.604444 380.875,153.217778 Z" id="path-23"></path>
        <radialGradient cx="50%" cy="32.5981954%" fx="50%" fy="32.5981954%" r="83.6513412%" gradientTransform="translate(0.5, 0.326), scale(1, 0.6558), translate(-0.5, -0.326)" id="radialGradient-24">
            <stop stop-color="#FFFFFF" offset="0%"></stop>
            <stop stop-color="#717372" offset="100%"></stop>
        </radialGradient>
        <path d="M502.095,39.9177778 C500.921667,39.9177778 499.308333,39.4411111 497.255,38.4877778 C495.201667,37.5344444 493.515,37.2044444 492.195,37.4977778 L469.535,43.6577778 L469.535,159.377778 C469.535,163.631111 470.561667,168.251111 472.615,173.237778 C473.201667,174.704444 473.055,177.491111 472.175,181.597778 C471.295,186.144444 469.901667,189.004444 467.995,190.177778 C467.701667,190.324444 466.968333,190.397778 465.795,190.397778 C460.955,190.397778 454.208333,189.444444 445.555,187.537778 C435.875,185.337778 430.155,183.211111 428.395,181.157778 C426.341667,178.517778 426.415,174.997778 428.615,170.597778 C430.521667,166.784444 431.475,163.997778 431.475,162.237778 L431.475,53.3377778 L415.855,57.2977778 C415.121667,57.4444444 413.911667,58.0677778 412.225,59.1677778 C410.538333,60.2677778 409.108333,60.6711111 407.935,60.3777778 C404.561667,59.4977778 399.941667,55.1344444 394.075,47.2877778 C388.208333,39.4411111 385.641667,34.1244444 386.375,31.3377778 C387.548333,27.9644444 390.995,25.3977778 396.715,23.6377778 C398.181667,23.1977778 400.088333,23.1244444 402.435,23.4177778 C404.781667,23.7111111 406.615,23.7111111 407.935,23.4177778 L484.495,3.83777778 C485.228333,3.69111111 487.355,2.81111111 490.875,1.19777778 C493.221667,0.171111111 495.348333,-0.195555556 497.255,0.0977777778 C501.361667,0.684444444 504.148333,2.29777778 505.615,4.93777778 C506.641667,6.69777778 507.741667,9.99777778 508.915,14.8377778 C510.381667,20.5577778 511.115,25.5444444 511.115,29.7977778 C511.115,33.0244444 510.711667,35.4811111 509.905,37.1677778 C509.098333,38.8544444 506.495,39.7711111 502.095,39.9177778 Z" id="path-25"></path>
    </defs>
    <g id="ICON-新版方图标" stroke="none" stroke-width="1" fill="none" fill-rule="evenodd">
        <g id="Bandwagonhost" transform="translate(0.6332, 0)">
            <rect id="蒙版" fill="url(#linearGradient-1)" x="0" y="0" width="1024" height="1024"></rect>
            <g id="Bandwagon" transform="translate(89.21, 271.54)" fill-rule="nonzero">
                <g id="形状">
                    <use fill="#FFFFFF" xlink:href="#path-3"></use>
                    <use fill="url(#linearGradient-2)" xlink:href="#path-3"></use>
                </g>
                <g id="形状">
                    <use fill="#FFFFFF" xlink:href="#path-5"></use>
                    <use fill="url(#linearGradient-4)" xlink:href="#path-5"></use>
                </g>
                <g id="路径">
                    <use fill="#FFFFFF" xlink:href="#path-7"></use>
                    <use fill="url(#linearGradient-6)" xlink:href="#path-7"></use>
                </g>
                <g id="形状">
                    <use fill="#FFFFFF" xlink:href="#path-9"></use>
                    <use fill="url(#linearGradient-8)" xlink:href="#path-9"></use>
                </g>
                <g id="路径">
                    <use fill="#FFFFFF" xlink:href="#path-11"></use>
                    <use fill="url(#linearGradient-10)" xlink:href="#path-11"></use>
                </g>
                <g id="形状">
                    <use fill="#FFFFFF" xlink:href="#path-12"></use>
                    <use fill="url(#linearGradient-4)" xlink:href="#path-12"></use>
                </g>
                <g id="形状">
                    <use fill="#FFFFFF" xlink:href="#path-14"></use>
                    <use fill="url(#linearGradient-13)" xlink:href="#path-14"></use>
                </g>
                <g id="形状">
                    <use fill="#FFFFFF" xlink:href="#path-16"></use>
                    <use fill="url(#linearGradient-15)" xlink:href="#path-16"></use>
                </g>
                <g id="路径">
                    <use fill="#FFFFFF" xlink:href="#path-17"></use>
                    <use fill="url(#linearGradient-6)" xlink:href="#path-17"></use>
                </g>
            </g>
            <g id="HOST" transform="translate(259.385, 594.3622)" fill-rule="nonzero">
                <g id="路径">
                    <use fill="#FFFFFF" xlink:href="#path-19"></use>
                    <use fill="url(#radialGradient-18)" xlink:href="#path-19"></use>
                </g>
                <g id="形状">
                    <use fill="#FFFFFF" xlink:href="#path-21"></use>
                    <use fill="url(#radialGradient-20)" xlink:href="#path-21"></use>
                </g>
                <g id="路径">
                    <use fill="#FFFFFF" xlink:href="#path-23"></use>
                    <use fill="url(#radialGradient-22)" xlink:href="#path-23"></use>
                </g>
                <g id="路径">
                    <use fill="#FFFFFF" xlink:href="#path-25"></use>
                    <use fill="url(#radialGradient-24)" xlink:href="#path-25"></use>
                </g>
            </g>
        </g>
    </g>
</svg>