<svg xmlns="http://www.w3.org/2000/svg" xmlns:xlink="http://www.w3.org/1999/xlink" width="1024" height="1024"><defs><linearGradient id="a" x1="50%" x2="50%" y1="0%" y2="100%"><stop offset="0%" stop-color="#00C5FF"/><stop offset="100%" stop-color="#0073FF"/></linearGradient><path id="b" d="M267 159h319.173c53.196 0 94.034 16.736 122.513 50.208 28.48 33.472 42.72 74.914 42.72 124.325 0 41.441-10.162 76.985-30.487 106.632-13.55 19.765-33.373 35.385-59.469 46.86 39.646 12.115 68.816 32.915 87.51 62.402C767.652 578.915 777 615.973 777 660.602c0 36.341-6.65 69.016-19.948 98.026-13.3 29.009-31.491 51.96-54.576 68.856-14.303 10.52-35.882 18.17-64.738 22.953-38.391 6.375-63.86 9.563-76.406 9.563H267zm172.007 274.949h74.148c26.598 0 45.103-5.818 55.517-17.453 10.413-11.636 15.62-28.452 15.62-50.448 0-20.402-5.207-36.34-15.62-47.817-10.414-11.476-28.543-17.214-54.388-17.214h-75.277V433.95m0 275.427h86.945c29.358 0 50.06-6.615 62.103-19.844 12.045-13.23 18.067-31.002 18.067-53.316 0-20.721-5.96-37.378-17.878-49.97-11.92-12.591-32.809-18.887-62.668-18.887h-86.569v142.017"/></defs><g fill="none" fill-rule="evenodd"><path fill="url(#a)" d="M0 0h1024v1024H0z"/><path fill="#FFF" d="M102 101h337.007V0h145.285v101H921v348.836h103v131.47H921V924H584.292l.208 100H439.007V924H102V581.306H0v-131.47h102z"/><mask id="c" fill="#fff"><use xlink:href="#b"/></mask><use xlink:href="#b" fill="#2F2E2E" fill-rule="nonzero"/><path fill="url(#a)" d="M0 0h1024v1024H0z" mask="url(#c)"/></g></svg>