<svg xmlns="http://www.w3.org/2000/svg" width="1024" height="1024"><g fill="none" fill-rule="evenodd"><path fill="#FFF" d="M0 0h1024v1024H0z"/><path fill="#76B83F" fill-rule="nonzero" d="M882 511.077C882 308.085 716.937 142 511.073 142 307.063 142 142 306.24 142 511.077c0 156.858 98.296 289.726 237.393 343.242l-70.476-322.942-20.4-92.27-33.384-160.548 135.388-29.527 50.075 232.52c12.983 62.742 42.657 95.96 89.023 86.732 37.093-7.381 53.785-38.753 57.494-60.897 1.854-9.227 0-20.3-1.855-29.527L529.62 221.352l135.389-29.527 63.057 293.417C754.03 603.347 822.652 621.8 822.652 621.8l-131.68 27.681c-38.947 9.227-64.912-60.897-64.912-60.897h-1.854c-11.128 29.526-24.11 79.351-120.552 99.65-7.418 1.846-12.982 1.846-20.4 3.691L524.054 882C722.501 872.773 882 710.38 882 511.077"/></g></svg>