<?xml version="1.0" encoding="UTF-8"?>
<svg width="1024px" height="1024px" viewBox="0 0 1024 1024" version="1.1" xmlns="http://www.w3.org/2000/svg" xmlns:xlink="http://www.w3.org/1999/xlink">
    <title>Bittorrent</title>
    <g id="ICON-新版方图标" stroke="none" stroke-width="1" fill="none" fill-rule="evenodd">
        <g id="Bittorrent">
            <rect id="蒙版路径" fill="#FFFFFF" x="0" y="0" width="1024" height="1024"></rect>
            <g transform="translate(142, 142)" fill="#76B83F" fill-rule="nonzero" id="路径">
                <path d="M740,369.077307 C740,166.084788 574.937344,0 369.072682,0 C165.062656,0 0,164.239401 0,369.077307 C0,525.935162 98.2957394,658.802993 237.393484,712.319202 L166.917293,389.376559 L146.516291,297.107232 L113.132832,136.558603 L248.521304,107.032419 L298.596492,339.551122 C311.578948,402.294265 341.253133,435.511222 387.619048,426.284289 C424.71178,418.902743 441.403509,387.531172 445.112782,365.386534 C446.967418,356.159601 445.112782,345.087281 443.258145,335.860349 L387.619048,79.3516207 L523.007519,49.8254365 L586.065163,343.241896 C612.030075,461.346633 680.651629,479.800499 680.651629,479.800499 L548.972431,507.481297 C510.025063,516.70823 484.06015,446.583541 484.060151,446.583541 L482.205514,446.583541 C471.077694,476.109725 458.095239,525.935162 361.654135,546.234414 C354.235589,548.0798 348.671679,548.0798 341.253133,549.925187 L382.055138,740 C580.501254,730.773067 740,568.379053 740,369.077307 Z"></path>
            </g>
        </g>
    </g>
</svg>