<svg xmlns="http://www.w3.org/2000/svg" width="1024" height="1024"><g fill="none" fill-rule="evenodd"><path fill="#FFF" d="M0 0h1024v1024H0z"/><g transform="translate(62.471 62)"><path fill="#FFF" stroke="#047BBD" stroke-width="5" d="M714.754 89.321c4.587 3.35 7.173 7.309 8.545 11.164 2.236 6.286 1.29 12.264.665 14.785-2.618 10.555-12.977 32.17-30.99 64.869l-58.207-42.848c25.805-26.893 43.311-43.163 52.57-48.73 1.985-1.194 7.524-4.052 14.366-3.852 4.051.119 8.559 1.332 13.051 4.612ZM451.249 2.5c5.665 0 10.07 1.674 13.432 3.98 5.483 3.764 8.213 9.156 9.18 11.563 4.058 10.088 8.32 33.699 12.874 70.803l-72.145-.283c5.147-37 9.794-60.502 14.028-70.476.908-2.139 3.719-7.727 9.375-11.609C441.34 4.181 445.696 2.5 451.25 2.5Zm136.078 21.856c5.39 1.76 9.066 4.72 11.554 7.96 4.06 5.283 4.998 11.261 5.179 13.852.756 10.853-2.45 34.63-9.528 71.328l-68.53-22.674c16.274-33.592 27.921-54.502 35.015-62.673 1.521-1.752 5.91-6.191 12.482-8.126 3.889-1.145 8.548-1.391 13.828.333Zm-277.08.844c5.387-1.759 10.09-1.535 13.996-.385 6.37 1.875 10.622 6.154 12.282 8.142 6.96 8.334 18.276 29.467 34.018 63.343l-68.704 22.135c-6.481-36.782-9.289-60.575-8.329-71.375.206-2.317 1.162-8.506 5.35-13.957 2.477-3.225 6.104-6.178 11.387-7.903ZM188.728 88.603c4.24-3.096 8.445-4.398 12.274-4.668 5.644-.399 10.456 1.411 13.332 2.883a32.82 32.82 0 0 1 1.337.736l.228.137c.072.044.14.085.204.126 9.183 5.765 26.441 22.35 51.83 49.678l-58.539 42.39c-17.473-32.965-27.457-54.719-29.865-65.287-.517-2.269-1.512-8.452.795-14.938 1.366-3.838 3.908-7.775 8.404-11.057Zm-97.206 94.968c3.33-4.607 7.269-7.206 11.103-8.584 6.247-2.244 12.188-1.295 14.693-.668 9.897 2.479 29.57 11.874 59.047 28.097l1.954 1.078c1.172.647 2.36 1.305 3.561 1.974l-42.642 58.497c-26.75-25.922-42.935-43.508-48.474-52.81-1.189-1.998-4.036-7.57-3.836-14.453.118-4.076 1.326-8.611 4.594-13.13ZM29.55 299.918c1.847-5.387 4.858-9.031 8.125-11.476 5.322-3.982 11.28-4.82 13.86-4.957 10.81-.57 34.407 3.067 70.793 10.818l-23.76 68.474c-33.123-16.93-53.716-28.992-61.72-36.26-1.717-1.56-6.06-6.05-7.87-12.69-1.073-3.933-1.237-8.626.573-13.909ZM5.267 424.597c.395-5.686 2.366-9.99 4.893-13.202 4.117-5.232 9.657-7.593 12.114-8.395 10.294-3.363 34.022-5.987 71.16-7.964l-5.315 72.323c-36.355-7.737-59.354-14.033-68.956-18.972-2.06-1.06-7.41-4.267-10.868-10.207-2.05-3.52-3.416-8.01-3.028-13.583Zm18.009 149.139c-1.372-5.53-.821-10.237.595-14.078 2.307-6.257 6.852-10.224 8.943-11.75 8.756-6.395 30.514-16.26 65.224-29.67l17.185 70.432c-36.96 3.932-60.77 5.086-71.423 3.371-2.284-.368-8.356-1.757-13.47-6.33-3.03-2.71-5.71-6.555-7.054-11.975ZM74.57 691.355c-3.005-4.834-3.928-9.48-3.762-13.572.27-6.67 3.374-11.856 4.893-13.958 6.362-8.8 24.022-24.939 52.91-48.473l38 61.645c-33.948 15.219-56.24 23.712-66.9 25.389l-.155.024-.341.048c-2.598.347-8.398.672-14.258-1.91-3.714-1.635-7.443-4.458-10.387-9.193Zm89.598 101.486c-4.279-3.738-6.512-7.91-7.544-11.87-1.683-6.459-.223-12.331.619-14.788 3.523-10.286 15.717-30.91 36.497-61.906l54.271 47.784c-28.04 24.53-46.89 39.204-56.596 43.94-2.08 1.015-7.845 3.377-14.644 2.578-4.026-.473-8.411-2.077-12.603-5.738Zm119.705 73.9c-5.291-2.04-8.808-5.191-11.124-8.557-3.779-5.49-4.405-11.51-4.45-14.107-.19-10.877 4.25-34.452 13.229-70.727l67.255 26.247c-18.001 32.69-30.72 52.96-38.23 60.746-1.61 1.67-6.225 5.872-12.888 7.458-3.943.94-8.609.94-13.792-1.06Zm137.157 28.66c-5.658-.298-9.97-2.201-13.207-4.682-5.28-4.046-7.726-9.575-8.567-12.03-3.526-10.287-6.553-34.09-9.168-71.382l72.032 4.077c-7.067 36.679-12.932 59.905-17.68 69.642-1.018 2.089-4.115 7.52-9.966 11.1-3.462 2.117-7.9 3.567-13.444 3.275Zm138.408-10.655c-5.52 1.28-10.185.646-13.977-.842-6.183-2.426-10.049-7.061-11.53-9.188-6.212-8.912-15.65-30.955-28.394-66.08l70.36-16.034c3.268 37.212 4 61.16 2.108 71.835-.407 2.29-1.895 8.372-6.539 13.435-2.747 2.995-6.616 5.619-12.028 6.874ZM690.662 826.5c-4.583 3.346-9.126 4.595-13.195 4.714-6.632.194-11.99-2.554-14.18-3.928-9.183-5.765-26.441-22.35-51.829-49.678l58.538-42.39c17.473 32.965 27.457 54.719 29.865 65.287.517 2.268 1.512 8.452-.795 14.937-1.366 3.839-3.908 7.775-8.404 11.058ZM815.34 194.337c3.334 4.611 4.576 9.182 4.695 13.275.194 6.673-2.543 12.064-3.913 14.267-5.735 9.226-22.232 26.563-49.416 52.066l-42.186-58.831c32.81-17.562 54.459-27.598 64.976-30.017.32-.074.72-.157 1.188-.239 3.208-.517 8.665-.887 14.214 1.258 3.655 1.412 7.341 3.932 10.442 8.221Zm-19.413 537.794c-3.155 4.208-6.799 6.69-10.383 8.073-5.281 2.04-10.409 1.723-13.587 1.16a32.722 32.722 0 0 1-1.493-.31l-.258-.064-.232-.061c-9.852-2.652-29.36-12.39-58.55-29.128l-1.935-1.112a1436.12 1436.12 0 0 1-3.526-2.037l43.65-57.74c26.298 26.388 42.174 44.255 47.55 53.654 1.155 2.017 3.905 7.638 3.585 14.517-.189 4.073-1.475 8.586-4.82 13.048Zm70.121-122.173c-2.123 5.283-5.32 8.763-8.71 11.033-5.522 3.696-11.515 4.22-14.097 4.22-10.826.001-34.202-4.871-70.136-14.526l27.294-67.13c32.196 18.648 52.132 31.777 59.746 39.456 1.634 1.648 5.737 6.362 7.2 13.088.867 3.984.786 8.679-1.297 13.86Zm30.067-138.067c-.198 5.696-2.018 10.067-4.433 13.366-3.932 5.374-9.387 7.927-11.814 8.815-9.9 3.622-32.552 6.99-67.926 10.194l-2.27.204-.644.057 2.8-72.466c36.602 6.458 59.805 11.943 69.574 16.542 2.095.987 7.552 4.005 11.215 9.82 2.17 3.446 3.692 7.885 3.498 13.468ZM876.219 323.29c1.658 5.452 1.353 10.181.139 14.091-1.978 6.37-6.31 10.571-8.319 12.206-8.411 6.846-29.626 17.84-63.59 33.06l-20.829-69.433c36.705-5.87 60.424-8.275 71.151-7.122 2.3.247 8.435 1.314 13.78 5.613 3.168 2.547 6.043 6.245 7.668 11.586Z"/><ellipse cx="450.641" cy="450.982" fill="#FFF" stroke="#047BBD" stroke-width="5" rx="363.579" ry="365.374"/><g fill-rule="nonzero"><path fill="#FE0000" d="M393.598 380.632h49.557c9.769 0 17.66 1.325 23.674 3.976 6.014 2.65 10.984 6.455 14.911 11.413 3.928 4.959 6.775 10.727 8.542 17.305 1.767 6.578 2.651 13.549 2.651 20.913 0 11.536-1.313 20.483-3.94 26.84-2.626 6.357-6.27 11.684-10.934 15.98-4.664 4.295-9.671 7.154-15.022 8.578-7.315 1.963-13.942 2.945-19.882 2.945h-49.557v-107.95m33.357 24.447v58.982h8.174c6.97 0 11.929-.773 14.874-2.32 2.946-1.546 5.253-4.246 6.922-8.1 1.669-3.853 2.504-10.1 2.504-18.74 0-11.438-1.866-19.268-5.597-23.49-3.73-4.221-9.916-6.332-18.556-6.332zm95.187-24.447h29.97v20.397h-29.97zm0 29.749h29.97v78.201h-29.97zm116.1-.001h28.055v73.858l.074 3.46a32.61 32.61 0 0 1-3.13 14.028c-2.086 4.443-4.86 8.039-8.32 10.788-3.461 2.749-7.855 4.737-13.181 5.964-5.327 1.228-11.426 1.841-18.299 1.841-15.71 0-26.497-2.356-32.363-7.069-5.866-4.712-8.8-11.02-8.8-18.924 0-.982.05-2.307.148-3.977l29.086 3.314c.736 2.7 1.865 4.566 3.387 5.596 2.21 1.522 4.983 2.283 8.321 2.283 4.32 0 7.548-1.153 9.683-3.46 2.136-2.308 3.203-6.333 3.203-12.077v-11.856c-2.945 3.486-5.89 6.014-8.836 7.585-4.614 2.455-9.597 3.682-14.948 3.682-10.456 0-18.9-4.566-25.331-13.697-4.565-6.48-6.848-15.046-6.848-25.699 0-12.174 2.945-21.452 8.836-27.834 5.891-6.382 13.598-9.573 23.122-9.573 6.087 0 11.107 1.031 15.059 3.093 3.951 2.062 7.645 5.474 11.082 10.235v-11.56m-28.203 37.923c0 5.646 1.203 9.83 3.608 12.555 2.406 2.725 5.572 4.087 9.5 4.087 3.73 0 6.86-1.411 9.388-4.234 2.528-2.823 3.792-7.081 3.792-12.776 0-5.695-1.325-10.051-3.976-13.07-2.65-3.02-5.89-4.53-9.72-4.53-3.83 0-6.885 1.388-9.168 4.161-2.282 2.774-3.424 7.376-3.424 13.807m142.83-37.924h28.055v73.858l.074 3.46a32.61 32.61 0 0 1-3.13 14.028c-2.086 4.443-4.86 8.039-8.32 10.788-3.461 2.749-7.855 4.737-13.181 5.964-5.327 1.228-11.426 1.841-18.299 1.841-15.709 0-26.497-2.356-32.363-7.069-5.866-4.712-8.8-11.02-8.8-18.924 0-.982.05-2.307.148-3.977l29.086 3.314c.736 2.7 1.865 4.566 3.387 5.596 2.21 1.522 4.983 2.283 8.321 2.283 4.32 0 7.548-1.153 9.683-3.46 2.136-2.308 3.203-6.333 3.203-12.077v-11.856c-2.945 3.486-5.89 6.014-8.836 7.585-4.614 2.455-9.597 3.682-14.948 3.682-10.456 0-18.9-4.566-25.33-13.697-4.566-6.48-6.85-15.046-6.85-25.699 0-12.174 2.946-21.452 8.837-27.834 5.891-6.382 13.598-9.573 23.122-9.573 6.087 0 11.107 1.031 15.059 3.093 3.951 2.062 7.646 5.474 11.082 10.235v-11.56m-28.203 37.923c0 5.646 1.203 9.83 3.608 12.555 2.406 2.725 5.572 4.087 9.5 4.087 3.73 0 6.86-1.411 9.388-4.234 2.528-2.823 3.792-7.081 3.792-12.776 0-5.695-1.325-10.051-3.976-13.07-2.65-3.02-5.89-4.53-9.72-4.53-3.83 0-6.885 1.388-9.168 4.161-2.282 2.774-3.424 7.376-3.424 13.807"/><path fill="#88D201" d="M118.994 380.632h62.444c10.407 0 18.397 2.577 23.969 7.731 5.571 5.155 8.357 11.537 8.357 19.146 0 6.382-1.988 11.855-5.964 16.42-2.651 3.044-6.53 5.45-11.635 7.217 7.757 1.865 13.463 5.069 17.12 9.61 3.658 4.54 5.486 10.247 5.486 17.12 0 5.596-1.3 10.628-3.902 15.095-2.602 4.468-6.161 8.002-10.677 10.604-2.799 1.62-7.02 2.798-12.666 3.534-7.51.982-12.494 1.473-14.948 1.473h-57.584v-107.95m33.652 42.34h14.506c5.204 0 8.825-.896 10.862-2.687 2.037-1.792 3.056-4.382 3.056-7.769 0-3.142-1.019-5.596-3.056-7.364-2.037-1.767-5.584-2.65-10.64-2.65h-14.728v20.47m0 42.415h17.01c5.744 0 9.794-1.019 12.15-3.056s3.535-4.774 3.535-8.21c0-3.191-1.166-5.756-3.498-7.696-2.332-1.939-6.419-2.908-12.26-2.908h-16.937v21.87m88.56-84.755h101.397v26.656h-34.02v81.294h-33.357v-81.294h-34.02z"/></g></g><g transform="translate(62.471 62)"><path fill="#FFF" stroke="#047BBD" stroke-width="5" d="M714.754 89.321c4.587 3.35 7.173 7.309 8.545 11.164 2.236 6.286 1.29 12.264.665 14.785-2.618 10.555-12.977 32.17-30.99 64.869l-58.207-42.848c25.805-26.893 43.311-43.163 52.57-48.73 1.985-1.194 7.524-4.052 14.366-3.852 4.051.119 8.559 1.332 13.051 4.612ZM451.249 2.5c5.665 0 10.07 1.674 13.432 3.98 5.483 3.764 8.213 9.156 9.18 11.563 4.058 10.088 8.32 33.699 12.874 70.803l-72.145-.283c5.147-37 9.794-60.502 14.028-70.476.908-2.139 3.719-7.727 9.375-11.609C441.34 4.181 445.696 2.5 451.25 2.5Zm136.078 21.856c5.39 1.76 9.066 4.72 11.554 7.96 4.06 5.283 4.998 11.261 5.179 13.852.756 10.853-2.45 34.63-9.528 71.328l-68.53-22.674c16.274-33.592 27.921-54.502 35.015-62.673 1.521-1.752 5.91-6.191 12.482-8.126 3.889-1.145 8.548-1.391 13.828.333Zm-277.08.844c5.387-1.759 10.09-1.535 13.996-.385 6.37 1.875 10.622 6.154 12.282 8.142 6.96 8.334 18.276 29.467 34.018 63.343l-68.704 22.135c-6.481-36.782-9.289-60.575-8.329-71.375.206-2.317 1.162-8.506 5.35-13.957 2.477-3.225 6.104-6.178 11.387-7.903ZM188.728 88.603c4.24-3.096 8.445-4.398 12.274-4.668 5.644-.399 10.456 1.411 13.332 2.883a32.82 32.82 0 0 1 1.337.736l.228.137c.072.044.14.085.204.126 9.183 5.765 26.441 22.35 51.83 49.678l-58.539 42.39c-17.473-32.965-27.457-54.719-29.865-65.287-.517-2.269-1.512-8.452.795-14.938 1.366-3.838 3.908-7.775 8.404-11.057Zm-97.206 94.968c3.33-4.607 7.269-7.206 11.103-8.584 6.247-2.244 12.188-1.295 14.693-.668 9.897 2.479 29.57 11.874 59.047 28.097l1.954 1.078c1.172.647 2.36 1.305 3.561 1.974l-42.642 58.497c-26.75-25.922-42.935-43.508-48.474-52.81-1.189-1.998-4.036-7.57-3.836-14.453.118-4.076 1.326-8.611 4.594-13.13ZM29.55 299.918c1.847-5.387 4.858-9.031 8.125-11.476 5.322-3.982 11.28-4.82 13.86-4.957 10.81-.57 34.407 3.067 70.793 10.818l-23.76 68.474c-33.123-16.93-53.716-28.992-61.72-36.26-1.717-1.56-6.06-6.05-7.87-12.69-1.073-3.933-1.237-8.626.573-13.909ZM5.267 424.597c.395-5.686 2.366-9.99 4.893-13.202 4.117-5.232 9.657-7.593 12.114-8.395 10.294-3.363 34.022-5.987 71.16-7.964l-5.315 72.323c-36.355-7.737-59.354-14.033-68.956-18.972-2.06-1.06-7.41-4.267-10.868-10.207-2.05-3.52-3.416-8.01-3.028-13.583Zm18.009 149.139c-1.372-5.53-.821-10.237.595-14.078 2.307-6.257 6.852-10.224 8.943-11.75 8.756-6.395 30.514-16.26 65.224-29.67l17.185 70.432c-36.96 3.932-60.77 5.086-71.423 3.371-2.284-.368-8.356-1.757-13.47-6.33-3.03-2.71-5.71-6.555-7.054-11.975ZM74.57 691.355c-3.005-4.834-3.928-9.48-3.762-13.572.27-6.67 3.374-11.856 4.893-13.958 6.362-8.8 24.022-24.939 52.91-48.473l38 61.645c-33.948 15.219-56.24 23.712-66.9 25.389l-.155.024-.341.048c-2.598.347-8.398.672-14.258-1.91-3.714-1.635-7.443-4.458-10.387-9.193Zm89.598 101.486c-4.279-3.738-6.512-7.91-7.544-11.87-1.683-6.459-.223-12.331.619-14.788 3.523-10.286 15.717-30.91 36.497-61.906l54.271 47.784c-28.04 24.53-46.89 39.204-56.596 43.94-2.08 1.015-7.845 3.377-14.644 2.578-4.026-.473-8.411-2.077-12.603-5.738Zm119.705 73.9c-5.291-2.04-8.808-5.191-11.124-8.557-3.779-5.49-4.405-11.51-4.45-14.107-.19-10.877 4.25-34.452 13.229-70.727l67.255 26.247c-18.001 32.69-30.72 52.96-38.23 60.746-1.61 1.67-6.225 5.872-12.888 7.458-3.943.94-8.609.94-13.792-1.06Zm137.157 28.66c-5.658-.298-9.97-2.201-13.207-4.682-5.28-4.046-7.726-9.575-8.567-12.03-3.526-10.287-6.553-34.09-9.168-71.382l72.032 4.077c-7.067 36.679-12.932 59.905-17.68 69.642-1.018 2.089-4.115 7.52-9.966 11.1-3.462 2.117-7.9 3.567-13.444 3.275Zm138.408-10.655c-5.52 1.28-10.185.646-13.977-.842-6.183-2.426-10.049-7.061-11.53-9.188-6.212-8.912-15.65-30.955-28.394-66.08l70.36-16.034c3.268 37.212 4 61.16 2.108 71.835-.407 2.29-1.895 8.372-6.539 13.435-2.747 2.995-6.616 5.619-12.028 6.874ZM690.662 826.5c-4.583 3.346-9.126 4.595-13.195 4.714-6.632.194-11.99-2.554-14.18-3.928-9.183-5.765-26.441-22.35-51.829-49.678l58.538-42.39c17.473 32.965 27.457 54.719 29.865 65.287.517 2.268 1.512 8.452-.795 14.937-1.366 3.839-3.908 7.775-8.404 11.058ZM815.34 194.337c3.334 4.611 4.576 9.182 4.695 13.275.194 6.673-2.543 12.064-3.913 14.267-5.735 9.226-22.232 26.563-49.416 52.066l-42.186-58.831c32.81-17.562 54.459-27.598 64.976-30.017.32-.074.72-.157 1.188-.239 3.208-.517 8.665-.887 14.214 1.258 3.655 1.412 7.341 3.932 10.442 8.221Zm-19.413 537.794c-3.155 4.208-6.799 6.69-10.383 8.073-5.281 2.04-10.409 1.723-13.587 1.16a32.722 32.722 0 0 1-1.493-.31l-.258-.064-.232-.061c-9.852-2.652-29.36-12.39-58.55-29.128l-1.935-1.112a1436.12 1436.12 0 0 1-3.526-2.037l43.65-57.74c26.298 26.388 42.174 44.255 47.55 53.654 1.155 2.017 3.905 7.638 3.585 14.517-.189 4.073-1.475 8.586-4.82 13.048Zm70.121-122.173c-2.123 5.283-5.32 8.763-8.71 11.033-5.522 3.696-11.515 4.22-14.097 4.22-10.826.001-34.202-4.871-70.136-14.526l27.294-67.13c32.196 18.648 52.132 31.777 59.746 39.456 1.634 1.648 5.737 6.362 7.2 13.088.867 3.984.786 8.679-1.297 13.86Zm30.067-138.067c-.198 5.696-2.018 10.067-4.433 13.366-3.932 5.374-9.387 7.927-11.814 8.815-9.9 3.622-32.552 6.99-67.926 10.194l-2.27.204-.644.057 2.8-72.466c36.602 6.458 59.805 11.943 69.574 16.542 2.095.987 7.552 4.005 11.215 9.82 2.17 3.446 3.692 7.885 3.498 13.468ZM876.219 323.29c1.658 5.452 1.353 10.181.139 14.091-1.978 6.37-6.31 10.571-8.319 12.206-8.411 6.846-29.626 17.84-63.59 33.06l-20.829-69.433c36.705-5.87 60.424-8.275 71.151-7.122 2.3.247 8.435 1.314 13.78 5.613 3.168 2.547 6.043 6.245 7.668 11.586Z"/><ellipse cx="450.641" cy="450.982" fill="#FFF" stroke="#047BBD" stroke-width="5" rx="363.579" ry="365.374"/><g fill-rule="nonzero"><path fill="#FE0000" d="M393.598 380.632h49.557c9.769 0 17.66 1.325 23.674 3.976 6.014 2.65 10.984 6.455 14.911 11.413 3.928 4.959 6.775 10.727 8.542 17.305 1.767 6.578 2.651 13.549 2.651 20.913 0 11.536-1.313 20.483-3.94 26.84-2.626 6.357-6.27 11.684-10.934 15.98-4.664 4.295-9.671 7.154-15.022 8.578-7.315 1.963-13.942 2.945-19.882 2.945h-49.557v-107.95m33.357 24.447v58.982h8.174c6.97 0 11.929-.773 14.874-2.32 2.946-1.546 5.253-4.246 6.922-8.1 1.669-3.853 2.504-10.1 2.504-18.74 0-11.438-1.866-19.268-5.597-23.49-3.73-4.221-9.916-6.332-18.556-6.332zm95.187-24.447h29.97v20.397h-29.97zm0 29.749h29.97v78.201h-29.97zm116.1-.001h28.055v73.858l.074 3.46a32.61 32.61 0 0 1-3.13 14.028c-2.086 4.443-4.86 8.039-8.32 10.788-3.461 2.749-7.855 4.737-13.181 5.964-5.327 1.228-11.426 1.841-18.299 1.841-15.71 0-26.497-2.356-32.363-7.069-5.866-4.712-8.8-11.02-8.8-18.924 0-.982.05-2.307.148-3.977l29.086 3.314c.736 2.7 1.865 4.566 3.387 5.596 2.21 1.522 4.983 2.283 8.321 2.283 4.32 0 7.548-1.153 9.683-3.46 2.136-2.308 3.203-6.333 3.203-12.077v-11.856c-2.945 3.486-5.89 6.014-8.836 7.585-4.614 2.455-9.597 3.682-14.948 3.682-10.456 0-18.9-4.566-25.331-13.697-4.565-6.48-6.848-15.046-6.848-25.699 0-12.174 2.945-21.452 8.836-27.834 5.891-6.382 13.598-9.573 23.122-9.573 6.087 0 11.107 1.031 15.059 3.093 3.951 2.062 7.645 5.474 11.082 10.235v-11.56m-28.203 37.923c0 5.646 1.203 9.83 3.608 12.555 2.406 2.725 5.572 4.087 9.5 4.087 3.73 0 6.86-1.411 9.388-4.234 2.528-2.823 3.792-7.081 3.792-12.776 0-5.695-1.325-10.051-3.976-13.07-2.65-3.02-5.89-4.53-9.72-4.53-3.83 0-6.885 1.388-9.168 4.161-2.282 2.774-3.424 7.376-3.424 13.807m142.83-37.924h28.055v73.858l.074 3.46a32.61 32.61 0 0 1-3.13 14.028c-2.086 4.443-4.86 8.039-8.32 10.788-3.461 2.749-7.855 4.737-13.181 5.964-5.327 1.228-11.426 1.841-18.299 1.841-15.709 0-26.497-2.356-32.363-7.069-5.866-4.712-8.8-11.02-8.8-18.924 0-.982.05-2.307.148-3.977l29.086 3.314c.736 2.7 1.865 4.566 3.387 5.596 2.21 1.522 4.983 2.283 8.321 2.283 4.32 0 7.548-1.153 9.683-3.46 2.136-2.308 3.203-6.333 3.203-12.077v-11.856c-2.945 3.486-5.89 6.014-8.836 7.585-4.614 2.455-9.597 3.682-14.948 3.682-10.456 0-18.9-4.566-25.33-13.697-4.566-6.48-6.85-15.046-6.85-25.699 0-12.174 2.946-21.452 8.837-27.834 5.891-6.382 13.598-9.573 23.122-9.573 6.087 0 11.107 1.031 15.059 3.093 3.951 2.062 7.646 5.474 11.082 10.235v-11.56m-28.203 37.923c0 5.646 1.203 9.83 3.608 12.555 2.406 2.725 5.572 4.087 9.5 4.087 3.73 0 6.86-1.411 9.388-4.234 2.528-2.823 3.792-7.081 3.792-12.776 0-5.695-1.325-10.051-3.976-13.07-2.65-3.02-5.89-4.53-9.72-4.53-3.83 0-6.885 1.388-9.168 4.161-2.282 2.774-3.424 7.376-3.424 13.807"/><path fill="#88D201" d="M118.994 380.632h62.444c10.407 0 18.397 2.577 23.969 7.731 5.571 5.155 8.357 11.537 8.357 19.146 0 6.382-1.988 11.855-5.964 16.42-2.651 3.044-6.53 5.45-11.635 7.217 7.757 1.865 13.463 5.069 17.12 9.61 3.658 4.54 5.486 10.247 5.486 17.12 0 5.596-1.3 10.628-3.902 15.095-2.602 4.468-6.161 8.002-10.677 10.604-2.799 1.62-7.02 2.798-12.666 3.534-7.51.982-12.494 1.473-14.948 1.473h-57.584v-107.95m33.652 42.34h14.506c5.204 0 8.825-.896 10.862-2.687 2.037-1.792 3.056-4.382 3.056-7.769 0-3.142-1.019-5.596-3.056-7.364-2.037-1.767-5.584-2.65-10.64-2.65h-14.728v20.47m0 42.415h17.01c5.744 0 9.794-1.019 12.15-3.056s3.535-4.774 3.535-8.21c0-3.191-1.166-5.756-3.498-7.696-2.332-1.939-6.419-2.908-12.26-2.908h-16.937v21.87m88.56-84.755h101.397v26.656h-34.02v81.294h-33.357v-81.294h-34.02z"/></g></g></g></svg>