<?xml version="1.0" encoding="UTF-8"?>
<svg width="1024px" height="1024px" viewBox="0 0 1024 1024" version="1.1" xmlns="http://www.w3.org/2000/svg" xmlns:xlink="http://www.w3.org/1999/xlink">
    <title>Btschool</title>
    <defs>
        <linearGradient x1="50%" y1="0%" x2="50%" y2="100%" id="linearGradient-1">
            <stop stop-color="#0055D3" offset="0%"></stop>
            <stop stop-color="#03BBFB" offset="100%"></stop>
        </linearGradient>
    </defs>
    <g id="ICON-新版方图标" stroke="none" stroke-width="1" fill="none" fill-rule="evenodd">
        <g id="Btschool">
            <rect id="蒙版路径" fill="#FFFFFF" x="0" y="0" width="1024" height="1024"></rect>
            <circle id="椭圆形" fill="url(#linearGradient-1)" cx="512" cy="512" r="377"></circle>
            <path d="M381.585495,856 C404.666026,816.043674 435.502054,781.171532 474.093578,751.383572 C509.985111,722.613883 546.756274,707.213246 574.966752,694.363207 C620.414166,677.913987 656.135919,673.584439 698.625927,673.232961 C723.041549,673.914757 755.151717,676.102073 777.932517,680.820292 C812.56474,687.993105 833.259431,698.614528 832.692554,699.759267 C832.155476,700.843832 808.986083,693.381824 777.932517,688.547643 C753.327899,685.159379 726.11212,683.809662 703.875,683.204411 C637.707525,682.638697 593.1572,698.521963 579.574027,703.619613 C549.201619,716.43889 509.19585,736.239889 471.551284,767.599449 C460.694232,777.146138 444.285799,792.284259 426.230848,812.850511 C414.194213,826.561345 403.179941,840.944508 393.18803,856 L381.585495,856 Z" id="矩形" fill="#FFFFFF" transform="translate(607.1447, 764.6165) scale(-1, -1) translate(-607.1447, -764.6165)"></path>
            <path d="M186.585495,370 C209.666026,330.043674 240.502054,295.171532 279.093578,265.383572 C314.985111,236.613883 351.756274,221.213246 379.966752,208.363207 C425.414166,191.913987 461.135919,187.584439 503.625927,187.232961 C528.041549,187.914757 560.151717,190.102073 582.932517,194.820292 C617.56474,201.993105 638.259431,212.614528 637.692554,213.759267 C637.155476,214.843832 613.986083,207.381824 582.932517,202.547643 C558.327899,199.159379 531.11212,197.809662 508.875,197.204411 C442.707525,196.638697 398.1572,212.521963 384.574027,217.619613 C354.201619,230.43889 314.19585,250.239889 276.551284,281.599449 C265.694232,291.146138 249.285799,306.284259 231.230848,326.850511 C219.194213,340.561345 208.179941,354.944508 198.18803,370 L186.585495,370 Z" id="矩形" fill="#FFFFFF"></path>
            <g id="编组-27" transform="translate(180.8057, 370.7897)" fill="#FFFFFF" fill-rule="nonzero">
                <g id="S" transform="translate(573.6431, 145.4979) rotate(-4) translate(-573.6431, -145.4979)translate(432.7363, 9.4979)">
                    <path d="M198.498924,179.646095 C195.629358,174.366094 191.325009,169.602615 185.585878,165.355658 C179.846746,161.108701 173.390223,157.693917 166.216309,155.111308 C159.042394,152.528699 151.552828,150.60609 143.747609,149.343481 C120.561517,145.900002 98.9249912,138.38174 78.8380308,126.788694 C77.1162913,125.870433 75.2797692,123.919128 73.3284645,120.93478 C71.3771598,117.950431 70.4015074,115.080865 70.4015074,112.326082 C70.4015074,102.225211 72.0945512,92.0956436 75.4806388,81.9373807 C78.8667265,71.7791179 83.1997708,63.8304207 88.4797718,58.0912891 C96.9736865,48.5643307 112.268472,40.24259 134.364129,33.1260668 C156.459785,26.0095437 181.33892,22.4512821 209.001535,22.4512821 C225.530233,22.4512821 238.299801,23.7138911 247.310238,26.239109 C256.320674,28.7643268 260.825892,32.6669363 260.825892,37.9469373 C260.825892,46.5556347 259.649371,53.2130273 257.296327,57.9191152 C254.943283,62.625203 252.418065,65.7530297 249.720673,67.3025953 C247.023281,68.8521608 242.288498,70.9469438 235.516322,73.5869443 C228.285017,76.1121622 222.000668,78.7521627 216.663275,81.5069459 C211.325883,84.261729 206.763273,86.9017295 202.975446,89.4269474 C199.18762,91.9521653 196.834576,93.2147742 195.916315,93.2147742 C194.768488,93.2147742 194.194575,92.7556437 194.194575,91.8373827 C194.194575,89.8860779 196.231967,86.9304252 200.30675,82.9704244 C204.381534,79.0104236 209.403274,75.538249 215.371971,72.5539006 C221.685015,69.2252043 224.841538,67.1017256 224.841538,66.1834646 C224.841538,64.6912904 221.340667,63.9452033 214.338927,63.9452033 C193.10414,63.9452033 173.47631,65.8391167 155.455437,69.6269435 C137.434564,73.4147704 123.230213,78.4078148 112.842385,84.6060769 C102.454557,90.804339 97.2606431,97.1173837 97.2606431,103.545211 C97.2606431,107.562603 99.4128174,110.403473 103.717166,112.067821 C108.021515,113.73217 117.519777,116.515648 132.211954,120.418258 C146.904131,124.320867 160.046742,128.79739 171.639788,133.847826 C188.28327,140.964349 200.622402,148.367829 208.657187,156.058265 C216.691971,163.748701 220.709363,172.357398 220.709363,181.884357 C220.709363,188.426967 219.131102,194.998272 215.974579,201.598274 C212.818057,208.198275 208.198056,214.253059 202.114577,219.762625 C196.031097,225.272191 189.029357,229.806105 181.109355,233.364367 C174.33718,236.233933 165.81457,238.931324 155.541524,241.456542 C145.268479,243.98176 134.134563,245.961761 122.139778,247.396544 C110.144993,248.831326 98.695426,249.548718 87.791076,249.548718 C67.7041156,249.548718 51.5484602,247.654804 39.32411,243.866978 C27.0997598,240.079151 20.9875847,234.340019 20.9875847,226.649583 C20.9875847,223.206104 23.0536721,217.840016 27.1858468,210.551319 C31.3180215,203.262622 36.1962833,198.355664 41.8206322,195.830446 C46.7562854,193.879142 51.5197646,192.760011 56.1110698,192.473055 C60.7023751,192.186098 62.9980277,192.731315 62.9980277,194.108707 C62.9980277,194.453055 62.8258537,194.797403 62.4815059,195.141751 C62.137158,195.486099 61.7354188,195.773055 61.2762882,196.00262 C60.8171577,196.232186 60.3580272,196.461751 59.8988967,196.691316 C57.603244,197.609577 55.7380263,198.326969 54.3032434,198.843491 C52.8684605,199.360012 51.7206342,199.876534 50.8597645,200.393056 C49.9988947,200.909578 49.5684598,201.626969 49.5684598,202.54523 C49.5684598,204.955666 61.4484622,206.160883 85.2084668,206.160883 C105.86934,206.160883 122.799779,205.414796 135.999781,203.922622 C149.199784,202.430448 160.850221,199.733056 170.951092,195.830446 C181.051964,191.927837 190.234574,186.533053 198.498924,179.646095 Z" id="路径" transform="translate(140.9067, 136) rotate(-12) translate(-140.9067, -136)"></path>
                </g>
                <g id="T" transform="translate(238.2266, 19.6732)">
                    <polygon id="路径" points="0 0 235.327148 0 235.327148 61.8652344 156.37207 61.8652344 156.37207 250.537109 78.9550781 250.537109 78.9550781 61.8652344 0 61.8652344"></polygon>
                </g>
                <g id="B" transform="translate(0, 16.6732)">
                    <path d="M0,0 L144.921875,0 C169.075521,0 187.618001,5.98144531 200.549316,17.9443359 C213.480632,29.9072266 219.946289,44.7184245 219.946289,62.3779297 C219.946289,77.1891276 215.332031,89.8925781 206.103516,100.488281 C199.951172,107.552083 190.950521,113.134766 179.101562,117.236328 C197.102865,121.565755 210.347493,128.999837 218.835449,139.538574 C227.323405,150.077311 231.567383,163.32194 231.567383,179.272461 C231.567383,192.260742 228.548177,203.938802 222.509766,214.306641 C216.471354,224.674479 208.211263,232.877604 197.729492,238.916016 C191.235352,242.675781 181.437174,245.410156 168.334961,247.119141 C150.90332,249.397786 139.339193,250.537109 133.642578,250.537109 L0,250.537109 L0,0 Z M78.1005859,98.2666016 L111.767578,98.2666016 C123.844401,98.2666016 132.246908,96.1873372 136.975098,92.0288086 C141.703288,87.8702799 144.067383,81.8603516 144.067383,73.9990234 C144.067383,66.7073568 141.703288,61.0107422 136.975098,56.9091797 C132.246908,52.8076172 124.015299,50.7568359 112.280273,50.7568359 L78.1005859,50.7568359 L78.1005859,98.2666016 Z M78.1005859,196.704102 L117.578125,196.704102 C130.908203,196.704102 140.307617,194.340007 145.776367,189.611816 C151.245117,184.883626 153.979492,178.531901 153.979492,170.556641 C153.979492,163.151042 151.2736,157.198079 145.861816,152.697754 C140.450033,148.197428 130.965169,145.947266 117.407227,145.947266 L78.1005859,145.947266 L78.1005859,196.704102 Z" id="形状"></path>
                </g>
            </g>
        </g>
    </g>
</svg>