<?xml version="1.0" encoding="UTF-8"?>
<svg width="1025px" height="1024px" viewBox="0 0 1025 1024" version="1.1" xmlns="http://www.w3.org/2000/svg" xmlns:xlink="http://www.w3.org/1999/xlink">
    <title>Cent.OS</title>
    <g id="ICON-新版方图标" stroke="none" stroke-width="1" fill="none" fill-rule="evenodd">
        <g id="Cent.OS" transform="translate(0.6332, 0)">
            <rect id="蒙版路径" fill="#FFFFFF" x="0" y="0" width="1024" height="1024"></rect>
            <g id="编组" transform="translate(112.3, 112)" fill-rule="nonzero">
                <path d="M349.790795,97.4895397 L349.790795,299.16318 L215.899582,165.271967 L283.682008,97.4895397 L349.790795,97.4895397 L349.790795,97.4895397 Z M163.598326,216.317992 L296.65272,349.790795 L97.4895397,349.790795 L97.4895397,282.426778 L163.598326,216.317992 Z" id="形状" fill="#9BD219"></path>
                <polygon id="路径" fill="#9BD219" points="349.790795 315.899582 349.790795 349.790795 313.389121 349.790795 163.598326 199.58159 97.4895397 265.690377 97.4895397 97.4895397 266.945607 97.4895397 199.16318 165.271967"></polygon>
                <polygon id="路径" fill="#262670" points="163.598326 584.937238 97.4895397 518.828452 97.4895397 450.627615 297.90795 450.627615"></polygon>
                <polygon id="路径" fill="#262670" points="349.790795 484.518828 199.16318 634.728033 266.945607 702.51046 97.4895397 702.51046 97.4895397 535.564854 163.598326 601.67364 314.225941 450.627615 349.790795 450.627615"></polygon>
                <polygon id="路径" fill="#262670" points="215.899582 634.728033 349.790795 501.25523 349.790795 702.51046 283.682008 702.51046 215.899582 634.728033"></polygon>
                <path d="M702.51046,450.627615 L702.51046,523.430962 L641.422594,584.937238 L507.112971,450.627615 L702.51046,450.627615 L702.51046,450.627615 Z M584.100418,634.728033 L516.317992,702.51046 L450.627615,702.51046 L450.627615,501.25523 L584.100418,634.728033 L584.100418,634.728033 Z" id="形状" fill="#EFA822"></path>
                <polygon id="路径" fill="#EFA822" points="702.51046 540.167364 702.51046 702.51046 533.054393 702.51046 600.83682 634.728033 450.627615 484.518828 450.627615 450.627615 490.376569 450.627615 641.422594 601.67364 702.51046 540.167364"></polygon>
                <polygon id="路径" fill="#98267D" points="584.100418 165.271967 450.627615 299.16318 450.627615 97.4895397 516.317992 97.4895397"></polygon>
                <polygon id="路径" fill="#98267D" points="702.51046 97.4895397 702.51046 261.087866 641.422594 199.58159 491.631799 349.790795 450.627615 349.790795 450.627615 315.899582 600.83682 165.271967 533.054393 97.4895397 702.51046 97.4895397"></polygon>
                <polygon id="路径" fill="#98267D" points="641.422594 216.317992 702.51046 277.824268 702.51046 349.790795 508.368201 349.790795"></polygon>
                <path d="M480.334728,376.569038 L459.832636,397.90795 L481.171548,376.569038 L480.334728,376.569038 Z M476.987448,420.502092 L480.334728,423.849372 L476.987448,420.502092 Z" id="形状" fill="#9BD219"></path>
                <polygon id="路径" fill="#EFA822" points="479.497908 75.7322176 423.849372 75.7322176 423.849372 320.083682 400 342.259414 376.569038 320.083682 376.569038 75.7322176 320.502092 75.7322176 400 0"></polygon>
                <polygon id="路径" fill="#98267D" points="75.7322176 320.502092 0 400 75.7322176 479.497908 75.7322176 423.849372 320.083682 423.849372 342.259414 400 320.083682 376.569038 75.7322176 376.569038"></polygon>
                <polygon id="路径" fill="#9BD219" points="320.502092 724.686192 400 800 479.497908 724.686192 423.849372 724.686192 423.849372 480.334728 400 457.740586 376.569038 480.334728 376.569038 724.686192"></polygon>
                <polygon id="路径" fill="#262670" points="724.686192 423.849372 480.334728 423.849372 476.987448 420.502092 457.740586 400 459.832636 397.90795 480.334728 376.569038 724.686192 376.569038 724.686192 320.502092 800 400 724.686192 479.497908"></polygon>
            </g>
        </g>
    </g>
</svg>