<?xml version="1.0" encoding="UTF-8"?>
<svg width="1024px" height="1024px" viewBox="0 0 1024 1024" version="1.1" xmlns="http://www.w3.org/2000/svg" xmlns:xlink="http://www.w3.org/1999/xlink">
    <title>Clash</title>
    <g id="ICON-新版方图标" stroke="none" stroke-width="1" fill="none" fill-rule="evenodd">
        <g id="Clash">
            <rect id="蒙版路径" fill="#FFFFFF" x="0" y="0" width="1024" height="1024"></rect>
            <g id="编组" transform="translate(111, 147)" fill-rule="nonzero">
                <path d="M739.511574,707.110274 C678.790741,19.9539616 630.954091,0 630.95409,0 C585.958566,10.9680715 537.064752,129.304317 537.064752,129.304317 C501.914064,112.720064 438.682468,116.354063 438.682468,116.354063 C438.682468,116.354063 375.450873,112.720063 340.300184,129.304317 C340.300184,129.304317 291.40637,10.9680715 246.410846,0 C246.410846,0 200.292086,19.2932352 141.090926,671.100641 L130.849654,670.902422 L110.961765,670.902422 C109.309947,670.836349 106.204528,670.505986 103.693765,670.043477 C101.050856,669.514895 98.3418743,669.052386 95.7650394,668.259513 C74.3574769,662.775478 56.9803513,648.834133 48.7212606,628.681953 C47.3337337,626.369408 46.8051521,623.528281 45.8140609,620.951445 C44.8890426,618.308536 43.7658064,615.797773 43.3032978,613.088791 L41.2550434,605.093991 C40.8586067,602.451082 40.7264618,599.808173 40.3960981,597.165264 C39.5371527,586.527556 40.528244,575.625557 44.4265339,566.111085 C48.258752,556.596613 54.6017331,547.808941 63.3894054,540.607015 C67.750205,537.039087 72.4413684,533.603306 77.5289674,530.696106 C80.1058034,529.308579 82.6826394,527.85498 85.3916214,526.665669 C87.9684574,525.410287 91.073876,524.220978 92.9899845,523.494179 L94.7739482,522.767379 C100.984784,520.322688 104.817002,513.715416 103.495547,506.909926 C102.774326,503.235513 100.619826,499.999454 97.5080131,497.916646 C94.3962,495.833839 90.5831732,495.075698 86.9112942,495.809708 C82.2862038,496.734726 78.8504224,497.527599 75.0182044,498.716908 C71.2520593,499.840144 67.684132,501.227671 64.1162047,502.681272 C56.9803502,505.654545 49.9766427,509.288544 43.3693697,513.781489 C30.1548249,522.635235 18.1956621,535.056906 10.531227,550.319704 C-4.46728147,581.175665 -2.68331784,616.921008 11.0598086,645.993007 C17.7992264,660.859369 28.5690801,674.47035 41.3871883,685.17413 C54.2052964,696.010057 69.3359497,703.476274 84.9951857,707.771002 C88.8934767,708.960311 92.9239126,709.68711 96.9543474,710.413911 C101.183001,711.074638 105.543802,712.396092 110.631402,712.726456 C117.37082,713.188965 137.390854,715.369365 137.390854,715.369365 C150.14289,716.22831 161.639544,719.003365 174.127288,720.126601 C211.78874,725.478492 287.442007,730.301801 438.748541,729.575 C765.478154,731.160746 739.511574,707.110274 739.511574,707.110274 L739.511574,707.110274 Z M304.290551,334.856557 C285.658043,334.856557 270.52739,319.725904 270.52739,301.093395 C270.52739,282.460886 285.658043,267.330234 304.290551,267.330234 C322.923058,267.330234 338.053712,282.460887 338.053712,301.093395 C338.053712,319.725903 322.923058,334.856557 304.290551,334.856557 Z M485.528028,413.945605 L452.755959,413.945605 C451.879809,413.956286 451.03992,413.596334 450.443413,412.954515 L438.682468,401.19357 L426.921523,412.954515 C426.307543,413.571056 425.478874,413.9262 424.608978,413.945605 L391.836908,413.945605 L391.836908,407.338333 L423.221451,407.338333 L435.709196,394.850589 C436.30385,393.727353 437.493159,393.264843 438.748541,393.264843 C439.805704,393.264843 440.862869,393.66128 441.523595,394.586298 L454.27563,407.338333 L485.660174,407.338333 L485.660174,413.945605 L485.528028,413.945605 Z M573.074386,334.856557 C554.441878,334.856557 539.311225,319.725904 539.311225,301.093395 C539.311225,282.460886 554.441878,267.330234 573.074386,267.330234 C591.706894,267.330234 606.837547,282.460887 606.837547,301.093395 C606.837547,319.725903 591.706894,334.856557 573.074386,334.856557 Z" id="形状" fill="#193762"></path>
                <path d="M270.52739,301.093395 C270.52739,313.155925 276.962404,324.302235 287.408832,330.333549 C297.855261,336.364863 310.725841,336.364863 321.172269,330.333549 C331.618698,324.302235 338.053712,313.155925 338.053712,301.093395 C338.053712,289.030866 331.618698,277.884555 321.172269,271.853241 C310.725841,265.821927 297.855261,265.821927 287.408832,271.853241 C276.962404,277.884555 270.52739,289.030866 270.52739,301.093395 L270.52739,301.093395 Z" id="路径" fill="#FFFFFF"></path>
                <path d="M539.311225,301.093395 C539.311225,313.155925 545.746239,324.302235 556.192667,330.333549 C566.639096,336.364863 579.509676,336.364863 589.956104,330.333549 C600.402533,324.302235 606.837547,313.155925 606.837547,301.093395 C606.837547,289.030866 600.402533,277.884555 589.956104,271.853241 C579.509676,265.821927 566.639096,265.821927 556.192667,271.853241 C545.746239,277.884555 539.311225,289.030866 539.311225,301.093395 L539.311225,301.093395 Z" id="路径" fill="#FFFFFF"></path>
                <path d="M435.643123,394.916661 L423.155378,407.404406 L391.770835,407.404406 L391.770835,414.011678 L424.542905,414.011678 C425.401851,414.011678 426.260796,413.681314 426.85545,413.020587 L438.616395,401.259643 L438.616395,393.330916 C437.427086,393.264843 436.171704,393.793425 435.643123,394.916661 Z" id="路径" fill="#FFFFFF"></path>
                <path d="M450.443413,413.020587 C451.038068,413.615241 451.897013,414.011678 452.755959,414.011678 L485.528028,414.011678 L485.528028,407.404406 L454.143485,407.404406 L441.39145,394.65237 C440.796796,393.727352 439.67356,393.330916 438.616395,393.330916 L438.616395,401.259643 L450.443413,413.020587 L450.443413,413.020587 Z" id="路径" fill="#FFFFFF"></path>
            </g>
        </g>
    </g>
</svg>