<?xml version="1.0" encoding="UTF-8"?>
<svg width="1024px" height="1024px" viewBox="0 0 1024 1024" version="1.1" xmlns="http://www.w3.org/2000/svg" xmlns:xlink="http://www.w3.org/1999/xlink">
    <title>Cookiecloud</title>
    <g id="ICON-新版方图标" stroke="none" stroke-width="1" fill="none" fill-rule="evenodd">
        <g id="Cookiecloud" transform="translate(0, -0.0008)">
            <rect id="蒙版路径" fill="#5BAEFE" x="0" y="-7.27595761e-12" width="1024" height="1024"></rect>
            <g id="箭头" transform="translate(37, 0.0008)" stroke="#000000" stroke-width="30">
                <g id="箭头2" transform="translate(127, 112) scale(1, -1) translate(-127, -112)">
                    <line x1="127" y1="4.17649422e-12" x2="127" y2="224" id="直线"></line>
                    <polyline id="直线" stroke-linecap="round" points="127 3.43154671e-12 75.069621 51.930379 5.83380566e-13 127"></polyline>
                    <polyline id="直线" stroke-linecap="round" transform="translate(190.5, 63.5) scale(-1, 1) translate(-190.5, -63.5)" points="254 3.43154671e-12 202.069621 51.930379 127 127"></polyline>
                </g>
                <g id="箭头1" transform="translate(661, 825)">
                    <line x1="127" y1="1.01420634e-11" x2="127" y2="199" id="直线"></line>
                    <polyline id="直线" stroke-linecap="round" points="127 3.43154671e-12 75.069621 51.930379 5.83380566e-13 127"></polyline>
                    <polyline id="直线" stroke-linecap="round" transform="translate(190.5, 63.5) scale(-1, 1) translate(-190.5, -63.5)" points="254 3.43154671e-12 202.069621 51.930379 127 127"></polyline>
                </g>
            </g>
            <g id="编组-52" transform="translate(150.3495, 150.0021)" fill="#FFFFFF">
                <path d="M290.650474,3.99870974 C319.982006,-1.93220516 340.648673,-1.2655385 352.650474,5.99870974 C360.902656,10.9934513 363.921053,14.4549966 370.785764,27.2268532 C377.650474,39.9987097 369.650474,59.9987097 370.650474,87.9987097 C371.317141,106.665376 377.317141,122.332043 388.650474,134.99871 C399.482476,150.198284 414.482476,160.86495 433.650474,166.99871 C452.818472,173.132469 471.151805,173.132469 488.650474,166.99871 C502.650474,164.99871 514.650474,167.665376 524.650474,174.99871 C539.650474,185.99871 542.650474,199.99871 542.650474,212.99871 C542.650474,219.017875 540.235259,254.354255 575.650474,287.99871 C595.650474,306.99871 610.650474,309.99871 638.650474,309.99871 C667.650474,307.99871 673.650474,299.99871 690.650474,309.99871 C706.650474,320.99871 711.650474,327.99871 714.650474,340.99871 C716.650474,353.99871 719.650474,371.99871 707.650474,426.99871 C704.650474,446.99871 683.650474,519.99871 647.650474,564.99871 C611.650474,609.99871 583.650474,650.99871 477.650474,690.99871 C427.649354,709.867057 364.492959,718.902077 298.650474,706.99871 C261.928265,700.359867 192.650474,682.99871 136.650474,634.99871 C104.039933,607.046818 64.4617537,571.988981 35.6504742,508.99871 C25.8413993,487.553071 -13.3049661,401.57127 4.65047422,309.99871 C13.7752244,263.462578 20.6504742,192.99871 98.6504742,109.99871 C148.650474,56.6653764 212.650474,21.3320431 290.650474,3.99870974 L295.650474,25.9987097 C256.891408,36.5653962 231.558075,44.5653962 219.650474,49.9987097 C170.384251,72.4783713 140.153055,98.0391014 122.650474,115.99871 C39.3059638,201.519515 26.6219656,298.422336 23.6504742,326.99871 C13.9480256,420.30566 62.1762455,517.033071 72.6504742,530.99871 C128.650474,611.99871 165.650474,629.99871 200.650474,651.99871 C287.650474,697.99871 366.650474,690.99871 388.650474,690.99871 C459.650474,684.99871 525.204918,646.236341 534.650474,639.99871 C587.650474,604.99871 603.650474,584.99871 621.650474,562.99871 C662.650474,508.99871 662.650474,496.99871 684.650474,431.99871 C692.475113,400.28711 691.690339,375.573068 692.650474,363.99871 C694.364992,343.330339 686.483967,332.841941 681.650474,329.99871 C666.650474,321.99871 651.650474,334.99871 621.650474,330.99871 C591.650474,326.99871 579.650474,317.99871 569.650474,310.99871 C559.650474,303.99871 535.650474,286.99871 524.650474,250.99871 C516.650474,214.99871 524.650474,206.99871 513.650474,195.99871 C503.987562,186.335798 495.650474,188.99871 477.650474,192.99871 C459.650474,196.99871 433.44902,194.397983 408.650474,181.99871 C392.11811,173.732528 376.451443,158.065861 361.650474,134.99871 C354.505602,121.559677 350.172269,106.893011 348.650474,90.9987097 C346.367782,67.1572582 353.650474,49.9987097 351.650474,40.9987097 C349.650474,31.9987097 345.650474,25.9987097 334.650474,22.9987097 C327.317141,20.9987097 314.317141,21.9987097 295.650474,25.9987097 L290.650474,3.99870974 Z" id="外"></path>
                <path d="M299.650474,73.9987097 C300.983808,123.99871 317.983808,164.665376 350.650474,195.99871 C383.317141,227.332043 424.650474,242.332043 474.650474,240.99871 C483.983808,284.332043 502.983808,317.99871 531.650474,341.99871 C560.317141,365.99871 598.317141,378.665376 645.650474,379.99871 C637.650474,491.99871 577.983808,572.99871 466.650474,622.99871 C299.650474,697.99871 166.650474,572.99871 149.650474,554.99871 C132.650474,536.99871 34.6504742,428.99871 81.6504742,272.99871 C112.983808,168.99871 185.650474,102.665376 299.650474,73.9987097 Z" id="内"></path>
            </g>
            <g id="圆圈" transform="translate(312, 344.0008)" fill="#5CAEFD">
                <circle id="椭圆形" cx="76" cy="41" r="41"></circle>
                <circle id="椭圆形" cx="41" cy="179" r="41"></circle>
                <circle id="椭圆形" cx="213" cy="145" r="41"></circle>
                <circle id="椭圆形" cx="316" cy="283" r="41"></circle>
                <circle id="椭圆形" cx="143" cy="317" r="41"></circle>
            </g>
        </g>
    </g>
</svg>