<svg xmlns="http://www.w3.org/2000/svg" width="1024" height="1024"><g fill="none" fill-rule="evenodd"><path fill="#5BAEFE" d="M0 0h1024v1024H0z"/><g stroke="#000" stroke-width="30"><path d="M164 224V0"/><path stroke-linecap="round" d="m164 224-51.93-51.93L37 97M164 224l51.93-51.93L291 97"/><path d="M825 825v199"/><path stroke-linecap="round" d="m825 825-51.93 51.93L698 952M825 825l51.93 51.93L952 952"/></g><g fill="#FFF"><path d="M441 154c29.332-5.93 49.998-5.264 62 2 8.252 4.995 11.27 8.456 18.135 21.228C528 190 520 210 521 238c.667 18.667 6.667 34.333 18 47 10.832 15.2 25.832 25.866 45 32s37.501 6.134 55 0c14-2 26 .667 36 8 15 11 18 25 18 38 0 6.02-2.415 41.356 33 75 20 19 35 22 63 22 29-2 35-10 52 0 16 11 21 18 24 31 2 13 5 31-7 86-3 20-24 93-60 138s-64 86-170 126c-50.001 18.868-113.158 27.903-179 16-36.722-6.639-106-24-162-72-32.61-27.952-72.189-63.01-101-126-9.81-21.446-48.955-107.427-31-199 9.125-46.536 16-117 94-200 50-53.333 114-88.667 192-106l5 22c-38.76 10.567-64.092 18.567-76 24-49.266 22.48-79.497 48.04-97 66-83.345 85.52-96.029 182.424-99 211-9.702 93.307 38.526 190.034 49 204 56 81 93 99 128 121 87 46 166 39 188 39 71-6 136.554-44.762 146-51 53-35 69-55 87-77 41-54 41-66 63-131 7.825-31.712 7.04-56.426 8-68 1.714-20.668-6.167-31.157-11-34-15-8-30 5-60 1s-42-13-52-20-34-24-45-60c-8-36 0-44-11-55-9.663-9.663-18-7-36-3s-44.201 1.4-69-11c-16.532-8.266-32.2-23.933-47-47-7.145-13.439-11.478-28.106-13-44-2.283-23.841 5-41 3-50s-6-15-17-18c-7.333-2-20.333-1-39 3l-5-22"/><path d="M450 224c1.333 50 18.333 90.667 51 122s74 46.333 124 45c9.333 43.333 28.333 77 57 101s66.667 36.667 114 38c-8 112-67.667 193-179 243-167 75-300-50-317-68s-115-126-68-282c31.333-104 104-170.333 218-199"/></g><g fill="#5CAEFD" transform="translate(312 344)"><circle cx="76" cy="41" r="41"/><circle cx="41" cy="179" r="41"/><circle cx="213" cy="145" r="41"/><circle cx="316" cy="283" r="41"/><circle cx="143" cy="317" r="41"/></g></g></svg>