<svg xmlns="http://www.w3.org/2000/svg" xmlns:xlink="http://www.w3.org/1999/xlink" width="1024" height="1024"><defs><linearGradient id="a" x1="0%" x2="99.145%" y1="50%" y2="50%"><stop offset="0%" stop-color="#00153C"/><stop offset="100%" stop-color="#0A0B0D"/></linearGradient><linearGradient id="b" x1="0%" x2="100%" y1="50%" y2="50%"><stop offset="0%" stop-color="#2990F7"/><stop offset="100%" stop-color="#6B4AE1"/></linearGradient><linearGradient id="c" x1="0%" x2="99.145%" y1="50%" y2="50%"><stop offset="0%" stop-color="#00153C"/><stop offset="100%" stop-color="#0A0B0D"/></linearGradient><circle id="d" cx="282.5" cy="282.5" r="32.5"/></defs><g fill="none" fill-rule="evenodd"><path fill="url(#a)" fill-rule="nonzero" d="M0 0h1024v1024H0z"/><g transform="translate(229 230)"><circle cx="282.5" cy="282.5" r="282.5" fill="url(#b)"/><path fill="url(#c)" d="M453.007 315.128 519 456c-12.119 6.833-22.14 14.517-30.061 23.052-7.923 8.535-14.208 18.418-18.856 29.65L323 456c14.046-34.25 31.386-62.555 52.02-84.914 20.635-22.36 46.63-41.012 77.987-55.958" transform="rotate(180 421 411.915)"/><circle cx="282.5" cy="281.5" r="65.5" fill="url(#a)"/><use xlink:href="#d" fill="#D8D8D8"/><use xlink:href="#d" fill="url(#b)"/><path fill="url(#c)" d="M176.007 54.128 242 195c-12.119 6.833-22.14 14.517-30.061 23.052-7.923 8.535-14.208 18.418-18.856 29.65L46 195c14.046-34.25 31.386-62.555 52.02-84.914 20.635-22.36 46.63-41.012 77.987-55.958"/></g></g></svg>