<svg xmlns="http://www.w3.org/2000/svg" width="1024" height="1024"><defs><linearGradient id="a" x1="0%" x2="99.145%" y1="50%" y2="50%"><stop offset="0%" stop-color="#00153C"/><stop offset="100%" stop-color="#0A0B0D"/></linearGradient><linearGradient id="b" x1="0%" x2="100%" y1="50%" y2="50%"><stop offset="0%" stop-color="#2990F7"/><stop offset="100%" stop-color="#6B4AE1"/></linearGradient><linearGradient id="c" x1="0%" x2="99.145%" y1="50%" y2="50%"><stop offset="0%" stop-color="#00153C"/><stop offset="100%" stop-color="#0A0B0D"/></linearGradient><linearGradient id="d" x1="0%" x2="99.145%" y1="50%" y2="50%"><stop offset="0%" stop-color="#00153C"/><stop offset="100%" stop-color="#0A0B0D"/></linearGradient></defs><g fill="none" fill-rule="evenodd"><path fill="url(#a)" fill-rule="nonzero" d="M0 0h1024v1024H0z"/><path fill="url(#b)" d="M237.517 328.787 502.4 183.714a19 19 0 0 1 18.212-.023l266.522 145.106a19 19 0 0 1 9.915 16.687v311.931a19 19 0 0 1-9.92 16.69L520.607 819.108a19 19 0 0 1-18.202-.023l-264.883-144.97a19 19 0 0 1-9.879-16.667V345.452a19 19 0 0 1 9.874-16.665"/><g fill-rule="nonzero"><path fill="url(#c)" d="m245.778 217.531 224.799 137.073-243.23 140.429-223.99-137.54z" transform="scale(-1 1)rotate(-60 118.303 997.314)"/><path fill="url(#c)" d="m513.778 217.531 224.799 137.073-243.23 140.429-223.99-137.54z" transform="rotate(-60 763.818 343.438)"/><path fill="url(#d)" d="m370.952 0 231.726 125.2-230.726 124.802L141.98 125.199z" transform="translate(140.548 217.75)"/></g></g></svg>