<svg xmlns="http://www.w3.org/2000/svg" width="1024" height="1024"><g fill="none" fill-rule="evenodd"><path fill="#00B51D" d="M0 0h1024v1024H0z"/><g fill-rule="nonzero"><path fill="#000" d="M482.494 180.502c-177.831 0-321.992 144.16-321.992 321.992 0 177.831 144.16 321.992 321.992 321.992 177.831 0 321.992-144.16 321.992-321.992-.272-177.719-144.273-321.72-321.992-321.992m0 87.821c35.52 0 67.543 21.397 81.137 54.214 13.593 32.817 6.08 70.59-19.038 95.707-25.117 25.117-62.89 32.63-95.707 19.038-32.817-13.593-54.214-45.616-54.214-81.137 0-48.502 39.32-87.822 87.822-87.822m21.955 234.356c0 12.126-9.83 21.955-21.955 21.955-12.126 0-21.955-9.83-21.955-21.955 0-12.126 9.83-21.955 21.955-21.955 12.04.033 21.82 9.73 21.955 21.77v.185m-256.126 0c-.074-35.537 21.275-67.617 54.086-81.268 32.81-13.652 70.614-6.184 95.77 18.918 25.155 25.102 32.702 62.89 19.12 95.73-13.582 32.84-45.617 54.257-81.154 54.257-48.502 0-87.822-39.32-87.822-87.822v.185M482.68 737.035c-48.502.203-87.986-38.95-88.19-87.452-.204-48.501 38.949-87.986 87.45-88.191 48.502-.204 87.987 38.949 88.192 87.45 0 48.431-39.207 87.72-87.637 87.823l.185.37m146.349-146.35c-48.503 0-87.822-39.318-87.822-87.821s39.32-87.822 87.822-87.822 87.822 39.32 87.822 87.822c-.204 48.43-39.577 87.554-88.007 87.452l.185.37" opacity=".2"/><path fill="#FFF" d="M463.992 162C286.161 162 142 306.16 142 483.992c0 177.832 144.16 321.992 321.992 321.992 177.832 0 321.992-144.16 321.992-321.992-.271-177.719-144.273-321.72-321.992-321.992m0 87.822c48.503 0 87.822 39.319 87.822 87.821 0 48.503-39.32 87.822-87.822 87.822s-87.821-39.32-87.821-87.822 39.319-87.821 87.821-87.821m21.956 234.355a21.955 21.955 0 1 1-21.956-21.955c12.04.033 21.82 9.73 21.956 21.77v.185m-256.127 0c-.074-35.537 21.275-67.617 54.086-81.268 32.81-13.652 70.615-6.184 95.77 18.918 25.155 25.103 32.703 62.89 19.12 95.73-13.582 32.84-45.616 54.257-81.154 54.257-48.502 0-87.822-39.32-87.822-87.822v.185m234.356 234.357c-48.502.203-87.986-38.95-88.19-87.452-.204-48.502 38.949-87.986 87.45-88.192 48.503-.203 87.987 38.95 88.192 87.451 0 48.43-39.206 87.72-87.637 87.822l.185.37m146.35-146.35c-48.503 0-87.823-39.32-87.823-87.822s39.32-87.821 87.822-87.821c48.503 0 87.822 39.319 87.822 87.821-.204 48.43-39.576 87.554-88.007 87.452l.185.37"/><path fill="#000" d="M693.476 209.796c19.858 19.489 137.468 138.208 123.345 299.605-15.603 176.384-182.366 333.772-405.99 352.829 204.197 0 381.074-110.209 445.213-274.381 51.99-133.151 12.335-257.668-2.775-299.605l-159.793-78.448"/></g></g></svg>