<svg xmlns="http://www.w3.org/2000/svg" width="1024" height="1024"><g fill="none" fill-rule="evenodd"><path fill="#00B51D" d="M0 0h1024v1024H0z"/><path fill="#FFF" fill-rule="nonzero" d="M835.273 170.401H188.196a11.98 11.98 0 0 0-11.98 11.981v47.929c0 6.616 5.364 11.98 11.98 11.98h647.077c6.617 0 11.98-5.363 11.98-11.98v-47.929c0-6.617-5.363-11.98-11.98-11.98m0 610.765h-165.37l49.43-156.353h61.344c6.617 0 11.98-5.364 11.98-11.981V322.579a11.975 11.975 0 0 0-11.98-11.98H242.792c-6.616 0-11.98 5.363-11.98 11.98v290.253c0 6.616 5.359 11.98 11.98 11.98H622.15l-49.436 156.354H436.01L399.76 666.53c-2.088-6.622-9.147-11.98-15.764-11.98h-73.244c-6.616 0-10.286 5.358-8.186 11.98l36.243 114.637H188.196a11.98 11.98 0 0 0-11.98 11.98v47.935c0 6.617 5.364 11.981 11.98 11.981h647.077a11.98 11.98 0 0 0 11.98-11.98v-47.935c0-6.617-5.363-11.98-11.98-11.98M344.641 537.602V397.798c0-6.617 5.359-11.981 11.98-11.981h310.221c6.616 0 11.981 5.37 11.981 11.98v139.805a11.98 11.98 0 0 1-11.98 11.98H356.62a11.98 11.98 0 0 1-11.98-11.98"/></g></svg>