<svg xmlns="http://www.w3.org/2000/svg" width="1025" height="1024"><g fill="none" fill-rule="evenodd"><path fill="#FFF" d="M.26 0h1024v1024H.26z"/><path fill="#409EFF" d="M827.771 666.981c0 29.734-15.719 36.552-15.719 36.552L526.645 868.301a32.007 32.007 0 0 1-28.598 0s-280.294-162.874-290.52-170.45a24.431 24.431 0 0 1-10.417-18.938V342.56c0-14.772 18.939-25.189 18.939-25.189l279.347-161.926a37.878 37.878 0 0 1 33.9 0L803.151 314.72c15.467 6.552 25.004 22.269 23.674 39.014V666.98h.946M716.033 345.022l-192.418-111.17a30.113 30.113 0 0 0-26.704 0L277.03 359.793s-14.582 8.712-14.395 20.454c.192 11.742 0 263.628 0 263.628a18.946 18.946 0 0 0 8.146 14.204c8.144 5.682 227.265 132.572 227.265 132.572a24.81 24.81 0 0 0 22.537 0c13.636-7.576 223.667-128.595 223.667-128.595s12.31-5.303 12.31-28.597v-65.718L510.358 717.358v-57.384a57.763 57.763 0 0 1 18.94-39.203l218.742-131.246a46.21 46.21 0 0 0 10.417-27.65v-58.9L510.168 552.97v-60.604a42.044 42.044 0 0 1 15.72-33.9l190.145-113.444M907.087 135.855a7.386 7.386 0 0 0-7.007-7.955h-51.135V76.008c0-3.03-4.924-4.167-10.037-4.167l-27.84 4.546c-3.41 0-5.871 2.272-5.871 4.356V127.9H754.25a7.576 7.576 0 0 0-6.818 7.008v37.877h56.817v53.597c0 3.03 4.924 5.113 10.227 4.356l28.597-4.735c3.41 0 5.493-2.462 5.493-4.356v-49.43h56.816l1.704-36.362"/></g></svg>