<?xml version="1.0" encoding="UTF-8"?>
<svg width="1024px" height="1024px" viewBox="0 0 1024 1024" version="1.1" xmlns="http://www.w3.org/2000/svg" xmlns:xlink="http://www.w3.org/1999/xlink">
    <title>Esxi</title>
    <g id="ICON-新版方图标" stroke="none" stroke-width="1" fill="none" fill-rule="evenodd">
        <g id="Esxi">
            <rect id="蒙版路径" fill="#FFFFFF" x="0" y="0" width="1024" height="1024"></rect>
            <path d="M807,150 C835.485833,152.322168 868.161888,180.035462 871,210 C873.210416,260.839572 873,511 871,623 C870,648 829.60009,675.544269 807,678 C789.327732,679.920273 748.994399,679.920273 686,678 C686.666667,746 686.666667,789.333333 686,808 C685,830 654.135437,865.706789 625,869 C498,869 352,870 221,869 C186.9827,865.839048 161.467188,842.104433 158,808 C157,692 157,466 158,407 C160.563502,375.189995 190.805388,347.037734 221,343 C262.333333,343 304,343 346,343 C345.333333,285 345.333333,240.666667 346,210 C348.889011,183.65065 375.192952,152.52184 404,150 C546,149 639,148 807,150 Z" id="矩形" fill="#83B347"></path>
            <path d="M751,245 C769.801927,246.532735 779.126719,255.222062 781,275 C782.141868,301.262964 780,491 781,565 C779.767556,585.309 757.66667,592.275598 751,593 C739.335511,594.267466 687.335511,594.267466 595,593 C595.666667,687 595.666667,740.666667 595,754 C592.917492,771.179071 587.230694,780.826333 568,783 C481,784 281.133379,788.329216 278,785 C269,783 251.288499,776.510454 249,754 C248.339955,677.434801 247.339955,506.942644 248,468 C249.692026,447.003971 264.230761,437.972793 280,436 C302.666667,435.333333 354,435.333333 434,436 C433.55997,348.908041 433.55997,295.241374 434,275 C435.906877,257.608248 444.986057,246.664527 464,245 C557.726364,244.339955 640.11247,243.67991 751,245 Z" id="矩形" fill="#FFFFFF"></path>
            <path d="M692.814895,319.658065 C704.126464,320.580185 709.736422,325.807836 710.863421,337.70659 C711.550389,353.506849 710.398382,463.480304 711,508 C710.25854,520.21825 699,529 690,529 C682.982439,529.76253 628.982439,529.76253 528,529 C528.401078,632.311767 528.401078,687.978433 528,696 C526.747127,706.33523 513.569522,719.692284 502,721 C449.659277,721.601618 343.885096,723.002914 342,721 C336.585442,719.796765 319.376801,709.542684 318,696 C317.602905,649.937036 317.602905,561.428577 318,538 C319.017953,525.368422 332.51295,513.186867 342,512 C355.636664,511.598922 408.969997,511.598922 502,512 C501.803367,407.981959 501.837416,349.884155 502.102145,337.70659 C503.249356,327.243408 508.71155,320.659474 520.15067,319.658065 C576.538092,319.26097 626.103016,318.863876 692.814895,319.658065 Z" id="矩形" fill="#F7C440"></path>
        </g>
    </g>
</svg>