<svg xmlns="http://www.w3.org/2000/svg" width="1025" height="1024"><g fill="none" fill-rule="evenodd"><path fill="#FFF" d="M.26 0h1024v1024H.26z"/><g fill-rule="nonzero"><path fill="#133C9A" d="M809.126 409.545c3.542 0 7.03.212 10.572.582a296.268 296.268 0 0 1 78.652 21.724c7.295 3.278 9.092 5.92 2.854 12.528a253.862 253.862 0 0 0-44.083 65.015c-12.157 25.53-25.372 50.48-37.793 75.904a162.802 162.802 0 0 1-37.688 50.162c-38.745 35.045-83.938 49.845-135.528 42.71-59.2-8.194-115.23-28.174-168.193-54.55a103.707 103.707 0 0 1-7.56-3.965 3.865 3.865 0 0 1-1.807-3.39 3.865 3.865 0 0 1 2.02-3.27l3.7-1.955c42.814-22.888 78.652-54.814 113.115-88.379 14.59-14.113 28.544-28.913 43.29-42.867a249.33 249.33 0 0 1 115.76-62.003c9.514-2.325 19.187-4.176 28.754-6.237h.423l20.403-1.85"/><path fill="#3370FF" d="M394.562 823.634c-6.502-.37-22.518-2.59-24.473-2.854a387.66 387.66 0 0 1-119.3-34.886c-21.831-10.202-42.816-22.2-63.853-33.935-13.849-7.717-20.086-19.716-19.98-36.05.423-60.257.423-120.515 0-180.773-.212-38.745-1.427-77.49-1.956-116.288 0-3.435.529-6.871 1.586-10.043 2.378-7.03 7.188-7.4 11.946-2.854 5.497 5.286 9.884 11.735 15.328 16.915 48.63 47.995 100.272 91.92 158.098 128.074a872.736 872.736 0 0 0 101.487 55.924c56.188 25.53 113.856 48.048 174.22 62.32 53.386 12.632 105.24 4.65 148.478-29.178 13.214-11.312 19.716-19.558 35.362-40.384a260.06 260.06 0 0 1-27.01 52.647c-10.044 15.857-32.773 37-50.004 53.545-26.218 25.372-60.523 45.933-92.713 63.27-35.098 18.924-71.57 34.041-110.526 42.287-19.98 5.022-48.84 10.73-58.778 11.259-1.744-.106-7.717 1.215-10.73 1.004-25.689 1.903-41.546 2.643-67.13 0h-.052"/><path fill="#00D6B9" d="M284.3 243.096a37.9 37.9 0 0 1 5.392 0c110.314 0 219.783 1.797 329.991 1.797.212 0 .423 0 .529.159a253.697 253.697 0 0 1 28.385 29.019c24.896 24.737 43.449 67.658 56.135 93.77 6.343 18.077 15.857 35.309 20.35 55.5v.317c-11.259 3.648-22.2 8.088-32.772 13.374-31.926 16.174-46.41 28.014-72.838 54.02-14.43 14.113-26.746 26.8-45.88 44.877a407.111 407.111 0 0 1-21.514 19.451c-5.074-8.986-90.862-176.756-263.232-308.795"/></g></g></svg>