<svg xmlns="http://www.w3.org/2000/svg" width="1024" height="1024"><g fill="none" fill-rule="evenodd"><path fill="#FFF" d="M0 0h1024v1024H0z"/><g fill="#000"><path d="M512 160h350v352.229c-109.979-5.944-193.577-41.613-250.796-107.006C552.499 344.289 519.43 262.548 512 160M162 864.459h350v-352.23c-109.979 5.945-193.577 41.614-250.796 107.007C202.499 680.17 169.43 761.91 162 864.459"/><path d="M512 864.459h350v-352.23c-109.979 5.945-193.577 41.614-250.796 107.007C552.499 680.17 519.43 761.91 512 864.459M162 160h350v352.229c-109.979-5.944-193.577-41.613-250.796-107.006C202.499 344.289 169.43 262.548 162 160"/></g></g></svg>