<svg xmlns="http://www.w3.org/2000/svg" width="1024" height="1024"><g fill="none" fill-rule="evenodd"><path fill="#FFF" d="M0 0h1024v1024H0z"/><circle cx="511.5" cy="512.5" r="243.5" fill="#D8D8D8" stroke="#333" stroke-width="50"/><path fill="#FFF" d="M237 392h549v240H237z"/><path fill="#28ABE1" d="M808 557H592v59h172.801z"/><path fill="#0071BE" d="M865 483H649v59h172.801z"/><path fill="#003B7F" d="M924 409H708v59h172.801z"/><path fill="#28ABE1" d="M217 557h216v59H260.199z"/><path fill="#0071BE" d="M160 483h216v59H203.199z"/><path fill="#003B7F" d="M101 409h216v59H144.199z"/><circle cx="514" cy="517" r="225" fill="#FFF"/><g fill="#333" fill-rule="nonzero"><path d="m469.8 445.2-66.4 67.4v-67.4H380V588h23.4v-49.2l17.4-17 56.4 66.2h31.6l-72.2-81.6 62.8-61.2zM532.133 440.362v152.476h24.986v-67.482h88.858V504h-88.858v-42.283h111.796v-21.355z"/></g></g></svg>