<svg xmlns="http://www.w3.org/2000/svg" xmlns:xlink="http://www.w3.org/1999/xlink" width="1025" height="1024"><defs><path id="a" d="M0 0h740v740H0z"/></defs><g fill="none" fill-rule="evenodd"><path fill="#FFF" d="M.061 0h1024v1024H.061z"/><g transform="translate(142.061 142)"><mask id="b" fill="#fff"><use xlink:href="#a"/></mask><path fill="#F03C2E" fill-rule="nonzero" d="M726.06 337.05 402.958 13.973a47.66 47.66 0 0 0-67.422 0l-67.069 67.1 85.092 85.092a56.615 56.615 0 0 1 58.226 13.562 56.647 56.647 0 0 1 13.441 58.604l82.04 82.016a56.6 56.6 0 0 1 58.612 13.465 56.696 56.696 0 0 1 0 80.188c-22.168 22.144-58.084 22.144-80.252 0-16.17-16.198-21.024-40.527-12.305-61.69l-76.507-76.482v201.31a56.696 56.696 0 0 1 14.979 90.923 56.696 56.696 0 0 1-80.187 0 56.696 56.696 0 0 1 0-80.196 56.857 56.857 0 0 1 18.555-12.394V272.309a56.768 56.768 0 0 1-30.764-74.365l-83.9-83.916L13.932 335.536c-18.59 18.626-18.59 48.788 0 67.414L337.05 726.068c18.625 18.585 48.78 18.585 67.406 0L726.06 404.464c18.59-18.626 18.59-48.788 0-67.414" mask="url(#b)"/></g></g></svg>