<svg xmlns="http://www.w3.org/2000/svg" width="1025" height="1024"><g fill="none" fill-rule="evenodd"><path fill="#FFF" d="M.061 0h1024v1024H.061z"/><g fill-rule="nonzero"><path fill="#E24329" d="m512.036 834.73 128.958-396.67H383.267z"/><path fill="#FCA326" d="m202.64 438.062-39.27 120.513c-3.554 10.943.283 23.022 9.663 29.843L512.038 834.73 202.64 438.062"/><path fill="#E24329" d="M202.64 438.062h180.627L305.53 199.167c-3.979-12.223-21.318-12.223-25.44 0l-77.45 238.895"/><path fill="#FCA326" d="m821.623 438.062 39.13 120.513c3.553 10.943-.284 23.022-9.664 29.843L512.036 834.73l309.587-396.668"/><path fill="#E24329" d="M821.623 438.062H640.996l77.594-238.895c3.979-12.223 21.318-12.223 25.44 0l77.593 238.895"/><path fill="#FC6D26" d="M821.623 438.062 512.036 834.73l128.958-396.668z"/><path fill="#FC6D26" d="m383.267 438.062 128.77 396.668L202.64 438.062z"/></g></g></svg>