<svg xmlns="http://www.w3.org/2000/svg" width="1025" height="1024"><g fill="none" fill-rule="evenodd"><path fill="#FFF" d="M.398 0h1024v1024H.398z"/><g fill-rule="nonzero"><path fill="#EA4335" d="M232.118 271.377c171.986-200.136 490.921-160.639 610.121 73.229H555.71c-51.614 0-84.945-1.172-121.05 17.821-42.426 22.354-74.43 63.762-85.623 112.386L232.118 271.408v-.03"/><path fill="#4285F4" d="M389.674 512.49c0 67.833 55.16 123.024 122.961 123.024 67.833 0 122.962-55.19 122.962-123.023s-55.16-123.023-122.962-123.023c-67.832 0-122.961 55.19-122.961 123.023"/><path fill="#34A853" d="M560.365 673.531c-69.035 20.504-149.787-2.25-194.032-78.624-33.793-58.274-123.023-213.734-163.568-284.403-142.047 217.68-19.61 514.386 238.246 565.013l119.323-201.986h.03"/><path fill="#FBBC05" d="M626.84 389.468c57.238 53.432 70.115 139.257 31.08 207.135-29.322 50.566-122.962 208.615-168.348 285.143 265.687 16.372 459.41-244.012 371.907-492.31H626.84v.032"/></g></g></svg>