<svg xmlns="http://www.w3.org/2000/svg" width="1024" height="1024"><defs><linearGradient id="a" x1="50%" x2="50%" y1="-.138%" y2="53.935%"><stop offset="0%" stop-color="#0048AF"/><stop offset="100%" stop-color="#003580"/></linearGradient><linearGradient id="b" x1="100%" x2="100%" y1="-1.401%" y2="101.401%"><stop offset="0%" stop-color="#0B89FF"/><stop offset="100%" stop-color="#004EB2"/></linearGradient></defs><g fill="none" fill-rule="evenodd"><path fill="#FFF" d="M0 0h1024v1024H0z"/><g fill-rule="nonzero"><path fill="url(#a)" d="M340 550.166a34.79 34.79 0 0 0 10.248 24.653A34.958 34.958 0 0 0 374.977 585l39.171-.07c19.258-.035 34.852-15.62 34.852-34.833V34.833a34.792 34.792 0 0 0-10.226-24.63A34.955 34.955 0 0 0 414.085 0h-39.17c-9.26 0-18.14 3.67-24.689 10.202A34.792 34.792 0 0 0 340 34.833v515.333" transform="translate(287 220)"/><path fill="#0051B0" d="M700.113 436a34.898 34.898 0 0 1 24.67 10.212A34.856 34.856 0 0 1 735 470.866v299.268a34.856 34.856 0 0 1-10.218 24.654A34.901 34.901 0 0 1 700.113 805h-39.02a34.898 34.898 0 0 1-24.668-10.212 34.854 34.854 0 0 1-10.218-24.654V599.178a34.852 34.852 0 0 0-10.219-24.653 34.896 34.896 0 0 0-24.668-10.212H287V436h413.113"/><path fill="url(#b)" d="M0 550.178a34.778 34.778 0 0 0 10.252 24.649A34.962 34.962 0 0 0 34.99 585l39.17-.083c19.254-.042 34.841-15.62 34.841-34.823V34.906C109 15.703 93.413.125 74.16.084L34.988 0a34.965 34.965 0 0 0-24.737 10.173A34.778 34.778 0 0 0 0 34.823v515.355" transform="translate(287 220)"/></g></g></svg>