<svg xmlns="http://www.w3.org/2000/svg" width="1024" height="1024"><g fill="none" fill-rule="evenodd"><path fill="#FFF" d="M0 0h1024v1024H0z"/><g transform="translate(142 142)"><ellipse cx="373.195" cy="225.217" fill="#000" rx="223.661" ry="225.217"/><ellipse cx="516.339" cy="514.783" fill="#000" rx="223.661" ry="225.217"/><ellipse cx="223.661" cy="514.783" fill="#000" rx="223.661" ry="225.217"/><path stroke="#FFF" stroke-linecap="square" stroke-width="25" d="M386.314 683.836c82.557-85.33 98.029-177.832 46.416-277.509-51.612-99.676-143.93-139.887-276.954-120.632"/><path stroke="#FFF" stroke-linecap="round" stroke-width="25" d="M323.661 45.433c-17.24 3.824-38.083 16.24-62.531 37.246-24.448 21.006-43.633 45.384-57.557 73.133"/><path stroke="#FFF" stroke-linecap="square" stroke-width="25" d="M596.857 302.319c-32.498 117.027-103.58 175.445-213.247 175.255-109.667-.19-190.87-66.845-243.61-199.967"/><path stroke="#FFF" stroke-linecap="square" stroke-width="25" d="M358.369 683.836c-78.321-85.368-93-177.913-44.035-277.634C363.3 306.48 450.881 266.25 577.08 285.514"/></g></g></svg>