<?xml version="1.0" encoding="UTF-8"?>
<svg width="1024px" height="1024px" viewBox="0 0 1024 1024" version="1.1" xmlns="http://www.w3.org/2000/svg" xmlns:xlink="http://www.w3.org/1999/xlink">
    <title>Hdarea.pt</title>
    <defs>
        <linearGradient x1="100%" y1="36.3412691%" x2="-6.78621995e-14%" y2="71.1467002%" id="linearGradient-1">
            <stop stop-color="#E3C300" offset="0%"></stop>
            <stop stop-color="#FA7501" offset="100%"></stop>
        </linearGradient>
    </defs>
    <g id="ICON-新版方图标" stroke="none" stroke-width="1" fill="none" fill-rule="evenodd">
        <g id="Hdarea.pt" transform="translate(0, -0.0008)">
            <rect id="蒙版路径" fill="#FFFFFF" x="0" y="0" width="1024" height="1024"></rect>
            <g id="编组" transform="translate(142, 215.0007)">
                <path d="M462.950617,254.817478 L463.304348,546.880353 L340.973535,546.880353 L340.973535,357.502779 C291.82826,366.280981 234.856632,390.569042 170.058653,430.366962 C105.260673,470.164882 48.5744555,524.900561 0,594.574 C33.5445593,493.586225 80.5393948,421.551951 140.984506,378.471178 C184.733842,347.28991 251.736175,307.323094 344.600004,278.09362 C368.226019,270.657184 407.676223,262.89847 462.950617,254.817478 Z" id="矩形" fill="url(#linearGradient-1)"></path>
                <path d="M29.6,8.71658485e-05 L161.46328,8.71658485e-05 L161.46328,293.034131 C191.797268,269.211512 221.727123,249.19252 251.252846,232.977156 C280.778568,216.761792 311.056498,203.715001 342.086634,193.836782 L342.086634,8.71658485e-05 L463.304348,8.71658485e-05 L463.304348,237.323374 C382.825082,244.846421 306.029263,269.064375 232.916892,309.977239 C159.804521,350.890102 92.0322235,409.291921 29.6,485.182696 L29.6,8.71658485e-05 Z" id="矩形" fill="#000000"></path>
                <path d="M477.14025,547 C492.447869,547 504.686598,546.962665 522.200282,547 C655.727139,516.72687 750.191668,409.061253 750.191668,273.383425 C750.191668,137.524515 649.048551,25.4786528 522.200282,0 C504.045854,0.231149863 491.934869,0 476.808332,0 C476.86644,33.7262138 476.918324,76.490431 476.963986,128.292652 L522.426261,128.48517 L522.200282,39.8807724 C578.017554,51.7689062 624.175097,81.3037055 660.672911,128.48517 C686.907539,162.399206 712.859402,214.771503 712.859402,273.5 C712.859402,332.228497 686.524132,392.553405 656.195733,429.909716 C617.372899,477.728852 572.783075,505.30674 522.426261,512.64338 L522.426261,429.909716 L477.14025,429.909716 C477.14025,481.835146 477.14025,520.865241 477.14025,547 Z" id="G" fill="#000000"></path>
            </g>
        </g>
    </g>
</svg>