<svg xmlns="http://www.w3.org/2000/svg" width="1024" height="1024"><defs><linearGradient id="a" x1="100%" x2="0%" y1="36.341%" y2="71.147%"><stop offset="0%" stop-color="#E3C300"/><stop offset="100%" stop-color="#FA7501"/></linearGradient></defs><g fill="none" fill-rule="evenodd"><path fill="#FFF" d="M0 0h1024v1024H0z"/><path fill="url(#a)" d="m462.95 254.817.354 292.063h-122.33V357.503c-49.146 8.778-106.117 33.066-170.915 72.864C105.26 470.165 48.574 524.901 0 594.574c33.545-100.988 80.54-173.022 140.985-216.103 43.749-31.181 110.751-71.148 203.615-100.377 23.626-7.437 63.076-15.196 118.35-23.277" transform="translate(142 215)"/><path fill="#000" d="M171.6 215h131.863v293.034c30.334-23.823 60.264-43.842 89.79-60.057 29.526-16.215 59.803-29.262 90.834-39.14V215h121.217v237.323c-80.479 7.523-157.275 31.741-230.387 72.654S234.032 624.292 171.6 700.183V215M619.14 762c15.308 0 27.547-.037 45.06 0 133.527-30.273 227.992-137.939 227.992-273.617C892.192 352.524 791.049 240.48 664.2 215c-18.154.231-30.265 0-45.392 0 .058 33.726.11 76.49.156 128.293l45.462.192-.226-88.604c55.818 11.888 101.975 41.423 138.473 88.604 26.235 33.914 52.186 86.286 52.186 145.015 0 58.728-26.335 119.053-56.663 156.41-38.823 47.819-83.413 75.397-133.77 82.733V644.91H619.14V762"/></g></svg>