<?xml version="1.0" encoding="UTF-8"?>
<svg width="1025px" height="1024px" viewBox="0 0 1025 1024" version="1.1" xmlns="http://www.w3.org/2000/svg" xmlns:xlink="http://www.w3.org/1999/xlink">
    <title>Home.assistant</title>
    <g id="ICON-新版方图标" stroke="none" stroke-width="1" fill="none" fill-rule="evenodd">
        <g id="Home.assistant" transform="translate(0.6332, 0)">
            <rect id="蒙版路径" fill="#18BCF2" x="0" y="0" width="1024" height="1024"></rect>
            <g id="编组" transform="translate(252, 263)" fill="#FFFFFF" fill-rule="nonzero">
                <path d="M233.732349,10.6730004 C248.353033,-3.5576668 271.646966,-3.5576668 286.26765,10.6730004 L492.334882,212.761003 C509.999348,230.014471 519.971156,253.654826 520,278.347228 L520,467.597479 C520,484.059171 506.4043,497.419398 489.634691,497.419398 L280.251435,497.419398 L280.251435,431.997588 L377.245149,336.875059 C381.769153,338.414642 386.624761,339.267334 391.693541,339.267334 C415.947891,339.267334 435.607178,320.010707 435.607178,296.230074 C435.607178,272.449441 415.947891,253.169128 391.693541,253.169128 C367.462877,253.169128 347.803589,272.449442 347.803589,296.230074 C347.803589,301.204111 348.656281,305.941288 350.243236,310.394236 L280.27512,378.988569 L280.27512,201.912866 C294.297167,194.736041 303.913637,180.358707 303.913638,163.731213 C303.913638,139.950581 284.25435,120.670267 260,120.670267 C235.769336,120.670267 216.110048,139.950581 216.110048,163.731213 C216.110048,180.335021 225.702833,194.736041 239.748565,201.912866 L239.748565,451.846363 L169.756764,383.252029 C171.343719,378.822768 172.220096,374.061904 172.220096,369.111554 C172.220096,345.330922 152.560809,326.050608 128.306459,326.050608 C104.075795,326.050608 84.4165072,345.330922 84.4165072,369.111554 C84.4165072,392.892186 104.075795,412.148813 128.306459,412.148813 C133.375239,412.148813 138.230846,411.296121 142.754851,409.780224 L232.121709,497.419398 L30.388995,497.419398 C13.7714518,497.575774 0.16922561,484.238595 0,467.621165 L0,278.323542 C0,253.713904 9.94807324,230.146445 27.7124898,212.737317 L233.732349,10.6493143 L233.732349,10.6730004 Z" id="路径"></path>
            </g>
        </g>
    </g>
</svg>