<svg xmlns="http://www.w3.org/2000/svg" width="1025" height="1024"><defs><linearGradient id="a" x1="26.88%" x2="105.061%" y1="25.165%" y2="64.223%"><stop offset="0%" stop-color="#00F9E4"/><stop offset="100%" stop-color="#4954FF"/></linearGradient><linearGradient id="b" x1="72.957%" x2="-5.207%" y1="25.088%" y2="64.141%"><stop offset="0%" stop-color="#00F9E4"/><stop offset="100%" stop-color="#4954FF"/></linearGradient></defs><g fill="none" fill-rule="evenodd"><path fill="#FFF" d="M.633 0h1024v1024H.633z"/><path fill="#00F9E5" d="M793.846 541.557c4.339 5.424 6.508 13.017 6.508 20.61-6.508 150.777-132.336 271.181-286.367 271.181-154.03 0-279.859-120.404-286.367-271.18 0-7.594 2.17-15.187 6.508-20.61l255.995-336.265c13.017-17.356 39.05-17.356 52.067 0l251.656 336.264"/><path fill="#FFF" d="M421.786 653.284c-57.49 52.067-147.523 47.728-199.59-9.763-52.066-57.49-47.727-145.353 9.763-197.42 57.49-52.066 147.522-47.727 199.59 9.763 52.066 57.49 47.727 145.353-9.763 197.42"/><path fill="#1E1E1E" d="M276.433 493.83c-30.373 27.118-32.542 72.676-6.509 103.048l1.085 1.085c28.203 30.372 74.846 32.542 105.218 5.424 9.763-8.678 17.356-19.525 20.61-32.542 1.085 0-120.404-77.015-120.404-77.015"/><path fill="url(#a)" d="M12.746 34.711c-4.34 4.34-8.678 7.593-11.932 11.932-1.085 1.085-1.085 2.17 0 3.254l229.961 146.438c1.085 1.085 3.254 0 4.339-1.085 22.78-52.066 11.932-113.896-29.288-154.03C178.708 14.1 141.828 0 104.947 0 72.405 0 38.779 11.932 12.746 34.711" transform="translate(221.296 410.197)"/><path fill="#FFF" d="M604.02 653.284c57.49 52.067 147.522 47.728 199.589-9.763 52.066-57.49 47.727-145.353-9.763-197.42-58.575-52.066-147.522-47.727-199.59 9.763-52.066 57.49-47.727 145.353 9.763 197.42"/><path fill="#1E1E1E" d="M749.372 493.83c30.373 27.118 32.542 72.676 6.509 103.048l-1.085 1.085c-28.203 30.372-74.846 32.542-105.218 5.424-9.763-8.678-17.356-19.525-20.61-32.542-1.085 0 120.404-77.015 120.404-77.015"/><path fill="url(#b)" d="M40.74 41.22C.606 81.354-11.326 143.184 11.453 195.25c1.085 1.085 2.17 2.17 3.254 1.085L245.753 49.897c1.085-1.084 1.085-2.17 1.085-3.254-3.254-4.339-7.593-7.593-11.932-11.932C207.788 11.932 175.246 0 141.62 0 103.654 0 67.859 14.101 40.74 41.22" transform="translate(558.029 410.197)"/><path fill="#0C6066" d="M793.466 634.258c-22.779 24.949-54.236 40.135-88.947 41.22-33.626 2.169-67.253-9.763-92.202-32.542-9.762-8.678-18.44-19.525-24.948-30.373l214.775-136.675c34.711 47.728 32.542 113.896-8.678 158.37M700.18 747.069c-50.982 47.728-117.15 74.846-187.657 74.846s-136.675-26.033-187.657-74.846c-16.271-15.186-30.373-32.542-42.305-52.067 14.102 4.34 29.288 6.509 44.474 6.509 36.88 0 73.761-13.017 103.049-39.05 15.186-14.102 28.203-30.373 36.88-49.898 0-1.084 1.085-1.084 1.085-2.169 8.678-19.525 13.017-40.135 13.017-60.745 0-37.965-15.186-77.015-44.474-107.387-13.017-13.017-27.118-22.78-43.389-30.373h-1.085c-1.084 0-1.084-1.084-2.169-1.084-9.762-4.34-20.61-7.593-31.457-9.763l139.93-190.911c3.254-4.34 8.677-7.593 15.186-7.593 5.423 0 11.932 3.254 15.186 7.593l137.76 189.827c-10.848 2.169-21.695 5.423-32.542 10.847-1.085 0-1.085 1.084-2.17 1.084h-1.084c-16.271 7.594-30.373 17.356-43.39 30.373-44.473 44.473-56.405 110.642-31.456 168.132 0 1.085 1.085 1.085 1.085 2.17 8.677 18.44 21.694 35.795 36.88 49.897 29.288 26.033 66.168 39.05 103.049 39.05 15.186 0 29.287-2.17 43.389-6.509-9.763 19.525-24.949 36.881-40.135 52.067M222.902 475.89l214.775 136.674c-6.508 10.848-15.186 21.695-24.949 30.373-24.948 22.779-58.575 34.71-92.201 32.541-33.627-2.169-65.084-16.27-88.948-41.22-40.134-44.473-42.304-110.64-8.677-158.369m19.525-20.61c23.863-20.61 54.236-31.457 84.608-31.457 29.288 0 57.49 9.763 81.354 28.203 3.255 2.17 6.509 5.424 9.763 8.678l8.678 8.678 1.084 1.085 6.509 9.762 1.084 1.085c2.17 3.254 4.34 6.508 5.424 9.762l1.085 1.085c1.085 3.254 3.254 6.508 4.339 9.763l1.084 2.169 3.255 9.763 1.084 2.169c2.17 6.508 3.254 14.101 4.34 21.694v2.17a58.982 58.982 0 0 1 0 19.525v2.17c-1.086 8.677-3.255 18.44-5.424 27.118L241.342 456.363s0-1.085 1.085-1.085m456.668-31.457c30.373 0 60.745 10.848 84.609 31.457 1.085 0 1.085 1.085 1.085 1.085L576.522 588.7c-3.255-8.678-4.34-17.356-5.424-27.119V547.48c0-4.339 0-7.593 1.085-11.932 2.17-15.186 6.508-30.372 13.016-44.474l1.085-1.084c2.17-3.255 3.254-6.509 5.424-9.763l1.084-1.085 6.509-9.762s0-1.085 1.084-1.085c2.17-3.254 5.424-6.508 7.594-8.678 3.254-3.254 6.508-5.423 9.762-8.677 22.78-18.44 52.067-27.119 81.354-27.119m116.066 26.034c0-1.085-1.085-1.085-1.085-2.17L801.06 434.67c-1.084-1.085-2.169-2.17-4.338-3.254l-2.17-1.085c-8.678-6.509-18.44-13.017-28.203-17.356-1.084 0-1.084-1.085-2.17-1.085-4.338-2.169-7.592-3.254-11.931-5.423-17.356-6.508-35.796-9.763-55.321-9.763L550.488 194.945c-8.678-10.848-21.694-18.44-35.796-18.44-14.101 0-27.118 6.508-35.796 17.355L329.204 397.788c-23.863 0-46.643 4.339-68.337 14.101-1.085 0-1.085 1.085-2.17 1.085-5.423 2.17-9.762 5.424-14.101 7.593l-13.017 9.763-2.17 2.17c-1.084 1.084-2.169 2.169-4.338 3.253l-13.017 13.017s-1.084 1.085-1.084 2.17c-50.982 57.49-50.982 144.268 2.169 202.843 8.678 9.762 19.525 18.44 30.372 24.949 15.186 33.626 36.88 62.914 63.999 87.862 55.32 53.152 127.997 81.355 205.013 81.355 77.015 0 149.692-29.288 205.013-81.355 26.033-24.948 47.728-54.236 62.914-87.862 11.932-7.593 22.779-16.271 31.457-26.034 54.236-58.575 54.236-145.353 3.254-202.843"/></g></svg>