<svg xmlns="http://www.w3.org/2000/svg" width="1024" height="1024"><g fill="none" fill-rule="evenodd"><path fill="#FFF" d="M0 0h1024v1024H0z"/><path fill="#020B48" fill-rule="nonzero" d="M491.28 246.88 689.76 308c8 2.24 8 5.84 0 8l-104 24a28 28 0 0 1-24.48-7.2l-72.64-78.4c-6.72-6.4-5.28-9.68 2.64-7.52m123.68 356.16c2.16 8-2.88 12.24-10.8 10.08l-214.32-66.24c-8-2.16-9.44-8.64-3.6-14.32l164-152.56c5.84-5.76 12.32-3.6 14.4 4.24zm-353.2-194.32 174.16-161.84c6.078-5.448 15.42-4.947 20.88 1.12l87.2 93.84c5.573 5.949 5.287 15.284-.64 20.88l-174.4 161.84c-5.97 5.552-15.306 5.23-20.88-.72l-87.04-94.16c-5.561-5.997-5.24-15.359.72-20.96M304 665.6l-45.76-202.16c-2.16-8 1.44-9.44 6.48-3.6l72.64 78.4a28.72 28.72 0 0 1 5.84 25.2l-32 102.16c-1.92 7.84-5.52 7.84-7.2 0m254.88 117.92-227.36-69.76c-7.851-2.461-12.319-10.723-10.08-18.64L360 572.8c2.39-7.91 10.713-12.41 18.64-10.08l226.96 69.76c8.01 2.288 12.66 10.623 10.4 18.64l-38.48 122.32c-2.461 7.851-10.723 12.319-18.64 10.08M760 618.08 608 759.12c-5.76 5.76-8.64 3.52-6.48-4.32l31.6-102.16a26.56 26.56 0 0 1 18.72-17.28l104-24c8.8-1.84 10.16 1.76 4.16 6.72m16.56-30.16-124.88 28.72a14.8 14.8 0 0 1-18-10.72l-53.2-232a14.72 14.72 0 0 1 10.8-17.92l125.12-28a14.72 14.72 0 0 1 18 10.72l53.2 232a14.08 14.08 0 0 1-10.8 17.2z"/></g></svg>