<svg xmlns="http://www.w3.org/2000/svg" width="1025" height="1024"><g fill="none" fill-rule="evenodd"><path fill="#0060FE" d="M.633 0h1024v1024H.633z"/><path fill="#FFF" fill-rule="nonzero" d="M386.295 300.896c-9.883-10.5-14.825-8.03-22.855 1.853-36.444 46.946-33.974 114.893 9.266 158.132 96.361 97.597 195.194 192.106 294.026 286.614 8.03 7.413 11.736 4.942 17.296-1.235 17.913-22.855 27.796-48.799 27.796-77.83-.617-33.974-12.354-63.006-36.444-86.48-61.153-58.063-121.07-115.51-180.37-173.574-37.061-35.209-73.506-71.035-108.715-107.48M613.61 234.802c-25.326-24.708-57.447-35.21-90.185-38.298-30.885.618-55.593 9.266-78.448 24.709-12.354 8.03-11.736 13.589-1.236 24.09 66.712 64.859 132.189 130.953 201.372 193.959 29.032 26.56 66.711 27.796 92.037 2.47 24.708-24.708 22.855-62.388-4.324-89.567-39.533-39.532-79.066-79.065-119.216-117.363M167.01 520.18c0 33.974 26.562 61.153 60.535 62.389 34.592.617 63.624-27.797 63.624-61.77-.618-33.974-28.414-61.153-62.388-61.153-34.591 0-61.77 26.561-61.77 60.535M572.841 773.439c-59.917-58.682-119.216-117.981-179.133-176.663-27.18-26.561-65.477-26.561-90.185-1.853-24.708 25.325-24.708 61.152 2.47 87.713a6699.632 6699.632 0 0 0 133.425 131.571c23.472 22.855 52.504 33.974 89.566 33.974 25.944 1.235 52.505-11.119 77.213-25.326 8.648-4.942 11.119-11.119 1.236-19.149-11.737-9.265-23.473-19.149-34.592-30.267M897.753 762.32c-8.03-.618-15.443-3.706-14.825-12.972 0-8.647 6.795-12.971 14.825-12.971a395.973 395.973 0 0 1 38.298 0c9.265 0 14.824-1.236 14.824-12.972 0-11.119-3.088-16.06-14.824-14.825-14.825.618-29.65-.618-44.475.618-22.855 1.235-37.062 16.678-37.68 38.915-.618 23.473 11.736 37.68 35.21 40.768 8.647 1.236 17.295.618 25.943 1.236 11.118.617 20.384 3.706 20.384 17.295 0 13.59-10.501 16.06-21.002 16.678a490.379 490.379 0 0 1-42.622 0c-9.265-.617-14.824 1.236-14.824 12.972 0 11.119 4.323 13.59 14.207 12.972 8.03-.618 16.06 0 24.09 0h24.09c26.562-1.236 42.622-17.296 42.622-43.24.618-25.943-16.06-43.238-42.004-43.856-7.412 0-14.825 0-22.237-.618M837.836 778.998v-25.943c-1.236-27.797-17.296-43.857-46.328-44.475-32.738-1.235-51.27 12.972-53.122 42.004-1.236 19.149-.618 38.915 0 58.064.617 19.149 10.5 34.591 29.65 38.915 39.532 8.03 73.506-2.47 69.8-52.505v-16.06"/><path fill="#FFF" fill-rule="nonzero" d="M787.184 825.326c-20.384 0-22.855-11.737-22.237-27.18.618-15.442 0-30.884 0-46.327 0-13.59 8.03-18.53 21.002-18.53s24.708 1.234 26.561 17.295c.618 9.265 0 18.53 0 27.796h.618c-.618 6.795-.618 13.59-.618 20.385.618 17.913-5.56 27.178-25.326 26.56"/></g></svg>