<svg xmlns="http://www.w3.org/2000/svg" width="1025" height="1024"><g fill="none" fill-rule="evenodd"><path fill="#FFF" d="M.398 0h1024v1024H.398z"/><path fill="#FB0" d="M512.398 436.752H713.4c-2.616 205.766-2.616 330.822 0 375.167 7.095 43.457 46.342 71.01 117.741 82.656-80.305 2.143-129.073 1.359-146.303-2.351-42.49-9.149-95.32-51.533-97.856-106.008-2.598-40.355-2.598-141.373 0-303.055h-74.584v-46.41"/><path fill="#00A5EF" d="M361.125 436.598c-3.43 194.023-3.43 311.93 0 353.717 12.906 49.166 64.464 51.37 83.425 51.37 44.44 0 90.036-16.253 136.79-48.76-27.524 36.096-56.412 62.458-86.664 79.086-30.251 16.628-63.87 24.625-100.857 23.989-44.268-3.376-74.976-10.677-92.125-21.905-40.646-22.035-50.736-57.3-54.164-81.17-2.296-37.127-2.296-122.143 0-255.048h-56.085l-.95-25.877 170.63-75.402"/><path fill="#F25222" d="M341.398 419c31.76 0 61.015-10.73 84.337-28.761 4.218-3.262-19.26-8.332-44.943-34.422-17.123-17.393-26.5-33.753-28.132-49.08 55.536 25.393 94.95 32.739 118.245 22.036 5.493-14.886 8.493-30.98 8.493-47.773 0-76.215-61.785-138-138-138-76.216 0-138 61.785-138 138s61.784 138 138 138"/><path fill="#7FBA00" d="M662.398 419c-31.761 0-61.016-10.73-84.338-28.761-4.218-3.262 19.26-8.332 44.943-34.422 17.123-17.393 26.5-33.753 28.132-49.08-55.536 25.393-94.95 32.739-118.245 22.036-5.493-14.886-8.492-30.98-8.492-47.773 0-76.215 61.784-138 138-138 76.215 0 138 61.785 138 138s-61.785 138-138 138"/></g></svg>