<?xml version="1.0" encoding="UTF-8"?>
<svg width="1024px" height="1024px" viewBox="0 0 1024 1024" version="1.1" xmlns="http://www.w3.org/2000/svg" xmlns:xlink="http://www.w3.org/1999/xlink">
    <title>Jackett</title>
    <defs>
        <filter x="-7.5%" y="-3.4%" width="115.0%" height="106.8%" filterUnits="objectBoundingBox" id="filter-1">
            <feGaussianBlur stdDeviation="8" in="SourceGraphic"></feGaussianBlur>
        </filter>
        <filter x="-7.5%" y="-3.4%" width="115.0%" height="106.8%" filterUnits="objectBoundingBox" id="filter-2">
            <feGaussianBlur stdDeviation="8" in="SourceGraphic"></feGaussianBlur>
        </filter>
    </defs>
    <g id="ICON-新版方图标" stroke="none" stroke-width="1" fill="none" fill-rule="evenodd">
        <g id="Jackett">
            <rect id="蒙版路径" fill="#FFFFFF" x="0" y="0" width="1024" height="1024"></rect>
            <g id="编组2" transform="translate(196, 158)" fill="#B5B5B5" fill-rule="nonzero">
                <path d="M537.832614,708 L632,706.893366 L599.456859,134.210422 C599.456859,134.210422 536.170836,82.0603081 423.862381,71.5472881 C423.308456,72.2389342 427.739862,31.5701456 424.970233,25.0686722 C422.616049,19.5355036 379.825281,-2.87382888 311,0.30774265 L311,14.8323101 C342.573771,14.0023349 375.116911,18.1522112 388.965056,25.0686722 C395.473684,28.3885734 396.304573,42.7748119 390.211389,47.2013461 C383.841243,51.7662099 334.403365,49.5529425 334.403365,49.5529432 L328.587144,664.149639 C328.587144,664.149639 438.402933,656.126544 483.270923,626.939081 C482.440035,627.354068 483.270923,529.416985 483.270923,529.416985 L421.646678,542.143273 L420.538826,518.903965 L484.517256,508.390945 L487.979292,379.468117 C487.979292,379.468117 499.057808,370.20006 511.244176,378.361484 C510.828732,379.468117 537.832614,708 537.832614,708" id="路径" filter="url(#filter-1)"></path>
                <path d="M0,706.893366 L32.5571858,134.210422 C32.5571858,134.210422 95.8705221,82.0603081 208.227449,71.5472881 C208.781613,72.2389342 204.348295,31.5701456 206.980578,25.0686722 C209.335779,19.5355036 252.145015,-2.87382888 321,0.30774265 L321,14.8323101 C289.412602,14.0023349 256.855417,18.1522112 243.001295,25.0686722 C236.489858,28.3885734 235.65861,42.7748119 241.892965,47.2013461 C248.265861,51.7662099 297.725076,49.5529425 297.725076,49.5529432 L303.543807,664.149639 C303.543807,664.149639 193.680621,656.126544 148.793267,626.939081 C149.624514,627.354068 148.793267,529.416985 148.793267,529.416985 L210.444108,542.143273 L211.552438,518.903965 L147.546396,508.390945 L144.082865,379.468117 C144.082865,379.468117 132.999568,370.20006 120.807941,378.361484 C121.223565,379.468117 94.2080278,708 94.2080278,708 L0,706.893366 Z" id="路径" filter="url(#filter-2)"></path>
            </g>
            <g id="编组1" transform="translate(196, 95)" fill="#000000" fill-rule="nonzero">
                <path d="M537.832614,708 L632,706.893366 L599.456859,134.210422 C599.456859,134.210422 536.170836,82.0603081 423.862381,71.5472881 C423.308456,72.2389342 427.739862,31.5701456 424.970233,25.0686722 C422.616049,19.5355036 379.825281,-2.87382888 311,0.30774265 L311,14.8323101 C342.573771,14.0023349 375.116911,18.1522112 388.965056,25.0686722 C395.473684,28.3885734 396.304573,42.7748119 390.211389,47.2013461 C383.841243,51.7662099 334.403365,49.5529425 334.403365,49.5529432 L328.587144,664.149639 C328.587144,664.149639 438.402933,656.126544 483.270923,626.939081 C482.440035,627.354068 483.270923,529.416985 483.270923,529.416985 L421.646678,542.143273 L420.538826,518.903965 L484.517256,508.390945 L487.979292,379.468117 C487.979292,379.468117 499.057808,370.20006 511.244176,378.361484 C510.828732,379.468117 537.832614,708 537.832614,708" id="路径"></path>
                <path d="M94.2080278,708 L0,706.893366 L32.5571858,134.210422 C32.5571858,134.210422 95.8705221,82.0603081 208.227449,71.5472881 C208.781613,72.2389342 204.348295,31.5701456 206.980578,25.0686722 C209.335779,19.5355036 252.145015,-2.87382888 321,0.30774265 L321,14.8323101 C289.412602,14.0023349 256.855417,18.1522112 243.001295,25.0686722 C236.489858,28.3885734 235.65861,42.7748119 241.892965,47.2013461 C248.265861,51.7662099 297.725076,49.5529425 297.725076,49.5529432 L303.543807,664.149639 C303.543807,664.149639 193.680621,656.126544 148.793267,626.939081 C149.624514,627.354068 148.793267,529.416985 148.793267,529.416985 L210.444108,542.143273 L211.552438,518.903965 L147.546396,508.390945 L144.082865,379.468117 C144.082865,379.468117 132.999568,370.20006 120.807941,378.361484 C121.223565,379.468117 94.2080278,708 94.2080278,708" id="路径"></path>
            </g>
        </g>
    </g>
</svg>