<svg xmlns="http://www.w3.org/2000/svg" xmlns:xlink="http://www.w3.org/1999/xlink" width="1024" height="1024"><defs><linearGradient id="b" x1="84.853%" x2="24.596%" y1="79.073%" y2="23.528%"><stop offset="0%" stop-color="#05A2DB"/><stop offset="63.862%" stop-color="#A259BA"/><stop offset="99.964%" stop-color="#A259BA"/></linearGradient><filter id="c" width="104.7%" height="104.7%" x="-2.3%" y="-2.3%" filterUnits="objectBoundingBox"><feGaussianBlur in="SourceGraphic" stdDeviation="8"/></filter><path id="a" d="M512.956 150c94.816 0 399.388 560.276 353.335 653.623-46.054 93.346-659.842 94.325-706.476 0C113.18 709.297 418.333 150 512.955 150m0 143.445c-61.92 0-261.421 366.146-230.848 428.181 30.573 62.036 432.864 61.253 463.05 0 29.413-61.057-170.281-428.181-232.202-428.181M512.999 434c31.587 0 132.743 185.529 117.434 216.613-15.309 31.085-219.56 31.28-234.869 0C380.255 619.333 481.605 434 513 434"/></defs><g fill="none" fill-rule="evenodd"><path fill="#000" d="M0 0h1024v1024H0z"/><mask id="d" fill="#fff"><use xlink:href="#a"/></mask><use xlink:href="#a" stroke="#000" stroke-linecap="round" stroke-linejoin="round" stroke-width="16.667"/><path fill="url(#b)" d="M0 0h1024v1024H0z" filter="url(#c)" mask="url(#d)"/></g></svg>