<svg xmlns="http://www.w3.org/2000/svg" width="1024" height="1024"><g fill="none" fill-rule="evenodd"><path fill="#FFF" d="M0 0h1024v1024H0z"/><g fill="#2B937C" fill-rule="nonzero"><path d="M486.67 185.38c-26.058 14.936-52.454 28.49-78.83 43.071-29.873 16.655-59.372 33.331-92.72 52.08a326342.658 326342.658 0 0 0 210.078 134.725c-13.89 7.982-24.993 13.89-35.07 21.18-10.411 7.29-19.085 7.29-30.208.356-57.296-34.734-115.62-67.728-172.224-103.825-23.966-15.292-42.716-18.413-66.662-1.383-23.274 16.3-25.012 35.406-1.047 50.678 11.795 7.31 23.61 14.58 35.07 21.871 62.491 39.593 126.051 77.093 186.805 118.762 37.855 26.04 72.568 24.993 109.376 2.766a16089.319 16089.319 0 0 0 102.778-61.802c12.506-7.626 25.012-15.608 39.929-25.348-67.017-43.052-131.584-84.364-198.264-127.08 11.459-7.981 20.844-13.888 29.18-20.823 11.105-9.385 20.825-10.076 34.023-2.095 55.913 32.64 112.498 64.232 169.103 95.823 38.19 21.2 38.19 20.844 67.708-11.103 11.46-12.487 8.693-30.21-6.263-38.191-90.271-49.65-180.542-99.3-270.478-149.662-11.815-6.935-20.844-6.243-32.303 0h.02"/><path d="M547.76 585.387c-31.235 16.32-64.23 17.722-96.178-1.383-73.952-44.79-148.258-89.244-222.23-134.034-7.29-4.149-14.58-8.338-24.993-14.58 0 28.47 1.047 53.482-.356 78.475-1.027 14.936 4.525 23.274 17.031 30.209 79.86 45.837 159.363 92.365 239.241 138.202 26.732 15.273 56.585 16.32 82.625 2.766 51.39-26.376 200.34-118.405 250.365-147.567 4.86-2.766 10.748-8.693 11.103-13.198 1.047-29.162.356-58.679.356-89.935-8.002 4.524-15.292 8.693-22.227 12.506-45.145 26.04-188.88 114.593-234.716 138.539h-.02"/><path d="M601.58 688.52c-22.208 12.15-44.454 24.301-67.373 34.733-25.33 11.104-51.368 11.104-76.381-3.477-20.825-12.506-42.36-23.966-63.184-36.472-37.144-22.563-74.308-45.838-111.471-68.4-24.993-15.272-50.697-29.853-78.476-46.174 0 31.613-.336 60.063.356 88.197 0 4.505 4.148 10.413 7.982 12.843 81.953 48.959 163.887 98.609 246.53 146.203 27.444 15.609 58.345 16.992 87.17 1.028 49.65-27.443 203.816-119.453 252.775-147.923 4.15-2.43 10.076-7.647 10.076-11.815 1.028-28.806.336-57.988.336-88.533-2.766.692-6.934 1.048-10.076 2.767-30.9 17.722-167.008 99.655-198.264 117.022v.001"/><path d="M514.074 118.383 512 117 164.074 318.723 162 319.77v373.254l350 214.268 347.926-212.845 2.074-1.383V320.106L514.074 118.383Zm339.589 570.492L512 897.907 170.317 688.875V324.63L512 126.68 853.663 324.65v364.246-.02"/></g></g></svg>