<svg xmlns="http://www.w3.org/2000/svg" width="1024" height="1024"><g fill="none" fill-rule="evenodd"><path fill="#1B4352" d="M0 0h1024v1024H0z"/><path fill="#17B2E7" fill-rule="nonzero" d="M512.797 155c-6.712 0-13.449 3.204-19.89 9.68a60870.69 60870.69 0 0 0-82.144 82.697c-6.934 6.968-13.535 14.34-20.893 20.77-9.209 7.976-12.04 17.408-11.862 29.506.602 41.785.245 83.615.245 125.399v130.24c0 3.29.07 6.65.892 9.768 2.587 10.06 9.008 11.74 16.236 4.48 38.953-39.14 77.877-78.304 116.771-117.49l132.266-133.018c12.776-12.883 12.776-27.043 0-39.903L532.64 164.657c-6.422-6.475-13.133-9.68-19.822-9.657h-.022m215.331 216.02c-6.609 0-13.201 3.113-19.3 9.226L596.516 493.22c-12.712 12.806-12.667 26.715 0 39.479l111.598 112.435c13.068 13.144 26.96 13.144 39.96.07 36.063-36.3 72.12-72.598 108.169-108.897 5.41-5.375 10.485-10.861 12.756-18.363v-9.853c-2.296-7.502-7.305-13.01-12.712-18.43a42680.962 42680.962 0 0 1-108.815-109.523c-6.077-6.114-12.73-9.16-19.345-9.137v.02m-448.822 10.025c-2.565.425-4.304 2.797-6.156 4.677l-111.941 113.5c-8.32 8.48-8.275 20.21.111 28.643l60.755 61.046c17.553 17.611 34.994 35.267 52.547 52.878 5.019 5.013 9.814 4.14 12.379-2.506a31.045 31.045 0 0 0 1.874-10.853c.111-38.288.148-76.591.111-114.91h-.07V398.143a52.892 52.892 0 0 0-.646-7.52c-.558-4.027-2.142-7.697-6.156-9.219a5.28 5.28 0 0 0-2.075-.403c-.267 0-.513.023-.78.045h.047m234.69 203.977c-6.653 0-13.262 3.16-19.47 9.412L382.62 707.179c-12.84 12.975-12.84 26.869.07 39.867 36.048 36.326 72.075 72.667 108.08 109.023 5.34 5.379 10.703 10.575 18.135 12.931h9.787c7.232-2.062 12.55-6.745 17.733-12.012a28129.794 28129.794 0 0 1 109.058-109.965c12.75-12.84 12.662-27.049-.111-39.979L533.469 594.3c-6.164-6.207-12.817-9.3-19.47-9.3l-.003.022"/></g></svg>