<?xml version="1.0" encoding="UTF-8"?>
<svg width="1024px" height="1024px" viewBox="0 0 1024 1024" version="1.1" xmlns="http://www.w3.org/2000/svg" xmlns:xlink="http://www.w3.org/1999/xlink">
    <title>Ku.geci</title>
    <g id="Icon-SVG" stroke="none" stroke-width="1" fill="none" fill-rule="evenodd">
        <g id="Ku.geci" transform="translate(0, -0.0008)">
            <rect id="蒙版路径" fill="#2C323B" x="0" y="0" width="1024" height="1024"></rect>
            <g id="酷" transform="translate(161.6593, 184.3486)" fill="#FFFFFF" fill-rule="nonzero">
                <path d="M422.635189,585.719641 C442.20517,584.661804 459.659477,582.67836 474.998111,579.769309 C490.336745,576.860258 505.939838,573.290059 521.80739,569.058711 C526.038737,565.356283 529.476707,561.786083 532.121299,558.348114 C534.765891,554.910144 536.881564,550.678797 538.468319,545.654072 C540.055075,540.629347 541.5096,534.414556 542.831896,527.009698 C544.154192,519.604841 545.608718,509.81985 547.195473,497.654727 C548.782228,485.489604 547.724392,477.291368 544.021963,473.060021 C540.319534,468.828674 533.443595,467.241919 523.394145,468.299755 C520.220635,468.828674 514.799221,469.622051 507.129904,470.679888 C499.460587,471.737725 490.733434,472.927792 480.948443,474.250088 C471.163453,475.572384 460.452855,477.159139 448.81665,479.010353 C437.180445,480.861568 425.808699,482.580552 414.701413,484.167308 C417.346005,501.092697 419.329449,518.018085 420.651745,534.943474 C421.974041,551.868863 422.635189,568.794252 422.635189,585.719641 Z M402.007371,454.812336 C436.915986,450.580989 464.551973,446.217412 484.915331,441.721606 C505.27869,437.225799 520.749553,432.068845 531.327921,426.250742 C535.559268,424.135069 539.922845,422.416084 544.418652,421.093788 C548.914458,419.771492 554.071412,419.507033 559.889515,420.30041 C565.707617,421.093788 572.451327,422.945002 580.120644,425.854054 C587.789961,428.763105 597.178262,432.862222 608.285549,438.151406 C629.971203,449.258693 641.871867,458.118076 643.987541,464.729556 C646.103215,471.341036 641.871867,479.407042 631.293499,488.927573 C622.830805,496.332431 615.029258,505.588503 607.88886,516.695789 C600.748462,527.803076 593.475833,543.14171 586.070976,562.711691 C592.946915,566.943038 598.103869,571.571074 601.541839,576.595799 C604.979809,581.620523 606.302105,586.380789 605.508727,590.876596 C604.71535,595.372402 601.806298,599.47152 596.781573,603.173948 C591.756849,606.876377 584.484221,608.992051 574.963689,609.520969 C568.616668,610.049888 559.757285,610.711036 548.38554,611.504413 C537.013794,612.297791 524.451982,613.223398 510.700103,614.281235 C496.948225,615.339072 482.270739,616.396909 466.667646,617.454745 C451.064553,618.512582 435.59369,619.570419 420.255056,620.628256 C416.023709,640.198237 410.602295,651.437753 403.990815,654.346804 C397.379335,657.255855 390.900085,653.421197 384.553064,642.842829 C382.966309,639.669318 380.718406,630.148787 377.809354,614.281235 C374.900303,598.413683 372.6524,579.901539 371.065645,558.744803 C370.536726,551.868863 369.478889,544.331776 367.892134,536.133541 C366.305379,527.935306 364.454165,520.001529 362.338491,512.332213 C360.222817,504.662896 357.842685,497.654727 355.198093,491.307706 C352.553501,484.960685 349.908908,479.93596 347.264316,476.233532 C337.743785,463.53949 337.214867,454.415647 345.677561,448.862004 C354.140256,443.308361 372.916859,445.291805 402.007371,454.812336 Z M211.596746,423.87061 C221.117277,427.04412 225.348624,431.804386 224.290788,438.151406 C223.232951,444.498427 215.828093,449.787611 202.076215,454.018959 C179.861642,460.365979 159.498283,463.936179 140.986139,464.729556 C122.473995,465.522934 107.135361,464.068408 94.9702378,460.365979 C84.3918698,457.192469 79.3671449,453.357811 79.8960633,448.862004 C80.4249817,444.366198 86.2430842,440.795998 97.3503707,438.151406 C108.986576,435.506814 119.961632,433.258911 130.275541,431.407697 C140.58945,429.556482 149.713293,427.573038 157.647069,425.457365 C169.283274,422.812773 179.068264,421.226018 187.00204,420.697099 C194.935816,420.168181 203.134051,421.226018 211.596746,423.87061 Z M203.66297,279.475885 C202.605133,293.756682 202.208444,305.392887 202.472903,314.3845 C202.737363,323.376113 203.53074,330.384282 204.853036,335.409007 C206.175332,340.433731 208.026547,343.871701 210.406679,345.722915 C212.786812,347.57413 215.828093,348.499737 219.530522,348.499737 C225.877543,348.499737 231.034497,350.483181 235.001385,354.450069 C238.968273,358.416957 240.687258,362.780534 240.15834,367.5408 C239.100503,375.474576 235.133615,381.160448 228.257676,384.598418 C221.381736,388.036388 212.125664,389.226454 200.489459,388.168617 C193.61352,387.11078 187.795418,384.862877 183.035152,381.424908 C178.274886,377.986938 174.572458,372.433295 171.927866,364.763978 C169.283274,357.094661 167.564289,346.780752 166.770911,333.822251 C165.977534,320.86375 166.374222,304.33505 167.960978,284.236151 C161.613957,285.293988 155.531395,286.087365 149.713293,286.616284 C143.89519,287.145202 138.870465,287.93858 134.639118,288.996417 C132.523445,315.971255 127.895408,338.450287 120.75501,356.433513 C113.614612,374.416739 104.755228,389.490913 94.1768602,401.656037 C81.4828185,415.407915 74.3424201,421.226018 72.7556649,419.110344 C71.1689097,416.99467 74.0779609,405.887384 81.4828185,385.788484 C85.7141658,374.681198 89.0199058,361.193779 91.4000386,345.326227 C93.7801714,329.458674 95.4991562,312.797745 96.5569931,295.343437 C92.3256458,296.401274 87.8298394,297.062422 83.0695738,297.326881 C78.3093081,297.591341 73.5490425,298.252489 68.7887769,299.310325 C70.3755321,325.756246 70.9044505,358.549187 70.3755321,397.689149 C69.8466137,436.82911 68.2598585,484.696226 65.6152664,541.290495 C82.5406554,539.174822 100.391651,536.794689 119.168255,534.150097 C137.944858,531.505505 154.209099,528.596454 167.960978,525.422943 C180.126101,522.778351 191.233387,522.249433 201.282837,523.836188 C211.332287,525.422943 219.266063,529.389831 225.084165,535.736852 C229.315512,539.968199 232.621252,541.819414 235.001385,541.290495 C237.381518,540.761577 239.100503,536.794689 240.15834,529.389831 C242.802932,515.109034 244.786376,497.654727 246.108672,477.026909 C247.430968,456.399091 248.092116,435.506814 248.092116,414.350078 C248.092116,393.193342 247.430968,373.491132 246.108672,355.243447 C244.786376,336.995762 243.067391,322.847194 240.951717,312.797745 C239.364962,304.863969 237.778207,298.781407 236.191452,294.55006 C234.604696,290.318713 232.489023,287.012973 229.844431,284.63284 C227.199839,282.252707 223.894099,280.798181 219.927211,280.269263 C215.960323,279.740345 210.538909,279.475885 203.66297,279.475885 Z M461.510692,221.55932 C462.03961,188.237461 462.03961,160.865933 461.510692,139.444738 C460.981773,118.023543 459.923936,100.569235 458.337181,87.0818159 C456.750426,73.5943966 454.502523,63.0160285 451.593472,55.3467117 C448.68442,47.6773948 445.114221,40.9336852 440.882874,35.1155827 C429.246669,20.3058674 426.073159,9.99195854 431.362343,4.1738561 C436.651527,-1.64424634 450.138946,-1.37978714 471.824601,4.96723371 C489.807826,10.7853361 503.559705,15.9422906 513.080236,20.438097 C522.600767,24.9339035 529.344477,29.5619395 533.311365,34.3222051 C537.278253,39.0824708 538.732779,43.974966 537.674942,48.9996908 C536.617105,54.0244157 534.236972,59.9747477 530.534543,66.850687 C525.774278,75.8422998 522.204079,91.7098519 519.823946,114.453343 C517.443813,137.196835 515.460369,168.40302 513.873614,208.071901 C528.683329,203.311635 540.451763,199.476977 549.178917,196.567925 C557.906071,193.658874 565.178699,191.67543 570.996801,190.617593 C576.814904,189.559757 581.707399,189.295297 585.674287,189.824216 C589.641175,190.353134 594.004752,191.410971 598.765018,192.997726 C617.277162,199.344747 626.136545,206.749605 625.343167,215.212299 C624.54979,223.674994 613.045814,230.022015 590.831241,234.253362 C577.608281,236.897954 565.178699,239.013627 553.542494,240.600383 C541.906289,242.187138 528.41887,244.302811 513.080236,246.947403 L511.493481,329.458674 C530.005625,325.756246 546.005407,322.450506 559.492826,319.541454 C572.980245,316.632403 582.633006,314.3845 588.451109,312.797745 C607.492171,306.979642 623.359723,304.33505 636.053765,304.863969 C648.747807,305.392887 661.177389,309.888694 673.342512,318.351388 C695.557085,333.690022 703.88755,345.326227 698.333907,353.260003 C692.780264,361.193779 669.375624,363.838371 628.119989,361.193779 C607.492171,359.607023 583.029695,359.871483 554.73256,361.987156 C526.435426,364.10283 495.36147,368.069718 461.510692,373.88782 C447.758813,376.532412 435.197001,378.912545 423.825255,381.028219 C412.45351,383.143892 400.420616,385.788484 387.726574,388.961995 C379.26388,391.077669 372.123481,392.532194 366.305379,393.325572 C360.487277,394.118949 354.933633,394.251179 349.644449,393.722261 C344.355265,393.193342 339.066081,391.871046 333.776897,389.755373 C328.487713,387.639699 322.140692,384.466188 314.735835,380.234841 C305.215303,374.945657 301.645104,369.788703 304.025237,364.763978 C306.40537,359.739253 315.793671,356.697972 332.190142,355.640135 C345.94202,354.582299 364.321935,352.466625 387.329886,349.293115 C410.337836,346.119604 434.535853,342.417175 459.923936,338.185828 L460.717314,256.467935 C441.147333,259.641445 426.073159,260.963741 415.494791,260.434823 C404.916422,259.905904 394.866973,257.261312 385.346442,252.501047 C380.057258,260.963741 373.842466,269.029747 366.702068,276.699064 C359.561669,284.368381 351.495664,292.434386 342.504051,300.897081 C326.636499,315.177878 316.719279,320.731521 312.752391,317.55801 C308.785503,314.3845 311.826783,305.128428 321.876233,289.789794 C327.165417,281.3271 332.190142,272.203257 336.950408,262.418267 C341.710673,252.633276 345.413102,244.038352 348.057694,236.633495 C355.462552,216.534595 360.355047,200.005895 362.73518,187.047394 C365.115313,174.088893 364.189705,164.965051 359.958358,159.675867 C355.727011,154.386683 353.611337,149.626417 353.611337,145.39507 C353.611337,141.163723 355.330322,137.990212 358.768292,135.874539 C362.206261,133.758865 367.230986,133.097717 373.842466,133.891095 C380.453946,134.684472 388.255493,137.725753 397.247106,143.014937 C408.354392,149.361958 416.949316,154.783372 423.031878,159.279178 C429.114439,163.774984 433.213557,167.741872 435.329231,171.179842 C437.444904,174.617812 437.709364,177.659093 436.122608,180.303685 C434.535853,182.948277 431.891261,185.592869 428.188832,188.237461 C422.37073,192.468808 417.346005,197.493533 413.114658,203.311635 C408.883311,209.129738 403.858586,217.592432 398.040483,228.699719 C417.081546,228.699719 438.238282,226.319586 461.510692,221.55932 Z M164.787467,146.188448 C156.853691,147.246284 149.052145,148.304121 141.382828,149.361958 C133.713511,150.419795 126.176424,151.477632 118.771566,152.535468 C138.341547,166.816265 146.539782,179.774766 143.366272,191.410971 C140.72168,199.873666 138.870465,209.129738 137.812629,219.179187 C136.754792,229.228637 135.961414,243.509434 135.432496,262.021578 C141.250598,260.963741 147.068701,259.773675 152.886803,258.451379 C158.704906,257.129083 164.258549,255.939016 169.547733,254.88118 C171.134488,239.542546 172.192325,226.451815 172.721243,215.608988 C173.250162,204.766161 173.250162,195.1134 172.721243,186.650705 C172.192325,178.188011 171.266718,170.783153 169.944422,164.436132 C168.622126,158.089112 166.903141,152.00655 164.787467,146.188448 Z M84.656329,156.502356 C66.1441848,158.089112 48.1609591,155.708979 30.7066518,149.361958 C17.4836917,144.601692 11.0044412,139.709197 11.2689004,134.684472 C11.5333596,129.659747 19.5993653,126.618467 35.4669174,125.56063 C46.5742039,125.031711 59.797164,123.709415 75.1357977,121.593742 C90.4744314,119.478068 106.474213,116.965706 123.135143,114.056654 C139.796073,111.147603 156.192543,107.841863 172.324554,104.139434 C188.456566,100.437006 203.398511,96.4701176 217.150389,92.2387703 C231.960104,88.0074231 246.373131,85.7595199 260.389469,85.4950607 C274.405806,85.2306015 288.289914,88.2718823 302.041793,94.6189032 C311.033406,98.8502504 314.735835,104.536123 313.149079,111.676522 C311.562324,118.81692 300.719497,124.502793 280.620598,128.73414 C274.802495,129.791977 264.224127,131.643191 248.885493,134.287783 C233.54686,136.932375 216.092552,139.576967 196.522571,142.22156 C210.27445,151.213172 218.340456,158.353571 220.720588,163.642755 C223.100721,168.931939 222.175114,175.014501 217.943767,181.89044 C215.828093,185.592869 213.71242,192.865497 211.596746,203.708324 C209.481072,214.551151 207.629858,228.1708 206.043103,244.567271 C213.976879,241.922679 219.266063,240.071464 221.910655,239.013627 C230.373349,234.78228 237.910436,233.063295 244.521917,233.856673 C251.133397,234.650051 261.843994,239.278087 276.65371,247.740781 C285.645322,252.501047 292.521262,256.732394 297.281527,260.434823 C302.041793,264.137252 305.215303,267.83968 306.802059,271.542109 C308.388814,275.244538 308.521043,279.475885 307.198747,284.236151 C305.876451,288.996417 303.364089,294.814519 299.66166,301.690458 C295.430313,309.624234 293.05018,327.47523 292.521262,355.243447 C291.992343,383.011663 293.314639,422.812773 296.48815,474.646776 C298.074905,498.448104 298.868283,518.018085 298.868283,533.356719 C298.868283,548.695353 298.074905,561.653854 296.48815,572.232222 C294.901394,582.81059 292.389032,592.198892 288.951062,600.397127 C285.513093,608.595362 280.885057,617.719205 275.066954,627.768654 C267.133178,641.520533 258.802713,648.264242 250.07556,647.999783 C241.348406,647.735324 235.133615,640.727155 231.431186,626.975277 C226.67092,610.049888 222.571803,596.959157 219.133833,587.703085 C215.695864,578.447013 211.596746,571.703303 206.83648,567.471956 C202.076215,563.240609 196.390342,560.992706 189.778862,560.728247 C183.167382,560.463787 174.307998,561.124935 163.200712,562.711691 C149.448833,564.827364 137.41594,566.678579 127.102031,568.265334 C116.788122,569.852089 107.928739,571.042155 100.523881,571.835533 C93.1190234,572.628911 86.5075434,573.157829 80.6894409,573.422288 C74.8713385,573.686747 69.3176953,573.818977 64.0285112,573.818977 C61.3839192,597.620305 55.5658168,610.314347 46.5742039,611.901102 C37.582591,613.487857 28.5909782,607.140836 19.5993653,592.86004 C15.8969365,586.513019 12.9878852,580.827146 10.8722116,575.802421 C8.75653802,570.777696 7.43424201,565.752971 6.90532361,560.728247 C6.3764052,555.703522 6.5086348,550.282108 7.30201241,544.464006 C8.09539001,538.645903 9.81437483,531.769964 12.4589668,523.836188 C14.5746405,515.902412 16.4258549,507.836406 18.0126101,499.638171 C19.5993653,491.439936 20.9216613,481.919404 21.9794981,471.076577 C23.0373349,460.23375 23.6984829,447.539708 23.9629421,432.994452 C24.2274013,418.449196 24.3596309,400.333741 24.3596309,378.648086 C24.3596309,361.722697 22.9051053,345.193997 19.9960541,329.061986 C17.0870029,312.929974 13.2523445,301.16154 8.49207882,293.756682 C-0.499534048,278.946967 -2.35074846,269.426436 2.93843558,265.195088 C8.22761962,260.963741 22.7728757,263.343874 46.5742039,272.335487 C64.0285112,271.27765 80.9539001,269.690895 97.3503707,267.575221 C97.8792891,240.600383 97.2181411,218.782498 95.3669266,202.121569 C93.5157122,185.460639 89.945513,170.254235 84.656329,156.502356 Z" id="形状"></path>
            </g>
        </g>
    </g>
</svg>