<svg xmlns="http://www.w3.org/2000/svg" width="1024" height="1028"><g fill="none"><path fill="#2088FF" d="M1024 1028H0V4C673.664-.302 1014.998-.302 1024 4z"/><path fill="#FFF" d="M885.4 595.493c-7.911-1.5-14.323-1.137-21.78-1.728-15.913-1.683-29.008-3.047-40.694-6.73-4.774-1.818-8.184-7.502-9.82-9.82l-9.14-2.683a293.259 293.259 0 0 0-4.774-106.03 293.944 293.944 0 0 0-42.559-98.346c2.365-2.137 6.82-6.047 8.048-7.23.364-4.092.046-8.32 4.274-12.821 8.957-8.412 20.188-15.368 33.783-23.734 6.457-3.82 12.413-6.23 18.87-11.004 1.455-1.09 3.455-2.819 5.001-4.046 10.913-8.684 13.413-23.643 5.593-33.464-7.82-9.821-23.007-10.73-33.874-2.046-1.546 1.227-3.638 2.819-5.047 4-6.093 5.275-9.867 10.458-15.005 15.914-11.185 11.367-20.46 20.825-30.6 27.69-4.41 2.546-10.867 1.682-13.777 1.5l-8.64 6.139a297.594 297.594 0 0 0-188.512-91.072l-.545-10.139c-2.956-2.819-6.502-5.229-7.412-11.367-1-12.185.682-25.325 2.592-41.148 1.046-7.411 2.774-13.55 3.092-21.597.045-1.819-.045-4.501-.045-6.456 0-13.913-10.185-25.235-22.735-25.235-12.504 0-22.688 11.322-22.688 25.235l.045.636c0 1.864-.091 4.183 0 5.82.273 8.048 2 14.186 3.046 21.597 1.91 15.823 3.547 28.963 2.547 41.194a24.78 24.78 0 0 1-7.366 11.73l-.546 9.594a292.092 292.092 0 0 0-189.422 91.071 380.711 380.711 0 0 1-8.184-5.82c-4.092.546-8.184 1.82-13.504-1.318-10.14-6.82-19.415-16.277-30.6-27.644-5.139-5.456-8.867-10.64-14.96-15.868a122.355 122.355 0 0 0-5.047-4.002 27.009 27.009 0 0 0-15.823-6.001 21.87 21.87 0 0 0-18.096 8.002c-7.82 9.821-5.32 24.825 5.592 33.51l.319.227 4.728 3.774c6.457 4.774 12.368 7.229 18.824 11.003 13.595 8.411 24.826 15.368 33.783 23.734 3.456 3.728 4.093 10.275 4.547 13.094l7.275 6.502a293.805 293.805 0 0 0-46.378 204.877l-9.457 2.728c-2.5 3.273-6.047 8.366-9.776 9.866-11.685 3.683-24.826 5.002-40.694 6.684-7.457.636-13.868.273-21.825 1.773-1.682.318-4.092.91-6.047 1.364l-.182.091-.318.091c-13.414 3.228-22.007 15.55-19.234 27.644 2.774 12.14 15.869 19.506 29.328 16.596l.318-.046.454-.136 5.866-1.319c7.73-2.091 13.368-5.137 20.37-7.82 15.004-5.365 27.463-9.866 39.557-11.64 5.093-.409 10.458 3.138 13.095 4.593l9.867-1.683a295.54 295.54 0 0 0 130.95 163.501l-4.093 9.912c1.5 3.82 3.138 9.048 2 12.822-4.41 11.458-11.957 23.507-20.55 36.965-4.139 6.184-8.413 11.003-12.186 18.142-.91 1.682-2.047 4.32-2.91 6.092-5.82 12.504-1.546 26.872 9.684 32.282 11.277 5.456 25.28-.318 31.374-12.822v-.09c.909-1.774 2.091-4.093 2.819-5.775 3.182-7.366 4.274-13.686 6.547-20.824 6.002-15.095 9.321-30.918 17.596-40.784 2.274-2.728 5.911-3.729 9.776-4.774l5.138-9.321a293.415 293.415 0 0 0 209.565.545l4.82 8.73c3.91 1.273 8.184 1.91 11.64 7.048 6.183 10.548 10.411 23.052 15.55 38.192 2.273 7.093 3.364 13.413 6.592 20.779.728 1.682 1.955 4.092 2.82 5.865 6.047 12.55 20.096 18.278 31.373 12.822 11.23-5.365 15.504-19.778 9.684-32.282-.909-1.773-2.046-4.365-2.955-6.093-3.774-7.092-8.048-11.867-12.186-18.096-8.639-13.458-15.732-24.597-20.142-36.055-1.819-5.911.318-9.548 1.728-13.368-.819-1-2.683-6.547-3.774-9.184a295.494 295.494 0 0 0 130.95-164.683c2.91.454 8.002 1.364 9.684 1.727 3.41-2.273 6.547-5.183 12.731-4.728 12.095 1.773 24.553 6.274 39.558 11.64 7.002 2.728 12.594 5.82 20.37 7.865 1.636.455 4 .864 5.91 1.273l.41.137.318.045c13.504 2.91 26.554-4.456 29.327-16.595 2.728-12.095-5.82-24.416-19.233-27.645-1.91-.454-4.683-1.182-6.593-1.545"/><path fill="#2088FF" d="m478.82 559.846 32.874 15.868 32.829-15.777 8.184-35.465-22.734-28.326h-36.557l-22.734 28.326 8.139 35.42zM430.078 621.636l.319.455-45.423 109.713a235.113 235.113 0 0 1-94.348-118.079l117.218-19.87.182.228a20.006 20.006 0 0 1 22.007 27.553h.045m-37.875-96.8a20.006 20.006 0 0 0 7.866-34.373l.091-.5-89.164-79.75a233.835 233.835 0 0 0-33.192 147.996l114.308-32.964.091-.409m52.061-90.026a20.007 20.007 0 0 0 31.783-15.322l.455-.227 6.82-119.125a233.892 233.892 0 0 0-136.86 65.564l97.62 69.247.182-.091v-.046m102.759-15.686a20.006 20.006 0 0 0 31.828 15.277l.364.137 97.03-68.793a235.893 235.893 0 0 0-136.042-65.564l6.73 118.898.09.045m164.778-8.866-88.663 79.386v.228a20.005 20.005 0 0 0 7.866 34.418l.136.455 114.854 33.1a236.38 236.38 0 0 0-4.911-76.112 236.792 236.792 0 0 0-29.282-71.52v.045M529.336 652.372a19.87 19.87 0 0 0-18.37-10.548 20.006 20.006 0 0 0-16.913 10.594h-.091l-57.655 104.211a234.805 234.805 0 0 0 151.229.137L529.79 652.372h-.455m85.845-58.789a20.007 20.007 0 0 0-12.276 1.637c-9.711 4.64-14.01 16.132-9.73 26.007l-.137.182 45.924 110.85a234.158 234.158 0 0 0 94.62-118.898l-118.218-20.005-.182.227"/></g></svg>