<?xml version="1.0" encoding="UTF-8"?>
<svg width="1024px" height="1024px" viewBox="0 0 1024 1024" version="1.1" xmlns="http://www.w3.org/2000/svg" xmlns:xlink="http://www.w3.org/1999/xlink">
    <title>Kuwo</title>
    <g id="ICON-新版方图标" stroke="none" stroke-width="1" fill="none" fill-rule="evenodd">
        <g id="Kuwo" transform="translate(0, -0.0008)">
            <rect id="蒙版路径" fill="#FFFFFF" x="0" y="0" width="1024" height="1024"></rect>
            <g id="编组" transform="translate(142, 126.0008)" fill-rule="nonzero">
                <path d="M691.718106,645.689618 C691.718106,645.689618 391.726853,754.163192 317.694866,772.510312 C317.694866,766.394354 307.716356,365.333253 307.716356,365.333253 C313.174257,364.471475 318.555563,363.179941 323.810069,361.470702 C349.882292,353.423468 637.642384,287.116584 687.534178,275.206799 C691.718106,292.910411 691.718106,645.689618 691.718106,645.689618 L691.718106,645.689618 Z M485.715859,435.180558 L482.496814,433.249282 L482.496814,411.03961 C482.651644,399.631772 477.917258,388.702988 469.489294,381.013244 C461.061331,373.3235 449.745524,369.607957 438.399602,370.80495 C412.403048,374.122467 393.256315,396.762872 394.301635,422.949396 C394.301635,463.184056 394.301635,503.097341 396.232911,541.400725 C398.164187,571.3355 396.232911,601.592405 398.164187,633.780587 C400.095463,665.968768 418.121206,685.925033 446.124705,682.062481 C469.205606,679.115263 486.388629,659.298892 486.037235,636.033239 L486.037235,595.798578 C486.037235,579.704865 486.037235,577.773589 502.131703,587.751344 C528.203926,601.914536 552.022742,617.686119 578.094965,629.918035 C592.711748,636.88454 609.980225,635.213683 622.990239,625.574073 C636.000253,615.934463 642.626693,599.900674 640.217921,583.888793 C638.286645,563.932528 622.192177,557.81657 608.02974,549.77009 L553.954018,519.835316 C542.044233,513.719357 542.044233,505.672124 552.022742,497.625644 C563.932528,483.462452 578.094965,469.622145 590.004751,455.458953 C601.914536,441.295761 616.076974,427.455454 626.054729,413.293017 C634.729664,402.244442 637.014216,387.471431 632.081877,374.318578 C627.149538,361.165726 615.714514,351.537575 601.913782,348.917409 C582.16593,344.075053 561.490866,352.036818 550.091466,368.873674 C527.115451,389.45033 505.60458,411.606529 485.715859,435.180558 L485.715859,435.180558 Z" id="形状" fill="#FDF09F"></path>
                <path d="M173.81482,495.372238 C173.81482,495.372238 197.955767,491.509686 201.818319,485.393728 C227.890542,455.458953 253.640634,427.134078 279.712857,397.199304 C287.764199,385.351494 296.468388,373.960744 305.78508,363.079847 C313.832314,356.963888 311.901038,363.079847 311.901038,371.12708 C311.901038,379.174314 315.76359,725.194055 318.016242,768.32563 C311.901038,772.188181 124.888664,623.802077 124.888664,623.802077 C124.888664,623.802077 112.979633,465.437463 112.979633,462.86268 C112.979633,460.287897 126.81994,468.977884 132.935898,470.909159 C146.776959,478.956393 160.939397,488.934903 174.780458,496.981383 L173.81482,495.372238 Z M185.723851,310.935401 C165.770346,300.547518 144.992176,291.827076 123.60165,284.863178 C117.485692,282.931902 109.760589,282.931902 107.507182,272.953392 C151.926525,264.906913 192.805447,257.503186 237.868297,250.743721 C273.91903,244.628517 307.716356,236.581283 343.767089,232.718731 C343.767089,252.674996 347.62964,272.953392 365.654629,281.000626 C391.167404,292.582362 420.942962,289.506268 443.549168,272.953392 C463.567382,258.946432 474.313885,235.106682 471.552667,210.831191 L485.393728,208.899915 C485.393728,231.109586 485.393728,303.210297 483.462452,321.235287 C447.411719,331.213796 317.372735,361.470702 315.441459,361.470702 C275.528175,343.444958 225.637135,327.351245 186.689489,311.257531 L185.723851,310.935401 Z" id="形状" fill="#FCB22D"></path>
                <path d="M469.621391,212.762467 C474.228236,237.29227 463.048891,262.092225 441.617892,274.884668 C419.739497,293.238477 388.891865,296.425325 363.723354,282.931902 C346.231103,273.749811 337.21329,253.857347 341.835813,234.650007 C350.96783,203.51221 377.587095,180.677406 409.751842,176.389603 C419.730351,174.458327 413.614393,170.274399 409.751842,166.411848 C391.726853,148.386104 375.633139,130.361115 357.929526,110.40485 C350.732169,103.510345 344.061415,96.0863477 337.973261,88.1951787 C331.964781,83.0869202 328.666512,75.4799357 329.044622,67.6025518 C329.422731,59.725168 333.43442,52.4690571 339.904537,47.9597637 C346.402653,42.1074288 353.790944,37.3267996 361.792078,33.7973261 C382.933127,27.0473715 402.216574,15.4773554 418.121206,0 C421.263388,10.4246788 422.570342,21.3160539 421.983758,32.1881811 C421.983758,64.3756079 413.936524,74.3541175 384.001749,80.4700756 C370.160688,84.3326272 372.091964,88.5165551 377.885791,98.4950648 C405.88929,128.75197 429.708861,160.939397 455.781084,193.127578 C461.489715,198.949246 466.169524,205.697037 469.621391,213.083843 L469.621391,212.762467 Z" id="路径" fill="#0994CD"></path>
                <path d="M482.496814,321.879548 C482.496814,281.644133 484.42809,237.546921 484.42809,209.543422 C504.384355,211.474698 642.470573,257.825317 690.431091,271.666378 C691.718106,276.815944 521.765837,312.866676 482.496814,321.879548 Z" id="路径" fill="#FA7A33"></path>
                <path d="M215.658626,174.458327 C219.521177,144.523553 223.70586,116.198678 227.568411,88.1951787 C229.499687,65.9855073 239.478197,60.1916799 261.687868,65.9855073 C269.28198,67.7736261 276.631405,70.4754828 283.575409,74.0319868 C295.667864,81.6484106 309.300127,86.4858066 323.488693,88.1951787 C295.806571,122.313881 289.369236,124.245157 249.778083,104.288892 L233.684369,178.64301 C231.753094,186.690244 229.821818,196.667999 227.568411,204.715233 C225.83436,215.586035 219.82209,225.310809 210.872504,231.720661 C201.922919,238.130513 190.780394,240.692306 179.930024,238.83469 C155.977652,237.674837 135.350362,221.559408 128.429839,198.599275 C126.481245,188.434281 128.839445,177.916505 134.941532,169.556562 C141.043619,161.19662 150.34205,155.744654 160.617266,154.502062 C181.20541,150.919606 202.150421,158.513608 215.658626,174.458327 Z" id="路径" fill="#0994CD"></path>
                <path d="M691.718106,348.917409 L691.718106,272.632016 C707.812573,296.772963 725.515432,321.879548 740,348.917409 L691.718106,348.917409 Z" id="路径" fill="#FCB22D"></path>
                <path d="M485.715859,435.180558 C505.672124,411.03961 527.559664,389.15207 547.83806,365.011122 C559.237569,348.173961 579.91304,340.212156 599.66113,345.054857 C613.461862,347.675024 624.896886,357.303174 629.829225,370.456027 C634.761564,383.608879 632.477012,398.381891 623.802077,409.430465 C612.839144,424.051587 600.787985,437.82416 587.751344,450.630764 C576.142043,464.997467 563.443848,478.449023 549.769336,490.866179 C541.722856,500.843934 541.722856,506.959892 551.700611,513.07585 L605.776333,543.010625 C619.617395,551.057104 635.711108,559.104338 637.964514,577.129327 C640.872306,593.271741 634.372515,609.666401 621.193637,619.43113 C608.014758,629.195858 590.437921,630.64048 575.841559,623.15857 C549.769336,611.248784 524.019243,595.155071 499.878296,580.991879 C483.784583,572.945399 483.784583,572.945399 483.784583,589.039113 L483.784583,629.273773 C483.621275,652.475263 466.766361,672.184621 443.871299,675.946523 C413.936524,679.809074 395.911535,661.784085 395.911535,627.664628 C395.911535,593.545172 395.911535,567.472948 393.980259,537.538174 C392.048983,497.303513 392.048983,457.390229 392.048983,419.086844 C391.003623,392.900576 410.149943,370.260273 436.146195,366.942398 C447.633679,365.036716 459.360541,368.505746 467.96254,376.354281 C476.564539,384.202817 481.091019,395.56347 480.243408,407.177059 L480.243408,429.38673 L486.359366,435.502688 L485.715859,435.180558 Z" id="路径" fill="#FA7A33"></path>
                <polygon id="路径" fill="#FAEF8B" points="103.966761 272.632016 0 399.130579 189.908534 505.350747 317.694866 361.148571"></polygon>
            </g>
        </g>
    </g>
</svg>