<svg xmlns="http://www.w3.org/2000/svg" width="1024" height="1024"><g fill="none" fill-rule="evenodd"><path fill="#FFF" d="M0 0h1024v1024H0z"/><g fill-rule="nonzero"><path fill="#FDF09F" d="M833.718 771.69S533.727 880.163 459.695 898.51c0-6.116-9.979-407.177-9.979-407.177a104.932 104.932 0 0 0 16.094-3.862c26.072-8.048 313.832-74.354 363.724-86.264 4.184 17.703 4.184 370.483 4.184 370.483M627.716 561.18l-3.22-1.93v-22.21a39.913 39.913 0 0 0-44.096-40.235c-25.997 3.317-45.144 25.958-44.098 52.144 0 40.235 0 80.148 1.93 118.452 1.932 29.935 0 60.191 1.932 92.38 1.931 32.188 19.957 52.144 47.96 48.281 23.082-2.947 40.265-22.763 39.913-46.029V721.8c0-16.094 0-18.025 16.095-8.048 26.072 14.164 49.89 29.935 75.963 42.167a43.776 43.776 0 0 0 62.123-46.03c-1.931-19.955-18.026-26.071-32.188-34.118l-54.076-29.935c-11.91-6.116-11.91-14.163-1.931-22.21 11.91-14.163 26.072-28.003 37.982-42.166 11.91-14.163 26.072-28.004 36.05-42.166a40.235 40.235 0 0 0-24.141-64.376c-19.748-4.842-40.423 3.12-51.823 19.957a662.428 662.428 0 0 0-64.375 66.307"/><path fill="#FCB22D" d="M315.815 621.372s24.14-3.862 28.003-9.978c26.073-29.935 51.823-58.26 77.895-88.195a386.255 386.255 0 0 1 26.072-34.12c8.047-6.115 6.116 0 6.116 8.048 0 8.047 3.863 354.067 6.115 397.199-6.115 3.862-193.127-144.524-193.127-144.524s-11.91-158.365-11.91-160.94c0-2.574 13.84 6.116 19.957 8.047 13.841 8.047 28.003 18.026 41.844 26.072l-.965-1.609m11.909-184.437a408.143 408.143 0 0 0-62.122-26.072c-6.116-1.931-13.841-1.931-16.095-11.91 44.42-8.046 85.298-15.45 130.361-22.21 36.051-6.114 69.848-14.162 105.9-18.024 0 19.956 3.862 40.234 21.887 48.282a77.573 77.573 0 0 0 77.894-8.048 66.629 66.629 0 0 0 28.004-62.122l13.84-1.931c0 22.21 0 94.31-1.93 112.335-36.051 9.979-166.09 40.236-168.022 40.236-39.913-18.026-89.804-34.12-128.752-50.213l-.965-.323"/><path fill="#0994CD" d="M611.621 338.762c4.607 24.53-6.572 49.33-28.003 62.123-21.879 18.353-52.726 21.54-77.895 8.047-17.492-9.182-26.51-29.075-21.887-48.282 9.132-31.138 35.751-53.973 67.916-58.26 9.978-1.932 3.862-6.116 0-9.978-18.025-18.026-34.119-36.05-51.822-56.007a199.565 199.565 0 0 1-19.957-22.21 25.429 25.429 0 0 1 1.932-40.235 82.401 82.401 0 0 1 21.887-14.163A143.237 143.237 0 0 0 560.122 126a93.989 93.989 0 0 1 3.862 32.188c0 32.188-8.047 42.166-37.982 48.282-13.841 3.863-11.91 8.047-6.116 18.025 28.003 30.257 51.823 62.444 77.895 94.633a72.1 72.1 0 0 1 13.84 19.956v-.322"/><path fill="#FA7A33" d="M624.497 447.88c0-40.236 1.931-84.333 1.931-112.337 19.956 1.932 158.043 48.282 206.003 62.123 1.287 5.15-168.665 41.2-207.934 50.214"/><path fill="#0994CD" d="M357.659 300.458c3.862-29.934 8.047-58.26 11.91-86.263 1.93-22.21 11.91-28.003 34.119-22.21a96.564 96.564 0 0 1 21.887 8.047 96.564 96.564 0 0 0 39.914 14.163c-27.682 34.119-34.12 36.05-73.71 16.094l-16.095 74.354c-1.93 8.047-3.862 18.025-6.116 26.072a41.2 41.2 0 0 1-47.638 34.12c-23.952-1.16-44.58-17.276-51.5-40.236a37.338 37.338 0 0 1 32.187-44.097 58.904 58.904 0 0 1 55.042 19.956"/><path fill="#FCB22D" d="M833.718 474.917v-76.285c16.095 24.141 33.797 49.248 48.282 76.285h-48.282"/><path fill="#FA7A33" d="M627.716 561.18c19.956-24.14 41.844-46.028 62.122-70.169 11.4-16.837 32.075-24.799 51.823-19.956a40.235 40.235 0 0 1 24.141 64.375 363.08 363.08 0 0 1-36.05 41.2 359.86 359.86 0 0 1-37.983 40.236c-8.046 9.978-8.046 16.094 1.932 22.21l54.075 29.935c13.841 8.046 29.935 16.093 32.189 34.118a43.132 43.132 0 0 1-62.123 46.03c-26.073-11.91-51.823-28.004-75.964-42.167-16.093-8.047-16.093-8.047-16.093 8.047v40.235c-.164 23.201-17.019 42.91-39.914 46.673-29.934 3.862-47.96-14.163-47.96-48.282 0-34.12 0-60.192-1.93-90.127-1.932-40.234-1.932-80.148-1.932-118.451-1.045-26.186 18.1-48.827 44.097-52.145a37.982 37.982 0 0 1 44.097 40.235v22.21l6.116 6.116-.643-.322"/><path fill="#FAEF8B" d="M245.967 398.632 142 525.131l189.909 106.22 127.786-144.202z"/></g></g></svg>