<svg xmlns="http://www.w3.org/2000/svg" width="1025" height="1024"><g fill="none" fill-rule="evenodd"><path fill="#FFF" d="M.633 0h1024v1024H.633z"/><path fill="#FFA116" d="M639.532 684.211c15.386-15.489 40.293-15.449 55.63.091 15.338 15.539 15.298 40.692-.09 56.18l-68.323 68.78c-63.035 63.45-165.823 64.379-229.92 2.137-.37-.358-28.912-28.571-123.067-121.648-62.639-61.919-68.879-160.997-9.934-224.623L373.73 346.494c58.502-63.154 166.342-70.057 233.23-15.524l99.817 81.382c16.904 13.782 19.544 38.794 5.897 55.864-13.647 17.072-38.413 19.738-55.316 5.956L557.54 392.79c-34.98-28.519-96.173-24.602-126.358 7.983L321.279 519.41c-28.696 30.974-25.553 80.873 7.517 113.563 69.14 68.348 122.424 121.02 122.486 121.08 33.324 32.357 87.206 31.875 119.925-1.063l68.325-68.779"/><path fill="#B3B3B3" d="M473.554 615.383c-21.725 0-39.338-17.787-39.338-39.727 0-21.94 17.613-39.725 39.338-39.725h290.109c21.726 0 39.337 17.785 39.337 39.725s-17.611 39.727-39.337 39.727h-290.11"/><path fill="#000" d="M527.885 180.09c14.842-16.021 39.735-16.858 55.6-1.87 15.865 14.99 16.693 40.129 1.85 56.151L321.28 519.411c-28.697 30.972-25.554 80.87 7.514 113.561l121.944 120.552c15.526 15.347 15.791 40.499.594 56.178-15.197 15.678-40.102 15.947-55.628.6L273.76 689.75c-62.635-61.922-68.876-161-9.928-224.622L527.885 180.09"/></g></svg>