<svg xmlns="http://www.w3.org/2000/svg" width="1025" height="1024"><g fill="none" fill-rule="evenodd"><path fill="#FFF" d="M.633 0h1024v1024H.633z"/><g fill-rule="nonzero"><path fill="#000" d="M528.17 142c-4.781 0-9.718.247-14.777.648-130.407 10.273-95.823 148.3-97.798 194.3-2.375 33.72-9.255 60.282-32.424 93.2-27.303 32.424-65.62 84.84-83.791 139.477-8.577 25.668-12.65 51.953-8.854 76.788a13.08 13.08 0 0 0-3.425 4.165c-8.021 8.268-13.852 18.542-20.423 25.884-6.14 6.14-14.963 8.237-24.588 12.34-9.657 4.196-20.3 8.3-26.656 21.01-2.776 5.8-4.195 12.124-4.072 18.541 0 6.14.833 12.372 1.697 16.536 1.79 12.31 3.579 22.49 1.203 29.926-7.651 20.979-8.607 35.355-3.24 45.814 5.369 10.304 16.506 14.469 28.97 18.541 25.02 6.17 58.925 4.165 85.611 18.48 28.568 14.407 57.568 20.7 80.706 14.5a54.552 54.552 0 0 0 37.268-29.154c18.11-.093 37.947-8.3 69.723-10.305 21.565-1.789 48.56 8.238 79.534 6.14.771 4.165 1.944 6.139 3.517 10.304l.093.092c12.062 24.002 34.337 34.924 58.123 33.042 23.786-1.851 49.115-16.536 69.63-40.292 19.467-23.6 51.923-33.442 73.364-46.369 10.736-6.139 19.405-14.469 20.022-26.315.71-12.34-6.139-25.051-22.027-42.482v-2.993l-.093-.092c-5.244-6.17-7.712-16.506-10.427-28.568-2.623-12.372-5.615-24.25-15.179-32.27h-.093c-1.82-1.666-3.794-2.067-5.8-4.165a11.014 11.014 0 0 0-5.861-1.975c13.297-39.427 8.144-78.67-5.337-113.963-16.444-43.5-45.197-81.385-67.101-107.454-24.558-31.005-48.621-60.375-48.159-103.937.833-66.391 7.312-189.209-109.335-189.394m16.32 105.048h.402c6.571 0 12.217 1.912 18.017 6.108 5.892 4.165 10.18 10.243 13.543 16.444 3.24 7.99 4.875 14.16 5.122 22.336 0-.617.185-1.234.185-1.82v3.208a2.653 2.653 0 0 1-.124-.648l-.123-.74a55.748 55.748 0 0 1-4.628 21.78 29.401 29.401 0 0 1-6.571 10.336 21.904 21.904 0 0 0-2.715-1.296c-3.24-1.389-6.14-1.975-8.792-4.103a40.476 40.476 0 0 0-6.757-2.037c1.512-1.82 4.474-4.103 5.615-6.108 1.635-3.949 2.53-8.145 2.715-12.402v-.586a37.33 37.33 0 0 0-1.882-12.34c-1.388-4.166-3.116-6.202-5.646-10.305-2.591-2.036-5.152-4.072-8.237-4.072h-.494c-2.869 0-5.43.925-8.082 4.072a24.68 24.68 0 0 0-6.325 10.304 36.404 36.404 0 0 0-2.777 12.34v.587c.062 2.746.247 5.522.618 8.237-5.955-2.067-13.513-4.165-18.727-6.232a50.441 50.441 0 0 1-.555-6.14v-.616a54.668 54.668 0 0 1 4.627-23.725 33.433 33.433 0 0 1 13.266-16.443 30.388 30.388 0 0 1 18.326-6.14m37.269 120.565c11.075 43.716 36.928 107.207 53.557 137.996 8.823 16.475 26.377 51.182 33.998 93.294 4.812-.155 10.15.555 15.826 1.974 19.93-51.552-16.844-106.96-33.596-122.355-6.819-6.2-7.158-10.335-3.795-10.335 18.171 16.475 42.111 48.498 50.78 85.056 3.98 16.506 4.906 34.06.648 51.521 2.067.864 4.165 1.882 6.325 2.067 31.838 16.475 43.592 28.939 37.947 47.418v-1.326c-1.882-.093-3.703 0-5.584 0h-.463c4.658-14.408-5.615-25.452-32.857-37.762-28.228-12.34-50.78-10.366-54.637 14.346-.216 1.326-.37 2.036-.524 4.165-2.098.71-4.288 1.635-6.448 1.974-13.266 8.268-20.423 20.64-24.465 36.62-4.01 16.444-5.244 35.664-6.324 57.66v.093c-.603 9.594-4.656 23.734-8.897 38.411l-.472 1.633-.473 1.636c-46.276 33.072-110.446 47.449-165.021 10.304a81.6 81.6 0 0 0-12.402-16.443 44.734 44.734 0 0 0-8.485-10.305c5.615 0 10.428-.894 14.346-2.067a18.973 18.973 0 0 0 9.687-10.304c3.332-8.237 0-21.503-10.643-35.88-10.644-14.407-28.722-30.696-55.162-46.924-19.436-12.31-30.419-26.84-35.478-43.068-5.09-16.474-4.412-33.473-.463-50.75 7.558-33.01 26.933-65.095 39.304-85.24 3.301-2.006 1.142 4.164-12.587 30.048-12.217 23.17-35.201 77.035-3.764 118.9a250.633 250.633 0 0 1 19.96-88.728c17.4-39.427 53.774-108.101 56.643-162.523 1.48 1.111 6.695 4.165 8.916 6.232 6.725 4.103 11.723 10.274 18.202 14.346 6.51 6.201 14.716 10.335 27.025 10.335 1.204.093 2.314.185 3.425.185 12.68 0 22.49-4.134 30.727-8.268 8.947-4.134 16.074-10.304 22.83-12.34h.154c14.408-4.165 25.792-12.402 32.24-21.596M454.22 248.868c4.38 0 8.33 1.48 12.31 4.165a42.632 42.632 0 0 1 10.612 14.345c2.777 6.14 4.35 12.372 4.72 20.578v.123c.216 4.134.185 6.201-.061 8.207v2.468c-.926.216-1.728.555-2.561.74-4.69 1.697-8.453 4.165-12.125 6.17.37-2.745.402-5.522.093-8.237v-.463c-.37-4.103-1.203-6.139-2.53-10.273a18.912 18.912 0 0 0-5.121-8.237 7.651 7.651 0 0 0-5.646-1.975h-.648c-2.19.185-4.01 1.265-5.738 4.073a17.03 17.03 0 0 0-3.702 8.33 29.123 29.123 0 0 0-.71 10.211v.432c.37 4.165 1.142 6.201 2.5 10.304 1.388 4.134 2.992 6.17 5.09 8.268.34.278.648.556 1.049.74-2.16 1.76-3.61 2.16-5.43 4.196a9.41 9.41 0 0 1-4.042 2.098 80.86 80.86 0 0 1-8.484-12.402 54.668 54.668 0 0 1-4.781-20.577 54.267 54.267 0 0 1 2.468-20.609 44.117 44.117 0 0 1 8.73-16.505c3.95-4.103 8.022-6.17 12.896-6.17h1.11"/><path fill="#F9C105" d="M495.407 301.5c10.211 0 22.583 2.005 37.484 12.309 9.039 6.17 16.135 8.299 32.486 14.438h.092c7.867 4.196 12.495 8.207 14.747 12.31v-4.042c2.24 4.538 2.42 9.82.494 14.5-3.795 9.595-15.92 19.868-32.826 26.008v.061c-8.268 4.165-15.456 10.274-23.91 14.346-8.514 4.165-18.14 9.009-31.22 8.237a35.14 35.14 0 0 1-13.822-2.067 110.015 110.015 0 0 1-9.934-6.108c-6.016-4.165-11.199-10.243-18.88-14.346v-.154h-.155c-12.34-7.59-19.004-15.796-21.163-21.935-2.13-8.268-.155-14.47 5.954-18.51 6.91-4.166 11.723-8.361 14.9-10.367 3.21-2.283 4.412-3.147 5.43-4.041h.062v-.093c5.214-6.232 13.451-14.469 25.884-18.541 4.289-1.11 9.07-2.005 14.377-2.005m153.792 342.476c1.141 18.541 10.582 38.41 27.21 42.482 18.14 4.134 44.24-10.274 55.254-23.601l6.51-.278c9.718-.247 17.801.309 26.13 8.237l.093.093c6.417 6.14 9.41 16.382 12.063 27.025 2.622 12.372 4.751 24.064 12.618 32.887 14.994 16.259 19.899 27.951 19.621 35.17l.093-.185v.556l-.093-.37c-.462 8.083-5.707 12.217-15.364 18.356-19.436 12.371-53.865 21.966-75.8 48.436-19.066 22.737-42.297 35.14-62.813 36.743-20.485 1.635-38.163-6.17-48.56-27.704l-.154-.092c-6.478-12.372-3.702-31.623 1.728-52.138 5.43-20.609 13.204-41.495 14.284-58.556 1.142-22.027 2.345-41.186 6.016-55.963 3.702-14.346 9.502-24.588 19.776-30.358l1.388-.678v-.062m-333.653 1.512h.308c1.635 0 3.24.154 4.844.432 11.6 1.696 21.78 10.273 31.56 23.2l28.075 51.336.092.092c7.497 16.444 23.262 32.826 36.682 50.534 13.39 18.449 23.755 34.892 22.49 48.436v.185c-1.758 22.953-14.777 35.417-34.707 39.921-19.899 4.165-46.893.062-73.888-14.315-29.864-16.536-65.342-14.469-88.141-18.572-11.384-2.036-18.85-6.2-22.305-12.371-3.425-6.14-3.487-18.542 3.794-37.947v-.092l.062-.093c3.61-10.304.925-23.23-.833-34.522-1.697-12.371-2.56-21.873 1.327-29 4.936-10.304 12.217-12.31 21.256-16.444 9.1-4.164 19.775-6.231 28.26-14.469h.061v-.092c7.898-8.268 13.729-18.542 20.608-25.853 5.862-6.201 11.724-10.366 20.455-10.366"/><path fill="#000" d="M536.408 365.546c-13.42 6.201-29.154 16.505-45.907 16.505-16.72 0-29.925-8.237-39.458-14.376-4.782-4.134-8.638-8.268-11.538-10.335-5.06-4.134-4.443-10.304-2.283-10.304 3.363.493 3.98 4.164 6.14 6.2 2.96 2.037 6.632 6.14 11.136 10.274 8.978 6.17 20.979 14.407 35.973 14.407 14.962 0 32.486-8.237 43.13-14.376 6.015-4.165 13.728-10.304 19.99-14.408 4.813-4.226 4.597-8.268 8.608-8.268 3.98.494 1.049 4.134-4.535 10.274a249.831 249.831 0 0 1-21.287 14.438v-.03h.03m-33.38-48.869V316c-.185-.586.401-1.295.895-1.542 2.283-1.327 5.553-.833 8.02.123 1.944 0 4.937 2.067 4.629 4.165-.186 1.512-2.623 2.036-4.165 2.036-1.697 0-2.839-1.326-4.35-2.098-1.605-.555-4.505-.246-5.029-2.005m-16.999-.001c-.617 1.79-3.486 1.512-5.121 2.036-1.45.772-2.653 2.098-4.288 2.098-1.574 0-4.042-.586-4.227-2.098-.278-2.036 2.715-4.103 4.628-4.103 2.499-.956 5.676-1.45 7.99-.154.586.278 1.11.925.926 1.542v.648h.092z"/></g></g></svg>