<svg xmlns="http://www.w3.org/2000/svg" width="1024" height="1024"><g fill="none" fill-rule="evenodd"><path fill="#FFF" d="M0 0h1024v1024H0z"/><path fill="#000" fill-rule="nonzero" d="M164.838 200.061c-.688 1.203-1.546 140.52-1.718 309.73-.344 243.076 0 308.355 1.718 311.79 1.202 2.234 3.95 4.639 6.356 5.154 2.405.515 48.271-5.325 102.212-13.228 53.94-7.73 137.085-19.583 185.185-26.283 47.928-6.7 89.5-13.055 92.42-14.086 2.92-1.03 5.841-3.608 6.872-6.013.859-2.233 1.546-15.289 1.546-28.86v-24.737l-25.424-47.756c-14.087-26.283-30.406-57.033-36.419-68.37-6.012-11.339-15.804-29.72-21.817-40.886-6.012-10.994-11.337-22.332-11.853-24.909-.687-3.607 1.03-9.62 6.7-21.988 4.294-9.277 13.743-30.578 20.958-47.07 7.215-16.49 14.601-32.639 16.32-35.903l2.92-5.84 12.54 23.878c7.043 13.056 17.694 33.155 23.878 44.492l11.338 20.615.859 101.353.859 101.354 16.663-32.64c9.105-18.037 29.032-57.032 44.149-86.751 15.117-29.72 35.216-68.886 44.32-87.096 9.277-18.209 17.351-32.467 18.038-31.78.515.687 16.32 30.578 34.873 66.481 18.552 35.903 37.964 73.352 43.118 83.144 5.153 9.792 9.104 18.038 8.76 18.381-.343.344-21.129 1.203-46.038 1.718-48.1 1.203-53.425 2.062-55.83 9.62-.687 2.233-8.933 19.412-18.21 38.308-9.448 18.897-18.209 36.934-19.411 39.855l-2.405 5.668h137.428c91.734 0 137.257-.515 137.257-1.717 0-1.89-219.027-484.092-220.573-485.81-.515-.515-1.374-.515-1.717-.172-.344.344-17.35 36.934-37.965 81.427-36.59 79.193-68.543 147.735-77.819 167.147l-4.638 9.792-.86-124.716c-.858-119.22-1.03-125.06-4.122-128.496-4.123-4.638-4.466-4.638-34.529-8.59-14.086-1.889-55.143-7.73-91.046-12.883C284.057 212.258 180.64 198 173.599 198c-3.951 0-7.902 1.03-8.761 2.061m275.2 60.984c19.24 41.229 42.087 91.905 42.087 93.28 0 .859-9.448 22.332-20.786 47.584-38.136 84.347-73.867 162.51-84.862 186.044-6.012 12.712-14.773 32.296-19.411 43.29-7.73 18.21-8.246 20.27-5.498 21.13 1.718.515 24.394.859 50.505.515 29.032-.172 47.929.172 48.96 1.203 1.717 1.717 31.092 79.02 31.092 81.77 0 .687-59.78 1.374-133.992 1.374-103.587 0-133.993-.516-133.993-2.062 0-2.92 218.855-483.92 220.23-483.92.514 0 3.263 4.467 5.668 9.792"/></g></svg>