<svg xmlns="http://www.w3.org/2000/svg" width="1024" height="1024"><defs><linearGradient id="a" x1="71.04%" x2="-23.091%" y1="43.236%" y2="58.894%"><stop offset="0%" stop-color="#50A1FF"/><stop offset="100%" stop-color="#0F5AF7"/></linearGradient></defs><g fill="none" fill-rule="evenodd"><path fill="#FFF" d="M0 0h1024v1024H0z"/><g transform="translate(142 148)"><path fill="#50A1FF" d="M363.934 727.869c101.898 0 194.014-41.877 260.078-109.36-30.121-29.845-73.344-72.446-129.668-127.804V236.557c62.384-62.106 105.392-104.724 129.024-127.853C557.35 41.606 465.5 0 363.934 0 162.94 0 0 162.939 0 363.934 0 564.93 162.939 727.87 363.934 727.87"/><path fill="url(#a)" fill-opacity=".6" d="M186.213 325.721c21.027-76.83 65.508-122.929 133.443-138.295 67.934-15.366 127.377-.404 178.328 44.885 46.907-46.502 88.701-87.705 125.384-123.607C594.23 79.09 457.95 41.246 363.934 71.574 276.248 99.86 217.008 184.575 186.214 325.72" opacity=".607"/><circle cx="363.934" cy="363.934" r="181.967" fill="#FFF"/><circle cx="642.951" cy="363.934" r="97.049" fill="#3CD458"/></g></g></svg>