<svg xmlns="http://www.w3.org/2000/svg" width="1024" height="1024"><g fill="none" fill-rule="evenodd"><path fill="#FFF" d="M0 0h1024v1024H0z"/><circle cx="512" cy="512" r="370" fill="#EDEDED"/><g fill-rule="nonzero"><path fill="#DA4453" d="M667.979 439.497 491.125 616.322c-23.549 23.585-61.901 23.585-85.45 0-23.586-23.55-23.586-61.904 0-85.455l176.816-176.86L488.47 260 311.651 436.84c-75.536 75.54-75.536 197.986 0 273.506 75.537 75.539 197.995 75.539 273.495 0L762 533.522l-94.021-94.025"/><path fill="#CCD1D9" d="M403 345.236 496.774 439 582 353.746 488.227 260z"/><path fill="#AAB2BD" d="M783.062 435.058a12.075 12.075 0 0 0 3.544-8.576c0-6.68-5.422-12.084-12.085-12.084a12.11 12.11 0 0 0-8.576 3.544l-34.2 34.198a12.034 12.034 0 0 0-3.544 8.558c0 6.68 5.422 12.102 12.085 12.102 3.367 0 6.38-1.364 8.576-3.562l34.2-34.18m48.376 51.299a12.034 12.034 0 0 0-8.541-3.544H774.52a12.034 12.034 0 0 0-8.541 3.544c-4.75 4.731-4.75 12.386 0 17.1 2.339 2.374 5.457 3.543 8.54 3.543h48.377c3.084 0 6.202-1.17 8.54-3.544 4.75-4.713 4.75-12.368 0-17.1M714.626 369.548c-4.713-4.73-12.369-4.73-17.082 0-2.375 2.357-3.544 5.458-3.544 8.56v48.374c0 3.084 1.17 6.202 3.544 8.54a12.02 12.02 0 0 0 17.082 0c2.375-2.338 3.544-5.456 3.544-8.54v-48.375c0-3.101-1.17-6.202-3.544-8.559M604.09 256.025a12.025 12.025 0 0 0 3.545-8.54c0-6.698-5.422-12.103-12.12-12.103-3.332 0-6.344 1.364-8.54 3.544v-.018l-34.198 34.233a11.992 11.992 0 0 0-3.543 8.54c0 6.68 5.421 12.103 12.084 12.103 3.331 0 6.379-1.365 8.54-3.544l34.232-34.215m48.375 51.314a12.095 12.095 0 0 0-8.54-3.543h-48.374a12.113 12.113 0 0 0-8.575 3.543c-4.713 4.732-4.713 12.386 0 17.117A12.116 12.116 0 0 0 595.55 328h48.374c3.083 0 6.167-1.187 8.54-3.544 4.713-4.73 4.713-12.385 0-17.117M535.661 190.536c-4.713-4.715-12.368-4.715-17.117 0-2.339 2.374-3.544 5.456-3.544 8.575v48.337c0 3.119 1.204 6.202 3.544 8.575 4.75 4.714 12.404 4.714 17.117 0a12.03 12.03 0 0 0 3.543-8.558v-48.371c0-3.1-1.17-6.184-3.543-8.558"/><path fill="#CCD1D9" d="M762 533.773 668.246 440 583 525.226 676.756 619z"/></g></g></svg>