<svg xmlns="http://www.w3.org/2000/svg" width="1024" height="1024"><g fill="none" fill-rule="evenodd"><path fill="#FFF" d="M0 0h1024v1024H0z"/><g fill-rule="nonzero"><path fill="#C18260" d="M245.11 674.598s25.503-9.723 45.338-46.586c19.835-36.864 76.103-68.461 93.104-74.133 17.002-5.671 41.695-19.444 98.367-30.787 56.672-11.343 112.13-28.762 145.324-65.625 33.194-36.864 70.435-103.705 70.435-103.705s35.623-61.574 83.39-72.512c47.766-10.938 71.245-14.583 83.794-19.445 12.548-4.86 12.548-6.076 25.907-8.507 13.358-2.43 18.216 12.153 18.216 12.153a108.633 108.633 0 0 1-7.287 33.218c-6.476 14.584-30.764 35.243-50.195 49.422a126.814 126.814 0 0 0-48.98 84.665 633.158 633.158 0 0 1-17.003 80.209l-25.502 87.095s-16.597 69.677 26.312 91.147c-21.05 14.988-73.674 16.609-97.557-14.179-38.861 12.963-45.743 49.017-71.245 62.79-25.503 13.773-55.053 36.054-95.534 32.408 36.433-46.181 50.6-81.02 50.6-81.02s-155.038-21.47-197.138-13.773c-42.1 7.697-46.957 7.697-85.413 33.623-38.456 25.926-56.267 44.56-101.2 44.56s-54.649-3.645-56.268-12.557c-1.62-8.912 32.789-29.167 32.789-29.167a222.893 222.893 0 0 1-30.765-4.051 51.39 51.39 0 0 1-12.549-5.266s17.407-20.66 57.077-22.686a576.842 576.842 0 0 0 64.769-6.481l1.214-.81"/><path fill="#FCF9F5" d="M653.709 433.93c-2.837 13.381-27.553 53.93-73.338 72.99-45.785 19.058-134.114 38.116-157.615 45.01-23.5 6.893-91.57 43.793-100.484 53.525a99.245 99.245 0 0 1-28.362 15.41s26.336-37.712 49.431-46.633c23.096-8.92 99.27-43.388 99.27-43.388s81.845-13.382 103.32-25.547c21.474-12.165 62.803-29.601 76.174-45.821a119.14 119.14 0 0 1 31.604-25.546"/><path fill="#FFF" d="M751.196 293.226a133.334 133.334 0 0 1 43.846-5.982c22.329 1.197 62.926-7.975 73.888-17.147 10.961-9.172 3.248-7.975 3.248-7.975s-90.128 10.368-105.555 19.14c-15.427 8.774-15.427 11.964-15.427 11.964"/><path fill="#C18260" d="M255.179 698.68c15.783-4.053 55.037-27.963 98.338-38.094 59.892-13.78 121.404-15.805 161.467-18.237 57.465-3.647 162.278-5.268 195.462-42.147 33.183-36.878 78.103-193.712 91.862-168.586 13.76 25.126-42.896 167.37-42.896 167.37s-16.592 69.705 26.304 91.183c-21.043 14.995-73.652 16.616-97.528-14.184-38.85 12.968-45.729 49.036-71.224 62.815-25.495 13.779-55.037 36.068-95.505 32.42 36.422-46.199 50.586-81.05 50.586-81.05s-154.993-21.48-197.08-13.78c-42.087 7.7-46.943 7.7-85.388 33.637-38.445 25.936-56.25 44.578-101.17 44.578s-54.632-3.647-56.251-12.563c-1.619-8.916 32.78-29.178 32.78-29.178a617.137 617.137 0 0 0 90.243-14.184"/><path fill="#000" d="M864.12 283.714a111.02 111.02 0 0 0-24.482 42.25c0 7.174 1.204 3.985 2.81 1.993 1.204-11.56 14.047-31.887 23.679-42.25 9.632-10.363 2.006-6.377-2.007-1.993"/><path fill="#000" d="M911.82 260.806s-4.455-14.967-18.629-12.54c-14.174 2.427-13.769 3.64-26.728 8.9-12.959 5.258-38.472 3.64-87.069 14.562-48.597 10.922-87.474 75.645-87.474 75.645s-37.662 67.555-71.68 105.175c-34.018 37.62-89.094 54.206-146.6 65.937-57.506 11.73-82.614 25.484-100.028 31.552-17.414 6.068-72.085 42.07-92.334 79.69-20.248 37.62-43.332 42.475-43.332 42.475s-27.538 3.236-68.035 5.258c-40.497 2.023-57.911 26.7-57.911 26.7l9.314 8.495c6.075 5.258 31.183 4.045 31.183 4.045s-29.968 18.203-28.348 27.507c1.62 9.304 6.48 14.967 52.647 14.967 46.166 0 69.655-14.967 108.937-40.856 39.282-25.89 42.927-28.721 86.26-36.407 43.331-7.686 187.906 16.585 187.906 16.585s-12.149 30.744-49.001 77.668c41.307 3.64 82.614-14.158 108.532-28.316 25.918-14.159 27.943-55.015 67.63-68.364 22.274 38.834 92.74 30.743 106.913 12.136-44.142-21.844-29.158-88.59-29.158-88.59l23.893-88.185a608.22 608.22 0 0 0 19.44-85.353c6.074-42.88 32.802-67.15 52.646-81.713 19.843-14.563 39.687-34.384 46.166-49.351 6.48-14.968 4.86-37.62 4.86-37.62M770.08 690.81c-37.663 4.045-52.647-8.9-61.556-16.99.81-14.563 38.877-48.947 38.877-48.947s6.48 48.947 22.274 65.937h.405m111.367-370.944c-16.604 18.203-43.737 29.125-61.96 49.351-18.224 20.226-28.754 85.758-28.754 85.758s-2.025 37.216-30.778 111.243c-28.753 74.027-70.465 93.848-70.465 93.848s0-37.216-8.1-39.238c-2.024 23.462-41.306 84.14-53.05 95.87-11.745 11.732-52.242 39.644-88.69 44.498 48.192-70.791 51.027-100.32 51.027-100.32s7.695-48.139 3.645-48.139c-4.05 0-11.744 9.709-11.744 9.709s-14.174 50.97-27.133 56.228c-12.96 5.259-81.4-.81-91.12-4.045-9.719-3.236-66.415-6.473-66.415-6.473s-64.39 3.641-93.953 26.699c-29.563 23.057-60.746 34.788-67.63 38.024-6.885 3.237-21.06 8.9-45.762 12.54a122.435 122.435 0 0 1-52.242-2.427c-6.074-3.236 14.174-12.135 18.224-14.562 4.05-2.427 12.959-10.518 12.959-19.013-11.744 3.641-43.332-.404-43.332-5.258 8.504-10.922 20.654-16.181 81.804-19.417 61.151-3.236 58.721-20.226 72.895-34.384 21.059-28.317 28.348-48.947 72.49-75.645 72.895-38.834 79.375-31.553 171.304-58.251 91.928-26.698 104.077-51.374 114.607-61.487 10.529-10.113 18.628-24.27 54.266-86.971 36.852-53.397 43.332-63.914 88.689-84.95 26.323-12.944 66.01 0 87.069-14.562 3.645 16.99 28.349 15.776 28.349 15.776s.404 17.395-16.2 35.598"/><path fill="#000" d="M788.193 301.484c-6.892 3.707-11.657 10.448-12.876 18.212 0 0 10.864 12.95 28.568 1.619 17.704-11.332 10.06-24.283 10.06-24.283a50.44 50.44 0 0 0-25.752 4.452m71.22-21.855a146.165 146.165 0 0 0-29.776 44.924c-2.817 9.308 1.207 4.047 2.816 1.618 4.427-14.57 20.521-34.805 30.178-45.732 9.657-10.928.805-5.262-3.219-.81m7.645 7.69a87.304 87.304 0 0 0-16.498 42.09c0 7.285 2.012 2.833 3.622.81a90.16 90.16 0 0 1 15.29-40.472c4.828-5.261 1.207-6.88-2.414-2.428"/><path fill="#000" d="M871.933 291.4c-12.868 21.978-9.547 30.369-11.623 40.358-2.075 9.99 2.076 1.2 3.321-.799.83-11.188 1.245-23.975 9.962-36.362 3.736-4.795 2.49-7.592-1.66-3.196"/></g></g></svg>