<?xml version="1.0" encoding="UTF-8"?>
<svg width="1024px" height="1024px" viewBox="0 0 1024 1024" version="1.1" xmlns="http://www.w3.org/2000/svg" xmlns:xlink="http://www.w3.org/1999/xlink">
    <title>MariaDB</title>
    <g id="ICON-新版方图标" stroke="none" stroke-width="1" fill="none" fill-rule="evenodd">
        <g id="MariaDB">
            <rect id="蒙版路径" fill="#FFFFFF" x="0" y="0" width="1024" height="1024"></rect>
            <g id="编组" transform="translate(112, 248)" fill-rule="nonzero">
                <path d="M133.109994,426.597685 C133.109994,426.597685 158.612506,416.875394 178.447794,380.011705 C198.283082,343.148016 254.55053,311.550568 271.552205,305.879232 C288.55388,300.207896 313.246789,286.434649 369.919039,275.091975 C426.591289,263.749301 482.049134,246.330196 515.242881,209.466507 C548.436628,172.602818 585.678392,105.762064 585.678392,105.762065 C585.678392,105.762066 621.30095,44.1875524 669.06756,33.2499734 C716.83417,22.3123945 740.312674,18.6665362 752.86153,13.8053904 C765.410385,8.94424465 765.410385,7.72895819 778.768844,5.2983853 C792.127303,2.86781241 796.984925,17.4512497 796.984925,17.4512497 C796.314975,28.8381634 793.856001,40.0482829 789.698492,50.6690794 C783.221664,65.2525167 758.933556,85.9123862 739.503071,100.090728 C712.51589,120.619057 694.874123,151.113308 690.522054,184.755684 C686.593612,211.831703 680.914467,238.62424 673.520379,264.964589 L648.017866,352.060117 C648.017866,352.060117 631.420994,421.73654 674.329983,443.2066 C653.28029,458.195133 600.656058,459.815514 576.772752,429.028258 C537.911781,441.991313 531.030151,478.044812 505.527638,491.818058 C480.025126,505.591303 450.474595,527.871555 409.994416,524.225696 C446.426577,478.044811 460.594639,443.2066 460.59464,443.2066 C460.594641,443.2066 305.555556,421.73654 263.456169,429.433353 C221.356783,437.130167 216.499162,437.130168 178.042992,463.056279 C139.586822,488.98239 121.775543,507.616781 76.8425461,507.616781 C31.9095487,507.616781 22.1943049,503.970922 20.5750974,495.058821 C18.9558899,486.14672 53.3640421,465.891946 53.3640421,465.891946 C43.0275246,465.257985 32.7476759,463.904392 22.599106,461.840992 C18.2014565,460.649772 13.9815483,458.878849 10.0502513,456.574751 C10.0502513,456.574751 27.4567284,435.914881 67.1273032,433.889404 C88.821367,432.949696 110.445164,430.785747 131.895588,427.407876 L133.109994,426.597685 Z" id="路径" fill="#C18260"></path>
                <path d="M541.708543,185.929648 C538.872289,199.311089 514.156368,239.86091 468.371135,258.919325 C422.585902,277.977741 334.256869,297.036157 310.756485,303.929626 C287.256101,310.823095 219.18602,347.723432 210.27208,357.455389 C201.721024,364.105594 192.140268,369.310672 181.909548,372.864322 C181.909548,372.864322 208.246186,335.152988 231.341391,326.232028 C254.436597,317.311067 330.610258,282.84372 330.610258,282.84372 C330.610258,282.84372 412.456426,269.462279 433.930915,257.297333 C455.405404,245.132387 496.733667,227.695964 510.104577,211.476035 C519.09992,201.212363 529.789998,192.571268 541.708543,185.929648 Z" id="路径" fill="#FCF9F5"></path>
                <path d="M639.19598,45.2261307 C653.360527,40.8060416 668.186983,38.783345 683.041723,39.2444828 C705.370574,40.4408123 745.968484,31.2689525 756.92992,22.0970927 C767.891356,12.925233 760.177752,14.1215625 760.177752,14.1215616 C760.177752,14.1215607 670.050391,24.489751 654.623186,33.2628349 C639.19598,42.0359187 639.19598,45.2261307 639.19598,45.2261307 L639.19598,45.2261307 Z" id="路径" fill="#FFFFFF"></path>
                <path d="M143.179023,450.679623 C158.961595,446.627059 198.215686,422.716934 241.51659,412.585526 C301.40943,398.806809 362.920994,396.780528 402.984447,394.34899 C460.449199,390.701682 565.261667,389.080657 598.445538,352.202327 C631.629409,315.323998 676.549038,158.489786 690.308203,183.615681 C704.067368,208.741576 647.41198,350.986558 647.411981,350.986558 C647.411982,350.986558 630.820046,420.690653 673.716268,442.16924 C652.672838,457.163726 600.064264,458.78475 576.188063,427.985267 C537.338654,440.953471 530.459072,477.021288 504.964147,490.800003 C479.469222,504.578719 449.927483,526.867819 409.459349,523.220513 C445.88067,477.021288 460.044517,442.169241 460.044517,442.16924 C460.044517,442.169239 305.051562,420.690653 262.964701,428.390524 C220.87784,436.090395 216.021665,436.090395 177.576937,462.026802 C139.13221,487.963208 121.32623,506.605001 76.4066004,506.605001 C31.486971,506.605001 21.7746186,502.957694 20.1558929,494.042055 C18.5371672,485.126415 52.935082,464.863597 52.935082,464.863597 C83.32464,462.371686 113.488348,457.630744 143.179023,450.679623 L143.179023,450.679623 Z" id="路径" fill="#C18260"></path>
                <path d="M752.119985,35.714341 C740.913531,47.8259876 732.552074,62.255717 727.638191,77.9636336 C727.638191,85.1380417 728.842214,81.9494162 730.447577,79.9565244 C731.651599,68.3977561 744.494508,48.0702664 754.126691,37.7072318 C763.758873,27.3441973 756.133395,31.3299799 752.119985,35.714341 L752.119985,35.714341 Z" id="路径" fill="#000000"></path>
                <path d="M799.820012,12.8062982 C799.820012,12.8062982 795.365319,-2.16088825 781.191293,0.266223959 C767.017267,2.69333617 767.422239,3.90689085 754.46313,9.16563128 C741.504022,14.4243717 715.990776,12.8062982 667.394117,23.7282988 C618.797458,34.6502995 579.920131,99.3732667 579.920131,99.3732667 C579.920131,99.3732667 542.25772,166.927863 508.240059,204.548088 C474.222397,242.168312 419.146184,258.753572 361.640138,270.484611 C304.134092,282.215649 279.025817,295.969279 261.612014,302.037057 C244.198211,308.104835 189.52697,344.106985 169.278362,381.72721 C149.029755,419.347434 125.946342,424.201657 125.946342,424.201657 C125.946342,424.201657 98.4082353,427.437805 57.9110192,429.460398 C17.4138031,431.482991 0,456.158622 0,456.158622 L9.31436027,464.653511 C15.3889426,469.912253 40.4972161,468.698697 40.4972161,468.698697 C40.4972161,468.698697 10.5292767,486.902031 12.1491647,496.205958 C13.7690528,505.509884 18.6287196,511.173144 64.7955456,511.173144 C110.962372,511.173144 134.450757,496.205958 173.733056,470.316771 C213.015354,444.427583 216.660105,441.595954 259.992125,433.910102 C303.324146,426.224249 447.899206,450.495362 447.899207,450.495363 C447.899208,450.495364 435.750043,481.238772 398.897576,528.162923 C440.204736,531.80359 481.511896,514.004774 507.430115,499.846625 C533.348333,485.688475 535.373193,444.832102 575.060465,431.48299 C597.333934,470.316771 667.799089,462.2264 681.973114,443.618547 C637.831149,421.774545 652.815119,355.028986 652.815119,355.028986 L676.708476,266.843944 C685.229954,238.895562 691.726296,210.370713 696.14714,181.490531 C702.221722,138.611565 728.949884,114.340452 748.79352,99.7777856 C768.637156,85.215119 788.480792,65.3937091 794.960346,50.4265227 C801.439901,35.4593363 799.820012,12.8062982 799.820012,12.8062982 L799.820012,12.8062982 Z M658.079757,442.80951 C620.417347,446.854696 605.433376,433.910102 596.523989,425.819731 C597.333933,411.257064 635.401316,376.872987 635.401316,376.872987 C635.401316,376.872987 641.880871,425.819731 657.674785,442.80951 L658.079757,442.80951 Z M769.4471,71.8660061 C752.843242,90.0693406 725.710107,100.991341 707.48636,121.217268 C689.262613,141.443195 678.733337,206.975199 678.733337,206.975199 C678.733337,206.975199 676.708477,244.190905 647.955453,318.217799 C619.202429,392.244693 577.490298,412.066101 577.490298,412.0661 C577.490298,412.066099 577.490298,374.850395 569.390855,372.827802 C567.365994,396.289878 528.083695,456.96766 516.339501,468.698697 C504.595308,480.429734 464.098093,508.341514 427.650599,513.195736 C475.842285,442.404991 478.677091,412.875138 478.677091,412.875138 C478.677091,412.875138 486.371562,364.737432 482.32184,364.737431 C478.272118,364.73743 470.577648,374.445876 470.577648,374.445876 C470.577648,374.445876 456.403623,425.415212 443.444513,430.673954 C430.485403,435.932695 362.045109,429.864917 352.325777,426.628768 C342.606446,423.392619 285.910344,420.156471 285.910344,420.156472 C285.910344,420.156473 221.519771,423.797139 191.956803,446.854696 C162.393835,469.912253 131.210979,481.64329 124.326453,484.879438 C117.441926,488.115586 103.2679,493.778846 78.5645993,497.419513 C61.1792933,500.382466 43.358102,499.554502 26.3231909,494.992402 C20.2486085,491.756254 40.4972161,482.856846 44.546938,480.429734 C48.5966599,478.002623 57.5060467,469.912253 57.5060467,461.417363 C45.7618545,465.05803 14.1740262,461.012844 14.1740262,456.158622 C22.6784415,445.236621 34.8276062,439.97788 95.9784014,436.741732 C157.129197,433.505584 154.699365,416.515805 168.87339,402.357655 C189.931942,374.041357 197.221441,353.410911 241.363407,326.712688 C314.258395,287.878908 320.73795,295.160242 412.66663,268.462018 C504.595309,241.763794 516.744474,217.088163 527.27375,206.975199 C537.803025,196.862235 545.902469,182.704086 581.540019,120.003712 C618.392486,66.6072647 624.87204,56.0897829 670.228922,35.0548184 C696.552112,22.1102253 736.239384,35.0548184 757.297936,20.4921508 C760.942685,37.4819296 785.646863,36.268374 785.646863,36.268374 C785.646863,36.268374 786.05096,53.6626717 769.4471,71.8660061 Z" id="形状" fill="#000000"></path>
                <path d="M676.192506,53.4837663 C669.301411,57.1909276 664.535621,63.9318318 663.316583,71.6959353 C663.316583,71.6959353 674.180643,84.6468106 691.885037,73.3147941 C709.589431,61.9827775 701.944351,49.0319021 701.94435,49.0319021 C693.121124,48.2272588 684.242291,49.7621919 676.192506,53.4837663 L676.192506,53.4837663 Z M747.412452,31.6291635 C734.798718,44.6129832 724.701146,59.8475113 717.636881,76.5525136 C714.820273,85.8609552 718.843999,80.5996626 720.453489,78.1713725 C724.879587,63.6016373 740.974491,43.3658943 750.631433,32.4385929 C760.288374,21.5112916 751.436177,27.1772994 747.412452,31.6291635 L747.412452,31.6291635 Z M755.057531,39.3187453 C745.964805,51.6403151 740.273319,66.161297 738.560255,81.409092 C738.560255,88.6939596 740.572118,84.2420964 742.181608,82.2185215 C743.922253,67.6760998 749.171365,53.7822383 757.471766,41.7470345 C762.300237,36.485741 758.678884,34.8668821 755.057531,39.3187453 L755.057531,39.3187453 Z" id="形状" fill="#000000"></path>
                <path d="M759.932652,43.4006859 C747.065017,65.377696 750.385698,73.7689179 748.310272,83.7584672 C746.234846,93.7480164 750.385697,84.9572131 751.630953,82.9593035 C752.461122,71.7710073 752.876208,58.9843838 761.592993,46.5973416 C765.328758,41.8023576 764.083503,39.0052834 759.932652,43.4006859 Z" id="路径" fill="#000000"></path>
            </g>
        </g>
    </g>
</svg>