<svg xmlns="http://www.w3.org/2000/svg" width="1024" height="1024"><defs><linearGradient id="a" x1="131.858%" x2="50%" y1="-70.179%" y2="55.275%"><stop offset="0%" stop-color="#181E26"/><stop offset="100%" stop-color="#C5D3F1"/></linearGradient><linearGradient id="b" x1="50%" x2="46.31%" y1="0%" y2="76.107%"><stop offset=".005%" stop-color="#FC7D0D"/><stop offset="100%" stop-color="#F8A50A"/></linearGradient><linearGradient id="c" x1="50%" x2="50%" y1="0%" y2="65.316%"><stop offset="0%" stop-color="#F69119"/><stop offset="100%" stop-color="#FDA505"/></linearGradient></defs><g fill="none" fill-rule="evenodd"><path fill="url(#a)" d="M0 0h1024v1024H0z"/><path fill="#000" d="M273 277c25.09-5.935 193.258-42.685 504.5-110.25 10.2-1.338 19.117-.004 26.75 4 7.633 4.004 13.967 10.671 19 20l8 26.25c1.984 11.592.317 20.842-5 27.75-5.317 6.908-14.234 11.408-26.75 13.5L387 348l-71 16 11 13h431c47 2 71-5 87 10 15 15 12 24 12 68v285c0 54 5 70-17 98-28 26-53 20-76 20H246c-25.124 0-39-1-58-16s-22-38-21-76V359.073C167 293 167 299 273 277"/><path fill="#FFF" d="M183 469h659v325c0 27.062-21.938 49-49 49H232c-27.062 0-49-21.938-49-49z"/><path fill="#FBA60D" d="M371.706 608.746c1.696 1.336 2.794 3.837 3.294 7.504.167 3.667.167 11.917 0 24.75l-27-15.25 23.706-17.004"/><path fill="url(#b)" d="M75 153.5c.5-10 3-13 12-18 6-3.333 19-10.667 39-22 3.667-2.333 6.5-3.5 8.5-3.5v35.25l-27.5 16.5v85.5l-23.42-12.259A16 16 0 0 1 75 220.816z" transform="translate(183 469)"/><path fill="#FA6C0D" d="M371.5 612.75c1.099-.761 1.61-1.597 1.531-2.51-.333-.833-1.593-1.913-3.78-3.24l-42.75-24.5c-4-2.333-7-3.5-9-3.5v35.25l25 14.5 29-16"/><path fill="url(#c)" d="m115 215.485 19.5 11.353.644 35.114c-.43.825-2.382.418-5.86-1.22-3.476-1.637-8.238-4.407-14.284-8.31v-36.937" transform="translate(183 469)"/><path fill="#F56716" d="M317.5 695.838c10.615-6.284 17.548-10.498 20.799-12.643 4.876-3.216 4.876-2.172 4.876-9.283v-41.635l31.266 19.162c.456 15.209.684 26.224.684 33.046 0 10.233 0 13.254-5.874 17.79-3.916 3.024-20.952 12.72-51.107 29.091l-.644-35.528"/><g fill-rule="nonzero"><g fill="#000"><path d="M402.496 612.102h34.922l13.477 52.265 13.418-52.265h34.804V698h-21.68v-65.508L460.622 698h-19.629l-16.758-65.508V698h-21.738zM521.402 612.102h39.434c7.773 0 14.053 1.054 18.838 3.164 4.785 2.11 8.74 5.136 11.865 9.082 3.125 3.945 5.39 8.535 6.797 13.77 1.406 5.234 2.11 10.78 2.11 16.64 0 9.18-1.046 16.299-3.135 21.357-2.09 5.059-4.99 9.297-8.702 12.715-3.71 3.418-7.695 5.694-11.953 6.826-5.82 1.563-11.093 2.344-15.82 2.344h-39.434v-85.898m26.543 19.453v46.933h6.504c5.547 0 9.492-.615 11.836-1.845 2.344-1.23 4.18-3.38 5.508-6.446 1.328-3.066 1.992-8.037 1.992-14.912 0-9.101-1.484-15.332-4.453-18.691-2.969-3.36-7.89-5.04-14.766-5.04h-6.62M676.578 662.902l23.262 7.032c-1.563 6.523-4.024 11.972-7.383 16.347-3.36 4.375-7.53 7.676-12.51 9.903-4.98 2.226-11.318 3.34-19.013 3.34-9.336 0-16.963-1.358-22.881-4.073-5.918-2.715-11.026-7.49-15.323-14.326-4.296-6.836-6.445-15.586-6.445-26.25 0-14.219 3.78-25.146 11.338-32.783 7.559-7.637 18.252-11.455 32.08-11.455 10.82 0 19.326 2.187 25.518 6.562 6.191 4.375 10.79 11.094 13.799 20.157l-23.438 5.214c-.82-2.617-1.68-4.53-2.578-5.742-1.484-2.031-3.3-3.594-5.45-4.687-2.148-1.094-4.55-1.64-7.206-1.64-6.016 0-10.625 2.421-13.828 7.265-2.422 3.593-3.633 9.238-3.633 16.933 0 9.532 1.445 16.065 4.336 19.6 2.89 3.535 6.953 5.303 12.187 5.303 5.078 0 8.916-1.426 11.514-4.278 2.597-2.851 4.482-6.992 5.654-12.422"/></g><path fill="#F66610" d="M701.871 612.102h29.238l15.235 26.425 14.765-26.425h28.946l-26.719 41.601L792.574 698H762.75l-16.934-27.598L728.824 698h-29.648l29.648-44.766z"/></g><g fill="#D4D6D5" transform="translate(201 321)"><circle cx="13.5" cy="96.5" r="13.5"/><circle cx="91.5" cy="96.5" r="13.5"/><circle cx="13.5" cy="13.5" r="13.5"/></g><g fill="#FFF"><path d="m309 284 75-17 65 53-77 16zM456 252l75-17 65 53-77 16zM603 220l75-17 65 53-77 16zM733 392h-80l-57 63h82zM573 392h-80l-57 63h82z"/></g></g></svg>