<?xml version="1.0" encoding="UTF-8"?>
<svg width="1025px" height="1024px" viewBox="0 0 1025 1024" version="1.1" xmlns="http://www.w3.org/2000/svg" xmlns:xlink="http://www.w3.org/1999/xlink">
    <title>Meta.tube</title>
    <defs>
        <linearGradient x1="-5.4383581e-14%" y1="34.0424186%" x2="100%" y2="65.9575814%" id="linearGradient-1">
            <stop stop-color="#AA5CC3" offset="0%"></stop>
            <stop stop-color="#896AC8" offset="52.4912587%"></stop>
            <stop stop-color="#3C8BD4" offset="100%"></stop>
        </linearGradient>
    </defs>
    <g id="ICON-新版方图标" stroke="none" stroke-width="1" fill="none" fill-rule="evenodd">
        <g id="Meta.tube" transform="translate(0.3975, 0)">
            <rect id="蒙版路径" fill="#000B25" x="0" y="0" width="1024" height="1024"></rect>
            <g id="编组-14" transform="translate(205, 235.6502)">
                <g id="编组-15" transform="translate(0, 220.3498)">
                    <rect id="矩形" fill="url(#linearGradient-1)" x="0" y="0" width="616" height="348" rx="19"></rect>
                    <g id="Tube" transform="translate(50.04, 92.84)" fill="#000B25" fill-rule="nonzero">
                        <polygon id="路径" points="5.68434189e-14 3.08 5.68434189e-14 25.08 51.48 25.08 51.48 160.16 77.22 160.16 77.22 25.08 128.7 25.08 128.7 3.08"></polygon>
                        <path d="M145.2,46.42 L145.2,117.26 C145.2,147.84 158.84,163.24 186.12,163.24 C200.2,163.24 212.08,157.3 221.76,145.42 L221.76,160.16 L246.84,160.16 L246.84,46.42 L221.76,46.42 L221.76,115.94 C219.56,124.08 215.82,130.46 210.76,135.3 C205.7,139.92 200.42,142.34 194.92,142.34 C186.12,142.34 179.96,140.14 176,135.96 C172.04,131.56 170.28,124.96 170.28,115.72 L170.28,46.42 L145.2,46.42 Z" id="路径"></path>
                        <path d="M273.24,0 L273.24,160.16 L296.56,160.16 L296.56,148.06 C304.48,158.18 315.92,163.24 330.88,163.24 C347.6,163.24 360.8,157.3 370.48,145.42 C379.28,134.42 383.68,120.12 383.68,102.74 C383.68,86.02 379.28,72.16 370.7,61.16 C361.24,49.28 348.48,43.34 332.2,43.34 C319,43.34 307.56,49.5 298.32,62.04 L298.32,0 L273.24,0 Z M326.26,63.58 C337.48,63.58 345.84,67.32 351.12,74.8 C355.52,81.18 357.94,90.42 357.94,102.74 C357.94,115.06 355.74,124.52 351.56,131.12 C346.28,139.04 338.14,143 327.14,143 C317.24,143 309.76,139.04 304.48,131.34 C299.64,124.3 297.44,115.06 297.44,104.06 L297.44,102.3 C297.44,90.2 300.3,80.52 306.24,73.48 C311.52,66.88 318.12,63.58 326.26,63.58 Z" id="形状"></path>
                        <path d="M454.08,43.34 C437.14,43.34 423.72,49.06 414.04,60.72 C403.92,72.16 399.08,86.24 399.08,103.18 C399.08,122.1 404.36,136.84 414.92,147.62 C424.82,157.96 438.24,163.24 455.18,163.24 C470.36,163.24 482.9,158.84 493.02,150.26 C500.94,143.22 506.22,134.2 508.86,123.64 L483.78,123.64 C480.7,130.02 477.4,134.64 473.66,137.5 C468.82,141.02 462.66,142.78 454.96,142.78 C445.94,142.78 438.9,139.92 434.06,134.42 C429.22,128.92 426.36,120.78 425.48,110.22 L510.62,110.22 C510.62,89.76 506,73.7 496.98,62.26 C487.08,49.5 472.78,43.34 454.08,43.34 Z M454.74,63.8 C472.34,63.8 482.24,72.82 484.44,91.3 L425.92,91.3 C427.46,82.28 430.54,75.46 435.16,70.84 C440,66 446.38,63.8 454.74,63.8 Z" id="形状"></path>
                    </g>
                </g>
                <g id="Meta" transform="translate(21.6426, 0)" fill="#FFFFFF" fill-rule="nonzero">
                    <path d="M35.0341797,179.931641 L0,179.931641 L0,0 L54.6875,0 L87.4023438,141.479492 L119.873047,0 L173.950195,0 L173.950195,179.931641 L138.916016,179.931641 L138.916016,58.2275391 C138.916016,54.7281901 138.956706,49.8250326 139.038086,43.5180664 C139.119466,37.2111003 139.160156,32.3486328 139.160156,28.9306641 L105.102539,179.931641 L68.6035156,179.931641 L34.7900391,28.9306641 C34.7900391,32.3486328 34.8307292,37.2111003 34.9121094,43.5180664 C34.9934896,49.8250326 35.0341797,54.7281901 35.0341797,58.2275391 L35.0341797,179.931641 Z" id="路径"></path>
                    <path d="M329.946289,140.869141 C329.051107,148.763021 324.941406,156.778971 317.617188,164.916992 C306.223958,177.856445 290.273438,184.326172 269.765625,184.326172 C252.838542,184.326172 237.905273,178.873698 224.96582,167.96875 C212.026367,157.063802 205.556641,139.322917 205.556641,114.746094 C205.556641,91.7154948 211.395671,74.0559896 223.07373,61.7675781 C234.75179,49.4791667 249.908854,43.3349609 268.544922,43.3349609 C279.61263,43.3349609 289.581706,45.4101562 298.452148,49.5605469 C307.322591,53.7109375 314.64681,60.2620443 320.424805,69.2138672 C325.633138,77.1077474 329.010417,86.2630208 330.556641,96.6796875 C331.451823,102.783203 331.818034,111.572266 331.655273,123.046875 L240.59082,123.046875 C241.079102,136.393229 245.270182,145.751953 253.164062,151.123047 C257.965495,154.459635 263.74349,156.12793 270.498047,156.12793 C277.659505,156.12793 283.47819,154.093424 287.954102,150.024414 C290.395508,147.827148 292.552083,144.775391 294.423828,140.869141 L329.946289,140.869141 Z M295.522461,100.097656 C294.952799,90.9016927 292.165527,83.9233398 287.160645,79.1625977 C282.155762,74.4018555 275.950521,72.0214844 268.544922,72.0214844 C260.488281,72.0214844 254.24235,74.5442708 249.807129,79.5898438 C245.371908,84.6354167 242.584635,91.4713542 241.445312,100.097656 L295.522461,100.097656 Z" id="形状"></path>
                    <path d="M426.005859,155.151367 L426.005859,181.152344 L409.526367,181.762695 C393.087565,182.332357 381.857096,179.484049 375.834961,173.217773 C371.928711,169.230143 369.975586,163.085938 369.975586,154.785156 L369.975586,72.8759766 L351.420898,72.8759766 L351.420898,48.0957031 L369.975586,48.0957031 L369.975586,10.9863281 L404.399414,10.9863281 L404.399414,48.0957031 L426.005859,48.0957031 L426.005859,72.8759766 L404.399414,72.8759766 L404.399414,143.188477 C404.399414,148.640951 405.091146,152.038574 406.474609,153.381348 C407.858073,154.724121 412.089844,155.395508 419.169922,155.395508 C420.227865,155.395508 421.346842,155.375163 422.526855,155.334473 C423.706868,155.293783 424.866536,155.232747 426.005859,155.151367 Z" id="路径"></path>
                    <path d="M463.349609,61.2792969 C472.545573,49.5605469 488.333333,43.7011719 510.712891,43.7011719 C525.279948,43.7011719 538.219401,46.5901693 549.53125,52.3681641 C560.843099,58.1461589 566.499023,69.0511068 566.499023,85.0830078 L566.499023,146.118164 C566.499023,150.349935 566.580404,155.476888 566.743164,161.499023 C566.987305,166.056315 567.679036,169.148763 568.818359,170.776367 C569.957682,172.403971 571.666667,173.746745 573.945312,174.804688 L573.945312,179.931641 L536.103516,179.931641 C535.045573,177.246094 534.313151,174.723307 533.90625,172.363281 C533.499349,170.003255 533.173828,167.317708 532.929688,164.306641 C528.128255,169.514974 522.594401,173.950195 516.328125,177.612305 C508.841146,181.925456 500.377604,184.082031 490.9375,184.082031 C478.893229,184.082031 468.944499,180.643717 461.091309,173.76709 C453.238118,166.890462 449.311523,157.145182 449.311523,144.53125 C449.311523,128.173828 455.61849,116.333008 468.232422,109.008789 C475.14974,105.021159 485.322266,102.172852 498.75,100.463867 L510.59082,98.9990234 C517.019857,98.1852214 521.617839,97.1679688 524.384766,95.9472656 C529.348958,93.8313802 531.831055,90.5354818 531.831055,86.0595703 C531.831055,80.6070964 529.938965,76.8432617 526.154785,74.7680664 C522.370605,72.6928711 516.816406,71.6552734 509.492188,71.6552734 C501.272786,71.6552734 495.454102,73.6897786 492.036133,77.7587891 C489.594727,80.7698568 487.967122,84.8388672 487.15332,89.9658203 L453.583984,89.9658203 C454.316406,78.3284505 457.571615,68.766276 463.349609,61.2792969 Z M489.228516,154.785156 C492.483724,157.470703 496.471354,158.813477 501.191406,158.813477 C508.678385,158.813477 515.575358,156.616211 521.882324,152.22168 C528.18929,147.827148 531.464844,139.811198 531.708984,128.173828 L531.708984,115.234375 C529.511719,116.617839 527.294108,117.736816 525.056152,118.591309 C522.818197,119.445801 519.746094,120.239258 515.839844,120.97168 L508.027344,122.436523 C500.703125,123.738607 495.454102,125.325521 492.280273,127.197266 C486.90918,130.371094 484.223633,135.294596 484.223633,141.967773 C484.223633,147.908529 485.891927,152.18099 489.228516,154.785156 Z" id="形状"></path>
                </g>
            </g>
        </g>
    </g>
</svg>