<svg xmlns="http://www.w3.org/2000/svg" width="1024" height="1024"><g fill="none" fill-rule="evenodd"><path fill="#2C7DFA" d="M0 0h1024v1024H0z"/><circle cx="512" cy="512.001" r="360" stroke="#D4E5FE" stroke-width="20"/><path fill="#FFF" fill-rule="nonzero" d="M548 651c2.542-3.68 2.584-6.623 1.897-10.031-.998-2.996-3.63-5.652-7.897-7.968-10-5.334-20-8-30-8s-20 2.666-30 8c-4.637 3.128-7.304 5.795-8 8-.316 1-2.085 4.421 2 10 3.584 4.894 18.734 21.649 28.307 29.585 3.574 2.963 6.72 3.415 7.693 3.415.931 0 3.913-.658 7.291-3.415 9.604-7.836 25.305-24.659 28.709-29.585m109.375-122.09c6.006 5.026 8.067 12.134 5.408 18.645-2.66 6.512-9.635 11.438-18.3 12.923-8.665 1.486-17.702-.696-23.708-5.722-59.985-50.164-156.553-50.164-216.737.025-9.302 7.756-25.02 8.246-35.11 1.095-10.088-7.151-10.726-19.236-1.424-26.992 79.858-66.6 210.179-66.6 289.855.026h.016m89.868-108.805c11.624 9.602 11.683 24.98.133 34.64s-30.487 10.07-42.654.922c-110.975-87.466-273.672-87.549-384.953-.199-12.124 9.52-31.457 9.257-43.183-.586-11.725-9.843-11.401-25.539.723-35.058 134.953-105.94 335.307-105.84 469.955.265l-.02.016"/></g></svg>