<svg xmlns="http://www.w3.org/2000/svg" width="1025" height="1024"><g fill="none" fill-rule="evenodd"><path fill="#FFF" d="M.633 0h1024v1024H.633z"/><path fill="#1A9DE0" d="M743.716 247.383c.78-1.17 1.95-2.34.78-4.29-.78.39-1.56 1.17-2.34 1.95l-18.72 15.99L533.498 422.5 365.403 565.634 208.227 699.408c-17.55 14.821-24.57 39.002-17.55 60.843 7.02 22.23 26.52 37.83 49.531 39.781 14.431 1.17 28.861-3.51 39.782-12.87l8.97-7.41 211.387-179.797L711.345 420.55l20.67-17.16v-.39c.78 0 .78.78.78-1.56V284.823c-.39-13.26 3.12-26.52 10.92-37.441"/><g fill="#D60419"><path d="M726.478 749.683c2.73 30.031 29.25 52.652 60.062 50.312 30.81-2.34 53.432-28.471 51.091-58.892V298.828c-1.56 1.17-1.56 3.12-1.56 5.07-2.73 12.09-9.36 23.01-19.11 30.81L782.64 363.18 732.328 405.3c-2.34 1.17-4.29 3.12-5.85 5.46v.78c0 1.56.39 3.12 0 4.68v333.462M232.744 225.717c-25.74 5.07-44.461 27.691-44.851 54.212v371.683c1.17-.39 2.34-1.17 3.12-1.95l104.524-90.093c1.95-1.56 2.73-3.9 2.73-5.85V377.821c1.17-1.56.78-3.51 1.17-5.85V281.49c.39-17.94-7.8-35.101-22.621-45.631l-6.24-3.9c-11.31-6.63-24.961-8.97-37.832-6.24"/></g><path fill="#DA1E30" d="m301.034 387.416 2.34 1.17 84.243 51.092c15.21 9.75 35.101 10.14 50.702 1.17 15.99-9.36 26.52-26.91 27.69-46.411 2.34-22.621-8.58-44.852-27.3-55.382-48.362-29.641-97.114-59.282-145.865-88.533-3.9-2.73-7.8-5.07-12.09-7.41.78.39.78 1.56.78 1.56 3.12 2.34 5.46 5.07 7.8 8.19 7.8 10.14 11.7 22.62 11.7 35.49v99.064"/><path fill="#1684C8" d="M818.526 328.678c10.53-9.75 17.16-23.011 18.72-37.442.78-5.85.78-11.31.39-17.16-2.34-15.99-11.31-30.811-24.96-40.171-12.87-8.97-29.641-11.7-44.852-7.41-10.92 3.51-20.67 10.14-28.47 18.72-1.56 3.9-3.9 6.63-5.85 10.14-4.681 9.75-7.021 20.671-6.631 31.981V399.66c-.39 3.51-.39 7.02 0 10.53l1.17-.78 90.483-80.732"/></g></svg>