<svg xmlns="http://www.w3.org/2000/svg" width="1024" height="1024"><g fill="none" fill-rule="evenodd"><path fill="#F6CA5F" d="M0 0h1024v1024H0z"/><g fill="#343434"><path d="M319 652.96c70 0 140-62.64 140-139.96 0-77.32-62.68-140-140-140s-140 62.68-140 140 70 139.96 140 139.96"/><path d="M293 652v-2.86a136.345 136.345 0 0 0 27.5 2.82c9.145-.183 18.311-1.353 27.5-3.511V1024h-55z"/></g><g fill="#343434"><path d="M704 652.96c70 0 140-62.64 140-139.96 0-77.32-62.68-140-140-140s-140 62.68-140 140 70 139.96 140 139.96"/><path d="M678 652v-2.86a136.345 136.345 0 0 0 27.5 2.82c9.145-.183 18.311-1.353 27.5-3.511V1024h-55z"/></g></g></svg>