<svg xmlns="http://www.w3.org/2000/svg" width="1025" height="1024"><g fill="none" fill-rule="evenodd"><path fill="#FFF" d="M.633 0h1024v1024H.633z"/><path fill="#EB743B" fill-rule="nonzero" d="M892.633 289.98 527.915 80v863.914l364.718-209.979z"/><path fill="#771B85" fill-rule="nonzero" d="M497.352 943.914V80L132.633 289.98v443.955z"/><g fill-rule="nonzero"><path fill="#591463" d="m355.934 337.335-107.775 52.163-58.475 314.237 102.976-26.44 86.664 61.396 58.475-314.238-81.865-87.118m-21.351 110.981a33.392 33.392 0 0 1-12.84-60.362 33.414 33.414 0 0 1 37.119-.481 33.392 33.392 0 0 1 14.644 34.102c-3.367 18.127-20.79 30.097-38.923 26.741"/><path fill="#591463" d="m497.354 318.928-3.719-.84c-34.605-8.093-98.598-22.963-144.958 52.763a45.231 45.231 0 0 0-33.914 7.39 45.207 45.207 0 0 0-18.684 29.244c-4.063 21.629 7.979 43.055 28.57 50.835 20.591 7.78 43.799-.328 55.06-19.237 11.262-18.908 7.333-43.169-9.322-57.56 37.245-58.578 85.524-47.366 117.85-39.81l9.117 2.038zM361.75 419.477c-2.853 10.856-13.61 17.664-24.646 15.6-11.036-2.065-18.603-12.302-17.336-23.454 1.853-10.136 10.684-17.502 20.991-17.508 1.328 0 2.652.12 3.958.36 11.586 2.239 19.192 13.405 17.033 25.002"/><path fill="#B66BC2" d="M355.934 322.945 247.979 374.87l-58.295 314.417 102.976-26.082 86.664 61.397 58.475-314.238-81.865-87.418m-21.351 110.922a33.392 33.392 0 0 1-12.84-60.362 33.414 33.414 0 0 1 37.119-.482 33.392 33.392 0 0 1 14.644 34.103c-3.367 18.126-20.79 30.096-38.923 26.74"/><path fill="#FFFEDB" d="m497.354 304.478-3.719-.839c-34.605-8.094-98.598-22.964-144.958 52.763-24.538-4.443-48.042 11.812-52.538 36.334-4.063 21.628 7.979 43.054 28.57 50.834 20.591 7.78 43.799-.328 55.06-19.236 11.262-18.909 7.333-43.17-9.322-57.56 37.245-58.578 85.524-47.366 117.85-39.811l9.117 2.038-.06-24.523M361.75 404.968c-2.853 10.855-13.61 17.664-24.646 15.599-11.036-2.065-18.603-12.301-17.336-23.454 1.853-10.136 10.684-17.502 20.991-17.508 1.328 0 2.653.12 3.958.36 11.586 2.24 19.192 13.405 17.033 25.002"/><g fill="#000" opacity=".07"><path d="M630.917 632.686a12.656 12.656 0 0 1 15.093-5.47 12.65 12.65 0 0 1-3.532 24.562 12.654 12.654 0 0 1-12.94-9.499 12.588 12.588 0 0 1 1.379-9.593m75.568 134.065a12.477 12.477 0 0 1-8.217 3.058 12.649 12.649 0 0 1-8.276-22.304 12.477 12.477 0 0 1 8.216-3.058 12.709 12.709 0 0 1 12.655 13.67 12.53 12.53 0 0 1-4.378 8.634M581.138 356.102h1.26zm68.192 57.858a12.413 12.413 0 0 1 4.017-3.956 12.658 12.658 0 0 1 14.559.954 12.649 12.649 0 0 1-7.901 22.489 12.597 12.597 0 0 1-6.717-1.979c-5.891-3.768-7.656-11.572-3.959-17.507m38.263-121.053c-3.806 5.803-11.538 7.53-17.453 3.897l-.6-.36a12.649 12.649 0 0 1 8.165-22.907 12.654 12.654 0 0 1 11.567 9.896c.73 3.256.126 6.668-1.679 9.474m100.578 69.549a12.671 12.671 0 0 1 21.928.895 12.664 12.664 0 0 1-.517 12.656c-3.806 5.803-11.538 7.53-17.452 3.897l-.54-.36c-5.535-3.86-7.043-11.396-3.419-17.088m0 140.66a12.671 12.671 0 0 1 21.928.895 12.664 12.664 0 0 1-.517 12.656c-3.806 5.804-11.538 7.53-17.452 3.897l-.54-.36a12.589 12.589 0 0 1-3.419-16.788v-.3m0 157.689a12.671 12.671 0 0 1 21.928.894 12.664 12.664 0 0 1-.517 12.656c-3.806 5.804-11.538 7.53-17.452 3.897l-.54-.36c-5.472-3.873-6.972-11.342-3.419-17.027v-.06"/><path d="M726.097 718.845c-10.541-12.297-27.899-16.232-42.714-9.683-14.815 6.549-23.585 22.033-21.58 38.103a119.137 119.137 0 0 1-31.966 7.974 23.993 23.993 0 0 1-13.314-5.996 64.242 64.242 0 0 0-24.89-11.092 225.676 225.676 0 0 0 51.519-76.806c17.582-.624 32.248-13.632 34.962-31.01 2.714-17.377-7.288-34.236-23.842-40.189-16.555-5.953-35.006.675-43.986 15.799-9.677 16.209-5.475 37.113 9.716 48.325-24.29 55.281-55.297 78.425-75.388 88.018-.752.267-1.475.609-2.16 1.02a67.545 67.545 0 0 1-15.353 4.856v23.983a75.524 75.524 0 0 0 25.49-7.135c32.086-8.154 41.022-2.099 50.438 4.257a47.28 47.28 0 0 0 25.549 9.954h1.86a141.676 141.676 0 0 0 41.981-10.314 36.777 36.777 0 0 0 25.85 10.314 36.709 36.709 0 0 0 33.298-21.377 36.686 36.686 0 0 0-5.47-39.181v.18m-95.18-100.609a12.656 12.656 0 0 1 15.093-5.47 12.65 12.65 0 0 1-3.532 24.562 12.654 12.654 0 0 1-12.94-9.499 12.588 12.588 0 0 1 1.379-9.593m75.568 134.065a12.477 12.477 0 0 1-8.217 3.058 12.649 12.649 0 0 1-8.276-22.304 12.477 12.477 0 0 1 8.216-3.058 12.709 12.709 0 0 1 12.655 13.67 12.53 12.53 0 0 1-4.378 8.634M581.138 341.532h1.26zm131.584-77.945a36.7 36.7 0 0 0-29.426-28.17 36.709 36.709 0 0 0-37.316 16.347 36.685 36.685 0 0 0 .77 40.723 80.077 80.077 0 0 1-59.614 25.722 174.867 174.867 0 0 0-59.975-13.91v23.983a148.771 148.771 0 0 1 52.418 13.25 129.478 129.478 0 0 1 51.638 41.97 37.893 37.893 0 0 0-2.28 3.238c-10.8 17.14-5.664 39.785 11.473 50.593 17.138 10.808 39.794 5.688 50.615-11.437 10.822-17.126 5.715-39.778-11.409-50.608a37.313 37.313 0 0 0-28.008-4.497 155.909 155.909 0 0 0-32.026-33.396 98.06 98.06 0 0 0 46.66-30.578 36.894 36.894 0 0 0 10.616 1.619 36.768 36.768 0 0 0 28.715-13.7 36.746 36.746 0 0 0 7.27-30.969l-.12-.18M649.33 399.511a12.413 12.413 0 0 1 4.018-3.957 12.658 12.658 0 0 1 14.559.954 12.649 12.649 0 0 1-7.901 22.49 12.597 12.597 0 0 1-6.717-1.98c-5.891-3.768-7.656-11.572-3.959-17.507m38.264-121.054c-3.806 5.804-11.538 7.53-17.453 3.897l-.6-.36a12.649 12.649 0 0 1 8.165-22.906 12.654 12.654 0 0 1 11.567 9.896 12.468 12.468 0 0 1-1.679 9.533v-.06"/><path d="M764.9 509.413a35.976 35.976 0 0 0 12.655 15.889l1.68 1.14a36.713 36.713 0 0 0 42.463-2.26 36.688 36.688 0 0 0 11.83-40.835c-5.148-14.741-19.064-24.61-34.682-24.598h-2.22a154.228 154.228 0 0 1 0-67.512h2.04c17.648.025 32.815-12.51 36.11-29.842 3.296-17.332-6.213-34.556-22.64-41.006-16.426-6.45-35.118-.3-44.503 14.641-9.384 14.942-6.804 34.445 6.143 46.434l.42.36a171.73 171.73 0 0 0 0 86.458c-.84.78-1.739 1.5-2.579 2.399a37.415 37.415 0 0 0-3.778 4.916 36.929 36.929 0 0 0-4.258 9.473 91.176 91.176 0 0 0-40.663 16.669c-11.995 7.914-23.99 15.409-57.815 16.008a195.813 195.813 0 0 0-32.147-.72c-8.576.3-17.452.66-29.088 0-7.976-.419-12.594-5.275-20.75-14.509-10.796-12.291-25.31-27.88-56.197-29.979v23.983c19.732 1.799 28.788 11.332 38.144 22.005 9.356 10.672 19.012 21.704 37.544 22.664 12.715.66 22.55.3 31.247 0a145.298 145.298 0 0 1 47.08 4.197c15.653 3.837 72.569 57.979 88.582 85.859-.66.84-1.32 1.679-1.859 2.578-10.46 16.443-6.186 38.197 9.716 49.465l1.68 1.14a36.713 36.713 0 0 0 42.463-2.26 36.688 36.688 0 0 0 11.83-40.835c-5.148-14.741-19.064-24.61-34.682-24.598a37.05 37.05 0 0 0-9.236 1.2c-15.354-25.123-51.878-62.716-79.107-82.682a109.045 109.045 0 0 0 25.25-13.13 67.841 67.841 0 0 1 29.327-12.712m23.27-161.405a12.671 12.671 0 0 1 21.928.894 12.664 12.664 0 0 1-.517 12.656c-3.806 5.804-11.538 7.53-17.452 3.897l-.54-.36c-5.5-3.856-7.004-11.348-3.419-17.027v-.06m0 140.66a12.671 12.671 0 0 1 21.928.894 12.664 12.664 0 0 1-.517 12.656c-3.806 5.804-11.538 7.53-17.452 3.898l-.54-.36c-5.5-3.857-7.004-11.349-3.419-17.028v-.06m0 157.688a12.671 12.671 0 0 1 21.928.894 12.664 12.664 0 0 1-.517 12.656c-3.806 5.804-11.538 7.53-17.452 3.898l-.54-.36c-5.472-3.874-6.972-11.343-3.419-17.028v-.06"/></g><path fill="#D3562C" d="M726.097 736.832c-10.541-12.297-27.899-16.232-42.714-9.683-14.815 6.55-23.585 22.033-21.58 38.103a119.137 119.137 0 0 1-31.966 7.974 23.993 23.993 0 0 1-13.314-5.996 64.242 64.242 0 0 0-24.89-11.092 225.676 225.676 0 0 0 51.459-76.925c17.582-.625 32.248-13.633 34.962-31.01 2.714-17.378-7.288-34.236-23.842-40.19-16.555-5.952-35.006.675-43.986 15.8-9.677 16.208-5.475 37.113 9.716 48.325-24.29 55.28-55.297 78.424-75.388 88.017-.752.268-1.475.609-2.16 1.02a67.545 67.545 0 0 1-15.353 4.856v23.983a75.525 75.525 0 0 0 25.49-7.135c32.086-8.154 41.022-2.098 50.438 4.257a47.28 47.28 0 0 0 25.609 10.074h1.86a141.676 141.676 0 0 0 41.981-10.314 36.777 36.777 0 0 0 25.85 10.314 36.709 36.709 0 0 0 33.298-21.377 36.686 36.686 0 0 0-5.47-39.18v.179m-95.18-100.609a12.656 12.656 0 0 1 15.093-5.47 12.65 12.65 0 0 1-3.532 24.562 12.654 12.654 0 0 1-12.94-9.499 12.588 12.588 0 0 1 1.379-9.593m75.568 134.065a12.477 12.477 0 0 1-8.217 3.058 12.649 12.649 0 0 1-8.276-22.304 12.477 12.477 0 0 1 8.216-3.058 12.709 12.709 0 0 1 12.655 13.67 12.53 12.53 0 0 1-4.378 8.634"/><path fill="#000" d="M581.138 356.102h1.26z"/><path fill="#D3562C" d="M712.722 281.575a36.7 36.7 0 0 0-29.426-28.17 36.709 36.709 0 0 0-37.316 16.346 36.685 36.685 0 0 0 .77 40.723 80.077 80.077 0 0 1-59.614 25.722 174.867 174.867 0 0 0-59.975-13.91v23.983a148.831 148.831 0 0 1 52.418 13.25 129.478 129.478 0 0 1 51.638 41.97 37.893 37.893 0 0 0-2.28 3.238c-10.8 17.14-5.664 39.786 11.474 50.593 17.137 10.808 39.793 5.689 50.614-11.437 10.822-17.126 5.715-39.778-11.409-50.607a37.313 37.313 0 0 0-28.008-4.497 155.909 155.909 0 0 0-32.026-33.397 98.06 98.06 0 0 0 46.66-30.578 36.894 36.894 0 0 0 10.616 1.619 36.768 36.768 0 0 0 28.715-13.7 36.746 36.746 0 0 0 7.27-30.968l-.12-.18M649.33 417.558a12.413 12.413 0 0 1 4.019-3.957 12.658 12.658 0 0 1 14.558.954 12.649 12.649 0 0 1-7.901 22.49 12.597 12.597 0 0 1-6.717-1.98c-5.891-3.768-7.656-11.572-3.959-17.507m38.264-121.054c-3.806 5.804-11.538 7.53-17.453 3.897l-.6-.36a12.649 12.649 0 0 1 8.165-22.906 12.654 12.654 0 0 1 11.567 9.896c.73 3.255.126 6.667-1.679 9.473"/><path fill="#D3562C" d="M764.9 527.4a35.976 35.976 0 0 0 12.655 15.89l1.68 1.138a36.713 36.713 0 0 0 42.463-2.26 36.688 36.688 0 0 0 11.83-40.833c-5.148-14.742-19.064-24.611-34.682-24.599h-2.22a154.228 154.228 0 0 1 0-67.512h2.04c17.648.025 32.815-12.51 36.11-29.842 3.296-17.332-6.213-34.556-22.64-41.006-16.426-6.45-35.118-.3-44.503 14.642-9.384 14.941-6.804 34.445 6.143 46.433l.42.36a171.73 171.73 0 0 0 0 86.459c-.84.779-1.739 1.499-2.579 2.398a37.415 37.415 0 0 0-3.778 4.916 36.929 36.929 0 0 0-4.258 9.474 91.176 91.176 0 0 0-40.663 16.668c-11.995 7.914-23.99 15.409-57.815 16.009a195.812 195.812 0 0 0-32.147-.72c-8.576.3-17.452.66-29.088 0-7.976-.42-12.594-5.276-20.75-14.51-10.796-12.291-25.31-27.88-56.197-29.978v23.983c19.732 1.798 28.788 11.332 38.144 22.004 9.356 10.672 19.012 21.705 37.544 22.664 12.715.66 22.55.3 31.247 0a145.298 145.298 0 0 1 47.08 4.197c15.653 3.837 72.569 57.979 88.582 85.86-.66.838-1.32 1.678-1.859 2.577-10.46 16.443-6.186 38.197 9.716 49.465l1.68 1.14a36.713 36.713 0 0 0 42.463-2.26 36.688 36.688 0 0 0 11.83-40.834c-5.148-14.742-19.064-24.611-34.682-24.599a37.05 37.05 0 0 0-9.236 1.2c-15.354-25.123-51.878-62.716-79.107-82.682a109.045 109.045 0 0 0 25.25-13.13A67.841 67.841 0 0 1 764.9 527.4m23.27-161.405a12.671 12.671 0 0 1 21.928.894 12.664 12.664 0 0 1-.517 12.656c-3.806 5.804-11.538 7.53-17.452 3.897l-.54-.36c-5.5-3.856-7.004-11.348-3.419-17.027zm0 140.66a12.671 12.671 0 0 1 21.928.894 12.664 12.664 0 0 1-.517 12.657c-3.806 5.803-11.538 7.53-17.452 3.897l-.54-.36c-5.5-3.856-7.004-11.349-3.419-17.028v-.06m0 157.688a12.671 12.671 0 0 1 21.928.895 12.664 12.664 0 0 1-.517 12.656c-3.806 5.803-11.538 7.53-17.452 3.897l-.54-.36c-5.472-3.874-6.972-11.343-3.419-17.028v-.06"/><path fill="#FFFEDB" d="M726.097 718.845c-10.541-12.297-27.899-16.232-42.714-9.683-14.815 6.549-23.585 22.033-21.58 38.103a119.137 119.137 0 0 1-31.966 7.974 23.993 23.993 0 0 1-13.314-5.996 64.242 64.242 0 0 0-24.89-11.092 225.676 225.676 0 0 0 51.519-76.806c17.582-.624 32.248-13.632 34.962-31.01 2.714-17.377-7.288-34.236-23.842-40.189-16.555-5.953-35.006.675-43.986 15.799-9.677 16.209-5.475 37.113 9.716 48.325-24.29 55.281-55.297 78.425-75.388 88.018-.752.267-1.475.609-2.16 1.02a67.545 67.545 0 0 1-15.353 4.856v23.983a75.524 75.524 0 0 0 25.49-7.135c32.086-8.154 41.022-2.099 50.438 4.257a47.28 47.28 0 0 0 25.549 9.954h1.86a141.676 141.676 0 0 0 41.981-10.314 36.777 36.777 0 0 0 25.85 10.314 36.709 36.709 0 0 0 33.298-21.377 36.686 36.686 0 0 0-5.47-39.181v.18m-95.18-100.609a12.656 12.656 0 0 1 15.093-5.47 12.65 12.65 0 0 1-3.532 24.562 12.654 12.654 0 0 1-12.94-9.499 12.588 12.588 0 0 1 1.379-9.593m75.568 134.065a12.477 12.477 0 0 1-8.217 3.058 12.649 12.649 0 0 1-8.276-22.304 12.477 12.477 0 0 1 8.216-3.058 12.709 12.709 0 0 1 12.655 13.67 12.53 12.53 0 0 1-4.378 8.634M581.138 341.532h1.26zm131.584-77.945a36.7 36.7 0 0 0-29.426-28.17 36.709 36.709 0 0 0-37.316 16.347 36.685 36.685 0 0 0 .77 40.723 80.077 80.077 0 0 1-59.614 25.722 174.867 174.867 0 0 0-59.975-13.91v23.983a148.771 148.771 0 0 1 52.418 13.25 129.478 129.478 0 0 1 51.638 41.97 37.893 37.893 0 0 0-2.28 3.238c-10.8 17.14-5.664 39.785 11.474 50.593 17.137 10.808 39.793 5.688 50.614-11.437 10.822-17.126 5.715-39.778-11.409-50.608a37.313 37.313 0 0 0-28.008-4.497 155.909 155.909 0 0 0-32.026-33.396 98.06 98.06 0 0 0 46.66-30.578 36.894 36.894 0 0 0 10.616 1.619 36.768 36.768 0 0 0 28.715-13.7 36.746 36.746 0 0 0 7.27-30.969l-.12-.18M649.33 399.511a12.413 12.413 0 0 1 4.019-3.957 12.658 12.658 0 0 1 14.558.954 12.649 12.649 0 0 1-7.901 22.49 12.597 12.597 0 0 1-6.717-1.98c-5.891-3.768-7.656-11.572-3.959-17.507m38.264-121.054c-3.806 5.804-11.538 7.53-17.453 3.897l-.6-.36a12.649 12.649 0 0 1 8.165-22.906 12.654 12.654 0 0 1 11.567 9.896 12.468 12.468 0 0 1-1.679 9.533v-.06"/><path fill="#FFFEDB" d="M764.9 509.413a35.976 35.976 0 0 0 12.655 15.889l1.68 1.14a36.713 36.713 0 0 0 42.463-2.26 36.688 36.688 0 0 0 11.83-40.835c-5.148-14.741-19.064-24.61-34.682-24.598h-2.22a154.228 154.228 0 0 1 0-67.512h2.04c17.648.025 32.815-12.51 36.11-29.842 3.296-17.332-6.213-34.556-22.64-41.006-16.426-6.45-35.118-.3-44.503 14.641-9.384 14.942-6.804 34.445 6.143 46.434l.42.36a171.73 171.73 0 0 0 0 86.458c-.84.78-1.739 1.5-2.579 2.399a37.415 37.415 0 0 0-3.778 4.916 36.929 36.929 0 0 0-4.258 9.473 91.176 91.176 0 0 0-40.663 16.669c-11.995 7.914-23.99 15.409-57.815 16.008a195.813 195.813 0 0 0-32.147-.72c-8.576.3-17.452.66-29.088 0-7.976-.419-12.594-5.275-20.75-14.509-10.796-12.291-25.31-27.88-56.197-29.979v23.983c19.732 1.799 28.788 11.332 38.144 22.005 9.356 10.672 19.012 21.704 37.544 22.664 12.715.66 22.55.3 31.247 0a145.298 145.298 0 0 1 47.08 4.197c15.653 3.837 72.569 57.979 88.582 85.859-.66.84-1.32 1.679-1.859 2.578-10.46 16.443-6.186 38.197 9.716 49.465l1.68 1.14a36.713 36.713 0 0 0 42.463-2.26 36.688 36.688 0 0 0 11.83-40.835c-5.148-14.741-19.064-24.61-34.682-24.598a37.05 37.05 0 0 0-9.236 1.2c-15.354-25.123-51.878-62.716-79.107-82.682a109.045 109.045 0 0 0 25.25-13.13 67.841 67.841 0 0 1 29.327-12.712m23.27-161.405a12.671 12.671 0 0 1 21.928.894 12.664 12.664 0 0 1-.517 12.656c-3.806 5.804-11.538 7.53-17.452 3.897l-.54-.36c-5.5-3.856-7.004-11.348-3.419-17.027v-.06m0 140.66a12.671 12.671 0 0 1 21.928.894 12.664 12.664 0 0 1-.517 12.656c-3.806 5.804-11.538 7.53-17.452 3.898l-.54-.36c-5.5-3.857-7.004-11.349-3.419-17.028v-.06m0 157.688a12.671 12.671 0 0 1 21.928.894 12.664 12.664 0 0 1-.517 12.656c-3.806 5.804-11.538 7.53-17.452 3.898l-.54-.36c-5.472-3.874-6.972-11.343-3.419-17.028v-.06"/></g></g></svg>