<svg xmlns="http://www.w3.org/2000/svg" width="1024" height="1024"><g fill="none" fill-rule="evenodd"><path fill="#FFF" d="M0 0h1024v1024H0z"/><g fill-rule="nonzero"><path fill="#111" d="m817.408 337.28-76.032-109.824A82.56 82.56 0 0 0 673.664 192H350.336a82.56 82.56 0 0 0-67.712 35.456L206.592 337.28A82.432 82.432 0 0 0 192 384v365.568C192 795.094 228.906 832 274.432 832h475.136C795.094 832 832 795.094 832 749.568V384a82.432 82.432 0 0 0-14.592-46.72M673.664 256a18.304 18.304 0 0 1 15.104 7.936l47.616 68.864h-192V256h129.28m-338.432 7.936A18.304 18.304 0 0 1 350.336 256H480v76.8H288l47.232-68.864M768 749.568A18.306 18.306 0 0 1 749.568 768H274.432A18.306 18.306 0 0 1 256 749.568V412.8c0-8.837 7.163-16 16-16h480c8.837 0 16 7.163 16 16v336.768"/><path fill="#00C569" d="M416 460.8h192c21.333 0 32 10.667 32 32s-10.667 32-32 32H416c-21.333 0-32-10.667-32-32s10.667-32 32-32"/></g></g></svg>