<svg xmlns="http://www.w3.org/2000/svg" width="1024" height="1024"><g fill="none" fill-rule="evenodd"><path fill="#00628C" d="M0 0h1024v1024H0z"/><g fill-rule="nonzero"><path fill="#FFF" d="M190.6 636.48c12.56-28 24-54 36-80a24.56 24.56 0 0 1 23.28-17.44c25.6 0 32 6 32 32v79.2c0 8.48-2.08 12.96-11.2 11.52a20.88 20.88 0 0 0-2.24 0c-17.12 0-17.12 0-17.12-16.64 0-24 0-47.36-1.68-71.52l-25.44 56a338.946 338.946 0 0 0-5.28 12.24c-5.44 12.8-12.96 22.32-28.72 21.92-15.76-.4-21.76-9.44-27.2-21.92-8-19.04-16.96-37.92-25.6-56.8a35.04 35.04 0 0 0-7.52-11.36v72.96c0 4.8-1.44 13.28-3.44 13.68a81.52 81.52 0 0 1-24 0c-1.12 0-2.32-5.84-2.32-8.96v-87.04c0-14.56 4.8-22.24 16.56-24 17.92-2.8 29.44-2.72 36.16 11.36 10.16 21.36 19.44 43.2 29.12 64.88 2.32 5.92 5.04 11.92 8.64 19.92m724.333-123.62-46.315 9.685c20.884 15.663 42.105 27.116 50.526 51.452-19.79-12.716-39.747-25.263-58.947-38.147a33.684 33.684 0 0 1-8.421-9.516c-6.4-9.684-5.221-13.473 6.063-16.842 11.284-3.368 21.81-4.463 33.684-6.905-15.41-11.031-29.642-23.157-48.336-27.368a39.915 39.915 0 0 1-28.21-25.263 685.214 685.214 0 0 0-33.684-69.557 159.998 159.998 0 0 0-78.737-67.368 154.693 154.693 0 0 0-16.841-3.79 196.461 196.461 0 0 1-22.484-7.662c-8.421-3.453-16-8-24.253-11.453a10.358 10.358 0 0 0-8.42 1.01c-.927.59 0 4.97.589 7.243a29.305 29.305 0 0 0 5.136 7.831 142.567 142.567 0 0 1 25.263 49.6c3.958 9.768 11.621 18.19 15.495 27.536a37.22 37.22 0 0 1 1.263 21.81 97.178 97.178 0 0 0 1.01 63.158 25.263 25.263 0 0 0 2.695 5.137 37.305 37.305 0 0 0 4.042 3.284c5.137-14.568 2.61-32 16.842-41.431l50.526 83.536c-18.694-14.821-37.389-28.379-47.747-51.62a53.642 53.642 0 0 1-3.368 12.8c-2.61 4.715-5.895 11.452-9.937 12.294a20.968 20.968 0 0 1-16.252-5.305 57.01 57.01 0 0 1-15.916-42.947c0-14.653 3.453-29.221 4.968-43.874.51-3.58.105-7.23-1.179-10.61-5.726-12.8-11.873-25.263-18.273-37.81a290.523 290.523 0 0 0-18.779-34.526c-11.284-16.337-13.894-25.263-6.737-34.863 7.158-9.6 18.78-11.705 35.2-2.358 17.853 10.274 37.473 13.474 55.915 20.631 45.305 17.6 76.884 51.116 98.105 94.568a682.474 682.474 0 0 1 8.42 18.19c10.274 25.262 21.98 48.42 51.368 58.946a96.083 96.083 0 0 1 45.726 40.505M701.96 644.6a96 96 0 0 0 3.76-16v-49.04A13.6 13.6 0 0 0 691 564.2c-14.08-.48-28.24-.48-42.32 0a13.92 13.92 0 0 0-15.12 16c.56 16 0 32.72 0 49.04a13.76 13.76 0 0 0 13.04 15.2c6.714.4 13.446.4 20.16 0l2.4-4.08-19.92-13.44c22.8-4.88 39.2-2.56 52.72 17.68m-387.64 52.44v-19.36h70.56a40 40 0 0 0 15.2-2.24c3.2-1.44 5.12-5.92 8-9.04-3.12-1.6-6.16-4.48-9.44-4.64-19.2-1.12-38.56-.48-57.68-2.64-21.2-2.4-29.12-13.44-28.8-34.96v-37.92c0-6.64 2.08-8.96 8.96-9.2 21.12-.48 21.12-.8 21.12 20.72v33.44a9.6 9.6 0 0 0 10.96 10.88h46.88c6.56 0 8-2.88 8-8.8 0-16 .48-31.28 0-46.88-.8-13.44 7.92-11.04 15.92-11.36 8-.32 14.48 0 14.16 11.44-.72 24 0 48 0 71.36s-8.72 37.12-32.88 38.72c-29.84 2-60 .48-90.96.48"/><path fill="#EEB457" d="M908.258 625.776c-5.974 0-11.078 2.088-15.254 6.264s-6.264 9.28-6.264 15.254c0 5.916 2.088 11.02 6.264 15.254 4.176 4.176 9.28 6.264 15.254 6.264 5.916 0 11.02-2.088 15.254-6.264 4.176-4.234 6.264-9.338 6.264-15.254 0-5.974-2.088-11.078-6.264-15.254-4.234-4.176-9.338-6.264-15.254-6.264m0 2.726c5.162 0 9.57 1.798 13.282 5.51 3.654 3.654 5.51 8.062 5.51 13.282 0 5.162-1.856 9.57-5.51 13.282-3.712 3.654-8.12 5.51-13.282 5.51-5.22 0-9.628-1.856-13.282-5.51-3.712-3.712-5.51-8.12-5.51-13.282 0-5.22 1.798-9.628 5.51-13.282 3.654-3.712 8.062-5.51 13.282-5.51m-9.976 5.974v25.636h4.06v-10.556h5.974c1.914 0 3.248.406 4.002 1.276.696.696 1.102 2.03 1.276 4.002.174 2.436.58 4.176 1.218 5.278h4.582c-1.044-1.218-1.624-3.19-1.798-5.916-.116-1.74-.406-3.016-.812-3.886-.58-1.276-1.566-2.146-2.958-2.494 2.726-1.044 4.118-3.016 4.118-6.032 0-2.378-.812-4.234-2.436-5.51-1.566-1.218-3.654-1.798-6.322-1.798h-10.904m4.06 3.48h6.322c3.48 0 5.22 1.334 5.22 4.002 0 1.218-.464 2.204-1.276 2.958-.928.696-2.262 1.102-3.886 1.102h-6.38z"/><path fill="#E68E01" d="M754.04 543.76h27.92c0 4.08.64 8 .64 11.92v64.72c0 16 1.6 22.64 24 23.44 18.24.64 36.48 0 54.64 0 6.88 0 11.28.8 11.12 9.44-.16 8.64-2.64 10.64-10.48 10.4-26.32-1.04-52.64-.64-78.88-2.64-19.68-1.52-28.64-13.2-28.64-32.72v-84.56h-.32m-32.8 115.16 22.24 19.36-1.92 3.6c-13.04 0-27.04 5.44-38.24-7.2a30.96 30.96 0 0 0-27.76-10.24c-12.24.8-24.56.48-36.8 0-19.76-.56-37.84-10.64-35.76-35.52 1.2-16 0-32.72 0-49.12 0-21.2 6.32-32 27.12-33.76a443.84 443.84 0 0 1 80 1.12c17.04 1.52 24 13.28 24 30.56v50.24a32 32 0 0 1-12.88 30.96m-185.8-118.48h35.68c8 0 11.52 1.12 11.44 10.16-.08 9.04-4.96 9.76-12 9.68H509.2c-12.64 0-16 3.2-16 14.24s3.12 14.96 16 15.44c12.88.48 28.16 1.04 42.16 2.16 20 1.6 28.8 11.52 28.8 31.44 0 25.84-10.96 36.96-36.96 37.12h-70.32c-8 0-10.32-2.96-10.32-10.48 0-7.52 3.04-9.6 10.08-9.44 19.68.32 39.413.32 59.2 0 15.28 0 19.76-4.8 19.76-17.68 0-9.92-4.96-13.84-14.4-14.08a451.2 451.2 0 0 1-45.44-2.32c-22.72-3.12-29.28-13.92-27.28-40.88 1.12-14.16 15.2-25.12 32.96-25.44 12.64-.08 25.36.08 38 .08"/><path fill="#FFF" d="M679.988 324.736c5.053 2.78 11.537 4.548 14.653 8.421 1.937 2.61-1.095 9.01-1.853 13.727h-3.62l-12.127-18.527 2.947-3.62"/><path fill="#00628C" d="M701.96 644.6c-13.52-20.24-29.92-22.56-52.48-17.2l19.92 13.44-2.4 4.08c-6.714.4-13.446.4-20.16 0a13.76 13.76 0 0 1-13.04-15.2c0-16 .48-32.72 0-49.04a13.92 13.92 0 0 1 15.12-16c14.08-.48 28.24-.48 42.32 0a13.6 13.6 0 0 1 14.8 15.52c-.4 16 0 32.64 0 49.04a96 96 0 0 1-4.08 15.36"/></g></g></svg>