<svg xmlns="http://www.w3.org/2000/svg" width="1024" height="1024"><defs><linearGradient id="a" x1="50%" x2="50%" y1="0%" y2="100%"><stop offset="0%" stop-color="#1D2A55"/><stop offset="100%" stop-color="#0F4A66"/></linearGradient></defs><g fill="none" fill-rule="evenodd"><path fill="url(#a)" d="M0 0h1024v1024H0z"/><path fill="#FFF" fill-rule="nonzero" d="M902.06 415.3c0-8.82 3.06-16.215 9.18-22.185 6.12-5.97 13.44-8.955 21.96-8.955 8.76 0 16.155 3.045 22.185 9.135 6.03 6.09 9.045 13.425 9.045 22.005 0 8.7-3.045 16.065-9.135 22.095-6.09 6.03-13.455 9.045-22.095 9.045-5.4 0-10.545-1.38-15.435-4.14-4.89-2.76-8.73-6.525-11.52-11.295-2.79-4.77-4.185-10.005-4.185-15.705m59.58 0c0-7.98-2.76-14.715-8.28-20.205-5.52-5.49-12.21-8.235-20.07-8.235-7.86 0-14.58 2.76-20.16 8.28s-8.37 12.24-8.37 20.16 2.835 14.64 8.505 20.16c5.67 5.52 12.315 8.28 19.935 8.28 7.92 0 14.64-2.73 20.16-8.19 5.52-5.46 8.28-12.21 8.28-20.25m-45.72-19.17h17.01c4.02 0 7.2.915 9.54 2.745 2.34 1.83 3.51 4.185 3.51 7.065 0 4.86-3.24 8.13-9.72 9.81l9.18 13.05c.9 1.26 1.56 2.115 1.98 2.565.42.45.87.735 1.35.855l1.98.54v1.35h-8.1l-12.96-17.73h-3.33v13.59c.24 1.14.765 1.875 1.575 2.205.81.33 2.025.495 3.645.495v1.44h-16.11v-1.44l2.07-.18c.9-.12 1.53-.63 1.89-1.53.36-.9.54-2.34.54-4.32v-22.95c0-3.66-.54-5.55-1.62-5.67l-2.43-.27v-1.62m10.44 18.36h1.35c3.54 0 6.285-.72 8.235-2.16 1.95-1.44 2.925-3.39 2.925-5.85 0-2.46-.825-4.47-2.475-6.03-1.65-1.56-3.765-2.34-6.345-2.34-1.2 0-2.43.21-3.69.63v15.75M237.4 585.08c-.373 4.107-3.08 7.607-8.12 10.5-5.04 2.893-10.64 4.34-16.8 4.34-9.147 0-15.4-2.893-18.76-8.68 1.493-57.493-.187-86.613-5.04-87.36-4.667-.747-16.053 25.013-34.16 77.28v16.8c-.187 6.72-2.007 11.48-5.46 14.28-3.453 2.8-7.14 4.2-11.06 4.2-6.72 0-13.907-3.64-21.56-10.92-2.24-1.867-3.453-16.053-3.64-42.56.187 16.24.28-13.907.28-90.44 0-1.68-.187-3.967-.56-6.86-.373-2.893-.56-4.993-.56-6.3 0-3.547.933-6.627 2.8-9.24 2.24-3.36 5.787-5.04 10.64-5.04 5.04 0 10.313 1.54 15.82 4.62s8.82 6.02 9.94 8.82c.747 1.867 1.12 3.733 1.12 5.6 0 1.867-.747 4.48-2.24 7.84-1.493 3.36-2.24 6.16-2.24 8.4V519c11.76-25.013 20.627-41.533 26.6-49.56 10.64-13.813 22.68-20.253 36.12-19.32 8.027.56 13.72 8.027 17.08 22.4 2.613 10.827 4.013 26.88 4.2 48.16v50.4c.373 1.307 1.68 3.64 3.92 7 1.307 1.867 1.867 4.2 1.68 7m131.227-11.48c-1.494 7.093-6.534 14.653-15.12 22.68-1.307 2.053-6.44 4.76-15.4 8.12-10.267 3.92-19.134 5.6-26.6 5.04-14-.933-25.014-8.96-33.04-24.08-7.28-14-10.92-31.173-10.92-51.52 0-22.027 4.106-41.347 12.32-57.96 9.146-18.293 21.373-28.56 36.68-30.8 2.986-.373 5.88-.56 8.68-.56 22.213 0 34.44 13.627 36.68 40.88 1.12 12.507-3.827 26.133-14.84 40.88-11.947 16.24-27.254 27.627-45.92 34.16 2.053 7.467 3.64 12.32 4.76 14.56 2.613 4.667 6.16 7 10.64 7 4.293 0 8.866-1.68 13.72-5.04 4.106-2.8 6.906-5.507 8.4-8.12.746-.373 1.493-2.473 2.24-6.3.746-3.827 2.706-6.58 5.88-8.26 1.12-.56 2.426-.84 3.92-.84 4.48 0 8.82 2.193 13.02 6.58 4.2 4.387 5.833 8.913 4.9 13.58m-43.96-98.56c-7.467 0-13.534 5.32-18.2 15.96-6.16 14.187-8.68 28.187-7.56 42 8.773-2.8 16.893-9.333 24.36-19.6 7.466-10.267 11.2-19.413 11.2-27.44 0-7.28-3.267-10.92-9.8-10.92m172.386.84c-1.493 0-3.826-.607-7-1.82-3.173-1.213-5.6-1.82-7.28-1.82-1.306 0-2.613.28-3.92.84l-10.36 5.32v95.76c0 3.547 1.914 8.12 5.74 13.72 3.827 5.6 5.367 10.08 4.62 13.44-.933 4.107-3.686 7.373-8.26 9.8-4.573 2.427-9.473 3.64-14.7 3.64-9.893 0-16.706-4.387-20.44-13.16-1.12-2.613-1.773-10.92-1.96-24.92-.186-9.333-.093-23.893.28-43.68.374-22.4.56-36.587.56-42.56-1.12.373-2.986 1.633-5.6 3.78-2.613 2.147-5.226 3.22-7.84 3.22-2.053 0-4.666-.56-7.84-1.68-13.066-4.48-19.6-9.053-19.6-13.72 0-1.12.28-2.333.84-3.64 1.307-2.987 3.734-4.667 7.28-5.04 5.414-.747 8.68-1.4 9.8-1.96 4.294-1.68 12.134-5.693 23.52-12.04V435c0-1.867-.513-4.34-1.54-7.42-1.026-3.08-1.54-5.367-1.54-6.86 0-1.68.467-3.267 1.4-4.76 4.854-7.467 11.387-11.2 19.6-11.2 9.52 0 16.24 3.733 20.16 11.2 1.494 2.987 2.24 5.413 2.24 7.28 0 2.24-1.12 4.573-3.36 7-2.24 2.427-3.36 4.667-3.36 6.72v13.72c3.36-1.493 7.094-4.013 11.2-7.56 3.174-2.613 5.88-3.92 8.12-3.92.934 0 1.96.187 3.08.56 11.76 3.173 17.64 10.267 17.64 21.28 0 3.547-1.073 6.907-3.22 10.08-2.146 3.173-4.9 4.76-8.26 4.76m127.307 80.64c-.187 4.107-1.96 8.307-5.32 12.6-5.227 6.16-8.587 10.827-10.08 14-11.76 17.92-23.893 26.88-36.4 26.88-14.747 0-26.227-7.467-34.44-22.4-7.28-13.627-10.92-30.8-10.92-51.52 0-23.707 4.48-44.333 13.44-61.88 9.893-19.413 22.68-29.12 38.36-29.12 12.32 0 22.307 6.813 29.96 20.44 6.347 11.573 9.52 24.173 9.52 37.8 0 3.733-.28 7-.84 9.8-1.307 6.347-6.627 9.52-15.96 9.52-7.28 0-12.88-2.053-16.8-6.16-1.867-2.053-2.8-6.813-2.8-14.28 0-1.867.093-4.573.28-8.12v-8.12c0-8.4-1.493-12.6-4.48-12.6-3.173 0-6.533 9.193-10.08 27.58-3.547 18.387-5.32 35.607-5.32 51.66 0 18.667 2.8 28 8.4 28 7.28 0 12.693-5.88 16.24-17.64 1.493-1.68 2.333-5.04 2.52-10.08 0-4.48 1.12-7.42 3.36-8.82 2.24-1.4 5.507-2.1 9.8-2.1 5.6 0 10.453 1.213 14.56 3.64 4.853 2.8 7.187 6.44 7 10.92m136.547-90.16c.373 2.8-.187 5.787-1.68 8.96-1.867 4.293-2.987 7.467-3.36 9.52 0 38.827-1.587 65.8-4.76 80.92-6.907 31.733-21.56 47.6-43.96 47.6-32.667 0-49-29.773-49-89.32 0-16.053 1.213-33.04 3.64-50.96-1.307-4.293-1.96-8.12-1.96-11.48 0-5.413 1.773-9.987 5.32-13.72 2.986-3.173 7.373-4.76 13.16-4.76 4.666 0 9.053.98 13.16 2.94 4.106 1.96 6.533 4.247 7.28 6.86a14.21 14.21 0 0 1 .56 3.92c0 2.427-1.027 6.3-3.08 11.62-2.054 5.32-2.894 9.66-2.52 13.02-1.867 10.453-2.8 23.613-2.8 39.48 0 16.053 1.026 29.4 3.08 40.04 2.613 12.32 6.253 18.48 10.92 18.48 7.84 0 12.973-13.253 15.4-39.76 1.306-13.253 1.96-34.347 1.96-63.28 0-1.867-.28-4.573-.84-8.12-.56-3.547-.84-6.16-.84-7.84 0-4.48 1.68-7.56 5.04-9.24 1.866-.933 4.48-1.4 7.84-1.4 6.16 0 11.853 1.307 17.08 3.92 6.16 3.173 9.613 7.373 10.36 12.6m142.426 59.36c0 19.787-4.2 37.8-12.6 54.04-9.333 17.547-20.813 26.32-34.44 26.32-7.653 0-15.493-6.067-23.52-18.2v35.84c0 2.987 1.214 6.813 3.64 11.48 2.427 4.667 3.64 8.213 3.64 10.64 0 1.867-.466 3.733-1.4 5.6-3.92 8.4-11.573 12.6-22.96 12.6-9.333 0-15.12-3.36-17.36-10.08-.746-2.24-1.12-4.387-1.12-6.44 0-2.053.607-4.807 1.82-8.26 1.214-3.453 1.82-6.393 1.82-8.82V471.12c0-2.053-.746-4.527-2.24-7.42-1.493-2.893-2.24-5.273-2.24-7.14 0-1.493.374-3.08 1.12-4.76 2.24-5.227 9.147-7.84 20.72-7.84 7.28 0 12.134 1.493 14.56 4.48.934 1.12 1.4 2.52 1.4 4.2 0 1.307-.466 3.36-1.4 6.16-.933 2.8-1.493 4.947-1.68 6.44 8.587-12.32 18.667-18.48 30.24-18.48 15.494 0 26.787 8.773 33.88 26.32 5.414 13.627 8.12 31.173 8.12 52.64m-35.28 0c0-17.733-.373-29.027-1.12-33.88-1.866-12.133-6.533-18.2-14-18.2-4.293 0-8.166 5.833-11.62 17.5-3.453 11.667-5.18 23.193-5.18 34.58 0 8.587 1.867 18.667 5.6 30.24 3.734 12.32 7.467 18.48 11.2 18.48 4.48 0 8.214-5.693 11.2-17.08 2.614-9.893 3.92-20.44 3.92-31.64"/></g></svg>