<svg xmlns="http://www.w3.org/2000/svg" width="1025" height="1024"><g fill="none" fill-rule="evenodd"><path fill="#000" d="M.061 0h1024v1024H.061z"/><path fill="#FFF" fill-rule="nonzero" d="m331.561 224 366 438V216c0-15.333 3.833-25.167 11.5-29.5 7.667-4.333 18.833-4.5 33.5-.5 25.333 7.333 44.667 16.333 58 27 20 15.333 20.333 32.333 1 51v559c0 12.667-3.333 21-10 25-5.333 3.333-14 4-26 2-20-6-35-12-45-18-6.667-4-11-6.667-13-8l-386-461v460c0 12.667-3.333 21-10 25-5.333 3.333-14 4-26 2-20-6-35-12-45-18-8.667-4.667-14.667-10.333-18-17-2.667-5.333-4-14.333-4-27V215c0-14.667 3.833-24.167 11.5-28.5 7.667-4.333 18.5-4.5 32.5-.5 19.333 5.333 38.667 14.667 58 28 4 2 7.667 5.333 11 10"/></g></svg>