<svg xmlns="http://www.w3.org/2000/svg" xmlns:xlink="http://www.w3.org/1999/xlink" width="1025" height="1024"><defs><linearGradient id="b" x1="50%" x2="47.854%" y1="0%" y2="109.938%"><stop offset="0%" stop-color="#5DA6EE"/><stop offset="100%" stop-color="#317AE3"/></linearGradient><path id="a" d="M0 0h1024v1024H0z"/></defs><g fill="none" fill-rule="evenodd" transform="translate(.189)"><mask id="c" fill="#fff"><use xlink:href="#a"/></mask><use xlink:href="#a" fill="#FFF"/><rect width="637" height="646" x="188.192" y="194.774" fill="url(#b)" mask="url(#c)" rx="88" transform="rotate(-11 506.692 517.774)"/><g fill="#FFF" fill-rule="nonzero" mask="url(#c)"><path d="M228.332 768.359c30.44-.27 50.157-5.732 59.153-16.388 8.996-10.655 13.678-26.524 14.046-47.608l6.778-388.32c-24.598-28.461-39.79-45.212-45.575-50.251-5.786-5.04-13.738-8.316-23.856-9.827l.363-20.818 173.743 3.033 275.802 350.404 4.003.07 4.256-243.8c.484-27.757-4.24-47.662-14.175-59.715-9.934-12.054-30.093-19.547-60.476-22.48l.363-20.817 176.545 3.081-.363 20.817c-25.696 3.823-42.943 9.262-51.743 16.317-8.8 7.054-13.418 23.125-13.856 48.212l-8.427 482.798-22.819-.398-353.045-444.657-5.605-.098-5.618 321.865c-.438 25.087 2.722 42.896 9.479 53.425 10.649 17.005 32.909 26.47 66.78 28.397l-.363 20.817-185.753-3.242.363-20.817"/></g></g></svg>