<?xml version="1.0" encoding="UTF-8"?>
<svg width="1025px" height="1024px" viewBox="0 0 1025 1024" version="1.1" xmlns="http://www.w3.org/2000/svg" xmlns:xlink="http://www.w3.org/1999/xlink">
    <title>Notion</title>
    <g id="ICON-新版方图标" stroke="none" stroke-width="1" fill="none" fill-rule="evenodd">
        <g id="Notion" transform="translate(0.2293, 0)">
            <rect id="蒙版路径" fill="#FFFFFF" x="0" y="0" width="1024" height="1024"></rect>
            <g id="编组" transform="translate(511.5, 512) rotate(1) translate(-511.5, -512)translate(195, 182)" fill="#000000" fill-rule="nonzero">
                <path d="M405.735417,1.50040861 L39.7822917,28.4720961 C10.2862504,31.0240663 0,50.2738434 0,73.3515762 L0,473.702938 C0,491.67673 6.41791675,507.054551 21.8253127,527.602314 L107.851771,639.22902 C121.984375,657.202812 134.820208,661.052768 161.810625,659.776783 L586.777813,634.10308 C622.71375,631.55111 633,614.853303 633,586.62763 L633,136.226848 C633,121.641017 627.219479,117.439066 610.207604,104.98721 C609.239293,104.284909 608.272208,103.580916 607.306354,102.875234 L490.487084,20.7501851 C462.221875,0.246423057 450.682813,-2.34954694 405.735417,1.50040861 Z M171.4375,128.856933 C136.732396,131.188906 128.863854,131.7169 109.148542,115.723085 L59.036042,75.9475462 C53.9368751,70.799606 56.5084375,64.3756803 69.3222917,63.0996949 L421.142813,37.447992 C450.660833,34.8740219 466.068229,45.1479031 477.629271,54.123799 L537.984063,97.7712935 C540.555625,99.0472789 546.951562,106.725189 539.258854,106.725189 L175.92125,128.548937 L171.4375,128.856933 L171.4375,128.856933 Z M130.973854,582.777674 L130.973854,200.422104 C130.973854,183.724298 136.095,176.024387 151.502396,174.726402 L568.776875,150.350684 C582.931459,149.074699 589.349375,158.050595 589.349375,174.726402 L589.349375,554.530002 C589.349375,571.227808 586.777813,585.351645 563.63375,586.62763 L164.338229,609.727362 C141.238125,611.003348 130.973854,603.325437 130.973854,582.777674 L130.973854,582.777674 Z M525.170208,220.925866 C527.719792,232.475732 525.170208,244.025599 513.587187,245.345583 L494.333438,249.151539 L494.333438,531.452269 C477.629271,540.428165 462.243855,545.554106 449.408021,545.554105 C428.8575,545.554105 423.692396,539.13018 408.306979,519.902403 L282.454271,322.300692 L282.454271,513.478478 L322.280521,522.476373 C322.280521,522.476373 322.280521,545.576106 290.146979,545.576105 L201.570938,550.702046 C199.021355,545.554106 201.570938,532.728255 210.582396,530.176284 L233.660521,523.774358 L233.660521,270.997286 L201.570938,268.401316 C199.021355,256.85145 205.417292,240.175643 223.418229,238.899658 L318.434167,232.475733 L449.408021,432.673413 L449.408021,255.575465 L415.999688,251.747509 C413.450105,237.601673 423.692396,227.349792 436.550208,226.073807 L525.170208,220.925866 Z" id="形状"></path>
            </g>
        </g>
    </g>
</svg>