<?xml version="1.0" encoding="UTF-8"?>
<svg width="1025px" height="1024px" viewBox="0 0 1025 1024" version="1.1" xmlns="http://www.w3.org/2000/svg" xmlns:xlink="http://www.w3.org/1999/xlink">
    <title>Npm</title>
    <g id="ICON-新版方图标" stroke="none" stroke-width="1" fill="none" fill-rule="evenodd">
        <g id="Npm" transform="translate(0.6332, 0)">
            <rect id="蒙版路径" fill="#FFFFFF" x="0" y="0" width="1024" height="1024"></rect>
            <polygon id="路径" fill="#FAA42F" points="214.844199 686.179466 214.844199 683.874921 212.378335 682.722648 212.378335 685.027194"></polygon>
            <polygon id="路径" fill="#DDB02A" points="212.378335 598.606729 214.844199 597.454456 214.844199 554.820361 212.378335 553.668088"></polygon>
            <polygon id="路径" fill="#C47728" points="244.526748 666.590828 244.526748 614.738549 214.844199 597.454456 212.378335 598.606729 212.378335 682.722648 214.844199 683.874921"></polygon>
            <polygon id="路径" fill="#F15933" points="286.930389 727.661289 289.465389 726.509017 326.453348 748.402201 326.453348 750.706747"></polygon>
            <polygon id="路径" fill="#F37132" points="289.465389 691.940831 244.526748 666.590828 214.844199 683.874921 214.844199 686.179466 286.930389 727.661289 289.465389 726.509017"></polygon>
            <polygon id="路径" fill="#D6E042" points="212.378335 469.552169 214.844199 468.399896 214.844199 425.765801 212.378335 423.461255"></polygon>
            <path d="M212.378335,553.668088 L214.844199,554.90102 L240.770338,540.151927 C239.596281,531.020128 239.041922,521.819309 239.111065,512.612606 C239.111065,503.140923 239.929179,493.254422 240.758815,483.805784 L214.832676,469.056692 L212.366812,470.301147 L212.378335,553.668088 Z" id="路径" fill="#FCEA3B"></path>
            <path d="M214.844199,597.454456 L244.572839,614.27764 L289.51148,588.81241 L289.51148,554.244224 L267.618296,541.453996 C268.177284,547.693532 269.139523,553.890348 270.498978,560.005589 L246.64693,573.94809 C243.721185,562.615611 241.793368,551.048707 240.885565,539.379904 L214.959426,554.244224 L214.844199,597.454456 Z" id="路径" fill="#FAA42F"></path>
            <path d="M289.465389,726.509017 L289.465389,692.40174 L301.449027,685.407444 L301.034209,684.992625 C306.795573,691.986922 313.017846,698.589445 319.124893,704.696491 C329.499508,715.010557 340.672922,724.488694 352.540805,733.042404 L326.614666,748.252405 L289.465389,726.509017 Z M333.943121,666.475601 L364.017443,683.759693 L364.017443,708.879242 C354.730122,702.125538 346.054664,694.56825 338.091304,686.294694 C333.246221,681.798793 328.70402,676.98714 324.494484,671.891283 L333.943121,666.475601 Z" id="形状" fill="#F15933"></path>
            <polygon id="路径" fill="#E22574" points="438.223815 815.234027 438.223815 811.777208 401.351084 791.036297 399.046538 792.188569"></polygon>
            <path d="M399.046538,792.188569 L401.109106,790.955637 L401.109106,760.881316 C383.939305,753.326484 367.636051,743.938592 352.483192,732.881085 L326.441825,748.091087 L326.441825,750.568474 L399.046538,792.188569 Z" id="路径" fill="#EF3839"></path>
            <polygon id="路径" fill="#BBD64B" points="212.378335 340.497609 214.844199 339.345336 214.844199 338.193063 212.378335 339.345336"></polygon>
            <polygon id="路径" fill="#D6E042" points="251.901294 403.872616 251.901294 360.086248 214.844199 339.345336 212.378335 340.497609 212.378335 423.461255 214.844199 425.765801"></polygon>
            <path d="M214.844199,468.399896 L240.770338,483.148989 C243.593505,457.43255 249.952598,432.228826 259.667613,408.251253 L251.84368,403.745866 L214.740494,425.178141 L214.844199,468.399896 Z M267.618296,480.729216 L289.51148,468.399896 L289.51148,425.189664 L282.920479,421.479346 C275.315053,440.489855 270.1651,460.392681 267.59525,480.70617 L267.618296,480.729216 Z" id="形状" fill="#FFCF29"></path>
            <path d="M267.572205,542.145359 L289.465389,554.935588 L326.453348,533.503313 L326.453348,490.408308 L289.465389,468.976033 L267.572205,481.305352 C266.26316,491.663689 265.578241,502.091377 265.521159,512.531947 C265.577175,522.436553 266.262236,532.327602 267.572205,542.145359 L267.572205,542.145359 Z" id="路径" fill="#FAA42F"></path>
            <polygon id="路径" fill="#F15933" points="359.869261 599.759002 401.351084 623.956732 401.351084 661.981736 364.478352 683.874921 333.366985 666.590828 333.366985 614.738549"></polygon>
            <path d="M401.351084,791.036297 L438.799952,812.468572 L476.248819,791.036297 L476.248819,782.39425 C450.341056,778.908447 425.074571,771.689451 401.235856,760.961975 L401.351084,791.036297 Z M476.364047,755.66152 L476.364047,748.263928 L438.915179,726.485971 L417.021995,739.2762 C435.989995,747.360134 455.943589,752.900646 476.364047,755.753702 L476.364047,755.66152 Z" id="形状" fill="#EE438D"></path>
            <polygon id="路径" fill="#F37132" points="359.869261 551.363542 326.453348 532.927176 289.465389 554.820361 289.465389 589.388546 333.366985 614.738549 359.869261 599.759002"></polygon>
            <polygon id="路径" fill="#CC3192" points="513.121551 811.777208 476.248819 791.036297 438.223815 811.777208 438.223815 815.234027 510.817005 856.71585 513.121551 855.563577"></polygon>
            <path d="M416.330631,739.184018 L438.223815,726.393789 L438.223815,683.644466 L400.774947,661.866509 L363.671761,683.644466 L363.671761,708.764015 C379.847161,721.183191 397.591959,731.411633 416.445858,739.184018 L416.330631,739.184018 Z" id="路径" fill="#BD2025"></path>
            <polygon id="路径" fill="#9B3995" points="514.273824 856.71585 513.121551 855.563577 510.817005 856.71585 511.969278 857.868122"></polygon>
            <polygon id="路径" fill="#F1EB59" points="289.465389 339.345336 289.465389 295.558968 288.197889 295.558968 214.844199 338.193063 214.844199 339.345336 251.901294 360.086248"></polygon>
            <path d="M251.901294,403.872616 L259.725227,408.378003 C269.184331,385.250552 281.785855,363.537158 297.174095,343.850723 L289.338639,339.310768 L251.889771,360.627816 L251.901294,403.872616 Z M282.782207,421.502391 L289.373207,425.21271 L326.361166,403.895662 L326.361166,360.68543 L320.184984,357.378406 C304.630996,376.826117 292.013744,398.450146 282.736116,421.560005 L282.782207,421.502391 Z" id="形状" fill="#FCEA3B"></path>
            <polygon id="路径" fill="#FAA42F" points="326.453348 403.872616 289.465389 425.765801 289.465389 468.399896 326.453348 490.293081 359.869261 470.704442 359.869261 424.613528 361.021534 423.461255"></polygon>
            <polygon id="路径" fill="#E22574" points="471.639728 664.286282 438.223815 683.874921 438.223815 726.509017 476.248819 748.402201 513.121551 726.509017 513.121551 687.331739 511.969278 687.331739"></polygon>
            <polygon id="路径" fill="#F7975F" points="326.453348 532.927176 359.869261 551.363542 359.869261 470.704442 326.453348 490.293081"></polygon>
            <path d="M476.248819,791.036297 L513.352006,812.468572 L550.800873,791.036297 L550.800873,781.979432 C538.07639,783.618289 525.259774,784.43809 512.430187,784.433773 C500.303593,784.391494 488.187752,783.706853 476.133592,782.382727 L476.248819,791.036297 Z M550.800873,755.200611 L550.800873,748.206314 L513.236778,726.428357 L476.133592,748.206314 L476.133592,755.603906 C488.159519,757.278621 500.288237,758.106454 512.430187,758.081293 C525.276777,758.14604 538.107952,757.182739 550.800873,755.200611 L550.800873,755.200611 Z" id="形状" fill="#CC3192"></path>
            <polygon id="路径" fill="#D31F26" points="401.351084 661.981736 438.223815 683.874921 471.639728 664.286282 401.351084 623.956732"></polygon>
            <polygon id="路径" fill="#73206A" points="588.019287 814.081754 588.019287 811.777208 551.146555 791.036297 513.121551 811.777208 513.121551 855.563577 514.273824 856.71585"></polygon>
            <polygon id="路径" fill="#D6E042" points="288.197889 295.558968 289.465389 295.558968 326.453348 274.702829 326.453348 273.435329"></polygon>
            <path d="M289.465389,339.345336 L297.300845,343.885291 C304.295141,335.243245 311.704255,327.407789 319.078802,319.572334 C329.72962,308.830955 341.296088,299.038013 353.646987,290.304603 L326.453348,274.633692 L289.350162,296.065968 L289.465389,339.345336 Z M320.346302,357.43602 L326.476393,360.719998 L363.925261,339.287723 L363.925261,315.435674 C354.63794,322.189378 345.962482,329.746666 337.999122,338.020222 C331.822939,344.184882 326.015484,350.349542 320.25412,357.378406 L320.346302,357.43602 Z" id="形状" fill="#FFCF29"></path>
            <polygon id="路径" fill="#FAA42F" points="401.351084 400.415798 401.351084 360.086248 364.478352 339.345336 326.453348 360.086248 326.453348 403.872616 361.021534 423.461255"></polygon>
            <polygon id="路径" fill="#853A96" points="626.044291 792.188569 624.892018 791.036297 588.019287 811.777208 588.019287 814.081754"></polygon>
            <polygon id="路径" fill="#CC3192" points="588.019287 726.509017 588.019287 683.874921 553.451101 663.134009 513.121551 687.331739 513.121551 726.509017 551.146555 748.402201"></polygon>
            <path d="M551.146555,791.036297 L588.249741,812.468572 L625.698609,791.036297 L625.698609,760.155384 C602.006928,770.914745 576.90456,778.247585 551.146555,781.933341 L551.146555,791.036297 Z M609.221107,738.838336 L588.249741,726.509017 L551.146555,748.286974 L551.146555,755.28127 C571.101589,752.16541 590.603178,746.632221 609.221107,738.803768 L609.221107,738.838336 Z" id="形状" fill="#9B3995"></path>
            <path d="M326.453348,274.702829 L353.646987,290.37374 C368.476406,279.736447 384.343214,270.625579 401.005402,263.1801 L401.005402,231.492597 L400.175765,231.04321 L326.430302,273.446851 L326.453348,274.702829 Z" id="路径" fill="#FFCF29"></path>
            <path d="M364.478352,339.345336 L401.581538,360.777611 L439.030406,339.345336 L439.030406,296.135104 L418.865631,284.612375 C399.441953,292.437512 381.151,302.823053 364.478352,315.493288 L364.478352,339.345336 Z" id="路径" fill="#D98A26"></path>
            <path d="M624.892018,791.036297 L626.12495,791.842888 L699.524731,749.439246 L699.524731,748.206314 L672.331092,732.535404 C657.463336,743.210659 641.604341,752.4328 624.972677,760.074725 L624.892018,791.036297 Z" id="路径" fill="#8F4F9F"></path>
            <polygon id="路径" fill="#F37132" points="472.792001 358.933975 438.223815 339.345336 401.351084 360.086248 401.351084 400.415798"></polygon>
            <polygon id="路径" fill="#D24B9B" points="553.451101 663.134009 588.019287 683.874921 624.892018 661.981736 624.892018 622.804459"></polygon>
            <path d="M588.019287,726.509017 L609.10588,738.838336 C628.264084,730.713374 646.246167,720.05589 662.571341,707.150833 L662.571341,683.759693 L625.468155,661.981736 L588.019287,683.759693 L588.019287,726.509017 Z" id="路径" fill="#B263A7"></path>
            <polygon id="路径" fill="#FFCF29" points="400.198811 231.031688 401.351084 231.492597 438.223815 210.060321 438.223815 208.908049"></polygon>
            <path d="M418.635177,284.036239 L438.799952,295.558968 L468.874273,278.735784 L468.874273,269.298669 L470.533546,268.895374 C452.740152,272.032202 435.349687,277.133405 418.681267,284.105375 L418.635177,284.036239 Z M468.874273,226.883505 L438.799952,209.599412 L401.351084,231.031688 L401.351084,262.719191 C422.936558,253.226334 445.618105,246.452835 468.874273,242.554416 L468.874273,226.883505 Z" id="形状" fill="#FAA42F"></path>
            <path d="M672.135205,732.270381 L699.328845,747.941292 L736.777713,726.163335 L736.777713,692.056058 L691.839071,666.129919 L661.76475,683.414012 L661.76475,706.805151 C666.719523,703.50965 670.821614,699.810854 675.361569,696.112059 L699.328845,709.708878 C690.74902,717.802298 681.666379,725.345508 672.135205,732.293426 L672.135205,732.270381 Z" id="路径" fill="#6B297A"></path>
            <polygon id="路径" fill="#782A8F" points="738.967031 727.661289 737.814758 726.509017 699.789754 748.402201 699.789754 749.554474"></polygon>
            <polygon id="路径" fill="#F37132" points="468.182909 279.196693 438.223815 295.558968 438.223815 339.345336 472.792001 358.933975 511.969278 337.04079 513.121551 337.04079 513.121551 304.77715"></polygon>
            <polygon id="路径" fill="#9B3995" points="664.069295 599.759002 624.892018 622.804459 624.892018 661.981736 661.76475 683.874921 692.876117 666.590828 692.876117 614.738549 664.069295 598.606729"></polygon>
            <polygon id="路径" fill="#FAA42F" points="468.182909 227.344414 513.121551 201.418275 513.121551 167.322521 511.969278 166.504407 438.223815 208.908049 438.223815 210.060321"></polygon>
            <polygon id="路径" fill="#F15933" points="513.121551 337.04079 513.121551 304.77715 558.060192 279.196693 588.019287 295.558968 588.019287 339.345336 552.298828 360.086248"></polygon>
            <polygon id="路径" fill="#782A8F" points="811.560221 685.027194 811.560221 683.874921 781.601127 666.590828 737.814758 691.940831 737.814758 726.509017 738.967031 727.661289"></polygon>
            <polygon id="路径" fill="#A01664" points="664.069295 553.668088 699.789754 532.927176 699.789754 490.293081 664.069295 469.552169"></polygon>
            <polygon id="路径" fill="#C02026" points="624.892018 401.568071 624.892018 360.086248 588.019287 339.345336 552.298828 360.086248"></polygon>
            <polygon id="路径" fill="#9B3995" points="692.876117 614.738549 737.814758 589.388546 737.814758 554.820361 699.789754 532.927176 664.069295 553.668088 664.069295 598.606729"></polygon>
            <path d="M558.060192,227.344414 L587.673605,210.060321 L625.122473,231.492597 L625.122473,263.986691 C613.933324,258.870833 602.378625,254.595594 590.554287,251.196463 L590.554287,278.735784 C596.329523,280.416935 601.987882,282.47627 607.492698,284.900444 L587.673605,295.996831 L558.060192,279.173648 L558.060192,227.321369 L558.060192,227.344414 Z" id="路径" fill="#F15933"></path>
            <path d="M742.42385,599.759002 C743.208302,598.474634 743.762056,597.062953 744.060077,595.587774 C743.757936,597.049094 743.200121,598.445581 742.412327,599.712911 L742.42385,599.759002 Z M744.889714,593.997638 C750.809961,577.374046 754.830082,560.133909 756.873351,542.606268 L737.515167,554.128997 L737.515167,588.697183 L745.350623,593.225615 L744.889714,593.997638 Z M781.9929,614.162413 L812.067221,596.87832 L812.067221,554.128997 L784.066991,538.112404 C781.732245,561.752189 776.348692,584.990547 768.050398,607.248776 L768.476739,606.419139 L781.9929,614.162413 Z" id="形状" fill="#9051A0"></path>
            <polygon id="路径" fill="#B01B4A" points="699.789754 360.086248 661.76475 339.345336 624.892018 360.086248 624.892018 401.568071 664.069295 424.613528 699.789754 403.872616"></polygon>
            <polygon id="路径" fill="#C54627" points="558.060192 227.344414 588.019287 210.060321 513.121551 167.322521 513.121551 201.418275"></polygon>
            <polygon id="路径" fill="#A41768" points="664.069295 424.613528 664.069295 424.613528 664.069295 469.552169 699.789754 490.293081 737.814758 468.399896 737.814758 425.765801 699.789754 403.872616"></polygon>
            <path d="M588.019287,339.345336 L625.468155,360.777611 L662.571341,339.345336 L662.571341,317.10647 C645.88024,303.910982 627.416804,293.127714 607.723153,285.073285 L587.904059,296.169672 L588.019287,339.345336 Z" id="路径" fill="#EF3839"></path>
            <path d="M699.789754,532.927176 L737.238622,554.359452 L756.596806,542.836723 C757.914563,532.595027 758.599545,522.28182 758.647852,511.95581 C758.584777,501.094181 757.899974,490.245069 756.596806,479.461716 L737.238622,468.434464 L699.789754,489.86674 L699.789754,532.927176 Z" id="路径" fill="#9B3995"></path>
            <path d="M783.905673,538.688541 L811.905903,554.705133 L811.905903,468.745578 L783.444763,484.762171 C784.625926,493.893298 785.180315,503.094603 785.104036,512.301492 C785.104036,521.346834 784.689218,530.046494 783.859582,538.573313 L783.905673,538.688541 Z" id="路径" fill="#6B297A"></path>
            <path d="M661.76475,339.345336 L699.328845,360.777611 L703.857277,358.311747 C698.386701,351.211732 692.459134,344.47586 686.112275,338.146972 C678.394693,330.720308 670.278354,323.719485 661.799318,317.175606 L661.76475,339.345336 Z M726.868166,344.761019 L736.754667,339.391427 L736.754667,296.181195 L699.305799,274.74892 L671.305569,291.226422 C683.194801,299.752816 694.370334,309.23275 704.721482,319.572334 C712.524192,327.558473 719.908604,335.942857 726.845121,344.691882 L726.868166,344.761019 Z" id="形状" fill="#E22574"></path>
            <polygon id="路径" fill="#782A8F" points="811.560221 597.454456 811.560221 554.820361"></polygon>
            <path d="M699.789754,403.872616 L737.238622,425.304891 L741.767054,422.827505 C732.816787,399.453375 720.173041,377.667228 704.318186,358.300225 L699.789754,360.73152 L699.789754,403.872616 Z M764.89317,409.219162 L774.353331,403.872616 L774.353331,360.662384 L737.250145,339.230109 L727.363643,344.645791 C742.669101,364.388093 755.263831,386.089782 764.812511,409.173071 L764.89317,409.219162 Z" id="形状" fill="#CC3192"></path>
            <path d="M672.135205,290.949876 L700.135436,274.472374 L625.468155,231.262142 L625.468155,263.756237 C641.87317,271.207649 657.471839,280.319743 672.019978,290.949876 L672.135205,290.949876 Z" id="路径" fill="#EF3839"></path>
            <path d="M737.814758,468.399896 L757.172942,479.473238 C754.41513,460.029763 749.427505,440.96853 742.308622,422.666187 L737.78019,425.143573 L737.814758,468.399896 Z M783.905673,484.416489 L812.366812,468.399896 L812.366812,425.189664 L774.917944,403.872616 L765.434739,409.219162 C775.179041,433.286024 781.426328,458.624399 783.986332,484.46258 L783.905673,484.416489 Z" id="形状" fill="#B263A7"></path>
            <rect id="矩形" fill="#853A96" fill-rule="nonzero" x="811.560221" y="425.765801" width="1" height="43.2102322"></rect>
            <polygon id="路径" fill="#D1499A" points="737.814758 339.345336 774.68749 360.086248 811.560221 339.345336 737.814758 295.558968"></polygon>
            <polygon id="路径" fill="#9B3995" points="811.560221 339.345336 774.68749 360.086248 774.68749 403.872616 811.560221 425.765801"></polygon>
            <polygon id="路径" fill="#85459A" points="811.560221 597.454456 811.560221 597.454456 781.601127 614.738549 781.601127 666.590828 811.560221 683.874921"></polygon>
            <rect id="矩形" fill="#341144" fill-rule="nonzero" x="811.560221" y="683.874921" width="1" height="1.23293196"></rect>
            <polygon id="路径" fill="#F15933" points="434.766997 552.515815 438.223815 554.820361 438.223815 558.277179 434.766997 555.972634"></polygon>
            <polygon id="路径" fill="#F15933" points="476.248819 490.293081 476.248819 532.927176 438.223815 554.820361 434.766997 552.515815 434.766997 470.704442 438.223815 468.399896"></polygon>
            <polygon id="路径" fill="#E22574" points="516.57837 598.606729 513.121551 597.454456 509.664732 599.759002 511.969278 600.911275"></polygon>
            <polygon id="路径" fill="#EF3839" points="513.121551 554.820361 476.248819 532.927176 438.223815 554.820361 438.223815 558.277179 509.664732 599.759002 513.121551 597.454456"></polygon>
            <polygon id="路径" fill="#EE3F8A" points="588.019287 557.124906 588.019287 554.820361 551.146555 532.927176 513.121551 554.820361 513.121551 597.454456 516.57837 598.606729"></polygon>
            <polygon id="路径" fill="#EF3839" points="551.146555 532.927176 551.146555 490.293081 513.121551 468.399896 476.248819 490.293081 476.248819 532.927176 513.121551 554.820361"></polygon>
            <polygon id="路径" fill="#E22574" points="589.17156 553.668088 589.17156 469.552169 588.019287 468.399896 551.146555 490.293081 551.146555 532.927176 588.019287 554.820361"></polygon>
            <polygon id="路径" fill="#CC3192" points="589.17156 553.668088 588.019287 554.820361 588.019287 557.124906 589.17156 555.972634"></polygon>
            <polygon id="路径" fill="#F37132" points="434.766997 470.704442 438.223815 468.399896 438.223815 466.095351 434.766997 467.247623"></polygon>
            <polygon id="路径" fill="#F15933" points="510.817005 423.461255 513.121551 425.765801 513.121551 468.399896 476.248819 490.293081 438.223815 468.399896 438.223815 466.095351"></polygon>
            <polygon id="路径" fill="#F4805F" points="514.273824 424.613528 513.121551 425.765801 510.817005 423.461255 511.969278 423.461255"></polygon>
            <polygon id="路径" fill="#EF3839" points="588.019287 468.399896 588.019287 467.247623 514.273824 424.613528 513.121551 425.765801 513.121551 468.399896 551.146555 490.293081"></polygon>
            <polygon id="路径" fill="#E22574" points="588.019287 468.399896 589.17156 469.552169 589.17156 467.247623 588.019287 467.247623"></polygon>
            <polygon id="路径" fill="#F37132" points="538.471554 268.134874 538.471554 238.521461 513.121551 223.657141 487.771548 238.521461 487.771548 268.134874 513.121551 282.883966"></polygon>
            <polygon id="路径" fill="#552263" points="763.164761 655.068099 763.164761 625.109005 737.814758 611.281731 711.312483 625.109005 711.312483 655.068099 737.814758 670.047646"></polygon>
            <polygon id="路径" fill="#F37132" points="314.930619 655.068099 314.930619 625.109005 289.465389 611.281731 263.884932 625.109005 263.884932 655.068099 289.465389 670.047646"></polygon>
        </g>
    </g>
</svg>