<?xml version="1.0" encoding="UTF-8"?>
<svg width="1024px" height="1024px" viewBox="0 0 1024 1024" version="1.1" xmlns="http://www.w3.org/2000/svg" xmlns:xlink="http://www.w3.org/1999/xlink">
    <title>Openwrt</title>
    <defs>
        <path d="M204.906475,736 C184.330935,736 168.244604,742.556604 156.647482,756.044474 C145.42446,768.783019 140,785.268194 140,805.687332 C140,825.919137 145.42446,842.404313 156.647482,855.142857 C168.244604,868.256065 184.330935,875 204.906475,875 C225.294964,875 241.381295,868.443396 253.165468,855.330189 C264.388489,842.778976 270,826.293801 270,805.687332 C270,785.080863 264.388489,768.408356 253.165468,755.857143 C241.381295,742.556604 225.294964,736 204.906475,736 Z M205,756 C218.834783,756 229.491304,760.291045 236.969565,769.246269 C244.26087,778.201493 248,790.514925 248,806.186567 C248,821.858209 244.26087,833.985075 236.969565,842.753731 C229.491304,851.522388 218.834783,856 205,856 C191.165217,856 180.321739,851.335821 172.843478,842.19403 C165.552174,833.238806 162,821.298507 162,806.186567 C162,790.88806 165.552174,778.947761 172.843478,769.992537 C180.508696,760.664179 191.165217,756 205,756 Z M330.46,774.42 C318.22,774.42 308.86,778.56 302.38,786.84 L302.38,776.94 L283.3,776.94 L283.3,905.64 L303.82,905.64 L303.82,857.22 C311.38,867.3 320.74,872.52 331.54,872.52 C344.86,872.52 355.48,867.66 363.04,857.94 C370.06,848.94 373.66,837.6 373.66,823.92 C373.66,809.52 370.06,798 362.86,789 C354.94,779.28 344.14,774.42 330.46,774.42 Z M327.4,790.98 C336.4,790.98 343.06,794.22 347.38,800.7 C350.8,806.1 352.6,813.84 352.6,823.92 C352.6,834 350.62,841.74 346.84,847.14 C342.52,852.9 335.68,855.96 326.68,855.96 C320.02,855.96 314.62,853.26 310.3,847.86 C305.44,841.92 303.1,834 303.1,824.28 L303.1,822.84 C303.1,813.48 304.9,806.1 308.86,800.52 C313.18,794.04 319.3,790.98 327.4,790.98 Z M431.26,774.42 C417.4,774.42 406.42,779.1 398.5,788.64 C390.22,798 386.26,809.52 386.26,823.38 C386.26,838.86 390.58,850.92 399.22,859.74 C407.32,868.2 418.3,872.52 432.16,872.52 C444.58,872.52 454.84,868.92 463.12,861.9 C469.6,856.14 473.92,848.76 476.08,840.12 L455.56,840.12 C453.04,845.34 450.34,849.12 447.28,851.46 C443.32,854.34 438.28,855.78 431.98,855.78 C424.6,855.78 418.84,853.44 414.88,848.94 C410.92,844.44 408.58,837.78 407.86,829.14 L477.52,829.14 C477.52,812.4 473.74,799.26 466.36,789.9 C458.26,779.46 446.56,774.42 431.26,774.42 Z M431.8,791.16 C446.2,791.16 454.3,798.54 456.1,813.66 L408.22,813.66 C409.48,806.28 412,800.7 415.78,796.92 C419.74,792.96 424.96,791.16 431.8,791.16 Z M541.78,774.42 C536.2,774.42 531.16,775.5 526.48,777.84 C521.98,780 517.84,783.42 514.24,787.74 L514.24,776.94 L493.72,776.94 L493.72,870 L514.24,870 L514.24,814.02 C514.96,806.64 517.48,800.88 521.8,796.92 C525.58,793.32 530.08,791.52 535.12,791.52 C549.16,791.52 556.18,799.08 556.18,814.38 L556.18,870 L576.7,870 L576.7,812.58 C576.7,787.02 565,774.42 541.78,774.42 Z M588.4,741.48 L625.3,870 L647.8,870 L673,773.34 L673.72,773.34 L698.74,870 L721.06,870 L758.14,741.48 L734.38,741.48 L710.26,839.22 L709.54,839.22 L684.16,741.48 L662.38,741.48 L637,839.22 L636.28,839.22 L612.16,741.48 L588.4,741.48 Z M813.76,774.42 C808,774.42 803.14,776.04 799,779.46 C795.58,781.98 792.7,785.58 790.18,790.26 L790.18,776.94 L769.84,776.94 L769.84,870 L790.18,870 L790.18,820.68 C790.18,812.76 792.52,806.46 797.56,801.6 C801.88,797.28 806.74,795.3 812.14,795.3 C816.46,795.3 820.78,795.84 825.46,797.28 L825.46,776.76 C822.22,775.14 818.26,774.42 813.76,774.42 Z M866.32,746.88 L845.8,755.34 L845.8,776.94 L829.06,776.94 L829.06,793.86 L845.8,793.86 L845.8,846.42 C845.8,853.98 847.6,859.56 851.2,863.52 C854.98,867.84 860.92,870 869.02,870 L884.68,870 L884.68,853.08 L872.44,853.08 C870.28,853.08 868.84,852.54 867.76,851.46 C866.68,850.2 866.32,848.58 866.32,846.42 L866.32,793.86 L887.02,793.86 L887.02,776.94 L866.32,776.94 L866.32,746.88 Z" id="path-1"></path>
        <filter x="-0.6%" y="-2.7%" width="102.4%" height="110.6%" filterUnits="objectBoundingBox" id="filter-3">
            <feOffset dx="5" dy="5" in="SourceAlpha" result="shadowOffsetOuter1"></feOffset>
            <feGaussianBlur stdDeviation="2" in="shadowOffsetOuter1" result="shadowBlurOuter1"></feGaussianBlur>
            <feColorMatrix values="0 0 0 0 0   0 0 0 0 0   0 0 0 0 0  0 0 0 0.5 0" type="matrix" in="shadowBlurOuter1"></feColorMatrix>
        </filter>
        <path d="M511,485 C534.309665,485 553.205882,466.643675 553.205882,444 C553.205882,435.1804 550.339205,427.011218 545.461621,420.323776 C537.816366,409.841701 525.230665,403 511,403 C487.690335,403 468.794118,421.356325 468.794118,444 C468.794118,466.643675 487.690335,485 511,485 Z" id="path-4"></path>
        <filter x="-10.1%" y="-5.5%" width="120.1%" height="122.0%" filterUnits="objectBoundingBox" id="filter-5">
            <feOffset dx="0" dy="5" in="SourceAlpha" result="shadowOffsetOuter1"></feOffset>
            <feGaussianBlur stdDeviation="2" in="shadowOffsetOuter1" result="shadowBlurOuter1"></feGaussianBlur>
            <feColorMatrix values="0 0 0 0 0   0 0 0 0 0   0 0 0 0 0  0 0 0 0.5 0" type="matrix" in="shadowBlurOuter1"></feColorMatrix>
        </filter>
        <path d="M262,203 C331.333333,135 414.666667,101 512,101 C609.333333,101 692.333333,135 761,203 L719,244 C650.333333,188.666667 581.333333,161 512,161 C442.666667,161 373.333333,188.666667 304,244 L262,203 Z" id="path-6"></path>
        <filter x="-1.7%" y="-3.1%" width="103.4%" height="112.6%" filterUnits="objectBoundingBox" id="filter-7">
            <feOffset dx="0" dy="5" in="SourceAlpha" result="shadowOffsetOuter1"></feOffset>
            <feGaussianBlur stdDeviation="2" in="shadowOffsetOuter1" result="shadowBlurOuter1"></feGaussianBlur>
            <feColorMatrix values="0 0 0 0 0   0 0 0 0 0   0 0 0 0 0  0 0 0 0.5 0" type="matrix" in="shadowBlurOuter1"></feColorMatrix>
        </filter>
        <path d="M414.421797,350.047151 C441.473589,323.515586 473.987762,310.249804 511.964316,310.249804 C549.94087,310.249804 582.324986,323.515586 609.116664,350.047151 L566,391 C550.666667,376.333333 532.666667,369 512,369 C491.333333,369 472.666667,376.333333 456,391 L414.421797,350.047151 Z" id="path-8"></path>
        <filter x="-4.4%" y="-5.6%" width="108.7%" height="122.3%" filterUnits="objectBoundingBox" id="filter-9">
            <feOffset dx="0" dy="5" in="SourceAlpha" result="shadowOffsetOuter1"></feOffset>
            <feGaussianBlur stdDeviation="2" in="shadowOffsetOuter1" result="shadowBlurOuter1"></feGaussianBlur>
            <feColorMatrix values="0 0 0 0 0   0 0 0 0 0   0 0 0 0 0  0 0 0 0.5 0" type="matrix" in="shadowBlurOuter1"></feColorMatrix>
        </filter>
        <path d="M338.769231,276.829813 C386.769231,229.75289 444.461538,206.214429 511.846154,206.214429 C579.230769,206.214429 636.692308,229.75289 684.230769,276.829813 L642,318 C603.333333,282.666667 560,265 512,265 C464,265 420.333333,282.666667 381,318 L338.769231,276.829813 Z" id="path-10"></path>
        <filter x="-2.5%" y="-4.0%" width="104.9%" height="116.1%" filterUnits="objectBoundingBox" id="filter-11">
            <feOffset dx="0" dy="5" in="SourceAlpha" result="shadowOffsetOuter1"></feOffset>
            <feGaussianBlur stdDeviation="2" in="shadowOffsetOuter1" result="shadowBlurOuter1"></feGaussianBlur>
            <feColorMatrix values="0 0 0 0 0   0 0 0 0 0   0 0 0 0 0  0 0 0 0.5 0" type="matrix" in="shadowBlurOuter1"></feColorMatrix>
        </filter>
    </defs>
    <g id="ICON-新版方图标" stroke="none" stroke-width="1" fill="none" fill-rule="evenodd">
        <g id="Openwrt">
            <rect id="蒙版路径" fill="#EBEFF5" x="0" y="0" width="1024" height="1024"></rect>
            <g id="OpenWrt">
                <mask id="mask-2" fill="white">
                    <use xlink:href="#path-1"></use>
                </mask>
                <g id="形状结合" fill-rule="nonzero">
                    <use fill="black" fill-opacity="1" filter="url(#filter-3)" xlink:href="#path-1"></use>
                    <use fill="#FF0000" xlink:href="#path-1"></use>
                </g>
                <rect id="蒙版路径" fill="#002843" mask="url(#mask-2)" x="0" y="0" width="1024" height="1024"></rect>
            </g>
            <path d="M511,682 C646.309764,682 756,575.44377 756,444 C756,392.803297 739.359287,345.382194 711.045506,306.562405 C666.665737,245.715238 593.607276,206 511,206 C375.690236,206 266,312.55623 266,444 C266,575.44377 375.690236,682 511,682 Z" id="椭圆形" fill="#002843"></path>
            <path d="M511,626 C614.472172,626 698.352941,544.515824 698.352941,444 C698.352941,404.84958 685.62769,368.586384 663.975975,338.900662 C630.038505,292.370476 574.17027,262 511,262 C407.527828,262 323.647059,343.484176 323.647059,444 C323.647059,544.515824 407.527828,626 511,626 Z" id="椭圆形" fill="#EBEFF5"></path>
            <g id="椭圆形">
                <use fill="black" fill-opacity="1" filter="url(#filter-5)" xlink:href="#path-4"></use>
                <use fill="#00ACE2" fill-rule="evenodd" xlink:href="#path-4"></use>
            </g>
            <g id="矩形">
                <use fill="black" fill-opacity="1" filter="url(#filter-7)" xlink:href="#path-6"></use>
                <use fill="#00ACE2" fill-rule="evenodd" xlink:href="#path-6"></use>
            </g>
            <path d="M318.251788,297 C361.397033,235.666667 425.646437,205 511,205 C596.353563,205 660.64738,235.721675 703.881451,297.165025 L661,338 L362,338 L318.251788,297 Z" id="矩形" fill="#EBEFF5"></path>
            <g id="矩形">
                <use fill="black" fill-opacity="1" filter="url(#filter-9)" xlink:href="#path-8"></use>
                <use fill="#00ACE2" fill-rule="evenodd" xlink:href="#path-8"></use>
            </g>
            <g id="矩形">
                <use fill="black" fill-opacity="1" filter="url(#filter-11)" xlink:href="#path-10"></use>
                <use fill="#00ACE2" fill-rule="evenodd" xlink:href="#path-10"></use>
            </g>
        </g>
    </g>
</svg>