<svg xmlns="http://www.w3.org/2000/svg" xmlns:xlink="http://www.w3.org/1999/xlink" width="1024" height="1024"><defs><filter id="b" width="102.4%" height="110.6%" x="-.6%" y="-2.7%" filterUnits="objectBoundingBox"><feOffset dx="5" dy="5" in="SourceAlpha" result="shadowOffsetOuter1"/><feGaussianBlur in="shadowOffsetOuter1" result="shadowBlurOuter1" stdDeviation="2"/><feColorMatrix in="shadowBlurOuter1" values="0 0 0 0 0 0 0 0 0 0 0 0 0 0 0 0 0 0 0.5 0"/></filter><filter id="d" width="120.1%" height="122%" x="-10.1%" y="-5.5%" filterUnits="objectBoundingBox"><feOffset dy="5" in="SourceAlpha" result="shadowOffsetOuter1"/><feGaussianBlur in="shadowOffsetOuter1" result="shadowBlurOuter1" stdDeviation="2"/><feColorMatrix in="shadowBlurOuter1" values="0 0 0 0 0 0 0 0 0 0 0 0 0 0 0 0 0 0 0.5 0"/></filter><filter id="f" width="103.4%" height="112.6%" x="-1.7%" y="-3.1%" filterUnits="objectBoundingBox"><feOffset dy="5" in="SourceAlpha" result="shadowOffsetOuter1"/><feGaussianBlur in="shadowOffsetOuter1" result="shadowBlurOuter1" stdDeviation="2"/><feColorMatrix in="shadowBlurOuter1" values="0 0 0 0 0 0 0 0 0 0 0 0 0 0 0 0 0 0 0.5 0"/></filter><filter id="h" width="108.7%" height="122.3%" x="-4.4%" y="-5.6%" filterUnits="objectBoundingBox"><feOffset dy="5" in="SourceAlpha" result="shadowOffsetOuter1"/><feGaussianBlur in="shadowOffsetOuter1" result="shadowBlurOuter1" stdDeviation="2"/><feColorMatrix in="shadowBlurOuter1" values="0 0 0 0 0 0 0 0 0 0 0 0 0 0 0 0 0 0 0.5 0"/></filter><filter id="j" width="104.9%" height="116.1%" x="-2.5%" y="-4%" filterUnits="objectBoundingBox"><feOffset dy="5" in="SourceAlpha" result="shadowOffsetOuter1"/><feGaussianBlur in="shadowOffsetOuter1" result="shadowBlurOuter1" stdDeviation="2"/><feColorMatrix in="shadowBlurOuter1" values="0 0 0 0 0 0 0 0 0 0 0 0 0 0 0 0 0 0 0.5 0"/></filter><path id="a" d="M204.906 736c-20.575 0-36.661 6.557-48.259 20.044C145.424 768.783 140 785.268 140 805.687c0 20.232 5.424 36.717 16.647 49.456C168.245 868.256 184.331 875 204.907 875c20.388 0 36.474-6.557 48.258-19.67C264.388 842.78 270 826.294 270 805.687c0-20.606-5.612-37.279-16.835-49.83-11.784-13.3-27.87-19.857-48.259-19.857m.094 20c13.835 0 24.491 4.291 31.97 13.246 7.29 8.955 11.03 21.269 11.03 36.94 0 15.672-3.74 27.8-11.03 36.568C229.49 851.522 218.835 856 205 856c-13.835 0-24.678-4.664-32.157-13.806-7.29-8.955-10.843-20.895-10.843-36.007 0-15.299 3.552-27.24 10.843-36.194C180.51 760.664 191.165 756 205 756m125.46 18.42c-12.24 0-21.6 4.14-28.08 12.42v-9.9H283.3v128.7h20.52v-48.42c7.56 10.08 16.92 15.3 27.72 15.3 13.32 0 23.94-4.86 31.5-14.58 7.02-9 10.62-20.34 10.62-34.02 0-14.4-3.6-25.92-10.8-34.92-7.92-9.72-18.72-14.58-32.4-14.58m-3.06 16.56c9 0 15.66 3.24 19.98 9.72 3.42 5.4 5.22 13.14 5.22 23.22 0 10.08-1.98 17.82-5.76 23.22-4.32 5.76-11.16 8.82-20.16 8.82-6.66 0-12.06-2.7-16.38-8.1-4.86-5.94-7.2-13.86-7.2-23.58v-1.44c0-9.36 1.8-16.74 5.76-22.32 4.32-6.48 10.44-9.54 18.54-9.54m103.86-16.56c-13.86 0-24.84 4.68-32.76 14.22-8.28 9.36-12.24 20.88-12.24 34.74 0 15.48 4.32 27.54 12.96 36.36 8.1 8.46 19.08 12.78 32.94 12.78 12.42 0 22.68-3.6 30.96-10.62 6.48-5.76 10.8-13.14 12.96-21.78h-20.52c-2.52 5.22-5.22 9-8.28 11.34-3.96 2.88-9 4.32-15.3 4.32-7.38 0-13.14-2.34-17.1-6.84-3.96-4.5-6.3-11.16-7.02-19.8h69.66c0-16.74-3.78-29.88-11.16-39.24-8.1-10.44-19.8-15.48-35.1-15.48m.54 16.74c14.4 0 22.5 7.38 24.3 22.5h-47.88c1.26-7.38 3.78-12.96 7.56-16.74 3.96-3.96 9.18-5.76 16.02-5.76m109.98-16.74c-5.58 0-10.62 1.08-15.3 3.42-4.5 2.16-8.64 5.58-12.24 9.9v-10.8h-20.52V870h20.52v-55.98c.72-7.38 3.24-13.14 7.56-17.1 3.78-3.6 8.28-5.4 13.32-5.4 14.04 0 21.06 7.56 21.06 22.86V870h20.52v-57.42c0-25.56-11.7-38.16-34.92-38.16m46.62-32.94L625.3 870h22.5l25.2-96.66h.72L698.74 870h22.32l37.08-128.52h-23.76l-24.12 97.74h-.72l-25.38-97.74h-21.78L637 839.22h-.72l-24.12-97.74zm225.36 32.94c-5.76 0-10.62 1.62-14.76 5.04-3.42 2.52-6.3 6.12-8.82 10.8v-13.32h-20.34V870h20.34v-49.32c0-7.92 2.34-14.22 7.38-19.08 4.32-4.32 9.18-6.3 14.58-6.3 4.32 0 8.64.54 13.32 1.98v-20.52c-3.24-1.62-7.2-2.34-11.7-2.34m52.56-27.54-20.52 8.46v21.6h-16.74v16.92h16.74v52.56c0 7.56 1.8 13.14 5.4 17.1 3.78 4.32 9.72 6.48 17.82 6.48h15.66v-16.92h-12.24c-2.16 0-3.6-.54-4.68-1.62-1.08-1.26-1.44-2.88-1.44-5.04v-52.56h20.7v-16.92h-20.7z"/><path id="e" d="M511 485c23.31 0 42.206-18.356 42.206-41 0-8.82-2.867-16.989-7.744-23.676C537.816 409.842 525.23 403 511 403c-23.31 0-42.206 18.356-42.206 41S487.69 485 511 485"/><path id="g" d="M262 203c69.333-68 152.667-102 250-102s180.333 34 249 102l-42 41c-68.667-55.333-137.667-83-207-83s-138.667 27.667-208 83z"/><path id="i" d="M414.422 350.047c27.052-26.531 59.566-39.797 97.542-39.797 37.977 0 70.361 13.266 97.153 39.797L566 391c-15.333-14.667-33.333-22-54-22s-39.333 7.333-56 22l-41.578-40.953"/><path id="k" d="M338.77 276.83c48-47.077 105.692-70.616 173.076-70.616 67.385 0 124.846 23.539 172.385 70.616L642 318c-38.667-35.333-82-53-130-53s-91.667 17.667-131 53l-42.23-41.17"/></defs><g fill="none" fill-rule="evenodd"><path fill="#EBEFF5" d="M0 0h1024v1024H0z"/><mask id="c" fill="#fff"><use xlink:href="#a"/></mask><g fill-rule="nonzero"><use xlink:href="#a" fill="#000" filter="url(#b)"/><use xlink:href="#a" fill="red"/></g><path fill="#002843" d="M0 0h1024v1024H0z" mask="url(#c)"/><path fill="#002843" d="M511 682c135.31 0 245-106.556 245-238 0-51.197-16.64-98.618-44.954-137.438C666.666 245.715 593.607 206 511 206c-135.31 0-245 106.556-245 238 0 131.444 109.69 238 245 238"/><path fill="#EBEFF5" d="M511 626c103.472 0 187.353-81.484 187.353-182 0-39.15-12.725-75.414-34.377-105.1C630.039 292.37 574.17 262 511 262c-103.472 0-187.353 81.484-187.353 182S407.527 626 511 626"/><use xlink:href="#e" fill="#000" filter="url(#d)"/><use xlink:href="#e" fill="#00ACE2"/><use xlink:href="#g" fill="#000" filter="url(#f)"/><use xlink:href="#g" fill="#00ACE2"/><path fill="#EBEFF5" d="M318.252 297c43.145-61.333 107.394-92 192.748-92 85.354 0 149.647 30.722 192.881 92.165L661 338H362l-43.748-41"/><use xlink:href="#i" fill="#000" filter="url(#h)"/><use xlink:href="#i" fill="#00ACE2"/><use xlink:href="#k" fill="#000" filter="url(#j)"/><use xlink:href="#k" fill="#00ACE2"/></g></svg>