<svg xmlns="http://www.w3.org/2000/svg" width="1024" height="1024"><g fill="none" fill-rule="evenodd"><path fill="#FFF" d="M0 0h1024v1024H0z"/><g fill="#C74634" fill-rule="nonzero"><path d="M233.12 489.2c1.12 21.44-2.56 43.56-11.04 66.36-8.48 22.8-17.52 35.64-27.12 38.52-3.84 1.28-7.6 1.76-11.28 1.44-3.84-.48-7.6-.96-11.28-1.44-32.96-3.84-51.12-38.8-54.48-104.88-.96-17.92 1.92-37.12 8.64-57.6 6.24-19.04 12.72-30.8 19.44-35.28 1.6-1.12 3.36-1.68 5.28-1.68 1.44 0 3.68.44 6.72 1.32 3.04.88 5.36 1.32 6.96 1.32 1.92 0 5.4-.44 10.44-1.32 5.04-.88 8.76-1.32 11.16-1.32 2.24 0 4.08.32 5.52.96 24.8 10.08 38.48 41.28 41.04 93.6m-32.4 0c-1.6-20-3.76-35.04-6.48-45.12-4.48-16.96-11.12-25.44-19.92-25.44-2.4 0-4.92.64-7.56 1.92-2.64 1.28-6.12 9.52-10.44 24.72-4.48 16.64-6.72 31.28-6.72 43.92 0 16.48 2.88 33.8 8.64 51.96 5.76 18.16 11.28 27.24 16.56 27.24 4.96 0 10.48-8.16 16.56-24.48 6.4-16.96 9.6-33.04 9.6-48.24 0-2.24-.08-4.4-.24-6.48M392.16 574.16c.16.96.24 1.84.24 2.64 0 4.8-2.8 8.84-8.4 12.12-5.6 3.28-11.44 4.92-17.52 4.92-3.68 0-6.64-.72-8.88-2.16-1.6-.96-3-2.84-4.2-5.64-1.2-2.8-2.52-4.68-3.96-5.64l-53.04-35.52 2.16 22.08c.16 1.12 1.4 3.44 3.72 6.96 2.32 3.52 3.48 6.48 3.48 8.88 0 3.52-2.24 6.8-6.72 9.84-2.72 1.92-6.16 2.88-10.32 2.88-5.92 0-11.44-1.6-16.56-4.8-5.6-3.2-8.96-7.28-10.08-12.24-.16-.96-.24-1.76-.24-2.4 0-2.24 1.08-4.2 3.24-5.88 2.16-1.68 3.24-3.24 3.24-4.68l-7.68-136.8c-.16-2.08-1.04-4.84-2.64-8.28-1.6-3.44-2.4-5.96-2.4-7.56 0-4.16 2.72-7.52 8.16-10.08 4.48-2.24 9.04-3.36 13.68-3.36 3.04 0 5.68.44 7.92 1.32 2.24.88 3.76 2.24 4.56 4.08.8 1.84 1.76 2.76 2.88 2.76.16.16 5.04-1.6 14.64-5.28 11.2-4.16 21.04-6.24 29.52-6.24 12.32 0 22.24 4.32 29.76 12.96 2.08 2.4 3.12 5.76 3.12 10.08 0 11.68-6.72 28.16-20.16 49.44-12.8 20-26 36-39.6 48l61.92 43.2c.16.16 4.16 2.08 12 5.76 4.48 2.08 7.2 4.96 8.16 8.64m-64.32-149.04c-3.52 0-9.12 3.36-16.8 10.08-1.6 1.28-7.52 6.8-17.76 16.56l-.48 42.96c9.92-10.88 18.88-23 26.88-36.36s12-22.92 12-28.68c0-3.04-1.28-4.56-3.84-4.56M549.04 541.04c-1.12 2.08-3.6 3.36-7.44 3.84-.32 0-3.76.16-10.32.48 1.12 7.2 5.28 16.16 12.48 26.88 4.16 3.04 6.24 7.04 6.24 12 0 7.84-4.8 11.76-14.4 11.76-9.12 0-15.36-2.32-18.72-6.96-1.12-1.6-1.84-3.76-2.16-6.48 0-1.76-.08-3.6-.24-5.52-1.44-1.44-5.76-10.72-12.96-27.84-13.12 1.92-29.28 4.64-48.48 8.16-1.92 4.64-4 11.36-6.24 20.16.32 1.6.48 3.12.48 4.56 0 4.32-1.44 7.64-4.32 9.96-2.88 2.32-6.32 3.48-10.32 3.48-4.48 0-8.64-1.68-12.48-5.04-3.84-3.36-5.76-7.28-5.76-11.76 0-4 1.84-7.6 5.52-10.8 12-60.96 26.56-111.36 43.68-151.2a34.98 34.98 0 0 1-.48-5.76c0-8 2.72-13.28 8.16-15.84 2.24-.96 5.12-1.44 8.64-1.44 6.72 0 12.32 1.04 16.8 3.12 5.76 2.88 8.64 7.2 8.64 12.96 0 5.28-1.44 10-4.32 14.16 3.04 27.2 9.6 58.56 19.68 94.08.96-.16 4.24-.96 9.84-2.4 3.36-.96 5.92-1.44 7.68-1.44 2.08 0 3.76.48 5.04 1.44 5.6 4.32 8.4 9.6 8.4 15.84 0 3.36-.88 6.56-2.64 9.6m-57.6-18.24c-2.72-10.08-7.04-29.44-12.96-58.08-11.36 24.8-18.08 46.08-20.16 63.84l33.12-5.76M673.52 539.36c-15.2 37.92-30.4 56.96-45.6 57.122-18.4.158-31.84-9.362-40.32-28.562-6.56-14.72-9.92-34-10.08-57.84-.16-26.88 3.36-51.36 10.56-73.44 8.32-25.76 19.6-39.44 33.84-41.04 2.08-.16 4.08-.24 6-.24 13.28 0 23.52 5.92 30.72 17.76 5.28 8.96 9.76 23.2 13.44 42.72 2.72 7.84 4.08 12.64 4.08 14.4 0 5.28-3.28 9.36-9.84 12.24-1.44.64-3.12.96-5.04.96-4.64 0-9.76-1.52-15.36-4.56-6.56-3.52-9.84-7.36-9.84-11.52 0-.64 1.12-3.76 3.36-9.36-.32-7.04-1.6-13.72-3.84-20.04-2.24-6.32-4.8-9.8-7.68-10.44-4.48-1.12-8.4 7.76-11.76 26.64-2.88 15.68-4.64 32.96-5.28 51.84-.48 14.24.32 27.44 2.4 39.6 2.4 13.92 6 21.36 10.8 22.32 2.88.48 6.32-3.12 10.32-10.8 3.84-7.04 7.04-15.36 9.6-24.96-.32-1.6-.48-3.12-.48-4.56 0-9.44 5.76-14.16 17.28-14.16 2.56 0 5.12.24 7.68.72 7.84 1.6 11.76 5.52 11.76 11.76 0 5.12-2.24 9.6-6.72 13.44M792 553.04c.96 1.92 1.44 4.08 1.44 6.48 0 4-1.24 7.84-3.72 11.52-2.48 3.68-5.36 6.12-8.64 7.32-3.28 1.2-7.96 1.8-14.04 1.8-6.08 0-10.48.4-13.2 1.2-2.72.8-5.84 3.28-9.36 7.44-3.04 3.36-8.32 5.6-15.84 6.72-4.64.64-9.36-.96-14.16-4.8-4.8-3.84-8.08-8.56-9.84-14.16-.32-1.12-.48-2.16-.48-3.12 0-2.08 1.16-4.4 3.48-6.96 2.32-2.56 3.4-4.8 3.24-6.72L700.8 414.32c0-.64-.84-2.12-2.52-4.44-1.68-2.32-2.52-4.28-2.52-5.88 0-2.24 1.2-4.4 3.6-6.48 3.36-3.04 8.16-4.56 14.4-4.56 5.28 0 10.36 1.12 15.24 3.36 4.88 2.24 7.96 4.88 9.24 7.92.8 1.76 1.2 3.28 1.2 4.56 0 1.44-.72 2.88-2.16 4.32-1.44 1.44-2.08 2.8-1.92 4.08L744 549.68l14.4-5.76c3.04-1.44 6.12-2.84 9.24-4.2 3.12-1.36 5.72-2.04 7.8-2.04 5.76 0 11.28 5.12 16.56 15.36M899.92 421.52c-3.68 3.04-8.4 4.56-14.16 4.56-2.4 0-5.2-.24-8.4-.72-4.64 1.44-8.8 2.88-12.48 4.32-8.96 3.36-14.88 6.24-17.76 8.64-.96 16.64-.96 35.68 0 57.12.96-.64 3.36-1.28 7.2-1.92 1.92-3.36 5.2-5.04 9.84-5.04s10.04 2.24 16.2 6.72c6.16 4.48 9.24 8.88 9.24 13.2 0 1.12-.24 2.24-.72 3.36-1.92 4.8-4.88 7.84-8.88 9.12-2.4.8-5.92 1-10.56.6-4.64-.4-7.6-.28-8.88.36-3.68 1.76-8.16 3.84-13.44 6.24 0 14.4.48 23.68 1.44 27.84 6.72-1.6 12.32-3.52 16.8-5.76.8-1.12 1.6-2.16 2.4-3.12 1.6-1.76 4.48-2.48 8.64-2.16 4.48.32 9.12 2.88 13.92 7.68 4.8 4.8 7.2 9.68 7.2 14.64 0 4.32-1.84 7.52-5.52 9.6-3.68 2.08-9.84 2.8-18.48 2.16l-22.56 11.28c-.96.48-3.04 2.08-6.24 4.8-2.4 2.08-4.56 3.12-6.48 3.12-.64 0-1.36-.08-2.16-.24-8.48-2.56-16.16-9.2-23.04-19.92-.48-.8-.72-1.76-.72-2.88 0-.48.88-3.68 2.64-9.6-1.76-46.56-2.08-96.16-.96-148.8-1.12-1.6-1.68-3.2-1.68-4.8 0-5.28 4.88-8.64 14.64-10.08 2.08-.32 4.72.24 7.92 1.68 2.08 1.12 4.08 2.16 6 3.12l28.8-9.12c.64-.16 2.48-1.12 5.52-2.88 2.08-1.28 4.48-1.92 7.2-1.92 1.28 0 2.8.16 4.56.48 3.52.64 7 3.4 10.44 8.28 3.44 4.88 5.16 9.48 5.16 13.8 0 2.72-.88 4.8-2.64 6.24"/></g></g></svg>