<svg xmlns="http://www.w3.org/2000/svg" width="1024" height="1024"><g fill="none" fill-rule="evenodd"><path fill="#FFF" d="M0 0h1024v1024H0z"/><path fill="#C74634" d="M509 753h160.25C815 753 893 599.036 893 512c0-98.859-75.987-241-223.75-241H347.5C202.5 271 131 413.62 131 512c0 100.5 71.5 241 216.5 241z"/><path fill="#FFF" d="M508.748 670h120.293C738.449 670 797 569.06 797 512c0-64.812-57.04-158-167.96-158H387.519c-96.836 0-159.768 96.45-159.768 158 0 54.926 50.922 158 159.767 158h121.231"/></g></svg>