<?xml version="1.0" encoding="UTF-8"?>
<svg width="1024px" height="1024px" viewBox="0 0 1024 1024" version="1.1" xmlns="http://www.w3.org/2000/svg" xmlns:xlink="http://www.w3.org/1999/xlink">
    <title>Piggo</title>
    <defs>
        <linearGradient x1="50.6608793%" y1="35.8620862%" x2="50%" y2="70.3265139%" id="linearGradient-1">
            <stop stop-color="#FDD8D0" offset="0%"></stop>
            <stop stop-color="#F8BDB0" offset="100%"></stop>
        </linearGradient>
        <path d="M5.49593189,103.547499 L238.467097,103.547499 C233.401956,110.13204 228.927277,114.996871 225.043057,118.141993 C221.158838,121.287116 215.767259,124.411171 208.86832,127.51416 L34.8536504,127.51416 C28.6580857,126.099596 22.5999012,122.97554 16.6790969,118.141993 C10.7582925,113.308446 7.03057085,108.443615 5.49593189,103.547499 Z" id="path-2"></path>
        <filter x="-2.1%" y="-20.9%" width="106.0%" height="158.4%" filterUnits="objectBoundingBox" id="filter-3">
            <feOffset dx="2" dy="2" in="SourceAlpha" result="shadowOffsetOuter1"></feOffset>
            <feGaussianBlur stdDeviation="2" in="shadowOffsetOuter1" result="shadowBlurOuter1"></feGaussianBlur>
            <feColorMatrix values="0 0 0 0 0.732053895   0 0 0 0 0.321696397   0 0 0 0 0.4110095  0 0 0 0.75237653 0" type="matrix" in="shadowBlurOuter1"></feColorMatrix>
        </filter>
        <linearGradient x1="50%" y1="0%" x2="50%" y2="100%" id="linearGradient-4">
            <stop stop-color="#FEE2D8" offset="0%"></stop>
            <stop stop-color="#FCB0A9" offset="100%"></stop>
        </linearGradient>
        <linearGradient x1="50%" y1="5.66442195e-12%" x2="50%" y2="100%" id="linearGradient-5">
            <stop stop-color="#A9DBA1" offset="0%"></stop>
            <stop stop-color="#A7D99F" offset="18.2834826%"></stop>
            <stop stop-color="#4A8A57" offset="100%"></stop>
        </linearGradient>
        <linearGradient x1="94.2582247%" y1="36.6570924%" x2="16.0206529%" y2="59.808826%" id="linearGradient-6">
            <stop stop-color="#C6EAAE" offset="0%"></stop>
            <stop stop-color="#66949B" offset="100%"></stop>
        </linearGradient>
        <linearGradient x1="94.2582247%" y1="35.1373483%" x2="16.0206529%" y2="60.9260416%" id="linearGradient-7">
            <stop stop-color="#C6EAAE" offset="0%"></stop>
            <stop stop-color="#66949B" offset="100%"></stop>
        </linearGradient>
    </defs>
    <g id="ICON-新版方图标" stroke="none" stroke-width="1" fill="none" fill-rule="evenodd">
        <g id="Piggo">
            <rect id="蒙版路径" fill="#FFFFFF" x="0" y="0" width="1024" height="1024"></rect>
            <g id="编组-28" transform="translate(112, 112)">
                <circle id="椭圆形" fill="#CE610F" cx="400" cy="400" r="400"></circle>
                <g id="身体" transform="translate(84.524, 184.573)">
                    <path d="M315.476004,215.426997 C485.269332,215.426997 621.640535,279.185127 618.957231,262.848254 C594.991294,116.935435 467.621929,0 314.92504,0 C159.890047,0 31.6578942,114.756603 10.5374566,263.960936 C8.52692674,278.16423 145.682676,215.426997 315.476004,215.426997 Z" id="椭圆形" fill="#FFEEEA"></path>
                    <path d="M314.867978,615.426997 C352.182445,614.991307 427.900216,614.876033 525.11031,556.160574 C540.496941,546.632837 564.115359,531.106771 592.700538,504.059066 C607.536852,489.158394 619.107646,476.394974 627.41292,465.768805 C622.418201,331.084531 619.599638,263.444347 618.957231,262.848254 C575.169765,222.217596 470.244248,215.426997 314.450054,215.426997 C158.65586,215.426997 63.4207039,222.217596 10.7604146,262.848254 C7.93951547,268.684414 4.35271059,334.842718 0,461.323167 C16.2179377,482.591649 34.0214383,501.399207 53.4105018,517.745841 C70.5326293,532.581224 106.473081,562.402863 161.127322,584.613545 C217.297197,612.70241 297.411193,615.869483 314.867978,615.426997 Z" id="椭圆形" fill="url(#linearGradient-1)"></path>
                </g>
                <g id="腮红" transform="translate(64.6709, 427.5482)">
                    <circle id="椭圆形" fill="#FDA9A6" cx="585.466877" cy="82.6446281" r="82.6446281"></circle>
                    <circle id="椭圆形" fill="#FDA9A6" cx="85.1913947" cy="82.6446281" r="82.6446281"></circle>
                    <path d="M0.915894348,23.0787153 L30.6135461,19.8730477 C28.5241252,39.7457109 27.0250286,56.9964764 26.1162564,71.6253444 C25.2074842,86.2542123 24.1333084,108.13246 22.8937291,137.260088 L0,136.381438 L0.915894348,23.0787153 Z" id="矩形" fill="#CE610F"></path>
                    <path d="M639.660802,23.0787153 L669.732003,19.4499989 C668.388181,39.3263728 667.44303,56.5881705 666.896551,71.2353918 C666.350073,85.8826132 665.49356,109.048308 664.327012,140.732477 L638.744907,136.381438 L639.660802,23.0787153 Z" id="矩形" fill="#CE610F" transform="translate(654.2385, 80.0912) scale(-1, 1) translate(-654.2385, -80.0912)"></path>
                </g>
                <g id="猪鼻子" transform="translate(275.9802, 402.2023)">
                    <path d="M208.86832,127.51416 C166.849924,128.1818 100.197384,127.175686 34.8536504,127.51416 C5.77093085,119.724141 0,92.0125607 0,81.4399082 C0,71.6106142 5.13495063,44.2503982 34.8536504,25.345894 C48.064165,16.9424904 84.6918253,0.161091824 122.250291,0.00154138267 C141.436134,-0.0800989461 180.518133,6.24993962 208.86832,25.345894 C220.152457,32.946598 245.990322,59.8817237 245.706944,81.4399082 C245.367463,107.266131 216.997688,125.522729 208.86832,127.51416 Z" id="矩形" fill="#FD7C9A"></path>
                    <g id="矩形">
                        <use fill="black" fill-opacity="1" filter="url(#filter-3)" xlink:href="#path-2"></use>
                        <use fill="#FD5378" fill-rule="evenodd" xlink:href="#path-2"></use>
                    </g>
                    <g id="左鼻孔" transform="translate(60.5977, 20.9382)">
                        <ellipse id="椭圆形2" fill="#B91B3F" cx="17.1411081" cy="30.8539945" rx="17.1411081" ry="30.8539945"></ellipse>
                        <ellipse id="椭圆形1" fill="#FC5478" cx="17.1411081" cy="30.8539945" rx="11.0192837" ry="19.8347107"></ellipse>
                    </g>
                    <g id="右鼻孔" transform="translate(153.1597, 23.142)">
                        <ellipse id="椭圆形2" fill="#B91B3F" cx="17.1411081" cy="30.8539945" rx="17.1411081" ry="30.8539945"></ellipse>
                        <ellipse id="椭圆形1" fill="#FC5478" cx="17.1411081" cy="30.8539945" rx="11.0192837" ry="19.8347107"></ellipse>
                    </g>
                </g>
                <g id="舌头" transform="translate(341.3745, 529.7165)">
                    <path d="M115.925807,56.8715252 C119.121128,70.7173495 120.231458,85.3895183 119.256797,100.888032 L0.240353758,100.888032 C-0.643642201,88.4974219 0.91079528,73.8252531 4.9036662,56.8715252 C8.89653712,39.9177973 15.6079633,20.9606222 25.0379446,0 C36.6370599,7.05771801 48.196581,10.6347583 59.716508,10.7311209 C71.2364349,10.8274834 82.712356,7.25044314 94.1442714,0 C105.469974,24.0685258 112.730486,43.0257009 115.925807,56.8715252 Z" id="三角形" fill="#C81442" transform="translate(59.7993, 50.444) scale(1, -1) translate(-59.7993, -50.444)"></path>
                    <path d="M56.0530727,91.3814779 C56.8476211,90.5650998 57.7051074,90.1569107 58.6255316,90.1569107 C59.5459558,90.1569107 60.4886915,90.5650998 61.4537387,91.3814779 C70.8179309,102.567533 77.0740296,110.435871 80.2220347,114.986493 C85.5024745,122.619671 90.14322,130.797745 94.1442714,139.520716 C82.7426719,146.674797 71.2667507,150.251837 59.716508,150.251837 C48.1662652,150.251837 36.6067441,146.674797 25.0379446,139.520716 C27.7009323,132.321059 32.0273451,124.142985 38.0171832,114.986493 C44.0070212,105.830001 50.0189844,97.9616627 56.0530727,91.3814779 Z" id="三角形" fill="#FE7C98" transform="translate(59.5911, 120.2044) scale(1, -1) translate(-59.5911, -120.2044)"></path>
                </g>
                <g id="眼镜" transform="translate(137.9718, 277.7044)">
                    <path d="M260.379133,107.691783 L263.19456,107.691783 C264.851414,107.691783 266.19456,109.034928 266.19456,110.691783 L266.19456,168.603628 C266.19456,170.260483 264.851414,171.603628 263.19456,171.603628 L260.379133,171.603628 C258.722278,171.603628 257.379133,170.260483 257.379133,168.603628 L257.379133,110.691783 C257.379133,109.034928 258.722278,107.691783 260.379133,107.691783 Z" id="矩形" fill="#FFFFFF" transform="translate(261.7868, 139.6477) rotate(-90) translate(-261.7868, -139.6477)"></path>
                    <g id="眼镜左" transform="translate(262.259, 0)">
                        <path d="M200.687513,2 C211.958449,2 213.998862,3.27424858 221.296467,7.84749848 C222.222477,8.42780831 223.228637,9.05832456 224.341455,9.7427724 C231.260615,13.9984577 236.275461,19.6024916 239.363971,26.5743694 L260.028201,26.5743694 L260.028201,48.6169969 L238.447966,48.6169969 C241.972958,86.3190154 242.2424,108.793359 238.838554,115.884596 C235.576347,122.680759 222.419378,127.828294 200.31078,132.068724 C117.632323,154.255231 65.2681397,166.492296 43.0724256,168.782734 C32.0584631,169.919296 23.6922921,168.753517 17.4972597,166.591335 C8.54642036,163.467326 4.21752361,158.289499 3.2535085,155.491518 C0.0640508193,146.234355 2.61841103,115.171682 11.9841649,87.7116885 C18.7750271,67.8011685 31.2160674,49.8584892 34.5980953,46.3163968 C39.9279396,40.7343017 48.781467,35.2136622 61.1103738,29.6875582 C88.3902201,19.7909169 110.160108,13.2246321 126.423203,10.0010393 C135.454295,8.21093936 146.16273,6.65142128 156.736962,5.39607431 L158.456543,5.19444962 C159.717344,5.04845559 160.974879,4.90684606 162.226065,4.76975222 L163.724244,4.60741554 C179.169862,2.9525078 193.449769,2 200.687513,2 Z" id="矩形" stroke="#190209" stroke-width="4" fill="#572C36" transform="translate(131.0141, 85.6127) scale(-1, 1) translate(-131.0141, -85.6127)"></path>
                        <path d="M73.051309,52.5953638 L75.866736,52.5953638 C77.5235903,52.5953638 78.866736,53.9385096 78.866736,55.5953638 L78.866736,98.0802123 C78.866736,99.7370666 77.5235903,101.080212 75.866736,101.080212 L73.051309,101.080212 C71.3944548,101.080212 70.051309,99.7370666 70.051309,98.0802123 L70.051309,55.5953638 C70.051309,53.9385096 71.3944548,52.5953638 73.051309,52.5953638 Z" id="矩形" fill="#FFFFFF" transform="translate(74.459, 76.8378) rotate(-63) translate(-74.459, -76.8378)"></path>
                        <path d="M53.2165983,76.8377881 L56.0320253,76.8377881 C57.6888795,76.8377881 59.0320253,78.1809338 59.0320253,79.8377881 L59.0320253,122.322637 C59.0320253,123.979491 57.6888795,125.322637 56.0320253,125.322637 L53.2165983,125.322637 C51.559744,125.322637 50.2165983,123.979491 50.2165983,122.322637 L50.2165983,79.8377881 C50.2165983,78.1809338 51.559744,76.8377881 53.2165983,76.8377881 Z" id="矩形" fill="#FFFFFF" transform="translate(54.6243, 101.0802) rotate(-63) translate(-54.6243, -101.0802)"></path>
                    </g>
                    <g id="眼镜左">
                        <path d="M200.687513,2 C211.958449,2 213.998862,3.27424858 221.296467,7.84749848 C222.222477,8.42780831 223.228637,9.05832456 224.341455,9.7427724 C231.260615,13.9984577 236.275461,19.6024916 239.363971,26.5743694 L260.028201,26.5743694 L260.028201,48.6169969 L238.447966,48.6169969 C241.972958,86.3190154 242.2424,108.793359 238.838554,115.884596 C235.576347,122.680759 222.419378,127.828294 200.31078,132.068724 C117.632323,154.255231 65.2681397,166.492296 43.0724256,168.782734 C32.0584631,169.919296 23.6922921,168.753517 17.4972597,166.591335 C8.54642036,163.467326 4.21752361,158.289499 3.2535085,155.491518 C0.0640508193,146.234355 2.61841103,115.171682 11.9841649,87.7116885 C18.7750271,67.8011685 31.2160674,49.8584892 34.5980953,46.3163968 C39.9279396,40.7343017 48.781467,35.2136622 61.1103738,29.6875582 C88.3902201,19.7909169 110.160108,13.2246321 126.423203,10.0010393 C135.454295,8.21093936 146.16273,6.65142128 156.736962,5.39607431 L158.456543,5.19444962 C159.717344,5.04845559 160.974879,4.90684606 162.226065,4.76975222 L163.724244,4.60741554 C179.169862,2.9525078 193.449769,2 200.687513,2 Z" id="矩形" stroke="#190209" stroke-width="4" fill="#572C36"></path>
                        <path d="M66.4397388,50.3915071 L69.2551658,50.3915071 C70.91202,50.3915071 72.2551658,51.7346528 72.2551658,53.3915071 L72.2551658,95.8763556 C72.2551658,97.5332098 70.91202,98.8763556 69.2551658,98.8763556 L66.4397388,98.8763556 C64.7828845,98.8763556 63.4397388,97.5332098 63.4397388,95.8763556 L63.4397388,53.3915071 C63.4397388,51.7346528 64.7828845,50.3915071 66.4397388,50.3915071 Z" id="矩形" fill="#FFFFFF" transform="translate(67.8475, 74.6339) rotate(-63) translate(-67.8475, -74.6339)"></path>
                        <path d="M46.605028,74.6339313 L49.420455,74.6339313 C51.0773093,74.6339313 52.420455,75.9770771 52.420455,77.6339313 L52.420455,120.11878 C52.420455,121.775634 51.0773093,123.11878 49.420455,123.11878 L46.605028,123.11878 C44.9481738,123.11878 43.605028,121.775634 43.605028,120.11878 L43.605028,77.6339313 C43.605028,75.9770771 44.9481738,74.6339313 46.605028,74.6339313 Z" id="矩形" fill="#FFFFFF" transform="translate(48.0127, 98.8764) rotate(-63) translate(-48.0127, -98.8764)"></path>
                    </g>
                    <polygon id="矩形" fill="#572C36" points="254.314702 28.9810833 269.741699 28.9810833 269.741699 46.2070371 254.314702 46.2070371"></polygon>
                </g>
                <g id="耳朵右" transform="translate(511.9593, 97.5991)">
                    <path d="M45.4878821,0 C49.3580705,0 61.5222759,6.43970332 72.4301499,14.5975394 C93.7800659,30.5648228 120.194109,62.876537 134.46567,102.148737 C148.841027,141.706563 155.813925,189.981249 155.384361,246.972793 C137.816139,216.565625 117.428277,191.077614 94.2207747,170.508761 C71.0132722,149.939908 39.6063473,129.522103 0,109.255344 C11.6432973,59.238599 20.3932792,28.8212453 26.2499458,18.0032833 C33.1345618,5.28657611 44.5739592,0 45.4878821,0 Z" id="矩形" fill="url(#linearGradient-4)"></path>
                    <path d="M57.1622011,69.3291218 C59.1639513,69.3291218 66.8352018,73.6107375 74.3361436,81.7085428 C82.0047381,89.9873413 89.4979226,102.409716 93.5569779,115.329706 C98.9098916,132.368052 101.295187,152.117234 100.712864,174.577251 L100.616284,176.386616 C92.5441552,168.697714 85.5765666,162.693192 79.7135182,158.37305 C60.0985645,143.919921 38.8969865,130.892467 38.9049899,130.813823 C41.2329143,107.968511 43.3287411,93.355218 45.1926614,86.9739455 C48.6928673,74.990725 55.6693153,69.3291218 57.1622011,69.3291218 Z" id="矩形" fill="#FD725F"></path>
                </g>
                <g id="耳朵左" transform="translate(207.2917, 221.0855) scale(-1, 1) translate(-207.2917, -221.0855)translate(129.5902, 97.5991)">
                    <path d="M45.4878821,0 C49.3580705,0 61.5222759,6.43970332 72.4301499,14.5975394 C93.7800659,30.5648228 120.194109,62.876537 134.46567,102.148737 C148.841027,141.706563 155.813925,189.981249 155.384361,246.972793 C137.816139,216.565625 117.428277,191.077614 94.2207747,170.508761 C71.0132722,149.939908 39.6063473,129.522103 0,109.255344 C11.6432973,59.238599 20.3932792,28.8212453 26.2499458,18.0032833 C33.1345618,5.28657611 44.5739592,0 45.4878821,0 Z" id="矩形" fill="url(#linearGradient-4)"></path>
                    <path d="M57.1622011,69.3291218 C59.1639513,69.3291218 66.8352018,73.6107375 74.3361436,81.7085428 C82.0047381,89.9873413 89.4979226,102.409716 93.5569779,115.329706 C98.9098916,132.368052 101.295187,152.117234 100.712864,174.577251 L100.616284,176.386616 C92.5441552,168.697714 85.5765666,162.693192 79.7135182,158.37305 C60.0985645,143.919921 38.8969865,130.892467 38.9049899,130.813823 C41.2329143,107.968511 43.3287411,93.355218 45.1926614,86.9739455 C48.6928673,74.990725 55.6693153,69.3291218 57.1622011,69.3291218 Z" id="矩形" fill="#FD725F"></path>
                </g>
                <g id="领带" transform="translate(246.0945, 718.5916)">
                    <path d="M183.659163,80.5186539 C171.313174,81.4159274 160.919861,81.3877794 151.794707,81.4083884 C140.04624,81.4349222 131.094379,80.8045314 123.05152,80.3064601 C106.968892,74.9427006 105.474247,56.4398896 105.474247,52.7582507 C105.474247,48.9193438 105.565547,30.877848 123.05152,25.2100413 C130.367787,22.838587 162.707694,17.2456769 183.050919,25.2100413 C189.979003,27.9223835 199.906011,40.2173907 199.631133,52.7582507 C199.358962,65.1756447 189.556501,78.053148 183.659163,80.5186539 Z" id="矩形" fill="url(#linearGradient-5)"></path>
                    <path d="M191.401013,31.8216116 C229.409997,15.0149174 256.933198,6.61157025 273.970619,6.61157025 C291.008039,6.61157025 300.573115,15.0149174 302.665846,31.8216116 C303.924859,44.0314302 302.638378,51.6141709 298.806401,54.5698338 C282.12309,61.2514871 260.676039,69.3543974 227.364331,75.3648937 C218.691989,76.9296615 204.123599,78.6475815 183.659163,80.5186539 C186.388688,78.6266771 188.223233,77.1696458 189.1628,76.14756 C191.44225,73.6679118 193.164228,71.2258964 194.160821,69.6870507 C198.17469,63.3114464 199.498534,55.9950764 199.636721,52.7582507 C199.766985,49.7069808 199.118323,46.1463178 197.217708,41.5072212 C196.319964,39.5019992 194.381066,36.2734627 191.401013,31.8216116 Z" id="矩形" fill="url(#linearGradient-6)"></path>
                    <path d="M93.1587632,0 C110.196184,0 119.761259,8.40334711 121.85399,25.2100413 C123.979528,40.4698753 123.126308,49.5776237 119.294332,52.5332865 C104.331424,60.9453634 78.7071997,69.1764383 41.837533,75.2776627 C35.173179,76.3804857 25.1463005,77.7509803 11.4814954,79.149772 C7.79294231,79.5300214 3.96577718,79.9131984 0,80.2993031 C3.49730096,78.9553688 6.77786937,76.7721269 9.84170523,73.7495773 C14.2064968,68.868324 15.5275401,63.7936446 16.5058731,60.4735143 C17.9863265,54.6266945 17.9086771,48.1106071 15.9184474,41.5590698 C14.7437726,38.1672324 12.7982052,34.1812034 9.39638022,30.7105531 C9.15555337,29.8348964 67.6026325,0 93.1587632,0 Z" id="矩形" fill="url(#linearGradient-7)" transform="translate(61.4958, 40.1497) scale(-1, 1) translate(-61.4958, -40.1497)"></path>
                </g>
            </g>
        </g>
    </g>
</svg>