<svg xmlns="http://www.w3.org/2000/svg" width="1024" height="1024"><g fill="none" fill-rule="evenodd"><path fill="#00628C" d="M0 0h1024v1024H0z"/><path fill="#000" fill-rule="nonzero" d="M850.551 567.484c-11.495-9.852-26.274-11.494-41.054-6.568-11.495 3.284-24.632 4.926-36.128 4.926 32.844-54.185 57.476-113.296 73.898-175.69 8.21-27.914 13.137-57.47 13.137-88.667 3.285-24.63-3.284-49.26-18.063-68.963-41.055-52.543-105.1-82.099-170.786-80.457h-4.927c-27.917 0-55.834 4.926-82.108 11.494h-1.643c-16.421-3.284-34.485-4.926-50.907-4.926-31.201-1.642-64.045 6.568-91.962 22.987-39.412-14.777-83.75-21.345-126.447-19.703-39.412 0-78.824 16.42-106.741 44.333-29.56 31.198-44.339 78.815-42.697 146.136 3.285 29.555 8.211 59.11 14.78 87.024 9.853 42.692 21.348 83.741 36.128 124.79 11.495 37.766 31.201 73.89 57.476 103.445 13.137 13.135 31.201 21.345 50.907 22.987 14.78 0 27.917-6.568 39.412-16.42 9.853 11.494 22.99 18.062 37.77 21.346 19.706 4.926 39.412 6.568 59.118 3.284 9.853-1.642 18.064-4.926 26.275-8.21 0 9.852 0 19.704 1.642 29.556-1.642 29.555 3.285 57.469 11.496 85.382 3.284 16.42 11.495 31.198 22.99 44.334 22.99 21.345 54.192 29.555 83.75 22.987 31.202-4.926 60.761-21.345 78.825-45.975 21.348-29.555 31.201-73.889 32.843-144.494 0-3.284 1.643-6.567 1.643-9.851h4.926c27.917 1.642 55.834-3.284 80.467-13.136 19.706-8.21 37.77-21.346 50.907-39.408 3.284-6.567 6.569-13.135 8.21-19.703 1.643-13.136-3.284-24.63-13.137-32.84"/><path fill="#FFF" fill-rule="nonzero" d="M840.698 605.25c-11.495 14.777-24.632 24.63-42.696 31.197-19.706 8.21-41.054 11.494-62.403 11.494-9.853 0-19.706-1.642-29.559-3.284-4.926 41.05-8.21 82.099-16.421 123.148-1.643 19.704-11.496 39.407-24.633 55.827-16.422 14.778-36.128 24.63-57.476 26.272-24.633 6.568-49.265 1.642-68.971-13.136-11.496-9.852-19.706-24.63-26.275-39.407-3.284-9.852-4.927-18.062-6.569-27.914-1.642-14.778-3.284-29.556-3.284-42.691-1.642-26.272-1.642-50.901-1.642-75.531-13.138 11.494-29.56 19.704-45.981 22.988-16.422 3.283-34.486 1.642-50.907-3.284-4.927-1.642-9.853-3.284-14.78-6.568-6.569-1.642-9.853-6.568-13.137-11.494-1.643-3.284-3.285-8.21-1.643-11.494 1.643-3.284 3.285-8.21 6.57-9.852 8.21-4.926 16.42-8.21 26.274-9.852 11.495-1.642 22.99-4.926 34.486-9.851 6.568-4.926 11.495-11.494 16.421-18.062v-1.642c-14.78 0-27.917-4.926-41.054-9.852-4.927 4.926-26.275 27.914-55.834 62.395-9.853 13.136-22.99 21.346-39.412 22.988-14.78 0-27.917-6.568-37.77-16.42-24.633-27.914-41.054-60.753-52.55-95.235-13.137-42.69-24.632-83.74-32.843-124.79-6.569-27.913-11.495-54.185-14.78-82.098-3.284-62.395 11.496-103.445 36.128-129.716 24.633-24.63 57.476-37.766 93.604-39.407 44.339-1.642 88.677 6.567 129.732 22.987 26.274-16.42 55.834-24.63 87.035-24.63 16.422 0 34.485 3.284 50.907 6.568 6.569-3.284 14.78-4.925 22.99-6.567 21.349-4.926 41.055-6.568 62.403-8.21 62.403-1.642 121.52 24.63 160.933 73.888 9.853 16.42 14.78 37.766 13.137 57.47-1.642 27.913-6.568 55.827-13.137 83.74-18.064 68.963-47.623 134.642-87.035 195.395 1.642 1.642 3.284 1.642 4.926 3.284 22.99 4.926 45.981 4.926 68.972-1.642 8.21-3.284 18.064-1.642 26.274 1.642 3.285 3.284 6.57 8.21 6.57 13.136-4.927 0-4.927 4.926-6.57 8.21"/><path fill="#326790" fill-rule="nonzero" d="M667.806 191.25h-4.931c-16.437 0-34.518 1.642-50.955 6.569 32.874 14.78 62.46 39.414 85.472 67.331 13.15 18.065 24.656 36.13 34.518 57.478 3.288 8.212 6.575 14.78 8.219 19.707 0 3.285 1.644 4.927 1.644 8.211v4.927c1.643 26.276-6.575 42.698-6.575 68.974 0 18.064 4.93 39.413 4.93 62.404 3.288 24.634-3.287 49.267-16.436 68.974 1.643 1.642 3.287 3.285 3.287 4.927 34.518-55.836 62.461-116.599 78.898-180.645 6.575-26.276 11.506-52.552 11.506-78.828 1.644-14.78-1.644-29.56-8.218-44.34-32.875-44.34-85.473-67.331-141.36-65.689"/><path fill="#326790" fill-rule="nonzero" d="M526.146 197.37c-29.532-1.641-57.424 8.213-78.753 26.278-19.689 16.424-32.814 39.417-42.658 62.41-8.204 22.993-13.126 47.628-14.767 72.263 13.126-6.57 26.252-11.496 41.018-14.78 14.766-3.286 31.173-3.286 45.94 1.642 16.406 6.569 27.891 21.35 31.172 39.416 21.33 96.899-6.562 133.03-16.406 162.593-4.923 9.854-8.204 19.708-9.845 29.562 1.641 0 3.282 0 4.922-1.642 4.923 0 11.485 1.642 16.407 3.284 9.845 4.928 18.048 13.14 21.33 24.636 1.64 3.284 1.64 6.57 1.64 8.212v4.927a1305.137 1305.137 0 0 0 0 113.322c0 14.781 1.64 27.92 3.282 42.701 0 8.212 1.64 14.781 4.922 22.993 3.281 11.496 9.844 21.35 19.688 29.562s24.61 13.14 50.861 8.212c16.407-1.642 32.814-9.854 45.94-21.35 9.844-13.14 16.407-27.92 18.048-44.344 6.562-31.205 16.407-123.176 18.047-139.6 0-9.854 1.64-21.35 6.563-29.562 3.281-6.57 9.844-11.497 16.407-14.781 3.281-1.643 4.922-1.643 8.203-3.285-3.281-3.285-4.922-6.57-8.203-9.854-8.204-9.854-14.766-21.35-19.688-32.847-3.282-4.927-4.922-9.854-8.204-14.781-4.922-8.212-8.203-16.424-14.766-26.278-11.485-21.35-21.33-44.344-27.892-68.979-6.563-24.635-8.203-47.628 8.204-65.694 13.125-14.781 37.736-22.993 73.83-18.066-1.64-3.285-1.64-6.57-3.28-9.854-6.563-19.708-18.048-37.774-31.174-52.555-36.095-49.27-93.52-77.19-154.225-78.833l-6.563-4.927"/><path fill="#326790" fill-rule="nonzero" d="M326.662 200.207H315.18c-29.53 0-59.058 11.485-78.745 32.814-21.326 21.33-36.09 57.426-32.81 118.133 3.281 26.252 8.203 52.503 13.124 78.755 8.203 41.018 19.686 80.396 34.451 119.773 9.843 32.815 26.248 62.348 47.575 88.6 4.921 6.563 13.124 9.844 22.967 9.844 9.843-1.64 18.046-6.563 24.608-14.766 18.045-21.33 36.09-42.66 54.136-60.707-27.888-22.97-41.012-59.067-34.45-95.163 1.64-19.689 3.28-39.377 3.28-60.707 0-16.407-1.64-26.252-1.64-32.814v-1.641c0-34.456 6.562-68.91 18.046-101.726 8.202-22.97 21.326-44.3 39.372-62.347-27.889-9.845-57.418-14.767-86.947-16.408-4.922-1.64-8.203-1.64-11.484-1.64m387.16 223.14c1.641-26.253 6.563-42.66 6.563-60.708-8.203-1.64-14.765-1.64-22.968-1.64-13.124-1.641-26.248 3.28-37.731 11.484-8.203 8.204-8.203 26.252-4.922 47.582 6.562 22.97 14.765 44.3 26.248 63.988 4.922 9.845 9.843 18.048 13.124 26.252 3.281 4.922 6.562 11.485 8.203 16.407 1.64 3.282 3.28 8.204 6.562 9.845 6.562-16.408 9.843-32.815 8.202-49.222 1.641-19.69-3.28-42.66-3.28-63.989m-11.483-49.223c0 1.64 0 3.282-1.64 4.922-1.641 1.641-1.641 3.282-3.282 4.923-3.28 3.281-8.202 4.922-11.483 6.562-4.922 0-8.203 0-11.484-3.281-1.64-1.64-3.28-1.64-4.921-3.281-1.64 0-1.64-1.641-1.64-3.282 0-1.64 0-3.281 1.64-4.922l3.28-3.282c4.922-3.281 11.484-4.922 16.406-4.922h8.202c1.64 0 3.281 1.64 4.922 1.64v4.923"/><path fill="#326790" fill-rule="nonzero" d="M486.824 388.79c-1.641-11.486-8.208-21.331-19.7-26.254-4.924-1.64-9.85-1.64-14.774-1.64-6.567 0-11.492 1.64-18.059 1.64-11.491 3.282-22.983 8.205-34.474 13.127-3.284 1.641-6.567 4.923-9.85 8.204 0 4.923 1.641 14.768 1.641 29.536 0 21.332 0 42.663-3.283 62.353-8.208 44.304 21.341 85.326 65.666 93.53 3.284 0 4.925 0 8.209 1.641 3.283-9.845 8.208-21.331 9.85-32.817 9.85-29.536 34.474-54.15 14.774-149.32m-11.491 1.641-4.925 4.923c-3.283 3.281-8.208 4.922-13.133 3.281-4.925-1.64-8.209-3.281-11.492-8.204-1.642-1.64-3.283-3.282-3.283-4.923-3.284-3.281-3.284-4.922-3.284-6.563 0-3.282 3.284-4.923 6.567-6.564 3.283-1.64 6.567-1.64 8.208-1.64h4.925c4.925 0 8.209 1.64 11.492 4.922 1.641 1.641 3.283 1.641 4.925 3.282 1.641 1.64 1.641 3.282 1.641 6.563-1.641 1.641-1.641 3.282-1.641 4.923m251.174 203.468c-3.284 1.641-6.567 1.641-9.85 1.641-3.284 1.641-4.925 3.282-8.209 6.564-1.641 6.563-3.283 13.127-3.283 19.69 1.642 1.641 3.283 1.641 4.925 1.641 6.567 1.64 14.775 3.282 22.983 3.282 19.7 0 37.758-3.282 55.817-9.846 9.85-4.922 19.7-9.845 27.908-18.05-42.683 8.205-64.025 6.564-78.8 0-4.925-1.64-8.208-3.28-11.491-4.922m-241.324 3.282c-1.642 0-4.925 0-8.209 6.563-9.85 11.487-13.133 19.691-22.983 26.254-13.133 8.205-26.266 13.127-42.683 14.768-4.925 0-9.85 1.641-13.133 4.923l1.642 1.64c3.283 1.642 8.208 3.283 9.85 4.923 13.133 3.282 27.908 4.923 42.683 3.282 19.7-3.282 37.758-14.768 47.608-31.176 3.283-4.923 3.283-9.846 0-14.768-1.642-4.923-6.567-9.846-9.85-11.486 0-4.923-3.284-4.923-4.925-4.923"/></g></svg>