<svg xmlns="http://www.w3.org/2000/svg" width="1024" height="1024"><g fill="none" fill-rule="evenodd"><path fill="#FFF" d="M0 0h1024v1024H0z"/><g fill="#2A0A03"><path d="M644.096 237.973c48.61 19.106 82.673 41.263 102.19 66.47 50.095 64.701 54.387 141.654 31.178 194.69-50.497 115.393-143.894 120.51-162.088 122.825-44.55.67-97.762.67-159.638 0l-4.295 26.186H427.81L454.036 480.3h23.061v22.633h108.19c33.947 2.232 58.891-8.012 74.832-30.732 18.035-28.108 15.421-48.69 7.913-74.475-7.071-17.15-20.825-30.504-41.262-40.064l17.326-119.69M325 353h119.354L378 793H259.379z"/><path d="M216 234h397.732L596 353H196.556z"/></g><g fill="#FF7901"><path d="M664.096 237.973c48.61 19.106 82.673 41.263 102.19 66.47 50.095 64.701 54.387 141.654 31.178 194.69-50.497 115.393-143.894 120.51-162.088 122.825-44.55.67-97.762.67-159.638 0l-4.295 26.186H447.81L474.036 480.3h23.061v22.633h108.19c33.947 2.232 58.891-8.012 74.832-30.732 18.035-28.108 15.421-48.69 7.913-74.475-7.071-17.15-20.825-30.504-41.262-40.064l17.326-119.69M345 353h119.354L398 793H279.379z"/><path d="M236 234h397.732L616 353H216.556z"/></g></g></svg>