<svg xmlns="http://www.w3.org/2000/svg" xmlns:xlink="http://www.w3.org/1999/xlink" width="1025" height="1024"><defs><path id="a" d="M0 0h1024v1024H0z"/></defs><g fill="none" fill-rule="evenodd" transform="translate(.061)"><mask id="b" fill="#fff"><use xlink:href="#a"/></mask><use xlink:href="#a" fill="#FFB21D"/><g fill="#FFF" mask="url(#b)"><path d="M348.836 666.053 409.5 713.5c2.333 2.887 3.5 7.304 3.5 13.25 0 8.92-15.655 27.057-23.25 32.5-7.595 5.443-19.597 18.56-41 17-21.403-1.56-26.02-17.852-37.75-17-11.73.852-16.999 9.632-28.5 8.5-7.667-.755-15.288-5.941-22.862-15.56l89.198-86.137"/><path d="m349.419 667.001-45.301-62.282c-2.804-2.433-7.177-3.753-13.12-3.96-8.914-.312-27.587 14.7-33.292 22.1-5.704 7.4-19.233 18.938-18.42 40.383.813 21.444 16.933 26.627 15.672 38.32-1.26 11.692-10.22 16.652-9.49 28.186.487 7.689 5.405 15.486 14.753 23.39l89.198-86.137"/></g><g fill="#FFF" mask="url(#b)"><path d="M775.427 242.44A8.812 8.812 0 0 1 780 244.5c11.5 9.833 12.667 37.833 3.5 84-10.832 58.104-27.165 107.27-49 147.5-21.835 40.23-54.668 82.23-98.5 126 9.501 18.033 15.668 31.116 18.5 39.25 2.832 8.134 1.832 20.3-3 36.5-3.717 16.001-17.967 35.501-42.75 58.5-23.06 21.4-58.143 44.967-105.247 70.7-1.507.823-5.907 3.973-10.753 3.05-1.793-.342-5.043-2.258-9.75-5.75l-9.25-7.5c-4.385-4.36-7.052-8.11-8-11.25-.948-3.14-1.531-8.39-1.75-15.75-1.667-22.333-3.083-37.917-4.25-46.75-1.75-13.25-1.44-24.058-12.25-34.75-4.6-4.549-22.53-11.371-43.25-25.25-7.832-5.246-20.166-15.746-37-31.5 263.2-260.647 399.259-390.334 408.177-389.06"/><path d="M774.909 245.921a8.812 8.812 0 0 0-2.06-4.573c-9.834-11.5-37.834-12.666-84-3.5-58.104 10.832-107.271 27.166-147.5 49-40.23 21.835-82.23 54.668-126 98.5-18.033-9.5-31.117-15.667-39.25-18.5-8.135-2.832-20.301-1.832-36.5 3-16.002 3.718-35.502 17.968-58.5 42.75-21.401 23.061-44.968 58.143-70.7 105.247-.824 1.508-3.974 5.908-3.05 10.753.341 1.794 2.258 5.044 5.75 9.75l7.5 9.25c4.36 4.386 8.11 7.052 11.25 8 3.14.948 8.39 1.532 15.75 1.75 22.333 1.667 37.916 3.084 46.75 4.25 13.25 1.75 24.057 1.44 34.75 12.25 4.548 4.6 11.37 22.53 25.25 43.25 5.246 7.833 16.88 19.383 34.901 34.652 258.38-261.634 386.932-396.91 385.659-405.829"/></g><path fill="#FFB21D" d="M577.385 329.58c9.94-2.484 38.826-9.888 69.164.97 5.373 1.923 26.639 14.775 34.998 34.76 11.776 28.152 9.964 67.103 6.764 80.367-2.726 11.298-16.934 27.014-35.15 35.686-18.353 8.738-40.732 10.388-48.498 10.027-8.19-.381-30.283 1.107-46.736-6.698-14.63-6.94-24.113-22.88-25.929-28.797-4.44-14.468-4.693-38.976-5.121-50.896-.571-15.882 6.208-36.5 16.805-50.455 11.699-15.403 27.617-23.442 33.703-24.963" mask="url(#b)" transform="rotate(46 608.775 408.119)"/></g></svg>