<svg xmlns="http://www.w3.org/2000/svg" width="1024" height="1024"><g fill="none" fill-rule="evenodd"><path fill="#5C7B97" d="M0 0h1024v1024H0z"/><g fill="#FFF" transform="translate(118 250)"><path fill-rule="nonzero" d="M247.94 376.08c-14.307 1.547-27.647 1.353-40.02-.58-8.12-1.547-18.947-6.187-32.48-13.92-5.8-3.48-8.12-7.733-6.96-12.76 1.16-5.027 5.027-7.927 11.6-8.7 18.56-1.933 39.053-4.543 61.48-7.83s43.693-8.99 63.8-17.11c36.347-16.24 54.52-40.02 54.52-71.34 0-17.4-6.96-31.707-20.88-42.92-13.92-11.213-30.933-16.627-51.04-16.24-37.893 2.32-74.047 9.087-108.46 20.3-8.507 3.48-15.853 2.127-22.04-4.06-2.32-1.547-4.253-3.287-5.8-5.22v312.04c0 7.347-1.643 12.083-4.93 14.21-3.287 2.127-8.41 2.61-15.37 1.45-11.6-3.48-20.493-6.96-26.68-10.44-5.027-2.707-8.507-5.993-10.44-9.86-1.547-3.093-2.32-8.313-2.32-15.66v-327.7c0-8.507 2.32-13.92 6.96-16.24 3.867-1.933 10.247-1.74 19.14.58 6.96 1.547 17.4 6.187 31.32 13.92 47.56-14.307 92.8-21.46 135.72-21.46 38.667 0 70.373 9.087 95.12 27.26 26.68 19.72 40.213 46.593 40.6 80.62 0 47.56-27.84 83.907-83.52 109.04-29.773 12.76-59.547 20.3-89.32 22.62M644.66 243.84v263.32c0 7.733-1.643 12.663-4.93 14.79-3.287 2.127-8.41 2.417-15.37.87-10.827-2.707-19.72-6.187-26.68-10.44-5.8-3.093-9.473-6.187-11.02-9.28-1.547-3.093-2.32-8.313-2.32-15.66V215.42c0-8.893 2.127-14.5 6.38-16.82-32.48 3.093-67.087 7.54-103.82 13.34-11.213 1.547-20.493 0-27.84-4.64-7.733-5.413-14.887-11.987-21.46-19.72-3.48-4.64-4.253-9.28-2.32-13.92 1.933-4.64 5.8-7.153 11.6-7.54 101.693-14.693 198.36-24.553 290-29.58 17.013-1.16 29.773 3.287 38.28 13.34 5.413 5.8 9.473 12.953 12.18 21.46 2.32 6.187 1.547 10.827-2.32 13.92-3.093 2.32-8.313 3.48-15.66 3.48-40.987-1.547-96.473 1.353-166.46 8.7l8.12 1.74c11.987 2.707 23.007 7.733 33.06 15.08 11.6 8.893 11.793 18.753.58 29.58"/><circle cx="59" cy="59" r="59"/></g></g></svg>