<svg xmlns="http://www.w3.org/2000/svg" width="1024" height="1024"><g fill="none" fill-rule="evenodd"><path fill="#FFF" d="M0 0h1024v1024H0z"/><g fill-rule="nonzero"><path fill="#6051A5" d="M186.756 544.83c0 57.366 14.917 111.244 41.083 157.977l31.835-30.44c-19.501-38.283-30.495-81.627-30.495-127.536 0-155.418 125.99-281.407 281.407-281.407 155.418 0 281.407 125.989 281.407 281.407 0 44.24-10.21 86.096-28.399 123.34l30.94 32.469c25.42-46.224 39.883-99.33 39.883-155.81 0-178.85-144.985-323.83-323.831-323.83s-323.83 144.984-323.83 323.83Zm89.088 0c0 31.791 6.283 62.115 17.676 89.8l25.28-25.284a203.427 203.427 0 0 1-10.43-64.515c0-112.462 91.168-203.63 203.63-203.63 112.462 0 203.63 91.168 203.63 203.63a203.385 203.385 0 0 1-11.148 66.625l25.169 25.169c11.918-28.22 18.505-59.237 18.505-91.794 0-130.425-105.732-236.156-236.156-236.156S275.844 414.406 275.844 544.831m76.7 33.502a163.396 163.396 0 0 1-3.165-32.087c0-89.814 72.808-162.624 162.621-162.624s162.62 72.81 162.62 162.624a163.15 163.15 0 0 1-3.181 32.168l-19.967-19.967c.346-4.022.524-8.093.524-12.202 0-77.318-62.678-140-139.996-140-77.315 0-139.996 62.682-139.996 140 0 4.081.174 8.12.517 12.114l-19.978 19.975"/><g fill="#DCA854"><path d="M227.884 803.61H162l338.352-342.363.336.332v65.993zM323.539 795.126h-48.156l213.99-216.527v48.723zM405.082 785.228h-28.98l101.959-103.166v29.323l-72.975 73.843zM796.116 803.61H862L523.648 461.247l-.336.332v65.993zM700.461 795.126h48.156L534.624 578.599v48.723zM618.918 785.228h28.976L545.94 682.062v29.323l72.979 73.843"/></g></g></g></svg>