<svg xmlns="http://www.w3.org/2000/svg" width="1025" height="1024"><defs><linearGradient id="a" x1="50%" x2="50%" y1="0%" y2="58.147%"><stop offset="0%" stop-color="#28D1CB"/><stop offset="100%" stop-color="#12BE73"/></linearGradient></defs><g fill="none" fill-rule="evenodd"><path fill="#FFF" d="M.633 0h1024v1024H.633z"/><g fill-rule="nonzero"><path fill="#FFDC00" d="M512.5 137.004c63.363 0 123.055 15.715 175.392 43.46l29.955-40.518 11.166 65.84C824.907 273.71 887.5 385.547 887.5 512.003c0 207.107-167.893 375-375 375s-375-167.893-375-375c0-207.106 167.893-375 375-375Z"/><path fill="url(#a)" d="M580.347 2.942C541.912 108.154 473.295 184.587 374.496 232.24l155.048 265.004C545.689 519.502 555 545.704 555 573.75 555 654.522 477.77 720 382.5 720S210 654.522 210 573.75 287.23 427.5 382.5 427.5c16.984 0 33.395 2.081 48.897 5.959L247.035 118.354c-7.279-12.441-3.094-28.427 9.347-35.706l.065-.038.196-.114c6.901-3.984 14.864-4.48 21.84-2.028C361.187 90.7 461.81 64.857 580.346 2.942Z" transform="translate(137.5 137.004)"/></g></g></svg>