<svg xmlns="http://www.w3.org/2000/svg" width="1025" height="1024"><g fill="none" fill-rule="evenodd"><path fill="#FFF" stroke="#FFF" d="M1.133.5h1023v1023h-1023z"/><path fill="#FAAB07" fill-rule="nonzero" d="M512.652 871.11c-66.707 0-127.941-21.443-167.363-53.474-20.023 5.748-45.635 14.99-61.793 26.459-13.832 9.806-12.109 19.802-9.615 23.838 10.943 17.738 187.73 11.328 238.77 5.805v-2.628M512.652 871.11c66.713 0 127.94-21.443 167.37-53.474 20.015 5.748 45.627 14.99 61.792 26.459 13.825 9.806 12.102 19.802 9.608 23.838-10.943 17.738-187.73 11.328-238.77 5.805v-2.628"/><path fill="#000" fill-rule="nonzero" d="M513.04 487.109c110.163-.719 198.446-21.197 228.363-29.052 7.13-1.874 10.943-5.234 10.943-5.234.03-.965.455-17.224.455-25.614 0-141.256-69.427-283.202-240.171-283.209-170.737.007-240.164 141.953-240.164 283.21 0 8.39.425 24.648.454 25.613 0 0 3.103 3.142 8.787 4.664 27.621 7.382 117.57 28.882 230.52 29.622h.813M812.393 604.787c-6.829-21.106-16.15-45.719-25.59-69.36 0 0-5.427-.641-8.178.12-84.697 23.634-187.356 38.695-265.585 37.786h-.814c-77.796.895-179.758-13.99-264.17-37.392-3.226-.895-9.593-.514-9.593-.514-9.439 23.641-18.76 48.254-25.59 69.36-32.564 100.651-22.01 142.305-13.979 143.242 17.236 2 67.095-75.77 67.095-75.77 0 79.025 74.283 200.366 244.389 201.479.755-.007 3.755-.007 4.51 0 170.107-1.113 244.39-122.454 244.39-201.48 0 0 49.858 77.772 67.094 75.771 8.031-.937 18.585-42.59-13.98-143.242"/><path fill="#FFF" fill-rule="nonzero" d="M451.879 352.693c-23.162 1.007-42.95-24.339-44.197-56.553-1.254-32.236 16.488-59.181 39.65-60.188 23.14-.994 42.92 24.338 44.175 56.567 1.268 32.235-16.48 59.18-39.628 60.174M617.577 296.14c-1.24 32.214-21.028 57.56-44.19 56.553-23.147-1-40.896-27.939-39.627-60.174 1.254-32.229 21.035-57.56 44.175-56.567 23.162 1.007 40.904 27.952 39.642 60.188"/><path fill="#FAAB07" fill-rule="nonzero" d="M658.745 398.193c-6.19-13.166-68.525-27.84-145.697-27.84h-.83c-77.171 0-139.506 14.674-145.696 27.84a4.269 4.269 0 0 0-.455 1.874c0 .951.337 1.803.85 2.536 5.223 7.298 74.437 43.387 145.302 43.387h.829c70.864 0 140.079-36.082 145.293-43.387.521-.726.851-1.592.851-2.543 0-.67-.168-1.296-.447-1.867"/><path fill="#000" fill-rule="nonzero" d="M480.351 296.612c1.056 12.73-6.212 24.035-16.216 25.268-10.02 1.24-18.989-8.073-20.052-20.81-1.05-12.736 6.212-24.042 16.194-25.268 10.04-1.247 19.025 8.08 20.074 20.81M543.984 300.867c2.046-3.523 15.989-22.043 44.85-15.301 7.583 1.775 11.09 4.382 11.83 5.403 1.093 1.515 1.394 3.67.286 6.573-2.193 5.755-6.726 5.6-9.234 4.473-1.62-.726-21.724-13.596-40.244 5.607-1.276 1.318-3.557 1.768-5.713.205-2.164-1.571-3.051-4.748-1.775-6.96"/><path fill="#FFF" fill-rule="nonzero" d="M513.04 568.698h-.814c-53.203.62-117.71-6.15-180.183-17.978-5.347 29.742-8.574 67.127-5.802 111.712 7.004 112.683 76.681 183.516 184.225 184.544h4.371c107.551-1.028 177.22-71.86 184.232-184.544 2.773-44.592-.462-81.97-5.809-111.719-62.481 11.835-127.002 18.605-180.22 17.985"/><path fill="#EB1923" fill-rule="nonzero" d="M361.49 559.272v110.895s52.888 10.242 105.88 3.148V571.03c-33.57-1.825-69.773-5.89-105.88-11.758"/><path fill="#EB1923" fill-rule="nonzero" d="M752.346 452.823s-102.88 31.193-239.306 32.08h-.814c-136.206-.88-238.954-31.974-239.306-32.08l-34.457 82.604c86.187 24.958 192.997 41.04 273.763 40.104h.814c80.766.937 187.57-15.146 273.763-40.104l-34.457-82.604"/></g></svg>