<svg xmlns="http://www.w3.org/2000/svg" width="1024" height="1024"><g fill="none" fill-rule="evenodd"><path fill="#FFF" d="M0 0h1024v1024H0z"/><g transform="translate(142 247)"><rect width="740" height="118.017" y="411.466" fill="#0878BB" rx="49"/><path fill="#151A4A" d="M457.276 175.431H691c27.062 0 49 21.938 49 49v80.62c0 27.063-21.938 49-49 49H457.276c-27.062 0-49-21.937-49-49v-80.62c0-27.062 21.938-49 49-49M331.724 228.06c12.759-6.379 25.517-9.569 38.276-9.569 12.759 0 25.517 3.19 38.276 9.57v54.223c-12.759-17.011-25.517-25.517-38.276-25.517-12.759 0-25.517 8.506-38.276 25.517V228.06M49 175.431h233.724c27.062 0 49 21.938 49 49v80.62c0 27.063-21.938 49-49 49H49c-27.062 0-49-21.937-49-49v-80.62c0-27.062 21.938-49 49-49"/><rect width="740" height="118.017" fill="#0878BB" rx="49"/></g></g></svg>