<svg xmlns="http://www.w3.org/2000/svg" width="1024" height="1024"><g fill="none" fill-rule="evenodd"><path fill="#FFF" d="M0 0h1024v1024H0z"/><g fill-rule="nonzero"><path fill="#912626" d="M853.007 682.663c-39.492 20.584-244.067 104.698-287.62 127.404-43.553 22.709-67.748 22.489-102.155 6.041-34.404-16.447-252.108-104.386-291.326-123.132C152.308 683.611 142 675.702 142 668.233v-74.798s283.426-61.7 329.181-78.116c45.753-16.416 61.629-17.009 100.565-2.746C610.69 526.84 843.517 568.847 882 582.942l-.017 73.74c.005 7.394-8.875 15.505-28.976 25.98"/><path fill="#C6302B" d="M852.993 608.307C813.503 628.883 608.934 713 565.38 735.703c-43.55 22.711-67.745 22.489-102.149 6.041-34.407-16.436-252.103-104.389-291.317-123.123-39.214-18.746-40.035-31.647-1.515-46.73 38.52-15.089 255.023-100.03 300.784-116.446 45.753-16.41 61.626-17.008 100.562-2.74 38.94 14.262 242.29 95.203 280.767 109.294 38.491 14.11 39.968 25.727.48 46.308"/><path fill="#912626" d="M853.007 561.635c-39.492 20.587-244.067 104.699-287.62 127.413-43.553 22.7-67.748 22.48-102.155 6.033-34.407-16.44-252.108-104.386-291.326-123.132C152.308 562.583 142 554.686 142 547.214v-74.807s283.426-61.697 329.181-78.113c45.753-16.416 61.629-17.011 100.565-2.746C610.692 405.813 843.52 447.81 882 461.908l-.017 73.749c.005 7.391-8.875 15.502-28.976 25.978"/><path fill="#C6302B" d="M852.993 487.28c-39.49 20.58-244.059 104.692-287.612 127.404-43.55 22.703-67.745 22.48-102.149 6.033C428.825 604.28 211.13 516.33 171.915 497.593c-39.214-18.74-40.035-31.643-1.515-46.732 38.52-15.08 255.026-100.028 300.784-116.44 45.753-16.414 61.626-17.009 100.562-2.744 38.94 14.263 242.29 95.197 280.767 109.295 38.491 14.106 39.968 25.726.48 46.308"/><path fill="#912626" d="M853.007 436.121c-39.492 20.582-244.067 104.699-287.62 127.413-43.553 22.703-67.748 22.48-102.155 6.033-34.407-16.439-252.108-104.39-291.326-123.126C152.308 437.067 142 429.166 142 421.703v-74.81s283.426-61.694 329.181-78.107c45.753-16.419 61.629-17.009 100.565-2.746C610.692 280.305 843.52 322.303 882 336.4l-.017 73.746c.005 7.386-8.875 15.497-28.976 25.975"/><path fill="#C6302B" d="M852.993 361.766c-39.49 20.581-244.059 104.698-287.612 127.401-43.55 22.703-67.745 22.48-102.149 6.042-34.404-16.448-252.103-104.392-291.314-123.132-39.217-18.737-40.035-31.644-1.518-46.73 38.52-15.084 255.026-100.019 300.784-116.438 45.753-16.415 61.626-17.005 100.562-2.74 38.94 14.265 242.29 95.2 280.767 109.298 38.491 14.094 39.968 25.717.48 46.299"/><path fill="#FFF" d="m602.427 289-63.622 6.605-14.242 34.271-23.004-38.243-73.465-6.602 54.818-19.769-16.448-30.346 51.323 20.073 48.383-15.84-13.077 31.377L602.427 289m-81.663 166.263-118.738-49.248L572.168 379.9l-51.404 75.364m-164.62-147.214c50.224 0 90.938 15.783 90.938 35.249 0 19.47-40.714 35.25-90.939 35.25-50.224 0-90.939-15.782-90.939-35.25 0-19.466 40.715-35.249 90.94-35.249"/><path fill="#621B1C" d="m677.618 298.369 100.698 39.792-100.61 39.755-.088-79.55"/><path fill="#9A2928" d="m566.214 342.436 111.404-44.067.087 79.547-10.924 4.272-100.567-39.752"/></g></g></svg>