<?xml version="1.0" encoding="UTF-8"?>
<svg width="1024px" height="1024px" viewBox="0 0 1024 1024" version="1.1" xmlns="http://www.w3.org/2000/svg" xmlns:xlink="http://www.w3.org/1999/xlink">
    <title>Safeline</title>
    <defs>
        <linearGradient x1="50%" y1="0%" x2="50%" y2="100%" id="linearGradient-1">
            <stop stop-color="#4B4B4B" offset="0%"></stop>
            <stop stop-color="#000000" offset="100%"></stop>
        </linearGradient>
        <linearGradient x1="50%" y1="0%" x2="50%" y2="100%" id="linearGradient-2">
            <stop stop-color="#0FC6C2" stop-opacity="0.9" offset="0%"></stop>
            <stop stop-color="#0FC6C2" stop-opacity="0.7" offset="99.9426355%"></stop>
        </linearGradient>
        <filter x="-1.4%" y="-5.6%" width="103.9%" height="115.6%" filterUnits="objectBoundingBox" id="filter-3">
            <feOffset dx="2" dy="2" in="SourceAlpha" result="shadowOffsetOuter1"></feOffset>
            <feGaussianBlur stdDeviation="2" in="shadowOffsetOuter1" result="shadowBlurOuter1"></feGaussianBlur>
            <feColorMatrix values="0 0 0 0 0   0 0 0 0 0   0 0 0 0 0  0 0 0 0.5 0" type="matrix" in="shadowBlurOuter1" result="shadowMatrixOuter1"></feColorMatrix>
            <feMerge>
                <feMergeNode in="shadowMatrixOuter1"></feMergeNode>
                <feMergeNode in="SourceGraphic"></feMergeNode>
            </feMerge>
        </filter>
    </defs>
    <g id="ICON-新版方图标" stroke="none" stroke-width="1" fill="none" fill-rule="evenodd">
        <g id="Safeline" transform="translate(0, -0.0008)">
            <rect id="蒙版路径" fill="#FFFFFF" x="0" y="0" width="1024" height="1024"></rect>
            <g id="编组" transform="translate(162, 130.0008)" fill-rule="nonzero">
                <path d="M688.762691,139.06767 C685.273885,122.398932 671.318664,109.99429 654.26228,109.218999 C523.238245,105.730194 415.472915,39.055241 372.056667,7.26834513 C358.876734,-2.42278171 341.432706,-2.42278171 328.252773,7.26834513 C283.67359,39.055241 177.071195,105.730194 46.0471602,109.218999 C29.3784219,109.99429 14.6479092,122.398932 11.5467487,139.06767 C-9.38608529,243.73184 -45.4370771,598.427082 350.736187,763.176238 C745.746517,598.039435 708.920235,243.73184 688.762691,139.06767 Z" id="路径" fill="url(#linearGradient-1)"></path>
                <path d="M350.96685,615.723051 C484.178692,615.723051 592.168229,507.733514 592.168229,374.521672 C592.168229,309.215937 566.214567,249.972003 524.05902,206.541652 C494.417481,226.353495 437.68421,249.738066 413.53849,237.559068 C391.798849,226.593685 370.933309,208.343733 350.941872,182.809213 C334.590994,208.538873 317.21417,225.070382 298.811405,232.403739 C284.28178,238.19368 231.44794,242.416089 177.702164,206.719567 C135.648337,250.13373 109.765471,309.305069 109.765471,374.521672 C109.765471,507.733514 217.755007,615.723051 350.96685,615.723051 Z" id="椭圆形" fill="url(#linearGradient-2)"></path>
                <g transform="translate(216.166, 240.4988)" fill="#FFFFFF">
                    <polygon id="路径-130备份-29" transform="translate(134.7759, 225.9402) rotate(-180) translate(-134.7759, -225.9402)" points="133.473756 152.987715 0 228.742859 119.207195 298.892699 162.061117 276.214924 80.8950861 228.742859 133.473756 199.156748 228.246484 252.923933 228.246484 270.607195 269.551826 295.461214 269.551826 228.742859"></polygon>
                    <polygon id="路径-130备份-30" points="133.473756 0 0 75.7551443 119.207195 145.904984 162.061117 123.227209 80.8950861 75.7551443 133.473756 46.1690329 228.246484 99.9362185 228.246484 117.61948 269.551826 142.473498 269.551826 75.7551443"></polygon>
                </g>
                <g id="编组-7" transform="translate(170.0658, 106.5201)">
                    <path d="M227.924154,42.4132455 C227.924154,42.4132455 186.99301,36.0308893 180.879354,0 C174.765699,36.0308893 133.834555,42.4132455 133.834555,42.4132455 C92.2963827,49.157721 72.1776852,17.9249148 72.1776852,17.9249148 C91.9495087,72.2881034 126.5502,70.3417112 126.5502,70.3417112 L235.251869,70.3417112 C235.251869,70.3417112 269.85256,72.2428386 289.624383,17.9249148 C289.624383,17.9249148 269.505685,49.157721 227.967513,42.4132455 L227.924154,42.4132455 Z" id="路径" fill="#0FC6C2"></path>
                    <g id="路径" transform="translate(0, 63.0413)">
                        <g id="path-3-link" fill="#000000">
                            <path d="M259.22001,53.9499943 C259.22001,53.9499943 191.114099,45.8439851 180.901034,0 C170.744395,45.8439851 102.582059,53.9499943 102.582059,53.9499943 C33.4604844,62.5063372 0,22.8319258 0,22.8319258 C32.8398009,91.9581705 90.4505171,89.5263679 90.4505171,89.5263679 L271.351551,89.5263679 C271.351551,89.5263679 328.905842,91.9581705 361.802068,22.8319258 C361.802068,22.8319258 328.341584,62.5513707 259.22001,53.9499943 Z" id="path-3"></path>
                        </g>
                        <g id="path-3-link" filter="url(#filter-3)" fill="#0FC6C2">
                            <path d="M259.22001,53.9499943 C259.22001,53.9499943 191.114099,45.8439851 180.901034,0 C170.744395,45.8439851 102.582059,53.9499943 102.582059,53.9499943 C33.4604844,62.5063372 0,22.8319258 0,22.8319258 C32.8398009,91.9581705 90.4505171,89.5263679 90.4505171,89.5263679 L271.351551,89.5263679 C271.351551,89.5263679 328.905842,91.9581705 361.802068,22.8319258 C361.802068,22.8319258 328.341584,62.5513707 259.22001,53.9499943 Z" id="path-3"></path>
                        </g>
                    </g>
                </g>
            </g>
        </g>
    </g>
</svg>