<svg xmlns="http://www.w3.org/2000/svg" width="1024" height="1024"><defs><linearGradient id="a" x1="50%" x2="50%" y1="0%" y2="100%"><stop offset="0%" stop-color="#4B4B4B"/><stop offset="100%"/></linearGradient><linearGradient id="b" x1="50%" x2="50%" y1="0%" y2="100%"><stop offset="0%" stop-color="#0FC6C2" stop-opacity=".9"/><stop offset="99.943%" stop-color="#0FC6C2" stop-opacity=".7"/></linearGradient><filter id="c" width="103.9%" height="115.6%" x="-1.4%" y="-5.6%" filterUnits="objectBoundingBox"><feOffset dx="2" dy="2" in="SourceAlpha" result="shadowOffsetOuter1"/><feGaussianBlur in="shadowOffsetOuter1" result="shadowBlurOuter1" stdDeviation="2"/><feColorMatrix in="shadowBlurOuter1" result="shadowMatrixOuter1" values="0 0 0 0 0 0 0 0 0 0 0 0 0 0 0 0 0 0 0.5 0"/><feMerge><feMergeNode in="shadowMatrixOuter1"/><feMergeNode in="SourceGraphic"/></feMerge></filter></defs><g fill="none" fill-rule="evenodd"><path fill="#FFF" d="M0 0h1024v1024H0z"/><g fill-rule="nonzero"><path fill="url(#a)" d="M688.763 139.068c-3.49-16.67-17.444-29.074-34.5-29.849-131.025-3.489-238.79-70.164-282.206-101.95-13.18-9.692-30.624-9.692-43.804 0-44.58 31.786-151.182 98.461-282.206 101.95-16.669.775-31.4 13.18-34.5 29.849-20.933 104.664-56.984 459.36 339.19 624.108C745.746 598.04 708.92 243.732 688.762 139.068Z" transform="translate(162 130)"/><path fill="url(#b)" d="M350.967 615.723c133.212 0 241.201-107.99 241.201-241.201 0-65.306-25.953-124.55-68.109-167.98-29.642 19.811-86.375 43.196-110.52 31.017-21.74-10.965-42.606-29.215-62.597-54.75-16.351 25.73-33.728 42.261-52.13 49.595-14.53 5.79-67.364 10.012-121.11-25.684-42.054 43.414-67.937 102.585-67.937 167.802 0 133.212 107.99 241.201 241.202 241.201" transform="translate(162 130)"/><g fill="#FFF"><path d="m514.244 669.391 133.474-75.755-119.207-70.15-42.854 22.678 81.166 47.472-52.579 29.586-94.773-53.767v-17.683l-41.305-24.854v66.718zM511.64 370.499l-133.474 75.755 119.207 70.15 42.854-22.678-81.166-47.472 52.579-29.586 94.772 53.767v17.683l41.306 24.854v-66.718z"/></g><path fill="#0FC6C2" d="M559.99 278.933s-40.931-6.382-47.045-42.413c-6.114 36.031-47.045 42.413-47.045 42.413-41.538 6.745-61.657-24.488-61.657-24.488 19.772 54.363 54.373 52.417 54.373 52.417h108.702s34.6 1.9 54.372-52.417c0 0-20.119 31.233-61.657 24.488h-.043"/><path fill="#000" d="M591.286 353.511s-68.106-8.106-78.32-53.95c-10.156 45.844-78.318 53.95-78.318 53.95-69.122 8.557-102.582-31.118-102.582-31.118 32.84 69.127 90.45 66.695 90.45 66.695h180.901s57.555 2.432 90.45-66.695c0 0-33.46 39.72-102.581 31.118"/><g fill="#0FC6C2" filter="url(#c)" transform="translate(332.066 299.561)"><path d="M259.22 53.95S191.114 45.844 180.901 0c-10.157 45.844-78.319 53.95-78.319 53.95C33.46 62.506 0 22.832 0 22.832c32.84 69.126 90.45 66.694 90.45 66.694h180.902s57.554 2.432 90.45-66.694c0 0-33.46 39.72-102.582 31.118"/></g></g></g></svg>