<?xml version="1.0" encoding="UTF-8"?>
<svg width="1025px" height="1024px" viewBox="0 0 1025 1024" version="1.1" xmlns="http://www.w3.org/2000/svg" xmlns:xlink="http://www.w3.org/1999/xlink">
    <title>Sehuatang</title>
    <g id="ICON-新版方图标" stroke="none" stroke-width="1" fill="none" fill-rule="evenodd">
        <g id="Sehuatang" transform="translate(0.2604, -0.0008)">
            <rect id="蒙版路径" fill="#FFFFFF" x="0" y="0" width="1024" height="1024"></rect>
            <g id="编组" transform="translate(162.7396, 226.0008)" fill="#FF66A6" fill-rule="nonzero">
                <g id="轨迹">
                    <path d="M248.244457,437.420446 C202.752152,401.916916 182.270323,335.334934 198.532278,275.442023 C208.310036,239.423949 231.776655,207.522226 264.403489,185.705564 C272.843238,180.045581 281.900529,175.10596 291.266592,171.092517 C290.957821,162.036544 291.163668,145.159504 295.383543,125.401018 C302.999901,90.4120317 320.291094,61.906299 345.610341,43.0739918 C392.646502,7.87918815 448.637032,18.5817015 472.618269,23.2125967 C524.080153,33.0918399 559.897624,61.4946638 578.835597,80.5327886 C596.332637,76.3135285 614.858915,82.0764203 625.768834,95.7632884 C639.354772,112.949055 637.810915,138.367524 622.886969,155.141656 C636.884601,231.911608 637.090449,245.907202 636.987525,247.965378 C633.796888,302.609941 594.685857,340.068738 560.103471,373.205366 C539.415794,392.963852 484.454502,445.55024 395.013749,459.340017 C377.310861,461.912737 357.137803,465 336.141354,465 C306.808081,465 275.828027,459.031291 248.244457,437.420446 Z M358.372888,177.164135 C302.382359,177.164135 236.3053,214.82875 218.396565,280.896188 C204.296009,332.968032 221.690126,390.699859 260.904081,421.160859 C301.353121,452.650946 351.476996,445.035696 391.720188,438.861169 C474.779668,426.10048 526.344476,376.807173 545.694144,358.283593 C579.041444,326.38187 613.520906,293.45106 616.299848,247.039199 C616.299848,245.495567 615.579382,229.750523 601.581749,153.495115 L600.552512,147.732224 L604.978234,143.924599 C615.682305,134.559899 617.740781,118.711947 609.609803,108.523977 C602.919758,100.085457 590.67183,97.3069201 579.761911,101.731998 L573.17479,104.407626 L568.337373,99.262187 C552.69296,82.4880555 518.933964,53.0561437 468.81009,43.4856269 C445.755166,39.0605492 397.792691,29.9016676 358.064117,59.6423057 C317.615076,89.8974878 312.160117,140.734426 311.851345,163.683085 C329.657157,158.434737 347.977588,155.964926 365.577552,156.891105 C401.189175,158.640555 465.619453,175.10596 481.160942,225.531263 C498.555059,281.925276 442.667453,334.511664 410.658162,354.475968 C391.720188,366.310478 368.665265,375.057724 347.462969,378.453714 C319.158933,383.084609 294.971848,378.042079 277.783579,363.840667 C259.566072,348.918893 254.522807,328.95459 253.287722,321.133522 C249.479543,299.831404 256.066664,277.191472 271.505229,257.124259 C288.384726,235.204689 312.880583,220.797459 336.861821,218.533466 C357.549498,216.578199 391.514341,222.752726 400.571632,247.553743 C407.158754,265.768597 399.645319,286.453262 383.383363,294.583056 C354.770556,308.990286 324.099274,295.303418 322.864188,294.788874 C316.997534,292.319063 314.630287,285.424175 317.306305,280.278735 C319.776475,275.544931 326.054825,273.486756 331.303937,276.059475 C346.536655,286.350354 361.97522,282.336911 374.120224,276.265293 C381.119041,272.766394 384.309677,263.092969 381.221964,254.654449 C376.693319,242.408303 353.638395,237.777408 338.714449,239.115222 C320.599866,240.761763 301.04435,252.493364 287.767184,269.78204 C276.033874,285.012539 270.784762,302.507032 273.357857,317.737532 C274.078323,322.059701 277.474807,337.187292 290.649049,347.992714 C319.570628,371.661734 371.650054,354.373059 399.645319,336.981475 C431.448763,317.222988 474.059202,272.766394 461.399579,231.602881 C449.15165,191.983 392.646502,178.810676 364.44539,177.472862 C362.489839,177.267044 360.431363,177.164135 358.372888,177.164135 L358.372888,177.164135 Z" id="形状"></path>
                    <path d="M165.212567,153 C158.213343,141.355844 147.302789,117.552303 152.243417,88.5964815 C157.184046,59.4345683 170.050265,39.6498074 188.577621,32.9518415 C199.591105,28.9330619 214.31006,28.9330619 227.07335,32.7457502 C227.27921,32.8487958 227.587999,32.8487958 227.793858,32.9518415 C234.587222,22.235096 246.321215,9.14830103 264.642711,3.17165451 C297.889022,-7.75118223 337.105259,10.281803 358,45.8325452 L340.296082,56.2401538 C324.23904,28.9330619 295.109919,14.8158107 271.024356,22.6472785 C253.938017,28.2117425 244.777268,43.8746782 241.586446,50.3665529 L237.057537,59.6406595 L227.793858,55.0036062 C225.632334,53.9731499 223.367879,53.0457393 221.103424,52.3244198 C211.428027,49.3360966 201.237981,50.057416 195.576845,52.1183286 C184.460431,56.1371081 176.123121,70.5634963 172.520579,91.790896 C168.712178,114.254843 177.358278,133.009148 182.916485,142.180209 L165.212567,153 Z" id="路径"></path>
                    <path d="M182.555514,517.663921 C147.588828,512.422381 112.416456,490.839569 95.7558584,472.237241 C92.362033,468.434555 88.7625213,464.631869 85.2658527,460.931958 C78.0668291,453.326586 70.6621192,445.412889 63.9773116,436.779764 C63.3602524,435.957562 62.8460365,435.238134 62.2289773,434.621483 C58.7323087,430.202145 56.9839744,427.941088 53.590149,425.371706 C48.3451461,421.56902 44.3342616,420.644043 39.2949451,419.61629 C34.0499422,418.485761 28.1878802,417.252458 21.6059158,412.83312 C9.05904616,404.508321 0.42021789,388.989252 0.00884510732,374.189609 C-0.299684471,359.595517 7.51639825,350.962392 15.1267946,342.637593 C19.7547383,337.498829 24.4855252,332.257289 28.8049393,324.754692 C34.8726878,314.066061 35.0783742,307.282892 35.5925901,294.949857 C35.9011197,286.522282 36.3124925,275.936427 38.7807291,261.23956 C43.7172024,232.154151 49.2707349,199.060506 72.9246694,173.675008 C105.834491,138.423082 154.787852,137.189778 174.225215,138.217531 C228.526421,141.198015 263.493107,174.497211 275.937134,188.680201 L260.510655,202.24654 C249.712119,190.01628 219.681907,161.239197 173.09394,158.669815 C160.135698,157.950388 115.707438,157.950388 87.9397757,187.652448 C68.5024121,208.515833 63.668782,236.98459 59.0408383,264.528369 C56.778288,277.889158 56.4697584,287.241709 56.1612289,295.566508 C55.6470129,309.030072 55.2356401,319.718703 46.699655,334.723896 C41.2489658,344.281998 35.2840605,350.962392 30.3475872,356.306708 C23.4570933,363.91208 20.4746406,367.509215 20.5774838,373.572957 C20.7831702,381.58943 26.1310163,391.044758 32.9186671,395.56687 C36.2096493,397.725152 39.2949451,398.444579 43.511516,399.369556 C49.4764213,400.705635 56.9839744,402.247265 65.7256459,408.722108 C71.3820215,412.935895 74.4673173,416.841357 78.3753587,421.877346 C78.8895747,422.596773 79.4037906,423.213425 80.0208498,424.035627 C86.1914414,431.84655 92.9790922,439.143596 100.178116,446.748967 C103.777628,450.551653 107.377139,454.457115 110.976651,458.465351 C124.860482,473.881645 155.71344,492.7923 185.64081,497.314413 C246.935353,506.564189 297.122832,452.401609 302.573521,446.235091 L318,459.904205 C312.240781,466.481824 263.493107,519 199.730327,519 C194.073952,519 188.417576,518.588899 182.555514,517.663921 Z" id="路径"></path>
                    <path d="M419.721598,544.058689 C357.416085,528.514148 323.637228,482.086414 312,462.835891 L329.610319,452.129717 C339.908751,469.218417 369.877187,510.293064 424.76783,523.984613 C479.452503,537.676162 539.080424,518.837415 580.377136,474.777392 L644.536367,398.392961 L651.333332,400.96656 C662.867576,405.290207 674.092867,401.172448 677.28538,394.481089 C679.757004,389.230947 677.594333,381.613092 674.092867,376.877669 C671.415274,373.27463 668.016792,371.21575 665.545168,370.083367 L651.230348,363.803784 L662.764591,353.200554 C664.515325,351.553451 679.962973,336.52363 677.697318,314.287731 C675.637631,293.698935 660.292968,282.375098 655.658673,279.389722 C644.12443,271.977756 632.075264,271.360092 625.896205,271.668924 L624.866362,251.080128 C633.517045,250.668353 650.303489,251.491904 666.78098,262.095134 C673.371976,266.315837 695.204652,282.580986 698.191197,312.228851 C700.250884,332.920591 692.218107,348.979851 685.215173,358.656585 C687.274859,360.509577 689.128577,362.568456 690.776326,364.833224 C697.367323,373.892294 702.619523,389.436835 695.822558,403.540159 C688.510671,418.775868 669.870509,426.393723 651.230348,422.481851 L595.515831,488.777773 C559.162366,527.587653 509.935862,549 460.503388,549 C446.806474,549 433.212544,547.352896 419.721598,544.058689 Z" id="路径"></path>
                    <path d="M353,510.774804 C349.369126,514.892811 344.558354,520.804389 338.567685,528.509535 C323.979357,545.227323 306.308989,557.817263 287.303069,564.834606 C263.263149,573.709481 238.81229,572.987108 220.114574,562.770681 C195.150042,549.14878 185.595715,522.008173 182,507.04472 L202.033267,502.297694 C204.807104,513.958867 211.998533,534.907701 229.977106,544.711342 C256.379924,559.158814 303.637886,546.568874 333.636419,501.059339 L345.553645,483 L353,510.774804 Z" id="路径"></path>
                </g>
            </g>
        </g>
    </g>
</svg>