<svg xmlns="http://www.w3.org/2000/svg" width="1024" height="1024"><g fill="none" fill-rule="nonzero"><path fill="#F50" d="M0 0h1024v1024H0z"/><path fill="#FFF" d="m118 540-6 44 6 44c0 4 6 4 6 0l6-44-6-44c0-6-6-6-6 0m36-28c0-6-6-6-6 0l-10 72 8 70c0 6 8 6 8 0l8-70zm118-60-6 132 4 80c0 16 14 16 14 0l8-80-8-132c0-10-12-10-12 0m-62 44-8 88 6 80c0 12 10 12 10 0l8-80-8-88c0-6-8-6-8 0m140 168 6-80-6-176c0-12-14-12-14 0l-6 176 4 80c0 16 16 16 16 0m136 0 4-80-4-204c0-14-20-14-20 0l-4 204 4 80c0 16 20 16 20 0m-68 0 6-80-6-178c0-12-18-12-18 0l-4 178 4 80c0 16 18 16 18 0m-166 0 6-80-6-82c0-6-12-6-12 0l-6 82 6 80c0 14 12 14 12 0m-66 0 8-80-8-86c0-6-8-6-8 0l-8 86 8 80c0 8 8 8 8 0m248-250-4 170 2 80c0 16 20 16 20 0l4-80-4-170c0-14-18-14-18 0M318 664l6-80-6-162c0-12-14-12-14 0l-6 162 4 80c0 16 16 16 16 0m66 0 6-80-6-182c0-12-16-12-16 0l-6 182 6 80c0 16 16 16 16 0m392-178c-10-114-128-188-236-146-8 4-10 6-10 12v312c0 6 4 12 10 12h274c54 0 98-44 98-98 0-74-70-114-136-92M500 362l-6 222 6 80c0 16 20 16 20 0l6-80-6-222c0-14-20-14-20 0"/></g></svg>