<svg xmlns="http://www.w3.org/2000/svg" width="1024" height="1024"><defs><linearGradient id="a" x1="50%" x2="50%" y1="0%" y2="100%"><stop offset="0%" stop-color="#111D2E"/><stop offset="21.2%" stop-color="#051839"/><stop offset="40.7%" stop-color="#0A1B48"/><stop offset="58.1%" stop-color="#132E62"/><stop offset="73.8%" stop-color="#144B7E"/><stop offset="87.3%" stop-color="#136497"/><stop offset="100%" stop-color="#1387B8"/></linearGradient></defs><g fill="none" fill-rule="evenodd"><path fill="#FFF" d="M0 0h1024v1024H0z"/><g fill-rule="nonzero"><path fill="url(#a)" d="M15.097 476.4c45.748 152.441 187.237 263.604 354.665 263.604C574.238 740.004 740 574.347 740 370.002S574.238 0 369.762 0C173.56 0 13.003 152.545.322 345.42c23.997 40.203 33.31 65.074 14.752 130.98h.023" transform="translate(142 142)"/><path fill="#FFF" d="m492.683 419.328.035 1.827-90.593 131.524c-14.67-.67-29.387 1.908-43.364 7.654a94.2 94.2 0 0 0-17.331 9.25L142.484 487.64s-4.604 75.688 14.579 132.09l140.644 57.998c6.942 31.543 28.693 59.2 60.65 72.497 52.349 21.738 112.423-3.005 134.245-55.292a102.734 102.734 0 0 0 7.914-42.273l129.502-92.558 3.182.058c77.577 0 140.633-63.201 140.633-140.832s-62.94-140.6-140.633-140.763c-77.542 0-140.632 63.132-140.632 140.763h.115m-21.751 266.517c-16.823 40.469-63.241 59.512-103.586 42.712a79.117 79.117 0 0 1-40.772-38.873l45.782 18.962a58.347 58.347 0 0 0 44.647.071 58.294 58.294 0 0 0 31.61-31.51c12.395-29.745-1.663-63.902-31.412-76.324l-47.437-19.598c18.258-6.938 39.014-7.17 58.428.89 19.67 8.128 34.71 23.437 42.763 43.013 8.053 19.575 8.006 41.162-.116 60.657m162.488-172.687c-51.755-.14-93.649-42.085-93.693-93.807.057-51.713 41.947-93.644 93.693-93.784 51.755.128 93.66 42.062 93.717 93.784-.045 51.731-41.953 93.68-93.717 93.807m-70.206-93.957c-.032-38.867 31.453-70.41 70.345-70.474 38.817 0 70.392 31.566 70.392 70.474.019 38.876-31.49 70.412-70.392 70.45-38.887-.057-70.376-31.588-70.357-70.45h.012"/></g></g></svg>