<?xml version="1.0" encoding="UTF-8"?>
<svg width="1024px" height="1024px" viewBox="0 0 1024 1024" version="1.1" xmlns="http://www.w3.org/2000/svg" xmlns:xlink="http://www.w3.org/1999/xlink">
    <title>Sublink.x</title>
    <g id="Icon-SVG" stroke="none" stroke-width="1" fill="none" fill-rule="evenodd">
        <g id="Sublink.x" transform="translate(0, -0.0008)">
            <rect id="蒙版路径" fill="#FFFFFF" x="0" y="0" width="1024" height="1024"></rect>
            <g id="编组-67" transform="translate(142.2177, 151.2508)">
                <g id="编组-68" transform="translate(0, 53.3289)">
                    <path d="M2.41340837,167.681576 C6.93733917,162.026662 64.7048353,129.958563 117.148516,97.3600583 C150.515613,76.6193806 180.245959,53.1657658 197.515964,44.2223703 C241.929554,21.2224755 284.228211,4.03864609 312.251071,0.86624681 C340.273932,-2.30615247 352.963529,3.50991288 390.767954,13.8202105 C428.572378,24.1305082 491.513559,24.0315813 557.847649,37.6132051 C624.181739,51.194829 677.870089,65.6360655 685.53672,83.6129947 C693.203352,101.589924 693.203352,121.946153 685.53672,167.681576 C677.870089,213.416999 677.893132,255.652872 678.663188,279.244284 C683.173362,417.417798 694.945977,490.752545 692.938985,498.404201 C688.70912,514.530564 662.731623,535.351669 645.088629,545.19709 C585.870509,578.242916 514.737013,625.085393 499.158262,637.461036 C470.871036,659.932197 448.491298,665.772969 441.261976,666.805729 C417.204614,670.242495 382.977927,661.201422 362.480727,656.495432 C258.849017,632.702437 201.427122,617.443947 175.044803,612.874941 C127.72318,604.679577 88.0861365,603.079496 80.1371908,601.507177 C56.0798295,596.748578 47.1949215,588.860087 44.4476988,586.173914 C32.5512015,574.541783 39.1603667,571.105018 29.1144357,491.795036 C19.0685046,412.485054 25.3437574,358.89377 19.0685046,326.30154 C5.79419365,257.3578 -4.98885662,176.934407 2.41340837,167.681576 Z" id="矩形" fill="#97D8EE"></path>
                    <path d="M23.5627369,174.819474 C35.7236008,158.957478 98.4561151,125.146589 145.171376,96.0382252 C191.886637,66.9298613 240.029873,40.8030925 252.504218,34.1764393 C282.274066,18.362026 306.699373,15.1420436 324.147569,15.1420436 C341.595765,15.1420436 351.338384,19.179279 380.722023,24.3948748 C400.311115,27.8719387 420.843588,31.1324602 442.319442,34.1764393 C534.198164,45.176722 592.623184,54.2533089 617.594502,61.4061998 C671.764581,76.9229082 674.456582,97.8260076 676.019522,111.371488 C679.985021,145.739147 669.145991,201.520501 672.582757,223.198563 C676.019522,244.876625 663.858658,335.818738 676.019522,399.795456 C688.180386,463.772175 679.355338,497.306393 676.019522,499.726034 C638.479464,526.955794 606.70755,550.389582 585.341776,562.909653 C543.836219,587.231381 522.422524,608.645076 479.0664,630.851871 C435.710277,653.058666 427.779279,650.943733 384.951888,643.012735 C342.124498,635.081736 325.716841,628.247591 263.871982,615.518608 C202.027124,602.789624 158.389706,592.783079 129.838113,589.61068 C101.286519,586.438281 74.585492,582.737148 64.2751944,569.518818 C53.9648967,556.300488 54.2292633,538.059192 51.3212306,492.323769 C48.4131979,446.588346 44.7120655,356.968066 34.1374012,289.290215 C23.5627369,221.612363 18.5377087,181.373859 23.5627369,174.819474 Z" id="矩形" fill="#BFE8EF"></path>
                    <path d="M275.504113,428.611417 C282.786346,426.701323 376.520593,424.634209 491.755997,441.56538 C606.991402,458.496551 655.663294,473.025006 660.686259,481.749105 C663.190526,486.09862 610.456604,514.001831 563.663715,550.484422 C516.870825,586.967014 467.235227,615.509492 444.434375,618.691007 C419.095931,622.226604 333.635603,617.858772 256.205351,592.254346 C189.849333,570.311918 86.4819893,575.863617 82.5164902,559.472887 C79.7292983,547.952493 129.683,528.24248 198.573431,487.56517 C224.697384,472.139919 259.37775,432.841282 275.504113,428.611417 Z" id="矩形" fill="#AFD5E2"></path>
                    <path d="M347.940563,550.484422 C377.285257,519.024796 390.767954,479.105438 396.319652,481.749105 C401.871351,484.392771 410.786542,588.728487 409.00925,599.392245 C407.231957,610.056002 356.135928,607.587609 344.768164,607.587609 C333.4004,607.587609 197.733058,583.58132 198.573431,571.105018 C199.129611,562.847873 261.492683,568.196985 282.906378,559.20852 C304.320073,550.220056 338.016961,561.12324 347.940563,550.484422 Z" id="矩形" fill="#E2EFF5"></path>
                    <path d="M126.401347,257.037489 C166.79556,238.752689 254.163705,251.211241 309.343039,262.060454 C364.522373,272.909668 375.099858,293.643514 380.986389,305.416578 C384.910744,313.265287 370.811191,318.376374 338.687732,320.749841 C293.284057,307.410064 249.927934,304.590153 208.619362,312.29011 C146.656504,323.840044 126.401347,349.037068 105.516385,354.3244 C84.6314231,359.611732 86.0071335,275.322288 126.401347,257.037489 Z" id="矩形" fill="#B0D8E4"></path>
                    <g id="编组-75" transform="translate(52.7736, 32.6883)" fill="#FFFFFF">
                        <path d="M156.903213,46.9592013 C186.159784,31.2734493 209.247801,19.4650742 226.167264,11.534076 C251.546458,-0.36242134 260.613239,-0.357428966 281.155518,0.166311873 C294.850371,0.515472432 307.628091,5.09782695 319.488676,13.9133754 C304.331657,13.9133754 283.62294,16.5570415 257.362524,21.8443736 C232.800243,26.7897993 169.002172,61.2789765 132.845852,90.844058 C111.018141,108.692612 104.870819,126.58444 107.466658,129.970316 C109.807693,133.02384 113.229537,143.160108 172.236476,147.154145 C215.403058,150.075987 315.869335,155.061083 369.189598,150.855278 C422.509862,146.649473 429.493195,138.414169 473.878775,123.361151 C503.469161,113.325805 536.074376,99.9312304 571.694419,83.1774264 C546.100286,100.811782 523.541002,116.409412 504.016568,129.970316 C495.55182,135.849597 448.445772,162.951734 429.200818,214.038897 C422.420233,232.038464 412.52204,269.727145 405.67219,326.394705 C401.59807,360.099159 396.486982,425.926444 390.338927,523.87656 C379.588018,476.819304 374.212564,416.279351 374.212564,342.256701 C369.189598,232.544559 354.225745,220.598058 347.775903,214.038897 C332.178273,198.1769 226.167264,183.37237 201.052436,180.464338 C175.937609,177.556305 105.781047,173.004269 89.7540949,175.177006 C62.9704785,178.807997 51.2596263,188.884471 46.662338,194.475768 C27.0992091,218.268762 16.3483004,258.18812 14.409612,314.233841 C6.83110257,249.3759 2.33687025,205.75541 0.926915016,183.37237 C-1.18801784,149.797811 -3.03858409,139.223147 35.8233071,116.487619 C61.7312346,101.3306 102.091203,78.1544609 156.903213,46.9592013 Z" id="矩形"></path>
                        <path d="M596.016147,279.601815 C609.939455,377.241215 611.701899,433.639425 601.303479,448.796444 C590.905059,463.953462 557.066133,486.953692 499.786702,517.797133 C526.346349,491.614586 544.4114,472.7561 553.981856,461.221674 C568.337541,443.920035 576.158924,435.857566 580.94725,419.980483 C587.056512,399.723458 595.024003,378.353958 588.349515,348.337133 C583.899857,328.325916 586.4554,305.414144 596.016147,279.601815 Z" id="矩形"></path>
                        <path d="M21.0187771,422.095416 C24.9842762,419.45175 33.7083743,438.750512 44.2830385,460.428574 C54.8577028,482.106636 40.0531728,500.612298 30.535975,505.370897 C21.0187771,510.129496 17.053278,424.739082 21.0187771,422.095416 Z" id="矩形"></path>
                    </g>
                </g>
                <g id="编组-66" transform="translate(131.953, 377.3572)" stroke="#000000" stroke-width="2">
                    <path d="M132.480624,106.093593 L116.025569,155.704355 L83.3610576,136.547724 L132.480624,106.093593 Z" id="矩形" fill="#FEAEC2" transform="translate(107.8616, 130.4911) scale(-1, -1) translate(-107.8616, -130.4911)"></path>
                    <path d="M239.513235,6.11499479 L99.6123729,105.014716 L82.4360079,157.29061 L67.7601611,86.6475506 L239.513235,6.11499479 Z" id="矩形" fill="#F7B6A2"></path>
                    <path d="M100.459311,105.640634 C197.393733,33.3804285 247.535266,-1.78033023 250.88391,0.158358215 C254.232554,2.09704666 225.416593,49.9474025 164.436029,143.709426 L100.459311,105.640634 Z" id="矩形" fill="#97DEE0"></path>
                    <path d="M0,47.7443474 C163.907296,14.0816662 247.535266,-1.78033023 250.88391,0.158358215 C254.232554,2.09704666 192.811379,30.7367624 66.6203849,86.0775054 L0,47.7443474 Z" id="矩形" fill="#97DEE0"></path>
                </g>
                <g id="编组-74" transform="translate(53.7005, 473.4806)" stroke="#000000" stroke-linecap="round" stroke-width="5">
                    <g id="编组-70">
                        <g id="编组-73" transform="translate(0, 54.9883)">
                            <line x1="32.252726" y1="0.528733214" x2="24.850461" y2="4.75859892" id="直线-5"></line>
                            <line x1="16.3907296" y1="10.0459311" x2="11.1033975" y2="13.2183303" id="直线-5"></line>
                            <line x1="2.64366607" y1="18.5056625" x2="0.528733214" y2="19.5631289" id="直线-5"></line>
                        </g>
                        <line x1="125.309772" y1="0.528733214" x2="39.654991" y2="51.2871217" id="直线-4"></line>
                    </g>
                    <g id="编组-70" transform="translate(86.7122, 35.4251)">
                        <g id="编组-71" transform="translate(0, 38.5975)">
                            <line x1="32.252726" y1="0.528733214" x2="24.850461" y2="4.75859892" id="直线-5"></line>
                            <line x1="16.3907296" y1="10.0459311" x2="11.1033975" y2="13.2183303" id="直线-5"></line>
                            <line x1="2.64366607" y1="18.5056625" x2="0.528733214" y2="19.5631289" id="直线-5"></line>
                        </g>
                        <line x1="98.8731109" y1="-2.67861565e-16" x2="40.976824" y2="33.3101925" id="直线-4"></line>
                    </g>
                    <g id="编组-70" transform="translate(0, 28.5516)">
                        <g id="编组-72" transform="translate(0, 60.2756)">
                            <line x1="32.252726" y1="0.528733214" x2="24.850461" y2="4.75859892" id="直线-5"></line>
                            <line x1="16.3907296" y1="10.0459311" x2="11.1033975" y2="13.2183303" id="直线-5"></line>
                            <line x1="2.64366607" y1="18.5056625" x2="0.528733214" y2="19.5631289" id="直线-5"></line>
                        </g>
                        <line x1="136.941902" y1="0.528733214" x2="39.654991" y2="56.5744538" id="直线-4"></line>
                    </g>
                </g>
                <g id="编组-69" transform="translate(421.328, 0)" fill="#00A99E">
                    <path d="M123.301337,171.838294 C155.02533,177.65436 177.760858,189.28649 191.507922,206.734686 C212.392884,233.964447 228.390342,279.69987 231.162913,279.69987 C233.935484,279.69987 217.985517,231.123917 200.23202,206.734686 C188.396355,190.475199 171.829381,177.873724 150.531098,168.930262 C195.297176,170.340217 227.638025,183.646669 247.553642,208.849619 C259.912609,224.489727 274.783403,257.228708 286.6799,288.423968 C294.610898,309.220808 303.86373,325.170926 314.438394,336.274324 C280.070735,334.688124 254.25093,330.634503 236.978978,324.11346 C211.071051,314.331895 197.2424,303.643277 177.496492,273.619438 C167.413728,258.288501 150.531098,224.447249 146.565599,212.286385 C143.921932,204.179143 136.167179,190.696446 123.301337,171.838294 Z" id="矩形"></path>
                    <path d="M0,181.379298 C20.447692,185.128041 35.1018714,192.625528 43.9625379,203.871759 C57.4239352,221.422695 67.735093,250.901451 69.522153,250.901451 C71.309213,250.901451 61.0286658,219.591832 49.5856532,203.871759 C41.9569782,193.39171 31.278739,185.269433 17.5509357,179.504926 C46.4049011,180.413712 67.2501872,188.990383 80.0867939,205.234938 C88.0527627,215.315766 97.6377295,236.417669 105.305614,256.524566 C110.417537,269.929164 116.381447,280.209809 123.197345,287.366502 C101.045678,286.344117 84.4035288,283.731356 73.2708965,279.52822 C56.571948,273.223515 47.6586948,266.334168 34.9314739,246.98231 C28.4326309,237.100758 17.5509357,215.288387 14.9949742,207.450105 C13.2909998,202.224584 8.29267511,193.534315 0,181.379298 Z" id="矩形" transform="translate(61.5987, 233.4357) scale(-1, 1) translate(-61.5987, -233.4357)"></path>
                    <path d="M4.9960277,50.3856441 C25.4437197,54.1343877 40.097899,61.6318747 48.9585656,72.8781054 C62.4199629,90.429041 72.7311206,119.907797 74.5181807,119.907797 C76.3052407,119.907797 66.0246935,88.5981783 54.5816809,72.8781054 C46.9530059,62.3980567 36.2747667,54.275779 22.5469634,48.5112723 C51.4009288,49.4200587 72.2462149,57.9967295 85.0828216,74.2412848 C93.0487904,84.3221126 102.633757,105.424015 110.301642,125.530912 C115.413565,138.935511 121.377475,149.216156 128.193372,156.372848 C106.041706,155.350463 89.3995565,152.737703 78.2669242,148.534566 C61.5679757,142.229861 52.6547225,135.340515 39.9275016,115.988656 C33.4286586,106.107104 22.5469634,84.2947334 19.9910019,76.4564515 C18.2870275,71.2309302 13.2887028,62.5406611 4.9960277,50.3856441 Z" id="矩形" transform="translate(66.5947, 102.4421) scale(-1, -1) translate(-66.5947, -102.4421)"></path>
                    <path d="M125.421282,2.94019101 C157.496093,8.82057304 180.483041,20.5813371 194.382125,38.2224832 C215.498043,65.7533627 231.672408,111.994549 234.475639,111.994549 C237.278871,111.994549 221.152522,62.8814212 203.202699,38.2224832 C191.236149,21.7831912 174.48597,9.04236345 152.952161,0 C198.213283,1.42554716 230.911771,14.8791485 251.047625,40.3608039 C263.543262,56.1738672 278.578504,89.2748908 290.606559,120.815122 C298.625261,141.841942 307.980415,157.968444 318.672018,169.194628 C283.924306,167.590888 257.818974,163.49244 240.356021,156.899284 C214.161592,147.009551 200.180019,136.202733 180.215751,105.846876 C170.021487,90.3464034 152.952161,56.1309193 148.94281,43.8355751 C146.269909,35.638679 138.4294,22.0068843 125.421282,2.94019101 Z" id="矩形" transform="translate(222.0466, 84.5973) scale(1, -1) translate(-222.0466, -84.5973)"></path>
                </g>
            </g>
        </g>
    </g>
</svg>