<svg xmlns="http://www.w3.org/2000/svg" width="1024" height="1024"><g fill="none" fill-rule="evenodd"><path fill="#FFF" d="M0 0h1024v1024H0z"/><path fill="#97D8EE" d="M144.631 372.26c4.524-5.654 62.292-37.723 114.735-70.321 33.367-20.74 63.098-44.194 80.368-53.138 44.413-23 86.712-40.183 114.735-43.356 28.023-3.172 40.712 2.644 78.517 12.954 37.804 10.31 100.745 10.211 167.08 23.793 66.333 13.582 120.022 28.023 127.688 46 7.667 17.977 7.667 38.333 0 84.068-7.666 45.736-7.643 87.972-6.873 111.563 4.51 138.174 16.283 211.508 14.276 219.16-4.23 16.126-30.208 36.948-47.85 46.793-59.219 33.046-130.352 79.888-145.931 92.264-28.287 22.471-50.667 28.312-57.896 29.345-24.058 3.436-58.284-5.605-78.782-10.31-103.631-23.794-161.053-39.052-187.435-43.621-47.322-8.196-86.96-9.796-94.908-11.368-24.057-4.759-32.942-12.647-35.69-15.333-11.896-11.632-5.287-15.07-15.333-94.38-10.046-79.309-3.77-132.9-10.046-165.493-13.274-68.943-24.057-149.367-16.655-158.62"/><path fill="#BFE8EF" d="M165.78 379.398c12.161-15.862 74.894-49.673 121.61-78.78 46.714-29.11 94.858-55.236 107.332-61.863 29.77-15.814 54.195-19.034 71.643-19.034s27.191 4.037 56.575 9.253c19.589 3.477 40.121 6.737 61.597 9.781 91.879 11 150.304 20.077 175.275 27.23 54.17 15.517 56.862 36.42 58.425 49.965 3.966 34.368-6.873 90.15-3.437 111.827 3.437 21.679-8.724 112.62 3.437 176.597 12.161 63.977 3.336 97.511 0 99.93-37.54 27.23-69.312 50.664-90.678 63.185-41.505 24.321-62.919 45.735-106.275 67.942-43.356 22.207-51.287 20.092-94.114 12.16-42.828-7.93-59.235-14.765-121.08-27.493-61.845-12.73-105.483-22.736-134.034-25.908-28.552-3.173-55.253-6.874-65.563-20.092-10.31-13.219-10.046-31.46-12.954-77.195-2.908-45.736-6.61-135.356-17.184-203.034-10.575-67.678-15.6-107.916-10.575-114.47"/><path fill="#AFD5E2" d="M417.722 633.19c7.282-1.91 101.016-3.977 216.252 12.954 115.235 16.931 163.907 31.46 168.93 40.184 2.504 4.35-50.23 32.253-97.023 68.735-46.792 36.483-96.428 65.025-119.229 68.207-25.338 3.536-110.799-.832-188.229-26.437-66.356-21.942-169.723-16.39-173.689-32.781-2.787-11.52 47.167-31.23 116.057-71.908 26.124-15.425 60.804-54.724 76.93-58.954"/><path fill="#E2EFF5" d="M490.158 755.063c29.345-31.46 42.828-71.379 48.38-68.735 5.551 2.644 14.466 106.98 12.689 117.643-1.777 10.664-52.873 8.196-64.241 8.196-11.368 0-147.035-24.007-146.195-36.483.556-8.257 62.92-2.908 84.333-11.897 21.414-8.988 55.11 1.915 65.034-8.724"/><path fill="#B0D8E4" d="M268.619 461.616c40.394-18.284 127.762-5.826 182.942 5.023 55.18 10.85 65.757 31.583 71.643 43.356 3.924 7.85-10.175 12.96-42.299 15.334-45.403-13.34-88.76-16.16-130.068-8.46-61.963 11.55-82.218 36.747-103.103 42.034-20.885 5.288-19.51-79.002 20.885-97.287"/><g fill="#FFF"><path d="M351.895 284.226c29.256-15.685 52.344-27.494 69.264-35.425 25.379-11.896 34.446-11.891 54.988-11.367 13.695.349 26.472 4.931 38.333 13.747-15.157 0-35.866 2.643-62.126 7.93-24.562 4.946-88.36 39.435-124.517 69-21.828 17.849-27.975 35.74-25.379 39.127 2.341 3.053 5.763 13.19 64.77 17.183 43.166 2.922 143.633 7.907 196.953 3.701 53.32-4.205 60.303-12.44 104.69-27.494 29.59-10.035 62.195-23.43 97.815-40.183a22173.975 22173.975 0 0 0-67.678 46.793c-8.465 5.879-55.57 32.98-74.816 84.068-6.78 18-16.679 55.688-23.529 112.356-4.074 33.704-9.185 99.532-15.333 197.482-10.75-47.057-16.126-107.597-16.126-181.62-5.023-109.712-19.987-121.659-26.437-128.218-15.597-15.862-121.608-30.666-146.723-33.574-25.115-2.908-95.272-7.46-111.299-5.288-26.783 3.631-38.494 13.708-43.091 19.299-19.563 23.793-30.314 63.712-32.253 119.758-7.579-64.858-12.073-108.478-13.483-130.861-2.115-33.575-3.965-44.15 34.897-66.885 25.908-15.157 66.268-38.333 121.08-69.529M791.007 516.869c13.924 97.64 15.686 154.038 5.288 169.195-10.399 15.157-44.238 38.157-101.517 69 26.56-26.182 44.625-45.04 54.195-56.575 14.356-17.302 22.177-25.364 26.966-41.241 6.109-20.257 14.076-41.627 7.402-71.644-4.45-20.01-1.894-42.923 7.666-68.735M216.01 659.363c3.966-2.644 12.69 16.655 23.264 38.333 10.575 21.678-4.23 40.183-13.747 44.942s-13.482-80.632-9.517-83.275"/></g><g stroke="#000" stroke-width="2"><path fill="#FEAEC2" d="m357.413 683.496 16.455-49.611 32.665 19.157-49.12 30.454Z"/><path fill="#F7B6A2" d="m513.684 534.722-139.9 98.9-17.177 52.276-14.676-70.643 171.753-80.533Z"/><path fill="#97DEE0" d="M374.63 634.248c96.934-72.26 147.076-107.421 150.425-105.482 3.348 1.938-25.468 49.789-86.448 143.55l-63.977-38.068Z"/><path fill="#97DEE0" d="M274.17 576.352c163.908-33.663 247.536-49.525 250.885-47.586 3.348 1.938-58.073 30.578-184.264 85.919l-66.62-38.333Z"/></g><g stroke="#000" stroke-linecap="round" stroke-width="5"><path d="m228.171 680.248-7.403 4.23M212.31 689.765l-5.289 3.172M198.562 698.225l-2.115 1.057M321.228 625.26l-85.655 50.758M314.883 699.282l-7.403 4.23M299.021 708.8l-5.288 3.171M285.274 717.26l-2.115 1.056M381.503 660.156l-57.896 33.31M228.171 714.087l-7.403 4.23M212.31 723.604l-5.289 3.172M198.562 732.064l-2.115 1.057M332.86 653.811l-97.287 56.045"/></g><g fill="#00A99E"><path d="M686.847 323.088c31.724 5.816 54.46 17.448 68.207 34.897 20.885 27.23 36.882 72.965 39.655 72.965 2.772 0-13.178-48.576-30.931-72.965-11.836-16.26-28.403-28.861-49.701-37.805 44.766 1.41 77.107 14.717 97.022 39.92 12.36 15.64 27.23 48.379 39.127 79.574 7.93 20.797 17.183 36.747 27.758 47.85-34.368-1.586-60.187-5.64-77.46-12.16-25.907-9.782-39.736-20.47-59.482-50.495-10.083-15.33-26.965-49.172-30.93-61.333-2.644-8.107-10.4-21.59-23.265-40.448M686.743 332.63c-20.448 3.748-35.102 11.246-43.962 22.492-13.462 17.55-23.773 47.03-25.56 47.03-1.787 0 8.493-31.31 19.936-47.03 7.63-10.48 18.307-18.603 32.035-24.367-28.854.909-49.7 9.485-62.536 25.73-7.966 10.08-17.55 31.183-25.219 51.29-5.111 13.404-11.075 23.685-17.891 30.842 22.151-1.023 38.794-3.636 49.926-7.839 16.7-6.304 25.612-13.194 38.34-32.546 6.498-9.881 17.38-31.694 19.936-39.532 1.704-5.225 6.702-13.916 14.995-26.07M691.74 305.749c-20.449-3.75-35.103-11.247-43.963-22.493-13.462-17.55-23.773-47.03-25.56-47.03-1.787 0 8.493 31.31 19.936 47.03 7.63 10.48 18.307 18.602 32.035 24.367-28.854-.909-49.7-9.486-62.536-25.73-7.966-10.08-17.55-31.183-25.219-51.29-5.111-13.404-11.075-23.685-17.891-30.842 22.151 1.023 38.794 3.635 49.926 7.839 16.7 6.304 25.612 13.194 38.34 32.546 6.498 9.881 17.38 31.693 19.936 39.532 1.704 5.225 6.702 13.916 14.995 26.07"/><path d="M688.967 317.504c32.075-5.88 55.062-17.64 68.96-35.282 21.117-27.53 37.291-73.772 40.094-73.772 2.804 0-13.323 49.113-31.273 73.772-11.966 16.44-28.716 29.18-50.25 38.223 45.261-1.426 77.96-14.88 98.095-40.361 12.496-15.813 27.531-48.914 39.56-80.455 8.018-21.026 17.373-37.153 28.065-48.379-34.748 1.604-60.853 5.702-78.316 12.295-26.195 9.89-40.176 20.697-60.14 51.053-10.195 15.5-27.264 49.716-31.273 62.011-2.673 8.197-10.514 21.829-23.522 40.895"/></g></g></svg>