<svg xmlns="http://www.w3.org/2000/svg" width="1024" height="1024"><defs><linearGradient id="a" x1="0%" x2="100%" y1="0%" y2="100%"><stop offset="0%" stop-color="#60A5FA"/><stop offset="100%" stop-color="#3B82F6"/></linearGradient></defs><g fill="none" fill-rule="evenodd"><path fill="url(#a)" d="M0 0h1024v1024H0z"/><g transform="translate(192 200)"><path stroke="#FFF" stroke-linecap="round" stroke-linejoin="round" stroke-width="100" d="M566.194 98.583C566.194 44.137 522.104 0 467.717 0H172.283c-54.388 0-98.477 44.137-98.477 98.583v98.583c0 54.447 44.09 98.584 98.477 98.584h295.434c54.388 0 98.477 44.137 98.477 98.583v98.583c0 54.446-44.09 98.583-98.477 98.583H172.283c-54.388 0-98.477-44.137-98.477-98.583"/><path stroke="#FFF" stroke-linecap="round" stroke-opacity=".3" stroke-width="100" d="M0 689.555 640 0"/><circle cx="73.278" cy="492.916" r="49.028" fill="#FFF" fill-opacity=".6" fill-rule="nonzero"/><circle cx="565.667" cy="98.583" r="49.028" fill="#FFF" fill-opacity=".6" fill-rule="nonzero"/></g></g></svg>