<svg xmlns="http://www.w3.org/2000/svg" width="1024" height="1024"><defs><linearGradient id="a" x1="70.226%" x2="4.683%" y1="0%" y2="145.808%"><stop offset="0%" stop-color="#001F62"/><stop offset="100%" stop-color="#090C0B"/></linearGradient><linearGradient id="b" x1="-.048%" x2="99.953%" y1="50.015%" y2="50.015%"><stop offset="0%" stop-color="#065FFE"/><stop offset="50%" stop-color="#02AFEF"/><stop offset="100%" stop-color="#01EFC6"/></linearGradient><linearGradient id="c" x1=".005%" x2="99.931%" y1="49.979%" y2="49.979%"><stop offset="0%" stop-color="#065FFE"/><stop offset="50%" stop-color="#02AFEF"/><stop offset="100%" stop-color="#01EFC6"/></linearGradient><linearGradient id="d" x1="36.737%" x2="61.541%" y1="30.081%" y2="67.349%"><stop offset="0%" stop-color="#065FFE"/><stop offset="50%" stop-color="#02AFEF"/><stop offset="100%" stop-color="#01EFC6"/></linearGradient><linearGradient id="e" x1="72.598%" x2="17.337%" y1="25.638%" y2="96.837%"><stop offset="0%" stop-color="#065FFE"/><stop offset="50%" stop-color="#02AFEF"/><stop offset="100%" stop-color="#01EFC6"/></linearGradient><linearGradient id="f" x1="100.06%" x2="-.03%" y1="49.914%" y2="49.914%"><stop offset="0%" stop-color="#065FFE"/><stop offset="50%" stop-color="#02AFEF"/><stop offset="100%" stop-color="#01EFC6"/></linearGradient><linearGradient id="g" x1="100.013%" x2=".086%" y1="49.974%" y2="49.974%"><stop offset="0%" stop-color="#065FFE"/><stop offset="50%" stop-color="#02AFEF"/><stop offset="100%" stop-color="#01EFC6"/></linearGradient><linearGradient id="h" x1="63.276%" x2="38.471%" y1="69.903%" y2="32.68%"><stop offset="0%" stop-color="#065FFE"/><stop offset="50%" stop-color="#02AFEF"/><stop offset="100%" stop-color="#01EFC6"/></linearGradient><linearGradient id="i" x1="27.255%" x2="82.517%" y1="74.544%" y2="2.843%"><stop offset="0%" stop-color="#065FFE"/><stop offset="50%" stop-color="#02AFEF"/><stop offset="100%" stop-color="#01EFC6"/></linearGradient></defs><g fill="none" fill-rule="evenodd"><path fill="url(#a)" d="M0 0h1023.939v1024H0" transform="translate(.03)"/><g fill-rule="nonzero"><path fill="#000" d="M558.468 513.099c-13.304 0-27.023 3.305-39.08 9.503-15.797 8.263-33.674 12.808-51.55 12.808-61.53 0-111.002-49.581-111.002-110.318 0-60.736 49.888-110.318 111.001-110.318 18.708 0 37 4.545 53.215 13.222L642.03 397.41V254.45c0-64.041-69.843-104.12-125.552-72.305L218.812 352.787c-55.709 32.227-55.709 112.383 0 144.198l297.25 170.641c55.71 32.228 125.553-7.85 125.553-72.306v-3.305c-1.663-43.796-38.664-78.916-83.147-78.916"/><path fill="#000" d="M558.468 513.099c-13.304 0-27.023 3.305-39.08 9.503-15.797 8.263-33.674 12.808-51.55 12.808-61.53 0-111.002-49.581-111.002-110.318 0-60.736 49.888-110.318 111.001-110.318 18.708 0 37 4.545 53.215 13.222L642.03 397.41V254.45c0-64.041-69.843-104.12-125.552-72.305L218.812 352.787c-55.709 32.227-55.709 112.383 0 144.198l297.25 170.641c55.71 32.228 125.553-7.85 125.553-72.306v-3.305c-1.663-43.796-38.664-78.916-83.147-78.916"/><path fill="url(#b)" d="M381.437 342.1c-13.303 0-27.023 3.305-39.079 9.502-15.798 8.264-33.674 12.809-51.551 12.809-61.529 0-111.001-49.581-111.001-110.318 0-60.737 49.888-110.318 111-110.318 18.709 0 37.001 4.545 53.215 13.222L465 226.41V83.452c0-64.042-69.844-104.12-125.552-72.306L41.78 181.787c-55.708 32.228-55.708 112.384 0 144.199l297.251 170.641c55.709 32.228 125.552-7.85 125.552-72.306v-3.305c-1.663-43.797-38.663-78.917-83.147-78.917" transform="translate(177.03 171)"/><path fill="url(#c)" d="M153.647 117.652S114.535 235.5 204.75 323.92c0 0-24.944-31.815-24.944-69.827 0-60.737 49.888-110.318 111-110.318 18.709 0 37.001 4.545 53.215 13.222L465 226.41V83.452c0-64.042-69.844-104.12-125.552-72.306l-185.8 106.506c-4.158 17.354-6.27 35.626-6.27 54.22 0-18.594 2.112-36.866 6.27-54.22" transform="translate(177.03 171)"/><path fill="url(#d)" d="M352.751 459.028 60.074 291.692c-34.922-20.246-48.226-59.084-39.08-92.964-33.674 37.599-26.606 99.988 21.203 127.258l297.25 170.641c53.215 30.575 118.882-4.947 124.705-63.617-23.7 34.293-71.074 49.569-111.4 26.018" transform="translate(177.03 171)"/><path fill="url(#e)" d="M219.3 169.805s60.252-59.828 245.67-52.804l.03 109.41-120.979-69c-.416 0-61.113-38.013-124.72 12.394" transform="translate(177.03 171)"/><path fill="#000" d="M466.01 510.698c13.303 0 27.022-3.303 39.078-9.497 15.798-8.258 33.675-12.8 51.551-12.8 61.113 0 111.002 49.55 111.002 110.25 0 60.698-49.889 110.249-111.002 110.249-18.708 0-37-4.542-53.214-13.214l-120.979-69.37v143.283c0 64.003 69.844 104.056 125.552 72.261L805.25 671.324c55.709-32.208 55.709-112.314 0-144.11L508 356.68c-55.71-32.208-125.553 7.845-125.553 72.26v3.304c1.663 43.357 38.664 78.455 83.563 78.455"/><path fill="#000" d="M466.01 510.698c13.303 0 27.022-3.303 39.078-9.497 15.798-8.258 33.675-12.8 51.551-12.8 61.113 0 111.002 49.55 111.002 110.25 0 60.698-49.889 110.249-111.002 110.249-18.708 0-37-4.542-53.214-13.214l-120.979-69.37v143.283c0 64.003 69.844 104.056 125.552 72.261L805.25 671.324c55.709-32.208 55.709-112.314 0-144.11L508 356.68c-55.71-32.208-125.553 7.845-125.553 72.26v3.304c1.663 43.357 38.664 78.455 83.563 78.455"/><path fill="url(#f)" d="M84.01 165.61c13.303 0 27.022-3.303 39.078-9.497 15.798-8.258 33.675-12.8 51.551-12.8 61.113 0 111.002 49.55 111.002 110.25 0 60.699-49.889 110.25-111.002 110.25-18.708 0-37-4.543-53.214-13.214L.446 281.229V424.51c0 64.003 69.844 104.056 125.552 72.261L423.25 326.236c55.709-32.207 55.709-112.314 0-144.109L126 11.591C70.288-20.617.445 19.437.445 83.852v3.304C2.11 130.512 39.11 165.61 84.01 165.61" transform="translate(382 345.088)"/><path fill="url(#g)" d="M311.006 390.635s1.457-3.96 2.812-9.62c6.926-28.92 21.914-123.332-53.537-197.236 0 0 24.944 31.795 24.944 69.783 0 60.7-49.888 110.25-111.001 110.25-18.708 0-37-4.542-53.214-13.213L.03 281.229V424.51c0 64.003 69.844 104.056 125.553 72.261l185.423-106.137c4.573-17.756 6.646-36.32 6.646-54.901 0 18.581-2.489 37.558-6.646 54.9" transform="translate(382 345.088)"/><path fill="url(#h)" d="m112.28 48.754 292.677 167.233c34.922 20.233 48.225 59.047 39.079 92.907 33.674-37.576 26.607-99.927-21.203-127.18L125.583 11.178C72.368-19.378 6.744 16.277.924 74.912 24.621 40.639 71.953 25.63 112.28 48.754" transform="translate(382 345.088)"/><path fill="url(#i)" d="M246.146 337.798S185.418 397.932 0 390.912v-110l121.425 69.274s60.698 37.988 124.72-12.388" transform="translate(382 345.088)"/></g></g></svg>