<svg xmlns="http://www.w3.org/2000/svg" xmlns:xlink="http://www.w3.org/1999/xlink" width="1024" height="1024"><defs><linearGradient id="a" x1="65.242%" x2="24.733%" y1="-4.52%" y2="140.214%"><stop offset="0%" stop-color="#001F62"/><stop offset="100%" stop-color="#090C0B"/></linearGradient><linearGradient id="c" x1="6.053%" x2="89.991%" y1="50.29%" y2="50.29%"><stop offset="0%" stop-color="#02AFEF"/><stop offset="100%" stop-color="#01EFC6"/></linearGradient><linearGradient id="e" x1="6.053%" x2="89.991%" y1="50.29%" y2="50.29%"><stop offset="0%" stop-color="#02AFEF"/><stop offset="100%" stop-color="#01EFC6"/></linearGradient><linearGradient id="g" x1="6.053%" x2="89.991%" y1="50.29%" y2="50.29%"><stop offset="0%" stop-color="#02AFEF"/><stop offset="100%" stop-color="#01EFC6"/></linearGradient><linearGradient id="i" x1="-.048%" x2="99.953%" y1="50.015%" y2="50.015%"><stop offset="0%" stop-color="#065FFE"/><stop offset="50%" stop-color="#02AFEF"/><stop offset="100%" stop-color="#01EFC6"/></linearGradient><linearGradient id="j" x1=".005%" x2="99.931%" y1="49.979%" y2="49.979%"><stop offset="0%" stop-color="#065FFE"/><stop offset="50%" stop-color="#02AFEF"/><stop offset="100%" stop-color="#01EFC6"/></linearGradient><linearGradient id="k" x1="36.737%" x2="61.541%" y1="29.495%" y2="67.859%"><stop offset="0%" stop-color="#065FFE"/><stop offset="50%" stop-color="#02AFEF"/><stop offset="100%" stop-color="#01EFC6"/></linearGradient><linearGradient id="l" x1="72.598%" x2="17.337%" y1="24.659%" y2="98.719%"><stop offset="0%" stop-color="#065FFE"/><stop offset="50%" stop-color="#02AFEF"/><stop offset="100%" stop-color="#01EFC6"/></linearGradient><linearGradient id="m" x1="100.06%" x2="-.03%" y1="49.914%" y2="49.914%"><stop offset="0%" stop-color="#065FFE"/><stop offset="50%" stop-color="#02AFEF"/><stop offset="100%" stop-color="#01EFC6"/></linearGradient><linearGradient id="n" x1="100.013%" x2=".086%" y1="49.974%" y2="49.974%"><stop offset="0%" stop-color="#065FFE"/><stop offset="50%" stop-color="#02AFEF"/><stop offset="100%" stop-color="#01EFC6"/></linearGradient><linearGradient id="o" x1="63.276%" x2="38.471%" y1="70.488%" y2="32.171%"><stop offset="0%" stop-color="#065FFE"/><stop offset="50%" stop-color="#02AFEF"/><stop offset="100%" stop-color="#01EFC6"/></linearGradient><linearGradient id="p" x1="27.255%" x2="82.517%" y1="75.32%" y2="1.351%"><stop offset="0%" stop-color="#065FFE"/><stop offset="50%" stop-color="#02AFEF"/><stop offset="100%" stop-color="#01EFC6"/></linearGradient><path id="b" d="M161.371 169.44c-5.12.32-10.28-.08-15.48-1.2-5.2-1.12-9.88-3.12-14.04-6-3.2-2.24-5.8-5.08-7.8-8.52-2-3.44-3.72-7-5.16-10.68-2.4-6.24-4.6-12.52-6.6-18.84s-4.12-12.68-6.36-19.08c-.96 3.68-2.08 7.2-3.36 10.56-1.28 3.36-2.64 6.8-4.08 10.32-1.76 4.16-3.48 8.28-5.16 12.36-1.68 4.08-3.64 8.12-5.88 12.12l-3.36 5.76c-1.12 1.92-2.56 3.6-4.32 5.04-2.4 2.08-5.08 3.64-8.04 4.68a39.682 39.682 0 0 1-9.24 2.04c-6.56.64-13.2-.32-19.92-2.88-6.72-2.56-12.4-6.24-17.04-11.04-4.16-4.48-7.64-9.52-10.44-15.12s-5.08-11.36-6.84-17.28c-3.68-11.04-6.12-22.28-7.32-33.72-1.2-11.44-1.24-22.92-.12-34.44.8-7.68 2.12-15.24 3.96-22.68 1.84-7.44 4.6-14.52 8.28-21.24 1.28-2.24 3.08-4.04 5.4-5.4 2.32-1.36 4.68-2.36 7.08-3 3.36-.8 7-1.2 10.92-1.2s7.68.56 11.28 1.68c3.6 1.12 6.8 2.72 9.6 4.8 2.8 2.08 4.84 4.8 6.12 8.16.8 2.24 1.2 4.6 1.2 7.08 0 2.48-.32 4.84-.96 7.08a87.796 87.796 0 0 0-2.88 12.48c-.64 4.16-1.2 8.32-1.68 12.48-.48 5.28-.84 10.56-1.08 15.84-.24 5.28-.2 10.48.12 15.6.16 3.2.36 6.32.6 9.36.24 3.04.76 6.16 1.56 9.36.32 1.76.8 3.44 1.44 5.04.64 1.6 1.6 3.04 2.88 4.32.32.32.8.64 1.44.96.64.32 1.12.48 1.44.48.48-.16 1-.68 1.56-1.56s1-1.56 1.32-2.04c1.76-3.2 3.28-6.48 4.56-9.84 1.28-3.36 2.56-6.8 3.84-10.32.64-1.6 1.64-4.48 3-8.64s2.88-8.52 4.56-13.08a370.3 370.3 0 0 1 5.04-12.96c1.68-4.08 3-6.84 3.96-8.28.8-1.28 1.84-2.32 3.12-3.12l3.84-2.4c1.92-.96 3.96-1.72 6.12-2.28 2.16-.56 4.36-1 6.6-1.32 4-.32 7.88.28 11.64 1.8 3.76 1.52 6.92 3.8 9.48 6.84.96 1.28 1.76 2.6 2.4 3.96.64 1.36.96 2.76.96 4.2 0 6.24.64 12.8 1.92 19.68.64 4 1.36 7.96 2.16 11.88.8 3.92 1.84 7.8 3.12 11.64.16.8.48 1.84.96 3.12s1 2.56 1.56 3.84c.56 1.28 1.12 2.48 1.68 3.6.56 1.12 1.16 1.92 1.8 2.4 1.92 1.28 3.76 1.28 5.52 0 1.76-1.28 3.2-2.96 4.32-5.04 1.76-3.36 3.04-6.96 3.84-10.8.8-3.84 1.52-7.6 2.16-11.28 2.24-13.76 2.72-27.68 1.44-41.76-.32-2.72-.68-5.44-1.08-8.16-.4-2.72-1-5.44-1.8-8.16-.8-2.24-1.08-4.64-.84-7.2.24-2.56 1-4.72 2.28-6.48 1.28-1.76 2.88-3.2 4.8-4.32s3.92-2.08 6-2.88c5.76-1.92 11.68-2.64 17.76-2.16 2.24.16 4.52.56 6.84 1.2 2.32.64 4.36 1.68 6.12 3.12 2.4 2.24 4.24 5 5.52 8.28 1.28 3.28 2.32 6.52 3.12 9.72 1.28 5.6 2 11.28 2.16 17.04.16 5.76.08 11.44-.24 17.04-.48 8-1.36 15.88-2.64 23.64s-2.88 15.48-4.8 23.16a418.14 418.14 0 0 1-5.76 18.72c-2.08 6.24-4.72 12.24-7.92 18-1.76 3.2-3.68 6.32-5.76 9.36a35.018 35.018 0 0 1-7.44 7.92c-3.52 2.72-7.44 4.76-11.76 6.12-4.32 1.36-8.72 2.2-13.2 2.52M39.931 65.28c0 1.28.36 2.32 1.08 3.12.72.8 1.6 1.32 2.64 1.56s2.08.16 3.12-.24 1.8-1.16 2.28-2.28c.48-.8.68-1.72.6-2.76-.08-1.04-.04-2.04.12-3 0-.32.04-1 .12-2.04l.24-3.12c.08-1.04.2-2.04.36-3 .16-.96.24-1.6.24-1.92.16-.8.48-2.24.96-4.32s.96-4.24 1.44-6.48.96-4.36 1.44-6.36.72-3.4.72-4.2c.16-2.24-.04-4.52-.6-6.84-.56-2.32-1.48-4.36-2.76-6.12-2.72-3.52-6.32-5.92-10.8-7.2-1.28-.32-2.64-.72-4.08-1.2s-2.8-.72-4.08-.72c-1.44 0-2.6.44-3.48 1.32-.88.88-1.4 1.84-1.56 2.88-.16 1.04.04 2.08.6 3.12.56 1.04 1.56 1.72 3 2.04 1.76.48 3.56.92 5.4 1.32 1.84.4 3.56 1.08 5.16 2.04.64.48 1.2 1.04 1.68 1.68.48.64.88 1.36 1.2 2.16.64 1.28.88 2.68.72 4.2-.16 1.52-.4 3-.72 4.44-1.28 5.28-2.44 10.56-3.48 15.84a83.007 83.007 0 0 0-1.56 16.08Zm165.6-1.2c-.48 1.28-.52 2.48-.12 3.6s1.08 2 2.04 2.64c.96.64 2 .88 3.12.72 1.12-.16 2.16-.8 3.12-1.92.32-.32.64-.88.96-1.68.32-.8.48-1.36.48-1.68.16-.64.2-1.2.12-1.68-.08-.48-.04-.96.12-1.44.64-3.52.76-7.04.36-10.56-.4-3.52-.76-7.04-1.08-10.56-.16-2.24-.68-4.84-1.56-7.8s-2-5.84-3.36-8.64c-1.36-2.8-2.92-5.36-4.68-7.68-1.76-2.32-3.68-3.88-5.76-4.68-2.4-.96-4.92-1.44-7.56-1.44-2.64 0-5.16.32-7.56.96-1.28.32-2.64.64-4.08.96-1.44.32-2.56.96-3.36 1.92-1.12 1.44-1.36 3-.72 4.68.64 1.68 1.84 2.68 3.6 3 .32.16 1.04.12 2.16-.12s2.36-.48 3.72-.72c1.36-.24 2.6-.48 3.72-.72s1.92-.36 2.4-.36c.32 0 .96.08 1.92.24.96.16 1.6.32 1.92.48.64.32 1.56 1.2 2.76 2.64 1.2 1.44 1.96 2.56 2.28 3.36.32.32.76 1.36 1.32 3.12s1 2.8 1.32 3.12c.32.8.68 2.08 1.08 3.84.4 1.76.76 3.6 1.08 5.52.32 1.92.56 3.76.72 5.52.16 1.76.24 3.12.24 4.08v5.64c0 1.2-.08 2.32-.24 3.36-.16 1.04-.32 1.8-.48 2.28m-77.76 2.64c.96.8 2 1.16 3.12 1.08 1.12-.08 2.08-.44 2.88-1.08.8-.64 1.36-1.48 1.68-2.52.32-1.04.24-2.12-.24-3.24-.32-.48-.52-1-.6-1.56-.08-.56-.28-1.16-.6-1.8-.16-.48-.64-1.52-1.44-3.12-.8-1.6-1.36-2.56-1.68-2.88a13.11 13.11 0 0 0-4.8-4.08c-1.92-.96-3.92-1.76-6-2.4-1.44-.32-2.92-.48-4.44-.48h-4.44c-1.28 0-2.36.36-3.24 1.08-.88.72-1.44 1.6-1.68 2.64s-.16 2.08.24 3.12 1.16 1.8 2.28 2.28c1.28.64 2.52.84 3.72.6 1.2-.24 2.44-.28 3.72-.12.96.16 2.24.52 3.84 1.08 1.6.56 2.64 1.24 3.12 2.04.64.8 1.12 1.72 1.44 2.76.32 1.04.64 2.12.96 3.24.32 1.6 1.04 2.72 2.16 3.36"/><path id="d" d="M316.228 168.24c-4.16.32-8.2.44-12.12.36-3.92-.08-7.88-.2-11.88-.36h-11.04c-4.32 0-8.56-.2-12.72-.6-4.16-.4-8-1.2-11.52-2.4-3.52-1.2-5.92-3.16-7.2-5.88-1.76-3.68-2.52-7.72-2.28-12.12.24-4.4 1.48-8.2 3.72-11.4 2.24-2.72 4.8-4.32 7.68-4.8 1.6-.32 3.2-.68 4.8-1.08 1.6-.4 3.2-.76 4.8-1.08-.8-14.08-1.04-28.04-.72-41.88.32-13.84.24-27.8-.24-41.88-2.88.16-5.88-.04-9-.6-3.12-.56-5.72-1.96-7.8-4.2-2.24-2.24-3.72-4.72-4.44-7.44-.72-2.72-.84-5.4-.36-8.04.48-2.64 1.6-5.12 3.36-7.44 1.76-2.32 4-4.2 6.72-5.64 3.2-1.76 6.52-3 9.96-3.72 3.44-.72 6.92-1.24 10.44-1.56 7.52-.64 15-.76 22.44-.36 7.44.4 15 .92 22.68 1.56 2.88.16 5.8.52 8.76 1.08s5.56 1.72 7.8 3.48c2.72 2.24 4.64 5.28 5.76 9.12 1.12 3.84 1.28 7.52.48 11.04-.32 1.28-.76 2.6-1.32 3.96a9.071 9.071 0 0 1-2.52 3.48c-2.72 2.4-5.84 4.04-9.36 4.92-3.52.88-7.04 1.48-10.56 1.8.16 14.08-.04 28.08-.6 42-.56 13.92-.6 27.92-.12 42 1.76 0 3.6.08 5.52.24 1.92.16 3.76.64 5.52 1.44 1.76.8 3.36 2 4.8 3.6s2.6 3.4 3.48 5.4c.88 2 1.44 4.08 1.68 6.24s.12 4.2-.36 6.12c-.64 2.4-1.72 4.72-3.24 6.96-1.52 2.24-3.4 3.84-5.64 4.8-2.4.96-4.88 1.64-7.44 2.04-2.56.4-5.2.68-7.92.84m14.64-136.8c1.76 1.44 3.6 1.52 5.52.24 1.92-1.28 2.64-3.04 2.16-5.28-.16-.32-.44-1.04-.84-2.16-.4-1.12-.68-1.84-.84-2.16-.96-1.92-2.32-3.6-4.08-5.04-1.76-1.44-3.6-2.56-5.52-3.36-2.08-.8-4.2-1.36-6.36-1.68-2.16-.32-4.36-.64-6.6-.96l-3.36-.48a23.73 23.73 0 0 0-3.36-.24c-1.12 0-2.2.04-3.24.12-1.04.08-2.04-.04-3-.36-1.28-.16-2.4 0-3.36.48a4.71 4.71 0 0 0-2.16 2.16c-.48.96-.6 2-.36 3.12s.84 2.08 1.8 2.88c.48.32 1.28.56 2.4.72 1.12.16 2.32.28 3.6.36 1.28.08 2.52.16 3.72.24 1.2.08 2.12.12 2.76.12.48 0 1.28.08 2.4.24 1.12.16 2.28.32 3.48.48 1.2.16 2.36.32 3.48.48 1.12.16 1.92.32 2.4.48.64.16 1.72.64 3.24 1.44 1.52.8 2.44 1.44 2.76 1.92.8.8 1.32 1.84 1.56 3.12s.84 2.32 1.8 3.12"/><path id="f" d="M400.284 171.6c-4.48.16-9.04-.32-13.68-1.44-4.64-1.12-8.48-3.28-11.52-6.48-1.92-1.92-3.24-4.24-3.96-6.96-.72-2.72-1.16-5.44-1.32-8.16-.16-6.56.48-12.96 1.92-19.2 1.44-6.24 2.56-12.56 3.36-18.96.8-6.08 1.36-12.12 1.68-18.12.32-6 .64-12.04.96-18.12 0-1.6-.12-3.96-.36-7.08s-.56-6.6-.96-10.44c-.4-3.84-.8-7.84-1.2-12-.4-4.16-.72-8.16-.96-12s-.32-7.24-.24-10.2c.08-2.96.44-5.16 1.08-6.6 1.44-3.52 3.88-6.48 7.32-8.88 3.44-2.4 7-4.08 10.68-5.04 5.12-1.44 10.64-1.76 16.56-.96 5.92.8 11.04 2.88 15.36 6.24 3.04 2.56 5.28 5.8 6.72 9.72 1.44 3.92 2.32 7.88 2.64 11.88.32 3.68.08 7.24-.72 10.68-.8 3.44-1.36 7-1.68 10.68 5.28-4.16 10.36-8.56 15.24-13.2 4.88-4.64 9.88-9.2 15-13.68 3.52-2.88 7.16-5.64 10.92-8.28 3.76-2.64 7.8-4.6 12.12-5.88 4.16-1.28 8.56-1.64 13.2-1.08 4.64.56 8.8 1.96 12.48 4.2 2.72 1.76 5.04 3.96 6.96 6.6 1.92 2.64 3.36 5.48 4.32 8.52.96 2.88 1.44 6.12 1.44 9.72 0 3.6-.4 7.08-1.2 10.44-.8 3.36-2.08 6.48-3.84 9.36-1.76 2.88-3.92 5.12-6.48 6.72-4 2.24-8.36 3.56-13.08 3.96-4.72.4-9.32 1.16-13.8 2.28-2.72.64-5.52 1.52-8.4 2.64-2.88 1.12-5.48 2.48-7.8 4.08-2.32 1.6-4.24 3.52-5.76 5.76-1.52 2.24-2.12 4.72-1.8 7.44.32 1.76 1 3.48 2.04 5.16 1.04 1.68 2.28 3.16 3.72 4.44 2.24 2.08 4.72 3.8 7.44 5.16 2.72 1.36 5.44 2.52 8.16 3.48 3.68 1.28 7.44 2.4 11.28 3.36 3.84.96 7.52 2.32 11.04 4.08 2.24 1.28 4.24 2.84 6 4.68 1.76 1.84 3.12 3.88 4.08 6.12 2.56 5.76 3.12 11.76 1.68 18-1.44 6.24-4.56 11.44-9.36 15.6-2.88 2.4-6.2 4.2-9.96 5.4-3.76 1.2-7.48 1.8-11.16 1.8-4.64 0-9.2-.72-13.68-2.16-4.48-1.44-8.56-3.44-12.24-6a79.166 79.166 0 0 1-18.84-16.92 182.57 182.57 0 0 1-14.52-20.76c.8 8.8.72 17.36-.24 25.68-.32 2.08-.68 4.16-1.08 6.24s-1 4.08-1.8 6c-.96 3.04-2.64 5.52-5.04 7.44-2.72 1.92-5.72 3.2-9 3.84-3.28.64-6.52 1.04-9.72 1.2m19.92-146.64c.64 1.28 1.52 2.12 2.64 2.52 1.12.4 2.2.44 3.24.12s1.88-.96 2.52-1.92c.64-.96.8-2.16.48-3.6-.32-1.12-.72-2.16-1.2-3.12s-1.04-1.84-1.68-2.64c-2.08-2.88-4.8-5.2-8.16-6.96-3.36-1.76-6.8-2.8-10.32-3.12-1.92-.16-3.88-.28-5.88-.36-2-.08-3.88.04-5.64.36h-.96c-1.44-.32-2.64-.12-3.6.6s-1.6 1.6-1.92 2.64c-.32 1.04-.32 2.16 0 3.36.32 1.2 1.12 2.12 2.4 2.76.48.16 1.2.24 2.16.24.96 0 1.96-.04 3-.12 1.04-.08 2.04-.16 3-.24.96-.08 1.68-.12 2.16-.12 2.24.16 4.4.44 6.48.84 2.08.4 4 1.16 5.76 2.28 1.28.8 2.32 1.76 3.12 2.88.8 1.12 1.6 2.32 2.4 3.6Zm89.04 7.92c.16 1.76.72 3.04 1.68 3.84.96.8 2.04 1.24 3.24 1.32 1.2.08 2.28-.28 3.24-1.08.96-.8 1.44-2.08 1.44-3.84 0-2.24-.6-4.4-1.8-6.48-1.2-2.08-2.72-3.96-4.56-5.64a26.82 26.82 0 0 0-6.12-4.2c-2.24-1.12-4.48-1.92-6.72-2.4-3.36-.48-6.84-.56-10.44-.24-3.6.32-6.92 1.2-9.96 2.64-1.6.8-2.52 1.84-2.76 3.12-.24 1.28-.08 2.44.48 3.48.56 1.04 1.48 1.84 2.76 2.4 1.28.56 2.64.44 4.08-.36l.48-.24c.16 0 .32-.08.48-.24 1.12-.48 2.52-.84 4.2-1.08 1.68-.24 3.4-.32 5.16-.24 1.76.08 3.44.28 5.04.6 1.6.32 2.88.8 3.84 1.44.96.8 2.24 1.88 3.84 3.24 1.6 1.36 2.4 2.68 2.4 3.96"/><path id="h" d="M617.54 168.24c-4.16.32-8.2.44-12.12.36-3.92-.08-7.88-.2-11.88-.36H582.5c-4.32 0-8.56-.2-12.72-.6-4.16-.4-8-1.2-11.52-2.4-3.52-1.2-5.92-3.16-7.2-5.88-1.76-3.68-2.52-7.72-2.28-12.12.24-4.4 1.48-8.2 3.72-11.4 2.24-2.72 4.8-4.32 7.68-4.8 1.6-.32 3.2-.68 4.8-1.08 1.6-.4 3.2-.76 4.8-1.08-.8-14.08-1.04-28.04-.72-41.88.32-13.84.24-27.8-.24-41.88-2.88.16-5.88-.04-9-.6-3.12-.56-5.72-1.96-7.8-4.2-2.24-2.24-3.72-4.72-4.44-7.44-.72-2.72-.84-5.4-.36-8.04.48-2.64 1.6-5.12 3.36-7.44 1.76-2.32 4-4.2 6.72-5.64 3.2-1.76 6.52-3 9.96-3.72 3.44-.72 6.92-1.24 10.44-1.56 7.52-.64 15-.76 22.44-.36 7.44.4 15 .92 22.68 1.56 2.88.16 5.8.52 8.76 1.08s5.56 1.72 7.8 3.48c2.72 2.24 4.64 5.28 5.76 9.12 1.12 3.84 1.28 7.52.48 11.04-.32 1.28-.76 2.6-1.32 3.96a9.071 9.071 0 0 1-2.52 3.48c-2.72 2.4-5.84 4.04-9.36 4.92-3.52.88-7.04 1.48-10.56 1.8.16 14.08-.04 28.08-.6 42-.56 13.92-.6 27.92-.12 42 1.76 0 3.6.08 5.52.24 1.92.16 3.76.64 5.52 1.44 1.76.8 3.36 2 4.8 3.6s2.6 3.4 3.48 5.4c.88 2 1.44 4.08 1.68 6.24s.12 4.2-.36 6.12c-.64 2.4-1.72 4.72-3.24 6.96-1.52 2.24-3.4 3.84-5.64 4.8-2.4.96-4.88 1.64-7.44 2.04-2.56.4-5.2.68-7.92.84m14.64-136.8c1.76 1.44 3.6 1.52 5.52.24 1.92-1.28 2.64-3.04 2.16-5.28-.16-.32-.44-1.04-.84-2.16-.4-1.12-.68-1.84-.84-2.16-.96-1.92-2.32-3.6-4.08-5.04-1.76-1.44-3.6-2.56-5.52-3.36-2.08-.8-4.2-1.36-6.36-1.68-2.16-.32-4.36-.64-6.6-.96l-3.36-.48a23.73 23.73 0 0 0-3.36-.24c-1.12 0-2.2.04-3.24.12-1.04.08-2.04-.04-3-.36-1.28-.16-2.4 0-3.36.48a4.71 4.71 0 0 0-2.16 2.16c-.48.96-.6 2-.36 3.12s.84 2.08 1.8 2.88c.48.32 1.28.56 2.4.72 1.12.16 2.32.28 3.6.36 1.28.08 2.52.16 3.72.24 1.2.08 2.12.12 2.76.12.48 0 1.28.08 2.4.24 1.12.16 2.28.32 3.48.48 1.2.16 2.36.32 3.48.48 1.12.16 1.92.32 2.4.48.64.16 1.72.64 3.24 1.44 1.52.8 2.44 1.44 2.76 1.92.8.8 1.32 1.84 1.56 3.12s.84 2.32 1.8 3.12Z"/></defs><g fill="none"><path fill="url(#a)" d="M0 1024V0h1024v1024z"/><g transform="translate(179.176 780.483)"><use xlink:href="#b" fill="#FE042C"/><use xlink:href="#b" fill="url(#c)"/></g><g transform="translate(179.176 780.483)"><use xlink:href="#d" fill="#FE042C"/><use xlink:href="#d" fill="url(#e)"/></g><g transform="translate(179.176 780.483)"><use xlink:href="#f" fill="#FE042C"/><use xlink:href="#f" fill="url(#g)"/></g><g transform="translate(179.176 780.483)"><use xlink:href="#h" fill="#FE042C"/><use xlink:href="#h" fill="url(#e)"/></g><path fill="#000" d="M551.962 401.755c-11.788 0-23.943 2.973-34.625 8.549-13.998 7.434-29.837 11.522-45.676 11.522-54.516 0-98.35-44.603-98.35-99.242 0-54.64 44.203-99.243 98.35-99.243 16.576 0 32.783 4.089 47.149 11.894L626 297.68V169.074c0-57.613-61.883-93.667-111.242-65.047L251.02 257.537c-49.359 28.992-49.359 101.101 0 129.722l263.37 153.51c49.36 28.992 111.243-7.062 111.243-65.047v-2.973c-1.474-39.4-34.257-70.994-73.67-70.994"/><path fill="#000" d="M551.962 401.755c-11.788 0-23.943 2.973-34.625 8.549-13.998 7.434-29.837 11.522-45.676 11.522-54.516 0-98.35-44.603-98.35-99.242 0-54.64 44.203-99.243 98.35-99.243 16.576 0 32.783 4.089 47.149 11.894L626 297.68V169.074c0-57.613-61.883-93.667-111.242-65.047L251.02 257.537c-49.359 28.992-49.359 101.101 0 129.722l263.37 153.51c49.36 28.992 111.243-7.062 111.243-65.047v-2.973c-1.474-39.4-34.257-70.994-73.67-70.994"/><path fill="url(#i)" d="M337.962 307.755c-11.788 0-23.943 2.973-34.625 8.549-13.998 7.434-29.837 11.522-45.676 11.522-54.516 0-98.35-44.603-98.35-99.242 0-54.64 44.203-99.243 98.35-99.243 16.576 0 32.783 4.089 47.149 11.894L412 203.68V75.074c0-57.613-61.883-93.667-111.242-65.047L37.02 163.537c-49.359 28.992-49.359 101.101 0 129.722l263.37 153.51c49.36 28.992 111.243-7.062 111.243-65.047v-2.973c-1.474-39.4-34.257-70.994-73.67-70.994" transform="translate(214 94)"/><path fill="url(#j)" d="M136.105 105.924S101.481 211.857 181.413 291.4c0 0-22.101-28.62-22.101-62.816 0-54.64 44.202-99.243 98.35-99.243 16.575 0 32.782 4.089 47.148 11.894L412 203.68V75.074c0-57.613-61.883-93.667-111.242-65.047l-164.653 95.897c-3.683 15.612-5.525 31.966-5.525 48.692 0-16.726 1.842-33.08 5.525-48.692" transform="translate(214 94)"/><path fill="url(#k)" d="M312.545 412.944 53.227 262.408c-30.942-18.213-42.729-53.152-34.625-83.631-29.837 33.824-23.575 89.95 18.786 114.482l263.37 153.51c47.149 27.505 105.717-4.089 110.874-56.87-20.996 30.851-63.357 44.232-99.087 23.045" transform="translate(214 94)"/><path fill="url(#l)" d="M194.305 152.758s53.042-53.896 217.327-47.577l.368 98.87-107.19-62.444c-.368 0-54.148-34.196-110.505 11.15" transform="translate(214 94)"/><path fill="#000" d="M469.407 400.064c11.787 0 23.943-2.972 34.625-8.544 13.997-7.43 29.836-11.515 45.675-11.515 54.148 0 98.35 44.575 98.35 99.18 0 54.606-44.202 99.182-98.35 99.182-16.576 0-32.783-4.086-47.149-11.887l-107.19-62.406v128.899c0 57.577 61.883 93.609 111.242 65.006l263.37-153.415c49.36-28.974 49.36-101.039 0-129.642L506.61 261.507c-49.359-28.974-111.242 7.058-111.242 65.007v2.971c1.474 39.004 34.257 70.579 74.039 70.579"/><path fill="#000" d="M469.407 400.064c11.787 0 23.943-2.972 34.625-8.544 13.997-7.43 29.836-11.515 45.675-11.515 54.148 0 98.35 44.575 98.35 99.18 0 54.606-44.202 99.182-98.35 99.182-16.576 0-32.783-4.086-47.149-11.887l-107.19-62.406v128.899c0 57.577 61.883 93.609 111.242 65.006l263.37-153.415c49.36-28.974 49.36-101.039 0-129.642L506.61 261.507c-49.359-28.974-111.242 7.058-111.242 65.007v2.971c1.474 39.004 34.257 70.579 74.039 70.579"/><path fill="url(#m)" d="M74.407 149.064c11.787 0 23.943-2.972 34.625-8.544 13.997-7.43 29.836-11.515 45.675-11.515 54.148 0 98.35 44.575 98.35 99.18 0 54.606-44.202 99.182-98.35 99.182-16.576 0-32.783-4.086-47.149-11.887L.368 253.074v128.899c0 57.577 61.883 93.609 111.242 65.006l263.37-153.415c49.36-28.974 49.36-101.039 0-129.642L111.61 10.507C62.251-18.467.368 17.565.368 75.514v2.971c1.474 39.004 34.257 70.579 74.039 70.579" transform="translate(395 251)"/><path fill="url(#n)" d="M281.42 302.108c0 16.716-1.842 33.06-5.525 48.662 0 0 34.624-105.868-45.308-185.362 0 0 22.101 28.603 22.101 62.778 0 54.605-44.202 99.181-98.35 99.181-16.575 0-32.782-4.086-47.148-11.887L0 253.074v128.899c0 57.577 61.883 93.609 111.242 65.006l164.284-95.838c4.052-15.973 5.894-32.317 5.894-49.033" transform="translate(395 251)"/><path fill="url(#o)" d="m99.455 43.939 259.318 150.444c30.942 18.201 42.729 53.12 34.625 83.58 29.837-33.804 23.575-89.895-18.786-114.412L111.242 10.136C64.093-17.353 5.525 14.222.368 66.97c20.996-30.832 63.357-43.833 99.087-23.031" transform="translate(395 251)"/><path fill="url(#p)" d="M218.063 303.965S165.021 357.827.737 351.513l-.369-98.81 107.19 62.406s53.78 34.175 110.505-11.144" transform="translate(395 251)"/></g></svg>