<svg xmlns="http://www.w3.org/2000/svg" width="1024" height="1024"><g fill="none" fill-rule="evenodd"><path fill="#5D6EF1" d="M0 0h1024v1024H0z"/><path fill="#FFF" d="M277 237h470c29.271 0 53 23.73 53 53v432.75c0 26.096-21.155 47.25-47.25 47.25v43.5h-76V770H347v43.5h-76V770c-25.957 0-47-21.042-47-47V290c0-29.27 23.729-53 53-53"/><path fill="#5D6FEF" d="M272 284h285l3 440H272zM589 284h161.302L752 724H589z"/><rect width="55" height="28" x="649" y="348.001" fill="#FFF" rx="14"/><rect width="55" height="28" x="649" y="421.001" fill="#FFF" rx="14"/></g></svg>