<?xml version="1.0" encoding="UTF-8"?>
<svg width="1024px" height="1024px" viewBox="0 0 1024 1024" version="1.1" xmlns="http://www.w3.org/2000/svg" xmlns:xlink="http://www.w3.org/1999/xlink">
    <title>Tailwindcss</title>
    <g id="Icon-SVG" stroke="none" stroke-width="1" fill="none" fill-rule="evenodd">
        <g id="Tailwindcss" transform="translate(0, -0.0008)">
            <rect id="蒙版路径" fill="#FFFFFF" x="0" y="0" width="1024" height="1024"></rect>
            <g id="编组" transform="translate(112, 272.0008)" fill="#4EB9FA">
                <path d="M400.02328,0 C293.330229,0 226.679083,53.3348853 199.97672,160.004656 C239.995344,106.693051 286.648819,86.6720987 339.983704,100.01164 C370.410895,107.600978 392.177861,129.670585 416.226283,154.114771 C455.453381,193.923874 500.849726,239.995344 600,239.995344 C706.669771,239.995344 773.320917,186.660459 800,80.0139681 C760.004656,133.325573 713.327901,153.346525 660.016296,139.983704 C629.565825,132.394366 607.798859,110.324758 583.750437,85.8805727 C544.523338,46.0947503 499.126993,0 400.02328,0 Z M199.97672,239.995344 C93.3535095,239.995344 26.6558026,293.330229 0,400 C39.995344,346.665115 86.6720987,326.667443 139.983704,340.006984 C170.434175,347.596322 192.201141,369.665929 216.249563,394.110115 C255.476662,433.919218 300.873007,479.990688 400.02328,479.990688 C506.693051,479.990688 573.344197,426.679083 600,320.009312 C560.004656,373.320917 513.351181,393.341869 460.016296,380.002328 C429.589105,372.38971 407.822139,350.296822 383.750437,325.875917 C344.546619,286.066814 299.150274,239.995344 200,239.995344 L199.97672,239.995344 Z" id="形状"></path>
            </g>
        </g>
    </g>
</svg>