<svg xmlns="http://www.w3.org/2000/svg" width="1024" height="1024"><g fill="none" fill-rule="evenodd"><path fill="#FFF" d="M0 0h1024v1024H0z"/><path fill="#4EB9FA" d="M512.023 272c-106.693 0-173.344 53.335-200.046 160.005 40.018-53.312 86.672-73.333 140.007-59.993 30.427 7.589 52.194 29.659 76.242 54.103 39.227 39.809 84.624 85.88 183.774 85.88 106.67 0 173.32-53.335 200-159.981-39.995 53.312-86.672 73.333-139.984 59.97-30.45-7.59-52.217-29.66-76.266-54.103C656.523 318.095 611.127 272 512.023 272M311.977 511.995C205.354 511.995 138.656 565.33 112 672c39.995-53.335 86.672-73.333 139.984-59.993 30.45 7.59 52.217 29.659 76.266 54.103 39.227 39.81 84.623 85.88 183.773 85.88 106.67 0 173.321-53.31 199.977-159.98-39.995 53.31-86.649 73.332-139.984 59.992-30.427-7.612-52.194-29.705-76.266-54.126-39.203-39.81-84.6-85.88-183.75-85.88h-.023"/></g></svg>