<svg xmlns="http://www.w3.org/2000/svg" width="1024" height="1024"><defs><linearGradient id="a" x1="50%" x2="50%" y1="0%" y2="100%"><stop offset="0%" stop-color="#35CF96"/><stop offset="100%" stop-color="#1276BB"/></linearGradient><linearGradient id="b" x1="50%" x2="50%" y1="17.478%" y2="100%"><stop offset="0%" stop-color="#35CF96"/><stop offset="100%" stop-color="#1276BB"/></linearGradient><linearGradient id="c" x1="50%" x2="50%" y1="0%" y2="209.723%"><stop offset="0%" stop-color="#35CF96"/><stop offset="100%" stop-color="#1276BB"/></linearGradient><linearGradient id="d" x1="50%" x2="50%" y1="0%" y2="223.101%"><stop offset="0%" stop-color="#35CF96"/><stop offset="100%" stop-color="#1276BB"/></linearGradient></defs><g fill="none" fill-rule="evenodd"><path fill="#FFF" d="M0 0h1024v1024H0z"/><ellipse cx="512" cy="512.001" fill="url(#a)" fill-opacity=".8" fill-rule="nonzero" rx="370" ry="370.001"/><circle cx="512" cy="512.001" r="350" fill="#042D51" fill-rule="nonzero"/><g fill-opacity=".8" fill-rule="nonzero"><path fill="url(#b)" d="M458.7 108.2c-4.3 2.2-6.5 6.5-13 8.6-4.3 2.2-10.8 0-15.1 2.2-17.3 6.5-15.2 41.1-36.8 36.8-10.8-2.2-17.3-15.2-23.8-23.8-4.3-6.5-13-13-6.5-21.6h-8.6c4.3-8.7 15.1-6.5 17.3-10.9 4.3-10.8-13-10.8-19.5-13 6.5-6.4 8.6 2.2 15.1 0 6.5-2.1-2.1-8.6-6.5-10.8-2.1 0-21.6 6.5-10.8-4.3-15.1-8.7-30.3-19.5-45.4-28.1-2.2 10.8 19.5 17.3 28.1 19.4-2.1 4.4-8.6 10.9-13 8.7-4.3-2.2-2.1-10.8-10.8-8.7-4.3 13 10.8 8.7 13 17.4 2.2 8.6-6.5 4.3-8.7 4.3-6.4-2.2 2.2 2.1 4.4 6.5-10.8 0-17.3-4.4-26-8.7-10.8-6.5-15.1-6.5-28.1-6.5 4.3-2.1 8.6-2.1 13-4.3 2.1-2.2 8.6-8.7 8.6-10.8 2.2-6.5 0-6.5-6.5-10.8-2.1-2.2-8.6-10.9-17.3-10.9-23.8-4.3-8.6 21.7-26 26-4.3 0-12.9-2.2-15.1 2.2-2.2 2.1-2.2 8.6-4.3 10.8-4.4 4.3-10.8 4.3-15.2 8.6-4.3 2.2-15.1 10.9-17.3 15.2-10.8 19.5 21.7 26 34.6 30.3 6.5 2.2 21.7 6.5 23.8 10.8 4.4 6.5-4.3 10.8 4.4 15.2 2.1 2.1 8.6 2.1 10.8-2.2 4.3-4.3-2.2-4.3-2.2-10.8-2.1-8.7 2.2-6.5 6.5-8.7 8.7-6.5 6.5-8.6 4.3-19.5-2.1-4.3-8.6-19.4-2.1-23.8 6.5-4.3 21.6 2.2 28.1 4.4 6.5 0 10.8 8.6 13 13 2.2 2.1 6.5 6.4 10.8 6.4 6.5 0 4.3-6.4 6.5-8.6 10.8-6.5 13 2.2 17.3 10.8 4.3 8.7 6.5 10.8 13 17.3 2.2 2.2 17.3 10.8 15.1 17.3 0 4.4-15.1 8.7-19.4 10.8-15.2 4.4-43.3-8.6-45.5 15.2 6.5-2.2 21.7-15.2 26-8.7 2.2 2.2-2.2 6.5 0 10.9 2.2 8.6 8.6 6.4 17.3 4.3H344c8.7-4.3 8.7-4.3 13-10.8 2.2-2.2 4.3-8.7 6.5-10.9 6.5-6.4 8.7-2.1 13 2.2 2.2 2.2 10.8 17.3 8.6 15.2-12.9-2.2-23.8-2.2-34.6 4.3-6.5 4.3-10.8 8.6-17.3 10.8-2.1 0-15.1 2.2-13 0 2.2-2.2 8.7-4.3 13-8.7-8.6-4.3-15.1 4.4-21.6 8.7-6.5 2.2-8.7 8.7-13 15.1-2.2 2.2-6.5 2.2-8.7 6.5-2.1 2.2-2.1 6.5-4.3 10.9-2.1 2.1-6.5 0-6.5 4.3-2.1 4.3 2.2 6.5 0 10.8-2.1 4.3-10.8 8.7-15.1 13l2.1-2.2c-4.3 4.3-8.6 6.5-10.8 10.8 2.2 6.5 6.5 21.7 4.3 23.8-10.8 8.7-17.3-8.6-21.6-12.9-10.8-15.2-30.3-4.4-45.4-4.4-17.3 2.2-34.6 23.8-23.8 43.3 4.3 8.7 15.1 13 23.8 10.8 8.6-2.1 10.8-15.1 19.4-15.1 15.2 0 0 15.1 0 21.6-2.1 4.3 2.2 6.5 6.5 6.5 4.4 0 10.9-2.2 13 0 2.2 2.2 2.2 8.7 4.3 6.5-6.4 4.3-4.3 17.3 2.2 21.6 6.5 4.4 15.2 0 21.6 2.2 13 4.3 6.5 0 19.5-8.7 8.7-4.3 8.7 0 15.2 0 4.3 0 6.5-4.3 13-4.3 4.3 2.2 6.4 4.3 12.9 6.5h6.5c10.8 2.2 19.5 8.7 28.2 15.2 6.4 4.3 12.9 4.3 21.6 6.4 6.5 2.2 17.3 10.9 17.3 19.5 0 2.2-6.5 8.7-6.5 10.8 2.2 2.2 13-2.1 15.2-2.1 0 2.1-8.7 6.5-8.7 4.3 0 2.2 4.3 4.3 6.5 4.3 4.3-13 10.8-4.3 17.3-2.1 6.5 2.1 15.1 2.1 21.6 4.3 6.5 2.2 19.5 6.5 23.8 10.8 4.4 6.5 2.2 15.2-2.1 21.6-4.4 8.7-13 10.9-17.3 19.5-2.2 6.5 0 15.2-2.2 21.7-2.2 10.8-4.3 6.5-10.8 12.9-6.5 6.5 0 4.4-8.7 8.7-8.6 4.3-15.1 2.2-21.6 10.8V528c-2.2 4.3-4.3 10.8-4.3 12.9-2.2 6.5-6.5 8.7-10.9 13-2.1 2.2-17.3 23.8-17.3 21.7-2.1-2.2-12.9 2.1-12.9 0 0 2.1 0 2.1 2.1 4.3-2.1 17.3-10.8 19.5-28.1 19.5 2.2 8.6-6.5 6.4-10.8 10.8-2.2 2.1-2.2 10.8-4.4 13 0 2.1-8.6 10.8-8.6 12.9 0 2.2 2.2 4.4 4.3 6.5-13 2.2-23.8 4.4-36.8 4.4 2.2-2.2 2.2-6.5-4.3-6.5 2.2-6.5 6.5-8.7 8.7-13V621c2.1-8.7 2.1-4.3 0-10.8-4.4-15.2 2.1-19.5 6.5-34.6 4.3-15.2 4.3-32.5 6.4-49.8 2.2-6.5 4.4-23.8 0-30.3-2.1-8.7-15.1-15.1-21.6-19.5-8.7-8.6-13-15.1-19.5-25.9-2.1-4.4-6.5-8.7-8.6-15.2-4.4-10.8 0-4.3 0-10.8 0-6.5 0-13 2.1-19.5 2.2-6.5 8.7-13 13-19.5 2.2-6.4 0-15.1-6.5-17.3-4.3-2.1-8.6 2.2-10.8 0-4.3 0-10.8-4.3-15.1-8.6-6.5-4.3-8.7-10.8-15.2-15.2-4.3-4.3-8.6-2.1-15.1-2.1-6.5-2.2-8.7-8.7-13-10.8-6.5-4.4-10.8 2.1-17.3 0-6.5 0-15.2-8.7-21.7-10.9-12.9-4.3-19.4-10.8-23.8-23.8-4.3-10.8-10.8-15.1-17.3-23.8-6.5-8.6-8.6-15.1-19.4-19.4-2.2 0 2.1 8.6 2.1 10.8 4.3 6.5 10.8 13 15.2 21.6 6.5 10.8 4.3 10.8-2.2 2.2-8.7-10.8-17.3-21.7-23.8-32.5 4.3 4.3 4.3 0 0-4.3s-10.8-6.5-13-10.8c-15.1-13-17.3-32.5-17.3-52 0-6.4 2.2-10.8 2.2-17.3 0-4.3-4.4-8.6-8.7-12.9-2.1-2.2-4.3-6.5-4.3-6.5-4.3-6.5-6.5-10.9-10.8-15.2-2.2-2.1-10.8-8.6-19.5-15.1l132-99.6 2 8.7c6.6 6.5 11 6.5 17.5 8.6 0 8.7-13 10.9-19.5 8.7-8.7-2.2-19.5-4.3-26 4.3 4.4 2.2 17.3 13 15.2 2.2h25.9c4.4 0 15.2 4.3 17.3 2.2 2.2 0 2.2-6.5 4.4-8.7-2.2 0-4.4-2.2-6.5 0 6.5-6.5 10.8-2.2 19.5 2.2-8.7 4.3-2.2 17.3 4.3 6.5 6.5-8.7-2.2-13-8.7-17.4 8.7-10.8 13-10.8 21.7 0 2.1-6.4 6.5-4.3 12.9-4.3v-2.1c-2.1 0-6.4-2.2-8.6-2.2 6.5-10.8 2.2-13 10.8-15.2 6.5-2.1 26 0 30.3-6.4-13 2.1-30.3 4.3-43.3 8.6-6.5 2.2-10.8 10.8-17.3 6.5-6.5-6.5 4.3-15.1 8.7-17.3h-2.2C212 2.2 235.8 0 259.6 0c15.2 0 30.3 2.2 45.5 2.2-4.3 2.1-2.2 4.3-4.3 6.5-6.5 4.3-19.5 8.6-28.2 12.9 10.9 0 36.8 10.9 41.1-4.3-4.3 0-6.4 0-10.7-2.2 6.4-4.3 12.9-8.6 21.6-10.8 62.7 15.2 123.3 49.8 166.6 97.4-13 0-21.7 0-32.5 6.5" transform="translate(256 185)"/><path fill="url(#c)" d="M549.433 236.795c0-2.163 2.163-2.163 2.163-2.163 2.164-2.164 0-4.328 2.164-6.492 2.164-2.163 4.328-2.163 6.491-4.327l2.164-2.164c6.491 15.146 10.819 30.293 12.983 47.602l-6.492 2.164c-4.327 0-6.49-2.164-8.655-4.327l-8.655-8.655c-2.163-4.328 0-6.491 0-10.819-2.163-4.327-4.327-8.655-2.163-10.819" transform="translate(256 185)"/><path fill="url(#d)" d="M553.76 405.567c-6.491-6.491-12.982-12.982-17.31-19.473-4.327-8.655-2.163-15.147-2.163-23.802 0-6.49-4.328-17.31 0-23.8l6.49-6.492c2.165-4.327 2.165-8.655 6.492-12.982 4.327-4.328 8.655-6.492 12.982-10.82 4.328-4.327 4.328-6.49 6.492-12.982 2.163-4.327 6.49-10.818 10.818-12.982 2.164 17.31 4.328 32.456 4.328 49.766 0 28.129-4.328 58.421-10.819 84.386-6.491-2.164-12.982-6.491-17.31-10.819" transform="translate(256 185)"/></g></g></svg>