<?xml version="1.0" encoding="UTF-8"?>
<svg width="1024px" height="1024px" viewBox="0 0 1024 1024" version="1.1" xmlns="http://www.w3.org/2000/svg" xmlns:xlink="http://www.w3.org/1999/xlink">
    <title>TTG</title>
    <defs>
        <linearGradient x1="-43.8435697%" y1="-44.5178294%" x2="117.951448%" y2="118.583111%" id="linearGradient-1">
            <stop stop-color="#FFFFFF" offset="0%"></stop>
            <stop stop-color="#101010" offset="72.7577567%"></stop>
            <stop stop-color="#101010" offset="100%"></stop>
        </linearGradient>
    </defs>
    <g id="ICON-新版方图标" stroke="none" stroke-width="1" fill="none" fill-rule="evenodd">
        <g id="TTG">
            <rect id="蒙版路径" fill="url(#linearGradient-1)" x="0" y="0" width="1024" height="1024"></rect>
            <g id="编组-25" transform="translate(142.1797, 173.6719)" fill="#FFFFFF" fill-rule="nonzero">
                <g id="T" transform="translate(162.0204, 146.2135)">
                    <polygon id="路径" points="0 0 354.265172 0 354.265172 93.132892 235.404962 93.132892 235.404962 377.162485 118.86021 377.162485 118.86021 93.132892 0 93.132892"></polygon>
                </g>
                <g id="T">
                    <polygon id="路径" points="0 0 354.265172 0 354.265172 93.132892 235.404962 93.132892 235.404962 377.162485 118.86021 377.162485 118.86021 93.132892 0 93.132892"></polygon>
                </g>
                <g id="G" transform="translate(355.8911, 287.3124)">
                    <path d="M204.017634,246.982255 L204.017634,168.513934 L384.108861,168.513934 L384.108861,329.309673 C349.634255,352.807291 319.147383,368.801107 292.648245,377.291122 C266.149107,385.781137 234.7189,390.026145 198.357624,390.026145 C153.59209,390.026145 117.102177,382.393707 88.8878845,367.128831 C60.6735922,351.863956 38.8053717,329.138158 23.283223,298.951438 C7.76107434,268.764718 0,234.118596 0,195.013072 C0,153.849363 8.49001502,118.045512 25.4700451,87.6015186 C42.4500751,57.1575254 67.3198161,34.0458178 100.079268,18.266396 C125.635071,6.08879865 160.023919,0 203.245814,0 C244.92407,0 276.097004,3.77334001 296.764616,11.32002 C317.432228,18.8667 334.583774,30.5726298 348.219252,46.4378094 C361.854731,62.302989 372.102779,82.4131761 378.963398,106.768371 L266.535017,126.835679 C261.9041,112.599896 254.057268,101.708665 242.994521,94.1619848 C231.931774,86.6153047 217.824628,82.8419647 200.673082,82.8419647 C175.117279,82.8419647 154.749819,91.7178895 139.570701,109.469739 C124.391584,127.221589 116.802025,155.307244 116.802025,193.726706 C116.802025,234.547385 124.477341,263.705012 139.827975,281.199588 C155.178608,298.694165 176.575161,307.441453 204.017634,307.441453 C217.052808,307.441453 229.487679,305.554783 241.322245,301.781443 C253.156811,298.008103 266.706532,291.576273 281.971408,282.485954 L281.971408,246.982255 L204.017634,246.982255 Z" id="路径"></path>
                </g>
            </g>
        </g>
    </g>
</svg>