<svg xmlns="http://www.w3.org/2000/svg" width="1024" height="1024"><defs><linearGradient id="a" x1="-43.844%" x2="117.951%" y1="-44.518%" y2="118.583%"><stop offset="0%" stop-color="#FFF"/><stop offset="72.758%" stop-color="#101010"/><stop offset="100%" stop-color="#101010"/></linearGradient></defs><g fill="none" fill-rule="evenodd"><path fill="url(#a)" d="M0 0h1024v1024H0z"/><g fill="#FFF" fill-rule="nonzero"><path d="M304.2 319.885h354.265v93.133h-118.86v284.03H423.06v-284.03H304.2z"/><path d="M142.18 173.672h354.265v93.133h-118.86v284.03H261.04v-284.03H142.18zM702.088 707.967v-78.469H882.18v160.796c-34.475 23.498-64.962 39.491-91.461 47.981-26.5 8.49-57.93 12.735-94.29 12.735-44.766 0-81.256-7.632-109.47-22.897-28.215-15.265-50.083-37.99-65.605-68.177-15.522-30.187-23.283-64.833-23.283-103.939 0-41.163 8.49-76.967 25.47-107.411 16.98-30.444 41.85-53.556 74.61-69.335 25.555-12.178 59.944-18.267 103.166-18.267 41.678 0 72.85 3.774 93.518 11.32 20.668 7.547 37.82 19.253 51.455 35.118 13.636 15.865 23.884 35.975 30.744 60.33L764.606 587.82c-4.631-14.236-12.478-25.127-23.54-32.674-11.063-7.546-25.17-11.32-42.322-11.32-25.556 0-45.923 8.876-61.102 26.628-15.18 17.752-22.77 45.838-22.77 84.257 0 40.82 7.676 69.978 23.027 87.473 15.35 17.494 36.747 26.242 64.19 26.242 13.035 0 25.47-1.887 37.304-5.66 11.835-3.774 25.384-10.205 40.65-19.296v-35.503h-77.955"/></g></g></svg>