<svg xmlns="http://www.w3.org/2000/svg" width="1024" height="1024"><g fill="none" fill-rule="evenodd"><path fill="#FAFAFA" d="M0 0h1024v1024H0z"/><path fill="#2E2E2E" d="M242 256h369.019a13 13 0 0 1 9.552 4.183L844.94 503.267a13 13 0 0 1 .084 17.542L620.581 768.725a13 13 0 0 1-9.637 4.275H242c-7.18 0-13-5.82-13-13V585.667c0-7.18 5.82-13 13-13h320.759a13 13 0 0 0 10.043-4.745l37.427-45.535a13 13 0 0 0 .357-16.054l-37.784-50.387a13 13 0 0 0-10.401-5.2H242c-7.18 0-13-5.821-13-13V269c0-7.18 5.82-13 13-13"/></g></svg>