<svg xmlns="http://www.w3.org/2000/svg" width="1024" height="1024"><g fill="none" fill-rule="evenodd"><path fill="#1B4B7B" d="M0 0h1024v1024H0z"/><path fill="#FFF" fill-rule="nonzero" d="M641.009 492.677h-3.844v-2.4h3.844zm158.575-331.902c-1.922 1.6-4.325 4.399-7.208 8.397-2.883 4-5.286 6.798-7.208 8.398 1.922-4.265 5.446-10.397 10.572-18.395 1.922 1.067 3.203 1.6 3.844 1.6m-28.832-3.2-2.883 4.8-1.922-1.6 2.883-3.999 1.922.8m14.416 21.594c0-1.066-1.602 1.333-4.805 7.198 0-1.6-.961-2.932-2.883-3.999 2.562-2.132 5.125-3.199 7.688-3.199m11.533 30.391c-1.282 2.666-2.883 6.665-4.805 11.997-.641 0-1.923.266-3.845.8-1.922 5.865-2.563 9.33-1.922 10.397 0-1.067-1.281-1.6-3.844-1.6 2.563-5.332 7.368-12.53 14.416-21.594m-17.3-21.593c-4.484 6.398-12.173 15.995-23.065 28.791l-6.727-7.198c1.922-1.066 3.844-1.6 5.766-1.6 1.282 0 1.602.534.961 1.6v2.4c1.282-.533 3.204-1.6 5.767-3.2l1.441-1.999c.961-1.333 1.442-2.532 1.442-3.599 0-.533-1.922-2.399-5.767-5.598h10.572c.64-2.666 1.922-6.398 3.844-11.197 2.563 0 4.485.533 5.767 1.6m0 45.586-2.882 5.599-1.923-.8 2.884-5.598 1.922.8m1.923 13.596h-1.922l-1.922-3.199h1.922l1.922 3.2m-77.846-47.186-1.922 4.799-1.922-.8 1.922-3.999h1.922m-45.17 19.994-6.727 7.198-1.923-1.6 6.728-6.397 1.922.8m-10.572 12.797-1.922 4.798-1.922-.8 1.922-3.998h1.922m-197.98-151.16c0-1.066-1.122.267-3.364 4-2.243 3.731-6.567 8.263-12.975 13.595h-2.883c-7.048 0-10.571-2.4-10.571-7.198 0-2.666 2.082-5.998 6.247-9.997C430.376 78 434.38 76 438.225 76c-4.485 0-.64 1.866 11.533 5.598ZM814 158.376l-17.3 21.593c0 1.067 1.603 1.6 4.806 1.6-3.844 4.798-8.97 11.463-15.377 19.994-.64 0-1.922.533-3.844 1.6-3.844 5.331-9.61 13.862-17.3 25.592.642.533 1.603.8 2.884.8-1.922 0-2.883.8-2.883 2.399 0-1.067-.32-2.133-.961-3.2-1.922 3.733-1.602 6.399.96 7.998l-47.091 71.18c-.64.532 0 .799 1.922.799.64 0 6.087-6.398 16.338-19.194a348.298 348.298 0 0 0 21.143-31.191c2.563-2.133 6.087-5.332 10.572-9.597-1.281 3.732-4.165 8.797-8.65 15.195v4.799c1.282 1.066 2.884 1.6 4.806 1.6-3.204 0 .96-1.334 12.494-4-10.252 6.399-18.26 18.129-24.027 35.19-2.563 4.266-6.727 10.93-12.494 19.994-1.281.533-2.883 1.333-4.805 2.4 0 1.066.961 1.6 2.883 1.6l-58.625 95.97h2.884c-4.485-.533-7.85 1.067-10.092 4.8-2.242 3.731-2.723 6.397-1.441 7.997 1.281 1.066 2.242 1.6 2.883 1.6 0-1.067.64-2 1.922-2.8 1.281-.8 1.922-1.466 1.922-2-24.347 49.586-58.625 122.365-102.833 218.336-1.923 1.066-4.485 2.933-7.689 5.598-.64 1.6-1.602 3.733-2.883 6.399-.64.533-.64 1.066 0 1.6 1.922 1.065 2.883 3.198 2.883 6.397 0 3.2-.961 5.332-2.883 6.398-.64 1.6 0 2.933 1.922 4-1.922 2.132-3.844 7.464-5.766 15.994-1.282 1.067-2.563 1.6-3.845 1.6-.64 0-6.727-3.466-18.26-10.397-5.125 4.265-8.65 9.064-10.571 14.396-2.563 2.132-4.485 3.199-5.767 3.199-7.048 0-12.494.8-16.338 2.399-.64-.533-1.281-1.2-1.922-2-.64-.8-.961-1.466-.961-1.999-4.485 2.133-6.728 4.532-6.728 7.198 0 1.066.962 4.532 2.884 10.397.64 1.6 2.563 3.866 5.766 6.798 3.204 2.932 4.805 4.932 4.805 5.998 0 1.067-1.12 2.533-3.363 4.399s-3.684 3.332-4.325 4.399c-.64 1.066-1.442 2.799-2.403 5.198-.96 2.4-3.043 3.599-6.247 3.599-4.485 0-8.329-2.133-11.532-6.398-1.923-2.666-2.243-6.798-.961-12.396 1.28-5.599.32-9.198-2.884-10.797-.64-1.067-.48-2.133.48-3.2.962-1.066 1.442-2.132 1.442-3.198-.64-.534-1.281-.933-1.922-1.2a4.97 4.97 0 0 0-1.922-.4c-1.922 2.133-5.125 5.598-9.61 10.397-3.845 2.666-8.33 3.999-13.455 3.999-6.407 0-13.455-3.999-21.144-11.997-.64-1.6-1.922-4.532-3.844-8.797-.64-1.6-1.922-2.4-3.844-2.4-1.282.534-1.922 2.4-1.922 5.6 3.203-.534-1.282-.8-13.455-.8 0-.534.64-1.6 1.922-3.2v-3.199c-2.563-1.6-3.844-4.265-3.844-7.997v-3.2c-1.922-.533-4.806-1.599-8.65-3.199 3.844-.533 5.767-1.866 5.767-3.998 0-2.666-1.602-5.865-4.806-9.597-1.281-1.067-3.844-2.666-7.688-4.8-.641-2.665-2.243-6.397-4.806-11.196-1.281-1.066-2.723-2.666-4.324-4.798-1.602-2.133-3.684-5.865-6.247-11.197-1.282-2.666-1.922-6.665-1.922-11.996 0-5.332-1.602-13.33-4.806-23.993-.64-1.6-1.441-4.666-2.402-9.198a64.706 64.706 0 0 0-4.325-13.196c-1.922-5.331-1.922-8.797 0-10.397-3.204-3.732-4.485-7.997-3.844-12.796h-2.884c-.64.533-1.281.8-1.922.8.641 0 1.602-.533 2.884-1.6-5.767-7.997-9.611-14.929-11.533-20.793-7.689-22.927-15.377-53.051-23.066-90.374-3.844-17.061-8.329-39.455-13.455-67.18-1.922-7.997-3.844-20.26-5.766-36.789-.64-.533-2.242-1.6-4.805-3.199-3.845-11.73-8.65-28.525-14.416-50.385C275.164 225.822 271 187.966 271 178.37c0 1.066.961-6.932 2.883-23.993 2.563 0 4.805-.8 6.728-2.4 5.766 6.399 7.368 16.796 4.805 31.191 0-1.066.64.533 1.922 4.799-.64 6.398-.32 11.463.961 15.195 1.922-2.132 3.524-4.798 4.805-7.997.641-6.398 2.243-15.462 4.806-27.192.64-1.6 2.242-4.532 4.805-8.798 2.563-4.265 3.844-6.93 3.844-7.997 0-14.93-5.125-22.394-15.377-22.394-5.125 0-9.61 1.067-13.455 3.2 3.204-4.8 7.689-7.198 13.455-7.198 14.096 0 21.144 7.997 21.144 23.992v3.2c-.641 1.066 0 1.599 1.922 1.599 1.281 0 2.563-.666 3.844-2 1.281-1.332 2.883-1.999 4.805-1.999 1.282 0 2.243.533 2.884 1.6.64.533.96-.267.96-2.4 0-3.199-.64-5.331-1.922-6.398-1.28-3.199-3.523-7.464-6.727-12.796-3.204-1.6-7.048-3.999-11.533-7.198v-4.798c0-2.666.48-4.532 1.442-5.599.96-1.066 1.441-2.666 1.441-4.798 5.126-5.332 10.252-7.998 15.377-7.998 8.97 0 14.737 3.466 17.3 10.397 0-1.066-.32.533-.961 4.799v19.994l2.883 1.6c4.485-1.6 6.407-4.933 5.766-9.998-.64-5.065-.32-8.93.961-11.596 1.282 0 3.044-1.067 5.286-3.2 2.242-2.132 4.965-7.464 8.169-15.995l8.169-6.798c2.883-2.399 5.927-3.599 9.13-3.599 1.282 0 2.403.267 3.364.8.96.533 1.762.8 2.402.8 1.923 6.398 1.602 12.53-.96 18.394 3.844 4.799 10.25 11.197 19.22 19.195 3.204.533 8.01 1.866 14.417 3.999 6.407 2.132 9.29 5.065 8.65 8.797.64.533 1.6.8 2.882.8 5.767 0 8.65-2.133 8.65-6.398 0-1.6-.801-4-2.403-7.198-1.602-3.2-2.402-5.065-2.402-5.599v-8.797h6.727c.64 0 2.883.533 6.727 1.6 3.204 4.265 7.048 11.463 11.533 21.593 1.282 15.462 1.602 27.725.961 36.79.641 1.599 1.282 2.932 1.922 3.998-1.281 5.865-1.281 11.997 0 18.395 1.282 9.597 3.524 28.525 6.728 56.783 0 .533.64 1.066 1.922 1.6 1.281 10.13 4.165 25.059 8.65 44.786.64 7.998 2.883 18.661 6.727 31.99 2.563 14.93 3.844 24.527 3.844 28.792 0 .533-.64 2.133-1.922 4.799-.64 2.132-.64 3.998 0 5.598.64 4.799 1.922 10.93 3.844 18.395 0 .533-.32 1.332-.96 2.399.64 2.133 1.601 5.065 2.882 8.797 1.923 2.133 1.282 3.732-1.922 4.799.641 1.066 1.922 2.132 3.845 3.199 0 6.931.32 14.129.96 21.593.641 7.465 2.884 13.063 6.728 16.795 0 1.067-1.922 2.4-5.766 4 0 2.132.32 4.265.96 6.397v4.799c2.564 1.6 4.165 1.866 4.806.8 3.204-6.398 8.33-15.462 15.377-27.192v-5.599c0 1.067 2.883-2.399 8.65-10.396a25527.151 25527.151 0 0 0 26.91-47.186c1.28 0 3.203-.267 5.766-.8 0-.533-.32-1.866-.961-4 3.203-5.864 8.329-14.661 15.377-26.391l8.65-3.2c0-1.066-1.603-1.599-4.806-1.599 0-.533.48-1.466 1.441-2.799.962-1.333 1.442-2.533 1.442-3.599.64 0 1.762.267 3.364.8 1.602.533 2.723.8 3.364.8l1.922-2.4c0-2.132-1.282-3.199-3.845-3.199 1.923-2.666 5.126-6.931 9.611-12.796.64-2.666 3.204-6.131 7.688-10.397 1.923-1.6 4.806-4.532 8.65-8.797 1.281-3.2 3.364-7.331 6.247-12.397 2.883-5.065 7.849-12.663 14.896-22.793 3.845-2.666 9.611-7.464 17.3-14.396 3.203-4.798 7.688-11.73 13.454-20.793 10.252-13.863 25.308-33.057 45.17-57.583 0 3.199-.64 5.598-1.922 7.198-8.329 12.263-24.987 35.19-49.975 68.78v1.599c3.204-1.6 5.766-3.733 7.688-6.398 1.923-2.666 4.485-6.132 7.689-10.397 3.203-4.266 8.97-11.197 17.3-20.794.64-2.666 2.562-6.398 5.765-11.197a6758.57 6758.57 0 0 0 15.377-23.193c-1.922 0-.32 1.333 4.806 3.999-4.485 5.865-11.533 15.195-21.144 27.992-1.922 3.199-3.203 6.398-3.844 9.597l-3.844 3.199c-3.204 4.265-7.689 11.73-13.455 22.393 8.33-6.398 12.814-11.996 13.455-16.795 3.203-1.6 8.33-5.065 15.377-10.397-6.407 13.863-9.61 21.994-9.61 24.393 0 2.4-.962 5.465-2.884 9.197-2.563 1.6-5.766 3.999-9.61 7.198-12.174 19.194-31.075 47.72-56.703 85.575.64.533 1.922.8 3.844.8l12.974-17.195c8.65-11.464 21.624-27.859 38.923-49.186 4.485-4.798 11.533-12.263 21.144-22.393-1.282 0-3.844-.267-7.689-.8 5.767-10.13 14.416-23.993 25.949-41.588 7.048-7.997 14.416-17.861 22.104-29.59a27107.91 27107.91 0 0 0 45.17-44.788v3.2c-13.455 14.928-30.113 35.189-49.975 60.781-3.844 2.133-8.65 7.998-14.416 17.595-7.688 12.796-12.173 19.994-13.455 21.594-.64.533-.64 1.066 0 1.6 3.844-4.266 10.252-10.93 19.221-19.995l-.96-.8c4.484-5.331 9.61-13.062 15.376-23.193 1.282-.533 2.884-1.6 4.806-3.199 4.485-5.865 10.892-13.33 19.221-22.393-6.407 3.199-7.048 7.464-1.922 12.796l-56.703 76.777c3.204-2.132 8.009-5.865 14.416-11.196-10.251 10.13-14.736 15.195-13.455 15.195 1.282 0 .961-1.066-.96-3.199-3.204 1.6-5.126 4.532-5.767 8.798-.64 4.265-1.602 7.464-2.883 9.597h2.883c.64 0 2.563-1.333 5.766-4 0-1.599.32-3.198.961-4.798 3.204-3.199 8.33-7.198 15.377-11.996.64-.533 2.243-.8 4.806-.8 0 2.133 1.922-1.866 5.766-11.996l6.727.8c.641-.534 1.282-.934 1.922-1.2a4.97 4.97 0 0 1 1.923-.4c-1.923-3.2-3.845-4.799-5.767-4.799-1.922 0-3.043.267-3.363.8-.32.533-.801.8-1.442.8 1.281-1.6 3.203-4.799 5.766-9.597 2.563-4.799 4.806-8.531 6.728-11.197 1.281 1.066 2.563 1.6 3.844 1.6-1.281 3.199-3.204 7.197-5.766 11.996-.641.533 0 .8 1.922.8 5.766 0 8.329-3.2 7.688-9.597 0 1.6.32 2.932.961 3.998zm-122.055 67.18h-1.922l-1.922 3.199 1.922.8 1.922-4m17.3 33.59-1.923-.8-1.922 3.199 1.922.8 1.922-3.2m-7.69 5.598h-1.921l-2.884 5.598h1.923l2.883-5.598m22.105 23.993-1.922-4.799c-1.922.534-4.805 4.532-8.65 11.997 1.923-2.133 5.447-4.532 10.572-7.198M419.004 135.982c-5.126-3.199-8.01-4.798-8.65-4.798-1.281 0-1.762.266-1.442.8.32.533-.16.8-1.441.8-1.282 0-1.762-.4-1.442-1.2.32-.8-.16-1.2-1.441-1.2h-3.845c-.64.533-1.281.8-1.922.8v4.798c1.282 0 2.563-.266 3.844-.8h4.806c12.173 0 16.017.267 11.533.8m-5.767 7.998v-2.4h-14.416v2.4h14.416m-11.533 5.598-.96-1.6-2.884 1.6v1.6l3.844-1.6m227.772 186.345h-5.766l-4.806 11.996c1.923-3.199 5.446-7.197 10.572-11.996m-11.533 11.996h-1.922l-2.883 9.598h1.922l2.883-9.598m52.859 92.773c-5.126 2.133-7.689 3.466-7.689 3.999 1.282 1.066 2.563 1.6 3.845 1.6.64 0 1.28-.8 1.922-2.4.64-1.6 1.281-2.666 1.922-3.2m-14.416 22.393-1.922-.8-2.883 3.2.96.8 3.845-3.2M289.26 204.762h-2.883l-.961 7.198h1.922l1.922-7.198m183.563 156.753h-1.922l-1.922 4 1.922.799 1.922-4.799m8.65 11.197-1.923-.8-1.922 3.2 1.922.8zm1.922 15.196v-7.198h-2.883v7.198h2.883M289.26 235.153v-9.597h-2.883v9.597zm214.317 225.533h-1.922c-.64.533-1.602.8-2.883.8-.641 0-1.602-.8-2.884-2.4v-3.199c0-1.066-.96-8.13-2.883-21.193-1.922-13.063-3.203-22.794-3.844-29.192-5.126 2.666-7.688 5.865-7.688 9.598 0 1.066 1.281 9.597 3.844 25.592l6.727 39.188c1.282-2.666 5.126-9.064 11.533-19.194M176.48 822.78l33 67.1 32.56-67.1c-2.2-4.987-.807-8.287 4.18-9.9 2.64-.88 7.113-1.32 13.42-1.32 3.52 0 5.903.697 7.15 2.09 1.247 1.393 1.137 3.557-.33 6.49l-46.64 95.48c-.88 1.173-2.64 1.907-5.28 2.2-2.933.147-6.38 0-10.34-.44-1.907-.293-3.447-1.027-4.62-2.2-.733-.733-1.76-2.347-3.08-4.84l-44.22-90.2c-1.467-2.787-1.467-4.987 0-6.6 1.173-1.32 3.3-1.98 6.38-1.98 6.16 0 10.78.44 13.86 1.32 4.987 1.467 6.307 4.767 3.96 9.9m209.44 82.94c1.173 2.347 1.063 4.143-.33 5.39-1.393 1.247-3.557 1.87-6.49 1.87-28.307 0-53.827 1.613-76.56 4.84-6.893.44-11.733-.22-14.52-1.98-2.053-1.76-4.143-4.473-6.27-8.14-2.127-3.667-1.137-7.187 2.97-10.56 15.84-12.76 25.227-20.313 28.16-22.66 10.707-9.093 19.58-17.527 26.62-25.3 14.227-15.547 21.34-29.26 21.34-41.14 0-6.013-2.86-10.633-8.58-13.86-4.987-2.787-11.367-4.18-19.14-4.18-6.013 0-12.027 1.32-18.04 3.96-6.307 2.787-10.853 6.307-13.64 10.56-1.467 1.907-3.227 3.3-5.28 4.18-2.493 1.027-4.473.807-5.94-.66-2.787-2.2-5.06-4.693-6.82-7.48-2.64-4.107-1.98-7.847 1.98-11.22 12.76-12.173 29.333-18.26 49.72-18.26 13.64 0 24.86 2.787 33.66 8.36 9.973 6.307 14.96 15.473 14.96 27.5 0 17.013-9.387 35.2-28.16 54.56-11.733 12.027-26.987 24.347-45.76 36.96 18.92-2.64 38.28-4.473 58.08-5.5 4.693-.293 8.58 1.027 11.66 3.96a42.157 42.157 0 0 1 6.38 8.8m61.16-82.5c5.867-3.52 11.367-6.013 16.5-7.48 5.133-1.173 8.287.44 9.46 4.84.733 2.787 1.1 6.453 1.1 11 0 2.787-2.64 4.767-7.92 5.94a80.783 80.783 0 0 0-18.04 7.48c-8.947 5.573-15.84 10.78-20.68 15.62v50.82c0 5.427-2.567 7.48-7.7 6.16-3.52-1.173-6.307-2.347-8.36-3.52-2.053-1.173-3.41-2.383-4.07-3.63-.66-1.247-.99-3.337-.99-6.27V824.1c0-3.227.843-5.243 2.53-6.05 1.687-.807 4.07-.77 7.15.11 5.133 1.467 8.947 3.227 11.44 5.28 4.4 3.373 4.4 7.113 0 11.22v2.86c5.28-4.693 11.807-9.46 19.58-14.3m138.38 5.94v84.26c0 2.933-.623 4.803-1.87 5.61-1.247.807-3.263 1.063-6.05.77-2.493-.733-5.353-1.98-8.58-3.74-1.907-1.027-3.153-2.237-3.74-3.63-.587-1.393-.88-3.41-.88-6.05v-12.32c-4.253 7.48-10.34 13.42-18.26 17.82-7.48 4.107-15.327 6.16-23.54 6.16-14.813 0-26.363-5.17-34.65-15.51-8.287-10.34-10.963-22.843-8.03-37.51 3.227-15.547 11.513-28.453 24.86-38.72 12.613-9.68 26.107-14.52 40.48-14.52 6.6 0 12.98 1.907 19.14 5.72.147-2.64.99-4.29 2.53-4.95 1.54-.66 3.923-.697 7.15-.11 4.253 1.027 7.993 2.86 11.22 5.5 4.4 3.373 4.473 7.113.22 11.22m-58.74 70.18c5.867 0 12.173-2.273 18.92-6.82 7.92-5.28 14.153-12.247 18.7-20.9V843.9c-5.72-9.093-13.31-13.64-22.77-13.64-9.46 0-18.003 3.08-25.63 9.24-7.92 6.453-12.98 14.96-15.18 25.52-1.907 9.533-.33 17.637 4.73 24.31 5.06 6.673 12.137 10.01 21.23 10.01m99.22-76.56L653 884.6l34.1-62.04c-2.053-5.867-.293-9.313 5.28-10.34 4.4-.587 8.58-.66 12.54-.22 3.52.44 5.83 1.43 6.93 2.97 1.1 1.54.843 3.777-.77 6.71L638.7 953.02c-1.76 4.547-4.693 6.747-8.8 6.6-3.373.147-6.453.073-9.24-.22-2.493-.293-4.143-1.21-4.95-2.75-.807-1.54-.477-3.557.99-6.05l23.76-43.12-38.72-87.34c-1.32-2.933-1.357-5.097-.11-6.49 1.247-1.393 3.483-2.09 6.71-2.09 6.307 0 10.853.44 13.64 1.32 5.133 1.613 6.453 4.913 3.96 9.9m179.08-39.38c2.053 3.52 1.907 6.307-.44 8.36 3.813-.44 7.04 1.32 9.68 5.28 29.04 45.76 48.767 79.64 59.18 101.64 2.053 4.253 1.54 7.92-1.54 11-4.4 4.4-8.507 7.04-12.32 7.92-2.2.44-3.923.257-5.17-.55-1.247-.807-1.577-2.383-.99-4.73.293-1.467.147-2.787-.44-3.96-12.467-24.493-31.973-58.373-58.52-101.64l-32.34 63.14c16.867-2.933 32.193-4.987 45.98-6.16 6.893-.587 11.733.807 14.52 4.18 2.347 2.64 4.107 5.097 5.28 7.37 1.173 2.273 1.027 4.07-.44 5.39-1.173 1.173-2.933 1.76-5.28 1.76-18.773.147-34.32 1.54-46.64 4.18-4.4.733-7.92.367-10.56-1.1-3.667-2.2-6.307-4.18-7.92-5.94l-17.16 33.88c-2.493 4.84-5.72 5.72-9.68 2.64-3.08-2.053-5.573-4.473-7.48-7.26-2.787-2.933-3.007-6.38-.66-10.34l62.04-122.54c3.08-5.72 6.967-6.453 11.66-2.2 3.813 3.08 6.893 6.307 9.24 9.68"/></g></svg>