<svg xmlns="http://www.w3.org/2000/svg" width="1024" height="1024"><g fill="none" fill-rule="evenodd"><path fill="#FFF" d="M0 0h1024v1024H0z"/><g fill="#000" fill-rule="nonzero"><path d="M365.47 287.38H299L477.045 787h62.91L718 287.38h-66.47L538.768 608.563c-7.478 20.223-14.244 40.445-18.992 58.29-5.104 17.843-9.377 34.497-13.056 51.15-3.324-16.653-7.478-33.307-13.057-52.34-5.104-17.844-11.514-38.067-18.992-59.48L361.91 285l3.561 2.38"/><path d="M508.316 157.535c-2.257.809-4.04 2.378-5.228 4.4l-17.824 29.723c-3.208.262-6.297.547-9.505.904l-23.765-26.157c-5.11-5.231-14.26-3.448-16.636 3.448l-11.882 33.29c-3.09.88-6.06 1.784-9.15 2.735l-28.518-21.401c-6.178-5.35-15.447-1.427-16.635 6.658l-5.228 34.48c-2.733 1.426-5.585 2.853-8.318 4.398l-32.083-15.456c-6.891-3.091-14.259 2.14-14.259 9.63l1.664 35.669c-2.377 1.902-4.753 3.923-7.13 5.825l-34.459-8.56c-7.01-1.427-13.07 4.875-11.882 11.89l8.555 34.479c-2.02 2.378-3.92 4.756-5.822 7.133l-35.647-1.664c-7.486-.321-13.071 7.371-9.625 14.267l15.447 32.102c-1.545 2.734-2.97 5.469-4.397 8.322l-34.459 5.231c-8.08.809-11.882 10.463-6.654 16.646l21.389 28.534a191.08 191.08 0 0 0-2.733 9.155l-33.271 11.89a10.11 10.11 0 0 0-3.446 16.645l26.141 23.778c-.356 3.092-.641 6.302-.903 9.512l-29.706 17.834c-7.13 3.805-7.13 14.267 0 17.834l29.706 17.834c.262 3.21.547 6.302.903 9.512l-26.141 23.779c-5.228 5.112-3.446 14.267 3.446 16.645l33.27 11.89c.88 3.09 1.783 6.063 2.734 9.154l-21.389 28.535c-5.347 6.182-1.426 15.456 6.654 16.645l34.46 5.231c1.425 2.735 2.851 5.588 4.396 8.323l-15.447 32.101c-3.09 6.896 2.139 14.267 9.625 14.267l35.647-1.664c1.901 2.378 3.921 4.756 5.822 7.134l-8.555 34.479c-1.426 7.015 4.872 13.078 11.882 11.89l34.46-8.561c2.376 2.021 4.752 3.923 7.129 5.826l-1.664 35.668c-.32 7.49 7.368 13.078 14.26 9.63l32.082-15.456c2.733 1.546 5.466 2.972 8.318 4.4l5.228 34.478c.808 8.085 10.457 11.89 16.635 6.658l28.518-21.4c2.97.963 6.06 1.902 9.15 2.734l11.882 33.29c2.614 6.896 11.526 8.68 16.636 3.448l23.765-26.156c3.089.356 6.297.642 9.505.903l17.824 29.724c3.803 7.133 14.26 7.133 17.824 0l17.824-29.724a321 321 0 0 0 9.505-.903l23.765 26.156c5.11 5.232 14.26 3.448 16.636-3.448l11.882-33.29c3.09-.88 6.06-1.783 9.15-2.734l28.518 21.4c6.178 5.35 15.447 1.427 16.635-6.658l5.228-34.479c2.733-1.427 5.585-2.853 8.318-4.399l32.083 15.456c6.891 3.092 14.259-2.14 14.259-9.63l-1.664-35.668c2.376-1.903 4.753-3.924 7.13-5.826l34.459 8.56c7.01 1.427 13.07-4.874 11.882-11.89l-8.555-34.478c2.02-2.378 3.92-4.756 5.822-7.134l35.647 1.664c7.486.321 13.071-7.371 9.625-14.267l-15.447-32.101c1.545-2.735 2.97-5.47 4.397-8.323l34.459-5.231c8.08-.809 11.882-10.463 6.654-16.645l-21.389-28.535a191.08 191.08 0 0 0 2.733-9.155l33.271-11.89a10.11 10.11 0 0 0 3.446-16.645l-26.141-23.778c.356-3.091.641-6.302.903-9.512l29.706-17.834c7.13-3.804 7.13-14.267 0-17.834l-29.706-17.834a321.555 321.555 0 0 0-.903-9.512l26.141-23.778c5.228-5.113 3.446-14.268-3.446-16.646l-33.27-11.889a445.401 445.401 0 0 0-2.734-9.155l21.389-28.534c5.347-6.183 1.426-15.457-6.654-16.646l-34.46-5.23c-1.425-2.735-2.851-5.589-4.396-8.323l15.447-32.102c3.09-6.896-2.139-14.267-9.625-14.267l-35.647 1.664c-1.901-2.377-3.921-4.755-5.822-7.133l8.555-34.48c1.426-7.014-4.872-13.078-11.882-11.889l-34.46 8.56c-2.376-2.02-4.752-3.923-7.129-5.825l1.664-35.669c.32-7.49-7.368-13.078-14.26-9.63l-32.082 15.456c-2.733-1.545-5.466-2.972-8.318-4.399l-5.228-34.48c-.808-8.084-10.457-11.889-16.635-6.657l-28.518 21.4c-2.97-.962-6.06-1.902-9.15-2.734l-11.882-33.29a10.096 10.096 0 0 0-16.635-3.448l-23.766 26.157c-3.089-.357-6.297-.642-9.505-.904l-17.824-29.724c-2.377-4.042-7.367-5.944-11.883-4.399h-.713m3.446 64.203c11.17 0 20.2 9.036 20.2 20.212s-9.03 20.212-20.2 20.212-20.2-9.036-20.2-20.212 9.03-20.212 20.2-20.212m-47.53 34.48 33.271 33.29c7.843 7.847 20.2 7.847 28.518 0l33.271-33.29C637.716 270.484 701.882 320.42 737.53 387l-21.389 42.802c-5.109 9.987-1.152 22.59 8.912 27.345l42.777 21.401c1.426 10.939 2.139 22.59 2.139 33.29 0 68.96-27.33 130.784-71.295 178.342l-47.53-7.49c-11.169-2.14-21.388 5.35-23.764 16.645l-7.486 47.557c-33.271 15.456-71.295 24.968-111.695 24.968-40.4 0-77.236-9.036-111.695-24.968l-7.486-47.557c-1.783-11.295-13.071-19.023-23.765-16.646l-47.53 7.49c-43.965-46.368-71.295-109.382-71.295-178.34 0-11.414.76-22.59 2.14-33.29l42.776-21.402c10.1-4.993 14.259-17.834 8.912-27.345L278.866 387c36.836-67.77 102.19-116.516 178.237-130.784h7.13M250.35 410.78c1.9.047 3.802.38 5.703.987 11.05 3.447 16.636 15.456 13.07 26.156-3.445 11.057-15.446 16.645-26.14 13.079-11.051-3.448-16.636-15.457-13.071-26.157 2.733-8.798 11.05-14.267 20.2-14.267l.238.202m510.945 0c9.15-.405 17.823 5.469 20.2 14.267 3.921 10.82-2.02 22.59-13.07 26.157-10.814 3.923-22.577-2.021-26.142-13.079-3.921-10.819 2.02-22.59 13.07-26.156 1.902-.607 3.803-.94 5.704-.987zM345.408 708.015c3.921.202 7.605 1.545 10.813 3.804 9.268 6.54 11.288 19.024 4.515 28.535-6.535 9.274-19.011 11.295-28.517 4.518-9.269-6.54-11.289-19.023-4.516-28.535 4.04-5.706 10.813-8.798 17.824-8.322h-.119m320.826 0c7.01-.5 14.26 2.616 17.824 8.322 6.773 9.155 4.753 21.401-4.515 28.535-9.15 6.777-21.389 4.756-28.518-4.518-6.773-9.155-4.753-21.4 4.515-28.535 3.208-2.259 6.892-3.566 10.813-3.804h-.119"/></g></g></svg>