<svg xmlns="http://www.w3.org/2000/svg" width="1024" height="1024"><defs><linearGradient id="a" x1=".005%" x2="100.012%" y1="50.007%" y2="50.007%"><stop offset=".303%" stop-color="#3668E7"/><stop offset="100%" stop-color="#44BAE1"/></linearGradient><linearGradient id="b" x1=".012%" x2="100.006%" y1="50.004%" y2="50.004%"><stop offset="0%" stop-color="#44BCE1"/><stop offset="36.72%" stop-color="#44BAE1"/><stop offset="54.5%" stop-color="#43B2E2"/><stop offset="68.19%" stop-color="#41A5E2"/><stop offset="79.8%" stop-color="#3F93E4"/><stop offset="89.99%" stop-color="#3C7BE5"/><stop offset="99.21%" stop-color="#385EE7"/><stop offset="100%" stop-color="#385BE7"/></linearGradient><linearGradient id="c" x1=".015%" x2="100.006%" y1="50.001%" y2="50.001%"><stop offset="0%" stop-color="#44BCE1"/><stop offset="14.76%" stop-color="#43B6E1"/><stop offset="34.89%" stop-color="#41A4E2"/><stop offset="58.12%" stop-color="#3E88E4"/><stop offset="83.49%" stop-color="#3960E7"/><stop offset="86.36%" stop-color="#385BE7"/></linearGradient></defs><g fill="none" fill-rule="evenodd"><path fill="#FFF" d="M0 0h1024v1024H0z"/><g fill-rule="nonzero"><path fill="url(#a)" d="M337.194 235.253c-75.744 6.987-134.998 70.573-134.998 148.135 0 82.172 66.66 148.693 148.694 148.693 0 0 303.676 50.45 231.845-318.21 41.366 69.316 79.098 139.051 79.098 139.051s92.235 159.175-10.062 256.44c0 0-59.394 55.621-169.237 55.621H379.26C186.963 631.163 170.752 460.95 170.752 460.95 157.476 242.1 337.194 234.554 337.194 234.554v.699" transform="translate(162 180)"/><path fill="url(#b)" d="M582.735 213.871c71.831 368.66-231.845 318.21-231.845 318.21 82.173 0 148.694-66.52 148.694-148.693 0-13.836-1.957-27.252-5.45-39.969v-.14c-1.538-7.965-24.597-117.669-136.536-160.293-51.009-19.425-107.328-18.027-158.476.839-35.916 13.276-78.12 36.335-109.285 76.024l77.561-136.536c17.749-31.164 40.947-58.834 69.177-80.915 49.331-38.291 127.032-70.434 215.494-4.053 0 0 26.552 15.093 80.915 96.009 15.652 23.338 33.12 51.427 49.75 79.517" transform="translate(162 180)"/><path fill="url(#c)" d="M170.752 460.949s16.072 170.215 208.507 204.034H213.795c-42.344 0-84.269-9.782-121.582-29.906-49.75-26.972-100.34-76.304-91.117-163.647 6.708-63.586 84.689-204.314 84.689-204.314l4.052-7.127v-.14c31.025-39.829 73.23-62.748 109.285-76.024 51.148-18.866 107.467-20.264 158.476-.839 111.94 42.764 134.998 152.467 136.535 160.293-17.468-62.608-75.045-108.585-143.243-108.585-4.612 0-9.224.28-13.696.559v-.56c0-.139-179.718 7.408-166.442 226.256" transform="translate(162 180)"/></g></g></svg>