<svg xmlns="http://www.w3.org/2000/svg" width="1024" height="1024"><defs><linearGradient id="a" x1="-.828%" x2="57.636%" y1="7.652%" y2="78.411%"><stop offset="0%" stop-color="#41D1FF"/><stop offset="100%" stop-color="#BD34FE"/></linearGradient><linearGradient id="b" x1="43.376%" x2="50.316%" y1="2.242%" y2="89.03%"><stop offset="0%" stop-color="#FFEA83"/><stop offset="8.333%" stop-color="#FFDD35"/><stop offset="100%" stop-color="#FFA800"/></linearGradient></defs><g fill="none" fill-rule="evenodd"><path fill="#FFF" d="M0 0h1024v1024H0z"/><g fill-rule="nonzero"><path fill="url(#a)" d="M697.684 103.736 368.859 691.733c-6.79 12.14-24.232 12.21-31.123.13L2.391 103.793C-5.116 90.628 6.141 74.68 21.06 77.348l329.177 58.838c2.1.375 4.25.372 6.35-.01L678.88 77.431c14.869-2.71 26.18 13.113 18.804 26.304" transform="translate(162 162)"/><path fill="url(#b)" d="m507.042.173-243.34 47.681a8.936 8.936 0 0 0-7.203 8.24L241.53 308.907c-.352 5.955 5.117 10.576 10.929 9.236l67.75-15.635c6.338-1.462 12.066 4.12 10.763 10.495l-20.128 98.565c-1.355 6.634 4.873 12.306 11.351 10.338l41.846-12.713c6.487-1.97 12.72 3.719 11.348 10.358L343.4 574.373c-2.001 9.684 10.88 14.965 16.252 6.662l3.589-5.545 198.287-395.717c3.32-6.626-2.405-14.18-9.683-12.776l-69.736 13.459c-6.554 1.263-12.13-4.84-10.28-11.251l45.516-157.787c1.852-6.422-3.744-12.53-10.304-11.245Z" transform="translate(162 162)"/></g></g></svg>