<svg xmlns="http://www.w3.org/2000/svg" width="1025" height="1024"><g fill="none" fill-rule="evenodd"><path fill="#FFF" d="M.26 0h1024v1024H.26z"/><g transform="translate(151.059 145.26)"><path fill="#8FBFFA" d="M463.985 81.304c149.693 280.023 214.292 411.59 249.948 488.844 31.028 108.722-53.64 163.206-122.213 163.728-195.708 0-351.892-1.67-453.453-.712-116.149-.302-160.46-81.601-127.85-177.148C83.055 408.919 182.056 202.64 244.658 81.304c64.53-113.499 154.778-103.19 219.328 0"/><path fill="#2859C5" d="M650.578 733.491c42.976-20.93 72.59-65.029 72.59-116.045 0-71.245-57.755-129-129-129-71.244 0-129 57.755-129 129 0 50.908 29.49 94.928 72.318 115.911 62.762.687 69.919.662 113.092.134"/><circle cx="360.624" cy="476.294" r="143.442" fill="#FFF"/></g></g></svg>