<svg xmlns="http://www.w3.org/2000/svg" width="1026" height="1024"><g fill="none" fill-rule="evenodd"><path fill="#FFF" d="M0 0h1024v1024H0z"/><g fill="#F16529"><path d="M766 766h-64v-64h64zM702 702h-64v-64h64zM638 637h-64v-64h64z"/><path d="M894 895H574v-64h186.854v-66.881h66.753v-190.9H894V831z"/></g><g fill="#F16529"><path d="M254 766h64v-64h-64zM318 702h64v-64h-64zM382 637h64v-64h-64z"/><path d="M126 895h320v-64H259.146v-66.881h-66.753v-190.9H126V831z"/></g><g fill="#F16529"><path d="M766 254h-64v64h64zM702 318h-64v64h64zM638 383h-64v64h64z"/><path d="M894 125H574v64h186.854v66.881h66.753v190.9H894V189z"/></g><g fill="#F16529"><path d="M254 254h64v64h-64zM318 318h64v64h-64zM382 383h64v64h-64z"/><path d="M126 125h320v64H259.146v66.881h-66.753v190.9H126V189z"/></g><g fill="#F16529"><path d="M63 960h898v64H63zM64 0h898v64H64zM962 962V64h64v898z"/><path d="M0 962V64h64v898z"/></g></g></svg>