<?xml version="1.0" encoding="UTF-8"?>
<svg width="1024px" height="1024px" viewBox="0 0 1024 1024" version="1.1" xmlns="http://www.w3.org/2000/svg" xmlns:xlink="http://www.w3.org/1999/xlink">
    <title>Windows7</title>
    <g id="ICON-新版方图标" stroke="none" stroke-width="1" fill="none" fill-rule="evenodd">
        <g id="Windows7" transform="translate(0, -0.0008)">
            <rect id="蒙版路径" fill="#FFFFFF" x="0" y="0" width="1024" height="1024"></rect>
            <g id="编组" transform="translate(142, 186.0008)" fill-rule="nonzero">
                <path d="M738.696418,90.0125955 C595.302408,149.542836 525.778039,116.084234 464.075161,74.3696125 L394.550793,319.443012 C456.688197,361.592161 531.426894,396.354345 669.172049,334.651468 L740,90.0125955 L738.696418,90.0125955 Z" id="路径" fill="#91C300"></path>
                <path d="M273.752202,583.201086 C211.614797,541.486465 143.394011,506.724281 0,566.254522 L70.3934234,320.312067 C213.787434,261.216354 283.311803,294.674956 345.449207,336.824105 L273.752202,583.201086 Z" id="路径" fill="#00B4F1"></path>
                <path d="M357.181445,292.50232 C318.517096,262.456343 271.407978,245.28431 222.47798,243.400734 C184.674105,242.966207 139.483265,253.829389 82.5601879,277.293864 L152.953611,32.220464 C296.782149,-27.3097768 365.871991,6.14882568 428.009395,48.2979742 L357.181445,292.50232 Z" id="路径" fill="#F8682C"></path>
                <path d="M382.384028,360.723106 C444.95596,402.437728 514.045802,435.89633 657.439812,376.366089 L586.611861,620.570435 C443.217851,680.100675 374.128009,646.642073 311.990605,604.492924 L382.818555,360.723106 L382.384028,360.723106 Z" id="路径" fill="#FFC300"></path>
            </g>
        </g>
    </g>
</svg>