<svg xmlns="http://www.w3.org/2000/svg" width="1024" height="1024"><g fill="none" fill-rule="evenodd"><path fill="#FFF" d="M0 0h1024v1024H0z"/><path fill="#21759B" fill-rule="nonzero" d="M194.434 498c0-45.827 9.911-89.62 27.671-129.262l151.541 415.008C267.51 732.13 194.434 623.536 194.434 497.974V498m531.875-16.095c0 27.248-11.153 58.645-24.367 102.834l-31.397 105.714-114.806-341.087s19.002-1.242 36.34-3.304c16.94-2.061 14.852-27.248-2.062-26.006-51.615 3.727-84.65 4.123-84.65 4.123s-30.975-.423-83.41-4.123c-17.336-1.242-19.398 24.79-2.06 26.006a5764.327 5764.327 0 0 0 33.035 3.304l49.554 135.446-69.375 208.125-115.625-343.571s19.002-1.242 36.339-3.304c16.94-2.061 14.853-27.248-2.061-26.006-51.193 3.727-84.651 4.123-84.651 4.123-5.788 0-12.792-.423-20.244-.423 58.466-89.505 158.196-143.411 265.105-143.295 82.589 0 157.752 31.793 214.309 83.408h-4.123c-30.974 0-53.28 26.852-53.28 56.161 0 26.006 15.276 47.915 31.397 74.317 12.395 21.064 26.006 48.312 26.006 87.558h.026Zm-208.944 43.766 97.865 267.166a15.593 15.593 0 0 0 2.061 4.546C584.256 808.959 549.16 815.566 512 815.566c-30.974 0-61.103-4.546-89.62-13.215l94.985-276.68m272.954-180.058A316.614 316.614 0 0 1 829.54 498c0 117.29-63.587 219.278-158.148 274.196l97.045-279.984c16.095-46.25 24.368-81.77 24.368-113.96 0-11.576-.82-22.306-2.485-32.613v-.026M512 128c204.002 0 370 165.998 370 370S716.002 868 512 868 142 702.002 142 498s165.998-370 370-370m0 723.06c194.488 0 353.06-158.572 353.06-353.06S706.487 144.94 512 144.94 158.94 303.513 158.94 498 317.513 851.06 512 851.06"/></g></svg>