<?xml version="1.0" encoding="UTF-8"?>
<svg width="1025px" height="1025px" viewBox="0 0 1025 1025" version="1.1" xmlns="http://www.w3.org/2000/svg" xmlns:xlink="http://www.w3.org/1999/xlink">
    <title>Youdao</title>
    <g id="ICON-新版方图标" stroke="none" stroke-width="1" fill="none" fill-rule="evenodd">
        <g id="Youdao" transform="translate(0.8456, 0.6004)">
            <rect id="蒙版路径" fill="#D30808" x="0.154354131" y="0.399616826" width="1024" height="1024"></rect>
            <path d="M463.35095,620.987871 C460.131013,643.447433 456.771079,664.107028 454.371125,684.886623 C453.411145,693.186461 450.831194,696.3464 441.931368,695.606414 C411.231968,693.046463 380.892561,689.16654 352.73311,675.686803 C329.473565,664.56702 311.413917,648.68733 306.774009,621.667858 C301.714108,592.068436 315.753833,566.388937 343.373294,554.46917 C362.172927,546.349328 381.952541,544.689361 402.132146,545.449347 C406.092069,545.589344 410.071991,545.469346 415.291889,545.469346 C416.491865,537.229508 417.691842,528.849671 419.151814,518.889866 C397.172243,517.769888 376.552645,519.569853 356.433038,525.629734 C305.414034,540.969435 277.874572,577.868713 264.214839,627.20775 C262.354876,633.947618 260.954903,640.807485 259.434933,647.627351 C251.535087,683.006661 226.015585,700.406321 188.776313,695.106424 C219.915705,635.207594 219.11572,568.628895 231.975469,502.190192 C209.535907,519.529853 191.97625,539.829456 163.976797,540.189449 C158.136911,540.269448 152.237025,537.269507 143.557196,534.929552 C191.456261,502.350189 219.63571,457.591063 248.155153,410.331985 C237.155368,410.831976 228.315541,411.631959 219.475713,411.591961 C196.456163,411.471963 184.256401,395.152282 190.45628,372.152731 C213.215835,385.692467 237.695358,378.112615 261.574891,377.932618 C264.014844,377.912618 267.334779,373.992695 268.694752,371.132751 C277.474581,352.873108 285.814419,334.393468 294.91424,314.673854 C311.573914,322.933692 328.053593,331.093533 345.453252,339.713364 C339.013379,351.793128 333.113494,362.832912 325.713638,376.692643 C384.452491,373.472706 441.29138,370.332767 498.430265,367.192828 C501.7702,381.872541 498.510264,388.052421 483.270561,393.132322 C454.67112,402.672136 424.851701,402.312142 395.27228,403.832112 C368.312807,405.232085 341.353333,406.452062 314.393859,407.392043 C308.453975,407.592039 304.694048,409.532001 301.474112,414.611902 C294.95424,424.9517 287.734381,434.831507 281.014511,444.571317 C300.374133,440.051405 319.553759,434.411516 339.133376,431.271577 C368.492803,426.571669 398.152223,424.671706 427.53165,431.691569 C468.030859,441.37138 485.790512,468.430851 479.170642,509.330052 C476.510693,525.769731 474.630731,542.329408 472.010782,558.769087 C471.0908,564.548974 472.510772,567.928908 477.990664,570.548856 C490.890412,576.708736 503.190172,584.228589 516.329915,589.728482 C528.529677,594.808383 535.589539,592.42843 541.129432,584.20859 C547.029317,575.468761 546.969318,563.548993 539.389466,555.48915 C534.269566,550.049256 527.749693,545.549344 521.109823,541.989414 C505.610126,533.689577 505.37013,534.00957 507.790082,516.329915 C509.490049,503.870159 511.430011,491.450402 513.529971,477.330678 C543.229391,491.950392 569.568876,507.610086 576.728736,541.749419 C581.548641,564.748969 574.668776,584.548582 557.229117,600.468272 C553.849183,603.548212 550.149256,606.288159 545.829339,609.788091 C570.568856,624.947795 595.928361,637.247554 622.867835,646.067382 C680.306713,664.887015 738.645574,670.966895 797.984415,655.88719 C824.743892,649.087323 849.363412,637.547548 871.102987,620.247886 C872.822953,618.867913 874.702917,617.667936 876.982871,616.027968 C879.922813,625.567782 877.902853,632.467647 871.522978,639.207515 C812.084139,702.206284 739.725552,721.165915 656.367181,702.746274 C591.248452,688.346555 531.649617,660.527098 474.350735,627.247749 C471.230796,625.427785 468.050858,623.647819 463.35095,620.987871 L463.35095,620.987871 Z M278.714556,538.989473 C316.993809,495.63032 366.212847,482.31058 420.411789,477.970664 C414.211909,468.330852 405.99207,464.050937 396.77225,462.570966 C359.712974,456.631081 324.59366,462.590965 291.974297,481.470596 C289.434347,482.930567 286.7144,486.050506 286.254409,488.770453 C283.494463,504.730141 281.374505,520.789828 278.714556,538.989473 L278.714556,538.989473 Z M408.472022,592.92842 C396.372259,592.048436 385.492472,589.948478 374.852678,590.808461 C358.572996,592.128435 349.17318,605.748169 351.533134,621.887854 C354.493076,642.147458 375.872659,659.647116 398.512216,659.647116 L408.472022,592.92842 Z" id="形状" fill="#FFFFFF" fill-rule="nonzero"></path>
            <path d="M687.846566,411.13197 C666.786978,411.13197 645.66739,411.11197 624.547802,411.15197 C620.887874,411.15197 617.207946,411.731959 613.568017,411.591961 C591.068456,410.67198 579.928674,395.232281 585.72856,372.032734 C608.188122,385.972461 632.28765,377.33263 657.447159,378.712603 C651.667272,364.672878 646.527372,352.233121 640.747486,338.193394 L691.74649,316.353821 C694.406439,333.933477 696.686393,350.373156 699.526337,366.732836 C700.106326,370.092771 702.886272,375.832659 704.366244,375.75266 C709.486143,375.432666 716.446007,374.612683 719.205953,371.152751 C732.525693,354.533075 744.705455,336.993418 757.305209,319.813753 C758.465186,318.233784 759.82516,316.793812 761.645124,314.633854 C778.044804,322.813694 794.304487,330.933536 812.144138,339.833362 C801.424347,351.273139 791.604539,361.732934 779.524775,374.612683 C808.404211,371.932735 834.323705,369.532782 860.2232,367.152829 C861.803168,386.732446 859.583212,392.15234 841.24357,395.352278 C815.124079,399.912189 788.564598,403.252125 762.105116,404.252105 C745.925432,404.872093 735.725631,412.371946 725.125837,423.451729 C739.385559,424.851701 752.945295,425.251694 766.085038,427.811644 C776.024845,429.751607 786.184646,433.211539 794.924475,438.27144 C809.384192,446.631276 816.084061,460.870999 814.684089,477.21068 C812.504131,502.730181 808.904201,528.149685 805.524268,553.549189 C802.584325,575.668757 799.384387,597.768326 795.64446,619.767895 C795.024472,623.427824 791.484541,628.827718 788.444601,629.487706 C731.105721,641.907463 674.106834,642.887444 618.187926,621.967852 C585.788559,609.848089 586.168552,609.788091 591.288452,575.44876 C597.268335,535.269545 602.748228,495.010331 608.008125,454.731118 C608.868109,448.131248 611.408059,444.391321 617.627937,442.691354 C632.707643,438.591434 647.547353,432.791547 662.907052,430.731587 C677.026776,428.811624 680.786703,417.791839 687.846566,411.13197 L687.846566,411.13197 Z M636.467569,594.088396 C670.646901,607.188141 704.526239,609.168102 739.025567,599.648288 C741.225524,599.048299 744.225465,596.94834 744.645456,595.048378 C746.305423,587.428527 747.105408,579.60868 748.285385,571.468839 C715.986016,562.589012 685.58661,562.969005 655.827191,575.148767 C647.527353,578.5487 639.527509,583.148611 636.467569,594.088396 Z M753.305288,530.609636 C758.785181,513.849963 758.145193,512.609988 742.165505,509.770044 C718.845961,505.650124 695.726413,506.310112 673.086854,513.649967 C649.647312,521.249819 643.907424,529.189663 642.947442,555.069159 C676.80678,533.749576 714.546044,531.349622 753.305288,530.609636 Z M652.507256,496.330306 C685.286616,476.030702 721.9659,473.570751 759.025175,472.190777 C755.105251,460.830999 749.865354,453.971133 738.605575,452.731157 C722.305893,450.951192 705.426222,450.231206 689.226539,452.351165 C657.92715,456.451085 653.987227,461.910978 651.867269,493.190368 C651.847269,493.530361 651.987267,493.850355 652.507256,496.330306 Z" id="形状" fill="#FFFFFF" fill-rule="nonzero"></path>
            <path d="M526.469718,386.732446 C569.968868,405.172086 593.748404,450.631198 577.228727,483.630554 C561.869026,466.270893 542.949396,454.391125 522.549794,444.611317 C520.829828,443.791332 519.029863,440.551396 519.269859,438.691432 C521.369818,421.611765 523.909767,404.592098 526.469718,386.732446 L526.469718,386.732446 Z" id="路径" fill="#FFFFFF" fill-rule="nonzero"></path>
            <path d="M897.982462,1024 L125.997539,1024 C123.85758,1023.32001 121.757621,1022.36003 119.557665,1021.98004 C65.5387201,1012.68022 28.7394385,982.100818 8.8398272,931.361809 C4.65990849,920.722017 2.87994327,909.142243 1.8189894e-12,897.982462 L1.8189894e-12,125.997539 C0.679987155,123.85758 1.63996786,121.757621 2.01996068,119.557665 C11.3197792,65.5387201 41.8991818,28.7394385 92.6381908,8.8398272 C103.277983,4.65990849 114.857757,2.87994327 126.017538,3.63797881e-12 L898.002461,3.63797881e-12 C900.14242,0.679987155 902.242379,1.63996786 904.442335,2.01995952 C958.46128,11.319778 995.260561,41.8991806 1015.16017,92.6381896 C1019.34009,103.277982 1021.12006,114.857756 1024,126.017538 L1024,898.002461 C1023.32001,900.14242 1022.36003,902.242379 1021.98004,904.442335 C1012.66022,958.46128 982.100819,995.260561 931.36181,1015.16017 C920.702019,1019.32009 909.122244,1021.10006 897.982462,1024 Z M463.35095,620.987871 C468.050858,623.647819 471.230796,625.427785 474.370735,627.247749 C531.669615,660.5271 591.268452,688.366555 656.38718,702.746274 C739.765552,721.165915 812.104139,702.206284 871.542978,639.207515 C877.902853,632.467647 879.942813,625.567782 877.002871,616.027968 C874.702916,617.667936 872.842952,618.867912 871.122987,620.247886 C849.403411,637.547548 824.763893,649.087323 798.004414,655.88719 C738.665574,670.966895 680.346712,664.907013 622.887834,646.067382 C595.94836,637.247554 570.588855,624.947795 545.849339,609.788091 C550.169255,606.268159 553.869183,603.548212 557.249117,600.468272 C574.688776,584.548584 581.568642,564.74897 576.748736,541.749419 C569.588876,507.610086 543.249389,491.930391 513.54997,477.330678 C511.470011,491.450402 509.530048,503.870159 507.810082,516.329915 C505.390129,534.00957 505.630124,533.689576 521.129822,541.989414 C527.769692,545.549345 534.289566,550.049257 539.409464,555.48915 C546.989316,563.548993 547.029316,575.46876 541.149431,584.20859 C535.609539,592.408429 528.549677,594.808383 516.349915,589.728482 C503.190172,584.248589 490.910412,576.708736 478.010664,570.548856 C472.530771,567.928907 471.110799,564.548973 472.030781,558.769087 C474.650731,542.329408 476.530694,525.769731 479.190641,509.330052 C485.810512,468.430851 468.050859,441.371379 427.551649,431.691569 C398.172223,424.671706 368.492803,426.551669 339.153376,431.271577 C319.573759,434.411515 300.394133,440.051405 281.034511,444.571317 C287.73438,434.831507 294.974238,424.951701 301.494112,414.611902 C304.714049,409.532001 308.473975,407.592039 314.413859,407.392043 C341.373332,406.452062 368.352805,405.212085 395.29228,403.832112 C424.871702,402.312142 454.691119,402.672136 483.29056,393.132322 C498.530263,388.052421 501.790199,381.872541 498.450265,367.192828 C441.31138,370.332766 384.492491,373.452706 325.733638,376.692643 C333.133493,362.852913 339.033378,351.793129 345.473252,339.713364 C328.073592,331.093533 311.593914,322.933692 294.934239,314.673854 C285.834417,334.413468 277.49458,352.873108 268.714752,371.132751 C267.354779,373.992695 264.034844,377.912618 261.594891,377.932618 C237.715357,378.132614 213.215836,385.712466 190.47628,372.152731 C184.2764,395.152281 196.456163,411.491962 219.495713,411.591961 C228.33554,411.63196 237.175368,410.851975 248.175153,410.331985 C219.65571,457.591062 191.47626,502.370187 143.577196,534.929552 C152.257026,537.269507 158.136912,540.269448 163.996796,540.189449 C191.99625,539.829456 209.555907,519.529853 231.995469,502.190192 C219.13572,568.628894 219.935705,635.207594 188.796313,695.106424 C226.035585,700.42632 251.555087,683.026661 259.454933,647.627351 C260.974903,640.807485 262.354876,633.92762 264.234839,627.20775 C277.894572,577.868713 305.434034,540.989434 356.453038,525.629734 C376.572645,519.569852 397.192243,517.769887 419.171813,518.889866 C417.731842,528.849672 416.511865,537.229508 415.311889,545.469346 C410.091991,545.469346 406.112068,545.589344 402.152145,545.449347 C381.972539,544.689361 362.192926,546.34933 343.393294,554.46917 C315.793832,566.388937 301.734107,592.068436 306.794008,621.667858 C311.413917,648.68733 329.493564,664.56702 352.75311,675.686803 C380.912559,689.16654 411.251968,693.046463 441.951368,695.606414 C450.831194,696.3464 453.411145,693.186461 454.391125,684.886623 C456.791078,664.107028 460.131013,643.447433 463.35095,620.987871 L463.35095,620.987871 Z M687.846566,411.13197 C680.806704,417.791839 677.046777,428.811624 662.907052,430.711587 C647.567351,432.771547 632.727642,438.591434 617.627937,442.671354 C611.388058,444.371321 608.868108,448.111248 608.008125,454.711119 C602.748228,494.990332 597.268335,535.249546 591.288452,575.428761 C586.188552,609.76809 585.788559,609.828089 618.187926,621.947853 C674.086834,642.867444 731.085721,641.887463 788.444601,629.467706 C791.484541,628.807719 795.024472,623.407824 795.64446,619.747895 C799.384387,597.748325 802.584324,575.648756 805.524268,553.529189 C808.904201,528.129685 812.504131,502.710182 814.684089,477.19068 C816.064062,460.850999 809.384192,446.631277 794.924475,438.25144 C786.184646,433.191539 776.044843,429.731607 766.085038,427.791645 C752.945295,425.231694 739.38556,424.831703 725.125837,423.431729 C735.72563,412.351946 745.905432,404.852092 762.105116,404.232105 C788.584598,403.232125 815.12408,399.892189 841.24357,395.332279 C859.583212,392.132342 861.803168,386.712447 860.2232,367.132829 C834.323705,369.532782 808.384212,371.932735 779.524775,374.592683 C791.604539,361.712935 801.404348,351.253139 812.144138,339.813362 C794.304487,330.913536 778.044804,322.793694 761.645124,314.613855 C759.82516,316.773813 758.465187,318.213784 757.305209,319.793753 C744.705455,336.973418 732.525693,354.513075 719.205953,371.132751 C716.446007,374.572684 709.486142,375.412668 704.366244,375.732661 C702.886273,375.832659 700.106326,370.072771 699.526337,366.712837 C696.686393,350.373156 694.406438,333.933477 691.74649,316.333821 L640.747486,338.173395 C646.527373,352.19312 651.667273,364.652877 657.447159,378.692604 C632.28765,377.312631 608.188121,385.952462 585.72856,372.012734 C579.928673,395.212281 591.068456,410.65198 613.568017,411.571962 C617.207946,411.711959 620.887874,411.15197 624.547802,411.13197 C645.64739,411.11197 666.786978,411.13197 687.846566,411.13197 L687.846566,411.13197 Z M526.469718,386.732446 C523.929767,404.592097 521.369818,421.611765 519.249859,438.691432 C519.009864,440.551396 520.829828,443.791332 522.529795,444.611317 C542.929397,454.391126 561.829027,466.270893 577.208727,483.630554 C593.748404,450.651198 569.968868,405.192086 526.469718,386.732446 Z" id="形状" fill="#D30808" fill-rule="nonzero"></path>
            <path d="M278.714556,538.989473 C281.374505,520.789829 283.494462,504.730143 286.254409,488.790453 C286.7344,486.070505 289.454346,482.970566 291.974297,481.490595 C324.59366,462.610964 359.712975,456.651081 396.77225,462.590965 C405.99207,464.070936 414.211909,468.350853 420.411789,477.990664 C366.212847,482.31058 316.993809,495.630319 278.714556,538.989473 L278.714556,538.989473 Z M408.472022,592.92842 C404.852093,617.167947 401.652156,638.46753 398.492217,659.647116 C375.872658,659.647116 354.473076,642.147458 351.513134,621.887854 C349.15318,605.768169 358.572996,592.128435 374.832679,590.808461 C385.49247,589.948477 396.372258,592.048436 408.472022,592.92842 Z M636.467569,594.088396 C639.527509,583.14861 647.527353,578.5487 655.807191,575.168767 C685.56661,562.989005 715.966016,562.609012 748.265385,571.488838 C747.085409,579.62868 746.305423,587.448527 744.625456,595.068378 C744.205464,596.968341 741.205523,599.0683 739.005567,599.668288 C704.54624,609.168102 670.646903,607.168141 636.467569,594.088396 Z M753.305288,530.609636 C714.546044,531.349622 676.806782,533.749575 642.927443,555.089159 C643.907423,529.209664 649.647311,521.26982 673.066855,513.669967 C695.706413,506.31011 718.825961,505.650123 742.145506,509.790043 C758.145193,512.609988 758.785181,513.849964 753.305288,530.609636 L753.305288,530.609636 Z M652.507256,496.330306 C651.987266,493.850354 651.847268,493.510361 651.867269,493.210367 C653.987228,461.950977 657.927151,456.491084 689.226539,452.371164 C705.426222,450.251205 722.285893,450.971192 738.605575,452.751157 C749.865355,453.971133 755.105253,460.850999 759.025175,472.210777 C721.965898,473.590749 685.286616,476.050702 652.507256,496.330306 Z" id="形状" fill="#D30808" fill-rule="nonzero"></path>
        </g>
    </g>
</svg>