<?xml version="1.0" encoding="UTF-8"?>
<svg width="1025px" height="1024px" viewBox="0 0 1025 1024" version="1.1" xmlns="http://www.w3.org/2000/svg" xmlns:xlink="http://www.w3.org/1999/xlink">
    <title>Youtube</title>
    <g id="ICON-新版方图标" stroke="none" stroke-width="1" fill="none" fill-rule="evenodd">
        <g id="Youtube" transform="translate(0.061, 0)">
            <rect id="蒙版路径" fill="#FFFFFF" x="0" y="0" width="1024" height="1024"></rect>
            <g id="编组" transform="translate(159, 262)" fill="#FF0000" fill-rule="nonzero">
                <path d="M283.166667,352.941177 L283.166667,147.058823 L459.666667,250.352941 L283.166667,352.941177 Z M698.94,107.852941 C698.94,107.852941 692.027083,58.8823525 670.8765,37.2941174 C644.019083,8.97058801 613.925833,8.85294072 600.129417,7.20588213 C501.34825,0 353.147083,0 353.147083,0 L352.852917,0 C352.852917,0 204.65175,0 105.870583,7.20588213 C92.04475,8.85294072 61.9809162,8.97058801 35.0940831,37.2941174 C13.9435,58.8823525 7.06,107.882353 7.06,107.882353 C7.06,107.882353 0,165.352941 0,222.852941 L0,276.823529 C0,334.352941 7.06,391.882353 7.06,391.882353 C7.06,391.882353 13.9435,440.852941 35.0940831,462.441177 C61.9809162,490.764706 97.2515,489.852941 112.96,492.823529 C169.44,498.323529 353,500 353,500 C353,500 501.34825,499.764706 600.129417,492.588235 C613.95525,490.911765 644.019084,490.794117 670.8765,462.470588 C692.0565,440.882353 698.94,391.882353 698.94,391.882353 C698.94,391.882353 706,334.382353 706,276.852941 L706,222.911764 C706,165.382353 698.94,107.852941 698.94,107.852941 Z" id="形状"></path>
            </g>
        </g>
    </g>
</svg>