<svg xmlns="http://www.w3.org/2000/svg" width="1024" height="1024"><g fill="none" fill-rule="evenodd"><path fill="#FFF" d="M0 0h1024v1024H0z"/><path fill="red" fill-rule="nonzero" d="M512 142c-204.24 0-370 165.76-370 370s165.76 370 370 370 370-165.76 370-370-165.76-370-370-370m0 589.04c-120.99 0-219.04-98.05-219.04-219.04S391.01 292.96 512 292.96 731.04 391.01 731.04 512 632.99 731.04 512 731.04m0-411.07c-105.82 0-192.03 86.21-192.03 192.03 0 105.82 86.21 192.03 192.03 192.03 105.82 0 192.03-86.21 192.03-192.03 0-105.82-86.21-192.03-192.03-192.03m-71.41 301.18v-218.3L629.66 512z"/></g></svg>