<svg xmlns="http://www.w3.org/2000/svg" width="1025" height="1024"><g fill="none" fill-rule="evenodd"><path fill="#2548EC" d="M.633 0h1024v1024H.633z"/><path fill="#FFF" fill-rule="nonzero" d="M387.27 130.435c18.982 7.648 36.113 17.765 53.5 28.437 8.127 4.89 16.26 9.776 24.394 14.65l12.965 7.788c22.582 13.408 45.456 26.293 68.31 39.232a5290.26 5290.26 0 0 1 125.994 74.069 2663.708 2663.708 0 0 0 97.67 56.096c14.213 8.885 24.74 18.16 36 30.501l-9.6 5.686a2446.58 2446.58 0 0 0-90.4 56.608c-12 7.04-12 7.04-22.667 7.04v10.666l12.667 3.334c22.17 8.41 40.98 19.733 61.082 32.186 11.248 7.174 11.248 7.174 22.25 12.48v314.667l-85.332 48-21.334 16h-16v10.667c-24.437-2.88-38.63-12.8-58.666-26.667-7.04-4.03-14.123-7.982-21.248-11.856-29.654-16.325-58.87-33.381-88.086-50.475l-17.03-9.952c-16.548-9.68-33.092-19.36-49.636-29.05l-13.462-7.883a15005.114 15005.114 0 0 1-157.205-93.45l-26.667-16c6.272-18.811 8.79-19.36 25.67-28a1589.27 1589.27 0 0 0 62.666-35.003l16.683-9.771 12.315-7.227c-12.747-10.922-22.198-16.266-38.432-21.269-22.976-8.71-39.072-16.08-52.235-37.397-11.69-48.102-6.832-99.664-4.763-148.8.715-18.694 1.03-37.392 1.376-56.096.747-36.608 1.92-73.184 3.387-109.771l17.355-9.75 22.98-12.917 11.382-6.4 11.307-6.346 11.28-6.326c7.276-4.13 14.512-8.331 21.707-12.602 25.322-14.982 25.322-14.982 39.824-15.1"/><path fill="#1A3FE0" fill-rule="nonzero" d="M384.77 285.208c18.826 7.53 34.58 14.63 51.893 24.587l14.325 8.203 14.779 8.544 14.469 8.293a4609.07 4609.07 0 0 1 83.643 49.35 2113.25 2113.25 0 0 0 37.744 21.92l11.802 6.762a3625.268 3625.268 0 0 0 23.915 13.541l11.616 6.694 10.4 5.904c8.08 6.202 8.08 6.202 13.413 22.202-30.352 17.824-60.725 35.627-91.333 53.003l-11.376 6.475c-9.29 4.522-9.29 4.522-19.957 4.522 14.805 17.44 34.277 27.126 54 38 36.106 20.107 36.106 20.107 42 26 .469 11.056.57 22.123.522 33.19l-.053 20.362-.139 21.451a20099.56 20099.56 0 0 1-.33 74.33c-15.446-3.306-27.824-8.138-41.6-15.84l-11.67-6.49-12.394-7.008c-4.267-2.4-8.544-4.79-12.944-7.259a3010.666 3010.666 0 0 1-88.592-51.893 1973.149 1973.149 0 0 0-55.254-32.475l-12.714-7.258a2369.592 2369.592 0 0 0-24.662-13.856c-9.653-5.531-18.954-11.68-28.165-17.926v-16l17.728-9.936 23.275-13.066 11.653-6.528a5164.658 5164.658 0 0 0 22.475-12.694 2802.601 2802.601 0 0 1 26.309-14.672l10.555-7.098v-10.667l-85.334-48V285.208"/></g></svg>