<svg xmlns="http://www.w3.org/2000/svg" width="1026" height="1024"><g fill="none" fill-rule="evenodd"><path fill="#06F" d="M2 0h1024v1024H2z"/><g fill-rule="nonzero"><path fill="#FFF" d="M855.333 773.666H741.75l-98.355 62.055-9.364-62.055h-71.435V263.128h292.738zM495.847 835.72l-112.413-174.5 49.186-35.13 74.946 108.897c-.006 0 25.754 42.218-11.72 100.734"/><path fill="#06F" d="m675.007 747.878 52.69-37.472h58.545V326.332H626.998v385.251h39.811z"/><path fill="#FFF" d="M539.173 528.942v28.103h-140.51C342.458 916.52 172.668 839.828 172.668 839.828 328.406 717.756 331.33 557.045 331.33 557.045H176.768c0-64.399 57.959-63.238 57.959-63.238h104.215V325.188h-56.207c-21.071 94.851-110.068 90.17-110.068 90.17s36.3-56.207 60.888-152.224c24.587-96.023 99.527-85.476 99.527-85.476-22.244 39.811-32.785 85.476-32.785 85.476h183.836c44.499 0 42.155 28.103 42.155 28.103v32.79H402.174v169.786h101.87c37.473 0 35.13 35.129 35.13 35.129"/></g></g></svg>