<?xml version="1.0" encoding="UTF-8"?>
<svg width="1024px" height="1024px" viewBox="0 0 1024 1024" version="1.1" xmlns="http://www.w3.org/2000/svg" xmlns:xlink="http://www.w3.org/1999/xlink">
    <title>189.drive</title>
    <defs>
        <linearGradient x1="-2.55113639e-13%" y1="50%" x2="103.68621%" y2="50%" id="linearGradient-1">
            <stop stop-color="#22C8FC" offset="0%"></stop>
            <stop stop-color="#269CFB" offset="34.5120541%"></stop>
            <stop stop-color="#2B73FA" offset="100%"></stop>
        </linearGradient>
    </defs>
    <g id="ICON-新版方图标" stroke="none" stroke-width="1" fill="none" fill-rule="evenodd">
        <g id="189.drive">
            <rect id="蒙版路径" fill="#FFFFFF" x="0" y="0" width="1024" height="1024"></rect>
            <path d="M642.438746,356.836092 C631.025066,356.836092 616.757965,359.689512 605.344284,362.542932 C573.956663,325.448471 525.448521,302.62111 476.940379,302.62111 C411.311716,302.62111 354.243313,339.715571 325.709112,396.783974 L317.148852,396.783974 C131,507 132,506 192,565 C192,516.491858 265.787289,473.826317 314.295431,468.119477 C322.855692,468.119477 334.269372,468.119477 342.829633,470.972897 L345.683053,470.972897 L365.656994,476.679737 C371.363834,419.611335 419.871976,373.956613 479.793799,373.956613 C519.741681,373.956613 556.836142,396.783974 576.810083,431.025015 C579.663503,436.731856 579.663503,439.585276 582.516923,445.292116 L588.223764,439.585276 C602.490864,428.171595 622.587588,424.404222 639.708109,427.257642 C668.24231,430.111062 688.093468,450.998956 688.093468,479.533157 C688.093468,488.093418 685.240048,496.653678 682.386628,505.213939 C690.946888,510.920779 696.653728,516.627619 708.067409,519.481039 C713.774249,513.774199 719.481089,510.920779 722.33451,505.213939 C769.444837,494.404646 820.333333,517.333333 875,574 C824.584569,491.999304 779.402912,447.194396 739.45503,439.585276 C733.74819,391.077133 690.946888,356.836092 642.438746,356.836092 Z" id="路径" fill-opacity="0.464953016" fill="#CDDEFC" fill-rule="nonzero"></path>
            <path d="M664.089141,309.33284 C651.176964,309.33284 635.036743,312.560884 622.124566,315.788928 C586.61608,273.824354 531.739328,248 476.862577,248 C402.61756,248 338.056676,289.964575 305.776234,354.525459 L296.092101,354.525459 C196.02273,354.525459 115.321625,431.99852 112.093581,532.06789 C108.865537,632.137261 189.566642,712.838366 289.636013,716.06641 L525.28324,716.06641 C544.651505,716.06641 560.791726,699.926189 560.791726,680.557924 C560.791726,661.189659 544.651505,645.049438 525.28324,645.049438 L305.776234,645.049438 L302.548189,645.049438 C244.443394,645.049438 196.02273,599.856819 196.02273,541.752023 C196.02273,486.875272 237.987305,441.682653 292.864057,435.226564 C302.548189,435.226564 315.460366,435.226564 325.144499,438.454608 L328.372543,438.454608 L350.968853,444.910697 C357.424941,380.349813 412.301692,328.701105 480.090621,328.701105 C525.28324,328.701105 567.247815,354.525459 589.844124,393.261989 C593.072168,399.718078 593.072168,402.946122 596.300212,409.40221 L602.756301,402.946122 C618.896522,390.033945 641.631735,385.771956 661,389 C693.280442,392.228044 715.737848,415.858299 715.737848,448.138741 C715.737848,457.822874 712.509804,467.507006 709.28176,477.191139 C718.965892,483.647227 725.421981,490.103316 738.334158,493.33136 C744.790246,486.875272 751.246335,483.647227 754.474379,477.191139 C806.123086,480.419183 844.859617,525.611802 841.631572,577.260509 C838.403528,625.681173 796.438953,664.417703 744.790246,664.417703 C706.053716,664.417703 667.317185,638.593349 654.405008,599.856819 L693.141539,599.856819 C699.597627,599.856819 702.825671,596.628775 702.825671,590.172686 C702.825671,586.944642 702.825671,586.944642 699.597627,583.716598 L622.124566,480.419183 C618.896522,477.191139 612.440434,473.963095 605.984345,477.191139 L602.756301,480.419183 L525.28324,583.716598 C522.055196,586.944642 522.055196,596.628775 528.511284,599.856819 C531.739328,599.856819 531.739328,603.084863 534.967372,603.084863 L580.159991,603.084863 C596.300212,693.470101 683.457406,754.802941 773.842644,738.66272 C864.227882,722.522499 925.560722,635.365305 909.420501,544.980067 C896.508324,467.507006 841.631572,415.858299 773.842644,402.946122 C767.386556,348.069371 718.965892,309.33284 664.089141,309.33284 Z" id="路径" fill="url(#linearGradient-1)" fill-rule="nonzero"></path>
            <path d="M654.405008,599.856819 L693.141539,599.856819 C699.597627,599.856819 702.825671,596.628775 702.825671,590.172686 C702.825671,586.944642 702.825671,586.944642 699.597627,583.716598 L622.124566,480.419183 C618.896522,477.191139 612.440434,473.963095 605.984345,477.191139 L602.756301,480.419183 L525.28324,583.716598 C522.055196,586.944642 522.055196,596.628775 528.511284,599.856819 C531.739328,599.856819 531.739328,603.084863 534.967372,603.084863 L580.159991,603.084863 C588.283306,657.359938 634.361228,718.114872 697.772952,734.398115 C751.742114,748.890309 798.673366,741.330265 838.566707,711.717982 C794.978166,729.255821 749.436587,714.760705 701.941968,668.232633 C672.117148,638.010287 657.834496,610.145282 654.405008,599.856819 Z" id="路径" fill="#FF5877" fill-rule="nonzero"></path>
        </g>
    </g>
</svg>