<?xml version="1.0" encoding="UTF-8"?>
<svg width="1025px" height="1024px" viewBox="0 0 1025 1024" version="1.1" xmlns="http://www.w3.org/2000/svg" xmlns:xlink="http://www.w3.org/1999/xlink">
    <title>Aliyun.cloud</title>
    <g id="ICON-新版方图标" stroke="none" stroke-width="1" fill="none" fill-rule="evenodd">
        <g id="Aliyun.cloud" transform="translate(0.6332, 0)">
            <rect id="蒙版路径" fill="#F76E05" x="0" y="0" width="1024" height="1024"></rect>
            <g id="编组" transform="translate(111.9679, 264)" fill="#FFFFFF" fill-rule="nonzero">
                <path d="M143.279922,380.310891 C126.548978,376.846775 114.492502,362.180722 114.319938,345.082629 L114.319938,151.32719 C114.95016,134.399434 126.804174,119.979664 143.279922,116.098928 L323.039825,77.1076477 L341.919815,0.00286043978 L133.199928,0.00286043978 C97.9542775,-0.228803171 64.0716712,13.6195731 39.0662176,38.4797828 C14.0607641,63.3399925 0,97.1572832 0,132.432031 L0,361.415733 C0.479452094,434.852493 59.8224223,494.278812 133.199928,494.802742 L341.919815,494.802742 L323.039825,418.021144 L143.279922,380.310891 Z M666.31964,0.00579317349 L455.999753,0.00579317349 L475.199743,77.1076477 L654.959646,116.098928 C671.674011,119.590499 683.716953,134.240089 683.91963,151.32719 L683.91963,345.082629 C683.235602,361.989892 671.404933,376.381264 654.959646,380.310891 L475.199743,419.302172 L455.999753,496.404412 L666.31964,496.404412 C701.78593,496.489255 735.825305,482.432216 760.911336,457.341054 C785.997368,432.249892 800.063497,398.19159 799.999785,362.69676 L799.999785,132.432031 C799.124548,59.1302414 739.567702,0.131936874 666.31964,0.00579317349 L666.31964,0.00579317349 Z" id="形状"></path>
                <polygon id="路径" points="269.507324 223.701731 542.210386 223.701731 542.210386 286.551265 269.507324 286.551265"></polygon>
            </g>
        </g>
    </g>
</svg>