<?xml version="1.0" encoding="UTF-8"?>
<svg width="1024px" height="1024px" viewBox="0 0 1024 1024" version="1.1" xmlns="http://www.w3.org/2000/svg" xmlns:xlink="http://www.w3.org/1999/xlink">
    <title>Baidu.map</title>
    <g id="ICON-新版方图标" stroke="none" stroke-width="1" fill="none" fill-rule="evenodd">
        <g id="Baidu.map" transform="translate(0, -0.0008)">
            <rect id="蒙版路径" fill="#FFFFFF" x="0" y="0" width="1024" height="1024"></rect>
            <g id="编组" transform="translate(0, 135.646)" fill-rule="nonzero">
                <path d="M475.347019,613.439551 C482.285956,599.565722 496.467204,590.802373 511.97952,590.802373 C527.491837,590.802373 541.673084,599.565722 548.612022,613.439551 L656.425747,829.046523 C662.775067,841.743868 662.096693,856.823559 654.632925,868.89951 C647.169156,880.975462 633.984479,888.324104 619.788126,888.324104 L404.181154,888.324104 C389.984801,888.324104 376.800124,880.975462 369.336356,868.89951 C361.872588,856.823559 361.194214,841.743868 367.543533,829.046523 L475.347019,613.439551 Z" id="路径" fill="#B4CDE6"></path>
                <polygon id="路径" fill="#C9E4FF" points="116.322911 697.384553 367.779046 697.384553 231.242983 888.324104 -1.58598996e-15 888.354824 5.52797333e-13 754.354824"></polygon>
                <polygon id="路径" fill="#EEEEEE" points="338.65736 581.501949 452.00052 581.501949 378.715039 680.673374 150.922833 680.673374"></polygon>
                <polygon id="路径" fill="#EEEEEE" points="0 717.423631 283.639491 580.887568 0 580.887568"></polygon>
                <polygon id="路径" fill="#CBFFCB" points="907.63613 697.384553 656.210714 697.384553 792.726298 888.324104 1024 888.354824 1024 754.354824"></polygon>
                <polygon id="路径" fill="#EEEEEE" points="685.3324 581.501949 571.98924 581.501949 645.315681 680.673374 873.066928 680.673374"></polygon>
                <polygon id="路径" fill="#EEEEEE" points="1024 717.423631 740.360509 580.887568 1024 580.887568"></polygon>
                <path d="M481.265562,622.092091 C481.265562,629.408671 487.120584,636.16947 496.625101,639.82776 C506.129617,643.48605 517.839664,643.48605 527.34418,639.82776 C536.848696,636.16947 542.703719,629.408671 542.703719,622.092091 C542.703719,610.781639 528.950319,601.612706 511.98464,601.612706 C495.018962,601.612706 481.265562,610.781639 481.265562,622.092091 L481.265562,622.092091 Z" id="路径" fill="#ADBDCE"></path>
                <path d="M511.093787,0 C635.681555,-0.0684098154 736.834612,100.686209 737.257882,225.273276 C737.257882,399.348054 519.152425,458.257007 519.152425,615.948276 C519.635866,618.798192 518.385023,621.66377 515.966502,623.246961 C513.547982,624.830151 510.421299,624.830151 508.002778,623.246961 C505.584258,621.66377 504.333415,618.798192 504.816856,615.948276 C504.816856,458.257007 286.710118,399.348054 286.710118,225.273276 C286.510058,165.619944 310.05711,108.338906 352.154974,66.0739026 C394.252838,23.8088996 451.440125,0.0350640253 511.093787,0 L511.093787,0 Z" id="路径" fill="#E3423A"></path>
                <polygon id="路径" fill="#FFFFFF" points="465.906023 120.347144 501.744947 120.347144 501.744947 335.380693 465.906023 335.380693"></polygon>
                <path d="M522.224334,202.264687 L645.100647,202.264687 L645.100647,335.380693 L563.183104,335.380693 C552.320163,335.380693 541.902139,331.065406 534.220879,323.384147 C526.53962,315.702887 522.224334,305.284863 522.224334,294.421921 L522.224334,202.264687 L522.224334,202.264687 Z" id="路径" fill="#FFFFFF"></path>
                <path d="M440.306791,238.103611 C426.168725,238.103611 414.707559,249.564777 414.707559,263.702843 L414.707559,273.942536 C414.707559,288.080601 426.168725,299.541768 440.306791,299.541768 L465.906023,299.541768 L465.906023,238.103611 L440.306791,238.103611 M440.306791,202.264687 L501.744947,202.264687 L501.744947,335.380693 L440.306791,335.380693 C406.375434,335.380693 378.868634,307.873893 378.868634,273.942536 L378.868634,263.702843 C378.868634,229.771486 406.375434,202.264687 440.306791,202.264687 L440.306791,202.264687 Z" id="形状" fill="#FFFFFF"></path>
                <path d="M558.063258,192.024993 L609.261722,192.024993 L609.261722,299.541768 L563.183104,299.541768 C561.825237,299.541768 560.522984,299.002357 559.562826,298.0422 C558.602669,297.082042 558.063258,295.779789 558.063258,294.421921 L558.063258,192.024993 L558.063258,192.024993 Z" id="路径" fill="#E34040"></path>
                <path d="M389.108327,826.885947 L511.98464,826.885947 L511.98464,888.324104 L389.108327,888.324104 C372.142648,888.324104 358.389248,874.570704 358.389248,857.605026 C358.389248,840.639347 372.142648,826.885947 389.108327,826.885947 Z" id="路径" fill="#DB3A42"></path>
                <path d="M511.98464,826.885947 L634.860954,826.885947 C651.826632,826.885947 665.580032,840.639347 665.580032,857.605026 C665.580032,874.570704 651.826632,888.324104 634.860954,888.324104 L511.98464,888.324104 L511.98464,826.885947 L511.98464,826.885947 Z" id="路径" fill="#407CEC"></path>
            </g>
        </g>
    </g>
</svg>