<?xml version="1.0" encoding="UTF-8"?>
<svg width="1024px" height="1024px" viewBox="0 0 1024 1024" version="1.1" xmlns="http://www.w3.org/2000/svg" xmlns:xlink="http://www.w3.org/1999/xlink">
    <title>Bt.panel</title>
    <g id="ICON-新版方图标" stroke="none" stroke-width="1" fill="none" fill-rule="evenodd">
        <g id="Bt.panel">
            <rect id="蒙版路径" fill="#EAF1EA" x="0" y="0" width="1024" height="1024"></rect>
            <g id="路径" transform="translate(162, 135)" fill-rule="nonzero">
                <path d="M350.676797,751.400085 C349.171746,748.389984 349.171746,744.627357 348.419221,740.864731 L348.419221,250.218226 C348.419221,244.950548 348.419221,239.682871 347.666696,234.415194 C347.666696,233.662669 347.666696,232.910143 349.171746,232.910143 C350.676797,232.910143 352.181847,232.910143 353.686898,233.662669 C369.48993,238.177821 384.540437,242.692972 400.343468,246.455599 C404.106094,247.208125 405.611145,249.4657 404.85862,253.228327 L404.85862,289.349542 C404.85862,293.864694 406.36367,296.12227 410.878822,296.874795 C420.661651,299.132371 430.44448,302.142473 440.227309,303.647523 L440.979835,303.647523 C444.742461,302.142472 447.000037,304.400048 450.010138,305.905099 L450.762664,305.905099 C457.535392,305.905099 451.515189,302.894998 453.020239,301.389947 C452.267714,290.854593 453.020239,281.071764 453.020239,270.536409 C453.020239,268.278834 453.020239,265.268732 455.277816,263.763681 L456.782866,263.763681 C472.585898,268.278834 487.636405,272.793985 503.439436,277.309137 C506.449537,278.061662 506.449537,280.319238 506.449537,282.576814 L506.449537,317.945504 C506.449537,321.70813 507.202063,323.965707 510.964689,324.718232 C519.994993,326.975808 529.777822,329.233384 538.808125,332.243485 L539.560651,332.243485 C544.075803,330.738435 547.838429,334.501061 552.353581,333.748536 C553.106106,333.748536 553.858632,332.99601 553.858632,332.243485 C555.363682,326.975808 553.858632,321.708131 554.611157,316.440453 C555.363682,309.667725 554.611157,302.894997 554.611157,296.874795 L554.611157,295.369745 C554.611157,293.112169 555.363682,293.864694 556.868733,293.864694 C571.919239,298.379846 587.722271,302.894997 602.772777,307.410143 C606.535404,308.9152 605.782878,311.172776 605.782878,314.182878 C605.782878,352.561668 606.535404,390.94046 606.535404,429.31925 C606.535404,476.728346 606.535404,524.13744 607.287929,571.546535 C607.287929,576.814213 605.782878,582.834415 603.525303,587.349567 C590.732373,612.182902 573.42429,632.501086 552.353581,651.314218 C514.727316,685.177857 471.080848,708.506142 424.424278,728.0718 C402.601043,737.102104 380.77781,743.122307 358.954575,751.400085 C357.449525,752.152611 356.696999,752.152611 356.696999,752.152611 L355.944474,752.152611 C354.439424,752.905136 352.934373,753.657661 351.429322,753.657661" fill="#20A43A"></path>
                <path d="M347.666696,233.662669 C349.171746,233.662669 350.676797,235.167719 350.676797,236.67277 L350.676797,752.905136 L349.171746,752.152611 C349.171746,752.152611 319.070733,742.369782 304.020227,737.102104 C252.095981,718.288971 203.181835,694.960686 161.040417,659.591997 C136.959607,640.026339 116.641424,618.203104 101.590918,591.112193 C97.0757653,583.58694 94.8181896,574.556636 94.8181896,566.278858 C95.5707148,481.996022 95.5707148,397.713187 95.5707156,313.430352 C95.5707156,308.162669 97.0757661,306.657624 101.590918,305.152574 C116.641424,301.389948 130.939405,296.874795 145.989911,292.359643 C148.247487,294.617219 147.494961,297.627321 147.494962,299.884896 L147.494962,324.718232 C147.494962,330.738435 148.247487,331.49096 154.267689,329.985909 C156.525265,329.233384 158.782842,329.233384 161.040417,329.985909 C170.823246,327.728334 180.606075,324.718232 191.14143,322.460656 C194.904057,321.708131 194.904057,319.450555 194.904057,316.440453 L194.904057,280.319238 C194.904057,278.061663 194.904057,275.804086 197.914158,275.051561 L245.323253,261.506106 C247.580829,263.763681 246.828303,266.773783 246.828303,269.783884 C246.828303,280.319238 246.075778,290.854593 247.580829,302.142472 C251.343455,305.152573 254.353557,301.389947 258.116184,301.389947 C259.621234,300.637422 261.126285,301.389947 263.38386,301.389947 C272.414164,299.132371 281.444468,296.122269 290.474771,293.864694 C294.989924,293.112168 296.494974,290.854593 296.494974,286.33944 C295.742449,274.299036 296.494974,262.25863 296.494974,249.4657 C296.494974,247.208125 296.494974,244.950548 299.505075,244.198024 C315.308107,241.940448 331.863664,237.425296 347.666696,233.662669 L347.666696,233.662669 Z" fill="#18842D"></path>
                <path d="M350.676797,117.021245 C358.20205,117.77377 363.469727,120.783871 364.222253,129.06165 C364.974778,135.834378 365.727303,144.864682 370.242455,149.379833 C374.757608,153.894985 383.787911,153.894985 390.560639,156.152561 C475.595999,180.233371 560.63136,204.314182 645.66672,227.642467 C650.181873,229.147517 653.191974,229.147517 656.9546,225.38489 L657.707125,224.632365 C669.74753,212.59196 683.292986,208.829333 699.848543,215.602061 C700.601068,217.107112 698.343492,217.859637 697.590967,219.364688 C684.045511,237.425296 670.500056,254.733378 656.9546,272.793985 C654.697024,276.556611 652.439448,277.309137 647.924296,275.804086 C550.848531,247.208125 453.020239,219.364687 355.944474,191.521245 C352.934373,190.768726 349.924271,190.0162 346.161645,190.768726 C348.419221,183.243472 347.666696,174.965694 347.666696,167.440441 L347.666696,126.804074 C348.419221,122.288922 348.419221,119.278821 350.676797,117.021245 L350.676797,117.021245 Z" fill="#20A43A"></path>
                <path d="M350.676797,117.021245 L350.676797,182.490947 C350.676797,186.253573 350.676797,188.51115 346.91417,190.0162 C319.823259,197.541454 293.484873,205.819232 267.146487,213.344485 C195.656583,233.662669 124.166677,254.733378 53.4292979,275.051561 C51.1717221,275.804086 48.1616204,277.309137 45.9040447,274.299036 C30.8535382,254.733378 15.8030317,235.167719 0,214.849536 L23.328285,211.839435 C24.8333355,211.839435 25.5858607,211.839435 27.0909119,212.59196 C28.5959632,213.344485 29.3484877,214.097011 30.1010129,214.849536 C42.1414177,227.642466 55.6868736,227.642466 72.2424306,223.127314 C156.525266,198.293979 241.560627,174.965694 325.843461,151.63741 C329.606087,150.132359 332.616189,148.627309 333.368714,144.112156 C334.12124,138.844479 336.378815,133.576802 337.131341,128.309125 C337.883867,120.031346 343.151544,117.021245 350.676797,117.021245 Z" fill="#18842D"></path>
                <path d="M350.676797,1.13234645 C362.717201,0.3798212 362.717201,0.3798212 364.974778,11.6677007 C367.984879,25.9656819 370.242455,41.0161876 373.252556,55.3141689 C373.252556,58.3242699 375.510132,60.5818463 378.520234,61.3343716 C457.535392,85.4151818 536.55055,108.743467 615.565707,132.824277 C617.823283,133.576802 620.833385,133.576802 622.338435,131.319226 L623.090961,130.5667 C635.883891,119.278821 650.181872,113.258618 667.489954,121.536397 C667.489954,123.041447 665.232378,123.793972 664.479853,124.546498 C649.429347,139.597005 633.626315,153.894985 619.328334,168.945492 C615.565708,172.708118 612.555606,173.460644 607.287929,171.955593 C523.757619,148.627308 439.474783,125.299024 355.944474,101.970739 C353.686898,101.218214 351.429322,101.218214 349.924271,100.465688 C349.171746,98.2081125 348.419221,95.950536 349.171746,94.4454855 L349.171746,10.9151754 C348.419221,7.90507443 347.666696,4.14244745 350.676797,1.13234645 L350.676797,1.13234645 Z" fill="#20A43A"></path>
                <path d="M350.676797,1.13234645 L350.676797,93.6929603 C350.676797,95.950536 350.676797,98.9606378 349.171746,101.218214 C307.782854,112.506093 267.146487,124.546498 225.757595,135.834378 C182.111127,147.874783 138.464658,159.915188 94.8181896,172.708118 C88.7979868,174.213169 85.7878858,173.460643 81.2727343,168.945492 C66.2222279,152.389935 50.4191962,135.834378 36.1212157,120.031346 C40.6363679,119.278821 48.1616204,118.526296 55.6868736,117.021245 C58.6969746,116.26872 60.9545511,118.526296 62.4596016,120.031346 C75.2525316,132.824276 88.0454623,132.071751 104.601019,126.804074 C176.090924,104.228315 249.08588,83.157606 320.575784,61.3343716 C325.090937,59.8293211 327.348512,57.5717453 328.101038,53.0565931 C330.358613,38.0060866 334.12124,23.7081062 336.378816,8.65759968 C337.131341,1.8848717 339.388917,-1.1252293 346.91417,0.3798212 C348.419221,1.13234645 349.171746,1.13234645 350.676797,1.13234645 L350.676797,1.13234645 Z" fill="#18842D"></path>
                <path d="M161.792943,331.49096 C158.030316,332.99601 153.515164,334.501061 149.000013,335.253586 C145.237386,336.006111 145.989912,332.243485 145.989911,330.738435 L145.989911,293.864694 L146.742437,293.864694 C161.792943,296.122269 161.792943,296.122269 161.792943,311.172776 C161.040417,317.192979 161.792943,323.965706 161.792943,331.49096 L161.792943,331.49096 Z" fill="#20A43A"></path>
                <path d="M554.611157,293.112168 L554.611157,295.369745 C555.363682,308.915201 555.363682,321.708131 554.611157,335.253586 C549.34348,334.501061 544.075803,332.243485 538.808125,331.49096 L538.808125,302.894997 C538.808125,298.379845 540.313176,296.122269 544.828328,295.369745 C548.590954,294.61722 551.601056,292.359644 554.611157,293.112168 Z M449.257613,305.905099 L440.227309,303.647523 L440.227309,272.04146 C440.227309,267.526308 441.73236,265.268732 446.247511,265.268732 C449.257612,265.268732 452.267714,263.011156 456.030341,263.763681 C453.772765,269.031359 455.277816,275.051561 454.52529,280.319238 L454.52529,303.647523 C455.277815,306.657624 455.277815,307.410149 449.257613,305.905099 L449.257613,305.905099 Z" id="形状" fill="#18852D"></path>
                <path d="M258.116184,304.400049 C259.621234,304.400049 261.87881,303.647523 263.38386,303.647523 C259.621234,303.647523 261.126285,300.637422 261.126285,299.132371 L261.126285,271.288935 C261.126285,269.031359 261.87881,266.773782 258.868709,266.773782 C254.353557,266.021257 250.59093,263.763681 246.075778,264.516207 L246.075778,302.142472 C246.075778,302.894997 246.075778,308.162675 247.580829,308.9152 L249.838405,308.9152 C250.59093,308.9152 251.343456,308.9152 252.095981,308.162675" fill="#20A53A"></path>
                <path d="M554.611157,335.253586 L554.611157,295.369745 C556.868733,296.874795 556.116207,299.884897 556.116207,302.142472 C556.868733,312.677826 555.363682,323.965707 556.868733,334.501061 C556.868733,335.253586 556.116207,335.253586 556.116207,336.006111 C556.116207,336.006111 555.363682,335.253586 554.611157,335.253586 Z" fill="#24A53E"></path>
            </g>
        </g>
    </g>
</svg>