<?xml version="1.0" encoding="UTF-8"?>
<svg width="1025px" height="1024px" viewBox="0 0 1025 1024" version="1.1" xmlns="http://www.w3.org/2000/svg" xmlns:xlink="http://www.w3.org/1999/xlink">
    <title>CCTV</title>
    <g id="ICON-新版方图标" stroke="none" stroke-width="1" fill="none" fill-rule="evenodd">
        <g id="CCTV" transform="translate(0.6332, 0)">
            <rect id="蒙版路径" fill="#FFFFFF" x="0" y="0" width="1024" height="1024"></rect>
            <path d="M531.7007,855.562617 C429.42037,829.757947 340.276963,783.30954 275.530699,698.857891 C191.07905,587.194044 191.07905,435.181076 276.938226,323.517229 C352.475534,226.867008 453.348337,177.134371 572.049822,160.713217 C633.981031,153.206403 697.319768,156.021458 758.781801,156.021458 C792.093285,156.021458 809.921966,175.726843 809.921966,210.445854 C809.921966,241.880635 791.624109,257.363437 758.781801,258.770965 C702.949878,260.178492 647.117954,254.079206 591.755206,264.87025 C507.303557,279.883877 432.235425,313.195361 383.910315,390.140196 C319.164051,494.29723 350.598831,631.296572 454.755865,702.142122 C513.402843,742.960419 580.025811,762.196628 652.278888,764.073331 L756.435922,764.073331 C792.562461,764.073331 808.983615,780.494485 808.983615,815.213496 C808.983615,846.648277 787.870702,866.353661 754.559219,867.761189 C717.025152,869.168716 690.366812,869 652.366812,869 C614.366812,869 614.366812,870 590.366812,867 C550.366812,862 536.8546,856.929978 531.7007,855.562617 Z" id="路径" fill="#0F0F04" fill-rule="nonzero"></path>
            <path d="M702.011526,295.366679 L761.12768,295.366679 C794.439164,296.774207 810.860318,315.072064 810.860318,351.198603 C810.860318,382.633383 791.154933,402.338768 761.12768,402.338768 L661.662405,402.338768 C628.350921,402.338768 596.916141,408.438054 571.11147,429.550966 C509.180261,477.876076 518.563777,559.043494 587.532624,596.577561 C613.337295,610.18366 640.080317,616.282945 667.292515,616.282945 L765.350263,616.282945 C792.562461,616.282945 810.391142,635.98833 812.267845,663.200528 C813.675373,697.919539 800.069274,723.255034 771.449548,723.255034 C702.011526,724.662562 631.165976,732.169375 563.604657,709.648935 C482.437239,683.844264 423.321084,635.98833 402.208172,550.129154 C382.502787,471.307615 412.999216,409.845581 470.238667,356.828713 C522.78636,308.503602 587.532624,296.774207 655.563119,293.489976 C669.169218,295.366679 685.590372,295.366679 702.011526,295.366679 L702.011526,295.366679 Z" id="路径" fill="#F71D11" fill-rule="nonzero"></path>
        </g>
    </g>
</svg>