<?xml version="1.0" encoding="UTF-8"?>
<svg width="1025px" height="1024px" viewBox="0 0 1025 1024" version="1.1" xmlns="http://www.w3.org/2000/svg" xmlns:xlink="http://www.w3.org/1999/xlink">
    <title>Deepseek</title>
    <g id="ICON-新版方图标" stroke="none" stroke-width="1" fill="none" fill-rule="evenodd">
        <g id="Deepseek" transform="translate(0.061, 0)">
            <rect id="蒙版路径" fill="#FFFFFF" x="0" y="0" width="1024" height="1024"></rect>
            <g id="编组" transform="translate(137, 230)" fill="#4D6BFE" fill-rule="nonzero">
                <path d="M742.117816,47.28399 C734.175623,43.3119899 730.746656,50.8828245 726.106933,54.7301349 C724.525723,55.9716108 723.175821,57.5853488 721.82592,59.074397 C710.22074,71.7331144 696.662088,80.0493766 678.929041,79.0563766 C653.020686,77.5673283 630.897296,85.882687 611.34902,106.113142 C607.191792,81.1661628 593.383761,66.2729696 572.3627,56.7161349 C561.347538,51.7520384 550.23931,46.7870383 542.528426,35.9887277 C537.161346,28.294107 535.702115,19.7302724 533.003215,11.2911275 C531.296412,6.20234121 529.589608,0.989768746 523.850267,0.120554894 C517.59771,-0.872445129 515.161743,4.46481705 512.710415,8.93286538 C502.936729,27.1773208 499.135499,47.28399 499.523122,67.6382316 C500.361615,113.436405 519.319874,149.925315 556.957195,175.865295 C561.239112,178.843392 562.340538,181.822392 560.990636,186.16575 C558.430883,195.101847 555.358817,203.790371 552.675278,212.726468 C550.967571,218.435992 548.408721,219.676565 542.40464,217.194516 C521.754938,208.382206 503.913465,195.350323 488.135697,179.588819 C461.374392,153.151888 437.171936,123.985336 406.997024,101.149046 C400.010907,95.8809549 392.833384,90.8716076 385.479012,86.1311629 C354.683361,55.5993487 389.512453,30.5285829 397.580239,27.5495828 C406.004024,24.4467966 400.512255,13.7731758 373.253998,13.896962 C345.995741,14.0207481 321.064121,23.3300104 289.290831,35.7411554 C284.637555,37.6024657 279.749357,38.9677278 274.75454,40.0854175 C245.897905,34.4996795 215.956108,33.2591071 184.663506,36.8579416 C125.756648,43.5604658 78.7016387,71.9824938 44.1056624,120.510287 C2.55868601,178.843392 -7.23126417,245.120496 4.76153775,314.251007 C17.3280931,387.105946 53.7700193,447.42505 109.745765,494.587582 C167.799673,543.487638 234.65053,567.442521 310.918173,562.850686 C357.243115,560.119259 408.812253,553.7899 466.989947,503.523679 C481.666289,510.970727 497.071794,513.949727 522.608791,516.1833 C542.296214,518.04461 561.239112,515.1903 575.900094,512.087513 C598.876433,507.123417 597.278056,485.403009 588.978057,481.431913 C521.631151,449.410147 536.415919,462.44203 522.981053,451.893099 C557.204767,410.562974 608.773906,367.619111 628.94292,228.488875 C630.540394,217.442992 629.190492,210.492896 628.94292,201.556799 C628.81823,196.095751 630.028082,193.985061 636.156853,193.365226 C653.020686,191.379226 669.403831,186.662702 684.437074,178.223557 C728.062213,153.897316 745.67057,113.932453 749.828701,66.0244937 C750.449439,58.702135 749.704915,51.1313004 742.117816,47.28399 M361.881934,478.452913 C296.629454,426.076905 264.964589,408.82545 251.886625,409.569974 C239.661612,410.314498 241.864463,424.587857 244.548003,433.896216 C247.356232,443.080788 251.032772,449.410147 256.167639,457.477933 C259.705936,462.815195 262.157264,470.758292 252.615789,476.715389 C231.593825,489.995748 195.05793,472.24734 193.35203,471.37903 C150.812053,445.811312 115.237534,412.052022 90.1821285,365.882491 C65.9805765,321.44958 51.9403332,273.790096 49.6127918,222.904041 C48.9920538,210.616682 52.5448073,206.27242 64.5068886,204.037944 C80.2598752,200.968852 96.4145365,200.549571 112.305518,202.797371 C178.924164,212.727372 235.64353,243.134496 283.178324,291.290931 C310.312795,318.719056 330.837807,351.485346 351.998918,383.507112 C374.47921,417.513071 398.681665,449.907099 429.477316,476.466913 C440.352428,485.775272 449.024688,492.850058 457.340047,498.06263 C432.284642,500.917844 390.474732,501.537679 361.881934,478.452913 M393.173632,273.045572 C393.173632,267.584524 397.456453,263.240262 402.838893,263.240262 C404.059286,263.261345 405.155592,263.468257 406.12781,263.861 C409.921353,265.319019 412.408676,268.981722 412.365007,273.045572 C412.398301,275.629251 411.397318,278.119019 409.584883,279.960644 C407.772447,281.802268 405.298988,282.842897 402.715107,282.850883 C400.140824,282.843385 397.678066,281.79932 395.882757,279.954367 C394.087448,278.109415 393.110929,275.619102 393.173632,273.045572 M490.339453,323.931628 C484.117616,326.538366 477.881323,328.772842 471.877242,329.020414 C462.599604,329.517366 452.453656,325.670056 446.961887,320.953532 C438.398052,313.630269 432.284642,309.534483 429.724888,296.751076 C428.623462,291.290028 429.227936,282.850883 430.20648,278.010572 C432.409331,267.584524 429.958004,260.882903 422.759431,254.801117 C416.8954,249.836117 409.432088,248.470855 401.241419,248.470855 C398.184714,248.470855 395.377388,247.106496 393.298322,245.988806 C391.251608,245.009149 389.706363,243.220076 389.034875,241.052619 C388.363387,238.885162 388.626538,236.535839 389.760929,234.570661 C390.613879,232.833137 394.77201,228.612661 395.74965,227.868137 C406.872334,221.414089 419.702726,223.524779 431.555478,228.365089 C442.55528,232.956923 450.855278,241.396972 462.84808,253.312069 C475.073094,267.709214 477.275946,271.681214 484.226042,282.478621 C489.734075,290.917766 494.745156,299.60629 498.158763,309.534483 C500.252286,315.740959 497.553386,320.828842 490.339453,323.931628" id="形状"></path>
            </g>
        </g>
    </g>
</svg>