<?xml version="1.0" encoding="UTF-8"?>
<svg width="1025px" height="1024px" viewBox="0 0 1025 1024" version="1.1" xmlns="http://www.w3.org/2000/svg" xmlns:xlink="http://www.w3.org/1999/xlink">
    <title>Dmit</title>
    <g id="ICON-新版方图标" stroke="none" stroke-width="1" fill="none" fill-rule="evenodd">
        <g id="Dmit" transform="translate(0.6332, 0)">
            <rect id="蒙版路径" fill="#111E63" x="0" y="0" width="1024" height="1024"></rect>
            <g id="编组" transform="translate(112, 398)">
                <path d="M228.826407,47.6722397 C228.826407,21.3612488 207.465158,0 181.154168,0 L47.6722397,0 C21.3612488,0 0,21.3612488 0,47.6722397 L0,181.154168 C0,207.465158 21.3612488,228.826407 47.6722397,228.826407 L181.154168,228.826407 C207.465158,228.826407 228.826407,207.465158 228.826407,181.154168 L228.826407,47.6722397 Z" id="路径" fill="#0064FF"></path>
                <g id="编组-24" transform="translate(51.3622, 68.9946)" fill="#E6F0FF">
                    <path d="M115.637826,80.0054171 C122.549035,81.3387505 126.004639,85.0054171 126.004639,91.0054171 C126.004639,97.0054171 122.549035,101.005417 115.637826,103.005417 C99.9508716,102.989053 83.7260486,102.989053 66.9633574,103.005417 C59.2345784,100.78207 56.8505883,95.2344742 57.0046386,92.0054171 C57.1586889,88.7763601 58.8025893,81.7307136 66.6378264,80.0054171 C76.0421871,79.8548653 92.3755204,79.8548653 115.637826,80.0054171 Z" id="矩形"></path>
                    <path d="M3.00463862,3.00541713 C5.22277659,0.758146898 9.22510451,-0.654844704 14.427175,0.305791879 C15.6773568,0.638633593 15.6773568,0.638633593 18.0046386,2.00541713 C19.1503021,2.69107687 46.6732982,28.5815728 55.9618096,39.9752112 C57.9555023,42.4207498 57.9323307,44.7133756 57.9346271,45.4186207 C57.9423,48.0792513 56.6323039,50.9415167 54.0046386,54.0054171 L18.0046386,90.0054171 C14.0046386,92.6720838 9.67130528,92.6720838 5.00463862,90.0054171 C2.63294571,88.650164 -2.40871282,82.1857244 1.42571098,74.7287031 C1.63019363,73.6179433 11.0548895,63.8479158 29.6997985,45.4186207 C13.8515139,30.9254254 4.95312724,22.0230968 3.00463862,18.7116349 C1.75987864,16.5961617 0.851308477,15.4197666 0.751435081,15.0357431 C-0.96731123,9.78515171 0.464345242,5.54571051 3.00463862,3.00541713 Z" id="矩形"></path>
                </g>
            </g>
            <g id="编组" transform="translate(391.3069, 434.3803)" fill="#FFFFFF" fill-rule="nonzero">
                <path d="M134.949817,77.6313404 C134.949817,35.7989083 109.407899,3.41899686 62.9497657,0.402234925 C59.9330038,0.201117462 53.8994799,0 47.6648386,0 C22.7262732,0 2.81564447,0.804469849 1.20670477,28.3575622 C0.603352387,39.2179051 0,62.5475308 0,84.6704516 C0,101.564318 0.402234925,117.854833 1.00558731,127.709589 C3.01676193,155.866033 31.5754416,156.067151 47.6648386,156.067151 C68.5810546,156.067151 134.949817,155.866033 134.949817,77.6313404 Z M60.9385911,21.9218034 C91.7095628,21.9218034 111.217957,45.251429 111.217957,77.6313404 C111.217957,134.547582 68.7821721,134.547582 47.6648386,134.547582 C30.9720892,134.547582 24.7374479,132.938643 23.7318605,123.687239 C22.9273907,116.044776 22.5251558,101.162084 22.5251558,85.273804 C22.5251558,63.5531181 23.1285082,40.4246099 23.7318605,31.9776765 C24.3352129,21.9218034 35.1955559,21.7206859 44.8491941,21.7206859 C52.2905402,21.7206859 60.9385911,21.9218034 60.9385911,21.9218034 Z" id="形状"></path>
                <path d="M159.687801,145.206808 C159.687801,151.240332 164.916855,154.257094 170.347027,154.257094 C176.179433,154.257094 182.212957,150.838097 182.414075,144.20122 C183.419662,116.447011 186.235306,55.3073021 187.643129,37.6089654 C188.045364,33.3854987 188.849833,31.776559 189.855421,31.776559 C190.659891,31.776559 191.665478,33.1843813 192.469948,35.5977908 C199.911294,59.3296514 217.60963,123.083887 224.045389,138.368814 C227.263269,146.413513 232.894558,149.631392 238.525847,149.631392 C245.162723,149.631392 251.598482,145.00569 254.213009,138.167697 C262.458825,116.648128 283.173923,51.2849529 287.598507,34.5922035 C288.20186,32.178794 289.609682,30.3687368 290.615269,30.3687368 C291.620857,30.3687368 292.425326,31.776559 292.425326,35.1955559 C292.425326,35.1955559 294.436501,115.039188 296.447676,143.798986 C296.849911,150.838097 302.682317,154.257094 308.514723,154.257094 C314.34713,154.257094 320.179536,150.636979 320.179536,143.798986 L320.179536,142.994516 C318.570597,114.435836 314.146012,49.0726608 313.54266,23.1285082 C313.140425,9.0502858 303.486787,1.20670477 293.430914,1.20670477 C285.185098,1.20670477 276.537047,6.43575879 272.715815,17.6983367 C264.872234,40.6257274 248.782837,96.5363819 241.140374,115.039188 C240.738139,116.245893 239.933669,116.849246 239.330316,116.849246 C238.525847,116.849246 237.922494,116.245893 237.319142,115.039188 C232.492323,105.184433 214.793986,42.8380195 207.151522,18.703924 C203.531408,7.03911118 195.084475,1.40782224 186.838659,1.40782224 C177.386138,1.40782224 168.134735,9.0502858 167.330265,23.932978 C165.721325,53.09501 161.095624,109.609017 159.687801,144.805109 L159.687801,145.207344 L159.687801,145.206808 Z" id="路径"></path>
                <path d="M376.492426,142.993979 C376.090191,118.256531 375.889073,92.1112614 375.889073,66.9715786 C375.889073,47.4631848 376.090191,28.5581433 376.492426,11.865394 L376.492426,11.463159 C376.492426,4.82628278 370.458902,1.60840338 364.626495,1.60840338 C361.006381,1.60840338 351.956095,3.82069547 352.35833,12.2676289 C352.961683,28.5581433 353.363917,46.8598324 353.363917,65.9659913 C353.363917,91.9101439 352.760565,118.859884 352.35833,142.993979 L352.35833,143.195097 C352.35833,150.234208 358.391854,153.854322 364.425378,153.854322 C370.458902,153.854322 376.492426,150.234208 376.492426,143.195097 L376.492426,142.993979 Z" id="路径"></path>
                <path d="M449.095293,143.798449 C449.095293,150.636443 455.128817,154.05544 461.162341,154.05544 C467.396982,154.05544 473.631624,150.636443 473.229389,143.597332 C472.626036,128.71464 472.223801,104.178309 472.223801,80.0442137 C472.223801,60.3347024 472.424919,40.8263085 472.827154,27.1503211 C472.827154,23.1279718 472.827154,23.1279718 492.737783,23.1279718 C497.564602,23.1279718 503.397008,23.1279718 510.235002,23.5302068 L511.039472,23.5302068 C517.47523,23.5302068 520.69311,18.3011528 520.69311,12.8709813 C520.69311,8.4463971 518.078583,1.80952085 510.235002,2.01063831 C498.771306,2.21175577 481.676322,2.41287323 464.581338,2.41287323 C443.665122,2.41287323 422.346671,2.21175577 410.279623,2.01063831 L409.877388,2.01063831 C402.436042,2.01063831 398.815928,7.23969233 398.815928,12.6698638 C398.815928,18.1000353 402.637159,23.5302068 410.279623,23.5302068 C419.732144,23.5302068 429.184664,23.1279718 436.827128,23.1279718 C448.693058,23.1279718 449.296411,23.1279718 449.296411,27.1503211 C449.698646,37.8095466 449.698646,54.502296 449.698646,72.2006326 C449.698646,98.7481377 449.497528,127.91017 449.095293,143.597332 L449.095293,143.798449 Z" id="路径"></path>
            </g>
        </g>
    </g>
</svg>