<?xml version="1.0" encoding="UTF-8"?>
<svg width="1025px" height="1024px" viewBox="0 0 1025 1024" version="1.1" xmlns="http://www.w3.org/2000/svg" xmlns:xlink="http://www.w3.org/1999/xlink">
    <title>Docker</title>
    <g id="ICON-新版方图标" stroke="none" stroke-width="1" fill="none" fill-rule="evenodd">
        <g id="Docker" transform="translate(0.6332, 0)" fill-rule="nonzero">
            <path d="M184.32,0 L1024,0 L1024,1024 L0,1024 L0,0" id="路径" fill="#0099D9"></path>
            <path d="M436.224,413.696 L509.44,413.696 C511.488,413.696 512.512,414.72 512.512,416.768 L512.512,484.352 C512.512,486.4 511.488,487.424 509.44,487.424 L436.224,487.424 C434.176,487.424 433.152,486.4 433.152,484.352 L433.152,416.768 C433.152,414.72 434.176,413.696 436.224,413.696 L436.224,413.696 Z" id="路径" fill="#FFFFFF"></path>
            <path d="M527.36,413.696 L600.576,413.696 C602.624,413.696 603.648,414.72 603.648,416.768 L603.648,484.352 C603.648,486.4 602.624,487.424 600.576,487.424 L527.36,487.424 C525.312,487.424 524.288,486.4 524.288,484.352 L524.288,416.768 C524.288,414.72 525.312,413.696 527.36,413.696 Z" id="路径" fill="#FFFFFF"></path>
            <path d="M618.496,413.696 L691.712,413.696 C693.76,413.696 694.784,414.72 694.784,416.768 L694.784,484.352 C694.784,486.4 693.76,487.424 691.712,487.424 L618.496,487.424 C616.448,487.424 615.424,486.4 615.424,484.352 L615.424,416.768 C615.424,414.72 616.448,413.696 618.496,413.696 Z" id="路径" fill="#FFFFFF"></path>
            <path d="M345.088,413.696 L418.304,413.696 C420.352,413.696 421.376,414.72 421.376,416.768 L421.376,484.352 C421.376,486.4 420.352,487.424 418.304,487.424 L345.088,487.424 C343.04,487.424 342.016,486.4 342.016,484.352 L342.016,416.768 C342.016,414.72 343.04,413.696 345.088,413.696 Z" id="路径" fill="#FFFFFF"></path>
            <path d="M253.952,413.696 L327.168,413.696 C329.216,413.696 330.24,414.72 330.24,416.768 L330.24,484.352 C330.24,486.4 329.216,487.424 327.168,487.424 L253.952,487.424 C251.904,487.424 250.88,486.4 250.88,484.352 L250.88,416.768 C250.88,414.72 251.904,413.696 253.952,413.696 Z" id="路径" fill="#FFFFFF"></path>
            <path d="M436.224,327.68 L509.44,327.68 C511.488,327.68 512.512,328.704 512.512,330.752 L512.512,398.336 C512.512,400.384 511.488,401.408 509.44,401.408 L436.224,401.408 C434.176,401.408 433.152,400.384 433.152,398.336 L433.152,330.752 C433.152,328.704 434.176,327.68 436.224,327.68 L436.224,327.68 Z" id="路径" fill="#FFFFFF"></path>
            <path d="M527.36,327.68 L600.576,327.68 C602.624,327.68 603.648,328.704 603.648,330.752 L603.648,398.336 C603.648,400.384 602.624,401.408 600.576,401.408 L527.36,401.408 C525.312,401.408 524.288,400.384 524.288,398.336 L524.288,330.752 C524.288,328.704 525.312,327.68 527.36,327.68 Z" id="路径" fill="#FFFFFF"></path>
            <path d="M345.088,327.68 L418.304,327.68 C420.352,327.68 421.376,328.704 421.376,330.752 L421.376,398.336 C421.376,400.384 420.352,401.408 418.304,401.408 L345.088,401.408 C343.04,401.408 342.016,400.384 342.016,398.336 L342.016,330.752 C342.016,328.704 343.04,327.68 345.088,327.68 Z" id="路径" fill="#FFFFFF"></path>
            <path d="M528.384,241.664 L601.6,241.664 C603.648,241.664 604.672,242.688 604.672,244.736 L604.672,312.32 C604.672,314.368 603.648,315.392 601.6,315.392 L528.384,315.392 C526.336,315.392 525.312,314.368 525.312,312.32 L525.312,244.736 C525.312,242.688 526.336,241.664 528.384,241.664 Z" id="路径" fill="#FFFFFF"></path>
            <path d="M205.9264,499.82464 C205.9264,499.82464 185.344,503.28576 185.68192,512.93184 C181.10464,539.55584 156.27264,766.2592 404.59264,785.57184 C747.14112,814.5408 822.56896,528.27136 822.56896,528.27136 C822.56896,528.27136 915.89632,530.59584 938.33216,458.04544 C934.8608,448.82944 902.8608,423.31136 838.23616,433.02912 C839.03488,397.70112 793.42592,348.91776 778.99776,348.91776 C764.5696,348.91776 721.12128,407.552 759.04,488.3456 C758.016,491.3152 737.06496,498.04288 695.26528,499.83488 L205.9264,499.82464 Z" id="路径" fill="#FFFFFF"></path>
        </g>
    </g>
</svg>