<?xml version="1.0" encoding="UTF-8"?>
<svg width="1025px" height="1024px" viewBox="0 0 1025 1024" version="1.1" xmlns="http://www.w3.org/2000/svg" xmlns:xlink="http://www.w3.org/1999/xlink">
    <title>Douyin</title>
    <g id="ICON-新版方图标" stroke="none" stroke-width="1" fill="none" fill-rule="evenodd">
        <g id="Douyin" transform="translate(0.6332, 0)">
            <rect id="蒙版路径" fill="#1C0B1A" x="0" y="0" width="1024" height="1024"></rect>
            <path d="M632.588235,250.411765 L632.588235,252.764706 C633.764706,322.764706 693.176471,384.529412 760.235294,385.705882 L762,385.705882 L762,479.823529 L758.470588,479.823529 C712,479.235294 668.470588,462.764706 632.588235,435.705882 L632.588235,632.764706 C630.823529,727.470588 553.764706,803.352941 459.058824,803.352941 C363.176471,803.352941 285.529412,725.705882 285.529412,629.823529 C285.529412,531.588235 369.647059,458.058824 479.058824,456.882353 L482.588235,456.882353 L482.588235,551 C420.235294,551 379.647059,586.294118 379.647059,629.823529 C379.647059,673.941176 414.941176,709.235294 459.058824,709.235294 C502.588235,709.235294 537.294118,674.529412 538.470588,631.588235 L538.470588,629.823529 L538.470588,250.411765 L632.588235,250.411765 Z" id="_x33_" fill="#F91955" fill-rule="nonzero"></path>
            <g id="_x32_" transform="translate(262, 221)" fill="#25EDE8" fill-rule="nonzero">
                <path d="M347.058824,0 L347.058824,2.35294118 C348.235294,72.3529412 407.647059,134.117647 474.705882,135.294118 L476.470588,135.294118 L476.470588,229.411765 L472.941176,229.411765 C426.470588,228.823529 382.941176,212.352941 347.058824,185.294118 L347.058824,382.352941 C345.294118,477.058824 268.235294,552.941176 173.529412,552.941176 C77.6470588,552.941176 0,475.294118 0,379.411765 C0,281.176471 84.1176471,207.647059 193.529412,206.470588 L197.058824,206.470588 L197.058824,300.588235 C134.705882,300.588235 94.1176471,335.882353 94.1176471,379.411765 C94.1176471,423.529412 129.411765,458.823529 173.529412,458.823529 C217.058824,458.823529 251.764706,424.117647 252.941176,381.176471 L252.941176,379.411765 L252.941176,0 L347.058824,0 Z" id="path-1_00000111169764381816067680000005848035897959308942_"></path>
            </g>
            <path d="M632.588235,244.529412 L632.588235,246.882353 C633.764706,316.882353 693.176471,378.647059 760.235294,379.823529 L762,379.823529 L762,473.941176 L758.470588,473.941176 C712,473.352941 668.470588,456.882353 632.588235,429.823529 L632.588235,626.882353 C630.823529,721.588235 553.764706,797.470588 459.058824,797.470588 C363.176471,797.470588 285.529412,719.823529 285.529412,623.941176 C285.529412,525.705882 369.647059,452.176471 479.058824,451 L482.588235,451 L482.588235,545.117647 C420.235294,545.117647 379.647059,580.411765 379.647059,623.941176 C379.647059,668.058824 414.941176,703.352941 459.058824,703.352941 C502.588235,703.352941 537.294118,668.647059 538.470588,625.705882 L538.470588,623.941176 L538.470588,244.529412 L632.588235,244.529412 Z" id="_x31_" fill="#FFFFFF" fill-rule="nonzero"></path>
        </g>
    </g>
</svg>