<?xml version="1.0" encoding="UTF-8"?>
<svg width="1025px" height="1024px" viewBox="0 0 1025 1024" version="1.1" xmlns="http://www.w3.org/2000/svg" xmlns:xlink="http://www.w3.org/1999/xlink">
    <title>Element.plus</title>
    <g id="ICON-新版方图标" stroke="none" stroke-width="1" fill="none" fill-rule="evenodd">
        <g id="Element.plus" transform="translate(0.2604, -0.0008)">
            <rect id="蒙版路径" fill="#FFFFFF" x="0" y="0" width="1024" height="1024"></rect>
            <path d="M827.511055,666.982075 C827.511055,696.715965 811.791865,703.533927 811.791865,703.533927 L526.384402,868.301341 C517.381868,872.796721 506.789373,872.796721 497.786839,868.301341 C497.786839,868.301341 217.492848,705.427805 207.265905,697.852292 C201.038209,693.502119 197.188439,686.502538 196.849574,678.913508 L196.849574,342.560718 C196.849574,327.788467 215.788357,317.372137 215.788357,317.372137 L495.13541,155.44554 C505.804913,150.106517 518.366329,150.106517 529.035832,155.44554 L802.890637,314.720707 C818.357805,321.272862 827.894687,336.989643 826.564116,353.7346 L826.564116,666.982075 L827.511055,666.982075 Z M715.772234,345.02276 L523.354197,233.852102 C514.939609,229.689557 505.0651,229.689557 496.650512,233.852102 L276.771239,359.795011 C276.771239,359.795011 262.188376,368.506851 262.375935,380.248897 C262.567152,391.990942 262.375935,643.876759 262.375935,643.876759 C262.799715,649.600864 265.794763,654.824785 270.521441,658.080847 C278.665117,663.762482 497.786839,790.652329 497.786839,790.652329 C504.865781,794.261312 513.24505,794.261312 520.323991,790.652329 C533.959915,783.076816 743.991021,662.057991 743.991021,662.057991 C743.991021,662.057991 756.301231,656.755132 756.301231,633.460429 L756.301231,567.742851 L510.097049,717.359238 L510.097049,659.974725 C511.055011,644.936962 517.851225,630.868798 529.035832,620.771444 L747.778778,489.525676 C754.183409,481.697149 757.842657,471.98351 758.195109,461.875053 L758.195109,402.975437 L509.907661,552.9706 L509.907661,492.366494 C509.561985,479.230833 515.377494,466.688952 525.626851,458.466072 L715.772234,345.02276 Z" id="element_plus-logo-small" fill="#409EFF"></path>
            <path d="M906.827002,135.855327 C906.98296,133.864186 906.325911,131.89476 905.005675,130.396114 C903.685439,128.897468 901.814567,127.997362 899.819652,127.901038 L848.684938,127.901038 L848.684938,76.008772 C848.684938,72.9785667 843.760854,71.8422397 838.647382,71.8422397 L810.807371,76.3875477 C807.39839,76.3875477 804.936348,78.6602017 804.936348,80.7434678 L804.936348,127.901038 L753.991021,127.901038 C750.313528,128.261425 747.432576,131.222403 747.173059,134.908388 L747.173059,172.785954 L803.989409,172.785954 L803.989409,226.382711 C803.989409,229.412916 808.913493,231.496182 814.216352,230.738631 L842.813915,226.003935 C846.222896,226.003935 848.306162,223.541893 848.306162,221.648015 L848.306162,172.217791 L905.122512,172.217791 L906.827002,135.855327 Z" id="element_plus-logo-small-path" fill="#409EFF"></path>
        </g>
    </g>
</svg>