<?xml version="1.0" encoding="UTF-8"?>
<svg width="1025px" height="1024px" viewBox="0 0 1025 1024" version="1.1" xmlns="http://www.w3.org/2000/svg" xmlns:xlink="http://www.w3.org/1999/xlink">
    <title>Firefox</title>
    <g id="ICON-新版方图标" stroke="none" stroke-width="1" fill="none" fill-rule="evenodd">
        <g id="Firefox" transform="translate(0.6332, 0)">
            <rect id="蒙版路径" fill="#FFFFFF" x="0" y="0" width="1024" height="1024"></rect>
            <g id="编组" transform="translate(161.8668, 151.0044)" fill-rule="nonzero">
                <path d="M504.343425,283.746301 C505.143414,284.246294 505.843405,284.796287 506.543396,285.34628 C497.740745,269.73818 486.783222,255.447954 473.99382,242.896833 C365.09524,133.948254 445.444192,6.69991265 458.994016,0.249996741 L459.144014,0 C371.145161,51.4993286 341.245551,146.998083 338.495587,194.697462 C342.595533,194.447465 346.645481,194.097469 350.795426,194.097469 C414.371537,194.208012 472.995795,228.435721 504.343425,283.746301 L504.343425,283.746301 Z" id="路径" fill="#FFD46C"></path>
                <path d="M180.955453,365.474141 C180.955453,460.800267 258.232546,538.07736 353.558672,538.07736 C448.884797,538.07736 526.16189,460.800267 526.16189,365.474141 C526.16189,270.148016 448.884797,192.870923 353.558672,192.870923 C258.232546,192.870923 180.955453,270.148016 180.955453,365.474141 Z" id="路径" fill="#B15BF4"></path>
                <path d="M419.844526,263.246568 C449.577894,259.37398 479.690075,266.679302 504.343425,283.746301 L506.493396,285.34628 C508.319031,286.684652 510.071528,288.12003 511.743328,289.646224 C591.242292,362.845269 549.592835,466.443919 546.492875,473.743823 C420.494518,576.642482 300.196086,536.043011 275.846404,519.393228 C281.068149,521.943625 286.407352,524.246156 291.846195,526.293138 C306.446005,531.493071 321.845804,534.443032 337.345602,535.093024 C512.043324,543.292917 545.842883,326.245747 419.844526,263.246568 L419.844526,263.246568 Z M90.6488181,305.496017 C129.776586,281.537096 178.531371,279.587662 219.447139,300.346084 C260.956676,319.185846 308.190545,321.034284 351.045423,305.496017 C350.49543,314.245903 319.645833,344.295511 308.895973,344.295511 C209.247272,344.295511 193.097482,404.544726 193.097482,404.544726 C197.497425,455.344063 232.846964,497.143518 275.596407,519.24323 C273.946428,518.49324 272.396449,517.643251 270.74647,516.843262 C197.447426,481.843718 167.147821,414.994589 173.647736,357.745336 C138.088194,358.25721 105.561932,337.781341 90.6488181,305.496017 L90.6488181,305.496017 Z M231.996975,139.398183 C224.673568,167.50766 225.01888,197.066345 232.996962,224.997067 C230.611485,223.350517 228.194398,221.750239 225.747057,220.197129 C203.547346,205.797317 162.447882,204.547333 150.748035,204.497334 L147.598076,204.497334 C170.923366,177.191333 199.662495,155.024066 231.996975,139.398183 L231.996975,139.398183 Z" id="形状" fill="#FEB202"></path>
                <path d="M473.99382,242.896833 C486.793653,255.44667 497.743511,269.796482 506.543396,285.396279 C508.49337,286.89626 510.293347,288.296241 511.793327,289.696223 C591.292291,362.945268 549.642834,466.443919 546.542874,473.843822 C611.042033,420.644516 652.341495,342.045541 639.941657,260.846599 C600.292174,162.047887 533.09305,122.198407 478.243765,35.4995372 C475.39417,31.0679925 472.627063,26.5839456 469.943873,22.0497125 C468.572418,19.6979243 467.288227,17.296321 466.093923,14.8498064 C463.825378,10.4347773 462.080245,5.76990268 460.893991,0.949987614 C460.896841,0.489507431 460.55164,0.101155971 460.094001,0.0499993481 C459.881128,-0.0073188773 459.656883,-0.0073188773 459.44401,0.0499993481 L459.244013,0.149998044 L458.994016,0.299996089 C445.444192,6.69991265 365.09524,133.948254 473.99382,242.896833 L473.99382,242.896833 Z" id="路径" fill="#FFE142"></path>
                <path d="M135.498233,116.898476 C134.748243,128.998318 133.748256,187.047561 147.648075,204.647332 L154.14799,204.647332 C168.847799,204.947328 205.447321,206.997301 225.897055,220.297128 L233.14696,225.097065 C236.24692,227.247037 239.29688,229.547007 242.146843,231.946976 C247.496773,236.496917 253.546694,242.546838 266.246529,255.046675 C290.046218,278.496369 350.995424,302.746053 351.145422,305.596016 C308.305467,321.120659 261.092302,319.272329 219.597137,300.446083 C178.668023,279.668946 129.889138,281.618587 90.7488168,305.596016 C105.676722,337.861817 138.199837,358.316113 173.747735,357.795335 C167.247819,415.094588 197.547424,481.893717 270.846469,516.94326 L273.396436,518.243243 L275.946402,519.493227 C300.346084,536.093011 420.694515,576.692481 546.442876,474.293816 C611.142032,420.644516 652.441494,341.995541 639.991656,260.846599 L640.041655,261.346593 L639.841658,260.546603 C633.625011,223.35175 621.648037,187.353353 604.342121,153.847994 C628.541805,166.347831 659.441402,205.947315 674.641204,242.546838 C694.744913,293.2666 703.070737,347.888798 698.990887,402.294755 L697.390908,418.594542 C696.890914,423.144483 696.390921,427.594425 695.790928,432.144366 C667.975283,593.539359 532.099679,714.156205 368.545195,722.640578 L356.69535,722.990574 L344.745505,722.990574 C158.280531,719.915888 6.8755161,571.367572 0.249996741,384.994981 L0,371.095162 C0.249996741,360.245303 1.14998501,349.445444 2.74996415,338.745584 L3.14995893,336.69561 C5.49992829,316.145878 9.59987484,298.196112 9.64987419,297.796117 C18.1714503,259.654103 34.1621709,223.57727 56.6992608,191.647501 L66.9491271,177.94768 C74.0190899,169.033317 81.5807341,160.520208 89.5988318,152.448012 C100.098695,141.648153 111.598545,131.848281 123.848385,123.098395 C127.498338,120.598428 131.448286,118.548454 135.548233,116.898476 L135.498233,116.898476 Z" id="路径" fill="#FE5618"></path>
            </g>
        </g>
    </g>
</svg>