<?xml version="1.0" encoding="UTF-8"?>
<svg width="1024px" height="1024px" viewBox="0 0 1024 1024" version="1.1" xmlns="http://www.w3.org/2000/svg" xmlns:xlink="http://www.w3.org/1999/xlink">
    <title>Forward</title>
    <g id="ICON-新版方图标" stroke="none" stroke-width="1" fill="none" fill-rule="evenodd">
        <g id="Forward">
            <rect id="蒙版路径" fill="#FFFFFF" x="0" y="0" width="1024" height="1024"></rect>
            <g id="编组-18" transform="translate(162, 160)" fill="#000000">
                <path d="M350,0 L700,0 L700,175.277338 L700,352.229299 C590.021231,346.284501 506.422505,310.615711 449.203822,245.22293 C390.498938,184.288747 357.430998,102.547771 350,0 Z" id="矩形"></path>
                <path d="M0,352.229299 L350,352.229299 L350,527.506637 L350,704.458599 C240.021231,698.5138 156.422505,662.845011 99.2038217,597.452229 C40.4989384,536.518047 7.43099788,454.77707 0,352.229299 Z" id="矩形" transform="translate(175, 528.3439) scale(1, -1) translate(-175, -528.3439)"></path>
                <path d="M350,352.229299 L700,352.229299 L700,527.506637 L700,704.458599 C590.021231,698.5138 506.422505,662.845011 449.203822,597.452229 C390.498938,536.518047 357.430998,454.77707 350,352.229299 Z" id="矩形" transform="translate(525, 528.3439) scale(1, -1) translate(-525, -528.3439)"></path>
                <path d="M0,0 L350,0 L350,175.277338 L350,352.229299 C240.021231,346.284501 156.422505,310.615711 99.2038217,245.22293 C40.4989384,184.288747 7.43099788,102.547771 0,0 Z" id="矩形"></path>
            </g>
        </g>
    </g>
</svg>