<?xml version="1.0" encoding="UTF-8"?>
<svg width="1024px" height="1024px" viewBox="0 0 1024 1024" version="1.1" xmlns="http://www.w3.org/2000/svg" xmlns:xlink="http://www.w3.org/1999/xlink">
    <title>Frds</title>
    <g id="ICON-新版方图标" stroke="none" stroke-width="1" fill="none" fill-rule="evenodd">
        <g id="Frds">
            <rect id="蒙版路径" fill="#FFFFFF" x="0" y="0" width="1024" height="1024"></rect>
            <circle id="圆1" stroke="#333333" stroke-width="50" fill="#D8D8D8" cx="511.5" cy="512.5" r="243.5"></circle>
            <rect id="矩形" fill="#FFFFFF" x="237" y="392" width="549" height="240"></rect>
            <g id="右翼" transform="translate(758, 512.5) scale(-1, 1) translate(-758, -512.5)translate(592, 409)">
                <polygon id="矩形3" fill="#28ABE1" points="116 148 332 148 332 207 159.198829 207"></polygon>
                <polygon id="矩形2" fill="#0071BE" points="59 74 275 74 275 133 102.198829 133"></polygon>
                <polygon id="矩形1" fill="#003B7F" points="0 0 216 0 216 59 43.1988291 59"></polygon>
            </g>
            <g id="左翼" transform="translate(101, 409)">
                <polygon id="矩形3" fill="#28ABE1" points="116 148 332 148 332 207 159.198829 207"></polygon>
                <polygon id="矩形2" fill="#0071BE" points="59 74 275 74 275 133 102.198829 133"></polygon>
                <polygon id="矩形1" fill="#003B7F" points="0 0 216 0 216 59 43.1988291 59"></polygon>
            </g>
            <circle id="圆2" fill="#FFFFFF" cx="514" cy="517" r="225"></circle>
            <g id="KF" transform="translate(380, 440.3618)" fill="#333333" fill-rule="nonzero">
                <polygon id="路径" points="89.8 4.83819302 23.4 72.238193 23.4 4.83819302 0 4.83819302 0 147.638193 23.4 147.638193 23.4 98.438193 40.8 81.438193 97.2 147.638193 128.8 147.638193 56.6 66.038193 119.4 4.83819302"></polygon>
                <polygon id="路径" points="152.133333 0 152.133333 152.476386 177.11896 152.476386 177.11896 84.9938398 265.976524 84.9938398 265.976524 63.6386037 177.11896 63.6386037 177.11896 21.3552361 288.915381 21.3552361 288.915381 -6.2621046e-13"></polygon>
            </g>
        </g>
    </g>
</svg>