<?xml version="1.0" encoding="UTF-8"?>
<svg width="1025px" height="1024px" viewBox="0 0 1025 1024" version="1.1" xmlns="http://www.w3.org/2000/svg" xmlns:xlink="http://www.w3.org/1999/xlink">
    <title>Gitea</title>
    <g id="ICON-新版方图标" stroke="none" stroke-width="1" fill="none" fill-rule="evenodd">
        <g id="Gitea" transform="translate(0.6332, 0)">
            <rect id="蒙版路径" fill="#FFFFFF" x="0" y="0" width="1024" height="1024"></rect>
            <g id="编组" transform="translate(113, 267)" fill="#609926" fill-rule="nonzero">
                <path d="M139.338876,0.000332069234 C77.9119119,-0.13898299 -4.3639367,43.5458245 0.180370804,153.06638 C7.2714885,324.144189 163.983787,340.009181 226.609249,341.40567 C233.475649,373.498743 307.188005,484.190604 361.747009,490 L600.785873,490 C744.139123,479.357878 851.487473,5.02890052 771.905906,3.24139387 C640.291077,10.1679812 562.281759,13.6592049 495.412394,14.2736603 L495.412394,162.309394 L474.561168,152.003302 L474.436325,14.361814 C397.653595,14.3338844 330.085886,10.3399245 201.787996,3.27717922 C185.732326,3.16546006 163.358788,0.121113029 139.338095,0.037323415 L139.338876,0.000332069234 Z M148.028772,60.5280086 L155.345388,60.5280086 C164.060253,148.231908 178.243269,199.514491 206.958863,277.861911 C133.721692,268.173766 71.3966353,244.372349 59.9352102,155.522455 C54.0160619,109.519475 73.9918219,61.5334806 148.027992,60.5280086 L148.028772,60.5280086 Z M432.937524,146.723699 C438.066754,146.745658 443.135466,147.964462 447.819664,150.302204 L472.764981,162.340815 L454.886594,198.790934 L454.711812,198.790934 C451.985243,198.790561 449.277183,199.291842 446.696072,200.274705 L446.845884,200.218845 C438.131019,203.402841 432.03865,211.559212 432.03865,221.139129 C432.033229,223.776259 432.500177,226.387879 433.41193,228.819821 L433.361992,228.652242 C434.254319,231.059986 435.532014,233.265334 437.13227,235.159883 L437.107301,235.131953 L406.269366,297.921609 C403.703467,297.965337 401.159267,298.455312 398.728031,299.373958 L398.877843,299.318098 C390.162978,302.502094 384.070609,310.658465 384.070609,320.238382 C384.065188,322.875512 384.532136,325.487133 385.443889,327.919074 L385.393952,327.751495 C388.593069,336.40973 396.805439,342.471367 406.443367,342.471367 C409.072479,342.480111 411.685896,342.018081 414.184451,341.102807 L414.034639,341.158667 C422.724536,337.974671 428.816904,329.8183 428.816904,320.238382 C428.811508,317.581337 428.336305,314.951729 427.418656,312.500958 L427.468593,312.668537 C426.30527,309.519561 424.501346,306.71752 422.200193,304.485109 L452.240689,243.343311 C453.028753,243.434584 453.820442,243.481193 454.612718,243.48296 C457.170514,243.489717 459.714026,243.056395 462.154053,242.198189 L462.00424,242.254049 C464.573876,241.324738 466.981318,239.907554 469.121107,238.064581 L469.096138,238.092511 C480.682407,243.538819 490.170522,247.955217 496.987765,251.72312 C507.250691,257.396359 510.871156,261.136332 511.968999,265.3258 C513.067623,269.427988 511.869124,277.308552 506.07638,291.160854 C501.756791,301.467819 494.589986,316.103901 486.125589,333.365383 L485.626214,333.365383 C482.899475,333.362684 480.191077,333.864028 477.610474,334.849153 L477.760286,334.793293 C469.045421,337.977289 462.953052,346.13366 462.953052,355.713578 C462.947631,358.350708 463.414579,360.962328 464.326332,363.394269 L464.276394,363.226691 C467.475512,371.885798 475.687882,377.946562 485.325809,377.946562 C487.95492,377.955277 490.568333,377.493247 493.066894,376.578002 L492.917082,376.633862 C501.606978,373.449866 507.699347,365.293495 507.699347,355.713578 C507.707314,353.07617 507.240265,350.463988 506.326067,348.032886 L506.376005,348.200464 C505.330855,345.362913 503.775601,342.795855 501.806728,340.658549 L501.831697,340.686478 C510.194659,323.61265 517.385652,308.949511 522.001745,297.916372 C528.268895,282.945132 531.515609,271.800274 528.668394,261.047306 C525.821179,250.294337 517.00722,243.283087 505.371014,236.831306 C497.704835,232.613908 488.166782,228.14427 476.730326,222.779131 C476.755294,222.360185 476.780263,221.857448 476.780263,221.382642 C476.779419,218.757978 476.321452,216.158638 475.431953,213.72988 L475.48189,213.897459 C474.389989,210.938734 472.737351,208.280143 470.637957,206.105048 L488.21672,170.241454 L585.57914,217.278709 C603.157902,225.798167 610.424581,246.692267 601.886838,264.203371 L534.964414,401.261825 C526.399361,418.717943 505.399884,425.953504 487.821122,417.461975 L350.085834,350.873869 C332.507072,342.382341 325.215424,321.46031 333.778136,303.949206 L400.70056,166.943993 C406.56821,154.905382 418.354229,147.755356 430.839371,147.19676 L432.937524,146.723699 Z" id="形状"></path>
            </g>
        </g>
    </g>
</svg>