<?xml version="1.0" encoding="UTF-8"?>
<svg width="1025px" height="1024px" viewBox="0 0 1025 1024" version="1.1" xmlns="http://www.w3.org/2000/svg" xmlns:xlink="http://www.w3.org/1999/xlink">
    <title>Google.play</title>
    <g id="ICON-新版方图标" stroke="none" stroke-width="1" fill="none" fill-rule="evenodd">
        <g id="Google.play" transform="translate(0.3975, 0)">
            <rect id="蒙版路径" fill="#FFFFFF" x="0" y="0" width="1024" height="1024"></rect>
            <g id="Googleplay" transform="translate(204, 129)" fill-rule="nonzero">
                <path d="M326.820773,365.835912 L2.98112708,702.377405 C2.99814732,702.443443 2.97173223,702.311368 2.98112708,702.377405 C12.9170148,738.909479 47.045315,766.038044 87.5132375,766.038044 C103.085306,766.075849 118.392176,762.007683 131.890594,754.243441 L132.920782,753.635893 L497.435859,547.703828 L326.820773,365.835912 L326.820773,365.835912 Z" id="路径" fill="#EA4335"></path>
                <path d="M654.433964,308.528368 L654.130191,308.330255 L496.762274,218.981203 L319.46417,373.483082 L497.435859,547.717036 L653.91887,459.226474 C681.364152,444.698173 700,416.381193 700,383.71893 C700,351.267989 681.628303,323.096292 654.433964,308.528368 Z" id="路径" fill="#FBBC04"></path>
                <path d="M2.97173223,63.6340404 C0.992873314,70.8099557 -0.00674583363,78.2204657 0,85.664228 L0,680.360425 C0.317015376,688.8925 0.990600248,695.522689 2.98493977,702.377405 L337.954735,374.447233 L2.97173223,63.6340404 Z" id="路径" fill="#4285F4"></path>
                <path d="M329.224546,383.01893 L496.762274,218.981203 L132.722669,12.2434769 C119.018306,4.20574684 103.413994,-0.0213708918 87.5264451,0 C47.0585225,0 12.9302223,26.9566837 2.99814732,63.5547951 L2.97173223,63.6340404 L329.224546,383.01893 Z" id="路径" fill="#34A853"></path>
            </g>
        </g>
    </g>
</svg>