<?xml version="1.0" encoding="UTF-8"?>
<svg width="1025px" height="1024px" viewBox="0 0 1025 1024" version="1.1" xmlns="http://www.w3.org/2000/svg" xmlns:xlink="http://www.w3.org/1999/xlink">
    <title>Google.chrome</title>
    <g id="ICON-新版方图标" stroke="none" stroke-width="1" fill="none" fill-rule="evenodd">
        <g id="Google.chrome" transform="translate(0.3975, 0)">
            <rect id="蒙版路径" fill="#FFFFFF" x="0" y="0" width="1024" height="1024"></rect>
            <g id="编组-2" transform="translate(142.367, 142.5075)" fill-rule="nonzero">
                <path d="M89.3531241,128.869987 C261.339053,-71.2663822 580.274594,-31.7694344 699.474594,202.09813 L412.944434,202.09813 C361.330155,202.09813 327.999788,200.92648 291.894459,219.919547 C249.468386,242.273401 217.463833,283.681989 206.27149,332.305476 L89.3531241,128.900819 L89.3531241,128.869987 Z" id="路径" fill="#EA4335"></path>
                <path d="M246.909255,369.983283 C246.909255,437.815668 302.069317,493.006563 369.870869,493.006563 C437.703254,493.006563 492.832483,437.815668 492.832483,369.983283 C492.832483,302.150897 437.672421,246.960002 369.870869,246.960002 C302.038484,246.960002 246.909255,302.150897 246.909255,369.983283 Z" id="路径" fill="#4285F4"></path>
                <path d="M417.600202,531.023531 C348.565333,551.527411 267.813962,528.772729 223.568748,452.39963 C189.775887,394.125445 100.545468,238.665952 60.0002008,167.99694 C-82.0469797,385.67723 40.390475,682.382249 298.246037,733.009874 L417.569369,531.023531 L417.600202,531.023531 Z" id="路径" fill="#34A853"></path>
                <path d="M484.075939,246.960002 C541.313004,300.392869 554.190526,386.217461 515.155505,454.09544 C485.833415,504.6614 392.19389,662.710857 346.807858,739.23812 C612.494978,755.610392 806.218102,495.226532 718.714326,246.929169 L484.075939,246.929169 L484.075939,246.960002 Z" id="路径" fill="#FBBC05"></path>
            </g>
        </g>
    </g>
</svg>