<?xml version="1.0" encoding="UTF-8"?>
<svg width="1025px" height="1024px" viewBox="0 0 1025 1024" version="1.1" xmlns="http://www.w3.org/2000/svg" xmlns:xlink="http://www.w3.org/1999/xlink">
    <title>Google.maps</title>
    <g id="ICON-新版方图标" stroke="none" stroke-width="1" fill="none" fill-rule="evenodd">
        <g id="Google.maps" transform="translate(0.3975, 0)">
            <rect id="蒙版路径" fill="#FFFFFF" x="0" y="0" width="1024" height="1024"></rect>
            <g id="Googlemaps" transform="translate(262, 153)" fill-rule="nonzero">
                <path d="M325.791855,11.6321902 C301.358275,3.91694463 275.89043,-0.00582566401 250.272635,0 C176.399768,-0.0623343791 106.294286,32.6725749 58.8235294,89.3949401 L176.867093,188.914027 L325.791855,11.6321902 Z" id="路径" fill="#1A73E8"></path>
                <path d="M58.4776089,89.4024276 C20.6763991,134.482322 -0.0352130378,191.515479 0,250.430942 C0,297.4754 9.34070846,335.75738 24.7295411,369.909502 L176.470588,188.914027 L58.4418209,89.3665158 L58.4776089,89.4024276 Z" id="路径" fill="#EA4335"></path>
                <path d="M249.798732,154.364225 C287.045963,154.419497 320.882854,176.105195 336.548666,209.961322 C352.214478,243.817448 346.867408,283.702444 322.840018,312.217195 L471.719457,134.821209 C441.160697,75.8299549 388.476133,31.40648 325.242456,11.3122172 L176.470588,188.708203 C194.631518,166.951006 221.489357,154.385024 249.798732,154.40015 L249.798732,154.364225 Z" id="路径" fill="#4285F4"></path>
                <path d="M249.352034,345.939265 C196.489396,345.919501 153.63515,303.123053 153.595556,250.311935 C153.55456,227.844901 161.486761,206.090701 175.982983,188.914027 L23.7556561,369.559359 C49.8025662,427.15798 92.9988193,473.394583 137.486655,531.674208 L322.39819,312.13995 C304.236087,333.624512 277.500678,345.995301 249.352034,345.939265 L249.352034,345.939265 Z" id="路径" fill="#FBBC04"></path>
                <path d="M319.148058,591.654172 C402.756198,461.092158 500,401.765352 500,250.004945 C500,208.39727 489.809137,169.156928 471.831592,134.615385 L138.00905,531.717599 C152.147079,550.261709 166.464524,569.953617 180.351369,591.761778 C231.054503,670.206592 217.024124,717.19457 249.749714,717.19457 C282.475303,717.19457 268.444924,670.063118 319.148058,591.654172 Z" id="路径" fill="#34A853"></path>
            </g>
        </g>
    </g>
</svg>