<?xml version="1.0" encoding="UTF-8"?>
<svg width="1025px" height="1024px" viewBox="0 0 1025 1024" version="1.1" xmlns="http://www.w3.org/2000/svg" xmlns:xlink="http://www.w3.org/1999/xlink">
    <title>Google.photos</title>
    <g id="ICON-新版方图标" stroke="none" stroke-width="1" fill="none" fill-rule="evenodd">
        <g id="Google.photos" transform="translate(0.3975, 0)">
            <rect id="蒙版路径" fill="#FFFFFF" x="0" y="0" width="1024" height="1024"></rect>
            <g id="Googlephotos" transform="translate(142, 142)" fill-rule="nonzero">
                <path d="M185,168.103334 C287.12,168.103334 370,250.983334 370,353.103334 L370,370 L16.9275,370 C7.59773521,369.983098 0.0339114281,362.433052 0,353.103334 C0,250.983334 82.88,168.103334 185,168.103334 Z" id="路径" fill="#FBBB05"></path>
                <path d="M571.9275,185 C571.9275,287.12 489.0475,370 386.9275,370 L370,370 L370,16.9275 C370.01697,7.58573803 377.585738,0.016969769 386.9275,0 C489.0475,0 571.9275,82.88 571.9275,185 Z" id="路径" fill="#E94335"></path>
                <path d="M555,571.9275 C452.88,571.9275 370,489.0475 370,386.9275 L370,370 L723.0725,370 C732.414262,370.01697 739.98303,377.585738 740,386.9275 C740,489.0475 657.12,571.9275 555,571.9275 Z" id="路径" fill="#4285F4"></path>
                <path d="M168.103334,555 C168.103334,452.88 250.983334,370 353.103334,370 L370,370 L370,723.0725 C369.983098,732.402265 362.433052,739.966089 353.103334,740 C250.983334,740 168.103334,657.12 168.103334,555 Z" id="路径" fill="#0F9D58"></path>
            </g>
        </g>
    </g>
</svg>