<?xml version="1.0" encoding="UTF-8"?>
<svg width="1025px" height="1024px" viewBox="0 0 1025 1024" version="1.1" xmlns="http://www.w3.org/2000/svg" xmlns:xlink="http://www.w3.org/1999/xlink">
    <title>Gmail</title>
    <g id="ICON-新版方图标" stroke="none" stroke-width="1" fill="none" fill-rule="evenodd">
        <g id="Gmail" transform="translate(0.3975, 0)">
            <rect id="蒙版路径" fill="#FFFFFF" x="0" y="0" width="1024" height="1024"></rect>
            <g id="编组" transform="translate(122, 219)" fill-rule="nonzero">
                <path d="M53.1961523,585.156745 L177.255,585.156745 L177.255,283.803288 L0,150.774441 L0,531.921745 C0,561.327136 23.79,585.117136 53.1961523,585.117136 L53.1961523,585.156745 Z" id="路径" fill="#4285F4"></path>
                <path d="M602.745,585.156745 L726.803848,585.156745 C756.21,585.156745 780,561.366745 780,531.960593 L780,150.852136 L602.745,283.803288 L602.745,585.156745 Z" id="路径" fill="#34A853"></path>
                <path d="M602.745,53.3521358 L602.745,283.803288 L780,150.774441 L780,79.9498311 C780,14.2355929 704.963848,-23.2828642 652.352695,16.1467452 L602.745,53.3917452 L602.745,53.3521358 Z" id="路径" fill="#FBBC04"></path>
                <polygon id="路径" fill="#EA4335" points="177.255 283.764441 177.255 53.3917452 390 212.862136 602.745 53.3521358 602.745 283.803288 390 443.274441"></polygon>
                <path d="M0,79.9117452 L0,150.852136 L177.255,283.803288 L177.255,53.2744405 L127.647305,16.0682882 C74.9973047,-23.3217118 0,14.1967452 0,79.9117452 Z" id="路径" fill="#C5221F"></path>
            </g>
        </g>
    </g>
</svg>