<?xml version="1.0" encoding="UTF-8"?>
<svg width="1025px" height="1024px" viewBox="0 0 1025 1024" version="1.1" xmlns="http://www.w3.org/2000/svg" xmlns:xlink="http://www.w3.org/1999/xlink">
    <title>Gotab</title>
    <g id="ICON-新版方图标" stroke="none" stroke-width="1" fill="none" fill-rule="evenodd">
        <g id="Gotab" transform="translate(0.1887, -0.0008)">
            <rect id="蒙版路径" fill="#FFFFFF" x="0" y="0" width="1024" height="1024"></rect>
            <g id="编组" transform="translate(162, 145)" fill-rule="nonzero">
                <polygon id="路径" fill="#286FE2" points="49.1312802 218.522235 49.1312802 533.770307 324.81967 667.728784 324.81967 350.724456"></polygon>
                <polygon id="路径" fill="#C2D3FF" points="374.56564 354.368688 374.521734 671.548642 650.737001 537.326726 650.737001 220.234586"></polygon>
                <polygon id="路径" fill="#F2F3FD" points="619.300006 180.938343 353.578373 51.853478 84.3442263 180.938343 353.578373 309.979301"></polygon>
                <path d="M699.868281,545.49332 L699.868281,185.197265 C699.868281,184.802108 699.824374,184.363043 699.780468,183.967886 C699.912187,182.958038 700,181.94819 700,180.938343 C700,171.54237 694.687324,162.936712 686.213385,158.853415 L364.379351,2.45875933 C357.66167,-0.834221916 349.802421,-0.790315499 343.040833,2.41485291 L16.9039704,158.765602 C12.2059838,161.00483 8.47393841,164.692969 6.05908549,169.08361 C2.32704008,173.386439 0.0439064166,179.006461 0,185.153359 L0,548.259424 C0,558.709151 6.54205607,567.622154 15.7624036,571.178574 C17.3430346,572.539673 19.0992912,573.769052 21.07508,574.691087 L342.909114,731.041837 C346.246001,732.666374 349.890234,733.500596 353.622279,733.500596 C357.310418,733.500596 360.998557,732.71028 364.379351,731.041837 L686.213385,574.691087 C696.224048,569.773568 701.405005,558.97259 699.648749,548.478956 C699.780468,547.469109 699.868281,546.459261 699.868281,545.405507 L699.868281,545.49332 Z M353.578373,51.853478 L619.2561,180.938343 L353.578373,310.023208 L84.3442263,180.938343 L353.578373,51.853478 Z M49.1312802,218.522235 L324.81967,350.724456 L324.81967,667.728784 L49.1312802,533.770307 L49.1312802,218.522235 Z M374.56564,354.368688 L650.780907,220.234586 L650.780907,537.326726 L374.56564,671.548642 L374.56564,354.368688 Z" id="形状" fill="#4A5E8A"></path>
                <polygon id="路径" fill="#C2D3FF" points="496.186414 180.938343 352.788057 111.25886 207.457818 180.938343 352.788057 250.57392"></polygon>
            </g>
        </g>
    </g>
</svg>