<?xml version="1.0" encoding="UTF-8"?>
<svg width="1024px" height="1024px" viewBox="0 0 1024 1024" version="1.1" xmlns="http://www.w3.org/2000/svg" xmlns:xlink="http://www.w3.org/1999/xlink">
    <title>Hetzner_A</title>
    <g id="ICON-新版方图标" stroke="none" stroke-width="1" fill="none" fill-rule="evenodd">
        <g id="多版本" transform="translate(0, -2048)">
            <g id="Hetzner_A" transform="translate(0, 2048)">
                <rect id="蒙版路径" fill="#FFFFFF" x="0" y="0" width="1024" height="1024"></rect>
                <g id="HETZNER" transform="translate(80.9644, 399.5062)" fill="#C32C35" fill-rule="nonzero">
                    <path d="M90.3955556,110.45375 C89.8088889,122.187083 89.9555556,139.05375 90.8355556,161.05375 C90.8355556,162.520417 91.3488889,164.57375 92.3755556,167.21375 C93.4022222,169.85375 93.9155556,171.760417 93.9155556,172.93375 C93.9155556,175.867083 91.4222222,178.360417 86.4355556,180.41375 C85.4088889,180.85375 84.0888889,181.07375 82.4755556,181.07375 C77.6355556,181.07375 72.5022222,179.75375 67.0755556,177.11375 C60.6222222,174.03375 57.3955556,170.367083 57.3955556,166.11375 C57.3955556,164.207083 58.0922222,161.71375 59.4855556,158.63375 C60.8788889,155.55375 62.2355556,152.547083 63.5555556,149.61375 L63.5555556,111.77375 L34.0755556,117.93375 C34.0755556,125.120417 34.1488889,135.240417 34.2955556,148.29375 C34.4422222,161.347083 34.5155556,167.947083 34.5155556,168.09375 C34.5155556,169.85375 34.9922222,172.567083 35.9455556,176.23375 C36.8988889,179.900417 37.3755556,182.540417 37.3755556,184.15375 C37.3755556,187.087083 36.3855556,189.470417 34.4055556,191.30375 C32.4255556,193.137083 29.7488889,194.05375 26.3755556,194.05375 C22.8555556,194.05375 19.2622222,193.100417 15.5955556,191.19375 C11.9288889,189.287083 9.47222222,187.34375 8.22555556,185.36375 C6.97888889,183.38375 6.35555556,181.95375 6.35555556,181.07375 C6.35555556,180.780417 6.94222222,179.240417 8.11555556,176.45375 C8.11555556,170.147083 8.04222222,159.880417 7.89555556,145.65375 C7.74888889,131.427083 7.67555556,122.33375 7.67555556,118.37375 C7.52888889,117.93375 5.76888889,114.780417 2.39555556,108.91375 C0.342222222,105.540417 -0.391111111,102.387083 0.195555556,99.45375 C0.488888889,97.8404167 1.36888889,96.5204167 2.83555556,95.49375 C4.30222222,94.4670833 5.76888889,93.4404167 7.23555556,92.41375 C6.79555556,57.5070833 6.94222222,33.89375 7.67555556,21.57375 C6.35555556,18.93375 5.69555556,16.8070833 5.69555556,15.19375 C5.69555556,11.9670833 7.96888889,9.25375 12.5155556,7.05375 C14.4222222,6.17375 17.1355556,5.73375 20.6555556,5.73375 C32.0955556,5.73375 39.0622222,8.81375 41.5555556,14.97375 C41.9955556,16.1470833 42.2155556,17.2470833 42.2155556,18.27375 C42.2155556,20.3270833 40.9322222,23.3704167 38.3655556,27.40375 C35.7988889,31.4370833 34.5155556,34.77375 34.5155556,37.41375 C33.6355556,60.8804167 33.4888889,78.33375 34.0755556,89.77375 C48.4488889,87.2804167 57.9822222,85.37375 62.6755556,84.05375 C61.3555556,66.1604167 61.5022222,45.1870833 63.1155556,21.13375 C61.7955556,17.4670833 61.1355556,14.4604167 61.1355556,12.11375 C61.1355556,7.71375 63.8488889,4.12041667 69.2755556,1.33375 C70.4488889,0.747083333 72.1355556,0.45375 74.3355556,0.45375 C79.4688889,0.45375 84.4555556,1.70041667 89.2955556,4.19375 C94.8688889,7.12708333 97.7288889,10.8670833 97.8755556,15.41375 C98.0222222,17.4670833 96.7388889,20.03375 94.0255556,23.11375 C91.3122222,26.19375 89.9555556,28.9070833 89.9555556,31.25375 C89.6622222,52.37375 89.8088889,70.1204167 90.3955556,84.49375 C92.7422222,86.4004167 95.1255556,89.1870833 97.5455556,92.85375 C99.9655556,96.5204167 101.175556,99.5270833 101.175556,101.87375 C101.175556,104.220417 99.9288889,105.980417 97.4355556,107.15375 C94.9422222,108.327083 92.5955556,109.427083 90.3955556,110.45375 Z" id="路径"></path>
                    <path d="M208.902222,29.05375 C205.528889,31.8404167 201.202222,33.23375 195.922222,33.23375 C193.722222,33.23375 191.155556,33.01375 188.222222,32.57375 C183.968889,33.89375 180.155556,35.21375 176.782222,36.53375 C168.568889,39.61375 163.142222,42.25375 160.502222,44.45375 C159.622222,59.7070833 159.622222,77.1604167 160.502222,96.81375 C161.382222,96.2270833 163.582222,95.6404167 167.102222,95.05375 C168.862222,91.97375 171.868889,90.43375 176.122222,90.43375 C180.375556,90.43375 185.325556,92.4870833 190.972222,96.59375 C196.618889,100.700417 199.442222,104.73375 199.442222,108.69375 C199.442222,109.720417 199.222222,110.747083 198.782222,111.77375 C197.022222,116.17375 194.308889,118.960417 190.642222,120.13375 C188.442222,120.867083 185.215556,121.050417 180.962222,120.68375 C176.708889,120.317083 173.995556,120.427083 172.822222,121.01375 C169.448889,122.627083 165.342222,124.53375 160.502222,126.73375 C160.502222,139.93375 160.942222,148.440417 161.822222,152.25375 C167.982222,150.787083 173.115556,149.027083 177.222222,146.97375 C177.955556,145.947083 178.688889,144.99375 179.422222,144.11375 C180.888889,142.500417 183.528889,141.840417 187.342222,142.13375 C191.448889,142.427083 195.702222,144.77375 200.102222,149.17375 C204.502222,153.57375 206.702222,158.047083 206.702222,162.59375 C206.702222,166.55375 205.015556,169.487083 201.642222,171.39375 C198.268889,173.300417 192.622222,173.960417 184.702222,173.37375 L164.022222,183.71375 C163.142222,184.15375 161.235556,185.620417 158.302222,188.11375 C156.102222,190.020417 154.122222,190.97375 152.362222,190.97375 C151.775556,190.97375 151.115556,190.900417 150.382222,190.75375 C142.608889,188.407083 135.568889,182.320417 129.262222,172.49375 C128.822222,171.760417 128.602222,170.880417 128.602222,169.85375 C128.602222,169.41375 129.408889,166.480417 131.022222,161.05375 C129.408889,118.37375 129.115556,72.9070833 130.142222,24.65375 C129.115556,23.1870833 128.602222,21.7204167 128.602222,20.25375 C128.602222,15.41375 133.075556,12.33375 142.022222,11.01375 C143.928889,10.7204167 146.348889,11.23375 149.282222,12.55375 C151.188889,13.5804167 153.022222,14.53375 154.782222,15.41375 L181.182222,7.05375 C181.768889,6.90708333 183.455556,6.02708333 186.242222,4.41375 C188.148889,3.24041667 190.348889,2.65375 192.842222,2.65375 C194.015556,2.65375 195.408889,2.80041667 197.022222,3.09375 C200.248889,3.68041667 203.438889,6.21041667 206.592222,10.68375 C209.745556,15.1570833 211.322222,19.37375 211.322222,23.33375 C211.322222,25.8270833 210.515556,27.73375 208.902222,29.05375 Z" id="路径"></path>
                    <path d="M325.428889,31.69375 C323.815556,34.77375 320.368889,36.31375 315.088889,36.31375 C308.195556,36.31375 304.162222,36.53375 302.988889,36.97375 C297.562222,39.3204167 291.255556,41.9604167 284.068889,44.89375 C283.628889,56.0404167 283.408889,68.2870833 283.408889,81.63375 C283.408889,108.767083 284.215556,136.560417 285.828889,165.01375 C285.828889,167.067083 286.598889,169.74375 288.138889,173.04375 C289.678889,176.34375 290.448889,178.727083 290.448889,180.19375 C290.448889,182.100417 289.788889,183.860417 288.468889,185.47375 C285.242222,189.87375 280.402222,192.07375 273.948889,192.07375 C268.375556,192.07375 263.058889,190.570417 257.998889,187.56375 C252.938889,184.557083 250.042222,181.000417 249.308889,176.89375 C248.868889,174.69375 250.005556,172.200417 252.718889,169.41375 C255.432222,166.627083 256.788889,163.987083 256.788889,161.49375 C255.762222,132.307083 255.248889,106.787083 255.248889,84.93375 C255.248889,71.73375 255.468889,61.17375 255.908889,53.25375 C255.762222,53.25375 253.708889,53.9870833 249.748889,55.45375 C247.108889,56.4804167 244.982222,56.99375 243.368889,56.99375 C241.022222,56.99375 238.895556,56.1870833 236.988889,54.57375 C232.295556,50.61375 229.362222,47.97375 228.188889,46.65375 C225.842222,44.01375 224.668889,41.2270833 224.668889,38.29375 C224.668889,37.2670833 224.815556,36.09375 225.108889,34.77375 C225.548889,32.7204167 236.255556,28.5404167 257.228889,22.23375 C279.815556,15.3404167 291.988889,11.3070833 293.748889,10.13375 C295.362222,9.54708333 297.158889,8.22708333 299.138889,6.17375 C301.118889,4.12041667 303.282222,2.94708333 305.628889,2.65375 C308.855556,2.36041667 313.108889,4.48708333 318.388889,9.03375 C324.255556,14.1670833 327.188889,19.5204167 327.188889,25.09375 C327.188889,27.29375 326.602222,29.49375 325.428889,31.69375 Z" id="路径"></path>
                    <path d="M461.095556,27.73375 C459.628889,29.93375 456.585556,31.69375 451.965556,33.01375 C447.345556,34.33375 444.375556,36.09375 443.055556,38.29375 L371.335556,155.77375 L410.055556,155.77375 C412.108889,155.77375 414.528889,154.56375 417.315556,152.14375 C420.102222,149.72375 422.815556,148.587083 425.455556,148.73375 C431.908889,149.17375 437.262222,151.59375 441.515556,155.99375 C445.768889,160.39375 447.895556,165.23375 447.895556,170.51375 C447.895556,176.527083 445.255556,181.220417 439.975556,184.59375 C438.655556,185.47375 437.188889,185.91375 435.575556,185.91375 C433.815556,185.91375 430.845556,185.217083 426.665556,183.82375 C422.485556,182.430417 419.148889,181.73375 416.655556,181.73375 L358.575556,181.73375 C356.962222,181.73375 354.615556,182.357083 351.535556,183.60375 C348.455556,184.850417 346.255556,185.327083 344.935556,185.03375 C340.388889,184.15375 336.575556,181.220417 333.495556,176.23375 C330.855556,171.687083 329.535556,166.77375 329.535556,161.49375 C329.535556,158.707083 330.012222,156.32375 330.965556,154.34375 C331.918889,152.36375 334.265556,150.750417 338.005556,149.50375 C341.745556,148.257083 344.202222,146.680417 345.375556,144.77375 L411.815556,34.77375 L375.735556,39.61375 C374.268889,39.7604167 372.288889,40.4570833 369.795556,41.70375 C367.302222,42.9504167 365.248889,43.57375 363.635556,43.57375 C362.168889,43.57375 360.482222,43.13375 358.575556,42.25375 C351.975556,39.0270833 348.675556,32.7204167 348.675556,23.33375 C348.675556,18.7870833 349.702222,15.4870833 351.755556,13.43375 C353.808889,11.3804167 356.155556,10.35375 358.795556,10.35375 C359.822222,10.35375 361.802222,10.6470833 364.735556,11.23375 C367.668889,11.8204167 370.015556,12.0404167 371.775556,11.89375 L431.175556,6.61375 C432.935556,6.46708333 435.062222,5.29375 437.555556,3.09375 C440.048889,0.89375 442.322222,-0.132916667 444.375556,0.01375 C448.042222,0.307083333 451.965556,3.09375 456.145556,8.37375 C460.325556,13.65375 462.415556,18.5670833 462.415556,23.11375 C462.415556,24.87375 461.975556,26.41375 461.095556,27.73375 Z" id="路径"></path>
                    <path d="M603.142222,167.65375 C602.848889,172.93375 601.015556,177.370417 597.642222,180.96375 C594.268889,184.557083 590.088889,186.207083 585.102222,185.91375 C572.635556,185.180417 564.128889,179.09375 559.582222,167.65375 C558.848889,165.89375 558.408889,163.03375 558.262222,159.07375 C557.968889,155.55375 557.235556,152.69375 556.062222,150.49375 C550.635556,142.13375 545.648889,134.067083 541.102222,126.29375 C529.955556,107.520417 521.742222,91.8270833 516.462222,79.21375 C515.875556,94.17375 517.048889,122.33375 519.982222,163.69375 C519.982222,164.57375 520.715556,166.55375 522.182222,169.63375 C523.648889,172.71375 524.382222,175.280417 524.382222,177.33375 C524.382222,179.97375 523.502222,182.39375 521.742222,184.59375 C519.248889,187.820417 515.508889,189.43375 510.522222,189.43375 C505.242222,189.43375 500.072222,187.78375 495.012222,184.48375 C489.952222,181.18375 487.128889,177.33375 486.542222,172.93375 C486.102222,169.41375 487.055556,166.700417 489.402222,164.79375 C491.748889,162.887083 492.848889,161.200417 492.702222,159.73375 L486.102222,25.09375 C486.102222,24.3604167 485.955556,23.2604167 485.662222,21.79375 C485.368889,20.3270833 485.222222,19.2270833 485.222222,18.49375 C485.222222,16.29375 486.358889,14.53375 488.632222,13.21375 C490.905556,11.89375 494.095556,11.23375 498.202222,11.23375 C509.202222,11.23375 517.048889,14.09375 521.742222,19.81375 C523.062222,21.2804167 523.722222,23.0404167 523.722222,25.09375 C523.722222,25.97375 523.575556,27.1470833 523.282222,28.61375 C522.988889,30.0804167 522.842222,31.1070833 522.842222,31.69375 C522.842222,32.13375 522.915556,32.57375 523.062222,33.01375 C525.995556,47.97375 541.395556,79.3604167 569.262222,127.17375 L566.622222,19.81375 C566.622222,18.49375 566.108889,17.0270833 565.082222,15.41375 C564.055556,13.8004167 563.542222,12.55375 563.542222,11.67375 C563.542222,9.76708333 565.008889,7.34708333 567.942222,4.41375 C569.555556,2.65375 572.048889,1.77375 575.422222,1.77375 C580.848889,1.77375 586.422222,3.68041667 592.142222,7.49375 C597.862222,11.3070833 600.795556,15.41375 600.942222,19.81375 C601.088889,22.6004167 599.952222,24.8004167 597.532222,26.41375 C595.112222,28.0270833 593.902222,29.6404167 593.902222,31.25375 L596.982222,151.81375 C596.982222,153.867083 598.045556,156.470417 600.172222,159.62375 C602.298889,162.777083 603.288889,165.45375 603.142222,167.65375 Z" id="路径"></path>
                    <path d="M712.188889,29.05375 C708.815556,31.8404167 704.488889,33.23375 699.208889,33.23375 C697.008889,33.23375 694.442222,33.01375 691.508889,32.57375 C687.255556,33.89375 683.442222,35.21375 680.068889,36.53375 C671.855556,39.61375 666.428889,42.25375 663.788889,44.45375 C662.908889,59.7070833 662.908889,77.1604167 663.788889,96.81375 C664.668889,96.2270833 666.868889,95.6404167 670.388889,95.05375 C672.148889,91.97375 675.155556,90.43375 679.408889,90.43375 C683.662222,90.43375 688.612222,92.4870833 694.258889,96.59375 C699.905556,100.700417 702.728889,104.73375 702.728889,108.69375 C702.728889,109.720417 702.508889,110.747083 702.068889,111.77375 C700.308889,116.17375 697.595556,118.960417 693.928889,120.13375 C691.728889,120.867083 688.502222,121.050417 684.248889,120.68375 C679.995556,120.317083 677.282222,120.427083 676.108889,121.01375 C672.735556,122.627083 668.628889,124.53375 663.788889,126.73375 C663.788889,139.93375 664.228889,148.440417 665.108889,152.25375 C671.268889,150.787083 676.402222,149.027083 680.508889,146.97375 C681.242222,145.947083 681.975556,144.99375 682.708889,144.11375 C684.175556,142.500417 686.815556,141.840417 690.628889,142.13375 C694.735556,142.427083 698.988889,144.77375 703.388889,149.17375 C707.788889,153.57375 709.988889,158.047083 709.988889,162.59375 C709.988889,166.55375 708.302222,169.487083 704.928889,171.39375 C701.555556,173.300417 695.908889,173.960417 687.988889,173.37375 L667.308889,183.71375 C666.428889,184.15375 664.522222,185.620417 661.588889,188.11375 C659.388889,190.020417 657.408889,190.97375 655.648889,190.97375 C655.062222,190.97375 654.402222,190.900417 653.668889,190.75375 C645.895556,188.407083 638.855556,182.320417 632.548889,172.49375 C632.108889,171.760417 631.888889,170.880417 631.888889,169.85375 C631.888889,169.41375 632.695556,166.480417 634.308889,161.05375 C632.695556,118.37375 632.402222,72.9070833 633.428889,24.65375 C632.402222,23.1870833 631.888889,21.7204167 631.888889,20.25375 C631.888889,15.41375 636.362222,12.33375 645.308889,11.01375 C647.215556,10.7204167 649.635556,11.23375 652.568889,12.55375 C654.475556,13.5804167 656.308889,14.53375 658.068889,15.41375 L684.468889,7.05375 C685.055556,6.90708333 686.742222,6.02708333 689.528889,4.41375 C691.435556,3.24041667 693.635556,2.65375 696.128889,2.65375 C697.302222,2.65375 698.695556,2.80041667 700.308889,3.09375 C703.535556,3.68041667 706.725556,6.21041667 709.878889,10.68375 C713.032222,15.1570833 714.608889,19.37375 714.608889,23.33375 C714.608889,25.8270833 713.802222,27.73375 712.188889,29.05375 Z" id="路径"></path>
                    <path d="M863.695556,168.97375 C863.842222,169.85375 863.915556,170.660417 863.915556,171.39375 C863.915556,175.79375 861.348889,179.497083 856.215556,182.50375 C851.082222,185.510417 845.728889,187.01375 840.155556,187.01375 C836.782222,187.01375 834.068889,186.35375 832.015556,185.03375 C830.548889,184.15375 829.265556,182.430417 828.165556,179.86375 C827.065556,177.297083 825.855556,175.57375 824.535556,174.69375 L775.915556,142.13375 L777.895556,162.37375 C778.042222,163.400417 779.178889,165.527083 781.305556,168.75375 C783.432222,171.980417 784.495556,174.69375 784.495556,176.89375 C784.495556,180.120417 782.442222,183.127083 778.335556,185.91375 C775.842222,187.67375 772.688889,188.55375 768.875556,188.55375 C763.448889,188.55375 758.388889,187.087083 753.695556,184.15375 C748.562222,181.220417 745.482222,177.480417 744.455556,172.93375 C744.308889,172.05375 744.235556,171.320417 744.235556,170.73375 C744.235556,168.680417 745.225556,166.88375 747.205556,165.34375 C749.185556,163.80375 750.175556,162.37375 750.175556,161.05375 L743.135556,35.65375 C742.988889,33.7470833 742.182222,31.2170833 740.715556,28.06375 C739.248889,24.9104167 738.515556,22.6004167 738.515556,21.13375 C738.515556,17.3204167 741.008889,14.2404167 745.995556,11.89375 C750.102222,9.84041667 754.282222,8.81375 758.535556,8.81375 C761.322222,8.81375 763.742222,9.21708333 765.795556,10.02375 C767.848889,10.8304167 769.242222,12.0770833 769.975556,13.76375 C770.708889,15.4504167 771.588889,16.29375 772.615556,16.29375 C772.762222,16.4404167 777.235556,14.8270833 786.035556,11.45375 C796.302222,7.64041667 805.322222,5.73375 813.095556,5.73375 C824.388889,5.73375 833.482222,9.69375 840.375556,17.61375 C842.282222,19.81375 843.235556,22.89375 843.235556,26.85375 C843.235556,37.5604167 837.075556,52.6670833 824.755556,72.17375 C813.022222,90.5070833 800.922222,105.17375 788.455556,116.17375 L845.215556,155.77375 C845.362222,155.920417 849.028889,157.680417 856.215556,161.05375 C860.322222,162.960417 862.815556,165.600417 863.695556,168.97375 Z M804.735556,32.35375 C801.508889,32.35375 796.375556,35.43375 789.335556,41.59375 C787.868889,42.7670833 782.442222,47.8270833 773.055556,56.77375 L772.615556,96.15375 C781.708889,86.1804167 789.922222,75.0704167 797.255556,62.82375 C804.588889,50.5770833 808.255556,41.81375 808.255556,36.53375 C808.255556,33.7470833 807.082222,32.35375 804.735556,32.35375 Z" id="形状"></path>
                </g>
            </g>
        </g>
    </g>
</svg>