<?xml version="1.0" encoding="UTF-8"?>
<svg width="1024px" height="1024px" viewBox="0 0 1024 1024" version="1.1" xmlns="http://www.w3.org/2000/svg" xmlns:xlink="http://www.w3.org/1999/xlink">
    <title>Hexo</title>
    <g id="ICON-新版方图标" stroke="none" stroke-width="1" fill="none" fill-rule="evenodd">
        <g id="Hexo">
            <rect id="蒙版路径" fill="#FFFFFF" x="0" y="0" width="1024" height="1024"></rect>
            <polygon id="多边形" fill="#0E83CD" points="511 87 890.554114 293.634379 890.554114 719.159618 516.211272 939.691756 141.868429 734 141.868429 293.634379"></polygon>
            <g id="H" transform="translate(302, 290)" fill="#FFFFFF" fill-rule="nonzero">
                <path d="M252.801843,422.799454 L249.400922,422.799454 L249.400922,419.770805 L252.801843,419.770805 L252.801843,422.799454 Z M249.400922,430.673943 L247.133641,430.673943 L247.133641,427.645293 L249.400922,427.645293 L249.400922,430.673943 Z M87.2903226,399.175989 L85.0230415,399.175989 L85.0230415,396.14734 L87.2903226,396.14734 L87.2903226,399.175989 Z M492,36.9495225 C488.221198,43.4106412 479.907834,46.6412005 467.059908,46.6412005 C465.548387,46.6412005 462.525346,45.4297408 457.990783,43.0068213 C453.456221,40.5839018 450.0553,38.9686221 447.788018,38.1609823 C447.032258,33.7189632 445.898618,31.4979536 444.387097,31.4979536 C442.875576,31.4979536 441.552995,31.6998636 440.419355,32.1036835 C439.285714,32.5075034 437.963134,32.7094134 436.451613,32.7094134 C431.16129,32.7094134 423.603687,30.6903138 413.778802,26.6521146 C413.023041,24.2291951 416.046083,19.787176 422.847926,13.3260573 C424.359447,10.9031378 427.382488,7.26875853 431.917051,2.42291951 C434.940092,0.807639836 437.963134,0 440.986175,0 C447.032258,0 454.211982,1.31241473 462.525346,3.9372442 C470.83871,6.56207367 475.373272,10.095498 476.129032,14.5375171 C474.617512,15.7489768 474.617512,17.3642565 476.129032,19.3833561 C477.640553,22.2100955 478.396313,23.8253752 478.396313,24.2291951 C478.396313,24.633015 477.262673,25.8444748 474.995392,27.8635744 C472.728111,29.8826739 471.59447,31.2960437 471.59447,32.1036835 L471.59447,35.1323329 C473.105991,35.1323329 474.995392,34.728513 477.262673,33.9208731 C479.529954,33.1132333 481.041475,32.7094134 481.797235,32.7094134 C484.064516,32.7094134 487.465438,34.1227831 492,36.9495225 Z M344.626728,31.4979536 C337.069124,35.9399727 331.023041,38.1609823 326.488479,38.1609823 C321.953917,38.1609823 319.686636,38.1609823 319.686636,38.1609823 C318.930876,34.526603 317.419355,32.7094134 315.152074,32.7094134 C313.640553,32.7094134 312.506912,32.7094134 311.751152,32.7094134 C310.995392,32.7094134 310.617512,32.7094134 310.617512,32.7094134 C315.152074,31.4979536 318.175115,29.478854 319.686636,26.6521146 L324.221198,28.4693042 C323.465438,28.4693042 326.488479,27.2578445 333.290323,24.834925 L340.092166,24.834925 C340.092166,25.6425648 341.603687,27.8635744 344.626728,31.4979536 Z M348.02765,40.5839018 L345.760369,44.218281 C345.760369,44.218281 343.870968,42.4010914 340.092166,38.7667121 C343.115207,38.7667121 345.760369,39.372442 348.02765,40.5839018 Z M352.562212,64.8130969 C352.562212,64.8130969 349.16129,65.4188267 342.359447,66.6302865 C342.359447,65.0150068 344.626728,63.8035471 349.16129,62.9959072 C349.16129,62.9959072 350.294931,63.6016371 352.562212,64.8130969 Z M307.21659,56.9386085 L304.949309,56.9386085 L304.949309,54.5156889 L307.21659,54.5156889 L307.21659,56.9386085 Z M218.792627,45.4297408 L214.258065,46.0354707 L214.258065,44.8240109 L218.792627,44.218281 L218.792627,45.4297408 Z M363.898618,205.948158 L362.764977,206.553888 L360.497696,205.342428 L361.631336,204.736698 L363.898618,205.948158 Z M32.875576,109.637108 L29.4746544,109.637108 L29.4746544,107.214188 L32.875576,107.214188 L32.875576,109.637108 Z M428.516129,50.8813097 C421.714286,58.957708 415.290323,67.8417462 409.24424,77.5334243 L409.24424,79.3506139 C410.75576,78.946794 414.534562,77.1296044 420.580645,73.899045 C422.092166,74.7066849 422.847926,75.7162347 422.847926,76.9276944 C422.847926,77.3315143 419.069124,85.8117326 411.511521,102.368349 C406.976959,107.214188 400.930876,114.281037 393.373272,123.568895 C390.35023,130.837653 384.304147,141.538881 375.235023,155.672578 C372.967742,157.691678 370.322581,160.518417 367.299539,164.152797 C356.718894,184.343793 349.16129,200.496589 344.626728,212.611187 C345.382488,213.015007 346.894009,213.216917 349.16129,213.216917 C352.184332,213.216917 354.073733,212.611187 354.829493,211.399727 C357.096774,208.169168 368.43318,191.208731 388.83871,160.518417 C391.105991,159.306958 392.617512,158.903138 393.373272,159.306958 C391.105991,166.171896 388.460829,172.431105 385.437788,178.084584 C359.741935,219.678035 343.493088,258.646658 336.691244,294.99045 C335.935484,295.39427 334.801843,296 333.290323,296.80764 C334.046083,291.961801 335.935484,285.096862 338.958525,276.212824 L337.824885,269.549795 C328,288.529332 319.308756,316.594816 311.751152,353.746248 C311.751152,354.957708 309.861751,356.371078 306.082949,357.986357 C304.571429,360.813097 304.571429,363.236016 306.082949,365.255116 C304.571429,355.159618 304.571429,342.843111 306.082949,328.305593 C306.83871,322.248295 306.83871,319.017735 306.082949,318.613915 C308.35023,315.787176 308.35023,313.566166 306.082949,311.950887 C306.082949,311.547067 307.59447,310.537517 310.617512,308.922237 C310.617512,308.114598 309.105991,307.710778 306.082949,307.710778 C306.082949,307.306958 306.83871,307.004093 308.35023,306.802183 C309.861751,306.600273 310.995392,306.297408 311.751152,305.893588 C310.995392,305.489768 309.483871,304.076398 307.21659,301.653479 L307.21659,298.624829 C307.97235,298.624829 309.105991,299.230559 310.617512,300.442019 C315.907834,297.61528 315.907834,294.58663 310.617512,291.356071 C310.617512,290.144611 311.751152,288.731241 314.018433,287.115962 C314.774194,285.904502 314.018433,285.096862 311.751152,284.693042 C313.262673,274.597544 315.529954,264.300136 318.552995,253.800819 C317.797235,253.396999 317.041475,253.195089 316.285714,253.195089 C314.018433,259.252387 311.751152,264.502046 309.483871,268.944065 C307.97235,269.347885 306.082949,270.559345 303.815668,272.578445 C303.059908,277.424284 301.926267,281.260573 300.414747,284.087312 L302.682028,285.298772 C305.705069,283.683492 307.21659,282.875853 307.21659,282.875853 C305.705069,292.163711 302.682028,305.085948 298.147465,321.642565 C299.658986,326.084584 299.658986,329.517053 298.147465,331.939973 C297.391705,332.343793 295.124424,332.949523 291.345622,333.757162 C293.612903,335.776262 296.258065,336.785812 299.281106,336.785812 C299.281106,338.804911 299.658986,340.016371 300.414747,340.420191 C300.414747,340.420191 299.281106,340.420191 297.013825,340.420191 C295.502304,340.016371 294.368664,339.814461 293.612903,339.814461 C290.589862,341.833561 289.834101,346.27558 291.345622,353.140518 C289.078341,355.159618 287.9447,357.380628 287.9447,359.803547 C287.9447,363.841746 289.456221,367.274216 292.479263,370.100955 C295.502304,368.889495 298.903226,368.687585 302.682028,369.495225 L302.682028,376.158254 C298.903226,375.754434 295.880184,374.341064 293.612903,371.918145 C292.857143,372.321965 292.479263,372.826739 292.479263,373.432469 C292.479263,374.038199 292.101382,374.542974 291.345622,374.946794 L310.617512,437.942701 C310.617512,439.557981 309.105991,441.57708 306.082949,444 C303.059908,441.9809 301.170507,439.154161 300.414747,435.519782 C298.903226,434.712142 296.824885,433.500682 294.179724,431.885402 C291.534562,430.270123 289.834101,428.049113 289.078341,425.222374 C289.078341,425.222374 288.322581,424.818554 286.81106,424.010914 C286.81106,424.010914 286.81106,424.212824 286.81106,424.616644 C286.81106,425.424284 286.0553,425.828104 284.543779,425.828104 C281.520737,425.828104 279.631336,425.828104 278.875576,425.828104 C279.631336,427.847203 280.576037,430.875853 281.709677,434.914052 C282.843318,438.952251 283.788018,441.9809 284.543779,444 C281.520737,443.19236 279.253456,441.77899 277.741935,439.759891 C276.986175,438.548431 276.986175,437.538881 277.741935,436.731241 C277.741935,435.923602 276.797235,434.409277 274.907834,432.188267 C273.018433,429.967258 272.073733,428.049113 272.073733,426.433834 C272.073733,424.818554 271.695853,422.193724 270.940092,418.559345 C267.917051,412.905866 264.516129,404.425648 260.737327,393.11869 C259.981567,392.31105 259.981567,390.695771 260.737327,388.272851 C261.493088,385.446112 261.870968,383.830832 261.870968,383.427012 C261.870968,380.196453 261.493088,375.956344 260.737327,370.706685 C256.958525,353.342428 255.069124,342.641201 255.069124,338.603001 C255.069124,330.526603 255.069124,323.257844 255.069124,316.796726 C255.824885,310.335607 256.202765,306.903138 256.202765,306.499318 C250.912442,313.364256 248.645161,318.412005 249.400922,321.642565 C249.400922,319.219645 248.267281,315.787176 246,311.345157 C243.732719,311.748977 242.599078,313.162347 242.599078,315.585266 C244.110599,319.623465 246,322.248295 248.267281,323.459754 C248.267281,323.459754 247.511521,323.661664 246,324.065484 C244.488479,324.469304 243.354839,324.671214 242.599078,324.671214 C242.599078,321.440655 241.465438,316.392906 239.198157,309.527967 C236.175115,313.969986 234.663594,319.017735 234.663594,324.671214 C234.663594,325.075034 235.419355,328.204638 236.930876,334.060027 C238.442396,339.915416 239.198157,344.05457 239.198157,346.47749 C239.198157,354.150068 238.442396,356.572988 236.930876,353.746248 C237.686636,355.361528 239.576037,361.015007 242.599078,370.706685 C240.331797,369.899045 239.198157,369.899045 239.198157,370.706685 C239.198157,369.091405 241.087558,371.312415 244.866359,377.369714 C242.599078,376.158254 241.465438,376.763984 241.465438,379.186903 C241.465438,379.590723 243.543779,383.427012 247.700461,390.695771 C251.857143,397.964529 253.935484,402.002729 253.935484,402.810368 C253.935484,403.618008 253.557604,404.627558 252.801843,405.839018 C252.046083,407.050477 251.668203,408.060027 251.668203,408.867667 C249.400922,408.867667 246.37788,408.463847 242.599078,407.656207 C245.62212,407.656207 248.267281,407.252387 250.534562,406.444748 C246.75576,404.829468 242.976959,401.195089 239.198157,395.54161 C239.198157,395.13779 239.198157,398.368349 239.198157,405.233288 C237.686636,404.021828 232.396313,394.93588 223.327189,377.975443 C220.304147,373.129604 217.281106,368.283765 214.258065,363.437926 C217.281106,362.630286 218.792627,362.024557 218.792627,361.620737 C217.281106,360.409277 216.147465,359.803547 215.391705,359.803547 C213.880184,359.803547 213.124424,360.409277 213.124424,361.620737 C213.124424,361.216917 213.502304,360.813097 214.258065,360.409277 C214.258065,360.005457 214.258065,359.399727 214.258065,358.592087 C214.258065,358.188267 213.691244,357.178718 212.557604,355.563438 C211.423963,353.948158 211.235023,352.534789 211.990783,351.323329 C205.9447,347.68895 202.921659,344.25648 202.921659,341.025921 C202.921659,343.04502 205.18894,340.622101 209.723502,333.757162 L207.456221,332.545703 C204.43318,332.545703 202.921659,332.747613 202.921659,333.151432 C202.921659,329.920873 204.0553,325.075034 206.322581,318.613915 C204.81106,321.440655 204.0553,318.008186 204.0553,308.316508 C204.0553,301.855389 204.43318,291.759891 205.18894,278.030014 C205.18894,264.300136 205.18894,254.204638 205.18894,247.74352 C203.677419,248.55116 202.921659,249.560709 202.921659,250.772169 C202.165899,249.156889 203.677419,246.33015 207.456221,242.291951 C205.9447,242.291951 203.677419,241.888131 200.654378,241.080491 C204.43318,234.215553 204.81106,229.773533 201.788018,227.754434 C201.788018,228.158254 203.299539,227.552524 206.322581,225.937244 C205.56682,225.937244 204.62212,225.836289 203.488479,225.634379 C202.354839,225.432469 201.410138,225.129604 200.654378,224.725784 C200.654378,225.129604 200.276498,225.735334 199.520737,226.542974 C198.764977,227.350614 198.387097,227.956344 198.387097,228.360164 C194.608295,227.148704 191.207373,227.350614 188.184332,228.965894 C188.184332,227.350614 187.806452,226.542974 187.050691,226.542974 C188.562212,226.542974 187.428571,226.946794 183.64977,227.754434 C176.092166,228.158254 168.156682,228.763984 159.843318,229.571623 C154.552995,229.167804 146.995392,229.975443 137.170507,231.994543 C137.170507,232.802183 135.281106,234.013643 131.502304,235.628922 C130.746544,237.244202 131.124424,238.859482 132.635945,240.474761 C132.635945,246.53206 131.502304,255.214188 129.235023,266.521146 C127.723502,272.982265 125.834101,282.472033 123.56682,294.99045 C122.0553,300.240109 121.299539,319.825375 121.299539,353.746248 C121.299539,353.746248 122.43318,358.592087 124.700461,368.283765 C125.456221,372.321965 126.589862,378.581173 128.101382,387.061392 C129.612903,395.54161 129.990783,402.608458 129.235023,408.261937 C129.235023,417.145975 131.124424,422.597544 134.903226,424.616644 C134.903226,424.616644 134.147465,424.414734 132.635945,424.010914 C131.124424,423.607094 129.235023,424.616644 126.967742,427.039563 C125.456221,426.635744 124.322581,426.433834 123.56682,426.433834 C122.81106,419.568895 121.299539,409.675307 119.032258,396.75307 C119.032258,396.34925 118.654378,396.14734 117.898618,396.14734 C118.654378,392.109141 117.142857,386.657572 113.364055,379.792633 L111.096774,378.581173 C104.294931,390.695771 100.894009,395.54161 100.894009,393.11869 C100.894009,393.92633 102.02765,398.974079 104.294931,408.261937 C106.562212,417.549795 107.695853,422.597544 107.695853,423.405184 L107.695853,426.433834 C104.672811,426.433834 102.78341,426.635744 102.02765,427.039563 C98.2488479,420.578445 95.2258065,407.050477 92.9585253,386.455662 C92.202765,385.648022 91.0691244,384.638472 89.5576037,383.427012 C85.0230415,385.042292 83.8894009,388.070941 86.156682,392.51296 C83.1336406,389.686221 81.6221198,384.840382 81.6221198,377.975443 C81.6221198,371.110505 80.4884793,365.860846 78.2211982,362.226467 C75.9539171,362.226467 74.6313364,362.731241 74.2534562,363.740791 C73.875576,364.750341 73.6866359,365.457026 73.6866359,365.860846 C72.1751152,362.630286 71.4193548,358.592087 71.4193548,353.746248 C69.1520737,352.938608 68.0184332,352.534789 68.0184332,352.534789 C66.5069124,356.976808 66.5069124,362.226467 68.0184332,368.283765 C68.7741935,373.533424 69.1520737,375.552524 69.1520737,374.341064 C69.1520737,374.341064 71.4193548,374.341064 75.9539171,374.341064 C79.7327189,385.244202 81.2442396,394.93588 80.4884793,403.416098 L80.4884793,414.319236 C77.4654378,414.319236 75.5760369,414.117326 74.8202765,413.713506 C74.0645161,411.694407 72.5529954,399.175989 70.2857143,376.158254 C68.0184332,378.177353 65.3732719,379.186903 62.3502304,379.186903 C60.8387097,379.186903 57.8156682,378.379263 53.281106,376.763984 C52.5253456,367.476126 50.6359447,359.399727 47.6129032,352.534789 L45.3456221,351.929059 C44.5898618,354.351978 44.9677419,356.169168 46.4792627,357.380628 C44.2119816,361.015007 43.4562212,369.495225 44.2119816,382.821282 C40.4331797,378.379263 39.6774194,372.120055 41.9447005,364.043656 C39.6774194,363.236016 38.5437788,362.832196 38.5437788,362.832196 L35.1428571,362.226467 C37.4101382,354.150068 35.5207373,335.776262 29.4746544,307.105048 C27.2073733,308.316508 25.3179724,308.922237 23.8064516,308.922237 C23.8064516,306.903138 24.1843318,303.874488 24.9400922,299.836289 C24.1843318,297.41337 23.0506912,293.77899 21.5391705,288.933151 C20.0276498,289.336971 19.2718894,290.144611 19.2718894,291.356071 C20.0276498,306.701228 22.6728111,333.151432 27.2073733,370.706685 L24.9400922,376.158254 L17.0046083,327.094134 C13.2258065,331.132333 11.3364055,332.747613 11.3364055,331.939973 C11.3364055,332.747613 12.0921659,333.353342 13.6036866,333.757162 C13.6036866,341.833561 14.7373272,352.938608 17.0046083,367.072306 C15.4930876,363.437926 11.3364055,340.824011 4.53456221,299.230559 C5.29032258,292.769441 5.29032258,282.875853 4.53456221,269.549795 L0,243.503411 C0,243.503411 0.755760369,237.042292 2.26728111,224.120055 C3.02304147,208.774898 7.1797235,183.132333 14.7373272,147.19236 C18.516129,135.481583 24.1843318,123.770805 31.7419355,112.060027 L12.4700461,188.987722 L14.7373272,188.987722 C16.2488479,186.968622 18.516129,183.738063 21.5391705,179.296044 C21.5391705,181.718963 21.5391705,182.930423 21.5391705,182.930423 C22.2949309,182.930423 23.4285714,182.122783 24.9400922,180.507503 C26.4516129,176.469304 27.2073733,173.440655 27.2073733,171.421555 C27.9631336,170.613915 28.718894,169.200546 29.4746544,167.181446 C34.764977,152.643929 41.9447005,130.837653 51.0138249,101.762619 C56.3041475,83.1869031 60.0829493,69.255116 62.3502304,59.9672578 C62.3502304,60.7748977 63.483871,61.7844475 65.7511521,62.9959072 C67.2626728,60.1691678 69.9078341,56.3328786 73.6866359,51.4870396 C73.6866359,49.8717599 74.0645161,47.4488404 74.8202765,44.218281 C86.9124424,28.8731241 110.341014,15.3451569 145.105991,3.63437926 C145.861751,4.03819918 146.239631,4.84583902 146.239631,6.05729877 C146.239631,7.26875853 140.949309,10.3983629 130.368664,15.4461119 C119.788018,20.4938608 114.497696,24.0272851 114.497696,26.0463847 C115.253456,25.6425648 116.009217,25.4406548 116.764977,25.4406548 C117.520737,25.4406548 118.276498,25.2387449 119.032258,24.834925 C117.520737,25.6425648 115.631336,26.8540246 113.364055,28.4693042 C114.119816,28.8731241 114.875576,29.1759891 115.631336,29.377899 C116.387097,29.579809 117.142857,29.680764 117.898618,29.680764 C123.9447,27.2578445 133.391705,23.4215553 146.239631,18.1718963 L150.774194,18.1718963 C152.285714,19.787176 151.907834,22.2100955 149.640553,25.4406548 L151.907834,26.6521146 C154.175115,25.8444748 156.064516,24.2291951 157.576037,21.8062756 C158.331797,20.9986357 160.599078,20.5948158 164.37788,20.5948158 C167.400922,20.5948158 171.557604,21.2005457 176.847926,22.4120055 C176.847926,24.0272851 176.847926,24.834925 176.847926,24.834925 C174.580645,23.6234652 171.935484,23.0177353 168.912442,23.0177353 C167.400922,23.0177353 163.24424,24.834925 156.442396,28.4693042 C158.709677,29.2769441 163.24424,29.2769441 170.046083,28.4693042 C167.023041,28.8731241 162.866359,30.8922237 157.576037,34.526603 C157.576037,34.526603 157.953917,34.526603 158.709677,34.526603 C159.465438,34.9304229 160.599078,35.1323329 162.110599,35.1323329 C164.37788,35.1323329 168.156682,34.1227831 173.447005,32.1036835 C173.447005,30.8922237 174.202765,29.680764 175.714286,28.4693042 C178.737327,30.4884038 184.02765,34.1227831 191.585253,39.372442 C193.096774,38.9686221 197.631336,38.7667121 205.18894,38.7667121 C205.18894,45.6316508 208.211982,48.8622101 214.258065,48.4583902 C211.990783,50.4774898 208.211982,53.5061392 202.921659,57.5443383 C204.43318,58.3519782 205.56682,58.7557981 206.322581,58.7557981 C207.078341,58.7557981 206.700461,59.361528 205.18894,60.5729877 C203.677419,61.7844475 202.921659,62.5920873 202.921659,62.9959072 C204.43318,63.8035471 206.700461,65.0150068 209.723502,66.6302865 C202.921659,67.0341064 198.764977,69.3560709 197.253456,73.5961801 C195.741935,77.8362892 194.041475,81.5716235 192.152074,84.8021828 C190.262673,88.0327422 187.428571,97.3206003 183.64977,112.665757 C182.138249,115.492497 179.870968,119.732606 176.847926,125.386085 C174.580645,128.212824 173.069124,130.635744 172.313364,132.654843 C173.824885,134.270123 174.580645,134.875853 174.580645,134.472033 C171.557604,136.894952 170.046083,137.702592 170.046083,136.894952 C170.046083,139.721692 171.179724,141.135061 173.447005,141.135061 C174.202765,141.135061 178.359447,141.135061 185.917051,141.135061 C193.474654,141.135061 199.142857,141.135061 202.921659,141.135061 C202.165899,141.942701 197.253456,142.548431 188.184332,142.952251 C179.115207,143.356071 172.691244,144.769441 168.912442,147.19236 C168.912442,148.40382 170.046083,149.00955 172.313364,149.00955 C173.069124,149.00955 175.147465,148.80764 178.548387,148.40382 C181.949309,148 184.02765,147.79809 184.78341,147.79809 C186.294931,147.79809 186.672811,148 185.917051,148.40382 C185.16129,148.80764 185.539171,149.00955 187.050691,149.00955 C187.806452,149.00955 190.451613,149.00955 194.986175,149.00955 C198.764977,148.60573 201.410138,148.40382 202.921659,148.40382 L207.456221,148.40382 C209.723502,146.78854 212.368664,145.9809 215.391705,145.9809 C216.903226,145.9809 218.036866,146.18281 218.792627,146.58663 C219.548387,146.58663 220.682028,146.58663 222.193548,146.58663 C222.193548,146.99045 222.193548,147.79809 222.193548,149.00955 C222.949309,149.81719 223.327189,150.42292 223.327189,150.826739 C208.211982,151.230559 188.940092,153.451569 165.511521,157.489768 C165.511521,158.297408 167.023041,159.508868 170.046083,161.124147 L209.723502,161.124147 C211.235023,161.124147 212.935484,160.922237 214.824885,160.518417 C216.714286,160.114598 218.414747,159.912688 219.926267,159.912688 C225.21659,159.912688 231.640553,158.903138 239.198157,156.884038 C250.534562,134.270123 260.737327,116.905866 269.806452,104.791269 C276.608295,95.0995907 287.18894,81.7735334 301.548387,64.8130969 C304.571429,62.3901774 308.728111,58.957708 314.018433,54.5156889 C311.751152,50.4774898 312.884793,47.6507503 317.419355,46.0354707 C318.175115,46.4392906 319.119816,46.8431105 320.253456,47.2469304 C321.387097,47.6507503 321.953917,48.0545703 321.953917,48.4583902 C323.465438,48.4583902 324.221198,47.8526603 324.221198,46.6412005 C328.75576,47.8526603 332.156682,48.4583902 334.423963,48.4583902 C335.179724,48.0545703 335.746544,47.4488404 336.124424,46.6412005 C336.502304,45.8335607 337.069124,45.2278308 337.824885,44.8240109 C337.824885,45.6316508 338.202765,46.6412005 338.958525,47.8526603 C347.271889,51.0832196 351.428571,52.9004093 351.428571,53.3042292 C351.428571,54.111869 350.294931,55.3233288 348.02765,56.9386085 C348.78341,58.1500682 350.672811,60.3710778 353.695853,63.6016371 C362.009217,61.1787176 365.788018,59.9672578 365.032258,59.9672578 C368.81106,59.9672578 371.456221,60.7748977 372.967742,62.3901774 C370.700461,65.2169168 371.078341,69.053206 374.101382,73.899045 C380.903226,68.2455662 384.304147,64.8130969 384.304147,63.6016371 C384.304147,58.3519782 380.903226,55.7271487 374.101382,55.7271487 C372.589862,55.7271487 372.023041,55.9290587 372.400922,56.3328786 C372.778802,56.7366985 372.211982,56.9386085 370.700461,56.9386085 C372.967742,56.9386085 368.0553,54.5156889 355.963134,49.6698499 C357.474654,48.4583902 357.852535,46.0354707 357.096774,42.4010914 C361.631336,42.4010914 363.520737,43.2087312 362.764977,44.8240109 C362.009217,45.2278308 362.009217,45.8335607 362.764977,46.6412005 C365.032258,45.8335607 366.165899,44.420191 366.165899,42.4010914 C366.165899,42.4010914 366.543779,43.4106412 367.299539,45.4297408 C369.56682,45.8335607 372.211982,46.8431105 375.235023,48.4583902 C385.059908,43.2087312 392.617512,40.5839018 397.907834,40.5839018 C399.419355,40.5839018 402.253456,41.5934516 406.410138,43.6125512 C410.56682,45.6316508 412.645161,47.2469304 412.645161,48.4583902 C412.645161,49.26603 412.267281,50.6793997 411.511521,52.6984993 C410.75576,54.7175989 410.37788,56.1309686 410.37788,56.9386085 L408.110599,56.3328786 C406.599078,56.3328786 405.087558,57.5443383 403.576037,59.9672578 C402.064516,60.3710778 400.741935,61.2796726 399.608295,62.6930423 C398.474654,64.106412 397.152074,66.2264666 395.640553,69.053206 L396.774194,73.899045 C397.529954,73.4952251 400.930876,69.053206 406.976959,60.5729877 C408.488479,59.7653479 411.133641,58.5538881 414.912442,56.9386085 C416.423963,55.3233288 418.691244,53.1023192 421.714286,50.2755798 C423.225806,50.2755798 424.359447,50.4774898 425.115207,50.8813097 C426.626728,50.8813097 427.760369,50.8813097 428.516129,50.8813097 Z M253.935484,244.109141 L248.267281,245.92633 L247.133641,244.71487 L252.801843,242.897681 L253.935484,244.109141 Z M14.7373272,199.28513 L13.6036866,201.102319 L11.3364055,201.102319 L12.4700461,198.6794 L14.7373272,199.28513 Z M249.400922,337.997271 C249.400922,337.593452 249.023041,336.583902 248.267281,334.968622 C247.511521,333.353342 247.322581,332.242838 247.700461,331.637108 C248.078341,331.031378 247.133641,330.728513 244.866359,330.728513 C242.599078,330.728513 241.465438,330.930423 241.465438,331.334243 C242.221198,330.930423 243.354839,330.021828 244.866359,328.608458 C246.37788,327.195089 247.511521,326.286494 248.267281,325.882674 C249.023041,327.901774 249.400922,331.939973 249.400922,337.997271 Z M302.682028,364.649386 C300.414747,364.649386 297.391705,365.053206 293.612903,365.860846 C292.101382,365.457026 291.345622,363.841746 291.345622,361.015007 C292.101382,361.822647 293.612903,363.236016 295.880184,365.255116 C295.880184,364.851296 296.258065,364.346521 297.013825,363.740791 C297.769585,363.135061 298.147465,362.832196 298.147465,362.832196 L302.682028,364.649386 Z M244.866359,340.420191 L242.599078,340.420191 L240.331797,337.997271 L242.599078,337.391542 L244.866359,340.420191 Z M250.534562,347.08322 L248.267281,347.08322 L248.267281,339.208731 L250.534562,339.208731 L250.534562,347.08322 Z M310.617512,379.186903 L308.35023,379.186903 L306.082949,377.369714 L308.35023,376.763984 L310.617512,379.186903 Z M246,353.140518 L243.732719,353.140518 L243.732719,350.111869 L246,350.111869 L246,353.140518 Z M196.119816,331.334243 L192.718894,331.334243 L192.718894,327.699864 L196.119816,327.699864 L196.119816,331.334243 Z M253.935484,362.226467 L251.668203,362.226467 L251.668203,360.409277 L253.935484,360.409277 L253.935484,362.226467 Z M197.253456,344.05457 L194.986175,344.05457 L194.986175,341.631651 L197.253456,341.631651 L197.253456,344.05457 Z M199.520737,350.111869 L196.119816,350.111869 L196.119816,347.68895 L199.520737,347.68895 L199.520737,350.111869 Z M238.064516,394.93588 L235.797235,394.93588 L235.797235,393.11869 L238.064516,393.11869 L238.064516,394.93588 Z M48.7465438,294.38472 C48.7465438,302.057299 47.9907834,307.912688 46.4792627,311.950887 C46.4792627,311.143247 46.1013825,309.628922 45.3456221,307.407913 C44.5898618,305.186903 44.2119816,303.672578 44.2119816,302.864939 C44.2119816,301.653479 45.7235023,298.826739 48.7465438,294.38472 Z M29.4746544,305.287858 L26.0737327,305.287858 L26.0737327,302.864939 L29.4746544,302.864939 L29.4746544,305.287858 Z M29.4746544,309.527967 L27.2073733,315.585266 L24.9400922,315.585266 L27.2073733,309.527967 L29.4746544,309.527967 Z M12.4700461,305.287858 L9.06912442,305.287858 L9.06912442,302.864939 L12.4700461,302.864939 L12.4700461,305.287858 Z M29.4746544,318.613915 L26.0737327,318.613915 L26.0737327,316.796726 L29.4746544,316.796726 L29.4746544,318.613915 Z M74.8202765,368.889495 L72.5529954,368.889495 L72.5529954,367.072306 L74.8202765,367.072306 L74.8202765,368.889495 Z M89.5576037,383.427012 L86.156682,383.427012 L86.156682,378.581173 L89.5576037,378.581173 L89.5576037,383.427012 Z M358.230415,61.1787176 L355.963134,56.9386085 L353.695853,56.9386085 L354.829493,61.1787176 L358.230415,61.1787176 Z M403.576037,147.79809 L401.308756,147.19236 L399.041475,149.61528 L401.308756,150.22101 L403.576037,147.79809 Z M200.654378,41.7953615 L198.387097,41.7953615 L196.119816,43.6125512 L198.387097,44.218281 L200.654378,41.7953615 Z M399.041475,151.432469 C399.041475,150.624829 397.152074,151.432469 393.373272,153.855389 L393.373272,157.489768 C397.152074,155.874488 399.041475,153.855389 399.041475,151.432469 Z M344.626728,258.040928 L342.359447,256.829468 L341.225806,257.435198 L343.493088,258.646658 L344.626728,258.040928 Z M320.820276,242.897681 C317.797235,242.897681 316.285714,243.503411 316.285714,244.71487 L316.285714,248.34925 C317.041475,248.34925 318.552995,246.53206 320.820276,242.897681 Z M255.069124,262.281037 C246,259.858117 242.599078,258.646658 244.866359,258.646658 C242.599078,259.454297 241.465438,260.665757 241.465438,262.281037 C241.465438,261.473397 242.221198,261.069577 243.732719,261.069577 C244.488479,261.069577 245.81106,261.877217 247.700461,263.492497 C249.589862,265.107776 251.290323,266.521146 252.801843,267.732606 C251.290323,265.713506 252.046083,263.896317 255.069124,262.281037 Z M201.788018,244.71487 L201.788018,242.897681 L199.520737,242.897681 L199.520737,244.71487 L201.788018,244.71487 Z M151.907834,235.023192 L151.907834,231.388813 L149.640553,231.388813 L149.640553,235.023192 L151.907834,235.023192 Z M250.534562,288.327422 L250.534562,284.693042 L248.267281,284.693042 L248.267281,288.327422 L250.534562,288.327422 Z M257.336406,304.076398 C256.580645,306.095498 256.202765,300.038199 256.202765,285.904502 C255.447005,287.923602 253.935484,290.548431 251.668203,293.77899 C250.912442,293.375171 250.156682,293.173261 249.400922,293.173261 C248.645161,293.173261 248.456221,292.870396 248.834101,292.264666 C249.211982,291.658936 248.267281,290.750341 246,289.538881 C245.24424,293.57708 243.732719,299.230559 241.465438,306.499318 C240.709677,305.691678 239.576037,305.287858 238.064516,305.287858 L238.064516,308.922237 C241.087558,308.518417 244.110599,307.710778 247.133641,306.499318 C246.37788,306.499318 245.62212,306.297408 244.866359,305.893588 C246.37788,298.624829 247.511521,295.293315 248.267281,295.899045 C249.023041,296.504775 250.156682,296.60573 251.668203,296.20191 C252.423963,297.00955 253.935484,298.22101 256.202765,299.836289 C254.691244,301.047749 253.935484,301.653479 253.935484,301.653479 C255.447005,302.461119 256.580645,303.268759 257.336406,304.076398 Z M193.852535,279.241473 L193.852535,276.818554 L191.585253,276.818554 L191.585253,279.241473 L193.852535,279.241473 Z M21.5391705,196.25648 L21.5391705,192.016371 L19.2718894,192.016371 L19.2718894,196.25648 L21.5391705,196.25648 Z M311.751152,368.889495 C308.728111,368.889495 306.83871,368.485675 306.082949,367.678035 C306.082949,368.081855 305.327189,368.889495 303.815668,370.100955 C305.327189,370.100955 306.83871,370.908595 308.35023,372.523874 C309.861751,372.927694 310.995392,371.716235 311.751152,368.889495 Z M29.4746544,385.849932 L26.0737327,376.763984 L23.8064516,376.763984 L27.2073733,385.849932 L29.4746544,385.849932 Z" id="形状"></path>
            </g>
        </g>
    </g>
</svg>