<?xml version="1.0" encoding="UTF-8"?>
<svg width="1024px" height="1024px" viewBox="0 0 1024 1024" version="1.1" xmlns="http://www.w3.org/2000/svg" xmlns:xlink="http://www.w3.org/1999/xlink">
    <title>Hhclub</title>
    <g id="ICON-新版方图标" stroke="none" stroke-width="1" fill="none" fill-rule="evenodd">
        <g id="Hhclub">
            <rect id="蒙版路径" fill="#FFFFFF" x="0" y="0" width="1024" height="1024"></rect>
            <path d="M793.881306,121.865684 C810.475625,126.155949 822.345813,133.697594 829.49187,144.49062 C840.210957,160.68016 840.210957,160.68016 850.531783,207.767581 C857.477744,231.492292 855.768847,296.676289 855.405968,407.482939 C855.302378,439.114844 854.503319,494.442658 853.008793,573.466382 C849.426007,666.645596 846.510904,728.604157 844.263483,759.342065 C840.233221,814.463831 833.909219,847.054733 831.563549,856.635239 C828.600084,868.739027 793.622091,890.256891 743.291517,900.1013 C728.071275,903.078303 702.546072,904.29968 666.715906,903.765429 C628.648474,902.674279 603.318999,902.232151 590.727481,902.439046 C561.47301,902.919736 549.415484,905.748578 537.16582,905.504733 C480.099572,904.368761 447.399936,904.910178 440.680518,903.820576 C437.545723,903.312247 439.373486,899.499427 435.768541,898.734076 C434.83044,898.534911 432.181812,903.672231 429.182269,903.619873 C423.683107,903.523885 420.753373,899.472137 417.288811,897.411358 C414.297994,896.859077 410.675161,903.275745 407.702996,902.244799 C405.895657,901.617893 401.954211,903.141211 399.204291,902.096454 C396.638565,901.121676 392.106661,894.845192 387.36319,892.888395 C385.611134,892.16563 379.348097,898.767395 376.777527,897.704384 C374.511756,896.767416 372.76941,898.134498 371.653592,876.11167 C370.749732,870.595055 362.945457,887.961497 362.945457,887.961497 C362.945457,887.961497 360.848207,888.477981 359.44599,887.900413 C358.542583,887.528303 359.663601,862.920321 358.391255,862.378119 C357.288372,861.908132 355.900362,861.834564 354.391864,862.308309 C353.605136,862.555382 355.007928,875.367115 353.473083,886.295927 C352.832813,890.854945 350.294876,902.18078 347.168579,903.688548 C343.628742,905.39576 339.291965,896.549995 338.344474,893.532999 C336.584976,888.288399 338.170589,880.53776 336.089189,879.4915 C335.010902,878.949477 330.511491,883.894827 328.003145,884.35112 C321.039116,882.229257 306.707122,872.477644 299.251896,869.847132 C295.60324,868.783292 289.276689,868.339478 280.272242,868.515689 L241.804284,866.343999 C221.305517,861.027183 205.60258,853.418637 194.695472,843.518361 C183.788364,833.618085 175.576963,820.027662 170.061269,802.747093 L169.576853,649.550438 L170.441369,637.891699 C166.498928,686.130625 166.48502,683.854053 170.399646,631.061982 C170.438284,630.540917 172.738043,638.630762 172.777099,638.104547 C173.259656,631.60278 172.541024,623.276169 173.204683,613.608278 C173.324767,611.858947 173.456843,609.939505 173.600912,607.849952 C173.634652,607.360595 177.666521,614.229423 177.703997,613.686814 C177.839441,611.725777 181.089099,611.605716 181.308179,607.748812 C181.399074,606.148599 184.780352,605.30647 184.894908,602.810656 C184.991902,600.697455 185.001012,594.152603 185.113063,590.31256 C185.163344,588.589405 187.637287,588.008818 187.699944,585.356953 C187.7251,584.292262 187.749856,583.02192 187.774212,581.545927 C187.79046,580.561257 189.813943,579.358733 189.830532,577.893 C189.842759,576.812689 189.851033,575.393191 189.855354,573.634505 C189.855365,573.630174 195.620518,568.982842 207.150813,559.692508 L207.569671,535.696164 L204.657389,530.644568 L204.18731,471.627375 L206.114665,447.157286 L189.19326,413.856894 L188.571318,393.3939 L187.361857,387.356221 L185.182613,385.782623 L185.470578,369.285136 L184.350158,365.006902 L182.645559,359.234302 L181.45993,341.210865 L176.141488,302.11209 L174.619204,246.076988 C175.640634,225.758387 189.60191,208.999492 216.503032,195.800305 C228.155173,189.911726 259.577363,168.617152 318.142114,160.068709 C341.921055,154.563062 361.879823,146.830021 521.294447,153.113147 C558.930307,157.503994 609.228687,157.648502 673.050611,139.759623 C691.336591,135.094228 716.161744,134.649892 744.714245,131.008993 C757.483697,125.230971 773.872717,122.183201 793.881306,121.865684 Z" id="矩形" fill="#FF5C40" transform="translate(511.6646, 513.6926) rotate(-1) translate(-511.6646, -513.6926)"></path>
            <path d="M603,250.988457 L603,212.976829 C608.998189,209.642702 616.18025,206.96766 624.546181,204.951703 C632.912113,202.935746 641.579536,201.918554 650.548452,201.900126 C651.63743,207.984495 652.966025,216.460983 654.534238,227.329589 C656.10245,238.198195 657.544804,250.944598 658.861299,265.568798 C663.470373,280.269041 665.867061,329.228946 666.051364,412.448513 C668.3851,495.24347 671.424859,617.672388 675.170639,779.735267 C675.622544,792.902697 674.524798,802.935029 671.877402,809.832263 C663.967532,818.908281 655.564361,823.254625 646.667889,822.871295 C643.380897,822.076021 640.984665,821.469659 639.479194,821.052208 C627.877505,817.83519 619.918908,814.095208 615.603401,809.832263 C610.447904,804.739558 606.24677,794.707226 603,779.735267 L603,520.521539 C563.362996,524.486047 528.91375,527.059115 499.65226,528.240744 C470.39077,529.422372 441.121342,529.422372 411.843975,528.240744 L421.928303,798.4831 C419.293328,810.409016 412.972893,817.932052 402.966999,821.052208 C387.958157,825.732443 364.031869,813.261356 357.86711,803.447863 C353.75727,796.905534 350.89372,789.001335 349.276458,779.735267 C351.939534,548.675043 353.772989,407.519759 354.776823,356.269414 C355.780657,305.019068 357.719862,253.562639 360.59444,201.900126 L399.793747,210.332859 L411.843975,479.047171 L603,462.652428 L603,250.988457 Z" id="矩形" fill="#FFFFFF"></path>
        </g>
    </g>
</svg>