<?xml version="1.0" encoding="UTF-8"?>
<svg width="1024px" height="1024px" viewBox="0 0 1024 1024" version="1.1" xmlns="http://www.w3.org/2000/svg" xmlns:xlink="http://www.w3.org/1999/xlink">
    <title>Hugo</title>
    <g id="ICON-新版方图标" stroke="none" stroke-width="1" fill="none" fill-rule="evenodd">
        <g id="Hugo">
            <rect id="蒙版路径" fill="#FFFFFF" x="0" y="0" width="1024" height="1024"></rect>
            <g transform="translate(112, 430)">
                <path d="M726.738614,5.79172051 L788.166138,40.9272416 C795.485068,45.1135819 800,52.8916625 800,61.3140943 L800,139.030774 C800,146.996564 795.659807,154.331498 788.672279,158.174593 L722.525875,194.555334 C715.488015,198.426041 706.936746,198.34545 699.973303,194.342788 L641.839804,160.928392 C632.170141,155.370357 626.210153,145.077882 626.210153,133.936793 L626.210153,68.0833031 C626.210153,55.7774454 632.687881,44.3773938 643.266849,38.0652579 L696.895963,6.06655399 C706.063041,0.596526175 717.472609,0.491452611 726.739161,5.79172051 L726.738614,5.79172051 Z" id="路径" stroke="#FCD804" fill="#EBB951"></path>
                <path d="M515.736024,5.32017996 L579.925712,41.7467556 C586.935853,45.7239985 591.263282,53.1465765 591.263282,61.1873539 L591.263282,137.280605 C591.263282,146.186356 586.427749,154.394406 578.623423,158.728538 L514.428263,194.369634 C507.003838,198.491937 497.949281,198.40694 490.604045,194.145991 L432.701456,160.544957 C423.273029,155.074388 417.473436,145.019255 417.473436,134.144145 L417.473436,69.2766937 C417.473436,56.1984517 424.381733,44.0865619 435.656228,37.399349 L489.3127,5.57109677 C497.435265,0.752977951 507.528352,0.657153481 515.741495,5.32017996 L515.736024,5.32017996 Z" id="路径" stroke="#00A88A" fill="#33BA91"></path>
                <path d="M306.205006,3.70081748 L370.381078,41.4189597 C377.036898,45.3311624 381.1407,52.4592021 381.182016,60.1794928 L381.582054,136.092044 C381.635033,145.676328 376.46578,154.529446 368.09279,159.193722 L305.066337,194.289659 C297.469475,198.520793 288.204657,198.433409 280.688955,194.059737 L222.753668,160.337857 C213.490858,154.945795 207.792208,145.036228 207.792208,134.318361 L207.792208,66.9567148 C207.792208,55.0050128 213.978405,43.9048513 224.144159,37.6197738 L278.50468,4.00738003 C286.966884,-1.22350642 297.629106,-1.3415064 306.205006,3.70081748 L306.205006,3.70081748 Z" id="路径" stroke="#0083C0" fill="#0594CB"></path>
                <path d="M99.2146814,5.66036552 L161.817548,41.9742048 C169.230384,46.2739092 173.789847,54.1815683 173.789847,62.7343257 L173.789847,137.190248 C173.789847,146.649024 168.675076,155.372572 160.411295,160.013284 L98.2790036,194.908187 C90.0338174,199.537784 79.9524889,199.490081 71.7517162,194.782666 L14.5331014,161.934304 C5.54247304,156.772792 0,147.21471 0,136.868259 L0,66.2107182 C0,55.8034567 5.40338348,46.1384183 14.2813986,40.6698754 L70.5315047,6.03692923 C79.2911639,0.644730707 90.3157543,0.49999567 99.2146814,5.66036552 Z" id="路径" stroke="#C9177E" fill="#FF4088"></path>
                <path d="M713.487278,41.5584416 C745.596277,41.5584416 771.664699,67.6855238 771.664699,99.8613021 C771.664699,132.048028 745.596277,158.169637 713.487278,158.169637 C681.383741,158.169637 655.309858,132.042554 655.309858,99.8613021 C655.309858,67.6855238 681.383741,41.5584416 713.487278,41.5584416 L713.487278,41.5584416 Z M713.487278,63.2187945 C733.668049,63.2187945 750.047516,79.6405935 750.047516,99.8613021 C750.038475,120.094646 733.675194,136.494748 713.487278,136.50381 C693.306508,136.50381 676.927041,120.087485 676.927041,99.8613021 C676.936079,79.6300948 693.296034,63.2308762 713.481817,63.2187945 L713.487278,63.2187945 L713.487278,63.2187945 Z M558.485852,98.969051 C558.485852,124.795067 553.603143,132.321725 543.843187,143.078003 C534.083231,153.834282 521.139138,158.169637 505.010906,158.169637 C490.26447,158.169637 478.385397,152.925609 468.084738,143.81151 C456.680828,133.712104 448.37913,118.062129 448.37913,100.594809 C448.37913,83.4230812 454.780176,68.5832488 466.124008,57.5313781 C476.075122,47.8589385 490.887097,41.5584416 506.157851,41.5584416 C524.601819,41.5584416 543.750339,50.3057865 555.55295,67.5760452 L538.223157,82.2571335 C530.877247,68.5558792 520.232505,63.9413537 505.005444,63.503439 C488.167199,63.0217329 469.630383,79.1205699 471.006717,100.589335 C471.771347,112.599144 477.369531,133.241346 504.300892,137.029307 C518.446548,139.016345 534.536548,123.88092 534.536548,115.659073 L507.954732,115.659073 L507.954732,95.131824 L558.474929,95.131824 L558.474929,98.9526292 L558.485852,98.969051 Z M251.21382,47.158275 L274.311108,47.158275 L274.311108,108.559382 C274.311108,118.302982 274.578729,124.614427 275.11397,127.504664 C276.036988,132.146559 277.74102,135.370706 281.214625,138.178833 C284.693692,140.986961 288.751692,141.786155 294.781346,141.786155 C300.898386,141.786155 302.951964,140.833691 306.0651,138.173359 C309.172775,135.518502 311.046119,132.995019 311.679669,129.124948 C312.307758,125.254877 313.356394,118.833954 313.356394,109.867652 L313.356394,47.158275 L336.44822,47.158275 L336.44822,106.703718 C336.44822,120.311916 335.863824,129.929616 334.695033,135.545871 C333.526241,141.167601 331.374354,145.908027 328.239371,149.778097 C325.104388,153.642694 320.909846,156.724518 315.661207,159.018096 C310.407107,161.311674 303.558206,162.455726 295.098121,162.455726 C284.884849,162.455726 277.145701,161.207669 271.875216,158.706082 C266.599269,156.204495 262.426573,152.958452 259.368053,148.962481 C256.304072,144.96651 254.288725,140.778951 253.316553,136.394331 C251.907449,129.902246 251.197436,120.311916 251.197436,107.628813 L251.197436,47.158275 L251.21382,47.158275 L251.21382,47.158275 Z M43.4474616,156.932528 L43.4474616,43.5016878 L67.1236837,43.5016878 L67.1236837,84.8189342 L106.40382,84.8189342 L106.40382,43.5016878 L130.151043,43.5016878 L130.151043,156.932528 L106.40382,156.932528 L106.40382,107.333221 L67.1236837,107.333221 L67.1236837,156.932528 L43.4474616,156.932528 Z" id="形状" fill="#FFFFFF"></path>
            </g>
        </g>
    </g>
</svg>