<?xml version="1.0" encoding="UTF-8"?>
<svg width="1024px" height="1024px" viewBox="0 0 1024 1024" version="1.1" xmlns="http://www.w3.org/2000/svg" xmlns:xlink="http://www.w3.org/1999/xlink">
    <title>Immich</title>
    <g id="ICON-新版方图标" stroke="none" stroke-width="1" fill="none" fill-rule="evenodd">
        <g id="Immich">
            <rect id="蒙版路径" fill="#FFFFFF" x="0" y="0" width="1024" height="1024"></rect>
            <g id="immich" transform="translate(142, 150)" fill-rule="nonzero">
                <path d="M345.492306,216.763059 C394.005488,259.73631 433.102292,305.787154 458.262856,349.1875 C501.477756,271.858259 530.354651,179.970117 530.71875,121.445599 L530.71875,120.302492 C530.71875,33.7027867 444.376836,0 370,0 C295.623165,0 209.28125,33.7027867 209.28125,120.302492 L209.28125,124.975409 C250.738426,143.415846 299.879368,176.364936 345.492306,216.763059 Z" id="路径" fill="#FA2921"></path>
                <path d="M80.9447434,452.09375 C111.281097,418.432357 157.821964,381.952276 210.342169,351.10957 C266.216332,318.312574 322.103056,295.399776 371.15625,284.914259 C310.973446,220.071918 232.513459,164.349597 176.953337,145.971754 C176.563926,145.846479 176.199638,145.733731 175.873036,145.620984 C93.5063798,118.937409 34.7556021,190.481963 11.7678058,261.061899 C-11.2199904,331.641835 -5.86873272,423.969512 76.4979235,450.653087 L80.9447434,452.09375 Z" id="路径" fill="#ED79B5"></path>
                <path d="M728.266381,259.906007 C705.345367,189.325862 646.765266,117.781097 564.637893,144.464751 C563.510631,144.828049 562.007612,145.316624 560.203992,145.905417 C555.507062,190.916858 539.412252,247.716713 515.163573,303.451726 C489.3743,362.732033 457.74831,414.032299 424.34375,451.276667 C510.992699,468.464448 607.035508,467.53741 662.647149,449.848527 C663.035428,449.723252 663.398658,449.597976 663.724311,449.497756 C745.851683,422.801575 751.187395,330.473625 728.266381,259.906007 Z" id="路径" fill="#FFB400"></path>
                <path d="M296.477724,521.371738 C282.505148,458.114009 277.931166,397.894259 283.069065,348.03125 C202.830139,385.152326 125.636358,442.47219 91.0119391,489.585953 L90.3477723,490.502368 C39.5703046,560.526502 89.5206964,638.52219 149.583974,682.221366 C209.634721,725.933097 299.121863,749.433487 349.911861,679.409354 C350.613622,678.455279 351.54095,677.174809 352.65625,675.630713 C329.986842,636.37552 309.610692,580.838272 296.477724,521.371738 L296.477724,521.371738 Z" id="路径" fill="#1E83F7"></path>
                <path d="M649.230046,485.845774 C604.970344,495.300099 545.978288,497.54456 485.470402,491.688898 C421.116569,485.469608 362.562975,471.225427 316.8125,450.9375 C327.247918,538.747359 357.815049,629.905102 391.827245,677.389885 L392.491203,678.305225 C443.252684,748.247163 532.711652,724.774358 592.75602,681.113936 C652.787861,637.453515 702.735054,559.54938 651.973573,489.619981 C651.272032,488.667026 650.344996,487.388059 649.230046,485.845774 Z" id="路径" fill="#18C249"></path>
            </g>
        </g>
    </g>
</svg>