<?xml version="1.0" encoding="UTF-8"?>
<svg width="1025px" height="1031px" viewBox="0 0 1025 1031" version="1.1" xmlns="http://www.w3.org/2000/svg" xmlns:xlink="http://www.w3.org/1999/xlink">
    <title>Iqiyi.video</title>
    <g id="ICON-新版方图标" stroke="none" stroke-width="1" fill="none" fill-rule="evenodd">
        <g id="Iqiyi.video" transform="translate(0.6332, 0)" fill-rule="nonzero">
            <path d="M0,7 L1024,0 L1024,1031 L0,1031 L0,135" id="蒙版路径" fill="#00DC5A"></path>
            <path d="M114.56,384.728 C94.2889405,384.728 77.856,401.160941 77.856,421.432 C77.856,441.703059 94.2889405,458.136 114.56,458.136 C134.831059,458.136 151.264,441.703059 151.264,421.432 C151.264,401.160941 134.831059,384.728 114.56,384.728 Z M469.568,608.6 L441.024,585.688 C439.837282,584.732134 439.489201,583.072055 440.192,581.72 C454.4,555.16 459.136,524.632 453.76,495 C447.363622,459.93467 427.293662,428.848914 397.968917,408.586872 C368.644173,388.32483 332.468973,380.547782 297.408,386.968 C224.37637,400.081464 175.788751,469.897518 188.864,542.936 C195.246491,578.016698 215.307615,609.123382 244.63152,629.40885 C273.955424,649.694318 310.138453,657.495788 345.216,651.096 C364.856086,647.554871 383.461074,639.684371 399.68,628.056 C400.831953,627.221481 402.396496,627.247556 403.52,628.12 L434.176,652.76 C434.963084,653.328581 436.004093,653.402939 436.864,652.952 C437.159572,652.791211 437.420547,652.573732 437.632,652.312 L469.888,612.056 C470.309629,611.5577 470.513249,610.910827 470.453068,610.260864 C470.392886,609.610901 470.073954,609.012413 469.568,608.6 L469.568,608.6 Z M335.36,596.44 C292.972324,603.623899 252.770845,575.133535 245.504,532.76 C237.459525,490.510238 265.153622,449.728032 307.392,441.624 C349.779676,434.440101 389.981155,462.930465 397.248,505.304 C405.252968,547.531546 377.568461,588.271002 335.36,596.376 L335.36,596.44 Z M508.48,652.44 C508.026261,652.026395 507.750901,651.452728 507.712,650.84 L507.712,392.152 C507.72833,391.529286 507.996112,390.93972 508.454304,390.517702 C508.912496,390.095683 509.522046,389.877179 510.144,389.912 L567.872,389.912 C569.156043,389.875432 570.235085,390.869287 570.304,392.152 L570.304,650.84 C570.304,651.48 569.984,651.992 569.536,652.44 C569.089689,652.867985 568.490076,653.098606 567.872,653.081044 L510.08,653.081044 C509.461924,653.098606 508.862311,652.867985 508.416,652.44 L508.48,652.44 Z M84.032,652.44 C83.5726159,652.030619 83.296074,651.45449 83.264,650.84 L83.264,487.96 C83.3656988,486.702686 84.4351578,485.745801 85.696,485.784 L143.424,485.784 C144.035295,485.749093 144.635344,485.958944 145.091648,486.367217 C145.547953,486.775489 145.82298,487.3486 145.856,487.96 L145.856,650.84 C145.82298,651.4514 145.547953,652.024511 145.091648,652.432783 C144.635344,652.841056 144.035295,653.050907 143.424,653.016 L85.696,653.016 C85.0779238,653.034606 84.4783106,652.803985 84.032,652.376 L84.032,652.44 Z M883.072,389.912 L940.864,389.912 C942.148043,389.875432 943.227085,390.869287 943.296,392.152 L943.296,650.776 C943.27967,651.398714 943.011888,651.98828 942.553696,652.410298 C942.095504,652.832317 941.485954,653.050821 940.864,653.016 L883.072,653.016 C882.450046,653.050821 881.840496,652.832317 881.382304,652.410298 C880.924112,651.98828 880.65633,651.398714 880.64,650.776 L880.64,392.152 C880.65633,391.529286 880.924112,390.93972 881.382304,390.517702 C881.840496,390.095683 882.450046,389.877179 883.072,389.912 L883.072,389.912 Z M788.544,389.911775 L849.984,389.911775 C851.009032,389.898781 851.952342,390.469732 852.416,391.384 C852.863503,392.26673 852.789743,393.323962 852.224,394.136 L760.704,547.992 C759.8474,549.4919 759.405601,551.192827 759.424,552.92 L759.424,650.392 C759.38924,651.851489 758.195903,653.016 756.736,653.016 L698.88,653.016 C697.420097,653.016 696.22676,651.851489 696.192,650.392 L696.192,552.92 C696.210399,551.192827 695.7686,549.4919 694.912,547.992 L603.264,394.2 C602.688322,393.373419 602.623094,392.294353 603.095014,391.404447 C603.566934,390.514541 604.496788,389.963169 605.504,389.976 L667.072,389.976 C668.114449,389.958924 669.088181,390.494477 669.632,391.384 L726.72,493.016 C726.72,493.016 727.168,493.784 727.744,493.784 C728.32,493.784 728.704,493.016 728.704,493.016 L785.856,391.384 C786.399819,390.494477 787.373551,389.958924 788.416,389.976 L788.544,389.911775 Z" id="形状" fill="#FFFFFF"></path>
        </g>
    </g>
</svg>