<?xml version="1.0" encoding="UTF-8"?>
<svg width="1025px" height="1024px" viewBox="0 0 1025 1024" version="1.1" xmlns="http://www.w3.org/2000/svg" xmlns:xlink="http://www.w3.org/1999/xlink">
    <title>Istoreos</title>
    <g id="ICON-新版方图标" stroke="none" stroke-width="1" fill="none" fill-rule="evenodd">
        <g id="Istoreos" transform="translate(0.6332, 0)">
            <rect id="蒙版路径" fill="#0060FE" x="0" y="0" width="1024" height="1024"></rect>
            <path d="M385.661895,300.896168 C375.778652,290.395222 370.83703,292.866033 362.806895,302.749276 C326.362434,349.694683 328.833245,417.641983 372.072436,460.881174 C468.434061,558.478205 567.266497,652.986722 666.098933,747.495239 C674.129069,754.907672 677.835285,752.436861 683.394609,746.259834 C701.307988,723.404833 711.191232,697.461318 711.191232,668.42929 C710.573529,634.45564 698.837178,605.423612 674.746771,581.950908 C613.594201,523.886852 553.677037,466.440499 494.377575,408.376442 C457.315412,373.167387 420.870951,337.340629 385.661895,300.896168 Z" id="路径" fill="#FFFFFF" fill-rule="nonzero"></path>
            <path d="M612.976499,234.801976 C587.650687,210.093867 555.530145,199.592921 522.791901,196.504407 C491.906764,197.12211 467.198655,205.769948 444.343654,221.212516 C431.9896,229.242652 432.607303,234.801976 443.108249,245.302923 C509.820143,310.161709 575.296632,376.255901 644.479338,439.261579 C673.511366,465.822796 711.191232,467.058201 736.517044,441.73239 C761.225153,417.024281 759.372045,379.344414 732.193125,352.165494 C692.66015,312.63252 653.127176,273.099545 612.976499,234.801976 Z" id="路径" fill="#FFFFFF" fill-rule="nonzero"></path>
            <path d="M166.377428,520.180636 C166.377428,554.154286 192.938645,581.333206 226.912295,582.568611 C261.503648,583.186314 290.535676,554.771989 290.535676,520.798339 C289.917973,486.824689 262.12135,459.645769 228.1477,459.645769 C193.556348,459.645769 166.377428,486.206986 166.377428,520.180636 Z" id="路径" fill="#FFFFFF" fill-rule="nonzero"></path>
            <path d="M572.208119,773.438754 C512.290954,714.756995 452.991493,655.457533 393.074328,596.775774 C365.895408,570.214557 327.597839,570.214557 302.88973,594.922666 C278.181621,620.248477 278.181621,656.075236 305.360541,682.636453 C349.217435,727.111049 393.692031,770.967943 438.78433,814.207133 C462.257034,837.062134 491.289062,848.180783 528.351225,848.180783 C554.29474,849.416189 580.855957,837.062134 605.564066,822.854972 C614.211904,817.91335 616.682715,811.736323 606.799471,803.706187 C595.06312,794.440646 583.326768,784.557403 572.208119,773.438754 Z" id="路径" fill="#FFFFFF" fill-rule="nonzero"></path>
            <path d="M897.119753,762.320104 C889.089617,761.702402 881.677184,758.613888 882.294887,749.348347 C882.294887,740.700509 889.089617,736.37659 897.119753,736.37659 C910.09151,735.758887 922.445564,735.758887 935.417322,736.37659 C944.682863,736.37659 950.242187,735.141185 950.242187,723.404833 C950.242187,712.286184 947.153673,707.344562 935.417322,708.579967 C920.592456,709.19767 905.767591,707.962265 890.942725,709.19767 C868.087725,710.433075 853.880562,725.875644 853.262859,748.112942 C852.645156,771.585645 864.999211,785.792808 888.471914,788.881322 C897.119753,790.116727 905.767591,789.499024 914.415429,790.116727 C925.534078,790.73443 934.799619,793.822943 934.799619,807.412403 C934.799619,821.001863 924.298673,823.472674 913.797726,824.090377 C899.590564,824.70808 885.383401,824.70808 871.176238,824.090377 C861.910697,823.472674 856.351373,825.325783 856.351373,837.062134 C856.351373,848.180783 860.675292,850.651594 870.558535,850.033892 C878.588671,849.416189 886.618806,850.033892 894.648942,850.033892 L918.739348,850.033892 C945.300565,848.798486 961.360836,832.738215 961.360836,806.794701 C961.978539,780.851186 945.300565,763.55551 919.357051,762.937807 C911.944618,762.937807 904.532185,762.937807 897.119753,762.320104 Z" id="路径" fill="#FFFFFF" fill-rule="nonzero"></path>
            <path d="M837.202588,778.998078 L837.202588,753.054564 C835.967183,725.257941 819.906912,709.19767 790.874884,708.579967 C758.136639,707.344562 739.605557,721.551725 737.752449,750.583753 C736.517044,769.732537 737.134747,789.499024 737.752449,808.647809 C738.370152,827.796593 748.253396,843.239162 767.40218,847.563081 C806.935155,855.593216 840.908805,845.09227 837.202588,795.058349 L837.202588,778.998078 Z" id="路径" fill="#FFFFFF" fill-rule="nonzero"></path>
            <path d="M786.550965,825.325783 C766.166775,825.325783 763.695964,813.589431 764.313667,798.146863 C764.931369,782.704294 764.313667,767.261726 764.313667,751.819158 C764.313667,738.229698 772.343802,733.288076 785.315559,733.288076 C798.287316,733.288076 810.023668,734.523482 811.876776,750.583753 C812.494479,759.849294 811.876776,769.114834 811.876776,778.380375 L812.494479,778.380375 C811.876776,785.175105 811.876776,791.969835 811.876776,798.764565 C812.494479,816.677944 806.317452,825.943485 786.550965,825.325783 Z" id="路径" fill="#FFFFFF" fill-rule="nonzero"></path>
        </g>
    </g>
</svg>