<?xml version="1.0" encoding="UTF-8"?>
<svg width="1025px" height="1024px" viewBox="0 0 1025 1024" version="1.1" xmlns="http://www.w3.org/2000/svg" xmlns:xlink="http://www.w3.org/1999/xlink">
    <title>Itellyou</title>
    <g id="ICON-新版方图标" stroke="none" stroke-width="1" fill="none" fill-rule="evenodd">
        <g id="Itellyou" transform="translate(0.3975, 0)">
            <rect id="蒙版路径" fill="#FFFFFF" x="0" y="0" width="1024" height="1024"></rect>
            <path d="M512,436.751782 L713.00271,436.751782 C710.38625,642.518129 710.38625,767.573964 713.00271,811.919286 C720.097168,855.376142 759.344175,882.928136 830.743731,894.57527 C750.438622,896.717791 701.670719,895.934037 684.44002,892.22401 C641.950395,883.075357 589.120048,840.690997 586.584272,786.216145 C583.986743,745.86131 583.986743,644.842853 586.584272,483.160772 L512,483.160772 L512,436.751782 Z" id="多边形" fill="#FFBB00"></path>
            <path d="M360.72718,436.597618 C357.298023,630.621309 357.298023,748.527197 360.72718,790.31528 C373.633064,839.480864 425.191116,841.685691 444.152563,841.685691 C488.592147,841.685691 534.188892,825.432313 580.942799,792.925557 C553.418564,829.02078 524.530573,855.382606 494.278826,872.011035 C464.02708,888.639463 430.408023,896.635785 393.421657,896 C349.153937,892.624492 318.445492,885.322802 301.296322,874.09493 C260.65088,852.059592 250.560985,816.794106 247.132162,792.925557 C244.836926,755.798088 244.836926,670.781759 247.132162,537.87657 L191.047619,537.87657 L190.097493,512 L360.72718,436.597618 Z" id="多边形" fill="#00A5EF"></path>
            <path d="M341,419 C372.760644,419 402.015304,408.270603 425.337096,390.238692 C429.555148,386.977384 406.07826,381.907498 380.394053,355.817278 C363.271249,338.423798 353.894015,322.063522 352.262351,306.736451 C407.798356,332.130367 447.213257,339.475936 470.507053,328.773157 C476.000143,313.887176 479,297.793915 479,281 C479,204.784705 417.215295,143 341,143 C264.784705,143 203,204.784705 203,281 C203,357.215295 264.784705,419 341,419 Z" id="椭圆形" fill="#F25222"></path>
            <path d="M662,419 C693.760644,419 723.015304,408.270603 746.337096,390.238692 C750.555148,386.977384 727.07826,381.907498 701.394053,355.817278 C684.271249,338.423798 674.894015,322.063522 673.262351,306.736451 C728.798356,332.130367 768.213257,339.475936 791.507053,328.773157 C797.000143,313.887176 800,297.793915 800,281 C800,204.784705 738.215295,143 662,143 C585.784705,143 524,204.784705 524,281 C524,357.215295 585.784705,419 662,419 Z" id="椭圆形" fill="#7FBA00" transform="translate(662, 281) scale(-1, 1) translate(-662, -281)"></path>
        </g>
    </g>
</svg>