<?xml version="1.0" encoding="UTF-8"?>
<svg width="1025px" height="1024px" viewBox="0 0 1025 1024" version="1.1" xmlns="http://www.w3.org/2000/svg" xmlns:xlink="http://www.w3.org/1999/xlink">
    <title>Iyuu</title>
    <defs>
        <radialGradient cx="50%" cy="50%" fx="50%" fy="50%" r="57.2800838%" id="radialGradient-1">
            <stop stop-color="#F0A502" offset="0%"></stop>
            <stop stop-color="#FDECB4" offset="100%"></stop>
        </radialGradient>
        <linearGradient x1="50%" y1="0%" x2="50%" y2="100%" id="linearGradient-2">
            <stop stop-color="#FDECB4" offset="0%"></stop>
            <stop stop-color="#F0A502" offset="100%"></stop>
        </linearGradient>
        <linearGradient x1="50%" y1="0%" x2="50%" y2="100%" id="linearGradient-3">
            <stop stop-color="#FDECB4" offset="0%"></stop>
            <stop stop-color="#F0A502" offset="100%"></stop>
        </linearGradient>
        <linearGradient x1="50%" y1="0%" x2="50%" y2="100%" id="linearGradient-4">
            <stop stop-color="#FDECB4" offset="0%"></stop>
            <stop stop-color="#F0A502" offset="100%"></stop>
        </linearGradient>
        <linearGradient x1="50%" y1="0%" x2="50%" y2="100%" id="linearGradient-5">
            <stop stop-color="#FDECB4" offset="0%"></stop>
            <stop stop-color="#F0A502" offset="100%"></stop>
        </linearGradient>
        <linearGradient x1="50%" y1="0%" x2="50%" y2="100%" id="linearGradient-6">
            <stop stop-color="#FDECB4" offset="0%"></stop>
            <stop stop-color="#F0A502" offset="100%"></stop>
        </linearGradient>
        <linearGradient x1="50%" y1="0%" x2="50%" y2="100%" id="linearGradient-7">
            <stop stop-color="#FDECB4" offset="0%"></stop>
            <stop stop-color="#F0A502" offset="100%"></stop>
        </linearGradient>
        <linearGradient x1="50%" y1="0%" x2="50%" y2="100%" id="linearGradient-8">
            <stop stop-color="#FDECB4" offset="0%"></stop>
            <stop stop-color="#F0A502" offset="100%"></stop>
        </linearGradient>
        <linearGradient x1="50%" y1="0%" x2="50%" y2="100%" id="linearGradient-9">
            <stop stop-color="#FDECB4" offset="0%"></stop>
            <stop stop-color="#F0A502" offset="100%"></stop>
        </linearGradient>
        <linearGradient x1="50%" y1="0%" x2="50%" y2="100%" id="linearGradient-10">
            <stop stop-color="#FDECB4" offset="0%"></stop>
            <stop stop-color="#F0A502" offset="100%"></stop>
        </linearGradient>
        <linearGradient x1="50%" y1="0%" x2="50%" y2="100%" id="linearGradient-11">
            <stop stop-color="#FDECB4" offset="0%"></stop>
            <stop stop-color="#F0A502" offset="100%"></stop>
        </linearGradient>
        <linearGradient x1="50%" y1="0%" x2="50%" y2="100%" id="linearGradient-12">
            <stop stop-color="#FDECB4" offset="0%"></stop>
            <stop stop-color="#F0A502" offset="100%"></stop>
        </linearGradient>
        <linearGradient x1="50%" y1="0%" x2="50%" y2="100%" id="linearGradient-13">
            <stop stop-color="#FDECB4" offset="0%"></stop>
            <stop stop-color="#F0A502" offset="100%"></stop>
        </linearGradient>
        <linearGradient x1="50%" y1="0%" x2="50%" y2="100%" id="linearGradient-14">
            <stop stop-color="#FDECB4" offset="0%"></stop>
            <stop stop-color="#F0A502" offset="100%"></stop>
        </linearGradient>
        <linearGradient x1="50%" y1="0%" x2="50%" y2="100%" id="linearGradient-15">
            <stop stop-color="#FDECB4" offset="0%"></stop>
            <stop stop-color="#F0A502" offset="100%"></stop>
        </linearGradient>
        <linearGradient x1="50%" y1="0%" x2="50%" y2="100%" id="linearGradient-16">
            <stop stop-color="#FDECB4" offset="0%"></stop>
            <stop stop-color="#F0A502" offset="100%"></stop>
        </linearGradient>
        <linearGradient x1="50%" y1="0%" x2="50%" y2="100%" id="linearGradient-17">
            <stop stop-color="#FDECB4" offset="0%"></stop>
            <stop stop-color="#F0A502" offset="100%"></stop>
        </linearGradient>
        <linearGradient x1="50%" y1="0%" x2="50%" y2="100%" id="linearGradient-18">
            <stop stop-color="#FDECB4" offset="0%"></stop>
            <stop stop-color="#F0A502" offset="100%"></stop>
        </linearGradient>
        <linearGradient x1="50%" y1="0%" x2="50%" y2="100%" id="linearGradient-19">
            <stop stop-color="#FDECB4" offset="0%"></stop>
            <stop stop-color="#F0A502" offset="100%"></stop>
        </linearGradient>
    </defs>
    <g id="ICON-新版方图标" stroke="none" stroke-width="1" fill="none" fill-rule="evenodd">
        <g id="Iyuu" transform="translate(0.061, 0)">
            <rect id="蒙版路径" fill="#FFFFFF" x="0" y="0" width="1024" height="1024"></rect>
            <circle id="圆形3" fill="url(#radialGradient-1)" cx="512" cy="546" r="365"></circle>
            <circle id="圆形1" fill="#F3B70B" cx="512" cy="546" r="265"></circle>
            <circle id="圆形2" fill="#FFFFFF" cx="512" cy="546" r="249"></circle>
            <g id="编组-6" transform="translate(104.7102, 137.9119)">
                <g id="编组" transform="translate(93.4547, 431.3966) rotate(-30) translate(-93.4547, -431.3966)translate(24.9409, 363.1566)">
                    <path d="M30.4595553,38.2614471 C42.848501,34.3188591 53.0082081,31.8114109 60.9386765,30.7391024 C68.8691449,29.666794 79.3163782,29.3879003 92.2803765,29.9024213 L92.2803765,131.902421 L56.6318559,135.698982 L30.4595553,38.2614471 Z" id="矩形2" fill="#FFFFFF" transform="translate(61.37, 82.6756) rotate(-59) translate(-61.37, -82.6756)"></path>
                    <polygon id="矩形1" fill="url(#linearGradient-2)" transform="translate(84.5279, 41.1298) rotate(-59) translate(-84.5279, -41.1298)" points="67.027933 -9.60306135 102.027933 -9.60306135 102.008431 90.9950356 67.2770406 91.8625913"></polygon>
                </g>
                <g id="编组" transform="translate(110.7261, 513.2064) rotate(-46) translate(-110.7261, -513.2064)translate(41.8781, 444.9664)">
                    <path d="M30.4595553,38.2614471 C42.848501,34.3188591 53.0082081,31.8114109 60.9386765,30.7391024 C68.8691449,29.666794 79.3163782,29.3879003 92.2803765,29.9024213 L92.2803765,131.902421 L56.6318559,135.698982 L30.4595553,38.2614471 Z" id="矩形2" fill="#FFFFFF" transform="translate(61.37, 82.6756) rotate(-59) translate(-61.37, -82.6756)"></path>
                    <polygon id="矩形1" fill="url(#linearGradient-3)" transform="translate(84.8622, 41.3306) rotate(-59) translate(-84.8622, -41.3306)" points="67.3621688 -9.79216284 102.362169 -9.79216284 102.078344 92.453351 67.6112763 91.6734898"></polygon>
                </g>
                <g id="编组" transform="translate(586.653, 668.2821) rotate(-151) translate(-586.653, -668.2821)translate(517.9102, 600.0421)">
                    <path d="M30.4595553,38.2614471 C42.848501,34.3188591 53.0082081,31.8114109 60.9386765,30.7391024 C68.8691449,29.666794 79.3163782,29.3879003 92.2803765,29.9024213 L92.2803765,131.902421 L56.6318559,135.698982 L30.4595553,38.2614471 Z" id="矩形2" fill="#FFFFFF" transform="translate(61.37, 82.6756) rotate(-59) translate(-61.37, -82.6756)"></path>
                    <polygon id="矩形1" fill="url(#linearGradient-4)" transform="translate(84.7569, 41.2674) rotate(-59) translate(-84.7569, -41.2674)" points="67.2569456 -9.73263042 102.256946 -9.73263042 102.256946 92.2673696 67.5060531 91.7330222"></polygon>
                </g>
                <g id="编组" transform="translate(647.9999, 611.9585) rotate(-167) translate(-647.9999, -611.9585)translate(578.7728, 542.9125)">
                    <path d="M30.4595553,39.873364 C42.848501,35.930776 53.0082081,33.4233278 60.9386765,32.3510193 C68.8691449,31.2787108 79.3163782,30.9998171 92.2803765,31.5143382 L92.2803765,133.514338 L56.6318559,137.310899 L30.4595553,39.873364 Z" id="矩形2" fill="#FFFFFF" transform="translate(61.37, 84.2875) rotate(-59) translate(-61.37, -84.2875)"></path>
                    <polygon id="矩形1" fill="url(#linearGradient-5)" transform="translate(85.2412, 42.0733) rotate(-59) translate(-85.2412, -42.0733)" points="66.8009562 -8.92667198 103.681472 -7.35707397 101.800956 93.073328 67.0500638 92.5389806"></polygon>
                </g>
                <g id="编组" transform="translate(689.9367, 544.7368) rotate(-183) translate(-689.9367, -544.7368)translate(622.1893, 478.8582)">
                    <path d="M31.7955941,32.5426707 C40.5112925,30.8383066 48.834376,29.4499703 56.7648444,28.3776618 C64.6953128,27.3053534 75.1425461,27.0264597 88.1065444,27.5409807 L88.1065444,129.540981 L52.4580238,133.337541 L31.7955941,32.5426707 Z" id="矩形2" fill="#FFFFFF" transform="translate(59.9511, 80.3141) rotate(-59) translate(-59.9511, -80.3141)"></path>
                    <polygon id="矩形1" fill="url(#linearGradient-6)" transform="translate(82.3427, 41.5218) rotate(-59) translate(-82.3427, -41.5218)" points="64.8426667 -9.97224335 99.8426667 -9.97224335 96.9971585 93.0159288 65.0917742 92.4881706"></polygon>
                </g>
                <g id="编组" transform="translate(716.9175, 464.3597) rotate(165) translate(-716.9175, -464.3597)translate(647.6805, 395.2972)">
                    <path d="M29.9941866,38.554825 C43.6625967,34.9650093 54.462036,32.6339472 62.3925044,31.5616387 C70.3229728,30.4893302 80.7702061,30.2104365 93.7342044,30.7249576 L93.7342044,132.724958 L58.0856838,136.521518 L29.9941866,38.554825 Z" id="矩形2" fill="#FFFFFF" transform="translate(61.8642, 83.4981) rotate(-59) translate(-61.8642, -83.4981)"></path>
                    <polygon id="矩形1" fill="url(#linearGradient-4)" transform="translate(85.7454, 41.2674) rotate(-59) translate(-85.7454, -41.2674)" points="68.2454049 -9.73263042 103.245405 -9.73263042 103.245405 92.2673696 68.4945124 91.7330222"></polygon>
                </g>
                <g id="编组" transform="translate(667.795, 230.3641) rotate(120) translate(-667.795, -230.3641)translate(599.0521, 161.9602)">
                    <path d="M30.4595553,38.5891987 C42.848501,34.6466107 53.0082081,32.1391625 60.9386765,31.066854 C68.8691449,29.9945455 79.3163782,29.7156518 92.2803765,30.2301729 L92.2803765,132.230173 L56.6318559,136.026733 L30.4595553,38.5891987 Z" id="矩形2" fill="#FFFFFF" transform="translate(61.37, 83.0033) rotate(-59) translate(-61.37, -83.0033)"></path>
                    <polygon id="矩形1" fill="url(#linearGradient-7)" transform="translate(84.2754, 41.7788) rotate(-59) translate(-84.2754, -41.7788)" points="66.3698495 -9.5393478 101.701074 -8.82027233 102.180867 93.097016 67.4299743 92.5574299"></polygon>
                </g>
                <g id="编组" transform="translate(703.8392, 302.4644) rotate(134) translate(-703.8392, -302.4644)translate(635.0982, 233.9699)">
                    <path d="M30.4612719,37.741454 C42.845498,34.486864 53.0028453,32.3234148 60.9333137,31.2511064 C68.8637821,30.1787979 79.3110154,29.8999042 92.2750137,30.4144253 L92.2750137,132.414425 L56.6264931,136.210986 L30.4612719,37.741454 Z" id="矩形2" fill="#FFFFFF" transform="translate(61.3681, 83.1876) rotate(-59) translate(-61.3681, -83.1876)"></path>
                    <polygon id="矩形1" fill="url(#linearGradient-8)" transform="translate(84.3247, 41.5249) rotate(-59) translate(-84.3247, -41.5249)" points="66.8247157 -9.97511138 101.824716 -9.97511138 101.824716 93.0248886 67.0738233 92.4853025"></polygon>
                </g>
                <g id="编组" transform="translate(720.6471, 383.4335) rotate(147) translate(-720.6471, -383.4335)translate(650.7236, 313.3858)">
                    <path d="M30.4576868,38.3637903 C42.8517696,36.7609514 53.0140452,35.4233777 60.9445136,34.3510693 C68.874982,33.2787608 79.3222153,32.9998671 92.2862136,33.5143881 L92.2862136,135.514388 L56.637693,139.310949 L30.4576868,38.3637903 Z" id="矩形2" fill="#FFFFFF" transform="translate(61.372, 86.2875) rotate(-59) translate(-61.372, -86.2875)"></path>
                    <polygon id="矩形1" fill="url(#linearGradient-9)" transform="translate(85.6208, 42.8482) rotate(-59) translate(-85.6208, -42.8482)" points="67.1716944 -9.15183872 104.364103 -6.82261813 98.8579221 94.8481613 82.7279147 94.2775833 66.8774156 93.7168925"></polygon>
                </g>
                <g id="编组" transform="translate(612.6413, 169.8187) rotate(103) translate(-612.6413, -169.8187)translate(543.5332, 101.5064)">
                    <path d="M29.8904403,38.7522172 C41.39321,36.0090042 51.109829,34.1012435 59.0402974,33.028935 C66.9707658,31.9566266 77.4179992,31.6777328 90.3819975,32.1922539 L90.3819975,134.192254 L54.1982735,135.908856 L29.8904403,38.7522172 Z" id="矩形2" fill="#FFFFFF" transform="translate(60.1362, 83.9254) rotate(-59) translate(-60.1362, -83.9254)"></path>
                    <polygon id="矩形1" fill="url(#linearGradient-10)" transform="translate(84.7799, 42.445) rotate(-59) translate(-84.7799, -42.445)" points="65.9060747 -8.55503887 103.65371 -8.21267815 100.906075 93.4449611 66.1551823 92.9106137"></polygon>
                </g>
                <g id="编组" transform="translate(465.4301, 98.9109) rotate(75) translate(-465.4301, -98.9109)translate(396.6348, 29.8851)">
                    <path d="M30.5999872,38.5137334 C42.9416206,35.5174558 53.0776715,33.4831627 61.0081399,32.4108543 C68.9386083,31.3385458 79.3749877,30.8936812 92.3172782,31.0762604 L92.3498399,133.574173 L56.7013193,137.370734 L30.5999872,38.5137334 Z" id="矩形2" fill="#FFFFFF" transform="translate(61.4749, 84.2036) rotate(-59) translate(-61.4749, -84.2036)"></path>
                    <polygon id="矩形1" fill="url(#linearGradient-11)" transform="translate(84.0571, 41.9433) rotate(-59) translate(-84.0571, -41.9433)" points="66.2057668 -9.78429511 101.205767 -9.78429511 101.908518 91.6302575 66.4548744 93.6708801"></polygon>
                </g>
                <g id="编组" transform="translate(543.7563, 124.1172) rotate(89) translate(-543.7563, -124.1172)translate(475.0228, 55.0345)">
                    <path d="M28.9173407,38.2558508 C42.799446,35.977938 53.7057329,34.3028273 61.6362013,33.2305189 C69.5666696,32.1582104 80.013903,31.8793167 92.9779013,32.3938378 L92.3026078,132.200112 L56.5933051,135.859184 L28.9173407,38.2558508 Z" id="矩形2" fill="#FFFFFF" transform="translate(60.9476, 84.0014) rotate(-59) translate(-60.9476, -84.0014)"></path>
                    <polygon id="矩形1" fill="url(#linearGradient-12)" transform="translate(84.8061, 41.6162) rotate(-59) translate(-84.8061, -41.6162)" points="66.5946438 -8.87705672 103.017507 -8.70959138 99.6000004 92.1094291 67.5418408 91.1942165"></polygon>
                </g>
                <g id="编组" transform="translate(382.827, 94.526) rotate(59) translate(-382.827, -94.526)translate(313.8406, 25.8067)">
                    <path d="M29.4872269,38.2200049 C42.5640634,35.5407351 53.0677159,33.664946 60.9981843,32.5926375 C68.9286527,31.5203291 79.4750222,31.0627848 92.6372928,31.2200049 L91.4872269,131.220005 L55.4872269,135.720005 L29.4872269,38.2200049 Z" id="矩形2" fill="#FFFFFF" transform="translate(61.0623, 83.4549) rotate(-59) translate(-61.0623, -83.4549)"></path>
                    <polygon id="矩形1" fill="url(#linearGradient-13)" transform="translate(84.4938, 42.0606) rotate(-59) translate(-84.4938, -42.0606)" points="66.3687684 -9.43938182 102.618768 -9.1881623 100.368768 93.5606182 67.3687684 91.0484231"></polygon>
                </g>
                <g id="编组" transform="translate(300.4981, 111.9949) rotate(44) translate(-300.4981, -111.9949)translate(231.4442, 43.3388)">
                    <path d="M29.5692418,38.6265352 C42.7632886,35.354326 53.3255463,33.1820671 61.2560147,32.1097587 C69.1864831,31.0374502 79.6337164,30.7585565 92.5977147,31.2730776 L92.5977147,133.273078 C84.9253761,132.803766 79.0510432,132.705557 74.974716,132.978448 C70.8983888,133.25134 64.8103553,134.150376 56.7106156,135.675556 L29.5692418,38.6265352 Z" id="矩形2" fill="#FFFFFF" transform="translate(61.0835, 83.3492) rotate(-59) translate(-61.0835, -83.3492)"></path>
                    <polygon id="矩形1" fill="url(#linearGradient-14)" transform="translate(85.0145, 41.4181) rotate(-59) translate(-85.0145, -41.4181)" points="67.7417934 -10.0818748 102.351083 -9.70525332 102.389945 92.9181252 67.6390522 92.3812443"></polygon>
                </g>
                <g id="编组" transform="translate(228.3311, 149.1595) rotate(29) translate(-228.3311, -149.1595)translate(159.7052, 80.5954)">
                    <path d="M30.3540542,38.0571143 C43.03306,34.558536 53.3377971,32.2730926 61.2682655,31.2007842 C69.1987339,30.1284757 79.6459672,29.849582 92.6099655,30.3641031 L92.6099655,132.364103 L56.9614449,136.160664 L30.3540542,38.0571143 Z" id="矩形2" fill="#FFFFFF" transform="translate(61.482, 83.1373) rotate(-59) translate(-61.482, -83.1373)"></path>
                    <polygon id="矩形1" fill="url(#linearGradient-4)" transform="translate(84.523, 41.2674) rotate(-59) translate(-84.523, -41.2674)" points="67.0230084 -9.73263042 102.023008 -9.73263042 99.9305329 91.3931242 67.272116 92.2673696 67.2504994 83.4161981"></polygon>
                </g>
                <g id="编组" transform="translate(168.6929, 201.1519) rotate(17) translate(-168.6929, -201.1519)translate(99.95, 132.7757)">
                    <path d="M30.4595553,38.5337945 C42.848501,34.5912065 53.0082081,32.0837582 60.9386765,31.0114498 C68.8691449,29.9391413 79.3163782,29.6602476 92.2803765,30.1747687 L92.2803765,132.174769 L56.6318559,135.971329 L30.4595553,38.5337945 Z" id="矩形2" fill="#FFFFFF" transform="translate(61.37, 82.9479) rotate(-59) translate(-61.37, -82.9479)"></path>
                    <polygon id="矩形1" fill="url(#linearGradient-15)" transform="translate(84.5055, 41.4449) rotate(-59) translate(-84.5055, -41.4449)" points="66.9573043 -9.80670878 101.715885 -9.81954488 102.053685 92.7092458 67.3027926 92.1748984"></polygon>
                </g>
                <g id="编组" transform="translate(55.6112, 201.0421)">
                    <path d="M30.3187855,37.2840813 C43.0947576,34.1589437 53.4479778,32.0602207 61.3784462,30.9879122 C69.3089146,29.9156037 79.756148,29.63671 92.7201463,30.1512311 L92.7201463,132.151231 L57.0716257,135.947792 L30.3187855,37.2840813 Z" id="矩形2" fill="#FFFFFF" transform="translate(61.5195, 82.9244) rotate(-59) translate(-61.5195, -82.9244)"></path>
                    <polygon id="矩形1" fill="url(#linearGradient-4)" transform="translate(85.0559, 41.2674) rotate(-59) translate(-85.0559, -41.2674)" points="67.5559455 -9.73263042 102.555946 -9.73263042 102.555946 92.2673696 67.8050531 91.7330222"></polygon>
                </g>
                <g id="编组" transform="translate(97.7887, 348.1104) rotate(-15) translate(-97.7887, -348.1104)translate(28.8704, 279.7395)">
                    <path d="M30.4595553,38.5230649 C42.848501,34.5804769 53.0082081,32.0730286 60.9386765,31.0007202 C68.8691449,29.9284117 79.3163782,29.649518 92.2803765,30.1640391 L92.2803765,132.164039 L56.6318559,135.9606 L30.4595553,38.5230649 Z" id="矩形2" fill="#FFFFFF" transform="translate(61.37, 82.9372) rotate(-59) translate(-61.37, -82.9372)"></path>
                    <polygon id="矩形1" fill="url(#linearGradient-16)" transform="translate(84.9324, 41.4564) rotate(-59) translate(-84.9324, -41.4564)" points="67.2797848 -9.6566151 102.279785 -9.6566151 102.584997 92.5693555 67.5207604 91.9725198"></polygon>
                </g>
                <g id="编组" transform="translate(147.653, 586.2821) rotate(-60) translate(-147.653, -586.2821)translate(78.9102, 518.0421)">
                    <path d="M30.4595553,38.2614471 C42.848501,34.3188591 53.0082081,31.8114109 60.9386765,30.7391024 C68.8691449,29.666794 79.3163782,29.3879003 92.2803765,29.9024213 L92.2803765,131.902421 L56.6318559,135.698982 L30.4595553,38.2614471 Z" id="矩形2" fill="#FFFFFF" transform="translate(61.37, 82.6756) rotate(-59) translate(-61.37, -82.6756)"></path>
                    <polygon id="矩形1" fill="url(#linearGradient-4)" transform="translate(84.7569, 41.2674) rotate(-59) translate(-84.7569, -41.2674)" points="67.2569456 -9.73263042 102.256946 -9.73263042 102.256946 92.2673696 67.5060531 91.7330222"></polygon>
                </g>
                <g id="编组" transform="translate(202.653, 648.2821) rotate(-75) translate(-202.653, -648.2821)translate(133.9102, 580.0421)">
                    <path d="M30.4595553,38.2614471 C42.848501,34.3188591 53.0082081,31.8114109 60.9386765,30.7391024 C68.8691449,29.666794 79.3163782,29.3879003 92.2803765,29.9024213 L92.2803765,131.902421 L56.6318559,135.698982 L30.4595553,38.2614471 Z" id="矩形2" fill="#FFFFFF" transform="translate(61.37, 82.6756) rotate(-59) translate(-61.37, -82.6756)"></path>
                    <polygon id="矩形1" fill="url(#linearGradient-4)" transform="translate(84.7569, 41.2674) rotate(-59) translate(-84.7569, -41.2674)" points="67.2569456 -9.73263042 102.256946 -9.73263042 102.256946 92.2673696 67.5060531 91.7330222"></polygon>
                </g>
                <g id="编组" transform="translate(270.653, 693.2821) rotate(-90) translate(-270.653, -693.2821)translate(201.9102, 625.0421)">
                    <path d="M30.4595553,38.2614471 C42.848501,34.3188591 53.0082081,31.8114109 60.9386765,30.7391024 C68.8691449,29.666794 79.3163782,29.3879003 92.2803765,29.9024213 L92.2803765,131.902421 L56.6318559,135.698982 L30.4595553,38.2614471 Z" id="矩形2" fill="#FFFFFF" transform="translate(61.37, 82.6756) rotate(-59) translate(-61.37, -82.6756)"></path>
                    <polygon id="矩形1" fill="url(#linearGradient-4)" transform="translate(84.7569, 41.2674) rotate(-59) translate(-84.7569, -41.2674)" points="67.2569456 -9.73263042 102.256946 -9.73263042 102.256946 92.2673696 67.5060531 91.7330222"></polygon>
                </g>
                <g id="编组" transform="translate(348.875, 719.2227) rotate(-105) translate(-348.875, -719.2227)translate(280.1322, 650.7529)">
                    <path d="M30.66884,37.7391019 C43.0577857,33.7965139 53.2174928,31.2890657 61.1479612,30.2167572 C69.0784296,29.1444488 79.525663,28.8655551 92.4896613,29.3800761 L93.2036186,131.661534 L57.0633339,136.068891 L30.66884,37.7391019 Z" id="矩形2" fill="#FFFFFF" transform="translate(61.9362, 82.5994) rotate(-59) translate(-61.9362, -82.5994)"></path>
                    <polygon id="矩形1" fill="url(#linearGradient-17)" transform="translate(84.7481, 41.2821) rotate(-59) translate(-84.7481, -41.2821)" points="67.2652926 -9.71787706 102.265293 -9.71787706 102.265293 92.2821229 67.2308691 92.2004478"></polygon>
                </g>
                <g id="编组" transform="translate(434.8082, 722.0762) rotate(-122) translate(-434.8082, -722.0762)translate(364.2161, 651.0513)">
                    <path d="M28.8839472,40.6491937 C45.6048015,36.9713598 57.9304629,34.5962887 65.8609313,33.5239802 C73.7913997,32.4516717 84.238633,32.172778 97.2026314,32.6872991 L97.2026314,134.687299 L61.5541108,138.48386 L28.8839472,40.6491937 Z" id="矩形2" fill="#FFFFFF" transform="translate(63.0433, 85.4605) rotate(-59) translate(-63.0433, -85.4605)"></path>
                    <polygon id="矩形1" fill="url(#linearGradient-18)" transform="translate(88.2796, 41.3731) rotate(-59) translate(-88.2796, -41.3731)" points="70.7796028 -9.83221232 105.779603 -9.83221232 105.475314 92.5781007 71.0287103 91.6334403"></polygon>
                </g>
                <g id="编组" transform="translate(514.6835, 703.7948) rotate(-138) translate(-514.6835, -703.7948)translate(444.8319, 634.4211)">
                    <path d="M29.6879799,36.400653 C44.1435454,33.6783134 55.3365623,31.7809894 63.2670307,30.708681 C71.1974991,29.6363725 81.6447325,29.3574788 94.6087308,29.8719999 L94.6087308,131.872 L58.9602102,135.66856 L29.6879799,36.400653 Z" id="矩形2" fill="#FFFFFF" transform="translate(62.1484, 82.6452) rotate(-57) translate(-62.1484, -82.6452)"></path>
                    <polygon id="矩形1" fill="url(#linearGradient-19)" transform="translate(86.3522, 41.5732) rotate(-59) translate(-86.3522, -41.5732)" points="71.8281046 -10.2278474 103.72763 -8.62585137 103.72763 93.3741486 68.9767371 92.8398012"></polygon>
                </g>
            </g>
            <path d="M433.5,115 C447.913897,139.748899 459.330563,157.415566 467.75,168 C476.169437,178.584434 488.086103,190.251101 503.5,203 C526.601841,219.347931 542.851841,232.014598 552.25,241 C561.648159,249.985402 570.064826,260.902069 577.5,273.75 C585.298903,292.672943 588.632236,311.422943 587.5,330 C586.367764,348.577057 580.784431,366.743724 570.75,384.5 C563.75,395.5 555.5,405.833333 546,415.5 C531.75,430 521.75,445.5 517,454.75 C512.25,464 491.646864,507.501083 503.5,552.25 C515.353136,596.998917 529.566871,614.425936 560.75,623.75 C591.933129,633.074064 615.629048,611.306762 629.75,590 C632.9978,585.099474 639.383395,564.522449 633.5,543.5 C631.805894,537.44665 625.397653,523.90462 614.75,512.75 C608.922489,506.645023 594.128187,497.103832 584.25,485.25 C574.521252,473.575495 569.670103,459.601362 568.75,451.75 C567.25299,438.975807 571.539957,424.546846 575.5,418 C581.410219,408.229073 589.493552,401.14574 599.75,396.75 C591.416667,427.083333 592.916667,448 604.25,459.5 C614.569843,469.971605 646.29756,489.335792 667,504.75 C680.400937,514.727801 685.400978,522.31279 689.75,527.25 C700.81761,539.814459 704.276063,553.755265 706.25,565.5 C710.961001,593.53001 703.228313,616.357046 699,627.75 C690,652 680.438929,662.350986 652.25,682.75 C639.603285,691.901838 613.152853,703.058298 584.25,708 C548.729762,714.073118 510.058875,712.834549 495.5,712.25 C440.642086,710.047416 408.750086,698.603165 401,696 C364.784646,683.835679 346.860635,669.113414 343,665 C337.303591,658.930612 333.220258,649.680612 330.75,637.25 C338.916763,647.583333 354.33343,652.75 377,652.75 C410.999856,652.75 424.944836,645.916651 439.25,640.75 C453.555164,635.583349 464.533606,623.870956 462.75,607.5 C460.966394,591.129044 452.18334,585.426638 433.5,576.25 C414.81666,567.073362 411.705513,571.11432 393.272756,567.151577 C374.839999,563.188835 366.028117,559.84046 356.75,555.5 C336.883607,546.206166 328.823911,536.721617 327,534.25 C323.263592,529.186721 315.827108,521.476361 313,510.5 C311.783864,505.778302 311.533864,497.361635 312.25,485.25 C321.416667,502.25 333.25,514.583333 347.75,522.25 C369.5,533.75 369.412266,533.759114 388.25,534.25 C400.808489,534.577257 413.391823,532.243924 426,527.25 C404.988538,522.78487 390.155205,516.118204 381.5,507.25 C368.517192,493.947695 363.72519,488.763434 359.5,471.75 C355.27481,454.736566 359.75,431 362.75,431.75 C365.75,432.5 375.171599,466.817926 381.5,476.75 C387.828401,486.682074 393.703397,486.978484 398.75,488.25 C421.010621,493.85867 433.010964,489.065192 436,488.25 C441.5,486.75 454.5,472.143599 454.5,462 C454.5,451.856401 441.25,434 435.25,429.5 C429.25,425 400.25,410.25 394.5,376.75 C392.861979,367.206747 394.654069,343.470151 406.25,322.75 C419.541281,299.000518 442.585861,279.036818 444.75,279.75 C446.538927,280.339533 440.628095,290.063563 435.25,301.25 C429,314.25 433,338.25 444.75,354.75 C452.249841,365.281691 463.680698,373.164853 467.75,374.25 C479,377.25 490,377 498.5,374.25 C507,371.5 507.111481,371.509013 512,368.25 C516.888519,364.990987 517,364.75 521.75,358.75 C526.5,352.75 530.697747,332.854378 531.5,322.75 C533.212212,301.184691 527.064533,288.478854 525.75,285.5 C521.581305,276.053351 514.41989,265.370967 510.5,259.5 C500.535881,244.576364 491.378372,243.643045 476.25,223.25 C461.121628,202.856955 441.166688,167.085174 437.75,150.5 C435.472208,139.443217 434.055541,127.609884 433.5,115 Z" id="多边形" fill="#DA251D"></path>
            <path d="M704.15672,387.616309 L788.034693,305.185355 C827.725344,341.368512 852.63023,372.354643 862.749351,398.143747 C872.868472,423.932852 877.87013,468.604745 877.754326,532.159428 L760.785796,536.225367 C753.764913,503.182869 746.383663,475.243999 738.642044,452.408755 C730.900425,429.573511 719.405317,407.976029 704.15672,387.616309 Z" id="矩形" fill="#FFFFFF"></path>
        </g>
    </g>
</svg>