<?xml version="1.0" encoding="UTF-8"?>
<svg width="1025px" height="1024px" viewBox="0 0 1025 1024" version="1.1" xmlns="http://www.w3.org/2000/svg" xmlns:xlink="http://www.w3.org/1999/xlink">
    <title>Leetcode</title>
    <g id="ICON-新版方图标" stroke="none" stroke-width="1" fill="none" fill-rule="evenodd">
        <g id="Leetcode" transform="translate(0.6332, 0)">
            <rect id="蒙版" fill="#FFFFFF" x="0" y="0" width="1024" height="1024"></rect>
            <path d="M638.898706,684.211 C654.284769,668.722322 679.191755,668.762476 694.528741,684.302016 C709.86662,699.840663 709.826466,724.993927 694.439511,740.482605 L626.115505,809.261688 C563.081099,872.712801 460.292598,873.640801 396.195454,811.398765 C395.825146,811.04095 367.28379,782.827963 273.129259,689.751339 C210.490146,627.832318 204.250237,528.754033 263.195196,465.128027 L373.097175,346.493925 C431.598657,283.33995 539.438513,276.437057 606.326795,330.969554 L706.143912,412.352484 C723.04779,426.134178 725.688129,451.145565 712.041174,468.216305 C698.394219,485.287937 673.628216,487.954152 656.724338,474.172459 L556.907222,392.790421 C521.92608,364.271372 460.73429,368.187711 430.548411,400.773006 L320.64554,519.409786 C291.949814,550.383573 295.092522,600.283208 328.16234,632.972903 C397.301916,701.321002 450.586966,753.993037 450.648536,754.052822 C483.972662,786.409686 537.854666,785.92784 570.573808,752.990083 L638.898706,684.211 Z" id="路径" fill="#FFA116"></path>
            <path d="M472.920538,615.38284 C451.19552,615.38284 433.583149,597.59647 433.583149,575.656406 C433.583149,553.716343 451.19552,535.930864 472.920538,535.930864 L763.029424,535.930864 C784.755334,535.930864 802.366812,553.716343 802.366812,575.656406 C802.366812,597.59647 784.755334,615.38284 763.029424,615.38284 L472.920538,615.38284 Z" id="路径" fill="#B3B3B3"></path>
            <path d="M527.251373,180.090126 C542.09402,164.06874 566.98673,163.231755 582.85107,178.220741 C598.716302,193.209727 599.545256,218.348714 584.702609,234.370992 L320.646432,519.410678 C291.949814,550.382681 295.092522,600.281424 328.160556,632.972011 L450.10512,753.523683 C465.630383,768.871377 465.896291,794.022856 450.698505,809.701596 C435.501611,825.380336 410.596409,825.64892 395.071146,810.301227 L273.125689,689.749555 C210.491038,627.827857 204.250237,528.749571 263.197873,465.128027 L527.251373,180.090126 Z" id="路径" fill="#000000"></path>
        </g>
    </g>
</svg>