<?xml version="1.0" encoding="UTF-8"?>
<svg width="1025px" height="1024px" viewBox="0 0 1025 1024" version="1.1" xmlns="http://www.w3.org/2000/svg" xmlns:xlink="http://www.w3.org/1999/xlink">
    <title>Libre.speed</title>
    <defs>
        <linearGradient x1="50.0064297%" y1="49.9973569%" x2="50.1144483%" y2="-9.1134958%" id="linearGradient-1">
            <stop stop-color="#1B75BC" offset="0%"></stop>
            <stop stop-color="#00AEEF" offset="100%"></stop>
            <stop stop-color="#000000" offset="100%"></stop>
        </linearGradient>
    </defs>
    <g id="ICON-新版方图标" stroke="none" stroke-width="1" fill="none" fill-rule="evenodd">
        <g id="Libre.speed" transform="translate(0.3975, 0)">
            <rect id="蒙版路径" fill="#FFFFFF" x="0" y="0" width="1024" height="1024"></rect>
            <g id="编组" transform="translate(144, 142)" fill-rule="nonzero">
                <path d="M739.629807,353.832128 C748.687268,557.811313 590.438057,731.021828 385.876173,739.637056 C287.860791,743.98301 192.141925,709.156957 119.824648,642.837699 C47.5073701,576.518441 4.5305515,484.152279 0.37015878,386.105044 C-8.68730143,182.142952 149.578999,8.91534333 353.952898,0.334303288 C557.882469,-8.26383046 730.606526,150.040974 739.663987,354.174002 L739.629807,353.832128 Z" id="路径" fill="#D1D3D4"></path>
                <path d="M356.653046,63.6493876 C525.75412,56.4187502 669.101245,187.578751 676.791541,356.720964 C684.02042,525.863178 552.892321,669.245177 383.791248,676.920251 C214.690175,684.150888 71.3430498,552.990888 63.669843,383.848674 C55.9795466,214.244931 187.107645,70.8629312 356.670136,63.6493876 L356.653046,63.6493876 Z" id="路径" fill="#000000"></path>
                <path d="M634.751254,401.933815 L593.599623,396.51511 C596.313304,377.008299 596.313304,357.219575 593.599623,337.712764 L634.751254,332.294059 C637.464729,355.433693 637.464729,378.811275 634.751254,401.950908 L634.751254,401.933815 Z" id="路径" fill="#ED1C24"></path>
                <path d="M606.707306,243.646104 C617.559169,264.449143 625.676704,286.619679 630.666852,309.217557 L589.993729,318.277221 C585.926417,299.303208 579.141866,280.739444 570.101496,263.098741 L606.707306,243.646104 Z" id="路径" fill="#EF4136"></path>
                <path d="M606.707306,490.58177 L569.622988,471.607757 C578.680448,453.967053 585.447909,435.420383 589.95955,416.429277 L630.632673,425.48894 C625.676704,447.642382 617.52499,469.812918 606.673127,490.44502 L606.707306,490.58177 Z" id="路径" fill="#BE1E2D"></path>
                <path d="M594.949698,223.919968 L560.138289,246.07341 C549.713665,229.783109 537.0674,214.415868 522.165315,200.843466 L550.192173,170.074796 C567.427607,185.956796 582.478318,204.057681 594.949698,223.902874 L594.949698,223.919968 Z" id="路径" fill="#F15A29"></path>
                <path d="M532.55576,154.998148 L507.211961,188.023187 C491.617163,175.911578 474.421417,166.017304 456.114213,158.622014 L471.939134,120.161177 C493.198532,129.220841 513.535093,140.502686 532.52158,154.981055 L532.55576,154.998148 Z" id="路径" fill="#F7941D"></path>
                <path d="M447.996678,531.743412 L479.202192,531.743412 L479.202192,562.956518 L447.996678,562.956518 L447.996678,531.743412 Z M385.61983,531.743412 L416.979149,531.743412 L416.979149,562.956518 L385.773636,562.956518 L385.61983,531.743412 Z M381.552517,100.298292 C404.914505,101.199659 428.042017,105.306337 450.286678,112.503197 L437.640412,152.297343 C420.003999,146.878638 401.46184,143.237679 382.95386,142.348807 L380.219533,124.708103 L381.552517,100.298292 Z" id="形状" fill="#D1D3D4"></path>
                <path d="M369.777819,354.447501 C379.279607,354.447501 387.414232,362.139669 387.414232,372.088205 C387.414232,381.592305 379.723936,389.728909 369.777819,389.728909 C360.276031,389.728909 352.141406,382.036742 352.141406,372.088205 C352.585734,362.139669 360.276031,354.447501 369.777819,354.447501 Z" id="路径" fill="#E6E7E8"></path>
                <path d="M409.117957,368.498527 C409.117957,399.711633 391.481544,425.02741 369.777819,425.02741 C348.074094,425.02741 330.43768,399.694539 330.43768,368.498527 L333.599247,345.422025 L369.487297,101.665788 L405.375347,345.422025 L409.117957,368.498527 Z M387.414232,371.660863 C387.414232,362.156762 379.723936,354.020159 369.777819,354.020159 C360.276031,354.020159 352.141406,361.712326 352.141406,371.660863 C352.141406,381.164963 359.831702,389.301566 369.777819,389.301566 C379.723936,389.301566 387.414232,381.609399 387.414232,371.660863 Z" id="形状" fill="url(#linearGradient-1)"></path>
                <path d="M289.28605,112.041667 C311.434104,105.255466 334.504993,101.187164 358.02021,99.8367616 L358.925956,124.708103 L356.670136,141.459934 C338.127977,142.3659 319.585818,145.989766 301.983584,151.40847 L289.28605,112.041667 Z M322.747384,531.743412 L353.952898,531.743412 L353.952898,562.956518 L322.747384,562.956518 L322.747384,531.743412 Z M260.370535,531.743412 L291.576049,531.743412 L291.576049,562.956518 L260.370535,562.956518 L260.370535,531.743412 Z M207.016968,154.998148 C225.81547,140.51978 246.357106,128.759311 267.599414,120.178271 L283.424335,158.639108 C265.117132,166.034398 247.921385,175.928672 232.326588,188.040281 L207.016968,154.998148 Z M189.363465,170.382483 L217.390323,201.151153 L203.376894,215.167991 C194.46857,224.8308 186.449579,235.277475 179.417349,246.381097 L144.144522,224.227655 C152.279147,211.116783 161.780936,198.894784 172.632798,187.134314 C178.067274,180.809643 183.484661,175.373845 189.380555,170.382483 L189.363465,170.382483 Z M169.471232,471.778694 L132.386914,490.58177 C121.560261,469.870098 113.504637,447.823813 108.427368,425.010317 L149.100491,415.950653 C153.629221,434.753729 160.379593,453.932866 169.607948,471.57357 L169.471232,471.778694 Z M145.938925,396.51511 L104.787294,401.933815 C101.621604,378.822821 101.621604,355.38796 104.787294,332.276966 L145.938925,337.69567 C143.225244,357.202481 143.225244,376.991206 145.938925,396.498016 L145.938925,396.51511 Z M108.888786,309.388494 C113.944951,286.568826 122.001569,264.519819 132.848332,243.817041 L169.93265,262.620117 C160.958459,280.127306 154.130202,298.654179 149.596088,317.798597 L108.888786,309.388494 Z" id="形状" fill="#D1D3D4"></path>
            </g>
        </g>
    </g>
</svg>