<?xml version="1.0" encoding="UTF-8"?>
<svg width="1025px" height="1024px" viewBox="0 0 1025 1024" version="1.1" xmlns="http://www.w3.org/2000/svg" xmlns:xlink="http://www.w3.org/1999/xlink">
    <title>Lodash.js</title>
    <g id="ICON-新版方图标" stroke="none" stroke-width="1" fill="none" fill-rule="evenodd">
        <g id="Lodash.js" transform="translate(0.2604, -0.0008)">
            <rect id="蒙版路径" fill="#FFFFFF" x="0" y="0" width="1024" height="1024"></rect>
            <g id="编组" transform="translate(161.7396, 197.0008)" fill-rule="nonzero">
                <path d="M0,0 L65.2533093,0 L65.2533093,433.044689 L323.300487,433.044689 L323.300487,486.433761 L0,486.433761 L0,0 L0,0 Z M526.77217,117.455957 C460.035831,116.566139 393.299492,158.98079 372.537075,223.344282 C342.87648,297.495769 356.520354,390.630038 414.65512,447.281775 C471.010251,494.145515 555.839553,497.704787 619.313227,464.48492 C662.914302,441.349656 690.498655,395.375733 696.430774,347.028963 C704.142529,296.605952 700.286652,241.437245 675.668358,195.759928 C646.600974,147.116552 589.652632,115.676321 533.297501,117.752563 L526.77217,116.862745 L526.77217,117.455957 Z M532.704289,169.065392 C581.644271,169.065392 625.541952,206.437742 633.550313,254.487906 C648.38061,308.766796 639.482432,375.206529 594.991539,413.468696 C553.466706,447.281775 486.730367,442.53608 452.620682,400.714641 C411.095849,356.223748 411.095849,288.004379 432.451477,234.615308 C447.281775,196.056534 486.730367,168.47218 528.2552,169.361998 L533.594107,169.361998 L532.704289,169.065392 Z" id="形状" fill="#000000"></path>
                <polygon id="路径" fill="#3492FF" points="0 555.542947 699.990046 555.542947 699.990046 629.694435 0 629.694435"></polygon>
            </g>
        </g>
    </g>
</svg>