<?xml version="1.0" encoding="UTF-8"?>
<svg width="1024px" height="1024px" viewBox="0 0 1024 1024" version="1.1" xmlns="http://www.w3.org/2000/svg" xmlns:xlink="http://www.w3.org/1999/xlink">
    <title>Mindline</title>
    <defs>
        <linearGradient x1="3.77302356e-15%" y1="50%" x2="90.7211075%" y2="50%" id="linearGradient-1">
            <stop stop-color="#FC1A4B" offset="0%"></stop>
            <stop stop-color="#FC6F40" offset="34.6247946%"></stop>
            <stop stop-color="#FEC929" offset="57.1429209%"></stop>
            <stop stop-color="#75D7B3" offset="79.5848281%"></stop>
            <stop stop-color="#45B8DA" offset="100%"></stop>
        </linearGradient>
    </defs>
    <g id="ICON-新版方图标" stroke="none" stroke-width="1" fill="none" fill-rule="evenodd">
        <g id="Mindline" transform="translate(0, -0.0008)">
            <rect id="蒙版路径" fill="#FFFFFF" x="0" y="0" width="1024" height="1024"></rect>
            <path d="M523.393229,708.283836 L455.945312,736.08998 L457.3125,723.326504 L460.958333,689.59446 L464.148438,657.68577 L486.934896,453.014318 L490.125,429.766558 C491.340278,417.610866 491.947917,405.759067 491.947917,394.211161 C491.947917,364.733609 482.985243,349.994833 465.059896,349.994833 C437.108507,349.994833 404.523872,378.560708 367.30599,435.692457 C330.088108,492.824207 308.592882,547.220925 302.820312,598.882614 L290.971354,708.283836 L223.067708,736.08998 L224.434896,723.326504 L228.080729,689.59446 L231.726562,657.68577 L254.96875,446.176741 L257.703125,422.017305 C259.829861,403.175983 260.893229,387.981369 260.893229,376.433462 C260.893229,356.984356 256.032118,347.259803 246.309896,347.259803 C223.523438,347.259803 198.914062,373.090647 172.481771,424.752335 C165.493924,418.978382 162,413.964159 162,409.709667 C162,391.47613 178.634115,366.632936 211.902344,335.180085 C245.170573,303.727233 271.52691,288.000808 290.971354,288.000808 C317.099826,288.000808 330.164062,304.714883 330.164062,338.143034 C330.164062,346.652018 329.404514,358.047979 327.885417,372.330916 L324.239583,409.253829 L320.59375,440.250842 L316.947917,472.61537 L329.708333,452.558479 C397.763889,342.853365 461.110243,288.000808 519.747396,288.000808 C548.002604,288.000808 562.130208,308.361591 562.130208,349.083157 C562.130208,356.072679 560.914931,370.811455 558.484375,393.299484 L553.927083,435.236619 L547.546875,492.216422 C575.802083,433.565211 609.298177,384.866473 648.035156,346.120207 C686.772135,307.373941 721.331597,288.000808 751.713542,288.000808 C781.791667,288.000808 796.830729,307.449914 796.830729,346.348126 C796.830729,363.062202 795.159722,382.967146 791.817708,406.06296 L767.664062,575.179015 C762.499132,610.126628 759.916667,637.173041 759.916667,656.318255 C759.916667,672.424546 764.322049,680.477692 773.132812,680.477692 C783.462674,680.477692 796.450955,671.816762 812.097656,654.494901 C827.744358,637.173041 840.27691,617.571989 849.695312,595.691745 C857.898438,601.161806 862,606.176028 862,610.734413 C862,629.879626 845.062066,655.558524 811.186198,687.771106 C777.31033,719.983689 750.346354,736.08998 730.294271,736.08998 C704.469618,736.08998 691.557292,718.768119 691.557292,684.124399 C691.557292,662.244155 694.899306,628.360165 701.583333,582.47243 L717.533854,472.61537 C718.141493,468.66477 719.204861,460.00384 720.723958,446.63258 C721.331597,441.162518 722.394965,431.893804 723.914062,418.826436 C725.43316,405.759067 726.192708,395.730622 726.192708,388.7411 C726.192708,362.910255 717.685764,349.994833 700.671875,349.994833 C672.112847,349.994833 638.920573,378.560708 601.095052,435.692457 C563.269531,492.824207 541.470486,547.220925 535.697917,598.882614 L523.393229,708.283836 Z" id="路径" fill="url(#linearGradient-1)" fill-rule="nonzero"></path>
        </g>
    </g>
</svg>