<?xml version="1.0" encoding="UTF-8"?>
<svg width="1025px" height="1024px" viewBox="0 0 1025 1024" version="1.1" xmlns="http://www.w3.org/2000/svg" xmlns:xlink="http://www.w3.org/1999/xlink">
    <title>Movie.pilot</title>
    <g id="ICON-新版方图标" stroke="none" stroke-width="1" fill="none" fill-rule="evenodd">
        <g id="Movie.pilot" transform="translate(0.3975, 0)">
            <rect id="蒙版路径" fill="#FFFFFF" x="0" y="0" width="1024" height="1024"></rect>
            <path d="M744,565 C748.910338,567.455169 777.910338,582.455169 831,610 C833.100935,611.22065 834.767602,612.887317 836,615 C837.232398,617.112683 837.899065,619.446016 838,622 L839,722 C837.928728,725.10542 836.595394,726.772087 835,727 C833.404606,727.227913 830.071272,726.227913 825,724 L744,679 C740.805572,676.997976 737.407429,675.996964 733.805572,675.996964 C730.203714,675.996964 726.601857,676.997976 723,679 L530,792 L414,870 L414,760 C413.43492,752.755557 414.101587,747.08889 416,743 C417.898413,738.91111 421.56508,735.244443 427,732 C617,622.666667 714,567 718,565 C724,561.996964 728.218284,561.996964 732,561.996964 C739.274266,561.996964 742,564 744,565 Z" id="多边形" fill="#8446F1" transform="translate(626.4028, 715.9985) scale(-1, -1) translate(-626.4028, -715.9985)"></path>
            <path d="M834,272.315996 L839,732.315996 C838.611837,742.6667 836.94517,748.6667 834,750.315996 C831.05483,751.965291 824.388163,750.631958 814,746.315996 L753.003199,713.065996 C746.18351,709.558914 741.516844,705.225581 739.003199,700.065996 C736.489555,694.90641 734.488489,686.323077 733,674.315996 L733,354.315996 C733,343.649329 734,336.649329 736,333.315996 C738,329.982662 746,323.982662 760,315.315996" id="多边形" fill="#8E50FB" transform="translate(786, 511.658) scale(-1, -1) translate(-786, -511.658)"></path>
            <path d="M455,376 L662,493 C670.666667,498.333333 675,503.666667 675,509 C675,514.333333 670.666667,519.666667 662,525 L461,644 C450.908058,649.348402 443.574725,650.681735 439,648 C434.425275,645.318265 432.091942,638.318265 432,627 L432,391 C432.717386,383.575618 435.050719,378.575618 439,376 C442.949281,373.424382 448.282614,373.424382 455,376 Z" id="三角形" fill="#8E50FB"></path>
            <path d="M453,375 L587,451 C590.333333,453.531954 592,456.531954 592,460 C592,463.468046 590.333333,466.801379 587,470 L432,555 L432,539 L432,389 C434.098822,382.008151 436.432155,377.674818 439,376 C441.567845,374.325182 446.234512,373.991849 453,375 Z" id="三角形" fill="#712BDD"></path>
            <path d="M440.234568,445.81213 L518,495 C520,496.666667 521,498.666667 521,501 C521,503.333333 520,505.666667 518,508 L432,555 L432,542.464535 L432,451.58817 C432.256842,448.729268 433.092233,446.803922 434.506173,445.81213 C435.920113,444.820339 437.829578,444.820339 440.234568,445.81213 Z" id="三角形" fill="#6900C7"></path>
            <path d="M530,155 C534.910338,157.455169 563.910338,172.455169 617,200 C619.100935,201.22065 620.767602,202.887317 622,205 C623.232398,207.112683 623.899065,209.446016 624,212 L625,312 C623.928728,315.10542 622.595394,316.772087 621,317 C619.404606,317.227913 616.071272,316.227913 611,314 L530,269 C526.333333,267 522.666667,266 519,266 C515.333333,266 512,267 509,269 L316,382 L200,467 L200,350 C199.43492,342.755557 200.101587,337.08889 202,333 C203.898413,328.91111 207.56508,325.244443 213,322 C403,212.666667 500,157 504,155 C510,151.996964 514.218284,151.996964 518,151.996964 C525.274266,151.996964 528,154 530,155 Z" id="多边形" fill="#A577FD"></path>
            <path d="M313,384 L306,406 L305,730 C303.666667,734.666667 301.666667,738 299,740 C296.333333,742 291.333333,742.666667 284,742 L220,706 C213.180311,702.492919 208.513644,698.159586 206,693 C203.486356,687.840414 201.819689,679.173748 201,667 L200,469 C199.922418,464.423364 201.255752,459.756697 204,455 C206.744248,450.243303 210.744248,446.243303 216,443 L313,384 Z" id="多边形" fill="#7F3EEA"></path>
        </g>
    </g>
</svg>