<?xml version="1.0" encoding="UTF-8"?>
<svg width="1025px" height="1024px" viewBox="0 0 1025 1024" version="1.1" xmlns="http://www.w3.org/2000/svg" xmlns:xlink="http://www.w3.org/1999/xlink">
    <title>Mt.photos</title>
    <g id="ICON-新版方图标" stroke="none" stroke-width="1" fill="none" fill-rule="evenodd">
        <g id="Mt.photos" transform="translate(0.6332, 0)">
            <rect id="蒙版路径" fill="#FFFFFF" x="0" y="0" width="1024" height="1024"></rect>
            <path d="M0,380 C216.030774,379.089699 403.030774,435.089699 561,548 C718.969226,660.910301 832.302559,819.576968 901,1024 L0,1024 L0,380 Z" id="多边形" fill="#18D24A"></path>
            <rect id="路径" fill="#FFFFFF" x="200" y="604" width="339" height="304" rx="27"></rect>
            <g id="矩形" transform="translate(275, 633)">
                <g id="矩形3" transform="translate(176, 0)">
                    <rect id="矩形外" fill="#A0A0A0" x="0" y="0" width="61" height="244"></rect>
                    <rect id="矩形内" fill="#FFFFFF" x="16" y="20" width="30" height="48"></rect>
                </g>
                <g id="矩形2" transform="translate(89, 0)">
                    <rect id="矩形外" fill="#A0A0A0" x="0" y="0" width="61" height="244"></rect>
                    <rect id="矩形内" fill="#FFFFFF" x="16" y="20" width="30" height="48"></rect>
                </g>
                <g id="矩形1">
                    <rect id="矩形外" fill="#A0A0A0" x="0" y="0" width="61" height="244"></rect>
                    <rect id="矩形内" fill="#FFFFFF" x="16" y="20" width="30" height="48"></rect>
                </g>
            </g>
            <g id="圆形2" transform="translate(222, 653)">
                <circle id="圆形红" fill="#EE5561" cx="15" cy="62" r="15"></circle>
                <circle id="圆形蓝" fill="#559CFF" cx="15" cy="15" r="15"></circle>
            </g>
            <g id="圆形1" transform="translate(642, 169)">
                <circle id="圆形外圈" fill="#18D24A" cx="101" cy="101" r="101"></circle>
                <circle id="圆形内圈" fill="#FFFFFF" cx="101" cy="101" r="70"></circle>
            </g>
        </g>
    </g>
</svg>