<?xml version="1.0" encoding="UTF-8"?>
<svg width="1024px" height="1024px" viewBox="0 0 1024 1024" version="1.1" xmlns="http://www.w3.org/2000/svg" xmlns:xlink="http://www.w3.org/1999/xlink">
    <title>Mteam</title>
    <g id="ICON-新版方图标" stroke="none" stroke-width="1" fill="none" fill-rule="evenodd">
        <g id="Mteam">
            <rect id="蒙版路径" fill="#F6CA5F" x="0" y="0" width="1024" height="1024"></rect>
            <g id="编组-11" transform="translate(179, 373)" fill="#343434">
                <path d="M140,279.959283 C210,279.959283 280,217.319865 280,140 C280,62.680135 217.319865,0 140,0 C62.680135,0 0,62.680135 0,140 C0,217.319865 70,279.959283 140,279.959283 Z" id="椭圆形"></path>
                <path d="M114,279 L114,276.139729 C123.014757,278.005466 132.181424,278.945317 141.5,278.959283 C150.644826,278.776852 159.811493,277.606606 169,275.448547 L169,279 L169,651 L114,651 L114,279 Z" id="矩形"></path>
            </g>
            <g id="编组-11" transform="translate(564, 373)" fill="#343434">
                <path d="M140,279.959283 C210,279.959283 280,217.319865 280,140 C280,62.680135 217.319865,0 140,0 C62.680135,0 0,62.680135 0,140 C0,217.319865 70,279.959283 140,279.959283 Z" id="椭圆形"></path>
                <path d="M114,279 L114,276.139729 C123.014757,278.005466 132.181424,278.945317 141.5,278.959283 C150.644826,278.776852 159.811493,277.606606 169,275.448547 L169,279 L169,651 L114,651 L114,279 Z" id="矩形"></path>
            </g>
        </g>
    </g>
</svg>