<?xml version="1.0" encoding="UTF-8"?>
<svg width="1024px" height="1024px" viewBox="0 0 1024 1024" version="1.1" xmlns="http://www.w3.org/2000/svg" xmlns:xlink="http://www.w3.org/1999/xlink">
    <title>MySQL</title>
    <g id="ICON-新版方图标" stroke="none" stroke-width="1" fill="none" fill-rule="evenodd">
        <g id="MySQL">
            <rect id="蒙版路径" fill="#00628C" x="0" y="0" width="1024" height="1024"></rect>
            <g id="编组-38" transform="translate(100.12, 273.9971)" fill-rule="nonzero">
                <path d="M90.48,362.482879 C103.04,334.482879 114.48,308.482879 126.48,282.482879 C129.592723,272.205193 139.021744,265.141528 149.76,265.042879 C175.36,265.042879 181.76,271.042879 181.76,297.042879 L181.76,376.242879 C181.76,384.722879 179.68,389.202879 170.56,387.762879 C169.813871,387.722799 169.066129,387.722799 168.32,387.762879 C151.2,387.762879 151.2,387.762879 151.2,371.122879 C151.2,347.122879 151.2,323.762879 149.52,299.602879 L124.08,355.602879 C122.213333,359.709546 120.453333,363.789546 118.8,367.842879 C113.36,380.642879 105.84,390.162879 90.08,389.762879 C74.32,389.362879 68.32,380.322879 62.88,367.842879 C54.88,348.802879 45.92,329.922879 37.28,311.042879 C35.5406892,306.800693 32.9857409,302.941091 29.76,299.682879 L29.76,372.642879 C29.76,377.442879 28.32,385.922879 26.32,386.322879 C18.3638135,387.506954 10.2761865,387.506954 2.32,386.322879 C1.2,386.322879 0,380.482879 0,377.362879 L0,290.322879 C0,275.762879 4.8,268.082879 16.56,266.322879 C34.48,263.522879 46,263.602879 52.72,277.682879 C62.88,299.042879 72.16,320.882879 81.84,342.562879 C84.16,348.482879 86.88,354.482879 90.48,362.482879 L90.48,362.482879 Z M814.81329,238.863776 L768.497969,248.547888 C789.381968,264.210888 810.602807,275.663404 819.023774,300 C799.2345,287.284339 779.276807,274.737097 760.077001,261.853017 C756.691739,259.244086 753.83391,256.014739 751.656034,252.337324 C745.256098,242.653211 746.435034,238.863776 757.71913,235.495389 C769.003227,232.127001 779.529436,231.032276 791.403001,228.590195 C775.99263,217.558728 761.761195,205.432534 743.066647,201.222051 C730.012887,198.081518 719.412553,188.588681 714.856406,175.959148 C704.945967,152.158187 693.700128,128.935529 681.172535,106.401956 C663.127003,75.8335538 635.428312,52.1341392 602.436489,39.0342154 C596.897422,37.4585649 591.274691,36.1934503 585.594554,35.24478 C577.952188,33.1462601 570.443807,30.5872236 563.11057,27.5816996 C554.689603,24.1291029 547.110732,19.5817804 538.858184,16.1291837 C536.035626,15.2486679 532.971314,15.6163852 530.437216,17.1396998 C529.51091,17.7291675 530.437216,22.1080706 531.026684,24.3817319 C532.30802,27.2507386 534.042429,29.8950018 536.163474,32.2132317 C547.761528,46.9259352 556.346086,63.7802834 561.426377,81.8127306 C565.384231,91.581053 573.047312,100.002021 576.920957,109.349295 C579.51417,116.329377 579.954176,123.926818 578.184102,131.1596 C571.478652,151.737184 571.834286,173.964326 579.194618,194.316857 C579.892644,196.126906 580.79684,197.850529 581.889328,199.453647 C583.158528,200.641202 584.509173,201.738602 585.931392,202.737825 C591.068182,188.169551 588.541892,170.738148 602.773327,161.306664 L653.299133,244.842663 C634.604585,230.02176 615.910037,216.464002 605.552247,193.222131 C604.962154,197.611447 603.830747,201.91079 602.18386,206.022002 C599.57336,210.737744 596.289182,217.474518 592.247118,218.316615 C586.32196,218.937377 580.412467,217.008371 575.994651,213.011405 C564.919348,201.549907 559.147656,185.975499 560.079022,170.064471 C560.079022,155.411987 563.531619,140.843713 565.047393,126.19123 C565.557557,122.611628 565.151945,118.961118 563.868457,115.580811 C558.142199,102.78094 551.994893,90.3179078 545.594958,77.7706662 C540.121895,65.8513157 533.847957,54.316272 526.8162,43.2446992 C515.532104,26.9080221 512.921604,17.9817965 520.079426,8.38189352 C527.237248,-1.21800949 538.858184,-3.32325138 555.27907,6.02402261 C573.131522,16.297603 592.752376,19.4975707 611.194295,26.6553931 C656.4991,44.2552153 688.077729,77.7706662 709.298567,121.222859 C712.161696,127.173676 714.968685,133.236772 717.719535,139.412149 C727.993115,164.675051 739.69826,187.832712 769.087437,198.358922 C788.329743,206.526936 804.383332,220.747519 814.81329,238.863776 L814.81329,238.863776 Z M601.84,370.602879 C603.54842,365.386839 604.806362,360.033893 605.6,354.602879 L605.6,305.562879 C606.153233,301.458717 604.806316,297.326102 601.94094,294.336145 C599.075565,291.346188 595.00398,289.824713 590.88,290.202879 C576.8,289.722879 562.64,289.722879 548.56,290.202879 C544.274228,289.780077 540.034089,291.364793 537.076173,294.494863 C534.118257,297.624933 532.775684,301.947848 533.44,306.202879 C534,322.202879 533.44,338.922879 533.44,355.242879 C533.039156,359.012365 534.211138,362.780245 536.679364,365.657319 C539.147591,368.534394 542.693401,370.26578 546.48,370.442879 C553.194038,370.843196 559.925962,370.843196 566.64,370.442879 L569.04,366.362879 L549.12,352.922879 C571.92,348.042879 588.32,350.362879 601.84,370.602879 L601.84,370.602879 Z M214.2,423.042879 L214.2,403.682879 L284.76,403.682879 C289.923811,403.925433 295.085681,403.164737 299.96,401.442879 C303.16,400.002879 305.08,395.522879 307.96,392.402879 C304.84,390.802879 301.8,387.922879 298.52,387.762879 C279.32,386.642879 259.96,387.282879 240.84,385.122879 C219.64,382.722879 211.72,371.682879 212.04,350.162879 L212.04,312.242879 C212.04,305.602879 214.12,303.282879 221,303.042879 C242.12,302.562879 242.12,302.242879 242.12,323.762879 L242.12,357.202879 C241.67833,360.216923 242.693358,363.261709 244.855245,365.407816 C247.017133,367.553923 250.069272,368.546618 253.08,368.082879 L299.96,368.082879 C306.52,368.082879 307.96,365.202879 307.96,359.282879 C307.96,343.282879 308.44,328.002879 307.96,312.402879 C307.16,298.962879 315.88,301.362879 323.88,301.042879 C331.88,300.722879 338.36,301.042879 338.04,312.482879 C337.32,336.482879 338.04,360.482879 338.04,383.842879 C338.04,407.202879 329.32,420.962879 305.16,422.562879 C275.32,424.562879 245.16,423.042879 214.2,423.042879 L214.2,423.042879 Z" id="形状" fill="#FFFFFF"></path>
                <g id="®" transform="translate(786.62, 351.7789)" fill="#EEB457">
                    <path d="M21.518,0 C15.544,0 10.44,2.088 6.264,6.264 C2.088,10.44 0,15.544 0,21.518 C0,27.434 2.088,32.538 6.264,36.772 C10.44,40.948 15.544,43.036 21.518,43.036 C27.434,43.036 32.538,40.948 36.772,36.772 C40.948,32.538 43.036,27.434 43.036,21.518 C43.036,15.544 40.948,10.44 36.772,6.264 C32.538,2.088 27.434,0 21.518,0 Z M21.518,2.726 C26.68,2.726 31.088,4.524 34.8,8.236 C38.454,11.89 40.31,16.298 40.31,21.518 C40.31,26.68 38.454,31.088 34.8,34.8 C31.088,38.454 26.68,40.31 21.518,40.31 C16.298,40.31 11.89,38.454 8.236,34.8 C4.524,31.088 2.726,26.68 2.726,21.518 C2.726,16.298 4.524,11.89 8.236,8.236 C11.89,4.524 16.298,2.726 21.518,2.726 Z M11.542,8.7 L11.542,34.336 L15.602,34.336 L15.602,23.78 L21.576,23.78 C23.49,23.78 24.824,24.186 25.578,25.056 C26.274,25.752 26.68,27.086 26.854,29.058 C27.028,31.494 27.434,33.234 28.072,34.336 L32.654,34.336 C31.61,33.118 31.03,31.146 30.856,28.42 C30.74,26.68 30.45,25.404 30.044,24.534 C29.464,23.258 28.478,22.388 27.086,22.04 C29.812,20.996 31.204,19.024 31.204,16.008 C31.204,13.63 30.392,11.774 28.768,10.498 C27.202,9.28 25.114,8.7 22.446,8.7 L11.542,8.7 Z M15.602,12.18 L21.924,12.18 C25.404,12.18 27.144,13.514 27.144,16.182 C27.144,17.4 26.68,18.386 25.868,19.14 C24.94,19.836 23.606,20.242 21.982,20.242 L15.602,20.242 L15.602,12.18 Z" id="形状"></path>
                </g>
                <path d="M653.92,269.762879 L681.84,269.762879 C681.84,273.842879 682.48,277.762879 682.48,281.682879 L682.48,346.402879 C682.48,362.402879 684.08,369.042879 706.48,369.842879 C724.72,370.482879 742.96,369.842879 761.12,369.842879 C768,369.842879 772.4,370.642879 772.24,379.282879 C772.08,387.922879 769.6,389.922879 761.76,389.682879 C735.44,388.642879 709.12,389.042879 682.88,387.042879 C663.2,385.522879 654.24,373.842879 654.24,354.322879 L654.24,269.762879 L653.92,269.762879 Z" id="路径" fill="#E68E01"></path>
                <path d="M621.12,384.922879 L643.36,404.282879 L641.44,407.882879 C628.4,407.882879 614.4,413.322879 603.2,400.682879 C596.282079,392.782593 585.831138,388.927491 575.44,390.442879 C563.2,391.242879 550.88,390.922879 538.64,390.442879 C518.88,389.882879 500.8,379.802879 502.88,354.922879 C504.08,338.922879 502.88,322.202879 502.88,305.802879 C502.88,284.602879 509.2,273.802879 530,272.042879 C556.646005,270.007046 583.42143,270.381902 610,273.162879 C627.04,274.682879 634,286.442879 634,303.722879 L634,353.962879 C635.890341,365.886233 630.909583,377.858615 621.12,384.922879 L621.12,384.922879 Z" id="路径" fill="#E68E01"></path>
                <path d="M435.32,266.442879 L471,266.442879 C479,266.442879 482.52,267.562879 482.44,276.602879 C482.36,285.642879 477.48,286.362879 470.44,286.282879 L409.08,286.282879 C396.44,286.282879 393.08,289.482879 393.08,300.522879 C393.08,311.562879 396.2,315.482879 409.08,315.962879 C421.96,316.442879 437.24,317.002879 451.24,318.122879 C471.24,319.722879 480.04,329.642879 480.04,349.562879 C480.04,375.402879 469.08,386.522879 443.08,386.682879 L372.76,386.682879 C364.76,386.682879 362.44,383.722879 362.44,376.202879 C362.44,368.682879 365.48,366.602879 372.52,366.762879 C392.2,367.082879 411.933333,367.082879 431.72,366.762879 C447,366.762879 451.48,361.962879 451.48,349.082879 C451.48,339.162879 446.52,335.242879 437.08,335.002879 C421.903956,334.994222 406.738012,334.219904 391.64,332.682879 C368.92,329.562879 362.36,318.762879 364.36,291.802879 C365.48,277.642879 379.56,266.682879 397.32,266.362879 C409.96,266.282879 422.68,266.442879 435.32,266.442879 L435.32,266.442879 Z" id="路径" fill="#E68E01"></path>
                <path d="M579.868296,50.7393603 C584.920876,53.5182796 591.405021,55.2866828 594.520779,59.1603279 C596.457602,61.7708278 593.426053,68.1707632 592.668166,72.886505 L589.04715,72.886505 L576.920957,54.3603764 L579.868296,50.7393603 Z" id="路径" fill="#FFFFFF"></path>
                <path d="M601.84,370.602879 C588.32,350.362879 571.92,348.042879 549.36,353.402879 L569.28,366.842879 L566.88,370.922879 C560.165962,371.323196 553.434038,371.323196 546.72,370.922879 C542.933401,370.74578 539.387591,369.014394 536.919364,366.137319 C534.451138,363.260245 533.279156,359.492365 533.68,355.722879 C533.68,339.722879 534.16,323.002879 533.68,306.682879 C533.015684,302.427848 534.358257,298.104933 537.316173,294.974863 C540.274089,291.844793 544.514228,290.260077 548.8,290.682879 C562.88,290.202879 577.04,290.202879 591.12,290.682879 C595.28916,290.26825 599.416724,291.798394 602.308142,294.830476 C605.19956,297.862557 606.532058,302.058099 605.92,306.202879 C605.52,322.202879 605.92,338.842879 605.92,355.242879 C604.98687,360.466845 603.622195,365.604446 601.84,370.602879 L601.84,370.602879 Z" id="路径" fill="#00628C"></path>
            </g>
        </g>
    </g>
</svg>