<?xml version="1.0" encoding="UTF-8"?>
<svg width="1024px" height="1024px" viewBox="0 0 1024 1024" version="1.1" xmlns="http://www.w3.org/2000/svg" xmlns:xlink="http://www.w3.org/1999/xlink">
    <title>Netcup_A</title>
    <defs>
        <linearGradient x1="50%" y1="0%" x2="50%" y2="100%" id="linearGradient-1">
            <stop stop-color="#1D2A55" offset="0%"></stop>
            <stop stop-color="#0F4A66" offset="100%"></stop>
        </linearGradient>
    </defs>
    <g id="ICON-新版方图标" stroke="none" stroke-width="1" fill="none" fill-rule="evenodd">
        <g id="多版本" transform="translate(-7, -4096)">
            <g id="Netcup_A" transform="translate(7, 4096)">
                <rect id="蒙版路径" fill="url(#linearGradient-1)" x="0" y="0" width="1024" height="1024"></rect>
                <g id="®" transform="translate(902.06, 384.16)" fill="#FFFFFF" fill-rule="nonzero">
                    <path d="M0,31.14 C0,22.32 3.06,14.925 9.18,8.955 C15.3,2.985 22.62,0 31.14,0 C39.9,0 47.295,3.045 53.325,9.135 C59.355,15.225 62.37,22.56 62.37,31.14 C62.37,39.84 59.325,47.205 53.235,53.235 C47.145,59.265 39.78,62.28 31.14,62.28 C25.74,62.28 20.595,60.9 15.705,58.14 C10.815,55.38 6.975,51.615 4.185,46.845 C1.395,42.075 0,36.84 0,31.14 Z M59.58,31.14 C59.58,23.16 56.82,16.425 51.3,10.935 C45.78,5.445 39.09,2.7 31.23,2.7 C23.37,2.7 16.65,5.46 11.07,10.98 C5.49,16.5 2.7,23.22 2.7,31.14 C2.7,39.06 5.535,45.78 11.205,51.3 C16.875,56.82 23.52,59.58 31.14,59.58 C39.06,59.58 45.78,56.85 51.3,51.39 C56.82,45.93 59.58,39.18 59.58,31.14 Z M13.86,11.97 L30.87,11.97 C34.89,11.97 38.07,12.885 40.41,14.715 C42.75,16.545 43.92,18.9 43.92,21.78 C43.92,26.64 40.68,29.91 34.2,31.59 L43.38,44.64 C44.28,45.9 44.94,46.755 45.36,47.205 C45.78,47.655 46.23,47.94 46.71,48.06 L48.69,48.6 L48.69,49.95 L40.59,49.95 L27.63,32.22 L24.3,32.22 L24.3,45.81 C24.54,46.95 25.065,47.685 25.875,48.015 C26.685,48.345 27.9,48.51 29.52,48.51 L29.52,49.95 L13.41,49.95 L13.41,48.51 L15.48,48.33 C16.38,48.21 17.01,47.7 17.37,46.8 C17.73,45.9 17.91,44.46 17.91,42.48 L17.91,19.53 C17.91,15.87 17.37,13.98 16.29,13.86 L13.86,13.59 L13.86,11.97 Z M24.3,30.33 L25.65,30.33 C29.19,30.33 31.935,29.61 33.885,28.17 C35.835,26.73 36.81,24.78 36.81,22.32 C36.81,19.86 35.985,17.85 34.335,16.29 C32.685,14.73 30.57,13.95 27.99,13.95 C26.79,13.95 25.56,14.16 24.3,14.58 L24.3,30.33 Z" id="形状"></path>
                </g>
                <g id="netcup" transform="translate(111.96, 404.76)" fill="#FFFFFF" fill-rule="nonzero">
                    <path d="M125.44,180.32 C125.066667,184.426667 122.36,187.926667 117.32,190.82 C112.28,193.713333 106.68,195.16 100.52,195.16 C91.3733333,195.16 85.12,192.266667 81.76,186.48 C83.2533333,128.986667 81.5733333,99.8666667 76.72,99.12 C72.0533333,98.3733333 60.6666667,124.133333 42.56,176.4 C42.56,182 42.56,187.6 42.56,193.2 C42.3733333,199.92 40.5533333,204.68 37.1,207.48 C33.6466667,210.28 29.96,211.68 26.04,211.68 C19.32,211.68 12.1333333,208.04 4.48,200.76 C2.24,198.893333 1.02666667,184.706667 0.84,158.2 C1.02666667,174.44 1.12,144.293333 1.12,67.76 C1.12,66.08 0.933333333,63.7933333 0.56,60.9 C0.186666667,58.0066667 0,55.9066667 0,54.6 C0,51.0533333 0.933333333,47.9733333 2.8,45.36 C5.04,42 8.58666667,40.32 13.44,40.32 C18.48,40.32 23.7533333,41.86 29.26,44.94 C34.7666667,48.02 38.08,50.96 39.2,53.76 C39.9466667,55.6266667 40.32,57.4933333 40.32,59.36 C40.32,61.2266667 39.5733333,63.84 38.08,67.2 C36.5866667,70.56 35.84,73.36 35.84,75.6 L35.84,114.24 C47.6,89.2266667 56.4666667,72.7066667 62.44,64.68 C73.08,50.8666667 85.12,44.4266667 98.56,45.36 C106.586667,45.92 112.28,53.3866667 115.64,67.76 C118.253333,78.5866667 119.653333,94.64 119.84,115.92 C119.84,132.72 119.84,149.52 119.84,166.32 C120.213333,167.626667 121.52,169.96 123.76,173.32 C125.066667,175.186667 125.626667,177.52 125.44,180.32 Z" id="路径"></path>
                    <path d="M256.666667,168.84 C255.173333,175.933333 250.133333,183.493333 241.546667,191.52 C240.24,193.573333 235.106667,196.28 226.146667,199.64 C215.88,203.56 207.013333,205.24 199.546667,204.68 C185.546667,203.746667 174.533333,195.72 166.506667,180.6 C159.226667,166.6 155.586667,149.426667 155.586667,129.08 C155.586667,107.053333 159.693333,87.7333333 167.906667,71.12 C177.053333,52.8266667 189.28,42.56 204.586667,40.32 C207.573333,39.9466667 210.466667,39.76 213.266667,39.76 C235.48,39.76 247.706667,53.3866667 249.946667,80.64 C251.066667,93.1466667 246.12,106.773333 235.106667,121.52 C223.16,137.76 207.853333,149.146667 189.186667,155.68 C191.24,163.146667 192.826667,168 193.946667,170.24 C196.56,174.906667 200.106667,177.24 204.586667,177.24 C208.88,177.24 213.453333,175.56 218.306667,172.2 C222.413333,169.4 225.213333,166.693333 226.706667,164.08 C227.453333,163.706667 228.2,161.606667 228.946667,157.78 C229.693333,153.953333 231.653333,151.2 234.826667,149.52 C235.946667,148.96 237.253333,148.68 238.746667,148.68 C243.226667,148.68 247.566667,150.873333 251.766667,155.26 C255.966667,159.646667 257.6,164.173333 256.666667,168.84 Z M212.706667,70.28 C205.24,70.28 199.173333,75.6 194.506667,86.24 C188.346667,100.426667 185.826667,114.426667 186.946667,128.24 C195.72,125.44 203.84,118.906667 211.306667,108.64 C218.773333,98.3733333 222.506667,89.2266667 222.506667,81.2 C222.506667,73.92 219.24,70.28 212.706667,70.28 Z" id="形状"></path>
                    <path d="M385.093333,71.12 C383.6,71.12 381.266667,70.5133333 378.093333,69.3 C374.92,68.0866667 372.493333,67.48 370.813333,67.48 C369.506667,67.48 368.2,67.76 366.893333,68.32 L356.533333,73.64 L356.533333,169.4 C356.533333,172.946667 358.446667,177.52 362.273333,183.12 C366.1,188.72 367.64,193.2 366.893333,196.56 C365.96,200.666667 363.206667,203.933333 358.633333,206.36 C354.06,208.786667 349.16,210 343.933333,210 C334.04,210 327.226667,205.613333 323.493333,196.84 C322.373333,194.226667 321.72,185.92 321.533333,171.92 C321.346667,162.586667 321.44,148.026667 321.813333,128.24 C322.186667,105.84 322.373333,91.6533333 322.373333,85.68 C321.253333,86.0533333 319.386667,87.3133333 316.773333,89.46 C314.16,91.6066667 311.546667,92.68 308.933333,92.68 C306.88,92.68 304.266667,92.12 301.093333,91 C288.026667,86.52 281.493333,81.9466667 281.493333,77.28 C281.493333,76.16 281.773333,74.9466667 282.333333,73.64 C283.64,70.6533333 286.066667,68.9733333 289.613333,68.6 C295.026667,67.8533333 298.293333,67.2 299.413333,66.64 C303.706667,64.96 311.546667,60.9466667 322.933333,54.6 L322.933333,30.24 C322.933333,28.3733333 322.42,25.9 321.393333,22.82 C320.366667,19.74 319.853333,17.4533333 319.853333,15.96 C319.853333,14.28 320.32,12.6933333 321.253333,11.2 C326.106667,3.73333333 332.64,0 340.853333,0 C350.373333,0 357.093333,3.73333333 361.013333,11.2 C362.506667,14.1866667 363.253333,16.6133333 363.253333,18.48 C363.253333,20.72 362.133333,23.0533333 359.893333,25.48 C357.653333,27.9066667 356.533333,30.1466667 356.533333,32.2 L356.533333,45.92 C359.893333,44.4266667 363.626667,41.9066667 367.733333,38.36 C370.906667,35.7466667 373.613333,34.44 375.853333,34.44 C376.786667,34.44 377.813333,34.6266667 378.933333,35 C390.693333,38.1733333 396.573333,45.2666667 396.573333,56.28 C396.573333,59.8266667 395.5,63.1866667 393.353333,66.36 C391.206667,69.5333333 388.453333,71.12 385.093333,71.12 Z" id="路径"></path>
                    <path d="M512.4,151.76 C512.213333,155.866667 510.44,160.066667 507.08,164.36 C501.853333,170.52 498.493333,175.186667 497,178.36 C485.24,196.28 473.106667,205.24 460.6,205.24 C445.853333,205.24 434.373333,197.773333 426.16,182.84 C418.88,169.213333 415.24,152.04 415.24,131.32 C415.24,107.613333 419.72,86.9866667 428.68,69.44 C438.573333,50.0266667 451.36,40.32 467.04,40.32 C479.36,40.32 489.346667,47.1333333 497,60.76 C503.346667,72.3333333 506.52,84.9333333 506.52,98.56 C506.52,102.293333 506.24,105.56 505.68,108.36 C504.373333,114.706667 499.053333,117.88 489.72,117.88 C482.44,117.88 476.84,115.826667 472.92,111.72 C471.053333,109.666667 470.12,104.906667 470.12,97.44 C470.12,95.5733333 470.213333,92.8666667 470.4,89.32 C470.4,85.5866667 470.4,82.88 470.4,81.2 C470.4,72.8 468.906667,68.6 465.92,68.6 C462.746667,68.6 459.386667,77.7933333 455.84,96.18 C452.293333,114.566667 450.52,131.786667 450.52,147.84 C450.52,166.506667 453.32,175.84 458.92,175.84 C466.2,175.84 471.613333,169.96 475.16,158.2 C476.653333,156.52 477.493333,153.16 477.68,148.12 C477.68,143.64 478.8,140.7 481.04,139.3 C483.28,137.9 486.546667,137.2 490.84,137.2 C496.44,137.2 501.293333,138.413333 505.4,140.84 C510.253333,143.64 512.586667,147.28 512.4,151.76 Z" id="路径"></path>
                    <path d="M648.946667,61.6 C649.32,64.4 648.76,67.3866667 647.266667,70.56 C645.4,74.8533333 644.28,78.0266667 643.906667,80.08 C643.906667,118.906667 642.32,145.88 639.146667,161 C632.24,192.733333 617.586667,208.6 595.186667,208.6 C562.52,208.6 546.186667,178.826667 546.186667,119.28 C546.186667,103.226667 547.4,86.24 549.826667,68.32 C548.52,64.0266667 547.866667,60.2 547.866667,56.84 C547.866667,51.4266667 549.64,46.8533333 553.186667,43.12 C556.173333,39.9466667 560.56,38.36 566.346667,38.36 C571.013333,38.36 575.4,39.34 579.506667,41.3 C583.613333,43.26 586.04,45.5466667 586.786667,48.16 C587.16,49.4666667 587.346667,50.7733333 587.346667,52.08 C587.346667,54.5066667 586.32,58.38 584.266667,63.7 C582.213333,69.02 581.373333,73.36 581.746667,76.72 C579.88,87.1733333 578.946667,100.333333 578.946667,116.2 C578.946667,132.253333 579.973333,145.6 582.026667,156.24 C584.64,168.56 588.28,174.72 592.946667,174.72 C600.786667,174.72 605.92,161.466667 608.346667,134.96 C609.653333,121.706667 610.306667,100.613333 610.306667,71.68 C610.306667,69.8133333 610.026667,67.1066667 609.466667,63.56 C608.906667,60.0133333 608.626667,57.4 608.626667,55.72 C608.626667,51.24 610.306667,48.16 613.666667,46.48 C615.533333,45.5466667 618.146667,45.08 621.506667,45.08 C627.666667,45.08 633.36,46.3866667 638.586667,49 C644.746667,52.1733333 648.2,56.3733333 648.946667,61.6 Z" id="路径"></path>
                    <path d="M791.373333,120.96 C791.373333,140.746667 787.173333,158.76 778.773333,175 C769.44,192.546667 757.96,201.32 744.333333,201.32 C736.68,201.32 728.84,195.253333 720.813333,183.12 L720.813333,218.96 C720.813333,221.946667 722.026667,225.773333 724.453333,230.44 C726.88,235.106667 728.093333,238.653333 728.093333,241.08 C728.093333,242.946667 727.626667,244.813333 726.693333,246.68 C722.773333,255.08 715.12,259.28 703.733333,259.28 C694.4,259.28 688.613333,255.92 686.373333,249.2 C685.626667,246.96 685.253333,244.813333 685.253333,242.76 C685.253333,240.706667 685.86,237.953333 687.073333,234.5 C688.286667,231.046667 688.893333,228.106667 688.893333,225.68 L688.893333,66.36 C688.893333,64.3066667 688.146667,61.8333333 686.653333,58.94 C685.16,56.0466667 684.413333,53.6666667 684.413333,51.8 C684.413333,50.3066667 684.786667,48.72 685.533333,47.04 C687.773333,41.8133333 694.68,39.2 706.253333,39.2 C713.533333,39.2 718.386667,40.6933333 720.813333,43.68 C721.746667,44.8 722.213333,46.2 722.213333,47.88 C722.213333,49.1866667 721.746667,51.24 720.813333,54.04 C719.88,56.84 719.32,58.9866667 719.133333,60.48 C727.72,48.16 737.8,42 749.373333,42 C764.866667,42 776.16,50.7733333 783.253333,68.32 C788.666667,81.9466667 791.373333,99.4933333 791.373333,120.96 Z M756.093333,120.96 C756.093333,103.226667 755.72,91.9333333 754.973333,87.08 C753.106667,74.9466667 748.44,68.88 740.973333,68.88 C736.68,68.88 732.806667,74.7133333 729.353333,86.38 C725.9,98.0466667 724.173333,109.573333 724.173333,120.96 C724.173333,129.546667 726.04,139.626667 729.773333,151.2 C733.506667,163.52 737.24,169.68 740.973333,169.68 C745.453333,169.68 749.186667,163.986667 752.173333,152.6 C754.786667,142.706667 756.093333,132.16 756.093333,120.96 Z" id="形状"></path>
                </g>
            </g>
        </g>
    </g>
</svg>