<?xml version="1.0" encoding="UTF-8"?>
<svg width="1025px" height="1024px" viewBox="0 0 1025 1024" version="1.1" xmlns="http://www.w3.org/2000/svg" xmlns:xlink="http://www.w3.org/1999/xlink">
    <title>Nezha</title>
    <g id="ICON-新版方图标" stroke="none" stroke-width="1" fill="none" fill-rule="evenodd">
        <g id="Nezha" transform="translate(0.061, 0)">
            <rect id="蒙版路径" fill="#000000" x="0" y="0" width="1024" height="1024"></rect>
            <g id="N" transform="translate(218.5, 183.12)" fill="#FFFFFF" fill-rule="nonzero">
                <path d="M113,40.88 L479,478.88 L479,32.88 C479,17.5466667 482.833333,7.71333333 490.5,3.38 C498.166667,-0.953333333 509.333333,-1.12 524,2.88 C549.333333,10.2133333 568.666667,19.2133333 582,29.88 C602,45.2133333 602.333333,62.2133333 583,80.88 L583,639.88 C583,652.546667 579.666667,660.88 573,664.88 C567.666667,668.213333 559,668.88 547,666.88 C527,660.88 512,654.88 502,648.88 C495.333333,644.88 491,642.213333 489,640.88 L103,179.88 L103,639.88 C103,652.546667 99.6666667,660.88 93,664.88 C87.6666667,668.213333 79,668.88 67,666.88 C47,660.88 32,654.88 22,648.88 C13.3333333,644.213333 7.33333333,638.546667 4,631.88 C1.33333333,626.546667 0,617.546667 0,604.88 L0,31.88 C0,17.2133333 3.83333333,7.71333333 11.5,3.38 C19.1666667,-0.953333333 30,-1.12 44,2.88 C63.3333333,8.21333333 82.6666667,17.5466667 102,30.88 C106,32.88 109.666667,36.2133333 113,40.88 Z" id="路径"></path>
            </g>
        </g>
    </g>
</svg>