<?xml version="1.0" encoding="UTF-8"?>
<svg width="1025px" height="1024px" viewBox="0 0 1025 1024" version="1.1" xmlns="http://www.w3.org/2000/svg" xmlns:xlink="http://www.w3.org/1999/xlink">
    <title>Nginx</title>
    <g id="ICON-新版方图标" stroke="none" stroke-width="1" fill="none" fill-rule="evenodd">
        <g id="Nginx" transform="translate(0.6332, 0)">
            <rect id="蒙版路径" fill="#1E262C" x="0" y="0" width="1024" height="1014.09671"></rect>
            <g id="编组" fill-rule="nonzero">
                <polygon id="路径" fill="#269539" points="0 1.08657215e-12 0 1024 1024 1024 1024 1.08657215e-12"></polygon>
                <g id="路径-6" transform="translate(192.2193, 200.4408)" fill="#FFFFFF">
                    <path d="M640,554.385579 C640,591.715267 605.460323,622.690966 558.248958,622.690966 C524.51128,622.690966 486.015039,609.188738 461.954889,579.801537 L141.152883,201.686215 L141.152883,554.332627 C141.152883,592.509516 110.676692,622.638013 73.0359237,622.638013 L68.9724313,622.638013 C30.4227241,622.638013 0,590.868066 0,554.332627 L0,68.3053865 C0,30.9756986 33.6842107,0 80.2005016,0 C114.740184,0 153.984963,13.5022276 178.045113,42.8894288 L497.24311,421.004751 L497.24311,68.3053865 C497.24311,30.1284997 529.32331,0 566.215539,0 L570.225564,0 C608.721804,0 639.197995,31.7699472 639.197995,68.3053865 L639.197995,554.385579 L640,554.385579 Z" id="路径"></path>
                </g>
            </g>
        </g>
    </g>
</svg>