<?xml version="1.0" encoding="UTF-8"?>
<svg width="1025px" height="1024px" viewBox="0 0 1025 1024" version="1.1" xmlns="http://www.w3.org/2000/svg" xmlns:xlink="http://www.w3.org/1999/xlink">
    <title>Open.list</title>
    <g id="ICON-新版方图标" stroke="none" stroke-width="1" fill="none" fill-rule="evenodd">
        <g id="Open.list" transform="translate(0.6332, 0)">
            <rect id="蒙版路径" fill="#FFFFFF" x="0" y="0" width="1024" height="1024"></rect>
            <g id="LB" transform="translate(205.3485, 362.5676)" fill="#38BDF8" fill-rule="nonzero">
                <path d="M50.2795186,391.224891 C41.0388148,391.224891 31.6974697,388.68141 23.325941,383.365719 C-0.123488508,368.452504 -7.04944174,337.354333 7.86377328,313.904904 L192.613804,23.325941 C207.527019,-0.123488508 238.62519,-7.04944174 262.074619,7.86377328 C285.524049,22.7769883 292.450002,53.8751588 277.536787,77.3245883 L92.786756,367.903551 C83.1983821,382.981452 66.9127854,391.234041 50.2795186,391.234041 L50.2795186,391.224891 Z" id="路径"></path>
            </g>
            <g id="RT" transform="translate(162.3668, 149.5044)" fill="#99F6E4" fill-rule="nonzero">
                <path d="M336.044693,724.215984 C304.013303,724.215984 274.479648,719.787765 252.018333,711.535177 C237.718116,706.283529 226.565227,694.837865 221.688697,680.400409 C216.812167,665.962953 218.733501,650.09822 226.922046,637.252727 L386.511745,386.774759 C401.443258,363.334479 432.550578,356.445123 455.990858,371.376636 C479.431139,386.308149 486.320495,417.415469 471.388982,440.855749 L355.486768,622.760376 C378.716617,621.031175 405.450613,615.971661 432.852502,605.257934 C498.077232,579.759081 549.468354,529.996519 577.547285,465.137757 C605.479828,400.617516 606.769867,329.930707 581.188671,266.087508 C555.177462,201.173851 505.469795,150.093803 441.224031,122.261901 C376.969117,94.4299988 306.081025,93.359541 241.61568,119.270108 C174.405571,146.278581 125.649422,194.732806 96.692167,263.2787 C85.8777988,288.878194 56.3624419,300.863662 30.7537985,290.058443 C5.15430423,279.244074 -6.83116306,249.728718 3.97405592,224.120074 C43.1875771,131.292173 112.383065,62.7462788 204.076464,25.8932542 C249.401659,7.67717377 297.023306,-1.00542811 345.587321,0.0924772947 C392.348942,1.14463664 437.98521,11.1813218 481.224384,29.9189073 C524.353768,48.6015976 562.926844,74.9970732 595.873156,108.373397 C629.972267,142.911671 656.459235,183.378635 674.602122,228.648934 C692.571174,273.48922 701.07994,320.818092 699.890543,369.318063 C698.737742,416.116281 688.655311,461.798295 669.908576,505.110663 C651.116096,548.523672 624.610829,587.252285 591.124715,620.216895 C556.220472,654.581334 515.296048,681.0866 469.495095,698.982458 C430.610945,714.179299 387.96647,722.843602 346.154572,724.042149 C342.760215,724.14279 339.384156,724.188536 336.044693,724.188536 L336.044693,724.215984 Z" id="路径"></path>
            </g>
        </g>
    </g>
</svg>