<?xml version="1.0" encoding="UTF-8"?>
<svg width="1025px" height="1024px" viewBox="0 0 1025 1024" version="1.1" xmlns="http://www.w3.org/2000/svg" xmlns:xlink="http://www.w3.org/1999/xlink">
    <title>Portainer</title>
    <g id="ICON-新版方图标" stroke="none" stroke-width="1" fill="none" fill-rule="evenodd">
        <g id="Portainer" transform="translate(0.6332, 0)">
            <rect id="蒙版路径" fill="#13BEF9" x="0" y="0" width="1024" height="1024"></rect>
            <g id="编组" transform="translate(227, 114)" fill="#FFFFFF" fill-rule="nonzero">
                <path d="M108.69957,582.394999 C116.112514,551.274683 140.354857,526.950993 171.436461,519.44759 C202.518066,511.944188 235.178369,522.531023 255.958238,546.84532 C286.130138,526.226997 326.105749,527.252105 355.182516,549.389761 C384.259283,571.527416 395.905688,609.804835 384.090294,644.398921 C403.179573,670.102246 406.145024,704.381498 391.753714,732.984548 C377.362405,761.587597 348.076402,779.621032 316.071815,779.587171 C296.33385,779.65888 277.200731,772.775218 262.027902,760.1434 C244.873834,784.381921 216.313634,797.896061 186.705656,795.784446 C157.097677,793.672831 130.741875,776.24213 117.1971,749.814194 C111.408977,751.042716 105.507192,751.655038 99.5902938,751.640933 C52.8299793,751.640933 14.5767532,713.661978 14.5767532,666.874505 C14.6045966,644.351079 23.5800686,622.762632 39.5259644,606.864881 C55.4718602,590.96713 77.0799866,582.064317 99.5902938,582.117641 C102.624816,581.760543 105.695823,581.863722 108.69957,582.423692 L108.69957,582.394999 Z M177.626109,175.299996 L177.626109,295.903027 L241.99323,295.903027 L241.99323,175.299996 L301.198747,175.299996 L301.198747,520.716257 C302.106807,520.716257 319.111427,520.41977 326.09871,523.757633 L326.09871,175.299996 L343.705517,175.299996 L343.705517,527.152882 C353.416981,532.011434 361.92407,537.482087 368.60548,545.075965 L368.60548,175.299996 L569,175.299996 L569,150.385571 L526.999832,150.385571 L326.09871,34.2967856 L326.09871,0 L301.198747,0 L301.198747,33.9524791 L300.892874,33.4264544 L98.4528291,150.385571 L0,150.385571 L0,175.299996 L177.626109,175.299996 Z M189.765438,231.202035 L189.765438,175.299996 L229.844342,175.299996 L229.844342,231.202035 L189.765438,231.202035 Z M148.252755,150.385571 L301.189188,62.0134854 L301.189188,150.385571 L148.252755,150.385571 Z M477.219023,150.385571 L326.09871,150.385571 L326.09871,63.0655339 L477.219023,150.385571 Z M65.2465059,572.668331 C73.0797254,570.546797 81.1288345,569.32429 89.2384089,569.024418 C92.1814793,569.076026 95.1198939,569.280334 98.0418117,569.636518 C107.456961,530.136874 143.922742,503.711325 186.400837,503.711325 C210.383181,503.711325 234.069211,510.40618 250.156212,525.890423 C257.755241,510.090565 260.184726,492.463968 260.184726,473.632298 C260.294746,452.075742 254.630817,430.883119 243.780675,412.259606 L31.2755005,412.259606 C20.5696844,430.929036 14.9160937,452.069789 14.8730678,473.594041 C14.8730678,514.29876 34.9459744,550.154491 65.275181,572.630075 L65.2465059,572.668331 Z M169.730765,265.833563 L169.730765,330.544119 L105.354085,330.544119 L105.354085,265.833563 L169.730765,265.833563 Z M97.1624276,265.833563 L97.1624276,330.544119 L32.7953059,330.544119 L32.7953059,265.833563 L97.1624276,265.833563 Z M97.1624276,337.831947 L97.1624276,402.542502 L32.7953059,402.542502 L32.7953059,337.831947 L97.1624276,337.831947 Z M169.730765,337.831947 L169.730765,402.542502 L105.354085,402.542502 L105.354085,337.831947 L169.730765,337.831947 Z M241.99323,337.831947 L241.99323,402.542502 L177.626109,402.542502 L177.626109,337.831947 L241.99323,337.831947 Z" id="形状"></path>
            </g>
        </g>
    </g>
</svg>