<?xml version="1.0" encoding="UTF-8"?>
<svg width="1025px" height="1024px" viewBox="0 0 1025 1024" version="1.1" xmlns="http://www.w3.org/2000/svg" xmlns:xlink="http://www.w3.org/1999/xlink">
    <title>Process.on</title>
    <g id="ICON-新版方图标" stroke="none" stroke-width="1" fill="none" fill-rule="evenodd">
        <g id="Process.on" transform="translate(0.061, 0)" fill-rule="nonzero">
            <polygon id="路径" fill="#067BEF" points="853.880751 1024 0 1024 0 3.27550839e-12 1024 -1.96059937e-15 1024 1024"></polygon>
            <path d="M546.385165,507.192597 C546.385165,651.574813 458.663017,734.176196 339.880455,734.176196 C218.367931,734.176196 141.568969,641.334951 141.568969,514.701662 C141.568969,382.266785 224.852843,289.083878 346.024539,289.083878 C472.316166,289.42554 546.385165,384.65592 546.385165,507.192597 L546.385165,507.192597 Z M224.852843,513.678343 C224.852843,601.399657 268.883915,671.030383 344.317896,671.030383 C420.433534,671.030383 463.099624,600.717166 463.099624,510.605884 C463.099624,429.369482 422.823501,352.57052 344.317896,352.57052 C266.494781,352.57052 224.852843,424.932875 224.852843,513.678343 L224.852843,513.678343 Z M599.631112,508.558412 C599.631112,472.718896 598.949455,442.681802 597.242811,415.716333 L666.191046,415.716333 L669.945162,462.479035 L671.993467,462.479035 C685.304954,438.244362 719.437826,408.889759 770.978796,408.889759 C825.24973,408.889759 881.568969,444.047617 881.568969,542.691284 L881.568969,727.349622 L803.063363,727.349622 L803.063363,551.565331 C803.063363,506.851768 786.338589,473.059725 743.672499,473.059725 C712.270423,473.059725 690.766547,495.587754 682.233329,519.139102 C679.844195,526.307339 679.161704,535.863876 679.161704,544.738756 L679.161704,727.691284 L599.972774,727.691284 L599.631112,508.558412 L599.631112,508.558412 Z" id="形状" fill="#FFFFFF"></path>
        </g>
    </g>
</svg>