<?xml version="1.0" encoding="UTF-8"?>
<svg width="1024px" height="1024px" viewBox="0 0 1024 1024" version="1.1" xmlns="http://www.w3.org/2000/svg" xmlns:xlink="http://www.w3.org/1999/xlink">
    <title>Pter.club</title>
    <g id="ICON-新版方图标" stroke="none" stroke-width="1" fill="none" fill-rule="evenodd">
        <g id="Pter.club">
            <rect id="蒙版路径" fill="#FFFFFF" x="0" y="0" width="1024" height="1024"></rect>
            <g id="编组" transform="translate(196.5556, 234)" fill="#999999">
                <path d="M447.540599,3.97342116 C496.150345,23.0802694 530.213627,45.2371979 549.730444,70.4442068 C599.825703,135.144904 604.117683,212.09759 580.908323,265.134028 C530.411001,380.527047 437.014688,385.643168 418.82063,387.959047 C374.271208,388.629741 321.058339,388.629741 259.182024,387.959047 L254.887813,414.144313 L231.254615,414.144313 L257.479977,246.3022 L280.541816,246.3022 L280.541816,268.935019 L388.732082,268.935019 C422.678886,271.166433 447.622594,260.922458 463.563205,238.203094 C481.598047,210.095274 478.984528,189.513161 471.476875,163.727519 C464.405324,146.577933 450.651192,133.223494 430.21448,123.664202 L447.540599,3.97342116 Z" id="矩形"></path>
                <polygon id="矩形" points="128.444437 119 247.798795 119 181.444437 559 62.8229267 559"></polygon>
                <polygon id="矩形" points="19.4444367 0 417.176243 2.32607683e-12 399.444437 119 -9.10027531e-14 119"></polygon>
            </g>
            <g id="编组" transform="translate(216.5556, 234)" fill="#FF7901">
                <path d="M447.540599,3.97342116 C496.150345,23.0802694 530.213627,45.2371979 549.730444,70.4442068 C599.825703,135.144904 604.117683,212.09759 580.908323,265.134028 C530.411001,380.527047 437.014688,385.643168 418.82063,387.959047 C374.271208,388.629741 321.058339,388.629741 259.182024,387.959047 L254.887813,414.144313 L231.254615,414.144313 L257.479977,246.3022 L280.541816,246.3022 L280.541816,268.935019 L388.732082,268.935019 C422.678886,271.166433 447.622594,260.922458 463.563205,238.203094 C481.598047,210.095274 478.984528,189.513161 471.476875,163.727519 C464.405324,146.577933 450.651192,133.223494 430.21448,123.664202 L447.540599,3.97342116 Z" id="矩形"></path>
                <polygon id="矩形" points="128.444437 119 247.798795 119 181.444437 559 62.8229267 559"></polygon>
                <polygon id="矩形" points="19.4444367 0 417.176243 2.32607683e-12 399.444437 119 -9.10027531e-14 119"></polygon>
            </g>
        </g>
    </g>
</svg>