<?xml version="1.0" encoding="UTF-8"?>
<svg width="1025px" height="1024px" viewBox="0 0 1025 1024" version="1.1" xmlns="http://www.w3.org/2000/svg" xmlns:xlink="http://www.w3.org/1999/xlink">
    <title>Pthome</title>
    <defs>
        <rect id="path-1" x="0" y="0" width="1024" height="1024"></rect>
    </defs>
    <g id="ICON-新版方图标" stroke="none" stroke-width="1" fill="none" fill-rule="evenodd">
        <g id="Pthome" transform="translate(0.061, 0)">
            <mask id="mask-2" fill="white">
                <use xlink:href="#path-1"></use>
            </mask>
            <use id="蒙版" fill="#FFB21D" xlink:href="#path-1"></use>
            <g id="编组-4" mask="url(#mask-2)" fill="#FFFFFF">
                <g transform="translate(193.3744, 590.6351)" id="矩形">
                    <path d="M99.9381344,92.5351243 L176.209389,81.856797 C179.906987,82.1838104 183.894506,84.4126551 188.171946,88.5433311 C194.588106,94.7393452 196.760125,118.600327 195.399682,127.844379 C194.03924,137.08843 195.137785,154.834654 179.147466,169.146503 C163.157146,183.458352 148.230414,175.463303 140.695336,184.492388 C133.160257,193.521473 135.815676,203.41133 127.01196,210.898168 C121.142817,215.889394 112.118208,217.768379 99.9381344,216.535124 L99.9381344,92.5351243 Z" transform="translate(147.8629, 149.3792) rotate(46) translate(-147.8629, -149.3792)"></path>
                    <path d="M33.9381344,24.5351243 L110.209389,13.856797 C113.906987,14.1838104 117.894506,16.4126551 122.171946,20.5433311 C128.588106,26.7393452 130.760125,50.6003267 129.399682,59.8443785 C128.03924,69.0884304 129.137785,86.8346538 113.147466,101.146503 C97.1571462,115.458352 82.2304141,107.463303 74.6953355,116.492388 C67.1602569,125.521473 69.8156759,135.41133 61.0119603,142.898168 C55.1428165,147.889394 46.1182079,149.768379 33.9381344,148.535124 L33.9381344,24.5351243 Z" transform="translate(81.8629, 81.3792) scale(-1, 1) rotate(-46) translate(-81.8629, -81.3792)"></path>
                </g>
            </g>
            <g id="编组-3" mask="url(#mask-2)" fill="#FFFFFF">
                <g transform="translate(207.1806, 231.7496)" id="多边形">
                    <path d="M568.246593,10.6898291 C569.977609,10.936978 571.501889,11.6238505 572.819433,12.7504466 C584.319433,22.5837799 585.4861,50.5837799 576.319433,96.7504466 C565.487442,154.854139 549.154108,204.020806 527.319433,244.250447 C505.484759,284.480087 472.651425,326.480087 428.819433,370.250447 C438.320424,388.283206 444.487091,401.366539 447.319433,409.500447 C450.151776,417.634354 449.151776,429.80102 444.319433,446.000447 C440.602066,462.001778 426.352066,481.501778 401.569433,504.500447 C378.508834,525.901042 343.426642,549.467433 296.322858,575.19962 C294.814913,576.023391 290.415246,579.173699 285.569433,578.250447 C283.776258,577.9088 280.526258,575.992134 275.819433,572.500447 L266.569433,565.000447 C262.184039,560.640495 259.517373,556.890495 258.569433,553.750447 C257.621494,550.610398 257.038161,545.360398 256.819433,538.000447 C255.152767,515.667113 253.7361,500.08378 252.569433,491.250447 C250.819433,478.000447 251.129766,467.192634 240.319433,456.500447 C235.720308,451.951585 217.789819,445.129443 197.069433,431.250447 C189.236951,426.004068 176.903618,415.504068 160.069433,399.750447 C423.268933,139.103331 559.327986,9.4164589 568.246593,10.6898291 Z"></path>
                    <path d="M479.697473,-73.8592905 C481.428489,-73.6121415 482.952769,-72.9252691 484.270314,-71.798673 C495.770314,-61.9653396 496.936981,-33.9653396 487.770314,12.201327 C476.938322,70.3050198 460.604989,119.471686 438.770314,159.701327 C416.935639,199.930968 384.102306,241.930968 340.270314,285.701327 C349.771305,303.734087 355.937971,316.81742 358.770314,324.951327 C361.602657,333.085234 360.602657,345.251901 355.770314,361.451327 C352.052947,377.452658 337.802947,396.952658 313.020314,419.951327 C289.959714,441.351922 254.877522,464.918314 207.773739,490.650501 C206.265794,491.474272 201.866127,494.62458 197.020314,493.701327 C195.227138,493.359681 191.977138,491.443014 187.270314,487.951327 L178.020314,480.451327 C173.63492,476.091376 170.968253,472.341376 170.020314,469.201327 C169.072375,466.061279 168.489041,460.811279 168.270314,453.451327 C166.603647,431.117994 165.186981,415.53466 164.020314,406.701327 C162.270314,393.451327 162.580647,382.643514 151.770314,371.951327 C147.171188,367.402465 129.2407,360.580324 108.520314,346.701327 C100.687832,341.454948 89.1372794,329.821063 73.8686576,311.799671 C335.502594,53.4203264 470.778866,-75.1326606 479.697473,-73.8592905 Z" transform="translate(283.8689, 210.0002) scale(-1, 1) rotate(-90) translate(-283.8689, -210.0002)"></path>
                </g>
            </g>
            <path d="M577.385297,329.580713 C587.325651,327.095669 616.21073,319.691632 646.549035,330.550141 C651.922085,332.473232 673.187687,345.324851 681.547366,365.309915 C693.323228,393.461879 691.510705,432.41292 688.310697,445.677087 C685.585083,456.974871 671.376514,472.690707 653.160847,481.363052 C634.808419,490.100508 612.429456,491.750894 604.663141,491.389765 C596.472141,491.008887 574.380191,492.497016 557.927026,484.691965 C543.29623,477.751411 533.813562,461.811569 531.998215,455.895103 C527.558853,441.426618 527.305028,416.919215 526.876708,404.999179 C526.306014,389.116937 533.084871,368.498915 543.682478,354.544336 C555.380617,339.140613 571.298508,331.102383 577.385297,329.580713 Z" id="矩形" fill="#FFB21D" mask="url(#mask-2)" transform="translate(608.7747, 408.1187) rotate(46) translate(-608.7747, -408.1187)"></path>
        </g>
    </g>
</svg>