<?xml version="1.0" encoding="UTF-8"?>
<svg width="1024px" height="1024px" viewBox="0 0 1024 1024" version="1.1" xmlns="http://www.w3.org/2000/svg" xmlns:xlink="http://www.w3.org/1999/xlink">
    <title>Pttime</title>
    <g id="ICON-新版方图标" stroke="none" stroke-width="1" fill="none" fill-rule="evenodd">
        <g id="Pttime">
            <rect id="蒙版路径" fill="#5C7B97" x="0" y="0" width="1024" height="1024"></rect>
            <circle id="椭圆形" fill="#FFFFFF" cx="218" cy="290" r="59"></circle>
            <g id="PT" transform="translate(250.92, 367.36)" fill="#FFFFFF" fill-rule="nonzero">
                <path d="M156.02,239.72 C141.713333,241.266667 128.373333,241.073333 116,239.14 C107.88,237.593333 97.0533333,232.953333 83.52,225.22 C77.72,221.74 75.4,217.486667 76.56,212.46 C77.72,207.433333 81.5866667,204.533333 88.16,203.76 C106.72,201.826667 127.213333,199.216667 149.64,195.93 C172.066667,192.643333 193.333333,186.94 213.44,178.82 C249.786667,162.58 267.96,138.8 267.96,107.48 C267.96,90.08 261,75.7733333 247.08,64.56 C233.16,53.3466667 216.146667,47.9333333 196.04,48.32 C158.146667,50.64 121.993333,57.4066667 87.58,68.62 C79.0733333,72.1 71.7266667,70.7466667 65.54,64.56 C63.22,63.0133333 61.2866667,61.2733333 59.74,59.34 L59.74,371.38 C59.74,378.726667 58.0966667,383.463333 54.81,385.59 C51.5233333,387.716667 46.4,388.2 39.44,387.04 C27.84,383.56 18.9466667,380.08 12.76,376.6 C7.73333333,373.893333 4.25333333,370.606667 2.32,366.74 C0.773333333,363.646667 0,358.426667 0,351.08 L0,23.38 C0,14.8733333 2.32,9.46 6.96,7.14 C10.8266667,5.20666667 17.2066667,5.4 26.1,7.72 C33.06,9.26666667 43.5,13.9066667 57.42,21.64 C104.98,7.33333333 150.22,0.18 193.14,0.18 C231.806667,0.18 263.513333,9.26666667 288.26,27.44 C314.94,47.16 328.473333,74.0333333 328.86,108.06 C328.86,155.62 301.02,191.966667 245.34,217.1 C215.566667,229.86 185.793333,237.4 156.02,239.72 Z" id="路径"></path>
                <path d="M552.74,107.48 L552.74,370.8 C552.74,378.533333 551.096667,383.463333 547.81,385.59 C544.523333,387.716667 539.4,388.006667 532.44,386.46 C521.613333,383.753333 512.72,380.273333 505.76,376.02 C499.96,372.926667 496.286667,369.833333 494.74,366.74 C493.193333,363.646667 492.42,358.426667 492.42,351.08 L492.42,79.06 C492.42,70.1666667 494.546667,64.56 498.8,62.24 C466.32,65.3333333 431.713333,69.78 394.98,75.58 C383.766667,77.1266667 374.486667,75.58 367.14,70.94 C359.406667,65.5266667 352.253333,58.9533333 345.68,51.22 C342.2,46.58 341.426667,41.94 343.36,37.3 C345.293333,32.66 349.16,30.1466667 354.96,29.76 C456.653333,15.0666667 553.32,5.20666667 644.96,0.18 C661.973333,-0.98 674.733333,3.46666667 683.24,13.52 C688.653333,19.32 692.713333,26.4733333 695.42,34.98 C697.74,41.1666667 696.966667,45.8066667 693.1,48.9 C690.006667,51.22 684.786667,52.38 677.44,52.38 C636.453333,50.8333333 580.966667,53.7333333 510.98,61.08 L519.1,62.82 C531.086667,65.5266667 542.106667,70.5533333 552.16,77.9 C563.76,86.7933333 563.953333,96.6533333 552.74,107.48 Z" id="路径"></path>
            </g>
        </g>
    </g>
</svg>