<?xml version="1.0" encoding="UTF-8"?>
<svg width="1025px" height="1024px" viewBox="0 0 1025 1024" version="1.1" xmlns="http://www.w3.org/2000/svg" xmlns:xlink="http://www.w3.org/1999/xlink">
    <title>Pve</title>
    <g id="ICON-新版方图标" stroke="none" stroke-width="1" fill="none" fill-rule="evenodd">
        <g id="Pve" transform="translate(0.3975, 0)">
            <rect id="蒙版路径" fill="#FFFFFF" x="0" y="0" width="1024" height="1024"></rect>
            <path d="M513.866812,488.504407 L765.366812,216.504407 C747.552225,196.634316 725.885558,185.300982 700.366812,182.504407 C697.026651,182.138382 658.366812,176.504407 624.366812,200.504407 C601.700146,216.504407 565.033479,256.171074 514.366812,319.504407 C460.310668,255.153978 422.644001,215.487311 401.366812,200.504407 C369.451029,178.030052 341.056403,181.257518 329.366812,182.504407 C303.489099,185.264697 280.155766,196.59803 259.366812,216.504407 L513.866812,488.504407 Z" id="多边形" fill="#353A3C"></path>
            <path d="M513.866812,840.504407 L765.366812,568.504407 C747.552225,548.634316 725.885558,537.300982 700.366812,534.504407 C697.026651,534.138382 658.366812,528.504407 624.366812,552.504407 C601.700146,568.504407 565.033479,608.171074 514.366812,671.504407 C460.310668,607.153978 422.644001,567.487311 401.366812,552.504407 C369.451029,530.030052 341.056403,533.257518 329.366812,534.504407 C303.489099,537.264697 280.155766,548.59803 259.366812,568.504407 L513.866812,840.504407 Z" id="多边形" fill="#353A3C" transform="translate(512.3668, 687.0495) scale(1, -1) translate(-512.3668, -687.0495)"></path>
            <path d="M710.666981,697.691856 C831.102684,596.715013 904.956682,529.327013 932.228974,495.527856 C965.790111,453.934795 959.574327,403.486489 958.970407,395.979396 C957.630357,379.321735 947.302728,359.805188 927.987521,337.429753 L713.882467,529.144721 L506.051793,330.064837 C486.648003,353.125588 475.926473,375.275179 473.887204,396.513608 C473.459297,400.970138 465.316658,445.578968 498.295075,487.953511 C524.383434,521.4749 595.174069,591.387681 710.666981,697.691856 Z" id="多边形" fill="#E46701" transform="translate(716.2498, 513.8783) rotate(89) translate(-716.2498, -513.8783)"></path>
            <path d="M299.666981,697.691856 C420.102684,596.715013 493.956682,529.327013 521.228974,495.527856 C554.790111,453.934795 548.574327,403.486489 547.970407,395.979396 C546.630357,379.321735 536.302728,359.805188 516.987521,337.429753 L302.882467,529.144721 L95.0517933,330.064837 C75.6480027,353.125588 64.9264727,375.275179 62.8872036,396.513608 C62.459297,400.970138 54.3166583,445.578968 87.2950746,487.953511 C113.383434,521.4749 184.174069,591.387681 299.666981,697.691856 Z" id="多边形" fill="#E46701" transform="translate(305.2498, 513.8783) scale(-1, 1) rotate(89) translate(-305.2498, -513.8783)"></path>
        </g>
    </g>
</svg>