<?xml version="1.0" encoding="UTF-8"?>
<svg width="1025px" height="1024px" viewBox="0 0 1025 1024" version="1.1" xmlns="http://www.w3.org/2000/svg" xmlns:xlink="http://www.w3.org/1999/xlink">
    <title>Qbittorrent</title>
    <defs>
        <linearGradient x1="23.0673701%" y1="9.14474815%" x2="81.3536307%" y2="94.5147894%" id="linearGradient-1">
            <stop stop-color="#67A7EC" offset="0%"></stop>
            <stop stop-color="#528ED8" offset="49.5337195%"></stop>
            <stop stop-color="#3C76C4" offset="100%"></stop>
        </linearGradient>
        <linearGradient x1="23.0673701%" y1="9.14474815%" x2="81.3536307%" y2="94.5147894%" id="linearGradient-2">
            <stop stop-color="#67A7EC" offset="0%"></stop>
            <stop stop-color="#528ED8" offset="49.5337195%"></stop>
            <stop stop-color="#3C76C4" offset="100%"></stop>
        </linearGradient>
    </defs>
    <g id="ICON-新版方图标" stroke="none" stroke-width="1" fill="none" fill-rule="evenodd">
        <g id="Qbittorrent" transform="translate(0.3975, 0)">
            <rect id="蒙版路径" fill="url(#linearGradient-1)" x="0" y="0" width="1024" height="1024"></rect>
            <g id="编组-23" transform="translate(112.0132, 111.7874)">
                <g id="编组-17">
                    <path d="M399.997791,0 C506.084973,0 607.8271,42.1425035 682.842066,117.156641 C757.857031,192.170778 800,293.911781 800,399.997791 C800,506.084567 757.85872,607.826705 682.843628,682.841798 C607.828535,757.85689 506.085738,800 399.997791,800 C293.910609,800 192.168948,757.855201 117.15481,682.840236 C42.1406733,607.82527 0,506.083801 0,399.997791 C0,179.086837 179.084396,0 399.997791,0 Z" id="路径" fill="#B8CDEB" fill-rule="nonzero"></path>
                    <path d="M34.2025606,400.094791 C34.2025606,602.132144 197.982781,765.922678 400.022366,765.922678 C497.046655,765.922678 590.097021,727.380078 658.703175,658.773925 C727.309328,590.167772 765.850253,497.118007 765.850253,400.094791 C765.850253,198.057437 602.065992,34.270944 400.026407,34.270944 C197.984359,34.270944 34.2025606,198.059015 34.2025606,400.094791 Z" id="路径" fill="url(#linearGradient-2)"></path>
                </g>
                <g id="编组-22" transform="translate(439.3217, 130.1713)" fill-rule="nonzero">
                    <path d="M0,0 L51.8460898,0 L51.8460898,150.640955 C73.7345062,123.184468 101.675876,109.454204 135.662117,109.454204 C154.48365,109.454204 172.242481,113.292859 188.950734,120.974211 C205.848898,128.461609 219.672098,139.116908 230.424373,152.944148 C241.370602,166.577435 249.916661,183.091734 256.06255,202.483004 C262.204398,221.878315 265.275322,242.619175 265.275322,264.701545 C265.275322,317.121412 252.31683,357.637409 226.391765,386.249533 C200.47074,414.861657 169.36147,429.165699 133.072035,429.165699 C96.9684727,429.165699 68.6472781,414.093927 48.1003703,383.95038 L48.1003703,422.25612 L0,422.25612 L0,0 Z" id="路径" fill="#FFFFFF"></path>
                    <path d="M131.055731,152.079441 C153.521966,152.079441 172.626348,161.587184 188.372915,180.598628 C204.309395,199.606033 212.281677,229.082864 212.281677,269.021042 C212.281677,308.001576 204.022507,337.381431 187.512248,357.160608 C170.993909,376.745831 151.408686,386.536422 128.748497,386.536422 C100.908145,386.536422 78.825775,373.194064 62.5054297,346.501268 C52.5168445,330.176881 47.5265922,303.682079 47.5265922,267.004738 C47.5265922,229.75362 55.7817211,201.335448 72.2960203,181.746184 C88.8103195,161.971048 108.395542,152.079441 131.055731,152.079441 L131.055731,152.079441 Z" id="路径" fill="#4682CE"></path>
                </g>
                <g id="编组-21" transform="translate(93.3942, 239.6214)" fill-rule="nonzero">
                    <path d="M129.039427,0 C166.868364,0 196.632084,15.9405211 218.330589,47.813482 L218.330589,6.91766094 L264.992474,6.91766094 L264.992474,430.034447 L213.146384,430.034447 L213.146384,280.2582 C205.081167,291.584253 193.751073,300.99502 179.156102,308.486459 C164.755084,315.973857 149.396422,319.719576 133.072035,319.719577 C96.7826008,319.719577 65.4793773,305.217541 39.1744867,276.225592 C13.0595086,247.229602 0,207.481338 0,156.980797 C0,126.255392 5.28118125,98.7019289 15.8435445,74.3163656 C26.5958203,49.9267625 42.0554992,31.4931359 62.2185406,19.0114453 C82.5714945,6.33984219 104.847817,0 129.039427,0 L129.039427,0 Z" id="路径" fill="#C8E8FF"></path>
                    <path d="M133.936743,40.9039023 C156.596931,40.9039023 176.27509,51.1753359 192.983342,71.722243 C209.881507,92.26915 218.330589,122.893538 218.330589,163.603487 C218.330589,201.816291 210.362349,230.331438 194.421827,249.14893 C178.485347,267.776509 159.473902,277.090299 137.391533,277.090299 C114.35152,277.090299 94.5723438,267.295667 78.0580445,247.710445 C61.5437453,227.931268 53.2886164,198.35746 53.2886164,158.99306 C53.2886164,118.477064 61.0669445,88.7173844 76.6195586,69.7059391 C92.3661266,50.5045812 111.470508,40.9039023 133.936743,40.9039023 L133.936743,40.9039023 Z" id="路径" fill="#5491DA"></path>
                </g>
            </g>
        </g>
    </g>
</svg>