<?xml version="1.0" encoding="UTF-8"?>
<svg width="1025px" height="1024px" viewBox="0 0 1025 1024" version="1.1" xmlns="http://www.w3.org/2000/svg" xmlns:xlink="http://www.w3.org/1999/xlink">
    <title>Qingwa</title>
    <g id="ICON-新版方图标" stroke="none" stroke-width="1" fill="none" fill-rule="evenodd">
        <g id="Qingwa" transform="translate(0.2604, -0.0008)">
            <rect id="蒙版路径" fill="#FFFFFF" x="0" y="0" width="1024" height="1024"></rect>
            <g id="编组-49" transform="translate(129.7396, 131.0008)">
                <g id="编组-45">
                    <rect id="矩形" fill="#000000" x="239" y="238" width="143" height="48"></rect>
                    <rect id="矩形" fill="#000000" transform="translate(309.5, 192) rotate(90) translate(-309.5, -192)" x="262" y="168" width="95" height="48"></rect>
                    <rect id="矩形" fill="#000000" x="334" y="48" width="48" height="48"></rect>
                    <rect id="矩形" fill="#000000" x="191" y="48" width="48" height="48"></rect>
                    <rect id="矩形" fill="#000000" x="191" y="287" width="48" height="48"></rect>
                    <rect id="矩形" fill="#000000" x="48" y="571" width="48" height="95"></rect>
                    <rect id="矩形" fill="#000000" x="143" y="619" width="48" height="95"></rect>
                    <rect id="矩形" fill="#000000" x="191" y="666" width="48" height="95"></rect>
                    <rect id="矩形" fill="#000000" x="95" y="666" width="48" height="48"></rect>
                    <rect id="矩形" fill="#1BB401" x="143" y="523" width="48" height="96"></rect>
                    <rect id="矩形" fill="#1BB401" x="191" y="571" width="48" height="95"></rect>
                    <rect id="矩形" fill="#1BB401" x="239" y="618" width="143" height="95"></rect>
                    <rect id="矩形" fill="#000000" x="239" y="713" width="145" height="48"></rect>
                    <rect id="矩形" fill="#000000" x="143" y="334" width="48" height="48"></rect>
                    <rect id="矩形" fill="#000000" x="286" y="380" width="48" height="48"></rect>
                    <rect id="矩形" fill="#000000" x="48" y="286" width="48" height="48"></rect>
                    <rect id="矩形" fill="#000000" x="0" y="334" width="48" height="285"></rect>
                    <rect id="矩形" fill="#000000" x="95" y="382" width="48" height="237"></rect>
                    <rect id="矩形" fill="#000000" x="239" y="0" width="95" height="48"></rect>
                    <polygon id="矩形" fill="#000000" points="143.5 96 191 96 191 286 96 286 96 239.454813 143.5 239.454813"></polygon>
                    <rect id="矩形" fill="#000000" x="239" y="0" width="95" height="48"></rect>
                    <rect id="矩形" fill="#0DF113" x="48" y="334" width="95" height="48"></rect>
                    <rect id="矩形" fill="#0DF113" x="286" y="428" width="96" height="143"></rect>
                    <rect id="矩形" fill="#0DF113" x="191" y="334" width="95" height="48"></rect>
                    <rect id="矩形" fill="#0DF113" x="239" y="286" width="95" height="48"></rect>
                    <rect id="矩形" fill="#0DF113" x="286" y="334" width="96" height="47"></rect>
                    <rect id="矩形" fill="#0DF113" x="334" y="381" width="48" height="47"></rect>
                    <rect id="矩形" fill="#0DF113" x="334" y="286" width="48" height="48"></rect>
                    <rect id="矩形" fill="#0DF113" x="191" y="523" width="95" height="48"></rect>
                    <rect id="矩形" fill="#0DF113" x="239" y="571" width="143" height="47"></rect>
                    <rect id="矩形" fill="#0DF113" x="96" y="286" width="95" height="48"></rect>
                    <rect id="矩形" fill="#0DF113" x="143" y="382" width="143" height="141"></rect>
                    <rect id="矩形" fill="#0DF113" x="334" y="96" width="48" height="48"></rect>
                    <rect id="矩形" fill="#0DF113" x="191" y="96" width="48" height="48"></rect>
                    <rect id="矩形" fill="#0DF113" x="239" y="48" width="95" height="48"></rect>
                </g>
                <g id="编组-45" transform="translate(572, 380.5) scale(-1, 1) translate(-572, -380.5)translate(380, 0)">
                    <rect id="矩形" fill="#000000" x="239" y="238" width="143" height="48"></rect>
                    <rect id="矩形" fill="#000000" transform="translate(309.5, 192) rotate(90) translate(-309.5, -192)" x="262" y="168" width="95" height="48"></rect>
                    <rect id="矩形" fill="#000000" x="334" y="48" width="48" height="48"></rect>
                    <rect id="矩形" fill="#000000" x="191" y="48" width="48" height="48"></rect>
                    <rect id="矩形" fill="#000000" x="191" y="287" width="48" height="48"></rect>
                    <rect id="矩形" fill="#000000" x="48" y="571" width="48" height="95"></rect>
                    <rect id="矩形" fill="#000000" x="143" y="619" width="48" height="95"></rect>
                    <rect id="矩形" fill="#000000" x="191" y="666" width="48" height="95"></rect>
                    <rect id="矩形" fill="#000000" x="95" y="666" width="48" height="48"></rect>
                    <rect id="矩形" fill="#1BB401" x="143" y="523" width="48" height="96"></rect>
                    <rect id="矩形" fill="#1BB401" x="191" y="571" width="48" height="95"></rect>
                    <rect id="矩形" fill="#1BB401" x="239" y="618" width="143" height="95"></rect>
                    <rect id="矩形" fill="#000000" x="239" y="713" width="145" height="48"></rect>
                    <rect id="矩形" fill="#000000" x="143" y="334" width="48" height="48"></rect>
                    <rect id="矩形" fill="#000000" x="286" y="380" width="48" height="48"></rect>
                    <rect id="矩形" fill="#000000" x="48" y="286" width="48" height="48"></rect>
                    <rect id="矩形" fill="#000000" x="0" y="334" width="48" height="285"></rect>
                    <rect id="矩形" fill="#000000" x="95" y="382" width="48" height="237"></rect>
                    <rect id="矩形" fill="#000000" x="239" y="0" width="95" height="48"></rect>
                    <polygon id="矩形" fill="#000000" points="143.5 96 191 96 191 286 96 286 96 239.454813 143.5 239.454813"></polygon>
                    <rect id="矩形" fill="#000000" x="239" y="0" width="95" height="48"></rect>
                    <rect id="矩形" fill="#0DF113" x="48" y="334" width="95" height="48"></rect>
                    <rect id="矩形" fill="#0DF113" x="286" y="428" width="96" height="143"></rect>
                    <rect id="矩形" fill="#0DF113" x="191" y="334" width="95" height="48"></rect>
                    <rect id="矩形" fill="#0DF113" x="239" y="286" width="95" height="48"></rect>
                    <rect id="矩形" fill="#0DF113" x="286" y="334" width="96" height="47"></rect>
                    <rect id="矩形" fill="#0DF113" x="334" y="381" width="48" height="47"></rect>
                    <rect id="矩形" fill="#0DF113" x="334" y="286" width="48" height="48"></rect>
                    <rect id="矩形" fill="#0DF113" x="191" y="523" width="95" height="48"></rect>
                    <rect id="矩形" fill="#0DF113" x="239" y="571" width="143" height="47"></rect>
                    <rect id="矩形" fill="#0DF113" x="96" y="286" width="95" height="48"></rect>
                    <rect id="矩形" fill="#0DF113" x="143" y="382" width="143" height="141"></rect>
                    <rect id="矩形" fill="#0DF113" x="334" y="96" width="48" height="48"></rect>
                    <rect id="矩形" fill="#0DF113" x="191" y="96" width="48" height="48"></rect>
                    <rect id="矩形" fill="#0DF113" x="239" y="48" width="95" height="48"></rect>
                </g>
            </g>
        </g>
    </g>
</svg>