<?xml version="1.0" encoding="UTF-8"?>
<svg width="1024px" height="1024px" viewBox="0 0 1024 1024" version="1.1" xmlns="http://www.w3.org/2000/svg" xmlns:xlink="http://www.w3.org/1999/xlink">
    <title>Qnap</title>
    <g id="ICON-新版方图标" stroke="none" stroke-width="1" fill="none" fill-rule="evenodd">
        <g id="Qnap" transform="translate(0, -0.0008)">
            <rect id="蒙版路径" fill="#FFFFFF" x="0" y="0" width="1024" height="1024"></rect>
            <g id="编组" transform="translate(112, 438.0008)" fill-rule="nonzero">
                <path d="M142.308361,0.128865092 L142.308361,0.0143183436 L137.785878,0.0143183436 C137.616447,0.0143183436 137.46396,0 137.297137,0 L137.297137,0.0143183436 L46.5854938,0.0143183436 C15.5158993,0.0143183436 0,12.5285506 0,37.5505069 L0,106.462091 C0,131.325244 15.5198092,143.765281 46.5854938,143.765281 L137.415738,143.765281 L137.415738,143.721024 C168.370641,143.683276 183.863081,131.264066 183.863081,106.459488 L183.863081,37.5479035 C183.860474,13.8887933 170.003688,1.42662769 142.308361,0.128865092 Z M132.366717,108.790774 L57.0315193,108.790774 L57.0315193,34.2013161 L132.366717,34.2013161 L132.366717,108.790774 Z" id="形状" fill="#27387D"></path>
                <g transform="translate(204.401, 1.956)" fill="#27387D">
                    <path d="M393.162935,141.807985 L339.127607,141.807985 L339.127607,104.025515 L263.475804,104.025515 L263.475804,141.807985 L209.466534,141.807985 L209.466534,30.8057383 C209.466534,21.3375962 213.007826,13.8137464 220.156859,8.18718121 C227.124789,2.72253155 237.078973,0.00130577052 250.023322,0.00130577052 L352.847184,0.00130577052 C365.791533,0.00130577052 375.739203,2.72253155 382.707132,8.18718121 C389.686788,13.645302 393.162935,21.2109365 393.162935,30.8057383 L393.162935,141.807985 L393.162935,141.807985 Z M339.125001,77.9048813 L339.125001,36.8684309 L263.473198,36.8684309 L263.473198,77.9048813 L339.125001,77.9048813 Z" id="形状"></path>
                    <path d="M586.90342,7.10730899 C581.450768,2.76562198 573.049645,0.442656209 561.795162,0.0744289201 L561.985386,0.02480964 L559.872076,0.02480964 C559.419969,0.0156692463 559.008251,0 558.524874,0 L462.35885,0 L462.31846,0.02480964 L459.175856,0.02480964 C446.231508,0.02480964 436.28514,2.72775463 429.311999,8.205462 C422.340161,13.6439963 418.807989,20.9902612 418.625583,30.1424069 L418.608645,30.1424069 L418.608645,30.4806015 C418.608645,30.6242362 418.596919,30.7156401 418.596919,30.8370768 L418.608645,30.8370768 L418.608645,141.807985 L472.650487,141.807985 L472.650487,104.763275 L560.008881,104.763275 C583.733456,104.763275 595.599011,95.2429024 595.599011,76.1016122 L595.599011,30.6216247 C595.605515,19.6988542 592.702645,11.8799003 586.90342,7.10730899 Z M540.626885,73.6219539 L471.900015,73.6219539 L471.900015,36.8710424 L540.626885,36.8710424 L540.626885,73.6219539 L540.626885,73.6219539 Z" id="形状"></path>
                    <path d="M141.560493,0 L141.560493,0 L133.49161,0 L133.49161,82.4881358 C133.135917,83.3538617 132.363296,84.0015239 130.712516,83.7090313 C130.712516,83.7090313 129.651953,83.4870503 128.902783,82.6944476 C119.78376,68.5607874 84.6692006,20.1885181 73.4290499,4.77520282 C73.4016889,4.71252584 73.3391496,4.67204695 73.292245,4.61198151 L73.3248176,4.61198151 C73.1528343,4.4396198 72.9600046,4.27509271 72.7671748,4.12754064 C72.6824861,3.99565782 72.6069177,3.89250195 72.4961708,3.8546346 C69.6402058,1.27704358 65.8891459,0.00261154106 60.9029332,0.00261154106 L17.2595661,0.00261154106 C11.7652209,0.00261154106 7.55032727,1.5682304 4.59534155,4.63679115 C1.62341808,7.74583078 0.145925221,11.9347426 0.0807800329,17.1055939 L0,17.144767 L0,141.809291 L51.0451634,141.809291 C51.0451634,141.809291 50.7598275,75.9540601 50.6243255,56.5476985 C50.8406075,55.2602088 51.7721837,53.3916511 55.6678659,53.8643401 C55.6678659,53.8643401 57.1662052,53.9766363 57.8046281,55.1113509 L57.8046281,55.1113509 C67.6545805,70.8720012 132.196524,141.809291 132.196524,141.809291 L185.214284,141.809291 L185.214284,0.00261154106 L141.560493,0.00261154106 L141.560493,0 Z" id="路径"></path>
                </g>
                <path d="M87.0415648,89.9755501 C87.0415648,89.9755501 144.15167,122.700696 156.047766,148.655257 L200.488998,148.655257 C196.804642,139.940577 175.623504,101.174205 87.0415648,89.9755501 Z" id="路径" stroke="#FFFFFF" stroke-width="1.4328" fill="#EC2727"></path>
            </g>
        </g>
    </g>
</svg>