<?xml version="1.0" encoding="UTF-8"?>
<svg width="1024px" height="1024px" viewBox="0 0 1024 1024" version="1.1" xmlns="http://www.w3.org/2000/svg" xmlns:xlink="http://www.w3.org/1999/xlink">
    <title>Safe.line</title>
    <defs>
        <path d="M335.925373,330.777328 C356.039659,351.175338 386.211087,360.558422 426.439659,358.926581 C466.66823,357.294741 495.163468,341.384293 511.925373,311.195238 C527.569818,338.936532 554.947595,354.846979 594.058706,358.926581 C633.169818,363.006183 664.458706,353.623099 687.925373,330.777328 C681.220611,347.095736 671.163468,360.966382 657.753945,372.389268 C644.344421,383.812154 625.906326,390.747477 602.439659,393.195238 L511.925373,393.195238 L418.058706,393.195238 C402.414262,392.379318 385.652357,385.443994 367.772992,372.389268 C349.893627,359.334542 339.277754,345.463895 335.925373,330.777328 Z" id="path-1"></path>
        <filter x="-2.4%" y="-5.5%" width="104.8%" height="122.0%" filterUnits="objectBoundingBox" id="filter-2">
            <feOffset dx="0" dy="5" in="SourceAlpha" result="shadowOffsetOuter1"></feOffset>
            <feGaussianBlur stdDeviation="2" in="shadowOffsetOuter1" result="shadowBlurOuter1"></feGaussianBlur>
            <feColorMatrix values="0 0 0 0 0   0 0 0 0 0   0 0 0 0 0  0 0 0 0.5 0" type="matrix" in="shadowBlurOuter1"></feColorMatrix>
        </filter>
    </defs>
    <g id="ICON-新版方图标" stroke="none" stroke-width="1" fill="none" fill-rule="evenodd">
        <g id="Safe.line">
            <rect id="蒙版路径" fill="#FFFFFF" x="0" y="0" width="1024" height="1024"></rect>
            <path d="M538,151 C601,193 601.039873,193.146037 662,217 C722.960127,240.853963 742,243 787,246 C832,249 832,249 843,287 C849,322.333333 852,358.666667 852,396 C851.604313,506.862745 822.27098,604.529412 764,689 C705.72902,773.470588 621.72902,838.470588 512,884 C396.666667,834 311.666667,769 257,689 C202.722207,612.093274 173.388874,515.093274 169,398 C171.666667,343.333333 174.333333,306.333333 177,287 C189,248 200,248 220,246 C288,241 288,241 359,217 C406.795295,199.930252 448.795295,177.930252 485,151 C503,138.333333 520.666667,138.333333 538,151 Z" id="矩形" fill="#4B4B4B"></path>
            <path d="M512,741 C641.786916,741 747,635.786916 747,506 C747,441.251308 720.813955,382.618696 678.454461,340.114758 C623,381 577.038225,379 512,379 C447.442911,379 405,383 346.492512,339.169916 C303.576659,381.747656 277,440.770172 277,506 C277,635.786916 382.213084,741 512,741 Z" id="椭圆形" fill="#15B9B6"></path>
            <polygon id="矩形" fill="#FFFFFF" points="379 526 420 551 420 567 514 621 563 592 486 545 527 523 643 592 512 667 379 591"></polygon>
            <polygon id="矩形" fill="#FFFFFF" transform="translate(512, 446) scale(-1, -1) translate(-512, -446)" points="380 377 421 402 421 418 515 472 564 443 487 396 528 374 644 443 513 518 380 442"></polygon>
            <path d="M407,262 C419,278.666667 437,286.333333 461,285 C485,283.666667 502,270.666667 512,246 C521.333333,268.666667 537.666667,281.666667 561,285 C584.333333,288.333333 603,280.666667 617,262 C613,275.333333 607,286.666667 599,296 C591,305.333333 580,311 566,313 L512,313 L456,313 C446.666667,312.333333 436.666667,306.666667 426,296 C415.333333,285.333333 409,274 407,262 Z" id="矩形" fill="#15B9B6"></path>
            <g id="矩形">
                <use fill="black" fill-opacity="1" filter="url(#filter-2)" xlink:href="#path-1"></use>
                <use fill="#15B9B6" fill-rule="evenodd" xlink:href="#path-1"></use>
            </g>
        </g>
    </g>
</svg>