<?xml version="1.0" encoding="UTF-8"?>
<svg width="1024px" height="1024px" viewBox="0 0 1024 1024" version="1.1" xmlns="http://www.w3.org/2000/svg" xmlns:xlink="http://www.w3.org/1999/xlink">
    <title>Shadowrocket</title>
    <g id="ICON-新版方图标" stroke="none" stroke-width="1" fill="none" fill-rule="evenodd">
        <g id="Shadowrocket" fill-rule="nonzero">
            <path d="M510.855866,1023.77117 C343.697877,1023.77117 176.654302,1023.65676 9.49631284,1024 C1.60178769,1024 0,1022.39821 0,1014.50369 C0.228826811,679.501229 0.228826811,344.498771 0,9.49631284 C0,1.60178769 1.60178771,0 9.49631284,0 C344.498771,0.228826811 679.501229,0.228826811 1014.50369,0 C1022.39821,0 1024,1.60178771 1024,9.49631284 C1023.77117,344.498771 1023.77117,679.501229 1024,1014.50369 C1024,1022.39821 1022.39821,1024 1014.50369,1024 C846.659218,1023.65676 678.700335,1023.77117 510.855866,1023.77117 Z" id="路径" fill="#FEFEFE"></path>
            <path d="M645.177207,650.211397 C636.024134,648.724022 626.756648,647.923128 617.946816,645.406034 C606.391061,642.088045 597.123575,642.088045 592.547039,655.474413 C575.842682,655.474413 559.138324,656.961788 542.89162,651.584358 C542.433966,650.096983 542.20514,648.266369 543.578101,647.351061 C553.417654,640.028603 561.541006,630.989944 570.694078,622.981006 C572.181453,621.722458 574.012067,621.150391 576.071508,621.379218 C603.301899,626.413408 630.761117,622.294525 657.991508,623.209832 C661.538324,623.324246 664.055419,620.006257 667.602235,619.663017 C677.327374,617.946816 686.25162,621.951285 695.519106,623.781899 C704.100112,618.862123 713.367598,619.43419 722.749497,618.74771 C733.046704,617.946816 738.767374,620.12067 738.080894,631.333184 C738.195307,637.397095 738.424134,643.346592 738.538547,649.410503 C739.453855,652.842905 739.568268,657.190615 734.991732,653.186145 C725.953073,645.406034 715.999106,645.863687 705.473073,647.465475 C691.62905,649.63933 677.785028,647.007821 663.826592,647.579888 C657.419441,648.037542 651.126704,646.893408 645.177207,650.211397 L645.177207,650.211397 Z" id="路径" fill="#987AE9"></path>
            <path d="M543.23486,649.868156 C559.252737,655.01676 576.529162,649.067263 592.432626,655.474413 C587.284022,664.970726 580.419218,672.750838 570.922905,677.899441 C557.65095,681.331844 544.150168,679.043575 530.878212,678.929162 C510.512626,678.700335 490.147039,679.386816 469.781453,679.272402 C463.145475,679.272402 456.738324,678.700335 450.788827,675.611173 C442.665475,670.46257 436.029497,663.826592 431.910615,655.01676 C433.512402,648.952849 438.546592,651.698771 441.978994,651.469944 C455.59419,650.783464 469.438212,653.414972 482.595754,647.923128 C496.55419,648.724022 510.169385,653.186145 524.471061,651.012291 C530.649385,650.096983 536.713296,646.321341 543.23486,649.868156 L543.23486,649.868156 Z" id="路径" fill="#9D76E8"></path>
            <path d="M483.511061,649.868156 C468.866145,659.250056 452.505028,652.957318 437.059218,654.444693 C435.343017,654.559106 433.512402,653.186145 431.796201,654.902346 C427.219665,641.287151 418.181006,641.973631 406.053184,644.60514 C370.356201,652.499665 334.315978,658.563575 298.504581,666.229274 C287.292067,668.631955 284.202905,665.542793 285.690279,654.902346 C286.834413,646.206927 284.317318,637.168268 287.864134,628.701676 C296.902793,635.909721 308.000894,634.19352 317.840447,633.964693 C340.151061,633.392626 362.347263,633.163799 384.657877,634.88 C407.998212,636.710615 431.567374,634.53676 455.022123,634.19352 C457.768045,634.19352 460.399553,634.079106 463.031061,634.422346 C471.38324,637.397095 478.934525,641.630391 483.511061,649.868156 L483.511061,649.868156 Z" id="路径" fill="#9979E9"></path>
            <path d="M464.289609,636.596201 C442.436648,637.282682 420.469274,638.083575 398.616313,638.426816 C377.221006,638.770056 355.825698,634.079106 334.544804,636.481788 C321.501676,637.969162 308.687374,635.680894 295.873073,636.481788 C288.779441,636.939441 287.177654,634.651173 287.749721,628.701676 C287.864134,626.527821 287.978547,624.353966 288.092961,622.294525 C296.44514,614.972067 316.92514,614.4 327.451173,621.035978 C340.265475,621.608045 352.050056,616.345028 364.635531,615.08648 C370.699441,614.4 376.534525,612.111732 382.712849,612.683799 C404.451397,622.637765 426.990838,618.404469 449.415866,616.802682 C456.395084,621.836872 464.060782,626.527821 464.289609,636.596201 L464.289609,636.596201 Z" id="路径" fill="#987AE9"></path>
            <path d="M445.754637,176.425475 C451.589721,168.53095 459.026592,162.123799 466.921117,156.288715 C493.808268,157.089609 520.809832,157.089609 547.696983,156.403128 C551.129385,156.288715 554.676201,155.831061 557.765363,157.890503 C565.659888,161.094078 571.151732,167.157989 576.300335,173.56514 C576.757989,178.59933 572.75352,177.569609 570.236425,177.569609 C559.595978,177.569609 549.184358,180.773184 538.543911,178.94257 C534.425028,178.256089 530.534972,181.002011 526.301676,181.002011 C514.631508,173.90838 505.135196,183.404693 494.609162,185.00648 C482.938994,181.230838 470.925587,182.832626 459.026592,182.146145 C454.106816,181.917318 447.470838,184.32 445.754637,176.425475 Z" id="路径" fill="#4BB9EF"></path>
            <path d="M483.968715,160.178771 C478.248045,160.407598 471.38324,162.924693 466.921117,156.288715 C479.048939,144.389721 493.121788,135.122235 507.537877,126.197989 C509.711732,124.825028 512,122.53676 514.860335,124.481788 C530.077318,134.435754 546.896089,142.215866 557.765363,157.890503 C533.280894,163.15352 508.567598,159.263464 483.968715,160.178771 Z" id="路径" fill="#47BCF0"></path>
            <path d="M450.788827,675.49676 C468.065251,675.49676 485.227263,675.49676 502.503687,675.611173 C525.386369,675.84 548.26905,674.009385 571.037318,677.899441 C537.17095,702.498324 484.426369,701.468603 450.788827,675.49676 Z" id="路径" fill="#A174E8"></path>
            <path d="M645.177207,650.211397 C650.096983,645.062793 655.70324,644.376313 663.140112,644.261899 C677.899441,643.918659 692.773184,648.037542 707.418101,643.804246 C715.884693,641.287151 724.122458,644.833966 732.474637,645.749274 C736.707933,646.206927 734.648492,650.897877 737.165587,652.385251 C737.28,652.499665 737.852067,652.042011 737.96648,651.813184 C738.195307,651.126704 738.309721,650.32581 738.538547,649.524916 C741.170056,653.758212 739.797095,658.563575 740.140335,663.140112 C740.369162,667.945475 737.62324,669.204022 733.504358,668.403128 C703.985698,662.339218 674.581453,656.275307 645.177207,650.211397 L645.177207,650.211397 Z" id="路径" fill="#9B79E8"></path>
            <path d="M445.754637,176.425475 C455.823017,181.574078 466.577877,178.256089 476.989497,178.713743 C483.968715,179.056983 490.604693,179.514637 496.55419,183.519106 C489.346145,196.905475 478.133631,205.372067 464.175196,210.749497 C454.90771,208.346816 445.52581,207.774749 435.915084,207.660335 C431.567374,207.545922 425.503464,209.262123 424.588156,201.825251 C430.537654,192.328939 437.631285,183.97676 445.754637,176.425475 Z" id="路径" fill="#4EB6EF"></path>
            <path d="M424.70257,201.710838 C429.39352,206.745028 435.45743,204.342346 440.83486,204.227933 C450.102346,204.11352 459.026592,205.028827 467.378771,209.262123 C462.115754,222.076425 455.823017,233.746592 441.178101,237.979888 C432.825922,234.776313 423.901676,236.263687 415.32067,235.233966 C411.316201,234.776313 404.22257,236.492514 406.396425,227.797095 C411.201788,218.300782 417.494525,209.605363 424.70257,201.710838 L424.70257,201.710838 Z" id="路径" fill="#53B2EF"></path>
            <path d="M652.499665,299.534302 C657.419441,309.030615 660.05095,319.213408 661.881564,329.625028 C664.627486,336.375419 659.250056,335.574525 655.932067,335.460112 C647.923128,334.888045 640.028603,336.261006 632.248492,337.74838 C622.637765,328.938547 620.921564,316.810726 618.976536,304.911732 C621.836872,300.564022 626.298994,299.305475 630.989944,299.991955 C638.083575,301.021676 645.29162,299.648715 652.499665,299.534302 L652.499665,299.534302 Z" id="路径" fill="#63A5ED"></path>
            <path d="M589.572291,188.782123 C596.665922,194.38838 601.356872,201.939665 605.704581,209.605363 C604.33162,216.927821 598.153296,216.355754 593.119106,216.584581 C585.453408,217.042235 577.78771,216.927821 570.465251,219.673743 C559.252737,217.156648 552.96,209.262123 548.726704,199.308156 C547.92581,190.955978 553.532067,189.926257 559.710391,189.69743 C569.664358,189.468603 579.732737,189.926257 589.572291,188.782123 L589.572291,188.782123 Z" id="路径" fill="#51B5EF"></path>
            <path d="M348.274413,496.89743 C347.702346,480.650726 344.727598,464.518436 346.787039,448.271732 C348.16,448.042905 349.075307,448.500559 349.761788,449.644693 C352.507709,457.081564 351.363575,464.518436 350.791508,472.527374 C351.821229,473.328268 352.85095,471.497654 354.223911,471.497654 C367.610279,471.955307 377.564246,468.065251 378.36514,452.505028 C379.738101,452.047374 380.882235,452.390615 381.797542,453.534749 C386.374078,467.378771 383.284916,481.79486 384.77229,495.867709 C385.229944,500.444246 380.996648,503.075754 376.877765,504.791955 C369.32648,504.563128 362.004022,502.27486 354.338324,502.046034 C351.592402,501.817207 348.045587,501.24514 348.274413,496.89743 L348.274413,496.89743 Z" id="路径" fill="#808EEB"></path>
            <path d="M703.756872,528.818771 C710.964916,537.17095 716.342346,546.552849 719.889162,557.078883 C719.774749,562.799553 715.083799,562.341899 711.536983,562.68514 C705.015419,563.37162 698.493855,563.37162 691.972291,562.341899 C680.416536,556.850056 677.899441,545.637542 674.695866,534.882682 C682.361564,523.326927 693.230838,526.873743 703.756872,528.818771 Z" id="路径" fill="#8A86EA"></path>
            <path d="M589.572291,188.782123 C580.304804,197.248715 569.092291,191.413631 558.909497,192.672179 C553.760894,193.244246 550.099665,193.473073 550.557318,199.76581 C538.887151,196.562235 530.534972,189.239777 524.699888,178.94257 C539.802458,173.221899 555.820335,177.226369 571.266145,174.709274 C572.982346,174.480447 574.927374,175.510168 576.300335,173.56514 C581.792179,177.684022 585.796648,183.175866 589.572291,188.782123 L589.572291,188.782123 Z" id="路径" fill="#4DB7EF"></path>
            <path d="M305.712626,557.193296 C310.517989,545.294302 316.124246,533.967374 324.934078,524.471061 C334.888045,523.898994 345.070838,521.953966 353.766257,529.276425 C352.622123,541.404246 346.901453,551.129385 337.862793,559.023911 C327.222346,558.451844 316.353073,559.252737 305.712626,557.193296 Z" id="路径" fill="#8987EA"></path>
            <path d="M353.766257,529.619665 C344.613184,525.386369 334.087151,529.047598 324.934078,524.356648 C331.226816,513.830615 339.464581,505.020782 348.274413,496.783017 C352.393296,501.016313 357.656313,499.071285 362.232849,498.956871 C367.495866,498.842458 371.843575,500.215419 375.619218,503.762235 C372.644469,516.118883 363.834637,523.326927 353.766257,529.619665 Z" id="路径" fill="#848BEA"></path>
            <path d="M550.786145,741.97095 C553.875307,744.716872 556.621229,747.69162 557.422123,752.03933 C557.078883,758.44648 551.701453,757.302346 548.040223,757.645587 C540.832179,758.332067 533.509721,757.76 526.301676,759.018547 C516.805363,758.10324 507.423464,757.531173 498.041564,760.162682 C491.062346,758.10324 483.854302,757.988827 476.646257,757.302346 C472.527374,756.959106 466.69229,756.959106 468.980559,749.636648 C470.35352,745.861006 472.298547,742.428603 475.845363,740.140335 C496.783017,741.170056 517.606257,742.199777 538.543911,739.911508 C542.777207,739.568268 546.552849,741.856536 550.786145,741.97095 L550.786145,741.97095 Z" id="路径" fill="#4FB6EF"></path>
            <path d="M380.538994,278.253408 C383.74257,267.612961 388.547933,257.658994 394.726257,248.277095 C401.476648,249.650056 408.227039,249.993296 415.091844,250.222123 C420.926927,250.336536 426.418771,251.709497 430.194413,256.858101 C430.880894,267.384134 426.075531,274.935419 417.380112,280.312849 C406.396425,280.084022 395.412737,278.482235 384.543464,281.113743 C382.484022,281.571397 379.623687,282.143464 380.538994,278.253408 L380.538994,278.253408 Z" id="路径" fill="#5BACEE"></path>
            <path d="M568.520223,218.529609 C573.668827,213.953073 579.961564,213.609832 586.483128,213.724246 C593.119106,213.838659 600.212737,215.21162 605.704581,209.719777 C612.111732,215.898101 616.688268,223.449385 620.235084,231.572737 C619.548603,239.352849 613.141453,236.950168 609.02257,237.407821 C601.471285,238.323128 593.691173,237.407821 586.368715,240.496983 C575.613855,237.064581 570.808492,228.826816 568.520223,218.529609 L568.520223,218.529609 Z" id="路径" fill="#54B2EF"></path>
            <path d="M429.965587,258.002235 C422.185475,252.624804 413.375642,253.082458 404.56581,253.196872 C400.675754,253.196872 395.641564,254.684246 394.726257,248.391508 C397.472179,240.840223 401.705475,234.204246 406.510838,228.025922 C408.570279,235.577207 414.748603,231.572737 419.096313,232.373631 C427.448492,233.746592 436.944804,229.170056 444.038436,237.293408 C443.809609,247.132961 438.088939,253.311285 429.965587,258.002235 L429.965587,258.002235 Z" id="路径" fill="#57AFEE"></path>
            <path d="M703.756872,528.818771 C694.146145,530.534972 683.963352,528.361117 675.15352,534.196201 C664.741899,527.44581 656.389721,519.093631 653.987039,506.164916 C661.767151,498.270391 671.14905,499.071285 680.759777,501.359553 C690.59933,508.682011 697.00648,518.979218 703.756872,528.818771 Z" id="路径" fill="#848BEA"></path>
            <path d="M677.899441,455.136536 C677.785028,462.115754 677.785028,469.094972 677.670615,476.188603 C675.382346,481.222793 678.128268,486.714637 675.49676,492.778547 C668.059888,486.371397 660.279777,484.884022 650.897877,489.002905 C644.94838,491.634413 645.63486,484.769609 644.490726,481.222793 C644.94838,468.980559 642.088045,456.509497 646.550168,444.496089 L647.351061,443.695196 C655.588827,452.733855 668.059888,450.445587 677.899441,455.136536 L677.899441,455.136536 Z" id="路径" fill="#7D91EB"></path>
            <path d="M632.019665,252.395978 C637.740335,259.375196 639.799777,268.070615 643.346592,276.193966 C642.660112,282.944358 637.168268,281.571397 633.163799,281.800223 C626.070168,282.143464 618.862123,282.372291 611.997318,284.546145 C601.013631,280.541676 599.29743,270.93095 597.924469,261.091397 C599.29743,254.913073 603.64514,252.739218 609.480223,252.395978 C617.031508,251.938324 624.46838,252.281564 632.019665,252.395978 Z" id="路径" fill="#5BACEE"></path>
            <path d="M738.080894,631.447598 C736.822346,622.866592 731.90257,620.12067 723.550391,622.065698 C720.232402,622.866592 716.685587,622.180112 713.253184,622.180112 C708.791061,622.180112 703.413631,619.548603 702.269497,627.557542 C701.926257,629.84581 698.493855,629.044916 696.548827,627.328715 C700.095642,616.688268 694.832626,605.590168 697.921788,594.949721 C707.303687,597.924469 717.257654,594.492067 726.753966,597.352402 C729.957542,598.267709 728.584581,592.432626 731.55933,591.631732 C736.021452,604.446034 737.96648,617.832402 738.080894,631.447598 L738.080894,631.447598 Z" id="路径" fill="#947EE9"></path>
            <path d="M352.85095,378.021899 C352.622123,369.212067 354.338324,360.745475 357.427486,352.507709 C363.148156,355.482458 369.212067,357.198659 375.733631,356.969832 C382.369609,356.741006 387.518212,358.91486 389.46324,366.008492 C390.950615,371.042682 389.920894,375.848045 387.975866,380.424581 C385.916425,384.08581 386.374078,388.662346 383.856983,392.209162 C382.827263,393.010056 381.683128,393.124469 380.424581,392.666816 C374.36067,388.319106 367.267039,389.005587 360.402235,388.43352 C354.109497,387.861452 349.876201,385.573184 352.85095,378.021899 L352.85095,378.021899 Z" id="路径" fill="#6D9EED"></path>
            <path d="M610.624358,283.402011 C614.171173,278.253408 619.548603,279.054302 624.81162,278.596648 C630.989944,278.138994 637.740335,281.113743 643.232179,276.193966 C648.495196,283.058771 649.524916,291.639777 652.385251,299.534302 C647.579888,304.110838 640.943911,304.911732 635.56648,303.424358 C629.731397,301.82257 625.040447,303.309944 619.891844,304.339665 C612.912626,299.076648 608.336089,292.783911 610.624358,283.402011 L610.624358,283.402011 Z" id="路径" fill="#5FAAEE"></path>
            <path d="M632.019665,252.395978 C625.955754,258.459888 618.404469,255.256313 611.654078,255.256313 C605.475754,255.256313 601.700112,256.972514 599.411844,262.464358 C590.258771,257.430168 586.139888,249.306816 584.766927,239.352849 C588.313743,235.00514 592.890279,234.433073 598.153296,234.433073 C605.590168,234.433073 613.484693,236.263687 620.349497,231.458324 C626.184581,237.407821 628.358436,245.302346 632.019665,252.395978 L632.019665,252.395978 Z" id="路径" fill="#57AFEE"></path>
            <path d="M677.899441,455.136536 C673.666145,455.136536 669.432849,454.678883 665.313966,455.25095 C655.817654,456.623911 649.181676,454.450056 648.151955,443.580782 C643.346592,438.661006 644.147486,433.169162 646.550168,427.562905 C648.724022,425.04581 651.813184,423.901676 654.787933,424.35933 C666.11486,426.075531 672.636425,421.155754 675.84,410.629721 C679.501229,425.274637 677.785028,440.262793 677.899441,455.136536 L677.899441,455.136536 Z" id="路径" fill="#7894EB"></path>
            <path d="M380.538994,278.253408 C393.124469,276.422793 405.709944,274.248939 418.295419,278.825475 C420.35486,288.092961 415.091844,294.385698 409.142346,300.335196 C399.646034,300.335196 390.264134,302.623464 380.767821,301.47933 C377.335419,301.021676 371.271508,302.16581 373.788603,294.843352 C375.161564,288.893855 376.877765,283.173184 380.538994,278.253408 L380.538994,278.253408 Z" id="路径" fill="#5FA9EE"></path>
            <path d="M373.903017,294.843352 C378.021899,300.678436 383.971397,299.076648 389.692067,298.733408 C395.984804,298.390168 402.506369,295.644246 408.684693,299.648715 C410.400894,309.717095 407.540559,318.069274 399.18838,324.247598 C391.293855,322.98905 383.39933,323.789944 375.504804,323.446704 C371.271508,323.217877 364.406704,324.247598 366.923799,315.781006 C367.839106,308.344134 370.127374,301.364916 373.903017,294.843352 L373.903017,294.843352 Z" id="路径" fill="#62A7ED"></path>
            <path d="M305.712626,557.193296 C316.696313,552.731173 327.68,555.248268 338.663687,557.307709 C340.837542,567.833743 335.345698,575.728268 329.739441,583.50838 C321.158436,584.881341 312.92067,581.792179 304.454078,581.220112 C300.335196,580.991285 297.13162,578.245363 299.419888,573.09676 C299.877542,567.032849 302.623464,561.998659 305.712626,557.193296 L305.712626,557.193296 Z" id="路径" fill="#8D83EA"></path>
            <path d="M666.458101,348.274413 C669.547263,356.283352 671.377877,364.635531 671.14905,373.33095 C672.293184,377.564246 673.780559,382.712849 666.458101,380.538994 C657.762682,377.907486 650.211397,380.767821 642.660112,384.08581 C634.307933,375.962458 634.88,365.550838 635.108827,355.139218 C644.147486,346.443799 656.04648,350.677095 666.458101,348.274413 Z" id="路径" fill="#6B9FED"></path>
            <path d="M325.849385,626.413408 C322.874637,620.692737 318.755754,618.404469 312.005363,619.663017 C304.225251,621.150391 295.873073,617.946816 288.207374,622.180112 C288.092961,613.370279 289.580335,604.903687 292.555084,596.665922 C300.792849,594.377654 309.145028,595.750615 317.497207,595.636201 C324.133184,595.521788 327.908827,599.64067 328.36648,606.391061 C328.595307,613.255866 329.167374,620.006257 325.849385,626.413408 L325.849385,626.413408 Z" id="路径" fill="#947EE9"></path>
            <path d="M675.84,410.515307 C675.267933,427.334078 675.267933,427.334078 658.105922,427.334078 L647.808715,427.334078 C641.401564,420.469274 641.172737,412.574749 644.261899,404.336983 C647.923128,400.218101 652.957318,398.84514 657.877095,399.073966 C665.657207,399.53162 669.890503,395.298324 673.551732,389.692067 C676.869721,396.328045 675.49676,403.536089 675.84,410.515307 L675.84,410.515307 Z M348.16,424.35933 C348.388827,414.97743 347.130279,405.595531 350.448268,396.442458 C356.054525,409.6 368.29676,403.192849 377.564246,405.595531 C380.996648,406.510838 377.221006,395.412737 384.657877,400.561341 C387.975866,408.112626 384.657877,415.206257 383.39933,422.528715 C383.056089,424.016089 382.484022,425.38905 382.140782,426.990838 C380.081341,439.004246 379.966927,439.004246 369.898547,433.741229 C360.402235,428.707039 353.995084,432.139441 349.876201,443.008715 C345.757318,435.80067 347.244693,430.08 348.16,424.35933 Z" id="形状" fill="#7498EC"></path>
            <path d="M673.551732,389.577654 C674.467039,398.616313 671.377877,402.964022 661.423911,401.934302 C656.275307,401.362235 650.897877,403.307263 645.63486,403.993743 C639.685363,397.929832 638.655642,391.065028 642.202458,383.39933 C648.380782,373.102123 658.334749,374.589497 666.915754,377.449832 C674.123799,379.852514 669.890503,374.703911 671.14905,373.216536 C674.352626,378.36514 673.322905,384.08581 673.551732,389.577654 L673.551732,389.577654 Z" id="路径" fill="#709CEC"></path>
            <path d="M689.111955,559.710391 C699.294749,558.223017 709.935196,562.341899 719.889162,557.078883 C724.808939,564.172514 726.86838,572.295866 728.813408,580.419218 C717.829721,583.279553 706.960447,587.055196 695.404693,583.279553 C690.256089,576.185922 685.793966,568.977877 689.111955,559.710391 L689.111955,559.710391 Z" id="路径" fill="#8E83EA"></path>
            <path d="M387.861453,366.923799 C385.001117,358.686034 378.136313,359.944581 371.729162,359.944581 C365.894078,359.944581 358.57162,361.889609 357.427486,352.507709 C357.770726,345.414078 359.258101,338.43486 362.232849,331.913296 C368.182346,334.659218 374.246257,336.261006 380.882235,336.032179 C387.747039,335.803352 392.552402,338.663687 394.383017,345.642905 C395.984804,353.995084 392.437989,360.631061 387.861453,366.923799 L387.861453,366.923799 Z" id="路径" fill="#69A2ED"></path>
            <path d="M382.941676,399.417207 C379.852514,414.97743 367.267039,406.396425 359.258101,408.112626 C352.164469,409.6 350.219441,402.849609 350.448268,396.442458 C350.791508,390.264134 349.647374,383.856983 352.85095,378.021899 C352.393296,386.602905 358.457207,385.458771 363.834637,385.458771 C371.157095,385.573184 379.39486,383.284916 383.39933,392.552402 C385.115531,395.069497 385.115531,397.357765 382.941676,399.417207 L382.941676,399.417207 Z" id="路径" fill="#719BEC"></path>
            <path d="M325.391732,606.505475 C325.620559,598.95419 320.929609,597.810056 314.865698,598.382123 C307.314413,599.068603 299.763129,600.441564 292.555084,596.665922 C293.012737,588.19933 295.529832,580.419218 299.419888,573.09676 C299.991955,577.673296 302.623464,579.618324 307.085587,579.046257 C315.094525,577.902123 322.416983,580.533631 329.853855,582.936313 C333.286257,591.631732 333.286257,599.755084 325.391732,606.505475 Z" id="路径" fill="#9181E9"></path>
            <path d="M392.437989,346.100559 C389.692067,337.977207 382.827263,339.235754 376.420112,339.006927 C370.699441,338.892514 363.376983,341.409609 362.118436,331.913296 C362.690503,326.192626 363.834637,320.700782 366.809385,315.666592 C370.356201,324.362011 378.136313,320.700782 383.513743,319.899888 C389.692067,318.984581 394.611844,319.899888 399.646034,322.760223 C403.650503,332.599777 397.815419,339.235754 392.437989,346.100559 L392.437989,346.100559 Z" id="路径" fill="#66A4ED"></path>
            <path d="M647.465475,482.366927 C647.579888,483.511061 647.465475,484.769609 647.808715,485.79933 C649.753743,490.032626 649.753743,485.79933 650.66905,485.112849 C658.792402,480.078659 670.576983,482.481341 674.352626,490.032626 C677.327374,485.79933 673.208492,479.964246 677.556201,476.07419 C679.272402,484.426369 674.581453,493.465028 680.645363,501.359553 C672.407598,505.478436 661.423911,499.872179 654.559106,508.682011 C641.401564,504.677542 638.083575,492.549721 647.465475,482.366927 L647.465475,482.366927 Z" id="路径" fill="#828EEB"></path>
            <path d="M666.458101,348.274413 C663.140112,352.85095 658.449162,353.19419 653.300559,353.079777 C647.694302,352.965363 641.744804,351.706816 636.596201,355.253631 C630.646704,350.219441 627.557542,344.384358 631.676425,336.718659 C638.541229,330.082682 647.007821,332.37095 655.131173,332.142123 C657.648268,332.027709 661.309497,334.888045 661.881564,329.510615 C664.741899,335.460112 666.229274,341.752849 666.458101,348.274413 L666.458101,348.274413 Z" id="路径" fill="#69A2ED"></path>
            <path d="M550.786145,741.97095 C534.539441,744.373631 518.292737,744.602458 501.93162,744.373631 C493.007374,744.259218 483.854302,746.204246 475.845363,740.254749 C477.447151,737.165587 479.735419,734.877318 482.824581,733.389944 C502.160447,731.788156 521.381899,730.644022 540.832179,732.016983 C545.866369,733.618771 547.353743,738.767374 550.786145,741.97095 Z" id="路径" fill="#4ABAEF"></path>
            <path d="M696.66324,582.821899 C707.532514,583.85162 717.829721,577.444469 728.813408,580.419218 C730.987263,583.85162 731.788156,587.512849 731.55933,591.517318 C732.131397,597.466816 730.644022,600.670391 723.435978,599.183017 C718.287374,598.153296 712.452291,597.924469 707.418101,599.29743 C701.811844,600.784804 701.239777,596.665922 698.951508,594.26324 C694.832626,591.288492 693.116425,587.512849 696.66324,582.821899 L696.66324,582.821899 Z" id="路径" fill="#9180E9"></path>
            <path d="M348.16,424.35933 L348.16,440.720447 C352.393296,435.228603 347.931173,426.304358 356.855419,427.448492 C364.406704,428.363799 373.788603,426.304358 377.564246,436.601564 C380.310168,432.253855 376.305698,426.418771 380.653408,422.528715 C386.259665,432.711508 386.946145,442.779888 380.081341,452.733855 L378.593966,452.733855 C369.32648,445.640223 358.457207,449.759106 348.274413,448.042905 L346.787039,448.042905 C346.443799,440.14838 345.070838,432.139441 348.16,424.35933 L348.16,424.35933 Z" id="路径" fill="#7897EC"></path>
            <path d="M539.001564,861.876201 C538.20067,865.308603 536.713296,868.283352 533.967374,870.57162 C519.093631,872.287821 504.105475,874.804916 489.574972,868.397765 C487.057877,865.995084 485.570503,863.020335 484.769609,859.702346 C483.968715,856.613184 485.913743,855.12581 488.316425,855.12581 C502.961341,854.78257 517.606257,853.752849 532.251173,854.43933 C536.255642,854.668156 540.031285,856.613184 539.001564,861.876201 Z" id="路径" fill="#8C85EA"></path>
            <path d="M540.832179,732.016983 C521.610726,737.051173 502.27486,736.93676 482.824581,733.389944 C500.901899,718.058547 521.953966,717.600894 540.832179,732.016983 Z" id="路径" fill="#47BEF0"></path>
            <path d="M539.001564,861.876201 C537.285363,857.757318 533.967374,856.498771 529.734078,856.613184 C516.004469,857.070838 502.160447,858.901453 488.430838,857.185251 C487.401117,857.070838 486.14257,858.787039 484.884022,859.702346 C482.595754,857.642905 480.879553,855.240223 480.650726,852.036648 C480.879553,846.201564 485.684916,847.002458 489.117318,846.659218 C495.638883,845.972737 502.160447,846.201564 508.682011,847.574525 C512.228827,848.718659 515.317989,846.087151 518.750391,846.201564 C527.674637,848.375419 537.285363,845.05743 545.751955,849.74838 C544.722235,854.43933 542.54838,858.558212 539.001564,861.876201 L539.001564,861.876201 Z" id="路径" fill="#8889EA"></path>
            <path d="M489.689385,868.397765 C504.448715,869.427486 519.436872,866.910391 534.081788,870.57162 C533.16648,874.576089 530.077318,877.093184 527.331397,879.839106 C520.008939,884.873296 504.219888,884.987709 496.668603,879.95352 C493.579441,876.521117 490.83352,872.859888 489.689385,868.397765 L489.689385,868.397765 Z" id="路径" fill="#9280E9"></path>
            <path d="M557.422123,824.23419 C557.193296,830.641341 552.27352,834.874637 550.214078,840.36648 C541.175419,841.853855 532.13676,843.455642 524.013408,837.391732 C521.953966,830.183687 524.814302,824.92067 530.763799,820.916201 C539.573631,821.145028 548.955531,818.971173 557.422123,824.23419 Z" id="路径" fill="#7B93EB"></path>
            <path d="M459.827486,794.02905 C458.225698,785.104804 458.340112,776.294972 461.772514,767.713966 C466.234637,770.803128 471.04,772.633743 476.646257,772.51933 C480.879553,772.404916 484.998436,773.091397 488.087598,776.523799 C489.231732,778.125587 489.574972,779.956201 489.460559,781.786816 C488.774078,785.448045 488.316425,789.109274 485.79933,792.084022 C477.103911,793.113743 468.408492,792.312849 459.827486,794.02905 L459.827486,794.02905 Z" id="路径" fill="#62A7EE"></path>
            <path d="M496.55419,879.95352 C506.736983,879.95352 517.03419,879.839106 527.216983,879.839106 C524.585475,888.992179 517.263017,894.827263 511.885587,902.836201 C505.364022,895.74257 500.444246,888.191285 496.55419,879.95352 L496.55419,879.95352 Z" id="路径" fill="#9A7CE9"></path>
            <path d="M487.629944,777.782346 C482.138101,774.349944 475.959777,775.379665 470.010279,775.608492 C464.175196,775.837318 461.772514,773.320223 461.772514,767.713966 C461.886927,764.624804 461.886927,761.535642 464.404022,759.132961 C470.582346,760.963575 477.103911,758.560894 483.282235,760.505922 C487.172291,761.764469 491.405587,762.222123 493.465028,766.569832 C494.151508,771.718436 492.664134,775.608492 487.629944,777.782346 L487.629944,777.782346 Z" id="路径" fill="#5BAEEE"></path>
            <path d="M485.227263,791.626369 C485.570503,788.537207 484.540782,785.104804 486.943464,782.358883 C493.350615,790.596648 491.405587,800.321788 491.86324,809.589274 C483.282235,817.369385 473.213855,812.907263 463.717542,812.792849 C461.429274,807.529832 460.056313,802.037989 460.056313,796.317318 C468.980559,797.575866 477.790391,798.147933 485.227263,791.626369 L485.227263,791.626369 Z" id="路径" fill="#6D9EEC"></path>
            <path d="M471.612067,833.387263 C469.438212,829.726034 467.264358,826.179218 466.921117,821.831508 C469.094972,816.568492 473.900335,816.911732 478.248045,816.568492 C483.053408,816.225251 487.973184,816.454078 492.549721,814.280223 C499.300112,818.627933 502.389274,824.23419 498.956871,832.243129 C490.032626,835.675531 480.76514,835.103464 471.612067,833.387263 Z" id="路径" fill="#7896EC"></path>
            <path d="M524.471061,835.103464 C531.907933,842.082682 542.433966,834.64581 550.099665,840.36648 C550.099665,844.142123 548.26905,847.116872 545.751955,849.74838 C536.370056,849.061899 526.644916,852.951955 517.72067,847.116872 C515.432402,840.595307 518.864804,837.277318 524.471061,835.103464 Z" id="路径" fill="#838DEB"></path>
            <path d="M559.710391,756.615866 C563.142793,761.421229 564.515754,766.798659 564.515754,772.51933 C565.316648,773.54905 565.316648,774.693184 564.630168,775.722905 C555.934749,776.981453 546.438436,774.693184 538.772737,780.985922 C532.937654,779.040894 532.708827,774.235531 532.594413,769.315754 C534.081788,763.251844 537.743017,760.048268 544.264581,760.505922 C549.756425,760.963575 554.676201,758.560894 559.710391,756.615866 L559.710391,756.615866 Z" id="路径" fill="#5BAFEE"></path>
            <path d="M564.286927,801.008268 C565.659888,807.301006 560.511285,811.648715 559.595978,817.254972 C553.760894,816.682905 548.154637,814.85229 542.090726,814.966704 C537.51419,815.081117 534.425028,812.449609 533.967374,807.415419 C533.852961,803.983017 534.882682,801.008268 537.628603,798.834413 C546.896089,794.486704 555.705922,796.774972 564.286927,801.008268 L564.286927,801.008268 Z" id="路径" fill="#6E9DEC"></path>
            <path d="M536.255642,807.758659 C537.285363,814.280223 542.777207,813.364916 546.209609,812.220782 C552.731173,809.932514 556.277989,812.449609 559.595978,817.254972 C559.939218,819.88648 559.595978,822.403575 557.422123,824.23419 C548.726704,823.318883 539.573631,826.408045 531.335866,821.030615 C529.047598,815.081117 529.390838,810.161341 536.255642,807.758659 L536.255642,807.758659 Z" id="路径" fill="#7599EC"></path>
            <path d="M471.612067,833.387263 C480.650726,828.92514 490.261453,832.128715 499.528939,831.098994 C505.020782,832.128715 504.791955,836.590838 505.020782,840.709721 C495.753296,847.002458 485.913743,845.743911 475.959777,842.769162 C474.472402,839.68 473.099441,836.476425 471.612067,833.387263 Z" id="路径" fill="#7E91EB"></path>
            <path d="M559.710391,756.615866 C557.65095,763.938324 551.014972,764.167151 545.980782,763.366257 C540.031285,762.45095 536.942123,764.739218 533.738547,768.51486 C527.78905,766.913073 524.928715,762.908603 524.471061,756.959106 C530.763799,753.183464 537.85743,755.014078 544.493408,754.442011 C548.841117,754.098771 553.760894,756.158212 557.422123,752.03933 C558.108603,753.526704 558.909497,755.128492 559.710391,756.615866 L559.710391,756.615866 Z" id="路径" fill="#55B2EF"></path>
            <path d="M492.20648,766.112179 C485.684916,764.052737 479.621006,760.849162 472.298547,762.79419 C470.239106,763.366257 464.861676,764.853631 464.518436,759.018547 C464.861676,755.357318 466.463464,752.153743 469.094972,749.636648 C470.69676,757.187933 476.875084,753.641117 481.222793,754.442011 C487.172291,755.471732 494.380335,751.581676 498.613631,759.132961 C500.215419,764.968045 496.21095,765.540112 492.20648,766.112179 L492.20648,766.112179 Z" id="路径" fill="#57B3EF"></path>
            <path d="M564.058101,775.379665 L564.401341,772.633743 C567.490503,778.011173 566.460782,783.846257 566.003128,789.566927 C556.964469,797.575866 546.209609,797.232626 537.628603,788.422793 C536.942123,786.592179 536.827709,784.761564 537.628603,782.93095 C545.065475,775.494078 556.049162,780.413855 564.058101,775.379665 L564.058101,775.379665 Z" id="路径" fill="#65A7EE"></path>
            <path d="M475.959777,842.769162 C485.227263,840.480894 494.952402,843.226816 503.991061,839.908827 C509.826145,841.853855 513.144134,845.40067 510.970279,852.036648 C500.787486,848.947486 490.719106,847.917765 480.536313,852.151061 C478.019218,849.519553 476.531844,846.315978 475.959777,842.769162 L475.959777,842.769162 Z" id="路径" fill="#848EEB"></path>
            <path d="M539.344804,787.049832 C547.58257,795.516425 556.850056,791.855196 566.117542,789.452514 C566.804022,793.456983 566.231955,797.347039 564.286927,800.893855 C555.591508,802.953296 547.010503,796.774972 538.315084,800.779441 C534.997095,795.974078 534.539441,791.283128 539.344804,787.049832 L539.344804,787.049832 Z" id="路径" fill="#69A3ED"></path>
            <path d="M492.320894,814.737877 C491.634413,820.344134 487.286704,819.428827 483.625475,819.54324 C478.019218,819.772067 472.184134,818.51352 466.921117,821.831508 C464.404022,819.428827 464.175196,816.110838 463.717542,812.907263 C471.955307,807.301006 481.680447,812.564022 490.261453,809.589274 C493.236201,810.390168 494.037095,812.106369 492.320894,814.737877 Z" id="路径" fill="#739AEC"></path>
            <path d="M485.227263,791.626369 C482.138101,801.008268 468.980559,803.525363 460.056313,796.431732 C459.941899,795.630838 459.941899,794.829944 459.827486,794.02905 C467.607598,786.248939 476.41743,788.880447 485.227263,791.626369 Z" id="路径" fill="#68A2ED"></path>
            <path d="M380.081341,452.848268 C380.310168,442.779888 380.424581,432.711508 380.653408,422.643128 C381.339888,414.863017 383.74257,407.311732 382.827263,399.417207 C383.056089,397.128939 383.170503,394.84067 383.39933,392.666816 L383.284916,392.666816 C385.802011,389.12 382.941676,384.543464 385.344358,380.996648 C386.717318,376.420112 388.319106,371.957989 387.861453,367.038212 C386.374078,359.372514 393.925363,353.766257 392.437989,346.100559 C393.124469,337.862793 399.760447,331.455642 399.646034,322.98905 C402.620782,315.208939 405.595531,307.428827 408.570279,299.763128 C411.773855,292.783911 414.97743,285.919106 418.181006,278.939888 C422.071061,271.96067 425.961117,264.981453 429.851173,258.116648 C434.542123,251.13743 439.233073,244.272626 443.924022,237.293408 L467.264358,209.49095 C476.989497,200.909944 486.714637,192.214525 496.439777,183.63352 C505.135196,178.256089 513.372961,169.446257 524.585475,179.056983 C533.16648,186.036201 541.861899,192.901006 550.442905,199.880223 C556.392402,206.172961 562.456313,212.351285 568.40581,218.644022 C573.78324,225.62324 579.16067,232.602458 584.652514,239.581676 C589.572291,247.247374 594.377654,255.027486 599.29743,262.693184 L610.624358,283.630838 C613.71352,290.610056 616.917095,297.589274 620.006257,304.568492 C623.896313,315.437765 627.786369,326.192626 631.562011,337.061899 C633.163799,343.240223 634.88,349.418547 636.481788,355.596872 C638.312402,364.978771 640.25743,374.36067 642.088045,383.74257 L645.520447,404.336983 C644.833966,412.231508 646.321341,419.897207 647.694302,427.562905 L648.037542,443.809609 L647.351061,482.710168 C643.689832,493.121788 643.232179,502.732514 654.559106,509.025251 C661.423911,517.491844 668.174302,525.958436 675.039106,534.425028 C679.730056,542.89162 684.306592,551.472626 688.997542,559.939218 C691.514637,567.604916 694.031732,575.385028 696.434413,583.050726 C697.235307,586.940782 698.036201,590.830838 698.837095,594.60648 C699.637989,602.844246 700.438883,610.967598 701.01095,619.205363 C701.239777,622.866592 701.926257,627.099888 696.32,627.443129 C687.166927,625.498101 678.242682,622.180112 668.746369,622.294525 C645.520447,622.408939 623.438659,614.857654 601.013631,610.738771 C590.487598,608.793743 581.906592,608.107263 577.330056,619.891844 C576.757989,621.264804 575.041788,621.836872 573.668827,622.637765 C564.973408,633.507039 555.477095,643.346592 543.120447,650.096983 C523.212514,657.419441 503.304581,657.076201 483.282235,650.211397 C476.875084,645.749274 470.582346,641.287151 464.175196,636.939441 C459.484246,630.646704 454.678883,624.353966 449.987933,618.061229 C443.237542,604.67486 432.139441,607.764022 420.812514,609.937877 C408.227039,612.226145 396.099218,617.946816 382.827263,615.544134 C363.60581,618.175642 344.498771,621.951285 325.734972,626.756648 C323.789944,620.12067 325.963799,613.370279 325.277318,606.734302 C326.764693,598.839777 328.252067,590.945251 329.853855,583.050726 C332.828603,574.584134 335.688939,566.003128 338.663687,557.536536 C343.697877,548.383464 348.732067,539.115978 353.766257,529.962905 C361.088715,521.381899 368.411173,512.800894 375.733631,504.105475 C381.568715,499.986592 382.712849,494.952402 381.683128,487.515531 C379.966927,475.959777 380.538994,464.289609 380.081341,452.848268 L380.081341,452.848268 Z" id="路径" fill="#FEFEFE"></path>
            <path d="M573.78324,622.294525 C582.593073,604.217207 582.593073,604.102793 602.958659,608.221676 C625.040447,612.683799 647.007821,617.489162 668.975196,622.180112 C662.796872,626.985475 655.70324,627.099888 648.380782,626.985475 C627.214302,626.756648 606.047821,626.756648 584.881341,626.985475 C580.190391,626.985475 576.529162,626.070168 573.78324,622.294525 Z" id="路径" fill="#967DE9"></path>
            <path d="M382.941676,615.200894 C401.591061,611.196425 420.126034,606.734302 438.889832,603.530726 C449.530279,601.700112 445.754637,613.370279 450.102346,617.717989 C439.118659,626.298994 426.304358,620.12067 414.405363,621.608045 C409.94324,622.180112 404.794637,620.349497 399.989274,622.180112 C392.323575,624.926034 388.891173,617.031508 382.941676,615.200894 Z" id="路径" fill="#967EE9"></path>
            <path d="M348.274413,448.157318 C357.541899,442.665475 375.619218,445.411397 378.593966,452.848268 C378.479553,472.641788 378.479553,472.756201 358.800447,473.671508 C355.253631,473.785922 352.278883,474.930056 348.274413,476.41743 L348.274413,448.157318 Z" id="路径" fill="#7B92EB"></path>
            <path d="M492.320894,814.737877 L490.261453,809.589274 C487.858771,800.665028 486.943464,791.626369 486.943464,782.358883 C487.17229,780.757095 487.401117,779.269721 487.629944,777.667933 C489.117318,773.777877 490.719106,769.887821 492.20648,766.112179 C493.808268,763.366257 497.812737,762.79419 498.499218,759.132961 C506.62257,752.268156 515.432402,753.412291 524.471061,756.959106 C527.560223,760.849162 530.649385,764.624804 533.738547,768.51486 C535.225922,772.404916 536.713296,776.409385 538.20067,780.299441 C539.916872,780.413855 540.145698,781.100335 539.001564,782.244469 C539.115978,783.846257 539.344804,785.333631 539.459218,786.935419 C539.115978,791.511955 538.772737,796.202905 538.429497,800.779441 C536.484469,802.724469 536.370056,805.241564 536.370056,807.644246 C533.624134,811.648715 532.13676,816.110838 531.335866,820.916201 L524.471061,834.98905 C521.610726,838.650279 518.864804,842.425922 517.72067,847.002458 C515.432402,848.489832 514.860335,852.379888 511.084693,851.807821 C509.826145,847.116872 507.194637,843.341229 504.105475,839.68 C502.618101,836.705251 501.130726,833.844916 499.643352,830.870168 C497.126257,825.607151 494.723575,820.115307 492.320894,814.737877 L492.320894,814.737877 Z" id="路径" fill="#FEFEFE"></path>
            <path d="M385.344358,380.882235 C385.344358,384.886704 386.145251,389.12 383.284916,392.552402 C383.628156,388.662346 381.683128,384.314637 385.344358,380.882235 Z" id="路径" fill="#719BEC"></path>
            <path d="M538.887151,782.358883 C538.543911,781.672402 538.315084,781.100335 538.086257,780.413855 C544.951061,769.544581 554.447374,772.290503 564.058101,775.379665 C563.943687,778.354413 564.058101,783.388603 560.168045,781.672402 C552.61676,778.58324 545.980782,783.27419 538.887151,782.358883 Z" id="路径" fill="#61ABEE"></path>
            <path d="M464.175196,420.469274 C461.200447,418.753073 458.912179,416.464804 457.653631,413.261229 C457.882458,407.082905 462.687821,406.854078 466.577877,407.311732 C476.989497,408.570279 487.172291,406.739665 497.469497,405.938771 C506.62257,407.883799 515.775642,407.654972 524.928715,405.709944 C537.628603,406.739665 550.214078,407.311732 562.913966,406.968492 C565.774302,406.854078 569.549944,406.510838 569.092291,411.430615 C567.376089,413.604469 565.659888,415.778324 564.058101,417.952179 C552.96,425.732291 540.145698,421.613408 528.132291,422.528715 C510.627039,423.901676 492.892961,421.498994 475.273296,422.414302 C471.38324,422.528715 467.607598,422.643128 464.175196,420.469274 L464.175196,420.469274 Z" id="路径" fill="#9180E9"></path>
            <path d="M457.310391,329.625028 C458.797765,327.908827 460.170726,326.192626 461.658101,324.362011 C467.607598,322.416983 473.557095,321.501676 479.849832,321.844916 C501.702793,323.103464 523.441341,323.561117 545.294302,321.844916 C552.502346,321.272849 559.023911,322.874637 564.744581,327.222346 C565.431061,327.222346 565.888715,327.451173 566.460782,327.794413 C566.689609,332.027709 563.37162,332.943017 560.511285,334.201564 C551.243799,336.375419 541.518659,334.201564 532.251173,336.718659 C518.521564,333.743911 504.791955,334.773631 490.947933,336.718659 C483.396648,334.659218 475.616536,336.146592 467.950838,335.345698 C463.831955,334.888045 458.340112,336.261006 457.310391,329.625028 L457.310391,329.625028 Z" id="路径" fill="#56B1EF"></path>
            <path d="M478.133631,310.861229 C501.473967,298.161341 524.814302,298.046927 547.92581,311.54771 C547.23933,317.61162 542.20514,318.984581 537.743017,318.641341 C520.581006,317.497207 503.304581,317.840447 486.14257,316.810726 C482.710168,316.581899 478.019218,316.467486 478.133631,310.861229 L478.133631,310.861229 Z" id="路径" fill="#4BBBF0"></path>
            <path d="M464.175196,420.469274 C495.295642,418.066592 526.301676,419.32514 557.422123,419.66838 C559.595978,419.66838 561.884246,418.524246 564.058101,417.952179 C560.854525,423.558436 555.705922,426.533184 550.214078,429.279106 C528.704358,428.134972 507.080223,428.363799 485.570503,428.592626 C481.337207,428.592626 477.103911,429.507933 472.985028,427.677318 C468.980559,426.418771 466.234637,423.787263 464.175196,420.469274 L464.175196,420.469274 Z" id="路径" fill="#967CE9"></path>
            <path d="M472.985028,427.562905 C488.659665,422.986369 504.791955,424.816983 520.695419,425.617877 C530.534972,426.075531 541.289832,421.155754 550.214078,429.279106 C545.179888,433.741229 538.429497,434.77095 532.365587,436.944804 C516.69095,434.313296 500.673073,436.944804 484.998436,434.313296 C480.193073,433.512402 476.188603,431.224134 472.985028,427.562905 L472.985028,427.562905 Z" id="路径" fill="#9A79E8"></path>
            <path d="M478.133631,310.861229 C481.45162,315.552179 486.943464,314.064804 490.947933,313.950391 C506.96581,313.378324 522.75486,315.208939 538.658324,315.781006 C542.20514,315.895419 545.408715,314.293631 547.811397,311.54771 C552.159106,312.23419 554.218547,316.009832 557.078883,318.641341 C555.820335,324.133184 551.243799,322.760223 547.696983,322.760223 C524.585475,323.446704 501.473966,323.446704 478.362458,322.760223 C474.701229,322.64581 469.209385,324.590838 468.751732,317.726034 C471.04,314.293631 474.701229,312.691844 478.133631,310.861229 L478.133631,310.861229 Z" id="路径" fill="#4EB7EF"></path>
            <path d="M468.751732,317.726034 C470.467933,320.357542 473.099441,320.586369 475.845363,320.586369 C501.24514,320.586369 526.530503,320.586369 551.930279,320.471955 C553.64648,320.471955 555.362682,319.213408 557.193296,318.641341 C562.227486,319.327821 562.227486,324.476425 564.858994,327.33676 C549.756425,324.476425 534.539441,323.789944 519.436872,327.222346 C510.169385,329.396201 501.359553,324.819665 492.092067,325.048492 C482.023687,325.391732 471.840894,324.705251 461.772514,324.476425 C463.488715,321.501676 465.66257,319.213408 468.751732,317.726034 L468.751732,317.726034 Z" id="路径" fill="#53B4EF"></path>
            <path d="M446.097877,390.149721 C443.580782,385.802011 443.237542,380.996648 443.695196,376.191285 C453.534749,371.957989 463.374302,373.903017 473.328268,375.848045 C476.646257,378.822793 476.646257,382.598436 476.07419,386.488492 C469.438212,394.726257 456.166257,396.328045 446.097877,390.149721 L446.097877,390.149721 Z" id="路径" fill="#7C92EB"></path>
            <path d="M446.097877,390.149721 C453.649162,390.149721 461.200447,390.035307 468.751732,390.035307 C472.069721,390.035307 473.557095,388.090279 473.900335,385.115531 C481.10838,387.403799 483.053408,393.353296 483.968715,399.989274 C473.099441,406.167598 461.886927,406.282011 450.56,401.705475 C447.699665,398.387486 446.441117,394.49743 446.097877,390.149721 Z" id="路径" fill="#858CEB"></path>
            <path d="M576.185922,343.12581 C577.673296,348.50324 579.16067,353.88067 580.762458,359.258101 C581.677765,360.974302 581.677765,362.804916 580.991285,364.635531 C579.847151,365.322011 578.703017,365.322011 577.444469,364.749944 C573.668827,359.944581 568.176983,360.859888 563.02838,360.745475 C558.566257,360.516648 554.104134,361.088715 549.756425,359.372514 C545.294302,356.512179 543.692514,352.622123 545.294302,347.47352 C554.676201,339.350168 565.774302,343.583464 576.185922,343.12581 Z" id="路径" fill="#65A4ED"></path>
            <path d="M580.876872,381.225475 C580.876872,386.030838 580.533631,390.721788 577.787709,394.84067 C566.460782,399.646034 555.362682,399.989274 544.607821,393.124469 C543.806927,388.090279 545.294302,384.08581 549.756425,381.454302 C558.223017,378.937207 567.032849,380.767821 575.728268,379.738101 C576.986816,379.509274 578.245363,379.623687 579.389497,380.081341 C579.961564,380.310168 580.419218,380.767821 580.876872,381.225475 L580.876872,381.225475 Z" id="路径" fill="#7F8FEB"></path>
            <path d="M450.56,401.705475 C461.429274,401.591061 472.412961,402.277542 483.053408,399.18838 C489.689385,399.53162 494.952402,401.591061 497.24067,408.455866 C486.714637,409.371173 476.303017,412.803575 465.433743,409.485587 C462.344581,408.570279 459.598659,410.629721 457.424804,413.032402 C454.106816,410.057654 451.475307,406.396425 450.56,401.705475 L450.56,401.705475 Z" id="路径" fill="#8B87EA"></path>
            <path d="M447.814078,347.702346 C448.157318,343.46905 449.759106,339.693408 452.848268,336.604246 C463.259888,336.947486 474.014749,334.659218 483.511061,341.066369 C483.511061,347.587933 480.421899,351.935642 474.357989,354.223911 C468.408492,354.452737 462.344581,354.338324 456.509497,353.651844 C452.848268,353.308603 447.470838,354.223911 447.814078,347.702346 L447.814078,347.702346 Z" id="路径" fill="#61A8EE"></path>
            <path d="M569.092291,411.316201 C562.227486,406.625251 554.561788,410.858547 547.23933,409.94324 C540.145698,409.027933 532.251173,407.540559 524.699888,408.684693 C526.072849,401.934302 532.13676,401.705475 537.056536,399.989274 C545.065475,398.616313 553.188827,398.273073 561.312179,398.616313 C566.003128,398.84514 570.808492,398.84514 573.211173,403.993743 C573.44,407.311732 571.494972,409.485587 569.092291,411.316201 L569.092291,411.316201 Z" id="路径" fill="#8C87EA"></path>
            <path d="M484.998436,434.313296 C497.927151,433.512402 510.512626,430.537654 523.784581,432.825922 C527.674637,433.512402 529.505251,435.45743 532.365587,436.944804 C516.233296,443.695196 500.444246,441.978994 484.998436,434.313296 L484.998436,434.313296 Z" id="路径" fill="#9F78E9"></path>
            <path d="M530.878212,334.888045 C540.832179,329.739441 551.587039,333.171844 561.884246,332.142123 C563.829274,330.311508 566.689609,331.570056 568.74905,330.197095 C571.494972,332.256536 573.09676,335.116872 573.897654,338.549274 C574.240894,344.842011 569.206704,342.324916 566.575196,342.324916 C558.451844,342.324916 550.328492,342.43933 542.319553,343.583464 C537.056536,342.668156 532.022346,341.295196 530.878212,334.888045 L530.878212,334.888045 Z" id="路径" fill="#5CADEE"></path>
            <path d="M482.824581,341.409609 C472.985028,339.006927 462.115754,342.210503 452.733855,336.718659 C453.649162,333.972737 454.90771,331.455642 457.310391,329.739441 C462.230168,334.430391 468.294078,331.684469 473.900335,332.142123 C480.307486,332.71419 487.057877,331.226816 493.007374,334.888045 C492.092067,340.837542 487.858771,341.752849 482.824581,341.409609 L482.824581,341.409609 Z" id="路径" fill="#5BADEE"></path>
            <path d="M573.211173,403.993743 C561.197765,398.84514 548.612291,403.421676 536.370056,402.163128 C537.743017,397.357765 539.344804,392.552402 545.637542,392.552402 C556.163575,395.527151 567.032849,394.611844 577.787709,394.726257 C576.300335,397.815419 574.812961,400.904581 573.211173,403.993743 Z" id="路径" fill="#868AEA"></path>
            <path d="M471.497654,375.848045 C462.230168,379.39486 452.962682,376.076872 443.695196,376.191285 L443.695196,366.923799 C453.191508,361.889609 462.573408,361.660782 471.72648,367.95352 C473.442682,370.699441 473.671508,373.33095 471.497654,375.848045 L471.497654,375.848045 Z" id="路径" fill="#7399EC"></path>
            <path d="M447.814078,347.702346 C451.932961,352.736536 457.539218,350.105028 462.573408,350.562682 C467.035531,351.020335 471.612067,350.105028 475.616536,352.965363 C477.447151,355.596872 475.73095,357.427486 474.243575,359.258101 C465.891397,365.207598 456.738324,361.546369 448.042905,360.859888 C444.724916,360.631061 444.267263,357.656313 445.754637,354.795978 C445.52581,352.278883 445.754637,349.761788 447.814078,347.702346 Z" id="路径" fill="#6AA3ED"></path>
            <path d="M445.640223,354.795978 C454.335642,362.118436 463.831955,360.058994 473.557095,357.656313 C477.218324,362.347263 475.38771,366.008492 471.38324,369.212067 C462.458994,364.749944 452.962682,367.724693 443.695196,366.923799 C443.466369,362.804916 442.894302,358.57162 445.640223,354.795978 L445.640223,354.795978 Z" id="路径" fill="#6F9EED"></path>
            <path d="M540.145698,341.752849 C551.014972,336.947486 562.68514,340.608715 573.897654,338.549274 C574.698548,340.151061 575.499441,341.638436 576.185922,343.240223 C571.494972,348.388827 565.431061,345.528492 559.939218,345.986145 C555.019441,346.443799 549.985251,345.642905 545.523128,348.388827 C540.488939,348.732067 539.230391,346.100559 540.145698,341.752849 L540.145698,341.752849 Z" id="路径" fill="#60A9EE"></path>
            <path d="M580.419218,364.635531 C580.533631,362.91933 580.648045,361.088715 580.762458,359.372514 C583.737207,366.580559 583.50838,373.903017 580.876872,381.225475 L580.304804,380.767821 C576.414749,375.275978 576.414749,370.012961 580.419218,364.635531 Z" id="路径" fill="#7C97EC"></path>
            <path d="M568.74905,330.197095 C567.948156,336.146592 564.058101,330.997989 561.884246,332.142123 C563.37162,330.769162 564.858994,329.281788 566.346369,327.908827 C567.147263,328.595307 567.948156,329.396201 568.74905,330.197095 Z" id="路径" fill="#57B1EF"></path>
            <path d="M540.145698,341.752849 C541.976313,343.926704 543.806927,346.214972 545.523128,348.388827 C547.010503,351.477989 548.612291,354.567151 550.099665,357.656313 C552.845587,360.058994 553.417654,363.60581 554.332961,366.923799 C554.790615,369.212067 554.790615,371.500335 554.332961,373.788603 C553.417654,377.106592 552.845587,380.653408 549.985251,383.056089 C548.497877,386.145251 547.010503,389.348827 545.523128,392.437989 L536.255642,402.048715 L524.585475,408.570279 C515.432402,410.858547 506.27933,410.972961 497.126257,408.455866 C492.435307,405.366704 487.629944,402.277542 482.938994,399.18838 C479.849832,394.49743 476.76067,389.80648 473.785922,385.115531 C473.557095,381.911955 473.671508,378.593966 471.497654,375.848045 C471.497654,373.67419 471.38324,371.385922 471.268827,369.212067 C471.955307,365.322011 472.756201,361.431955 473.442682,357.656313 C474.129162,356.054525 474.815642,354.567151 475.502123,352.965363 C477.904804,349.075307 480.307486,345.185251 482.710168,341.409609 L493.007374,334.888045 C505.592849,329.510615 518.292737,330.769162 530.878212,334.888045 L540.145698,341.752849 L540.145698,341.752849 Z" id="路径" fill="#FEFEFE"></path>
            <path d="M552.387933,373.33095 L552.387933,367.495866 C550.900559,364.521117 551.358212,361.775196 554.905028,361.660782 C562.799553,361.431955 570.922905,359.486927 578.13095,364.749944 L580.419218,364.749944 C580.419218,370.127374 580.419218,375.504804 580.304804,380.882235 C579.618324,380.996648 578.81743,380.996648 578.13095,380.996648 C571.609385,378.937207 564.744581,379.852514 558.108603,379.738101 C554.104134,379.509274 549.985251,379.280447 552.387933,373.33095 L552.387933,373.33095 Z" id="路径" fill="#7299EC"></path>
            <path d="M578.13095,364.635531 C571.037318,364.521117 563.829274,364.635531 556.735642,364.063464 C553.532067,363.834637 552.731173,364.978771 552.387933,367.495866 C550.214078,364.521117 550.328492,361.088715 550.099665,357.770726 C556.850056,357.770726 563.71486,357.88514 570.465251,357.656313 C575.613855,357.427486 578.588603,359.029274 578.13095,364.635531 Z" id="路径" fill="#6FA1ED"></path>
            <path d="M552.387933,373.33095 C553.417654,380.310168 558.33743,375.275978 561.312179,376.191285 C566.918436,377.907486 574.469721,372.301229 578.13095,380.882235 C569.09229,385.687598 559.481564,382.026369 550.099665,383.170503 C550.328492,379.738101 550.099665,376.191285 552.387933,373.33095 Z" id="路径" fill="#7C97EC"></path>
        </g>
    </g>
</svg>