<?xml version="1.0" encoding="UTF-8"?>
<svg width="1024px" height="1024px" viewBox="0 0 1024 1024" version="1.1" xmlns="http://www.w3.org/2000/svg" xmlns:xlink="http://www.w3.org/1999/xlink">
    <title>Speed.do</title>
    <g id="ICON-新版方图标" stroke="none" stroke-width="1" fill="none" fill-rule="evenodd">
        <g id="Speed.do">
            <rect id="蒙版路径" fill="#FFFFFF" x="0" y="0" width="1024" height="1024"></rect>
            <g id="编组-32" transform="translate(142, 142)">
                <circle id="圆形" fill="#2496FD" cx="370" cy="370" r="370"></circle>
                <ellipse id="圆形" fill="#1D1E1F" cx="373.217391" cy="373.217391" rx="308.869565" ry="311.014493"></ellipse>
                <g id="编组-29" transform="translate(243.4495, 317.9855) scale(-1, 1) translate(-243.4495, -317.9855)translate(121.1894, 116.8986)" fill="#FA9D2D">
                    <path d="M81.1407133,37.6041464 L150.719973,38.2015281 C153.175146,38.2226073 155.160242,40.2078207 155.181176,42.6629945 L155.364427,64.1559163 C155.386068,66.6411034 153.388969,68.6732888 150.903782,68.6949294 C150.733616,68.6964112 150.563503,68.6882393 150.394263,68.6704531 C131.491239,66.6875632 119.597173,65.6751028 114.712056,65.633161 C109.855474,65.5914642 98.8571471,66.3967748 81.7170738,68.0490928 L81.7170724,68.0490783 C79.2432671,68.2876387 77.0444604,66.4756146 76.8059,64.0018094 C76.7933326,63.8714882 76.7864586,63.7406807 76.7852976,63.6097602 L76.6022429,42.1423483 C76.581053,39.6571573 78.5785206,37.6253341 81.0637116,37.6041442 C81.0893784,37.6039253 81.1150465,37.6039261 81.1407133,37.6041464 Z" id="矩形" transform="translate(115.9853, 53.3832) rotate(34) translate(-115.9853, -53.3832)"></path>
                    <path d="M6.73241915,5.68651695 L65.7053843,5.87427101 C68.1795667,5.88214815 70.1832939,7.885985 70.1910356,10.3601678 L70.258546,31.9395942 C70.2681272,34.4248571 68.2611906,36.4473278 65.7759277,36.456909 C65.5996435,36.4575886 65.4234717,36.4479089 65.2483232,36.4279198 C49.3058367,34.5981245 39.2516869,33.6767541 35.08591,33.6634914 C30.958934,33.6503522 21.7011971,34.4937485 7.31269928,36.1936803 L7.31270981,36.1937695 C4.84454481,36.4849483 2.60765474,34.7201522 2.31647599,32.2519872 C2.29636492,32.0815166 2.28602425,31.9100349 2.28550466,31.7383829 L2.21811446,10.2005745 C2.21033807,7.71530533 4.21874283,5.69429256 6.70401204,5.68651618 C6.71348105,5.68648655 6.72295014,5.68648681 6.73241915,5.68651695 Z" id="矩形" transform="translate(36.2392, 21.3418) rotate(10) translate(-36.2392, -21.3418)"></path>
                    <path d="M148.06528,100.794392 L218.117609,101.414208 C220.571675,101.435922 222.555793,103.41995 222.577617,105.874015 L222.767105,127.184704 C222.790934,129.669871 220.795625,131.703815 218.310458,131.727644 C218.139573,131.729282 217.968734,131.721185 217.79877,131.703392 C198.763866,129.723572 186.787862,128.711756 181.870725,128.66825 C176.981246,128.624988 165.90403,129.42267 148.639076,131.061294 L148.639084,131.061376 C146.164876,131.295721 143.96916,129.479952 143.734816,127.005744 C143.722685,126.877672 143.716052,126.749138 143.714935,126.620497 L143.525644,105.334233 C143.503543,102.84905 145.500266,100.816494 147.985449,100.794394 C148.012059,100.794157 148.03867,100.794156 148.06528,100.794392 Z" id="矩形" transform="translate(183.1485, 116.4921) rotate(53) translate(-183.1485, -116.4921)"></path>
                    <path d="M190.039685,181.353369 L253.642486,181.590095 C256.114568,181.599296 258.116348,183.60095 258.125705,186.073031 L258.205566,207.171306 C258.215197,209.656569 256.208301,211.67908 253.723038,211.688711 C253.557636,211.689352 253.392324,211.680873 253.227856,211.663313 C235.983139,209.825174 225.119873,208.897723 220.638049,208.881042 C216.192856,208.864497 206.175094,209.699789 190.584763,211.386918 L190.584786,211.387136 C188.11381,211.65341 185.894831,209.866145 185.628558,207.395169 C185.611943,207.240982 185.603309,207.086039 185.602691,206.93096 L185.522969,185.870371 C185.513561,183.385108 187.520639,181.362778 190.005903,181.35337 C190.017164,181.353328 190.028424,181.353327 190.039685,181.353369 Z" id="矩形" transform="translate(221.8652, 196.7693) rotate(78) translate(-221.8652, -196.7693)"></path>
                    <path d="M193.451355,264.581837 L257.097217,264.46082 C259.582494,264.456094 261.60104,266.466978 261.605766,268.952255 C261.605776,268.958011 261.605776,268.963768 261.605765,268.969524 L261.564949,290.053703 C261.56142,292.538982 259.543843,294.550838 257.058564,294.54731 C256.910257,294.547099 256.762051,294.539557 256.614489,294.524711 C239.337312,292.780591 228.454056,291.912874 223.964735,291.92141 C219.52156,291.929858 209.509179,292.819137 193.927593,294.589248 L193.927587,294.589195 C191.458218,294.869979 189.228778,293.09578 188.947995,290.626411 C188.92849,290.454875 188.918873,290.282359 188.919191,290.109718 L188.95992,269.073117 C188.964718,266.594581 190.972819,264.58655 193.451355,264.581837 Z" id="矩形" transform="translate(225.262, 279.8098) rotate(96) translate(-225.262, -279.8098)"></path>
                    <path d="M168.063004,344.745813 L238.300594,344.19883 C240.7858,344.179477 242.816147,346.178445 242.835501,348.663651 C242.835684,348.687127 242.835683,348.710605 242.835499,348.734082 L242.668337,369.991505 C242.649513,372.476715 240.619592,374.476115 238.134381,374.457291 C238.016506,374.456398 237.898711,374.450874 237.781269,374.440731 C218.634575,372.771405 206.589646,371.956145 201.646507,371.99464 C196.758338,372.032707 185.685252,373.007895 168.427248,374.920205 L168.427244,374.920167 C165.957102,375.194068 163.732615,373.413664 163.458713,370.943522 C163.439206,370.767598 163.430095,370.590677 163.431429,370.41368 L163.598187,349.210289 C163.617515,346.752545 165.605258,344.764953 168.063004,344.745813 Z" id="矩形" transform="translate(203.1315, 359.8241) rotate(119) translate(-203.1315, -359.8241)"></path>
                </g>
                <g id="编组-29" transform="translate(370.0005, 116.8986)" fill="#FA9D2D">
                    <path d="M81.1407133,37.6041464 L150.719973,38.2015281 C153.175146,38.2226073 155.160242,40.2078207 155.181176,42.6629945 L155.364427,64.1559163 C155.386068,66.6411034 153.388969,68.6732888 150.903782,68.6949294 C150.733616,68.6964112 150.563503,68.6882393 150.394263,68.6704531 C131.491239,66.6875632 119.597173,65.6751028 114.712056,65.633161 C109.855474,65.5914642 98.8571471,66.3967748 81.7170738,68.0490928 L81.7170724,68.0490783 C79.2432671,68.2876387 77.0444604,66.4756146 76.8059,64.0018094 C76.7933326,63.8714882 76.7864586,63.7406807 76.7852976,63.6097602 L76.6022429,42.1423483 C76.581053,39.6571573 78.5785206,37.6253341 81.0637116,37.6041442 C81.0893784,37.6039253 81.1150465,37.6039261 81.1407133,37.6041464 Z" id="矩形" transform="translate(115.9853, 53.3832) rotate(34) translate(-115.9853, -53.3832)"></path>
                    <path d="M6.73241915,5.68651695 L65.7053843,5.87427101 C68.1795667,5.88214815 70.1832939,7.885985 70.1910356,10.3601678 L70.258546,31.9395942 C70.2681272,34.4248571 68.2611906,36.4473278 65.7759277,36.456909 C65.5996435,36.4575886 65.4234717,36.4479089 65.2483232,36.4279198 C49.3058367,34.5981245 39.2516869,33.6767541 35.08591,33.6634914 C30.958934,33.6503522 21.7011971,34.4937485 7.31269928,36.1936803 L7.31270981,36.1937695 C4.84454481,36.4849483 2.60765474,34.7201522 2.31647599,32.2519872 C2.29636492,32.0815166 2.28602425,31.9100349 2.28550466,31.7383829 L2.21811446,10.2005745 C2.21033807,7.71530533 4.21874283,5.69429256 6.70401204,5.68651618 C6.71348105,5.68648655 6.72295014,5.68648681 6.73241915,5.68651695 Z" id="矩形" transform="translate(36.2392, 21.3418) rotate(10) translate(-36.2392, -21.3418)"></path>
                    <path d="M148.06528,100.794392 L218.117609,101.414208 C220.571675,101.435922 222.555793,103.41995 222.577617,105.874015 L222.767105,127.184704 C222.790934,129.669871 220.795625,131.703815 218.310458,131.727644 C218.139573,131.729282 217.968734,131.721185 217.79877,131.703392 C198.763866,129.723572 186.787862,128.711756 181.870725,128.66825 C176.981246,128.624988 165.90403,129.42267 148.639076,131.061294 L148.639084,131.061376 C146.164876,131.295721 143.96916,129.479952 143.734816,127.005744 C143.722685,126.877672 143.716052,126.749138 143.714935,126.620497 L143.525644,105.334233 C143.503543,102.84905 145.500266,100.816494 147.985449,100.794394 C148.012059,100.794157 148.03867,100.794156 148.06528,100.794392 Z" id="矩形" transform="translate(183.1485, 116.4921) rotate(53) translate(-183.1485, -116.4921)"></path>
                    <path d="M190.039685,181.353369 L253.642486,181.590095 C256.114568,181.599296 258.116348,183.60095 258.125705,186.073031 L258.205566,207.171306 C258.215197,209.656569 256.208301,211.67908 253.723038,211.688711 C253.557636,211.689352 253.392324,211.680873 253.227856,211.663313 C235.983139,209.825174 225.119873,208.897723 220.638049,208.881042 C216.192856,208.864497 206.175094,209.699789 190.584763,211.386918 L190.584786,211.387136 C188.11381,211.65341 185.894831,209.866145 185.628558,207.395169 C185.611943,207.240982 185.603309,207.086039 185.602691,206.93096 L185.522969,185.870371 C185.513561,183.385108 187.520639,181.362778 190.005903,181.35337 C190.017164,181.353328 190.028424,181.353327 190.039685,181.353369 Z" id="矩形" transform="translate(221.8652, 196.7693) rotate(78) translate(-221.8652, -196.7693)"></path>
                    <path d="M193.451355,264.581837 L257.097217,264.46082 C259.582494,264.456094 261.60104,266.466978 261.605766,268.952255 C261.605776,268.958011 261.605776,268.963768 261.605765,268.969524 L261.564949,290.053703 C261.56142,292.538982 259.543843,294.550838 257.058564,294.54731 C256.910257,294.547099 256.762051,294.539557 256.614489,294.524711 C239.337312,292.780591 228.454056,291.912874 223.964735,291.92141 C219.52156,291.929858 209.509179,292.819137 193.927593,294.589248 L193.927587,294.589195 C191.458218,294.869979 189.228778,293.09578 188.947995,290.626411 C188.92849,290.454875 188.918873,290.282359 188.919191,290.109718 L188.95992,269.073117 C188.964718,266.594581 190.972819,264.58655 193.451355,264.581837 Z" id="矩形" transform="translate(225.262, 279.8098) rotate(96) translate(-225.262, -279.8098)"></path>
                    <path d="M168.063004,344.745813 L238.300594,344.19883 C240.7858,344.179477 242.816147,346.178445 242.835501,348.663651 C242.835684,348.687127 242.835683,348.710605 242.835499,348.734082 L242.668337,369.991505 C242.649513,372.476715 240.619592,374.476115 238.134381,374.457291 C238.016506,374.456398 237.898711,374.450874 237.781269,374.440731 C218.634575,372.771405 206.589646,371.956145 201.646507,371.99464 C196.758338,372.032707 185.685252,373.007895 168.427248,374.920205 L168.427244,374.920167 C165.957102,375.194068 163.732615,373.413664 163.458713,370.943522 C163.439206,370.767598 163.430095,370.590677 163.431429,370.41368 L163.598187,349.210289 C163.617515,346.752545 165.605258,344.764953 168.063004,344.745813 Z" id="矩形" transform="translate(203.1315, 359.8241) rotate(119) translate(-203.1315, -359.8241)"></path>
                </g>
                <g id="编组-31" transform="translate(329.2464, 203.7681)">
                    <path d="M37.4794227,0 C64.3916828,141.207251 76.8543987,217.429735 74.8675705,228.667455 C67.343359,258.377919 45.3292638,260.608696 38.2675228,260.608696 C30.2462545,260.608696 4.89581052,260.849115 0.150195886,228.667455 C-1.53167146,217.262128 10.9114041,141.039643 37.4794227,0 Z" id="三角形" fill="#E677DD"></path>
                    <ellipse id="圆形" fill="#1D1E1F" cx="37.4794227" cy="221.502339" rx="17.1689401" ry="17.3048702"></ellipse>
                </g>
                <g id="编组-30" transform="translate(257.3913, 528.7246)" fill="#2094FB">
                    <ellipse id="圆形" cx="17.194411" cy="17.1594203" rx="17.194411" ry="17.1594203"></ellipse>
                    <ellipse id="圆形" cx="81.8151642" cy="17.1594203" rx="17.194411" ry="17.1594203"></ellipse>
                    <ellipse id="圆形" cx="143.034825" cy="17.1594203" rx="17.194411" ry="17.1594203"></ellipse>
                    <ellipse id="圆形" cx="214.457763" cy="17.1594203" rx="17.194411" ry="17.1594203"></ellipse>
                </g>
            </g>
        </g>
    </g>
</svg>