<?xml version="1.0" encoding="UTF-8"?>
<svg width="1024px" height="1024px" viewBox="0 0 1024 1024" version="1.1" xmlns="http://www.w3.org/2000/svg" xmlns:xlink="http://www.w3.org/1999/xlink">
    <title>Spotify</title>
    <g id="ICON-新版方图标" stroke="none" stroke-width="1" fill="none" fill-rule="evenodd">
        <g id="Spotify" transform="translate(-0, -0.0008)">
            <polygon id="蒙版路径" fill="#FFFFFF" points="1.02318154e-12 7.26885219e-12 1024 7.26885219e-12 1024 1024 1.02318154e-12 1024"></polygon>
            <g id="编组" transform="translate(0, 0.0008)" fill="#1ED760" fill-rule="nonzero">
                <path d="M816.08,455.68 C652.24,358.4 378.32,348.16 222.16,396.8 C196.56,404.48 170.96,389.12 163.28,366.08 C155.6,340.48 170.96,314.88 194,307.2 C375.76,253.44 675.28,263.68 864.72,376.32 C887.76,389.12 895.44,419.84 882.64,442.88 C869.84,460.8 839.12,468.48 816.08,455.68 M757.2,611.84 C618.96,527.36 409.04,501.76 247.76,552.96 C227.28,558.08 204.24,547.84 199.12,527.36 C194,506.88 204.24,483.84 224.72,478.72 C411.6,422.4 642,450.56 800.72,547.84 C816.08,555.52 823.76,581.12 810.96,599.04 C798.16,616.96 775.12,624.64 757.2,611.84 Z M706,750.08 C585.68,675.84 434.64,660.48 255.44,701.44 C237.52,706.56 222.16,693.76 217.04,678.4 C211.92,660.48 224.72,645.12 240.08,640 C434.64,596.48 603.6,614.4 736.72,696.32 C754.64,704 757.2,724.48 749.52,739.84 C739.28,755.2 721.36,760.32 706,750.08 Z M0,0 L0,1024 L1024,1024 L1024,0 L0,0 Z" id="形状"></path>
            </g>
        </g>
    </g>
</svg>