<?xml version="1.0" encoding="UTF-8"?>
<svg width="1025px" height="1024px" viewBox="0 0 1025 1024" version="1.1" xmlns="http://www.w3.org/2000/svg" xmlns:xlink="http://www.w3.org/1999/xlink">
    <title>Tinify</title>
    <g id="ICON-新版方图标" stroke="none" stroke-width="1" fill="none" fill-rule="evenodd">
        <g id="Tinify" transform="translate(0.3975, 0)">
            <rect id="蒙版路径" fill="#FFFFFF" x="0" y="0" width="1024" height="1024"></rect>
            <g id="熊猫" transform="translate(142, 270)" fill-rule="nonzero">
                <path d="M0,102.069417 C0,158.440798 45.6980333,204.138831 102.069414,204.138831 C158.440795,204.138831 204.138828,158.440798 204.138828,102.069417 C204.138828,45.6980363 158.440795,3.04191635e-06 102.069414,3.04191635e-06 C45.6980333,3.04191635e-06 0,45.6980363 0,102.069417 L0,102.069417 Z" id="路径" fill="#504B5A"></path>
                <path d="M51.0354297,102.069417 C51.0354297,130.254708 73.8841228,153.103401 102.069414,153.103401 C130.254705,153.103401 153.103398,130.254708 153.103398,102.069417 C153.103398,73.8841258 130.254705,51.0354327 102.069414,51.0354327 C73.8841228,51.0354327 51.0354297,73.8841258 51.0354297,102.069417 Z" id="路径" fill="#625D6B"></path>
                <path d="M535.861172,102.069417 C535.861172,158.440798 581.559205,204.138831 637.930586,204.138831 C694.301967,204.138831 740,158.440798 740,102.069417 C740,65.603527 720.545681,31.9076544 688.965294,13.674709 C657.384907,-4.55823635 618.476265,-4.55823635 586.895878,13.674709 C555.315491,31.9076544 535.861172,65.603527 535.861172,102.069417 Z" id="路径" fill="#504B5A"></path>
                <path d="M586.896602,102.069417 C586.896602,130.254708 609.745295,153.103401 637.930586,153.103401 C666.115877,153.103401 688.96457,130.254708 688.96457,102.069417 C688.96457,73.8841258 666.115877,51.0354327 637.930586,51.0354327 C609.745295,51.0354327 586.896602,73.8841258 586.896602,102.069417 L586.896602,102.069417 Z" id="路径" fill="#625D6B"></path>
                <path d="M25.5169922,293.449026 C25.5169922,441.423003 179.747288,561.379612 370,561.379612 C560.252712,561.379612 714.483008,441.423003 714.483008,293.449026 C714.483008,145.47505 560.252712,25.5184405 370,25.5184405 C179.747288,25.5184405 25.5169922,145.47505 25.5169922,293.449026 Z" id="路径" fill="#EDEDEE"></path>
                <path d="M472.069414,535.86262 C452.564922,535.86262 433.537383,533.938909 415.163125,530.306839 C408.614414,529.011839 408.543594,519.829769 415.066289,518.409026 C470.469453,506.346448 510.345625,471.553441 510.345625,421.035433 C510.345625,370.001448 441.745313,293.449026 370.001445,293.449026 C311.531328,293.449026 255.298555,344.253206 236.466133,390.685316 C234.085703,396.55762 225.804063,396.713714 222.777578,391.14637 C202.722422,354.259105 191.379609,312.362386 191.379609,267.932034 C191.379609,161.132112 256.855156,68.9529718 351.56793,25.9086749 C169.887813,33.3607062 25.5169922,150.285042 25.5169922,293.449026 C25.5169922,441.423011 179.747734,561.379612 370,561.379612 C429.111836,561.379612 484.734688,549.78387 533.346328,529.380394 C513.204043,533.680985 492.665691,535.85365 472.069414,535.86262 Z" id="路径" fill="#DCDBDE"></path>
                <path d="M267.930586,255.172816 C267.930586,293.449026 242.413594,395.516995 178.620391,395.516995 C140.34418,395.516995 102.067969,357.240784 114.827188,306.2068 C127.586406,255.172816 178.620391,204.137386 216.896602,204.137386 C245.081641,204.137386 267.930586,226.987776 267.930586,255.172816 L267.930586,255.172816 Z M472.069414,255.172816 C472.069414,293.449026 497.586406,395.516995 561.379609,395.516995 C599.65582,395.516995 637.932031,357.240784 625.172813,306.2068 C612.413594,255.172816 561.379609,204.137386 523.103398,204.137386 C494.918359,204.137386 472.069414,226.987776 472.069414,255.172816 Z M493.848828,412.013792 C491.456673,409.620653 488.211624,408.276119 484.82791,408.276119 C481.444196,408.276119 478.199147,409.620653 475.806992,412.013792 L463.821016,423.993987 C458.164063,429.637933 450.065977,432.340667 442.165898,431.22055 L382.759219,422.730784 L382.759219,388.534691 C384.217539,388.015823 385.716328,387.658831 387.118281,386.9593 L407.988594,376.524144 C415.985034,372.526679 421.036109,364.353863 421.03543,355.413909 L421.03543,355.327191 C421.03543,342.290472 410.46875,331.723792 397.432031,331.723792 L342.569414,331.723792 C329.532695,331.723792 318.966016,342.290472 318.966016,355.327191 L318.966016,355.412464 C318.966013,364.352226 324.016886,372.524714 332.012852,376.522698 L352.883164,386.957855 C354.283672,387.657386 355.783906,388.015823 357.242227,388.533245 L357.242227,422.727894 L297.847109,431.211878 C289.835742,432.3768 281.835938,429.636487 276.18043,423.998323 L264.193008,412.012347 C261.800853,409.619208 258.555804,408.274674 255.17209,408.274674 C251.788376,408.274674 248.543327,409.619208 246.151172,412.012347 C243.758033,414.404502 242.413499,417.649551 242.413499,421.033265 C242.413499,424.416979 243.758033,427.662028 246.151172,430.054183 L258.138594,442.047386 C269.4525,453.342503 285.699258,458.749417 301.447383,456.475941 L370,446.682503 L438.56418,456.483167 C440.931602,456.819925 443.312031,456.9818 445.678008,456.9818 C459.109297,456.9818 472.254414,451.642816 481.861406,442.04305 L493.848828,430.057073 C496.242409,427.66486 497.587224,424.419501 497.587224,421.035433 C497.587224,417.651365 496.242409,414.406006 493.848828,412.013792 L493.848828,412.013792 Z" id="形状" fill="#504B5A"></path>
                <path d="M216.896602,287.069417 C206.331367,287.069417 197.759219,278.50305 197.759219,267.932034 L197.759219,255.172816 C197.759219,244.600355 206.331367,236.035433 216.896602,236.035433 C227.461836,236.035433 236.033984,244.6018 236.033984,255.172816 L236.033984,267.932034 C236.033984,278.50305 227.461836,287.069417 216.896602,287.069417 L216.896602,287.069417 Z M523.103398,287.069417 C512.538164,287.069417 503.966016,278.50305 503.966016,267.932034 L503.966016,255.172816 C503.966016,244.600355 512.538164,236.035433 523.103398,236.035433 C533.668633,236.035433 542.240781,244.6018 542.240781,255.172816 L542.240781,267.932034 C542.240781,278.50305 533.668633,287.069417 523.103398,287.069417 Z" id="形状" fill="#8D8A94"></path>
            </g>
        </g>
    </g>
</svg>