<?xml version="1.0" encoding="UTF-8"?>
<svg width="1025px" height="1024px" viewBox="0 0 1025 1024" version="1.1" xmlns="http://www.w3.org/2000/svg" xmlns:xlink="http://www.w3.org/1999/xlink">
    <title>Tongyi</title>
    <g id="ICON-新版方图标" stroke="none" stroke-width="1" fill="none" fill-rule="evenodd">
        <g id="Tongyi" transform="translate(0.1887, 0)">
            <rect id="蒙版路径" fill="#FFFFFF" x="0" y="0" width="1024" height="1024"></rect>
            <g id="编组" transform="translate(137, 137)" fill="#605BEC" fill-rule="nonzero">
                <path d="M746.606335,454.654537 L653.259594,291.327157 L693.313223,214.644492 C698.84364,207.361313 700.268141,196.645831 698.005698,188.023217 L646.639853,95.3510436 C642.701525,89.2398705 635.914195,85.472709 628.624099,85.3052796 L437.657114,85.3052796 L394.922071,10.6317669 C391.90548,4.77173792 386.12368,0.753432303 379.587733,0 L278.783308,0 C271.325624,0.167429401 266.04659,5.60888492 262.359645,12.0549168 L260.767555,14.6500726 L165.409754,177.977453 L73.9064857,177.977453 C66.3650075,177.810023 59.2425004,181.577185 55.2203787,188.023217 L2.51382604,281.281393 C-0.837942014,287.978569 -0.837942014,295.931466 2.51382604,302.628642 L97.2850679,467.295457 L54.5500251,541.96897 C51.1982571,548.666146 51.1982571,556.535328 54.5500251,563.316218 L103.234456,648.705213 C107.172784,655.234959 114.295291,659.33698 121.920563,659.33698 L312.803754,659.33698 L358.806771,739.284518 C362.326127,745.311977 368.526898,749.246568 375.481817,750 L483.576337,750 C491.03402,749.832571 497.905145,745.814265 501.59209,739.368233 L595.776772,574.617703 L679.90615,574.617703 C687.363834,573.947985 694.067371,569.76225 697.921904,563.316218 L746.606335,477.341221 C751.131222,470.392901 751.131222,461.519143 746.606335,454.654537 Z M628.540305,465.370019 L579.855874,375.376716 L379.587733,727.983034 L324.870119,637.989731 L124.685772,637.989731 L172.783643,550.675299 L274.844981,550.675299 L74.5768393,199.324701 L179.319591,199.324701 L278.783308,21.9332515 L328.808446,109.247684 L277.442601,199.240987 L677.89509,199.240987 L627.199598,288.648287 L728.004022,465.286304 L628.540305,465.286304 L628.540305,465.370019 Z" id="形状"></path>
                <polygon id="路径" points="375.292936 500.328947 500 300 250 300"></polygon>
            </g>
        </g>
    </g>
</svg>