<?xml version="1.0" encoding="UTF-8"?>
<svg width="1025px" height="1024px" viewBox="0 0 1025 1024" version="1.1" xmlns="http://www.w3.org/2000/svg" xmlns:xlink="http://www.w3.org/1999/xlink">
    <title>Transmission</title>
    <g id="ICON-新版方图标" stroke="none" stroke-width="1" fill="none" fill-rule="evenodd">
        <g id="Transmission" transform="translate(0.6332, 0)">
            <rect id="蒙版路径" fill="#FFFFFF" x="0" y="0" width="1024" height="1024"></rect>
            <g id="编组" transform="translate(187, 149)" fill-rule="nonzero">
                <path d="M595.839705,726.47059 L54.1602947,726.47059 C24.2527617,726.460039 0.010551586,702.217829 0,672.310296 L0,645.220591 L45.2705888,282.272061 C50.3558823,241.608826 84.9205885,210.29412 125.889706,210.29412 L524.110294,210.29412 C565.079412,210.29412 599.644118,241.608826 604.729411,282.272061 L650,645.220591 L650,672.310296 C649.989448,702.217829 625.747238,726.460039 595.839705,726.47059 Z" id="路径" fill="#ACAEAA"></path>
                <path d="M510.25,592.647061 L139.75,592.647061 C108.205883,592.647061 83.3147061,564.983826 85.742647,533.535296 L104.497059,294.163238 C106.657353,265.945591 130.191176,248.529415 158.485295,248.529415 L491.514705,248.529415 C519.827941,248.529415 543.342647,265.544121 545.522059,293.761768 L564.27647,535.925002 C566.685294,567.373532 541.813235,592.647061 510.25,592.647061 Z" id="路径" fill="#F0F2EF"></path>
                <path d="M609.374999,726.47059 L40.6250006,726.47059 C18.1884328,726.47059 8.96138317e-07,708.282158 8.96138317e-07,685.845591 C8.96138317e-07,663.409023 18.1884328,645.220591 40.6250006,645.220591 L609.374999,645.220591 C631.811567,645.220591 650.000001,663.409023 650.000001,685.845591 C650.000001,708.282158 631.811567,726.47059 609.374999,726.47059 Z" id="路径" fill="#787B76"></path>
                <polygon id="路径" fill="#555958" points="422.098529 458.823532 382.352941 305.882356 267.647059 305.882356 230.023529 458.823532 162.5 458.823532 325 567.163238 487.5 458.823532"></polygon>
                <polygon id="路径" fill="#3B4040" points="229.698529 477.941179 249.160294 477.941179 292.079412 286.764709 357.060294 286.764709 400.97353 477.941179 421.44853 477.941179 325 538.582355"></polygon>
                <path d="M540.016176,115.011768 L109.983824,115.011768 C79.1682697,115.001216 54.1899633,90.0229099 54.1794087,59.2073559 L54.1794087,55.804415 C54.1794087,41.0026101 60.0520859,26.8055917 70.5185432,16.3391344 C80.9850004,5.87267719 95.1820188,-0.00507009453 109.983824,0 L540.035294,0 C570.850848,0.0105545829 595.829154,24.988861 595.839705,55.804415 L595.839705,59.1882385 C595.839705,90.0187223 570.84666,115.011768 540.016176,115.011768 L540.016176,115.011768 Z" id="路径" fill="#E80000"></path>
                <path d="M108.339706,57.505885 C93.4088237,57.505885 81.2500002,44.6014732 81.2500002,28.7529441 C81.2500002,12.904415 93.4088237,3.28157694e-06 108.339706,3.28157694e-06 L541.679412,3.28157694e-06 C556.610294,3.28157694e-06 568.769117,12.904415 568.769117,28.7529441 C568.769117,44.6014732 556.610294,57.505885 541.679412,57.505885 L108.339706,57.505885 Z" id="路径" fill="#E58484"></path>
                <polygon id="路径" fill="#939692" points="267.647059 3.28157694e-06 382.352941 3.28157694e-06 382.352941 401.470591 267.647059 401.470591"></polygon>
                <polygon id="路径" fill="#AAAEA8" points="286.764706 3.28157694e-06 363.235294 3.28157694e-06 363.235294 401.470591 286.764706 401.470591"></polygon>
                <path d="M363.235294,477.941179 L286.764706,477.941179 C281.69439,477.941179 276.831742,475.927004 273.246488,472.34175 C269.661234,468.756496 267.647059,463.893847 267.647059,458.823532 L267.647059,439.705885 C267.647059,434.635569 269.661234,429.772921 273.246488,426.187667 C276.831742,422.602413 281.69439,420.588238 286.764706,420.588238 L363.235294,420.588238 C368.30561,420.588238 373.168258,422.602413 376.753512,426.187667 C380.338766,429.772921 382.352941,434.635569 382.352941,439.705885 L382.352941,458.823532 C382.352941,463.893847 380.338766,468.756496 376.753512,472.34175 C373.168258,475.927004 368.30561,477.941179 363.235294,477.941179 L363.235294,477.941179 Z" id="路径" fill="#555958"></path>
            </g>
        </g>
    </g>
</svg>