<?xml version="1.0" encoding="UTF-8"?>
<svg width="1025px" height="1024px" viewBox="0 0 1025 1024" version="1.1" xmlns="http://www.w3.org/2000/svg" xmlns:xlink="http://www.w3.org/1999/xlink">
    <title>Ubuntu</title>
    <g id="ICON-新版方图标" stroke="none" stroke-width="1" fill="none" fill-rule="evenodd">
        <g id="Ubuntu" transform="translate(0.6332, 0)">
            <rect id="蒙版路径" fill="#E65329" x="0" y="0" width="1024" height="1024"></rect>
            <path d="M245.459978,591.913841 C300.378128,591.913841 344.898085,547.393884 344.898085,492.475734 C344.898085,437.557584 300.378128,393.037627 245.459978,393.037627 C190.529748,393.037627 146,437.567378 146,492.497607 C146,547.427837 190.529748,591.957588 245.459978,591.957588 L245.459978,591.913841 Z M659.617725,373.876214 C714.535875,373.876214 759.055832,329.356257 759.055832,274.438107 C759.055832,219.519957 714.535875,175 659.617725,175 C604.699575,175 560.179618,219.519957 560.179618,274.438107 C560.179618,329.356257 604.699575,373.876214 659.617725,373.876214 Z M469.753499,748.442458 C398.571641,733.388383 337.931533,687.125202 304.606621,622.449608 C277.994704,634.548927 248.316964,638.212845 219.561448,632.949012 C259.936165,732.772445 347.302129,805.987353 452.64822,828.281677 C475.834404,833.225146 499.545559,835.675007 523.256713,835.543765 C504.999269,811.615218 494.79859,782.514183 494.120867,752.423482 C485.937053,751.504032 477.804414,750.175361 469.753499,748.442458 L469.753499,748.442458 Z M637.218996,848.405535 C672.744811,848.405535 705.572017,829.45274 723.334925,798.686482 C741.097833,767.920225 741.097833,730.014631 723.334925,699.248374 C705.572017,668.482116 672.744811,649.529321 637.218996,649.529321 C582.300846,649.529321 537.780889,694.049278 537.780889,748.967428 C537.780889,803.885578 582.300846,848.405535 637.218996,848.405535 L637.218996,848.405535 Z M775.592393,712.438251 C863.060208,602.127245 869.645503,448.070162 791.910217,330.697414 C780.435056,357.758505 760.916701,380.636827 736.00089,396.231195 C776.46274,472.653657 773.416473,564.790742 727.995094,638.373704 C751.27476,657.424407 767.934596,683.348214 775.592393,712.438251 L775.592393,712.438251 Z M237.804162,349.902574 C266.986779,348.373825 295.940525,355.791601 320.793203,371.163868 C365.261384,306.916782 437.958307,268.027837 516.08212,266.694796 C517.700778,237.38396 528.200183,209.254306 546.267907,186.068122 C420.443324,176.565471 300.385305,240.331927 237.804162,349.902574 L237.804162,349.902574 Z" id="形状" fill="#FFFFFF" fill-rule="nonzero"></path>
        </g>
    </g>
</svg>