<?xml version="1.0" encoding="UTF-8"?>
<svg width="1024px" height="1024px" viewBox="0 0 1024 1024" version="1.1" xmlns="http://www.w3.org/2000/svg" xmlns:xlink="http://www.w3.org/1999/xlink">
    <title>Uhd.wallpaper</title>
    <g id="ICON-新版方图标" stroke="none" stroke-width="1" fill="none" fill-rule="evenodd">
        <g id="Uhd.wallpaper">
            <rect id="蒙版路径" fill="#99E7FF" x="0" y="0" width="1024" height="1024"></rect>
            <g id="编组-9" transform="translate(160, 162)">
                <path d="M240,79.1130186 C178.666667,67.0958512 132.333333,77.1101574 101,109.155937 C69.6666667,141.201717 63,184.597043 81,239.341917 C27,269.384835 0,306.437768 0,350.500715 C0,394.563662 27,431.616595 81,461.659514 C58.3333333,517.739628 65,563.471626 101,598.855508 C137,634.23939 183.333333,640.581784 240,617.88269 C262.666667,672.627563 299.666667,700 351,700 C402.333333,700 439,672.627563 461,617.88269 C512.333333,639.246543 557,632.904149 595,598.855508 C633,564.806867 641.333333,519.074869 620,461.659514 C673.333333,436.957558 700,399.904626 700,350.500715 C700,301.096805 673.333333,264.043872 620,239.341917 C644.666667,192.608488 639.333333,149.213162 604,109.155937 C568.666667,69.0987124 521,59.0844063 461,79.1130186 C439.666667,26.3710062 403,0 351,0 C299,0 262,26.3710062 240,79.1130186 Z" id="多边形" fill="#00A6CC"></path>
                <g id="编组-10" transform="translate(352.0749, 445.7086) scale(1, -1) translate(-352.0749, -445.7086)translate(134.7758, 324.7279)" fill="#99E7FF">
                    <path d="M308.305742,1.03756673 L308.305742,115.703281 C304.790469,113.935636 301.476702,113.051814 298.364442,113.051814 C295.252182,113.051814 292.141831,113.935636 289.033391,115.703281 L243.009565,161.332403 L242.270548,95.8252344 C242.049254,92.5812787 240.476278,89.4838906 237.55162,86.5330701 C234.626962,83.5822495 231.363122,81.7995544 227.760101,81.1849847 L308.305742,1.03756673 Z" id="多边形"></path>
                    <path d="M195.379558,5.05308706 L195.297653,119.636897 C191.781128,117.87303 188.465622,116.992209 185.351136,116.994436 C182.236649,116.996662 179.123443,117.882077 176.011516,119.650683 L129.922177,165.280134 L129.229422,99.8202847 C129.010287,96.5788045 127.438398,93.4847539 124.513756,90.5381332 C121.589113,87.5915124 118.324213,85.8124253 114.719053,85.2008718 L195.379558,5.05308706 Z" id="多边形" transform="translate(155.0493, 85.1666) rotate(-45) translate(-155.0493, -85.1666)"></path>
                    <path d="M120.363357,87.2750959 L120.363357,201.777002 C116.843055,200.011883 113.524547,199.129323 110.407834,199.129323 C107.291122,199.129323 104.176322,200.011883 101.063434,201.777002 L54.9737666,247.340939 L54.2336919,181.927353 C54.0120813,178.688031 52.4368549,175.595068 49.5080128,172.648463 C46.5791706,169.701858 43.3106618,167.921709 39.7024862,167.308018 L120.363357,87.2750959 Z" id="多边形" transform="translate(80.0329, 167.308) rotate(-90) translate(-80.0329, -167.308)"></path>
                    <path d="M390.269087,76.2359317 L390.350941,190.8226 C386.831979,189.053661 383.515293,188.16808 380.400885,188.165855 C377.286476,188.16363 374.17461,189.044619 371.065285,190.808823 L325.04226,236.373589 L324.25597,170.91105 C324.032207,167.669172 322.455934,164.572795 319.527151,161.621918 C316.598367,158.671041 313.331002,156.887241 309.725055,156.27052 L390.269087,76.2359317 Z" id="多边形" transform="translate(350.038, 156.3048) rotate(44) translate(-350.038, -156.3048)"></path>
                </g>
                <g id="编组-10" transform="translate(133.7758, 130.4503)" fill="#99E7FF">
                    <path d="M308.305742,1.03756673 L308.305742,115.703281 C304.790469,113.935636 301.476702,113.051814 298.364442,113.051814 C295.252182,113.051814 292.141831,113.935636 289.033391,115.703281 L243.009565,161.332403 L242.270548,95.8252344 C242.049254,92.5812787 240.476278,89.4838906 237.55162,86.5330701 C234.626962,83.5822495 231.363122,81.7995544 227.760101,81.1849847 L308.305742,1.03756673 Z" id="多边形"></path>
                    <path d="M195.379558,5.05308706 L195.297653,119.636897 C191.781128,117.87303 188.465622,116.992209 185.351136,116.994436 C182.236649,116.996662 179.123443,117.882077 176.011516,119.650683 L129.922177,165.280134 L129.229422,99.8202847 C129.010287,96.5788045 127.438398,93.4847539 124.513756,90.5381332 C121.589113,87.5915124 118.324213,85.8124253 114.719053,85.2008718 L195.379558,5.05308706 Z" id="多边形" transform="translate(155.0493, 85.1666) rotate(-45) translate(-155.0493, -85.1666)"></path>
                    <path d="M120.363357,87.2750959 L120.363357,201.777002 C116.843055,200.011883 113.524547,199.129323 110.407834,199.129323 C107.291122,199.129323 104.176322,200.011883 101.063434,201.777002 L54.9737666,247.340939 L54.2336919,181.927353 C54.0120813,178.688031 52.4368549,175.595068 49.5080128,172.648463 C46.5791706,169.701858 43.3106618,167.921709 39.7024862,167.308018 L120.363357,87.2750959 Z" id="多边形" transform="translate(80.0329, 167.308) rotate(-90) translate(-80.0329, -167.308)"></path>
                    <path d="M390.269087,76.2359317 L390.350941,190.8226 C386.831979,189.053661 383.515293,188.16808 380.400885,188.165855 C377.286476,188.16363 374.17461,189.044619 371.065285,190.808823 L325.04226,236.373589 L324.25597,170.91105 C324.032207,167.669172 322.455934,164.572795 319.527151,161.621918 C316.598367,158.671041 313.331002,156.887241 309.725055,156.27052 L390.269087,76.2359317 Z" id="多边形" transform="translate(350.038, 156.3048) rotate(44) translate(-350.038, -156.3048)"></path>
                </g>
                <g id="扇形" transform="translate(24.4917, 22.9992)" fill="#99E7FF">
                    <path d="M-7.63315689,319.469625 C-5.80813761,302.175488 3.83804595,284.807215 21.3053938,267.364804 C42.0200777,247.316534 67.0764885,247.899952 80.4944963,247.467397 C93.7557753,247.467397 116.103515,249.854819 138.144787,270.897427 C152.306819,284.096406 163.164241,299.652492 170.717053,317.565683 L80.4905021,407.467466 L-7.63315689,319.469625 Z" id="多边形" transform="translate(81.5419, 327.4674) rotate(271) translate(-81.5419, -327.4674)"></path>
                    <path d="M66.4349699,145.272005 C68.2706256,127.964248 77.9219134,110.576909 95.3888334,93.1099888 C116.10257,73.033107 141.140691,73.5996698 154.549419,73.1575278 C167.801232,73.1480835 190.13137,75.5221382 212.14238,96.5645949 C226.28519,109.763247 237.124122,125.322968 244.659176,143.243758 L154.43497,233.272005 L66.4349699,145.272005 Z" id="多边形" transform="translate(155.5471, 153.2148) rotate(-45) translate(-155.5471, -153.2148)"></path>
                    <path d="M238.494032,72.1030043 C240.316222,54.7841794 249.948301,37.391307 267.390268,19.924387 C288.074869,-0.152039201 313.095511,0.4328388 326.494345,0 C339.736685,0 362.052569,2.39172574 384.062887,23.4649789 C398.205023,36.6831886 409.047327,52.261793 416.589799,70.2007919 L326.494345,160.228898 L238.494032,72.1030043 Z" id="多边形"></path>
                    <path d="M414.425151,146.146874 C416.236118,128.842153 425.862807,111.469024 443.305218,94.0274843 C463.990799,73.9806857 489.03038,74.5830179 502.438824,74.1600775 C515.690967,74.1695441 538.025078,76.5754548 560.066733,97.6488649 C574.228774,110.867413 585.090225,126.442253 592.651086,144.373383 L502.553204,234.270532 L414.425151,146.146874 Z" id="多边形" transform="translate(503.5381, 154.2153) rotate(46) translate(-503.5381, -154.2153)"></path>
                    <path d="M483.366883,322.469836 C485.191039,305.17579 494.836355,287.807997 512.302832,270.366458 C533.016515,250.31922 558.072955,250.903887 571.490941,250.472001 C584.75222,250.472001 607.100079,252.861199 629.142402,273.904906 C643.305093,287.104591 654.163292,302.661218 661.716998,320.574786 L571.494935,410.472071 L483.366883,322.469836 Z" id="多边形" transform="translate(572.5419, 330.472) rotate(89) translate(-572.5419, -330.472)"></path>
                    <path d="M410.422508,494.779773 C412.258202,477.472448 421.909722,460.085547 439.37707,442.61907 C460.091315,422.542698 485.130061,423.109257 498.539123,422.667132 C511.791266,422.657693 534.121962,425.031698 556.133531,446.073639 C570.2767,459.271968 581.115909,474.831305 588.651159,492.751652 L498.424743,582.777615 L410.422508,494.779773 Z" id="多边形" transform="translate(499.5368, 502.7224) rotate(134) translate(-499.5368, -502.7224)"></path>
                    <path d="M236.494239,567.808993 C238.31579,550.490221 247.947336,533.097597 265.388875,515.63112 C286.072984,495.555218 311.093651,496.140721 324.49248,495.708217 C337.734826,495.708217 360.050779,498.100829 382.061633,519.174623 C396.204104,532.39318 407.046801,547.972048 414.589724,565.911227 L324.496475,655.937045 L236.494239,567.808993 Z" id="多边形" transform="translate(325.542, 575.8226) rotate(181) translate(-325.542, -575.8226)"></path>
                    <path d="M62.4350572,494.654445 C64.2459717,477.349294 73.8724125,459.975735 91.3143798,442.533768 C111.999436,422.486478 137.038393,423.088835 150.446502,422.66589 C163.698315,422.675362 186.031869,425.081342 208.072985,446.155287 C222.234678,459.374172 233.095865,474.949404 240.656546,492.880984 L150.560951,582.780339 L62.4350572,494.654445 Z" id="多边形" transform="translate(151.5458, 502.7231) rotate(225) translate(-151.5458, -502.7231)"></path>
                </g>
                <ellipse id="圆形" fill="#99E7FF" cx="352" cy="350.751073" rx="35.1219512" ry="36.0515021"></ellipse>
            </g>
        </g>
    </g>
</svg>