<?xml version="1.0" encoding="UTF-8"?>
<svg width="1024px" height="1024px" viewBox="0 0 1024 1024" version="1.1" xmlns="http://www.w3.org/2000/svg" xmlns:xlink="http://www.w3.org/1999/xlink">
    <title>V2raya</title>
    <g id="ICON-新版方图标" stroke="none" stroke-width="1" fill="none" fill-rule="evenodd">
        <g id="V2raya">
            <rect id="蒙版路径" fill="#1B4B7B" x="0" y="0" width="1024" height="1024"></rect>
            <g id="V" transform="translate(271, 76)" fill="#FFFFFF" fill-rule="nonzero">
                <path d="M370.00885,416.67654 L366.164602,416.67654 L366.164602,414.277251 L370.00885,414.277251 L370.00885,416.67654 Z M528.584071,84.7748815 C526.661947,86.3744076 524.259292,89.1735782 521.376106,93.1723934 C518.49292,97.1712085 516.090265,99.9703791 514.168142,101.569905 C516.090265,97.3045024 519.614159,91.1729858 524.739823,83.1753555 C526.661947,84.2417062 527.943363,84.7748815 528.584071,84.7748815 Z M499.752212,81.5758294 L496.869027,86.3744076 L494.946903,84.7748815 L497.830088,80.7760664 L499.752212,81.5758294 Z M514.168142,103.169431 C514.168142,102.103081 512.566372,104.50237 509.362832,110.367299 C509.362832,108.767773 508.40177,107.434834 506.479646,106.368483 C509.042478,104.235782 511.60531,103.169431 514.168142,103.169431 Z M525.700885,133.560427 C524.419469,136.226303 522.817699,140.225118 520.895575,145.556872 C520.254867,145.556872 518.973451,145.82346 517.051327,146.356635 C515.129204,152.221564 514.488496,155.687204 515.129204,156.753555 C515.129204,155.687204 513.847788,155.154028 511.284956,155.154028 C513.847788,149.822275 518.653097,142.624408 525.700885,133.560427 Z M508.40177,111.966825 C503.916814,118.364929 496.228319,127.962085 485.336283,140.758294 C485.336283,140.758294 483.093805,138.359005 478.60885,133.560427 C480.530973,132.494076 482.453097,131.9609 484.375221,131.9609 C485.656637,131.9609 485.976991,132.494076 485.336283,133.560427 C485.336283,134.626777 485.336283,135.42654 485.336283,135.959716 C486.617699,135.42654 488.539823,134.36019 491.102655,132.760664 C491.102655,132.760664 491.583186,132.094194 492.544248,130.761256 C493.50531,129.428318 493.985841,128.228673 493.985841,127.162322 C493.985841,126.629147 492.063717,124.763033 488.219469,121.563981 C484.375221,121.563981 487.899115,121.563981 498.79115,121.563981 C499.431858,118.898104 500.713274,115.165877 502.635398,110.367299 C505.19823,110.367299 507.120354,110.900474 508.40177,111.966825 Z M508.40177,157.553318 L505.518584,163.151659 L503.59646,162.351896 L506.479646,156.753555 L508.40177,157.553318 Z M510.323894,171.149289 L508.40177,171.149289 L506.479646,167.950237 L508.40177,167.950237 L510.323894,171.149289 Z M432.477876,123.96327 L430.555752,128.761848 L428.633628,127.962085 L430.555752,123.96327 L432.477876,123.96327 Z M387.307965,143.957346 L380.580531,151.155213 L378.658407,149.555687 L385.385841,143.157583 L387.307965,143.957346 Z M376.736283,156.753555 L374.814159,161.552133 L372.892035,160.75237 L374.814159,156.753555 L376.736283,156.753555 Z M178.757522,5.59834123 C178.757522,4.53199052 177.636283,5.86492891 175.393805,9.5971564 C173.151327,13.3293839 168.826549,17.8613744 162.419469,23.193128 C163.060177,23.193128 162.099115,23.193128 159.536283,23.193128 C152.488496,23.193128 148.964602,20.7938389 148.964602,15.9952607 C148.964602,13.3293839 151.046903,9.99703791 155.211504,5.99822275 C159.376106,1.99940758 163.380531,0 167.224779,0 C162.739823,0 166.584071,1.86611374 178.757522,5.59834123 Z M543,82.3755924 C539.155752,87.1741706 533.389381,94.3720379 525.700885,103.969194 C525.700885,105.035545 527.302655,105.56872 530.506195,105.56872 C526.661947,110.367299 521.536283,117.031991 515.129204,125.562796 C514.488496,125.562796 513.20708,126.095972 511.284956,127.162322 C507.440708,132.494076 501.674336,141.024882 493.985841,152.754739 C494.626549,153.287915 495.587611,153.554502 496.869027,153.554502 C494.946903,153.554502 493.985841,154.354265 493.985841,155.953791 C493.985841,154.887441 493.665487,153.82109 493.024779,152.754739 C491.102655,156.486967 491.423009,159.152844 493.985841,160.75237 L446.893805,231.93128 C446.253097,232.464455 446.893805,232.731043 448.815929,232.731043 C449.456637,232.731043 454.902655,226.332938 465.153982,213.53673 C472.842478,203.406398 479.890265,193.009479 486.297345,182.345972 C488.860177,180.21327 492.384071,177.014218 496.869027,172.748815 C495.587611,176.481043 492.704425,181.546209 488.219469,187.944313 L488.219469,192.742891 C489.500885,193.809242 491.102655,194.342417 493.024779,194.342417 C489.821239,194.342417 493.985841,193.009479 505.518584,190.343602 C495.267257,196.741706 487.258407,208.471564 481.492035,225.533175 C478.929204,229.798578 474.764602,236.46327 468.99823,245.527251 C467.716814,246.060427 466.115044,246.86019 464.19292,247.92654 C464.19292,248.992891 465.153982,249.526066 467.076106,249.526066 L408.451327,345.49763 L411.334513,345.49763 C406.849558,344.964455 403.485841,346.563981 401.243363,350.296209 C399.000885,354.028436 398.520354,356.694313 399.80177,358.293839 C401.083186,359.36019 402.044248,359.893365 402.684956,359.893365 C402.684956,358.827014 403.325664,357.893957 404.60708,357.094194 C405.888496,356.294431 406.529204,355.627962 406.529204,355.094787 C382.182301,404.680095 347.904425,477.458531 303.695575,573.430095 C301.773451,574.496445 299.210619,576.362559 296.00708,579.028436 C295.366372,580.627962 294.40531,582.760664 293.123894,585.42654 C292.483186,585.959716 292.483186,586.492891 293.123894,587.026066 C295.046018,588.092417 296.00708,590.225118 296.00708,593.424171 C296.00708,596.623223 295.046018,598.755924 293.123894,599.822275 C292.483186,601.421801 293.123894,602.754739 295.046018,603.82109 C293.123894,605.953791 291.20177,611.285545 289.279646,619.816351 C287.99823,620.882701 286.716814,621.415877 285.435398,621.415877 C284.79469,621.415877 278.707965,617.950237 267.175221,611.018957 C262.049558,615.28436 258.525664,620.082938 256.60354,625.414692 C254.040708,627.547393 252.118584,628.613744 250.837168,628.613744 C243.789381,628.613744 238.343363,629.413507 234.499115,631.013033 C233.858407,630.479858 233.217699,629.813389 232.576991,629.013626 C231.936283,628.213863 231.615929,627.547393 231.615929,627.014218 C227.130973,629.146919 224.888496,631.546209 224.888496,634.212085 C224.888496,635.278436 225.849558,638.744076 227.771681,644.609005 C228.412389,646.208531 230.334513,648.474526 233.538053,651.406991 C236.741593,654.339455 238.343363,656.338863 238.343363,657.405213 C238.343363,658.471564 237.222124,659.937796 234.979646,661.80391 C232.737168,663.670024 231.295575,665.136256 230.654867,666.202607 C230.014159,667.268957 229.213274,669.001777 228.252212,671.401066 C227.29115,673.800355 225.20885,675 222.00531,675 C217.520354,675 213.676106,672.867299 210.472566,668.601896 C208.550442,665.936019 208.230088,661.80391 209.511504,656.205569 C210.79292,650.607227 209.831858,647.008294 206.628319,645.408768 C205.987611,644.342417 206.147788,643.276066 207.10885,642.209716 C208.069912,641.143365 208.550442,640.077014 208.550442,639.010664 C207.909735,638.477488 207.269027,638.077607 206.628319,637.811019 C205.987611,637.544431 205.346903,637.411137 204.706195,637.411137 C202.784071,639.543839 199.580531,643.009479 195.095575,647.808057 C191.251327,650.473934 186.766372,651.806872 181.640708,651.806872 C175.233628,651.806872 168.185841,647.808057 160.497345,639.810427 C159.856637,638.2109 158.575221,635.278436 156.653097,631.013033 C156.012389,629.413507 154.730973,628.613744 152.80885,628.613744 C151.527434,629.146919 150.886726,631.013033 150.886726,634.212085 C154.090265,633.67891 149.60531,633.412322 137.431858,633.412322 C137.431858,632.879147 138.072566,631.812796 139.353982,630.21327 L139.353982,627.014218 C136.79115,625.414692 135.509735,622.748815 135.509735,619.016588 L135.509735,615.817536 C133.587611,615.28436 130.704425,614.218009 126.860177,612.618483 C130.704425,612.085308 132.626549,610.75237 132.626549,608.619668 C132.626549,605.953791 131.024779,602.754739 127.821239,599.022512 C126.539823,597.956161 123.976991,596.356635 120.132743,594.223934 C119.492035,591.558057 117.890265,587.825829 115.327434,583.027251 C114.046018,581.9609 112.604425,580.361374 111.002655,578.228673 C109.400885,576.095972 107.318584,572.363744 104.755752,567.031991 C103.474336,564.366114 102.833628,560.367299 102.833628,555.035545 C102.833628,549.703791 101.231858,541.706161 98.0283186,531.042654 C97.3876106,529.443128 96.5867257,526.37737 95.6256637,521.845379 C94.6646018,517.313389 93.2230088,512.914692 91.300885,508.649289 C89.3787611,503.317536 89.3787611,499.851896 91.300885,498.25237 C88.0973451,494.520142 86.8159292,490.254739 87.4566372,485.456161 C86.8159292,485.456161 85.8548673,485.456161 84.5734513,485.456161 C83.9327434,485.989336 83.2920354,486.255924 82.6513274,486.255924 C83.2920354,486.255924 84.2530973,485.722749 85.5345133,484.656398 C79.7681416,476.658768 75.9238938,469.727488 74.0017699,463.862559 C66.3132743,440.936019 58.6247788,410.811611 50.9362832,373.489336 C47.0920354,356.427725 42.6070796,334.03436 37.4814159,306.309242 C35.559292,298.311611 33.6371681,286.048578 31.7150442,269.520142 C31.0743363,268.986967 29.4725664,267.920616 26.9097345,266.32109 C23.0654867,254.591232 18.260177,237.796209 12.4938053,215.936019 C4.16460177,149.822275 0,111.966825 0,102.369668 C0,103.436019 0.961061947,95.4383886 2.88318584,78.3767773 C5.4460177,78.3767773 7.68849558,77.5770142 9.61061947,75.9774882 C15.3769912,82.3755924 16.9787611,92.7725118 14.4159292,107.168246 C14.4159292,106.101896 15.0566372,107.701422 16.3380531,111.966825 C15.6973451,118.364929 16.0176991,123.430095 17.299115,127.162322 C19.2212389,125.029621 20.8230088,122.363744 22.1044248,119.164692 C22.7451327,112.766588 24.3469027,103.702607 26.9097345,91.9727488 C27.5504425,90.3732227 29.1522124,87.4407583 31.7150442,83.1753555 C34.2778761,78.9099526 35.559292,76.2440758 35.559292,75.1777251 C35.559292,60.2488152 30.4336283,52.7843602 20.1823009,52.7843602 C15.0566372,52.7843602 10.5716814,53.8507109 6.72743363,55.9834123 C9.93097345,51.1848341 14.4159292,48.785545 20.1823009,48.785545 C34.2778761,48.785545 41.3256637,56.7831754 41.3256637,72.778436 L41.3256637,75.9774882 C40.6849558,77.0438389 41.3256637,77.5770142 43.2477876,77.5770142 C44.5292035,77.5770142 45.8106195,76.910545 47.0920354,75.5776066 C48.3734513,74.2446682 49.9752212,73.5781991 51.8973451,73.5781991 C53.1787611,73.5781991 54.139823,74.1113744 54.780531,75.1777251 C55.4212389,75.7109005 55.7415929,74.9111374 55.7415929,72.778436 C55.7415929,69.5793839 55.100885,67.4466825 53.819469,66.3803318 C52.5380531,63.1812796 50.2955752,58.9158768 47.0920354,53.5841232 C43.8884956,51.9845972 40.0442478,49.5853081 35.559292,46.3862559 C35.559292,45.3199052 35.559292,43.7203791 35.559292,41.5876777 C35.559292,38.9218009 36.039823,37.0556872 37.000885,35.9893365 C37.9619469,34.9229858 38.4424779,33.3234597 38.4424779,31.1907583 C43.5681416,25.8590047 48.6938053,23.193128 53.819469,23.193128 C62.7893805,23.193128 68.5557522,26.6587678 71.1185841,33.5900474 C71.1185841,32.5236967 70.7982301,34.1232227 70.1575221,38.3886256 L70.1575221,58.3827014 L73.040708,59.9822275 C77.5256637,58.3827014 79.4477876,55.0503555 78.8070796,49.9851896 C78.1663717,44.9200237 78.4867257,41.0545024 79.7681416,38.3886256 C81.0495575,38.3886256 82.8115044,37.3222749 85.0539823,35.1895735 C87.2964602,33.056872 90.019469,27.7251185 93.2230088,19.1943128 C95.7858407,17.0616114 98.5088496,14.7956161 101.392035,12.396327 C104.275221,9.99703791 107.318584,8.79739336 110.522124,8.79739336 C111.80354,8.79739336 112.924779,9.06398104 113.885841,9.5971564 C114.846903,10.1303318 115.647788,10.3969194 116.288496,10.3969194 C118.210619,16.7950237 117.890265,22.9265403 115.327434,28.7914692 C119.171681,33.5900474 125.578761,39.9881517 134.548673,47.985782 C137.752212,48.5189573 142.557522,49.8518957 148.964602,51.9845972 C155.371681,54.1172986 158.254867,57.049763 157.614159,60.7819905 C158.254867,61.3151659 159.215929,61.5817536 160.497345,61.5817536 C166.263717,61.5817536 169.146903,59.4490521 169.146903,55.1836493 C169.146903,53.5841232 168.346018,51.1848341 166.744248,47.985782 C165.142478,44.7867299 164.341593,42.9206161 164.341593,42.3874408 L164.341593,33.5900474 L171.069027,33.5900474 C171.709735,33.5900474 173.952212,34.1232227 177.79646,35.1895735 C181,39.4549763 184.844248,46.6528436 189.329204,56.7831754 C190.610619,72.2452607 190.930973,84.5082938 190.290265,93.5722749 C190.930973,95.1718009 191.571681,96.5047393 192.212389,97.57109 C190.930973,103.436019 190.930973,109.567536 192.212389,115.96564 C193.493805,125.562796 195.736283,144.490521 198.939823,172.748815 C198.939823,173.281991 199.580531,173.815166 200.861947,174.348341 C202.143363,184.478673 205.026549,199.407583 209.511504,219.135071 C210.152212,227.132701 212.39469,237.796209 216.238938,251.125592 C218.80177,266.054502 220.083186,275.651659 220.083186,279.917062 C220.083186,280.450237 219.442478,282.049763 218.161062,284.71564 C217.520354,286.848341 217.520354,288.714455 218.161062,290.313981 C218.80177,295.112559 220.083186,301.244076 222.00531,308.708531 C222.00531,309.241706 221.684956,310.041469 221.044248,311.10782 C221.684956,313.240521 222.646018,316.172986 223.927434,319.905213 C225.849558,322.037915 225.20885,323.637441 222.00531,324.703791 C222.646018,325.770142 223.927434,326.836493 225.849558,327.902844 C225.849558,334.834123 226.169912,342.031991 226.810619,349.496445 C227.451327,356.9609 229.693805,362.559242 233.538053,366.291469 C233.538053,367.35782 231.615929,368.690758 227.771681,370.290284 C227.771681,372.422986 228.092035,374.555687 228.732743,376.688389 C228.732743,378.82109 228.732743,380.420616 228.732743,381.486967 C231.295575,383.086493 232.897345,383.353081 233.538053,382.28673 C236.741593,375.888626 241.867257,366.824645 248.915044,355.094787 C248.915044,355.627962 248.915044,353.761848 248.915044,349.496445 C248.915044,350.562796 251.79823,347.097156 257.564602,339.099526 C263.971681,327.902844 272.941593,312.174171 284.474336,291.913507 C285.755752,291.913507 287.677876,291.646919 290.240708,291.113744 C290.240708,290.580569 289.920354,289.24763 289.279646,287.114929 C292.483186,281.25 297.60885,272.452607 304.656637,260.722749 C304.656637,260.722749 307.539823,259.656398 313.306195,257.523697 C313.306195,256.457346 311.704425,255.924171 308.500885,255.924171 C308.500885,255.390995 308.981416,254.457938 309.942478,253.125 C310.90354,251.792062 311.384071,250.592417 311.384071,249.526066 C312.024779,249.526066 313.146018,249.792654 314.747788,250.325829 C316.349558,250.859005 317.470796,251.125592 318.111504,251.125592 L320.033628,248.726303 C320.033628,246.593602 318.752212,245.527251 316.189381,245.527251 C318.111504,242.861374 321.315044,238.595972 325.8,232.731043 C326.440708,230.065166 329.00354,226.599526 333.488496,222.334123 C335.410619,220.734597 338.293805,217.802133 342.138053,213.53673 C343.419469,210.337678 345.50177,206.205569 348.384956,201.140403 C351.268142,196.075237 356.233628,188.477488 363.281416,178.347156 C367.125664,175.68128 372.892035,170.882701 380.580531,163.951422 C383.784071,159.152844 388.269027,152.221564 394.035398,143.157583 C404.286726,129.295024 419.343363,110.100711 439.20531,85.5746445 C439.20531,88.7736967 438.564602,91.1729858 437.283186,92.7725118 C428.953982,105.035545 412.295575,127.962085 387.307965,161.552133 L387.307965,163.151659 C390.511504,161.552133 393.074336,159.419431 394.99646,156.753555 C396.918584,154.087678 399.481416,150.622038 402.684956,146.356635 C405.888496,142.091232 411.654867,135.159953 419.984071,125.562796 C420.624779,122.896919 422.546903,119.164692 425.750442,114.366114 C428.953982,109.567536 434.079646,101.836493 441.127434,91.1729858 C439.20531,91.1729858 440.80708,92.5059242 445.932743,95.1718009 C441.447788,101.03673 434.4,110.367299 424.789381,123.163507 C422.867257,126.362559 421.585841,129.561611 420.945133,132.760664 C420.304425,133.293839 419.023009,134.36019 417.100885,135.959716 C413.897345,140.225118 409.412389,147.689573 403.646018,158.353081 C411.975221,151.954976 416.460177,146.356635 417.100885,141.558057 C420.304425,139.958531 425.430088,136.492891 432.477876,131.161137 C426.070796,145.023697 422.867257,153.154621 422.867257,155.55391 C422.867257,157.953199 421.906195,161.018957 419.984071,164.751185 C417.421239,166.350711 414.217699,168.75 410.373451,171.949052 C398.2,191.143365 379.299115,219.668246 353.670796,257.523697 C354.311504,258.056872 355.59292,258.32346 357.515044,258.32346 C357.515044,258.32346 361.839823,252.591825 370.489381,241.128555 C379.138938,229.665284 392.113274,213.270142 409.412389,191.943128 C413.897345,187.14455 420.945133,179.680095 430.555752,169.549763 C429.274336,169.549763 426.711504,169.283175 422.867257,168.75 C428.633628,158.619668 437.283186,144.757109 448.815929,127.162322 C455.863717,119.164692 463.231858,109.300948 470.920354,97.57109 C481.171681,87.4407583 496.228319,72.5118483 516.090265,52.7843602 C516.090265,53.3175355 516.090265,54.3838863 516.090265,55.9834123 C502.635398,70.9123223 485.976991,91.1729858 466.115044,116.765403 C462.270796,118.898104 457.465487,124.763033 451.699115,134.36019 C444.010619,147.156398 439.525664,154.354265 438.244248,155.953791 C437.60354,156.486967 437.60354,157.020142 438.244248,157.553318 C442.088496,153.287915 448.495575,146.623223 457.465487,137.559242 C457.465487,137.559242 457.145133,137.292654 456.504425,136.759479 C460.989381,131.427725 466.115044,123.696682 471.881416,113.566351 C473.162832,113.033175 474.764602,111.966825 476.686726,110.367299 C481.171681,104.50237 487.578761,97.0379147 495.907965,87.9739336 C489.500885,91.1729858 488.860177,95.4383886 493.985841,100.770142 L437.283186,177.547393 C440.486726,175.414692 445.292035,171.682464 451.699115,166.350711 C441.447788,176.481043 436.962832,181.546209 438.244248,181.546209 C439.525664,181.546209 439.20531,180.479858 437.283186,178.347156 C434.079646,179.946682 432.157522,182.879147 431.516814,187.14455 C430.876106,191.409953 429.915044,194.609005 428.633628,196.741706 C429.274336,196.741706 430.235398,196.741706 431.516814,196.741706 C432.157522,196.741706 434.079646,195.408768 437.283186,192.742891 C437.283186,191.143365 437.60354,189.543839 438.244248,187.944313 C441.447788,184.745261 446.573451,180.746445 453.621239,175.947867 C454.261947,175.414692 455.863717,175.148104 458.426549,175.148104 C458.426549,177.280806 460.348673,173.281991 464.19292,163.151659 L470.920354,163.951422 C471.561062,163.418246 472.20177,163.018365 472.842478,162.751777 C473.483186,162.48519 474.123894,162.351896 474.764602,162.351896 C472.842478,159.152844 470.920354,157.553318 468.99823,157.553318 C467.076106,157.553318 465.954867,157.819905 465.634513,158.353081 C465.314159,158.886256 464.833628,159.152844 464.19292,159.152844 C465.474336,157.553318 467.39646,154.354265 469.959292,149.555687 C472.522124,144.757109 474.764602,141.024882 476.686726,138.359005 C477.968142,139.425355 479.249558,139.958531 480.530973,139.958531 C479.249558,143.157583 477.327434,147.156398 474.764602,151.954976 C474.123894,152.488152 474.764602,152.754739 476.686726,152.754739 C482.453097,152.754739 485.015929,149.555687 484.375221,143.157583 C484.375221,144.757109 484.695575,146.090047 485.336283,147.156398 L543,82.3755924 Z M420.945133,149.555687 L419.023009,149.555687 L417.100885,152.754739 L419.023009,153.554502 L420.945133,149.555687 Z M438.244248,183.145735 L436.322124,182.345972 L434.4,185.545024 L436.322124,186.344787 L438.244248,183.145735 Z M430.555752,188.744076 L428.633628,188.744076 L425.750442,194.342417 L427.672566,194.342417 L430.555752,188.744076 Z M452.660177,212.736967 L450.738053,207.938389 C448.815929,208.471564 445.932743,212.470379 442.088496,219.934834 C444.010619,217.802133 447.534513,215.402844 452.660177,212.736967 Z M148.00354,59.9822275 C142.877876,56.7831754 139.99469,55.1836493 139.353982,55.1836493 C138.072566,55.1836493 137.592035,55.450237 137.912389,55.9834123 C138.232743,56.5165877 137.752212,56.7831754 136.470796,56.7831754 C135.189381,56.7831754 134.70885,56.3832938 135.029204,55.5835308 C135.349558,54.7837678 134.869027,54.3838863 133.587611,54.3838863 C132.306195,54.3838863 131.024779,54.3838863 129.743363,54.3838863 C129.102655,54.9170616 128.461947,55.1836493 127.821239,55.1836493 L127.821239,59.9822275 C129.102655,59.9822275 130.384071,59.7156398 131.665487,59.1824645 C133.587611,59.1824645 135.189381,59.1824645 136.470796,59.1824645 C148.644248,59.1824645 152.488496,59.4490521 148.00354,59.9822275 Z M142.237168,67.9798578 L142.237168,65.5805687 L127.821239,65.5805687 L127.821239,67.9798578 L142.237168,67.9798578 Z M130.704425,73.5781991 L129.743363,71.978673 L126.860177,73.5781991 L126.860177,75.1777251 L130.704425,73.5781991 Z M358.476106,259.922986 L352.709735,259.922986 C351.428319,263.122038 349.826549,267.120853 347.904425,271.919431 C349.826549,268.720379 353.350442,264.721564 358.476106,259.922986 Z M346.943363,271.919431 L345.021239,271.919431 L342.138053,281.516588 L344.060177,281.516588 L346.943363,271.919431 Z M399.80177,364.691943 C394.676106,366.824645 392.113274,368.157583 392.113274,368.690758 C393.39469,369.757109 394.676106,370.290284 395.957522,370.290284 C396.59823,370.290284 397.238938,369.490521 397.879646,367.890995 C398.520354,366.291469 399.161062,365.225118 399.80177,364.691943 Z M385.385841,387.085308 L383.463717,386.285545 L380.580531,389.484597 L381.541593,390.28436 L385.385841,387.085308 Z M18.260177,128.761848 L15.3769912,128.761848 L14.4159292,135.959716 L16.3380531,135.959716 L18.260177,128.761848 Z M201.823009,285.515403 L199.900885,285.515403 L197.978761,289.514218 L199.900885,290.313981 L201.823009,285.515403 Z M210.472566,296.712085 L208.550442,295.912322 L206.628319,299.111374 L208.550442,299.911137 L210.472566,296.712085 Z M212.39469,311.907583 L212.39469,304.709716 L209.511504,304.709716 L209.511504,311.907583 L212.39469,311.907583 Z M18.260177,159.152844 L18.260177,149.555687 L15.3769912,149.555687 L15.3769912,159.152844 L18.260177,159.152844 Z M232.576991,384.686019 C231.936283,384.686019 231.295575,384.686019 230.654867,384.686019 C230.014159,385.219194 229.053097,385.485782 227.771681,385.485782 C227.130973,385.485782 226.169912,384.686019 224.888496,383.086493 L224.888496,379.887441 C224.888496,378.82109 223.927434,371.756517 222.00531,358.69372 C220.083186,345.630924 218.80177,335.900474 218.161062,329.50237 C213.035398,332.168246 210.472566,335.367299 210.472566,339.099526 C210.472566,340.165877 211.753982,348.696682 214.316814,364.691943 C217.520354,383.353081 219.762832,396.415877 221.044248,403.880332 C222.325664,401.214455 226.169912,394.816351 232.576991,384.686019 Z" id="形状"></path>
            </g>
            <g id="v2rayA" transform="translate(151.18, 770.9991)" fill="#FFFFFF" fill-rule="nonzero">
                <path d="M25.3,51.7808824 L58.3,118.880882 L90.86,51.7808824 C88.66,46.7942157 90.0533333,43.4942157 95.04,41.8808824 C97.68,41.0008824 102.153333,40.5608824 108.46,40.5608824 C111.98,40.5608824 114.363333,41.257549 115.61,42.6508824 C116.856667,44.0442157 116.746667,46.207549 115.28,49.1408824 L68.64,144.620882 C67.76,145.794216 66,146.527549 63.36,146.820882 C60.4266667,146.967549 56.98,146.820882 53.02,146.380882 C51.1133333,146.087549 49.5733333,145.354216 48.4,144.180882 C47.6666667,143.447549 46.64,141.834216 45.32,139.340882 L1.1,49.1408824 C-0.366666667,46.3542157 -0.366666667,44.1542157 1.1,42.5408824 C2.27333333,41.2208824 4.4,40.5608824 7.48,40.5608824 C13.64,40.5608824 18.26,41.0008824 21.34,41.8808824 C26.3266667,43.347549 27.6466667,46.647549 25.3,51.7808824 Z" id="路径"></path>
                <path d="M234.74,134.720882 C235.913333,137.067549 235.803333,138.864216 234.41,140.110882 C233.016667,141.357549 230.853333,141.980882 227.92,141.980882 C199.613333,141.980882 174.093333,143.594216 151.36,146.820882 C144.466667,147.260882 139.626667,146.600882 136.84,144.840882 C134.786667,143.080882 132.696667,140.367549 130.57,136.700882 C128.443333,133.034216 129.433333,129.514216 133.54,126.140882 C149.38,113.380882 158.766667,105.827549 161.7,103.480882 C172.406667,94.387549 181.28,85.9542157 188.32,78.1808824 C202.546667,62.6342157 209.66,48.9208824 209.66,37.0408824 C209.66,31.027549 206.8,26.407549 201.08,23.1808824 C196.093333,20.3942157 189.713333,19.0008824 181.94,19.0008824 C175.926667,19.0008824 169.913333,20.3208824 163.9,22.9608824 C157.593333,25.747549 153.046667,29.267549 150.26,33.5208824 C148.793333,35.427549 147.033333,36.8208824 144.98,37.7008824 C142.486667,38.727549 140.506667,38.507549 139.04,37.0408824 C136.253333,34.8408824 133.98,32.347549 132.22,29.5608824 C129.58,25.4542157 130.24,21.7142157 134.2,18.3408824 C146.96,6.16754902 163.533333,0.0808823529 183.92,0.0808823529 C197.56,0.0808823529 208.78,2.86754902 217.58,8.44088235 C227.553333,14.747549 232.54,23.9142157 232.54,35.9408824 C232.54,52.9542157 223.153333,71.1408824 204.38,90.5008824 C192.646667,102.527549 177.393333,114.847549 158.62,127.460882 C177.54,124.820882 196.9,122.987549 216.7,121.960882 C221.393333,121.667549 225.28,122.987549 228.36,125.920882 C230.853333,128.560882 232.98,131.494216 234.74,134.720882 Z" id="路径"></path>
                <path d="M295.9,52.2208824 C301.766667,48.7008824 307.266667,46.207549 312.4,44.7408824 C317.533333,43.567549 320.686667,45.1808824 321.86,49.5808824 C322.593333,52.367549 322.96,56.0342157 322.96,60.5808824 C322.96,63.367549 320.32,65.347549 315.04,66.5208824 C308.733333,68.2808824 302.72,70.7742157 297,74.0008824 C288.053333,79.5742157 281.16,84.7808824 276.32,89.6208824 L276.32,140.440882 C276.32,145.867549 273.753333,147.920882 268.62,146.600882 C265.1,145.427549 262.313333,144.254216 260.26,143.080882 C258.206667,141.907549 256.85,140.697549 256.19,139.450882 C255.53,138.204216 255.2,136.114216 255.2,133.180882 L255.2,53.1008824 C255.2,49.8742157 256.043333,47.857549 257.73,47.0508824 C259.416667,46.2442157 261.8,46.2808824 264.88,47.1608824 C270.013333,48.627549 273.826667,50.387549 276.32,52.4408824 C280.72,55.8142157 280.72,59.5542157 276.32,63.6608824 L276.32,66.5208824 C281.6,61.827549 288.126667,57.0608824 295.9,52.2208824 Z" id="路径"></path>
                <path d="M434.28,58.1608824 L434.28,142.420882 C434.28,145.354216 433.656667,147.224216 432.41,148.030882 C431.163333,148.837549 429.146667,149.094216 426.36,148.800882 C423.866667,148.067549 421.006667,146.820882 417.78,145.060882 C415.873333,144.034216 414.626667,142.824216 414.04,141.430882 C413.453333,140.037549 413.16,138.020882 413.16,135.380882 L413.16,123.060882 C408.906667,130.540882 402.82,136.480882 394.9,140.880882 C387.42,144.987549 379.573333,147.040882 371.36,147.040882 C356.546667,147.040882 344.996667,141.870882 336.71,131.530882 C328.423333,121.190882 325.746667,108.687549 328.68,94.0208824 C331.906667,78.4742157 340.193333,65.567549 353.54,55.3008824 C366.153333,45.6208824 379.646667,40.7808824 394.02,40.7808824 C400.62,40.7808824 407,42.687549 413.16,46.5008824 C413.306667,43.8608824 414.15,42.2108824 415.69,41.5508824 C417.23,40.8908824 419.613333,40.8542157 422.84,41.4408824 C427.093333,42.467549 430.833333,44.3008824 434.06,46.9408824 C438.46,50.3142157 438.533333,54.0542157 434.28,58.1608824 Z M375.54,128.340882 C381.406667,128.340882 387.713333,126.067549 394.46,121.520882 C402.38,116.240882 408.613333,109.274216 413.16,100.620882 L413.16,72.9008824 C407.44,63.807549 399.85,59.2608824 390.39,59.2608824 C380.93,59.2608824 372.386667,62.3408824 364.76,68.5008824 C356.84,74.9542157 351.78,83.4608824 349.58,94.0208824 C347.673333,103.554216 349.25,111.657549 354.31,118.330882 C359.37,125.004216 366.446667,128.340882 375.54,128.340882 Z" id="形状"></path>
                <path d="M474.76,51.7808824 L501.82,113.600882 L535.92,51.5608824 C533.866667,45.6942157 535.626667,42.247549 541.2,41.2208824 C545.6,40.6342157 549.78,40.5608824 553.74,41.0008824 C557.26,41.4408824 559.57,42.4308824 560.67,43.9708824 C561.77,45.5108824 561.513333,47.747549 559.9,50.6808824 L487.52,182.020882 C485.76,186.567549 482.826667,188.767549 478.72,188.620882 C475.346667,188.767549 472.266667,188.694216 469.48,188.400882 C466.986667,188.107549 465.336667,187.190882 464.53,185.650882 C463.723333,184.110882 464.053333,182.094216 465.52,179.600882 L489.28,136.480882 L450.56,49.1408824 C449.24,46.207549 449.203333,44.0442157 450.45,42.6508824 C451.696667,41.257549 453.933333,40.5608824 457.16,40.5608824 C463.466667,40.5608824 468.013333,41.0008824 470.8,41.8808824 C475.933333,43.4942157 477.253333,46.7942157 474.76,51.7808824 Z" id="路径"></path>
                <path d="M653.84,12.4008824 C655.893333,15.9208824 655.746667,18.707549 653.4,20.7608824 C657.213333,20.3208824 660.44,22.0808824 663.08,26.0408824 C692.12,71.8008824 711.846667,105.680882 722.26,127.680882 C724.313333,131.934216 723.8,135.600882 720.72,138.680882 C716.32,143.080882 712.213333,145.720882 708.4,146.600882 C706.2,147.040882 704.476667,146.857549 703.23,146.050882 C701.983333,145.244216 701.653333,143.667549 702.24,141.320882 C702.533333,139.854216 702.386667,138.534216 701.8,137.360882 C689.333333,112.867549 669.826667,78.987549 643.28,35.7208824 L610.94,98.8608824 C627.806667,95.927549 643.133333,93.8742157 656.92,92.7008824 C663.813333,92.1142157 668.653333,93.507549 671.44,96.8808824 C673.786667,99.5208824 675.546667,101.977549 676.72,104.250882 C677.893333,106.524216 677.746667,108.320882 676.28,109.640882 C675.106667,110.814216 673.346667,111.400882 671,111.400882 C652.226667,111.547549 636.68,112.940882 624.36,115.580882 C619.96,116.314216 616.44,115.947549 613.8,114.480882 C610.133333,112.280882 607.493333,110.300882 605.88,108.540882 L588.72,142.420882 C586.226667,147.260882 583,148.140882 579.04,145.060882 C575.96,143.007549 573.466667,140.587549 571.56,137.800882 C568.773333,134.867549 568.553333,131.420882 570.9,127.460882 L632.94,4.92088235 C636.02,-0.799117647 639.906667,-1.53245098 644.6,2.72088235 C648.413333,5.80088235 651.493333,9.02754902 653.84,12.4008824 Z" id="路径"></path>
            </g>
        </g>
    </g>
</svg>