<?xml version="1.0" encoding="UTF-8"?>
<svg width="1024px" height="1024px" viewBox="0 0 1024 1024" version="1.1" xmlns="http://www.w3.org/2000/svg" xmlns:xlink="http://www.w3.org/1999/xlink">
    <title>Vaultwarden</title>
    <g id="ICON-新版方图标" stroke="none" stroke-width="1" fill="none" fill-rule="evenodd">
        <g id="Vaultwarden">
            <rect id="蒙版路径" fill="#FFFFFF" x="0" y="0" width="1024" height="1024"></rect>
            <g id="编组-39" transform="translate(157, 157)" fill="#000000" fill-rule="nonzero">
                <path d="M208.470255,130.379147 L142,130.379147 L320.045326,630 L382.954674,630 L561,130.379147 L494.529745,130.379147 L381.767705,451.563981 C374.289801,471.78673 367.524079,492.009479 362.776204,509.853081 C357.672238,527.696683 353.39915,544.350711 349.719546,561.00474 C346.396033,544.350712 342.241643,527.696683 336.662889,508.663507 C331.558923,490.819905 325.149291,470.597157 317.671388,449.184834 L204.909348,128 L208.470255,130.379147 Z" id="路径"></path>
                <path d="M351.316441,0.535403036 C349.058776,1.34388237 347.276409,2.91328387 346.088165,4.93448325 L328.264494,34.6579969 C325.056233,34.919564 321.966797,35.2049098 318.758535,35.5615912 L294.993641,9.4048999 C289.884188,4.17356177 280.734704,5.95697258 278.358214,12.8528272 L266.475767,46.1431625 C263.386331,47.0229782 260.415718,47.9265733 257.326282,48.8777255 L228.808408,27.4767958 C222.629536,22.1265634 213.361227,26.0500672 212.172982,34.1348626 L206.944705,68.6141386 C204.211742,70.0408672 201.359955,71.4675959 198.626992,73.0132181 L166.544383,57.5569916 C159.652564,54.4657464 152.285446,59.6970846 152.285446,67.1874099 L153.94899,102.855626 C151.5725,104.757931 149.19601,106.77913 146.819521,108.681434 L112.360423,100.121062 C105.349779,98.6943337 99.2897311,104.995718 100.477976,112.010468 L109.033338,146.489743 C107.013322,148.867624 105.112131,151.245506 103.210939,153.623386 L67.5635964,151.95887 C60.0776545,151.637856 54.4929044,159.330301 57.938814,166.226156 L73.3859959,198.327551 C71.8412775,201.062114 70.4153838,203.796677 68.9894901,206.650135 L34.5303927,211.881473 C26.4503287,212.689952 22.6479451,222.34415 27.8762217,228.52664 L49.2646271,257.061213 C48.3021489,260.033565 47.3634353,263.12481 46.5316644,266.216056 L13.2608113,278.105461 C10.0544895,279.340184 7.69531683,282.121049 6.99845311,285.487189 C6.30158939,288.853329 7.36260962,292.343077 9.81490182,294.750628 L35.9562864,318.529439 C35.599813,321.620684 35.3146343,324.830824 35.0532202,328.040963 L5.34710135,345.875071 C-1.78236712,349.679681 -1.78236712,360.142357 5.34710135,363.709179 L35.0532202,381.543287 C35.3146343,384.753427 35.599813,387.844672 35.9562864,391.054812 L9.81490182,414.833622 C4.58662518,419.946067 6.36899229,429.100909 13.2608113,431.47879 L46.5316644,443.368195 C47.4109653,446.45944 48.3140315,449.431792 49.2646271,452.523037 L27.8762217,481.05761 C22.5291204,487.240101 26.450328,496.513837 34.5303927,497.702778 L68.9894901,502.934116 C70.4153838,505.668679 71.8412775,508.522136 73.3859959,511.2567 L57.938814,543.358095 C54.8493779,550.25395 60.0776545,557.625381 67.5635964,557.625381 L103.210939,555.960864 C105.112131,558.338745 107.132146,560.716626 109.033338,563.094507 L100.477976,597.573783 C99.0520824,604.588532 105.349779,610.652129 112.360423,609.463188 L146.819521,600.902816 C149.19601,602.924015 151.5725,604.82632 153.94899,606.728625 L152.285446,642.396841 C151.96462,649.887166 159.652564,655.475187 166.544383,652.027259 L198.626992,636.571032 C201.359954,638.116655 204.092918,639.543384 206.944705,640.970112 L212.172982,675.449388 C212.980988,683.534183 222.629536,687.338793 228.808408,682.107455 L257.326282,660.706525 C260.296894,661.669567 263.386331,662.60883 266.475767,663.441088 L278.358214,696.731424 C280.972353,703.627279 289.884189,705.41069 294.993641,700.179351 L318.758535,674.022659 C321.847971,674.379341 325.056232,674.664687 328.264494,674.926254 L346.088165,704.649768 C349.890548,711.783411 360.347102,711.783411 363.911836,704.649768 L381.735507,674.926254 C384.943768,674.664687 388.033204,674.379341 391.241465,674.022659 L415.006359,700.179351 C420.115812,705.410689 429.265296,703.627278 431.641786,696.731424 L443.524233,663.441088 C446.613669,662.561273 449.584282,661.657678 452.673718,660.706525 L481.191592,682.107455 C487.370465,687.457687 496.638774,683.534184 497.827018,675.449388 L503.055295,640.970112 C505.788258,639.543384 508.640045,638.116655 511.373008,636.571032 L543.455617,652.027259 C550.347436,655.118504 557.714554,649.887166 557.714554,642.396841 L556.051011,606.728625 C558.4275,604.82632 560.80399,602.805121 563.18048,600.902816 L597.639577,609.463188 C604.650221,610.889916 610.710269,604.588532 609.522025,597.573783 L600.966662,563.094507 C602.986678,560.716626 604.88787,558.338745 606.789061,555.960864 L642.436404,557.625381 C649.922345,557.946395 655.507096,550.25395 652.061186,543.358095 L636.614005,511.2567 C638.158723,508.522137 639.584617,505.787573 641.01051,502.934116 L675.469608,497.702778 C683.549672,496.894299 687.352056,487.240101 682.123778,481.05761 L660.735373,452.523037 C661.697851,449.550686 662.636565,446.45944 663.468336,443.368195 L696.739189,431.47879 C699.94551,430.244066 702.304683,427.463201 703.001546,424.097061 C703.69841,420.730922 702.63739,417.241174 700.185098,414.833622 L674.043714,391.054812 C674.400188,387.963567 674.685366,384.753427 674.94678,381.543287 L704.652899,363.709179 C711.782367,359.90457 711.782367,349.441893 704.652899,345.875071 L674.94678,328.040963 C674.692879,324.866153 674.391824,321.695294 674.043714,318.529439 L700.185098,294.750628 C705.413375,289.638184 703.631008,280.483342 696.739189,278.105461 L663.468336,266.216056 C662.589035,263.12481 661.685968,260.152459 660.735373,257.061213 L682.123778,228.52664 C687.47088,222.344149 683.549672,213.070413 675.469608,211.881473 L641.01051,206.650135 C639.584616,203.915572 638.158723,201.062114 636.614005,198.327551 L652.061186,166.226156 C655.150622,159.330301 649.922345,151.95887 642.436404,151.95887 L606.789061,153.623386 C604.887869,151.245506 602.867854,148.867624 600.966662,146.489743 L609.522025,112.010468 C610.947918,104.995719 604.650221,98.9321222 597.639577,100.121062 L563.18048,108.681434 C560.80399,106.660235 558.4275,104.75793 556.051011,102.855626 L557.714554,67.1874099 C558.03538,59.6970846 550.347436,54.1090643 543.455617,57.5569916 L511.373008,73.0132181 C508.640046,71.4675952 505.907082,70.0408665 503.055295,68.6141386 L497.827018,34.1348626 C497.019012,26.0500672 487.370464,22.245457 481.191592,27.4767958 L452.673718,48.8777255 C449.703106,47.9146836 446.61367,46.9754204 443.524233,46.1431625 L431.641786,12.8528272 C430.407785,9.64462783 427.628548,7.28407376 424.264378,6.58680198 C420.900208,5.88953021 417.412502,6.95117172 415.006359,9.4048999 L391.241465,35.5615912 C388.152029,35.2049091 384.943768,34.9195633 381.735507,34.6579969 L363.911836,4.93448325 C361.535347,0.892085196 356.544719,-1.0102192 352.029388,0.535403036 L351.316441,0.535403036 Z M354.762351,64.738192 C365.931852,64.738192 374.962512,73.7741403 374.962512,84.9501815 C374.962512,96.1262228 365.931852,105.16217 354.762351,105.16217 C343.59285,105.16217 334.562191,96.1262221 334.562191,84.9501815 C334.562191,73.774141 343.592851,64.738192 354.762351,64.738192 L354.762351,64.738192 Z M307.232562,99.217468 L340.503414,132.507803 C348.345829,140.35481 360.703574,140.35481 369.021288,132.507803 L402.292141,99.217468 C480.716294,113.484754 544.88151,163.420257 580.528853,230.000927 L559.140447,272.802786 C554.030995,282.789886 557.98785,295.392656 568.052283,300.148418 L610.829094,321.549348 C612.254987,332.4876 612.967934,344.139218 612.967934,354.839683 C612.967934,423.798234 585.638305,485.623142 541.673249,533.180763 L494.143459,525.690438 C482.973959,523.550345 472.755054,531.04067 470.378565,542.335605 L462.892623,589.893227 C429.62177,605.349454 391.597938,614.860978 351.197617,614.860978 C310.797295,614.860978 273.961709,605.82503 239.502611,589.893227 L232.016669,542.335605 C230.234302,531.04067 218.945977,523.312556 208.251774,525.690438 L160.721985,533.180763 C116.756929,486.812082 89.4272999,423.798234 89.4272999,354.839683 C89.4272999,343.425854 90.1877768,332.249813 91.5661405,321.549348 L134.342951,300.148418 C144.443032,295.154868 148.601888,282.31431 143.254787,272.802786 L121.866381,230.000927 C158.701969,162.231316 224.055429,113.484754 300.103093,99.217468 L307.232562,99.217468 Z M93.3485076,253.779737 C95.2496994,253.827295 97.1508905,254.160198 99.0520824,254.766558 C110.102758,258.214486 115.687509,270.222785 112.122774,280.92325 C108.676865,291.980397 96.6755924,297.568417 85.9813897,294.001596 C74.9307136,290.553669 69.3459635,278.545369 72.9106978,267.844904 C75.6436604,259.046744 83.9613739,253.577617 93.1108582,253.577617 L93.3485076,253.779737 Z M604.293747,253.779737 C613.443232,253.375497 622.117418,259.248864 624.493908,268.047024 C628.415116,278.866383 622.473893,290.636894 611.423216,294.203716 C600.610188,298.127219 588.846565,292.182517 585.281832,281.12537 C581.360624,270.306011 587.301848,258.5355 598.352524,254.968678 C600.253716,254.362318 602.154907,254.029415 604.056099,253.981858 L604.293747,253.779737 Z M188.408087,551.014871 C192.329295,551.216991 196.012854,552.560494 199.221114,554.819481 C208.489423,561.358654 210.509439,573.84253 203.736444,583.354054 C197.201098,592.62779 184.724528,594.648989 175.21857,587.872028 C165.950261,581.332855 163.930245,568.848979 170.70324,559.337455 C174.743273,553.630541 181.516268,550.539296 188.526912,551.014871 L188.408087,551.014871 Z M509.234168,551.014871 C516.244812,550.515516 523.493105,553.630541 527.057839,559.337455 C533.830834,568.492297 531.810818,580.738385 522.542509,587.872028 C513.393025,594.648989 501.154104,592.627791 494.024635,583.354054 C487.25164,574.199212 489.271656,561.953124 498.539965,554.819481 C501.748226,552.560494 505.431785,551.252659 509.352993,551.014871 L509.234168,551.014871 Z" id="形状"></path>
            </g>
        </g>
    </g>
</svg>