<?xml version="1.0" encoding="UTF-8"?>
<svg width="1025px" height="1024px" viewBox="0 0 1025 1024" version="1.1" xmlns="http://www.w3.org/2000/svg" xmlns:xlink="http://www.w3.org/1999/xlink">
    <title>Yacd</title>
    <defs>
        <linearGradient x1="50%" y1="-18.2455386%" x2="50%" y2="100%" id="linearGradient-1">
            <stop stop-color="#64ABDC" offset="0%"></stop>
            <stop stop-color="#3472B6" offset="100%"></stop>
        </linearGradient>
    </defs>
    <g id="ICON-新版方图标" stroke="none" stroke-width="1" fill="none" fill-rule="evenodd">
        <g id="Yacd" transform="translate(0.6332, 0)" fill-rule="nonzero">
            <polygon id="路径" fill="#FFFFFF" points="0 0.00130531403 1024 0.00130531403 1024 1024.00131 -9.61462177e-14 1024.00131"></polygon>
            <path d="M455.077163,372.010719 C460.896386,377.012859 464.863039,380.209834 472.704516,380.147933 L477.970762,379.453024 C485.75235,378.577067 499.303252,378.06454 518.62347,377.915441 C530.295852,377.931416 541.596921,378.658273 553.167492,380.2318 C558.463683,380.651141 558.463683,380.651141 563.873664,375.31952 L769.36907,186.490251 C786.99243,185.352039 850.848165,193.678954 857.206389,196.474562 C857.47165,262.57777 858.434116,643.911448 857.206389,651.759115 C850.015707,657.965362 819.450317,664.07576 815.034495,664.988326 C810.604699,665.920861 782.712359,671.939403 777.354281,673.724598 C772.673617,674.061402 758.699498,674.061402 735.431924,673.724598 C731.056029,667.156918 730.942239,665.267887 730.950225,657.653852 L730.692702,424.709906 C729.810337,419.651855 729.810337,419.651855 724.739728,416.502803 C717.76265,413.369727 714.72228,413.695215 707.483687,416.12939 C702.896183,419.422215 612.114319,502.817167 603.87957,510.341342 C597.363638,515.984475 597.363638,515.984475 591.408666,515.940544 C581.233512,515.047946 571.693181,513.55629 561.815475,510.926423 C547.254443,507.497811 533.36417,507.152354 518.457777,507.360028 L510.544434,507.419934 C486.570835,507.737435 462.836792,508.288569 439.979125,515.972493 C433.447223,516.82715 428.200939,516.28001 422.012401,513.975632 C416.742162,509.682379 321.524512,419.733726 307.943665,413.547448 L296.245331,414.132528 C294.739397,414.387288 293.740954,414.760214 293.25,415.251305 C292.759046,415.742397 292.426622,416.700712 292.252726,418.126252 L292.238752,422.044096 C292.158899,442.997835 291.498123,525.560094 290.256423,669.730873 C281.955796,675.266175 168.941108,656.212117 164.489354,651.759115 C164.102071,645.776516 163.970315,639.977629 164.010241,633.99503 C164.26976,380.03278 164.429464,234.192624 164.489354,196.474562 C167.000362,195.491041 214.568603,187.716325 218.611116,187.442754 C252.480387,185.350043 252.480387,185.350043 262.182419,194.351897 C386.574701,308.843981 450.872949,368.063589 455.077163,372.010719 Z" id="路径" fill="url(#linearGradient-1)"></path>
            <path d="M705.189935,766.980054 C712.592226,770.035253 720.094331,772.541315 727.704236,775.027408 C730.922277,776.087741 734.140316,777.15207 737.358357,778.216397 C739.015289,778.765533 740.672219,779.314671 742.381054,779.877786 C750.541939,782.599509 758.676873,785.393119 766.811806,788.19272 L771.678793,789.86609 C778.228662,792.11855 784.778531,794.371011 791.326403,796.629462 C796.213352,798.314814 801.100301,799.994174 805.989247,801.671538 L810.652611,803.273022 C820.121074,806.501948 829.613494,809.529191 839.261625,812.175034 C846.65593,814.651143 853.439366,818.205557 859.202692,823.489253 C860.699919,828.607211 860.699919,828.607211 859.202692,833.473564 C856.08247,838.216111 856.08247,838.216111 851.217481,841.461013 C840.74887,840.674249 831.272421,837.788783 821.436638,834.308253 L816.968912,832.762681 C812.285586,831.139232 807.608249,829.499808 802.930911,827.858388 L793.632134,824.623471 C789.094538,823.047947 784.554946,821.470426 780.017349,819.890908 C767.851848,815.663799 755.651354,811.538139 743.417135,807.514357 C738.991333,806.040673 734.567526,804.562995 730.145716,803.083321 C726.603181,801.907656 723.057065,800.742814 719.507418,799.588812 C708.587642,796.012432 697.993264,792.270312 687.52066,787.545736 L683.715707,785.986187 C678.697724,783.929731 673.330673,782.178979 670.486437,778.864281 C670.135256,778.455012 669.768601,777.961779 669.5,777.501305 C670.883438,761.734082 673.5,761.001305 681.407981,760.961511 C690.449236,761.08931 697.001102,763.32979 705.189935,766.980054 Z M354.138109,767.577116 C355.13626,772.445466 355.13626,772.445466 354.138109,777.561426 C346.871567,784.498526 339.856559,787.519778 330.362145,790.557004 L326.43342,791.834996 C322.322768,793.166706 318.207027,794.482648 314.086288,795.782792 C309.961926,797.106712 305.841558,798.436622 301.719193,799.772523 C297.986107,800.978627 294.251024,802.168757 290.513946,803.35689 C285.453319,805.108138 251.188779,816.783791 244.590999,819.371724 C234.332,823.309536 224.134886,826.925853 213.548491,829.89319 C204.487273,832.684804 195.675594,836.241215 186.845947,839.681808 C180.230199,841.524912 176.926318,841.57683 170.478261,839.46415 C166.858964,836.968073 166.858964,836.968073 164.489354,833.473564 C163.74074,828.481409 163.74074,828.481409 164.489354,823.489253 C169.340369,817.033399 175.40314,815.344053 182.885283,812.82601 L190.41334,810.264036 L198.300731,807.638163 C208.312732,804.234846 218.336225,800.865455 228.37104,797.530047 L235.172442,795.261611 C240.889853,793.352611 246.607265,791.447605 252.326672,789.544596 C258.311587,787.549731 264.294506,785.554865 270.277425,783.554009 C274.317942,782.210121 278.362451,780.878214 282.410954,779.560285 C295.227217,775.364878 307.71409,770.660271 320.200963,765.58225 C330.078668,761.628463 337.612716,760.723885 348.149202,761.588526 C352.141807,763.958801 352.141807,763.958801 354.138109,767.577116 Z" id="形状" fill="#F39B08"></path>
            <path d="M692.621214,702.902746 L697.903431,702.870797 C703.676738,702.844837 709.448049,702.860813 715.21936,702.882778 C727.622371,702.847293 740.025465,702.851953 752.428446,702.896756 C763.202492,702.930703 773.976538,702.910734 784.750583,702.876787 C793.023261,702.852825 801.293943,702.860812 809.564625,702.876787 C813.539264,702.880781 817.513903,702.876787 821.486545,702.860813 C827.036266,702.846835 832.583992,702.8688 838.131717,702.90075 L843.130459,702.864806 C854.289792,702.990608 854.289792,702.990608 858.697627,706.275447 C861.198995,709.668115 861.198995,709.668115 860.825686,716.780938 C859.202692,723.64615 859.202692,723.64615 855.210086,727.639874 C849.528609,728.047234 844.042769,728.204986 838.359296,728.189011 L833.075082,728.218964 C827.293789,728.24692 821.5105,728.244923 815.727212,728.238933 L803.703481,728.266889 C795.295054,728.280867 786.884631,728.280867 778.476204,728.270883 C767.686187,728.258901 756.896172,728.290851 746.104158,728.338776 C737.825491,728.368729 729.544828,728.370725 721.264164,728.364735 C717.285533,728.364735 713.306901,728.374719 709.326274,728.394688 C703.768567,728.420648 698.21086,728.40667 692.653154,728.382707 L687.646427,728.428634 C676.421217,728.324798 676.421217,728.324798 672.125173,724.974064 C668.164508,719.852112 668.771385,715.928278 669.553936,709.668115 C675.74447,701.672679 683.230606,702.832856 692.621214,702.902746 L692.621214,702.902746 Z" id="路径" fill="#F39C0B"></path>
            <path d="M185.344728,702.902746 L190.55907,702.870797 C196.256517,702.844837 201.953966,702.860813 207.651413,702.882778 C219.90204,702.847301 232.15275,702.85196 244.403346,702.896756 C255.039647,702.930703 265.675948,702.910734 276.310253,702.876787 C284.48112,702.852825 292.651986,702.860812 300.82485,702.876787 C304.745588,702.880781 308.666326,702.876787 312.587065,702.860813 C318.068944,702.849832 323.550846,702.863145 329.032607,702.90075 L333.951497,702.864806 C340.495377,702.938691 345.324434,703.234226 351.153636,706.347334 C354.138109,709.668115 354.138109,709.668115 355.136261,715.658701 C354.13811,721.649288 354.13811,721.649288 351.153636,724.968072 C343.942991,728.822016 337.009832,728.490537 329.032607,728.446606 L323.806286,728.486543 C318.108838,728.526481 312.415382,728.516496 306.717935,728.506512 L294.845923,728.536465 C286.553281,728.556433 278.262636,728.550442 269.971991,728.530474 C259.331697,728.508509 248.695397,728.548446 238.0571,728.606355 C229.886233,728.642298 221.715366,728.642298 213.5445,728.630318 C209.621765,728.630318 205.69903,728.642299 201.774299,728.668258 C196.296444,728.696214 190.822582,728.676246 185.344728,728.642298 L180.41386,728.700207 C169.462143,728.556434 169.462143,728.556434 164.479371,723.903745 C162.021922,718.642014 161.610684,715.409094 162.493051,709.668115 C167.645508,701.23936 176.555007,702.83685 185.344728,702.902746 L185.344728,702.902746 Z" id="路径" fill="#F39C0A"></path>
            <path d="M509.885653,685.180596 L515.215781,685.330361 L520.615781,685.414228 C525.013636,685.484119 529.409494,685.581965 533.805352,685.70577 C536.867681,691.832143 537.063319,697.0779 535.801655,703.677529 C531.37186,713.729732 526.442988,724.5048 517.83493,731.633598 C512.967944,732.632029 512.967944,732.632029 507.853417,731.633598 C498.836117,723.176888 490.777044,708.803474 489.231906,696.438904 C490.52551,687.069628 495.947468,684.942969 504.757152,685.120689 L509.885653,685.180596 Z" id="路径" fill="#24519B"></path>
        </g>
    </g>
</svg>